<svg xmlns="http://www.w3.org/2000/svg" xmlns:xlink="http://www.w3.org/1999/xlink" width="2350" height="1225" version="1.1">
<style type="text/css">
.l0{
  fill: #ffffff;
  stroke: #ffffff;
  stroke-linecap:round;
  stroke-linejoin:round;
  stroke-width: 2.89801;
}
.l1{
  fill: #0044ee;
  stroke: #0044ee;
  stroke-linecap:round;
  stroke-linejoin:round;
  stroke-width: 2.89801;
}
.l2{
  fill: #aaaaaa; fill-opacity: 0.2;
  stroke: #aaaaaa;
  stroke-linecap:round;
  stroke-linejoin:round;
  stroke-width: 2.89801;
}
.l3{
  fill: #222222; fill-opacity: 0.5;
  stroke: #222222;
  stroke-linecap:round;
  stroke-linejoin:round;
  stroke-width: 2.89801;
}
.l4{
  fill: #229900;
  stroke: #229900;
  stroke-linecap:round;
  stroke-linejoin:round;
  stroke-width: 2.89801;
}
.l5{
  fill: #bb2200;
  stroke: #bb2200;
  stroke-linecap:round;
  stroke-linejoin:round;
  stroke-width: 2.89801;
}
.l6{
  fill: #00ccee; fill-opacity: 0.5;
  stroke: #00ccee;
  stroke-linecap:round;
  stroke-linejoin:round;
  stroke-width: 2.89801;
}
.l7{
  fill: #ff0000; fill-opacity: 0.5;
  stroke: #ff0000;
  stroke-linecap:round;
  stroke-linejoin:round;
  stroke-width: 2.89801;
}
.l8{
  fill: #888800; fill-opacity: 0.5;
  stroke: #888800;
  stroke-linecap:round;
  stroke-linejoin:round;
  stroke-width: 2.89801;
}
.l9{
  fill: #00aaaa; fill-opacity: 0.5;
  stroke: #00aaaa;
  stroke-linecap:round;
  stroke-linejoin:round;
  stroke-width: 2.89801;
}
.l10{
  fill: #880088;
  stroke: #880088;
  stroke-linecap:round;
  stroke-linejoin:round;
  stroke-width: 2.89801;
}
.l11{
  fill: #00ff00; fill-opacity: 0.5;
  stroke: #00ff00;
  stroke-linecap:round;
  stroke-linejoin:round;
  stroke-width: 2.89801;
}
.l12{
  fill: #0000cc; fill-opacity: 0.5;
  stroke: #0000cc;
  stroke-linecap:round;
  stroke-linejoin:round;
  stroke-width: 2.89801;
}
.l13{
  fill: #666600; fill-opacity: 0.5;
  stroke: #666600;
  stroke-linecap:round;
  stroke-linejoin:round;
  stroke-width: 2.89801;
}
.l14{
  fill: #557755; fill-opacity: 0.2;
  stroke: #557755;
  stroke-linecap:round;
  stroke-linejoin:round;
  stroke-width: 2.89801;
}
.l15{
  fill: #aa2222; fill-opacity: 0.5;
  stroke: #aa2222;
  stroke-linecap:round;
  stroke-linejoin:round;
  stroke-width: 2.89801;
}
.l16{
  fill: #7ccc40; fill-opacity: 0.5;
  stroke: #7ccc40;
  stroke-linecap:round;
  stroke-linejoin:round;
  stroke-width: 2.89801;
}
.l17{
  fill: #00ffcc; fill-opacity: 0.2;
  stroke: #00ffcc;
  stroke-linecap:round;
  stroke-linejoin:round;
  stroke-width: 2.89801;
}
.l18{
  fill: #ce0097; fill-opacity: 0.5;
  stroke: #ce0097;
  stroke-linecap:round;
  stroke-linejoin:round;
  stroke-width: 2.89801;
}
.l19{
  fill: #d2d46b; fill-opacity: 0.2;
  stroke: #d2d46b;
  stroke-linecap:round;
  stroke-linejoin:round;
  stroke-width: 2.89801;
}
.l20{
  fill: #ef6158; fill-opacity: 0.2;
  stroke: #ef6158;
  stroke-linecap:round;
  stroke-linejoin:round;
  stroke-width: 2.89801;
}
.l21{
  fill: #fdb200; fill-opacity: 0.2;
  stroke: #fdb200;
  stroke-linecap:round;
  stroke-linejoin:round;
  stroke-width: 2.89801;
}
text {font-family: Sans-Serif;}
</style>
<rect class="l0" x="0" y="0" width="2350" height="1225"/>
<text fill="#0044ee"  xml:space="preserve" font-size="17.1473" transform="translate(2278.16, 56.1647)" >VDD</text>
<text fill="#0044ee"  xml:space="preserve" font-size="17.1473" transform="translate(2278.16, 1215.31)" >VSS</text>
<text fill="#0044ee"  xml:space="preserve" font-size="17.1473" transform="translate(2278.31, 836.213)" >Vbias</text>
<text fill="#0044ee"  xml:space="preserve" font-size="17.1473" transform="translate(1591.26, 157.34)" >Vgs_m34</text>
<text fill="#0044ee"  xml:space="preserve" font-size="17.1473" transform="translate(1299.47, 127.362)" >di_bias_en</text>
<text fill="#0044ee"  xml:space="preserve" font-size="17.1473" transform="translate(1304.47, 267.259)" >bias_en_n</text>
<text fill="#0044ee"  xml:space="preserve" font-size="17.1473" transform="translate(467.154, 656.97)" >Vsu</text>
<text fill="#0044ee"  xml:space="preserve" font-size="17.1473" transform="translate(1324.46, 1083.22)" >bias_en_n</text>
<text fill="#0044ee"  xml:space="preserve" font-size="17.1473" transform="translate(2278.31, 556.42)" >Vbiasc</text>
<text fill="#0044ee"  xml:space="preserve" font-size="17.1473" transform="translate(20.4168, 626.992)" >di_bias_en</text>
<text fill="#0044ee"  xml:space="preserve" font-size="17.1473" transform="translate(25.4168, 763.459)" >bias_en_n</text>
<text fill="#0044ee"  xml:space="preserve" font-size="17.1473" transform="translate(405.136, 247.273)" >bias_en_n</text>
<text fill="#666600"  xml:space="preserve" font-size="10.3923" transform="translate(1182.12, 1122.36)" >1</text>
<text fill="#666600"  xml:space="preserve" font-size="10.3923" transform="translate(1182.12, 1164.83)" >2</text>
<text fill="#aa2222"  xml:space="preserve" font-size="7.79423" transform="translate(1209.11, 1117.51)" >#net3</text>
<text fill="#aa2222"  xml:space="preserve" font-size="7.79423" transform="translate(1209.11, 1166.22)" >VSS</text>
<text fill="#222222"  xml:space="preserve" font-size="10.3923" transform="translate(1214.1, 1129.86)" >R1</text>
<text fill="#222222"  xml:space="preserve" font-size="10.3923" transform="translate(1214.1, 1142.35)" >3.72Meg</text>
<text fill="#222222"  xml:space="preserve" font-size="10.3923" transform="translate(1214.1, 1154.84)" >m=1</text>
<text fill="#222222"  xml:space="preserve" font-size="10.3923" transform="translate(2245.85, 954.294) rotate(270)" >MDEC1</text>
<text fill="#ff0000"  xml:space="preserve" font-size="7.79423" transform="translate(2226.49, 939.305) rotate(270)" >G</text>
<text fill="#222222"  xml:space="preserve" font-size="10.3923" transform="translate(2196.57, 1052.28) rotate(270)" >sg13_lv_nmos</text>
<text fill="#666600"  xml:space="preserve" font-size="10.3923" transform="translate(2209.63, 1006.52) rotate(270)" >m=1</text>
<text fill="#666600"  xml:space="preserve" font-size="10.3923" transform="translate(2218.37, 1024.52) rotate(270)" >ng=100</text>
<text fill="#666600"  xml:space="preserve" font-size="10.3923" transform="translate(2230.86, 1023.52) rotate(270)" >l=40.0u</text>
<text fill="#666600"  xml:space="preserve" font-size="10.3923" transform="translate(2242.11, 1036.52) rotate(270)" >w=100.0u</text>
<text fill="#ff0000"  xml:space="preserve" font-size="7.79423" transform="translate(2199.01, 976.781) rotate(270)" >S</text>
<text fill="#ff0000"  xml:space="preserve" font-size="7.79423" transform="translate(2242.92, 977.781) rotate(270)" >D</text>
<text fill="#ff0000"  xml:space="preserve" font-size="7.79423" transform="translate(2226.49, 974.283) rotate(270)" >B</text>
<text fill="#222222"  xml:space="preserve" font-size="10.3923" transform="translate(1214.1, 470.345)" >VIref</text>
<text fill="#aa2222"  xml:space="preserve" font-size="7.79423" transform="translate(1209.11, 457.994)" >#net4</text>
<text fill="#aa2222"  xml:space="preserve" font-size="7.79423" transform="translate(1209.11, 506.708)" >#net8</text>
<text fill="#222222"  xml:space="preserve" font-size="10.3923" transform="translate(1953.55, 470.345)" >VIout</text>
<text fill="#aa2222"  xml:space="preserve" font-size="7.79423" transform="translate(1948.56, 457.994)" >#net9</text>
<text fill="#aa2222"  xml:space="preserve" font-size="7.79423" transform="translate(1948.56, 506.708)" >Vbiasc</text>
<text fill="#222222"  xml:space="preserve" font-size="10.3923" transform="translate(379.608, 932.753)" >sg13g2_lv_nmos_stacked_x4</text>
<text fill="#222222"  xml:space="preserve" font-size="10.3923" transform="translate(492.608, 906.772)" >xMSU2</text>
<text fill="#222222"  xml:space="preserve" font-size="10.3923" transform="translate(565.831, 872.298)" >D</text>
<text fill="#222222"  xml:space="preserve" font-size="10.3923" transform="translate(635.274, 962.053)" >G</text>
<text fill="#222222"  xml:space="preserve" font-size="10.3923" transform="translate(515.868, 962.231)" >B</text>
<text fill="#222222"  xml:space="preserve" font-size="10.3923" transform="translate(566.326, 1073.22)" >S</text>
<text fill="#222222"  xml:space="preserve" font-size="10.3923" transform="translate(451.608, 1008.7)" >W: 1.0u</text>
<text fill="#222222"  xml:space="preserve" font-size="10.3923" transform="translate(451.608, 1020.62)" >L: 40.0u (total)</text>
<text fill="#222222"  xml:space="preserve" font-size="10.3923" transform="translate(451.608, 1032.54)" >NG: 1</text>
<text fill="#222222"  xml:space="preserve" font-size="10.3923" transform="translate(451.608, 1044.46)" >M: 1</text>
<text fill="#222222"  xml:space="preserve" font-size="10.3923" transform="translate(545.088, 902.526)" >*4</text>
<text fill="#222222"  xml:space="preserve" font-size="10.3923" transform="translate(769.431, 652.96)" >sg13g2_lv_nmos_stacked_x4</text>
<text fill="#222222"  xml:space="preserve" font-size="10.3923" transform="translate(769.431, 626.979)" >xMSU1</text>
<text fill="#222222"  xml:space="preserve" font-size="10.3923" transform="translate(725.208, 592.505)" >D</text>
<text fill="#222222"  xml:space="preserve" font-size="10.3923" transform="translate(655.765, 682.26)" >G</text>
<text fill="#222222"  xml:space="preserve" font-size="10.3923" transform="translate(776.171, 682.438)" >B</text>
<text fill="#222222"  xml:space="preserve" font-size="10.3923" transform="translate(725.713, 793.427)" >S</text>
<text fill="#222222"  xml:space="preserve" font-size="10.3923" transform="translate(769.431, 728.904)" >W: 1.0u</text>
<text fill="#222222"  xml:space="preserve" font-size="10.3923" transform="translate(769.431, 740.824)" >L: 40.0u (total)</text>
<text fill="#222222"  xml:space="preserve" font-size="10.3923" transform="translate(769.431, 752.744)" >NG: 1</text>
<text fill="#222222"  xml:space="preserve" font-size="10.3923" transform="translate(769.431, 764.664)" >M: 1</text>
<text fill="#222222"  xml:space="preserve" font-size="10.3923" transform="translate(741.951, 622.733)" >*4</text>
<text fill="#222222"  xml:space="preserve" font-size="10.3923" transform="translate(734.457, 510.316)" >Vmeas1</text>
<text fill="#aa2222"  xml:space="preserve" font-size="7.79423" transform="translate(729.46, 497.964)" >#net4</text>
<text fill="#aa2222"  xml:space="preserve" font-size="7.79423" transform="translate(729.46, 546.678)" >#net5</text>
<text fill="#222222"  xml:space="preserve" font-size="10.3923" transform="translate(805.668, 885.375) rotate(270)" >Vmeas2</text>
<text fill="#aa2222"  xml:space="preserve" font-size="7.79423" transform="translate(816.282, 860.379) rotate(270)" >Vbias</text>
<text fill="#aa2222"  xml:space="preserve" font-size="7.79423" transform="translate(767.568, 864.379) rotate(270)" >#net6</text>
<text fill="#222222"  xml:space="preserve" font-size="10.3923" transform="translate(1413.93, 99.3697)" >MPD1</text>
<text fill="#ff0000"  xml:space="preserve" font-size="7.79423" transform="translate(1422.94, 116.996)" >G</text>
<text fill="#222222"  xml:space="preserve" font-size="10.3923" transform="translate(1468.91, 148.654)" >sg13_lv_pmos</text>
<text fill="#666600"  xml:space="preserve" font-size="10.3923" transform="translate(1470.16, 135.593)" >m=1</text>
<text fill="#666600"  xml:space="preserve" font-size="10.3923" transform="translate(1470.16, 126.849)" >ng=1</text>
<text fill="#666600"  xml:space="preserve" font-size="10.3923" transform="translate(1470.16, 114.359)" >l=0.13u</text>
<text fill="#666600"  xml:space="preserve" font-size="10.3923" transform="translate(1470.16, 103.117)" >w=1.0u</text>
<text fill="#ff0000"  xml:space="preserve" font-size="7.79423" transform="translate(1461.42, 144.476)" >D</text>
<text fill="#ff0000"  xml:space="preserve" font-size="7.79423" transform="translate(1461.42, 100.561)" >S</text>
<text fill="#ff0000"  xml:space="preserve" font-size="7.79423" transform="translate(1458.92, 116.996)" >B</text>
<text fill="#222222"  xml:space="preserve" font-size="10.3923" transform="translate(1413.93, 239.266)" >MPD2</text>
<text fill="#ff0000"  xml:space="preserve" font-size="7.79423" transform="translate(1422.94, 256.892)" >G</text>
<text fill="#222222"  xml:space="preserve" font-size="10.3923" transform="translate(1468.91, 288.551)" >sg13_lv_pmos</text>
<text fill="#666600"  xml:space="preserve" font-size="10.3923" transform="translate(1470.16, 275.489)" >m=1</text>
<text fill="#666600"  xml:space="preserve" font-size="10.3923" transform="translate(1470.16, 266.746)" >ng=1</text>
<text fill="#666600"  xml:space="preserve" font-size="10.3923" transform="translate(1470.16, 254.255)" >l=0.13u</text>
<text fill="#666600"  xml:space="preserve" font-size="10.3923" transform="translate(1470.16, 243.013)" >w=1.0u</text>
<text fill="#ff0000"  xml:space="preserve" font-size="7.79423" transform="translate(1461.42, 284.372)" >D</text>
<text fill="#ff0000"  xml:space="preserve" font-size="7.79423" transform="translate(1461.42, 240.458)" >S</text>
<text fill="#ff0000"  xml:space="preserve" font-size="7.79423" transform="translate(1458.92, 256.892)" >B</text>
<text fill="#222222"  xml:space="preserve" font-size="10.3923" transform="translate(1453.9, 1058.66)" >MPD3</text>
<text fill="#ff0000"  xml:space="preserve" font-size="7.79423" transform="translate(1462.91, 1076.29)" >G</text>
<text fill="#222222"  xml:space="preserve" font-size="10.3923" transform="translate(1508.88, 1107.94)" >sg13_lv_nmos</text>
<text fill="#666600"  xml:space="preserve" font-size="10.3923" transform="translate(1510.13, 1094.88)" >m=1</text>
<text fill="#666600"  xml:space="preserve" font-size="10.3923" transform="translate(1510.13, 1086.14)" >ng=1</text>
<text fill="#666600"  xml:space="preserve" font-size="10.3923" transform="translate(1510.13, 1073.65)" >l=0.13u</text>
<text fill="#666600"  xml:space="preserve" font-size="10.3923" transform="translate(1510.13, 1062.41)" >w=1.0u</text>
<text fill="#ff0000"  xml:space="preserve" font-size="7.79423" transform="translate(1501.39, 1103.77)" >S</text>
<text fill="#ff0000"  xml:space="preserve" font-size="7.79423" transform="translate(1501.39, 1059.85)" >D</text>
<text fill="#ff0000"  xml:space="preserve" font-size="7.79423" transform="translate(1498.89, 1076.29)" >B</text>
<text fill="#222222"  xml:space="preserve" font-size="10.3923" transform="translate(2233.35, 1149.84)" >VIref5</text>
<text fill="#aa2222"  xml:space="preserve" font-size="7.79423" transform="translate(2228.35, 1137.49)" >#net1</text>
<text fill="#aa2222"  xml:space="preserve" font-size="7.79423" transform="translate(2228.35, 1186.2)" >VSS</text>
<text fill="#222222"  xml:space="preserve" font-size="10.3923" transform="translate(2224.62, 34.9741) rotate(270)" >VIdd</text>
<text fill="#aa2222"  xml:space="preserve" font-size="7.79423" transform="translate(2235.23, 39.9704) rotate(270)" >VDD</text>
<text fill="#aa2222"  xml:space="preserve" font-size="7.79423" transform="translate(2186.52, 39.9704) rotate(270)" >#net2</text>
<text fill="#666600"  xml:space="preserve" font-size="10.3923" transform="translate(567.575, 502.821)" >1</text>
<text fill="#666600"  xml:space="preserve" font-size="10.3923" transform="translate(567.575, 545.29)" >2</text>
<text fill="#222222"  xml:space="preserve" font-size="10.3923" transform="translate(594.56, 510.316)" >CSU1</text>
<text fill="#222222"  xml:space="preserve" font-size="10.3923" transform="translate(594.56, 522.806)" >35f</text>
<text fill="#aa2222"  xml:space="preserve" font-size="7.79423" transform="translate(589.564, 497.964)" >#net10</text>
<text fill="#aa2222"  xml:space="preserve" font-size="7.79423" transform="translate(589.564, 546.678)" >Vsu</text>
<text fill="#222222"  xml:space="preserve" font-size="10.3923" transform="translate(594.56, 535.297)" >m=1</text>
<text fill="#222222"  xml:space="preserve" font-size="10.3923" transform="translate(999.15, 932.753)" >sg13g2_lv_nmos_stacked_x2</text>
<text fill="#222222"  xml:space="preserve" font-size="10.3923" transform="translate(1127.15, 906.772)" >xM1</text>
<text fill="#222222"  xml:space="preserve" font-size="10.3923" transform="translate(1185.37, 872.298)" >D</text>
<text fill="#222222"  xml:space="preserve" font-size="10.3923" transform="translate(1254.82, 962.053)" >G</text>
<text fill="#222222"  xml:space="preserve" font-size="10.3923" transform="translate(1135.41, 962.231)" >B</text>
<text fill="#222222"  xml:space="preserve" font-size="10.3923" transform="translate(1185.87, 1073.22)" >S</text>
<text fill="#222222"  xml:space="preserve" font-size="10.3923" transform="translate(1071.15, 1008.7)" >W: 20.0u</text>
<text fill="#222222"  xml:space="preserve" font-size="10.3923" transform="translate(1071.15, 1020.62)" >L: 20.0u (total)</text>
<text fill="#222222"  xml:space="preserve" font-size="10.3923" transform="translate(1071.15, 1032.54)" >NG: 20</text>
<text fill="#222222"  xml:space="preserve" font-size="10.3923" transform="translate(1071.15, 1044.46)" >M: 1</text>
<text fill="#222222"  xml:space="preserve" font-size="10.3923" transform="translate(1164.63, 902.526)" >*2</text>
<text fill="#222222"  xml:space="preserve" font-size="10.3923" transform="translate(999.15, 652.96)" >sg13g2_lv_nmos_stacked_x2</text>
<text fill="#222222"  xml:space="preserve" font-size="10.3923" transform="translate(1121.15, 626.979)" >xM1c</text>
<text fill="#222222"  xml:space="preserve" font-size="10.3923" transform="translate(1185.37, 592.505)" >D</text>
<text fill="#222222"  xml:space="preserve" font-size="10.3923" transform="translate(1254.82, 682.26)" >G</text>
<text fill="#222222"  xml:space="preserve" font-size="10.3923" transform="translate(1135.41, 682.438)" >B</text>
<text fill="#222222"  xml:space="preserve" font-size="10.3923" transform="translate(1185.87, 793.427)" >S</text>
<text fill="#222222"  xml:space="preserve" font-size="10.3923" transform="translate(1071.15, 728.904)" >W: 5.0u</text>
<text fill="#222222"  xml:space="preserve" font-size="10.3923" transform="translate(1071.15, 740.824)" >L: 20.0u (total)</text>
<text fill="#222222"  xml:space="preserve" font-size="10.3923" transform="translate(1071.15, 752.744)" >NG: 5</text>
<text fill="#222222"  xml:space="preserve" font-size="10.3923" transform="translate(1071.15, 764.664)" >M: 1</text>
<text fill="#222222"  xml:space="preserve" font-size="10.3923" transform="translate(1164.63, 622.733)" >*2</text>
<text fill="#222222"  xml:space="preserve" font-size="10.3923" transform="translate(1988.53, 932.753)" >sg13g2_lv_nmos_stacked_x2</text>
<text fill="#222222"  xml:space="preserve" font-size="10.3923" transform="translate(1988.53, 906.772)" >xM2</text>
<text fill="#222222"  xml:space="preserve" font-size="10.3923" transform="translate(1944.31, 872.298)" >D</text>
<text fill="#222222"  xml:space="preserve" font-size="10.3923" transform="translate(1874.86, 962.053)" >G</text>
<text fill="#222222"  xml:space="preserve" font-size="10.3923" transform="translate(1995.27, 962.231)" >B</text>
<text fill="#222222"  xml:space="preserve" font-size="10.3923" transform="translate(1944.81, 1073.22)" >S</text>
<text fill="#222222"  xml:space="preserve" font-size="10.3923" transform="translate(1988.53, 1008.7)" >W: 5.0u</text>
<text fill="#222222"  xml:space="preserve" font-size="10.3923" transform="translate(1988.53, 1020.62)" >L: 20.0u (total)</text>
<text fill="#222222"  xml:space="preserve" font-size="10.3923" transform="translate(1988.53, 1032.54)" >NG: 5</text>
<text fill="#222222"  xml:space="preserve" font-size="10.3923" transform="translate(1988.53, 1044.46)" >M: 1</text>
<text fill="#222222"  xml:space="preserve" font-size="10.3923" transform="translate(1961.05, 902.526)" >*2</text>
<text fill="#222222"  xml:space="preserve" font-size="10.3923" transform="translate(1988.53, 652.96)" >sg13g2_lv_nmos_stacked_x2</text>
<text fill="#222222"  xml:space="preserve" font-size="10.3923" transform="translate(1988.53, 626.979)" >xM2c</text>
<text fill="#222222"  xml:space="preserve" font-size="10.3923" transform="translate(1944.31, 592.505)" >D</text>
<text fill="#222222"  xml:space="preserve" font-size="10.3923" transform="translate(1874.86, 682.26)" >G</text>
<text fill="#222222"  xml:space="preserve" font-size="10.3923" transform="translate(1995.27, 682.438)" >B</text>
<text fill="#222222"  xml:space="preserve" font-size="10.3923" transform="translate(1944.81, 793.427)" >S</text>
<text fill="#222222"  xml:space="preserve" font-size="10.3923" transform="translate(1988.53, 728.904)" >W: 5.0u</text>
<text fill="#222222"  xml:space="preserve" font-size="10.3923" transform="translate(1988.53, 740.824)" >L: 20.0u (total)</text>
<text fill="#222222"  xml:space="preserve" font-size="10.3923" transform="translate(1988.53, 752.744)" >NG: 5</text>
<text fill="#222222"  xml:space="preserve" font-size="10.3923" transform="translate(1988.53, 764.664)" >M: 1</text>
<text fill="#222222"  xml:space="preserve" font-size="10.3923" transform="translate(1961.05, 622.733)" >*2</text>
<text fill="#222222"  xml:space="preserve" font-size="10.3923" transform="translate(1778.13, 182.893) rotate(270)" >MDEC2</text>
<text fill="#ff0000"  xml:space="preserve" font-size="7.79423" transform="translate(1795.75, 165.882) rotate(270)" >G</text>
<text fill="#222222"  xml:space="preserve" font-size="10.3923" transform="translate(1827.41, 119.911) rotate(270)" >sg13_lv_pmos</text>
<text fill="#666600"  xml:space="preserve" font-size="10.3923" transform="translate(1814.35, 118.662) rotate(270)" >m=1</text>
<text fill="#666600"  xml:space="preserve" font-size="10.3923" transform="translate(1805.61, 118.662) rotate(270)" >ng=25</text>
<text fill="#666600"  xml:space="preserve" font-size="10.3923" transform="translate(1793.12, 118.662) rotate(270)" >l=40.0u</text>
<text fill="#666600"  xml:space="preserve" font-size="10.3923" transform="translate(1781.87, 118.662) rotate(270)" >w=25.0u</text>
<text fill="#ff0000"  xml:space="preserve" font-size="7.79423" transform="translate(1823.23, 127.406) rotate(270)" >D</text>
<text fill="#ff0000"  xml:space="preserve" font-size="7.79423" transform="translate(1779.32, 127.406) rotate(270)" >S</text>
<text fill="#ff0000"  xml:space="preserve" font-size="7.79423" transform="translate(1795.75, 129.904) rotate(270)" >B</text>
<text fill="#222222"  xml:space="preserve" font-size="10.3923" transform="translate(999.15, 153.33)" >sg13g2_lv_pmos_stacked_x4</text>
<text fill="#222222"  xml:space="preserve" font-size="10.3923" transform="translate(1127.15, 127.349)" >xM3</text>
<text fill="#222222"  xml:space="preserve" font-size="10.3923" transform="translate(1204.85, 293.797)" >D</text>
<text fill="#222222"  xml:space="preserve" font-size="10.3923" transform="translate(1254.82, 182.629)" >G</text>
<text fill="#222222"  xml:space="preserve" font-size="10.3923" transform="translate(1135.41, 182.808)" >B</text>
<text fill="#222222"  xml:space="preserve" font-size="10.3923" transform="translate(1205.36, 92.8745)" >S</text>
<text fill="#222222"  xml:space="preserve" font-size="10.3923" transform="translate(1071.15, 229.274)" >W: 20.0u</text>
<text fill="#222222"  xml:space="preserve" font-size="10.3923" transform="translate(1071.15, 241.194)" >L: 40.0u (total)</text>
<text fill="#222222"  xml:space="preserve" font-size="10.3923" transform="translate(1071.15, 253.114)" >NG: 20</text>
<text fill="#222222"  xml:space="preserve" font-size="10.3923" transform="translate(1071.15, 265.034)" >M: 1</text>
<text fill="#222222"  xml:space="preserve" font-size="10.3923" transform="translate(1164.63, 123.102)" >*4</text>
<text fill="#222222"  xml:space="preserve" font-size="10.3923" transform="translate(1988.53, 153.33)" >sg13g2_lv_pmos_stacked_x4</text>
<text fill="#222222"  xml:space="preserve" font-size="10.3923" transform="translate(1988.53, 127.349)" >xM4</text>
<text fill="#222222"  xml:space="preserve" font-size="10.3923" transform="translate(1924.83, 293.797)" >D</text>
<text fill="#222222"  xml:space="preserve" font-size="10.3923" transform="translate(1874.86, 182.629)" >G</text>
<text fill="#222222"  xml:space="preserve" font-size="10.3923" transform="translate(1995.27, 182.808)" >B</text>
<text fill="#222222"  xml:space="preserve" font-size="10.3923" transform="translate(1925.32, 92.8745)" >S</text>
<text fill="#222222"  xml:space="preserve" font-size="10.3923" transform="translate(1988.53, 229.274)" >W: 20.0u</text>
<text fill="#222222"  xml:space="preserve" font-size="10.3923" transform="translate(1988.53, 241.194)" >L: 40.0u (total)</text>
<text fill="#222222"  xml:space="preserve" font-size="10.3923" transform="translate(1988.53, 253.114)" >NG: 20</text>
<text fill="#222222"  xml:space="preserve" font-size="10.3923" transform="translate(1988.53, 265.034)" >M: 1</text>
<text fill="#222222"  xml:space="preserve" font-size="10.3923" transform="translate(1961.05, 123.102)" >*4</text>
<text fill="#222222"  xml:space="preserve" font-size="10.3923" transform="translate(154.863, 599)" >MPD6</text>
<text fill="#ff0000"  xml:space="preserve" font-size="7.79423" transform="translate(163.874, 616.626)" >G</text>
<text fill="#222222"  xml:space="preserve" font-size="10.3923" transform="translate(209.845, 648.285)" >sg13_lv_pmos</text>
<text fill="#666600"  xml:space="preserve" font-size="10.3923" transform="translate(211.094, 635.223)" >m=1</text>
<text fill="#666600"  xml:space="preserve" font-size="10.3923" transform="translate(211.094, 626.48)" >ng=1</text>
<text fill="#666600"  xml:space="preserve" font-size="10.3923" transform="translate(211.094, 613.989)" >l=0.13u</text>
<text fill="#666600"  xml:space="preserve" font-size="10.3923" transform="translate(211.094, 602.747)" >w=1.0u</text>
<text fill="#ff0000"  xml:space="preserve" font-size="7.79423" transform="translate(202.35, 644.106)" >D</text>
<text fill="#ff0000"  xml:space="preserve" font-size="7.79423" transform="translate(202.35, 600.192)" >S</text>
<text fill="#ff0000"  xml:space="preserve" font-size="7.79423" transform="translate(199.852, 616.626)" >B</text>
<text fill="#222222"  xml:space="preserve" font-size="10.3923" transform="translate(1673.74, 1058.66)" >MPD4</text>
<text fill="#ff0000"  xml:space="preserve" font-size="7.79423" transform="translate(1682.75, 1076.29)" >G</text>
<text fill="#222222"  xml:space="preserve" font-size="10.3923" transform="translate(1728.72, 1107.94)" >sg13_lv_nmos</text>
<text fill="#666600"  xml:space="preserve" font-size="10.3923" transform="translate(1729.97, 1094.88)" >m=1</text>
<text fill="#666600"  xml:space="preserve" font-size="10.3923" transform="translate(1729.97, 1086.14)" >ng=1</text>
<text fill="#666600"  xml:space="preserve" font-size="10.3923" transform="translate(1729.97, 1073.65)" >l=0.13u</text>
<text fill="#666600"  xml:space="preserve" font-size="10.3923" transform="translate(1729.97, 1062.41)" >w=1.0u</text>
<text fill="#ff0000"  xml:space="preserve" font-size="7.79423" transform="translate(1721.23, 1103.77)" >S</text>
<text fill="#ff0000"  xml:space="preserve" font-size="7.79423" transform="translate(1721.23, 1059.85)" >D</text>
<text fill="#ff0000"  xml:space="preserve" font-size="7.79423" transform="translate(1718.73, 1076.29)" >B</text>
<text fill="#222222"  xml:space="preserve" font-size="10.3923" transform="translate(154.863, 738.897)" >MPD7</text>
<text fill="#ff0000"  xml:space="preserve" font-size="7.79423" transform="translate(163.874, 756.523)" >G</text>
<text fill="#222222"  xml:space="preserve" font-size="10.3923" transform="translate(209.845, 788.181)" >sg13_lv_nmos</text>
<text fill="#666600"  xml:space="preserve" font-size="10.3923" transform="translate(211.094, 775.12)" >m=1</text>
<text fill="#666600"  xml:space="preserve" font-size="10.3923" transform="translate(211.094, 766.376)" >ng=1</text>
<text fill="#666600"  xml:space="preserve" font-size="10.3923" transform="translate(211.094, 753.885)" >l=0.13u</text>
<text fill="#666600"  xml:space="preserve" font-size="10.3923" transform="translate(211.094, 742.644)" >w=1.0u</text>
<text fill="#ff0000"  xml:space="preserve" font-size="7.79423" transform="translate(202.35, 784.002)" >S</text>
<text fill="#ff0000"  xml:space="preserve" font-size="7.79423" transform="translate(202.35, 740.088)" >D</text>
<text fill="#ff0000"  xml:space="preserve" font-size="7.79423" transform="translate(199.852, 756.523)" >B</text>
<text fill="#222222"  xml:space="preserve" font-size="10.3923" transform="translate(534.582, 219.281)" >MPD5</text>
<text fill="#ff0000"  xml:space="preserve" font-size="7.79423" transform="translate(543.593, 236.907)" >G</text>
<text fill="#222222"  xml:space="preserve" font-size="10.3923" transform="translate(589.564, 268.566)" >sg13_lv_pmos</text>
<text fill="#666600"  xml:space="preserve" font-size="10.3923" transform="translate(590.813, 255.504)" >m=1</text>
<text fill="#666600"  xml:space="preserve" font-size="10.3923" transform="translate(590.813, 246.761)" >ng=1</text>
<text fill="#666600"  xml:space="preserve" font-size="10.3923" transform="translate(590.813, 234.27)" >l=0.13u</text>
<text fill="#666600"  xml:space="preserve" font-size="10.3923" transform="translate(590.813, 223.028)" >w=1.0u</text>
<text fill="#ff0000"  xml:space="preserve" font-size="7.79423" transform="translate(582.069, 264.387)" >D</text>
<text fill="#ff0000"  xml:space="preserve" font-size="7.79423" transform="translate(582.069, 220.473)" >S</text>
<text fill="#ff0000"  xml:space="preserve" font-size="7.79423" transform="translate(579.571, 236.907)" >B</text>
<path class="l4" stroke-dasharray="11.1917,11.1917" style="fill:none;" d="M1299.04 69.9483L1299.04 309.771L1558.85 309.771L1558.85 69.9483L1299.04 69.9483"/>
<path class="l4" stroke-dasharray="11.1917,11.1917" style="fill:none;" d="M2158.4 909.327L2158.4 1109.18L2278.31 1109.18L2278.31 909.327L2158.4 909.327"/>
<path class="l4" stroke-dasharray="11.1917,11.1917" style="fill:none;" d="M1748.71 69.9483L1748.71 199.852L1848.63 199.852L1848.63 69.9483L1748.71 69.9483"/>
<path class="l4" stroke-dasharray="11.1917,11.1917" style="fill:none;" d="M1319.02 1029.24L1818.65 1029.24L1818.65 1169.14L1319.02 1169.14L1319.02 1029.24"/>
<path class="l4" style="fill:none;" d="M1019.25 379.719"/>
<path class="l4" stroke-dasharray="11.1917,11.1917" style="fill:none;" d="M929.312 369.726L929.312 1089.19L359.734 1089.19L359.734 369.726L929.312 369.726"/>
<path class="l4" stroke-dasharray="11.1917,11.1917" style="fill:none;" d="M0 529.608L299.778 529.608L299.778 849.372L0 849.372L0 529.608"/>
<path class="l4" stroke-dasharray="11.1917,11.1917" style="fill:none;" d="M679.497 289.786L399.704 289.786L399.704 149.889L679.497 149.889L679.497 289.786"/>
<path class="l4" d="M1199.11 1159.14L1199.11 1169.14"/>
<path class="l4" d="M1199.11 1159.14L1206.61 1156.64"/>
<path class="l4" d="M1191.62 1151.65L1206.61 1156.64"/>
<path class="l4" d="M1191.62 1151.65L1206.61 1146.65"/>
<path class="l4" d="M1191.62 1141.66L1206.61 1146.65"/>
<path class="l4" d="M1191.62 1141.66L1206.61 1136.66"/>
<path class="l4" d="M1191.62 1131.66L1206.61 1136.66"/>
<path class="l4" d="M1191.62 1131.66L1206.61 1126.67"/>
<path class="l4" d="M1191.62 1121.67L1206.61 1126.67"/>
<path class="l4" d="M1191.62 1121.67L1199.11 1119.17"/>
<path class="l4" d="M1199.11 1109.18L1199.11 1119.17"/>
<path class="l4" d="M1201.61 1116.67L1206.61 1116.67"/>
<path class="l4" d="M1204.11 1114.18L1204.11 1119.17"/>
<path class="l4" d="M2195.88 956.792L2240.84 956.792"/>
<path class="l4" d="M2235.85 969.283L2248.34 969.283"/>
<path class="l4" d="M2188.38 969.283L2200.87 969.283"/>
<path class="l4" d="M2203.37 951.796L2233.35 951.796"/>
<path class="l4" d="M2200.87 956.792L2200.87 969.283"/>
<path class="l4" d="M2235.85 956.792L2235.85 969.283"/>
<path class="l4" d="M2218.36 929.312L2218.36 951.296"/>
<path class="l4" d="M2198.37 964.287L2200.87 969.283L2203.37 964.287L2198.37 964.287"/>
<path class="l4" d="M1199.11 449.667L1199.11 509.623"/>
<path class="l4" d="M1191.62 479.645L1199.11 489.638"/>
<path class="l4" d="M1199.11 489.638L1206.61 479.645"/>
<path class="l4" d="M1938.57 449.667L1938.57 509.623"/>
<path class="l4" d="M1931.07 479.645L1938.57 489.638"/>
<path class="l4" d="M1938.57 489.638L1946.06 479.645"/>
<path class="l4" d="M594.56 996.763L594.56 1041.73"/>
<path class="l4" d="M599.556 1004.26L599.556 1034.23"/>
<path class="l4" d="M579.571 1036.73L594.56 1036.73"/>
<path class="l4" d="M579.571 1001.76L594.56 1001.76"/>
<path class="l4" d="M594.56 896.837L594.56 941.803"/>
<path class="l4" d="M599.556 904.331L599.556 934.309"/>
<path class="l4" d="M579.571 936.807L594.56 936.807"/>
<path class="l4" d="M579.571 901.833L594.56 901.833"/>
<path class="l4" d="M579.571 914.324L579.571 924.316"/>
<path class="l4" d="M579.571 1014.25L579.571 1024.24"/>
<path class="l4" d="M599.556 919.32L609.549 919.32"/>
<path class="l4" d="M609.549 919.32L609.549 969.283"/>
<path class="l4" d="M609.549 969.283L619.542 969.283"/>
<path class="l4" d="M609.549 969.283L609.549 1019.25"/>
<path class="l4" d="M599.556 1019.25L609.549 1019.25"/>
<path class="l4" d="M539.601 969.283L549.593 969.283"/>
<path class="l4" d="M549.593 919.32L549.593 969.283"/>
<path class="l4" d="M549.593 919.32L579.571 919.32"/>
<path class="l4" d="M549.593 969.283L549.593 1019.25"/>
<path class="l4" d="M549.593 1019.25L579.571 1019.25"/>
<path class="l4" d="M539.601 889.342L619.542 889.342"/>
<path class="l4" d="M579.571 889.342L579.571 901.833"/>
<path class="l4" d="M579.571 1036.73L579.571 1049.22"/>
<path class="l4" d="M619.542 889.342L619.542 1049.22"/>
<path class="l4" d="M539.601 1049.22L619.542 1049.22"/>
<path class="l4" d="M539.601 889.342L539.601 1049.22"/>
<path class="l4" d="M579.571 936.807L579.571 949.298"/>
<path class="l4" d="M579.571 989.268L579.571 1001.76"/>
<path class="l4" d="M589.564 1034.23L589.564 1039.23L584.568 1036.73L589.564 1034.23"/>
<path class="l4" d="M589.564 934.309L589.564 939.305L584.568 936.807L589.564 934.309"/>
<circle class="l4" cx="579.571" cy="979.276" r="1.24908" />
<circle class="l4" cx="579.571" cy="969.283" r="1.24908" />
<circle class="l4" cx="579.571" cy="959.29" r="1.24908" />
<circle class="l4" cx="609.549" cy="969.283" r="2.2518" />
<circle class="l4" cx="549.593" cy="969.283" r="2.2518" />
<path class="l4" d="M704.479 716.97L704.479 761.936"/>
<path class="l4" d="M699.483 724.464L699.483 754.442"/>
<path class="l4" d="M704.479 756.94L719.468 756.94"/>
<path class="l4" d="M704.479 721.966L719.468 721.966"/>
<path class="l4" d="M704.479 617.044L704.479 662.01"/>
<path class="l4" d="M699.483 624.538L699.483 654.516"/>
<path class="l4" d="M704.479 657.014L719.468 657.014"/>
<path class="l4" d="M704.479 622.04L719.468 622.04"/>
<path class="l4" d="M719.468 634.531L719.468 644.523"/>
<path class="l4" d="M719.468 734.457L719.468 744.449"/>
<path class="l4" d="M689.49 639.527L699.483 639.527"/>
<path class="l4" d="M689.49 639.527L689.49 689.49"/>
<path class="l4" d="M679.497 689.49L689.49 689.49"/>
<path class="l4" d="M689.49 689.49L689.49 739.453"/>
<path class="l4" d="M689.49 739.453L699.483 739.453"/>
<path class="l4" d="M749.446 689.49L759.438 689.49"/>
<path class="l4" d="M749.446 639.527L749.446 689.49"/>
<path class="l4" d="M719.468 639.527L749.446 639.527"/>
<path class="l4" d="M749.446 689.49L749.446 739.453"/>
<path class="l4" d="M719.468 739.453L749.446 739.453"/>
<path class="l4" d="M679.497 609.549L759.438 609.549"/>
<path class="l4" d="M719.468 609.549L719.468 622.04"/>
<path class="l4" d="M719.468 756.94L719.468 769.431"/>
<path class="l4" d="M679.497 609.549L679.497 769.431"/>
<path class="l4" d="M679.497 769.431L759.438 769.431"/>
<path class="l4" d="M759.438 609.549L759.438 769.431"/>
<path class="l4" d="M719.468 657.014L719.468 669.505"/>
<path class="l4" d="M719.468 709.475L719.468 721.966"/>
<path class="l4" d="M709.475 754.442L709.475 759.438L714.471 756.94L709.475 754.442"/>
<path class="l4" d="M709.475 654.516L709.475 659.512L714.471 657.014L709.475 654.516"/>
<circle class="l4" cx="719.468" cy="699.483" r="1.24908" />
<circle class="l4" cx="719.468" cy="689.49" r="1.24908" />
<circle class="l4" cx="719.468" cy="679.497" r="1.24908" />
<circle class="l4" cx="689.49" cy="689.49" r="2.2518" />
<circle class="l4" cx="749.446" cy="689.49" r="2.2518" />
<path class="l4" d="M719.468 489.638L719.468 549.593"/>
<path class="l4" d="M711.973 519.616L719.468 529.608"/>
<path class="l4" d="M719.468 529.608L726.962 519.616"/>
<path class="l4" d="M759.438 829.386L819.394 829.386"/>
<path class="l4" d="M779.423 829.386L789.416 821.892"/>
<path class="l4" d="M779.423 829.386L789.416 836.881"/>
<path class="l4" d="M1446.43 97.4279L1446.43 142.395"/>
<path class="l4" d="M1458.92 89.9335L1458.92 102.424"/>
<path class="l4" d="M1458.92 137.398L1458.92 149.889"/>
<path class="l4" d="M1441.43 104.922L1441.43 134.9"/>
<path class="l4" d="M1446.43 137.398L1458.92 137.398"/>
<path class="l4" d="M1446.43 102.424L1458.92 102.424"/>
<path class="l4" d="M1418.95 119.911L1440.93 119.911"/>
<path class="l4" d="M1451.43 99.9261L1446.43 102.424L1451.43 104.922L1451.43 99.9261"/>
<path class="l4" d="M1446.43 237.324L1446.43 282.291"/>
<path class="l4" d="M1458.92 229.83L1458.92 242.321"/>
<path class="l4" d="M1458.92 277.295L1458.92 289.786"/>
<path class="l4" d="M1441.43 244.819L1441.43 274.797"/>
<path class="l4" d="M1446.43 277.295L1458.92 277.295"/>
<path class="l4" d="M1446.43 242.321L1458.92 242.321"/>
<path class="l4" d="M1418.95 259.808L1440.93 259.808"/>
<path class="l4" d="M1451.43 239.823L1446.43 242.321L1451.43 244.819L1451.43 239.823"/>
<path class="l4" d="M1486.4 1056.72L1486.4 1101.68"/>
<path class="l4" d="M1498.89 1049.22L1498.89 1061.71"/>
<path class="l4" d="M1498.89 1096.69L1498.89 1109.18"/>
<path class="l4" d="M1481.4 1064.21L1481.4 1094.19"/>
<path class="l4" d="M1486.4 1096.69L1498.89 1096.69"/>
<path class="l4" d="M1486.4 1061.71L1498.89 1061.71"/>
<path class="l4" d="M1458.92 1079.2L1480.9 1079.2"/>
<path class="l4" d="M1493.89 1099.19L1498.89 1096.69L1493.89 1094.19L1493.89 1099.19"/>
<path class="l4" d="M2218.36 1129.16L2218.36 1189.12"/>
<path class="l4" d="M2210.86 1159.14L2218.36 1169.14"/>
<path class="l4" d="M2218.36 1169.14L2225.85 1159.14"/>
<path class="l4" d="M2178.39 49.963L2238.34 49.963"/>
<path class="l4" d="M2198.37 49.963L2208.37 57.4575"/>
<path class="l4" d="M2198.37 49.963L2208.37 42.4686"/>
<path class="l4" d="M579.571 524.612L579.571 549.593"/>
<path class="l4" d="M579.571 489.638L579.571 514.619"/>
<path class="l4" d="M569.579 514.619L589.564 514.619"/>
<path class="l4" d="M569.579 524.612L589.564 524.612"/>
<path class="l4" d="M582.069 497.132L587.066 497.132"/>
<path class="l4" d="M584.568 494.634L584.568 499.63"/>
<path class="l4" d="M1214.1 996.763L1214.1 1041.73"/>
<path class="l4" d="M1219.1 1004.26L1219.1 1034.23"/>
<path class="l4" d="M1199.11 1036.73L1214.1 1036.73"/>
<path class="l4" d="M1199.11 1001.76L1214.1 1001.76"/>
<path class="l4" d="M1214.1 896.837L1214.1 941.803"/>
<path class="l4" d="M1219.1 904.331L1219.1 934.309"/>
<path class="l4" d="M1199.11 936.807L1214.1 936.807"/>
<path class="l4" d="M1199.11 901.833L1214.1 901.833"/>
<path class="l4" d="M1199.11 914.324L1199.11 924.316"/>
<path class="l4" d="M1199.11 1014.25L1199.11 1024.24"/>
<path class="l4" d="M1219.1 919.32L1229.09 919.32"/>
<path class="l4" d="M1229.09 919.32L1229.09 969.283"/>
<path class="l4" d="M1229.09 969.283L1239.08 969.283"/>
<path class="l4" d="M1229.09 969.283L1229.09 1019.25"/>
<path class="l4" d="M1219.1 1019.25L1229.09 1019.25"/>
<path class="l4" d="M1159.14 969.283L1169.14 969.283"/>
<path class="l4" d="M1169.14 919.32L1169.14 969.283"/>
<path class="l4" d="M1169.14 919.32L1199.11 919.32"/>
<path class="l4" d="M1169.14 969.283L1169.14 1019.25"/>
<path class="l4" d="M1169.14 1019.25L1199.11 1019.25"/>
<path class="l4" d="M1159.14 889.342L1239.08 889.342"/>
<path class="l4" d="M1199.11 889.342L1199.11 901.833"/>
<path class="l4" d="M1199.11 1036.73L1199.11 1049.22"/>
<path class="l4" d="M1239.08 889.342L1239.08 1049.22"/>
<path class="l4" d="M1159.14 1049.22L1239.08 1049.22"/>
<path class="l4" d="M1159.14 889.342L1159.14 1049.22"/>
<path class="l4" d="M1199.11 936.807L1199.11 949.298"/>
<path class="l4" d="M1199.11 989.268L1199.11 1001.76"/>
<path class="l4" d="M1209.11 1034.23L1209.11 1039.23L1204.11 1036.73L1209.11 1034.23"/>
<path class="l4" d="M1209.11 934.309L1209.11 939.305L1204.11 936.807L1209.11 934.309"/>
<circle class="l4" cx="1199.11" cy="979.276" r="1.24908" />
<circle class="l4" cx="1199.11" cy="969.283" r="1.24908" />
<circle class="l4" cx="1199.11" cy="959.29" r="1.24908" />
<circle class="l4" cx="1229.09" cy="969.283" r="2.2518" />
<circle class="l4" cx="1169.14" cy="969.283" r="2.2518" />
<path class="l4" d="M1214.1 716.97L1214.1 761.936"/>
<path class="l4" d="M1219.1 724.464L1219.1 754.442"/>
<path class="l4" d="M1199.11 756.94L1214.1 756.94"/>
<path class="l4" d="M1199.11 721.966L1214.1 721.966"/>
<path class="l4" d="M1214.1 617.044L1214.1 662.01"/>
<path class="l4" d="M1219.1 624.538L1219.1 654.516"/>
<path class="l4" d="M1199.11 657.014L1214.1 657.014"/>
<path class="l4" d="M1199.11 622.04L1214.1 622.04"/>
<path class="l4" d="M1199.11 634.531L1199.11 644.523"/>
<path class="l4" d="M1199.11 734.457L1199.11 744.449"/>
<path class="l4" d="M1219.1 639.527L1229.09 639.527"/>
<path class="l4" d="M1229.09 639.527L1229.09 689.49"/>
<path class="l4" d="M1229.09 689.49L1239.08 689.49"/>
<path class="l4" d="M1229.09 689.49L1229.09 739.453"/>
<path class="l4" d="M1219.1 739.453L1229.09 739.453"/>
<path class="l4" d="M1159.14 689.49L1169.14 689.49"/>
<path class="l4" d="M1169.14 639.527L1169.14 689.49"/>
<path class="l4" d="M1169.14 639.527L1199.11 639.527"/>
<path class="l4" d="M1169.14 689.49L1169.14 739.453"/>
<path class="l4" d="M1169.14 739.453L1199.11 739.453"/>
<path class="l4" d="M1159.14 609.549L1239.08 609.549"/>
<path class="l4" d="M1199.11 609.549L1199.11 622.04"/>
<path class="l4" d="M1199.11 756.94L1199.11 769.431"/>
<path class="l4" d="M1239.08 609.549L1239.08 769.431"/>
<path class="l4" d="M1159.14 769.431L1239.08 769.431"/>
<path class="l4" d="M1159.14 609.549L1159.14 769.431"/>
<path class="l4" d="M1199.11 657.014L1199.11 669.505"/>
<path class="l4" d="M1199.11 709.475L1199.11 721.966"/>
<path class="l4" d="M1209.11 754.442L1209.11 759.438L1204.11 756.94L1209.11 754.442"/>
<path class="l4" d="M1209.11 654.516L1209.11 659.512L1204.11 657.014L1209.11 654.516"/>
<circle class="l4" cx="1199.11" cy="699.483" r="1.24908" />
<circle class="l4" cx="1199.11" cy="689.49" r="1.24908" />
<circle class="l4" cx="1199.11" cy="679.497" r="1.24908" />
<circle class="l4" cx="1229.09" cy="689.49" r="2.2518" />
<circle class="l4" cx="1169.14" cy="689.49" r="2.2518" />
<path class="l4" d="M1923.58 996.763L1923.58 1041.73"/>
<path class="l4" d="M1918.58 1004.26L1918.58 1034.23"/>
<path class="l4" d="M1923.58 1036.73L1938.57 1036.73"/>
<path class="l4" d="M1923.58 1001.76L1938.57 1001.76"/>
<path class="l4" d="M1923.58 896.837L1923.58 941.803"/>
<path class="l4" d="M1918.58 904.331L1918.58 934.309"/>
<path class="l4" d="M1923.58 936.807L1938.57 936.807"/>
<path class="l4" d="M1923.58 901.833L1938.57 901.833"/>
<path class="l4" d="M1938.57 914.324L1938.57 924.316"/>
<path class="l4" d="M1938.57 1014.25L1938.57 1024.24"/>
<path class="l4" d="M1908.59 919.32L1918.58 919.32"/>
<path class="l4" d="M1908.59 919.32L1908.59 969.283"/>
<path class="l4" d="M1898.6 969.283L1908.59 969.283"/>
<path class="l4" d="M1908.59 969.283L1908.59 1019.25"/>
<path class="l4" d="M1908.59 1019.25L1918.58 1019.25"/>
<path class="l4" d="M1968.54 969.283L1978.54 969.283"/>
<path class="l4" d="M1968.54 919.32L1968.54 969.283"/>
<path class="l4" d="M1938.57 919.32L1968.54 919.32"/>
<path class="l4" d="M1968.54 969.283L1968.54 1019.25"/>
<path class="l4" d="M1938.57 1019.25L1968.54 1019.25"/>
<path class="l4" d="M1898.6 889.342L1978.54 889.342"/>
<path class="l4" d="M1938.57 889.342L1938.57 901.833"/>
<path class="l4" d="M1938.57 1036.73L1938.57 1049.22"/>
<path class="l4" d="M1898.6 889.342L1898.6 1049.22"/>
<path class="l4" d="M1898.6 1049.22L1978.54 1049.22"/>
<path class="l4" d="M1978.54 889.342L1978.54 1049.22"/>
<path class="l4" d="M1938.57 936.807L1938.57 949.298"/>
<path class="l4" d="M1938.57 989.268L1938.57 1001.76"/>
<path class="l4" d="M1928.57 1034.23L1928.57 1039.23L1933.57 1036.73L1928.57 1034.23"/>
<path class="l4" d="M1928.57 934.309L1928.57 939.305L1933.57 936.807L1928.57 934.309"/>
<circle class="l4" cx="1938.57" cy="979.276" r="1.24908" />
<circle class="l4" cx="1938.57" cy="969.283" r="1.24908" />
<circle class="l4" cx="1938.57" cy="959.29" r="1.24908" />
<circle class="l4" cx="1908.59" cy="969.283" r="2.2518" />
<circle class="l4" cx="1968.54" cy="969.283" r="2.2518" />
<path class="l4" d="M1923.58 716.97L1923.58 761.936"/>
<path class="l4" d="M1918.58 724.464L1918.58 754.442"/>
<path class="l4" d="M1923.58 756.94L1938.57 756.94"/>
<path class="l4" d="M1923.58 721.966L1938.57 721.966"/>
<path class="l4" d="M1923.58 617.044L1923.58 662.01"/>
<path class="l4" d="M1918.58 624.538L1918.58 654.516"/>
<path class="l4" d="M1923.58 657.014L1938.57 657.014"/>
<path class="l4" d="M1923.58 622.04L1938.57 622.04"/>
<path class="l4" d="M1938.57 634.531L1938.57 644.523"/>
<path class="l4" d="M1938.57 734.457L1938.57 744.449"/>
<path class="l4" d="M1908.59 639.527L1918.58 639.527"/>
<path class="l4" d="M1908.59 639.527L1908.59 689.49"/>
<path class="l4" d="M1898.6 689.49L1908.59 689.49"/>
<path class="l4" d="M1908.59 689.49L1908.59 739.453"/>
<path class="l4" d="M1908.59 739.453L1918.58 739.453"/>
<path class="l4" d="M1968.54 689.49L1978.54 689.49"/>
<path class="l4" d="M1968.54 639.527L1968.54 689.49"/>
<path class="l4" d="M1938.57 639.527L1968.54 639.527"/>
<path class="l4" d="M1968.54 689.49L1968.54 739.453"/>
<path class="l4" d="M1938.57 739.453L1968.54 739.453"/>
<path class="l4" d="M1898.6 609.549L1978.54 609.549"/>
<path class="l4" d="M1938.57 609.549L1938.57 622.04"/>
<path class="l4" d="M1938.57 756.94L1938.57 769.431"/>
<path class="l4" d="M1898.6 609.549L1898.6 769.431"/>
<path class="l4" d="M1898.6 769.431L1978.54 769.431"/>
<path class="l4" d="M1978.54 609.549L1978.54 769.431"/>
<path class="l4" d="M1938.57 657.014L1938.57 669.505"/>
<path class="l4" d="M1938.57 709.475L1938.57 721.966"/>
<path class="l4" d="M1928.57 754.442L1928.57 759.438L1933.57 756.94L1928.57 754.442"/>
<path class="l4" d="M1928.57 654.516L1928.57 659.512L1933.57 657.014L1928.57 654.516"/>
<circle class="l4" cx="1938.57" cy="699.483" r="1.24908" />
<circle class="l4" cx="1938.57" cy="689.49" r="1.24908" />
<circle class="l4" cx="1938.57" cy="679.497" r="1.24908" />
<circle class="l4" cx="1908.59" cy="689.49" r="2.2518" />
<circle class="l4" cx="1968.54" cy="689.49" r="2.2518" />
<path class="l4" d="M1776.19 142.395L1821.15 142.395"/>
<path class="l4" d="M1768.69 129.904L1781.18 129.904"/>
<path class="l4" d="M1816.16 129.904L1828.65 129.904"/>
<path class="l4" d="M1783.68 147.391L1813.66 147.391"/>
<path class="l4" d="M1816.16 129.904L1816.16 142.395"/>
<path class="l4" d="M1781.18 129.904L1781.18 142.395"/>
<path class="l4" d="M1798.67 147.891L1798.67 169.874"/>
<path class="l4" d="M1778.68 137.398L1781.18 142.395L1783.68 137.398L1778.68 137.398"/>
<path class="l4" d="M1214.1 217.339L1214.1 262.306"/>
<path class="l4" d="M1219.1 224.834L1219.1 254.811"/>
<path class="l4" d="M1199.11 257.31L1214.1 257.31"/>
<path class="l4" d="M1199.11 222.336L1214.1 222.336"/>
<path class="l4" d="M1214.1 117.413L1214.1 162.38"/>
<path class="l4" d="M1219.1 124.908L1219.1 154.885"/>
<path class="l4" d="M1199.11 157.384L1214.1 157.384"/>
<path class="l4" d="M1199.11 122.409L1214.1 122.409"/>
<path class="l4" d="M1199.11 134.9L1199.11 144.893"/>
<path class="l4" d="M1199.11 234.826L1199.11 244.819"/>
<path class="l4" d="M1219.1 139.897L1229.09 139.897"/>
<path class="l4" d="M1229.09 139.897L1229.09 189.86"/>
<path class="l4" d="M1229.09 189.86L1239.08 189.86"/>
<path class="l4" d="M1229.09 189.86L1229.09 239.823"/>
<path class="l4" d="M1219.1 239.823L1229.09 239.823"/>
<path class="l4" d="M1159.14 189.86L1169.14 189.86"/>
<path class="l4" d="M1169.14 139.897L1169.14 189.86"/>
<path class="l4" d="M1169.14 139.897L1199.11 139.897"/>
<path class="l4" d="M1169.14 189.86L1169.14 239.823"/>
<path class="l4" d="M1169.14 239.823L1199.11 239.823"/>
<path class="l4" d="M1159.14 109.919L1239.08 109.919"/>
<path class="l4" d="M1199.11 109.919L1199.11 122.409"/>
<path class="l4" d="M1199.11 257.31L1199.11 269.8"/>
<path class="l4" d="M1239.08 109.919L1239.08 269.8"/>
<path class="l4" d="M1159.14 269.8L1239.08 269.8"/>
<path class="l4" d="M1159.14 109.919L1159.14 269.8"/>
<path class="l4" d="M1199.11 157.384L1199.11 169.874"/>
<path class="l4" d="M1199.11 209.845L1199.11 222.336"/>
<path class="l4" d="M1204.11 224.834L1204.11 219.837L1209.11 222.336L1204.11 224.834"/>
<path class="l4" d="M1204.11 124.908L1204.11 119.911L1209.11 122.409L1204.11 124.908"/>
<circle class="l4" cx="1199.11" cy="199.852" r="1.24908" />
<circle class="l4" cx="1199.11" cy="189.86" r="1.24908" />
<circle class="l4" cx="1199.11" cy="179.867" r="1.24908" />
<circle class="l4" cx="1229.09" cy="189.86" r="2.2518" />
<circle class="l4" cx="1169.14" cy="189.86" r="2.2518" />
<path class="l4" d="M1923.58 217.339L1923.58 262.306"/>
<path class="l4" d="M1918.58 224.834L1918.58 254.811"/>
<path class="l4" d="M1923.58 257.31L1938.57 257.31"/>
<path class="l4" d="M1923.58 222.336L1938.57 222.336"/>
<path class="l4" d="M1923.58 117.413L1923.58 162.38"/>
<path class="l4" d="M1918.58 124.908L1918.58 154.885"/>
<path class="l4" d="M1923.58 157.384L1938.57 157.384"/>
<path class="l4" d="M1923.58 122.409L1938.57 122.409"/>
<path class="l4" d="M1938.57 134.9L1938.57 144.893"/>
<path class="l4" d="M1938.57 234.826L1938.57 244.819"/>
<path class="l4" d="M1908.59 139.897L1918.58 139.897"/>
<path class="l4" d="M1908.59 139.897L1908.59 189.86"/>
<path class="l4" d="M1898.6 189.86L1908.59 189.86"/>
<path class="l4" d="M1908.59 189.86L1908.59 239.823"/>
<path class="l4" d="M1908.59 239.823L1918.58 239.823"/>
<path class="l4" d="M1968.54 189.86L1978.54 189.86"/>
<path class="l4" d="M1968.54 139.897L1968.54 189.86"/>
<path class="l4" d="M1938.57 139.897L1968.54 139.897"/>
<path class="l4" d="M1968.54 189.86L1968.54 239.823"/>
<path class="l4" d="M1938.57 239.823L1968.54 239.823"/>
<path class="l4" d="M1898.6 109.919L1978.54 109.919"/>
<path class="l4" d="M1938.57 109.919L1938.57 122.409"/>
<path class="l4" d="M1938.57 257.31L1938.57 269.8"/>
<path class="l4" d="M1898.6 109.919L1898.6 269.8"/>
<path class="l4" d="M1898.6 269.8L1978.54 269.8"/>
<path class="l4" d="M1978.54 109.919L1978.54 269.8"/>
<path class="l4" d="M1938.57 157.384L1938.57 169.874"/>
<path class="l4" d="M1938.57 209.845L1938.57 222.336"/>
<path class="l4" d="M1933.57 224.834L1933.57 219.837L1928.57 222.336L1933.57 224.834"/>
<path class="l4" d="M1933.57 124.908L1933.57 119.911L1928.57 122.409L1933.57 124.908"/>
<circle class="l4" cx="1938.57" cy="199.852" r="1.24908" />
<circle class="l4" cx="1938.57" cy="189.86" r="1.24908" />
<circle class="l4" cx="1938.57" cy="179.867" r="1.24908" />
<circle class="l4" cx="1908.59" cy="189.86" r="2.2518" />
<circle class="l4" cx="1968.54" cy="189.86" r="2.2518" />
<path class="l4" d="M187.361 597.058L187.361 642.025"/>
<path class="l4" d="M199.852 589.564L199.852 602.055"/>
<path class="l4" d="M199.852 637.029L199.852 649.519"/>
<path class="l4" d="M182.365 604.553L182.365 634.531"/>
<path class="l4" d="M187.361 637.029L199.852 637.029"/>
<path class="l4" d="M187.361 602.055L199.852 602.055"/>
<path class="l4" d="M159.882 619.542L181.865 619.542"/>
<path class="l4" d="M192.358 599.556L187.361 602.055L192.358 604.553L192.358 599.556"/>
<path class="l4" d="M1706.24 1056.72L1706.24 1101.68"/>
<path class="l4" d="M1718.73 1049.22L1718.73 1061.71"/>
<path class="l4" d="M1718.73 1096.69L1718.73 1109.18"/>
<path class="l4" d="M1701.24 1064.21L1701.24 1094.19"/>
<path class="l4" d="M1706.24 1096.69L1718.73 1096.69"/>
<path class="l4" d="M1706.24 1061.71L1718.73 1061.71"/>
<path class="l4" d="M1678.76 1079.2L1700.74 1079.2"/>
<path class="l4" d="M1713.73 1099.19L1718.73 1096.69L1713.73 1094.19L1713.73 1099.19"/>
<path class="l4" d="M187.361 736.955L187.361 781.922"/>
<path class="l4" d="M199.852 729.46L199.852 741.951"/>
<path class="l4" d="M199.852 776.925L199.852 789.416"/>
<path class="l4" d="M182.365 744.449L182.365 774.427"/>
<path class="l4" d="M187.361 776.925L199.852 776.925"/>
<path class="l4" d="M187.361 741.951L199.852 741.951"/>
<path class="l4" d="M159.882 759.438L181.865 759.438"/>
<path class="l4" d="M194.856 779.423L199.852 776.925L194.856 774.427L194.856 779.423"/>
<path class="l4" d="M567.08 217.339L567.08 262.306"/>
<path class="l4" d="M579.571 209.845L579.571 222.336"/>
<path class="l4" d="M579.571 257.31L579.571 269.8"/>
<path class="l4" d="M562.084 224.834L562.084 254.811"/>
<path class="l4" d="M567.08 257.31L579.571 257.31"/>
<path class="l4" d="M567.08 222.336L579.571 222.336"/>
<path class="l4" d="M539.601 239.823L561.585 239.823"/>
<path class="l4" d="M572.077 219.837L567.08 222.336L572.077 224.834L572.077 219.837"/>
<path class="l5" d="M2258.33 49.963L2261.45 49.963"/>
<path class="l5" d="M2272.07 54.9593L2275.82 49.963L2272.07 44.9667L2265.2 44.9667L2261.45 49.963L2265.2 54.9593L2272.07 54.9593"/>
<path class="l5" d="M2257.08 48.714L2259.58 48.714L2259.58 51.2121L2257.08 51.2121L2257.08 48.714z"/>
<path class="l5" d="M2258.33 1209.11L2261.45 1209.11"/>
<path class="l5" d="M2272.07 1214.1L2275.82 1209.11L2272.07 1204.11L2265.2 1204.11L2261.45 1209.11L2265.2 1214.1L2272.07 1214.1"/>
<path class="l5" d="M2257.08 1207.86L2259.58 1207.86L2259.58 1210.35L2257.08 1210.35L2257.08 1207.86z"/>
<path class="l5" d="M2258.33 829.386L2267.07 829.386"/>
<path class="l5" d="M2275.82 829.386L2272.07 824.39L2263.33 824.39L2267.07 829.386L2263.33 834.383L2272.07 834.383L2275.82 829.386"/>
<path class="l5" d="M2257.08 828.137L2259.58 828.137L2259.58 830.635L2257.08 830.635L2257.08 828.137z"/>
<path class="l5" d="M1196.61 1106.68L1201.61 1106.68L1201.61 1111.68L1196.61 1111.68L1196.61 1106.68z"/>
<path class="l5" d="M1196.61 1166.64L1201.61 1166.64L1201.61 1171.63L1196.61 1171.63L1196.61 1166.64z"/>
<path class="l5" d="M2215.86 969.283L2218.36 964.287L2220.86 969.283L2215.86 969.283"/>
<path class="l5" d="M2245.84 966.785L2250.83 966.785L2250.83 971.781L2245.84 971.781L2245.84 966.785z"/>
<path class="l5" d="M2215.86 926.814L2220.86 926.814L2220.86 931.811L2215.86 931.811L2215.86 926.814z"/>
<path class="l5" d="M2185.88 966.785L2190.88 966.785L2190.88 971.781L2185.88 971.781L2185.88 966.785z"/>
<path class="l5" d="M2218.28 969.205L2218.44 969.205L2218.44 969.361L2218.28 969.361L2218.28 969.205z"/>
<path class="l5" d="M1677.51 148.64L1680.01 148.64L1680.01 151.138L1677.51 151.138L1677.51 148.64z"/>
<path class="l5" d="M1196.61 447.169L1201.61 447.169L1201.61 452.165L1196.61 452.165L1196.61 447.169z"/>
<path class="l5" d="M1196.61 507.125L1201.61 507.125L1201.61 512.121L1196.61 512.121L1196.61 507.125z"/>
<path class="l5" d="M1936.07 447.169L1941.06 447.169L1941.06 452.165L1936.07 452.165L1936.07 447.169z"/>
<path class="l5" d="M1936.07 507.125L1941.06 507.125L1941.06 512.121L1936.07 512.121L1936.07 507.125z"/>
<path class="l5" d="M1397.72 118.662L1400.21 118.662L1400.21 121.16L1397.72 121.16L1397.72 118.662z"/>
<path class="l5" d="M1397.72 258.559L1400.21 258.559L1400.21 261.057L1397.72 261.057L1397.72 258.559z"/>
<path class="l5" d="M577.073 866.859L582.069 866.859L582.069 871.855L577.073 871.855L577.073 866.859z"/>
<path class="l5" d="M637.029 966.785L642.025 966.785L642.025 971.781L637.029 971.781L637.029 966.785z"/>
<path class="l5" d="M517.117 966.785L522.114 966.785L522.114 971.781L517.117 971.781L517.117 966.785z"/>
<path class="l5" d="M577.073 1066.71L582.069 1066.71L582.069 1071.71L577.073 1071.71L577.073 1066.71z"/>
<path class="l5" d="M716.97 587.066L721.966 587.066L721.966 592.062L716.97 592.062L716.97 587.066z"/>
<path class="l5" d="M657.014 686.992L662.01 686.992L662.01 691.988L657.014 691.988L657.014 686.992z"/>
<path class="l5" d="M776.925 686.992L781.922 686.992L781.922 691.988L776.925 691.988L776.925 686.992z"/>
<path class="l5" d="M716.97 786.918L721.966 786.918L721.966 791.914L716.97 791.914L716.97 786.918z"/>
<path class="l5" d="M579.103 689.022L580.04 689.022L580.04 689.958L579.103 689.958L579.103 689.022z"/>
<path class="l5" d="M716.97 487.14L721.966 487.14L721.966 492.136L716.97 492.136L716.97 487.14z"/>
<path class="l5" d="M716.97 547.095L721.966 547.095L721.966 552.092L716.97 552.092L716.97 547.095z"/>
<path class="l5" d="M816.896 826.888L821.892 826.888L821.892 831.885L816.896 831.885L816.896 826.888z"/>
<path class="l5" d="M756.94 826.888L761.936 826.888L761.936 831.885L756.94 831.885L756.94 826.888z"/>
<path class="l5" d="M1453.92 117.413L1458.92 119.911L1453.92 122.409L1453.92 117.413"/>
<path class="l5" d="M1456.42 147.391L1461.42 147.391L1461.42 152.387L1456.42 152.387L1456.42 147.391z"/>
<path class="l5" d="M1416.45 117.413L1421.45 117.413L1421.45 122.409L1416.45 122.409L1416.45 117.413z"/>
<path class="l5" d="M1456.42 87.4353L1461.42 87.4353L1461.42 92.4316L1456.42 92.4316L1456.42 87.4353z"/>
<path class="l5" d="M1458.84 119.833L1459 119.833L1459 119.989L1458.84 119.989L1458.84 119.833z"/>
<path class="l5" d="M1453.92 257.31L1458.92 259.808L1453.92 262.306L1453.92 257.31"/>
<path class="l5" d="M1456.42 287.287L1461.42 287.287L1461.42 292.284L1456.42 292.284L1456.42 287.287z"/>
<path class="l5" d="M1416.45 257.31L1421.45 257.31L1421.45 262.306L1416.45 262.306L1416.45 257.31z"/>
<path class="l5" d="M1456.42 227.332L1461.42 227.332L1461.42 232.328L1456.42 232.328L1456.42 227.332z"/>
<path class="l5" d="M1458.84 259.73L1459 259.73L1459 259.886L1458.84 259.886L1458.84 259.73z"/>
<path class="l5" d="M718.999 828.918L719.936 828.918L719.936 829.855L718.999 829.855L718.999 828.918z"/>
<path class="l5" d="M458.411 648.27L460.909 648.27L460.909 650.769L458.411 650.769L458.411 648.27z"/>
<path class="l5" d="M1498.89 1081.7L1493.89 1079.2L1498.89 1076.7L1498.89 1081.7"/>
<path class="l5" d="M1496.39 1046.73L1501.39 1046.73L1501.39 1051.72L1496.39 1051.72L1496.39 1046.73z"/>
<path class="l5" d="M1456.42 1076.7L1461.42 1076.7L1461.42 1081.7L1456.42 1081.7L1456.42 1076.7z"/>
<path class="l5" d="M1496.39 1106.68L1501.39 1106.68L1501.39 1111.68L1496.39 1111.68L1496.39 1106.68z"/>
<path class="l5" d="M1498.81 1079.12L1498.97 1079.12L1498.97 1079.28L1498.81 1079.28L1498.81 1079.12z"/>
<path class="l5" d="M1417.7 1077.95L1420.2 1077.95L1420.2 1080.45L1417.7 1080.45L1417.7 1077.95z"/>
<path class="l5" d="M2215.86 1126.67L2220.86 1126.67L2220.86 1131.66L2215.86 1131.66L2215.86 1126.67z"/>
<path class="l5" d="M2215.86 1186.62L2220.86 1186.62L2220.86 1191.62L2215.86 1191.62L2215.86 1186.62z"/>
<path class="l5" d="M2235.85 47.4649L2240.84 47.4649L2240.84 52.4612L2235.85 52.4612L2235.85 47.4649z"/>
<path class="l5" d="M2175.89 47.4649L2180.89 47.4649L2180.89 52.4612L2175.89 52.4612L2175.89 47.4649z"/>
<path class="l5" d="M577.073 487.14L582.069 487.14L582.069 492.136L577.073 492.136L577.073 487.14z"/>
<path class="l5" d="M577.073 547.095L582.069 547.095L582.069 552.092L577.073 552.092L577.073 547.095z"/>
<path class="l5" d="M1196.61 866.859L1201.61 866.859L1201.61 871.855L1196.61 871.855L1196.61 866.859z"/>
<path class="l5" d="M1256.57 966.785L1261.57 966.785L1261.57 971.781L1256.57 971.781L1256.57 966.785z"/>
<path class="l5" d="M1136.66 966.785L1141.66 966.785L1141.66 971.781L1136.66 971.781L1136.66 966.785z"/>
<path class="l5" d="M1196.61 1066.71L1201.61 1066.71L1201.61 1071.71L1196.61 1071.71L1196.61 1066.71z"/>
<path class="l5" d="M1196.61 587.066L1201.61 587.066L1201.61 592.062L1196.61 592.062L1196.61 587.066z"/>
<path class="l5" d="M1256.57 686.992L1261.57 686.992L1261.57 691.988L1256.57 691.988L1256.57 686.992z"/>
<path class="l5" d="M1136.66 686.992L1141.66 686.992L1141.66 691.988L1136.66 691.988L1136.66 686.992z"/>
<path class="l5" d="M1196.61 786.918L1201.61 786.918L1201.61 791.914L1196.61 791.914L1196.61 786.918z"/>
<path class="l5" d="M1936.07 866.859L1941.06 866.859L1941.06 871.855L1936.07 871.855L1936.07 866.859z"/>
<path class="l5" d="M1876.11 966.785L1881.11 966.785L1881.11 971.781L1876.11 971.781L1876.11 966.785z"/>
<path class="l5" d="M1996.02 966.785L2001.02 966.785L2001.02 971.781L1996.02 971.781L1996.02 966.785z"/>
<path class="l5" d="M1936.07 1066.71L1941.06 1066.71L1941.06 1071.71L1936.07 1071.71L1936.07 1066.71z"/>
<path class="l5" d="M1936.07 587.066L1941.06 587.066L1941.06 592.062L1936.07 592.062L1936.07 587.066z"/>
<path class="l5" d="M1876.11 686.992L1881.11 686.992L1881.11 691.988L1876.11 691.988L1876.11 686.992z"/>
<path class="l5" d="M1996.02 686.992L2001.02 686.992L2001.02 691.988L1996.02 691.988L1996.02 686.992z"/>
<path class="l5" d="M1936.07 786.918L1941.06 786.918L1941.06 791.914L1936.07 791.914L1936.07 786.918z"/>
<path class="l5" d="M1198.64 1088.73L1199.58 1088.73L1199.58 1089.66L1198.64 1089.66L1198.64 1088.73z"/>
<path class="l5" d="M1796.17 134.9L1798.67 129.904L1801.17 134.9L1796.17 134.9"/>
<path class="l5" d="M1826.15 127.406L1831.15 127.406L1831.15 132.402L1826.15 132.402L1826.15 127.406z"/>
<path class="l5" d="M1796.17 167.376L1801.17 167.376L1801.17 172.372L1796.17 172.372L1796.17 167.376z"/>
<path class="l5" d="M1766.19 127.406L1771.19 127.406L1771.19 132.402L1766.19 132.402L1766.19 127.406z"/>
<path class="l5" d="M1798.59 129.826L1798.75 129.826L1798.75 129.982L1798.59 129.982L1798.59 129.826z"/>
<path class="l5" d="M2258.33 549.593L2267.07 549.593"/>
<path class="l5" d="M2275.82 549.593L2272.07 544.597L2263.33 544.597L2267.07 549.593L2263.33 554.59L2272.07 554.59L2275.82 549.593"/>
<path class="l5" d="M2257.08 548.344L2259.58 548.344L2259.58 550.842L2257.08 550.842L2257.08 548.344z"/>
<path class="l5" d="M1196.61 287.287L1201.61 287.287L1201.61 292.284L1196.61 292.284L1196.61 287.287z"/>
<path class="l5" d="M1256.57 187.361L1261.57 187.361L1261.57 192.358L1256.57 192.358L1256.57 187.361z"/>
<path class="l5" d="M1136.66 187.361L1141.66 187.361L1141.66 192.358L1136.66 192.358L1136.66 187.361z"/>
<path class="l5" d="M1196.61 87.4353L1201.61 87.4353L1201.61 92.4316L1196.61 92.4316L1196.61 87.4353z"/>
<path class="l5" d="M1936.07 287.287L1941.06 287.287L1941.06 292.284L1936.07 292.284L1936.07 287.287z"/>
<path class="l5" d="M1876.11 187.361L1881.11 187.361L1881.11 192.358L1876.11 192.358L1876.11 187.361z"/>
<path class="l5" d="M1996.02 187.361L2001.02 187.361L2001.02 192.358L1996.02 192.358L1996.02 187.361z"/>
<path class="l5" d="M1936.07 87.4353L1941.06 87.4353L1941.06 92.4316L1936.07 92.4316L1936.07 87.4353z"/>
<path class="l5" d="M118.662 618.293L121.16 618.293L121.16 620.791L118.662 620.791L118.662 618.293z"/>
<path class="l5" d="M194.856 617.044L199.852 619.542L194.856 622.04L194.856 617.044"/>
<path class="l5" d="M197.354 647.021L202.35 647.021L202.35 652.018L197.354 652.018L197.354 647.021z"/>
<path class="l5" d="M157.384 617.044L162.38 617.044L162.38 622.04L157.384 622.04L157.384 617.044z"/>
<path class="l5" d="M197.354 587.066L202.35 587.066L202.35 592.062L197.354 592.062L197.354 587.066z"/>
<path class="l5" d="M199.774 619.464L199.93 619.464L199.93 619.62L199.774 619.62L199.774 619.464z"/>
<path class="l5" d="M1718.73 1081.7L1713.73 1079.2L1718.73 1076.7L1718.73 1081.7"/>
<path class="l5" d="M1716.23 1046.73L1721.23 1046.73L1721.23 1051.72L1716.23 1051.72L1716.23 1046.73z"/>
<path class="l5" d="M1676.26 1076.7L1681.26 1076.7L1681.26 1081.7L1676.26 1081.7L1676.26 1076.7z"/>
<path class="l5" d="M1716.23 1106.68L1721.23 1106.68L1721.23 1111.68L1716.23 1111.68L1716.23 1106.68z"/>
<path class="l5" d="M1718.65 1079.12L1718.81 1079.12L1718.81 1079.28L1718.65 1079.28L1718.65 1079.12z"/>
<path class="l5" d="M1198.64 329.288L1199.58 329.288L1199.58 330.224L1198.64 330.224L1198.64 329.288z"/>
<path class="l5" d="M199.852 761.936L194.856 759.438L199.852 756.94L199.852 761.936"/>
<path class="l5" d="M197.354 726.962L202.35 726.962L202.35 731.959L197.354 731.959L197.354 726.962z"/>
<path class="l5" d="M157.384 756.94L162.38 756.94L162.38 761.936L157.384 761.936L157.384 756.94z"/>
<path class="l5" d="M197.354 786.918L202.35 786.918L202.35 791.914L197.354 791.914L197.354 786.918z"/>
<path class="l5" d="M199.774 759.36L199.93 759.36L199.93 759.516L199.774 759.516L199.774 759.36z"/>
<path class="l5" d="M118.662 758.189L121.16 758.189L121.16 760.687L118.662 760.687L118.662 758.189z"/>
<path class="l5" d="M498.381 238.574L500.879 238.574L500.879 241.072L498.381 241.072L498.381 238.574z"/>
<path class="l5" d="M574.575 237.324L579.571 239.823L574.575 242.321L574.575 237.324"/>
<path class="l5" d="M577.073 267.302L582.069 267.302L582.069 272.299L577.073 272.299L577.073 267.302z"/>
<path class="l5" d="M537.103 237.324L542.099 237.324L542.099 242.321L537.103 242.321L537.103 237.324z"/>
<path class="l5" d="M577.073 207.347L582.069 207.347L582.069 212.343L577.073 212.343L577.073 207.347z"/>
<path class="l5" d="M579.493 239.745L579.649 239.745L579.649 239.901L579.493 239.901L579.493 239.745z"/>
<path class="l7" d="M579.571 869.357L579.571 889.342"/>
<path class="l7" d="M619.542 969.283L639.527 969.283"/>
<path class="l7" d="M519.616 969.283L539.601 969.283"/>
<path class="l7" d="M579.571 1049.22L579.571 1069.21"/>
<path class="l7" d="M719.468 589.564L719.468 609.549"/>
<path class="l7" d="M659.512 689.49L679.497 689.49"/>
<path class="l7" d="M759.438 689.49L779.423 689.49"/>
<path class="l7" d="M719.468 769.431L719.468 789.416"/>
<path class="l7" d="M1199.11 869.357L1199.11 889.342"/>
<path class="l7" d="M1239.08 969.283L1259.07 969.283"/>
<path class="l7" d="M1139.16 969.283L1159.14 969.283"/>
<path class="l7" d="M1199.11 1049.22L1199.11 1069.21"/>
<path class="l7" d="M1199.11 589.564L1199.11 609.549"/>
<path class="l7" d="M1239.08 689.49L1259.07 689.49"/>
<path class="l7" d="M1139.16 689.49L1159.14 689.49"/>
<path class="l7" d="M1199.11 769.431L1199.11 789.416"/>
<path class="l7" d="M1938.57 869.357L1938.57 889.342"/>
<path class="l7" d="M1878.61 969.283L1898.6 969.283"/>
<path class="l7" d="M1978.54 969.283L1998.52 969.283"/>
<path class="l7" d="M1938.57 1049.22L1938.57 1069.21"/>
<path class="l7" d="M1938.57 589.564L1938.57 609.549"/>
<path class="l7" d="M1878.61 689.49L1898.6 689.49"/>
<path class="l7" d="M1978.54 689.49L1998.52 689.49"/>
<path class="l7" d="M1938.57 769.431L1938.57 789.416"/>
<path class="l7" d="M1199.11 269.8L1199.11 289.786"/>
<path class="l7" d="M1239.08 189.86L1259.07 189.86"/>
<path class="l7" d="M1139.16 189.86L1159.14 189.86"/>
<path class="l7" d="M1199.11 89.9335L1199.11 109.919"/>
<path class="l7" d="M1938.57 269.8L1938.57 289.786"/>
<path class="l7" d="M1878.61 189.86L1898.6 189.86"/>
<path class="l7" d="M1978.54 189.86L1998.52 189.86"/>
<path class="l7" d="M1938.57 89.9335L1938.57 109.919"/>
<path class="l15" d="M579.571 689.49L584.568 684.494"/>
<path class="l15" d="M719.468 829.386L724.464 824.39"/>
<path class="l15" d="M1199.11 1089.19L1204.11 1084.2"/>
<path class="l15" d="M1199.11 329.756L1204.11 324.76"/>
<path class="l1" d="M2178.39 969.283L2188.38 969.283"/>
<path class="l1" d="M2178.39 969.283L2178.39 1089.19"/>
<path class="l1" d="M2218.36 969.283L2218.36 1089.19"/>
<path class="l1" d="M2178.39 1089.19L2218.36 1089.19"/>
<path class="l1" d="M2248.34 969.283L2258.33 969.283"/>
<path class="l1" d="M2258.33 969.283L2258.33 1089.19"/>
<path class="l1" d="M2218.36 1089.19L2258.33 1089.19"/>
<path class="l1" d="M979.276 189.86L1139.16 189.86"/>
<path class="l1" d="M1938.57 49.963L1938.57 89.9335"/>
<path class="l1" d="M1199.11 1069.21L1199.11 1109.18"/>
<path class="l1" d="M1938.57 1069.21L1938.57 1209.11"/>
<path class="l1" d="M1998.52 969.283L2078.46 969.283"/>
<path class="l1" d="M2078.46 969.283L2078.46 1209.11"/>
<path class="l1" d="M1199.11 1169.14L1199.11 1209.11"/>
<path class="l1" d="M1059.22 1209.11L1199.11 1209.11"/>
<path class="l1" d="M2218.36 1209.11L2258.33 1209.11"/>
<path class="l1" d="M1199.11 49.963L1199.11 89.9335"/>
<path class="l1" d="M2158.4 49.963L2158.4 189.86"/>
<path class="l1" d="M1458.92 289.786L1458.92 329.756"/>
<path class="l1" d="M1458.92 189.86L1458.92 229.83"/>
<path class="l1" d="M1938.57 49.963L2158.4 49.963"/>
<path class="l1" d="M1398.97 259.808L1418.95 259.808"/>
<path class="l1" d="M1199.11 289.786L1199.11 329.756"/>
<path class="l1" d="M1059.22 969.283L1139.16 969.283"/>
<path class="l1" d="M1059.22 969.283L1059.22 1209.11"/>
<path class="l1" d="M719.468 549.593L719.468 589.564"/>
<path class="l1" d="M779.423 689.49L859.364 689.49"/>
<path class="l1" d="M859.364 689.49L859.364 1209.11"/>
<path class="l1" d="M579.571 1069.21L579.571 1209.11"/>
<path class="l1" d="M439.675 969.283L439.675 1209.11"/>
<path class="l1" d="M439.675 1209.11L579.571 1209.11"/>
<path class="l1" d="M859.364 1209.11L1059.22 1209.11"/>
<path class="l1" d="M979.276 49.963L979.276 189.86"/>
<path class="l1" d="M719.468 829.386L759.438 829.386"/>
<path class="l1" d="M1518.88 119.911L1518.88 259.808"/>
<path class="l1" d="M1458.92 259.808L1518.88 259.808"/>
<path class="l1" d="M1498.89 1079.2L1558.85 1079.2"/>
<path class="l1" d="M1558.85 1079.2L1558.85 1209.11"/>
<path class="l1" d="M1438.94 1079.2L1458.92 1079.2"/>
<path class="l1" d="M2218.36 1089.19L2218.36 1129.16"/>
<path class="l1" d="M2218.36 1189.12L2218.36 1209.11"/>
<path class="l1" d="M2238.34 49.963L2258.33 49.963"/>
<path class="l1" d="M2158.4 49.963L2178.39 49.963"/>
<path class="l1" d="M1998.52 189.86L2158.4 189.86"/>
<path class="l1" d="M1678.76 149.889L1678.76 189.86"/>
<path class="l1" d="M1458.92 49.963L1458.92 89.9335"/>
<path class="l1" d="M1458.92 49.963L1518.88 49.963"/>
<path class="l1" d="M1199.11 329.756L1458.92 329.756"/>
<path class="l1" d="M1199.11 49.963L1458.92 49.963"/>
<path class="l1" d="M1259.07 189.86L1458.92 189.86"/>
<path class="l1" d="M1458.92 149.889L1458.92 189.86"/>
<path class="l1" d="M1458.92 119.911L1518.88 119.911"/>
<path class="l1" d="M1518.88 49.963L1518.88 119.911"/>
<path class="l1" d="M1398.97 119.911L1418.95 119.911"/>
<path class="l1" d="M1199.11 789.416L1199.11 869.357"/>
<path class="l1" d="M1059.22 689.49L1139.16 689.49"/>
<path class="l1" d="M1059.22 689.49L1059.22 969.283"/>
<path class="l1" d="M1938.57 829.386L1938.57 869.357"/>
<path class="l1" d="M1838.64 829.386L1838.64 969.283"/>
<path class="l1" d="M1838.64 829.386L1938.57 829.386"/>
<path class="l1" d="M1938.57 789.416L1938.57 829.386"/>
<path class="l1" d="M1998.52 689.49L2078.46 689.49"/>
<path class="l1" d="M1838.64 689.49L1878.61 689.49"/>
<path class="l1" d="M1838.64 549.593L1838.64 689.49"/>
<path class="l1" d="M1838.64 549.593L1938.57 549.593"/>
<path class="l1" d="M1938.57 549.593L1938.57 589.564"/>
<path class="l1" d="M1838.64 969.283L1878.61 969.283"/>
<path class="l1" d="M2218.36 829.386L2258.33 829.386"/>
<path class="l1" d="M1938.57 509.623L1938.57 549.593"/>
<path class="l1" d="M819.394 829.386L1838.64 829.386"/>
<path class="l1" d="M1798.67 189.86L1878.61 189.86"/>
<path class="l1" d="M1798.67 89.9335L1828.65 89.9335"/>
<path class="l1" d="M1828.65 89.9335L1828.65 129.904"/>
<path class="l1" d="M1798.67 89.9335L1798.67 129.904"/>
<path class="l1" d="M1768.69 89.9335L1798.67 89.9335"/>
<path class="l1" d="M1768.69 89.9335L1768.69 129.904"/>
<path class="l1" d="M1798.67 49.963L1938.57 49.963"/>
<path class="l1" d="M1798.67 49.963L1798.67 89.9335"/>
<path class="l1" d="M1518.88 49.963L1798.67 49.963"/>
<path class="l1" d="M1798.67 169.874L1798.67 189.86"/>
<path class="l1" d="M1678.76 189.86L1798.67 189.86"/>
<path class="l1" d="M1458.92 189.86L1678.76 189.86"/>
<path class="l1" d="M1938.57 549.593L2258.33 549.593"/>
<path class="l1" d="M2078.46 689.49L2078.46 969.283"/>
<path class="l1" d="M2078.46 1209.11L2218.36 1209.11"/>
<path class="l1" d="M2218.36 829.386L2218.36 929.312"/>
<path class="l1" d="M1938.57 829.386L2218.36 829.386"/>
<path class="l1" d="M1199.11 509.623L1199.11 589.564"/>
<path class="l1" d="M1199.11 329.756L1199.11 449.667"/>
<path class="l1" d="M1938.57 289.786L1938.57 449.667"/>
<path class="l1" d="M199.852 689.49L199.852 729.46"/>
<path class="l1" d="M979.276 49.963L1199.11 49.963"/>
<path class="l1" d="M1498.89 1209.11L1558.85 1209.11"/>
<path class="l1" d="M1498.89 969.283L1838.64 969.283"/>
<path class="l1" d="M1718.73 1109.18L1718.73 1209.11"/>
<path class="l1" d="M1718.73 1079.2L1778.68 1079.2"/>
<path class="l1" d="M1778.68 1079.2L1778.68 1209.11"/>
<path class="l1" d="M1418.95 1079.2L1438.94 1079.2"/>
<path class="l1" d="M1658.77 1079.2L1678.76 1079.2"/>
<path class="l1" d="M1718.73 689.49L1838.64 689.49"/>
<path class="l1" d="M579.571 689.49L579.571 869.357"/>
<path class="l1" d="M439.675 969.283L519.616 969.283"/>
<path class="l1" d="M719.468 829.386L719.468 969.283"/>
<path class="l1" d="M719.468 329.756L1199.11 329.756"/>
<path class="l1" d="M719.468 329.756L719.468 489.638"/>
<path class="l1" d="M199.852 759.438L259.808 759.438"/>
<path class="l1" d="M1259.07 969.283L1498.89 969.283"/>
<path class="l1" d="M1498.89 1109.18L1498.89 1209.11"/>
<path class="l1" d="M1718.73 1209.11L1778.68 1209.11"/>
<path class="l1" d="M1498.89 969.283L1498.89 1049.22"/>
<path class="l1" d="M1558.85 1209.11L1718.73 1209.11"/>
<path class="l1" d="M1938.57 1209.11L2078.46 1209.11"/>
<path class="l1" d="M1718.73 689.49L1718.73 1049.22"/>
<path class="l1" d="M1259.07 689.49L1718.73 689.49"/>
<path class="l1" d="M1438.94 1149.15L1658.77 1149.15"/>
<path class="l1" d="M1438.94 1079.2L1438.94 1149.15"/>
<path class="l1" d="M1658.77 1079.2L1658.77 1149.15"/>
<path class="l1" d="M719.468 789.416L719.468 829.386"/>
<path class="l1" d="M459.66 649.519L459.66 689.49"/>
<path class="l1" d="M579.571 1209.11L859.364 1209.11"/>
<path class="l1" d="M639.527 969.283L719.468 969.283"/>
<path class="l1" d="M199.852 549.593L199.852 589.564"/>
<path class="l1" d="M199.852 619.542L259.808 619.542"/>
<path class="l1" d="M259.808 549.593L259.808 619.542"/>
<path class="l1" d="M199.852 549.593L259.808 549.593"/>
<path class="l1" d="M199.852 649.519L199.852 689.49"/>
<path class="l1" d="M199.852 829.386L199.852 1209.11"/>
<path class="l1" d="M199.852 1209.11L439.675 1209.11"/>
<path class="l1" d="M259.808 759.438L259.808 829.386"/>
<path class="l1" d="M199.852 829.386L259.808 829.386"/>
<path class="l1" d="M199.852 789.416L199.852 829.386"/>
<path class="l1" d="M119.911 619.542L159.882 619.542"/>
<path class="l1" d="M119.911 759.438L159.882 759.438"/>
<path class="l1" d="M579.571 689.49L659.512 689.49"/>
<path class="l1" d="M579.571 549.593L579.571 689.49"/>
<path class="l1" d="M459.66 689.49L579.571 689.49"/>
<path class="l1" d="M199.852 689.49L459.66 689.49"/>
<path class="l1" d="M1778.68 1209.11L1938.57 1209.11"/>
<path class="l1" d="M1199.11 1209.11L1498.89 1209.11"/>
<path class="l1" d="M499.63 239.823L539.601 239.823"/>
<path class="l1" d="M579.571 239.823L639.527 239.823"/>
<path class="l1" d="M639.527 169.874L639.527 239.823"/>
<path class="l1" d="M579.571 169.874L639.527 169.874"/>
<path class="l1" d="M579.571 169.874L579.571 209.845"/>
<path class="l1" d="M579.571 49.963L579.571 169.874"/>
<path class="l1" d="M199.852 329.756L579.571 329.756"/>
<path class="l1" d="M579.571 269.8L579.571 329.756"/>
<path class="l1" d="M579.571 329.756L579.571 489.638"/>
<path class="l1" d="M579.571 49.963L979.276 49.963"/>
<path class="l1" d="M199.852 329.756L199.852 549.593"/>
<circle class="l1" cx="199.852" cy="549.593" r="7.39453"/>
<circle class="l1" cx="579.571" cy="329.756" r="7.39453"/>
<circle class="l1" cx="199.852" cy="549.593" r="7.39453"/>
<circle class="l1" cx="199.852" cy="549.593" r="7.39453"/>
<circle class="l1" cx="199.852" cy="689.49" r="7.39453"/>
<circle class="l1" cx="459.66" cy="689.49" r="7.39453"/>
<circle class="l1" cx="199.852" cy="829.386" r="7.39453"/>
<circle class="l1" cx="199.852" cy="829.386" r="7.39453"/>
<circle class="l1" cx="199.852" cy="829.386" r="7.39453"/>
<circle class="l1" cx="199.852" cy="689.49" r="7.39453"/>
<circle class="l1" cx="199.852" cy="689.49" r="7.39453"/>
<circle class="l1" cx="439.675" cy="1209.11" r="7.39453"/>
<circle class="l1" cx="979.276" cy="49.963" r="7.39453"/>
<circle class="l1" cx="579.571" cy="169.874" r="7.39453"/>
<circle class="l1" cx="579.571" cy="169.874" r="7.39453"/>
<circle class="l1" cx="579.571" cy="169.874" r="7.39453"/>
<circle class="l1" cx="579.571" cy="329.756" r="7.39453"/>
<circle class="l1" cx="579.571" cy="329.756" r="7.39453"/>
<circle class="l1" cx="579.571" cy="689.49" r="7.39453"/>
<circle class="l1" cx="459.66" cy="689.49" r="7.39453"/>
<circle class="l1" cx="579.571" cy="689.49" r="7.39453"/>
<circle class="l1" cx="579.571" cy="689.49" r="7.39453"/>
<circle class="l1" cx="459.66" cy="689.49" r="7.39453"/>
<circle class="l1" cx="579.571" cy="689.49" r="7.39453"/>
<circle class="l1" cx="439.675" cy="1209.11" r="7.39453"/>
<circle class="l1" cx="579.571" cy="1209.11" r="7.39453"/>
<circle class="l1" cx="859.364" cy="1209.11" r="7.39453"/>
<circle class="l1" cx="439.675" cy="1209.11" r="7.39453"/>
<circle class="l1" cx="579.571" cy="1209.11" r="7.39453"/>
<circle class="l1" cx="579.571" cy="1209.11" r="7.39453"/>
<circle class="l1" cx="979.276" cy="49.963" r="7.39453"/>
<circle class="l1" cx="1199.11" cy="49.963" r="7.39453"/>
<circle class="l1" cx="979.276" cy="49.963" r="7.39453"/>
<circle class="l1" cx="1199.11" cy="329.756" r="7.39453"/>
<circle class="l1" cx="719.468" cy="829.386" r="7.39453"/>
<circle class="l1" cx="719.468" cy="829.386" r="7.39453"/>
<circle class="l1" cx="1838.64" cy="829.386" r="7.39453"/>
<circle class="l1" cx="1059.22" cy="969.283" r="7.39453"/>
<circle class="l1" cx="719.468" cy="829.386" r="7.39453"/>
<circle class="l1" cx="859.364" cy="1209.11" r="7.39453"/>
<circle class="l1" cx="1059.22" cy="969.283" r="7.39453"/>
<circle class="l1" cx="1059.22" cy="1209.11" r="7.39453"/>
<circle class="l1" cx="1059.22" cy="969.283" r="7.39453"/>
<circle class="l1" cx="859.364" cy="1209.11" r="7.39453"/>
<circle class="l1" cx="1059.22" cy="1209.11" r="7.39453"/>
<circle class="l1" cx="1059.22" cy="1209.11" r="7.39453"/>
<circle class="l1" cx="1199.11" cy="1209.11" r="7.39453"/>
<circle class="l1" cx="1458.92" cy="189.86" r="7.39453"/>
<circle class="l1" cx="1678.76" cy="189.86" r="7.39453"/>
<circle class="l1" cx="1518.88" cy="119.911" r="7.39453"/>
<circle class="l1" cx="1458.92" cy="189.86" r="7.39453"/>
<circle class="l1" cx="1458.92" cy="189.86" r="7.39453"/>
<circle class="l1" cx="1199.11" cy="49.963" r="7.39453"/>
<circle class="l1" cx="1458.92" cy="49.963" r="7.39453"/>
<circle class="l1" cx="1458.92" cy="49.963" r="7.39453"/>
<circle class="l1" cx="1518.88" cy="49.963" r="7.39453"/>
<circle class="l1" cx="1458.92" cy="49.963" r="7.39453"/>
<circle class="l1" cx="1458.92" cy="189.86" r="7.39453"/>
<circle class="l1" cx="1199.11" cy="49.963" r="7.39453"/>
<circle class="l1" cx="1199.11" cy="329.756" r="7.39453"/>
<circle class="l1" cx="1199.11" cy="329.756" r="7.39453"/>
<circle class="l1" cx="1199.11" cy="329.756" r="7.39453"/>
<circle class="l1" cx="1718.73" cy="689.49" r="7.39453"/>
<circle class="l1" cx="1498.89" cy="969.283" r="7.39453"/>
<circle class="l1" cx="1498.89" cy="969.283" r="7.39453"/>
<circle class="l1" cx="1498.89" cy="969.283" r="7.39453"/>
<circle class="l1" cx="1838.64" cy="969.283" r="7.39453"/>
<circle class="l1" cx="1199.11" cy="1209.11" r="7.39453"/>
<circle class="l1" cx="1498.89" cy="1209.11" r="7.39453"/>
<circle class="l1" cx="1438.94" cy="1079.2" r="7.39453"/>
<circle class="l1" cx="1498.89" cy="1209.11" r="7.39453"/>
<circle class="l1" cx="1438.94" cy="1079.2" r="7.39453"/>
<circle class="l1" cx="1498.89" cy="1209.11" r="7.39453"/>
<circle class="l1" cx="1558.85" cy="1209.11" r="7.39453"/>
<circle class="l1" cx="1438.94" cy="1079.2" r="7.39453"/>
<circle class="l1" cx="1199.11" cy="1209.11" r="7.39453"/>
<circle class="l1" cx="1678.76" cy="189.86" r="7.39453"/>
<circle class="l1" cx="1798.67" cy="189.86" r="7.39453"/>
<circle class="l1" cx="1798.67" cy="189.86" r="7.39453"/>
<circle class="l1" cx="1518.88" cy="49.963" r="7.39453"/>
<circle class="l1" cx="1798.67" cy="49.963" r="7.39453"/>
<circle class="l1" cx="1798.67" cy="49.963" r="7.39453"/>
<circle class="l1" cx="1798.67" cy="89.9335" r="7.39453"/>
<circle class="l1" cx="1798.67" cy="49.963" r="7.39453"/>
<circle class="l1" cx="1938.57" cy="49.963" r="7.39453"/>
<circle class="l1" cx="1798.67" cy="89.9335" r="7.39453"/>
<circle class="l1" cx="1798.67" cy="89.9335" r="7.39453"/>
<circle class="l1" cx="1798.67" cy="89.9335" r="7.39453"/>
<circle class="l1" cx="1798.67" cy="189.86" r="7.39453"/>
<circle class="l1" cx="1518.88" cy="49.963" r="7.39453"/>
<circle class="l1" cx="1518.88" cy="119.911" r="7.39453"/>
<circle class="l1" cx="1678.76" cy="189.86" r="7.39453"/>
<circle class="l1" cx="1518.88" cy="119.911" r="7.39453"/>
<circle class="l1" cx="1938.57" cy="549.593" r="7.39453"/>
<circle class="l1" cx="1838.64" cy="689.49" r="7.39453"/>
<circle class="l1" cx="1718.73" cy="689.49" r="7.39453"/>
<circle class="l1" cx="1718.73" cy="689.49" r="7.39453"/>
<circle class="l1" cx="1838.64" cy="689.49" r="7.39453"/>
<circle class="l1" cx="1838.64" cy="969.283" r="7.39453"/>
<circle class="l1" cx="1838.64" cy="689.49" r="7.39453"/>
<circle class="l1" cx="1838.64" cy="829.386" r="7.39453"/>
<circle class="l1" cx="1938.57" cy="829.386" r="7.39453"/>
<circle class="l1" cx="1838.64" cy="829.386" r="7.39453"/>
<circle class="l1" cx="1838.64" cy="969.283" r="7.39453"/>
<circle class="l1" cx="1778.68" cy="1209.11" r="7.39453"/>
<circle class="l1" cx="1938.57" cy="1209.11" r="7.39453"/>
<circle class="l1" cx="1558.85" cy="1209.11" r="7.39453"/>
<circle class="l1" cx="1718.73" cy="1209.11" r="7.39453"/>
<circle class="l1" cx="1718.73" cy="1209.11" r="7.39453"/>
<circle class="l1" cx="1778.68" cy="1209.11" r="7.39453"/>
<circle class="l1" cx="1778.68" cy="1209.11" r="7.39453"/>
<circle class="l1" cx="1718.73" cy="1209.11" r="7.39453"/>
<circle class="l1" cx="1558.85" cy="1209.11" r="7.39453"/>
<circle class="l1" cx="2158.4" cy="49.963" r="7.39453"/>
<circle class="l1" cx="1938.57" cy="49.963" r="7.39453"/>
<circle class="l1" cx="2158.4" cy="49.963" r="7.39453"/>
<circle class="l1" cx="2158.4" cy="49.963" r="7.39453"/>
<circle class="l1" cx="1938.57" cy="49.963" r="7.39453"/>
<circle class="l1" cx="1938.57" cy="549.593" r="7.39453"/>
<circle class="l1" cx="1938.57" cy="549.593" r="7.39453"/>
<circle class="l1" cx="1938.57" cy="549.593" r="7.39453"/>
<circle class="l1" cx="1938.57" cy="829.386" r="7.39453"/>
<circle class="l1" cx="2218.36" cy="829.386" r="7.39453"/>
<circle class="l1" cx="2218.36" cy="829.386" r="7.39453"/>
<circle class="l1" cx="2078.46" cy="969.283" r="7.39453"/>
<circle class="l1" cx="2218.36" cy="829.386" r="7.39453"/>
<circle class="l1" cx="1938.57" cy="829.386" r="7.39453"/>
<circle class="l1" cx="1938.57" cy="829.386" r="7.39453"/>
<circle class="l1" cx="2078.46" cy="969.283" r="7.39453"/>
<circle class="l1" cx="2078.46" cy="1209.11" r="7.39453"/>
<circle class="l1" cx="2078.46" cy="969.283" r="7.39453"/>
<circle class="l1" cx="2218.36" cy="1089.19" r="7.39453"/>
<circle class="l1" cx="1938.57" cy="1209.11" r="7.39453"/>
<circle class="l1" cx="2078.46" cy="1209.11" r="7.39453"/>
<circle class="l1" cx="2078.46" cy="1209.11" r="7.39453"/>
<circle class="l1" cx="2218.36" cy="1209.11" r="7.39453"/>
<circle class="l1" cx="2218.36" cy="1209.11" r="7.39453"/>
<circle class="l1" cx="2218.36" cy="1089.19" r="7.39453"/>
<circle class="l1" cx="2218.36" cy="1209.11" r="7.39453"/>
<circle class="l1" cx="1938.57" cy="1209.11" r="7.39453"/>
<circle class="l1" cx="2218.36" cy="1089.19" r="7.39453"/>
<circle class="l1" cx="2218.36" cy="1089.19" r="7.39453"/>
<text fill="#222222"  xml:space="preserve" font-size="20.7846" transform="translate(2208.37, 808.288)" >0.128V</text>
<text fill="#222222"  xml:space="preserve" font-size="20.7846" transform="translate(1109.18, 488.525)" >10nA</text>
<text fill="#222222"  xml:space="preserve" font-size="20.7846" transform="translate(1848.63, 488.525)" >10nA</text>
<text fill="#222222"  xml:space="preserve" font-size="20.7846" transform="translate(1568.84, 228.717)" >Vgs=1.5V-1.22V=0.28V</text>
<text fill="#222222"  xml:space="preserve" font-size="20.7846" transform="translate(1319.02, 1018.13)" >Power Down</text>
<text fill="#222222"  xml:space="preserve" font-size="25.9808" transform="translate(809.401, 403.31)" >Start-up</text>
<text fill="#222222"  xml:space="preserve" font-size="25.9808" transform="translate(809.401, 433.11)" >Circuit</text>
<text fill="#222222"  xml:space="preserve" font-size="20.7846" transform="translate(0, 518.503)" >Power Down</text>
<text fill="#222222"  xml:space="preserve" font-size="20.7846" transform="translate(1299.04, 28.865)" >Power Down</text>
<text fill="#222222"  xml:space="preserve" font-size="20.7846" transform="translate(2228.35, 898.222)" >Decoupling</text>
<text fill="#222222"  xml:space="preserve" font-size="20.7846" transform="translate(1748.71, 28.865)" >Decoupling</text>
<text fill="#222222"  xml:space="preserve" font-size="20.7846" transform="translate(1079.2, 1098.07)" >37.61mV</text>
<text fill="#222222"  xml:space="preserve" font-size="20.7846" transform="translate(2208.37, 528.495)" >0.275V</text>
<text fill="#222222"  xml:space="preserve" font-size="20.7846" transform="translate(2188.38, 98.8133)" >20.26nA</text>
<text fill="#222222"  xml:space="preserve" font-size="20.7846" transform="translate(2188.38, 122.653)" >346pA (PD)</text>
<text fill="#222222"  xml:space="preserve" font-size="20.7846" transform="translate(2258.33, 18.8724)" >1.5V</text>
<text fill="#222222"  xml:space="preserve" font-size="20.7846" transform="translate(399.704, 134.929)" >Power Down</text>
</svg>
