<?xml version="1.0" encoding="UTF-8" standalone="no"?>
<svg
   width="2337.4775"
   height="846.4776"
   version="1.1"
   id="svg902"
   sodipodi:docname="dac_ideal.svg"
   inkscape:version="1.2.2 (732a01da63, 2022-12-09)"
   xmlns:inkscape="http://www.inkscape.org/namespaces/inkscape"
   xmlns:sodipodi="http://sodipodi.sourceforge.net/DTD/sodipodi-0.dtd"
   xmlns="http://www.w3.org/2000/svg"
   xmlns:svg="http://www.w3.org/2000/svg">
  <defs
     id="defs906" />
  <sodipodi:namedview
     id="namedview904"
     pagecolor="#ffffff"
     bordercolor="#666666"
     borderopacity="1.0"
     inkscape:showpageshadow="2"
     inkscape:pageopacity="0.0"
     inkscape:pagecheckerboard="0"
     inkscape:deskcolor="#d1d1d1"
     showgrid="false"
     inkscape:zoom="0.36658064"
     inkscape:cx="887.93561"
     inkscape:cy="182.77016"
     inkscape:window-width="1920"
     inkscape:window-height="1009"
     inkscape:window-x="3832"
     inkscape:window-y="-8"
     inkscape:window-maximized="1"
     inkscape:current-layer="svg902" />
  <style
     type="text/css"
     id="style2">
.l0{
  fill: #ffffff;
  stroke: #ffffff;
  stroke-linecap:round;
  stroke-linejoin:round;
  stroke-width: 3.47761;
}
.l1{
  fill: #0044ee;
  stroke: #0044ee;
  stroke-linecap:round;
  stroke-linejoin:round;
  stroke-width: 3.47761;
}
.l2{
  fill: #aaaaaa; fill-opacity: 0.2;
  stroke: #aaaaaa;
  stroke-linecap:round;
  stroke-linejoin:round;
  stroke-width: 3.47761;
}
.l3{
  fill: #222222; fill-opacity: 0.5;
  stroke: #222222;
  stroke-linecap:round;
  stroke-linejoin:round;
  stroke-width: 3.47761;
}
.l4{
  fill: #229900;
  stroke: #229900;
  stroke-linecap:round;
  stroke-linejoin:round;
  stroke-width: 3.47761;
}
.l5{
  fill: #bb2200;
  stroke: #bb2200;
  stroke-linecap:round;
  stroke-linejoin:round;
  stroke-width: 3.47761;
}
.l6{
  fill: #00ccee; fill-opacity: 0.5;
  stroke: #00ccee;
  stroke-linecap:round;
  stroke-linejoin:round;
  stroke-width: 3.47761;
}
.l7{
  fill: #ff0000; fill-opacity: 0.5;
  stroke: #ff0000;
  stroke-linecap:round;
  stroke-linejoin:round;
  stroke-width: 3.47761;
}
.l8{
  fill: #888800; fill-opacity: 0.5;
  stroke: #888800;
  stroke-linecap:round;
  stroke-linejoin:round;
  stroke-width: 3.47761;
}
.l9{
  fill: #00aaaa; fill-opacity: 0.5;
  stroke: #00aaaa;
  stroke-linecap:round;
  stroke-linejoin:round;
  stroke-width: 3.47761;
}
.l10{
  fill: #880088;
  stroke: #880088;
  stroke-linecap:round;
  stroke-linejoin:round;
  stroke-width: 3.47761;
}
.l11{
  fill: #00ff00; fill-opacity: 0.5;
  stroke: #00ff00;
  stroke-linecap:round;
  stroke-linejoin:round;
  stroke-width: 3.47761;
}
.l12{
  fill: #0000cc; fill-opacity: 0.5;
  stroke: #0000cc;
  stroke-linecap:round;
  stroke-linejoin:round;
  stroke-width: 3.47761;
}
.l13{
  fill: #666600; fill-opacity: 0.5;
  stroke: #666600;
  stroke-linecap:round;
  stroke-linejoin:round;
  stroke-width: 3.47761;
}
.l14{
  fill: #557755; fill-opacity: 0.2;
  stroke: #557755;
  stroke-linecap:round;
  stroke-linejoin:round;
  stroke-width: 3.47761;
}
.l15{
  fill: #aa2222; fill-opacity: 0.5;
  stroke: #aa2222;
  stroke-linecap:round;
  stroke-linejoin:round;
  stroke-width: 3.47761;
}
.l16{
  fill: #7ccc40; fill-opacity: 0.5;
  stroke: #7ccc40;
  stroke-linecap:round;
  stroke-linejoin:round;
  stroke-width: 3.47761;
}
.l17{
  fill: #00ffcc; fill-opacity: 0.2;
  stroke: #00ffcc;
  stroke-linecap:round;
  stroke-linejoin:round;
  stroke-width: 3.47761;
}
.l18{
  fill: #ce0097; fill-opacity: 0.5;
  stroke: #ce0097;
  stroke-linecap:round;
  stroke-linejoin:round;
  stroke-width: 3.47761;
}
.l19{
  fill: #d2d46b; fill-opacity: 0.2;
  stroke: #d2d46b;
  stroke-linecap:round;
  stroke-linejoin:round;
  stroke-width: 3.47761;
}
.l20{
  fill: #ef6158; fill-opacity: 0.2;
  stroke: #ef6158;
  stroke-linecap:round;
  stroke-linejoin:round;
  stroke-width: 3.47761;
}
.l21{
  fill: #fdb200; fill-opacity: 0.2;
  stroke: #fdb200;
  stroke-linecap:round;
  stroke-linejoin:round;
  stroke-width: 3.47761;
}
text {font-family: Sans-Serif;}
</style>
  <rect
     class="l0"
     x="1.7388051"
     y="1.7388051"
     width="2334"
     height="843"
     id="rect4" />
  <text
     fill="#0044ee"
     xml:space="preserve"
     font-size="17.1555px"
     id="text6"
     x="2256.1489"
     y="577.79578">vdac_out</text>
  <text
     fill="#0044ee"
     xml:space="preserve"
     font-size="17.1555px"
     id="text8"
     x="135.45381"
     y="225.7048">di_D0</text>
  <text
     fill="#0044ee"
     xml:space="preserve"
     font-size="17.1555px"
     transform="rotate(-90)"
     id="text10"
     x="-844.7478"
     y="1921.5188">VSS</text>
  <text
     fill="#0044ee"
     xml:space="preserve"
     font-size="17.1555px"
     id="text12"
     x="2255.9988"
     y="17.316006">VDD</text>
  <text
     fill="#0044ee"
     xml:space="preserve"
     font-size="17.1555px"
     transform="rotate(-90)"
     id="text14"
     x="-322.53979"
     y="124.1638">VSS</text>
  <text
     fill="#0044ee"
     xml:space="preserve"
     font-size="17.1555px"
     id="text16"
     x="415.38181"
     y="225.7048">di_D1</text>
  <text
     fill="#0044ee"
     xml:space="preserve"
     font-size="17.1555px"
     transform="rotate(-90)"
     id="text18"
     x="-322.53979"
     y="404.09082">VSS</text>
  <text
     fill="#0044ee"
     xml:space="preserve"
     font-size="17.1555px"
     id="text20"
     x="715.30383"
     y="225.7048">di_D2</text>
  <text
     fill="#0044ee"
     xml:space="preserve"
     font-size="17.1555px"
     transform="rotate(-90)"
     id="text22"
     x="-322.53979"
     y="704.01282">VSS</text>
  <text
     fill="#0044ee"
     xml:space="preserve"
     font-size="17.1555px"
     id="text24"
     x="1015.2288"
     y="225.7048">di_D3</text>
  <text
     fill="#0044ee"
     xml:space="preserve"
     font-size="17.1555px"
     transform="rotate(-90)"
     id="text26"
     x="-322.53979"
     y="1003.9388">VSS</text>
  <text
     fill="#0044ee"
     xml:space="preserve"
     font-size="17.1555px"
     id="text28"
     x="1315.1488"
     y="225.7048">di_D4</text>
  <text
     fill="#0044ee"
     xml:space="preserve"
     font-size="17.1555px"
     transform="rotate(-90)"
     id="text30"
     x="-322.53979"
     y="1303.8588">VSS</text>
  <text
     fill="#0044ee"
     xml:space="preserve"
     font-size="17.1555px"
     id="text32"
     x="1615.0688"
     y="225.7048">di_D5</text>
  <text
     fill="#0044ee"
     xml:space="preserve"
     font-size="17.1555px"
     transform="rotate(-90)"
     id="text34"
     x="-322.53979"
     y="1603.7788">VSS</text>
  <text
     fill="#0044ee"
     xml:space="preserve"
     font-size="17.1555px"
     id="text36"
     x="1914.9888"
     y="225.7048">di_D6</text>
  <text
     fill="#0044ee"
     xml:space="preserve"
     font-size="17.1555px"
     transform="rotate(-90)"
     id="text38"
     x="-322.53979"
     y="1903.6989">VSS</text>
  <text
     fill="#0044ee"
     xml:space="preserve"
     font-size="17.1555px"
     id="text40"
     x="2214.9187"
     y="225.7048">di_D7</text>
  <text
     fill="#0044ee"
     xml:space="preserve"
     font-size="17.1555px"
     transform="rotate(-90)"
     id="text42"
     x="-322.53979"
     y="2203.6189">VSS</text>
  <text
     fill="#0044ee"
     xml:space="preserve"
     font-size="17.1555px"
     transform="rotate(-90)"
     id="text44"
     x="-832.4068"
     y="2083.6587">VSS</text>
  <text
     fill="#666600"
     xml:space="preserve"
     font-size="10.3973px"
     id="text46"
     x="1899.2488"
     y="684.12982">1</text>
  <text
     fill="#666600"
     xml:space="preserve"
     font-size="10.3973px"
     id="text48"
     x="1899.2488"
     y="726.61884">2</text>
  <text
     fill="#aa2222"
     xml:space="preserve"
     font-size="7.79798px"
     id="text50"
     x="1926.2388"
     y="679.27081">#net1</text>
  <text
     fill="#aa2222"
     xml:space="preserve"
     font-size="7.79798px"
     id="text52"
     x="1926.2388"
     y="728.00781">VSS</text>
  <text
     fill="#222222"
     xml:space="preserve"
     font-size="10.3973px"
     id="text54"
     x="1931.2388"
     y="691.62781">R1</text>
  <text
     fill="#222222"
     xml:space="preserve"
     font-size="10.3973px"
     id="text56"
     x="1931.2388"
     y="704.12482">3925</text>
  <text
     fill="#222222"
     xml:space="preserve"
     font-size="10.3973px"
     id="text58"
     x="1931.2388"
     y="716.62183">m=1</text>
  <text
     fill="#222222"
     xml:space="preserve"
     font-size="10.3973px"
     id="text60"
     x="2.7349131"
     y="255.4908">1u</text>
  <text
     fill="#222222"
     xml:space="preserve"
     font-size="10.3973px"
     id="text62"
     x="1.7349129"
     y="232.99681">G1</text>
  <text
     fill="#aa2222"
     xml:space="preserve"
     font-size="7.79798px"
     id="text64"
     x="14.731005"
     y="205.64281">VDD</text>
  <text
     fill="#aa2222"
     xml:space="preserve"
     font-size="7.79798px"
     id="text66"
     x="6.7310252"
     y="280.62381">#net1</text>
  <text
     fill="#aa2222"
     xml:space="preserve"
     font-size="7.79798px"
     id="text68"
     x="81.718002"
     y="215.64081">di_D0</text>
  <text
     fill="#aa2222"
     xml:space="preserve"
     font-size="7.79798px"
     id="text70"
     x="81.718002"
     y="270.6268">VSS</text>
  <text
     fill="#222222"
     xml:space="preserve"
     font-size="10.3973px"
     id="text72"
     x="282.6618"
     y="255.4908">2u</text>
  <text
     fill="#222222"
     xml:space="preserve"
     font-size="10.3973px"
     id="text74"
     x="281.6618"
     y="232.99681">G2</text>
  <text
     fill="#aa2222"
     xml:space="preserve"
     font-size="7.79798px"
     id="text76"
     x="294.65881"
     y="205.64281">VDD</text>
  <text
     fill="#aa2222"
     xml:space="preserve"
     font-size="7.79798px"
     id="text78"
     x="286.65881"
     y="280.62381">#net1</text>
  <text
     fill="#aa2222"
     xml:space="preserve"
     font-size="7.79798px"
     id="text80"
     x="361.64581"
     y="215.64081">di_D1</text>
  <text
     fill="#aa2222"
     xml:space="preserve"
     font-size="7.79798px"
     id="text82"
     x="361.64581"
     y="270.6268">VSS</text>
  <text
     fill="#222222"
     xml:space="preserve"
     font-size="10.3973px"
     id="text84"
     x="582.58478"
     y="255.4908">4u</text>
  <text
     fill="#222222"
     xml:space="preserve"
     font-size="10.3973px"
     id="text86"
     x="581.58478"
     y="232.99681">G3</text>
  <text
     fill="#aa2222"
     xml:space="preserve"
     font-size="7.79798px"
     id="text88"
     x="594.58081"
     y="205.64281">VDD</text>
  <text
     fill="#aa2222"
     xml:space="preserve"
     font-size="7.79798px"
     id="text90"
     x="586.58081"
     y="280.62381">#net1</text>
  <text
     fill="#aa2222"
     xml:space="preserve"
     font-size="7.79798px"
     id="text92"
     x="661.56781"
     y="215.64081">di_D2</text>
  <text
     fill="#aa2222"
     xml:space="preserve"
     font-size="7.79798px"
     id="text94"
     x="661.56781"
     y="270.6268">VSS</text>
  <text
     fill="#222222"
     xml:space="preserve"
     font-size="10.3973px"
     id="text96"
     x="882.50677"
     y="255.4908">8u</text>
  <text
     fill="#222222"
     xml:space="preserve"
     font-size="10.3973px"
     id="text98"
     x="881.50677"
     y="232.99681">G4</text>
  <text
     fill="#aa2222"
     xml:space="preserve"
     font-size="7.79798px"
     id="text100"
     x="894.50281"
     y="205.64281">VDD</text>
  <text
     fill="#aa2222"
     xml:space="preserve"
     font-size="7.79798px"
     id="text102"
     x="886.50281"
     y="280.62381">#net1</text>
  <text
     fill="#aa2222"
     xml:space="preserve"
     font-size="7.79798px"
     id="text104"
     x="961.48981"
     y="215.64081">di_D3</text>
  <text
     fill="#aa2222"
     xml:space="preserve"
     font-size="7.79798px"
     id="text106"
     x="961.48981"
     y="270.6268">VSS</text>
  <text
     fill="#222222"
     xml:space="preserve"
     font-size="10.3973px"
     id="text108"
     x="1175.4288"
     y="255.4908">16u</text>
  <text
     fill="#222222"
     xml:space="preserve"
     font-size="10.3973px"
     id="text110"
     x="1181.4288"
     y="232.99681">G5</text>
  <text
     fill="#aa2222"
     xml:space="preserve"
     font-size="7.79798px"
     id="text112"
     x="1194.4288"
     y="205.64281">VDD</text>
  <text
     fill="#aa2222"
     xml:space="preserve"
     font-size="7.79798px"
     id="text114"
     x="1186.4288"
     y="280.62381">#net1</text>
  <text
     fill="#aa2222"
     xml:space="preserve"
     font-size="7.79798px"
     id="text116"
     x="1261.4088"
     y="215.64081">di_D4</text>
  <text
     fill="#aa2222"
     xml:space="preserve"
     font-size="7.79798px"
     id="text118"
     x="1261.4088"
     y="270.6268">VSS</text>
  <text
     fill="#222222"
     xml:space="preserve"
     font-size="10.3973px"
     id="text120"
     x="1475.3488"
     y="255.4908">32u</text>
  <text
     fill="#222222"
     xml:space="preserve"
     font-size="10.3973px"
     id="text122"
     x="1481.3488"
     y="232.99681">G6</text>
  <text
     fill="#aa2222"
     xml:space="preserve"
     font-size="7.79798px"
     id="text124"
     x="1494.3488"
     y="205.64281">VDD</text>
  <text
     fill="#aa2222"
     xml:space="preserve"
     font-size="7.79798px"
     id="text126"
     x="1486.3488"
     y="280.62381">#net1</text>
  <text
     fill="#aa2222"
     xml:space="preserve"
     font-size="7.79798px"
     id="text128"
     x="1561.3387"
     y="215.64081">di_D5</text>
  <text
     fill="#aa2222"
     xml:space="preserve"
     font-size="7.79798px"
     id="text130"
     x="1561.3387"
     y="270.6268">VSS</text>
  <text
     fill="#222222"
     xml:space="preserve"
     font-size="10.3973px"
     id="text132"
     x="1775.2688"
     y="255.4908">64u</text>
  <text
     fill="#222222"
     xml:space="preserve"
     font-size="10.3973px"
     id="text134"
     x="1781.2688"
     y="232.99681">G7</text>
  <text
     fill="#aa2222"
     xml:space="preserve"
     font-size="7.79798px"
     id="text136"
     x="1794.2688"
     y="205.64281">VDD</text>
  <text
     fill="#aa2222"
     xml:space="preserve"
     font-size="7.79798px"
     id="text138"
     x="1786.2688"
     y="280.62381">#net1</text>
  <text
     fill="#aa2222"
     xml:space="preserve"
     font-size="7.79798px"
     id="text140"
     x="1861.2588"
     y="215.64081">di_D6</text>
  <text
     fill="#aa2222"
     xml:space="preserve"
     font-size="7.79798px"
     id="text142"
     x="1861.2588"
     y="270.6268">VSS</text>
  <text
     fill="#222222"
     xml:space="preserve"
     font-size="10.3973px"
     id="text144"
     x="2068.1987"
     y="255.4908">128u</text>
  <text
     fill="#222222"
     xml:space="preserve"
     font-size="10.3973px"
     id="text146"
     x="2081.1987"
     y="232.99681">G8</text>
  <text
     fill="#aa2222"
     xml:space="preserve"
     font-size="7.79798px"
     id="text148"
     x="2094.1887"
     y="205.64281">VDD</text>
  <text
     fill="#aa2222"
     xml:space="preserve"
     font-size="7.79798px"
     id="text150"
     x="2086.1887"
     y="280.62381">#net1</text>
  <text
     fill="#aa2222"
     xml:space="preserve"
     font-size="7.79798px"
     id="text152"
     x="2161.1787"
     y="215.64081">di_D7</text>
  <text
     fill="#aa2222"
     xml:space="preserve"
     font-size="7.79798px"
     id="text154"
     x="2161.1787"
     y="270.6268">VSS</text>
  <text
     fill="#222222"
     xml:space="preserve"
     font-size="10.3973px"
     id="text156"
     x="2036.2089"
     y="527.92078">A1</text>
  <text
     fill="#222222"
     xml:space="preserve"
     font-size="10.3973px"
     id="text158"
     x="2036.2089"
     y="542.91681">ngspice_analog_delay</text>
  <text
     fill="#222222"
     xml:space="preserve"
     font-size="10.3973px"
     id="text160"
     x="2036.2089"
     y="557.91278">del1</text>
  <path
     class="l4"
     d="m 1916.2388,720.92681 v 9.998"
     id="path162" />
  <path
     class="l4"
     d="m 1916.2388,720.92681 7.5,-2.499"
     id="path164" />
  <path
     class="l4"
     d="m 1908.7488,713.42881 14.99,4.999"
     id="path166" />
  <path
     class="l4"
     d="m 1908.7488,713.42881 14.99,-4.998"
     id="path168" />
  <path
     class="l4"
     d="m 1908.7488,703.43181 14.99,4.999"
     id="path170" />
  <path
     class="l4"
     d="m 1908.7488,703.43181 14.99,-4.999"
     id="path172" />
  <path
     class="l4"
     d="m 1908.7488,693.43381 14.99,4.999"
     id="path174" />
  <path
     class="l4"
     d="m 1908.7488,693.43381 14.99,-4.998"
     id="path176" />
  <path
     class="l4"
     d="m 1908.7488,683.43681 14.99,4.999"
     id="path178" />
  <path
     class="l4"
     d="m 1908.7488,683.43681 7.49,-2.499"
     id="path180" />
  <path
     class="l4"
     d="m 1916.2388,670.93981 v 9.998"
     id="path182" />
  <path
     class="l4"
     d="m 1918.7388,678.43781 h 5"
     id="path184" />
  <path
     class="l4"
     d="m 1921.2388,675.93881 v 4.999"
     id="path186" />
  <path
     class="l4"
     d="m 29.231705,218.55781 h 4.9987"
     id="path188" />
  <path
     class="l4"
     d="m 31.731005,216.05781 v 4.999"
     id="path190" />
  <path
     class="l4"
     d="m 36.729705,221.05681 19.9948,19.995"
     id="path192" />
  <path
     class="l4"
     d="m 36.729705,261.04681 19.9948,-19.995"
     id="path194" />
  <path
     class="l4"
     d="m 16.734905,241.05181 19.9948,19.995"
     id="path196" />
  <path
     class="l4"
     d="m 16.734905,241.05181 19.9948,-19.995"
     id="path198" />
  <path
     class="l4"
     d="m 71.720605,221.05681 h 4.9987"
     id="path200" />
  <path
     class="l4"
     d="m 61.723205,221.05681 h 4.9987"
     id="path202" />
  <path
     class="l4"
     d="m 51.725805,221.05681 h 4.9987"
     id="path204" />
  <path
     class="l4"
     d="m 71.720605,261.04681 h 4.9987"
     id="path206" />
  <path
     class="l4"
     d="m 61.723205,261.04681 h 4.9987"
     id="path208" />
  <path
     class="l4"
     d="m 51.725805,261.04681 h 4.9987"
     id="path210" />
  <path
     class="l4"
     d="m 36.729705,261.04681 v 9.997"
     id="path212" />
  <path
     class="l4"
     d="m 36.729705,211.05981 v 9.997"
     id="path214" />
  <path
     class="l4"
     d="m 36.729705,251.04881 4.9987,-4.998"
     id="path216" />
  <path
     class="l4"
     d="m 31.731005,246.05081 h 9.9974"
     id="path218" />
  <path
     class="l4"
     d="m 31.731005,246.05081 4.9987,4.998"
     id="path220" />
  <path
     class="l4"
     d="m 36.729705,236.05281 v 9.998"
     id="path222" />
  <path
     class="l4"
     d="m 69.221305,228.55481 h 4.9987"
     id="path224" />
  <path
     class="l4"
     d="m 71.720605,226.05581 v 4.998"
     id="path226" />
  <path
     class="l4"
     d="m 69.221305,253.54881 h 4.9987"
     id="path228" />
  <path
     class="l4"
     d="m 309.15881,218.55781 h 4.999"
     id="path230" />
  <path
     class="l4"
     d="m 311.65881,216.05781 v 4.999"
     id="path232" />
  <path
     class="l4"
     d="m 316.65681,221.05681 19.995,19.995"
     id="path234" />
  <path
     class="l4"
     d="m 316.65681,261.04681 19.995,-19.995"
     id="path236" />
  <path
     class="l4"
     d="m 296.66181,241.05181 19.995,19.995"
     id="path238" />
  <path
     class="l4"
     d="m 296.66181,241.05181 19.995,-19.995"
     id="path240" />
  <path
     class="l4"
     d="m 351.64781,221.05681 h 4.999"
     id="path242" />
  <path
     class="l4"
     d="m 341.65081,221.05681 h 4.998"
     id="path244" />
  <path
     class="l4"
     d="m 331.65281,221.05681 h 4.999"
     id="path246" />
  <path
     class="l4"
     d="m 351.64781,261.04681 h 4.999"
     id="path248" />
  <path
     class="l4"
     d="m 341.65081,261.04681 h 4.998"
     id="path250" />
  <path
     class="l4"
     d="m 331.65281,261.04681 h 4.999"
     id="path252" />
  <path
     class="l4"
     d="m 316.65681,261.04681 v 9.997"
     id="path254" />
  <path
     class="l4"
     d="m 316.65681,211.05981 v 9.997"
     id="path256" />
  <path
     class="l4"
     d="m 316.65681,251.04881 4.999,-4.998"
     id="path258" />
  <path
     class="l4"
     d="m 311.65881,246.05081 h 9.997"
     id="path260" />
  <path
     class="l4"
     d="m 311.65881,246.05081 4.998,4.998"
     id="path262" />
  <path
     class="l4"
     d="m 316.65681,236.05281 v 9.998"
     id="path264" />
  <path
     class="l4"
     d="m 349.14881,228.55481 h 4.999"
     id="path266" />
  <path
     class="l4"
     d="m 351.64781,226.05581 v 4.998"
     id="path268" />
  <path
     class="l4"
     d="m 349.14881,253.54881 h 4.999"
     id="path270" />
  <path
     class="l4"
     d="m 609.08081,218.55781 h 4.999"
     id="path272" />
  <path
     class="l4"
     d="m 611.58081,216.05781 v 4.999"
     id="path274" />
  <path
     class="l4"
     d="m 616.57881,221.05681 19.995,19.995"
     id="path276" />
  <path
     class="l4"
     d="m 616.57881,261.04681 19.995,-19.995"
     id="path278" />
  <path
     class="l4"
     d="m 596.58481,241.05181 19.994,19.995"
     id="path280" />
  <path
     class="l4"
     d="m 596.58481,241.05181 19.994,-19.995"
     id="path282" />
  <path
     class="l4"
     d="m 651.56981,221.05681 h 4.999"
     id="path284" />
  <path
     class="l4"
     d="m 641.57281,221.05681 h 4.999"
     id="path286" />
  <path
     class="l4"
     d="m 631.57581,221.05681 h 4.998"
     id="path288" />
  <path
     class="l4"
     d="m 651.56981,261.04681 h 4.999"
     id="path290" />
  <path
     class="l4"
     d="m 641.57281,261.04681 h 4.999"
     id="path292" />
  <path
     class="l4"
     d="m 631.57581,261.04681 h 4.998"
     id="path294" />
  <path
     class="l4"
     d="m 616.57881,261.04681 v 9.997"
     id="path296" />
  <path
     class="l4"
     d="m 616.57881,211.05981 v 9.997"
     id="path298" />
  <path
     class="l4"
     d="m 616.57881,251.04881 4.999,-4.998"
     id="path300" />
  <path
     class="l4"
     d="m 611.58081,246.05081 h 9.997"
     id="path302" />
  <path
     class="l4"
     d="m 611.58081,246.05081 4.998,4.998"
     id="path304" />
  <path
     class="l4"
     d="m 616.57881,236.05281 v 9.998"
     id="path306" />
  <path
     class="l4"
     d="m 649.07081,228.55481 h 4.999"
     id="path308" />
  <path
     class="l4"
     d="m 651.56981,226.05581 v 4.998"
     id="path310" />
  <path
     class="l4"
     d="m 649.07081,253.54881 h 4.999"
     id="path312" />
  <path
     class="l4"
     d="m 909.00381,218.55781 h 4.998"
     id="path314" />
  <path
     class="l4"
     d="m 911.50281,216.05781 v 4.999"
     id="path316" />
  <path
     class="l4"
     d="m 916.50181,221.05681 19.994,19.995"
     id="path318" />
  <path
     class="l4"
     d="m 916.50181,261.04681 19.994,-19.995"
     id="path320" />
  <path
     class="l4"
     d="m 896.50681,241.05181 19.995,19.995"
     id="path322" />
  <path
     class="l4"
     d="m 896.50681,241.05181 19.995,-19.995"
     id="path324" />
  <path
     class="l4"
     d="m 951.49181,221.05681 h 4.999"
     id="path326" />
  <path
     class="l4"
     d="m 941.49481,221.05681 h 4.999"
     id="path328" />
  <path
     class="l4"
     d="m 931.49781,221.05681 h 4.998"
     id="path330" />
  <path
     class="l4"
     d="m 951.49181,261.04681 h 4.999"
     id="path332" />
  <path
     class="l4"
     d="m 941.49481,261.04681 h 4.999"
     id="path334" />
  <path
     class="l4"
     d="m 931.49781,261.04681 h 4.998"
     id="path336" />
  <path
     class="l4"
     d="m 916.50181,261.04681 v 9.997"
     id="path338" />
  <path
     class="l4"
     d="m 916.50181,211.05981 v 9.997"
     id="path340" />
  <path
     class="l4"
     d="m 916.50181,251.04881 4.998,-4.998"
     id="path342" />
  <path
     class="l4"
     d="m 911.50281,246.05081 h 9.997"
     id="path344" />
  <path
     class="l4"
     d="m 911.50281,246.05081 4.999,4.998"
     id="path346" />
  <path
     class="l4"
     d="m 916.50181,236.05281 v 9.998"
     id="path348" />
  <path
     class="l4"
     d="m 948.99281,228.55481 h 4.999"
     id="path350" />
  <path
     class="l4"
     d="m 951.49181,226.05581 v 4.998"
     id="path352" />
  <path
     class="l4"
     d="m 948.99281,253.54881 h 4.999"
     id="path354" />
  <path
     class="l4"
     d="m 1208.9288,218.55781 h 5"
     id="path356" />
  <path
     class="l4"
     d="m 1211.4288,216.05781 v 4.999"
     id="path358" />
  <path
     class="l4"
     d="m 1216.4188,221.05681 20,19.995"
     id="path360" />
  <path
     class="l4"
     d="m 1216.4188,261.04681 20,-19.995"
     id="path362" />
  <path
     class="l4"
     d="m 1196.4288,241.05181 19.99,19.995"
     id="path364" />
  <path
     class="l4"
     d="m 1196.4288,241.05181 19.99,-19.995"
     id="path366" />
  <path
     class="l4"
     d="m 1251.4188,221.05681 h 4.99"
     id="path368" />
  <path
     class="l4"
     d="m 1241.4188,221.05681 h 5"
     id="path370" />
  <path
     class="l4"
     d="m 1231.4188,221.05681 h 5"
     id="path372" />
  <path
     class="l4"
     d="m 1251.4188,261.04681 h 4.99"
     id="path374" />
  <path
     class="l4"
     d="m 1241.4188,261.04681 h 5"
     id="path376" />
  <path
     class="l4"
     d="m 1231.4188,261.04681 h 5"
     id="path378" />
  <path
     class="l4"
     d="m 1216.4188,261.04681 v 9.997"
     id="path380" />
  <path
     class="l4"
     d="m 1216.4188,211.05981 v 9.997"
     id="path382" />
  <path
     class="l4"
     d="m 1216.4188,251.04881 5,-4.998"
     id="path384" />
  <path
     class="l4"
     d="m 1211.4288,246.05081 h 9.99"
     id="path386" />
  <path
     class="l4"
     d="m 1211.4288,246.05081 4.99,4.998"
     id="path388" />
  <path
     class="l4"
     d="m 1216.4188,236.05281 v 9.998"
     id="path390" />
  <path
     class="l4"
     d="m 1248.9188,228.55481 h 4.99"
     id="path392" />
  <path
     class="l4"
     d="m 1251.4188,226.05581 v 4.998"
     id="path394" />
  <path
     class="l4"
     d="m 1248.9188,253.54881 h 4.99"
     id="path396" />
  <path
     class="l4"
     d="m 1508.8488,218.55781 h 5"
     id="path398" />
  <path
     class="l4"
     d="m 1511.3488,216.05781 v 4.999"
     id="path400" />
  <path
     class="l4"
     d="m 1516.3488,221.05681 19.99,19.995"
     id="path402" />
  <path
     class="l4"
     d="m 1516.3488,261.04681 19.99,-19.995"
     id="path404" />
  <path
     class="l4"
     d="m 1496.3488,241.05181 20,19.995"
     id="path406" />
  <path
     class="l4"
     d="m 1496.3488,241.05181 20,-19.995"
     id="path408" />
  <path
     class="l4"
     d="m 1551.3388,221.05681 h 5"
     id="path410" />
  <path
     class="l4"
     d="m 1541.3388,221.05681 h 5"
     id="path412" />
  <path
     class="l4"
     d="m 1531.3388,221.05681 h 5"
     id="path414" />
  <path
     class="l4"
     d="m 1551.3388,261.04681 h 5"
     id="path416" />
  <path
     class="l4"
     d="m 1541.3388,261.04681 h 5"
     id="path418" />
  <path
     class="l4"
     d="m 1531.3388,261.04681 h 5"
     id="path420" />
  <path
     class="l4"
     d="m 1516.3488,261.04681 v 9.997"
     id="path422" />
  <path
     class="l4"
     d="m 1516.3488,211.05981 v 9.997"
     id="path424" />
  <path
     class="l4"
     d="m 1516.3488,251.04881 5,-4.998"
     id="path426" />
  <path
     class="l4"
     d="m 1511.3488,246.05081 h 10"
     id="path428" />
  <path
     class="l4"
     d="m 1511.3488,246.05081 5,4.998"
     id="path430" />
  <path
     class="l4"
     d="m 1516.3488,236.05281 v 9.998"
     id="path432" />
  <path
     class="l4"
     d="m 1548.8388,228.55481 h 5"
     id="path434" />
  <path
     class="l4"
     d="m 1551.3388,226.05581 v 4.998"
     id="path436" />
  <path
     class="l4"
     d="m 1548.8388,253.54881 h 5"
     id="path438" />
  <path
     class="l4"
     d="m 1808.7688,218.55781 h 5"
     id="path440" />
  <path
     class="l4"
     d="m 1811.2688,216.05781 v 4.999"
     id="path442" />
  <path
     class="l4"
     d="m 1816.2688,221.05681 19.99,19.995"
     id="path444" />
  <path
     class="l4"
     d="m 1816.2688,261.04681 19.99,-19.995"
     id="path446" />
  <path
     class="l4"
     d="m 1796.2688,241.05181 20,19.995"
     id="path448" />
  <path
     class="l4"
     d="m 1796.2688,241.05181 20,-19.995"
     id="path450" />
  <path
     class="l4"
     d="m 1851.2588,221.05681 h 5"
     id="path452" />
  <path
     class="l4"
     d="m 1841.2588,221.05681 h 5"
     id="path454" />
  <path
     class="l4"
     d="m 1831.2688,221.05681 h 4.99"
     id="path456" />
  <path
     class="l4"
     d="m 1851.2588,261.04681 h 5"
     id="path458" />
  <path
     class="l4"
     d="m 1841.2588,261.04681 h 5"
     id="path460" />
  <path
     class="l4"
     d="m 1831.2688,261.04681 h 4.99"
     id="path462" />
  <path
     class="l4"
     d="m 1816.2688,261.04681 v 9.997"
     id="path464" />
  <path
     class="l4"
     d="m 1816.2688,211.05981 v 9.997"
     id="path466" />
  <path
     class="l4"
     d="m 1816.2688,251.04881 5,-4.998"
     id="path468" />
  <path
     class="l4"
     d="m 1811.2688,246.05081 h 10"
     id="path470" />
  <path
     class="l4"
     d="m 1811.2688,246.05081 5,4.998"
     id="path472" />
  <path
     class="l4"
     d="m 1816.2688,236.05281 v 9.998"
     id="path474" />
  <path
     class="l4"
     d="m 1848.7588,228.55481 h 5"
     id="path476" />
  <path
     class="l4"
     d="m 1851.2588,226.05581 v 4.998"
     id="path478" />
  <path
     class="l4"
     d="m 1848.7588,253.54881 h 5"
     id="path480" />
  <path
     class="l4"
     d="m 2108.6888,218.55781 h 5"
     id="path482" />
  <path
     class="l4"
     d="m 2111.1888,216.05781 v 4.999"
     id="path484" />
  <path
     class="l4"
     d="m 2116.1888,221.05681 20,19.995"
     id="path486" />
  <path
     class="l4"
     d="m 2116.1888,261.04681 20,-19.995"
     id="path488" />
  <path
     class="l4"
     d="m 2096.1988,241.05181 19.99,19.995"
     id="path490" />
  <path
     class="l4"
     d="m 2096.1988,241.05181 19.99,-19.995"
     id="path492" />
  <path
     class="l4"
     d="m 2151.1788,221.05681 h 5"
     id="path494" />
  <path
     class="l4"
     d="m 2141.1788,221.05681 h 5"
     id="path496" />
  <path
     class="l4"
     d="m 2131.1888,221.05681 h 5"
     id="path498" />
  <path
     class="l4"
     d="m 2151.1788,261.04681 h 5"
     id="path500" />
  <path
     class="l4"
     d="m 2141.1788,261.04681 h 5"
     id="path502" />
  <path
     class="l4"
     d="m 2131.1888,261.04681 h 5"
     id="path504" />
  <path
     class="l4"
     d="m 2116.1888,261.04681 v 9.997"
     id="path506" />
  <path
     class="l4"
     d="m 2116.1888,211.05981 v 9.997"
     id="path508" />
  <path
     class="l4"
     d="m 2116.1888,251.04881 5,-4.998"
     id="path510" />
  <path
     class="l4"
     d="m 2111.1888,246.05081 h 10"
     id="path512" />
  <path
     class="l4"
     d="m 2111.1888,246.05081 5,4.998"
     id="path514" />
  <path
     class="l4"
     d="m 2116.1888,236.05281 v 9.998"
     id="path516" />
  <path
     class="l4"
     d="m 2148.6788,228.55481 h 5"
     id="path518" />
  <path
     class="l4"
     d="m 2151.1788,226.05581 v 4.998"
     id="path520" />
  <path
     class="l4"
     d="m 2148.6788,253.54881 h 5"
     id="path522" />
  <path
     class="l4"
     d="m 2076.1988,575.96481 v 14.996"
     id="path524" />
  <path
     class="l4"
     stroke-dasharray="8.39782, 8.39782"
     d="m 1996.2188,570.96581 h 159.96"
     id="path526" />
  <path
     class="l4"
     d="m 2001.2188,565.96781 h 149.96"
     id="path528" />
  <path
     class="l4"
     d="m 2001.2188,575.96481 h 149.96"
     id="path530" />
  <path
     class="l5"
     d="m 2236.1588,570.96581 h 8.75"
     id="path532" />
  <path
     class="l5"
     d="m 2253.6588,570.96581 -3.75,-4.998 h -8.75 l 3.75,4.998 -3.75,4.999 h 8.75 l 3.75,-4.999"
     id="path534" />
  <path
     class="l5"
     d="m 2234.9088,569.71681 h 2.5 v 2.499 h -2.5 z"
     id="path536" />
  <path
     class="l5"
     d="m 116.70881,221.05681 h 4.999"
     id="path538" />
  <path
     class="l5"
     d="m 121.70781,221.05681 3.749,4.999 h 8.748 l -3.749,-4.999 3.749,-4.999 h -8.748 l -3.749,4.999"
     id="path540" />
  <path
     class="l5"
     d="m 115.45881,219.80681 h 2.5 v 2.5 h -2.5 z"
     id="path542" />
  <path
     class="l5"
     d="m 1913.7388,668.44081 h 5 v 4.999 h -5 z"
     id="path544" />
  <path
     class="l5"
     d="m 1913.7388,728.42481 h 5 v 4.999 h -5 z"
     id="path546" />
  <path
     class="l5"
     d="m 1916.2388,790.90881 v 3.124"
     id="path548" />
  <path
     class="l5"
     d="m 1911.2388,804.65581 5,3.749 5,-3.749 v -6.874 l -5,-3.749 -5,3.749 v 6.874"
     id="path550" />
  <path
     class="l5"
     d="m 1914.9888,789.65881 h 2.5 v 2.5 h -2.5 z"
     id="path552" />
  <path
     class="l5"
     d="m 2236.1588,11.111375 h 3.12"
     id="path554" />
  <path
     class="l5"
     d="m 2249.9088,16.110105 3.75,-4.99873 -3.75,-4.9987099 h -6.88 l -3.75,4.9987099 3.75,4.99873 h 6.88"
     id="path556" />
  <path
     class="l5"
     d="m 2234.9088,9.8616951 h 2.5 v 2.4993099 h -2.5 z"
     id="path558" />
  <path
     class="l5"
     d="m 115.45881,279.79181 h 2.5 v 2.499 h -2.5 z"
     id="path560" />
  <path
     class="l5"
     d="m 34.230405,208.55981 h 4.9987 v 4.999 h -4.9987 z"
     id="path562" />
  <path
     class="l5"
     d="m 34.230405,268.54481 h 4.9987 v 4.998 h -4.9987 z"
     id="path564" />
  <path
     class="l5"
     d="m 74.220005,218.55781 h 4.9987 v 4.998 h -4.9987 z"
     id="path566" />
  <path
     class="l5"
     d="m 74.220005,258.54681 h 4.9987 v 4.999 h -4.9987 z"
     id="path568" />
  <path
     class="l5"
     d="m 396.63681,221.05681 h 4.998"
     id="path570" />
  <path
     class="l5"
     d="m 401.63481,221.05681 3.749,4.999 h 8.748 l -3.749,-4.999 3.749,-4.999 h -8.748 l -3.749,4.999"
     id="path572" />
  <path
     class="l5"
     d="m 395.38681,219.80681 h 2.499 v 2.5 h -2.499 z"
     id="path574" />
  <path
     class="l5"
     d="m 395.38681,279.79181 h 2.499 v 2.499 h -2.499 z"
     id="path576" />
  <path
     class="l5"
     d="m 314.15781,208.55981 h 4.999 v 4.999 h -4.999 z"
     id="path578" />
  <path
     class="l5"
     d="m 314.15781,268.54481 h 4.999 v 4.998 h -4.999 z"
     id="path580" />
  <path
     class="l5"
     d="m 354.14781,218.55781 h 4.998 v 4.998 h -4.998 z"
     id="path582" />
  <path
     class="l5"
     d="m 354.14781,258.54681 h 4.998 v 4.999 h -4.998 z"
     id="path584" />
  <path
     class="l5"
     d="m 696.55881,221.05681 h 4.998"
     id="path586" />
  <path
     class="l5"
     d="m 701.55681,221.05681 3.749,4.999 h 8.748 l -3.749,-4.999 3.749,-4.999 h -8.748 l -3.749,4.999"
     id="path588" />
  <path
     class="l5"
     d="m 695.30881,219.80681 h 2.499 v 2.5 h -2.499 z"
     id="path590" />
  <path
     class="l5"
     d="m 695.30881,279.79181 h 2.499 v 2.499 h -2.499 z"
     id="path592" />
  <path
     class="l5"
     d="m 614.07981,208.55981 h 4.999 v 4.999 h -4.999 z"
     id="path594" />
  <path
     class="l5"
     d="m 614.07981,268.54481 h 4.999 v 4.998 h -4.999 z"
     id="path596" />
  <path
     class="l5"
     d="m 654.06981,218.55781 h 4.998 v 4.998 h -4.998 z"
     id="path598" />
  <path
     class="l5"
     d="m 654.06981,258.54681 h 4.998 v 4.999 h -4.998 z"
     id="path600" />
  <path
     class="l5"
     d="m 996.48081,221.05681 h 4.99899"
     id="path602" />
  <path
     class="l5"
     d="m 1001.4798,221.05681 3.749,4.999 h 8.75 l -3.75,-4.999 3.75,-4.999 h -8.75 l -3.749,4.999"
     id="path604" />
  <path
     class="l5"
     d="m 995.23081,219.80681 h 2.499 v 2.5 h -2.499 z"
     id="path606" />
  <path
     class="l5"
     d="m 995.23081,279.79181 h 2.499 v 2.499 h -2.499 z"
     id="path608" />
  <path
     class="l5"
     d="m 914.00181,208.55981 h 4.999 v 4.999 h -4.999 z"
     id="path610" />
  <path
     class="l5"
     d="m 914.00181,268.54481 h 4.999 v 4.998 h -4.999 z"
     id="path612" />
  <path
     class="l5"
     d="m 953.99181,218.55781 h 4.999 v 4.998 h -4.999 z"
     id="path614" />
  <path
     class="l5"
     d="m 953.99181,258.54681 h 4.999 v 4.999 h -4.999 z"
     id="path616" />
  <path
     class="l5"
     d="m 1296.3988,221.05681 h 5"
     id="path618" />
  <path
     class="l5"
     d="m 1301.3988,221.05681 3.75,4.999 h 8.75 l -3.75,-4.999 3.75,-4.999 h -8.75 l -3.75,4.999"
     id="path620" />
  <path
     class="l5"
     d="m 1295.1488,219.80681 h 2.5 v 2.5 h -2.5 z"
     id="path622" />
  <path
     class="l5"
     d="m 1295.1488,279.79181 h 2.5 v 2.499 h -2.5 z"
     id="path624" />
  <path
     class="l5"
     d="m 1213.9288,208.55981 h 4.99 v 4.999 h -4.99 z"
     id="path626" />
  <path
     class="l5"
     d="m 1213.9288,268.54481 h 4.99 v 4.998 h -4.99 z"
     id="path628" />
  <path
     class="l5"
     d="m 1253.9088,218.55781 h 5 v 4.998 h -5 z"
     id="path630" />
  <path
     class="l5"
     d="m 1253.9088,258.54681 h 5 v 4.999 h -5 z"
     id="path632" />
  <path
     class="l5"
     d="m 1596.3288,221.05681 h 4.99"
     id="path634" />
  <path
     class="l5"
     d="m 1601.3188,221.05681 3.75,4.999 h 8.75 l -3.75,-4.999 3.75,-4.999 h -8.75 l -3.75,4.999"
     id="path636" />
  <path
     class="l5"
     d="m 1595.0788,219.80681 h 2.5 v 2.5 h -2.5 z"
     id="path638" />
  <path
     class="l5"
     d="m 1595.0788,279.79181 h 2.5 v 2.499 h -2.5 z"
     id="path640" />
  <path
     class="l5"
     d="m 1513.8488,208.55981 h 5 v 4.999 h -5 z"
     id="path642" />
  <path
     class="l5"
     d="m 1513.8488,268.54481 h 5 v 4.998 h -5 z"
     id="path644" />
  <path
     class="l5"
     d="m 1553.8388,218.55781 h 5 v 4.998 h -5 z"
     id="path646" />
  <path
     class="l5"
     d="m 1553.8388,258.54681 h 5 v 4.999 h -5 z"
     id="path648" />
  <path
     class="l5"
     d="m 1896.2488,221.05681 h 5"
     id="path650" />
  <path
     class="l5"
     d="m 1901.2488,221.05681 3.75,4.999 h 8.74 l -3.75,-4.999 3.75,-4.999 h -8.74 l -3.75,4.999"
     id="path652" />
  <path
     class="l5"
     d="m 1894.9988,219.80681 h 2.5 v 2.5 h -2.5 z"
     id="path654" />
  <path
     class="l5"
     d="m 1894.9988,279.79181 h 2.5 v 2.499 h -2.5 z"
     id="path656" />
  <path
     class="l5"
     d="m 1813.7688,208.55981 h 5 v 4.999 h -5 z"
     id="path658" />
  <path
     class="l5"
     d="m 1813.7688,268.54481 h 5 v 4.998 h -5 z"
     id="path660" />
  <path
     class="l5"
     d="m 1853.7588,218.55781 h 5 v 4.998 h -5 z"
     id="path662" />
  <path
     class="l5"
     d="m 1853.7588,258.54681 h 5 v 4.999 h -5 z"
     id="path664" />
  <path
     class="l5"
     d="m 2196.1688,221.05681 h 5"
     id="path666" />
  <path
     class="l5"
     d="m 2201.1688,221.05681 3.75,4.999 h 8.75 l -3.75,-4.999 3.75,-4.999 h -8.75 l -3.75,4.999"
     id="path668" />
  <path
     class="l5"
     d="m 2194.9188,219.80681 h 2.5 v 2.5 h -2.5 z"
     id="path670" />
  <path
     class="l5"
     d="m 2194.9188,279.79181 h 2.5 v 2.499 h -2.5 z"
     id="path672" />
  <path
     class="l5"
     d="m 2113.6888,208.55981 h 5 v 4.999 h -5 z"
     id="path674" />
  <path
     class="l5"
     d="m 2113.6888,268.54481 h 5 v 4.998 h -5 z"
     id="path676" />
  <path
     class="l5"
     d="m 2153.6788,218.55781 h 5 v 4.998 h -5 z"
     id="path678" />
  <path
     class="l5"
     d="m 2153.6788,258.54681 h 5 v 4.999 h -5 z"
     id="path680" />
  <path
     class="l5"
     d="m 1993.7188,568.46681 h 5 v 4.999 h -5 z"
     id="path682" />
  <path
     class="l5"
     d="m 2153.6788,568.46681 h 5 v 4.999 h -5 z"
     id="path684" />
  <path
     class="l5"
     d="m 2073.6988,588.46181 h 5 v 4.998 h -5 z"
     id="path686" />
  <path
     class="l5"
     d="m 2074.9488,789.65881 h 2.5 v 2.5 h -2.5 z"
     id="path688" />
  <path
     class="l1"
     d="M 36.729705,431.00281 H 316.65681"
     id="path690" />
  <path
     class="l1"
     d="m 316.65681,431.00281 h 299.922"
     id="path692" />
  <path
     class="l1"
     d="m 616.57881,431.00281 h 299.923"
     id="path694" />
  <path
     class="l1"
     d="M 916.50181,431.00281 H 1216.4188"
     id="path696" />
  <path
     class="l1"
     d="m 1216.4188,431.00281 h 299.93"
     id="path698" />
  <path
     class="l1"
     d="m 1816.2688,431.00281 h 299.92"
     id="path700" />
  <path
     class="l1"
     d="m 1516.3488,431.00281 h 299.92"
     id="path702" />
  <path
     class="l1"
     d="M 36.729705,11.111375 V 211.05981"
     id="path704" />
  <path
     class="l1"
     d="m 1816.2688,11.111375 h 299.92"
     id="path706" />
  <path
     class="l1"
     d="M 2116.1888,11.111375 V 211.05981"
     id="path708" />
  <path
     class="l1"
     d="M 1816.2688,11.111375 V 211.05981"
     id="path710" />
  <path
     class="l1"
     d="m 1516.3488,11.111375 h 299.92"
     id="path712" />
  <path
     class="l1"
     d="M 1516.3488,11.111375 V 211.05981"
     id="path714" />
  <path
     class="l1"
     d="m 1216.4188,11.111375 h 299.93"
     id="path716" />
  <path
     class="l1"
     d="M 316.65681,11.111375 V 211.05981"
     id="path718" />
  <path
     class="l1"
     d="M 36.729705,11.111375 H 316.65681"
     id="path720" />
  <path
     class="l1"
     d="M 616.57881,11.111375 V 211.05981"
     id="path722" />
  <path
     class="l1"
     d="m 316.65681,11.111375 h 299.922"
     id="path724" />
  <path
     class="l1"
     d="M 916.50181,11.111375 V 211.05981"
     id="path726" />
  <path
     class="l1"
     d="m 616.57881,11.111375 h 299.923"
     id="path728" />
  <path
     class="l1"
     d="M 1216.4188,11.111375 V 211.05981"
     id="path730" />
  <path
     class="l1"
     d="M 916.50181,11.111375 H 1216.4188"
     id="path732" />
  <path
     class="l1"
     d="m 2116.1888,11.111375 h 119.97"
     id="path734" />
  <path
     class="l1"
     d="M 76.719305,221.05681 H 116.70881"
     id="path736" />
  <path
     class="l1"
     d="M 76.719305,261.04681 H 116.70881"
     id="path738" />
  <path
     class="l1"
     d="m 116.70881,261.04681 v 19.995"
     id="path740" />
  <path
     class="l1"
     d="m 36.729705,271.04381 v 159.959"
     id="path742" />
  <path
     class="l1"
     d="m 356.64681,221.05681 h 39.99"
     id="path744" />
  <path
     class="l1"
     d="m 356.64681,261.04681 h 39.99"
     id="path746" />
  <path
     class="l1"
     d="m 396.63681,261.04681 v 19.995"
     id="path748" />
  <path
     class="l1"
     d="m 656.56881,221.05681 h 39.99"
     id="path750" />
  <path
     class="l1"
     d="m 656.56881,261.04681 h 39.99"
     id="path752" />
  <path
     class="l1"
     d="m 696.55881,261.04681 v 19.995"
     id="path754" />
  <path
     class="l1"
     d="m 956.49081,221.05681 h 39.99"
     id="path756" />
  <path
     class="l1"
     d="m 956.49081,261.04681 h 39.99"
     id="path758" />
  <path
     class="l1"
     d="m 996.48081,261.04681 v 19.995"
     id="path760" />
  <path
     class="l1"
     d="m 1256.4088,221.05681 h 39.99"
     id="path762" />
  <path
     class="l1"
     d="m 1256.4088,261.04681 h 39.99"
     id="path764" />
  <path
     class="l1"
     d="m 1296.3988,261.04681 v 19.995"
     id="path766" />
  <path
     class="l1"
     d="m 1556.3388,221.05681 h 39.99"
     id="path768" />
  <path
     class="l1"
     d="m 1556.3388,261.04681 h 39.99"
     id="path770" />
  <path
     class="l1"
     d="m 1596.3288,261.04681 v 19.995"
     id="path772" />
  <path
     class="l1"
     d="m 1856.2588,221.05681 h 39.99"
     id="path774" />
  <path
     class="l1"
     d="m 1856.2588,261.04681 h 39.99"
     id="path776" />
  <path
     class="l1"
     d="m 1896.2488,261.04681 v 19.995"
     id="path778" />
  <path
     class="l1"
     d="m 2156.1788,221.05681 h 39.99"
     id="path780" />
  <path
     class="l1"
     d="m 2156.1788,261.04681 h 39.99"
     id="path782" />
  <path
     class="l1"
     d="m 2196.1688,261.04681 v 19.995"
     id="path784" />
  <path
     class="l1"
     d="m 316.65681,271.04381 v 159.959"
     id="path786" />
  <path
     class="l1"
     d="m 616.57881,271.04381 v 159.959"
     id="path788" />
  <path
     class="l1"
     d="m 916.50181,271.04381 v 159.959"
     id="path790" />
  <path
     class="l1"
     d="m 1216.4188,271.04381 v 159.959"
     id="path792" />
  <path
     class="l1"
     d="m 2116.1888,271.04381 v 159.959"
     id="path794" />
  <path
     class="l1"
     d="m 1816.2688,271.04381 v 159.959"
     id="path796" />
  <path
     class="l1"
     d="m 1516.3488,271.04381 v 159.959"
     id="path798" />
  <path
     class="l1"
     d="m 2076.1988,590.96081 v 199.948"
     id="path800" />
  <path
     class="l1"
     d="m 1816.2688,431.00281 v 139.963"
     id="path802" />
  <path
     class="l1"
     d="m 2156.1788,570.96581 h 79.98"
     id="path804" />
  <path
     class="l1"
     d="m 1916.2388,570.96581 h 79.98"
     id="path806" />
  <path
     class="l1"
     d="m 1916.2388,570.96581 v 99.974"
     id="path808" />
  <path
     class="l1"
     d="m 1816.2688,570.96581 h 99.97"
     id="path810" />
  <path
     class="l1"
     d="m 1916.2388,730.92481 v 59.984"
     id="path812" />
  <circle
     class="l1"
     cx="316.6568"
     cy="11.111375"
     r="7.3980799"
     id="circle814" />
  <circle
     class="l1"
     cx="316.6568"
     cy="431.00281"
     r="7.3980799"
     id="circle816" />
  <circle
     class="l1"
     cx="616.57886"
     cy="431.00281"
     r="7.3980799"
     id="circle818" />
  <circle
     class="l1"
     cx="316.6568"
     cy="431.00281"
     r="7.3980799"
     id="circle820" />
  <circle
     class="l1"
     cx="616.57886"
     cy="11.111375"
     r="7.3980799"
     id="circle822" />
  <circle
     class="l1"
     cx="916.50183"
     cy="11.111375"
     r="7.3980799"
     id="circle824" />
  <circle
     class="l1"
     cx="316.6568"
     cy="11.111375"
     r="7.3980799"
     id="circle826" />
  <circle
     class="l1"
     cx="616.57886"
     cy="11.111375"
     r="7.3980799"
     id="circle828" />
  <circle
     class="l1"
     cx="616.57886"
     cy="11.111375"
     r="7.3980799"
     id="circle830" />
  <circle
     class="l1"
     cx="316.6568"
     cy="11.111375"
     r="7.3980799"
     id="circle832" />
  <circle
     class="l1"
     cx="616.57886"
     cy="431.00281"
     r="7.3980799"
     id="circle834" />
  <circle
     class="l1"
     cx="916.50183"
     cy="431.00281"
     r="7.3980799"
     id="circle836" />
  <circle
     class="l1"
     cx="316.6568"
     cy="431.00281"
     r="7.3980799"
     id="circle838" />
  <circle
     class="l1"
     cx="616.57886"
     cy="431.00281"
     r="7.3980799"
     id="circle840" />
  <circle
     class="l1"
     cx="916.50183"
     cy="431.00281"
     r="7.3980799"
     id="circle842" />
  <circle
     class="l1"
     cx="916.50183"
     cy="11.111375"
     r="7.3980799"
     id="circle844" />
  <circle
     class="l1"
     cx="1216.4188"
     cy="11.111375"
     r="7.3980799"
     id="circle846" />
  <circle
     class="l1"
     cx="916.50183"
     cy="11.111375"
     r="7.3980799"
     id="circle848" />
  <circle
     class="l1"
     cx="916.50183"
     cy="431.00281"
     r="7.3980799"
     id="circle850" />
  <circle
     class="l1"
     cx="1216.4188"
     cy="431.00281"
     r="7.3980799"
     id="circle852" />
  <circle
     class="l1"
     cx="1216.4188"
     cy="431.00281"
     r="7.3980799"
     id="circle854" />
  <circle
     class="l1"
     cx="1216.4188"
     cy="11.111375"
     r="7.3980799"
     id="circle856" />
  <circle
     class="l1"
     cx="1216.4188"
     cy="11.111375"
     r="7.3980799"
     id="circle858" />
  <circle
     class="l1"
     cx="1516.3488"
     cy="11.111375"
     r="7.3980799"
     id="circle860" />
  <circle
     class="l1"
     cx="1216.4188"
     cy="431.00281"
     r="7.3980799"
     id="circle862" />
  <circle
     class="l1"
     cx="1516.3488"
     cy="431.00281"
     r="7.3980799"
     id="circle864" />
  <circle
     class="l1"
     cx="1516.3488"
     cy="431.00281"
     r="7.3980799"
     id="circle866" />
  <circle
     class="l1"
     cx="1816.2688"
     cy="431.00281"
     r="7.3980799"
     id="circle868" />
  <circle
     class="l1"
     cx="1516.3488"
     cy="11.111375"
     r="7.3980799"
     id="circle870" />
  <circle
     class="l1"
     cx="1516.3488"
     cy="11.111375"
     r="7.3980799"
     id="circle872" />
  <circle
     class="l1"
     cx="1816.2688"
     cy="11.111375"
     r="7.3980799"
     id="circle874" />
  <circle
     class="l1"
     cx="1816.2688"
     cy="11.111375"
     r="7.3980799"
     id="circle876" />
  <circle
     class="l1"
     cx="1816.2688"
     cy="11.111375"
     r="7.3980799"
     id="circle878" />
  <circle
     class="l1"
     cx="2116.1887"
     cy="11.111375"
     r="7.3980799"
     id="circle880" />
  <circle
     class="l1"
     cx="1916.2388"
     cy="570.96582"
     r="7.3980799"
     id="circle882" />
  <circle
     class="l1"
     cx="1816.2688"
     cy="431.00281"
     r="7.3980799"
     id="circle884" />
  <circle
     class="l1"
     cx="1516.3488"
     cy="431.00281"
     r="7.3980799"
     id="circle886" />
  <circle
     class="l1"
     cx="1816.2688"
     cy="431.00281"
     r="7.3980799"
     id="circle888" />
  <circle
     class="l1"
     cx="1816.2688"
     cy="431.00281"
     r="7.3980799"
     id="circle890" />
  <circle
     class="l1"
     cx="2116.1887"
     cy="11.111375"
     r="7.3980799"
     id="circle892" />
  <circle
     class="l1"
     cx="2116.1887"
     cy="11.111375"
     r="7.3980799"
     id="circle894" />
  <circle
     class="l1"
     cx="1916.2388"
     cy="570.96582"
     r="7.3980799"
     id="circle896" />
  <circle
     class="l1"
     cx="1916.2388"
     cy="570.96582"
     r="7.3980799"
     id="circle898" />
  <text
     fill="#222222"
     xml:space="preserve"
     font-size="20.7946px"
     id="text900"
     x="1896.2488"
     y="499.87082">10ns output voltage settling time</text>
</svg>
