<?xml version="1.0" encoding="UTF-8" standalone="no"?>
<svg
   width="456.08374"
   height="609.08374"
   version="1.1"
   id="svg234"
   sodipodi:docname="SR_latch.svg"
   inkscape:version="1.2.2 (732a01da63, 2022-12-09)"
   xmlns:inkscape="http://www.inkscape.org/namespaces/inkscape"
   xmlns:sodipodi="http://sodipodi.sourceforge.net/DTD/sodipodi-0.dtd"
   xmlns="http://www.w3.org/2000/svg"
   xmlns:svg="http://www.w3.org/2000/svg">
  <defs
     id="defs238" />
  <sodipodi:namedview
     id="namedview236"
     pagecolor="#ffffff"
     bordercolor="#666666"
     borderopacity="1.0"
     inkscape:showpageshadow="2"
     inkscape:pageopacity="0.0"
     inkscape:pagecheckerboard="0"
     inkscape:deskcolor="#d1d1d1"
     showgrid="false"
     inkscape:zoom="0.96413079"
     inkscape:cx="-5.7046202"
     inkscape:cy="377.54214"
     inkscape:window-width="1920"
     inkscape:window-height="1009"
     inkscape:window-x="3832"
     inkscape:window-y="-8"
     inkscape:window-maximized="1"
     inkscape:current-layer="svg234" />
  <style
     type="text/css"
     id="style2">
.l0{
  fill: #ffffff;
  stroke: #ffffff;
  stroke-linecap:round;
  stroke-linejoin:round;
  stroke-width: 1.08375;
}
.l1{
  fill: #0044ee;
  stroke: #0044ee;
  stroke-linecap:round;
  stroke-linejoin:round;
  stroke-width: 1.08375;
}
.l2{
  fill: #aaaaaa; fill-opacity: 0.2;
  stroke: #aaaaaa;
  stroke-linecap:round;
  stroke-linejoin:round;
  stroke-width: 1.08375;
}
.l3{
  fill: #222222; fill-opacity: 0.5;
  stroke: #222222;
  stroke-linecap:round;
  stroke-linejoin:round;
  stroke-width: 1.08375;
}
.l4{
  fill: #229900;
  stroke: #229900;
  stroke-linecap:round;
  stroke-linejoin:round;
  stroke-width: 1.08375;
}
.l5{
  fill: #bb2200;
  stroke: #bb2200;
  stroke-linecap:round;
  stroke-linejoin:round;
  stroke-width: 1.08375;
}
.l6{
  fill: #00ccee; fill-opacity: 0.5;
  stroke: #00ccee;
  stroke-linecap:round;
  stroke-linejoin:round;
  stroke-width: 1.08375;
}
.l7{
  fill: #ff0000; fill-opacity: 0.5;
  stroke: #ff0000;
  stroke-linecap:round;
  stroke-linejoin:round;
  stroke-width: 1.08375;
}
.l8{
  fill: #888800; fill-opacity: 0.5;
  stroke: #888800;
  stroke-linecap:round;
  stroke-linejoin:round;
  stroke-width: 1.08375;
}
.l9{
  fill: #00aaaa; fill-opacity: 0.5;
  stroke: #00aaaa;
  stroke-linecap:round;
  stroke-linejoin:round;
  stroke-width: 1.08375;
}
.l10{
  fill: #880088;
  stroke: #880088;
  stroke-linecap:round;
  stroke-linejoin:round;
  stroke-width: 1.08375;
}
.l11{
  fill: #00ff00; fill-opacity: 0.5;
  stroke: #00ff00;
  stroke-linecap:round;
  stroke-linejoin:round;
  stroke-width: 1.08375;
}
.l12{
  fill: #0000cc; fill-opacity: 0.5;
  stroke: #0000cc;
  stroke-linecap:round;
  stroke-linejoin:round;
  stroke-width: 1.08375;
}
.l13{
  fill: #666600; fill-opacity: 0.5;
  stroke: #666600;
  stroke-linecap:round;
  stroke-linejoin:round;
  stroke-width: 1.08375;
}
.l14{
  fill: #557755; fill-opacity: 0.2;
  stroke: #557755;
  stroke-linecap:round;
  stroke-linejoin:round;
  stroke-width: 1.08375;
}
.l15{
  fill: #aa2222; fill-opacity: 0.5;
  stroke: #aa2222;
  stroke-linecap:round;
  stroke-linejoin:round;
  stroke-width: 1.08375;
}
.l16{
  fill: #7ccc40; fill-opacity: 0.5;
  stroke: #7ccc40;
  stroke-linecap:round;
  stroke-linejoin:round;
  stroke-width: 1.08375;
}
.l17{
  fill: #00ffcc; fill-opacity: 0.2;
  stroke: #00ffcc;
  stroke-linecap:round;
  stroke-linejoin:round;
  stroke-width: 1.08375;
}
.l18{
  fill: #ce0097; fill-opacity: 0.5;
  stroke: #ce0097;
  stroke-linecap:round;
  stroke-linejoin:round;
  stroke-width: 1.08375;
}
.l19{
  fill: #d2d46b; fill-opacity: 0.2;
  stroke: #d2d46b;
  stroke-linecap:round;
  stroke-linejoin:round;
  stroke-width: 1.08375;
}
.l20{
  fill: #ef6158; fill-opacity: 0.2;
  stroke: #ef6158;
  stroke-linecap:round;
  stroke-linejoin:round;
  stroke-width: 1.08375;
}
.l21{
  fill: #fdb200; fill-opacity: 0.2;
  stroke: #fdb200;
  stroke-linecap:round;
  stroke-linejoin:round;
  stroke-width: 1.08375;
}
text {font-family: Sans-Serif;}
</style>
  <rect
     class="l0"
     x="0.541875"
     y="0.541875"
     width="455"
     height="608"
     id="rect4" />
  <text
     fill="#0044ee"
     xml:space="preserve"
     font-size="17.1318px"
     transform="rotate(-90)"
     id="text6"
     x="-38.479374"
     y="177.20688">VDD</text>
  <text
     fill="#0044ee"
     xml:space="preserve"
     font-size="17.1318px"
     id="text8"
     x="430.58289"
     y="144.97888">Q</text>
  <text
     fill="#0044ee"
     xml:space="preserve"
     font-size="17.1318px"
     transform="rotate(-90)"
     id="text10"
     x="-271.83786"
     y="176.27588">VSS</text>
  <text
     fill="#0044ee"
     xml:space="preserve"
     font-size="17.1318px"
     id="text12"
     x="1.522127"
     y="524.35388">S</text>
  <text
     fill="#0044ee"
     xml:space="preserve"
     font-size="17.1318px"
     id="text14"
     x="0.52212733"
     y="125.01187">R</text>
  <text
     fill="#0044ee"
     xml:space="preserve"
     font-size="14.0169px"
     transform="rotate(-90)"
     id="text16"
     x="-415.20187"
     y="166.41287">VDD</text>
  <text
     fill="#0044ee"
     xml:space="preserve"
     font-size="14.0169px"
     transform="rotate(-90)"
     id="text18"
     x="-607.93085"
     y="166.41287">VSS</text>
  <text
     fill="#0044ee"
     xml:space="preserve"
     font-size="17.1318px"
     id="text20"
     x="430.58289"
     y="504.38687">Qn</text>
  <text
     fill="#222222"
     xml:space="preserve"
     font-size="10.3829px"
     id="text22"
     x="195.71988"
     y="106.65388">NOR_gate</text>
  <text
     fill="#222222"
     xml:space="preserve"
     font-size="10.3829px"
     id="text24"
     x="195.96988"
     y="85.688477">x1</text>
  <text
     fill="#222222"
     xml:space="preserve"
     font-size="10.3829px"
     id="text26"
     x="140.52287"
     y="83.691772">VDD</text>
  <text
     fill="#222222"
     xml:space="preserve"
     font-size="10.3829px"
     id="text28"
     x="247.62288"
     y="131.11388">C</text>
  <text
     fill="#222222"
     xml:space="preserve"
     font-size="10.3829px"
     id="text30"
     x="107.36588"
     y="111.14687">A</text>
  <text
     fill="#222222"
     xml:space="preserve"
     font-size="10.3829px"
     id="text32"
     x="107.36588"
     y="151.08087">B</text>
  <text
     fill="#222222"
     xml:space="preserve"
     font-size="10.3829px"
     id="text34"
     x="143.55588"
     y="199.57187">VSS</text>
  <text
     fill="#222222"
     xml:space="preserve"
     font-size="12.9786px"
     id="text36"
     x="161.02687"
     y="142.45587">NOR</text>
  <text
     fill="#222222"
     xml:space="preserve"
     font-size="10.3829px"
     id="text38"
     x="195.96988"
     y="172.54488">PMOS: W_P_SR / L_P_SR</text>
  <text
     fill="#222222"
     xml:space="preserve"
     font-size="10.3829px"
     id="text40"
     x="195.96988"
     y="197.50388">NMOS: W_N_SR / L_N_SR</text>
  <text
     fill="#222222"
     xml:space="preserve"
     font-size="10.3829px"
     id="text42"
     x="195.71988"
     y="466.06189">NOR_gate</text>
  <text
     fill="#222222"
     xml:space="preserve"
     font-size="10.3829px"
     id="text44"
     x="195.96988"
     y="445.09589">x2</text>
  <text
     fill="#222222"
     xml:space="preserve"
     font-size="10.3829px"
     id="text46"
     x="140.52287"
     y="443.09988">VDD</text>
  <text
     fill="#222222"
     xml:space="preserve"
     font-size="10.3829px"
     id="text48"
     x="247.62288"
     y="490.52087">C</text>
  <text
     fill="#222222"
     xml:space="preserve"
     font-size="10.3829px"
     id="text50"
     x="107.36588"
     y="470.55386">A</text>
  <text
     fill="#222222"
     xml:space="preserve"
     font-size="10.3829px"
     id="text52"
     x="107.36588"
     y="510.48788">B</text>
  <text
     fill="#222222"
     xml:space="preserve"
     font-size="10.3829px"
     id="text54"
     x="143.55588"
     y="558.97986">VSS</text>
  <text
     fill="#222222"
     xml:space="preserve"
     font-size="12.9786px"
     id="text56"
     x="161.02687"
     y="501.86288">NOR</text>
  <text
     fill="#222222"
     xml:space="preserve"
     font-size="10.3829px"
     id="text58"
     x="195.96988"
     y="531.95288">PMOS: W_P_SR / L_P_SR</text>
  <text
     fill="#222222"
     xml:space="preserve"
     font-size="10.3829px"
     id="text60"
     x="195.96988"
     y="556.91187">NMOS: W_N_SR / L_N_SR</text>
  <path
     class="l4"
     d="m 230.91188,138.15888 h 19.967"
     id="path62" />
  <path
     class="l4"
     d="m 111.10988,118.19188 h 19.967"
     id="path64" />
  <path
     class="l4"
     d="m 111.10988,158.12588 h 19.967"
     id="path66" />
  <path
     class="l4"
     d="m 141.05988,108.20788 h 14.976"
     id="path68" />
  <path
     class="l4"
     d="m 141.05988,168.10988 h 14.976"
     id="path70" />
  <path
     class="l4"
     d="m 215.93688,138.15888 h 14.975"
     id="path72" />
  <path
     class="l4"
     d="m 131.07688,118.19188 h 14.975"
     id="path74" />
  <path
     class="l4"
     d="m 131.07688,158.12588 h 14.975"
     id="path76" />
  <path
     class="l4"
     d="m 171.01088,164.98988 v 13.103"
     id="path78" />
  <path
     class="l4"
     d="M 171.01088,98.224675 V 111.32788"
     id="path80" />
  <circle
     class="l4"
     cx="210.94487"
     cy="138.15887"
     r="4.9917698"
     style="fill:none"
     id="circle82" />
  <path
     class="l4"
     style="fill:none"
     d="m 141.05988,168.10988 a 56.0881,56.0881 0 0 0 0,-59.902"
     id="path84" />
  <path
     class="l4"
     style="fill:none"
     d="m 205.95288,138.15888 a 66.9508,66.9508 0 0 0 -49.917,-29.951"
     id="path86" />
  <path
     class="l4"
     style="fill:none"
     d="m 156.03588,168.10988 a 66.9508,66.9508 0 0 0 49.917,-29.951"
     id="path88" />
  <path
     class="l4"
     d="m 230.91188,497.56688 h 19.967"
     id="path90" />
  <path
     class="l4"
     d="m 111.10988,477.59888 h 19.967"
     id="path92" />
  <path
     class="l4"
     d="m 111.10988,517.53388 h 19.967"
     id="path94" />
  <path
     class="l4"
     d="m 141.05988,467.61588 h 14.976"
     id="path96" />
  <path
     class="l4"
     d="m 141.05988,527.51688 h 14.976"
     id="path98" />
  <path
     class="l4"
     d="m 215.93688,497.56688 h 14.975"
     id="path100" />
  <path
     class="l4"
     d="m 131.07688,477.59888 h 14.975"
     id="path102" />
  <path
     class="l4"
     d="m 131.07688,517.53388 h 14.975"
     id="path104" />
  <path
     class="l4"
     d="m 171.01088,524.39688 v 13.104"
     id="path106" />
  <path
     class="l4"
     d="m 171.01088,457.63188 v 13.104"
     id="path108" />
  <circle
     class="l4"
     cx="210.94487"
     cy="497.56686"
     r="4.9917698"
     style="fill:none"
     id="circle110" />
  <path
     class="l4"
     style="fill:none"
     d="m 141.05988,527.51688 a 56.0881,56.0881 0 0 0 0,-59.901"
     id="path112" />
  <path
     class="l4"
     style="fill:none"
     d="m 205.95288,497.56688 a 66.9508,66.9508 0 0 0 -49.917,-29.951"
     id="path114" />
  <path
     class="l4"
     style="fill:none"
     d="m 156.03588,527.51688 a 66.9508,66.9508 0 0 0 49.917,-29.95"
     id="path116" />
  <path
     class="l5"
     d="m 171.01088,55.170675 v 3.1198"
     id="path118" />
  <path
     class="l5"
     d="m 176.00288,44.563075 -4.992,-3.7438 -4.992,3.7438 v 6.8637 l 4.992,3.7439 4.992,-3.7439 v -6.8637"
     id="path120" />
  <path
     class="l5"
     d="m 169.76288,57.042575 h 2.496 v 2.4959 h -2.496 z"
     id="path122" />
  <path
     class="l5"
     d="m 410.61588,138.15888 h 8.736"
     id="path124" />
  <path
     class="l5"
     d="m 428.08688,138.15888 -3.744,-4.992 h -8.735 l 3.744,4.992 -3.744,4.992 h 8.735 l 3.744,-4.992"
     id="path126" />
  <path
     class="l5"
     d="m 409.36788,136.91088 h 2.496 v 2.496 h -2.496 z"
     id="path128" />
  <path
     class="l5"
     d="m 171.01088,218.02688 v 3.12"
     id="path130" />
  <path
     class="l5"
     d="m 166.01888,231.75488 4.992,3.744 4.992,-3.744 v -6.864 l -4.992,-3.744 -4.992,3.744 v 6.864"
     id="path132" />
  <path
     class="l5"
     d="m 169.76288,216.77888 h 2.496 v 2.496 h -2.496 z"
     id="path134" />
  <path
     class="l5"
     d="m 26.249475,517.53388 h 4.9918"
     id="path136" />
  <path
     class="l5"
     d="m 26.249475,517.53388 -3.7438,-4.992 h -8.7356 l 3.7438,4.992 -3.7438,4.991 h 8.7356 l 3.7438,-4.991"
     id="path138" />
  <path
     class="l5"
     d="m 29.993375,516.28588 h 2.4958 v 2.496 h -2.4958 z"
     id="path140" />
  <path
     class="l5"
     d="m 26.249475,118.19188 h 4.9918"
     id="path142" />
  <path
     class="l5"
     d="m 26.249475,118.19188 -3.7438,-4.992 h -8.7356 l 3.7438,4.992 -3.7438,4.992 h 8.7356 l 3.7438,-4.992"
     id="path144" />
  <path
     class="l5"
     d="m 29.993375,116.94388 h 2.4958 v 2.496 h -2.4958 z"
     id="path146" />
  <path
     class="l5"
     d="m 169.76288,416.44988 h 2.496 v 2.496 h -2.496 z"
     id="path148" />
  <path
     class="l5"
     d="m 169.76288,576.18688 h 2.496 v 2.496 h -2.496 z"
     id="path150" />
  <path
     class="l5"
     d="m 168.51488,75.761675 h 4.992 v 4.9918 h -4.992 z"
     id="path152" />
  <path
     class="l5"
     d="m 248.38288,135.66288 h 4.992 v 4.992 h -4.992 z"
     id="path154" />
  <path
     class="l5"
     d="m 108.61388,115.69588 h 4.992 v 4.992 h -4.992 z"
     id="path156" />
  <path
     class="l5"
     d="m 108.61388,155.62988 h 4.992 v 4.992 h -4.992 z"
     id="path158" />
  <path
     class="l5"
     d="m 168.51488,195.56388 h 4.992 v 4.992 h -4.992 z"
     id="path160" />
  <path
     class="l5"
     d="m 410.61588,497.56688 h 8.736"
     id="path162" />
  <path
     class="l5"
     d="m 428.08688,497.56688 -3.744,-4.992 h -8.735 l 3.744,4.992 -3.744,4.991 h 8.735 l 3.744,-4.991"
     id="path164" />
  <path
     class="l5"
     d="m 409.36788,496.31888 h 2.496 v 2.495 h -2.496 z"
     id="path166" />
  <path
     class="l5"
     d="m 168.51488,435.16888 h 4.992 v 4.992 h -4.992 z"
     id="path168" />
  <path
     class="l5"
     d="m 248.38288,495.07088 h 4.992 v 4.991 h -4.992 z"
     id="path170" />
  <path
     class="l5"
     d="m 108.61388,475.10388 h 4.992 v 4.991 h -4.992 z"
     id="path172" />
  <path
     class="l5"
     d="m 108.61388,515.03788 h 4.992 v 4.992 h -4.992 z"
     id="path174" />
  <path
     class="l5"
     d="m 168.51488,554.97188 h 4.992 v 4.992 h -4.992 z"
     id="path176" />
  <path
     class="l7"
     d="m 171.01088,78.257575 v 19.9671"
     id="path178" />
  <path
     class="l7"
     d="m 171.01088,178.09288 v 19.967"
     id="path180" />
  <path
     class="l7"
     d="m 171.01088,437.66488 v 19.967"
     id="path182" />
  <path
     class="l7"
     d="m 171.01088,537.50088 v 19.967"
     id="path184" />
  <path
     class="l1"
     d="m 171.01088,58.290475 v 19.9671"
     id="path186" />
  <path
     class="l1"
     d="m 171.01088,198.05988 v 19.967"
     id="path188" />
  <path
     class="l1"
     d="m 171.01088,417.69788 v 19.967"
     id="path190" />
  <path
     class="l1"
     d="m 171.01088,557.46788 v 19.967"
     id="path192" />
  <path
     class="l1"
     d="M 31.241275,118.19188 H 111.10988"
     id="path194" />
  <path
     class="l1"
     d="M 31.241275,517.53388 H 111.10988"
     id="path196" />
  <path
     class="l1"
     d="M 71.175475,477.59888 H 111.10988"
     id="path198" />
  <path
     class="l1"
     d="M 71.175475,158.12588 H 111.10988"
     id="path200" />
  <path
     class="l1"
     d="m 330.74788,497.56688 h 79.868"
     id="path202" />
  <path
     class="l1"
     d="m 330.74788,138.15888 h 79.868"
     id="path204" />
  <path
     class="l1"
     d="m 71.175475,357.79688 v 119.802"
     id="path206" />
  <path
     class="l1"
     d="m 330.74788,138.15888 v 119.802"
     id="path208" />
  <path
     class="l1"
     d="m 250.87888,138.15888 h 79.869"
     id="path210" />
  <path
     class="l1"
     d="m 71.175475,158.12588 v 119.803"
     id="path212" />
  <path
     class="l1"
     d="m 330.74788,377.76388 v 119.803"
     id="path214" />
  <path
     class="l1"
     d="m 250.87888,497.56688 h 79.869"
     id="path216" />
  <path
     class="l1"
     d="m 71.175475,277.92888 259.572405,99.835"
     id="path218" />
  <path
     class="l1"
     d="m 71.175475,357.79688 259.572405,-99.836"
     id="path220" />
  <circle
     class="l1"
     cx="330.74786"
     cy="497.56686"
     r="3.6939099"
     id="circle222" />
  <circle
     class="l1"
     cx="330.74786"
     cy="138.15887"
     r="3.6939099"
     id="circle224" />
  <circle
     class="l1"
     cx="330.74786"
     cy="138.15887"
     r="3.6939099"
     id="circle226" />
  <circle
     class="l1"
     cx="330.74786"
     cy="138.15887"
     r="3.6939099"
     id="circle228" />
  <circle
     class="l1"
     cx="330.74786"
     cy="497.56686"
     r="3.6939099"
     id="circle230" />
  <circle
     class="l1"
     cx="330.74786"
     cy="497.56686"
     r="3.6939099"
     id="circle232" />
</svg>
