<?xml version="1.0" encoding="UTF-8" standalone="no"?>
<svg
   width="979.89801"
   height="1473.8979"
   version="1.1"
   id="svg652"
   sodipodi:docname="vcm_generator.svg"
   inkscape:version="1.2.2 (732a01da63, 2022-12-09)"
   xmlns:inkscape="http://www.inkscape.org/namespaces/inkscape"
   xmlns:sodipodi="http://sodipodi.sourceforge.net/DTD/sodipodi-0.dtd"
   xmlns="http://www.w3.org/2000/svg"
   xmlns:svg="http://www.w3.org/2000/svg">
  <defs
     id="defs656" />
  <sodipodi:namedview
     id="namedview654"
     pagecolor="#ffffff"
     bordercolor="#666666"
     borderopacity="1.0"
     inkscape:showpageshadow="2"
     inkscape:pageopacity="0.0"
     inkscape:pagecheckerboard="0"
     inkscape:deskcolor="#d1d1d1"
     showgrid="false"
     inkscape:zoom="0.39849866"
     inkscape:cx="124.21623"
     inkscape:cy="742.78795"
     inkscape:window-width="1920"
     inkscape:window-height="1009"
     inkscape:window-x="3832"
     inkscape:window-y="-8"
     inkscape:window-maximized="1"
     inkscape:current-layer="svg652" />
  <style
     type="text/css"
     id="style2">
.l0{
  fill: #ffffff;
  stroke: #ffffff;
  stroke-linecap:round;
  stroke-linejoin:round;
  stroke-width: 2.89801;
}
.l1{
  fill: #0044ee;
  stroke: #0044ee;
  stroke-linecap:round;
  stroke-linejoin:round;
  stroke-width: 2.89801;
}
.l2{
  fill: #aaaaaa; fill-opacity: 0.2;
  stroke: #aaaaaa;
  stroke-linecap:round;
  stroke-linejoin:round;
  stroke-width: 2.89801;
}
.l3{
  fill: #222222; fill-opacity: 0.5;
  stroke: #222222;
  stroke-linecap:round;
  stroke-linejoin:round;
  stroke-width: 2.89801;
}
.l4{
  fill: #229900;
  stroke: #229900;
  stroke-linecap:round;
  stroke-linejoin:round;
  stroke-width: 2.89801;
}
.l5{
  fill: #bb2200;
  stroke: #bb2200;
  stroke-linecap:round;
  stroke-linejoin:round;
  stroke-width: 2.89801;
}
.l6{
  fill: #00ccee; fill-opacity: 0.5;
  stroke: #00ccee;
  stroke-linecap:round;
  stroke-linejoin:round;
  stroke-width: 2.89801;
}
.l7{
  fill: #ff0000; fill-opacity: 0.5;
  stroke: #ff0000;
  stroke-linecap:round;
  stroke-linejoin:round;
  stroke-width: 2.89801;
}
.l8{
  fill: #888800; fill-opacity: 0.5;
  stroke: #888800;
  stroke-linecap:round;
  stroke-linejoin:round;
  stroke-width: 2.89801;
}
.l9{
  fill: #00aaaa; fill-opacity: 0.5;
  stroke: #00aaaa;
  stroke-linecap:round;
  stroke-linejoin:round;
  stroke-width: 2.89801;
}
.l10{
  fill: #880088;
  stroke: #880088;
  stroke-linecap:round;
  stroke-linejoin:round;
  stroke-width: 2.89801;
}
.l11{
  fill: #00ff00; fill-opacity: 0.5;
  stroke: #00ff00;
  stroke-linecap:round;
  stroke-linejoin:round;
  stroke-width: 2.89801;
}
.l12{
  fill: #0000cc; fill-opacity: 0.5;
  stroke: #0000cc;
  stroke-linecap:round;
  stroke-linejoin:round;
  stroke-width: 2.89801;
}
.l13{
  fill: #666600; fill-opacity: 0.5;
  stroke: #666600;
  stroke-linecap:round;
  stroke-linejoin:round;
  stroke-width: 2.89801;
}
.l14{
  fill: #557755; fill-opacity: 0.2;
  stroke: #557755;
  stroke-linecap:round;
  stroke-linejoin:round;
  stroke-width: 2.89801;
}
.l15{
  fill: #aa2222; fill-opacity: 0.5;
  stroke: #aa2222;
  stroke-linecap:round;
  stroke-linejoin:round;
  stroke-width: 2.89801;
}
.l16{
  fill: #7ccc40; fill-opacity: 0.5;
  stroke: #7ccc40;
  stroke-linecap:round;
  stroke-linejoin:round;
  stroke-width: 2.89801;
}
.l17{
  fill: #00ffcc; fill-opacity: 0.2;
  stroke: #00ffcc;
  stroke-linecap:round;
  stroke-linejoin:round;
  stroke-width: 2.89801;
}
.l18{
  fill: #ce0097; fill-opacity: 0.5;
  stroke: #ce0097;
  stroke-linecap:round;
  stroke-linejoin:round;
  stroke-width: 2.89801;
}
.l19{
  fill: #d2d46b; fill-opacity: 0.2;
  stroke: #d2d46b;
  stroke-linecap:round;
  stroke-linejoin:round;
  stroke-width: 2.89801;
}
.l20{
  fill: #ef6158; fill-opacity: 0.2;
  stroke: #ef6158;
  stroke-linecap:round;
  stroke-linejoin:round;
  stroke-width: 2.89801;
}
.l21{
  fill: #fdb200; fill-opacity: 0.2;
  stroke: #fdb200;
  stroke-linecap:round;
  stroke-linejoin:round;
  stroke-width: 2.89801;
}
text {font-family: Sans-Serif;}
</style>
  <rect
     class="l0"
     x="1.449005"
     y="1.449005"
     width="977"
     height="1471"
     id="rect4" />
  <text
     fill="#0044ee"
     xml:space="preserve"
     font-size="17.1512px"
     transform="rotate(-90)"
     id="text6"
     x="-39.429604"
     y="466.91699">VDD</text>
  <text
     fill="#0044ee"
     xml:space="preserve"
     font-size="17.1512px"
     id="text8"
     x="940.46802"
     y="405.91699">Vcm</text>
  <text
     fill="#0044ee"
     xml:space="preserve"
     font-size="17.1512px"
     transform="rotate(-90)"
     id="text10"
     x="-1472.399"
     y="465.98502">VSS</text>
  <text
     fill="#0044ee"
     xml:space="preserve"
     font-size="17.1512px"
     transform="rotate(-90)"
     id="text12"
     x="-1460.059"
     y="168.32001">VSS</text>
  <text
     fill="#0044ee"
     xml:space="preserve"
     font-size="17.1512px"
     id="text14"
     x="35.412205"
     y="1046.219">VDD</text>
  <text
     fill="#0044ee"
     xml:space="preserve"
     font-size="17.1512px"
     id="text16"
     x="248.323"
     y="1042.7791">VSS</text>
  <text
     fill="#0044ee"
     xml:space="preserve"
     font-size="17.1512px"
     id="text18"
     x="548.16901"
     y="882.86499">VSS</text>
  <text
     fill="#0044ee"
     xml:space="preserve"
     font-size="17.1512px"
     id="text20"
     x="335.259"
     y="886.29602">VDD</text>
  <text
     fill="#0044ee"
     xml:space="preserve"
     font-size="17.1512px"
     transform="rotate(-90)"
     id="text22"
     x="-1031.269"
     y="624.65399">VDD</text>
  <text
     fill="#0044ee"
     xml:space="preserve"
     font-size="17.1512px"
     transform="rotate(-90)"
     id="text24"
     x="-1200.199"
     y="628.08502">VSS</text>
  <text
     fill="#0044ee"
     xml:space="preserve"
     font-size="17.1512px"
     id="text26"
     x="301.259"
     y="926.276">di_phi_2</text>
  <text
     fill="#0044ee"
     xml:space="preserve"
     font-size="17.1512px"
     transform="rotate(-90)"
     id="text28"
     x="-331.62399"
     y="624.65399">VDD</text>
  <text
     fill="#0044ee"
     xml:space="preserve"
     font-size="17.1512px"
     transform="rotate(-90)"
     id="text30"
     x="-500.55499"
     y="628.08502">VSS</text>
  <text
     fill="#0044ee"
     xml:space="preserve"
     font-size="17.1512px"
     id="text32"
     x="548.16901"
     y="922.84503">di_phi_2_n</text>
  <text
     fill="#0044ee"
     xml:space="preserve"
     font-size="17.1512px"
     id="text34"
     x="1.4121764"
     y="1086.189">di_phi_1</text>
  <text
     fill="#0044ee"
     xml:space="preserve"
     font-size="17.1512px"
     id="text36"
     x="238.328"
     y="1082.759">di_phi_1_n</text>
  <text
     fill="#0044ee"
     xml:space="preserve"
     font-size="17.1512px"
     transform="rotate(-90)"
     id="text38"
     x="-1258.199"
     y="648.07397">di_phi_1_n</text>
  <text
     fill="#0044ee"
     xml:space="preserve"
     font-size="17.1512px"
     transform="rotate(-90)"
     id="text40"
     x="-1031.269"
     y="644.64398">di_phi_1</text>
  <text
     fill="#0044ee"
     xml:space="preserve"
     font-size="17.1512px"
     id="text42"
     x="335.259"
     y="186.65401">VDD</text>
  <text
     fill="#0044ee"
     xml:space="preserve"
     font-size="17.1512px"
     id="text44"
     x="548.16901"
     y="183.224">VSS</text>
  <text
     fill="#0044ee"
     xml:space="preserve"
     font-size="17.1512px"
     id="text46"
     x="301.259"
     y="226.634">di_phi_2</text>
  <text
     fill="#0044ee"
     xml:space="preserve"
     font-size="17.1512px"
     transform="rotate(-90)"
     id="text48"
     x="-331.62399"
     y="644.64398">di_phi_1</text>
  <text
     fill="#0044ee"
     xml:space="preserve"
     font-size="17.1512px"
     transform="rotate(-90)"
     id="text50"
     x="-558.55499"
     y="648.07397">di_phi_1_n</text>
  <text
     fill="#0044ee"
     xml:space="preserve"
     font-size="17.1512px"
     id="text52"
     x="548.16901"
     y="223.203">di_phi_2_n</text>
  <text
     fill="#222222"
     xml:space="preserve"
     font-size="10.3947px"
     transform="rotate(-90)"
     id="text54"
     x="-246.755"
     y="491.64099">transmission_gate_lv_wo_dummy</text>
  <text
     fill="#222222"
     xml:space="preserve"
     font-size="10.3947px"
     transform="rotate(-90)"
     id="text56"
     x="-139.729"
     y="436.91901">x1</text>
  <text
     fill="#222222"
     xml:space="preserve"
     font-size="10.3947px"
     transform="rotate(-90)"
     id="text58"
     x="-189.19701"
     y="416.17999">VDD</text>
  <text
     fill="#222222"
     xml:space="preserve"
     font-size="10.3947px"
     transform="rotate(-90)"
     id="text60"
     x="-274.15302"
     y="417.25101">di_tg_ctrl</text>
  <text
     fill="#222222"
     xml:space="preserve"
     font-size="10.3947px"
     transform="rotate(-90)"
     id="text62"
     x="-190.207"
     y="512.20203">VSS</text>
  <text
     fill="#222222"
     xml:space="preserve"
     font-size="10.3947px"
     transform="rotate(-90)"
     id="text64"
     x="-324.12799"
     y="471.15201">v_b</text>
  <text
     fill="#222222"
     xml:space="preserve"
     font-size="10.3947px"
     transform="rotate(-90)"
     id="text66"
     x="-131.235"
     y="471.15201">v_a</text>
  <text
     fill="#222222"
     xml:space="preserve"
     font-size="10.3947px"
     transform="rotate(-90)"
     id="text68"
     x="-289.17599"
     y="511.13101">di_tg_ctrl_n</text>
  <text
     fill="#222222"
     xml:space="preserve"
     font-size="10.3947px"
     transform="rotate(-90)"
     id="text70"
     x="-415.15302"
     y="440.168">PMOS: W_P_VCM / L_P_VCM</text>
  <text
     fill="#222222"
     xml:space="preserve"
     font-size="10.3947px"
     transform="rotate(-90)"
     id="text72"
     x="-421.15302"
     y="488.26801">NMOS: W_N_VCM / L_N_VCM</text>
  <text
     fill="#222222"
     xml:space="preserve"
     font-size="10.3947px"
     transform="rotate(-90)"
     id="text74"
     x="-252.17101"
     y="463.90601">LV</text>
  <text
     fill="#222222"
     xml:space="preserve"
     font-size="10.3947px"
     id="text76"
     x="496.19601"
     y="430.017">transmission_gate_lv_wo_dummy</text>
  <text
     fill="#222222"
     xml:space="preserve"
     font-size="10.3947px"
     id="text78"
     x="548.16901"
     y="375.29501">x2</text>
  <text
     fill="#222222"
     xml:space="preserve"
     font-size="10.3947px"
     id="text80"
     x="587.63702"
     y="354.55499">VDD</text>
  <text
     fill="#222222"
     xml:space="preserve"
     font-size="10.3947px"
     id="text82"
     x="647.59399"
     y="355.62601">di_tg_ctrl</text>
  <text
     fill="#222222"
     xml:space="preserve"
     font-size="10.3947px"
     id="text84"
     x="590.64703"
     y="450.577">VSS</text>
  <text
     fill="#222222"
     xml:space="preserve"
     font-size="10.3947px"
     id="text86"
     x="727.56799"
     y="409.52701">v_b</text>
  <text
     fill="#222222"
     xml:space="preserve"
     font-size="10.3947px"
     id="text88"
     x="535.67603"
     y="409.52701">v_a</text>
  <text
     fill="#222222"
     xml:space="preserve"
     font-size="10.3947px"
     id="text90"
     x="650.617"
     y="449.50702">di_tg_ctrl_n</text>
  <text
     fill="#222222"
     xml:space="preserve"
     font-size="10.3947px"
     id="text92"
     x="695.59399"
     y="378.543">PMOS: W_P_VCM / L_P_VCM</text>
  <text
     fill="#222222"
     xml:space="preserve"
     font-size="10.3947px"
     id="text94"
     x="695.59399"
     y="426.64301">NMOS: W_N_VCM / L_N_VCM</text>
  <text
     fill="#222222"
     xml:space="preserve"
     font-size="10.3947px"
     id="text96"
     x="660.612"
     y="402.28101">LV</text>
  <text
     fill="#222222"
     xml:space="preserve"
     font-size="10.3947px"
     transform="rotate(-90)"
     id="text98"
     x="-946.39703"
     y="491.64099">transmission_gate_lv_wo_dummy</text>
  <text
     fill="#222222"
     xml:space="preserve"
     font-size="10.3947px"
     transform="rotate(-90)"
     id="text100"
     x="-839.37103"
     y="436.91901">x3</text>
  <text
     fill="#222222"
     xml:space="preserve"
     font-size="10.3947px"
     transform="rotate(-90)"
     id="text102"
     x="-888.83899"
     y="416.17999">VDD</text>
  <text
     fill="#222222"
     xml:space="preserve"
     font-size="10.3947px"
     transform="rotate(-90)"
     id="text104"
     x="-973.79498"
     y="417.25101">di_tg_ctrl</text>
  <text
     fill="#222222"
     xml:space="preserve"
     font-size="10.3947px"
     transform="rotate(-90)"
     id="text106"
     x="-889.849"
     y="512.20203">VSS</text>
  <text
     fill="#222222"
     xml:space="preserve"
     font-size="10.3947px"
     transform="rotate(-90)"
     id="text108"
     x="-1023.769"
     y="471.15201">v_b</text>
  <text
     fill="#222222"
     xml:space="preserve"
     font-size="10.3947px"
     transform="rotate(-90)"
     id="text110"
     x="-830.87701"
     y="471.15201">v_a</text>
  <text
     fill="#222222"
     xml:space="preserve"
     font-size="10.3947px"
     transform="rotate(-90)"
     id="text112"
     x="-988.81799"
     y="511.13101">di_tg_ctrl_n</text>
  <text
     fill="#222222"
     xml:space="preserve"
     font-size="10.3947px"
     transform="rotate(-90)"
     id="text114"
     x="-1114.799"
     y="440.168">PMOS: W_P_VCM / L_P_VCM</text>
  <text
     fill="#222222"
     xml:space="preserve"
     font-size="10.3947px"
     transform="rotate(-90)"
     id="text116"
     x="-1120.799"
     y="488.26801">NMOS: W_N_VCM / L_N_VCM</text>
  <text
     fill="#222222"
     xml:space="preserve"
     font-size="10.3947px"
     transform="rotate(-90)"
     id="text118"
     x="-951.81299"
     y="463.90601">LV</text>
  <text
     fill="#222222"
     xml:space="preserve"
     font-size="10.3947px"
     id="text120"
     x="496.19601"
     y="1129.6591">transmission_gate_lv_wo_dummy</text>
  <text
     fill="#222222"
     xml:space="preserve"
     font-size="10.3947px"
     id="text122"
     x="548.16901"
     y="1074.939">x4</text>
  <text
     fill="#222222"
     xml:space="preserve"
     font-size="10.3947px"
     id="text124"
     x="587.63702"
     y="1054.199">VDD</text>
  <text
     fill="#222222"
     xml:space="preserve"
     font-size="10.3947px"
     id="text126"
     x="647.59399"
     y="1055.269">di_tg_ctrl</text>
  <text
     fill="#222222"
     xml:space="preserve"
     font-size="10.3947px"
     id="text128"
     x="590.64703"
     y="1150.219">VSS</text>
  <text
     fill="#222222"
     xml:space="preserve"
     font-size="10.3947px"
     id="text130"
     x="727.56799"
     y="1109.1689">v_b</text>
  <text
     fill="#222222"
     xml:space="preserve"
     font-size="10.3947px"
     id="text132"
     x="535.67603"
     y="1109.1689">v_a</text>
  <text
     fill="#222222"
     xml:space="preserve"
     font-size="10.3947px"
     id="text134"
     x="650.617"
     y="1149.149">di_tg_ctrl_n</text>
  <text
     fill="#222222"
     xml:space="preserve"
     font-size="10.3947px"
     id="text136"
     x="695.59399"
     y="1078.189">PMOS: W_P_VCM / L_P_VCM</text>
  <text
     fill="#222222"
     xml:space="preserve"
     font-size="10.3947px"
     id="text138"
     x="695.59399"
     y="1126.2891">NMOS: W_N_VCM / L_N_VCM</text>
  <text
     fill="#222222"
     xml:space="preserve"
     font-size="10.3947px"
     id="text140"
     x="660.612"
     y="1101.9189">LV</text>
  <text
     fill="#222222"
     xml:space="preserve"
     font-size="10.3947px"
     transform="rotate(-90)"
     id="text142"
     x="-1106.319"
     y="191.795">transmission_gate_lv_wo_dummy</text>
  <text
     fill="#222222"
     xml:space="preserve"
     font-size="10.3947px"
     transform="rotate(-90)"
     id="text144"
     x="-999.289"
     y="137.073">x5</text>
  <text
     fill="#222222"
     xml:space="preserve"
     font-size="10.3947px"
     transform="rotate(-90)"
     id="text146"
     x="-1048.759"
     y="116.33301">VDD</text>
  <text
     fill="#222222"
     xml:space="preserve"
     font-size="10.3947px"
     transform="rotate(-90)"
     id="text148"
     x="-1133.709"
     y="117.40401">di_tg_ctrl</text>
  <text
     fill="#222222"
     xml:space="preserve"
     font-size="10.3947px"
     transform="rotate(-90)"
     id="text150"
     x="-1049.769"
     y="212.35501">VSS</text>
  <text
     fill="#222222"
     xml:space="preserve"
     font-size="10.3947px"
     transform="rotate(-90)"
     id="text152"
     x="-1183.689"
     y="171.30501">v_b</text>
  <text
     fill="#222222"
     xml:space="preserve"
     font-size="10.3947px"
     transform="rotate(-90)"
     id="text154"
     x="-990.79498"
     y="171.30501">v_a</text>
  <text
     fill="#222222"
     xml:space="preserve"
     font-size="10.3947px"
     transform="rotate(-90)"
     id="text156"
     x="-1148.739"
     y="211.285">di_tg_ctrl_n</text>
  <text
     fill="#222222"
     xml:space="preserve"
     font-size="10.3947px"
     transform="rotate(-90)"
     id="text158"
     x="-1274.709"
     y="140.321">PMOS: W_P_VCM / L_P_VCM</text>
  <text
     fill="#222222"
     xml:space="preserve"
     font-size="10.3947px"
     transform="rotate(-90)"
     id="text160"
     x="-1280.709"
     y="188.42201">NMOS: W_N_VCM / L_N_VCM</text>
  <text
     fill="#222222"
     xml:space="preserve"
     font-size="10.3947px"
     transform="rotate(-90)"
     id="text162"
     x="-1111.729"
     y="164.05901">LV</text>
  <text
     fill="#666600"
     xml:space="preserve"
     font-size="10.3947px"
     id="text164"
     x="448.71701"
     y="552.20398">1</text>
  <text
     fill="#666600"
     xml:space="preserve"
     font-size="10.3947px"
     id="text166"
     x="448.71701"
     y="594.68201">2</text>
  <text
     fill="#222222"
     xml:space="preserve"
     font-size="10.3947px"
     id="text168"
     x="475.70599"
     y="559.70001">C1</text>
  <text
     fill="#222222"
     xml:space="preserve"
     font-size="10.3947px"
     id="text170"
     x="475.70599"
     y="572.19403">C_VCM</text>
  <text
     fill="#aa2222"
     xml:space="preserve"
     font-size="7.79601px"
     id="text172"
     x="470.70901"
     y="547.34601">#net1</text>
  <text
     fill="#aa2222"
     xml:space="preserve"
     font-size="7.79601px"
     id="text174"
     x="470.70901"
     y="596.07098">#net2</text>
  <text
     fill="#222222"
     xml:space="preserve"
     font-size="10.3947px"
     id="text176"
     x="475.70599"
     y="584.68799">m=1</text>
  <text
     fill="#666600"
     xml:space="preserve"
     font-size="10.3947px"
     id="text178"
     x="448.71701"
     y="1251.849">1</text>
  <text
     fill="#666600"
     xml:space="preserve"
     font-size="10.3947px"
     id="text180"
     x="448.71701"
     y="1294.329">2</text>
  <text
     fill="#222222"
     xml:space="preserve"
     font-size="10.3947px"
     id="text182"
     x="475.70599"
     y="1259.339">C2</text>
  <text
     fill="#222222"
     xml:space="preserve"
     font-size="10.3947px"
     id="text184"
     x="475.70599"
     y="1271.839">C_VCM</text>
  <text
     fill="#aa2222"
     xml:space="preserve"
     font-size="7.79601px"
     id="text186"
     x="470.70901"
     y="1246.989">#net3</text>
  <text
     fill="#aa2222"
     xml:space="preserve"
     font-size="7.79601px"
     id="text188"
     x="470.70901"
     y="1295.709">VSS</text>
  <text
     fill="#222222"
     xml:space="preserve"
     font-size="10.3947px"
     id="text190"
     x="475.70599"
     y="1284.329">m=1</text>
  <path
     class="l4"
     d="m 420.73401,219.18101 h 19.99"
     id="path192" />
  <path
     class="l4"
     d="m 480.70401,219.18101 h 19.99"
     id="path194" />
  <path
     class="l4"
     d="m 440.72401,259.16101 19.99,-39.98"
     id="path196" />
  <path
     class="l4"
     d="m 460.71401,219.18101 19.99,39.98"
     id="path198" />
  <path
     class="l4"
     d="m 440.72401,259.16101 h 39.98"
     id="path200" />
  <path
     class="l4"
     d="m 440.72401,179.20201 h 39.98"
     id="path202" />
  <path
     class="l4"
     d="m 460.71401,219.18101 19.99,-39.979"
     id="path204" />
  <path
     class="l4"
     d="m 440.72401,179.20201 19.99,39.979"
     id="path206" />
  <path
     class="l4"
     d="m 460.71401,259.16101 v 19.99"
     id="path208" />
  <path
     class="l4"
     d="m 460.71401,159.21201 v 19.99"
     id="path210" />
  <path
     class="l4"
     d="m 440.72401,199.19201 h 9.995"
     id="path212" />
  <path
     class="l4"
     d="m 440.72401,219.18101 h 19.99"
     id="path214" />
  <path
     class="l4"
     d="m 470.70901,199.19201 h 9.995"
     id="path216" />
  <path
     class="l4"
     d="m 470.70901,219.18101 h 9.995"
     id="path218" />
  <circle
     class="l4"
     cx="465.979"
     cy="219.20401"
     r="4.79743"
     style="fill:none"
     id="circle220" />
  <path
     class="l4"
     d="m 640.62201,359.11001 v 19.99"
     id="path222" />
  <path
     class="l4"
     d="m 640.62201,419.07901 v 19.99"
     id="path224" />
  <path
     class="l4"
     d="m 640.62201,399.08901 39.979,-19.989"
     id="path226" />
  <path
     class="l4"
     d="m 640.62201,399.08901 39.979,19.99"
     id="path228" />
  <path
     class="l4"
     d="m 680.60101,379.10001 v 39.979"
     id="path230" />
  <path
     class="l4"
     d="m 600.64201,379.10001 v 39.979"
     id="path232" />
  <path
     class="l4"
     d="m 600.64201,419.07901 39.98,-19.99"
     id="path234" />
  <path
     class="l4"
     d="m 600.64201,379.10001 39.98,19.989"
     id="path236" />
  <path
     class="l4"
     d="m 680.60101,399.08901 h 19.99"
     id="path238" />
  <path
     class="l4"
     d="m 580.65301,399.08901 h 19.989"
     id="path240" />
  <path
     class="l4"
     d="m 620.63201,379.10001 v 9.994"
     id="path242" />
  <path
     class="l4"
     d="m 640.62201,379.10001 v 19.989"
     id="path244" />
  <path
     class="l4"
     d="m 620.63201,409.08401 v 9.995"
     id="path246" />
  <path
     class="l4"
     d="m 640.62201,409.08401 v 9.995"
     id="path248" />
  <circle
     class="l4"
     cx="640.64398"
     cy="404.354"
     r="4.79743"
     style="fill:none"
     id="circle250" />
  <path
     class="l4"
     d="m 420.73401,918.82301 h 19.99"
     id="path252" />
  <path
     class="l4"
     d="m 480.70401,918.82301 h 19.99"
     id="path254" />
  <path
     class="l4"
     d="m 440.72401,958.80301 19.99,-39.98"
     id="path256" />
  <path
     class="l4"
     d="m 460.71401,918.82301 19.99,39.98"
     id="path258" />
  <path
     class="l4"
     d="m 440.72401,958.80301 h 39.98"
     id="path260" />
  <path
     class="l4"
     d="m 440.72401,878.84401 h 39.98"
     id="path262" />
  <path
     class="l4"
     d="m 460.71401,918.82301 19.99,-39.979"
     id="path264" />
  <path
     class="l4"
     d="m 440.72401,878.84401 19.99,39.979"
     id="path266" />
  <path
     class="l4"
     d="m 460.71401,958.80301 v 19.99"
     id="path268" />
  <path
     class="l4"
     d="m 460.71401,858.85401 v 19.99"
     id="path270" />
  <path
     class="l4"
     d="m 440.72401,898.83401 h 9.995"
     id="path272" />
  <path
     class="l4"
     d="m 440.72401,918.82301 h 19.99"
     id="path274" />
  <path
     class="l4"
     d="m 470.70901,898.83401 h 9.995"
     id="path276" />
  <path
     class="l4"
     d="m 470.70901,918.82301 h 9.995"
     id="path278" />
  <circle
     class="l4"
     cx="465.979"
     cy="918.84595"
     r="4.79743"
     style="fill:none"
     id="circle280" />
  <path
     class="l4"
     d="m 640.62201,1058.749 v 19.99"
     id="path282" />
  <path
     class="l4"
     d="m 640.62201,1118.719 v 19.99"
     id="path284" />
  <path
     class="l4"
     d="m 640.62201,1098.729 39.979,-19.99"
     id="path286" />
  <path
     class="l4"
     d="m 640.62201,1098.729 39.979,19.99"
     id="path288" />
  <path
     class="l4"
     d="m 680.60101,1078.739 v 39.98"
     id="path290" />
  <path
     class="l4"
     d="m 600.64201,1078.739 v 39.98"
     id="path292" />
  <path
     class="l4"
     d="m 600.64201,1118.719 39.98,-19.99"
     id="path294" />
  <path
     class="l4"
     d="m 600.64201,1078.739 39.98,19.99"
     id="path296" />
  <path
     class="l4"
     d="m 680.60101,1098.729 h 19.99"
     id="path298" />
  <path
     class="l4"
     d="m 580.65301,1098.729 h 19.989"
     id="path300" />
  <path
     class="l4"
     d="m 620.63201,1078.739 v 10"
     id="path302" />
  <path
     class="l4"
     d="m 640.62201,1078.739 v 19.99"
     id="path304" />
  <path
     class="l4"
     d="m 620.63201,1108.729 v 9.99"
     id="path306" />
  <path
     class="l4"
     d="m 640.62201,1108.729 v 9.99"
     id="path308" />
  <circle
     class="l4"
     cx="640.64398"
     cy="1103.999"
     r="4.79743"
     style="fill:none"
     id="circle310" />
  <path
     class="l4"
     d="m 120.88801,1078.739 h 19.99"
     id="path312" />
  <path
     class="l4"
     d="m 180.85701,1078.739 h 19.99"
     id="path314" />
  <path
     class="l4"
     d="m 140.87801,1118.719 19.989,-39.98"
     id="path316" />
  <path
     class="l4"
     d="m 160.86701,1078.739 19.99,39.98"
     id="path318" />
  <path
     class="l4"
     d="m 140.87801,1118.719 h 39.979"
     id="path320" />
  <path
     class="l4"
     d="m 140.87801,1038.759 h 39.979"
     id="path322" />
  <path
     class="l4"
     d="m 160.86701,1078.739 19.99,-39.98"
     id="path324" />
  <path
     class="l4"
     d="m 140.87801,1038.759 19.989,39.98"
     id="path326" />
  <path
     class="l4"
     d="m 160.86701,1118.719 v 19.99"
     id="path328" />
  <path
     class="l4"
     d="m 160.86701,1018.769 v 19.99"
     id="path330" />
  <path
     class="l4"
     d="m 140.87801,1058.749 h 9.995"
     id="path332" />
  <path
     class="l4"
     d="m 140.87801,1078.739 h 19.989"
     id="path334" />
  <path
     class="l4"
     d="m 170.86201,1058.749 h 9.995"
     id="path336" />
  <path
     class="l4"
     d="m 170.86201,1078.739 h 9.995"
     id="path338" />
  <circle
     class="l4"
     cx="166.13301"
     cy="1078.759"
     r="4.79743"
     style="fill:none"
     id="circle340" />
  <path
     class="l4"
     d="m 460.71401,574.00001 v 24.987"
     id="path342" />
  <path
     class="l4"
     d="m 460.71401,539.01801 v 24.987"
     id="path344" />
  <path
     class="l4"
     d="m 450.71901,564.00501 h 19.99"
     id="path346" />
  <path
     class="l4"
     d="m 450.71901,574.00001 h 19.99"
     id="path348" />
  <path
     class="l4"
     d="m 463.21301,546.51401 h 4.997"
     id="path350" />
  <path
     class="l4"
     d="m 465.71101,544.01501 v 4.998"
     id="path352" />
  <path
     class="l4"
     d="m 460.71401,1273.639 v 24.99"
     id="path354" />
  <path
     class="l4"
     d="m 460.71401,1238.659 v 24.99"
     id="path356" />
  <path
     class="l4"
     d="m 450.71901,1263.649 h 19.99"
     id="path358" />
  <path
     class="l4"
     d="m 450.71901,1273.639 h 19.99"
     id="path360" />
  <path
     class="l4"
     d="m 463.21301,1246.159 h 4.997"
     id="path362" />
  <path
     class="l4"
     d="m 465.71101,1243.659 v 5"
     id="path364" />
  <path
     class="l5"
     d="m 460.71401,56.139805 v 3.1234"
     id="path366" />
  <path
     class="l5"
     d="m 465.71101,45.520205 -4.997,-3.748 -4.997,3.748 v 6.8715 l 4.997,3.7481 4.997,-3.7481 v -6.8715"
     id="path368" />
  <path
     class="l5"
     d="m 459.46501,58.013905 h 2.498 v 2.4987 h -2.498 z"
     id="path370" />
  <path
     class="l5"
     d="m 920.47901,399.08901 h 8.745"
     id="path372" />
  <path
     class="l5"
     d="m 937.97001,399.08901 -3.748,-4.997 h -8.746 l 3.748,4.997 -3.748,4.998 h 8.746 l 3.748,-4.998"
     id="path374" />
  <path
     class="l5"
     d="m 919.22901,397.84001 h 2.499 v 2.499 h -2.499 z"
     id="path376" />
  <path
     class="l5"
     d="m 460.71401,1418.569 v 3.12"
     id="path378" />
  <path
     class="l5"
     d="m 455.71701,1432.309 4.997,3.75 4.997,-3.75 v -6.87 l -4.997,-3.75 -4.997,3.75 v 6.87"
     id="path380" />
  <path
     class="l5"
     d="m 459.46501,1417.319 h 2.498 v 2.5 h -2.498 z"
     id="path382" />
  <path
     class="l5"
     d="m 159.61801,1417.319 h 2.499 v 2.5 h -2.499 z"
     id="path384" />
  <path
     class="l5"
     d="m 79.659005,1037.509 h 2.4987 v 2.5 h -2.4987 z"
     id="path386" />
  <path
     class="l5"
     d="m 239.57701,1037.509 h 2.499 v 2.5 h -2.499 z"
     id="path388" />
  <path
     class="l5"
     d="m 539.42401,877.59401 h 2.498 v 2.499 h -2.498 z"
     id="path390" />
  <path
     class="l5"
     d="m 379.50601,877.59401 h 2.498 v 2.499 h -2.498 z"
     id="path392" />
  <path
     class="l5"
     d="m 619.38301,1037.509 h 2.498 v 2.5 h -2.498 z"
     id="path394" />
  <path
     class="l5"
     d="m 619.38301,1157.449 h 2.498 v 2.5 h -2.498 z"
     id="path396" />
  <path
     class="l5"
     d="m 379.50601,917.57401 h 2.498 v 2.499 h -2.498 z"
     id="path398" />
  <path
     class="l5"
     d="m 619.38301,337.87101 h 2.498 v 2.498 h -2.498 z"
     id="path400" />
  <path
     class="l5"
     d="m 619.38301,457.80901 h 2.498 v 2.499 h -2.498 z"
     id="path402" />
  <path
     class="l5"
     d="m 539.42401,917.57401 h 2.498 v 2.499 h -2.498 z"
     id="path404" />
  <path
     class="l5"
     d="m 79.659005,1077.489 h 2.4987 v 2.5 h -2.4987 z"
     id="path406" />
  <path
     class="l5"
     d="m 229.58201,1077.489 h 2.499 v 2.5 h -2.499 z"
     id="path408" />
  <path
     class="l5"
     d="m 639.37301,1157.449 h 2.498 v 2.5 h -2.498 z"
     id="path410" />
  <path
     class="l5"
     d="m 639.37301,1037.509 h 2.498 v 2.5 h -2.498 z"
     id="path412" />
  <path
     class="l5"
     d="m 379.50601,177.95201 h 2.498 v 2.499 h -2.498 z"
     id="path414" />
  <path
     class="l5"
     d="m 539.42401,177.95201 h 2.498 v 2.499 h -2.498 z"
     id="path416" />
  <path
     class="l5"
     d="m 418.23601,196.69301 h 4.997 v 4.997 h -4.997 z"
     id="path418" />
  <path
     class="l5"
     d="m 418.23601,216.68301 h 4.997 v 4.997 h -4.997 z"
     id="path420" />
  <path
     class="l5"
     d="m 498.19501,196.69301 h 4.997 v 4.997 h -4.997 z"
     id="path422" />
  <path
     class="l5"
     d="m 458.21501,296.64201 h 4.998 v 4.997 h -4.998 z"
     id="path424" />
  <path
     class="l5"
     d="m 458.21501,136.72401 h 4.998 v 4.997 h -4.998 z"
     id="path426" />
  <path
     class="l5"
     d="m 498.19501,216.68301 h 4.997 v 4.997 h -4.997 z"
     id="path428" />
  <path
     class="l5"
     d="m 618.13301,356.61101 h 4.998 v 4.997 h -4.998 z"
     id="path430" />
  <path
     class="l5"
     d="m 638.12301,356.61101 h 4.998 v 4.997 h -4.998 z"
     id="path432" />
  <path
     class="l5"
     d="m 618.13301,436.57001 h 4.998 v 4.998 h -4.998 z"
     id="path434" />
  <path
     class="l5"
     d="m 718.08201,396.59101 h 4.998 v 4.997 h -4.998 z"
     id="path436" />
  <path
     class="l5"
     d="m 558.16401,396.59101 h 4.998 v 4.997 h -4.998 z"
     id="path438" />
  <path
     class="l5"
     d="m 638.12301,436.57001 h 4.998 v 4.998 h -4.998 z"
     id="path440" />
  <path
     class="l5"
     d="m 418.23601,896.33501 h 4.997 v 4.997 h -4.997 z"
     id="path442" />
  <path
     class="l5"
     d="m 418.23601,916.32501 h 4.997 v 4.997 h -4.997 z"
     id="path444" />
  <path
     class="l5"
     d="m 498.19501,896.33501 h 4.997 v 4.997 h -4.997 z"
     id="path446" />
  <path
     class="l5"
     d="m 458.21501,996.28401 h 4.998 v 4.99699 h -4.998 z"
     id="path448" />
  <path
     class="l5"
     d="m 458.21501,836.36601 h 4.998 v 4.997 h -4.998 z"
     id="path450" />
  <path
     class="l5"
     d="m 498.19501,916.32501 h 4.997 v 4.997 h -4.997 z"
     id="path452" />
  <path
     class="l5"
     d="m 618.13301,1056.249 h 4.998 v 5 h -4.998 z"
     id="path454" />
  <path
     class="l5"
     d="m 638.12301,1056.249 h 4.998 v 5 h -4.998 z"
     id="path456" />
  <path
     class="l5"
     d="m 618.13301,1136.209 h 4.998 v 5 h -4.998 z"
     id="path458" />
  <path
     class="l5"
     d="m 718.08201,1096.229 h 4.998 v 5 h -4.998 z"
     id="path460" />
  <path
     class="l5"
     d="m 558.16401,1096.229 h 4.998 v 5 h -4.998 z"
     id="path462" />
  <path
     class="l5"
     d="m 638.12301,1136.209 h 4.998 v 5 h -4.998 z"
     id="path464" />
  <path
     class="l5"
     d="m 118.38901,1056.249 h 4.998 v 5 h -4.998 z"
     id="path466" />
  <path
     class="l5"
     d="m 118.38901,1076.239 h 4.998 v 5 h -4.998 z"
     id="path468" />
  <path
     class="l5"
     d="m 198.34801,1056.249 h 4.998 v 5 h -4.998 z"
     id="path470" />
  <path
     class="l5"
     d="m 158.36901,1156.199 h 4.997 v 5 h -4.997 z"
     id="path472" />
  <path
     class="l5"
     d="m 158.36901,996.28401 h 4.997 v 4.99699 h -4.997 z"
     id="path474" />
  <path
     class="l5"
     d="m 198.34801,1076.239 h 4.998 v 5 h -4.998 z"
     id="path476" />
  <path
     class="l5"
     d="m 379.50601,217.93201 h 2.498 v 2.499 h -2.498 z"
     id="path478" />
  <path
     class="l5"
     d="m 639.37301,337.87101 h 2.498 v 2.498 h -2.498 z"
     id="path480" />
  <path
     class="l5"
     d="m 639.37301,457.80901 h 2.498 v 2.499 h -2.498 z"
     id="path482" />
  <path
     class="l5"
     d="m 539.42401,217.93201 h 2.498 v 2.499 h -2.498 z"
     id="path484" />
  <path
     class="l5"
     d="m 458.21501,536.51901 h 4.998 v 4.997 h -4.998 z"
     id="path486" />
  <path
     class="l5"
     d="m 458.21501,596.48801 h 4.998 v 4.998 h -4.998 z"
     id="path488" />
  <path
     class="l5"
     d="m 458.21501,1236.159 h 4.998 v 5 h -4.998 z"
     id="path490" />
  <path
     class="l5"
     d="m 458.21501,1296.129 h 4.998 v 5 h -4.998 z"
     id="path492" />
  <path
     class="l7"
     d="m 420.73401,199.19201 h 19.99"
     id="path494" />
  <path
     class="l7"
     d="m 480.70401,199.19201 h 19.99"
     id="path496" />
  <path
     class="l7"
     d="m 460.71401,279.15101 v 19.989"
     id="path498" />
  <path
     class="l7"
     d="m 460.71401,139.22201 v 19.99"
     id="path500" />
  <path
     class="l7"
     d="m 620.63201,359.11001 v 19.99"
     id="path502" />
  <path
     class="l7"
     d="m 620.63201,419.07901 v 19.99"
     id="path504" />
  <path
     class="l7"
     d="m 700.59101,399.08901 h 19.99"
     id="path506" />
  <path
     class="l7"
     d="m 560.66301,399.08901 h 19.99"
     id="path508" />
  <path
     class="l7"
     d="m 420.73401,898.83401 h 19.99"
     id="path510" />
  <path
     class="l7"
     d="m 480.70401,898.83401 h 19.99"
     id="path512" />
  <path
     class="l7"
     d="m 460.71401,978.79301 v 19.989"
     id="path514" />
  <path
     class="l7"
     d="m 460.71401,838.86401 v 19.99"
     id="path516" />
  <path
     class="l7"
     d="m 620.63201,1058.749 v 19.99"
     id="path518" />
  <path
     class="l7"
     d="m 620.63201,1118.719 v 19.99"
     id="path520" />
  <path
     class="l7"
     d="m 700.59101,1098.729 h 19.99"
     id="path522" />
  <path
     class="l7"
     d="m 560.66301,1098.729 h 19.99"
     id="path524" />
  <path
     class="l7"
     d="m 120.88801,1058.749 h 19.99"
     id="path526" />
  <path
     class="l7"
     d="m 180.85701,1058.749 h 19.99"
     id="path528" />
  <path
     class="l7"
     d="m 160.86701,1138.709 v 19.99"
     id="path530" />
  <path
     class="l7"
     d="M 160.86701,998.78201 V 1018.769"
     id="path532" />
  <path
     class="l1"
     d="m 460.71401,399.08901 v 139.929"
     id="path534" />
  <path
     class="l1"
     d="m 460.71401,738.91501 v 99.949"
     id="path536" />
  <path
     class="l1"
     d="m 460.71401,1098.729 v 139.93"
     id="path538" />
  <path
     class="l1"
     d="m 460.71401,1098.729 h 99.949"
     id="path540" />
  <path
     class="l1"
     d="M 460.71401,998.78201 V 1098.729"
     id="path542" />
  <path
     class="l1"
     d="m 460.71401,399.08901 h 99.949"
     id="path544" />
  <path
     class="l1"
     d="m 460.71401,299.14001 v 99.949"
     id="path546" />
  <path
     class="l1"
     d="m 720.58101,399.08901 h 99.949"
     id="path548" />
  <path
     class="l1"
     d="M 820.53001,399.08901 V 1098.729"
     id="path550" />
  <path
     class="l1"
     d="m 720.58101,1098.729 h 99.949"
     id="path552" />
  <path
     class="l1"
     d="m 820.53001,399.08901 h 99.949"
     id="path554" />
  <path
     class="l1"
     d="m 160.86701,738.91501 h 299.847"
     id="path556" />
  <path
     class="l1"
     d="m 200.84701,1058.749 h 39.979"
     id="path558" />
  <path
     class="l1"
     d="m 240.82601,1038.759 v 19.99"
     id="path560" />
  <path
     class="l1"
     d="m 80.908305,1038.759 v 19.99"
     id="path562" />
  <path
     class="l1"
     d="M 80.908305,1058.749 H 120.88801"
     id="path564" />
  <path
     class="l1"
     d="m 500.69401,898.83401 h 39.979"
     id="path566" />
  <path
     class="l1"
     d="m 540.67301,878.84401 v 19.99"
     id="path568" />
  <path
     class="l1"
     d="m 380.75501,878.84401 v 19.99"
     id="path570" />
  <path
     class="l1"
     d="m 380.75501,898.83401 h 39.979"
     id="path572" />
  <path
     class="l1"
     d="m 620.63201,1038.759 v 19.99"
     id="path574" />
  <path
     class="l1"
     d="m 620.63201,1138.709 v 19.99"
     id="path576" />
  <path
     class="l1"
     d="m 200.84701,1078.739 h 39.979"
     id="path578" />
  <path
     class="l1"
     d="m 380.75501,219.18101 h 39.979"
     id="path580" />
  <path
     class="l1"
     d="m 500.69401,219.18101 h 39.979"
     id="path582" />
  <path
     class="l1"
     d="m 620.63201,439.06901 v 19.99"
     id="path584" />
  <path
     class="l1"
     d="m 620.63201,339.12001 v 19.99"
     id="path586" />
  <path
     class="l1"
     d="m 500.69401,918.82301 h 39.979"
     id="path588" />
  <path
     class="l1"
     d="m 380.75501,918.82301 h 39.979"
     id="path590" />
  <path
     class="l1"
     d="m 640.62201,339.12001 v 19.99"
     id="path592" />
  <path
     class="l1"
     d="m 640.62201,439.06901 v 19.99"
     id="path594" />
  <path
     class="l1"
     d="M 80.908305,1078.739 H 120.88801"
     id="path596" />
  <path
     class="l1"
     d="m 640.62201,1138.709 v 19.99"
     id="path598" />
  <path
     class="l1"
     d="m 640.62201,1038.759 v 19.99"
     id="path600" />
  <path
     class="l1"
     d="M 460.71401,59.263205 V 139.22201"
     id="path602" />
  <path
     class="l1"
     d="m 160.86701,1158.699 v 259.87"
     id="path604" />
  <path
     class="l1"
     d="m 160.86701,738.91501 v 259.867"
     id="path606" />
  <path
     class="l1"
     d="m 380.75501,179.20201 v 19.99"
     id="path608" />
  <path
     class="l1"
     d="m 380.75501,199.19201 h 39.979"
     id="path610" />
  <path
     class="l1"
     d="m 500.69401,199.19201 h 39.979"
     id="path612" />
  <path
     class="l1"
     d="m 540.67301,179.20201 v 19.99"
     id="path614" />
  <path
     class="l1"
     d="m 460.71401,598.98701 v 139.928"
     id="path616" />
  <path
     class="l1"
     d="m 460.71401,1298.629 v 119.94"
     id="path618" />
  <circle
     class="l1"
     cx="460.71402"
     cy="738.91498"
     r="7.3962102"
     id="circle620" />
  <circle
     class="l1"
     cx="820.52997"
     cy="399.08902"
     r="7.3962102"
     id="circle622" />
  <circle
     class="l1"
     cx="460.71402"
     cy="399.08902"
     r="7.3962102"
     id="circle624" />
  <circle
     class="l1"
     cx="460.71402"
     cy="399.08902"
     r="7.3962102"
     id="circle626" />
  <circle
     class="l1"
     cx="460.71402"
     cy="399.08902"
     r="7.3962102"
     id="circle628" />
  <circle
     class="l1"
     cx="460.71402"
     cy="738.91498"
     r="7.3962102"
     id="circle630" />
  <circle
     class="l1"
     cx="460.71402"
     cy="738.91498"
     r="7.3962102"
     id="circle632" />
  <circle
     class="l1"
     cx="460.71402"
     cy="1098.729"
     r="7.3962102"
     id="circle634" />
  <circle
     class="l1"
     cx="460.71402"
     cy="1098.729"
     r="7.3962102"
     id="circle636" />
  <circle
     class="l1"
     cx="460.71402"
     cy="1098.729"
     r="7.3962102"
     id="circle638" />
  <circle
     class="l1"
     cx="820.52997"
     cy="399.08902"
     r="7.3962102"
     id="circle640" />
  <circle
     class="l1"
     cx="820.52997"
     cy="399.08902"
     r="7.3962102"
     id="circle642" />
</svg>
