<?xml version="1.0" encoding="utf-8" standalone="no"?>
<!DOCTYPE svg PUBLIC "-//W3C//DTD SVG 1.1//EN"
  "http://www.w3.org/Graphics/SVG/1.1/DTD/svg11.dtd">
<svg xmlns:xlink="http://www.w3.org/1999/xlink" width="509.206324pt" height="329.352pt" viewBox="0 0 509.206324 329.352" xmlns="http://www.w3.org/2000/svg" version="1.1">
 <metadata>
  <rdf:RDF xmlns:dc="http://purl.org/dc/elements/1.1/" xmlns:cc="http://creativecommons.org/ns#" xmlns:rdf="http://www.w3.org/1999/02/22-rdf-syntax-ns#">
   <cc:Work>
    <dc:type rdf:resource="http://purl.org/dc/dcmitype/StillImage"/>
    <dc:date>2025-05-29T19:14:51.464537</dc:date>
    <dc:format>image/svg+xml</dc:format>
    <dc:creator>
     <cc:Agent>
      <dc:title>Matplotlib v3.9.2, https://matplotlib.org/</dc:title>
     </cc:Agent>
    </dc:creator>
   </cc:Work>
  </rdf:RDF>
 </metadata>
 <defs>
  <style type="text/css">*{stroke-linejoin: round; stroke-linecap: butt}</style>
 </defs>
 <g id="figure_1">
  <g id="patch_1">
   <path d="M 0 329.352 
L 509.206324 329.352 
L 509.206324 0 
L 0 0 
L 0 329.352 
z
" style="fill: none"/>
  </g>
  <g id="axes_1">
   <g id="line2d_1">
    <path d="M 36.2008 147.912 
L 49.7008 147.912 
L 63.2008 147.912 
" clip-path="url(#p7cb10dbba8)" style="fill: none; stroke: #000000; stroke-width: 2; stroke-linecap: round"/>
   </g>
   <g id="line2d_2">
    <path d="M 63.2008 147.912 
L 81.2008 147.912 
L 84.2008 138.912 
L 90.2008 156.912 
L 96.2008 138.912 
L 102.2008 156.912 
L 108.2008 138.912 
L 114.2008 156.912 
L 117.2008 147.912 
L 135.2008 147.912 
" clip-path="url(#p7cb10dbba8)" style="fill: none; stroke: #000000; stroke-width: 2; stroke-linecap: round"/>
   </g>
   <g id="line2d_3">
    <path d="M 135.2008 147.912 
L 167.9608 147.912 
M 167.9608 138.912 
L 167.9608 156.912 
M 174.4408 138.912 
L 174.4408 156.912 
M 174.4408 147.912 
L 207.2008 147.912 
" clip-path="url(#p7cb10dbba8)" style="fill: none; stroke: #000000; stroke-width: 2; stroke-linecap: round"/>
   </g>
   <g id="line2d_4">
    <path d="M 155.9608 156.912 
L 180.06233 140.040929 
" clip-path="url(#p7cb10dbba8)" style="fill: none; stroke: #000000; stroke-width: 2; stroke-linecap: round"/>
   </g>
   <g id="patch_2">
    <path d="M 177.997866 137.091694 
L 185.9608 135.912 
L 182.126795 142.990164 
z
" clip-path="url(#p7cb10dbba8)"/>
   </g>
   <g id="line2d_5">
    <path d="M 207.2008 147.912 
L 216.2008 147.912 
L 225.2008 147.912 
" clip-path="url(#p7cb10dbba8)" style="fill: none; stroke: #000000; stroke-width: 2; stroke-linecap: round"/>
   </g>
   <g id="line2d_6">
    <path d="M 225.2008 147.912 
L 252.2008 147.912 
L 279.2008 147.912 
" clip-path="url(#p7cb10dbba8)" style="fill: none; stroke: #000000; stroke-width: 2; stroke-linecap: round"/>
   </g>
   <g id="line2d_7">
    <path d="M 279.2008 170.412 
L 279.2008 215.412 
L 357.143086 170.412 
L 279.2008 125.412 
L 279.2008 170.412 
M 357.143086 170.412 
" clip-path="url(#p7cb10dbba8)" style="fill: none; stroke: #000000; stroke-width: 2; stroke-linecap: round"/>
   </g>
   <g id="line2d_8">
    <path d="M 285.343586 192.912 
L 292.543586 192.912 
" clip-path="url(#p7cb10dbba8)" style="fill: none; stroke: #000000; stroke-width: 2; stroke-linecap: round"/>
   </g>
   <g id="line2d_9">
    <path d="M 285.343586 147.912 
L 292.543586 147.912 
" clip-path="url(#p7cb10dbba8)" style="fill: none; stroke: #000000; stroke-width: 2; stroke-linecap: round"/>
   </g>
   <g id="line2d_10">
    <path d="M 288.943586 144.312 
L 288.943586 151.512 
" clip-path="url(#p7cb10dbba8)" style="fill: none; stroke: #000000; stroke-width: 2; stroke-linecap: round"/>
   </g>
   <g id="line2d_11">
    <path d="M 331.162324 155.292 
L 371.662324 155.292 
L 412.162324 155.292 
" clip-path="url(#p7cb10dbba8)" style="fill: none; stroke: #000000; stroke-width: 2; stroke-linecap: round"/>
   </g>
   <g id="line2d_12">
    <path d="M 412.162324 155.292 
L 439.162324 155.292 
L 466.162324 155.292 
" clip-path="url(#p7cb10dbba8)" style="fill: none; stroke: #000000; stroke-width: 2; stroke-linecap: round"/>
   </g>
   <g id="line2d_13">
    <path d="M 225.2008 147.912 
L 225.2008 120.912 
L 225.2008 93.912 
" clip-path="url(#p7cb10dbba8)" style="fill: none; stroke: #000000; stroke-width: 2; stroke-linecap: round"/>
   </g>
   <g id="line2d_14">
    <path d="M 225.2008 93.912 
L 252.2008 93.912 
L 279.2008 93.912 
" clip-path="url(#p7cb10dbba8)" style="fill: none; stroke: #000000; stroke-width: 2; stroke-linecap: round"/>
   </g>
   <g id="line2d_15">
    <path d="M 279.2008 93.912 
L 311.9608 93.912 
M 311.9608 84.912 
L 311.9608 102.912 
M 318.4408 84.912 
L 318.4408 102.912 
M 318.4408 93.912 
L 351.2008 93.912 
" clip-path="url(#p7cb10dbba8)" style="fill: none; stroke: #000000; stroke-width: 2; stroke-linecap: round"/>
   </g>
   <g id="line2d_16">
    <path d="M 351.2008 93.912 
L 381.681562 93.912 
L 412.162324 93.912 
" clip-path="url(#p7cb10dbba8)" style="fill: none; stroke: #000000; stroke-width: 2; stroke-linecap: round"/>
   </g>
   <g id="line2d_17">
    <path d="M 225.2008 93.912 
L 225.2008 66.912 
L 225.2008 39.912 
" clip-path="url(#p7cb10dbba8)" style="fill: none; stroke: #000000; stroke-width: 2; stroke-linecap: round"/>
   </g>
   <g id="line2d_18">
    <path d="M 225.2008 39.912 
L 252.2008 39.912 
L 279.2008 39.912 
" clip-path="url(#p7cb10dbba8)" style="fill: none; stroke: #000000; stroke-width: 2; stroke-linecap: round"/>
   </g>
   <g id="line2d_19">
    <path d="M 279.2008 39.912 
L 297.2008 39.912 
L 300.2008 30.912 
L 306.2008 48.912 
L 312.2008 30.912 
L 318.2008 48.912 
L 324.2008 30.912 
L 330.2008 48.912 
L 333.2008 39.912 
L 351.2008 39.912 
" clip-path="url(#p7cb10dbba8)" style="fill: none; stroke: #000000; stroke-width: 2; stroke-linecap: round"/>
   </g>
   <g id="line2d_20">
    <path d="M 306.2008 57.912 
L 321.183581 25.449308 
" clip-path="url(#p7cb10dbba8)" style="fill: none; stroke: #000000; stroke-width: 2; stroke-linecap: round"/>
   </g>
   <g id="patch_3">
    <path d="M 318.568658 24.24242 
L 324.2008 18.912 
L 323.798504 26.656195 
z
" clip-path="url(#p7cb10dbba8)"/>
   </g>
   <g id="line2d_21">
    <path d="M 351.2008 39.912 
L 381.681562 39.912 
L 412.162324 39.912 
" clip-path="url(#p7cb10dbba8)" style="fill: none; stroke: #000000; stroke-width: 2; stroke-linecap: round"/>
   </g>
   <g id="line2d_22">
    <path d="M 412.162324 39.912 
L 412.162324 97.602 
L 412.162324 155.292 
" clip-path="url(#p7cb10dbba8)" style="fill: none; stroke: #000000; stroke-width: 2; stroke-linecap: round"/>
   </g>
   <g id="line2d_23">
    <path d="M 36.2008 192.912 
L 49.7008 192.912 
L 63.2008 192.912 
" clip-path="url(#p7cb10dbba8)" style="fill: none; stroke: #000000; stroke-width: 2; stroke-linecap: round"/>
   </g>
   <g id="line2d_24">
    <path d="M 63.2008 192.912 
L 81.2008 192.912 
L 84.2008 183.912 
L 90.2008 201.912 
L 96.2008 183.912 
L 102.2008 201.912 
L 108.2008 183.912 
L 114.2008 201.912 
L 117.2008 192.912 
L 135.2008 192.912 
" clip-path="url(#p7cb10dbba8)" style="fill: none; stroke: #000000; stroke-width: 2; stroke-linecap: round"/>
   </g>
   <g id="line2d_25">
    <path d="M 135.2008 192.912 
L 167.9608 192.912 
M 167.9608 183.912 
L 167.9608 201.912 
M 174.4408 183.912 
L 174.4408 201.912 
M 174.4408 192.912 
L 207.2008 192.912 
" clip-path="url(#p7cb10dbba8)" style="fill: none; stroke: #000000; stroke-width: 2; stroke-linecap: round"/>
   </g>
   <g id="line2d_26">
    <path d="M 155.9608 201.912 
L 180.06233 185.040929 
" clip-path="url(#p7cb10dbba8)" style="fill: none; stroke: #000000; stroke-width: 2; stroke-linecap: round"/>
   </g>
   <g id="patch_4">
    <path d="M 177.997866 182.091694 
L 185.9608 180.912 
L 182.126795 187.990164 
z
" clip-path="url(#p7cb10dbba8)"/>
   </g>
   <g id="line2d_27">
    <path d="M 207.2008 192.912 
L 216.2008 192.912 
L 225.2008 192.912 
" clip-path="url(#p7cb10dbba8)" style="fill: none; stroke: #000000; stroke-width: 2; stroke-linecap: round"/>
   </g>
   <g id="line2d_28">
    <path d="M 225.2008 192.912 
L 252.2008 192.912 
L 279.2008 192.912 
" clip-path="url(#p7cb10dbba8)" style="fill: none; stroke: #000000; stroke-width: 2; stroke-linecap: round"/>
   </g>
   <g id="line2d_29">
    <path d="M 331.162324 185.532 
L 371.662324 185.532 
L 412.162324 185.532 
" clip-path="url(#p7cb10dbba8)" style="fill: none; stroke: #000000; stroke-width: 2; stroke-linecap: round"/>
   </g>
   <g id="line2d_30">
    <path d="M 412.162324 185.532 
L 439.162324 185.532 
L 466.162324 185.532 
" clip-path="url(#p7cb10dbba8)" style="fill: none; stroke: #000000; stroke-width: 2; stroke-linecap: round"/>
   </g>
   <g id="line2d_31">
    <path d="M 225.2008 192.912 
L 225.2008 219.912 
L 225.2008 246.912 
" clip-path="url(#p7cb10dbba8)" style="fill: none; stroke: #000000; stroke-width: 2; stroke-linecap: round"/>
   </g>
   <g id="line2d_32">
    <path d="M 225.2008 246.912 
L 252.2008 246.912 
L 279.2008 246.912 
" clip-path="url(#p7cb10dbba8)" style="fill: none; stroke: #000000; stroke-width: 2; stroke-linecap: round"/>
   </g>
   <g id="line2d_33">
    <path d="M 279.2008 246.912 
L 311.9608 246.912 
M 311.9608 237.912 
L 311.9608 255.912 
M 318.4408 237.912 
L 318.4408 255.912 
M 318.4408 246.912 
L 351.2008 246.912 
" clip-path="url(#p7cb10dbba8)" style="fill: none; stroke: #000000; stroke-width: 2; stroke-linecap: round"/>
   </g>
   <g id="line2d_34">
    <path d="M 351.2008 246.912 
L 381.681562 246.912 
L 412.162324 246.912 
" clip-path="url(#p7cb10dbba8)" style="fill: none; stroke: #000000; stroke-width: 2; stroke-linecap: round"/>
   </g>
   <g id="line2d_35">
    <path d="M 225.2008 246.912 
L 225.2008 273.912 
L 225.2008 300.912 
" clip-path="url(#p7cb10dbba8)" style="fill: none; stroke: #000000; stroke-width: 2; stroke-linecap: round"/>
   </g>
   <g id="line2d_36">
    <path d="M 225.2008 300.912 
L 252.2008 300.912 
L 279.2008 300.912 
" clip-path="url(#p7cb10dbba8)" style="fill: none; stroke: #000000; stroke-width: 2; stroke-linecap: round"/>
   </g>
   <g id="line2d_37">
    <path d="M 279.2008 300.912 
L 297.2008 300.912 
L 300.2008 291.912 
L 306.2008 309.912 
L 312.2008 291.912 
L 318.2008 309.912 
L 324.2008 291.912 
L 330.2008 309.912 
L 333.2008 300.912 
L 351.2008 300.912 
" clip-path="url(#p7cb10dbba8)" style="fill: none; stroke: #000000; stroke-width: 2; stroke-linecap: round"/>
   </g>
   <g id="line2d_38">
    <path d="M 306.2008 318.912 
L 321.183581 286.449308 
" clip-path="url(#p7cb10dbba8)" style="fill: none; stroke: #000000; stroke-width: 2; stroke-linecap: round"/>
   </g>
   <g id="patch_5">
    <path d="M 318.568658 285.24242 
L 324.2008 279.912 
L 323.798504 287.656195 
z
" clip-path="url(#p7cb10dbba8)"/>
   </g>
   <g id="line2d_39">
    <path d="M 351.2008 300.912 
L 381.681562 300.912 
L 412.162324 300.912 
" clip-path="url(#p7cb10dbba8)" style="fill: none; stroke: #000000; stroke-width: 2; stroke-linecap: round"/>
   </g>
   <g id="line2d_40">
    <path d="M 412.162324 300.912 
L 412.162324 243.222 
L 412.162324 185.532 
" clip-path="url(#p7cb10dbba8)" style="fill: none; stroke: #000000; stroke-width: 2; stroke-linecap: round"/>
   </g>
   <g id="text_1">
    <!-- $R_1$ -->
    <g transform="translate(90.471199 132.212524) scale(0.16 -0.16)">
     <defs>
      <path id="CMMI12-52" d="M 2355 3924 
C 2413 4160 2438 4160 2688 4160 
L 3149 4160 
C 3699 4160 4109 3995 4109 3499 
C 4109 3175 3942 2240 2656 2240 
L 1933 2240 
L 2355 3924 
z
M 3245 2169 
C 4038 2341 4659 2851 4659 3398 
C 4659 3894 4154 4352 3264 4352 
L 1530 4352 
C 1402 4352 1344 4352 1344 4226 
C 1344 4160 1389 4160 1510 4160 
C 1894 4160 1894 4112 1894 4045 
C 1894 4033 1894 3994 1869 3899 
L 1005 479 
C 947 256 934 192 493 192 
C 346 192 301 192 301 71 
C 301 7 371 7 390 7 
C 506 7 640 7 762 7 
L 1517 7 
C 1632 7 1766 7 1882 7 
C 1933 7 2003 7 2003 128 
C 2003 192 1946 192 1850 192 
C 1459 192 1459 243 1459 306 
C 1459 313 1459 357 1472 407 
L 1901 2112 
L 2669 2112 
C 3277 2112 3392 1731 3392 1522 
C 3392 1427 3328 1179 3283 1014 
C 3213 723 3194 652 3194 532 
C 3194 82 3565 -128 3994 -128 
C 4512 -128 4736 501 4736 591 
C 4736 635 4704 654 4666 654 
C 4614 654 4602 616 4589 565 
C 4435 114 4173 0 4013 0 
C 3853 0 3750 70 3750 356 
C 3750 509 3827 1088 3834 1120 
C 3866 1355 3866 1380 3866 1432 
C 3866 1896 3488 2093 3245 2169 
z
" transform="scale(0.015625)"/>
      <path id="CMR17-31" d="M 1702 4058 
C 1702 4192 1696 4192 1606 4192 
C 1357 3916 979 3827 621 3827 
C 602 3827 570 3827 563 3808 
C 557 3795 557 3782 557 3648 
C 755 3648 1088 3686 1344 3839 
L 1344 461 
C 1344 236 1331 160 781 160 
L 589 160 
L 589 0 
C 896 0 1216 0 1523 0 
C 1830 0 2150 0 2458 0 
L 2458 160 
L 2266 160 
C 1715 160 1702 230 1702 458 
L 1702 4058 
z
" transform="scale(0.015625)"/>
     </defs>
     <use xlink:href="#CMMI12-52" transform="scale(0.996264)"/>
     <use xlink:href="#CMR17-31" transform="translate(74.250826 -14.943915) scale(0.697382)"/>
    </g>
   </g>
   <g id="text_2">
    <!-- $C_1$ -->
    <g transform="translate(162.827901 131.912524) scale(0.16 -0.16)">
     <defs>
      <path id="CMMI12-43" d="M 4781 4423 
C 4781 4480 4736 4480 4723 4480 
C 4710 4480 4685 4480 4634 4416 
L 4192 3882 
C 3968 4264 3616 4480 3136 4480 
C 1754 4480 320 3088 320 1595 
C 320 533 1069 -128 2003 -128 
C 2515 -128 2963 88 3334 400 
C 3891 863 4058 1481 4058 1531 
C 4058 1588 4006 1588 3987 1588 
C 3930 1588 3923 1550 3910 1524 
C 3616 534 2752 57 2112 57 
C 1434 57 845 489 845 1391 
C 845 1595 909 2700 1632 3532 
C 1984 3939 2586 4295 3194 4295 
C 3898 4295 4211 3717 4211 3068 
C 4211 2903 4192 2764 4192 2738 
C 4192 2681 4256 2681 4275 2681 
C 4346 2681 4352 2687 4378 2801 
L 4781 4423 
z
" transform="scale(0.015625)"/>
     </defs>
     <use xlink:href="#CMMI12-43" transform="scale(0.996264)"/>
     <use xlink:href="#CMR17-31" transform="translate(69.792037 -14.943915) scale(0.697382)"/>
    </g>
   </g>
   <g id="patch_6">
    <path d="M 225.2008 150.612 
C 225.916848 150.612 226.603666 150.327511 227.109988 149.821188 
C 227.616311 149.314866 227.9008 148.628048 227.9008 147.912 
C 227.9008 147.195952 227.616311 146.509134 227.109988 146.002812 
C 226.603666 145.496489 225.916848 145.212 225.2008 145.212 
C 224.484752 145.212 223.797934 145.496489 223.291612 146.002812 
C 222.785289 146.509134 222.5008 147.195952 222.5008 147.912 
C 222.5008 148.628048 222.785289 149.314866 223.291612 149.821188 
C 223.797934 150.327511 224.484752 150.612 225.2008 150.612 
z
" clip-path="url(#p7cb10dbba8)" style="stroke: #000000; stroke-width: 2; stroke-linejoin: miter"/>
   </g>
   <g id="patch_7">
    <path d="M 412.162324 157.992 
C 412.878373 157.992 413.56519 157.707511 414.071513 157.201188 
C 414.577835 156.694866 414.862324 156.008048 414.862324 155.292 
C 414.862324 154.575952 414.577835 153.889134 414.071513 153.382812 
C 413.56519 152.876489 412.878373 152.592 412.162324 152.592 
C 411.446276 152.592 410.759459 152.876489 410.253136 153.382812 
C 409.746813 153.889134 409.462324 154.575952 409.462324 155.292 
C 409.462324 156.008048 409.746813 156.694866 410.253136 157.201188 
C 410.759459 157.707511 411.446276 157.992 412.162324 157.992 
z
" clip-path="url(#p7cb10dbba8)" style="stroke: #000000; stroke-width: 2; stroke-linejoin: miter"/>
   </g>
   <g id="patch_8">
    <path d="M 225.2008 96.612 
C 225.916848 96.612 226.603666 96.327511 227.109988 95.821188 
C 227.616311 95.314866 227.9008 94.628048 227.9008 93.912 
C 227.9008 93.195952 227.616311 92.509134 227.109988 92.002812 
C 226.603666 91.496489 225.916848 91.212 225.2008 91.212 
C 224.484752 91.212 223.797934 91.496489 223.291612 92.002812 
C 222.785289 92.509134 222.5008 93.195952 222.5008 93.912 
C 222.5008 94.628048 222.785289 95.314866 223.291612 95.821188 
C 223.797934 96.327511 224.484752 96.612 225.2008 96.612 
z
" clip-path="url(#p7cb10dbba8)" style="stroke: #000000; stroke-width: 2; stroke-linejoin: miter"/>
   </g>
   <g id="text_3">
    <!-- $C_2$ -->
    <g transform="translate(306.827901 78.212524) scale(0.16 -0.16)">
     <defs>
      <path id="CMR17-32" d="M 2669 989 
L 2554 989 
C 2490 536 2438 459 2413 420 
C 2381 369 1920 369 1830 369 
L 602 369 
C 832 619 1280 1072 1824 1597 
C 2214 1967 2669 2402 2669 3035 
C 2669 3790 2067 4224 1395 4224 
C 691 4224 262 3604 262 3030 
C 262 2780 448 2748 525 2748 
C 589 2748 781 2787 781 3010 
C 781 3207 614 3264 525 3264 
C 486 3264 448 3258 422 3245 
C 544 3790 915 4058 1306 4058 
C 1862 4058 2227 3617 2227 3035 
C 2227 2479 1901 2000 1536 1584 
L 262 146 
L 262 0 
L 2515 0 
L 2669 989 
z
" transform="scale(0.015625)"/>
     </defs>
     <use xlink:href="#CMMI12-43" transform="scale(0.996264)"/>
     <use xlink:href="#CMR17-32" transform="translate(69.792037 -14.943915) scale(0.697382)"/>
    </g>
   </g>
   <g id="patch_9">
    <path d="M 412.162324 96.612 
C 412.878373 96.612 413.56519 96.327511 414.071513 95.821188 
C 414.577835 95.314866 414.862324 94.628048 414.862324 93.912 
C 414.862324 93.195952 414.577835 92.509134 414.071513 92.002812 
C 413.56519 91.496489 412.878373 91.212 412.162324 91.212 
C 411.446276 91.212 410.759459 91.496489 410.253136 92.002812 
C 409.746813 92.509134 409.462324 93.195952 409.462324 93.912 
C 409.462324 94.628048 409.746813 95.314866 410.253136 95.821188 
C 410.759459 96.327511 411.446276 96.612 412.162324 96.612 
z
" clip-path="url(#p7cb10dbba8)" style="stroke: #000000; stroke-width: 2; stroke-linejoin: miter"/>
   </g>
   <g id="text_4">
    <!-- $R_2$ -->
    <g transform="translate(306.471199 15.452524) scale(0.16 -0.16)">
     <use xlink:href="#CMMI12-52" transform="scale(0.996264)"/>
     <use xlink:href="#CMR17-32" transform="translate(74.250826 -14.943915) scale(0.697382)"/>
    </g>
   </g>
   <g id="text_5">
    <!-- $R_1$ -->
    <g transform="translate(90.471199 177.212524) scale(0.16 -0.16)">
     <use xlink:href="#CMMI12-52" transform="scale(0.996264)"/>
     <use xlink:href="#CMR17-31" transform="translate(74.250826 -14.943915) scale(0.697382)"/>
    </g>
   </g>
   <g id="text_6">
    <!-- $C_1$ -->
    <g transform="translate(162.827901 176.912524) scale(0.16 -0.16)">
     <use xlink:href="#CMMI12-43" transform="scale(0.996264)"/>
     <use xlink:href="#CMR17-31" transform="translate(69.792037 -14.943915) scale(0.697382)"/>
    </g>
   </g>
   <g id="patch_10">
    <path d="M 225.2008 195.612 
C 225.916848 195.612 226.603666 195.327511 227.109988 194.821188 
C 227.616311 194.314866 227.9008 193.628048 227.9008 192.912 
C 227.9008 192.195952 227.616311 191.509134 227.109988 191.002812 
C 226.603666 190.496489 225.916848 190.212 225.2008 190.212 
C 224.484752 190.212 223.797934 190.496489 223.291612 191.002812 
C 222.785289 191.509134 222.5008 192.195952 222.5008 192.912 
C 222.5008 193.628048 222.785289 194.314866 223.291612 194.821188 
C 223.797934 195.327511 224.484752 195.612 225.2008 195.612 
z
" clip-path="url(#p7cb10dbba8)" style="stroke: #000000; stroke-width: 2; stroke-linejoin: miter"/>
   </g>
   <g id="patch_11">
    <path d="M 412.162324 188.232 
C 412.878373 188.232 413.56519 187.947511 414.071513 187.441188 
C 414.577835 186.934866 414.862324 186.248048 414.862324 185.532 
C 414.862324 184.815952 414.577835 184.129134 414.071513 183.622812 
C 413.56519 183.116489 412.878373 182.832 412.162324 182.832 
C 411.446276 182.832 410.759459 183.116489 410.253136 183.622812 
C 409.746813 184.129134 409.462324 184.815952 409.462324 185.532 
C 409.462324 186.248048 409.746813 186.934866 410.253136 187.441188 
C 410.759459 187.947511 411.446276 188.232 412.162324 188.232 
z
" clip-path="url(#p7cb10dbba8)" style="stroke: #000000; stroke-width: 2; stroke-linejoin: miter"/>
   </g>
   <g id="patch_12">
    <path d="M 225.2008 249.612 
C 225.916848 249.612 226.603666 249.327511 227.109988 248.821188 
C 227.616311 248.314866 227.9008 247.628048 227.9008 246.912 
C 227.9008 246.195952 227.616311 245.509134 227.109988 245.002812 
C 226.603666 244.496489 225.916848 244.212 225.2008 244.212 
C 224.484752 244.212 223.797934 244.496489 223.291612 245.002812 
C 222.785289 245.509134 222.5008 246.195952 222.5008 246.912 
C 222.5008 247.628048 222.785289 248.314866 223.291612 248.821188 
C 223.797934 249.327511 224.484752 249.612 225.2008 249.612 
z
" clip-path="url(#p7cb10dbba8)" style="stroke: #000000; stroke-width: 2; stroke-linejoin: miter"/>
   </g>
   <g id="text_7">
    <!-- $C_2$ -->
    <g transform="translate(306.827901 231.212524) scale(0.16 -0.16)">
     <use xlink:href="#CMMI12-43" transform="scale(0.996264)"/>
     <use xlink:href="#CMR17-32" transform="translate(69.792037 -14.943915) scale(0.697382)"/>
    </g>
   </g>
   <g id="patch_13">
    <path d="M 412.162324 249.612 
C 412.878373 249.612 413.56519 249.327511 414.071513 248.821188 
C 414.577835 248.314866 414.862324 247.628048 414.862324 246.912 
C 414.862324 246.195952 414.577835 245.509134 414.071513 245.002812 
C 413.56519 244.496489 412.878373 244.212 412.162324 244.212 
C 411.446276 244.212 410.759459 244.496489 410.253136 245.002812 
C 409.746813 245.509134 409.462324 246.195952 409.462324 246.912 
C 409.462324 247.628048 409.746813 248.314866 410.253136 248.821188 
C 410.759459 249.327511 411.446276 249.612 412.162324 249.612 
z
" clip-path="url(#p7cb10dbba8)" style="stroke: #000000; stroke-width: 2; stroke-linejoin: miter"/>
   </g>
   <g id="text_8">
    <!-- $R_2$ -->
    <g transform="translate(306.471199 276.452524) scale(0.16 -0.16)">
     <use xlink:href="#CMMI12-52" transform="scale(0.996264)"/>
     <use xlink:href="#CMR17-32" transform="translate(74.250826 -14.943915) scale(0.697382)"/>
    </g>
   </g>
   <g id="patch_14">
    <path d="M 36.2008 150.612 
C 36.916848 150.612 37.603666 150.327511 38.109988 149.821188 
C 38.616311 149.314866 38.9008 148.628048 38.9008 147.912 
C 38.9008 147.195952 38.616311 146.509134 38.109988 146.002812 
C 37.603666 145.496489 36.916848 145.212 36.2008 145.212 
C 35.484752 145.212 34.797934 145.496489 34.291612 146.002812 
C 33.785289 146.509134 33.5008 147.195952 33.5008 147.912 
C 33.5008 148.628048 33.785289 149.314866 34.291612 149.821188 
C 34.797934 150.327511 35.484752 150.612 36.2008 150.612 
z
" clip-path="url(#p7cb10dbba8)" style="fill: #ffffff; stroke: #000000; stroke-width: 2; stroke-linejoin: miter"/>
   </g>
   <g id="text_9">
    <!-- $V_\mathrm{in,p}$ -->
    <g transform="translate(2.204779 151.077916) scale(0.16 -0.16)">
     <defs>
      <path id="CMMI12-56" d="M 3962 3640 
C 4179 3984 4378 4136 4704 4162 
C 4768 4168 4819 4168 4819 4282 
C 4819 4308 4806 4346 4749 4346 
C 4634 4346 4358 4346 4243 4346 
C 4058 4346 3866 4346 3686 4346 
C 3635 4346 3571 4346 3571 4226 
C 3571 4168 3629 4162 3654 4162 
C 3891 4143 3917 4029 3917 3952 
C 3917 3857 3827 3710 3821 3704 
L 1811 540 
L 1363 3969 
C 1363 4160 1696 4160 1766 4160 
C 1862 4160 1920 4160 1920 4282 
C 1920 4346 1850 4346 1830 4346 
C 1722 4346 1594 4346 1485 4346 
L 1126 4346 
C 659 4346 467 4346 461 4346 
C 422 4346 346 4346 346 4230 
C 346 4160 390 4160 493 4160 
C 819 4160 838 4102 858 3944 
L 1370 24 
C 1389 -109 1389 -128 1478 -128 
C 1555 -128 1587 -109 1651 -8 
L 3962 3640 
z
" transform="scale(0.015625)"/>
      <path id="CMR17-69" d="M 992 3909 
C 992 4049 877 4170 730 4170 
C 589 4170 467 4056 467 3909 
C 467 3769 582 3648 730 3648 
C 870 3648 992 3763 992 3909 
z
M 243 2706 
L 243 2541 
C 602 2541 653 2502 653 2197 
L 653 427 
C 653 184 627 153 218 153 
L 218 -13 
C 371 0 646 0 806 0 
C 960 0 1222 0 1370 -13 
L 1370 153 
C 992 153 979 191 979 420 
L 979 2776 
L 243 2706 
z
" transform="scale(0.015625)"/>
      <path id="CMR17-6e" d="M 2656 1933 
C 2656 2259 2592 2790 1837 2790 
C 1331 2790 1069 2400 973 2144 
L 966 2144 
L 966 2790 
L 211 2720 
L 211 2554 
C 589 2554 646 2515 646 2208 
L 646 428 
C 646 184 621 153 211 153 
L 211 -13 
C 365 0 646 0 813 0 
C 979 0 1267 0 1421 -13 
L 1421 153 
C 1011 153 986 178 986 428 
L 986 1658 
C 986 2247 1344 2688 1792 2688 
C 2266 2688 2317 2266 2317 1958 
L 2317 428 
C 2317 184 2291 153 1882 153 
L 1882 -13 
C 2035 0 2317 0 2483 0 
C 2650 0 2938 0 3091 -13 
L 3091 153 
C 2682 153 2656 178 2656 428 
L 2656 1933 
z
" transform="scale(0.015625)"/>
      <path id="CMMI12-3b" d="M 1248 -31 
C 1248 343 1126 619 864 619 
C 659 619 557 453 557 313 
C 557 172 653 0 870 0 
C 954 0 1024 26 1082 83 
C 1094 96 1101 96 1107 96 
C 1120 96 1120 5 1120 -27 
C 1120 -240 1082 -659 710 -1080 
C 640 -1157 640 -1170 640 -1183 
C 640 -1216 672 -1248 704 -1248 
C 755 -1248 1248 -771 1248 -31 
z
" transform="scale(0.015625)"/>
      <path id="CMR17-70" d="M 1408 -1063 
C 998 -1063 973 -1037 973 -789 
L 973 402 
C 1158 134 1427 -38 1766 -38 
C 2406 -38 3053 523 3053 1388 
C 3053 2191 2496 2802 1837 2802 
C 1453 2802 1139 2592 960 2338 
L 960 2802 
L 198 2732 
L 198 2567 
C 576 2567 634 2528 634 2223 
L 634 -789 
C 634 -1031 608 -1063 198 -1063 
L 198 -1228 
C 352 -1216 634 -1216 800 -1216 
C 966 -1216 1254 -1216 1408 -1228 
L 1408 -1063 
z
M 973 2012 
C 973 2102 973 2235 1222 2471 
C 1254 2497 1472 2688 1792 2688 
C 2259 2688 2643 2108 2643 1382 
C 2643 656 2234 64 1728 64 
C 1498 64 1248 172 1056 472 
C 973 612 973 650 973 752 
L 973 2012 
z
" transform="scale(0.015625)"/>
     </defs>
     <use xlink:href="#CMMI12-56" transform="scale(0.996264)"/>
     <use xlink:href="#CMR17-69" transform="translate(56.869579 -14.943915) scale(0.697382)"/>
     <use xlink:href="#CMR17-6e" transform="translate(74.279238 -14.943915) scale(0.697382)"/>
     <use xlink:href="#CMMI12-3b" transform="translate(109.905846 -14.943915) scale(0.697382)"/>
     <use xlink:href="#CMR17-70" transform="translate(128.873779 -14.943915) scale(0.697382)"/>
    </g>
   </g>
   <g id="patch_15">
    <path d="M 331.162324 157.992 
C 331.878373 157.992 332.56519 157.707511 333.071513 157.201188 
C 333.577835 156.694866 333.862324 156.008048 333.862324 155.292 
C 333.862324 154.575952 333.577835 153.889134 333.071513 153.382812 
C 332.56519 152.876489 331.878373 152.592 331.162324 152.592 
C 330.446276 152.592 329.759459 152.876489 329.253136 153.382812 
C 328.746813 153.889134 328.462324 154.575952 328.462324 155.292 
C 328.462324 156.008048 328.746813 156.694866 329.253136 157.201188 
C 329.759459 157.707511 330.446276 157.992 331.162324 157.992 
z
" clip-path="url(#p7cb10dbba8)" style="fill: #ffffff; stroke: #000000; stroke-width: 2; stroke-linejoin: miter"/>
   </g>
   <g id="patch_16">
    <path d="M 466.162324 157.992 
C 466.878373 157.992 467.56519 157.707511 468.071513 157.201188 
C 468.577835 156.694866 468.862324 156.008048 468.862324 155.292 
C 468.862324 154.575952 468.577835 153.889134 468.071513 153.382812 
C 467.56519 152.876489 466.878373 152.592 466.162324 152.592 
C 465.446276 152.592 464.759459 152.876489 464.253136 153.382812 
C 463.746813 153.889134 463.462324 154.575952 463.462324 155.292 
C 463.462324 156.008048 463.746813 156.694866 464.253136 157.201188 
C 464.759459 157.707511 465.446276 157.992 466.162324 157.992 
z
" clip-path="url(#p7cb10dbba8)" style="fill: #ffffff; stroke: #000000; stroke-width: 2; stroke-linejoin: miter"/>
   </g>
   <g id="text_10">
    <!-- $V_\mathrm{out,n}$ -->
    <g transform="translate(472.462324 158.457916) scale(0.16 -0.16)">
     <defs>
      <path id="CMR17-6f" d="M 2758 1356 
C 2758 2176 2163 2816 1466 2816 
C 768 2816 173 2176 173 1356 
C 173 551 768 -64 1466 -64 
C 2163 -64 2758 551 2758 1356 
z
M 1466 51 
C 1165 51 909 230 762 480 
C 602 767 582 1126 582 1408 
C 582 1677 595 2010 762 2298 
C 890 2509 1139 2714 1466 2714 
C 1754 2714 1997 2554 2150 2330 
C 2349 2029 2349 1607 2349 1408 
C 2349 1158 2336 775 2163 467 
C 1984 173 1709 51 1466 51 
z
" transform="scale(0.015625)"/>
      <path id="CMR17-75" d="M 1882 2693 
L 1882 2528 
C 2259 2528 2317 2489 2317 2186 
L 2317 1032 
C 2317 500 2029 38 1555 38 
C 1030 38 986 348 986 678 
L 986 2763 
L 211 2693 
L 211 2528 
C 467 2528 640 2528 646 2274 
L 646 1058 
C 646 633 646 361 813 183 
C 896 101 1056 -64 1517 -64 
C 2061 -64 2272 377 2323 506 
L 2330 506 
L 2330 -63 
L 3091 -63 
L 3091 128 
C 2714 128 2656 166 2656 473 
L 2656 2763 
L 1882 2693 
z
" transform="scale(0.015625)"/>
      <path id="CMR17-74" d="M 966 2560 
L 1862 2560 
L 1862 2725 
L 966 2725 
L 966 3904 
L 851 3904 
C 838 3245 614 2668 70 2668 
L 70 2560 
L 627 2560 
L 627 771 
C 627 650 627 -64 1370 -64 
C 1747 -64 1965 306 1965 777 
L 1965 1140 
L 1850 1140 
L 1850 783 
C 1850 344 1677 51 1408 51 
C 1222 51 966 178 966 758 
L 966 2560 
z
" transform="scale(0.015625)"/>
     </defs>
     <use xlink:href="#CMMI12-56" transform="scale(0.996264)"/>
     <use xlink:href="#CMR17-6f" transform="translate(56.869579 -14.943915) scale(0.697382)"/>
     <use xlink:href="#CMR17-75" transform="translate(88.852761 -14.943915) scale(0.697382)"/>
     <use xlink:href="#CMR17-74" transform="translate(124.479369 -14.943915) scale(0.697382)"/>
     <use xlink:href="#CMMI12-3b" transform="translate(149.17579 -14.943915) scale(0.697382)"/>
     <use xlink:href="#CMR17-6e" transform="translate(168.143723 -14.943915) scale(0.697382)"/>
    </g>
   </g>
   <g id="patch_17">
    <path d="M 36.2008 195.612 
C 36.916848 195.612 37.603666 195.327511 38.109988 194.821188 
C 38.616311 194.314866 38.9008 193.628048 38.9008 192.912 
C 38.9008 192.195952 38.616311 191.509134 38.109988 191.002812 
C 37.603666 190.496489 36.916848 190.212 36.2008 190.212 
C 35.484752 190.212 34.797934 190.496489 34.291612 191.002812 
C 33.785289 191.509134 33.5008 192.195952 33.5008 192.912 
C 33.5008 193.628048 33.785289 194.314866 34.291612 194.821188 
C 34.797934 195.327511 35.484752 195.612 36.2008 195.612 
z
" clip-path="url(#p7cb10dbba8)" style="fill: #ffffff; stroke: #000000; stroke-width: 2; stroke-linejoin: miter"/>
   </g>
   <g id="text_11">
    <!-- $V_\mathrm{in,n}$ -->
    <g transform="translate(2.204779 196.077916) scale(0.16 -0.16)">
     <use xlink:href="#CMMI12-56" transform="scale(0.996264)"/>
     <use xlink:href="#CMR17-69" transform="translate(56.869579 -14.943915) scale(0.697382)"/>
     <use xlink:href="#CMR17-6e" transform="translate(74.279238 -14.943915) scale(0.697382)"/>
     <use xlink:href="#CMMI12-3b" transform="translate(109.905846 -14.943915) scale(0.697382)"/>
     <use xlink:href="#CMR17-6e" transform="translate(128.873779 -14.943915) scale(0.697382)"/>
    </g>
   </g>
   <g id="patch_18">
    <path d="M 466.162324 188.232 
C 466.878373 188.232 467.56519 187.947511 468.071513 187.441188 
C 468.577835 186.934866 468.862324 186.248048 468.862324 185.532 
C 468.862324 184.815952 468.577835 184.129134 468.071513 183.622812 
C 467.56519 183.116489 466.878373 182.832 466.162324 182.832 
C 465.446276 182.832 464.759459 183.116489 464.253136 183.622812 
C 463.746813 184.129134 463.462324 184.815952 463.462324 185.532 
C 463.462324 186.248048 463.746813 186.934866 464.253136 187.441188 
C 464.759459 187.947511 465.446276 188.232 466.162324 188.232 
z
" clip-path="url(#p7cb10dbba8)" style="fill: #ffffff; stroke: #000000; stroke-width: 2; stroke-linejoin: miter"/>
   </g>
   <g id="text_12">
    <!-- $V_\mathrm{out,p}$ -->
    <g transform="translate(472.462324 188.697916) scale(0.16 -0.16)">
     <use xlink:href="#CMMI12-56" transform="scale(0.996264)"/>
     <use xlink:href="#CMR17-6f" transform="translate(56.869579 -14.943915) scale(0.697382)"/>
     <use xlink:href="#CMR17-75" transform="translate(88.852761 -14.943915) scale(0.697382)"/>
     <use xlink:href="#CMR17-74" transform="translate(124.479369 -14.943915) scale(0.697382)"/>
     <use xlink:href="#CMMI12-3b" transform="translate(149.17579 -14.943915) scale(0.697382)"/>
     <use xlink:href="#CMR17-70" transform="translate(168.143723 -14.943915) scale(0.697382)"/>
    </g>
   </g>
  </g>
 </g>
 <defs>
  <clipPath id="p7cb10dbba8">
   <rect x="0" y="0" width="509.206324" height="329.352"/>
  </clipPath>
 </defs>
</svg>
