M48
;GenerationSoftware,Autodesk,EAGLE,9.7.0*%
;CreationDate,2024-08-14T21:11:51Z*%
FMAT,2
ICI,OFF
METRIC,TZ,000.000
T8C0.350
T7C0.508
T6C0.800
T5C0.813
T4C0.914
T3C1.016
T2C1.778
T1C3.000
%
G90
M71
T1
X3500Y3500
X96500Y3500
X3500Y76500
X96500Y76500
T2
X68263Y19685
X83503Y19685
X68263Y60325
X83503Y60325
T3
X2781Y72111
X2781Y67589
X9284Y72111
X9284Y67589
X2781Y51156
X9284Y46634
X9284Y51156
X2781Y46634
X9284Y53619
X9284Y58141
X2781Y53619
X2781Y58141
X2781Y65126
X2781Y60604
X9284Y65126
X9284Y60604
T4
X96520Y41275
X93980Y38735
X96520Y38735
X93980Y36195
X96520Y36195
X93980Y33655
X96520Y33655
X96520Y31115
X93980Y31115
X96520Y28575
X93980Y28575
X96520Y26035
X93980Y26035
X93980Y23495
X93980Y46355
X96520Y20955
X93980Y20955
X93980Y18415
X68580Y65405
X75248Y65405
X77788Y65405
X71120Y65405
X96520Y15875
X96520Y23495
X96520Y59055
X93980Y64135
X96520Y64135
X93980Y61595
X96520Y61595
X93980Y59055
X93980Y56515
X93980Y15875
X96520Y56515
X93980Y53975
X96520Y53975
X96520Y18415
X93980Y51435
X96520Y51435
X93980Y48895
X96520Y48895
X96520Y46355
X93980Y43815
X96520Y43815
X93980Y41275
T5
X11430Y34925
X11430Y32385
X3810Y37465
X11430Y40005
X3810Y40005
X3810Y34925
X3810Y32385
X11430Y37465
T6
X68263Y45085
X68263Y42545
X68263Y40005
X68263Y37465
X68263Y34925
X68263Y32385
X68263Y29845
X68263Y27305
X68263Y24765
X68263Y22225
X83503Y32385
X83503Y22225
X83503Y24765
X83503Y27305
X83503Y29845
X83503Y34925
X83503Y37465
X83503Y40005
X83503Y42545
X83503Y45085
X83503Y47625
X83503Y50165
X83503Y52705
X83503Y55245
X83503Y57785
X68263Y57785
X68263Y55245
X68263Y52705
X68263Y50165
X68263Y47625
T7
X59690Y31750
X59690Y33020
X59690Y21590
X59690Y22860
X59690Y24130
X59690Y25400
X59690Y26670
X59690Y15240
X59690Y16510
X59690Y17780
X59690Y19050
X59690Y20320
X34290Y59690
X34290Y60960
X34290Y62230
X59690Y46990
X34290Y63500
X34290Y64770
X59690Y59690
X59690Y60960
X59690Y62230
X59690Y63500
X59690Y64770
X34290Y53340
X34290Y54610
X34290Y55880
X34290Y57150
X34290Y58420
X34290Y48260
X34290Y49530
X34290Y50800
X34290Y52070
X34290Y40640
X34290Y41910
X34290Y43180
X34290Y44450
X34290Y45720
X34290Y34290
X34290Y35560
X59690Y40640
X34290Y36830
X34290Y38100
X34290Y39370
X34290Y27940
X34290Y29210
X34290Y30480
X34290Y31750
X34290Y33020
X34290Y21590
X34290Y22860
X34290Y24130
X34290Y25400
X34290Y26670
X34290Y15240
X34290Y16510
X34290Y17780
X34290Y19050
X34290Y20320
X59690Y53340
X59690Y54610
X59690Y55880
X59690Y57150
X59690Y58420
X34290Y46990
X59690Y48260
X59690Y49530
X59690Y50800
X59690Y52070
X59690Y41910
X59690Y43180
X59690Y44450
X59690Y45720
X59690Y34290
X59690Y35560
X59690Y36830
X59690Y38100
X59690Y39370
X59690Y27940
X59690Y29210
X59690Y30480
T8
X12382Y61912
X12382Y56832
X12382Y49847
X1587Y28575
X1587Y43815
X1587Y22860
X1587Y17780
X1587Y12700
X1587Y7620
X46672Y44767
X46672Y36513
X37148Y18733
X50165Y14287
X93027Y77788
X72708Y26987
X78423Y46355
X83820Y63182
X62389Y13494
X66199Y14764
X74930Y34925
X74930Y32385
X64770Y37783
X53657Y24130
X54927Y21273
X51117Y57467
X52705Y60007
X72708Y28575
X56197Y65087
X96520Y69215
X97155Y70803
X64452Y48577
X73660Y53975
X70168Y42545
X74930Y40005
X62865Y46037
X75248Y52705
X66358Y40323
X71120Y37465
X73660Y43815
X12382Y68898
X76835Y26987
X72073Y55245
X78423Y50165
X96520Y10795
X97155Y9208
X75248Y23495
X50165Y16510
M30