<?xml version="1.0" encoding="utf-8" standalone="no"?>
<!DOCTYPE svg PUBLIC "-//W3C//DTD SVG 1.1//EN"
  "http://www.w3.org/Graphics/SVG/1.1/DTD/svg11.dtd">
<svg xmlns:xlink="http://www.w3.org/1999/xlink" width="453.6pt" height="338.4pt" viewBox="0 0 453.6 338.4" xmlns="http://www.w3.org/2000/svg" version="1.1">
 <metadata>
  <rdf:RDF xmlns:dc="http://purl.org/dc/elements/1.1/" xmlns:cc="http://creativecommons.org/ns#" xmlns:rdf="http://www.w3.org/1999/02/22-rdf-syntax-ns#">
   <cc:Work>
    <dc:type rdf:resource="http://purl.org/dc/dcmitype/StillImage"/>
    <dc:date>2025-05-27T15:56:26.231713</dc:date>
    <dc:format>image/svg+xml</dc:format>
    <dc:creator>
     <cc:Agent>
      <dc:title>Matplotlib v3.9.2, https://matplotlib.org/</dc:title>
     </cc:Agent>
    </dc:creator>
   </cc:Work>
  </rdf:RDF>
 </metadata>
 <defs>
  <style type="text/css">*{stroke-linejoin: round; stroke-linecap: butt}</style>
 </defs>
 <g id="figure_1">
  <g id="patch_1">
   <path d="M 0 338.4 
L 453.6 338.4 
L 453.6 0 
L 0 0 
z
" style="fill: #ffffff"/>
  </g>
  <g id="axes_1">
   <g id="patch_2">
    <path d="M 43.78125 300.84375 
L 438.448437 300.84375 
L 438.448437 22.318125 
L 43.78125 22.318125 
z
" style="fill: #ffffff"/>
   </g>
   <g id="matplotlib.axis_1">
    <g id="xtick_1">
     <g id="line2d_1">
      <path d="M 43.78125 300.84375 
L 43.78125 22.318125 
" clip-path="url(#p01c70489f9)" style="fill: none; stroke-dasharray: 2.96,1.28; stroke-dashoffset: 0; stroke: #b0b0b0; stroke-width: 0.8"/>
     </g>
     <g id="line2d_2">
      <defs>
       <path id="md3a50fef54" d="M 0 0 
L 0 3.5 
" style="stroke: #000000; stroke-width: 0.8"/>
      </defs>
      <g>
       <use xlink:href="#md3a50fef54" x="43.78125" y="300.84375" style="stroke: #000000; stroke-width: 0.8"/>
      </g>
     </g>
     <g id="text_1">
      <!-- 0.0 -->
      <g transform="translate(35.829688 315.442187) scale(0.1 -0.1)">
       <defs>
        <path id="DejaVuSans-30" d="M 2034 4250 
Q 1547 4250 1301 3770 
Q 1056 3291 1056 2328 
Q 1056 1369 1301 889 
Q 1547 409 2034 409 
Q 2525 409 2770 889 
Q 3016 1369 3016 2328 
Q 3016 3291 2770 3770 
Q 2525 4250 2034 4250 
z
M 2034 4750 
Q 2819 4750 3233 4129 
Q 3647 3509 3647 2328 
Q 3647 1150 3233 529 
Q 2819 -91 2034 -91 
Q 1250 -91 836 529 
Q 422 1150 422 2328 
Q 422 3509 836 4129 
Q 1250 4750 2034 4750 
z
" transform="scale(0.015625)"/>
        <path id="DejaVuSans-2e" d="M 684 794 
L 1344 794 
L 1344 0 
L 684 0 
L 684 794 
z
" transform="scale(0.015625)"/>
       </defs>
       <use xlink:href="#DejaVuSans-30"/>
       <use xlink:href="#DejaVuSans-2e" x="63.623047"/>
       <use xlink:href="#DejaVuSans-30" x="95.410156"/>
      </g>
     </g>
    </g>
    <g id="xtick_2">
     <g id="line2d_3">
      <path d="M 122.714687 300.84375 
L 122.714687 22.318125 
" clip-path="url(#p01c70489f9)" style="fill: none; stroke-dasharray: 2.96,1.28; stroke-dashoffset: 0; stroke: #b0b0b0; stroke-width: 0.8"/>
     </g>
     <g id="line2d_4">
      <g>
       <use xlink:href="#md3a50fef54" x="122.714687" y="300.84375" style="stroke: #000000; stroke-width: 0.8"/>
      </g>
     </g>
     <g id="text_2">
      <!-- 0.2 -->
      <g transform="translate(114.763125 315.442187) scale(0.1 -0.1)">
       <defs>
        <path id="DejaVuSans-32" d="M 1228 531 
L 3431 531 
L 3431 0 
L 469 0 
L 469 531 
Q 828 903 1448 1529 
Q 2069 2156 2228 2338 
Q 2531 2678 2651 2914 
Q 2772 3150 2772 3378 
Q 2772 3750 2511 3984 
Q 2250 4219 1831 4219 
Q 1534 4219 1204 4116 
Q 875 4013 500 3803 
L 500 4441 
Q 881 4594 1212 4672 
Q 1544 4750 1819 4750 
Q 2544 4750 2975 4387 
Q 3406 4025 3406 3419 
Q 3406 3131 3298 2873 
Q 3191 2616 2906 2266 
Q 2828 2175 2409 1742 
Q 1991 1309 1228 531 
z
" transform="scale(0.015625)"/>
       </defs>
       <use xlink:href="#DejaVuSans-30"/>
       <use xlink:href="#DejaVuSans-2e" x="63.623047"/>
       <use xlink:href="#DejaVuSans-32" x="95.410156"/>
      </g>
     </g>
    </g>
    <g id="xtick_3">
     <g id="line2d_5">
      <path d="M 201.648125 300.84375 
L 201.648125 22.318125 
" clip-path="url(#p01c70489f9)" style="fill: none; stroke-dasharray: 2.96,1.28; stroke-dashoffset: 0; stroke: #b0b0b0; stroke-width: 0.8"/>
     </g>
     <g id="line2d_6">
      <g>
       <use xlink:href="#md3a50fef54" x="201.648125" y="300.84375" style="stroke: #000000; stroke-width: 0.8"/>
      </g>
     </g>
     <g id="text_3">
      <!-- 0.4 -->
      <g transform="translate(193.696562 315.442187) scale(0.1 -0.1)">
       <defs>
        <path id="DejaVuSans-34" d="M 2419 4116 
L 825 1625 
L 2419 1625 
L 2419 4116 
z
M 2253 4666 
L 3047 4666 
L 3047 1625 
L 3713 1625 
L 3713 1100 
L 3047 1100 
L 3047 0 
L 2419 0 
L 2419 1100 
L 313 1100 
L 313 1709 
L 2253 4666 
z
" transform="scale(0.015625)"/>
       </defs>
       <use xlink:href="#DejaVuSans-30"/>
       <use xlink:href="#DejaVuSans-2e" x="63.623047"/>
       <use xlink:href="#DejaVuSans-34" x="95.410156"/>
      </g>
     </g>
    </g>
    <g id="xtick_4">
     <g id="line2d_7">
      <path d="M 280.581562 300.84375 
L 280.581562 22.318125 
" clip-path="url(#p01c70489f9)" style="fill: none; stroke-dasharray: 2.96,1.28; stroke-dashoffset: 0; stroke: #b0b0b0; stroke-width: 0.8"/>
     </g>
     <g id="line2d_8">
      <g>
       <use xlink:href="#md3a50fef54" x="280.581562" y="300.84375" style="stroke: #000000; stroke-width: 0.8"/>
      </g>
     </g>
     <g id="text_4">
      <!-- 0.6 -->
      <g transform="translate(272.63 315.442187) scale(0.1 -0.1)">
       <defs>
        <path id="DejaVuSans-36" d="M 2113 2584 
Q 1688 2584 1439 2293 
Q 1191 2003 1191 1497 
Q 1191 994 1439 701 
Q 1688 409 2113 409 
Q 2538 409 2786 701 
Q 3034 994 3034 1497 
Q 3034 2003 2786 2293 
Q 2538 2584 2113 2584 
z
M 3366 4563 
L 3366 3988 
Q 3128 4100 2886 4159 
Q 2644 4219 2406 4219 
Q 1781 4219 1451 3797 
Q 1122 3375 1075 2522 
Q 1259 2794 1537 2939 
Q 1816 3084 2150 3084 
Q 2853 3084 3261 2657 
Q 3669 2231 3669 1497 
Q 3669 778 3244 343 
Q 2819 -91 2113 -91 
Q 1303 -91 875 529 
Q 447 1150 447 2328 
Q 447 3434 972 4092 
Q 1497 4750 2381 4750 
Q 2619 4750 2861 4703 
Q 3103 4656 3366 4563 
z
" transform="scale(0.015625)"/>
       </defs>
       <use xlink:href="#DejaVuSans-30"/>
       <use xlink:href="#DejaVuSans-2e" x="63.623047"/>
       <use xlink:href="#DejaVuSans-36" x="95.410156"/>
      </g>
     </g>
    </g>
    <g id="xtick_5">
     <g id="line2d_9">
      <path d="M 359.515 300.84375 
L 359.515 22.318125 
" clip-path="url(#p01c70489f9)" style="fill: none; stroke-dasharray: 2.96,1.28; stroke-dashoffset: 0; stroke: #b0b0b0; stroke-width: 0.8"/>
     </g>
     <g id="line2d_10">
      <g>
       <use xlink:href="#md3a50fef54" x="359.515" y="300.84375" style="stroke: #000000; stroke-width: 0.8"/>
      </g>
     </g>
     <g id="text_5">
      <!-- 0.8 -->
      <g transform="translate(351.563437 315.442187) scale(0.1 -0.1)">
       <defs>
        <path id="DejaVuSans-38" d="M 2034 2216 
Q 1584 2216 1326 1975 
Q 1069 1734 1069 1313 
Q 1069 891 1326 650 
Q 1584 409 2034 409 
Q 2484 409 2743 651 
Q 3003 894 3003 1313 
Q 3003 1734 2745 1975 
Q 2488 2216 2034 2216 
z
M 1403 2484 
Q 997 2584 770 2862 
Q 544 3141 544 3541 
Q 544 4100 942 4425 
Q 1341 4750 2034 4750 
Q 2731 4750 3128 4425 
Q 3525 4100 3525 3541 
Q 3525 3141 3298 2862 
Q 3072 2584 2669 2484 
Q 3125 2378 3379 2068 
Q 3634 1759 3634 1313 
Q 3634 634 3220 271 
Q 2806 -91 2034 -91 
Q 1263 -91 848 271 
Q 434 634 434 1313 
Q 434 1759 690 2068 
Q 947 2378 1403 2484 
z
M 1172 3481 
Q 1172 3119 1398 2916 
Q 1625 2713 2034 2713 
Q 2441 2713 2670 2916 
Q 2900 3119 2900 3481 
Q 2900 3844 2670 4047 
Q 2441 4250 2034 4250 
Q 1625 4250 1398 4047 
Q 1172 3844 1172 3481 
z
" transform="scale(0.015625)"/>
       </defs>
       <use xlink:href="#DejaVuSans-30"/>
       <use xlink:href="#DejaVuSans-2e" x="63.623047"/>
       <use xlink:href="#DejaVuSans-38" x="95.410156"/>
      </g>
     </g>
    </g>
    <g id="xtick_6">
     <g id="line2d_11">
      <path d="M 438.448437 300.84375 
L 438.448437 22.318125 
" clip-path="url(#p01c70489f9)" style="fill: none; stroke-dasharray: 2.96,1.28; stroke-dashoffset: 0; stroke: #b0b0b0; stroke-width: 0.8"/>
     </g>
     <g id="line2d_12">
      <g>
       <use xlink:href="#md3a50fef54" x="438.448437" y="300.84375" style="stroke: #000000; stroke-width: 0.8"/>
      </g>
     </g>
     <g id="text_6">
      <!-- 1.0 -->
      <g transform="translate(430.496875 315.442187) scale(0.1 -0.1)">
       <defs>
        <path id="DejaVuSans-31" d="M 794 531 
L 1825 531 
L 1825 4091 
L 703 3866 
L 703 4441 
L 1819 4666 
L 2450 4666 
L 2450 531 
L 3481 531 
L 3481 0 
L 794 0 
L 794 531 
z
" transform="scale(0.015625)"/>
       </defs>
       <use xlink:href="#DejaVuSans-31"/>
       <use xlink:href="#DejaVuSans-2e" x="63.623047"/>
       <use xlink:href="#DejaVuSans-30" x="95.410156"/>
      </g>
     </g>
    </g>
    <g id="text_7">
     <!-- $t$ (ms) -->
     <g transform="translate(226.164844 329.120312) scale(0.1 -0.1)">
      <defs>
       <path id="DejaVuSans-Oblique-74" d="M 2706 3500 
L 2619 3053 
L 1472 3053 
L 1100 1153 
Q 1081 1047 1072 975 
Q 1063 903 1063 863 
Q 1063 663 1183 572 
Q 1303 481 1569 481 
L 2150 481 
L 2053 0 
L 1503 0 
Q 991 0 739 200 
Q 488 400 488 806 
Q 488 878 497 964 
Q 506 1050 525 1153 
L 897 3053 
L 409 3053 
L 500 3500 
L 978 3500 
L 1172 4494 
L 1747 4494 
L 1556 3500 
L 2706 3500 
z
" transform="scale(0.015625)"/>
       <path id="DejaVuSans-20" transform="scale(0.015625)"/>
       <path id="DejaVuSans-28" d="M 1984 4856 
Q 1566 4138 1362 3434 
Q 1159 2731 1159 2009 
Q 1159 1288 1364 580 
Q 1569 -128 1984 -844 
L 1484 -844 
Q 1016 -109 783 600 
Q 550 1309 550 2009 
Q 550 2706 781 3412 
Q 1013 4119 1484 4856 
L 1984 4856 
z
" transform="scale(0.015625)"/>
       <path id="DejaVuSans-6d" d="M 3328 2828 
Q 3544 3216 3844 3400 
Q 4144 3584 4550 3584 
Q 5097 3584 5394 3201 
Q 5691 2819 5691 2113 
L 5691 0 
L 5113 0 
L 5113 2094 
Q 5113 2597 4934 2840 
Q 4756 3084 4391 3084 
Q 3944 3084 3684 2787 
Q 3425 2491 3425 1978 
L 3425 0 
L 2847 0 
L 2847 2094 
Q 2847 2600 2669 2842 
Q 2491 3084 2119 3084 
Q 1678 3084 1418 2786 
Q 1159 2488 1159 1978 
L 1159 0 
L 581 0 
L 581 3500 
L 1159 3500 
L 1159 2956 
Q 1356 3278 1631 3431 
Q 1906 3584 2284 3584 
Q 2666 3584 2933 3390 
Q 3200 3197 3328 2828 
z
" transform="scale(0.015625)"/>
       <path id="DejaVuSans-73" d="M 2834 3397 
L 2834 2853 
Q 2591 2978 2328 3040 
Q 2066 3103 1784 3103 
Q 1356 3103 1142 2972 
Q 928 2841 928 2578 
Q 928 2378 1081 2264 
Q 1234 2150 1697 2047 
L 1894 2003 
Q 2506 1872 2764 1633 
Q 3022 1394 3022 966 
Q 3022 478 2636 193 
Q 2250 -91 1575 -91 
Q 1294 -91 989 -36 
Q 684 19 347 128 
L 347 722 
Q 666 556 975 473 
Q 1284 391 1588 391 
Q 1994 391 2212 530 
Q 2431 669 2431 922 
Q 2431 1156 2273 1281 
Q 2116 1406 1581 1522 
L 1381 1569 
Q 847 1681 609 1914 
Q 372 2147 372 2553 
Q 372 3047 722 3315 
Q 1072 3584 1716 3584 
Q 2034 3584 2315 3537 
Q 2597 3491 2834 3397 
z
" transform="scale(0.015625)"/>
       <path id="DejaVuSans-29" d="M 513 4856 
L 1013 4856 
Q 1481 4119 1714 3412 
Q 1947 2706 1947 2009 
Q 1947 1309 1714 600 
Q 1481 -109 1013 -844 
L 513 -844 
Q 928 -128 1133 580 
Q 1338 1288 1338 2009 
Q 1338 2731 1133 3434 
Q 928 4138 513 4856 
z
" transform="scale(0.015625)"/>
      </defs>
      <use xlink:href="#DejaVuSans-Oblique-74" transform="translate(0 0.125)"/>
      <use xlink:href="#DejaVuSans-20" transform="translate(39.208984 0.125)"/>
      <use xlink:href="#DejaVuSans-28" transform="translate(70.996094 0.125)"/>
      <use xlink:href="#DejaVuSans-6d" transform="translate(110.009766 0.125)"/>
      <use xlink:href="#DejaVuSans-73" transform="translate(207.421875 0.125)"/>
      <use xlink:href="#DejaVuSans-29" transform="translate(259.521484 0.125)"/>
     </g>
    </g>
   </g>
   <g id="matplotlib.axis_2">
    <g id="ytick_1">
     <g id="line2d_13">
      <path d="M 43.78125 300.84375 
L 438.448437 300.84375 
" clip-path="url(#p01c70489f9)" style="fill: none; stroke-dasharray: 2.96,1.28; stroke-dashoffset: 0; stroke: #b0b0b0; stroke-width: 0.8"/>
     </g>
     <g id="line2d_14">
      <defs>
       <path id="m9be1186c4a" d="M 0 0 
L -3.5 0 
" style="stroke: #000000; stroke-width: 0.8"/>
      </defs>
      <g>
       <use xlink:href="#m9be1186c4a" x="43.78125" y="300.84375" style="stroke: #000000; stroke-width: 0.8"/>
      </g>
     </g>
     <g id="text_8">
      <!-- 0.0 -->
      <g transform="translate(20.878125 304.642969) scale(0.1 -0.1)">
       <use xlink:href="#DejaVuSans-30"/>
       <use xlink:href="#DejaVuSans-2e" x="63.623047"/>
       <use xlink:href="#DejaVuSans-30" x="95.410156"/>
      </g>
     </g>
    </g>
    <g id="ytick_2">
     <g id="line2d_15">
      <path d="M 43.78125 263.707 
L 438.448437 263.707 
" clip-path="url(#p01c70489f9)" style="fill: none; stroke-dasharray: 2.96,1.28; stroke-dashoffset: 0; stroke: #b0b0b0; stroke-width: 0.8"/>
     </g>
     <g id="line2d_16">
      <g>
       <use xlink:href="#m9be1186c4a" x="43.78125" y="263.707" style="stroke: #000000; stroke-width: 0.8"/>
      </g>
     </g>
     <g id="text_9">
      <!-- 0.2 -->
      <g transform="translate(20.878125 267.506219) scale(0.1 -0.1)">
       <use xlink:href="#DejaVuSans-30"/>
       <use xlink:href="#DejaVuSans-2e" x="63.623047"/>
       <use xlink:href="#DejaVuSans-32" x="95.410156"/>
      </g>
     </g>
    </g>
    <g id="ytick_3">
     <g id="line2d_17">
      <path d="M 43.78125 226.57025 
L 438.448437 226.57025 
" clip-path="url(#p01c70489f9)" style="fill: none; stroke-dasharray: 2.96,1.28; stroke-dashoffset: 0; stroke: #b0b0b0; stroke-width: 0.8"/>
     </g>
     <g id="line2d_18">
      <g>
       <use xlink:href="#m9be1186c4a" x="43.78125" y="226.57025" style="stroke: #000000; stroke-width: 0.8"/>
      </g>
     </g>
     <g id="text_10">
      <!-- 0.4 -->
      <g transform="translate(20.878125 230.369469) scale(0.1 -0.1)">
       <use xlink:href="#DejaVuSans-30"/>
       <use xlink:href="#DejaVuSans-2e" x="63.623047"/>
       <use xlink:href="#DejaVuSans-34" x="95.410156"/>
      </g>
     </g>
    </g>
    <g id="ytick_4">
     <g id="line2d_19">
      <path d="M 43.78125 189.4335 
L 438.448437 189.4335 
" clip-path="url(#p01c70489f9)" style="fill: none; stroke-dasharray: 2.96,1.28; stroke-dashoffset: 0; stroke: #b0b0b0; stroke-width: 0.8"/>
     </g>
     <g id="line2d_20">
      <g>
       <use xlink:href="#m9be1186c4a" x="43.78125" y="189.4335" style="stroke: #000000; stroke-width: 0.8"/>
      </g>
     </g>
     <g id="text_11">
      <!-- 0.6 -->
      <g transform="translate(20.878125 193.232719) scale(0.1 -0.1)">
       <use xlink:href="#DejaVuSans-30"/>
       <use xlink:href="#DejaVuSans-2e" x="63.623047"/>
       <use xlink:href="#DejaVuSans-36" x="95.410156"/>
      </g>
     </g>
    </g>
    <g id="ytick_5">
     <g id="line2d_21">
      <path d="M 43.78125 152.29675 
L 438.448437 152.29675 
" clip-path="url(#p01c70489f9)" style="fill: none; stroke-dasharray: 2.96,1.28; stroke-dashoffset: 0; stroke: #b0b0b0; stroke-width: 0.8"/>
     </g>
     <g id="line2d_22">
      <g>
       <use xlink:href="#m9be1186c4a" x="43.78125" y="152.29675" style="stroke: #000000; stroke-width: 0.8"/>
      </g>
     </g>
     <g id="text_12">
      <!-- 0.8 -->
      <g transform="translate(20.878125 156.095969) scale(0.1 -0.1)">
       <use xlink:href="#DejaVuSans-30"/>
       <use xlink:href="#DejaVuSans-2e" x="63.623047"/>
       <use xlink:href="#DejaVuSans-38" x="95.410156"/>
      </g>
     </g>
    </g>
    <g id="ytick_6">
     <g id="line2d_23">
      <path d="M 43.78125 115.16 
L 438.448437 115.16 
" clip-path="url(#p01c70489f9)" style="fill: none; stroke-dasharray: 2.96,1.28; stroke-dashoffset: 0; stroke: #b0b0b0; stroke-width: 0.8"/>
     </g>
     <g id="line2d_24">
      <g>
       <use xlink:href="#m9be1186c4a" x="43.78125" y="115.16" style="stroke: #000000; stroke-width: 0.8"/>
      </g>
     </g>
     <g id="text_13">
      <!-- 1.0 -->
      <g transform="translate(20.878125 118.959219) scale(0.1 -0.1)">
       <use xlink:href="#DejaVuSans-31"/>
       <use xlink:href="#DejaVuSans-2e" x="63.623047"/>
       <use xlink:href="#DejaVuSans-30" x="95.410156"/>
      </g>
     </g>
    </g>
    <g id="ytick_7">
     <g id="line2d_25">
      <path d="M 43.78125 78.02325 
L 438.448437 78.02325 
" clip-path="url(#p01c70489f9)" style="fill: none; stroke-dasharray: 2.96,1.28; stroke-dashoffset: 0; stroke: #b0b0b0; stroke-width: 0.8"/>
     </g>
     <g id="line2d_26">
      <g>
       <use xlink:href="#m9be1186c4a" x="43.78125" y="78.02325" style="stroke: #000000; stroke-width: 0.8"/>
      </g>
     </g>
     <g id="text_14">
      <!-- 1.2 -->
      <g transform="translate(20.878125 81.822469) scale(0.1 -0.1)">
       <use xlink:href="#DejaVuSans-31"/>
       <use xlink:href="#DejaVuSans-2e" x="63.623047"/>
       <use xlink:href="#DejaVuSans-32" x="95.410156"/>
      </g>
     </g>
    </g>
    <g id="ytick_8">
     <g id="line2d_27">
      <path d="M 43.78125 40.8865 
L 438.448437 40.8865 
" clip-path="url(#p01c70489f9)" style="fill: none; stroke-dasharray: 2.96,1.28; stroke-dashoffset: 0; stroke: #b0b0b0; stroke-width: 0.8"/>
     </g>
     <g id="line2d_28">
      <g>
       <use xlink:href="#m9be1186c4a" x="43.78125" y="40.8865" style="stroke: #000000; stroke-width: 0.8"/>
      </g>
     </g>
     <g id="text_15">
      <!-- 1.4 -->
      <g transform="translate(20.878125 44.685719) scale(0.1 -0.1)">
       <use xlink:href="#DejaVuSans-31"/>
       <use xlink:href="#DejaVuSans-2e" x="63.623047"/>
       <use xlink:href="#DejaVuSans-34" x="95.410156"/>
      </g>
     </g>
    </g>
    <g id="text_16">
     <!-- $V$ (V) -->
     <g transform="translate(14.798438 173.930937) rotate(-90) scale(0.1 -0.1)">
      <defs>
       <path id="DejaVuSans-Oblique-56" d="M 1319 0 
L 500 4666 
L 1119 4666 
L 1797 653 
L 4063 4666 
L 4750 4666 
L 2053 0 
L 1319 0 
z
" transform="scale(0.015625)"/>
       <path id="DejaVuSans-56" d="M 1831 0 
L 50 4666 
L 709 4666 
L 2188 738 
L 3669 4666 
L 4325 4666 
L 2547 0 
L 1831 0 
z
" transform="scale(0.015625)"/>
      </defs>
      <use xlink:href="#DejaVuSans-Oblique-56" transform="translate(0 0.125)"/>
      <use xlink:href="#DejaVuSans-20" transform="translate(68.408203 0.125)"/>
      <use xlink:href="#DejaVuSans-28" transform="translate(100.195312 0.125)"/>
      <use xlink:href="#DejaVuSans-56" transform="translate(139.208984 0.125)"/>
      <use xlink:href="#DejaVuSans-29" transform="translate(207.617188 0.125)"/>
     </g>
    </g>
   </g>
   <g id="line2d_29">
    <path d="M 43.78125 300.84375 
L 43.806649 22.318125 
L 49.675859 22.318125 
L 50.046597 105.875813 
L 50.110258 300.84375 
L 56.377651 300.84375 
L 56.444593 22.318125 
L 62.390515 22.318125 
L 62.675947 105.875813 
L 62.742564 300.84375 
L 69.007002 300.84375 
L 69.109039 22.318125 
L 75.230552 22.318125 
L 75.390037 300.84375 
L 81.652718 300.84375 
L 81.68539 22.318125 
L 87.429365 22.318125 
L 87.934646 50.170688 
L 87.995425 300.84375 
L 94.257523 300.84375 
L 94.29865 272.991188 
L 94.368545 22.318125 
L 100.49307 22.318125 
L 100.656406 300.84375 
L 106.911422 300.84375 
L 106.949254 22.318125 
L 112.767328 22.318125 
L 113.193346 50.170688 
L 113.256321 300.84375 
L 119.524393 300.84375 
L 119.732224 22.318125 
L 125.23293 22.318125 
L 125.822696 50.170688 
L 125.886964 300.84375 
L 132.153743 300.84375 
L 132.201259 22.318125 
L 137.913957 22.318125 
L 138.452046 50.170688 
L 138.517757 300.84375 
L 144.783092 300.84375 
L 144.832435 22.318125 
L 150.574453 22.318125 
L 151.081396 50.170688 
L 151.148722 300.84375 
L 157.412442 300.84375 
L 157.463868 22.318125 
L 163.239456 22.318125 
L 163.710746 50.170688 
L 163.779411 300.84375 
L 170.041792 300.84375 
L 170.095219 22.318125 
L 175.902011 22.318125 
L 176.340096 50.170688 
L 176.409795 300.84375 
L 182.671141 300.84375 
L 182.726506 22.318125 
L 188.564049 22.318125 
L 188.969446 50.170688 
L 189.040276 300.84375 
L 195.300491 300.84375 
L 195.35762 22.318125 
L 201.22355 22.318125 
L 201.598797 105.875813 
L 201.691945 300.84375 
L 207.946192 300.84375 
L 208.012715 22.318125 
L 214.074577 22.318125 
L 214.368996 300.84375 
L 220.551024 300.84375 
L 220.59215 272.991188 
L 220.606547 22.318125 
L 226.32585 22.318125 
L 226.857496 50.170688 
L 226.932396 300.84375 
L 233.204923 300.84375 
L 233.27819 22.318125 
L 239.363829 22.318125 
L 239.642234 300.84375 
L 245.809724 300.84375 
L 245.85085 272.991188 
L 245.866813 22.318125 
L 251.619487 22.318125 
L 252.116196 50.170688 
L 252.194635 300.84375 
L 258.463623 300.84375 
L 258.546708 22.318125 
L 264.665981 22.318125 
L 264.802434 300.84375 
L 271.068424 300.84375 
L 271.10955 272.991188 
L 271.12632 22.318125 
L 276.903003 22.318125 
L 277.374896 50.170688 
L 277.454417 300.84375 
L 283.722323 300.84375 
L 283.805964 22.318125 
L 289.927122 22.318125 
L 290.061131 300.84375 
L 296.327123 300.84375 
L 296.36825 272.991188 
L 296.385032 22.318125 
L 302.161897 22.318125 
L 302.633596 50.170688 
L 302.713107 300.84375 
L 308.981022 300.84375 
L 309.064707 22.318125 
L 315.185995 22.318125 
L 315.319829 300.84375 
L 321.585823 300.84375 
L 321.62695 272.991188 
L 321.643742 22.318125 
L 327.420748 22.318125 
L 327.892296 50.170688 
L 327.9718 300.84375 
L 334.239722 300.84375 
L 334.32344 22.318125 
L 340.444825 22.318125 
L 340.578528 300.84375 
L 346.844523 300.84375 
L 346.88565 272.991188 
L 346.902449 22.318125 
L 352.67956 22.318125 
L 353.150996 50.170688 
L 353.230496 300.84375 
L 359.498422 300.84375 
L 359.582164 22.318125 
L 365.703621 22.318125 
L 365.837227 300.84375 
L 372.103223 300.84375 
L 372.14435 272.991188 
L 372.161154 22.318125 
L 377.938341 22.318125 
L 378.409696 50.170688 
L 378.489193 300.84375 
L 384.757122 300.84375 
L 384.840881 22.318125 
L 390.962389 22.318125 
L 391.095926 300.84375 
L 397.361923 300.84375 
L 397.40305 272.991188 
L 397.419857 22.318125 
L 403.197099 22.318125 
L 403.668396 50.170688 
L 403.74789 300.84375 
L 410.015822 300.84375 
L 410.099593 22.318125 
L 416.221138 22.318125 
L 416.354625 300.84375 
L 422.620623 300.84375 
L 422.66175 272.991185 
L 422.67856 22.318125 
L 428.45584 22.318125 
L 428.927096 50.170688 
L 429.006589 300.84375 
L 435.274522 300.84375 
L 435.310818 22.318125 
L 437.946797 22.318125 
L 437.946797 22.318125 
" clip-path="url(#p01c70489f9)" style="fill: none; stroke: #1f77b4; stroke-width: 2; stroke-linecap: square"/>
   </g>
   <g id="line2d_30">
    <path d="M 43.78125 300.84375 
L 50.082607 300.84375 
L 50.110258 22.318125 
L 55.806015 22.318125 
L 56.361271 50.170688 
L 56.444593 300.84375 
L 62.711636 300.84375 
L 62.742564 22.318125 
L 68.495494 22.318125 
L 68.990621 50.170688 
L 69.046069 300.84375 
L 75.354625 300.84375 
L 75.390037 22.318125 
L 81.345159 22.318125 
L 81.619972 105.875813 
L 81.68539 300.84375 
L 87.952829 300.84375 
L 88.132335 22.318125 
L 94.249321 22.318125 
L 94.304634 300.84375 
L 100.613325 300.84375 
L 100.656406 22.318125 
L 106.664628 22.318125 
L 106.878672 105.875813 
L 106.949254 300.84375 
L 113.211465 300.84375 
L 113.256321 22.318125 
L 118.938182 22.318125 
L 119.508021 50.170688 
L 119.570318 300.84375 
L 125.84079 300.84375 
L 125.886964 22.318125 
L 131.604156 22.318125 
L 132.137371 50.170688 
L 132.201259 300.84375 
L 138.470122 300.84375 
L 138.517757 22.318125 
L 144.25827 22.318125 
L 144.766721 50.170688 
L 144.832435 300.84375 
L 151.099454 300.84375 
L 151.148722 22.318125 
L 156.915555 22.318125 
L 157.396071 50.170688 
L 157.463868 300.84375 
L 163.72878 300.84375 
L 163.779411 22.318125 
L 169.567775 22.318125 
L 170.025421 50.170688 
L 170.095219 300.84375 
L 176.358112 300.84375 
L 176.409795 22.318125 
L 182.214271 22.318125 
L 182.654771 50.170688 
L 182.726506 300.84375 
L 188.987447 300.84375 
L 189.040276 22.318125 
L 194.862384 22.318125 
L 195.284121 50.170688 
L 195.35762 300.84375 
L 201.63476 300.84375 
L 201.691945 22.318125 
L 207.709668 22.318125 
L 207.913472 105.875813 
L 208.012715 300.84375 
L 214.277475 300.843748 
L 214.368996 22.318125 
L 220.542821 22.318125 
L 220.606547 300.84375 
L 226.875471 300.84375 
L 226.932396 22.318125 
L 232.817856 22.318125 
L 233.172172 105.875813 
L 233.27819 300.84375 
L 239.536175 300.843748 
L 239.642234 22.318125 
L 245.801521 22.318125 
L 245.866813 300.84375 
L 252.134158 300.84375 
L 252.194635 22.318125 
L 258.118441 22.318125 
L 258.430872 105.875813 
L 258.484401 300.84375 
L 264.794875 300.84375 
L 264.802434 22.318125 
L 271.060221 22.318125 
L 271.12632 300.84375 
L 277.39285 300.84375 
L 277.454417 22.318125 
L 283.388343 22.318125 
L 283.689572 105.875813 
L 283.743105 300.84375 
L 290.053575 300.843747 
L 290.061131 22.318125 
L 296.318921 22.318125 
L 296.385032 300.84375 
L 302.651544 300.84375 
L 302.713107 22.318125 
L 308.646969 22.318125 
L 308.948272 105.875813 
L 309.001808 300.84375 
L 315.312275 300.84375 
L 315.319829 22.318125 
L 321.577621 22.318125 
L 321.643742 300.84375 
L 327.91024 300.84375 
L 327.9718 22.318125 
L 333.905615 22.318125 
L 334.206972 105.875813 
L 334.26051 300.84375 
L 340.570975 300.84375 
L 340.578528 22.318125 
L 346.836321 22.318125 
L 346.902449 300.84375 
L 353.168937 300.84375 
L 353.230496 22.318125 
L 359.164277 22.318125 
L 359.465672 105.875813 
L 359.519211 300.84375 
L 365.829675 300.843747 
L 365.837227 22.318125 
L 372.095021 22.318125 
L 372.161154 300.84375 
L 378.427635 300.84375 
L 378.489193 22.318125 
L 384.422951 22.318125 
L 384.724372 105.875813 
L 384.777912 300.84375 
L 391.088375 300.84375 
L 391.095926 22.318125 
L 397.353721 22.318125 
L 397.419857 300.84375 
L 403.686334 300.84375 
L 403.74789 22.318125 
L 409.681632 22.318125 
L 409.983072 105.875813 
L 410.036613 300.84375 
L 416.347075 300.84375 
L 416.354625 22.318125 
L 422.612421 22.318125 
L 422.67856 300.84375 
L 428.945033 300.84375 
L 429.006589 22.318125 
L 434.940319 22.318125 
L 435.241772 105.875813 
L 435.310818 300.84375 
L 437.946797 300.84375 
L 437.946797 300.84375 
" clip-path="url(#p01c70489f9)" style="fill: none; stroke: #ff7f0e; stroke-width: 2; stroke-linecap: square"/>
   </g>
   <g id="line2d_31">
    <path d="M 43.78125 300.84375 
L 43.806649 284.977653 
L 56.410605 284.786607 
L 56.444593 264.243243 
L 69.039955 264.102041 
L 69.109039 246.993743 
L 81.669306 246.853202 
L 81.68539 232.636563 
L 94.298654 232.55775 
L 94.368545 220.684702 
L 106.928006 220.59284 
L 106.949254 210.733817 
L 119.557355 210.666432 
L 119.559541 202.443255 
L 119.570318 202.447996 
L 132.186705 202.389031 
L 132.201259 195.550293 
L 144.816055 195.496358 
L 144.832435 189.807279 
L 157.445405 189.756578 
L 157.463868 185.0254 
L 170.074772 184.906269 
L 170.095219 181.043762 
L 182.704122 180.942081 
L 182.726506 177.728226 
L 195.333472 177.641097 
L 195.35762 174.967239 
L 207.96283 174.872658 
L 207.966995 172.654385 
L 208.012715 172.665931 
L 220.592164 172.62895 
L 220.606547 170.754694 
L 233.221503 170.728477 
L 233.221506 170.724217 
L 233.225698 169.157631 
L 233.27819 169.165078 
L 245.850864 169.135901 
L 245.866813 167.840281 
L 258.480203 167.813602 
L 258.48023 167.792384 
L 258.484401 166.733426 
L 258.546708 166.738202 
L 271.109629 166.645725 
L 271.12632 165.819623 
L 283.73893 165.781908 
L 283.743105 165.052159 
L 283.805964 165.055263 
L 296.36833 164.987234 
L 296.385032 164.41813 
L 308.99763 164.387252 
L 309.001808 163.885949 
L 309.064707 163.887922 
L 321.62703 163.836587 
L 321.643742 163.446018 
L 334.25633 163.419833 
L 334.26051 163.077029 
L 334.32344 163.078241 
L 346.88573 163.038361 
L 346.902449 162.771757 
L 359.515276 162.692704 
L 359.582164 162.516652 
L 372.14443 162.484658 
L 372.161154 162.304098 
L 384.773976 162.246386 
L 384.840881 162.127147 
L 397.404114 162.02119 
L 397.419857 161.979744 
L 410.032676 161.936767 
L 410.099593 161.857002 
L 435.274522 161.751851 
L 435.310818 161.669166 
L 437.946797 161.668192 
L 437.946797 161.668192 
" clip-path="url(#p01c70489f9)" style="fill: none; stroke: #2ca02c; stroke-width: 2; stroke-linecap: square"/>
   </g>
   <g id="patch_3">
    <path d="M 43.78125 300.84375 
L 43.78125 22.318125 
" style="fill: none; stroke: #000000; stroke-width: 0.8; stroke-linejoin: miter; stroke-linecap: square"/>
   </g>
   <g id="patch_4">
    <path d="M 438.448437 300.84375 
L 438.448437 22.318125 
" style="fill: none; stroke: #000000; stroke-width: 0.8; stroke-linejoin: miter; stroke-linecap: square"/>
   </g>
   <g id="patch_5">
    <path d="M 43.78125 300.84375 
L 438.448437 300.84375 
" style="fill: none; stroke: #000000; stroke-width: 0.8; stroke-linejoin: miter; stroke-linecap: square"/>
   </g>
   <g id="patch_6">
    <path d="M 43.78125 22.318125 
L 438.448437 22.318125 
" style="fill: none; stroke: #000000; stroke-width: 0.8; stroke-linejoin: miter; stroke-linecap: square"/>
   </g>
   <g id="text_17">
    <!-- Vcm Generator -->
    <g transform="translate(195.491406 16.318125) scale(0.12 -0.12)">
     <defs>
      <path id="DejaVuSans-63" d="M 3122 3366 
L 3122 2828 
Q 2878 2963 2633 3030 
Q 2388 3097 2138 3097 
Q 1578 3097 1268 2742 
Q 959 2388 959 1747 
Q 959 1106 1268 751 
Q 1578 397 2138 397 
Q 2388 397 2633 464 
Q 2878 531 3122 666 
L 3122 134 
Q 2881 22 2623 -34 
Q 2366 -91 2075 -91 
Q 1284 -91 818 406 
Q 353 903 353 1747 
Q 353 2603 823 3093 
Q 1294 3584 2113 3584 
Q 2378 3584 2631 3529 
Q 2884 3475 3122 3366 
z
" transform="scale(0.015625)"/>
      <path id="DejaVuSans-47" d="M 3809 666 
L 3809 1919 
L 2778 1919 
L 2778 2438 
L 4434 2438 
L 4434 434 
Q 4069 175 3628 42 
Q 3188 -91 2688 -91 
Q 1594 -91 976 548 
Q 359 1188 359 2328 
Q 359 3472 976 4111 
Q 1594 4750 2688 4750 
Q 3144 4750 3555 4637 
Q 3966 4525 4313 4306 
L 4313 3634 
Q 3963 3931 3569 4081 
Q 3175 4231 2741 4231 
Q 1884 4231 1454 3753 
Q 1025 3275 1025 2328 
Q 1025 1384 1454 906 
Q 1884 428 2741 428 
Q 3075 428 3337 486 
Q 3600 544 3809 666 
z
" transform="scale(0.015625)"/>
      <path id="DejaVuSans-65" d="M 3597 1894 
L 3597 1613 
L 953 1613 
Q 991 1019 1311 708 
Q 1631 397 2203 397 
Q 2534 397 2845 478 
Q 3156 559 3463 722 
L 3463 178 
Q 3153 47 2828 -22 
Q 2503 -91 2169 -91 
Q 1331 -91 842 396 
Q 353 884 353 1716 
Q 353 2575 817 3079 
Q 1281 3584 2069 3584 
Q 2775 3584 3186 3129 
Q 3597 2675 3597 1894 
z
M 3022 2063 
Q 3016 2534 2758 2815 
Q 2500 3097 2075 3097 
Q 1594 3097 1305 2825 
Q 1016 2553 972 2059 
L 3022 2063 
z
" transform="scale(0.015625)"/>
      <path id="DejaVuSans-6e" d="M 3513 2113 
L 3513 0 
L 2938 0 
L 2938 2094 
Q 2938 2591 2744 2837 
Q 2550 3084 2163 3084 
Q 1697 3084 1428 2787 
Q 1159 2491 1159 1978 
L 1159 0 
L 581 0 
L 581 3500 
L 1159 3500 
L 1159 2956 
Q 1366 3272 1645 3428 
Q 1925 3584 2291 3584 
Q 2894 3584 3203 3211 
Q 3513 2838 3513 2113 
z
" transform="scale(0.015625)"/>
      <path id="DejaVuSans-72" d="M 2631 2963 
Q 2534 3019 2420 3045 
Q 2306 3072 2169 3072 
Q 1681 3072 1420 2755 
Q 1159 2438 1159 1844 
L 1159 0 
L 581 0 
L 581 3500 
L 1159 3500 
L 1159 2956 
Q 1341 3275 1631 3429 
Q 1922 3584 2338 3584 
Q 2397 3584 2469 3576 
Q 2541 3569 2628 3553 
L 2631 2963 
z
" transform="scale(0.015625)"/>
      <path id="DejaVuSans-61" d="M 2194 1759 
Q 1497 1759 1228 1600 
Q 959 1441 959 1056 
Q 959 750 1161 570 
Q 1363 391 1709 391 
Q 2188 391 2477 730 
Q 2766 1069 2766 1631 
L 2766 1759 
L 2194 1759 
z
M 3341 1997 
L 3341 0 
L 2766 0 
L 2766 531 
Q 2569 213 2275 61 
Q 1981 -91 1556 -91 
Q 1019 -91 701 211 
Q 384 513 384 1019 
Q 384 1609 779 1909 
Q 1175 2209 1959 2209 
L 2766 2209 
L 2766 2266 
Q 2766 2663 2505 2880 
Q 2244 3097 1772 3097 
Q 1472 3097 1187 3025 
Q 903 2953 641 2809 
L 641 3341 
Q 956 3463 1253 3523 
Q 1550 3584 1831 3584 
Q 2591 3584 2966 3190 
Q 3341 2797 3341 1997 
z
" transform="scale(0.015625)"/>
      <path id="DejaVuSans-74" d="M 1172 4494 
L 1172 3500 
L 2356 3500 
L 2356 3053 
L 1172 3053 
L 1172 1153 
Q 1172 725 1289 603 
Q 1406 481 1766 481 
L 2356 481 
L 2356 0 
L 1766 0 
Q 1100 0 847 248 
Q 594 497 594 1153 
L 594 3053 
L 172 3053 
L 172 3500 
L 594 3500 
L 594 4494 
L 1172 4494 
z
" transform="scale(0.015625)"/>
      <path id="DejaVuSans-6f" d="M 1959 3097 
Q 1497 3097 1228 2736 
Q 959 2375 959 1747 
Q 959 1119 1226 758 
Q 1494 397 1959 397 
Q 2419 397 2687 759 
Q 2956 1122 2956 1747 
Q 2956 2369 2687 2733 
Q 2419 3097 1959 3097 
z
M 1959 3584 
Q 2709 3584 3137 3096 
Q 3566 2609 3566 1747 
Q 3566 888 3137 398 
Q 2709 -91 1959 -91 
Q 1206 -91 779 398 
Q 353 888 353 1747 
Q 353 2609 779 3096 
Q 1206 3584 1959 3584 
z
" transform="scale(0.015625)"/>
     </defs>
     <use xlink:href="#DejaVuSans-56"/>
     <use xlink:href="#DejaVuSans-63" x="68.408203"/>
     <use xlink:href="#DejaVuSans-6d" x="123.388672"/>
     <use xlink:href="#DejaVuSans-20" x="220.800781"/>
     <use xlink:href="#DejaVuSans-47" x="252.587891"/>
     <use xlink:href="#DejaVuSans-65" x="330.078125"/>
     <use xlink:href="#DejaVuSans-6e" x="391.601562"/>
     <use xlink:href="#DejaVuSans-65" x="454.980469"/>
     <use xlink:href="#DejaVuSans-72" x="516.503906"/>
     <use xlink:href="#DejaVuSans-61" x="557.617188"/>
     <use xlink:href="#DejaVuSans-74" x="618.896484"/>
     <use xlink:href="#DejaVuSans-6f" x="658.105469"/>
     <use xlink:href="#DejaVuSans-72" x="719.287109"/>
    </g>
   </g>
   <g id="legend_1">
    <g id="patch_7">
     <path d="M 50.78125 185.098125 
L 100.58125 185.098125 
Q 102.58125 185.098125 102.58125 183.098125 
L 102.58125 140.06375 
Q 102.58125 138.06375 100.58125 138.06375 
L 50.78125 138.06375 
Q 48.78125 138.06375 48.78125 140.06375 
L 48.78125 183.098125 
Q 48.78125 185.098125 50.78125 185.098125 
z
" style="fill: #ffffff; opacity: 0.8; stroke: #cccccc; stroke-linejoin: miter"/>
    </g>
    <g id="line2d_32">
     <path d="M 52.78125 146.162187 
L 62.78125 146.162187 
L 72.78125 146.162187 
" style="fill: none; stroke: #1f77b4; stroke-width: 2; stroke-linecap: square"/>
    </g>
    <g id="text_18">
     <!-- $\Phi_1$ -->
     <g transform="translate(80.78125 149.662187) scale(0.1 -0.1)">
      <defs>
       <path id="DejaVuSans-3a6" d="M 2206 3644 
Q 1738 3578 1431 3306 
Q 1025 2947 1025 2328 
Q 1025 1713 1431 1353 
Q 1738 1081 2206 1016 
L 2206 3644 
z
M 2838 1016 
Q 3306 1081 3613 1353 
Q 4013 1713 4013 2328 
Q 4013 2947 3613 3306 
Q 3306 3578 2838 3644 
L 2838 1016 
z
M 2206 494 
Q 1444 563 950 981 
Q 359 1481 359 2328 
Q 359 3175 950 3678 
Q 1441 4100 2206 4169 
L 2206 4666 
L 2838 4666 
L 2838 4169 
Q 3600 4097 4091 3678 
Q 4678 3175 4678 2328 
Q 4678 1484 4091 981 
Q 3600 563 2838 491 
L 2838 0 
L 2206 0 
L 2206 494 
z
" transform="scale(0.015625)"/>
      </defs>
      <use xlink:href="#DejaVuSans-3a6" transform="translate(0 0.09375)"/>
      <use xlink:href="#DejaVuSans-31" transform="translate(79.667969 -16.3125) scale(0.7)"/>
     </g>
    </g>
    <g id="line2d_33">
     <path d="M 52.78125 160.840312 
L 62.78125 160.840312 
L 72.78125 160.840312 
" style="fill: none; stroke: #ff7f0e; stroke-width: 2; stroke-linecap: square"/>
    </g>
    <g id="text_19">
     <!-- $\Phi_2$ -->
     <g transform="translate(80.78125 164.340312) scale(0.1 -0.1)">
      <use xlink:href="#DejaVuSans-3a6" transform="translate(0 0.09375)"/>
      <use xlink:href="#DejaVuSans-32" transform="translate(79.667969 -16.3125) scale(0.7)"/>
     </g>
    </g>
    <g id="line2d_34">
     <path d="M 52.78125 175.518438 
L 62.78125 175.518438 
L 72.78125 175.518438 
" style="fill: none; stroke: #2ca02c; stroke-width: 2; stroke-linecap: square"/>
    </g>
    <g id="text_20">
     <!-- $V_\mathrm{cm}$ -->
     <g transform="translate(80.78125 179.018438) scale(0.1 -0.1)">
      <use xlink:href="#DejaVuSans-Oblique-56" transform="translate(0 0.09375)"/>
      <use xlink:href="#DejaVuSans-63" transform="translate(68.408203 -16.3125) scale(0.7)"/>
      <use xlink:href="#DejaVuSans-6d" transform="translate(106.894531 -16.3125) scale(0.7)"/>
     </g>
    </g>
   </g>
  </g>
 </g>
 <defs>
  <clipPath id="p01c70489f9">
   <rect x="43.78125" y="22.318125" width="394.667187" height="278.525625"/>
  </clipPath>
 </defs>
</svg>
