G04 EAGLE Gerber RS-274X export*
G75*
%MOMM*%
%FSLAX34Y34*%
%LPD*%
%INBottom Copper*%
%IPPOS*%
%AMOC8*
5,1,8,0,0,1.08239X$1,22.5*%
G01*
G04 Define Apertures*
%ADD10R,0.920900X0.970200*%
%ADD11R,0.970200X0.920900*%
%ADD12R,2.203600X1.795500*%
%ADD13R,1.164600X1.465300*%
%ADD14R,1.465300X1.164600*%
%ADD15P,1.42962X8X22.5*%
%ADD16C,1.524000*%
%ADD17R,0.970200X0.900000*%
%ADD18R,0.970200X0.932600*%
%ADD19R,0.900000X0.970200*%
%ADD20R,0.932600X0.970200*%
%ADD21R,0.973900X0.798700*%
%ADD22R,1.031200X1.420200*%
%ADD23R,0.798700X0.973900*%
%ADD24R,1.420200X1.031200*%
%ADD25C,1.320800*%
%ADD26P,2.33688X8X22.5*%
%ADD27P,1.64956X8X292.5*%
%ADD28C,2.400000*%
%ADD29C,1.408000*%
%ADD30C,1.230000*%
%ADD31C,1.800000*%
%ADD32C,0.700000*%
%ADD33C,0.254000*%
%ADD34P,0.599644X8X22.5*%
%ADD35C,0.500000*%
%ADD36C,1.000000*%
%ADD37C,0.400000*%
G36*
X726995Y2600D02*
X726698Y2540D01*
X3302Y2540D01*
X3027Y2591D01*
X2772Y2755D01*
X2600Y3005D01*
X2540Y3302D01*
X2540Y82346D01*
X2587Y82609D01*
X2746Y82867D01*
X2994Y83042D01*
X3290Y83108D01*
X3588Y83052D01*
X3841Y82884D01*
X5981Y80745D01*
X9516Y79280D01*
X28584Y79280D01*
X32119Y80745D01*
X34552Y83177D01*
X34793Y83340D01*
X35090Y83400D01*
X36030Y83400D01*
X36316Y83344D01*
X36568Y83177D01*
X40465Y79280D01*
X48435Y79280D01*
X54070Y84915D01*
X54070Y92885D01*
X48435Y98520D01*
X40465Y98520D01*
X36568Y94623D01*
X36327Y94460D01*
X36030Y94400D01*
X35090Y94400D01*
X34804Y94456D01*
X34552Y94623D01*
X32119Y97055D01*
X28584Y98520D01*
X9516Y98520D01*
X5981Y97055D01*
X3841Y94916D01*
X3621Y94763D01*
X3326Y94693D01*
X3027Y94744D01*
X2772Y94907D01*
X2600Y95157D01*
X2540Y95454D01*
X2540Y107746D01*
X2587Y108009D01*
X2746Y108267D01*
X2994Y108442D01*
X3290Y108508D01*
X3588Y108452D01*
X3841Y108284D01*
X5981Y106145D01*
X9516Y104680D01*
X28584Y104680D01*
X32119Y106145D01*
X34552Y108577D01*
X34793Y108740D01*
X35090Y108800D01*
X36030Y108800D01*
X36316Y108744D01*
X36568Y108577D01*
X40465Y104680D01*
X48435Y104680D01*
X54070Y110315D01*
X54070Y118285D01*
X48435Y123920D01*
X40465Y123920D01*
X36568Y120023D01*
X36327Y119860D01*
X36030Y119800D01*
X35090Y119800D01*
X34804Y119856D01*
X34552Y120023D01*
X32119Y122455D01*
X28584Y123920D01*
X9516Y123920D01*
X5981Y122455D01*
X3841Y120316D01*
X3621Y120163D01*
X3326Y120093D01*
X3027Y120144D01*
X2772Y120307D01*
X2600Y120557D01*
X2540Y120854D01*
X2540Y133146D01*
X2587Y133409D01*
X2746Y133667D01*
X2994Y133842D01*
X3290Y133908D01*
X3588Y133852D01*
X3841Y133684D01*
X5981Y131545D01*
X9516Y130080D01*
X28584Y130080D01*
X32119Y131545D01*
X34835Y134260D01*
X34968Y134466D01*
X35215Y134641D01*
X35511Y134706D01*
X35809Y134651D01*
X36062Y134483D01*
X40465Y130080D01*
X48435Y130080D01*
X54070Y135715D01*
X54070Y143685D01*
X48435Y149320D01*
X40465Y149320D01*
X36062Y144917D01*
X35837Y144761D01*
X35541Y144694D01*
X35243Y144747D01*
X34989Y144913D01*
X34837Y145138D01*
X32119Y147855D01*
X28584Y149320D01*
X9516Y149320D01*
X5981Y147855D01*
X3841Y145716D01*
X3621Y145563D01*
X3326Y145493D01*
X3027Y145544D01*
X2772Y145707D01*
X2600Y145957D01*
X2540Y146254D01*
X2540Y158546D01*
X2587Y158809D01*
X2746Y159067D01*
X2994Y159242D01*
X3290Y159308D01*
X3588Y159252D01*
X3841Y159084D01*
X5981Y156945D01*
X9516Y155480D01*
X28584Y155480D01*
X32119Y156945D01*
X34552Y159377D01*
X34793Y159540D01*
X35090Y159600D01*
X36030Y159600D01*
X36316Y159544D01*
X36568Y159377D01*
X40465Y155480D01*
X48435Y155480D01*
X54070Y161115D01*
X54070Y169085D01*
X48435Y174720D01*
X40465Y174720D01*
X36568Y170823D01*
X36327Y170660D01*
X36030Y170600D01*
X35090Y170600D01*
X34804Y170656D01*
X34552Y170823D01*
X32119Y173255D01*
X28584Y174720D01*
X9516Y174720D01*
X5981Y173255D01*
X3841Y171116D01*
X3621Y170963D01*
X3326Y170893D01*
X3027Y170944D01*
X2772Y171107D01*
X2600Y171357D01*
X2540Y171654D01*
X2540Y183946D01*
X2587Y184209D01*
X2746Y184467D01*
X2994Y184642D01*
X3290Y184708D01*
X3588Y184652D01*
X3841Y184484D01*
X5981Y182345D01*
X9516Y180880D01*
X28584Y180880D01*
X32119Y182345D01*
X34552Y184777D01*
X34793Y184940D01*
X35090Y185000D01*
X36030Y185000D01*
X36316Y184944D01*
X36568Y184777D01*
X40465Y180880D01*
X48435Y180880D01*
X54070Y186515D01*
X54070Y194485D01*
X48435Y200120D01*
X40465Y200120D01*
X36568Y196223D01*
X36327Y196060D01*
X36030Y196000D01*
X35090Y196000D01*
X34804Y196056D01*
X34552Y196223D01*
X32119Y198655D01*
X28584Y200120D01*
X9516Y200120D01*
X5981Y198655D01*
X3841Y196516D01*
X3621Y196363D01*
X3326Y196293D01*
X3027Y196344D01*
X2772Y196507D01*
X2600Y196757D01*
X2540Y197054D01*
X2540Y209346D01*
X2587Y209609D01*
X2746Y209867D01*
X2994Y210042D01*
X3290Y210108D01*
X3588Y210052D01*
X3841Y209884D01*
X5981Y207745D01*
X9516Y206280D01*
X28584Y206280D01*
X32119Y207745D01*
X33052Y208677D01*
X33293Y208840D01*
X33590Y208900D01*
X37530Y208900D01*
X37816Y208844D01*
X38068Y208677D01*
X40465Y206280D01*
X48435Y206280D01*
X54070Y211915D01*
X54070Y219885D01*
X48435Y225520D01*
X40465Y225520D01*
X38068Y223123D01*
X37827Y222960D01*
X37530Y222900D01*
X33590Y222900D01*
X33304Y222956D01*
X33052Y223123D01*
X32119Y224055D01*
X28584Y225520D01*
X9516Y225520D01*
X5981Y224055D01*
X3841Y221916D01*
X3621Y221763D01*
X3326Y221693D01*
X3027Y221744D01*
X2772Y221907D01*
X2600Y222157D01*
X2540Y222454D01*
X2540Y234746D01*
X2587Y235009D01*
X2746Y235267D01*
X2994Y235442D01*
X3290Y235508D01*
X3588Y235452D01*
X3841Y235284D01*
X5981Y233145D01*
X9516Y231680D01*
X28584Y231680D01*
X32119Y233145D01*
X34552Y235577D01*
X34793Y235740D01*
X35090Y235800D01*
X36030Y235800D01*
X36316Y235744D01*
X36568Y235577D01*
X40465Y231680D01*
X48435Y231680D01*
X54070Y237315D01*
X54070Y245285D01*
X48435Y250920D01*
X40465Y250920D01*
X36568Y247023D01*
X36327Y246860D01*
X36030Y246800D01*
X35090Y246800D01*
X34804Y246856D01*
X34552Y247023D01*
X32119Y249455D01*
X28584Y250920D01*
X9516Y250920D01*
X5981Y249455D01*
X3841Y247316D01*
X3621Y247163D01*
X3326Y247093D01*
X3027Y247144D01*
X2772Y247307D01*
X2600Y247557D01*
X2540Y247854D01*
X2540Y260146D01*
X2587Y260409D01*
X2746Y260667D01*
X2994Y260842D01*
X3290Y260908D01*
X3588Y260852D01*
X3841Y260684D01*
X5981Y258545D01*
X9516Y257080D01*
X28584Y257080D01*
X32119Y258545D01*
X34552Y260977D01*
X34793Y261140D01*
X35090Y261200D01*
X36030Y261200D01*
X36316Y261144D01*
X36568Y260977D01*
X40465Y257080D01*
X48435Y257080D01*
X52579Y261224D01*
X52799Y261377D01*
X53094Y261447D01*
X53393Y261396D01*
X53648Y261233D01*
X53820Y260983D01*
X53880Y260686D01*
X53880Y252646D01*
X60197Y246329D01*
X60355Y246098D01*
X60420Y245802D01*
X60364Y245504D01*
X60230Y245302D01*
X60230Y237315D01*
X65865Y231680D01*
X73835Y231680D01*
X77732Y235577D01*
X77973Y235740D01*
X78270Y235800D01*
X79210Y235800D01*
X79496Y235744D01*
X79748Y235577D01*
X82181Y233145D01*
X85716Y231680D01*
X104784Y231680D01*
X108319Y233145D01*
X111025Y235851D01*
X112490Y239386D01*
X112490Y243214D01*
X111025Y246749D01*
X108319Y249455D01*
X104784Y250920D01*
X85716Y250920D01*
X82181Y249455D01*
X79748Y247023D01*
X79507Y246860D01*
X79210Y246800D01*
X78270Y246800D01*
X77984Y246856D01*
X77732Y247023D01*
X73835Y250920D01*
X65850Y250920D01*
X65668Y250795D01*
X65372Y250730D01*
X65074Y250786D01*
X64821Y250953D01*
X60643Y255131D01*
X60480Y255373D01*
X60420Y255670D01*
X60420Y260686D01*
X60467Y260949D01*
X60626Y261207D01*
X60874Y261382D01*
X61170Y261448D01*
X61468Y261392D01*
X61721Y261224D01*
X65865Y257080D01*
X73835Y257080D01*
X77732Y260977D01*
X77973Y261140D01*
X78270Y261200D01*
X79210Y261200D01*
X79496Y261144D01*
X79748Y260977D01*
X82181Y258545D01*
X85716Y257080D01*
X104784Y257080D01*
X108319Y258545D01*
X111025Y261251D01*
X111733Y262960D01*
X111890Y263198D01*
X112140Y263370D01*
X112437Y263430D01*
X112630Y263430D01*
X112916Y263374D01*
X113169Y263207D01*
X113982Y262394D01*
X114145Y262152D01*
X114205Y261855D01*
X114205Y236771D01*
X119296Y231680D01*
X197720Y231680D01*
X198006Y231624D01*
X198259Y231457D01*
X198437Y231279D01*
X198600Y231037D01*
X198660Y230740D01*
X198660Y228360D01*
X198613Y228097D01*
X198454Y227839D01*
X198206Y227664D01*
X197910Y227599D01*
X197612Y227654D01*
X197359Y227822D01*
X195621Y229560D01*
X191669Y229560D01*
X189436Y227327D01*
X189206Y227169D01*
X188910Y227104D01*
X188612Y227160D01*
X188359Y227327D01*
X186126Y229560D01*
X182174Y229560D01*
X179380Y226766D01*
X179380Y222814D01*
X180657Y221537D01*
X180820Y221296D01*
X180880Y220999D01*
X180880Y189146D01*
X187655Y182371D01*
X187808Y182151D01*
X187878Y181856D01*
X187827Y181557D01*
X187663Y181302D01*
X187413Y181130D01*
X187116Y181070D01*
X179470Y181070D01*
X179184Y181126D01*
X178931Y181293D01*
X174943Y185281D01*
X174780Y185523D01*
X174720Y185820D01*
X174720Y220999D01*
X174776Y221285D01*
X174943Y221537D01*
X176220Y222814D01*
X176220Y226766D01*
X173426Y229560D01*
X169474Y229560D01*
X166680Y226766D01*
X166680Y222814D01*
X167957Y221537D01*
X168120Y221296D01*
X168180Y220999D01*
X168180Y182796D01*
X174955Y176021D01*
X175108Y175801D01*
X175178Y175506D01*
X175127Y175207D01*
X174963Y174952D01*
X174713Y174780D01*
X174416Y174720D01*
X166770Y174720D01*
X166484Y174776D01*
X166231Y174943D01*
X162243Y178931D01*
X162080Y179173D01*
X162020Y179470D01*
X162020Y220999D01*
X162076Y221285D01*
X162243Y221537D01*
X163520Y222814D01*
X163520Y226766D01*
X160726Y229560D01*
X156774Y229560D01*
X153980Y226766D01*
X153980Y222814D01*
X155257Y221537D01*
X155420Y221296D01*
X155480Y220999D01*
X155480Y176446D01*
X163746Y168180D01*
X214230Y168180D01*
X214516Y168124D01*
X214769Y167957D01*
X215582Y167144D01*
X215745Y166902D01*
X215805Y166605D01*
X215805Y93896D01*
X220896Y88805D01*
X233638Y88805D01*
X233918Y88752D01*
X234172Y88586D01*
X234342Y88335D01*
X235050Y86626D01*
X237756Y83920D01*
X241291Y82455D01*
X260359Y82455D01*
X263894Y83920D01*
X266600Y86626D01*
X268065Y90161D01*
X268065Y93989D01*
X266600Y97524D01*
X263894Y100230D01*
X260359Y101695D01*
X241291Y101695D01*
X237756Y100230D01*
X235050Y97524D01*
X234342Y95815D01*
X234185Y95577D01*
X233935Y95405D01*
X233638Y95345D01*
X223920Y95345D01*
X223634Y95401D01*
X223381Y95568D01*
X222568Y96381D01*
X222405Y96623D01*
X222345Y96920D01*
X222345Y169629D01*
X218745Y173229D01*
X218592Y173449D01*
X218522Y173744D01*
X218573Y174043D01*
X218737Y174298D01*
X218987Y174470D01*
X219284Y174530D01*
X306305Y174530D01*
X306591Y174474D01*
X306844Y174307D01*
X307657Y173494D01*
X307820Y173252D01*
X307880Y172955D01*
X307880Y93896D01*
X312971Y88805D01*
X325713Y88805D01*
X325993Y88752D01*
X326247Y88586D01*
X326417Y88335D01*
X327125Y86626D01*
X329831Y83920D01*
X333366Y82455D01*
X352434Y82455D01*
X355969Y83920D01*
X358675Y86626D01*
X360140Y90161D01*
X360140Y93989D01*
X358675Y97524D01*
X355969Y100230D01*
X352434Y101695D01*
X333366Y101695D01*
X329831Y100230D01*
X327125Y97524D01*
X326417Y95815D01*
X326260Y95577D01*
X326010Y95405D01*
X325713Y95345D01*
X315995Y95345D01*
X315709Y95401D01*
X315456Y95568D01*
X314643Y96381D01*
X314480Y96623D01*
X314420Y96920D01*
X314420Y175979D01*
X310820Y179579D01*
X310667Y179799D01*
X310597Y180094D01*
X310648Y180393D01*
X310812Y180648D01*
X311062Y180820D01*
X311359Y180880D01*
X398380Y180880D01*
X398666Y180824D01*
X398919Y180657D01*
X399732Y179844D01*
X399895Y179602D01*
X399955Y179305D01*
X399955Y93896D01*
X405046Y88805D01*
X417788Y88805D01*
X418068Y88752D01*
X418322Y88586D01*
X418492Y88335D01*
X419200Y86626D01*
X421906Y83920D01*
X425441Y82455D01*
X444509Y82455D01*
X448044Y83920D01*
X450750Y86626D01*
X452215Y90161D01*
X452215Y93989D01*
X450750Y97524D01*
X448044Y100230D01*
X444509Y101695D01*
X425441Y101695D01*
X421906Y100230D01*
X419200Y97524D01*
X418492Y95815D01*
X418335Y95577D01*
X418085Y95405D01*
X417788Y95345D01*
X408070Y95345D01*
X407784Y95401D01*
X407531Y95568D01*
X406718Y96381D01*
X406555Y96623D01*
X406495Y96920D01*
X406495Y182329D01*
X402895Y185929D01*
X402742Y186149D01*
X402672Y186444D01*
X402723Y186743D01*
X402887Y186998D01*
X403137Y187170D01*
X403434Y187230D01*
X490455Y187230D01*
X490741Y187174D01*
X490994Y187007D01*
X491807Y186194D01*
X491970Y185952D01*
X492030Y185655D01*
X492030Y93896D01*
X497121Y88805D01*
X509863Y88805D01*
X510143Y88752D01*
X510397Y88586D01*
X510567Y88335D01*
X511275Y86626D01*
X513981Y83920D01*
X517516Y82455D01*
X536584Y82455D01*
X540119Y83920D01*
X542825Y86626D01*
X544290Y90161D01*
X544290Y93989D01*
X542825Y97524D01*
X540119Y100230D01*
X536584Y101695D01*
X517516Y101695D01*
X513981Y100230D01*
X511275Y97524D01*
X510567Y95815D01*
X510410Y95577D01*
X510160Y95405D01*
X509863Y95345D01*
X500145Y95345D01*
X499859Y95401D01*
X499606Y95568D01*
X498793Y96381D01*
X498630Y96623D01*
X498570Y96920D01*
X498570Y188679D01*
X493479Y193770D01*
X295484Y193770D01*
X295221Y193817D01*
X294963Y193976D01*
X294787Y194224D01*
X294722Y194520D01*
X294778Y194818D01*
X294945Y195071D01*
X299180Y199306D01*
X299180Y204489D01*
X299236Y204775D01*
X299403Y205027D01*
X300680Y206304D01*
X300680Y210256D01*
X297886Y213050D01*
X293934Y213050D01*
X291140Y210256D01*
X291140Y206304D01*
X292417Y205027D01*
X292580Y204786D01*
X292640Y204489D01*
X292640Y202330D01*
X292584Y202044D01*
X292417Y201791D01*
X290969Y200343D01*
X290727Y200180D01*
X290430Y200120D01*
X212490Y200120D01*
X212204Y200176D01*
X211951Y200343D01*
X205423Y206871D01*
X205260Y207113D01*
X205200Y207410D01*
X205200Y233764D01*
X202235Y236729D01*
X202082Y236949D01*
X202012Y237244D01*
X202063Y237543D01*
X202227Y237798D01*
X202477Y237970D01*
X202774Y238030D01*
X217405Y238030D01*
X217691Y237974D01*
X217944Y237807D01*
X218757Y236994D01*
X218920Y236752D01*
X218980Y236455D01*
X218980Y211371D01*
X224697Y205654D01*
X266084Y205654D01*
X266370Y205598D01*
X266622Y205430D01*
X267899Y204154D01*
X271851Y204154D01*
X274645Y206948D01*
X274645Y210899D01*
X272665Y212880D01*
X272507Y213110D01*
X272441Y213406D01*
X272497Y213705D01*
X272665Y213957D01*
X274110Y215402D01*
X274110Y219686D01*
X267462Y219686D01*
X267462Y213534D01*
X266926Y213534D01*
X266977Y213461D01*
X267043Y213165D01*
X266987Y212867D01*
X266819Y212614D01*
X266622Y212417D01*
X266381Y212254D01*
X266084Y212194D01*
X227722Y212194D01*
X227436Y212249D01*
X227183Y212417D01*
X225743Y213856D01*
X225580Y214098D01*
X225520Y214395D01*
X225520Y239479D01*
X221920Y243079D01*
X221767Y243299D01*
X221697Y243594D01*
X221748Y243893D01*
X221912Y244148D01*
X222162Y244320D01*
X222459Y244380D01*
X237268Y244380D01*
X237543Y244329D01*
X237798Y244165D01*
X237970Y243915D01*
X238030Y243618D01*
X238030Y243508D01*
X237979Y243233D01*
X237815Y242977D01*
X237565Y242806D01*
X237268Y242746D01*
X235602Y242746D01*
X234431Y241574D01*
X234431Y231930D01*
X235602Y230759D01*
X246998Y230759D01*
X248170Y231930D01*
X248170Y241574D01*
X246998Y242746D01*
X245332Y242746D01*
X245057Y242797D01*
X244802Y242960D01*
X244630Y243210D01*
X244570Y243508D01*
X244570Y243618D01*
X244621Y243893D01*
X244785Y244148D01*
X245035Y244320D01*
X245332Y244380D01*
X253384Y244380D01*
X253670Y244324D01*
X253922Y244157D01*
X255199Y242880D01*
X259297Y242880D01*
X259560Y242833D01*
X259818Y242674D01*
X259994Y242426D01*
X260059Y242130D01*
X260003Y241832D01*
X259836Y241579D01*
X259831Y241574D01*
X259831Y231930D01*
X261002Y230759D01*
X272398Y230759D01*
X273570Y231930D01*
X273570Y241574D01*
X272398Y242746D01*
X270732Y242746D01*
X270457Y242797D01*
X270202Y242960D01*
X270030Y243210D01*
X269970Y243508D01*
X269970Y261704D01*
X261704Y269970D01*
X248266Y269970D01*
X247980Y270026D01*
X247728Y270193D01*
X246451Y271470D01*
X242499Y271470D01*
X239705Y268676D01*
X239705Y264724D01*
X242499Y261930D01*
X246451Y261930D01*
X247728Y263207D01*
X247969Y263370D01*
X248266Y263430D01*
X258680Y263430D01*
X258966Y263374D01*
X259219Y263207D01*
X263207Y259219D01*
X263370Y258977D01*
X263430Y258680D01*
X263430Y249980D01*
X263383Y249717D01*
X263224Y249459D01*
X262976Y249284D01*
X262680Y249219D01*
X262382Y249274D01*
X262129Y249442D01*
X259151Y252420D01*
X255199Y252420D01*
X253922Y251143D01*
X253681Y250980D01*
X253384Y250920D01*
X183305Y250920D01*
X183042Y250967D01*
X182784Y251126D01*
X182609Y251374D01*
X182544Y251670D01*
X182599Y251968D01*
X182767Y252221D01*
X185745Y255199D01*
X185745Y259151D01*
X182951Y261945D01*
X178999Y261945D01*
X177087Y260033D01*
X176846Y259870D01*
X176549Y259810D01*
X142005Y259810D01*
X141719Y259866D01*
X141466Y260033D01*
X140018Y261481D01*
X139855Y261723D01*
X139795Y262020D01*
X139795Y309329D01*
X111575Y337549D01*
X111415Y337785D01*
X111352Y338082D01*
X111410Y338380D01*
X112490Y340986D01*
X112490Y344814D01*
X111025Y348349D01*
X108319Y351055D01*
X104784Y352520D01*
X85716Y352520D01*
X82181Y351055D01*
X79748Y348623D01*
X79507Y348460D01*
X79210Y348400D01*
X78270Y348400D01*
X77984Y348456D01*
X77732Y348623D01*
X73835Y352520D01*
X65865Y352520D01*
X61721Y348376D01*
X61501Y348223D01*
X61206Y348153D01*
X60907Y348204D01*
X60652Y348367D01*
X60480Y348617D01*
X60420Y348914D01*
X60420Y362286D01*
X60467Y362549D01*
X60626Y362807D01*
X60874Y362982D01*
X61170Y363048D01*
X61468Y362992D01*
X61721Y362824D01*
X65865Y358680D01*
X73835Y358680D01*
X77732Y362577D01*
X77973Y362740D01*
X78270Y362800D01*
X79210Y362800D01*
X79496Y362744D01*
X79748Y362577D01*
X82181Y360145D01*
X85716Y358680D01*
X104784Y358680D01*
X108319Y360145D01*
X111025Y362851D01*
X112490Y366386D01*
X112490Y370214D01*
X111025Y373749D01*
X108319Y376455D01*
X104784Y377920D01*
X85716Y377920D01*
X82181Y376455D01*
X79748Y374023D01*
X79507Y373860D01*
X79210Y373800D01*
X78270Y373800D01*
X77984Y373856D01*
X77732Y374023D01*
X73835Y377920D01*
X65865Y377920D01*
X61721Y373776D01*
X61501Y373623D01*
X61206Y373553D01*
X60907Y373604D01*
X60652Y373767D01*
X60480Y374017D01*
X60420Y374314D01*
X60420Y387686D01*
X60467Y387949D01*
X60626Y388207D01*
X60874Y388382D01*
X61170Y388448D01*
X61468Y388392D01*
X61721Y388224D01*
X65865Y384080D01*
X73835Y384080D01*
X77732Y387977D01*
X77973Y388140D01*
X78270Y388200D01*
X79210Y388200D01*
X79496Y388144D01*
X79748Y387977D01*
X82181Y385545D01*
X85716Y384080D01*
X104784Y384080D01*
X108319Y385545D01*
X111025Y388251D01*
X112490Y391786D01*
X112490Y395614D01*
X111025Y399149D01*
X108319Y401855D01*
X104784Y403320D01*
X85716Y403320D01*
X82181Y401855D01*
X79748Y399423D01*
X79507Y399260D01*
X79210Y399200D01*
X78270Y399200D01*
X77984Y399256D01*
X77732Y399423D01*
X73835Y403320D01*
X65865Y403320D01*
X61721Y399176D01*
X61501Y399023D01*
X61206Y398953D01*
X60907Y399004D01*
X60652Y399167D01*
X60480Y399417D01*
X60420Y399714D01*
X60420Y413086D01*
X60467Y413349D01*
X60626Y413607D01*
X60874Y413782D01*
X61170Y413848D01*
X61468Y413792D01*
X61721Y413624D01*
X65865Y409480D01*
X73835Y409480D01*
X77732Y413377D01*
X77973Y413540D01*
X78270Y413600D01*
X79210Y413600D01*
X79496Y413544D01*
X79748Y413377D01*
X82181Y410945D01*
X85716Y409480D01*
X104784Y409480D01*
X108319Y410945D01*
X111025Y413651D01*
X112490Y417186D01*
X112490Y421014D01*
X111025Y424549D01*
X108319Y427255D01*
X104784Y428720D01*
X85716Y428720D01*
X82181Y427255D01*
X79748Y424823D01*
X79507Y424660D01*
X79210Y424600D01*
X78270Y424600D01*
X77984Y424656D01*
X77732Y424823D01*
X73835Y428720D01*
X65865Y428720D01*
X61721Y424576D01*
X61501Y424423D01*
X61206Y424353D01*
X60907Y424404D01*
X60652Y424567D01*
X60480Y424817D01*
X60420Y425114D01*
X60420Y437722D01*
X60467Y437985D01*
X60626Y438243D01*
X60874Y438419D01*
X61170Y438484D01*
X61468Y438428D01*
X61721Y438261D01*
X65642Y434340D01*
X69088Y434340D01*
X69088Y454660D01*
X65642Y454660D01*
X61721Y450739D01*
X61501Y450586D01*
X61206Y450516D01*
X60907Y450567D01*
X60652Y450731D01*
X60480Y450981D01*
X60420Y451278D01*
X60420Y463886D01*
X60467Y464149D01*
X60626Y464407D01*
X60874Y464582D01*
X61170Y464648D01*
X61468Y464592D01*
X61721Y464424D01*
X65865Y460280D01*
X73835Y460280D01*
X77732Y464177D01*
X77973Y464340D01*
X78270Y464400D01*
X79210Y464400D01*
X79496Y464344D01*
X79748Y464177D01*
X82181Y461745D01*
X85716Y460280D01*
X104784Y460280D01*
X108319Y461745D01*
X111025Y464451D01*
X112490Y467986D01*
X112490Y471814D01*
X111025Y475349D01*
X108319Y478055D01*
X104784Y479520D01*
X85716Y479520D01*
X82181Y478055D01*
X79748Y475623D01*
X79507Y475460D01*
X79210Y475400D01*
X78270Y475400D01*
X77984Y475456D01*
X77732Y475623D01*
X73835Y479520D01*
X65865Y479520D01*
X61721Y475376D01*
X61501Y475223D01*
X61206Y475153D01*
X60907Y475204D01*
X60652Y475367D01*
X60480Y475617D01*
X60420Y475914D01*
X60420Y489286D01*
X60467Y489549D01*
X60626Y489807D01*
X60874Y489982D01*
X61170Y490048D01*
X61468Y489992D01*
X61721Y489824D01*
X65865Y485680D01*
X73835Y485680D01*
X77732Y489577D01*
X77973Y489740D01*
X78270Y489800D01*
X79210Y489800D01*
X79496Y489744D01*
X79748Y489577D01*
X82181Y487145D01*
X85716Y485680D01*
X104784Y485680D01*
X108319Y487145D01*
X111025Y489851D01*
X112490Y493386D01*
X112490Y497214D01*
X111025Y500749D01*
X108319Y503455D01*
X104784Y504920D01*
X85716Y504920D01*
X82181Y503455D01*
X79748Y501023D01*
X79507Y500860D01*
X79210Y500800D01*
X78270Y500800D01*
X77984Y500856D01*
X77732Y501023D01*
X73835Y504920D01*
X65865Y504920D01*
X61721Y500776D01*
X61501Y500623D01*
X61206Y500553D01*
X60907Y500604D01*
X60652Y500767D01*
X60480Y501017D01*
X60420Y501314D01*
X60420Y514686D01*
X60467Y514949D01*
X60626Y515207D01*
X60874Y515382D01*
X61170Y515448D01*
X61468Y515392D01*
X61721Y515224D01*
X65865Y511080D01*
X73835Y511080D01*
X77732Y514977D01*
X77973Y515140D01*
X78270Y515200D01*
X79210Y515200D01*
X79496Y515144D01*
X79748Y514977D01*
X82181Y512545D01*
X85716Y511080D01*
X104784Y511080D01*
X108319Y512545D01*
X111025Y515251D01*
X112490Y518786D01*
X112490Y522614D01*
X111025Y526149D01*
X108346Y528829D01*
X108193Y529049D01*
X108123Y529344D01*
X108174Y529643D01*
X108337Y529898D01*
X108587Y530070D01*
X108884Y530130D01*
X118829Y530130D01*
X123920Y535221D01*
X123920Y542309D01*
X123976Y542595D01*
X124143Y542847D01*
X125420Y544124D01*
X125420Y548076D01*
X122626Y550870D01*
X118674Y550870D01*
X115880Y548076D01*
X115880Y544124D01*
X117157Y542847D01*
X117320Y542606D01*
X117380Y542309D01*
X117380Y538245D01*
X117324Y537959D01*
X117157Y537706D01*
X116344Y536893D01*
X116102Y536730D01*
X115805Y536670D01*
X108884Y536670D01*
X108621Y536717D01*
X108363Y536876D01*
X108188Y537124D01*
X108122Y537420D01*
X108178Y537718D01*
X108346Y537971D01*
X111025Y540651D01*
X112490Y544186D01*
X112490Y548014D01*
X111025Y551549D01*
X108346Y554229D01*
X108193Y554449D01*
X108123Y554744D01*
X108174Y555043D01*
X108337Y555298D01*
X108587Y555470D01*
X108884Y555530D01*
X125330Y555530D01*
X125616Y555474D01*
X125869Y555307D01*
X129857Y551319D01*
X130020Y551077D01*
X130080Y550780D01*
X130080Y341546D01*
X135171Y336455D01*
X153905Y336455D01*
X154191Y336399D01*
X154444Y336232D01*
X155717Y334959D01*
X155875Y334728D01*
X155940Y334432D01*
X155884Y334134D01*
X155717Y333881D01*
X154559Y332723D01*
X154559Y321327D01*
X155730Y320156D01*
X165374Y320156D01*
X166546Y321327D01*
X166546Y322993D01*
X166597Y323268D01*
X166760Y323523D01*
X167010Y323695D01*
X167308Y323755D01*
X169629Y323755D01*
X171311Y325437D01*
X171553Y325600D01*
X171850Y325660D01*
X174009Y325660D01*
X174295Y325604D01*
X174547Y325437D01*
X175824Y324160D01*
X179776Y324160D01*
X182570Y326954D01*
X182570Y330906D01*
X179776Y333700D01*
X175824Y333700D01*
X174547Y332423D01*
X174306Y332260D01*
X174009Y332200D01*
X168826Y332200D01*
X167846Y331221D01*
X167627Y331068D01*
X167332Y330998D01*
X167033Y331049D01*
X166777Y331212D01*
X166606Y331462D01*
X166546Y331760D01*
X166546Y332723D01*
X165374Y333895D01*
X164584Y333895D01*
X164309Y333946D01*
X164054Y334109D01*
X163882Y334359D01*
X163822Y334657D01*
X163822Y336102D01*
X156929Y342995D01*
X138195Y342995D01*
X137909Y343051D01*
X137656Y343218D01*
X136843Y344031D01*
X136680Y344273D01*
X136620Y344570D01*
X136620Y553804D01*
X128354Y562070D01*
X108884Y562070D01*
X108621Y562117D01*
X108363Y562276D01*
X108188Y562524D01*
X108122Y562820D01*
X108178Y563118D01*
X108346Y563371D01*
X111025Y566051D01*
X112490Y569586D01*
X112490Y573414D01*
X111025Y576949D01*
X108319Y579655D01*
X104784Y581120D01*
X85716Y581120D01*
X82181Y579655D01*
X79748Y577223D01*
X79507Y577060D01*
X79210Y577000D01*
X78270Y577000D01*
X77984Y577056D01*
X77732Y577223D01*
X73835Y581120D01*
X65865Y581120D01*
X60230Y575485D01*
X60230Y567515D01*
X64374Y563371D01*
X64527Y563151D01*
X64597Y562856D01*
X64546Y562557D01*
X64383Y562302D01*
X64133Y562130D01*
X63836Y562070D01*
X58820Y562070D01*
X58534Y562126D01*
X58281Y562293D01*
X54103Y566471D01*
X53945Y566702D01*
X53880Y566998D01*
X53936Y567296D01*
X54070Y567498D01*
X54070Y575485D01*
X48435Y581120D01*
X40465Y581120D01*
X36568Y577223D01*
X36327Y577060D01*
X36030Y577000D01*
X35090Y577000D01*
X34804Y577056D01*
X34552Y577223D01*
X32119Y579655D01*
X28584Y581120D01*
X9516Y581120D01*
X5981Y579655D01*
X3841Y577516D01*
X3621Y577363D01*
X3326Y577293D01*
X3027Y577344D01*
X2772Y577507D01*
X2600Y577757D01*
X2540Y578054D01*
X2540Y646698D01*
X2591Y646973D01*
X2755Y647228D01*
X3005Y647400D01*
X3302Y647460D01*
X726698Y647460D01*
X726973Y647409D01*
X727228Y647245D01*
X727400Y646995D01*
X727460Y646698D01*
X727460Y3302D01*
X727409Y3027D01*
X727245Y2772D01*
X726995Y2600D01*
G37*
%LPC*%
G36*
X439211Y602460D02*
X446189Y602460D01*
X452636Y605130D01*
X457570Y610064D01*
X460240Y616511D01*
X460240Y623489D01*
X457570Y629936D01*
X452636Y634870D01*
X446189Y637540D01*
X439211Y637540D01*
X432764Y634870D01*
X427830Y629936D01*
X425160Y623489D01*
X425160Y616511D01*
X427830Y610064D01*
X432764Y605130D01*
X439211Y602460D01*
G37*
G36*
X36511Y602460D02*
X43489Y602460D01*
X49936Y605130D01*
X54870Y610064D01*
X57540Y616511D01*
X57540Y623489D01*
X54870Y629936D01*
X49936Y634870D01*
X43489Y637540D01*
X36511Y637540D01*
X30064Y634870D01*
X25130Y629936D01*
X22460Y623489D01*
X22460Y616511D01*
X25130Y610064D01*
X30064Y605130D01*
X36511Y602460D01*
G37*
G36*
X671085Y616712D02*
X681863Y616712D01*
X681863Y627490D01*
X680330Y627490D01*
X676088Y625733D01*
X672842Y622487D01*
X671085Y618245D01*
X671085Y616712D01*
G37*
G36*
X683387Y616712D02*
X694165Y616712D01*
X694165Y618245D01*
X692408Y622487D01*
X689162Y625733D01*
X684920Y627490D01*
X683387Y627490D01*
X683387Y616712D01*
G37*
G36*
X619887Y616712D02*
X636905Y616712D01*
X636905Y617971D01*
X635358Y621705D01*
X632500Y624563D01*
X628766Y626110D01*
X619887Y626110D01*
X619887Y616712D01*
G37*
G36*
X601345Y616712D02*
X618363Y616712D01*
X618363Y626110D01*
X609484Y626110D01*
X605750Y624563D01*
X602892Y621705D01*
X601345Y617971D01*
X601345Y616712D01*
G37*
G36*
X683387Y604410D02*
X684920Y604410D01*
X689162Y606167D01*
X692408Y609413D01*
X694165Y613655D01*
X694165Y615188D01*
X683387Y615188D01*
X683387Y604410D01*
G37*
G36*
X680330Y604410D02*
X681863Y604410D01*
X681863Y615188D01*
X671085Y615188D01*
X671085Y613655D01*
X672842Y609413D01*
X676088Y606167D01*
X680330Y604410D01*
G37*
G36*
X619887Y605790D02*
X628766Y605790D01*
X632500Y607337D01*
X635358Y610195D01*
X636905Y613929D01*
X636905Y615188D01*
X619887Y615188D01*
X619887Y605790D01*
G37*
G36*
X609484Y605790D02*
X618363Y605790D01*
X618363Y615188D01*
X601345Y615188D01*
X601345Y613929D01*
X602892Y610195D01*
X605750Y607337D01*
X609484Y605790D01*
G37*
G36*
X619887Y591312D02*
X636905Y591312D01*
X636905Y592571D01*
X635358Y596305D01*
X632500Y599163D01*
X628766Y600710D01*
X619887Y600710D01*
X619887Y591312D01*
G37*
G36*
X601345Y591312D02*
X618363Y591312D01*
X618363Y600710D01*
X609484Y600710D01*
X605750Y599163D01*
X602892Y596305D01*
X601345Y592571D01*
X601345Y591312D01*
G37*
G36*
X619887Y580390D02*
X628766Y580390D01*
X632500Y581937D01*
X635358Y584795D01*
X636905Y588529D01*
X636905Y589788D01*
X619887Y589788D01*
X619887Y580390D01*
G37*
G36*
X609484Y580390D02*
X618363Y580390D01*
X618363Y589788D01*
X601345Y589788D01*
X601345Y588529D01*
X602892Y584795D01*
X605750Y581937D01*
X609484Y580390D01*
G37*
G36*
X305181Y572262D02*
X313563Y572262D01*
X313563Y587248D01*
X312506Y587248D01*
X309145Y585856D01*
X306573Y583284D01*
X305181Y579923D01*
X305181Y572262D01*
G37*
G36*
X279781Y572262D02*
X288163Y572262D01*
X288163Y587248D01*
X287106Y587248D01*
X283745Y585856D01*
X281173Y583284D01*
X279781Y579923D01*
X279781Y572262D01*
G37*
G36*
X365887Y572262D02*
X374269Y572262D01*
X374269Y579923D01*
X372877Y583284D01*
X370305Y585856D01*
X366944Y587248D01*
X365887Y587248D01*
X365887Y572262D01*
G37*
G36*
X254381Y572262D02*
X262763Y572262D01*
X262763Y587248D01*
X261706Y587248D01*
X258345Y585856D01*
X255773Y583284D01*
X254381Y579923D01*
X254381Y572262D01*
G37*
G36*
X355981Y572262D02*
X364363Y572262D01*
X364363Y587248D01*
X363306Y587248D01*
X359945Y585856D01*
X357373Y583284D01*
X355981Y579923D01*
X355981Y572262D01*
G37*
G36*
X330581Y572262D02*
X338963Y572262D01*
X338963Y587248D01*
X337906Y587248D01*
X334545Y585856D01*
X331973Y583284D01*
X330581Y579923D01*
X330581Y572262D01*
G37*
G36*
X340487Y572262D02*
X348869Y572262D01*
X348869Y579923D01*
X347477Y583284D01*
X344905Y585856D01*
X341544Y587248D01*
X340487Y587248D01*
X340487Y572262D01*
G37*
G36*
X264287Y572262D02*
X272669Y572262D01*
X272669Y579923D01*
X271277Y583284D01*
X268705Y585856D01*
X265344Y587248D01*
X264287Y587248D01*
X264287Y572262D01*
G37*
G36*
X289687Y572262D02*
X298069Y572262D01*
X298069Y579923D01*
X296677Y583284D01*
X294105Y585856D01*
X290744Y587248D01*
X289687Y587248D01*
X289687Y572262D01*
G37*
G36*
X315087Y572262D02*
X323469Y572262D01*
X323469Y579923D01*
X322077Y583284D01*
X319505Y585856D01*
X316144Y587248D01*
X315087Y587248D01*
X315087Y572262D01*
G37*
G36*
X388814Y556292D02*
X392236Y556292D01*
X395399Y557602D01*
X397819Y560022D01*
X399129Y563185D01*
X399129Y579815D01*
X397819Y582978D01*
X395399Y585398D01*
X392236Y586708D01*
X388814Y586708D01*
X385651Y585398D01*
X383231Y582978D01*
X381921Y579815D01*
X381921Y563185D01*
X383231Y560022D01*
X385651Y557602D01*
X388814Y556292D01*
G37*
G36*
X414214Y556292D02*
X417636Y556292D01*
X420799Y557602D01*
X423219Y560022D01*
X424529Y563185D01*
X424529Y579815D01*
X423219Y582978D01*
X420799Y585398D01*
X417636Y586708D01*
X414214Y586708D01*
X411051Y585398D01*
X408631Y582978D01*
X407321Y579815D01*
X407321Y563185D01*
X408631Y560022D01*
X411051Y557602D01*
X414214Y556292D01*
G37*
G36*
X372171Y279824D02*
X384139Y279824D01*
X385311Y280996D01*
X385311Y296854D01*
X384139Y298026D01*
X372171Y298026D01*
X370999Y296854D01*
X370999Y292957D01*
X370948Y292682D01*
X370784Y292427D01*
X370534Y292255D01*
X370237Y292195D01*
X366795Y292195D01*
X366509Y292251D01*
X366256Y292418D01*
X365443Y293231D01*
X365280Y293473D01*
X365220Y293770D01*
X365220Y299203D01*
X365233Y299269D01*
X365220Y300864D01*
X365220Y300870D01*
X365220Y309480D01*
X365276Y309766D01*
X365443Y310019D01*
X366256Y310832D01*
X366498Y310995D01*
X366795Y311055D01*
X370237Y311055D01*
X370512Y311004D01*
X370767Y310840D01*
X370939Y310590D01*
X370999Y310293D01*
X370999Y306396D01*
X372171Y305224D01*
X384139Y305224D01*
X385311Y306396D01*
X385311Y322254D01*
X384139Y323426D01*
X372171Y323426D01*
X370999Y322254D01*
X370999Y318357D01*
X370948Y318082D01*
X370784Y317827D01*
X370534Y317655D01*
X370237Y317595D01*
X363771Y317595D01*
X358680Y312504D01*
X358680Y304854D01*
X358631Y304585D01*
X358470Y304328D01*
X358221Y304155D01*
X357924Y304092D01*
X242569Y303177D01*
X242288Y303228D01*
X242033Y303391D01*
X241861Y303641D01*
X241801Y303939D01*
X241801Y305279D01*
X240629Y306451D01*
X238982Y306451D01*
X238707Y306502D01*
X238452Y306665D01*
X238280Y306915D01*
X238220Y307213D01*
X238220Y307359D01*
X238276Y307645D01*
X238443Y307897D01*
X239720Y309174D01*
X239720Y313126D01*
X236926Y315920D01*
X232974Y315920D01*
X231697Y314643D01*
X231456Y314480D01*
X231159Y314420D01*
X220155Y314420D01*
X219880Y314471D01*
X219625Y314635D01*
X219453Y314885D01*
X219393Y315182D01*
X219393Y319392D01*
X219440Y319655D01*
X219599Y319913D01*
X219847Y320088D01*
X220143Y320154D01*
X220441Y320098D01*
X220694Y319930D01*
X221544Y319080D01*
X225496Y319080D01*
X228290Y321874D01*
X228290Y325826D01*
X227013Y327103D01*
X226850Y327344D01*
X226790Y327641D01*
X226790Y330284D01*
X209868Y347206D01*
X209705Y347448D01*
X209645Y347745D01*
X209645Y395205D01*
X209701Y395491D01*
X209868Y395744D01*
X225520Y411396D01*
X225520Y503004D01*
X214079Y514445D01*
X201489Y514445D01*
X201214Y514496D01*
X200959Y514660D01*
X200787Y514910D01*
X200727Y515207D01*
X200727Y519330D01*
X199555Y520502D01*
X196936Y520502D01*
X196661Y520553D01*
X196406Y520716D01*
X196234Y520966D01*
X196174Y521264D01*
X196174Y538893D01*
X196225Y539168D01*
X196389Y539423D01*
X196639Y539595D01*
X196936Y539655D01*
X202584Y539655D01*
X202870Y539599D01*
X203122Y539432D01*
X204399Y538155D01*
X208351Y538155D01*
X211145Y540949D01*
X211145Y544901D01*
X208351Y547695D01*
X204399Y547695D01*
X203122Y546418D01*
X202881Y546255D01*
X202584Y546195D01*
X196936Y546195D01*
X196661Y546246D01*
X196406Y546410D01*
X196234Y546660D01*
X196174Y546957D01*
X196174Y561637D01*
X196225Y561912D01*
X196389Y562167D01*
X196639Y562339D01*
X196936Y562399D01*
X199329Y562399D01*
X200501Y563571D01*
X200501Y566238D01*
X200552Y566513D01*
X200716Y566768D01*
X200966Y566940D01*
X201263Y567000D01*
X205518Y567000D01*
X205793Y566949D01*
X206048Y566785D01*
X206220Y566535D01*
X206280Y566238D01*
X206280Y566200D01*
X213775Y558705D01*
X224375Y558705D01*
X231870Y566200D01*
X231870Y576800D01*
X224375Y584295D01*
X213775Y584295D01*
X206280Y576800D01*
X206280Y576762D01*
X206229Y576487D01*
X206065Y576232D01*
X205815Y576060D01*
X205518Y576000D01*
X201263Y576000D01*
X200988Y576051D01*
X200733Y576215D01*
X200561Y576465D01*
X200501Y576762D01*
X200501Y579429D01*
X199329Y580601D01*
X187361Y580601D01*
X186189Y579429D01*
X186189Y563571D01*
X187361Y562399D01*
X188872Y562399D01*
X189147Y562348D01*
X189402Y562184D01*
X189574Y561934D01*
X189634Y561637D01*
X189634Y521264D01*
X189583Y520989D01*
X189419Y520733D01*
X189169Y520562D01*
X188872Y520502D01*
X186253Y520502D01*
X185060Y519309D01*
X184840Y519156D01*
X184545Y519086D01*
X184246Y519137D01*
X183991Y519300D01*
X183944Y519369D01*
X182271Y521042D01*
X176158Y521042D01*
X176158Y501309D01*
X182271Y501309D01*
X183931Y502969D01*
X183965Y503024D01*
X184213Y503199D01*
X184509Y503264D01*
X184807Y503209D01*
X185060Y503041D01*
X186253Y501849D01*
X199555Y501849D01*
X200727Y503020D01*
X200727Y507143D01*
X200778Y507418D01*
X200942Y507673D01*
X201192Y507845D01*
X201489Y507905D01*
X211055Y507905D01*
X211341Y507849D01*
X211594Y507682D01*
X218757Y500519D01*
X218920Y500277D01*
X218980Y499980D01*
X218980Y414420D01*
X218924Y414134D01*
X218757Y413881D01*
X203105Y398229D01*
X203105Y344721D01*
X219836Y327989D01*
X219994Y327759D01*
X220059Y327463D01*
X220004Y327165D01*
X219836Y326912D01*
X219712Y326788D01*
X219482Y326630D01*
X219186Y326565D01*
X218888Y326621D01*
X218635Y326788D01*
X218221Y327202D01*
X194529Y327202D01*
X193357Y326030D01*
X193357Y320256D01*
X193306Y319981D01*
X193142Y319726D01*
X192892Y319554D01*
X192595Y319494D01*
X187870Y319494D01*
X176669Y308293D01*
X176427Y308130D01*
X176130Y308070D01*
X173863Y308070D01*
X173588Y308121D01*
X173333Y308285D01*
X173161Y308535D01*
X173101Y308832D01*
X173101Y310479D01*
X171929Y311651D01*
X161273Y311651D01*
X160101Y310479D01*
X160101Y299121D01*
X161273Y297949D01*
X171929Y297949D01*
X173101Y299121D01*
X173101Y300768D01*
X173152Y301043D01*
X173316Y301298D01*
X173566Y301470D01*
X173863Y301530D01*
X179154Y301530D01*
X190355Y312731D01*
X190597Y312894D01*
X190894Y312954D01*
X192595Y312954D01*
X192870Y312903D01*
X193125Y312739D01*
X193297Y312489D01*
X193357Y312192D01*
X193357Y306418D01*
X194529Y305247D01*
X218221Y305247D01*
X219393Y306418D01*
X219393Y307118D01*
X219444Y307393D01*
X219608Y307648D01*
X219858Y307820D01*
X220155Y307880D01*
X228860Y307880D01*
X229124Y307833D01*
X229382Y307674D01*
X229557Y307426D01*
X229622Y307130D01*
X229567Y306832D01*
X229399Y306579D01*
X228099Y305279D01*
X228099Y294413D01*
X229271Y293242D01*
X240629Y293242D01*
X241801Y294413D01*
X241801Y295874D01*
X241850Y296143D01*
X242011Y296400D01*
X242260Y296574D01*
X242557Y296636D01*
X357912Y297552D01*
X358193Y297501D01*
X358448Y297337D01*
X358620Y297087D01*
X358680Y296790D01*
X358680Y290746D01*
X363771Y285655D01*
X370237Y285655D01*
X370512Y285604D01*
X370767Y285440D01*
X370939Y285190D01*
X370999Y284893D01*
X370999Y280996D01*
X372171Y279824D01*
G37*
G36*
X168971Y562399D02*
X180939Y562399D01*
X182111Y563571D01*
X182111Y579429D01*
X180939Y580601D01*
X168971Y580601D01*
X167799Y579429D01*
X167799Y576762D01*
X167748Y576487D01*
X167584Y576232D01*
X167334Y576060D01*
X167037Y576000D01*
X164486Y576000D01*
X164200Y576056D01*
X163948Y576223D01*
X163901Y576270D01*
X159949Y576270D01*
X157155Y573476D01*
X157155Y569524D01*
X159949Y566730D01*
X163901Y566730D01*
X163948Y566777D01*
X164189Y566940D01*
X164486Y567000D01*
X167037Y567000D01*
X167312Y566949D01*
X167567Y566785D01*
X167739Y566535D01*
X167799Y566238D01*
X167799Y563571D01*
X168971Y562399D01*
G37*
G36*
X680437Y554150D02*
X684813Y554150D01*
X688856Y555825D01*
X691950Y558919D01*
X693625Y562962D01*
X693625Y567338D01*
X691950Y571381D01*
X688856Y574475D01*
X684813Y576150D01*
X680437Y576150D01*
X676394Y574475D01*
X674292Y572373D01*
X674050Y572210D01*
X673753Y572150D01*
X633665Y572150D01*
X633379Y572206D01*
X633127Y572373D01*
X632194Y573305D01*
X628659Y574770D01*
X609591Y574770D01*
X606056Y573305D01*
X603350Y570599D01*
X601885Y567064D01*
X601885Y563236D01*
X603350Y559701D01*
X606056Y556995D01*
X609591Y555530D01*
X628659Y555530D01*
X632194Y556995D01*
X633127Y557927D01*
X633368Y558090D01*
X633665Y558150D01*
X673753Y558150D01*
X674039Y558094D01*
X674292Y557927D01*
X676394Y555825D01*
X680437Y554150D01*
G37*
G36*
X315087Y555752D02*
X316144Y555752D01*
X319505Y557144D01*
X322077Y559716D01*
X323469Y563077D01*
X323469Y570738D01*
X315087Y570738D01*
X315087Y555752D01*
G37*
G36*
X312506Y555752D02*
X313563Y555752D01*
X313563Y570738D01*
X305181Y570738D01*
X305181Y563077D01*
X306573Y559716D01*
X309145Y557144D01*
X312506Y555752D01*
G37*
G36*
X289687Y555752D02*
X290744Y555752D01*
X294105Y557144D01*
X296677Y559716D01*
X298069Y563077D01*
X298069Y570738D01*
X289687Y570738D01*
X289687Y555752D01*
G37*
G36*
X287106Y555752D02*
X288163Y555752D01*
X288163Y570738D01*
X279781Y570738D01*
X279781Y563077D01*
X281173Y559716D01*
X283745Y557144D01*
X287106Y555752D01*
G37*
G36*
X264287Y555752D02*
X265344Y555752D01*
X268705Y557144D01*
X271277Y559716D01*
X272669Y563077D01*
X272669Y570738D01*
X264287Y570738D01*
X264287Y555752D01*
G37*
G36*
X261706Y555752D02*
X262763Y555752D01*
X262763Y570738D01*
X254381Y570738D01*
X254381Y563077D01*
X255773Y559716D01*
X258345Y557144D01*
X261706Y555752D01*
G37*
G36*
X340487Y555752D02*
X341544Y555752D01*
X344905Y557144D01*
X347477Y559716D01*
X348869Y563077D01*
X348869Y570738D01*
X340487Y570738D01*
X340487Y555752D01*
G37*
G36*
X365887Y555752D02*
X366944Y555752D01*
X370305Y557144D01*
X372877Y559716D01*
X374269Y563077D01*
X374269Y570738D01*
X365887Y570738D01*
X365887Y555752D01*
G37*
G36*
X363306Y555752D02*
X364363Y555752D01*
X364363Y570738D01*
X355981Y570738D01*
X355981Y563077D01*
X357373Y559716D01*
X359945Y557144D01*
X363306Y555752D01*
G37*
G36*
X337906Y555752D02*
X338963Y555752D01*
X338963Y570738D01*
X330581Y570738D01*
X330581Y563077D01*
X331973Y559716D01*
X334545Y557144D01*
X337906Y555752D01*
G37*
G36*
X176449Y536135D02*
X179151Y536135D01*
X181646Y537169D01*
X183556Y539079D01*
X184590Y541574D01*
X184590Y544276D01*
X183556Y546771D01*
X181646Y548681D01*
X179151Y549715D01*
X176449Y549715D01*
X173954Y548681D01*
X172044Y546771D01*
X171010Y544276D01*
X171010Y541574D01*
X172044Y539079D01*
X173954Y537169D01*
X176449Y536135D01*
G37*
G36*
X257827Y526034D02*
X269223Y526034D01*
X270395Y527205D01*
X270395Y536849D01*
X269248Y537995D01*
X269085Y538237D01*
X269025Y538534D01*
X269025Y542114D01*
X268188Y544136D01*
X266641Y545683D01*
X264619Y546520D01*
X262431Y546520D01*
X260410Y545683D01*
X258862Y544136D01*
X258025Y542114D01*
X258025Y538534D01*
X257969Y538248D01*
X257802Y537995D01*
X256656Y536849D01*
X256656Y527205D01*
X257827Y526034D01*
G37*
G36*
X359427Y526034D02*
X370823Y526034D01*
X371995Y527205D01*
X371995Y536849D01*
X370848Y537995D01*
X370685Y538237D01*
X370625Y538534D01*
X370625Y542114D01*
X369788Y544136D01*
X368241Y545683D01*
X366219Y546520D01*
X364031Y546520D01*
X362010Y545683D01*
X360462Y544136D01*
X359625Y542114D01*
X359625Y538534D01*
X359569Y538248D01*
X359402Y537995D01*
X358256Y536849D01*
X358256Y527205D01*
X359427Y526034D01*
G37*
G36*
X308627Y526034D02*
X320023Y526034D01*
X321195Y527205D01*
X321195Y536849D01*
X320048Y537995D01*
X319885Y538237D01*
X319825Y538534D01*
X319825Y542114D01*
X318988Y544136D01*
X317441Y545683D01*
X315419Y546520D01*
X313231Y546520D01*
X311210Y545683D01*
X309662Y544136D01*
X308825Y542114D01*
X308825Y538534D01*
X308769Y538248D01*
X308602Y537995D01*
X307456Y536849D01*
X307456Y527205D01*
X308627Y526034D01*
G37*
G36*
X334027Y526034D02*
X345423Y526034D01*
X346595Y527205D01*
X346595Y536849D01*
X345448Y537995D01*
X345285Y538237D01*
X345225Y538534D01*
X345225Y542114D01*
X344388Y544136D01*
X342841Y545683D01*
X340819Y546520D01*
X338631Y546520D01*
X336610Y545683D01*
X335062Y544136D01*
X334225Y542114D01*
X334225Y538534D01*
X334169Y538248D01*
X334002Y537995D01*
X332856Y536849D01*
X332856Y527205D01*
X334027Y526034D01*
G37*
G36*
X283227Y526034D02*
X294623Y526034D01*
X295795Y527205D01*
X295795Y536849D01*
X294648Y537995D01*
X294485Y538237D01*
X294425Y538534D01*
X294425Y542114D01*
X293588Y544136D01*
X292041Y545683D01*
X290019Y546520D01*
X287831Y546520D01*
X285810Y545683D01*
X284262Y544136D01*
X283425Y542114D01*
X283425Y538534D01*
X283369Y538248D01*
X283202Y537995D01*
X282056Y536849D01*
X282056Y527205D01*
X283227Y526034D01*
G37*
G36*
X445699Y536250D02*
X449651Y536250D01*
X452445Y539044D01*
X452445Y542996D01*
X449651Y545790D01*
X445699Y545790D01*
X442905Y542996D01*
X442905Y539044D01*
X445699Y536250D01*
G37*
G36*
X226624Y534980D02*
X230576Y534980D01*
X233370Y537774D01*
X233370Y541726D01*
X230576Y544520D01*
X226624Y544520D01*
X223830Y541726D01*
X223830Y537774D01*
X226624Y534980D01*
G37*
G36*
X416687Y532789D02*
X423335Y532789D01*
X423335Y537073D01*
X421847Y538561D01*
X416687Y538561D01*
X416687Y532789D01*
G37*
G36*
X391287Y532789D02*
X397935Y532789D01*
X397935Y537073D01*
X396447Y538561D01*
X391287Y538561D01*
X391287Y532789D01*
G37*
G36*
X383116Y532789D02*
X389763Y532789D01*
X389763Y538561D01*
X384603Y538561D01*
X383116Y537073D01*
X383116Y532789D01*
G37*
G36*
X408516Y532789D02*
X415163Y532789D01*
X415163Y538561D01*
X410003Y538561D01*
X408516Y537073D01*
X408516Y532789D01*
G37*
G36*
X416687Y525494D02*
X421847Y525494D01*
X423335Y526981D01*
X423335Y531265D01*
X416687Y531265D01*
X416687Y525494D01*
G37*
G36*
X391287Y525494D02*
X396447Y525494D01*
X397935Y526981D01*
X397935Y531265D01*
X391287Y531265D01*
X391287Y525494D01*
G37*
G36*
X384603Y525494D02*
X389763Y525494D01*
X389763Y531265D01*
X383116Y531265D01*
X383116Y526981D01*
X384603Y525494D01*
G37*
G36*
X410003Y525494D02*
X415163Y525494D01*
X415163Y531265D01*
X408516Y531265D01*
X408516Y526981D01*
X410003Y525494D01*
G37*
G36*
X118674Y514025D02*
X122626Y514025D01*
X125420Y516819D01*
X125420Y520771D01*
X122626Y523565D01*
X118674Y523565D01*
X115880Y520771D01*
X115880Y516819D01*
X118674Y514025D01*
G37*
G36*
X287214Y480092D02*
X290636Y480092D01*
X293799Y481402D01*
X296219Y483822D01*
X297529Y486985D01*
X297529Y503615D01*
X296219Y506778D01*
X294484Y508513D01*
X294326Y508743D01*
X294261Y509040D01*
X294317Y509338D01*
X294484Y509591D01*
X295795Y510901D01*
X295795Y520545D01*
X294623Y521717D01*
X283227Y521717D01*
X282056Y520545D01*
X282056Y510901D01*
X283366Y509591D01*
X283524Y509360D01*
X283589Y509064D01*
X283534Y508766D01*
X283366Y508513D01*
X281631Y506778D01*
X280321Y503615D01*
X280321Y486985D01*
X281631Y483822D01*
X284051Y481402D01*
X287214Y480092D01*
G37*
G36*
X236149Y319080D02*
X240101Y319080D01*
X242895Y321874D01*
X242895Y325826D01*
X241618Y327103D01*
X241455Y327344D01*
X241395Y327641D01*
X241395Y334880D01*
X241451Y335166D01*
X241618Y335419D01*
X242431Y336232D01*
X242673Y336395D01*
X242970Y336455D01*
X271229Y336455D01*
X279495Y344721D01*
X279495Y426955D01*
X279551Y427241D01*
X279718Y427494D01*
X280531Y428307D01*
X280773Y428470D01*
X281070Y428530D01*
X414104Y428530D01*
X419195Y433621D01*
X419195Y480228D01*
X419248Y480509D01*
X419414Y480763D01*
X419665Y480932D01*
X420799Y481402D01*
X423219Y483822D01*
X424529Y486985D01*
X424529Y503615D01*
X423219Y506778D01*
X421484Y508513D01*
X421326Y508743D01*
X421261Y509040D01*
X421317Y509338D01*
X421484Y509591D01*
X422795Y510901D01*
X422795Y520545D01*
X421623Y521717D01*
X410227Y521717D01*
X409056Y520545D01*
X409056Y510901D01*
X410366Y509591D01*
X410524Y509360D01*
X410589Y509064D01*
X410534Y508766D01*
X410366Y508513D01*
X408631Y506778D01*
X407321Y503615D01*
X407321Y486985D01*
X408631Y483822D01*
X411051Y481402D01*
X412185Y480932D01*
X412423Y480776D01*
X412595Y480526D01*
X412655Y480228D01*
X412655Y436645D01*
X412599Y436359D01*
X412432Y436106D01*
X411619Y435293D01*
X411377Y435130D01*
X411080Y435070D01*
X278046Y435070D01*
X272955Y429979D01*
X272955Y347745D01*
X272899Y347459D01*
X272732Y347206D01*
X268744Y343218D01*
X268502Y343055D01*
X268205Y342995D01*
X239946Y342995D01*
X234855Y337904D01*
X234855Y327641D01*
X234799Y327355D01*
X234632Y327103D01*
X233355Y325826D01*
X233355Y321874D01*
X236149Y319080D01*
G37*
G36*
X217099Y347655D02*
X221051Y347655D01*
X222328Y348932D01*
X222569Y349095D01*
X222866Y349155D01*
X245829Y349155D01*
X254095Y357421D01*
X254095Y452355D01*
X254151Y452641D01*
X254318Y452894D01*
X255131Y453707D01*
X255373Y453870D01*
X255670Y453930D01*
X388704Y453930D01*
X393795Y459021D01*
X393795Y480228D01*
X393848Y480509D01*
X394014Y480763D01*
X394265Y480932D01*
X395399Y481402D01*
X397819Y483822D01*
X399129Y486985D01*
X399129Y503615D01*
X397819Y506778D01*
X396084Y508513D01*
X395926Y508743D01*
X395861Y509040D01*
X395917Y509338D01*
X396084Y509591D01*
X397395Y510901D01*
X397395Y520545D01*
X396223Y521717D01*
X384827Y521717D01*
X383656Y520545D01*
X383656Y510901D01*
X384966Y509591D01*
X385124Y509360D01*
X385189Y509064D01*
X385134Y508766D01*
X384966Y508513D01*
X383231Y506778D01*
X381921Y503615D01*
X381921Y486985D01*
X383231Y483822D01*
X385651Y481402D01*
X386785Y480932D01*
X387023Y480776D01*
X387195Y480526D01*
X387255Y480228D01*
X387255Y462045D01*
X387199Y461759D01*
X387032Y461506D01*
X386219Y460693D01*
X385977Y460530D01*
X385680Y460470D01*
X252646Y460470D01*
X247555Y455379D01*
X247555Y360445D01*
X247499Y360159D01*
X247332Y359906D01*
X243344Y355918D01*
X243102Y355755D01*
X242805Y355695D01*
X222866Y355695D01*
X222580Y355751D01*
X222328Y355918D01*
X221051Y357195D01*
X217099Y357195D01*
X214305Y354401D01*
X214305Y350449D01*
X217099Y347655D01*
G37*
G36*
X363414Y480092D02*
X366836Y480092D01*
X369999Y481402D01*
X372419Y483822D01*
X373729Y486985D01*
X373729Y503615D01*
X372419Y506778D01*
X370684Y508513D01*
X370526Y508743D01*
X370461Y509040D01*
X370517Y509338D01*
X370684Y509591D01*
X371995Y510901D01*
X371995Y520545D01*
X370823Y521717D01*
X359427Y521717D01*
X358256Y520545D01*
X358256Y510901D01*
X359566Y509591D01*
X359724Y509360D01*
X359789Y509064D01*
X359734Y508766D01*
X359566Y508513D01*
X357831Y506778D01*
X356521Y503615D01*
X356521Y486985D01*
X357831Y483822D01*
X360251Y481402D01*
X363414Y480092D01*
G37*
G36*
X338014Y480092D02*
X341436Y480092D01*
X344599Y481402D01*
X347019Y483822D01*
X348329Y486985D01*
X348329Y503615D01*
X347019Y506778D01*
X345284Y508513D01*
X345126Y508743D01*
X345061Y509040D01*
X345117Y509338D01*
X345284Y509591D01*
X346595Y510901D01*
X346595Y520545D01*
X345423Y521717D01*
X334027Y521717D01*
X332856Y520545D01*
X332856Y510901D01*
X334166Y509591D01*
X334324Y509360D01*
X334389Y509064D01*
X334334Y508766D01*
X334166Y508513D01*
X332431Y506778D01*
X331121Y503615D01*
X331121Y486985D01*
X332431Y483822D01*
X334851Y481402D01*
X338014Y480092D01*
G37*
G36*
X312614Y480092D02*
X316036Y480092D01*
X319199Y481402D01*
X321619Y483822D01*
X322929Y486985D01*
X322929Y503615D01*
X321619Y506778D01*
X319884Y508513D01*
X319726Y508743D01*
X319661Y509040D01*
X319717Y509338D01*
X319884Y509591D01*
X321195Y510901D01*
X321195Y520545D01*
X320023Y521717D01*
X308627Y521717D01*
X307456Y520545D01*
X307456Y510901D01*
X308766Y509591D01*
X308924Y509360D01*
X308989Y509064D01*
X308934Y508766D01*
X308766Y508513D01*
X307031Y506778D01*
X305721Y503615D01*
X305721Y486985D01*
X307031Y483822D01*
X309451Y481402D01*
X312614Y480092D01*
G37*
G36*
X261814Y480092D02*
X265236Y480092D01*
X268399Y481402D01*
X270819Y483822D01*
X272129Y486985D01*
X272129Y503615D01*
X270819Y506778D01*
X269084Y508513D01*
X268926Y508743D01*
X268861Y509040D01*
X268917Y509338D01*
X269084Y509591D01*
X270395Y510901D01*
X270395Y520545D01*
X269223Y521717D01*
X257827Y521717D01*
X256656Y520545D01*
X256656Y510901D01*
X257966Y509591D01*
X258124Y509360D01*
X258189Y509064D01*
X258134Y508766D01*
X257966Y508513D01*
X256231Y506778D01*
X254921Y503615D01*
X254921Y486985D01*
X256231Y483822D01*
X258651Y481402D01*
X261814Y480092D01*
G37*
G36*
X167033Y511937D02*
X174634Y511937D01*
X174634Y521042D01*
X168521Y521042D01*
X167033Y519554D01*
X167033Y511937D01*
G37*
G36*
X553649Y509580D02*
X557601Y509580D01*
X560395Y512374D01*
X560395Y516326D01*
X557601Y519120D01*
X553649Y519120D01*
X550855Y516326D01*
X550855Y512374D01*
X553649Y509580D01*
G37*
G36*
X226624Y506405D02*
X230576Y506405D01*
X233370Y509199D01*
X233370Y513151D01*
X230576Y515945D01*
X226624Y515945D01*
X223830Y513151D01*
X223830Y509199D01*
X226624Y506405D01*
G37*
G36*
X168521Y501309D02*
X174634Y501309D01*
X174634Y510413D01*
X167033Y510413D01*
X167033Y502796D01*
X168521Y501309D01*
G37*
G36*
X511166Y486276D02*
X530234Y486276D01*
X533769Y487740D01*
X536475Y490446D01*
X537940Y493982D01*
X537940Y497809D01*
X536475Y501345D01*
X533769Y504051D01*
X530234Y505516D01*
X511166Y505516D01*
X507631Y504051D01*
X504925Y501345D01*
X503460Y497809D01*
X503460Y493982D01*
X504925Y490446D01*
X507631Y487740D01*
X511166Y486276D01*
G37*
G36*
X671085Y492887D02*
X681863Y492887D01*
X681863Y503665D01*
X680330Y503665D01*
X676088Y501908D01*
X672842Y498662D01*
X671085Y494420D01*
X671085Y492887D01*
G37*
G36*
X683387Y492887D02*
X694165Y492887D01*
X694165Y494420D01*
X692408Y498662D01*
X689162Y501908D01*
X684920Y503665D01*
X683387Y503665D01*
X683387Y492887D01*
G37*
G36*
X601345Y492887D02*
X618363Y492887D01*
X618363Y502285D01*
X609484Y502285D01*
X605750Y500738D01*
X602892Y497880D01*
X601345Y494146D01*
X601345Y492887D01*
G37*
G36*
X619887Y492887D02*
X636905Y492887D01*
X636905Y494146D01*
X635358Y497880D01*
X632500Y500738D01*
X628766Y502285D01*
X619887Y502285D01*
X619887Y492887D01*
G37*
G36*
X118674Y491800D02*
X122626Y491800D01*
X125420Y494594D01*
X125420Y498546D01*
X122626Y501340D01*
X118674Y501340D01*
X115880Y498546D01*
X115880Y494594D01*
X118674Y491800D01*
G37*
G36*
X200579Y420475D02*
X203821Y420475D01*
X206817Y421716D01*
X209109Y424008D01*
X210350Y427004D01*
X210350Y430246D01*
X209109Y433242D01*
X206923Y435428D01*
X206760Y435669D01*
X206700Y435966D01*
X206700Y459158D01*
X206753Y459438D01*
X206919Y459692D01*
X207170Y459862D01*
X208649Y460475D01*
X211355Y463181D01*
X212820Y466716D01*
X212820Y485784D01*
X211355Y489319D01*
X208649Y492025D01*
X205114Y493490D01*
X201286Y493490D01*
X197751Y492025D01*
X195045Y489319D01*
X193580Y485784D01*
X193580Y466716D01*
X195045Y463181D01*
X197477Y460748D01*
X197640Y460507D01*
X197700Y460210D01*
X197700Y435966D01*
X197644Y435681D01*
X197477Y435428D01*
X195291Y433242D01*
X194050Y430246D01*
X194050Y427004D01*
X195291Y424008D01*
X197583Y421716D01*
X200579Y420475D01*
G37*
G36*
X151779Y420475D02*
X155021Y420475D01*
X158017Y421716D01*
X160309Y424008D01*
X161550Y427004D01*
X161550Y430246D01*
X160309Y433242D01*
X158123Y435428D01*
X157960Y435669D01*
X157900Y435966D01*
X157900Y460210D01*
X157956Y460496D01*
X158123Y460748D01*
X160555Y463181D01*
X162020Y466716D01*
X162020Y485784D01*
X160555Y489319D01*
X157849Y492025D01*
X154314Y493490D01*
X150486Y493490D01*
X146951Y492025D01*
X144245Y489319D01*
X142780Y485784D01*
X142780Y466716D01*
X144245Y463181D01*
X146951Y460475D01*
X148430Y459862D01*
X148668Y459705D01*
X148840Y459455D01*
X148900Y459158D01*
X148900Y435966D01*
X148844Y435681D01*
X148677Y435428D01*
X146491Y433242D01*
X145250Y430246D01*
X145250Y427004D01*
X146491Y424008D01*
X148783Y421716D01*
X151779Y420475D01*
G37*
G36*
X175886Y459010D02*
X179714Y459010D01*
X183249Y460475D01*
X185955Y463181D01*
X187420Y466716D01*
X187420Y485784D01*
X185955Y489319D01*
X183249Y492025D01*
X179714Y493490D01*
X175886Y493490D01*
X172351Y492025D01*
X169645Y489319D01*
X168180Y485784D01*
X168180Y466716D01*
X169645Y463181D01*
X172351Y460475D01*
X175886Y459010D01*
G37*
G36*
X445699Y482275D02*
X449651Y482275D01*
X452445Y485069D01*
X452445Y489021D01*
X449651Y491815D01*
X445699Y491815D01*
X442905Y489021D01*
X442905Y485069D01*
X445699Y482275D01*
G37*
G36*
X609484Y481965D02*
X618363Y481965D01*
X618363Y491363D01*
X601345Y491363D01*
X601345Y490104D01*
X602892Y486370D01*
X605750Y483512D01*
X609484Y481965D01*
G37*
G36*
X619887Y481965D02*
X628766Y481965D01*
X632500Y483512D01*
X635358Y486370D01*
X636905Y490104D01*
X636905Y491363D01*
X619887Y491363D01*
X619887Y481965D01*
G37*
G36*
X683387Y480585D02*
X684920Y480585D01*
X689162Y482342D01*
X692408Y485588D01*
X694165Y489830D01*
X694165Y491363D01*
X683387Y491363D01*
X683387Y480585D01*
G37*
G36*
X680330Y480585D02*
X681863Y480585D01*
X681863Y491363D01*
X671085Y491363D01*
X671085Y489830D01*
X672842Y485588D01*
X676088Y482342D01*
X680330Y480585D01*
G37*
G36*
X483799Y477830D02*
X487751Y477830D01*
X490545Y480624D01*
X490545Y484576D01*
X487751Y487370D01*
X483799Y487370D01*
X481005Y484576D01*
X481005Y480624D01*
X483799Y477830D01*
G37*
G36*
X467924Y477830D02*
X471876Y477830D01*
X474670Y480624D01*
X474670Y484576D01*
X471876Y487370D01*
X467924Y487370D01*
X465130Y484576D01*
X465130Y480624D01*
X467924Y477830D01*
G37*
G36*
X511166Y460876D02*
X530234Y460876D01*
X533769Y462340D01*
X536475Y465046D01*
X537940Y468582D01*
X537940Y472409D01*
X536475Y475945D01*
X533769Y478651D01*
X530234Y480116D01*
X511166Y480116D01*
X507631Y478651D01*
X504925Y475945D01*
X503460Y472409D01*
X503460Y468582D01*
X504925Y465046D01*
X507631Y462340D01*
X511166Y460876D01*
G37*
G36*
X619887Y467487D02*
X636905Y467487D01*
X636905Y468746D01*
X635358Y472480D01*
X632500Y475338D01*
X628766Y476885D01*
X619887Y476885D01*
X619887Y467487D01*
G37*
G36*
X601345Y467487D02*
X618363Y467487D01*
X618363Y476885D01*
X609484Y476885D01*
X605750Y475338D01*
X602892Y472480D01*
X601345Y468746D01*
X601345Y467487D01*
G37*
G36*
X467924Y465130D02*
X471876Y465130D01*
X474670Y467924D01*
X474670Y471876D01*
X471876Y474670D01*
X467924Y474670D01*
X465130Y471876D01*
X465130Y467924D01*
X467924Y465130D01*
G37*
G36*
X609484Y456565D02*
X618363Y456565D01*
X618363Y465963D01*
X601345Y465963D01*
X601345Y464704D01*
X602892Y460970D01*
X605750Y458112D01*
X609484Y456565D01*
G37*
G36*
X619887Y456565D02*
X628766Y456565D01*
X632500Y458112D01*
X635358Y460970D01*
X636905Y464704D01*
X636905Y465963D01*
X619887Y465963D01*
X619887Y456565D01*
G37*
G36*
X511166Y435476D02*
X530234Y435476D01*
X533769Y436940D01*
X536475Y439646D01*
X537940Y443182D01*
X537940Y447009D01*
X536475Y450545D01*
X533769Y453251D01*
X530234Y454716D01*
X511166Y454716D01*
X507631Y453251D01*
X504925Y450545D01*
X503460Y447009D01*
X503460Y443182D01*
X504925Y439646D01*
X507631Y436940D01*
X511166Y435476D01*
G37*
G36*
X96012Y445262D02*
X113030Y445262D01*
X113030Y446521D01*
X111483Y450255D01*
X108625Y453113D01*
X104891Y454660D01*
X96012Y454660D01*
X96012Y445262D01*
G37*
G36*
X70612Y434340D02*
X74058Y434340D01*
X78201Y438483D01*
X78432Y438641D01*
X78728Y438706D01*
X79026Y438650D01*
X79279Y438483D01*
X81875Y435887D01*
X85609Y434340D01*
X94488Y434340D01*
X94488Y454660D01*
X85609Y454660D01*
X81875Y453113D01*
X79279Y450517D01*
X79048Y450359D01*
X78752Y450294D01*
X78454Y450350D01*
X78201Y450517D01*
X74058Y454660D01*
X70612Y454660D01*
X70612Y434340D01*
G37*
G36*
X680437Y430325D02*
X684813Y430325D01*
X688856Y432000D01*
X691950Y435094D01*
X693625Y439137D01*
X693625Y443513D01*
X691950Y447556D01*
X688856Y450650D01*
X684813Y452325D01*
X680437Y452325D01*
X676394Y450650D01*
X674292Y448548D01*
X674050Y448385D01*
X673753Y448325D01*
X633665Y448325D01*
X633379Y448381D01*
X633127Y448548D01*
X632194Y449480D01*
X628659Y450945D01*
X609591Y450945D01*
X606056Y449480D01*
X603350Y446774D01*
X601885Y443239D01*
X601885Y439411D01*
X603350Y435876D01*
X606056Y433170D01*
X609591Y431705D01*
X628659Y431705D01*
X632194Y433170D01*
X633127Y434102D01*
X633368Y434265D01*
X633665Y434325D01*
X673753Y434325D01*
X674039Y434269D01*
X674292Y434102D01*
X676394Y432000D01*
X680437Y430325D01*
G37*
G36*
X96012Y434340D02*
X104891Y434340D01*
X108625Y435887D01*
X111483Y438745D01*
X113030Y442479D01*
X113030Y443738D01*
X96012Y443738D01*
X96012Y434340D01*
G37*
G36*
X446511Y402460D02*
X453489Y402460D01*
X459936Y405130D01*
X464870Y410064D01*
X467540Y416511D01*
X467540Y423489D01*
X464870Y429936D01*
X459936Y434870D01*
X453489Y437540D01*
X446511Y437540D01*
X440064Y434870D01*
X435130Y429936D01*
X432460Y423489D01*
X432460Y416511D01*
X435130Y410064D01*
X440064Y405130D01*
X446511Y402460D01*
G37*
G36*
X606465Y153575D02*
X714342Y153575D01*
X714714Y153607D01*
X715042Y153692D01*
X715351Y153833D01*
X715632Y154023D01*
X715877Y154259D01*
X716078Y154532D01*
X716230Y154836D01*
X716327Y155154D01*
X716375Y155615D01*
X716375Y406367D01*
X716343Y406739D01*
X716258Y407067D01*
X716117Y407376D01*
X715927Y407657D01*
X715691Y407902D01*
X715418Y408103D01*
X715114Y408255D01*
X714796Y408352D01*
X714335Y408400D01*
X635033Y408400D01*
X634662Y408368D01*
X634333Y408283D01*
X634024Y408142D01*
X633743Y407952D01*
X633498Y407716D01*
X633297Y407443D01*
X633145Y407139D01*
X633048Y406821D01*
X633000Y406360D01*
X633000Y397669D01*
X632942Y397377D01*
X631775Y394560D01*
X631775Y388990D01*
X632942Y386173D01*
X633000Y385881D01*
X633000Y357714D01*
X632953Y357451D01*
X632794Y357193D01*
X632546Y357017D01*
X632250Y356952D01*
X631952Y357008D01*
X631699Y357175D01*
X626829Y362045D01*
X596315Y362045D01*
X596034Y362098D01*
X595780Y362264D01*
X595611Y362515D01*
X595039Y363896D01*
X592496Y366439D01*
X589173Y367815D01*
X585577Y367815D01*
X582254Y366439D01*
X579711Y363896D01*
X578335Y360573D01*
X578335Y356977D01*
X579711Y353654D01*
X582254Y351111D01*
X585577Y349735D01*
X589173Y349735D01*
X592496Y351111D01*
X595039Y353654D01*
X595611Y355035D01*
X595767Y355273D01*
X596017Y355445D01*
X596315Y355505D01*
X608088Y355505D01*
X608345Y355460D01*
X608604Y355303D01*
X608782Y355057D01*
X608849Y354761D01*
X608796Y354463D01*
X608631Y354209D01*
X608379Y354039D01*
X607654Y353739D01*
X605111Y351196D01*
X603735Y347873D01*
X603735Y344277D01*
X605111Y340954D01*
X607654Y338411D01*
X610977Y337035D01*
X614573Y337035D01*
X617896Y338411D01*
X620439Y340954D01*
X621815Y344277D01*
X621815Y347873D01*
X620439Y351196D01*
X617896Y353739D01*
X617171Y354039D01*
X616950Y354179D01*
X616771Y354424D01*
X616701Y354719D01*
X616752Y355018D01*
X616915Y355273D01*
X617165Y355445D01*
X617462Y355505D01*
X623805Y355505D01*
X624091Y355449D01*
X624344Y355282D01*
X625157Y354469D01*
X625320Y354227D01*
X625380Y353930D01*
X625380Y252495D01*
X625324Y252209D01*
X625157Y251956D01*
X624014Y250813D01*
X623772Y250650D01*
X623475Y250590D01*
X613113Y250590D01*
X612838Y250641D01*
X612583Y250805D01*
X612411Y251055D01*
X612351Y251352D01*
X612351Y253304D01*
X611179Y254476D01*
X595321Y254476D01*
X594149Y253304D01*
X594149Y241336D01*
X595321Y240164D01*
X611179Y240164D01*
X612351Y241336D01*
X612351Y243288D01*
X612402Y243563D01*
X612566Y243818D01*
X612816Y243990D01*
X613113Y244050D01*
X626499Y244050D01*
X631699Y249250D01*
X631919Y249403D01*
X632214Y249473D01*
X632513Y249422D01*
X632768Y249258D01*
X632940Y249008D01*
X633000Y248711D01*
X633000Y242769D01*
X632942Y242477D01*
X631775Y239660D01*
X631775Y234090D01*
X632942Y231273D01*
X633000Y230981D01*
X633000Y209137D01*
X632949Y208862D01*
X632785Y208607D01*
X632535Y208435D01*
X632238Y208375D01*
X606458Y208375D01*
X606087Y208343D01*
X605758Y208258D01*
X605449Y208117D01*
X605168Y207927D01*
X604923Y207691D01*
X604722Y207418D01*
X604570Y207114D01*
X604473Y206796D01*
X604425Y206335D01*
X604425Y155608D01*
X604457Y155237D01*
X604542Y154908D01*
X604683Y154599D01*
X604873Y154318D01*
X605109Y154073D01*
X605382Y153872D01*
X605686Y153720D01*
X606004Y153623D01*
X606465Y153575D01*
G37*
G36*
X509199Y393375D02*
X513151Y393375D01*
X515945Y396169D01*
X515945Y400121D01*
X513151Y402915D01*
X509199Y402915D01*
X506405Y400121D01*
X506405Y396169D01*
X509199Y393375D01*
G37*
G36*
X432999Y393375D02*
X436951Y393375D01*
X439745Y396169D01*
X439745Y400121D01*
X436951Y402915D01*
X432999Y402915D01*
X430205Y400121D01*
X430205Y396169D01*
X432999Y393375D01*
G37*
G36*
X312349Y383850D02*
X316301Y383850D01*
X319095Y386644D01*
X319095Y390596D01*
X316301Y393390D01*
X312349Y393390D01*
X309555Y390596D01*
X309555Y386644D01*
X312349Y383850D01*
G37*
G36*
X585399Y382580D02*
X589351Y382580D01*
X592145Y385374D01*
X592145Y389326D01*
X589351Y392120D01*
X585399Y392120D01*
X582605Y389326D01*
X582605Y385374D01*
X585399Y382580D01*
G37*
G36*
X509199Y371150D02*
X513151Y371150D01*
X515945Y373944D01*
X515945Y377896D01*
X513151Y380690D01*
X509199Y380690D01*
X506405Y377896D01*
X506405Y373944D01*
X509199Y371150D01*
G37*
G36*
X432999Y371150D02*
X436951Y371150D01*
X439745Y373944D01*
X439745Y377896D01*
X436951Y380690D01*
X432999Y380690D01*
X430205Y377896D01*
X430205Y373944D01*
X432999Y371150D01*
G37*
G36*
X164621Y348749D02*
X175487Y348749D01*
X176659Y349921D01*
X176659Y361279D01*
X175487Y362451D01*
X173537Y362451D01*
X173262Y362502D01*
X173007Y362666D01*
X172835Y362916D01*
X172775Y363213D01*
X172775Y365739D01*
X172831Y366025D01*
X172998Y366277D01*
X173045Y366324D01*
X173045Y370276D01*
X170251Y373070D01*
X166299Y373070D01*
X163505Y370276D01*
X163505Y366324D01*
X163552Y366277D01*
X163715Y366036D01*
X163775Y365739D01*
X163775Y361921D01*
X163719Y361635D01*
X163552Y361382D01*
X163450Y361279D01*
X163450Y356711D01*
X163398Y356463D01*
X163450Y356192D01*
X163450Y349921D01*
X164621Y348749D01*
G37*
G36*
X312349Y361625D02*
X316301Y361625D01*
X319095Y364419D01*
X319095Y368371D01*
X316301Y371165D01*
X312349Y371165D01*
X309555Y368371D01*
X309555Y364419D01*
X312349Y361625D01*
G37*
G36*
X178402Y356362D02*
X184784Y356362D01*
X184784Y362991D01*
X179889Y362991D01*
X178402Y361503D01*
X178402Y356362D01*
G37*
G36*
X186308Y356362D02*
X192691Y356362D01*
X192691Y361503D01*
X191203Y362991D01*
X186308Y362991D01*
X186308Y356362D01*
G37*
G36*
X397637Y352416D02*
X406742Y352416D01*
X406742Y358529D01*
X405254Y360017D01*
X397637Y360017D01*
X397637Y352416D01*
G37*
G36*
X387009Y352416D02*
X396113Y352416D01*
X396113Y360017D01*
X388496Y360017D01*
X387009Y358529D01*
X387009Y352416D01*
G37*
G36*
X182174Y338130D02*
X186126Y338130D01*
X188920Y340924D01*
X188920Y344876D01*
X186888Y346908D01*
X186735Y347128D01*
X186665Y347423D01*
X186716Y347722D01*
X186879Y347977D01*
X187129Y348149D01*
X187426Y348209D01*
X191203Y348209D01*
X192691Y349697D01*
X192691Y354838D01*
X178402Y354838D01*
X178402Y349697D01*
X179889Y348209D01*
X180874Y348209D01*
X181137Y348162D01*
X181395Y348003D01*
X181570Y347755D01*
X181636Y347459D01*
X181580Y347161D01*
X181412Y346908D01*
X179380Y344876D01*
X179380Y340924D01*
X182174Y338130D01*
G37*
G36*
X390561Y305224D02*
X402529Y305224D01*
X403701Y306396D01*
X403701Y322254D01*
X402529Y323426D01*
X401307Y323426D01*
X401032Y323477D01*
X400777Y323641D01*
X400605Y323891D01*
X400545Y324188D01*
X400545Y325561D01*
X400596Y325836D01*
X400760Y326091D01*
X401010Y326263D01*
X401307Y326323D01*
X405030Y326323D01*
X406202Y327495D01*
X406202Y328613D01*
X406253Y328888D01*
X406416Y329143D01*
X406666Y329315D01*
X406964Y329375D01*
X409689Y329375D01*
X409975Y329319D01*
X410227Y329152D01*
X410774Y328605D01*
X414726Y328605D01*
X417520Y331399D01*
X417520Y335351D01*
X414726Y338145D01*
X410774Y338145D01*
X410227Y337598D01*
X409986Y337435D01*
X409689Y337375D01*
X406964Y337375D01*
X406689Y337426D01*
X406433Y337590D01*
X406262Y337840D01*
X406202Y338137D01*
X406202Y340797D01*
X405009Y341990D01*
X404856Y342210D01*
X404786Y342505D01*
X404837Y342804D01*
X405000Y343059D01*
X405069Y343106D01*
X406742Y344779D01*
X406742Y350892D01*
X387009Y350892D01*
X387009Y344779D01*
X388669Y343119D01*
X388724Y343085D01*
X388899Y342837D01*
X388964Y342541D01*
X388909Y342243D01*
X388741Y341990D01*
X387549Y340797D01*
X387549Y327495D01*
X388720Y326323D01*
X391783Y326323D01*
X392058Y326272D01*
X392313Y326108D01*
X392485Y325858D01*
X392545Y325561D01*
X392545Y324188D01*
X392494Y323913D01*
X392330Y323658D01*
X392080Y323486D01*
X391783Y323426D01*
X390561Y323426D01*
X389389Y322254D01*
X389389Y306396D01*
X390561Y305224D01*
G37*
G36*
X302296Y328376D02*
X313654Y328376D01*
X314826Y329548D01*
X314826Y340204D01*
X313654Y341376D01*
X313237Y341376D01*
X312962Y341427D01*
X312707Y341591D01*
X312535Y341841D01*
X312475Y342138D01*
X312475Y343514D01*
X312531Y343800D01*
X312698Y344052D01*
X312745Y344099D01*
X312745Y348051D01*
X309951Y350845D01*
X305999Y350845D01*
X303205Y348051D01*
X303205Y344099D01*
X303252Y344052D01*
X303415Y343811D01*
X303475Y343514D01*
X303475Y342138D01*
X303424Y341863D01*
X303260Y341608D01*
X303010Y341436D01*
X302713Y341376D01*
X302296Y341376D01*
X301124Y340204D01*
X301124Y329548D01*
X302296Y328376D01*
G37*
G36*
X139426Y320156D02*
X149070Y320156D01*
X150242Y321327D01*
X150242Y332723D01*
X149070Y333895D01*
X139426Y333895D01*
X138255Y332723D01*
X138255Y332287D01*
X138203Y332012D01*
X138040Y331757D01*
X137790Y331585D01*
X137493Y331525D01*
X136502Y331525D01*
X136217Y331581D01*
X135964Y331748D01*
X126130Y341582D01*
X125967Y341824D01*
X125906Y342121D01*
X125906Y342187D01*
X123112Y344981D01*
X119161Y344981D01*
X116366Y342187D01*
X116366Y338236D01*
X119161Y335441D01*
X119227Y335441D01*
X119513Y335386D01*
X119766Y335218D01*
X132459Y322525D01*
X137493Y322525D01*
X137767Y322474D01*
X138023Y322310D01*
X138194Y322060D01*
X138255Y321763D01*
X138255Y321327D01*
X139426Y320156D01*
G37*
G36*
X566746Y240164D02*
X582604Y240164D01*
X583776Y241336D01*
X583776Y253304D01*
X582604Y254476D01*
X578707Y254476D01*
X578432Y254527D01*
X578177Y254691D01*
X578005Y254941D01*
X577945Y255238D01*
X577945Y277888D01*
X577990Y278145D01*
X578147Y278404D01*
X578393Y278582D01*
X578689Y278649D01*
X578987Y278596D01*
X579242Y278431D01*
X579411Y278179D01*
X579711Y277454D01*
X582254Y274911D01*
X585577Y273535D01*
X589173Y273535D01*
X592496Y274911D01*
X595039Y277454D01*
X596415Y280777D01*
X596415Y284373D01*
X595039Y287696D01*
X592496Y290239D01*
X589173Y291615D01*
X585577Y291615D01*
X582254Y290239D01*
X579711Y287696D01*
X579411Y286971D01*
X579271Y286750D01*
X579026Y286571D01*
X578731Y286501D01*
X578432Y286552D01*
X578177Y286715D01*
X578005Y286965D01*
X577945Y287262D01*
X577945Y303288D01*
X577990Y303545D01*
X578147Y303804D01*
X578393Y303982D01*
X578689Y304049D01*
X578987Y303996D01*
X579242Y303831D01*
X579411Y303579D01*
X579711Y302854D01*
X582254Y300311D01*
X585577Y298935D01*
X589173Y298935D01*
X592496Y300311D01*
X595039Y302854D01*
X596415Y306177D01*
X596415Y309773D01*
X595039Y313096D01*
X592496Y315639D01*
X591771Y315939D01*
X591550Y316079D01*
X591371Y316324D01*
X591301Y316619D01*
X591352Y316918D01*
X591515Y317173D01*
X591765Y317345D01*
X592062Y317405D01*
X603836Y317405D01*
X604116Y317352D01*
X604370Y317186D01*
X604540Y316935D01*
X605111Y315554D01*
X607654Y313011D01*
X610977Y311635D01*
X614573Y311635D01*
X617896Y313011D01*
X620439Y315554D01*
X621815Y318877D01*
X621815Y322473D01*
X620439Y325796D01*
X617896Y328339D01*
X614573Y329715D01*
X610977Y329715D01*
X607654Y328339D01*
X605111Y325796D01*
X604540Y324415D01*
X604383Y324177D01*
X604133Y324005D01*
X603836Y323945D01*
X592062Y323945D01*
X591805Y323990D01*
X591546Y324147D01*
X591368Y324393D01*
X591301Y324689D01*
X591354Y324987D01*
X591519Y325242D01*
X591771Y325411D01*
X592496Y325711D01*
X595039Y328254D01*
X596415Y331577D01*
X596415Y335173D01*
X595039Y338496D01*
X592496Y341039D01*
X589173Y342415D01*
X585577Y342415D01*
X582254Y341039D01*
X579711Y338496D01*
X578335Y335173D01*
X578335Y331577D01*
X579711Y328254D01*
X582254Y325711D01*
X582979Y325411D01*
X583200Y325271D01*
X583379Y325026D01*
X583449Y324731D01*
X583398Y324432D01*
X583235Y324177D01*
X582985Y324005D01*
X582688Y323945D01*
X576496Y323945D01*
X571405Y318854D01*
X571405Y255238D01*
X571354Y254963D01*
X571190Y254708D01*
X570940Y254536D01*
X570643Y254476D01*
X566746Y254476D01*
X565574Y253304D01*
X565574Y241336D01*
X566746Y240164D01*
G37*
G36*
X281534Y335533D02*
X288163Y335533D01*
X288163Y341916D01*
X283022Y341916D01*
X281534Y340428D01*
X281534Y335533D01*
G37*
G36*
X289687Y335533D02*
X296316Y335533D01*
X296316Y340428D01*
X294828Y341916D01*
X289687Y341916D01*
X289687Y335533D01*
G37*
G36*
X541346Y310014D02*
X557204Y310014D01*
X558376Y311186D01*
X558376Y323154D01*
X557204Y324326D01*
X553307Y324326D01*
X553032Y324377D01*
X552777Y324541D01*
X552605Y324791D01*
X552545Y325088D01*
X552545Y331554D01*
X547454Y336645D01*
X502266Y336645D01*
X501980Y336701D01*
X501728Y336868D01*
X500451Y338145D01*
X496499Y338145D01*
X493705Y335351D01*
X493705Y331399D01*
X496499Y328605D01*
X500451Y328605D01*
X501728Y329882D01*
X501969Y330045D01*
X502266Y330105D01*
X544430Y330105D01*
X544716Y330049D01*
X544969Y329882D01*
X545782Y329069D01*
X545945Y328827D01*
X546005Y328530D01*
X546005Y325088D01*
X545954Y324813D01*
X545790Y324558D01*
X545540Y324386D01*
X545243Y324326D01*
X541346Y324326D01*
X540174Y323154D01*
X540174Y311186D01*
X541346Y310014D01*
G37*
G36*
X289687Y327627D02*
X294828Y327627D01*
X296316Y329114D01*
X296316Y334009D01*
X289687Y334009D01*
X289687Y327627D01*
G37*
G36*
X283022Y327627D02*
X288163Y327627D01*
X288163Y334009D01*
X281534Y334009D01*
X281534Y329114D01*
X283022Y327627D01*
G37*
G36*
X302296Y312674D02*
X313654Y312674D01*
X314826Y313846D01*
X314826Y324828D01*
X313654Y326000D01*
X302296Y326000D01*
X301124Y324828D01*
X301124Y324599D01*
X301073Y324324D01*
X300909Y324069D01*
X300659Y323897D01*
X300362Y323837D01*
X296538Y323837D01*
X296263Y323888D01*
X296008Y324052D01*
X295836Y324302D01*
X295776Y324599D01*
X295776Y324712D01*
X294604Y325884D01*
X283246Y325884D01*
X282074Y324712D01*
X282074Y324541D01*
X282023Y324266D01*
X281859Y324011D01*
X281609Y323839D01*
X281312Y323779D01*
X281122Y323779D01*
X280847Y323830D01*
X280592Y323994D01*
X280420Y324244D01*
X280360Y324541D01*
X280360Y324556D01*
X277566Y327350D01*
X273614Y327350D01*
X270820Y324556D01*
X270820Y320604D01*
X273614Y317810D01*
X273680Y317810D01*
X273966Y317754D01*
X274219Y317587D01*
X277027Y314779D01*
X281312Y314779D01*
X281587Y314728D01*
X281842Y314564D01*
X282014Y314314D01*
X282074Y314017D01*
X282074Y313846D01*
X283246Y312675D01*
X294604Y312675D01*
X295776Y313846D01*
X295776Y314075D01*
X295827Y314350D01*
X295991Y314605D01*
X296241Y314777D01*
X296538Y314837D01*
X300362Y314837D01*
X300637Y314786D01*
X300892Y314622D01*
X301064Y314372D01*
X301124Y314075D01*
X301124Y313846D01*
X302296Y312674D01*
G37*
G36*
X194305Y275509D02*
X205613Y275509D01*
X205613Y298544D01*
X194305Y298544D01*
X192817Y297056D01*
X192817Y293822D01*
X192766Y293547D01*
X192602Y293292D01*
X192352Y293120D01*
X192055Y293060D01*
X188524Y293060D01*
X187247Y291783D01*
X187006Y291620D01*
X186709Y291560D01*
X160013Y291560D01*
X159738Y291611D01*
X159483Y291775D01*
X159311Y292025D01*
X159251Y292322D01*
X159251Y295754D01*
X158079Y296926D01*
X157370Y296926D01*
X157106Y296972D01*
X156848Y297132D01*
X156673Y297379D01*
X156608Y297675D01*
X156663Y297973D01*
X156831Y298226D01*
X157725Y299121D01*
X157725Y310479D01*
X156553Y311651D01*
X145571Y311651D01*
X144399Y310479D01*
X144399Y299121D01*
X145571Y297949D01*
X145904Y297949D01*
X146168Y297902D01*
X146426Y297743D01*
X146601Y297495D01*
X146666Y297199D01*
X146611Y296901D01*
X146443Y296648D01*
X145549Y295754D01*
X145549Y284888D01*
X146721Y283717D01*
X158079Y283717D01*
X159160Y284797D01*
X159401Y284960D01*
X159699Y285020D01*
X186709Y285020D01*
X186995Y284964D01*
X187247Y284797D01*
X188524Y283520D01*
X192055Y283520D01*
X192330Y283469D01*
X192585Y283305D01*
X192757Y283055D01*
X192817Y282758D01*
X192817Y276996D01*
X194305Y275509D01*
G37*
G36*
X571111Y185071D02*
X578239Y185071D01*
X583279Y190111D01*
X583279Y197239D01*
X579398Y201120D01*
X579235Y201361D01*
X579175Y201659D01*
X579175Y221012D01*
X579226Y221287D01*
X579390Y221542D01*
X579640Y221714D01*
X579937Y221774D01*
X582604Y221774D01*
X583776Y222946D01*
X583776Y224898D01*
X583827Y225173D01*
X583991Y225428D01*
X584241Y225600D01*
X584538Y225660D01*
X593387Y225660D01*
X593662Y225609D01*
X593917Y225445D01*
X594089Y225195D01*
X594149Y224898D01*
X594149Y222946D01*
X595321Y221774D01*
X611179Y221774D01*
X612351Y222946D01*
X612351Y234914D01*
X611179Y236086D01*
X595321Y236086D01*
X594149Y234914D01*
X594149Y232962D01*
X594098Y232687D01*
X593934Y232432D01*
X593684Y232260D01*
X593387Y232200D01*
X584538Y232200D01*
X584263Y232251D01*
X584008Y232415D01*
X583836Y232665D01*
X583776Y232962D01*
X583776Y234914D01*
X582604Y236086D01*
X566746Y236086D01*
X565574Y234914D01*
X565574Y232962D01*
X565523Y232687D01*
X565359Y232432D01*
X565109Y232260D01*
X564812Y232200D01*
X559138Y232200D01*
X558863Y232251D01*
X558608Y232415D01*
X558436Y232665D01*
X558376Y232962D01*
X558376Y234914D01*
X557204Y236086D01*
X541346Y236086D01*
X540174Y234914D01*
X540174Y232632D01*
X540123Y232357D01*
X539959Y232102D01*
X539709Y231930D01*
X539412Y231870D01*
X531895Y231870D01*
X531609Y231926D01*
X531356Y232093D01*
X530543Y232906D01*
X530380Y233148D01*
X530320Y233445D01*
X530320Y293605D01*
X530376Y293891D01*
X530543Y294144D01*
X531686Y295287D01*
X531928Y295450D01*
X532225Y295510D01*
X539412Y295510D01*
X539687Y295459D01*
X539942Y295295D01*
X540114Y295045D01*
X540174Y294748D01*
X540174Y292796D01*
X541346Y291624D01*
X557204Y291624D01*
X558376Y292796D01*
X558376Y304764D01*
X557204Y305936D01*
X541346Y305936D01*
X540174Y304764D01*
X540174Y302812D01*
X540123Y302537D01*
X539959Y302282D01*
X539709Y302110D01*
X539412Y302050D01*
X529201Y302050D01*
X523780Y296629D01*
X523780Y230421D01*
X528871Y225330D01*
X539412Y225330D01*
X539687Y225279D01*
X539942Y225115D01*
X540114Y224865D01*
X540174Y224568D01*
X540174Y222946D01*
X541346Y221774D01*
X557204Y221774D01*
X558376Y222946D01*
X558376Y224898D01*
X558427Y225173D01*
X558591Y225428D01*
X558841Y225600D01*
X559138Y225660D01*
X564812Y225660D01*
X565087Y225609D01*
X565342Y225445D01*
X565514Y225195D01*
X565574Y224898D01*
X565574Y222946D01*
X566746Y221774D01*
X569413Y221774D01*
X569688Y221723D01*
X569943Y221559D01*
X570115Y221309D01*
X570175Y221012D01*
X570175Y201659D01*
X570119Y201373D01*
X569952Y201120D01*
X566071Y197239D01*
X566071Y190111D01*
X571111Y185071D01*
G37*
G36*
X610977Y286235D02*
X614573Y286235D01*
X617896Y287611D01*
X620439Y290154D01*
X621815Y293477D01*
X621815Y297073D01*
X620439Y300396D01*
X617896Y302939D01*
X614573Y304315D01*
X610977Y304315D01*
X607654Y302939D01*
X605111Y300396D01*
X603735Y297073D01*
X603735Y293477D01*
X605111Y290154D01*
X607654Y287611D01*
X610977Y286235D01*
G37*
G36*
X207137Y287788D02*
X219933Y287788D01*
X219933Y297056D01*
X218445Y298544D01*
X207137Y298544D01*
X207137Y287788D01*
G37*
G36*
X387009Y252358D02*
X406742Y252358D01*
X406742Y258471D01*
X405081Y260131D01*
X405026Y260165D01*
X404851Y260413D01*
X404786Y260709D01*
X404841Y261007D01*
X405009Y261260D01*
X406202Y262453D01*
X406202Y265113D01*
X406253Y265388D01*
X406416Y265643D01*
X406666Y265815D01*
X406964Y265875D01*
X409689Y265875D01*
X409975Y265819D01*
X410227Y265652D01*
X410774Y265105D01*
X414726Y265105D01*
X417520Y267899D01*
X417520Y271851D01*
X414726Y274645D01*
X410774Y274645D01*
X410227Y274098D01*
X409986Y273935D01*
X409689Y273875D01*
X406964Y273875D01*
X406689Y273926D01*
X406433Y274090D01*
X406262Y274340D01*
X406202Y274637D01*
X406202Y275755D01*
X405030Y276927D01*
X401307Y276927D01*
X401032Y276978D01*
X400777Y277142D01*
X400605Y277392D01*
X400545Y277689D01*
X400545Y279062D01*
X400596Y279337D01*
X400760Y279592D01*
X401010Y279764D01*
X401307Y279824D01*
X402529Y279824D01*
X403701Y280996D01*
X403701Y296854D01*
X402529Y298026D01*
X390561Y298026D01*
X389389Y296854D01*
X389389Y280996D01*
X390561Y279824D01*
X391783Y279824D01*
X392058Y279773D01*
X392313Y279609D01*
X392485Y279359D01*
X392545Y279062D01*
X392545Y277689D01*
X392494Y277414D01*
X392330Y277159D01*
X392080Y276987D01*
X391783Y276927D01*
X388720Y276927D01*
X387549Y275755D01*
X387549Y262453D01*
X388741Y261260D01*
X388894Y261040D01*
X388964Y260745D01*
X388913Y260446D01*
X388750Y260191D01*
X388681Y260144D01*
X387009Y258471D01*
X387009Y252358D01*
G37*
G36*
X235712Y285116D02*
X242341Y285116D01*
X242341Y290011D01*
X240853Y291499D01*
X235712Y291499D01*
X235712Y285116D01*
G37*
G36*
X227559Y285116D02*
X234188Y285116D01*
X234188Y291499D01*
X229047Y291499D01*
X227559Y290011D01*
X227559Y285116D01*
G37*
G36*
X310539Y283337D02*
X316311Y283337D01*
X316311Y288497D01*
X314823Y289985D01*
X310539Y289985D01*
X310539Y283337D01*
G37*
G36*
X303244Y283337D02*
X309015Y283337D01*
X309015Y289985D01*
X304731Y289985D01*
X303244Y288497D01*
X303244Y283337D01*
G37*
G36*
X288651Y275706D02*
X298295Y275706D01*
X299467Y276877D01*
X299467Y288273D01*
X298295Y289445D01*
X288651Y289445D01*
X287480Y288273D01*
X287480Y286607D01*
X287428Y286332D01*
X287265Y286077D01*
X287015Y285905D01*
X286718Y285845D01*
X283191Y285845D01*
X282905Y285901D01*
X282653Y286068D01*
X281376Y287345D01*
X277424Y287345D01*
X274630Y284551D01*
X274630Y280599D01*
X277424Y277805D01*
X281376Y277805D01*
X282653Y279082D01*
X282894Y279245D01*
X283191Y279305D01*
X286718Y279305D01*
X286992Y279254D01*
X287248Y279090D01*
X287419Y278840D01*
X287480Y278543D01*
X287480Y276877D01*
X288651Y275706D01*
G37*
G36*
X207137Y275509D02*
X218445Y275509D01*
X219933Y276996D01*
X219933Y286264D01*
X207137Y286264D01*
X207137Y275509D01*
G37*
G36*
X235712Y277210D02*
X240853Y277210D01*
X242341Y278697D01*
X242341Y283592D01*
X235712Y283592D01*
X235712Y277210D01*
G37*
G36*
X229047Y277210D02*
X234188Y277210D01*
X234188Y283592D01*
X227559Y283592D01*
X227559Y278697D01*
X229047Y277210D01*
G37*
G36*
X153162Y275591D02*
X159791Y275591D01*
X159791Y280486D01*
X158303Y281974D01*
X153162Y281974D01*
X153162Y275591D01*
G37*
G36*
X145009Y275591D02*
X151638Y275591D01*
X151638Y281974D01*
X146497Y281974D01*
X145009Y280486D01*
X145009Y275591D01*
G37*
G36*
X304731Y275166D02*
X309015Y275166D01*
X309015Y281813D01*
X303244Y281813D01*
X303244Y276653D01*
X304731Y275166D01*
G37*
G36*
X310539Y275166D02*
X314823Y275166D01*
X316311Y276653D01*
X316311Y281813D01*
X310539Y281813D01*
X310539Y275166D01*
G37*
G36*
X610977Y260835D02*
X614573Y260835D01*
X617896Y262211D01*
X620439Y264754D01*
X621815Y268077D01*
X621815Y271673D01*
X620439Y274996D01*
X617896Y277539D01*
X614573Y278915D01*
X610977Y278915D01*
X607654Y277539D01*
X605111Y274996D01*
X603735Y271673D01*
X603735Y268077D01*
X605111Y264754D01*
X607654Y262211D01*
X610977Y260835D01*
G37*
G36*
X318699Y265105D02*
X322651Y265105D01*
X325445Y267899D01*
X325445Y271851D01*
X322651Y274645D01*
X318699Y274645D01*
X315905Y271851D01*
X315905Y267899D01*
X318699Y265105D01*
G37*
G36*
X541346Y240164D02*
X557204Y240164D01*
X558376Y241336D01*
X558376Y253304D01*
X557204Y254476D01*
X553307Y254476D01*
X553032Y254527D01*
X552777Y254691D01*
X552605Y254941D01*
X552545Y255238D01*
X552545Y266084D01*
X552601Y266370D01*
X552768Y266622D01*
X554045Y267899D01*
X554045Y271851D01*
X551251Y274645D01*
X547299Y274645D01*
X544505Y271851D01*
X544505Y267899D01*
X545782Y266622D01*
X545945Y266381D01*
X546005Y266084D01*
X546005Y255238D01*
X545954Y254963D01*
X545790Y254708D01*
X545540Y254536D01*
X545243Y254476D01*
X541346Y254476D01*
X540174Y253304D01*
X540174Y241336D01*
X541346Y240164D01*
G37*
G36*
X222852Y267462D02*
X229234Y267462D01*
X229234Y274091D01*
X224339Y274091D01*
X222852Y272603D01*
X222852Y267462D01*
G37*
G36*
X230758Y267462D02*
X237141Y267462D01*
X237141Y272603D01*
X235653Y274091D01*
X230758Y274091D01*
X230758Y267462D01*
G37*
G36*
X153162Y267685D02*
X158303Y267685D01*
X159791Y269172D01*
X159791Y274067D01*
X153162Y274067D01*
X153162Y267685D01*
G37*
G36*
X146497Y267685D02*
X151638Y267685D01*
X151638Y274067D01*
X145009Y274067D01*
X145009Y269172D01*
X146497Y267685D01*
G37*
G36*
X209071Y259849D02*
X219937Y259849D01*
X221109Y261021D01*
X221109Y272379D01*
X219937Y273551D01*
X209071Y273551D01*
X207900Y272379D01*
X207900Y270732D01*
X207848Y270457D01*
X207685Y270202D01*
X207435Y270030D01*
X207138Y269970D01*
X206991Y269970D01*
X206705Y270026D01*
X206453Y270193D01*
X205176Y271470D01*
X201224Y271470D01*
X198430Y268676D01*
X198430Y264724D01*
X201224Y261930D01*
X205176Y261930D01*
X206453Y263207D01*
X206694Y263370D01*
X206991Y263430D01*
X207138Y263430D01*
X207412Y263379D01*
X207668Y263215D01*
X207839Y262965D01*
X207900Y262668D01*
X207900Y261021D01*
X209071Y259849D01*
G37*
G36*
X230758Y259309D02*
X235653Y259309D01*
X237141Y260797D01*
X237141Y265938D01*
X230758Y265938D01*
X230758Y259309D01*
G37*
G36*
X224339Y259309D02*
X229234Y259309D01*
X229234Y265938D01*
X222852Y265938D01*
X222852Y260797D01*
X224339Y259309D01*
G37*
G36*
X327016Y241205D02*
X346084Y241205D01*
X349619Y242670D01*
X352325Y245376D01*
X353790Y248911D01*
X353790Y252739D01*
X352325Y256274D01*
X349619Y258980D01*
X346084Y260445D01*
X327016Y260445D01*
X323481Y258980D01*
X320775Y256274D01*
X320067Y254565D01*
X319910Y254327D01*
X319660Y254155D01*
X319363Y254095D01*
X286366Y254095D01*
X286080Y254151D01*
X285828Y254318D01*
X284551Y255595D01*
X280599Y255595D01*
X277805Y252801D01*
X277805Y248849D01*
X280599Y246055D01*
X284551Y246055D01*
X285828Y247332D01*
X286069Y247495D01*
X286366Y247555D01*
X319363Y247555D01*
X319643Y247502D01*
X319897Y247336D01*
X320067Y247085D01*
X320775Y245376D01*
X323481Y242670D01*
X327016Y241205D01*
G37*
G36*
X397637Y243233D02*
X405254Y243233D01*
X406742Y244721D01*
X406742Y250834D01*
X397637Y250834D01*
X397637Y243233D01*
G37*
G36*
X388496Y243233D02*
X396113Y243233D01*
X396113Y250834D01*
X387009Y250834D01*
X387009Y244721D01*
X388496Y243233D01*
G37*
G36*
X327016Y215805D02*
X346084Y215805D01*
X349619Y217270D01*
X352325Y219976D01*
X353790Y223511D01*
X353790Y227339D01*
X352325Y230874D01*
X349619Y233580D01*
X346084Y235045D01*
X327016Y235045D01*
X323481Y233580D01*
X320775Y230874D01*
X319310Y227339D01*
X319310Y223511D01*
X320775Y219976D01*
X323481Y217270D01*
X327016Y215805D01*
G37*
G36*
X149216Y82455D02*
X168284Y82455D01*
X171819Y83920D01*
X174525Y86626D01*
X175990Y90161D01*
X175990Y93989D01*
X174525Y97524D01*
X171819Y100230D01*
X168284Y101695D01*
X149216Y101695D01*
X145681Y100230D01*
X142975Y97524D01*
X142267Y95815D01*
X142110Y95577D01*
X141860Y95405D01*
X141563Y95345D01*
X141370Y95345D01*
X141084Y95401D01*
X140831Y95568D01*
X140018Y96381D01*
X139855Y96623D01*
X139795Y96920D01*
X139795Y166605D01*
X139851Y166891D01*
X140018Y167144D01*
X149320Y176446D01*
X149320Y220999D01*
X149376Y221285D01*
X149543Y221537D01*
X150820Y222814D01*
X150820Y226766D01*
X148026Y229560D01*
X144074Y229560D01*
X141280Y226766D01*
X141280Y222814D01*
X142557Y221537D01*
X142720Y221296D01*
X142780Y220999D01*
X142780Y179470D01*
X142724Y179184D01*
X142557Y178931D01*
X133255Y169629D01*
X133255Y93896D01*
X138346Y88805D01*
X141563Y88805D01*
X141843Y88752D01*
X142097Y88586D01*
X142267Y88335D01*
X142975Y86626D01*
X145681Y83920D01*
X149216Y82455D01*
G37*
G36*
X259291Y221210D02*
X265938Y221210D01*
X265938Y226982D01*
X260778Y226982D01*
X259291Y225494D01*
X259291Y221210D01*
G37*
G36*
X233891Y221210D02*
X240538Y221210D01*
X240538Y226982D01*
X235378Y226982D01*
X233891Y225494D01*
X233891Y221210D01*
G37*
G36*
X242062Y221210D02*
X248710Y221210D01*
X248710Y225494D01*
X247222Y226982D01*
X242062Y226982D01*
X242062Y221210D01*
G37*
G36*
X267462Y221210D02*
X274110Y221210D01*
X274110Y225494D01*
X272622Y226982D01*
X267462Y226982D01*
X267462Y221210D01*
G37*
G36*
X96012Y216662D02*
X113030Y216662D01*
X113030Y217921D01*
X111483Y221655D01*
X108625Y224513D01*
X104891Y226060D01*
X96012Y226060D01*
X96012Y216662D01*
G37*
G36*
X59690Y216662D02*
X69088Y216662D01*
X69088Y226060D01*
X65642Y226060D01*
X59690Y220108D01*
X59690Y216662D01*
G37*
G36*
X70612Y205740D02*
X74058Y205740D01*
X78201Y209883D01*
X78432Y210041D01*
X78728Y210106D01*
X79026Y210050D01*
X79279Y209883D01*
X81875Y207287D01*
X85609Y205740D01*
X94488Y205740D01*
X94488Y226060D01*
X85609Y226060D01*
X81875Y224513D01*
X79279Y221917D01*
X79048Y221759D01*
X78752Y221694D01*
X78454Y221750D01*
X78201Y221917D01*
X74058Y226060D01*
X70612Y226060D01*
X70612Y205740D01*
G37*
G36*
X235378Y213915D02*
X240538Y213915D01*
X240538Y219686D01*
X233891Y219686D01*
X233891Y215402D01*
X235378Y213915D01*
G37*
G36*
X242062Y213915D02*
X247222Y213915D01*
X248710Y215402D01*
X248710Y219686D01*
X242062Y219686D01*
X242062Y213915D01*
G37*
G36*
X260778Y213915D02*
X265938Y213915D01*
X265938Y219686D01*
X259291Y219686D01*
X259291Y215402D01*
X260778Y213915D01*
G37*
G36*
X65642Y205740D02*
X69088Y205740D01*
X69088Y215138D01*
X59690Y215138D01*
X59690Y211692D01*
X65642Y205740D01*
G37*
G36*
X96012Y205740D02*
X104891Y205740D01*
X108625Y207287D01*
X111483Y210145D01*
X113030Y213879D01*
X113030Y215138D01*
X96012Y215138D01*
X96012Y205740D01*
G37*
G36*
X65865Y180880D02*
X73835Y180880D01*
X77732Y184777D01*
X77973Y184940D01*
X78270Y185000D01*
X79210Y185000D01*
X79496Y184944D01*
X79748Y184777D01*
X82181Y182345D01*
X85716Y180880D01*
X104784Y180880D01*
X108319Y182345D01*
X111025Y185051D01*
X112490Y188586D01*
X112490Y192414D01*
X111025Y195949D01*
X108319Y198655D01*
X104784Y200120D01*
X85716Y200120D01*
X82181Y198655D01*
X79748Y196223D01*
X79507Y196060D01*
X79210Y196000D01*
X78270Y196000D01*
X77984Y196056D01*
X77732Y196223D01*
X73835Y200120D01*
X65865Y200120D01*
X60230Y194485D01*
X60230Y186515D01*
X65865Y180880D01*
G37*
G36*
X65865Y155480D02*
X73835Y155480D01*
X77732Y159377D01*
X77973Y159540D01*
X78270Y159600D01*
X79210Y159600D01*
X79496Y159544D01*
X79748Y159377D01*
X82181Y156945D01*
X85716Y155480D01*
X104784Y155480D01*
X108319Y156945D01*
X111025Y159651D01*
X112490Y163186D01*
X112490Y167014D01*
X111025Y170549D01*
X108319Y173255D01*
X104784Y174720D01*
X85716Y174720D01*
X82181Y173255D01*
X79748Y170823D01*
X79507Y170660D01*
X79210Y170600D01*
X78270Y170600D01*
X77984Y170656D01*
X77732Y170823D01*
X73835Y174720D01*
X65865Y174720D01*
X60230Y169085D01*
X60230Y161115D01*
X65865Y155480D01*
G37*
G36*
X172649Y153980D02*
X176601Y153980D01*
X179395Y156774D01*
X179395Y160726D01*
X176601Y163520D01*
X172649Y163520D01*
X169855Y160726D01*
X169855Y156774D01*
X172649Y153980D01*
G37*
G36*
X204399Y153980D02*
X208351Y153980D01*
X211145Y156774D01*
X211145Y160726D01*
X208351Y163520D01*
X204399Y163520D01*
X201605Y160726D01*
X201605Y156774D01*
X204399Y153980D01*
G37*
G36*
X296474Y153980D02*
X300426Y153980D01*
X303220Y156774D01*
X303220Y160726D01*
X300426Y163520D01*
X296474Y163520D01*
X293680Y160726D01*
X293680Y156774D01*
X296474Y153980D01*
G37*
G36*
X356799Y153980D02*
X360751Y153980D01*
X363545Y156774D01*
X363545Y160726D01*
X360751Y163520D01*
X356799Y163520D01*
X354005Y160726D01*
X354005Y156774D01*
X356799Y153980D01*
G37*
G36*
X572699Y153980D02*
X576651Y153980D01*
X579445Y156774D01*
X579445Y160726D01*
X576651Y163520D01*
X572699Y163520D01*
X569905Y160726D01*
X569905Y156774D01*
X572699Y153980D01*
G37*
G36*
X264724Y153980D02*
X268676Y153980D01*
X271470Y156774D01*
X271470Y160726D01*
X268676Y163520D01*
X264724Y163520D01*
X261930Y160726D01*
X261930Y156774D01*
X264724Y153980D01*
G37*
G36*
X480624Y153980D02*
X484576Y153980D01*
X487370Y156774D01*
X487370Y160726D01*
X484576Y163520D01*
X480624Y163520D01*
X477830Y160726D01*
X477830Y156774D01*
X480624Y153980D01*
G37*
G36*
X540949Y153980D02*
X544901Y153980D01*
X547695Y156774D01*
X547695Y160726D01*
X544901Y163520D01*
X540949Y163520D01*
X538155Y160726D01*
X538155Y156774D01*
X540949Y153980D01*
G37*
G36*
X388549Y153980D02*
X392501Y153980D01*
X395295Y156774D01*
X395295Y160726D01*
X392501Y163520D01*
X388549Y163520D01*
X385755Y160726D01*
X385755Y156774D01*
X388549Y153980D01*
G37*
G36*
X448874Y153980D02*
X452826Y153980D01*
X455620Y156774D01*
X455620Y160726D01*
X452826Y163520D01*
X448874Y163520D01*
X446080Y160726D01*
X446080Y156774D01*
X448874Y153980D01*
G37*
G36*
X65865Y130080D02*
X73835Y130080D01*
X77732Y133977D01*
X77973Y134140D01*
X78270Y134200D01*
X79210Y134200D01*
X79496Y134144D01*
X79748Y133977D01*
X82181Y131545D01*
X85716Y130080D01*
X104784Y130080D01*
X108319Y131545D01*
X111025Y134251D01*
X112490Y137786D01*
X112490Y141614D01*
X111025Y145149D01*
X108319Y147855D01*
X104784Y149320D01*
X85716Y149320D01*
X82181Y147855D01*
X79748Y145423D01*
X79507Y145260D01*
X79210Y145200D01*
X78270Y145200D01*
X77984Y145256D01*
X77732Y145423D01*
X73835Y149320D01*
X65865Y149320D01*
X60230Y143685D01*
X60230Y135715D01*
X65865Y130080D01*
G37*
G36*
X517516Y107855D02*
X536584Y107855D01*
X540119Y109320D01*
X542825Y112026D01*
X544290Y115561D01*
X544290Y119389D01*
X542825Y122924D01*
X540119Y125630D01*
X536584Y127095D01*
X517516Y127095D01*
X513981Y125630D01*
X511275Y122924D01*
X509810Y119389D01*
X509810Y115561D01*
X511275Y112026D01*
X513981Y109320D01*
X517516Y107855D01*
G37*
G36*
X425441Y107855D02*
X444509Y107855D01*
X448044Y109320D01*
X450750Y112026D01*
X452215Y115561D01*
X452215Y119389D01*
X450750Y122924D01*
X448044Y125630D01*
X444509Y127095D01*
X425441Y127095D01*
X421906Y125630D01*
X419200Y122924D01*
X417735Y119389D01*
X417735Y115561D01*
X419200Y112026D01*
X421906Y109320D01*
X425441Y107855D01*
G37*
G36*
X333366Y107855D02*
X352434Y107855D01*
X355969Y109320D01*
X358675Y112026D01*
X360140Y115561D01*
X360140Y119389D01*
X358675Y122924D01*
X355969Y125630D01*
X352434Y127095D01*
X333366Y127095D01*
X329831Y125630D01*
X327125Y122924D01*
X325660Y119389D01*
X325660Y115561D01*
X327125Y112026D01*
X329831Y109320D01*
X333366Y107855D01*
G37*
G36*
X241291Y107855D02*
X260359Y107855D01*
X263894Y109320D01*
X266600Y112026D01*
X268065Y115561D01*
X268065Y119389D01*
X266600Y122924D01*
X263894Y125630D01*
X260359Y127095D01*
X241291Y127095D01*
X237756Y125630D01*
X235050Y122924D01*
X233585Y119389D01*
X233585Y115561D01*
X235050Y112026D01*
X237756Y109320D01*
X241291Y107855D01*
G37*
G36*
X149216Y107855D02*
X168284Y107855D01*
X171819Y109320D01*
X174525Y112026D01*
X175990Y115561D01*
X175990Y119389D01*
X174525Y122924D01*
X171819Y125630D01*
X168284Y127095D01*
X149216Y127095D01*
X145681Y125630D01*
X142975Y122924D01*
X141510Y119389D01*
X141510Y115561D01*
X142975Y112026D01*
X145681Y109320D01*
X149216Y107855D01*
G37*
G36*
X65865Y104680D02*
X73835Y104680D01*
X77732Y108577D01*
X77973Y108740D01*
X78270Y108800D01*
X79210Y108800D01*
X79496Y108744D01*
X79748Y108577D01*
X82181Y106145D01*
X85716Y104680D01*
X104784Y104680D01*
X108319Y106145D01*
X111025Y108851D01*
X112490Y112386D01*
X112490Y116214D01*
X111025Y119749D01*
X108319Y122455D01*
X104784Y123920D01*
X85716Y123920D01*
X82181Y122455D01*
X79748Y120023D01*
X79507Y119860D01*
X79210Y119800D01*
X78270Y119800D01*
X77984Y119856D01*
X77732Y120023D01*
X73835Y123920D01*
X65865Y123920D01*
X60230Y118285D01*
X60230Y110315D01*
X65865Y104680D01*
G37*
G36*
X696511Y72460D02*
X703489Y72460D01*
X709936Y75130D01*
X714870Y80064D01*
X717540Y86511D01*
X717540Y93489D01*
X714870Y99936D01*
X709936Y104870D01*
X703489Y107540D01*
X696511Y107540D01*
X690064Y104870D01*
X685130Y99936D01*
X682460Y93489D01*
X682460Y86511D01*
X685130Y80064D01*
X690064Y75130D01*
X696511Y72460D01*
G37*
G36*
X65865Y79280D02*
X73835Y79280D01*
X77732Y83177D01*
X77973Y83340D01*
X78270Y83400D01*
X79210Y83400D01*
X79496Y83344D01*
X79748Y83177D01*
X82181Y80745D01*
X85716Y79280D01*
X104784Y79280D01*
X108319Y80745D01*
X111025Y83451D01*
X112490Y86986D01*
X112490Y90814D01*
X111025Y94349D01*
X108319Y97055D01*
X104784Y98520D01*
X85716Y98520D01*
X82181Y97055D01*
X79748Y94623D01*
X79507Y94460D01*
X79210Y94400D01*
X78270Y94400D01*
X77984Y94456D01*
X77732Y94623D01*
X73835Y98520D01*
X65865Y98520D01*
X60230Y92885D01*
X60230Y84915D01*
X65865Y79280D01*
G37*
G36*
X517516Y57055D02*
X536584Y57055D01*
X540119Y58520D01*
X542825Y61226D01*
X544290Y64761D01*
X544290Y68589D01*
X542825Y72124D01*
X540119Y74830D01*
X536584Y76295D01*
X517516Y76295D01*
X513981Y74830D01*
X511275Y72124D01*
X509810Y68589D01*
X509810Y64761D01*
X511275Y61226D01*
X513981Y58520D01*
X517516Y57055D01*
G37*
G36*
X333366Y57055D02*
X352434Y57055D01*
X355969Y58520D01*
X358675Y61226D01*
X360140Y64761D01*
X360140Y68589D01*
X358675Y72124D01*
X355969Y74830D01*
X352434Y76295D01*
X333366Y76295D01*
X329831Y74830D01*
X327125Y72124D01*
X325660Y68589D01*
X325660Y64761D01*
X327125Y61226D01*
X329831Y58520D01*
X333366Y57055D01*
G37*
G36*
X241291Y57055D02*
X260359Y57055D01*
X263894Y58520D01*
X266600Y61226D01*
X268065Y64761D01*
X268065Y68589D01*
X266600Y72124D01*
X263894Y74830D01*
X260359Y76295D01*
X241291Y76295D01*
X237756Y74830D01*
X235050Y72124D01*
X233585Y68589D01*
X233585Y64761D01*
X235050Y61226D01*
X237756Y58520D01*
X241291Y57055D01*
G37*
G36*
X149216Y57055D02*
X168284Y57055D01*
X171819Y58520D01*
X174525Y61226D01*
X175990Y64761D01*
X175990Y68589D01*
X174525Y72124D01*
X171819Y74830D01*
X168284Y76295D01*
X149216Y76295D01*
X145681Y74830D01*
X142975Y72124D01*
X141510Y68589D01*
X141510Y64761D01*
X142975Y61226D01*
X145681Y58520D01*
X149216Y57055D01*
G37*
G36*
X425441Y57055D02*
X444509Y57055D01*
X448044Y58520D01*
X450750Y61226D01*
X452215Y64761D01*
X452215Y68589D01*
X450750Y72124D01*
X448044Y74830D01*
X444509Y76295D01*
X425441Y76295D01*
X421906Y74830D01*
X419200Y72124D01*
X417735Y68589D01*
X417735Y64761D01*
X419200Y61226D01*
X421906Y58520D01*
X425441Y57055D01*
G37*
G36*
X36511Y22460D02*
X43489Y22460D01*
X49936Y25130D01*
X54870Y30064D01*
X57540Y36511D01*
X57540Y43489D01*
X54870Y49936D01*
X49936Y54870D01*
X43489Y57540D01*
X36511Y57540D01*
X30064Y54870D01*
X25130Y49936D01*
X22460Y43489D01*
X22460Y36511D01*
X25130Y30064D01*
X30064Y25130D01*
X36511Y22460D01*
G37*
%LPD*%
G36*
X713600Y155676D02*
X713105Y155575D01*
X607695Y155575D01*
X607237Y155660D01*
X606811Y155933D01*
X606526Y156350D01*
X606425Y156845D01*
X606425Y205105D01*
X606510Y205563D01*
X606783Y205989D01*
X607200Y206274D01*
X607695Y206375D01*
X634900Y206375D01*
X634992Y206390D01*
X635000Y206455D01*
X635000Y224021D01*
X635078Y224460D01*
X635344Y224890D01*
X635756Y225183D01*
X636250Y225291D01*
X636747Y225198D01*
X637168Y224919D01*
X637539Y224549D01*
X642883Y222335D01*
X645013Y222335D01*
X645013Y251415D01*
X642883Y251415D01*
X637539Y249201D01*
X637168Y248831D01*
X636802Y248576D01*
X636310Y248459D01*
X635812Y248544D01*
X635386Y248817D01*
X635101Y249233D01*
X635000Y249729D01*
X635000Y378921D01*
X635078Y379360D01*
X635344Y379790D01*
X635756Y380083D01*
X636250Y380191D01*
X636747Y380098D01*
X637168Y379819D01*
X637539Y379449D01*
X642883Y377235D01*
X645013Y377235D01*
X645013Y392537D01*
X660315Y392537D01*
X660315Y394667D01*
X658101Y400011D01*
X653881Y404232D01*
X653626Y404598D01*
X653509Y405090D01*
X653594Y405588D01*
X653867Y406014D01*
X654283Y406299D01*
X654779Y406400D01*
X713105Y406400D01*
X713563Y406315D01*
X713989Y406042D01*
X714274Y405625D01*
X714375Y405130D01*
X714375Y156845D01*
X714290Y156387D01*
X714017Y155961D01*
X713600Y155676D01*
G37*
%LPC*%
G36*
X646537Y377235D02*
X648667Y377235D01*
X654011Y379449D01*
X657572Y383009D01*
X657928Y383260D01*
X658406Y383377D01*
X658317Y383797D01*
X658414Y384293D01*
X660315Y388883D01*
X660315Y391013D01*
X646537Y391013D01*
X646537Y377235D01*
G37*
G36*
X672446Y352225D02*
X680104Y352225D01*
X687179Y355156D01*
X692594Y360571D01*
X695525Y367646D01*
X695525Y375304D01*
X692594Y382379D01*
X687179Y387794D01*
X680104Y390725D01*
X672446Y390725D01*
X665371Y387794D01*
X660485Y382909D01*
X660129Y382658D01*
X659651Y382541D01*
X659740Y382121D01*
X659643Y381625D01*
X657025Y375304D01*
X657025Y367646D01*
X659956Y360571D01*
X665371Y355156D01*
X672446Y352225D01*
G37*
G36*
X672446Y237925D02*
X680104Y237925D01*
X687179Y240856D01*
X692594Y246271D01*
X695525Y253346D01*
X695525Y261004D01*
X692594Y268079D01*
X687179Y273494D01*
X680104Y276425D01*
X672446Y276425D01*
X665371Y273494D01*
X659956Y268079D01*
X657025Y261004D01*
X657025Y253346D01*
X659643Y247025D01*
X659739Y246599D01*
X659662Y246100D01*
X659659Y246096D01*
X660064Y246020D01*
X660485Y245741D01*
X665371Y240856D01*
X672446Y237925D01*
G37*
G36*
X646537Y237637D02*
X660315Y237637D01*
X660315Y239767D01*
X658414Y244357D01*
X658319Y244783D01*
X658395Y245282D01*
X658398Y245286D01*
X657993Y245362D01*
X657572Y245641D01*
X654011Y249201D01*
X648667Y251415D01*
X646537Y251415D01*
X646537Y237637D01*
G37*
G36*
X646537Y222335D02*
X648667Y222335D01*
X654011Y224549D01*
X658101Y228639D01*
X660315Y233983D01*
X660315Y236113D01*
X646537Y236113D01*
X646537Y222335D01*
G37*
G36*
X685165Y191262D02*
X694563Y191262D01*
X694563Y208280D01*
X693304Y208280D01*
X689570Y206733D01*
X686712Y203875D01*
X685165Y200141D01*
X685165Y191262D01*
G37*
G36*
X659765Y191262D02*
X669163Y191262D01*
X669163Y208280D01*
X667904Y208280D01*
X664170Y206733D01*
X661312Y203875D01*
X659765Y200141D01*
X659765Y191262D01*
G37*
G36*
X670687Y191262D02*
X680085Y191262D01*
X680085Y200141D01*
X678538Y203875D01*
X675680Y206733D01*
X671946Y208280D01*
X670687Y208280D01*
X670687Y191262D01*
G37*
G36*
X696087Y191262D02*
X705485Y191262D01*
X705485Y200141D01*
X703938Y203875D01*
X701080Y206733D01*
X697346Y208280D01*
X696087Y208280D01*
X696087Y191262D01*
G37*
G36*
X616331Y194437D02*
X624713Y194437D01*
X624713Y202819D01*
X621687Y202819D01*
X616331Y197463D01*
X616331Y194437D01*
G37*
G36*
X626237Y194437D02*
X634619Y194437D01*
X634619Y197463D01*
X629263Y202819D01*
X626237Y202819D01*
X626237Y194437D01*
G37*
G36*
X626237Y184531D02*
X629263Y184531D01*
X634619Y189887D01*
X634619Y192913D01*
X626237Y192913D01*
X626237Y184531D01*
G37*
G36*
X621687Y184531D02*
X624713Y184531D01*
X624713Y192913D01*
X616331Y192913D01*
X616331Y189887D01*
X621687Y184531D01*
G37*
G36*
X696087Y172720D02*
X697346Y172720D01*
X701080Y174267D01*
X703938Y177125D01*
X705485Y180859D01*
X705485Y189738D01*
X696087Y189738D01*
X696087Y172720D01*
G37*
G36*
X693304Y172720D02*
X694563Y172720D01*
X694563Y189738D01*
X685165Y189738D01*
X685165Y180859D01*
X686712Y177125D01*
X689570Y174267D01*
X693304Y172720D01*
G37*
G36*
X670687Y172720D02*
X671946Y172720D01*
X675680Y174267D01*
X678538Y177125D01*
X680085Y180859D01*
X680085Y189738D01*
X670687Y189738D01*
X670687Y172720D01*
G37*
G36*
X667904Y172720D02*
X669163Y172720D01*
X669163Y189738D01*
X659765Y189738D01*
X659765Y180859D01*
X661312Y177125D01*
X664170Y174267D01*
X667904Y172720D01*
G37*
%LPD*%
D10*
X170054Y355600D03*
X185546Y355600D03*
D11*
X288925Y319279D03*
X288925Y334771D03*
X152400Y290321D03*
X152400Y274829D03*
X234950Y299846D03*
X234950Y284354D03*
D12*
X206375Y316224D03*
X206375Y287026D03*
D13*
X192904Y511175D03*
X175396Y511175D03*
D14*
X396875Y269104D03*
X396875Y251596D03*
X396875Y334146D03*
X396875Y351654D03*
D15*
X574675Y193675D03*
X625475Y193675D03*
D10*
X229996Y266700D03*
X214504Y266700D03*
D16*
X166370Y66675D02*
X151130Y66675D01*
X151130Y92075D02*
X166370Y92075D01*
X166370Y117475D02*
X151130Y117475D01*
X243205Y66675D02*
X258445Y66675D01*
X258445Y92075D02*
X243205Y92075D01*
X243205Y117475D02*
X258445Y117475D01*
X335280Y66675D02*
X350520Y66675D01*
X350520Y92075D02*
X335280Y92075D01*
X335280Y117475D02*
X350520Y117475D01*
X427355Y66675D02*
X442595Y66675D01*
X442595Y92075D02*
X427355Y92075D01*
X427355Y117475D02*
X442595Y117475D01*
X519430Y66675D02*
X534670Y66675D01*
X534670Y92075D02*
X519430Y92075D01*
X519430Y117475D02*
X534670Y117475D01*
X528320Y445096D02*
X513080Y445096D01*
X513080Y470496D02*
X528320Y470496D01*
X528320Y495896D02*
X513080Y495896D01*
D17*
X307975Y334876D03*
D18*
X307975Y319337D03*
D19*
X166601Y304800D03*
D20*
X151062Y304800D03*
D21*
X339725Y515723D03*
X339725Y532027D03*
X314325Y515723D03*
X314325Y532027D03*
X288925Y515723D03*
X288925Y532027D03*
X263525Y515723D03*
X263525Y532027D03*
D22*
X193345Y571500D03*
X174955Y571500D03*
D23*
X144248Y327025D03*
X160552Y327025D03*
D21*
X241300Y236752D03*
X241300Y220448D03*
X266700Y236752D03*
X266700Y220448D03*
D22*
X396545Y314325D03*
X378155Y314325D03*
X396545Y288925D03*
X378155Y288925D03*
D24*
X549275Y228930D03*
X549275Y247320D03*
X549275Y298780D03*
X549275Y317170D03*
X603250Y228930D03*
X603250Y247320D03*
X574675Y228930D03*
X574675Y247320D03*
D23*
X309777Y282575D03*
X293473Y282575D03*
D21*
X415925Y532027D03*
X415925Y515723D03*
X390525Y532027D03*
X390525Y515723D03*
X365125Y515723D03*
X365125Y532027D03*
D25*
X415925Y564896D02*
X415925Y578104D01*
X390525Y578104D02*
X390525Y564896D01*
X263525Y564896D02*
X263525Y578104D01*
X263525Y501904D02*
X263525Y488696D01*
X365125Y564896D02*
X365125Y578104D01*
X339725Y578104D02*
X339725Y564896D01*
X288925Y564896D02*
X288925Y578104D01*
X314325Y578104D02*
X314325Y564896D01*
X288925Y501904D02*
X288925Y488696D01*
X314325Y488696D02*
X314325Y501904D01*
X339725Y501904D02*
X339725Y488696D01*
X365125Y488696D02*
X365125Y501904D01*
X390525Y501904D02*
X390525Y488696D01*
X415925Y488696D02*
X415925Y501904D01*
D26*
X219075Y571500D03*
D27*
X44450Y571500D03*
X69850Y571500D03*
X44450Y546100D03*
X69850Y546100D03*
X44450Y520700D03*
X69850Y520700D03*
X44450Y495300D03*
X69850Y495300D03*
X44450Y469900D03*
X69850Y469900D03*
X44450Y444500D03*
X69850Y444500D03*
X44450Y419100D03*
X69850Y419100D03*
X44450Y393700D03*
X69850Y393700D03*
X44450Y368300D03*
X69850Y368300D03*
X44450Y342900D03*
X69850Y342900D03*
X44450Y317500D03*
X69850Y317500D03*
X44450Y292100D03*
X69850Y292100D03*
X44450Y266700D03*
X69850Y266700D03*
X44450Y241300D03*
X69850Y241300D03*
X44450Y215900D03*
X69850Y215900D03*
X44450Y190500D03*
X69850Y190500D03*
X44450Y165100D03*
X69850Y165100D03*
X44450Y139700D03*
X69850Y139700D03*
X44450Y114300D03*
X69850Y114300D03*
X44450Y88900D03*
X69850Y88900D03*
D16*
X87630Y571500D02*
X102870Y571500D01*
X102870Y546100D02*
X87630Y546100D01*
X87630Y520700D02*
X102870Y520700D01*
X102870Y495300D02*
X87630Y495300D01*
X87630Y469900D02*
X102870Y469900D01*
X102870Y444500D02*
X87630Y444500D01*
X87630Y419100D02*
X102870Y419100D01*
X102870Y393700D02*
X87630Y393700D01*
X87630Y368300D02*
X102870Y368300D01*
X102870Y342900D02*
X87630Y342900D01*
X87630Y317500D02*
X102870Y317500D01*
X102870Y292100D02*
X87630Y292100D01*
X87630Y266700D02*
X102870Y266700D01*
X102870Y241300D02*
X87630Y241300D01*
X87630Y215900D02*
X102870Y215900D01*
X102870Y190500D02*
X87630Y190500D01*
X87630Y165100D02*
X102870Y165100D01*
X102870Y139700D02*
X87630Y139700D01*
X87630Y114300D02*
X102870Y114300D01*
X102870Y88900D02*
X87630Y88900D01*
X611505Y615950D02*
X626745Y615950D01*
X626745Y590550D02*
X611505Y590550D01*
X611505Y565150D02*
X626745Y565150D01*
X626745Y492125D02*
X611505Y492125D01*
X611505Y466725D02*
X626745Y466725D01*
X626745Y441325D02*
X611505Y441325D01*
X152400Y468630D02*
X152400Y483870D01*
X177800Y483870D02*
X177800Y468630D01*
X203200Y468630D02*
X203200Y483870D01*
D28*
X645775Y391775D03*
X645775Y236875D03*
D29*
X587375Y358775D03*
X612775Y346075D03*
X587375Y333375D03*
X587375Y307975D03*
X587375Y282575D03*
X612775Y320675D03*
X612775Y295275D03*
X612775Y269875D03*
D16*
X669925Y198120D02*
X669925Y182880D01*
X695325Y182880D02*
X695325Y198120D01*
X26670Y571500D02*
X11430Y571500D01*
X11430Y546100D02*
X26670Y546100D01*
X26670Y520700D02*
X11430Y520700D01*
X11430Y495300D02*
X26670Y495300D01*
X26670Y469900D02*
X11430Y469900D01*
X11430Y444500D02*
X26670Y444500D01*
X26670Y419100D02*
X11430Y419100D01*
X11430Y393700D02*
X26670Y393700D01*
X26670Y368300D02*
X11430Y368300D01*
X11430Y342900D02*
X26670Y342900D01*
X26670Y317500D02*
X11430Y317500D01*
X11430Y292100D02*
X26670Y292100D01*
X26670Y266700D02*
X11430Y266700D01*
X11430Y241300D02*
X26670Y241300D01*
X26670Y215900D02*
X11430Y215900D01*
X11430Y190500D02*
X26670Y190500D01*
X26670Y165100D02*
X11430Y165100D01*
X11430Y139700D02*
X26670Y139700D01*
X26670Y114300D02*
X11430Y114300D01*
X11430Y88900D02*
X26670Y88900D01*
D30*
X202200Y428625D03*
X153400Y428625D03*
D31*
X682625Y615950D03*
X682625Y565150D03*
X682625Y492125D03*
X682625Y441325D03*
D16*
X344170Y250825D02*
X328930Y250825D01*
X328930Y225425D02*
X344170Y225425D01*
D32*
X44450Y342900D02*
X19050Y342900D01*
X19050Y546100D02*
X44450Y546100D01*
X44450Y520700D02*
X19050Y520700D01*
X19050Y495300D02*
X44450Y495300D01*
X44450Y469900D02*
X19050Y469900D01*
X19050Y368300D02*
X44450Y368300D01*
X44450Y292100D02*
X19050Y292100D01*
X19050Y266700D02*
X44450Y266700D01*
X44450Y241300D02*
X19050Y241300D01*
X19050Y165100D02*
X44450Y165100D01*
X69850Y342900D02*
X95250Y342900D01*
D33*
X101600Y342900D01*
X136525Y307975D01*
X136525Y260350D01*
X140335Y256540D01*
X180340Y256540D02*
X180975Y257175D01*
X180340Y256540D02*
X140335Y256540D01*
D34*
X180975Y257175D03*
D32*
X95250Y317500D02*
X69850Y317500D01*
D33*
X95250Y317500D02*
X114300Y317500D01*
X130175Y301625D01*
X130175Y250825D01*
X133350Y247650D01*
X241300Y247650D01*
X257175Y247650D01*
X241300Y247650D02*
X241300Y236752D01*
D34*
X257175Y247650D03*
D32*
X44450Y317500D02*
X19050Y317500D01*
D33*
X139700Y92075D02*
X158750Y92075D01*
X139700Y92075D02*
X136525Y95250D01*
X136525Y168275D01*
X146050Y177800D01*
X146050Y224790D01*
D34*
X146050Y224790D03*
D33*
X222250Y92075D02*
X250825Y92075D01*
X222250Y92075D02*
X219075Y95250D01*
X219075Y168275D01*
X215900Y171450D01*
D34*
X158750Y224790D03*
D33*
X158750Y177800D01*
X165100Y171450D01*
X215900Y171450D01*
X177800Y177800D02*
X171450Y184150D01*
X177800Y177800D02*
X307975Y177800D01*
X311150Y174625D01*
X311150Y95250D01*
X314325Y92075D01*
X342900Y92075D01*
D34*
X171450Y224790D03*
D33*
X171450Y184150D01*
X406400Y92075D02*
X434975Y92075D01*
X406400Y92075D02*
X403225Y95250D01*
X403225Y180975D01*
X400050Y184150D01*
D34*
X184150Y224790D03*
D33*
X184150Y190500D01*
X190500Y184150D01*
X400050Y184150D01*
X200025Y190500D02*
X193675Y196850D01*
X200025Y190500D02*
X492125Y190500D01*
X495300Y187325D01*
X495300Y95250D01*
X498475Y92075D01*
X527050Y92075D01*
D34*
X193645Y224790D03*
D33*
X193675Y196850D01*
D32*
X95250Y241300D02*
X69850Y241300D01*
D34*
X223520Y323850D03*
D33*
X223520Y328930D01*
X206375Y346075D01*
X206375Y396875D01*
X222250Y412750D01*
X222250Y501650D01*
X212725Y511175D01*
X192904Y511175D01*
X192904Y542925D01*
X192904Y571059D01*
X193345Y571500D01*
X192904Y542925D02*
X206375Y542925D01*
D34*
X206375Y542925D03*
D35*
X219075Y571500D02*
X193345Y571500D01*
D33*
X57150Y254000D02*
X69850Y241300D01*
X57150Y254000D02*
X57150Y530225D01*
X60325Y533400D01*
X117475Y533400D01*
X120650Y536575D02*
X120650Y546100D01*
X120650Y536575D02*
X117475Y533400D01*
D34*
X120650Y546100D03*
X174625Y158750D03*
X206375Y158750D03*
X469900Y469900D03*
X469900Y482600D03*
X485775Y482600D03*
X365125Y541020D03*
X339725Y541020D03*
X314325Y541020D03*
X288925Y541020D03*
X263525Y541020D03*
D32*
X263525Y532027D01*
X288925Y532027D02*
X288925Y541020D01*
X314325Y541020D02*
X314325Y532027D01*
X339725Y532027D02*
X339725Y541020D01*
X365125Y541020D02*
X365125Y532027D01*
D34*
X266700Y158750D03*
X298450Y158750D03*
X358775Y158750D03*
X390525Y158750D03*
X450850Y158750D03*
X482600Y158750D03*
X542925Y158750D03*
X574675Y158750D03*
X320675Y269875D03*
X168275Y368300D03*
D35*
X168275Y356371D01*
X170054Y355600D01*
D34*
X307975Y346075D03*
X203200Y266700D03*
D33*
X214504Y266700D01*
D34*
X121136Y340211D03*
D35*
X134323Y327025D01*
X144248Y327025D01*
D34*
X184150Y342900D03*
X161925Y571500D03*
D35*
X174955Y571500D01*
X307975Y346075D02*
X307975Y334876D01*
D34*
X228600Y511175D03*
X447675Y487045D03*
X434975Y375920D03*
X511175Y375920D03*
X434975Y398145D03*
X511175Y398145D03*
X314325Y388620D03*
X314325Y366395D03*
X447675Y541020D03*
X228600Y539750D03*
X120650Y518795D03*
X120650Y496570D03*
X142875Y25400D03*
X206375Y25400D03*
X234950Y25400D03*
X298450Y25400D03*
X390525Y25400D03*
X482600Y25400D03*
X574675Y25400D03*
X600075Y142875D03*
X638175Y142875D03*
X676275Y142875D03*
X320675Y282575D03*
X581025Y492125D03*
X552450Y476250D03*
X485775Y438150D03*
X469900Y450850D03*
X469900Y530225D03*
X581025Y608753D03*
X552450Y593725D03*
X180975Y390525D03*
X228600Y390525D03*
X161925Y511175D03*
X390525Y541020D03*
X415925Y541020D03*
X288925Y346075D03*
D36*
X95250Y444500D02*
X69850Y444500D01*
D34*
X511175Y25400D03*
X419100Y25400D03*
X327025Y25400D03*
X412750Y355600D03*
X412750Y247650D03*
X371475Y206375D03*
X371475Y393700D03*
D36*
X95250Y215900D02*
X69850Y215900D01*
D34*
X247650Y317500D03*
X247650Y285750D03*
X149225Y542925D03*
X153670Y265430D03*
X254000Y219075D03*
X190500Y278130D03*
X209550Y217170D03*
X206375Y301625D03*
X168275Y339725D03*
X431800Y206375D03*
X520700Y206375D03*
X276225Y444500D03*
X431800Y450850D03*
X127000Y596900D03*
X222250Y596900D03*
X247650Y539750D03*
X460375Y561975D03*
X174625Y25400D03*
X266700Y25400D03*
X358775Y25400D03*
X450850Y25400D03*
X542925Y25400D03*
X711200Y142875D03*
X247650Y488950D03*
X546100Y527050D03*
D33*
X57150Y558800D02*
X44450Y571500D01*
X57150Y558800D02*
X127000Y558800D01*
X133350Y552450D01*
D34*
X177800Y328930D03*
D32*
X44450Y571500D02*
X19050Y571500D01*
D33*
X133350Y552450D02*
X133350Y342900D01*
X136525Y339725D02*
X155575Y339725D01*
X136525Y339725D02*
X133350Y342900D01*
X170180Y328930D02*
X177800Y328930D01*
X170180Y328930D02*
X168275Y327025D01*
X160552Y327025D01*
X160552Y334748D02*
X155575Y339725D01*
X160552Y334748D02*
X160552Y327025D01*
D35*
X263525Y495300D02*
X263525Y515723D01*
X390525Y515723D02*
X390525Y495300D01*
D34*
X219075Y352425D03*
D33*
X244475Y352425D01*
X250825Y358775D01*
X250825Y454025D01*
X254000Y457200D01*
X387350Y457200D01*
X390525Y460375D01*
X390525Y495300D01*
D35*
X288925Y495300D02*
X288925Y515723D01*
X415925Y515723D02*
X415925Y495300D01*
D33*
X415925Y434975D01*
X412750Y431800D01*
X279400Y431800D01*
X276225Y428625D01*
X276225Y346075D01*
X269875Y339725D01*
X241300Y339725D01*
X238125Y336550D01*
X238125Y323850D01*
D34*
X238125Y323850D03*
D35*
X314325Y495300D02*
X314325Y515723D01*
X339725Y515723D02*
X339725Y495300D01*
X365125Y495300D02*
X365125Y515723D01*
D33*
X336550Y250825D02*
X282575Y250825D01*
D34*
X282575Y250825D03*
D35*
X153400Y475250D02*
X152400Y476250D01*
X153400Y475250D02*
X153400Y428625D01*
X202200Y428625D02*
X202200Y475250D01*
X203200Y476250D01*
D33*
X44450Y139700D02*
X19050Y139700D01*
D34*
X244475Y266700D03*
D33*
X260350Y266700D02*
X266700Y260350D01*
X260350Y266700D02*
X244475Y266700D01*
X266700Y260350D02*
X266700Y236752D01*
D34*
X279400Y282575D03*
D33*
X293473Y282575D01*
X365125Y314325D02*
X378155Y314325D01*
X365125Y314325D02*
X361950Y311150D01*
X361950Y300854D01*
X361950Y292100D01*
X365125Y288925D01*
X378155Y288925D01*
X361950Y300854D02*
X234950Y299846D01*
X234950Y311150D01*
D34*
X234950Y311150D03*
D33*
X177800Y304800D02*
X166601Y304800D01*
X177800Y304800D02*
X189224Y316224D01*
X206375Y316224D01*
X211449Y311150D02*
X234950Y311150D01*
X211449Y311150D02*
X206375Y316224D01*
X152400Y290321D02*
X151062Y291659D01*
X151062Y304800D01*
D34*
X190500Y288290D03*
D33*
X154431Y288290D01*
X152400Y290321D01*
D35*
X289991Y319337D02*
X307975Y319337D01*
X289991Y319337D02*
X288925Y319279D01*
D34*
X275590Y322580D03*
D35*
X278891Y319279D02*
X288925Y319279D01*
X278891Y319279D02*
X275590Y322580D01*
D36*
X44450Y444500D02*
X19050Y444500D01*
X619125Y565150D02*
X682625Y565150D01*
D34*
X555625Y514350D03*
D36*
X44450Y215900D02*
X19050Y215900D01*
X619125Y441325D02*
X682625Y441325D01*
D34*
X587375Y387350D03*
X635000Y161925D03*
X673100Y161925D03*
X412750Y333375D03*
D37*
X397646Y333375D01*
X396875Y334146D01*
X396545Y333816D02*
X396545Y314325D01*
X396545Y333816D02*
X396875Y334146D01*
D34*
X412750Y269875D03*
D37*
X397646Y269875D01*
X396875Y269104D01*
X396545Y269434D02*
X396545Y288925D01*
X396545Y269434D02*
X396875Y269104D01*
D34*
X549275Y269875D03*
D33*
X549275Y247320D01*
D34*
X498475Y333375D03*
D33*
X546100Y333375D01*
X549275Y330200D01*
X549275Y317170D01*
X587375Y320675D02*
X612775Y320675D01*
X574675Y317500D02*
X574675Y247320D01*
X577850Y320675D02*
X587375Y320675D01*
X577850Y320675D02*
X574675Y317500D01*
X587375Y320675D02*
X587375Y307975D01*
X574675Y228930D02*
X549275Y228930D01*
X574675Y228930D02*
X603250Y228930D01*
D35*
X574675Y228930D02*
X574675Y193675D01*
D33*
X549275Y298780D02*
X530555Y298780D01*
X527050Y295275D01*
X527050Y231775D01*
X530225Y228600D01*
X548945Y228600D01*
X549275Y228930D01*
X628650Y250825D02*
X628650Y355600D01*
X628650Y250825D02*
X625145Y247320D01*
X603250Y247320D01*
X628650Y355600D02*
X625475Y358775D01*
X612775Y358775D02*
X587375Y358775D01*
X612775Y358775D02*
X625475Y358775D01*
X612775Y358775D02*
X612775Y346075D01*
D32*
X44450Y419100D02*
X19050Y419100D01*
X19050Y393700D02*
X44450Y393700D01*
X44450Y190500D02*
X19050Y190500D01*
X19050Y114300D02*
X44450Y114300D01*
X44450Y88900D02*
X19050Y88900D01*
X69850Y571500D02*
X95250Y571500D01*
X95250Y546100D02*
X69850Y546100D01*
X69850Y520700D02*
X95250Y520700D01*
X95250Y495300D02*
X69850Y495300D01*
X69850Y469900D02*
X95250Y469900D01*
X95250Y419100D02*
X69850Y419100D01*
X69850Y393700D02*
X95250Y393700D01*
X95250Y368300D02*
X69850Y368300D01*
X69850Y292100D02*
X95250Y292100D01*
D34*
X269875Y208924D03*
D33*
X226052Y208924D01*
X222250Y212725D01*
X120650Y292100D02*
X95250Y292100D01*
X120650Y292100D02*
X123825Y288925D01*
X123825Y244475D01*
X127000Y241300D01*
X219075Y241300D01*
X222250Y238125D01*
X222250Y212725D01*
D32*
X95250Y266700D02*
X69850Y266700D01*
D34*
X295910Y208280D03*
D33*
X295910Y200660D01*
X292100Y196850D01*
X210820Y196850D01*
X201930Y205740D01*
X201930Y232410D01*
X199390Y234950D01*
X120650Y234950D01*
X117475Y238125D01*
X117475Y263525D01*
X114300Y266700D02*
X95250Y266700D01*
X114300Y266700D02*
X117475Y263525D01*
D32*
X95250Y190500D02*
X69850Y190500D01*
X69850Y165100D02*
X95250Y165100D01*
X95250Y139700D02*
X69850Y139700D01*
X69850Y114300D02*
X95250Y114300D01*
X95250Y88900D02*
X69850Y88900D01*
M02*
