G04 EAGLE Gerber RS-274X export*
G75*
%MOMM*%
%FSLAX34Y34*%
%LPD*%
%INSoldermask Top*%
%IPPOS*%
%AMOC8*
5,1,8,0,0,1.08239X$1,22.5*%
G01*
G04 Define Apertures*
%ADD10C,3.203200*%
%ADD11R,1.124100X1.173400*%
%ADD12R,1.668500X1.367800*%
%ADD13P,1.64956X8X22.5*%
%ADD14R,1.367800X1.668500*%
%ADD15R,2.406800X1.998700*%
%ADD16R,1.565000X0.965000*%
%ADD17C,1.727200*%
%ADD18R,1.623400X1.234400*%
%ADD19R,1.234400X1.623400*%
%ADD20R,1.001900X1.177100*%
%ADD21C,1.524000*%
%ADD22R,1.003200X2.003200*%
%ADD23C,1.053200*%
%ADD24C,1.473200*%
%ADD25P,2.55682X8X22.5*%
%ADD26R,1.549400X0.482600*%
%ADD27R,0.482600X1.549400*%
%ADD28R,2.463800X0.660400*%
%ADD29P,1.8695X8X292.5*%
%ADD30C,3.453200*%
%ADD31C,2.603200*%
%ADD32C,1.611200*%
%ADD33C,1.433200*%
%ADD34C,2.003200*%
%ADD35R,1.101100X2.063500*%
%ADD36R,3.392300X2.063500*%
%ADD37P,0.819586X8X22.5*%
D10*
X40000Y620000D03*
X40000Y40000D03*
X450000Y420000D03*
X442700Y620000D03*
X700000Y90000D03*
D11*
X201804Y390525D03*
X217296Y390525D03*
D12*
X654050Y161154D03*
X654050Y143646D03*
X371475Y362721D03*
X371475Y380229D03*
X371475Y237354D03*
X371475Y219846D03*
D11*
X154179Y390525D03*
X169671Y390525D03*
D12*
X692150Y161154D03*
X692150Y143646D03*
D13*
X574675Y193675D03*
X625475Y193675D03*
D12*
X552450Y562746D03*
X552450Y580254D03*
D14*
X500879Y530225D03*
X483371Y530225D03*
D12*
X552450Y445271D03*
X552450Y462779D03*
D15*
X581025Y563251D03*
X581025Y592449D03*
X581025Y445776D03*
X581025Y474974D03*
D12*
X485775Y469129D03*
X485775Y451621D03*
D16*
X374650Y138975D03*
X374650Y159475D03*
X282575Y24675D03*
X282575Y45175D03*
X374650Y24675D03*
X374650Y45175D03*
X466725Y138975D03*
X466725Y159475D03*
X466725Y24675D03*
X466725Y45175D03*
X558800Y138975D03*
X558800Y159475D03*
X558800Y24675D03*
X558800Y45175D03*
X190500Y138975D03*
X190500Y159475D03*
X190500Y24675D03*
X190500Y45175D03*
X282575Y138975D03*
X282575Y159475D03*
D17*
X166370Y66675D02*
X151130Y66675D01*
X151130Y92075D02*
X166370Y92075D01*
X166370Y117475D02*
X151130Y117475D01*
X243205Y66675D02*
X258445Y66675D01*
X258445Y92075D02*
X243205Y92075D01*
X243205Y117475D02*
X258445Y117475D01*
X335280Y66675D02*
X350520Y66675D01*
X350520Y92075D02*
X335280Y92075D01*
X335280Y117475D02*
X350520Y117475D01*
X427355Y66675D02*
X442595Y66675D01*
X442595Y92075D02*
X427355Y92075D01*
X427355Y117475D02*
X442595Y117475D01*
X519430Y66675D02*
X534670Y66675D01*
X534670Y92075D02*
X519430Y92075D01*
X519430Y117475D02*
X534670Y117475D01*
X528320Y445096D02*
X513080Y445096D01*
X513080Y470496D02*
X528320Y470496D01*
X528320Y495896D02*
X513080Y495896D01*
D18*
X342900Y158420D03*
X342900Y140030D03*
X434975Y158420D03*
X434975Y140030D03*
X466725Y123495D03*
X466725Y105105D03*
X434975Y25730D03*
X434975Y44120D03*
X466725Y60655D03*
X466725Y79045D03*
X527050Y158420D03*
X527050Y140030D03*
X558800Y123495D03*
X558800Y105105D03*
X374650Y123495D03*
X374650Y105105D03*
X527050Y25730D03*
X527050Y44120D03*
X558800Y60655D03*
X558800Y79045D03*
X250825Y158420D03*
X250825Y140030D03*
X282575Y123495D03*
X282575Y105105D03*
X250825Y25730D03*
X250825Y44120D03*
X282575Y60655D03*
X282575Y79045D03*
X158750Y158420D03*
X158750Y140030D03*
X190500Y123495D03*
X190500Y105105D03*
X158750Y25730D03*
X158750Y44120D03*
X190500Y60655D03*
X190500Y79045D03*
X342900Y25730D03*
X342900Y44120D03*
D19*
X600405Y536575D03*
X618795Y536575D03*
X600405Y412750D03*
X618795Y412750D03*
D18*
X615950Y143205D03*
X615950Y161595D03*
X396875Y364795D03*
X396875Y346405D03*
X371475Y339395D03*
X371475Y321005D03*
X371475Y263855D03*
X371475Y282245D03*
X374650Y60655D03*
X374650Y79045D03*
X396875Y238455D03*
X396875Y256845D03*
X269875Y219405D03*
X269875Y237795D03*
X295275Y219405D03*
X295275Y237795D03*
D20*
X309777Y269875D03*
X293473Y269875D03*
D21*
X415925Y564896D02*
X415925Y578104D01*
X390525Y578104D02*
X390525Y564896D01*
X263525Y564896D02*
X263525Y578104D01*
X263525Y501904D02*
X263525Y488696D01*
X365125Y564896D02*
X365125Y578104D01*
X339725Y578104D02*
X339725Y564896D01*
X288925Y564896D02*
X288925Y578104D01*
X314325Y578104D02*
X314325Y564896D01*
X288925Y501904D02*
X288925Y488696D01*
X314325Y488696D02*
X314325Y501904D01*
X339725Y501904D02*
X339725Y488696D01*
X365125Y488696D02*
X365125Y501904D01*
X390525Y501904D02*
X390525Y488696D01*
X415925Y488696D02*
X415925Y501904D01*
D22*
X160300Y542925D03*
X195300Y542925D03*
D23*
X177800Y542925D03*
D24*
X339725Y469900D03*
X314325Y469900D03*
X288925Y469900D03*
X263525Y469900D03*
D25*
X219075Y571500D03*
D24*
X130175Y92075D03*
X222250Y92075D03*
X314325Y92075D03*
X406400Y92075D03*
X498475Y92075D03*
X390525Y469900D03*
X415925Y469900D03*
X365125Y469900D03*
D26*
X177292Y322775D03*
X177292Y317775D03*
X177292Y312775D03*
X177292Y307775D03*
X177292Y302775D03*
X177292Y297775D03*
X177292Y292775D03*
X177292Y287775D03*
X177292Y282775D03*
X177292Y277775D03*
X177292Y272775D03*
X177292Y267775D03*
D27*
X191575Y253492D03*
X196575Y253492D03*
X201575Y253492D03*
X206575Y253492D03*
X211575Y253492D03*
X216575Y253492D03*
X221575Y253492D03*
X226575Y253492D03*
X231575Y253492D03*
X236575Y253492D03*
X241575Y253492D03*
X246575Y253492D03*
D26*
X260858Y267775D03*
X260858Y272775D03*
X260858Y277775D03*
X260858Y282775D03*
X260858Y287775D03*
X260858Y292775D03*
X260858Y297775D03*
X260858Y302775D03*
X260858Y307775D03*
X260858Y312775D03*
X260858Y317775D03*
X260858Y322775D03*
D27*
X246575Y337058D03*
X241575Y337058D03*
X236575Y337058D03*
X231575Y337058D03*
X226575Y337058D03*
X221575Y337058D03*
X216575Y337058D03*
X211575Y337058D03*
X206575Y337058D03*
X201575Y337058D03*
X196575Y337058D03*
X191575Y337058D03*
D28*
X433705Y346075D03*
X433705Y333375D03*
X433705Y320675D03*
X433705Y307975D03*
X433705Y295275D03*
X433705Y282575D03*
X433705Y269875D03*
X433705Y257175D03*
X518795Y257175D03*
X518795Y269875D03*
X518795Y282575D03*
X518795Y295275D03*
X518795Y307975D03*
X518795Y320675D03*
X518795Y333375D03*
X518795Y346075D03*
D29*
X44450Y571500D03*
X69850Y571500D03*
X44450Y546100D03*
X69850Y546100D03*
X44450Y520700D03*
X69850Y520700D03*
X44450Y495300D03*
X69850Y495300D03*
X44450Y469900D03*
X69850Y469900D03*
X44450Y444500D03*
X69850Y444500D03*
X44450Y419100D03*
X69850Y419100D03*
X44450Y393700D03*
X69850Y393700D03*
X44450Y368300D03*
X69850Y368300D03*
X44450Y342900D03*
X69850Y342900D03*
X44450Y317500D03*
X69850Y317500D03*
X44450Y292100D03*
X69850Y292100D03*
X44450Y266700D03*
X69850Y266700D03*
X44450Y241300D03*
X69850Y241300D03*
X44450Y215900D03*
X69850Y215900D03*
X44450Y190500D03*
X69850Y190500D03*
X44450Y165100D03*
X69850Y165100D03*
X44450Y139700D03*
X69850Y139700D03*
X44450Y114300D03*
X69850Y114300D03*
X44450Y88900D03*
X69850Y88900D03*
D17*
X87630Y571500D02*
X102870Y571500D01*
X102870Y546100D02*
X87630Y546100D01*
X87630Y520700D02*
X102870Y520700D01*
X102870Y495300D02*
X87630Y495300D01*
X87630Y469900D02*
X102870Y469900D01*
X102870Y444500D02*
X87630Y444500D01*
X87630Y419100D02*
X102870Y419100D01*
X102870Y393700D02*
X87630Y393700D01*
X87630Y368300D02*
X102870Y368300D01*
X102870Y342900D02*
X87630Y342900D01*
X87630Y317500D02*
X102870Y317500D01*
X102870Y292100D02*
X87630Y292100D01*
X87630Y266700D02*
X102870Y266700D01*
X102870Y241300D02*
X87630Y241300D01*
X87630Y215900D02*
X102870Y215900D01*
X102870Y190500D02*
X87630Y190500D01*
X87630Y165100D02*
X102870Y165100D01*
X102870Y139700D02*
X87630Y139700D01*
X87630Y114300D02*
X102870Y114300D01*
X102870Y88900D02*
X87630Y88900D01*
X611505Y615950D02*
X626745Y615950D01*
X626745Y590550D02*
X611505Y590550D01*
X611505Y565150D02*
X626745Y565150D01*
X626745Y492125D02*
X611505Y492125D01*
X611505Y466725D02*
X626745Y466725D01*
X626745Y441325D02*
X611505Y441325D01*
X152400Y468630D02*
X152400Y483870D01*
X177800Y483870D02*
X177800Y468630D01*
X203200Y468630D02*
X203200Y483870D01*
D30*
X676275Y371475D03*
X676275Y257175D03*
D31*
X645775Y391775D03*
X645775Y236875D03*
D32*
X587375Y358775D03*
X612775Y346075D03*
X587375Y333375D03*
X587375Y307975D03*
X587375Y282575D03*
X612775Y320675D03*
X612775Y295275D03*
X612775Y269875D03*
D17*
X669925Y198120D02*
X669925Y182880D01*
X695325Y182880D02*
X695325Y198120D01*
X26670Y571500D02*
X11430Y571500D01*
X11430Y546100D02*
X26670Y546100D01*
X26670Y520700D02*
X11430Y520700D01*
X11430Y495300D02*
X26670Y495300D01*
X26670Y469900D02*
X11430Y469900D01*
X11430Y444500D02*
X26670Y444500D01*
X26670Y419100D02*
X11430Y419100D01*
X11430Y393700D02*
X26670Y393700D01*
X26670Y368300D02*
X11430Y368300D01*
X11430Y342900D02*
X26670Y342900D01*
X26670Y317500D02*
X11430Y317500D01*
X11430Y292100D02*
X26670Y292100D01*
X26670Y266700D02*
X11430Y266700D01*
X11430Y241300D02*
X26670Y241300D01*
X26670Y215900D02*
X11430Y215900D01*
X11430Y190500D02*
X26670Y190500D01*
X26670Y165100D02*
X11430Y165100D01*
X11430Y139700D02*
X26670Y139700D01*
X26670Y114300D02*
X11430Y114300D01*
X11430Y88900D02*
X26670Y88900D01*
D33*
X202200Y428625D03*
X153400Y428625D03*
D34*
X682625Y615950D03*
X682625Y565150D03*
X682625Y492125D03*
X682625Y441325D03*
D17*
X344170Y250825D02*
X328930Y250825D01*
X328930Y225425D02*
X344170Y225425D01*
D35*
X478650Y559800D03*
X501650Y559800D03*
X524650Y559800D03*
D36*
X501650Y621300D03*
D37*
X180975Y257175D03*
X257175Y247650D03*
X146050Y224790D03*
X158750Y224790D03*
X171450Y224790D03*
X184150Y224790D03*
X193645Y224790D03*
X223520Y323850D03*
X206375Y542925D03*
X120650Y546100D03*
X174625Y158750D03*
X206375Y158750D03*
X469900Y469900D03*
X469900Y482600D03*
X485775Y482600D03*
X365125Y541020D03*
X339725Y541020D03*
X314325Y541020D03*
X288925Y541020D03*
X263525Y541020D03*
X266700Y158750D03*
X298450Y158750D03*
X358775Y158750D03*
X390525Y158750D03*
X450850Y158750D03*
X482600Y158750D03*
X542925Y158750D03*
X574675Y158750D03*
X320675Y269875D03*
X168275Y368300D03*
X307975Y346075D03*
X203200Y266700D03*
X121136Y340211D03*
X184150Y342900D03*
X161925Y571500D03*
X228600Y511175D03*
X447675Y487045D03*
X434975Y375920D03*
X511175Y375920D03*
X434975Y398145D03*
X511175Y398145D03*
X314325Y388620D03*
X314325Y366395D03*
X447675Y541020D03*
X228600Y539750D03*
X120650Y518795D03*
X120650Y496570D03*
X142875Y25400D03*
X206375Y25400D03*
X234950Y25400D03*
X298450Y25400D03*
X390525Y25400D03*
X482600Y25400D03*
X574675Y25400D03*
X600075Y142875D03*
X638175Y142875D03*
X676275Y142875D03*
X320675Y282575D03*
X581025Y492125D03*
X552450Y476250D03*
X485775Y438150D03*
X469900Y450850D03*
X469900Y530225D03*
X581025Y608753D03*
X552450Y593725D03*
X180975Y390525D03*
X228600Y390525D03*
X161925Y511175D03*
X390525Y541020D03*
X415925Y541020D03*
X288925Y346075D03*
X511175Y25400D03*
X419100Y25400D03*
X327025Y25400D03*
X412750Y355600D03*
X412750Y247650D03*
X371475Y206375D03*
X371475Y393700D03*
X247650Y317500D03*
X247650Y285750D03*
X149225Y542925D03*
X153670Y265430D03*
X254000Y219075D03*
X190500Y278130D03*
X209550Y217170D03*
X206375Y301625D03*
X168275Y339725D03*
X431800Y206375D03*
X520700Y206375D03*
X276225Y444500D03*
X431800Y450850D03*
X127000Y596900D03*
X222250Y596900D03*
X247650Y539750D03*
X460375Y561975D03*
X174625Y25400D03*
X266700Y25400D03*
X358775Y25400D03*
X450850Y25400D03*
X542925Y25400D03*
X711200Y142875D03*
X247650Y488950D03*
X546100Y527050D03*
X177800Y328930D03*
X219075Y352425D03*
X238125Y323850D03*
X282575Y250825D03*
X244475Y266700D03*
X279400Y282575D03*
X234950Y311150D03*
X190500Y288290D03*
X275590Y322580D03*
X555625Y514350D03*
X587375Y387350D03*
X635000Y161925D03*
X673100Y161925D03*
X412750Y333375D03*
X412750Y269875D03*
X549275Y269875D03*
X498475Y333375D03*
X269875Y208924D03*
X295910Y208280D03*
M02*
