G04 EAGLE Gerber RS-274X export*
G75*
%MOMM*%
%FSLAX34Y34*%
%LPD*%
%INSolderpaste Top*%
%IPPOS*%
%AMOC8*
5,1,8,0,0,1.08239X$1,22.5*%
G01*
G04 Define Apertures*
%ADD10R,0.920900X0.970200*%
%ADD11R,1.465300X1.164600*%
%ADD12R,1.164600X1.465300*%
%ADD13R,2.203600X1.795500*%
%ADD14R,1.361800X0.761800*%
%ADD15R,1.420200X1.031200*%
%ADD16R,1.031200X1.420200*%
%ADD17R,0.798700X0.973900*%
%ADD18R,0.800000X1.800000*%
%ADD19R,1.346200X0.279400*%
%ADD20R,0.279400X1.346200*%
%ADD21R,2.260600X0.457200*%
%ADD22R,0.897900X1.860300*%
%ADD23R,3.189100X1.860300*%
G36*
X629775Y265875D02*
X658775Y265875D01*
X658775Y207875D01*
X629775Y207875D01*
X629775Y265875D01*
G37*
G36*
X629775Y420775D02*
X658775Y420775D01*
X658775Y362775D01*
X629775Y362775D01*
X629775Y420775D01*
G37*
G36*
X570875Y293075D02*
X597875Y293075D01*
X597875Y272075D01*
X570875Y272075D01*
X570875Y293075D01*
G37*
G36*
X570875Y318475D02*
X597875Y318475D01*
X597875Y297475D01*
X570875Y297475D01*
X570875Y318475D01*
G37*
G36*
X570875Y343875D02*
X597875Y343875D01*
X597875Y322875D01*
X570875Y322875D01*
X570875Y343875D01*
G37*
G36*
X570875Y369275D02*
X597875Y369275D01*
X597875Y348275D01*
X570875Y348275D01*
X570875Y369275D01*
G37*
G36*
X600275Y280375D02*
X627275Y280375D01*
X627275Y259375D01*
X600275Y259375D01*
X600275Y280375D01*
G37*
G36*
X600275Y305775D02*
X627275Y305775D01*
X627275Y284775D01*
X600275Y284775D01*
X600275Y305775D01*
G37*
G36*
X600275Y331175D02*
X627275Y331175D01*
X627275Y310175D01*
X600275Y310175D01*
X600275Y331175D01*
G37*
G36*
X600275Y356575D02*
X627275Y356575D01*
X627275Y335575D01*
X600275Y335575D01*
X600275Y356575D01*
G37*
D10*
X201804Y390525D03*
X217296Y390525D03*
D11*
X654050Y161154D03*
X654050Y143646D03*
X371475Y362721D03*
X371475Y380229D03*
X371475Y237354D03*
X371475Y219846D03*
D10*
X154179Y390525D03*
X169671Y390525D03*
D11*
X692150Y161154D03*
X692150Y143646D03*
X552450Y562746D03*
X552450Y580254D03*
D12*
X500879Y530225D03*
X483371Y530225D03*
D11*
X552450Y445271D03*
X552450Y462779D03*
D13*
X581025Y563251D03*
X581025Y592449D03*
X581025Y445776D03*
X581025Y474974D03*
D11*
X485775Y469129D03*
X485775Y451621D03*
D14*
X374650Y138975D03*
X374650Y159475D03*
X282575Y24675D03*
X282575Y45175D03*
X374650Y24675D03*
X374650Y45175D03*
X466725Y138975D03*
X466725Y159475D03*
X466725Y24675D03*
X466725Y45175D03*
X558800Y138975D03*
X558800Y159475D03*
X558800Y24675D03*
X558800Y45175D03*
X190500Y138975D03*
X190500Y159475D03*
X190500Y24675D03*
X190500Y45175D03*
X282575Y138975D03*
X282575Y159475D03*
D15*
X342900Y158420D03*
X342900Y140030D03*
X434975Y158420D03*
X434975Y140030D03*
X466725Y123495D03*
X466725Y105105D03*
X434975Y25730D03*
X434975Y44120D03*
X466725Y60655D03*
X466725Y79045D03*
X527050Y158420D03*
X527050Y140030D03*
X558800Y123495D03*
X558800Y105105D03*
X374650Y123495D03*
X374650Y105105D03*
X527050Y25730D03*
X527050Y44120D03*
X558800Y60655D03*
X558800Y79045D03*
X250825Y158420D03*
X250825Y140030D03*
X282575Y123495D03*
X282575Y105105D03*
X250825Y25730D03*
X250825Y44120D03*
X282575Y60655D03*
X282575Y79045D03*
X158750Y158420D03*
X158750Y140030D03*
X190500Y123495D03*
X190500Y105105D03*
X158750Y25730D03*
X158750Y44120D03*
X190500Y60655D03*
X190500Y79045D03*
X342900Y25730D03*
X342900Y44120D03*
D16*
X600405Y536575D03*
X618795Y536575D03*
X600405Y412750D03*
X618795Y412750D03*
D15*
X615950Y143205D03*
X615950Y161595D03*
X396875Y364795D03*
X396875Y346405D03*
X371475Y339395D03*
X371475Y321005D03*
X371475Y263855D03*
X371475Y282245D03*
X374650Y60655D03*
X374650Y79045D03*
X396875Y238455D03*
X396875Y256845D03*
X269875Y219405D03*
X269875Y237795D03*
X295275Y219405D03*
X295275Y237795D03*
D17*
X309777Y269875D03*
X293473Y269875D03*
D18*
X160300Y542925D03*
X195300Y542925D03*
D19*
X177292Y322775D03*
X177292Y317775D03*
X177292Y312775D03*
X177292Y307775D03*
X177292Y302775D03*
X177292Y297775D03*
X177292Y292775D03*
X177292Y287775D03*
X177292Y282775D03*
X177292Y277775D03*
X177292Y272775D03*
X177292Y267775D03*
D20*
X191575Y253492D03*
X196575Y253492D03*
X201575Y253492D03*
X206575Y253492D03*
X211575Y253492D03*
X216575Y253492D03*
X221575Y253492D03*
X226575Y253492D03*
X231575Y253492D03*
X236575Y253492D03*
X241575Y253492D03*
X246575Y253492D03*
D19*
X260858Y267775D03*
X260858Y272775D03*
X260858Y277775D03*
X260858Y282775D03*
X260858Y287775D03*
X260858Y292775D03*
X260858Y297775D03*
X260858Y302775D03*
X260858Y307775D03*
X260858Y312775D03*
X260858Y317775D03*
X260858Y322775D03*
D20*
X246575Y337058D03*
X241575Y337058D03*
X236575Y337058D03*
X231575Y337058D03*
X226575Y337058D03*
X221575Y337058D03*
X216575Y337058D03*
X211575Y337058D03*
X206575Y337058D03*
X201575Y337058D03*
X196575Y337058D03*
X191575Y337058D03*
D21*
X433705Y346075D03*
X433705Y333375D03*
X433705Y320675D03*
X433705Y307975D03*
X433705Y295275D03*
X433705Y282575D03*
X433705Y269875D03*
X433705Y257175D03*
X518795Y257175D03*
X518795Y269875D03*
X518795Y282575D03*
X518795Y295275D03*
X518795Y307975D03*
X518795Y320675D03*
X518795Y333375D03*
X518795Y346075D03*
D22*
X478650Y559800D03*
X501650Y559800D03*
X524650Y559800D03*
D23*
X501650Y621300D03*
M02*
