<?xml version="1.0" encoding="utf-8" standalone="no"?>
<!DOCTYPE svg PUBLIC "-//W3C//DTD SVG 1.1//EN"
  "http://www.w3.org/Graphics/SVG/1.1/DTD/svg11.dtd">
<svg xmlns:xlink="http://www.w3.org/1999/xlink" width="693.859438pt" height="500.298pt" viewBox="0 0 693.859438 500.298" xmlns="http://www.w3.org/2000/svg" version="1.1">
 <metadata>
  <rdf:RDF xmlns:dc="http://purl.org/dc/elements/1.1/" xmlns:cc="http://creativecommons.org/ns#" xmlns:rdf="http://www.w3.org/1999/02/22-rdf-syntax-ns#">
   <cc:Work>
    <dc:type rdf:resource="http://purl.org/dc/dcmitype/StillImage"/>
    <dc:date>2025-05-26T08:17:11.166095</dc:date>
    <dc:format>image/svg+xml</dc:format>
    <dc:creator>
     <cc:Agent>
      <dc:title>Matplotlib v3.9.2, https://matplotlib.org/</dc:title>
     </cc:Agent>
    </dc:creator>
   </cc:Work>
  </rdf:RDF>
 </metadata>
 <defs>
  <style type="text/css">*{stroke-linejoin: round; stroke-linecap: butt}</style>
 </defs>
 <g id="figure_1">
  <g id="patch_1">
   <path d="M 0 500.298 
L 693.859438 500.298 
L 693.859438 0 
L 0 0 
L 0 500.298 
z
" style="fill: none"/>
  </g>
  <g id="axes_1">
   <g id="line2d_1">
    <path d="M 588.595879 292.218 
L 570.595879 292.218 
L 552.595879 292.218 
" clip-path="url(#p36e427729e)" style="fill: none; stroke: #000000; stroke-width: 2; stroke-linecap: round"/>
   </g>
   <g id="line2d_2">
    <path d="M 552.595879 292.218 
L 552.595879 319.218 
L 552.595879 346.218 
" clip-path="url(#p36e427729e)" style="fill: none; stroke: #000000; stroke-width: 2; stroke-linecap: round"/>
   </g>
   <g id="line2d_3">
    <path d="M 552.595879 346.218 
L 552.595879 378.978 
M 561.595879 378.978 
L 543.595879 378.978 
M 561.595879 385.458 
L 543.595879 385.458 
M 552.595879 385.458 
L 552.595879 418.218 
" clip-path="url(#p36e427729e)" style="fill: none; stroke: #000000; stroke-width: 2; stroke-linecap: round"/>
   </g>
   <g id="line2d_4">
    <path d="M 552.595879 418.218 
L 552.595879 445.218 
L 552.595879 472.218 
" clip-path="url(#p36e427729e)" style="fill: none; stroke: #000000; stroke-width: 2; stroke-linecap: round"/>
   </g>
   <g id="line2d_5">
    <path d="M 552.595879 472.218 
L 552.595879 486.618 
L 543.595879 486.618 
L 552.595879 495.618 
L 561.595879 486.618 
L 552.595879 486.618 
" clip-path="url(#p36e427729e)" style="fill: none; stroke: #000000; stroke-width: 2; stroke-linecap: round"/>
   </g>
   <g id="line2d_6">
    <path d="M 552.595879 292.218 
L 516.595879 292.218 
L 480.595879 292.218 
" clip-path="url(#p36e427729e)" style="fill: none; stroke: #000000; stroke-width: 2; stroke-linecap: round"/>
   </g>
   <g id="line2d_7">
    <path d="M 480.595879 292.218 
L 480.595879 301.218 
L 480.595879 310.218 
" clip-path="url(#p36e427729e)" style="fill: none; stroke: #000000; stroke-width: 2; stroke-linecap: round"/>
   </g>
   <g id="line2d_8">
    <path d="M 480.595879 370.218 
L 480.595879 355.218 
L 465.595879 355.218 
L 465.595879 325.218 
L 480.595879 325.218 
L 480.595879 310.218 
" clip-path="url(#p36e427729e)" style="fill: none; stroke: #000000; stroke-width: 2; stroke-linecap: round"/>
   </g>
   <g id="line2d_9">
    <path d="M 471.595879 355.218 
L 465.595879 355.218 
" clip-path="url(#p36e427729e)" style="fill: none; stroke: #000000; stroke-width: 2; stroke-linecap: round"/>
   </g>
   <g id="patch_2">
    <path d="M 471.595879 350.718 
L 480.595879 355.218 
L 471.595879 359.718 
z
" clip-path="url(#p36e427729e)"/>
   </g>
   <g id="line2d_10">
    <path d="M 462.595879 352.218 
L 462.595879 328.218 
" clip-path="url(#p36e427729e)" style="fill: none; stroke: #000000; stroke-width: 2; stroke-linecap: round"/>
   </g>
   <g id="line2d_11">
    <path d="M 447.595879 340.218 
L 462.595879 340.218 
" clip-path="url(#p36e427729e)" style="fill: none; stroke: #000000; stroke-width: 2; stroke-linecap: round"/>
   </g>
   <g id="line2d_12">
    <path d="M 480.595879 370.218 
L 480.595879 421.218 
L 480.595879 472.218 
" clip-path="url(#p36e427729e)" style="fill: none; stroke: #000000; stroke-width: 2; stroke-linecap: round"/>
   </g>
   <g id="line2d_13">
    <path d="M 480.595879 472.218 
L 480.595879 486.618 
L 471.595879 486.618 
L 480.595879 495.618 
L 489.595879 486.618 
L 480.595879 486.618 
" clip-path="url(#p36e427729e)" style="fill: none; stroke: #000000; stroke-width: 2; stroke-linecap: round"/>
   </g>
   <g id="line2d_14">
    <path d="M 447.595879 340.218 
L 429.595879 340.218 
L 411.595879 340.218 
" clip-path="url(#p36e427729e)" style="fill: none; stroke: #000000; stroke-width: 2; stroke-linecap: round"/>
   </g>
   <g id="line2d_15">
    <path d="M 411.595879 340.218 
L 411.595879 316.218 
L 411.595879 292.218 
" clip-path="url(#p36e427729e)" style="fill: none; stroke: #000000; stroke-width: 2; stroke-linecap: round"/>
   </g>
   <g id="line2d_16">
    <path d="M 411.595879 292.218 
L 446.095879 292.218 
L 480.595879 292.218 
" clip-path="url(#p36e427729e)" style="fill: none; stroke: #000000; stroke-width: 2; stroke-linecap: round"/>
   </g>
   <g id="line2d_17">
    <path d="M 480.595879 292.218 
L 480.595879 283.218 
L 480.595879 274.218 
" clip-path="url(#p36e427729e)" style="fill: none; stroke: #000000; stroke-width: 2; stroke-linecap: round"/>
   </g>
   <g id="line2d_18">
    <path d="M 480.595879 274.218 
L 480.595879 259.218 
L 465.595879 259.218 
L 465.595879 229.218 
L 480.595879 229.218 
L 480.595879 214.218 
" clip-path="url(#p36e427729e)" style="fill: none; stroke: #000000; stroke-width: 2; stroke-linecap: round"/>
   </g>
   <g id="line2d_19">
    <path d="M 471.595879 259.218 
L 465.595879 259.218 
" clip-path="url(#p36e427729e)" style="fill: none; stroke: #000000; stroke-width: 2; stroke-linecap: round"/>
   </g>
   <g id="patch_3">
    <path d="M 471.595879 254.718 
L 480.595879 259.218 
L 471.595879 263.718 
z
" clip-path="url(#p36e427729e)"/>
   </g>
   <g id="line2d_20">
    <path d="M 462.595879 256.218 
L 462.595879 232.218 
" clip-path="url(#p36e427729e)" style="fill: none; stroke: #000000; stroke-width: 2; stroke-linecap: round"/>
   </g>
   <g id="line2d_21">
    <path d="M 447.595879 244.218 
L 462.595879 244.218 
" clip-path="url(#p36e427729e)" style="fill: none; stroke: #000000; stroke-width: 2; stroke-linecap: round"/>
   </g>
   <g id="line2d_22">
    <path d="M 447.595879 244.218 
L 429.595879 244.218 
L 411.595879 244.218 
" clip-path="url(#p36e427729e)" style="fill: none; stroke: #000000; stroke-width: 2; stroke-linecap: round"/>
   </g>
   <g id="line2d_23">
    <path d="M 411.595879 244.218 
L 411.595879 220.218 
L 411.595879 196.218 
" clip-path="url(#p36e427729e)" style="fill: none; stroke: #000000; stroke-width: 2; stroke-linecap: round"/>
   </g>
   <g id="line2d_24">
    <path d="M 411.595879 196.218 
L 446.095879 196.218 
L 480.595879 196.218 
" clip-path="url(#p36e427729e)" style="fill: none; stroke: #000000; stroke-width: 2; stroke-linecap: round"/>
   </g>
   <g id="line2d_25">
    <path d="M 480.595879 196.218 
L 480.595879 205.218 
L 480.595879 214.218 
" clip-path="url(#p36e427729e)" style="fill: none; stroke: #000000; stroke-width: 2; stroke-linecap: round"/>
   </g>
   <g id="line2d_26">
    <path d="M 480.595879 196.218 
L 534.595879 196.218 
L 588.595879 196.218 
" clip-path="url(#p36e427729e)" style="fill: none; stroke: #000000; stroke-width: 2; stroke-linecap: round"/>
   </g>
   <g id="line2d_27">
    <path d="M 480.595879 196.218 
L 480.595879 187.218 
L 480.595879 178.218 
" clip-path="url(#p36e427729e)" style="fill: none; stroke: #000000; stroke-width: 2; stroke-linecap: round"/>
   </g>
   <g id="line2d_28">
    <path d="M 480.595879 162.018 
L 480.595879 162.018 
" clip-path="url(#p36e427729e)" style="fill: none; stroke: #000000; stroke-width: 2; stroke-linecap: round"/>
   </g>
   <g id="patch_4">
    <path d="M 485.095879 162.018 
L 480.595879 178.218 
L 476.095879 162.018 
z
" clip-path="url(#p36e427729e)"/>
   </g>
   <g id="line2d_29">
    <path d="M 480.595879 178.218 
L 480.595879 151.218 
L 480.595879 124.218 
" clip-path="url(#p36e427729e)" style="fill: none; stroke: #000000; stroke-width: 2; stroke-linecap: round"/>
   </g>
   <g id="line2d_30">
    <path d="M 480.595879 124.218 
L 480.595879 109.218 
L 465.595879 109.218 
L 465.595879 79.218 
L 480.595879 79.218 
L 480.595879 64.218 
" clip-path="url(#p36e427729e)" style="fill: none; stroke: #000000; stroke-width: 2; stroke-linecap: round"/>
   </g>
   <g id="line2d_31">
    <path d="M 474.595879 79.218 
L 480.595879 79.218 
" clip-path="url(#p36e427729e)" style="fill: none; stroke: #000000; stroke-width: 2; stroke-linecap: round"/>
   </g>
   <g id="patch_5">
    <path d="M 474.595879 83.718 
L 465.595879 79.218 
L 474.595879 74.718 
z
" clip-path="url(#p36e427729e)"/>
   </g>
   <g id="line2d_32">
    <path d="M 462.595879 106.218 
L 462.595879 82.218 
" clip-path="url(#p36e427729e)" style="fill: none; stroke: #000000; stroke-width: 2; stroke-linecap: round"/>
   </g>
   <g id="line2d_33">
    <path d="M 447.595879 94.218 
L 462.595879 94.218 
" clip-path="url(#p36e427729e)" style="fill: none; stroke: #000000; stroke-width: 2; stroke-linecap: round"/>
   </g>
   <g id="line2d_34">
    <path d="M 480.595879 64.218 
L 480.595879 50.718 
L 480.595879 37.218 
" clip-path="url(#p36e427729e)" style="fill: none; stroke: #000000; stroke-width: 2; stroke-linecap: round"/>
   </g>
   <g id="line2d_35">
    <path d="M 480.595879 37.218 
L 480.595879 22.818 
" clip-path="url(#p36e427729e)" style="fill: none; stroke: #000000; stroke-width: 2; stroke-linecap: round"/>
   </g>
   <g id="line2d_36">
    <path d="M 480.595879 22.818 
L 473.845879 22.818 
" clip-path="url(#p36e427729e)" style="fill: none; stroke: #000000; stroke-width: 2; stroke-linecap: round"/>
   </g>
   <g id="line2d_37">
    <path d="M 480.595879 22.818 
L 487.345879 22.818 
" clip-path="url(#p36e427729e)" style="fill: none; stroke: #000000; stroke-width: 2; stroke-linecap: round"/>
   </g>
   <g id="line2d_38">
    <path d="M 447.595879 94.218 
L 429.595879 94.218 
L 411.595879 94.218 
" clip-path="url(#p36e427729e)" style="fill: none; stroke: #000000; stroke-width: 2; stroke-linecap: round"/>
   </g>
   <g id="line2d_39">
    <path d="M 411.595879 94.218 
L 411.595879 61.458 
M 402.595879 61.458 
L 420.595879 61.458 
M 402.595879 54.978 
L 420.595879 54.978 
M 411.595879 54.978 
L 411.595879 22.218 
" clip-path="url(#p36e427729e)" style="fill: none; stroke: #000000; stroke-width: 2; stroke-linecap: round"/>
   </g>
   <g id="line2d_40">
    <path d="M 411.595879 22.218 
L 411.595879 22.218 
" clip-path="url(#p36e427729e)" style="fill: none; stroke: #000000; stroke-width: 2; stroke-linecap: round"/>
   </g>
   <g id="line2d_41">
    <path d="M 411.595879 22.218 
L 404.845879 22.218 
" clip-path="url(#p36e427729e)" style="fill: none; stroke: #000000; stroke-width: 2; stroke-linecap: round"/>
   </g>
   <g id="line2d_42">
    <path d="M 411.595879 22.218 
L 418.345879 22.218 
" clip-path="url(#p36e427729e)" style="fill: none; stroke: #000000; stroke-width: 2; stroke-linecap: round"/>
   </g>
   <g id="line2d_43">
    <path d="M 411.595879 94.218 
L 375.595879 94.218 
L 339.595879 94.218 
" clip-path="url(#p36e427729e)" style="fill: none; stroke: #000000; stroke-width: 2; stroke-linecap: round"/>
   </g>
   <g id="line2d_44">
    <path d="M 339.595879 94.218 
L 321.595879 94.218 
L 303.595879 94.218 
" clip-path="url(#p36e427729e)" style="fill: none; stroke: #000000; stroke-width: 2; stroke-linecap: round"/>
   </g>
   <g id="line2d_45">
    <path d="M 270.595879 64.218 
L 270.595879 79.218 
L 285.595879 79.218 
L 285.595879 109.218 
L 270.595879 109.218 
L 270.595879 124.218 
" clip-path="url(#p36e427729e)" style="fill: none; stroke: #000000; stroke-width: 2; stroke-linecap: round"/>
   </g>
   <g id="line2d_46">
    <path d="M 270.595879 79.218 
L 276.595879 79.218 
" clip-path="url(#p36e427729e)" style="fill: none; stroke: #000000; stroke-width: 2; stroke-linecap: round"/>
   </g>
   <g id="patch_6">
    <path d="M 276.595879 74.718 
L 285.595879 79.218 
L 276.595879 83.718 
z
" clip-path="url(#p36e427729e)"/>
   </g>
   <g id="line2d_47">
    <path d="M 288.595879 82.218 
L 288.595879 106.218 
" clip-path="url(#p36e427729e)" style="fill: none; stroke: #000000; stroke-width: 2; stroke-linecap: round"/>
   </g>
   <g id="line2d_48">
    <path d="M 288.595879 94.218 
L 303.595879 94.218 
" clip-path="url(#p36e427729e)" style="fill: none; stroke: #000000; stroke-width: 2; stroke-linecap: round"/>
   </g>
   <g id="line2d_49">
    <path d="M 270.595879 64.218 
L 270.595879 50.718 
L 270.595879 37.218 
" clip-path="url(#p36e427729e)" style="fill: none; stroke: #000000; stroke-width: 2; stroke-linecap: round"/>
   </g>
   <g id="line2d_50">
    <path d="M 270.595879 37.218 
L 270.595879 22.818 
" clip-path="url(#p36e427729e)" style="fill: none; stroke: #000000; stroke-width: 2; stroke-linecap: round"/>
   </g>
   <g id="line2d_51">
    <path d="M 270.595879 22.818 
L 263.845879 22.818 
" clip-path="url(#p36e427729e)" style="fill: none; stroke: #000000; stroke-width: 2; stroke-linecap: round"/>
   </g>
   <g id="line2d_52">
    <path d="M 270.595879 22.818 
L 277.345879 22.818 
" clip-path="url(#p36e427729e)" style="fill: none; stroke: #000000; stroke-width: 2; stroke-linecap: round"/>
   </g>
   <g id="line2d_53">
    <path d="M 270.595879 124.218 
L 270.595879 133.218 
L 270.595879 142.218 
" clip-path="url(#p36e427729e)" style="fill: none; stroke: #000000; stroke-width: 2; stroke-linecap: round"/>
   </g>
   <g id="line2d_54">
    <path d="M 270.595879 142.218 
L 252.595879 142.218 
L 234.595879 142.218 
" clip-path="url(#p36e427729e)" style="fill: none; stroke: #000000; stroke-width: 2; stroke-linecap: round"/>
   </g>
   <g id="line2d_55">
    <path d="M 270.595879 142.218 
L 305.095879 142.218 
L 339.595879 142.218 
" clip-path="url(#p36e427729e)" style="fill: none; stroke: #000000; stroke-width: 2; stroke-linecap: round"/>
   </g>
   <g id="line2d_56">
    <path d="M 339.595879 142.218 
L 339.595879 118.218 
L 339.595879 94.218 
" clip-path="url(#p36e427729e)" style="fill: none; stroke: #000000; stroke-width: 2; stroke-linecap: round"/>
   </g>
   <g id="line2d_57">
    <path d="M 270.595879 142.218 
L 270.595879 160.218 
L 270.595879 178.218 
" clip-path="url(#p36e427729e)" style="fill: none; stroke: #000000; stroke-width: 2; stroke-linecap: round"/>
   </g>
   <g id="line2d_58">
    <path d="M 270.595879 162.018 
L 270.595879 162.018 
" clip-path="url(#p36e427729e)" style="fill: none; stroke: #000000; stroke-width: 2; stroke-linecap: round"/>
   </g>
   <g id="patch_7">
    <path d="M 275.095879 162.018 
L 270.595879 178.218 
L 266.095879 162.018 
z
" clip-path="url(#p36e427729e)"/>
   </g>
   <g id="line2d_59">
    <path d="M 270.595879 178.218 
L 270.595879 196.218 
L 270.595879 214.218 
" clip-path="url(#p36e427729e)" style="fill: none; stroke: #000000; stroke-width: 2; stroke-linecap: round"/>
   </g>
   <g id="line2d_60">
    <path d="M 270.595879 214.218 
L 270.595879 229.218 
L 285.595879 229.218 
L 285.595879 259.218 
L 270.595879 259.218 
L 270.595879 274.218 
" clip-path="url(#p36e427729e)" style="fill: none; stroke: #000000; stroke-width: 2; stroke-linecap: round"/>
   </g>
   <g id="line2d_61">
    <path d="M 285.595879 259.218 
L 279.595879 259.218 
" clip-path="url(#p36e427729e)" style="fill: none; stroke: #000000; stroke-width: 2; stroke-linecap: round"/>
   </g>
   <g id="patch_8">
    <path d="M 279.595879 263.718 
L 270.595879 259.218 
L 279.595879 254.718 
z
" clip-path="url(#p36e427729e)"/>
   </g>
   <g id="line2d_62">
    <path d="M 288.595879 232.218 
L 288.595879 256.218 
" clip-path="url(#p36e427729e)" style="fill: none; stroke: #000000; stroke-width: 2; stroke-linecap: round"/>
   </g>
   <g id="line2d_63">
    <path d="M 288.595879 244.218 
L 303.595879 244.218 
" clip-path="url(#p36e427729e)" style="fill: none; stroke: #000000; stroke-width: 2; stroke-linecap: round"/>
   </g>
   <g id="line2d_64">
    <path d="M 303.595879 244.218 
L 357.595879 244.218 
L 411.595879 244.218 
" clip-path="url(#p36e427729e)" style="fill: none; stroke: #000000; stroke-width: 2; stroke-linecap: round"/>
   </g>
   <g id="line2d_65">
    <path d="M 270.595879 274.218 
L 270.595879 292.218 
L 270.595879 310.218 
" clip-path="url(#p36e427729e)" style="fill: none; stroke: #000000; stroke-width: 2; stroke-linecap: round"/>
   </g>
   <g id="line2d_66">
    <path d="M 270.595879 310.218 
L 270.595879 325.218 
L 285.595879 325.218 
L 285.595879 355.218 
L 270.595879 355.218 
L 270.595879 370.218 
" clip-path="url(#p36e427729e)" style="fill: none; stroke: #000000; stroke-width: 2; stroke-linecap: round"/>
   </g>
   <g id="line2d_67">
    <path d="M 285.595879 355.218 
L 279.595879 355.218 
" clip-path="url(#p36e427729e)" style="fill: none; stroke: #000000; stroke-width: 2; stroke-linecap: round"/>
   </g>
   <g id="patch_9">
    <path d="M 279.595879 359.718 
L 270.595879 355.218 
L 279.595879 350.718 
z
" clip-path="url(#p36e427729e)"/>
   </g>
   <g id="line2d_68">
    <path d="M 288.595879 328.218 
L 288.595879 352.218 
" clip-path="url(#p36e427729e)" style="fill: none; stroke: #000000; stroke-width: 2; stroke-linecap: round"/>
   </g>
   <g id="line2d_69">
    <path d="M 288.595879 340.218 
L 303.595879 340.218 
" clip-path="url(#p36e427729e)" style="fill: none; stroke: #000000; stroke-width: 2; stroke-linecap: round"/>
   </g>
   <g id="line2d_70">
    <path d="M 303.595879 340.218 
L 357.595879 340.218 
L 411.595879 340.218 
" clip-path="url(#p36e427729e)" style="fill: none; stroke: #000000; stroke-width: 2; stroke-linecap: round"/>
   </g>
   <g id="line2d_71">
    <path d="M 270.595879 370.218 
L 270.595879 379.218 
L 270.595879 388.218 
" clip-path="url(#p36e427729e)" style="fill: none; stroke: #000000; stroke-width: 2; stroke-linecap: round"/>
   </g>
   <g id="line2d_72">
    <path d="M 270.595879 388.218 
L 306.595879 388.218 
L 342.595879 388.218 
" clip-path="url(#p36e427729e)" style="fill: none; stroke: #000000; stroke-width: 2; stroke-linecap: round"/>
   </g>
   <g id="line2d_73">
    <path d="M 342.595879 388.218 
L 342.595879 392.718 
L 342.595879 397.218 
" clip-path="url(#p36e427729e)" style="fill: none; stroke: #000000; stroke-width: 2; stroke-linecap: round"/>
   </g>
   <g id="line2d_74">
    <path d="M 342.595879 397.218 
L 342.595879 429.978 
M 351.595879 429.978 
L 333.595879 429.978 
M 351.595879 436.458 
L 333.595879 436.458 
M 342.595879 436.458 
L 342.595879 469.218 
" clip-path="url(#p36e427729e)" style="fill: none; stroke: #000000; stroke-width: 2; stroke-linecap: round"/>
   </g>
   <g id="line2d_75">
    <path d="M 342.595879 469.218 
L 342.595879 470.718 
L 342.595879 472.218 
" clip-path="url(#p36e427729e)" style="fill: none; stroke: #000000; stroke-width: 2; stroke-linecap: round"/>
   </g>
   <g id="line2d_76">
    <path d="M 342.595879 472.218 
L 342.595879 486.618 
L 333.595879 486.618 
L 342.595879 495.618 
L 351.595879 486.618 
L 342.595879 486.618 
" clip-path="url(#p36e427729e)" style="fill: none; stroke: #000000; stroke-width: 2; stroke-linecap: round"/>
   </g>
   <g id="line2d_77">
    <path d="M 270.595879 388.218 
L 270.595879 392.718 
L 270.595879 397.218 
" clip-path="url(#p36e427729e)" style="fill: none; stroke: #000000; stroke-width: 2; stroke-linecap: round"/>
   </g>
   <g id="line2d_78">
    <path d="M 270.595879 397.218 
L 270.595879 415.218 
L 279.595879 418.218 
L 261.595879 424.218 
L 279.595879 430.218 
L 261.595879 436.218 
L 279.595879 442.218 
L 261.595879 448.218 
L 270.595879 451.218 
L 270.595879 469.218 
" clip-path="url(#p36e427729e)" style="fill: none; stroke: #000000; stroke-width: 2; stroke-linecap: round"/>
   </g>
   <g id="line2d_79">
    <path d="M 252.595879 424.218 
L 285.058572 439.200781 
" clip-path="url(#p36e427729e)" style="fill: none; stroke: #000000; stroke-width: 2; stroke-linecap: round"/>
   </g>
   <g id="patch_10">
    <path d="M 286.265459 436.585858 
L 291.595879 442.218 
L 283.851684 441.815704 
z
" clip-path="url(#p36e427729e)"/>
   </g>
   <g id="line2d_80">
    <path d="M 270.595879 469.218 
L 270.595879 470.718 
L 270.595879 472.218 
" clip-path="url(#p36e427729e)" style="fill: none; stroke: #000000; stroke-width: 2; stroke-linecap: round"/>
   </g>
   <g id="line2d_81">
    <path d="M 270.595879 472.218 
L 270.595879 486.618 
L 261.595879 486.618 
L 270.595879 495.618 
L 279.595879 486.618 
L 270.595879 486.618 
" clip-path="url(#p36e427729e)" style="fill: none; stroke: #000000; stroke-width: 2; stroke-linecap: round"/>
   </g>
   <g id="line2d_82">
    <path d="M 411.595879 292.218 
L 323.095879 292.218 
L 234.595879 292.218 
" clip-path="url(#p36e427729e)" style="fill: none; stroke: #000000; stroke-width: 2; stroke-linecap: round"/>
   </g>
   <g id="line2d_83">
    <path d="M 234.595879 142.218 
L 198.595879 142.218 
L 162.595879 142.218 
" clip-path="url(#p36e427729e)" style="fill: none; stroke: #000000; stroke-width: 2; stroke-linecap: round"/>
   </g>
   <g id="line2d_84">
    <path d="M 162.595879 142.218 
L 162.595879 160.218 
L 162.595879 178.218 
" clip-path="url(#p36e427729e)" style="fill: none; stroke: #000000; stroke-width: 2; stroke-linecap: round"/>
   </g>
   <g id="line2d_85">
    <path d="M 162.595879 238.218 
L 162.595879 223.218 
L 147.595879 223.218 
L 147.595879 193.218 
L 162.595879 193.218 
L 162.595879 178.218 
" clip-path="url(#p36e427729e)" style="fill: none; stroke: #000000; stroke-width: 2; stroke-linecap: round"/>
   </g>
   <g id="line2d_86">
    <path d="M 153.595879 223.218 
L 147.595879 223.218 
" clip-path="url(#p36e427729e)" style="fill: none; stroke: #000000; stroke-width: 2; stroke-linecap: round"/>
   </g>
   <g id="patch_11">
    <path d="M 153.595879 218.718 
L 162.595879 223.218 
L 153.595879 227.718 
z
" clip-path="url(#p36e427729e)"/>
   </g>
   <g id="line2d_87">
    <path d="M 144.595879 220.218 
L 144.595879 196.218 
" clip-path="url(#p36e427729e)" style="fill: none; stroke: #000000; stroke-width: 2; stroke-linecap: round"/>
   </g>
   <g id="line2d_88">
    <path d="M 129.595879 208.218 
L 144.595879 208.218 
" clip-path="url(#p36e427729e)" style="fill: none; stroke: #000000; stroke-width: 2; stroke-linecap: round"/>
   </g>
   <g id="line2d_89">
    <path d="M 162.595879 238.218 
L 162.595879 265.218 
L 162.595879 292.218 
" clip-path="url(#p36e427729e)" style="fill: none; stroke: #000000; stroke-width: 2; stroke-linecap: round"/>
   </g>
   <g id="line2d_90">
    <path d="M 162.595879 292.218 
L 198.595879 292.218 
L 234.595879 292.218 
" clip-path="url(#p36e427729e)" style="fill: none; stroke: #000000; stroke-width: 2; stroke-linecap: round"/>
   </g>
   <g id="line2d_91">
    <path d="M 162.595879 292.218 
L 162.595879 316.218 
L 162.595879 340.218 
" clip-path="url(#p36e427729e)" style="fill: none; stroke: #000000; stroke-width: 2; stroke-linecap: round"/>
   </g>
   <g id="line2d_92">
    <path d="M 162.595879 340.218 
L 144.595879 340.218 
L 126.595879 340.218 
" clip-path="url(#p36e427729e)" style="fill: none; stroke: #000000; stroke-width: 2; stroke-linecap: round"/>
   </g>
   <g id="line2d_93">
    <path d="M 93.595879 310.218 
L 93.595879 325.218 
L 108.595879 325.218 
L 108.595879 355.218 
L 93.595879 355.218 
L 93.595879 370.218 
" clip-path="url(#p36e427729e)" style="fill: none; stroke: #000000; stroke-width: 2; stroke-linecap: round"/>
   </g>
   <g id="line2d_94">
    <path d="M 108.595879 355.218 
L 102.595879 355.218 
" clip-path="url(#p36e427729e)" style="fill: none; stroke: #000000; stroke-width: 2; stroke-linecap: round"/>
   </g>
   <g id="patch_12">
    <path d="M 102.595879 359.718 
L 93.595879 355.218 
L 102.595879 350.718 
z
" clip-path="url(#p36e427729e)"/>
   </g>
   <g id="line2d_95">
    <path d="M 111.595879 328.218 
L 111.595879 352.218 
" clip-path="url(#p36e427729e)" style="fill: none; stroke: #000000; stroke-width: 2; stroke-linecap: round"/>
   </g>
   <g id="line2d_96">
    <path d="M 111.595879 340.218 
L 126.595879 340.218 
" clip-path="url(#p36e427729e)" style="fill: none; stroke: #000000; stroke-width: 2; stroke-linecap: round"/>
   </g>
   <g id="line2d_97">
    <path d="M 93.595879 370.218 
L 93.595879 421.218 
L 93.595879 472.218 
" clip-path="url(#p36e427729e)" style="fill: none; stroke: #000000; stroke-width: 2; stroke-linecap: round"/>
   </g>
   <g id="line2d_98">
    <path d="M 93.595879 472.218 
L 93.595879 486.618 
L 84.595879 486.618 
L 93.595879 495.618 
L 102.595879 486.618 
L 93.595879 486.618 
" clip-path="url(#p36e427729e)" style="fill: none; stroke: #000000; stroke-width: 2; stroke-linecap: round"/>
   </g>
   <g id="line2d_99">
    <path d="M 93.595879 310.218 
L 93.595879 259.218 
L 93.595879 208.218 
" clip-path="url(#p36e427729e)" style="fill: none; stroke: #000000; stroke-width: 2; stroke-linecap: round"/>
   </g>
   <g id="line2d_100">
    <path d="M 93.595879 208.218 
L 111.595879 208.218 
L 129.595879 208.218 
" clip-path="url(#p36e427729e)" style="fill: none; stroke: #000000; stroke-width: 2; stroke-linecap: round"/>
   </g>
   <g id="line2d_101">
    <path d="M 93.595879 208.218 
L 93.595879 181.218 
L 93.595879 154.218 
" clip-path="url(#p36e427729e)" style="fill: none; stroke: #000000; stroke-width: 2; stroke-linecap: round"/>
   </g>
   <g id="line2d_102">
    <path d="M 93.595879 154.218 
L 93.595879 121.458 
M 84.595879 121.458 
L 102.595879 121.458 
M 84.595879 114.978 
L 102.595879 114.978 
M 93.595879 114.978 
L 93.595879 82.218 
" clip-path="url(#p36e427729e)" style="fill: none; stroke: #000000; stroke-width: 2; stroke-linecap: round"/>
   </g>
   <g id="line2d_103">
    <path d="M 93.595879 82.218 
L 93.595879 59.718 
L 93.595879 37.218 
" clip-path="url(#p36e427729e)" style="fill: none; stroke: #000000; stroke-width: 2; stroke-linecap: round"/>
   </g>
   <g id="line2d_104">
    <path d="M 93.595879 37.218 
L 93.595879 22.818 
" clip-path="url(#p36e427729e)" style="fill: none; stroke: #000000; stroke-width: 2; stroke-linecap: round"/>
   </g>
   <g id="line2d_105">
    <path d="M 93.595879 22.818 
L 86.845879 22.818 
" clip-path="url(#p36e427729e)" style="fill: none; stroke: #000000; stroke-width: 2; stroke-linecap: round"/>
   </g>
   <g id="line2d_106">
    <path d="M 93.595879 22.818 
L 100.345879 22.818 
" clip-path="url(#p36e427729e)" style="fill: none; stroke: #000000; stroke-width: 2; stroke-linecap: round"/>
   </g>
   <g id="patch_13">
    <path d="M 552.595879 294.918 
C 553.311927 294.918 553.998745 294.633511 554.505067 294.127188 
C 555.01139 293.620866 555.295879 292.934048 555.295879 292.218 
C 555.295879 291.501952 555.01139 290.815134 554.505067 290.308812 
C 553.998745 289.802489 553.311927 289.518 552.595879 289.518 
C 551.879831 289.518 551.193013 289.802489 550.686691 290.308812 
C 550.180368 290.815134 549.895879 291.501952 549.895879 292.218 
C 549.895879 292.934048 550.180368 293.620866 550.686691 294.127188 
C 551.193013 294.633511 551.879831 294.918 552.595879 294.918 
z
" clip-path="url(#p36e427729e)" style="stroke: #000000; stroke-width: 2; stroke-linejoin: miter"/>
   </g>
   <g id="text_1">
    <!-- $C_\mathrm{DEC1} \\$100.0/40.0 -->
    <g transform="translate(566.995879 378.46541) scale(0.14 -0.14)">
     <defs>
      <path id="CMMI12-43" d="M 4781 4423 
C 4781 4480 4736 4480 4723 4480 
C 4710 4480 4685 4480 4634 4416 
L 4192 3882 
C 3968 4264 3616 4480 3136 4480 
C 1754 4480 320 3088 320 1595 
C 320 533 1069 -128 2003 -128 
C 2515 -128 2963 88 3334 400 
C 3891 863 4058 1481 4058 1531 
C 4058 1588 4006 1588 3987 1588 
C 3930 1588 3923 1550 3910 1524 
C 3616 534 2752 57 2112 57 
C 1434 57 845 489 845 1391 
C 845 1595 909 2700 1632 3532 
C 1984 3939 2586 4295 3194 4295 
C 3898 4295 4211 3717 4211 3068 
C 4211 2903 4192 2764 4192 2738 
C 4192 2681 4256 2681 4275 2681 
C 4346 2681 4352 2687 4378 2801 
L 4781 4423 
z
" transform="scale(0.015625)"/>
      <path id="CMR17-44" d="M 333 4352 
L 333 4186 
C 774 4186 845 4186 845 3900 
L 845 452 
C 845 166 774 166 333 166 
L 333 0 
L 2368 0 
C 3398 0 4224 943 4224 2141 
C 4224 3346 3411 4352 2368 4352 
L 333 4352 
z
M 1523 166 
C 1267 166 1254 197 1254 414 
L 1254 3938 
C 1254 4155 1267 4186 1523 4186 
L 2240 4186 
C 2771 4186 3750 3874 3750 2141 
C 3750 1242 3488 879 3366 707 
C 3213 510 2848 166 2240 166 
L 1523 166 
z
" transform="scale(0.015625)"/>
      <path id="CMR17-45" d="M 3885 1615 
L 3770 1615 
C 3629 676 3546 166 2419 166 
L 1530 166 
C 1274 166 1261 197 1261 414 
L 1261 2176 
L 1862 2176 
C 2464 2176 2522 1960 2522 1430 
L 2637 1430 
L 2637 3081 
L 2522 3081 
C 2522 2557 2464 2342 1862 2342 
L 1261 2342 
L 1261 3913 
C 1261 4128 1274 4160 1530 4160 
L 2406 4160 
C 3398 4160 3514 3769 3603 2929 
L 3718 2929 
L 3565 4325 
L 326 4325 
L 326 4160 
C 768 4160 838 4160 838 3874 
L 838 451 
C 838 166 768 166 326 166 
L 326 0 
L 3654 0 
L 3885 1615 
z
" transform="scale(0.015625)"/>
      <path id="CMR17-43" d="M 3974 4289 
C 3974 4403 3968 4410 3930 4410 
C 3904 4410 3898 4403 3853 4327 
L 3571 3792 
C 3258 4187 2874 4416 2381 4416 
C 1286 4416 294 3456 294 2148 
C 294 826 1286 -128 2387 -128 
C 3366 -128 3974 730 3974 1461 
C 3974 1524 3974 1550 3917 1550 
C 3866 1550 3866 1531 3859 1474 
C 3808 585 3168 38 2477 38 
C 1824 38 781 495 781 2147 
C 781 3805 1843 4250 2464 4250 
C 3187 4250 3712 3628 3834 2745 
C 3846 2668 3846 2655 3904 2655 
C 3974 2655 3974 2668 3974 2783 
L 3974 4289 
z
" transform="scale(0.015625)"/>
      <path id="CMR17-31" d="M 1702 4058 
C 1702 4192 1696 4192 1606 4192 
C 1357 3916 979 3827 621 3827 
C 602 3827 570 3827 563 3808 
C 557 3795 557 3782 557 3648 
C 755 3648 1088 3686 1344 3839 
L 1344 461 
C 1344 236 1331 160 781 160 
L 589 160 
L 589 0 
C 896 0 1216 0 1523 0 
C 1830 0 2150 0 2458 0 
L 2458 160 
L 2266 160 
C 1715 160 1702 230 1702 458 
L 1702 4058 
z
" transform="scale(0.015625)"/>
      <path id="CMR17-30" d="M 2688 2025 
C 2688 2416 2682 3080 2413 3591 
C 2176 4039 1798 4198 1466 4198 
C 1158 4198 768 4058 525 3597 
C 269 3118 243 2524 243 2025 
C 243 1661 250 1106 448 619 
C 723 -39 1216 -128 1466 -128 
C 1760 -128 2208 -7 2470 600 
C 2662 1042 2688 1559 2688 2025 
z
M 1466 -26 
C 1056 -26 813 325 723 812 
C 653 1188 653 1738 653 2096 
C 653 2588 653 2997 736 3387 
C 858 3929 1216 4096 1466 4096 
C 1728 4096 2067 3923 2189 3400 
C 2272 3036 2278 2607 2278 2096 
C 2278 1680 2278 1169 2202 792 
C 2067 95 1690 -26 1466 -26 
z
" transform="scale(0.015625)"/>
      <path id="CMR17-2e" d="M 1062 261 
C 1062 420 934 522 800 522 
C 672 522 538 420 538 261 
C 538 102 666 0 800 0 
C 928 0 1062 102 1062 261 
z
" transform="scale(0.015625)"/>
      <path id="CMR17-2f" d="M 2605 4545 
C 2637 4627 2637 4640 2637 4653 
C 2637 4729 2579 4768 2528 4768 
C 2451 4768 2426 4717 2400 4640 
L 326 -1377 
C 294 -1460 294 -1473 294 -1486 
C 294 -1562 352 -1600 403 -1600 
C 480 -1600 506 -1549 531 -1473 
L 2605 4545 
z
" transform="scale(0.015625)"/>
      <path id="CMR17-34" d="M 2150 4122 
C 2150 4256 2144 4256 2029 4256 
L 128 1254 
L 128 1088 
L 1779 1088 
L 1779 457 
C 1779 224 1766 160 1318 160 
L 1197 160 
L 1197 0 
C 1402 0 1747 0 1965 0 
C 2182 0 2528 0 2733 0 
L 2733 160 
L 2611 160 
C 2163 160 2150 224 2150 457 
L 2150 1088 
L 2803 1088 
L 2803 1254 
L 2150 1254 
L 2150 4122 
z
M 1798 3703 
L 1798 1254 
L 256 1254 
L 1798 3703 
z
" transform="scale(0.015625)"/>
     </defs>
     <use xlink:href="#CMMI12-43" transform="translate(14.94396 0) scale(0.996264)"/>
     <use xlink:href="#CMR17-44" transform="translate(84.735997 -14.943915) scale(0.697382)"/>
     <use xlink:href="#CMR17-45" transform="translate(134.011267 -14.943915) scale(0.697382)"/>
     <use xlink:href="#CMR17-43" transform="translate(177.821481 -14.943915) scale(0.697382)"/>
     <use xlink:href="#CMR17-31" transform="translate(224.378186 -14.943915) scale(0.697382)"/>
     <use xlink:href="#CMR17-31" transform="translate(0 -90.570289) scale(0.996264)"/>
     <use xlink:href="#CMR17-30" transform="translate(45.690477 -90.570289) scale(0.996264)"/>
     <use xlink:href="#CMR17-30" transform="translate(91.380954 -90.570289) scale(0.996264)"/>
     <use xlink:href="#CMR17-2e" transform="translate(137.071431 -90.570289) scale(0.996264)"/>
     <use xlink:href="#CMR17-30" transform="translate(161.94249 -90.570289) scale(0.996264)"/>
     <use xlink:href="#CMR17-2f" transform="translate(207.632967 -90.570289) scale(0.996264)"/>
     <use xlink:href="#CMR17-34" transform="translate(253.323444 -90.570289) scale(0.996264)"/>
     <use xlink:href="#CMR17-30" transform="translate(299.013921 -90.570289) scale(0.996264)"/>
     <use xlink:href="#CMR17-2e" transform="translate(344.704398 -90.570289) scale(0.996264)"/>
     <use xlink:href="#CMR17-30" transform="translate(369.575457 -90.570289) scale(0.996264)"/>
    </g>
   </g>
   <g id="text_2">
    <!-- $M_{2} \\$5.0/$2 \cdot$10.0 -->
    <g transform="translate(487.334877 336.46541) scale(0.14 -0.14)">
     <defs>
      <path id="CMMI12-4d" d="M 5811 3886 
C 5869 4103 5882 4167 6336 4167 
C 6458 4167 6515 4167 6515 4288 
C 6515 4352 6470 4352 6349 4352 
L 5581 4352 
C 5421 4352 5414 4346 5344 4243 
L 3008 562 
L 2528 4211 
C 2509 4352 2502 4352 2336 4352 
L 1542 4352 
C 1421 4352 1363 4352 1363 4231 
C 1363 4167 1421 4167 1517 4167 
C 1907 4167 1907 4116 1907 4046 
C 1907 4034 1907 3995 1882 3899 
L 1062 634 
C 986 327 838 186 410 186 
C 390 186 314 186 314 73 
C 314 0 371 0 397 0 
C 525 0 851 0 979 0 
L 1286 0 
C 1376 0 1485 0 1574 0 
C 1619 0 1690 0 1690 122 
C 1690 180 1626 186 1600 186 
C 1389 186 1184 224 1184 454 
C 1184 518 1184 524 1210 613 
L 2093 4129 
L 2099 4129 
L 2630 172 
C 2650 19 2656 0 2714 0 
C 2784 0 2816 51 2848 109 
L 5421 4161 
L 5427 4161 
L 4499 473 
C 4442 250 4429 186 3981 186 
C 3859 186 3795 186 3795 70 
C 3795 0 3853 0 3891 0 
C 4000 0 4128 0 4237 0 
L 4992 0 
C 5101 0 5235 0 5344 0 
C 5395 0 5466 0 5466 122 
C 5466 186 5408 186 5312 186 
C 4922 186 4922 234 4922 294 
C 4922 301 4922 345 4934 396 
L 5811 3886 
z
" transform="scale(0.015625)"/>
      <path id="CMR17-32" d="M 2669 989 
L 2554 989 
C 2490 536 2438 459 2413 420 
C 2381 369 1920 369 1830 369 
L 602 369 
C 832 619 1280 1072 1824 1597 
C 2214 1967 2669 2402 2669 3035 
C 2669 3790 2067 4224 1395 4224 
C 691 4224 262 3604 262 3030 
C 262 2780 448 2748 525 2748 
C 589 2748 781 2787 781 3010 
C 781 3207 614 3264 525 3264 
C 486 3264 448 3258 422 3245 
C 544 3790 915 4058 1306 4058 
C 1862 4058 2227 3617 2227 3035 
C 2227 2479 1901 2000 1536 1584 
L 262 146 
L 262 0 
L 2515 0 
L 2669 989 
z
" transform="scale(0.015625)"/>
      <path id="CMR17-35" d="M 730 3692 
C 794 3666 1056 3584 1325 3584 
C 1920 3584 2246 3911 2432 4100 
C 2432 4157 2432 4192 2394 4192 
C 2387 4192 2374 4192 2323 4163 
C 2099 4058 1837 3973 1517 3973 
C 1325 3973 1037 3999 723 4139 
C 653 4171 640 4171 634 4171 
C 602 4171 595 4164 595 4037 
L 595 2203 
C 595 2089 595 2057 659 2057 
C 691 2057 704 2070 736 2114 
C 941 2401 1222 2522 1542 2522 
C 1766 2522 2246 2382 2246 1289 
C 2246 1085 2246 715 2054 421 
C 1894 159 1645 25 1370 25 
C 947 25 518 320 403 814 
C 429 807 480 795 506 795 
C 589 795 749 840 749 1038 
C 749 1210 627 1280 506 1280 
C 358 1280 262 1190 262 1011 
C 262 454 704 -128 1382 -128 
C 2042 -128 2669 440 2669 1264 
C 2669 2030 2170 2624 1549 2624 
C 1222 2624 947 2503 730 2274 
L 730 3692 
z
" transform="scale(0.015625)"/>
      <path id="CMSY10-1" d="M 1229 1619 
C 1229 1805 1075 1958 890 1958 
C 704 1958 550 1805 550 1619 
C 550 1433 704 1280 890 1280 
C 1075 1280 1229 1433 1229 1619 
z
" transform="scale(0.015625)"/>
     </defs>
     <use xlink:href="#CMMI12-4d" transform="translate(14.94396 0) scale(0.996264)"/>
     <use xlink:href="#CMR17-32" transform="translate(109.317385 -14.943915) scale(0.697382)"/>
     <use xlink:href="#CMR17-35" transform="translate(0 -90.570289) scale(0.996264)"/>
     <use xlink:href="#CMR17-2e" transform="translate(45.690477 -90.570289) scale(0.996264)"/>
     <use xlink:href="#CMR17-30" transform="translate(70.561536 -90.570289) scale(0.996264)"/>
     <use xlink:href="#CMR17-2f" transform="translate(116.252013 -90.570289) scale(0.996264)"/>
     <use xlink:href="#CMR17-32" transform="translate(161.94249 -90.570289) scale(0.996264)"/>
     <use xlink:href="#CMSY10-1" transform="translate(207.632967 -90.570289) scale(0.996264)"/>
     <use xlink:href="#CMR17-31" transform="translate(235.307052 -90.570289) scale(0.996264)"/>
     <use xlink:href="#CMR17-30" transform="translate(280.997529 -90.570289) scale(0.996264)"/>
     <use xlink:href="#CMR17-2e" transform="translate(326.688006 -90.570289) scale(0.996264)"/>
     <use xlink:href="#CMR17-30" transform="translate(351.559064 -90.570289) scale(0.996264)"/>
    </g>
   </g>
   <g id="patch_14">
    <path d="M 411.595879 342.918 
C 412.311927 342.918 412.998745 342.633511 413.505067 342.127188 
C 414.01139 341.620866 414.295879 340.934048 414.295879 340.218 
C 414.295879 339.501952 414.01139 338.815134 413.505067 338.308812 
C 412.998745 337.802489 412.311927 337.518 411.595879 337.518 
C 410.879831 337.518 410.193013 337.802489 409.686691 338.308812 
C 409.180368 338.815134 408.895879 339.501952 408.895879 340.218 
C 408.895879 340.934048 409.180368 341.620866 409.686691 342.127188 
C 410.193013 342.633511 410.879831 342.918 411.595879 342.918 
z
" clip-path="url(#p36e427729e)" style="stroke: #000000; stroke-width: 2; stroke-linejoin: miter"/>
   </g>
   <g id="patch_15">
    <path d="M 411.595879 294.918 
C 412.311927 294.918 412.998745 294.633511 413.505067 294.127188 
C 414.01139 293.620866 414.295879 292.934048 414.295879 292.218 
C 414.295879 291.501952 414.01139 290.815134 413.505067 290.308812 
C 412.998745 289.802489 412.311927 289.518 411.595879 289.518 
C 410.879831 289.518 410.193013 289.802489 409.686691 290.308812 
C 409.180368 290.815134 408.895879 291.501952 408.895879 292.218 
C 408.895879 292.934048 409.180368 293.620866 409.686691 294.127188 
C 410.193013 294.633511 410.879831 294.918 411.595879 294.918 
z
" clip-path="url(#p36e427729e)" style="stroke: #000000; stroke-width: 2; stroke-linejoin: miter"/>
   </g>
   <g id="patch_16">
    <path d="M 480.595879 294.918 
C 481.311927 294.918 481.998745 294.633511 482.505067 294.127188 
C 483.01139 293.620866 483.295879 292.934048 483.295879 292.218 
C 483.295879 291.501952 483.01139 290.815134 482.505067 290.308812 
C 481.998745 289.802489 481.311927 289.518 480.595879 289.518 
C 479.879831 289.518 479.193013 289.802489 478.686691 290.308812 
C 478.180368 290.815134 477.895879 291.501952 477.895879 292.218 
C 477.895879 292.934048 478.180368 293.620866 478.686691 294.127188 
C 479.193013 294.633511 479.879831 294.918 480.595879 294.918 
z
" clip-path="url(#p36e427729e)" style="stroke: #000000; stroke-width: 2; stroke-linejoin: miter"/>
   </g>
   <g id="text_3">
    <!-- $M_{2C} \\$5.0/$2 \cdot$10.0 -->
    <g transform="translate(487.334877 240.46541) scale(0.14 -0.14)">
     <use xlink:href="#CMMI12-4d" transform="translate(14.94396 0) scale(0.996264)"/>
     <use xlink:href="#CMR17-32" transform="translate(109.317385 -14.943915) scale(0.697382)"/>
     <use xlink:href="#CMMI12-43" transform="translate(141.300567 -14.943915) scale(0.697382)"/>
     <use xlink:href="#CMR17-35" transform="translate(0 -90.570289) scale(0.996264)"/>
     <use xlink:href="#CMR17-2e" transform="translate(45.690477 -90.570289) scale(0.996264)"/>
     <use xlink:href="#CMR17-30" transform="translate(70.561536 -90.570289) scale(0.996264)"/>
     <use xlink:href="#CMR17-2f" transform="translate(116.252013 -90.570289) scale(0.996264)"/>
     <use xlink:href="#CMR17-32" transform="translate(161.94249 -90.570289) scale(0.996264)"/>
     <use xlink:href="#CMSY10-1" transform="translate(207.632967 -90.570289) scale(0.996264)"/>
     <use xlink:href="#CMR17-31" transform="translate(235.307052 -90.570289) scale(0.996264)"/>
     <use xlink:href="#CMR17-30" transform="translate(280.997529 -90.570289) scale(0.996264)"/>
     <use xlink:href="#CMR17-2e" transform="translate(326.688006 -90.570289) scale(0.996264)"/>
     <use xlink:href="#CMR17-30" transform="translate(351.559064 -90.570289) scale(0.996264)"/>
    </g>
   </g>
   <g id="patch_17">
    <path d="M 411.595879 246.918 
C 412.311927 246.918 412.998745 246.633511 413.505067 246.127188 
C 414.01139 245.620866 414.295879 244.934048 414.295879 244.218 
C 414.295879 243.501952 414.01139 242.815134 413.505067 242.308812 
C 412.998745 241.802489 412.311927 241.518 411.595879 241.518 
C 410.879831 241.518 410.193013 241.802489 409.686691 242.308812 
C 409.180368 242.815134 408.895879 243.501952 408.895879 244.218 
C 408.895879 244.934048 409.180368 245.620866 409.686691 246.127188 
C 410.193013 246.633511 410.879831 246.918 411.595879 246.918 
z
" clip-path="url(#p36e427729e)" style="stroke: #000000; stroke-width: 2; stroke-linejoin: miter"/>
   </g>
   <g id="patch_18">
    <path d="M 480.595879 198.918 
C 481.311927 198.918 481.998745 198.633511 482.505067 198.127188 
C 483.01139 197.620866 483.295879 196.934048 483.295879 196.218 
C 483.295879 195.501952 483.01139 194.815134 482.505067 194.308812 
C 481.998745 193.802489 481.311927 193.518 480.595879 193.518 
C 479.879831 193.518 479.193013 193.802489 478.686691 194.308812 
C 478.180368 194.815134 477.895879 195.501952 477.895879 196.218 
C 477.895879 196.934048 478.180368 197.620866 478.686691 198.127188 
C 479.193013 198.633511 479.879831 198.918 480.595879 198.918 
z
" clip-path="url(#p36e427729e)" style="stroke: #000000; stroke-width: 2; stroke-linejoin: miter"/>
   </g>
   <g id="text_4">
    <!-- $I_\mathrm{out} = 10\,\textrm{nA}$ -->
    <g transform="translate(402.002717 173.604924) scale(0.14 -0.14)">
     <defs>
      <path id="CMMI12-49" d="M 2355 3880 
C 2413 4103 2426 4167 2893 4167 
C 3034 4167 3085 4167 3085 4288 
C 3085 4352 3014 4352 2995 4352 
C 2880 4352 2739 4352 2624 4352 
L 1837 4352 
C 1709 4352 1562 4352 1434 4352 
C 1382 4352 1312 4352 1312 4231 
C 1312 4167 1363 4167 1491 4167 
C 1888 4167 1888 4116 1888 4046 
C 1888 4002 1875 3963 1862 3906 
L 998 472 
C 941 249 928 185 461 185 
C 320 185 262 185 262 64 
C 262 0 326 0 358 0 
C 474 0 614 0 730 0 
L 1517 0 
C 1645 0 1786 0 1914 0 
C 1965 0 2042 0 2042 115 
C 2042 185 2003 185 1862 185 
C 1466 185 1466 236 1466 312 
C 1466 325 1466 357 1491 459 
L 2355 3880 
z
" transform="scale(0.015625)"/>
      <path id="CMR17-6f" d="M 2758 1356 
C 2758 2176 2163 2816 1466 2816 
C 768 2816 173 2176 173 1356 
C 173 551 768 -64 1466 -64 
C 2163 -64 2758 551 2758 1356 
z
M 1466 51 
C 1165 51 909 230 762 480 
C 602 767 582 1126 582 1408 
C 582 1677 595 2010 762 2298 
C 890 2509 1139 2714 1466 2714 
C 1754 2714 1997 2554 2150 2330 
C 2349 2029 2349 1607 2349 1408 
C 2349 1158 2336 775 2163 467 
C 1984 173 1709 51 1466 51 
z
" transform="scale(0.015625)"/>
      <path id="CMR17-75" d="M 1882 2693 
L 1882 2528 
C 2259 2528 2317 2489 2317 2186 
L 2317 1032 
C 2317 500 2029 38 1555 38 
C 1030 38 986 348 986 678 
L 986 2763 
L 211 2693 
L 211 2528 
C 467 2528 640 2528 646 2274 
L 646 1058 
C 646 633 646 361 813 183 
C 896 101 1056 -64 1517 -64 
C 2061 -64 2272 377 2323 506 
L 2330 506 
L 2330 -63 
L 3091 -63 
L 3091 128 
C 2714 128 2656 166 2656 473 
L 2656 2763 
L 1882 2693 
z
" transform="scale(0.015625)"/>
      <path id="CMR17-74" d="M 966 2560 
L 1862 2560 
L 1862 2725 
L 966 2725 
L 966 3904 
L 851 3904 
C 838 3245 614 2668 70 2668 
L 70 2560 
L 627 2560 
L 627 771 
C 627 650 627 -64 1370 -64 
C 1747 -64 1965 306 1965 777 
L 1965 1140 
L 1850 1140 
L 1850 783 
C 1850 344 1677 51 1408 51 
C 1222 51 966 178 966 758 
L 966 2560 
z
" transform="scale(0.015625)"/>
      <path id="CMR17-3d" d="M 4115 2017 
C 4211 2017 4307 2017 4307 2125 
C 4307 2240 4198 2240 4090 2240 
L 512 2240 
C 403 2240 294 2240 294 2125 
C 294 2017 390 2017 486 2017 
L 4115 2017 
z
M 4090 896 
C 4198 896 4307 896 4307 1011 
C 4307 1119 4211 1119 4115 1119 
L 486 1119 
C 390 1119 294 1119 294 1011 
C 294 896 403 896 512 896 
L 4090 896 
z
" transform="scale(0.015625)"/>
      <path id="CMR17-6e" d="M 2656 1933 
C 2656 2259 2592 2790 1837 2790 
C 1331 2790 1069 2400 973 2144 
L 966 2144 
L 966 2790 
L 211 2720 
L 211 2554 
C 589 2554 646 2515 646 2208 
L 646 428 
C 646 184 621 153 211 153 
L 211 -13 
C 365 0 646 0 813 0 
C 979 0 1267 0 1421 -13 
L 1421 153 
C 1011 153 986 178 986 428 
L 986 1658 
C 986 2247 1344 2688 1792 2688 
C 2266 2688 2317 2266 2317 1958 
L 2317 428 
C 2317 184 2291 153 1882 153 
L 1882 -13 
C 2035 0 2317 0 2483 0 
C 2650 0 2938 0 3091 -13 
L 3091 153 
C 2682 153 2656 178 2656 428 
L 2656 1933 
z
" transform="scale(0.015625)"/>
      <path id="CMR17-41" d="M 2323 4378 
C 2291 4461 2278 4480 2214 4480 
C 2150 4480 2138 4461 2106 4378 
L 749 566 
C 627 223 371 153 147 153 
L 147 -13 
C 262 0 518 0 640 0 
C 800 0 1056 0 1210 -13 
L 1210 153 
C 909 153 864 361 864 439 
C 864 497 877 530 890 569 
L 1229 1536 
L 2906 1536 
L 3290 442 
C 3322 365 3322 352 3322 327 
C 3322 153 3046 153 2925 153 
L 2925 0 
C 3110 0 3443 0 3642 0 
C 3808 0 4128 0 4282 -13 
L 4282 153 
C 3942 153 3827 153 3744 387 
L 2323 4378 
z
M 2067 3893 
L 2848 1702 
L 1286 1702 
L 2067 3893 
z
" transform="scale(0.015625)"/>
     </defs>
     <use xlink:href="#CMMI12-49" transform="scale(0.996264)"/>
     <use xlink:href="#CMR17-6f" transform="translate(43.024176 -14.943915) scale(0.697382)"/>
     <use xlink:href="#CMR17-75" transform="translate(75.007358 -14.943915) scale(0.697382)"/>
     <use xlink:href="#CMR17-74" transform="translate(110.633966 -14.943915) scale(0.697382)"/>
     <use xlink:href="#CMR17-3d" transform="translate(163.502527 0) scale(0.996264)"/>
     <use xlink:href="#CMR17-31" transform="translate(262.891324 0) scale(0.996264)"/>
     <use xlink:href="#CMR17-30" transform="translate(308.581801 0) scale(0.996264)"/>
     <use xlink:href="#CMR17-6e" transform="translate(370.876684 0) scale(0.996264)"/>
     <use xlink:href="#CMR17-41" transform="translate(421.772054 0) scale(0.996264)"/>
    </g>
   </g>
   <g id="text_5">
    <!-- $M_{4} \\$20.0/$4 \cdot$10.0 -->
    <g transform="translate(489.506389 90.46541) scale(0.14 -0.14)">
     <use xlink:href="#CMMI12-4d" transform="translate(14.94396 0) scale(0.996264)"/>
     <use xlink:href="#CMR17-34" transform="translate(109.317385 -14.943915) scale(0.697382)"/>
     <use xlink:href="#CMR17-32" transform="translate(0 -90.570289) scale(0.996264)"/>
     <use xlink:href="#CMR17-30" transform="translate(45.690477 -90.570289) scale(0.996264)"/>
     <use xlink:href="#CMR17-2e" transform="translate(91.380954 -90.570289) scale(0.996264)"/>
     <use xlink:href="#CMR17-30" transform="translate(116.252013 -90.570289) scale(0.996264)"/>
     <use xlink:href="#CMR17-2f" transform="translate(161.94249 -90.570289) scale(0.996264)"/>
     <use xlink:href="#CMR17-34" transform="translate(207.632967 -90.570289) scale(0.996264)"/>
     <use xlink:href="#CMSY10-1" transform="translate(253.323444 -90.570289) scale(0.996264)"/>
     <use xlink:href="#CMR17-31" transform="translate(280.997529 -90.570289) scale(0.996264)"/>
     <use xlink:href="#CMR17-30" transform="translate(326.688006 -90.570289) scale(0.996264)"/>
     <use xlink:href="#CMR17-2e" transform="translate(372.378483 -90.570289) scale(0.996264)"/>
     <use xlink:href="#CMR17-30" transform="translate(397.249542 -90.570289) scale(0.996264)"/>
    </g>
   </g>
   <g id="text_6">
    <!-- $V_\mathrm{DD}$ -->
    <g transform="translate(468.950546 14.705972) scale(0.14 -0.14)">
     <defs>
      <path id="CMMI12-56" d="M 3962 3640 
C 4179 3984 4378 4136 4704 4162 
C 4768 4168 4819 4168 4819 4282 
C 4819 4308 4806 4346 4749 4346 
C 4634 4346 4358 4346 4243 4346 
C 4058 4346 3866 4346 3686 4346 
C 3635 4346 3571 4346 3571 4226 
C 3571 4168 3629 4162 3654 4162 
C 3891 4143 3917 4029 3917 3952 
C 3917 3857 3827 3710 3821 3704 
L 1811 540 
L 1363 3969 
C 1363 4160 1696 4160 1766 4160 
C 1862 4160 1920 4160 1920 4282 
C 1920 4346 1850 4346 1830 4346 
C 1722 4346 1594 4346 1485 4346 
L 1126 4346 
C 659 4346 467 4346 461 4346 
C 422 4346 346 4346 346 4230 
C 346 4160 390 4160 493 4160 
C 819 4160 838 4102 858 3944 
L 1370 24 
C 1389 -109 1389 -128 1478 -128 
C 1555 -128 1587 -109 1651 -8 
L 3962 3640 
z
" transform="scale(0.015625)"/>
     </defs>
     <use xlink:href="#CMMI12-56" transform="scale(0.996264)"/>
     <use xlink:href="#CMR17-44" transform="translate(56.869579 -14.943915) scale(0.697382)"/>
     <use xlink:href="#CMR17-44" transform="translate(106.144849 -14.943915) scale(0.697382)"/>
    </g>
   </g>
   <g id="patch_19">
    <path d="M 411.595879 96.918 
C 412.311927 96.918 412.998745 96.633511 413.505067 96.127188 
C 414.01139 95.620866 414.295879 94.934048 414.295879 94.218 
C 414.295879 93.501952 414.01139 92.815134 413.505067 92.308812 
C 412.998745 91.802489 412.311927 91.518 411.595879 91.518 
C 410.879831 91.518 410.193013 91.802489 409.686691 92.308812 
C 409.180368 92.815134 408.895879 93.501952 408.895879 94.218 
C 408.895879 94.934048 409.180368 95.620866 409.686691 96.127188 
C 410.193013 96.633511 410.879831 96.918 411.595879 96.918 
z
" clip-path="url(#p36e427729e)" style="stroke: #000000; stroke-width: 2; stroke-linejoin: miter"/>
   </g>
   <g id="text_7">
    <!-- $C_\mathrm{DEC2} \\$25.0/$\\$40.0 -->
    <g transform="translate(425.995879 49.473023) scale(0.14 -0.14)">
     <use xlink:href="#CMMI12-43" transform="translate(14.94396 0) scale(0.996264)"/>
     <use xlink:href="#CMR17-44" transform="translate(84.735997 -14.943915) scale(0.697382)"/>
     <use xlink:href="#CMR17-45" transform="translate(134.011267 -14.943915) scale(0.697382)"/>
     <use xlink:href="#CMR17-43" transform="translate(177.821481 -14.943915) scale(0.697382)"/>
     <use xlink:href="#CMR17-32" transform="translate(224.378186 -14.943915) scale(0.697382)"/>
     <use xlink:href="#CMR17-32" transform="translate(0 -90.570289) scale(0.996264)"/>
     <use xlink:href="#CMR17-35" transform="translate(45.690477 -90.570289) scale(0.996264)"/>
     <use xlink:href="#CMR17-2e" transform="translate(91.380954 -90.570289) scale(0.996264)"/>
     <use xlink:href="#CMR17-30" transform="translate(116.252013 -90.570289) scale(0.996264)"/>
     <use xlink:href="#CMR17-2f" transform="translate(161.94249 -90.570289) scale(0.996264)"/>
     <use xlink:href="#CMR17-34" transform="translate(0 -180.610127) scale(0.996264)"/>
     <use xlink:href="#CMR17-30" transform="translate(45.690477 -180.610127) scale(0.996264)"/>
     <use xlink:href="#CMR17-2e" transform="translate(91.380954 -180.610127) scale(0.996264)"/>
     <use xlink:href="#CMR17-30" transform="translate(116.252013 -180.610127) scale(0.996264)"/>
    </g>
   </g>
   <g id="text_8">
    <!-- $V_\mathrm{DD}$ -->
    <g transform="translate(399.950546 14.105972) scale(0.14 -0.14)">
     <use xlink:href="#CMMI12-56" transform="scale(0.996264)"/>
     <use xlink:href="#CMR17-44" transform="translate(56.869579 -14.943915) scale(0.697382)"/>
     <use xlink:href="#CMR17-44" transform="translate(106.144849 -14.943915) scale(0.697382)"/>
    </g>
   </g>
   <g id="patch_20">
    <path d="M 339.595879 96.918 
C 340.311927 96.918 340.998745 96.633511 341.505067 96.127188 
C 342.01139 95.620866 342.295879 94.934048 342.295879 94.218 
C 342.295879 93.501952 342.01139 92.815134 341.505067 92.308812 
C 340.998745 91.802489 340.311927 91.518 339.595879 91.518 
C 338.879831 91.518 338.193013 91.802489 337.686691 92.308812 
C 337.180368 92.815134 336.895879 93.501952 336.895879 94.218 
C 336.895879 94.934048 337.180368 95.620866 337.686691 96.127188 
C 338.193013 96.633511 338.879831 96.918 339.595879 96.918 
z
" clip-path="url(#p36e427729e)" style="stroke: #000000; stroke-width: 2; stroke-linejoin: miter"/>
   </g>
   <g id="text_9">
    <!-- $M_{3} \\$20.0/$4 \cdot$10.0 -->
    <g transform="translate(204.506389 90.46541) scale(0.14 -0.14)">
     <defs>
      <path id="CMR17-33" d="M 1414 2157 
C 1984 2157 2234 1662 2234 1090 
C 2234 320 1824 25 1453 25 
C 1114 25 563 194 390 693 
C 422 680 454 680 486 680 
C 640 680 755 782 755 948 
C 755 1133 614 1216 486 1216 
C 378 1216 211 1165 211 926 
C 211 335 787 -128 1466 -128 
C 2176 -128 2720 430 2720 1085 
C 2720 1707 2208 2157 1600 2227 
C 2086 2328 2554 2756 2554 3329 
C 2554 3820 2048 4179 1472 4179 
C 890 4179 378 3829 378 3329 
C 378 3110 544 3072 627 3072 
C 762 3072 877 3155 877 3321 
C 877 3486 762 3569 627 3569 
C 602 3569 570 3569 544 3557 
C 730 3959 1235 4032 1459 4032 
C 1683 4032 2106 3925 2106 3320 
C 2106 3143 2080 2828 1862 2550 
C 1670 2304 1453 2304 1242 2284 
C 1210 2284 1062 2269 1037 2269 
C 992 2263 966 2257 966 2208 
C 966 2163 973 2157 1101 2157 
L 1414 2157 
z
" transform="scale(0.015625)"/>
     </defs>
     <use xlink:href="#CMMI12-4d" transform="translate(14.94396 0) scale(0.996264)"/>
     <use xlink:href="#CMR17-33" transform="translate(109.317385 -14.943915) scale(0.697382)"/>
     <use xlink:href="#CMR17-32" transform="translate(0 -90.570289) scale(0.996264)"/>
     <use xlink:href="#CMR17-30" transform="translate(45.690477 -90.570289) scale(0.996264)"/>
     <use xlink:href="#CMR17-2e" transform="translate(91.380954 -90.570289) scale(0.996264)"/>
     <use xlink:href="#CMR17-30" transform="translate(116.252013 -90.570289) scale(0.996264)"/>
     <use xlink:href="#CMR17-2f" transform="translate(161.94249 -90.570289) scale(0.996264)"/>
     <use xlink:href="#CMR17-34" transform="translate(207.632967 -90.570289) scale(0.996264)"/>
     <use xlink:href="#CMSY10-1" transform="translate(253.323444 -90.570289) scale(0.996264)"/>
     <use xlink:href="#CMR17-31" transform="translate(280.997529 -90.570289) scale(0.996264)"/>
     <use xlink:href="#CMR17-30" transform="translate(326.688006 -90.570289) scale(0.996264)"/>
     <use xlink:href="#CMR17-2e" transform="translate(372.378483 -90.570289) scale(0.996264)"/>
     <use xlink:href="#CMR17-30" transform="translate(397.249542 -90.570289) scale(0.996264)"/>
    </g>
   </g>
   <g id="text_10">
    <!-- $V_\mathrm{DD}$ -->
    <g transform="translate(258.950546 14.705972) scale(0.14 -0.14)">
     <use xlink:href="#CMMI12-56" transform="scale(0.996264)"/>
     <use xlink:href="#CMR17-44" transform="translate(56.869579 -14.943915) scale(0.697382)"/>
     <use xlink:href="#CMR17-44" transform="translate(106.144849 -14.943915) scale(0.697382)"/>
    </g>
   </g>
   <g id="patch_21">
    <path d="M 270.595879 144.918 
C 271.311927 144.918 271.998745 144.633511 272.505067 144.127188 
C 273.01139 143.620866 273.295879 142.934048 273.295879 142.218 
C 273.295879 141.501952 273.01139 140.815134 272.505067 140.308812 
C 271.998745 139.802489 271.311927 139.518 270.595879 139.518 
C 269.879831 139.518 269.193013 139.802489 268.686691 140.308812 
C 268.180368 140.815134 267.895879 141.501952 267.895879 142.218 
C 267.895879 142.934048 268.180368 143.620866 268.686691 144.127188 
C 269.193013 144.633511 269.879831 144.918 270.595879 144.918 
z
" clip-path="url(#p36e427729e)" style="stroke: #000000; stroke-width: 2; stroke-linejoin: miter"/>
   </g>
   <g id="text_11">
    <!-- $I_\mathrm{ref} = 10\,\textrm{nA}$ -->
    <g transform="translate(194.277816 173.604924) scale(0.14 -0.14)">
     <defs>
      <path id="CMR17-72" d="M 960 1497 
C 960 2112 1222 2688 1702 2688 
C 1747 2688 1792 2682 1837 2662 
C 1837 2662 1696 2617 1696 2452 
C 1696 2298 1818 2234 1914 2234 
C 1990 2234 2131 2279 2131 2458 
C 2131 2663 1926 2790 1709 2790 
C 1222 2790 1011 2317 947 2093 
L 941 2093 
L 941 2790 
L 198 2720 
L 198 2554 
C 576 2554 634 2515 634 2208 
L 634 428 
C 634 184 608 153 198 153 
L 198 -13 
C 352 0 646 0 813 0 
C 998 0 1325 0 1498 -13 
L 1498 153 
C 1037 153 960 153 960 440 
L 960 1497 
z
" transform="scale(0.015625)"/>
      <path id="CMR17-65" d="M 2438 1472 
C 2464 1498 2464 1511 2464 1576 
C 2464 2238 2118 2816 1389 2816 
C 710 2816 173 2169 173 1383 
C 173 551 781 -64 1459 -64 
C 2176 -64 2458 607 2458 740 
C 2458 784 2419 784 2406 784 
C 2362 784 2355 771 2330 696 
C 2189 265 1837 51 1504 51 
C 1229 51 954 203 781 480 
C 582 803 582 1176 582 1472 
L 2438 1472 
z
M 589 1568 
C 634 2505 1126 2714 1382 2714 
C 1818 2714 2112 2297 2118 1568 
L 589 1568 
z
" transform="scale(0.015625)"/>
      <path id="CMR17-66" d="M 979 2560 
L 1709 2560 
L 1709 2725 
L 966 2725 
L 966 3494 
C 966 4022 1235 4352 1510 4352 
C 1594 4352 1690 4327 1754 4282 
C 1702 4269 1568 4225 1568 4067 
C 1568 3901 1696 3850 1786 3850 
C 1875 3850 2003 3901 2003 4067 
C 2003 4308 1773 4454 1517 4454 
C 1152 4454 653 4156 653 3481 
L 653 2725 
L 141 2725 
L 141 2560 
L 653 2560 
L 653 427 
C 653 184 627 153 218 153 
L 218 -13 
C 371 0 666 0 832 0 
C 1018 0 1344 0 1517 -13 
L 1517 153 
C 1056 153 979 153 979 439 
L 979 2560 
z
" transform="scale(0.015625)"/>
     </defs>
     <use xlink:href="#CMMI12-49" transform="scale(0.996264)"/>
     <use xlink:href="#CMR17-72" transform="translate(43.024176 -14.943915) scale(0.697382)"/>
     <use xlink:href="#CMR17-65" transform="translate(67.720596 -14.943915) scale(0.697382)"/>
     <use xlink:href="#CMR17-66" transform="translate(96.060428 -14.943915) scale(0.697382)"/>
     <use xlink:href="#CMR17-3d" transform="translate(147.597769 0) scale(0.996264)"/>
     <use xlink:href="#CMR17-31" transform="translate(246.986566 0) scale(0.996264)"/>
     <use xlink:href="#CMR17-30" transform="translate(292.677043 0) scale(0.996264)"/>
     <use xlink:href="#CMR17-6e" transform="translate(354.971925 0) scale(0.996264)"/>
     <use xlink:href="#CMR17-41" transform="translate(405.867295 0) scale(0.996264)"/>
    </g>
   </g>
   <g id="text_12">
    <!-- $M_{1C} \\$5.0/$2 \cdot$10.0 -->
    <g transform="translate(211.334877 240.46541) scale(0.14 -0.14)">
     <use xlink:href="#CMMI12-4d" transform="translate(14.94396 0) scale(0.996264)"/>
     <use xlink:href="#CMR17-31" transform="translate(109.317385 -14.943915) scale(0.697382)"/>
     <use xlink:href="#CMMI12-43" transform="translate(141.300567 -14.943915) scale(0.697382)"/>
     <use xlink:href="#CMR17-35" transform="translate(0 -90.570289) scale(0.996264)"/>
     <use xlink:href="#CMR17-2e" transform="translate(45.690477 -90.570289) scale(0.996264)"/>
     <use xlink:href="#CMR17-30" transform="translate(70.561536 -90.570289) scale(0.996264)"/>
     <use xlink:href="#CMR17-2f" transform="translate(116.252013 -90.570289) scale(0.996264)"/>
     <use xlink:href="#CMR17-32" transform="translate(161.94249 -90.570289) scale(0.996264)"/>
     <use xlink:href="#CMSY10-1" transform="translate(207.632967 -90.570289) scale(0.996264)"/>
     <use xlink:href="#CMR17-31" transform="translate(235.307052 -90.570289) scale(0.996264)"/>
     <use xlink:href="#CMR17-30" transform="translate(280.997529 -90.570289) scale(0.996264)"/>
     <use xlink:href="#CMR17-2e" transform="translate(326.688006 -90.570289) scale(0.996264)"/>
     <use xlink:href="#CMR17-30" transform="translate(351.559064 -90.570289) scale(0.996264)"/>
    </g>
   </g>
   <g id="text_13">
    <!-- $M_{1} \\$20.0/$2 \cdot$10.0 -->
    <g transform="translate(204.506389 336.46541) scale(0.14 -0.14)">
     <use xlink:href="#CMMI12-4d" transform="translate(14.94396 0) scale(0.996264)"/>
     <use xlink:href="#CMR17-31" transform="translate(109.317385 -14.943915) scale(0.697382)"/>
     <use xlink:href="#CMR17-32" transform="translate(0 -90.570289) scale(0.996264)"/>
     <use xlink:href="#CMR17-30" transform="translate(45.690477 -90.570289) scale(0.996264)"/>
     <use xlink:href="#CMR17-2e" transform="translate(91.380954 -90.570289) scale(0.996264)"/>
     <use xlink:href="#CMR17-30" transform="translate(116.252013 -90.570289) scale(0.996264)"/>
     <use xlink:href="#CMR17-2f" transform="translate(161.94249 -90.570289) scale(0.996264)"/>
     <use xlink:href="#CMR17-32" transform="translate(207.632967 -90.570289) scale(0.996264)"/>
     <use xlink:href="#CMSY10-1" transform="translate(253.323444 -90.570289) scale(0.996264)"/>
     <use xlink:href="#CMR17-31" transform="translate(280.997529 -90.570289) scale(0.996264)"/>
     <use xlink:href="#CMR17-30" transform="translate(326.688006 -90.570289) scale(0.996264)"/>
     <use xlink:href="#CMR17-2e" transform="translate(372.378483 -90.570289) scale(0.996264)"/>
     <use xlink:href="#CMR17-30" transform="translate(397.249542 -90.570289) scale(0.996264)"/>
    </g>
   </g>
   <g id="text_14">
    <!-- $C_\mathrm{DEC3} \\$ 43.0/40.0 -->
    <g transform="translate(356.995879 429.46541) scale(0.14 -0.14)">
     <use xlink:href="#CMMI12-43" transform="translate(14.94396 0) scale(0.996264)"/>
     <use xlink:href="#CMR17-44" transform="translate(84.735997 -14.943915) scale(0.697382)"/>
     <use xlink:href="#CMR17-45" transform="translate(134.011267 -14.943915) scale(0.697382)"/>
     <use xlink:href="#CMR17-43" transform="translate(177.821481 -14.943915) scale(0.697382)"/>
     <use xlink:href="#CMR17-33" transform="translate(224.378186 -14.943915) scale(0.697382)"/>
     <use xlink:href="#CMR17-34" transform="translate(0 -90.570289) scale(0.996264)"/>
     <use xlink:href="#CMR17-33" transform="translate(45.690477 -90.570289) scale(0.996264)"/>
     <use xlink:href="#CMR17-2e" transform="translate(91.380954 -90.570289) scale(0.996264)"/>
     <use xlink:href="#CMR17-30" transform="translate(116.252013 -90.570289) scale(0.996264)"/>
     <use xlink:href="#CMR17-2f" transform="translate(161.94249 -90.570289) scale(0.996264)"/>
     <use xlink:href="#CMR17-34" transform="translate(207.632967 -90.570289) scale(0.996264)"/>
     <use xlink:href="#CMR17-30" transform="translate(253.323444 -90.570289) scale(0.996264)"/>
     <use xlink:href="#CMR17-2e" transform="translate(299.013921 -90.570289) scale(0.996264)"/>
     <use xlink:href="#CMR17-30" transform="translate(323.88498 -90.570289) scale(0.996264)"/>
    </g>
   </g>
   <g id="text_15">
    <!-- $R_\mathrm{1} = 3.72\,\textrm{M}\Omega$ -->
    <g transform="translate(163.573558 436.704924) scale(0.14 -0.14)">
     <defs>
      <path id="CMMI12-52" d="M 2355 3924 
C 2413 4160 2438 4160 2688 4160 
L 3149 4160 
C 3699 4160 4109 3995 4109 3499 
C 4109 3175 3942 2240 2656 2240 
L 1933 2240 
L 2355 3924 
z
M 3245 2169 
C 4038 2341 4659 2851 4659 3398 
C 4659 3894 4154 4352 3264 4352 
L 1530 4352 
C 1402 4352 1344 4352 1344 4226 
C 1344 4160 1389 4160 1510 4160 
C 1894 4160 1894 4112 1894 4045 
C 1894 4033 1894 3994 1869 3899 
L 1005 479 
C 947 256 934 192 493 192 
C 346 192 301 192 301 71 
C 301 7 371 7 390 7 
C 506 7 640 7 762 7 
L 1517 7 
C 1632 7 1766 7 1882 7 
C 1933 7 2003 7 2003 128 
C 2003 192 1946 192 1850 192 
C 1459 192 1459 243 1459 306 
C 1459 313 1459 357 1472 407 
L 1901 2112 
L 2669 2112 
C 3277 2112 3392 1731 3392 1522 
C 3392 1427 3328 1179 3283 1014 
C 3213 723 3194 652 3194 532 
C 3194 82 3565 -128 3994 -128 
C 4512 -128 4736 501 4736 591 
C 4736 635 4704 654 4666 654 
C 4614 654 4602 616 4589 565 
C 4435 114 4173 0 4013 0 
C 3853 0 3750 70 3750 356 
C 3750 509 3827 1088 3834 1120 
C 3866 1355 3866 1380 3866 1432 
C 3866 1896 3488 2093 3245 2169 
z
" transform="scale(0.015625)"/>
      <path id="CMMI12-3a" d="M 1178 307 
C 1178 492 1024 619 870 619 
C 685 619 557 466 557 313 
C 557 128 710 0 864 0 
C 1050 0 1178 153 1178 307 
z
" transform="scale(0.015625)"/>
      <path id="CMR17-37" d="M 2886 3941 
L 2886 4081 
L 1382 4081 
C 634 4081 621 4165 595 4288 
L 480 4288 
L 294 3094 
L 410 3094 
C 429 3215 474 3540 550 3661 
C 589 3712 1062 3712 1171 3712 
L 2579 3712 
L 1869 2661 
C 1395 1954 1069 999 1069 165 
C 1069 89 1069 -128 1299 -128 
C 1530 -128 1530 89 1530 171 
L 1530 465 
C 1530 1508 1709 2196 2003 2636 
L 2886 3941 
z
" transform="scale(0.015625)"/>
      <path id="CMR17-4d" d="M 1338 4224 
C 1299 4320 1293 4320 1158 4320 
L 339 4320 
L 339 4160 
C 781 4160 851 4160 851 3875 
L 851 610 
C 851 451 851 153 339 153 
L 339 -13 
C 486 0 755 0 915 0 
C 1075 0 1344 0 1491 -13 
L 1491 153 
C 979 153 979 451 979 610 
L 979 4135 
L 986 4135 
L 2490 89 
C 2515 25 2528 -13 2579 -13 
C 2630 -13 2643 25 2669 89 
L 4186 4166 
L 4192 4166 
L 4192 438 
C 4192 153 4122 153 3680 153 
L 3680 -13 
C 3853 0 4198 0 4384 0 
C 4570 0 4922 0 5094 -13 
L 5094 153 
C 4653 153 4582 153 4582 438 
L 4582 3875 
C 4582 4160 4653 4160 5094 4160 
L 5094 4320 
L 4282 4320 
C 4147 4320 4141 4314 4102 4218 
L 2720 502 
L 1338 4224 
z
" transform="scale(0.015625)"/>
      <path id="CMR17-a" d="M 4038 935 
L 3923 935 
C 3866 641 3846 563 3814 461 
C 3782 365 3763 314 3392 314 
L 2874 314 
C 2944 686 3098 961 3366 1391 
C 3699 1935 3974 2377 3974 2910 
C 3974 3775 3155 4480 2138 4480 
C 1094 4480 294 3768 294 2910 
C 294 2377 576 1922 890 1416 
C 1171 961 1325 686 1395 314 
L 877 314 
C 512 314 493 365 461 454 
C 422 557 410 641 346 935 
L 230 935 
L 416 0 
L 1382 0 
C 1517 0 1523 6 1523 102 
C 1523 558 1286 1154 1178 1429 
C 973 1929 781 2416 781 2916 
C 781 3871 1466 4377 2131 4377 
C 2829 4377 3488 3851 3488 2916 
C 3488 2422 3315 1981 3078 1397 
C 2976 1135 2746 551 2746 102 
C 2746 0 2752 0 2886 0 
L 3853 0 
L 4038 935 
z
" transform="scale(0.015625)"/>
     </defs>
     <use xlink:href="#CMMI12-52" transform="scale(0.996264)"/>
     <use xlink:href="#CMR17-31" transform="translate(74.250826 -14.943915) scale(0.697382)"/>
     <use xlink:href="#CMR17-3d" transform="translate(134.406148 0) scale(0.996264)"/>
     <use xlink:href="#CMR17-33" transform="translate(233.794946 0) scale(0.996264)"/>
     <use xlink:href="#CMMI12-3a" transform="translate(279.485423 0) scale(0.996264)"/>
     <use xlink:href="#CMR17-37" transform="translate(306.5826 0) scale(0.996264)"/>
     <use xlink:href="#CMR17-32" transform="translate(352.273077 0) scale(0.996264)"/>
     <use xlink:href="#CMR17-4d" transform="translate(414.567959 0) scale(0.996264)"/>
     <use xlink:href="#CMR17-a" transform="translate(499.2549 0) scale(0.996264)"/>
    </g>
   </g>
   <g id="text_16">
    <!-- $M_\mathrm{SU1} \\$1.0/$4 \cdot$10.0 -->
    <g transform="translate(169.334877 204.46541) scale(0.14 -0.14)">
     <defs>
      <path id="CMR17-53" d="M 2803 4290 
C 2803 4404 2797 4411 2758 4411 
C 2720 4411 2707 4385 2682 4328 
L 2490 3907 
C 2246 4257 1875 4416 1472 4416 
C 819 4416 294 3901 294 3253 
C 294 3056 339 2776 557 2510 
C 794 2218 1018 2167 1530 2033 
C 1722 1982 2042 1899 2106 1874 
C 2470 1722 2662 1341 2662 985 
C 2662 527 2336 38 1779 38 
C 1094 38 454 419 410 1311 
C 403 1413 397 1419 352 1419 
C 301 1419 294 1413 294 1285 
L 294 -1 
C 294 -115 301 -122 339 -122 
C 384 -122 397 -90 486 108 
C 493 127 493 140 614 381 
C 934 -39 1472 -128 1779 -128 
C 2477 -128 2970 451 2970 1124 
C 2970 1454 2848 1708 2778 1823 
C 2509 2230 2221 2306 1914 2382 
C 1869 2402 1856 2402 1498 2490 
C 1152 2579 1005 2624 845 2796 
C 666 2992 602 3196 602 3399 
C 602 3812 934 4263 1478 4263 
C 2157 4263 2579 3786 2675 2993 
C 2694 2878 2701 2872 2746 2872 
C 2803 2872 2803 2891 2803 2999 
L 2803 4290 
z
" transform="scale(0.015625)"/>
      <path id="CMR17-55" d="M 3456 1433 
C 3456 579 2899 38 2291 38 
C 1965 38 1670 210 1491 477 
C 1286 783 1261 1178 1261 1401 
L 1261 3874 
C 1261 4160 1331 4160 1773 4160 
L 1773 4320 
C 1587 4320 1248 4320 1050 4320 
C 851 4320 512 4320 326 4320 
L 326 4160 
C 768 4160 838 4160 838 3874 
L 838 1433 
C 838 516 1536 -128 2278 -128 
C 3110 -128 3590 719 3590 1344 
L 3590 3766 
C 3590 4122 3917 4160 4102 4160 
L 4102 4326 
C 3955 4320 3686 4320 3526 4320 
C 3366 4320 3091 4320 2944 4326 
L 2944 4160 
C 3456 4160 3456 3861 3456 3702 
L 3456 1433 
z
" transform="scale(0.015625)"/>
     </defs>
     <use xlink:href="#CMMI12-4d" transform="translate(14.94396 0) scale(0.996264)"/>
     <use xlink:href="#CMR17-53" transform="translate(109.317385 -14.943915) scale(0.697382)"/>
     <use xlink:href="#CMR17-55" transform="translate(144.943994 -14.943915) scale(0.697382)"/>
     <use xlink:href="#CMR17-31" transform="translate(193.294479 -14.943915) scale(0.697382)"/>
     <use xlink:href="#CMR17-31" transform="translate(0 -90.570289) scale(0.996264)"/>
     <use xlink:href="#CMR17-2e" transform="translate(45.690477 -90.570289) scale(0.996264)"/>
     <use xlink:href="#CMR17-30" transform="translate(70.561536 -90.570289) scale(0.996264)"/>
     <use xlink:href="#CMR17-2f" transform="translate(116.252013 -90.570289) scale(0.996264)"/>
     <use xlink:href="#CMR17-34" transform="translate(161.94249 -90.570289) scale(0.996264)"/>
     <use xlink:href="#CMSY10-1" transform="translate(207.632967 -90.570289) scale(0.996264)"/>
     <use xlink:href="#CMR17-31" transform="translate(235.307052 -90.570289) scale(0.996264)"/>
     <use xlink:href="#CMR17-30" transform="translate(280.997529 -90.570289) scale(0.996264)"/>
     <use xlink:href="#CMR17-2e" transform="translate(326.688006 -90.570289) scale(0.996264)"/>
     <use xlink:href="#CMR17-30" transform="translate(351.559064 -90.570289) scale(0.996264)"/>
    </g>
   </g>
   <g id="patch_22">
    <path d="M 162.595879 294.918 
C 163.311927 294.918 163.998745 294.633511 164.505067 294.127188 
C 165.01139 293.620866 165.295879 292.934048 165.295879 292.218 
C 165.295879 291.501952 165.01139 290.815134 164.505067 290.308812 
C 163.998745 289.802489 163.311927 289.518 162.595879 289.518 
C 161.879831 289.518 161.193013 289.802489 160.686691 290.308812 
C 160.180368 290.815134 159.895879 291.501952 159.895879 292.218 
C 159.895879 292.934048 160.180368 293.620866 160.686691 294.127188 
C 161.193013 294.633511 161.879831 294.918 162.595879 294.918 
z
" clip-path="url(#p36e427729e)" style="stroke: #000000; stroke-width: 2; stroke-linejoin: miter"/>
   </g>
   <g id="text_17">
    <!-- $M_\mathrm{SU2} \\$1.0/$4 \cdot$10.0 -->
    <g transform="translate(34.334877 336.46541) scale(0.14 -0.14)">
     <use xlink:href="#CMMI12-4d" transform="translate(14.94396 0) scale(0.996264)"/>
     <use xlink:href="#CMR17-53" transform="translate(109.317385 -14.943915) scale(0.697382)"/>
     <use xlink:href="#CMR17-55" transform="translate(144.943994 -14.943915) scale(0.697382)"/>
     <use xlink:href="#CMR17-32" transform="translate(193.294479 -14.943915) scale(0.697382)"/>
     <use xlink:href="#CMR17-31" transform="translate(0 -90.570289) scale(0.996264)"/>
     <use xlink:href="#CMR17-2e" transform="translate(45.690477 -90.570289) scale(0.996264)"/>
     <use xlink:href="#CMR17-30" transform="translate(70.561536 -90.570289) scale(0.996264)"/>
     <use xlink:href="#CMR17-2f" transform="translate(116.252013 -90.570289) scale(0.996264)"/>
     <use xlink:href="#CMR17-34" transform="translate(161.94249 -90.570289) scale(0.996264)"/>
     <use xlink:href="#CMSY10-1" transform="translate(207.632967 -90.570289) scale(0.996264)"/>
     <use xlink:href="#CMR17-31" transform="translate(235.307052 -90.570289) scale(0.996264)"/>
     <use xlink:href="#CMR17-30" transform="translate(280.997529 -90.570289) scale(0.996264)"/>
     <use xlink:href="#CMR17-2e" transform="translate(326.688006 -90.570289) scale(0.996264)"/>
     <use xlink:href="#CMR17-30" transform="translate(351.559064 -90.570289) scale(0.996264)"/>
    </g>
   </g>
   <g id="patch_23">
    <path d="M 93.595879 210.918 
C 94.311927 210.918 94.998745 210.633511 95.505067 210.127188 
C 96.01139 209.620866 96.295879 208.934048 96.295879 208.218 
C 96.295879 207.501952 96.01139 206.815134 95.505067 206.308812 
C 94.998745 205.802489 94.311927 205.518 93.595879 205.518 
C 92.879831 205.518 92.193013 205.802489 91.686691 206.308812 
C 91.180368 206.815134 90.895879 207.501952 90.895879 208.218 
C 90.895879 208.934048 91.180368 209.620866 91.686691 210.127188 
C 92.193013 210.633511 92.879831 210.918 93.595879 210.918 
z
" clip-path="url(#p36e427729e)" style="stroke: #000000; stroke-width: 2; stroke-linejoin: miter"/>
   </g>
   <g id="text_18">
    <!-- $C_\mathrm{SU1} \\$ 35\,fF -->
    <g transform="translate(107.995879 117.005878) scale(0.14 -0.14)">
     <defs>
      <path id="CMR17-46" d="M 3482 4325 
L 326 4325 
L 326 4160 
C 768 4160 838 4160 838 3874 
L 838 446 
C 838 160 768 160 326 160 
L 326 0 
C 512 0 870 0 1069 0 
C 1331 0 1638 0 1901 0 
L 1901 160 
L 1760 160 
C 1274 160 1261 223 1261 452 
L 1261 2075 
L 1837 2075 
C 2432 2075 2490 1865 2490 1332 
L 2605 1332 
L 2605 2987 
L 2490 2987 
C 2490 2450 2432 2240 1837 2240 
L 1261 2240 
L 1261 3911 
C 1261 4128 1274 4160 1530 4160 
L 2355 4160 
C 3322 4160 3430 3765 3520 2916 
L 3635 2916 
L 3482 4325 
z
" transform="scale(0.015625)"/>
     </defs>
     <use xlink:href="#CMMI12-43" transform="translate(14.94396 0) scale(0.996264)"/>
     <use xlink:href="#CMR17-53" transform="translate(84.735997 -14.943915) scale(0.697382)"/>
     <use xlink:href="#CMR17-55" transform="translate(120.362605 -14.943915) scale(0.697382)"/>
     <use xlink:href="#CMR17-31" transform="translate(168.71309 -14.943915) scale(0.697382)"/>
     <use xlink:href="#CMR17-33" transform="translate(0 -85.125193) scale(0.996264)"/>
     <use xlink:href="#CMR17-35" transform="translate(45.690477 -85.125193) scale(0.996264)"/>
     <use xlink:href="#CMR17-66" transform="translate(106.61159 -85.125193) scale(0.996264)"/>
     <use xlink:href="#CMR17-46" transform="translate(134.085102 -85.125193) scale(0.996264)"/>
    </g>
   </g>
   <g id="text_19">
    <!-- $V_\mathrm{DD}$ -->
    <g transform="translate(81.950546 14.705972) scale(0.14 -0.14)">
     <use xlink:href="#CMMI12-56" transform="scale(0.996264)"/>
     <use xlink:href="#CMR17-44" transform="translate(56.869579 -14.943915) scale(0.697382)"/>
     <use xlink:href="#CMR17-44" transform="translate(106.144849 -14.943915) scale(0.697382)"/>
    </g>
   </g>
   <g id="patch_24">
    <path d="M 588.595879 294.918 
C 589.311927 294.918 589.998745 294.633511 590.505067 294.127188 
C 591.01139 293.620866 591.295879 292.934048 591.295879 292.218 
C 591.295879 291.501952 591.01139 290.815134 590.505067 290.308812 
C 589.998745 289.802489 589.311927 289.518 588.595879 289.518 
C 587.879831 289.518 587.193013 289.802489 586.686691 290.308812 
C 586.180368 290.815134 585.895879 291.501952 585.895879 292.218 
C 585.895879 292.934048 586.180368 293.620866 586.686691 294.127188 
C 587.193013 294.633511 587.879831 294.918 588.595879 294.918 
z
" clip-path="url(#p36e427729e)" style="fill: #ffffff; stroke: #000000; stroke-width: 2; stroke-linejoin: miter"/>
   </g>
   <g id="text_20">
    <!-- $V_\mathrm{bias} = 0.128\,\textrm{V}$ -->
    <g transform="translate(596.695879 295.704924) scale(0.14 -0.14)">
     <defs>
      <path id="CMR17-62" d="M 960 4396 
L 198 4326 
L 198 4160 
C 576 4160 634 4122 634 3817 
L 634 -13 
L 749 -13 
L 934 441 
C 1120 141 1395 -64 1766 -64 
C 2406 -64 3053 500 3053 1370 
C 3053 2188 2477 2790 1830 2790 
C 1434 2790 1152 2579 960 2330 
L 960 4396 
z
M 973 2004 
C 973 2118 973 2138 1062 2272 
C 1312 2657 1670 2688 1792 2688 
C 1984 2688 2643 2585 2643 1376 
C 2643 108 1888 38 1734 38 
C 1536 38 1248 114 1043 486 
C 973 608 973 621 973 735 
L 973 2004 
z
" transform="scale(0.015625)"/>
      <path id="CMR17-69" d="M 992 3909 
C 992 4049 877 4170 730 4170 
C 589 4170 467 4056 467 3909 
C 467 3769 582 3648 730 3648 
C 870 3648 992 3763 992 3909 
z
M 243 2706 
L 243 2541 
C 602 2541 653 2502 653 2197 
L 653 427 
C 653 184 627 153 218 153 
L 218 -13 
C 371 0 646 0 806 0 
C 960 0 1222 0 1370 -13 
L 1370 153 
C 992 153 979 191 979 420 
L 979 2776 
L 243 2706 
z
" transform="scale(0.015625)"/>
      <path id="CMR17-61" d="M 2304 1653 
C 2304 2072 2304 2294 2035 2543 
C 1798 2752 1523 2816 1306 2816 
C 800 2816 435 2407 435 1971 
C 435 1728 627 1728 666 1728 
C 749 1728 896 1778 896 1954 
C 896 2112 774 2181 666 2181 
C 640 2181 608 2174 589 2168 
C 723 2592 1069 2714 1293 2714 
C 1613 2714 1965 2429 1965 1885 
L 1965 1600 
C 1587 1600 1133 1549 774 1357 
C 371 1133 256 813 256 570 
C 256 77 832 -64 1171 -64 
C 1523 -64 1850 139 1990 511 
C 2003 233 2182 -18 2464 -18 
C 2598 -18 2938 70 2938 567 
L 2938 920 
L 2822 920 
L 2822 562 
C 2822 178 2650 128 2566 128 
C 2304 128 2304 458 2304 738 
L 2304 1653 
z
M 1965 870 
C 1965 317 1568 38 1216 38 
C 896 38 646 275 646 570 
C 646 761 730 1100 1101 1305 
C 1408 1478 1760 1504 1965 1504 
L 1965 870 
z
" transform="scale(0.015625)"/>
      <path id="CMR17-73" d="M 1978 2697 
C 1978 2813 1971 2819 1933 2819 
C 1907 2819 1901 2813 1824 2717 
C 1805 2691 1747 2626 1728 2601 
C 1523 2819 1235 2819 1126 2819 
C 416 2819 160 2447 160 2076 
C 160 1498 813 1365 998 1325 
C 1402 1243 1542 1217 1677 1101 
C 1760 1025 1901 884 1901 654 
C 1901 384 1747 38 1158 38 
C 602 38 403 460 288 1021 
C 269 1110 269 1117 218 1117 
C 166 1117 160 1110 160 983 
L 160 63 
C 160 -51 166 -58 205 -58 
C 237 -58 243 -51 275 0 
C 314 57 410 211 448 276 
C 576 103 800 -64 1158 -64 
C 1792 -64 2131 283 2131 784 
C 2131 1112 1958 1285 1875 1362 
C 1683 1561 1459 1606 1190 1657 
C 838 1735 390 1825 390 2217 
C 390 2383 480 2737 1126 2737 
C 1811 2737 1850 2094 1862 1888 
C 1869 1856 1901 1849 1920 1849 
C 1978 1849 1978 1869 1978 1978 
L 1978 2697 
z
" transform="scale(0.015625)"/>
      <path id="CMR17-38" d="M 1741 2264 
C 2144 2467 2554 2773 2554 3263 
C 2554 3841 1990 4179 1472 4179 
C 890 4179 378 3759 378 3180 
C 378 3021 416 2747 666 2505 
C 730 2442 998 2251 1171 2130 
C 883 1983 211 1634 211 934 
C 211 279 838 -128 1459 -128 
C 2144 -128 2720 362 2720 1010 
C 2720 1590 2330 1857 2074 2029 
L 1741 2264 
z
M 902 2822 
C 851 2854 595 3051 595 3351 
C 595 3739 998 4032 1459 4032 
C 1965 4032 2336 3676 2336 3262 
C 2336 2669 1670 2331 1638 2331 
C 1632 2331 1626 2331 1574 2370 
L 902 2822 
z
M 2080 1519 
C 2176 1449 2483 1240 2483 851 
C 2483 381 2010 25 1472 25 
C 890 25 448 438 448 940 
C 448 1443 838 1862 1280 2060 
L 2080 1519 
z
" transform="scale(0.015625)"/>
      <path id="CMR17-56" d="M 3776 3745 
C 3834 3886 3936 4160 4365 4160 
L 4365 4332 
C 4218 4319 4051 4319 3891 4319 
C 3738 4319 3475 4319 3328 4332 
L 3328 4160 
C 3648 4160 3661 3936 3661 3898 
C 3661 3827 3642 3783 3622 3732 
L 2362 446 
L 1043 3886 
C 1024 3931 1011 3963 1011 3994 
C 1011 4160 1267 4160 1402 4160 
L 1402 4319 
C 1197 4319 896 4319 685 4319 
C 518 4319 218 4319 64 4332 
L 64 4160 
C 435 4160 506 4135 582 3931 
L 2106 -26 
C 2138 -115 2144 -128 2214 -128 
C 2285 -128 2291 -115 2323 -26 
L 3776 3745 
z
" transform="scale(0.015625)"/>
     </defs>
     <use xlink:href="#CMMI12-56" transform="scale(0.996264)"/>
     <use xlink:href="#CMR17-62" transform="translate(56.869579 -14.943915) scale(0.697382)"/>
     <use xlink:href="#CMR17-69" transform="translate(92.496187 -14.943915) scale(0.697382)"/>
     <use xlink:href="#CMR17-61" transform="translate(109.905846 -14.943915) scale(0.697382)"/>
     <use xlink:href="#CMR17-73" transform="translate(141.889028 -14.943915) scale(0.697382)"/>
     <use xlink:href="#CMR17-3d" transform="translate(195.121991 0) scale(0.996264)"/>
     <use xlink:href="#CMR17-30" transform="translate(294.510788 0) scale(0.996264)"/>
     <use xlink:href="#CMMI12-3a" transform="translate(340.201266 0) scale(0.996264)"/>
     <use xlink:href="#CMR17-31" transform="translate(367.298443 0) scale(0.996264)"/>
     <use xlink:href="#CMR17-32" transform="translate(412.98892 0) scale(0.996264)"/>
     <use xlink:href="#CMR17-38" transform="translate(458.679397 0) scale(0.996264)"/>
     <use xlink:href="#CMR17-56" transform="translate(520.974279 0) scale(0.996264)"/>
    </g>
   </g>
   <g id="patch_25">
    <path d="M 588.595879 198.918 
C 589.311927 198.918 589.998745 198.633511 590.505067 198.127188 
C 591.01139 197.620866 591.295879 196.934048 591.295879 196.218 
C 591.295879 195.501952 591.01139 194.815134 590.505067 194.308812 
C 589.998745 193.802489 589.311927 193.518 588.595879 193.518 
C 587.879831 193.518 587.193013 193.802489 586.686691 194.308812 
C 586.180368 194.815134 585.895879 195.501952 585.895879 196.218 
C 585.895879 196.934048 586.180368 197.620866 586.686691 198.127188 
C 587.193013 198.633511 587.879831 198.918 588.595879 198.918 
z
" clip-path="url(#p36e427729e)" style="fill: #ffffff; stroke: #000000; stroke-width: 2; stroke-linejoin: miter"/>
   </g>
   <g id="text_21">
    <!-- $V_\mathrm{bias,c} = 0.275\,\textrm{V}$ -->
    <g transform="translate(596.695879 198.988175) scale(0.14 -0.14)">
     <defs>
      <path id="CMMI12-3b" d="M 1248 -31 
C 1248 343 1126 619 864 619 
C 659 619 557 453 557 313 
C 557 172 653 0 870 0 
C 954 0 1024 26 1082 83 
C 1094 96 1101 96 1107 96 
C 1120 96 1120 5 1120 -27 
C 1120 -240 1082 -659 710 -1080 
C 640 -1157 640 -1170 640 -1183 
C 640 -1216 672 -1248 704 -1248 
C 755 -1248 1248 -771 1248 -31 
z
" transform="scale(0.015625)"/>
      <path id="CMR17-63" d="M 2234 2240 
C 2112 2240 1933 2240 1933 2017 
C 1933 1838 2080 1787 2163 1787 
C 2208 1787 2394 1807 2394 2024 
C 2394 2467 1958 2803 1466 2803 
C 787 2803 211 2178 211 1363 
C 211 516 813 -64 1466 -64 
C 2259 -64 2458 677 2458 748 
C 2458 774 2451 793 2406 793 
C 2362 793 2355 787 2330 703 
C 2163 180 1798 51 1523 51 
C 1114 51 621 427 621 1369 
C 621 2338 1094 2688 1472 2688 
C 1722 2688 2093 2573 2234 2240 
z
" transform="scale(0.015625)"/>
     </defs>
     <use xlink:href="#CMMI12-56" transform="scale(0.996264)"/>
     <use xlink:href="#CMR17-62" transform="translate(56.869579 -14.943915) scale(0.697382)"/>
     <use xlink:href="#CMR17-69" transform="translate(92.496187 -14.943915) scale(0.697382)"/>
     <use xlink:href="#CMR17-61" transform="translate(109.905846 -14.943915) scale(0.697382)"/>
     <use xlink:href="#CMR17-73" transform="translate(141.889028 -14.943915) scale(0.697382)"/>
     <use xlink:href="#CMMI12-3b" transform="translate(166.949851 -14.943915) scale(0.697382)"/>
     <use xlink:href="#CMR17-63" transform="translate(185.917783 -14.943915) scale(0.697382)"/>
     <use xlink:href="#CMR17-3d" transform="translate(242.429756 0) scale(0.996264)"/>
     <use xlink:href="#CMR17-30" transform="translate(341.818553 0) scale(0.996264)"/>
     <use xlink:href="#CMMI12-3a" transform="translate(387.50903 0) scale(0.996264)"/>
     <use xlink:href="#CMR17-32" transform="translate(414.606207 0) scale(0.996264)"/>
     <use xlink:href="#CMR17-37" transform="translate(460.296684 0) scale(0.996264)"/>
     <use xlink:href="#CMR17-35" transform="translate(505.987161 0) scale(0.996264)"/>
     <use xlink:href="#CMR17-56" transform="translate(568.282044 0) scale(0.996264)"/>
    </g>
   </g>
   <g id="patch_26">
    <path d="M 339.595879 96.918 
C 340.311927 96.918 340.998745 96.633511 341.505067 96.127188 
C 342.01139 95.620866 342.295879 94.934048 342.295879 94.218 
C 342.295879 93.501952 342.01139 92.815134 341.505067 92.308812 
C 340.998745 91.802489 340.311927 91.518 339.595879 91.518 
C 338.879831 91.518 338.193013 91.802489 337.686691 92.308812 
C 337.180368 92.815134 336.895879 93.501952 336.895879 94.218 
C 336.895879 94.934048 337.180368 95.620866 337.686691 96.127188 
C 338.193013 96.633511 338.879831 96.918 339.595879 96.918 
z
" clip-path="url(#p36e427729e)" style="stroke: #000000; stroke-width: 2; stroke-linejoin: miter"/>
   </g>
   <g id="text_22">
    <!-- $V_\mathrm{GS,34} = 0.28\,\textrm{V}$ -->
    <g transform="translate(294.624583 82.127426) scale(0.14 -0.14)">
     <defs>
      <path id="CMR17-47" d="M 3974 1233 
C 3974 1473 3994 1505 4390 1505 
L 4390 1670 
C 4237 1664 3891 1664 3718 1664 
C 3539 1664 3040 1664 2797 1664 
L 2797 1505 
L 2989 1505 
C 3539 1505 3552 1434 3552 1201 
L 3552 774 
C 3552 63 2720 63 2522 63 
C 1862 63 781 511 781 2160 
C 781 3808 1843 4250 2464 4250 
C 3187 4250 3712 3626 3834 2741 
C 3846 2664 3846 2651 3904 2651 
C 3974 2651 3974 2664 3974 2779 
L 3974 4288 
C 3974 4402 3968 4409 3930 4409 
C 3904 4409 3898 4402 3853 4326 
L 3571 3791 
C 3258 4187 2874 4416 2381 4416 
C 1286 4416 294 3456 294 2148 
C 294 845 1267 -128 2394 -128 
C 2912 -128 3418 56 3616 417 
C 3725 158 3904 -20 3936 -20 
C 3968 -20 3974 -13 3974 100 
L 3974 1233 
z
" transform="scale(0.015625)"/>
     </defs>
     <use xlink:href="#CMMI12-56" transform="scale(0.996264)"/>
     <use xlink:href="#CMR17-47" transform="translate(56.869579 -14.943915) scale(0.697382)"/>
     <use xlink:href="#CMR17-53" transform="translate(107.518102 -14.943915) scale(0.697382)"/>
     <use xlink:href="#CMMI12-3b" transform="translate(143.144711 -14.943915) scale(0.697382)"/>
     <use xlink:href="#CMR17-33" transform="translate(162.112643 -14.943915) scale(0.697382)"/>
     <use xlink:href="#CMR17-34" transform="translate(194.095825 -14.943915) scale(0.697382)"/>
     <use xlink:href="#CMR17-3d" transform="translate(254.251148 0) scale(0.996264)"/>
     <use xlink:href="#CMR17-30" transform="translate(353.639945 0) scale(0.996264)"/>
     <use xlink:href="#CMMI12-3a" transform="translate(399.330422 0) scale(0.996264)"/>
     <use xlink:href="#CMR17-32" transform="translate(426.427599 0) scale(0.996264)"/>
     <use xlink:href="#CMR17-38" transform="translate(472.118077 0) scale(0.996264)"/>
     <use xlink:href="#CMR17-56" transform="translate(534.412959 0) scale(0.996264)"/>
    </g>
   </g>
   <g id="patch_27">
    <path d="M 234.595879 144.918 
C 235.311927 144.918 235.998745 144.633511 236.505067 144.127188 
C 237.01139 143.620866 237.295879 142.934048 237.295879 142.218 
C 237.295879 141.501952 237.01139 140.815134 236.505067 140.308812 
C 235.998745 139.802489 235.311927 139.518 234.595879 139.518 
C 233.879831 139.518 233.193013 139.802489 232.686691 140.308812 
C 232.180368 140.815134 231.895879 141.501952 231.895879 142.218 
C 231.895879 142.934048 232.180368 143.620866 232.686691 144.127188 
C 233.193013 144.633511 233.879831 144.918 234.595879 144.918 
z
" clip-path="url(#p36e427729e)" style="fill: #ffffff; stroke: #000000; stroke-width: 2; stroke-linejoin: miter"/>
   </g>
   <g id="text_23">
    <!-- $V_\mathrm{SU,1}$ -->
    <g transform="translate(220.163193 130.127426) scale(0.14 -0.14)">
     <use xlink:href="#CMMI12-56" transform="scale(0.996264)"/>
     <use xlink:href="#CMR17-53" transform="translate(56.869579 -14.943915) scale(0.697382)"/>
     <use xlink:href="#CMR17-55" transform="translate(92.496187 -14.943915) scale(0.697382)"/>
     <use xlink:href="#CMMI12-3b" transform="translate(140.846672 -14.943915) scale(0.697382)"/>
     <use xlink:href="#CMR17-31" transform="translate(159.814605 -14.943915) scale(0.697382)"/>
    </g>
   </g>
   <g id="patch_28">
    <path d="M 270.595879 390.918 
C 271.311927 390.918 271.998745 390.633511 272.505067 390.127188 
C 273.01139 389.620866 273.295879 388.934048 273.295879 388.218 
C 273.295879 387.501952 273.01139 386.815134 272.505067 386.308812 
C 271.998745 385.802489 271.311927 385.518 270.595879 385.518 
C 269.879831 385.518 269.193013 385.802489 268.686691 386.308812 
C 268.180368 386.815134 267.895879 387.501952 267.895879 388.218 
C 267.895879 388.934048 268.180368 389.620866 268.686691 390.127188 
C 269.193013 390.633511 269.879831 390.918 270.595879 390.918 
z
" clip-path="url(#p36e427729e)" style="stroke: #000000; stroke-width: 2; stroke-linejoin: miter"/>
   </g>
   <g id="text_24">
    <!-- $V_\mathrm{R1} = 37.61\,\textrm{mV}$ -->
    <g transform="translate(168.211445 391.704924) scale(0.14 -0.14)">
     <defs>
      <path id="CMR17-52" d="M 2509 2146 
C 3117 2268 3629 2676 3629 3186 
C 3629 3785 2950 4326 2054 4326 
L 333 4326 
L 333 4160 
C 774 4160 845 4160 845 3873 
L 845 415 
C 845 128 774 128 333 128 
L 333 -26 
C 518 -26 851 -26 1050 -26 
C 1248 -26 1581 -26 1766 -26 
L 1766 128 
C 1325 128 1254 128 1254 417 
L 1254 2112 
L 2003 2112 
C 2368 2112 2573 1964 2662 1881 
C 2918 1632 2918 1459 2918 1024 
C 2918 595 2918 377 3110 160 
C 3354 -102 3680 -128 3821 -128 
C 4294 -128 4365 396 4365 503 
C 4365 540 4365 585 4307 585 
C 4256 585 4250 547 4250 522 
C 4218 112 4032 -26 3834 -26 
C 3482 -26 3443 375 3405 764 
C 3386 898 3373 993 3360 1133 
C 3322 1452 3270 1917 2509 2146 
z
M 1984 2214 
L 1254 2214 
L 1254 3913 
C 1254 4129 1267 4160 1523 4160 
L 1990 4160 
C 2522 4160 3142 3977 3142 3190 
C 3142 2372 2464 2214 1984 2214 
z
" transform="scale(0.015625)"/>
      <path id="CMR17-36" d="M 678 2176 
C 678 3690 1395 4032 1811 4032 
C 1946 4032 2272 4009 2400 3776 
C 2298 3776 2106 3776 2106 3553 
C 2106 3381 2246 3323 2336 3323 
C 2394 3323 2566 3348 2566 3560 
C 2566 3954 2246 4179 1805 4179 
C 1043 4179 243 3390 243 1984 
C 243 253 966 -128 1478 -128 
C 2099 -128 2688 427 2688 1283 
C 2688 2081 2170 2662 1517 2662 
C 1126 2662 838 2407 678 1960 
L 678 2176 
z
M 1478 25 
C 691 25 691 1200 691 1436 
C 691 1896 909 2560 1504 2560 
C 1613 2560 1926 2560 2138 2120 
C 2253 1870 2253 1609 2253 1289 
C 2253 944 2253 690 2118 434 
C 1978 171 1773 25 1478 25 
z
" transform="scale(0.015625)"/>
      <path id="CMR17-6d" d="M 4326 1933 
C 4326 2252 4269 2790 3507 2790 
C 3072 2790 2771 2496 2656 2151 
L 2650 2151 
C 2573 2676 2195 2790 1837 2790 
C 1331 2790 1069 2400 973 2144 
L 966 2144 
L 966 2790 
L 211 2720 
L 211 2554 
C 589 2554 646 2515 646 2208 
L 646 428 
C 646 184 621 153 211 153 
L 211 -13 
C 365 0 646 0 813 0 
C 979 0 1267 0 1421 -13 
L 1421 153 
C 1011 153 986 178 986 428 
L 986 1658 
C 986 2247 1344 2688 1792 2688 
C 2266 2688 2317 2266 2317 1958 
L 2317 428 
C 2317 184 2291 153 1882 153 
L 1882 -13 
C 2035 0 2317 0 2483 0 
C 2650 0 2938 0 3091 -13 
L 3091 153 
C 2682 153 2656 178 2656 428 
L 2656 1658 
C 2656 2247 3014 2688 3462 2688 
C 3936 2688 3987 2266 3987 1958 
L 3987 428 
C 3987 184 3962 153 3552 153 
L 3552 -13 
C 3706 0 3987 0 4154 0 
C 4320 0 4608 0 4762 -13 
L 4762 153 
C 4352 153 4326 178 4326 428 
L 4326 1933 
z
" transform="scale(0.015625)"/>
     </defs>
     <use xlink:href="#CMMI12-56" transform="scale(0.996264)"/>
     <use xlink:href="#CMR17-52" transform="translate(56.869579 -14.943915) scale(0.697382)"/>
     <use xlink:href="#CMR17-31" transform="translate(104.323144 -14.943915) scale(0.697382)"/>
     <use xlink:href="#CMR17-3d" transform="translate(164.478466 0) scale(0.996264)"/>
     <use xlink:href="#CMR17-33" transform="translate(263.867264 0) scale(0.996264)"/>
     <use xlink:href="#CMR17-37" transform="translate(309.557741 0) scale(0.996264)"/>
     <use xlink:href="#CMMI12-3a" transform="translate(355.248218 0) scale(0.996264)"/>
     <use xlink:href="#CMR17-36" transform="translate(382.345395 0) scale(0.996264)"/>
     <use xlink:href="#CMR17-31" transform="translate(428.035872 0) scale(0.996264)"/>
     <use xlink:href="#CMR17-6d" transform="translate(490.330754 0) scale(0.996264)"/>
     <use xlink:href="#CMR17-56" transform="translate(567.250344 0) scale(0.996264)"/>
    </g>
   </g>
   <g id="patch_29">
    <path d="M 234.595879 294.918 
C 235.311927 294.918 235.998745 294.633511 236.505067 294.127188 
C 237.01139 293.620866 237.295879 292.934048 237.295879 292.218 
C 237.295879 291.501952 237.01139 290.815134 236.505067 290.308812 
C 235.998745 289.802489 235.311927 289.518 234.595879 289.518 
C 233.879831 289.518 233.193013 289.802489 232.686691 290.308812 
C 232.180368 290.815134 231.895879 291.501952 231.895879 292.218 
C 231.895879 292.934048 232.180368 293.620866 232.686691 294.127188 
C 233.193013 294.633511 233.879831 294.918 234.595879 294.918 
z
" clip-path="url(#p36e427729e)" style="fill: #ffffff; stroke: #000000; stroke-width: 2; stroke-linejoin: miter"/>
   </g>
   <g id="text_25">
    <!-- $V_\mathrm{SU,2}$ -->
    <g transform="translate(220.163193 280.127426) scale(0.14 -0.14)">
     <use xlink:href="#CMMI12-56" transform="scale(0.996264)"/>
     <use xlink:href="#CMR17-53" transform="translate(56.869579 -14.943915) scale(0.697382)"/>
     <use xlink:href="#CMR17-55" transform="translate(92.496187 -14.943915) scale(0.697382)"/>
     <use xlink:href="#CMMI12-3b" transform="translate(140.846672 -14.943915) scale(0.697382)"/>
     <use xlink:href="#CMR17-32" transform="translate(159.814605 -14.943915) scale(0.697382)"/>
    </g>
   </g>
  </g>
 </g>
 <defs>
  <clipPath id="p36e427729e">
   <rect x="0" y="-0" width="693.859438" height="500.298"/>
  </clipPath>
 </defs>
</svg>
