<?xml version="1.0" encoding="utf-8" standalone="no"?>
<!DOCTYPE svg PUBLIC "-//W3C//DTD SVG 1.1//EN"
  "http://www.w3.org/Graphics/SVG/1.1/DTD/svg11.dtd">
<svg xmlns:xlink="http://www.w3.org/1999/xlink" width="585.927181pt" height="502.032pt" viewBox="0 0 585.927181 502.032" xmlns="http://www.w3.org/2000/svg" version="1.1">
 <metadata>
  <rdf:RDF xmlns:dc="http://purl.org/dc/elements/1.1/" xmlns:cc="http://creativecommons.org/ns#" xmlns:rdf="http://www.w3.org/1999/02/22-rdf-syntax-ns#">
   <cc:Work>
    <dc:type rdf:resource="http://purl.org/dc/dcmitype/StillImage"/>
    <dc:date>2025-05-26T08:17:08.696730</dc:date>
    <dc:format>image/svg+xml</dc:format>
    <dc:creator>
     <cc:Agent>
      <dc:title>Matplotlib v3.9.2, https://matplotlib.org/</dc:title>
     </cc:Agent>
    </dc:creator>
   </cc:Work>
  </rdf:RDF>
 </metadata>
 <defs>
  <style type="text/css">*{stroke-linejoin: round; stroke-linecap: butt}</style>
 </defs>
 <g id="figure_1">
  <g id="patch_1">
   <path d="M 0 502.032 
L 585.927181 502.032 
L 585.927181 0 
L 0 0 
L 0 502.032 
z
" style="fill: none"/>
  </g>
  <g id="axes_1">
   <g id="line2d_1">
    <path d="M 539.246381 293.952 
L 521.246381 293.952 
L 503.246381 293.952 
" clip-path="url(#pd51b4d44d8)" style="fill: none; stroke: #000000; stroke-width: 2; stroke-linecap: round"/>
   </g>
   <g id="line2d_2">
    <path d="M 503.246381 293.952 
L 503.246381 320.952 
L 503.246381 347.952 
" clip-path="url(#pd51b4d44d8)" style="fill: none; stroke: #000000; stroke-width: 2; stroke-linecap: round"/>
   </g>
   <g id="line2d_3">
    <path d="M 503.246381 347.952 
L 503.246381 380.712 
M 512.246381 380.712 
L 494.246381 380.712 
M 512.246381 387.192 
L 494.246381 387.192 
M 503.246381 387.192 
L 503.246381 419.952 
" clip-path="url(#pd51b4d44d8)" style="fill: none; stroke: #000000; stroke-width: 2; stroke-linecap: round"/>
   </g>
   <g id="line2d_4">
    <path d="M 503.246381 419.952 
L 503.246381 446.952 
L 503.246381 473.952 
" clip-path="url(#pd51b4d44d8)" style="fill: none; stroke: #000000; stroke-width: 2; stroke-linecap: round"/>
   </g>
   <g id="line2d_5">
    <path d="M 503.246381 473.952 
L 503.246381 488.352 
L 494.246381 488.352 
L 503.246381 497.352 
L 512.246381 488.352 
L 503.246381 488.352 
" clip-path="url(#pd51b4d44d8)" style="fill: none; stroke: #000000; stroke-width: 2; stroke-linecap: round"/>
   </g>
   <g id="line2d_6">
    <path d="M 503.246381 293.952 
L 467.246381 293.952 
L 431.246381 293.952 
" clip-path="url(#pd51b4d44d8)" style="fill: none; stroke: #000000; stroke-width: 2; stroke-linecap: round"/>
   </g>
   <g id="line2d_7">
    <path d="M 431.246381 293.952 
L 431.246381 302.952 
L 431.246381 311.952 
" clip-path="url(#pd51b4d44d8)" style="fill: none; stroke: #000000; stroke-width: 2; stroke-linecap: round"/>
   </g>
   <g id="line2d_8">
    <path d="M 431.246381 371.952 
L 431.246381 356.952 
L 416.246381 356.952 
L 416.246381 326.952 
L 431.246381 326.952 
L 431.246381 311.952 
" clip-path="url(#pd51b4d44d8)" style="fill: none; stroke: #000000; stroke-width: 2; stroke-linecap: round"/>
   </g>
   <g id="line2d_9">
    <path d="M 422.246381 356.952 
L 416.246381 356.952 
" clip-path="url(#pd51b4d44d8)" style="fill: none; stroke: #000000; stroke-width: 2; stroke-linecap: round"/>
   </g>
   <g id="patch_2">
    <path d="M 422.246381 352.452 
L 431.246381 356.952 
L 422.246381 361.452 
z
" clip-path="url(#pd51b4d44d8)"/>
   </g>
   <g id="line2d_10">
    <path d="M 413.246381 353.952 
L 413.246381 329.952 
" clip-path="url(#pd51b4d44d8)" style="fill: none; stroke: #000000; stroke-width: 2; stroke-linecap: round"/>
   </g>
   <g id="line2d_11">
    <path d="M 398.246381 341.952 
L 413.246381 341.952 
" clip-path="url(#pd51b4d44d8)" style="fill: none; stroke: #000000; stroke-width: 2; stroke-linecap: round"/>
   </g>
   <g id="line2d_12">
    <path d="M 431.246381 371.952 
L 431.246381 422.952 
L 431.246381 473.952 
" clip-path="url(#pd51b4d44d8)" style="fill: none; stroke: #000000; stroke-width: 2; stroke-linecap: round"/>
   </g>
   <g id="line2d_13">
    <path d="M 431.246381 473.952 
L 431.246381 488.352 
L 422.246381 488.352 
L 431.246381 497.352 
L 440.246381 488.352 
L 431.246381 488.352 
" clip-path="url(#pd51b4d44d8)" style="fill: none; stroke: #000000; stroke-width: 2; stroke-linecap: round"/>
   </g>
   <g id="line2d_14">
    <path d="M 398.246381 341.952 
L 380.246381 341.952 
L 362.246381 341.952 
" clip-path="url(#pd51b4d44d8)" style="fill: none; stroke: #000000; stroke-width: 2; stroke-linecap: round"/>
   </g>
   <g id="line2d_15">
    <path d="M 362.246381 341.952 
L 362.246381 317.952 
L 362.246381 293.952 
" clip-path="url(#pd51b4d44d8)" style="fill: none; stroke: #000000; stroke-width: 2; stroke-linecap: round"/>
   </g>
   <g id="line2d_16">
    <path d="M 362.246381 293.952 
L 396.746381 293.952 
L 431.246381 293.952 
" clip-path="url(#pd51b4d44d8)" style="fill: none; stroke: #000000; stroke-width: 2; stroke-linecap: round"/>
   </g>
   <g id="line2d_17">
    <path d="M 431.246381 293.952 
L 431.246381 284.952 
L 431.246381 275.952 
" clip-path="url(#pd51b4d44d8)" style="fill: none; stroke: #000000; stroke-width: 2; stroke-linecap: round"/>
   </g>
   <g id="line2d_18">
    <path d="M 431.246381 275.952 
L 431.246381 260.952 
L 416.246381 260.952 
L 416.246381 230.952 
L 431.246381 230.952 
L 431.246381 215.952 
" clip-path="url(#pd51b4d44d8)" style="fill: none; stroke: #000000; stroke-width: 2; stroke-linecap: round"/>
   </g>
   <g id="line2d_19">
    <path d="M 422.246381 260.952 
L 416.246381 260.952 
" clip-path="url(#pd51b4d44d8)" style="fill: none; stroke: #000000; stroke-width: 2; stroke-linecap: round"/>
   </g>
   <g id="patch_3">
    <path d="M 422.246381 256.452 
L 431.246381 260.952 
L 422.246381 265.452 
z
" clip-path="url(#pd51b4d44d8)"/>
   </g>
   <g id="line2d_20">
    <path d="M 413.246381 257.952 
L 413.246381 233.952 
" clip-path="url(#pd51b4d44d8)" style="fill: none; stroke: #000000; stroke-width: 2; stroke-linecap: round"/>
   </g>
   <g id="line2d_21">
    <path d="M 398.246381 245.952 
L 413.246381 245.952 
" clip-path="url(#pd51b4d44d8)" style="fill: none; stroke: #000000; stroke-width: 2; stroke-linecap: round"/>
   </g>
   <g id="line2d_22">
    <path d="M 398.246381 245.952 
L 380.246381 245.952 
L 362.246381 245.952 
" clip-path="url(#pd51b4d44d8)" style="fill: none; stroke: #000000; stroke-width: 2; stroke-linecap: round"/>
   </g>
   <g id="line2d_23">
    <path d="M 362.246381 245.952 
L 362.246381 221.952 
L 362.246381 197.952 
" clip-path="url(#pd51b4d44d8)" style="fill: none; stroke: #000000; stroke-width: 2; stroke-linecap: round"/>
   </g>
   <g id="line2d_24">
    <path d="M 362.246381 197.952 
L 396.746381 197.952 
L 431.246381 197.952 
" clip-path="url(#pd51b4d44d8)" style="fill: none; stroke: #000000; stroke-width: 2; stroke-linecap: round"/>
   </g>
   <g id="line2d_25">
    <path d="M 431.246381 197.952 
L 431.246381 206.952 
L 431.246381 215.952 
" clip-path="url(#pd51b4d44d8)" style="fill: none; stroke: #000000; stroke-width: 2; stroke-linecap: round"/>
   </g>
   <g id="line2d_26">
    <path d="M 431.246381 197.952 
L 485.246381 197.952 
L 539.246381 197.952 
" clip-path="url(#pd51b4d44d8)" style="fill: none; stroke: #000000; stroke-width: 2; stroke-linecap: round"/>
   </g>
   <g id="line2d_27">
    <path d="M 431.246381 197.952 
L 431.246381 188.952 
L 431.246381 179.952 
" clip-path="url(#pd51b4d44d8)" style="fill: none; stroke: #000000; stroke-width: 2; stroke-linecap: round"/>
   </g>
   <g id="line2d_28">
    <path d="M 431.246381 163.752 
L 431.246381 163.752 
" clip-path="url(#pd51b4d44d8)" style="fill: none; stroke: #000000; stroke-width: 2; stroke-linecap: round"/>
   </g>
   <g id="patch_4">
    <path d="M 435.746381 163.752 
L 431.246381 179.952 
L 426.746381 163.752 
z
" clip-path="url(#pd51b4d44d8)"/>
   </g>
   <g id="line2d_29">
    <path d="M 431.246381 179.952 
L 431.246381 152.952 
L 431.246381 125.952 
" clip-path="url(#pd51b4d44d8)" style="fill: none; stroke: #000000; stroke-width: 2; stroke-linecap: round"/>
   </g>
   <g id="line2d_30">
    <path d="M 431.246381 125.952 
L 431.246381 110.952 
L 416.246381 110.952 
L 416.246381 80.952 
L 431.246381 80.952 
L 431.246381 65.952 
" clip-path="url(#pd51b4d44d8)" style="fill: none; stroke: #000000; stroke-width: 2; stroke-linecap: round"/>
   </g>
   <g id="line2d_31">
    <path d="M 425.246381 80.952 
L 431.246381 80.952 
" clip-path="url(#pd51b4d44d8)" style="fill: none; stroke: #000000; stroke-width: 2; stroke-linecap: round"/>
   </g>
   <g id="patch_5">
    <path d="M 425.246381 85.452 
L 416.246381 80.952 
L 425.246381 76.452 
z
" clip-path="url(#pd51b4d44d8)"/>
   </g>
   <g id="line2d_32">
    <path d="M 413.246381 107.952 
L 413.246381 83.952 
" clip-path="url(#pd51b4d44d8)" style="fill: none; stroke: #000000; stroke-width: 2; stroke-linecap: round"/>
   </g>
   <g id="line2d_33">
    <path d="M 398.246381 95.952 
L 413.246381 95.952 
" clip-path="url(#pd51b4d44d8)" style="fill: none; stroke: #000000; stroke-width: 2; stroke-linecap: round"/>
   </g>
   <g id="line2d_34">
    <path d="M 431.246381 65.952 
L 431.246381 52.452 
L 431.246381 38.952 
" clip-path="url(#pd51b4d44d8)" style="fill: none; stroke: #000000; stroke-width: 2; stroke-linecap: round"/>
   </g>
   <g id="line2d_35">
    <path d="M 431.246381 38.952 
L 431.246381 24.552 
" clip-path="url(#pd51b4d44d8)" style="fill: none; stroke: #000000; stroke-width: 2; stroke-linecap: round"/>
   </g>
   <g id="line2d_36">
    <path d="M 431.246381 24.552 
L 424.496381 24.552 
" clip-path="url(#pd51b4d44d8)" style="fill: none; stroke: #000000; stroke-width: 2; stroke-linecap: round"/>
   </g>
   <g id="line2d_37">
    <path d="M 431.246381 24.552 
L 437.996381 24.552 
" clip-path="url(#pd51b4d44d8)" style="fill: none; stroke: #000000; stroke-width: 2; stroke-linecap: round"/>
   </g>
   <g id="line2d_38">
    <path d="M 398.246381 95.952 
L 380.246381 95.952 
L 362.246381 95.952 
" clip-path="url(#pd51b4d44d8)" style="fill: none; stroke: #000000; stroke-width: 2; stroke-linecap: round"/>
   </g>
   <g id="line2d_39">
    <path d="M 362.246381 95.952 
L 362.246381 63.192 
M 353.246381 63.192 
L 371.246381 63.192 
M 353.246381 56.712 
L 371.246381 56.712 
M 362.246381 56.712 
L 362.246381 23.952 
" clip-path="url(#pd51b4d44d8)" style="fill: none; stroke: #000000; stroke-width: 2; stroke-linecap: round"/>
   </g>
   <g id="line2d_40">
    <path d="M 362.246381 23.952 
L 362.246381 23.952 
" clip-path="url(#pd51b4d44d8)" style="fill: none; stroke: #000000; stroke-width: 2; stroke-linecap: round"/>
   </g>
   <g id="line2d_41">
    <path d="M 362.246381 23.952 
L 355.496381 23.952 
" clip-path="url(#pd51b4d44d8)" style="fill: none; stroke: #000000; stroke-width: 2; stroke-linecap: round"/>
   </g>
   <g id="line2d_42">
    <path d="M 362.246381 23.952 
L 368.996381 23.952 
" clip-path="url(#pd51b4d44d8)" style="fill: none; stroke: #000000; stroke-width: 2; stroke-linecap: round"/>
   </g>
   <g id="line2d_43">
    <path d="M 362.246381 95.952 
L 326.246381 95.952 
L 290.246381 95.952 
" clip-path="url(#pd51b4d44d8)" style="fill: none; stroke: #000000; stroke-width: 2; stroke-linecap: round"/>
   </g>
   <g id="line2d_44">
    <path d="M 290.246381 95.952 
L 272.246381 95.952 
L 254.246381 95.952 
" clip-path="url(#pd51b4d44d8)" style="fill: none; stroke: #000000; stroke-width: 2; stroke-linecap: round"/>
   </g>
   <g id="line2d_45">
    <path d="M 221.246381 65.952 
L 221.246381 80.952 
L 236.246381 80.952 
L 236.246381 110.952 
L 221.246381 110.952 
L 221.246381 125.952 
" clip-path="url(#pd51b4d44d8)" style="fill: none; stroke: #000000; stroke-width: 2; stroke-linecap: round"/>
   </g>
   <g id="line2d_46">
    <path d="M 221.246381 80.952 
L 227.246381 80.952 
" clip-path="url(#pd51b4d44d8)" style="fill: none; stroke: #000000; stroke-width: 2; stroke-linecap: round"/>
   </g>
   <g id="patch_6">
    <path d="M 227.246381 76.452 
L 236.246381 80.952 
L 227.246381 85.452 
z
" clip-path="url(#pd51b4d44d8)"/>
   </g>
   <g id="line2d_47">
    <path d="M 239.246381 83.952 
L 239.246381 107.952 
" clip-path="url(#pd51b4d44d8)" style="fill: none; stroke: #000000; stroke-width: 2; stroke-linecap: round"/>
   </g>
   <g id="line2d_48">
    <path d="M 239.246381 95.952 
L 254.246381 95.952 
" clip-path="url(#pd51b4d44d8)" style="fill: none; stroke: #000000; stroke-width: 2; stroke-linecap: round"/>
   </g>
   <g id="line2d_49">
    <path d="M 221.246381 65.952 
L 221.246381 52.452 
L 221.246381 38.952 
" clip-path="url(#pd51b4d44d8)" style="fill: none; stroke: #000000; stroke-width: 2; stroke-linecap: round"/>
   </g>
   <g id="line2d_50">
    <path d="M 221.246381 38.952 
L 221.246381 24.552 
" clip-path="url(#pd51b4d44d8)" style="fill: none; stroke: #000000; stroke-width: 2; stroke-linecap: round"/>
   </g>
   <g id="line2d_51">
    <path d="M 221.246381 24.552 
L 214.496381 24.552 
" clip-path="url(#pd51b4d44d8)" style="fill: none; stroke: #000000; stroke-width: 2; stroke-linecap: round"/>
   </g>
   <g id="line2d_52">
    <path d="M 221.246381 24.552 
L 227.996381 24.552 
" clip-path="url(#pd51b4d44d8)" style="fill: none; stroke: #000000; stroke-width: 2; stroke-linecap: round"/>
   </g>
   <g id="line2d_53">
    <path d="M 221.246381 125.952 
L 221.246381 134.952 
L 221.246381 143.952 
" clip-path="url(#pd51b4d44d8)" style="fill: none; stroke: #000000; stroke-width: 2; stroke-linecap: round"/>
   </g>
   <g id="line2d_54">
    <path d="M 221.246381 143.952 
L 203.246381 143.952 
L 185.246381 143.952 
" clip-path="url(#pd51b4d44d8)" style="fill: none; stroke: #000000; stroke-width: 2; stroke-linecap: round"/>
   </g>
   <g id="line2d_55">
    <path d="M 221.246381 143.952 
L 255.746381 143.952 
L 290.246381 143.952 
" clip-path="url(#pd51b4d44d8)" style="fill: none; stroke: #000000; stroke-width: 2; stroke-linecap: round"/>
   </g>
   <g id="line2d_56">
    <path d="M 290.246381 143.952 
L 290.246381 119.952 
L 290.246381 95.952 
" clip-path="url(#pd51b4d44d8)" style="fill: none; stroke: #000000; stroke-width: 2; stroke-linecap: round"/>
   </g>
   <g id="line2d_57">
    <path d="M 221.246381 143.952 
L 221.246381 161.952 
L 221.246381 179.952 
" clip-path="url(#pd51b4d44d8)" style="fill: none; stroke: #000000; stroke-width: 2; stroke-linecap: round"/>
   </g>
   <g id="line2d_58">
    <path d="M 221.246381 163.752 
L 221.246381 163.752 
" clip-path="url(#pd51b4d44d8)" style="fill: none; stroke: #000000; stroke-width: 2; stroke-linecap: round"/>
   </g>
   <g id="patch_7">
    <path d="M 225.746381 163.752 
L 221.246381 179.952 
L 216.746381 163.752 
z
" clip-path="url(#pd51b4d44d8)"/>
   </g>
   <g id="line2d_59">
    <path d="M 221.246381 179.952 
L 221.246381 197.952 
L 221.246381 215.952 
" clip-path="url(#pd51b4d44d8)" style="fill: none; stroke: #000000; stroke-width: 2; stroke-linecap: round"/>
   </g>
   <g id="line2d_60">
    <path d="M 221.246381 215.952 
L 221.246381 230.952 
L 236.246381 230.952 
L 236.246381 260.952 
L 221.246381 260.952 
L 221.246381 275.952 
" clip-path="url(#pd51b4d44d8)" style="fill: none; stroke: #000000; stroke-width: 2; stroke-linecap: round"/>
   </g>
   <g id="line2d_61">
    <path d="M 236.246381 260.952 
L 230.246381 260.952 
" clip-path="url(#pd51b4d44d8)" style="fill: none; stroke: #000000; stroke-width: 2; stroke-linecap: round"/>
   </g>
   <g id="patch_8">
    <path d="M 230.246381 265.452 
L 221.246381 260.952 
L 230.246381 256.452 
z
" clip-path="url(#pd51b4d44d8)"/>
   </g>
   <g id="line2d_62">
    <path d="M 239.246381 233.952 
L 239.246381 257.952 
" clip-path="url(#pd51b4d44d8)" style="fill: none; stroke: #000000; stroke-width: 2; stroke-linecap: round"/>
   </g>
   <g id="line2d_63">
    <path d="M 239.246381 245.952 
L 254.246381 245.952 
" clip-path="url(#pd51b4d44d8)" style="fill: none; stroke: #000000; stroke-width: 2; stroke-linecap: round"/>
   </g>
   <g id="line2d_64">
    <path d="M 254.246381 245.952 
L 308.246381 245.952 
L 362.246381 245.952 
" clip-path="url(#pd51b4d44d8)" style="fill: none; stroke: #000000; stroke-width: 2; stroke-linecap: round"/>
   </g>
   <g id="line2d_65">
    <path d="M 221.246381 275.952 
L 221.246381 293.952 
L 221.246381 311.952 
" clip-path="url(#pd51b4d44d8)" style="fill: none; stroke: #000000; stroke-width: 2; stroke-linecap: round"/>
   </g>
   <g id="line2d_66">
    <path d="M 221.246381 311.952 
L 221.246381 326.952 
L 236.246381 326.952 
L 236.246381 356.952 
L 221.246381 356.952 
L 221.246381 371.952 
" clip-path="url(#pd51b4d44d8)" style="fill: none; stroke: #000000; stroke-width: 2; stroke-linecap: round"/>
   </g>
   <g id="line2d_67">
    <path d="M 236.246381 356.952 
L 230.246381 356.952 
" clip-path="url(#pd51b4d44d8)" style="fill: none; stroke: #000000; stroke-width: 2; stroke-linecap: round"/>
   </g>
   <g id="patch_9">
    <path d="M 230.246381 361.452 
L 221.246381 356.952 
L 230.246381 352.452 
z
" clip-path="url(#pd51b4d44d8)"/>
   </g>
   <g id="line2d_68">
    <path d="M 239.246381 329.952 
L 239.246381 353.952 
" clip-path="url(#pd51b4d44d8)" style="fill: none; stroke: #000000; stroke-width: 2; stroke-linecap: round"/>
   </g>
   <g id="line2d_69">
    <path d="M 239.246381 341.952 
L 254.246381 341.952 
" clip-path="url(#pd51b4d44d8)" style="fill: none; stroke: #000000; stroke-width: 2; stroke-linecap: round"/>
   </g>
   <g id="line2d_70">
    <path d="M 254.246381 341.952 
L 308.246381 341.952 
L 362.246381 341.952 
" clip-path="url(#pd51b4d44d8)" style="fill: none; stroke: #000000; stroke-width: 2; stroke-linecap: round"/>
   </g>
   <g id="line2d_71">
    <path d="M 221.246381 371.952 
L 221.246381 380.952 
L 221.246381 389.952 
" clip-path="url(#pd51b4d44d8)" style="fill: none; stroke: #000000; stroke-width: 2; stroke-linecap: round"/>
   </g>
   <g id="line2d_72">
    <path d="M 221.246381 389.952 
L 257.246381 389.952 
L 293.246381 389.952 
" clip-path="url(#pd51b4d44d8)" style="fill: none; stroke: #000000; stroke-width: 2; stroke-linecap: round"/>
   </g>
   <g id="line2d_73">
    <path d="M 293.246381 389.952 
L 293.246381 394.452 
L 293.246381 398.952 
" clip-path="url(#pd51b4d44d8)" style="fill: none; stroke: #000000; stroke-width: 2; stroke-linecap: round"/>
   </g>
   <g id="line2d_74">
    <path d="M 293.246381 398.952 
L 293.246381 431.712 
M 302.246381 431.712 
L 284.246381 431.712 
M 302.246381 438.192 
L 284.246381 438.192 
M 293.246381 438.192 
L 293.246381 470.952 
" clip-path="url(#pd51b4d44d8)" style="fill: none; stroke: #000000; stroke-width: 2; stroke-linecap: round"/>
   </g>
   <g id="line2d_75">
    <path d="M 293.246381 470.952 
L 293.246381 472.452 
L 293.246381 473.952 
" clip-path="url(#pd51b4d44d8)" style="fill: none; stroke: #000000; stroke-width: 2; stroke-linecap: round"/>
   </g>
   <g id="line2d_76">
    <path d="M 293.246381 473.952 
L 293.246381 488.352 
L 284.246381 488.352 
L 293.246381 497.352 
L 302.246381 488.352 
L 293.246381 488.352 
" clip-path="url(#pd51b4d44d8)" style="fill: none; stroke: #000000; stroke-width: 2; stroke-linecap: round"/>
   </g>
   <g id="line2d_77">
    <path d="M 221.246381 389.952 
L 221.246381 394.452 
L 221.246381 398.952 
" clip-path="url(#pd51b4d44d8)" style="fill: none; stroke: #000000; stroke-width: 2; stroke-linecap: round"/>
   </g>
   <g id="line2d_78">
    <path d="M 221.246381 398.952 
L 221.246381 416.952 
L 230.246381 419.952 
L 212.246381 425.952 
L 230.246381 431.952 
L 212.246381 437.952 
L 230.246381 443.952 
L 212.246381 449.952 
L 221.246381 452.952 
L 221.246381 470.952 
" clip-path="url(#pd51b4d44d8)" style="fill: none; stroke: #000000; stroke-width: 2; stroke-linecap: round"/>
   </g>
   <g id="line2d_79">
    <path d="M 203.246381 425.952 
L 235.709074 440.934781 
" clip-path="url(#pd51b4d44d8)" style="fill: none; stroke: #000000; stroke-width: 2; stroke-linecap: round"/>
   </g>
   <g id="patch_10">
    <path d="M 236.915961 438.319858 
L 242.246381 443.952 
L 234.502186 443.549704 
z
" clip-path="url(#pd51b4d44d8)"/>
   </g>
   <g id="line2d_80">
    <path d="M 221.246381 470.952 
L 221.246381 472.452 
L 221.246381 473.952 
" clip-path="url(#pd51b4d44d8)" style="fill: none; stroke: #000000; stroke-width: 2; stroke-linecap: round"/>
   </g>
   <g id="line2d_81">
    <path d="M 221.246381 473.952 
L 221.246381 488.352 
L 212.246381 488.352 
L 221.246381 497.352 
L 230.246381 488.352 
L 221.246381 488.352 
" clip-path="url(#pd51b4d44d8)" style="fill: none; stroke: #000000; stroke-width: 2; stroke-linecap: round"/>
   </g>
   <g id="line2d_82">
    <path d="M 362.246381 293.952 
L 273.746381 293.952 
L 185.246381 293.952 
" clip-path="url(#pd51b4d44d8)" style="fill: none; stroke: #000000; stroke-width: 2; stroke-linecap: round"/>
   </g>
   <g id="line2d_83">
    <path d="M 185.246381 143.952 
L 149.246381 143.952 
L 113.246381 143.952 
" clip-path="url(#pd51b4d44d8)" style="fill: none; stroke: #000000; stroke-width: 2; stroke-linecap: round"/>
   </g>
   <g id="line2d_84">
    <path d="M 113.246381 143.952 
L 113.246381 161.952 
L 113.246381 179.952 
" clip-path="url(#pd51b4d44d8)" style="fill: none; stroke: #000000; stroke-width: 2; stroke-linecap: round"/>
   </g>
   <g id="line2d_85">
    <path d="M 113.246381 239.952 
L 113.246381 224.952 
L 98.246381 224.952 
L 98.246381 194.952 
L 113.246381 194.952 
L 113.246381 179.952 
" clip-path="url(#pd51b4d44d8)" style="fill: none; stroke: #000000; stroke-width: 2; stroke-linecap: round"/>
   </g>
   <g id="line2d_86">
    <path d="M 104.246381 224.952 
L 98.246381 224.952 
" clip-path="url(#pd51b4d44d8)" style="fill: none; stroke: #000000; stroke-width: 2; stroke-linecap: round"/>
   </g>
   <g id="patch_11">
    <path d="M 104.246381 220.452 
L 113.246381 224.952 
L 104.246381 229.452 
z
" clip-path="url(#pd51b4d44d8)"/>
   </g>
   <g id="line2d_87">
    <path d="M 95.246381 221.952 
L 95.246381 197.952 
" clip-path="url(#pd51b4d44d8)" style="fill: none; stroke: #000000; stroke-width: 2; stroke-linecap: round"/>
   </g>
   <g id="line2d_88">
    <path d="M 80.246381 209.952 
L 95.246381 209.952 
" clip-path="url(#pd51b4d44d8)" style="fill: none; stroke: #000000; stroke-width: 2; stroke-linecap: round"/>
   </g>
   <g id="line2d_89">
    <path d="M 113.246381 239.952 
L 113.246381 266.952 
L 113.246381 293.952 
" clip-path="url(#pd51b4d44d8)" style="fill: none; stroke: #000000; stroke-width: 2; stroke-linecap: round"/>
   </g>
   <g id="line2d_90">
    <path d="M 113.246381 293.952 
L 149.246381 293.952 
L 185.246381 293.952 
" clip-path="url(#pd51b4d44d8)" style="fill: none; stroke: #000000; stroke-width: 2; stroke-linecap: round"/>
   </g>
   <g id="line2d_91">
    <path d="M 113.246381 293.952 
L 113.246381 317.952 
L 113.246381 341.952 
" clip-path="url(#pd51b4d44d8)" style="fill: none; stroke: #000000; stroke-width: 2; stroke-linecap: round"/>
   </g>
   <g id="line2d_92">
    <path d="M 113.246381 341.952 
L 95.246381 341.952 
L 77.246381 341.952 
" clip-path="url(#pd51b4d44d8)" style="fill: none; stroke: #000000; stroke-width: 2; stroke-linecap: round"/>
   </g>
   <g id="line2d_93">
    <path d="M 44.246381 311.952 
L 44.246381 326.952 
L 59.246381 326.952 
L 59.246381 356.952 
L 44.246381 356.952 
L 44.246381 371.952 
" clip-path="url(#pd51b4d44d8)" style="fill: none; stroke: #000000; stroke-width: 2; stroke-linecap: round"/>
   </g>
   <g id="line2d_94">
    <path d="M 59.246381 356.952 
L 53.246381 356.952 
" clip-path="url(#pd51b4d44d8)" style="fill: none; stroke: #000000; stroke-width: 2; stroke-linecap: round"/>
   </g>
   <g id="patch_12">
    <path d="M 53.246381 361.452 
L 44.246381 356.952 
L 53.246381 352.452 
z
" clip-path="url(#pd51b4d44d8)"/>
   </g>
   <g id="line2d_95">
    <path d="M 62.246381 329.952 
L 62.246381 353.952 
" clip-path="url(#pd51b4d44d8)" style="fill: none; stroke: #000000; stroke-width: 2; stroke-linecap: round"/>
   </g>
   <g id="line2d_96">
    <path d="M 62.246381 341.952 
L 77.246381 341.952 
" clip-path="url(#pd51b4d44d8)" style="fill: none; stroke: #000000; stroke-width: 2; stroke-linecap: round"/>
   </g>
   <g id="line2d_97">
    <path d="M 44.246381 371.952 
L 44.246381 422.952 
L 44.246381 473.952 
" clip-path="url(#pd51b4d44d8)" style="fill: none; stroke: #000000; stroke-width: 2; stroke-linecap: round"/>
   </g>
   <g id="line2d_98">
    <path d="M 44.246381 473.952 
L 44.246381 488.352 
L 35.246381 488.352 
L 44.246381 497.352 
L 53.246381 488.352 
L 44.246381 488.352 
" clip-path="url(#pd51b4d44d8)" style="fill: none; stroke: #000000; stroke-width: 2; stroke-linecap: round"/>
   </g>
   <g id="line2d_99">
    <path d="M 44.246381 311.952 
L 44.246381 260.952 
L 44.246381 209.952 
" clip-path="url(#pd51b4d44d8)" style="fill: none; stroke: #000000; stroke-width: 2; stroke-linecap: round"/>
   </g>
   <g id="line2d_100">
    <path d="M 44.246381 209.952 
L 62.246381 209.952 
L 80.246381 209.952 
" clip-path="url(#pd51b4d44d8)" style="fill: none; stroke: #000000; stroke-width: 2; stroke-linecap: round"/>
   </g>
   <g id="line2d_101">
    <path d="M 44.246381 209.952 
L 44.246381 182.952 
L 44.246381 155.952 
" clip-path="url(#pd51b4d44d8)" style="fill: none; stroke: #000000; stroke-width: 2; stroke-linecap: round"/>
   </g>
   <g id="line2d_102">
    <path d="M 44.246381 155.952 
L 44.246381 123.192 
M 35.246381 123.192 
L 53.246381 123.192 
M 35.246381 116.712 
L 53.246381 116.712 
M 44.246381 116.712 
L 44.246381 83.952 
" clip-path="url(#pd51b4d44d8)" style="fill: none; stroke: #000000; stroke-width: 2; stroke-linecap: round"/>
   </g>
   <g id="line2d_103">
    <path d="M 44.246381 83.952 
L 44.246381 61.452 
L 44.246381 38.952 
" clip-path="url(#pd51b4d44d8)" style="fill: none; stroke: #000000; stroke-width: 2; stroke-linecap: round"/>
   </g>
   <g id="line2d_104">
    <path d="M 44.246381 38.952 
L 44.246381 24.552 
" clip-path="url(#pd51b4d44d8)" style="fill: none; stroke: #000000; stroke-width: 2; stroke-linecap: round"/>
   </g>
   <g id="line2d_105">
    <path d="M 44.246381 24.552 
L 37.496381 24.552 
" clip-path="url(#pd51b4d44d8)" style="fill: none; stroke: #000000; stroke-width: 2; stroke-linecap: round"/>
   </g>
   <g id="line2d_106">
    <path d="M 44.246381 24.552 
L 50.996381 24.552 
" clip-path="url(#pd51b4d44d8)" style="fill: none; stroke: #000000; stroke-width: 2; stroke-linecap: round"/>
   </g>
   <g id="patch_13">
    <path d="M 503.246381 296.652 
C 503.96243 296.652 504.649247 296.367511 505.15557 295.861188 
C 505.661892 295.354866 505.946381 294.668048 505.946381 293.952 
C 505.946381 293.235952 505.661892 292.549134 505.15557 292.042812 
C 504.649247 291.536489 503.96243 291.252 503.246381 291.252 
C 502.530333 291.252 501.843516 291.536489 501.337193 292.042812 
C 500.83087 292.549134 500.546381 293.235952 500.546381 293.952 
C 500.546381 294.668048 500.83087 295.354866 501.337193 295.861188 
C 501.843516 296.367511 502.530333 296.652 503.246381 296.652 
z
" clip-path="url(#pd51b4d44d8)" style="stroke: #000000; stroke-width: 2; stroke-linejoin: miter"/>
   </g>
   <g id="text_1">
    <!-- $C_\mathrm{DEC1}$ -->
    <g transform="translate(517.646381 387.937056) scale(0.16 -0.16)">
     <defs>
      <path id="CMMI12-43" d="M 4781 4423 
C 4781 4480 4736 4480 4723 4480 
C 4710 4480 4685 4480 4634 4416 
L 4192 3882 
C 3968 4264 3616 4480 3136 4480 
C 1754 4480 320 3088 320 1595 
C 320 533 1069 -128 2003 -128 
C 2515 -128 2963 88 3334 400 
C 3891 863 4058 1481 4058 1531 
C 4058 1588 4006 1588 3987 1588 
C 3930 1588 3923 1550 3910 1524 
C 3616 534 2752 57 2112 57 
C 1434 57 845 489 845 1391 
C 845 1595 909 2700 1632 3532 
C 1984 3939 2586 4295 3194 4295 
C 3898 4295 4211 3717 4211 3068 
C 4211 2903 4192 2764 4192 2738 
C 4192 2681 4256 2681 4275 2681 
C 4346 2681 4352 2687 4378 2801 
L 4781 4423 
z
" transform="scale(0.015625)"/>
      <path id="CMR17-44" d="M 333 4352 
L 333 4186 
C 774 4186 845 4186 845 3900 
L 845 452 
C 845 166 774 166 333 166 
L 333 0 
L 2368 0 
C 3398 0 4224 943 4224 2141 
C 4224 3346 3411 4352 2368 4352 
L 333 4352 
z
M 1523 166 
C 1267 166 1254 197 1254 414 
L 1254 3938 
C 1254 4155 1267 4186 1523 4186 
L 2240 4186 
C 2771 4186 3750 3874 3750 2141 
C 3750 1242 3488 879 3366 707 
C 3213 510 2848 166 2240 166 
L 1523 166 
z
" transform="scale(0.015625)"/>
      <path id="CMR17-45" d="M 3885 1615 
L 3770 1615 
C 3629 676 3546 166 2419 166 
L 1530 166 
C 1274 166 1261 197 1261 414 
L 1261 2176 
L 1862 2176 
C 2464 2176 2522 1960 2522 1430 
L 2637 1430 
L 2637 3081 
L 2522 3081 
C 2522 2557 2464 2342 1862 2342 
L 1261 2342 
L 1261 3913 
C 1261 4128 1274 4160 1530 4160 
L 2406 4160 
C 3398 4160 3514 3769 3603 2929 
L 3718 2929 
L 3565 4325 
L 326 4325 
L 326 4160 
C 768 4160 838 4160 838 3874 
L 838 451 
C 838 166 768 166 326 166 
L 326 0 
L 3654 0 
L 3885 1615 
z
" transform="scale(0.015625)"/>
      <path id="CMR17-43" d="M 3974 4289 
C 3974 4403 3968 4410 3930 4410 
C 3904 4410 3898 4403 3853 4327 
L 3571 3792 
C 3258 4187 2874 4416 2381 4416 
C 1286 4416 294 3456 294 2148 
C 294 826 1286 -128 2387 -128 
C 3366 -128 3974 730 3974 1461 
C 3974 1524 3974 1550 3917 1550 
C 3866 1550 3866 1531 3859 1474 
C 3808 585 3168 38 2477 38 
C 1824 38 781 495 781 2147 
C 781 3805 1843 4250 2464 4250 
C 3187 4250 3712 3628 3834 2745 
C 3846 2668 3846 2655 3904 2655 
C 3974 2655 3974 2668 3974 2783 
L 3974 4289 
z
" transform="scale(0.015625)"/>
      <path id="CMR17-31" d="M 1702 4058 
C 1702 4192 1696 4192 1606 4192 
C 1357 3916 979 3827 621 3827 
C 602 3827 570 3827 563 3808 
C 557 3795 557 3782 557 3648 
C 755 3648 1088 3686 1344 3839 
L 1344 461 
C 1344 236 1331 160 781 160 
L 589 160 
L 589 0 
C 896 0 1216 0 1523 0 
C 1830 0 2150 0 2458 0 
L 2458 160 
L 2266 160 
C 1715 160 1702 230 1702 458 
L 1702 4058 
z
" transform="scale(0.015625)"/>
     </defs>
     <use xlink:href="#CMMI12-43" transform="scale(0.996264)"/>
     <use xlink:href="#CMR17-44" transform="translate(69.792037 -14.943915) scale(0.697382)"/>
     <use xlink:href="#CMR17-45" transform="translate(119.067307 -14.943915) scale(0.697382)"/>
     <use xlink:href="#CMR17-43" transform="translate(162.877521 -14.943915) scale(0.697382)"/>
     <use xlink:href="#CMR17-31" transform="translate(209.434226 -14.943915) scale(0.697382)"/>
    </g>
   </g>
   <g id="text_2">
    <!-- $M_{2}$ -->
    <g transform="translate(440.567564 345.937056) scale(0.16 -0.16)">
     <defs>
      <path id="CMMI12-4d" d="M 5811 3886 
C 5869 4103 5882 4167 6336 4167 
C 6458 4167 6515 4167 6515 4288 
C 6515 4352 6470 4352 6349 4352 
L 5581 4352 
C 5421 4352 5414 4346 5344 4243 
L 3008 562 
L 2528 4211 
C 2509 4352 2502 4352 2336 4352 
L 1542 4352 
C 1421 4352 1363 4352 1363 4231 
C 1363 4167 1421 4167 1517 4167 
C 1907 4167 1907 4116 1907 4046 
C 1907 4034 1907 3995 1882 3899 
L 1062 634 
C 986 327 838 186 410 186 
C 390 186 314 186 314 73 
C 314 0 371 0 397 0 
C 525 0 851 0 979 0 
L 1286 0 
C 1376 0 1485 0 1574 0 
C 1619 0 1690 0 1690 122 
C 1690 180 1626 186 1600 186 
C 1389 186 1184 224 1184 454 
C 1184 518 1184 524 1210 613 
L 2093 4129 
L 2099 4129 
L 2630 172 
C 2650 19 2656 0 2714 0 
C 2784 0 2816 51 2848 109 
L 5421 4161 
L 5427 4161 
L 4499 473 
C 4442 250 4429 186 3981 186 
C 3859 186 3795 186 3795 70 
C 3795 0 3853 0 3891 0 
C 4000 0 4128 0 4237 0 
L 4992 0 
C 5101 0 5235 0 5344 0 
C 5395 0 5466 0 5466 122 
C 5466 186 5408 186 5312 186 
C 4922 186 4922 234 4922 294 
C 4922 301 4922 345 4934 396 
L 5811 3886 
z
" transform="scale(0.015625)"/>
      <path id="CMR17-32" d="M 2669 989 
L 2554 989 
C 2490 536 2438 459 2413 420 
C 2381 369 1920 369 1830 369 
L 602 369 
C 832 619 1280 1072 1824 1597 
C 2214 1967 2669 2402 2669 3035 
C 2669 3790 2067 4224 1395 4224 
C 691 4224 262 3604 262 3030 
C 262 2780 448 2748 525 2748 
C 589 2748 781 2787 781 3010 
C 781 3207 614 3264 525 3264 
C 486 3264 448 3258 422 3245 
C 544 3790 915 4058 1306 4058 
C 1862 4058 2227 3617 2227 3035 
C 2227 2479 1901 2000 1536 1584 
L 262 146 
L 262 0 
L 2515 0 
L 2669 989 
z
" transform="scale(0.015625)"/>
     </defs>
     <use xlink:href="#CMMI12-4d" transform="scale(0.996264)"/>
     <use xlink:href="#CMR17-32" transform="translate(94.373425 -14.943915) scale(0.697382)"/>
    </g>
   </g>
   <g id="patch_14">
    <path d="M 362.246381 344.652 
C 362.96243 344.652 363.649247 344.367511 364.15557 343.861188 
C 364.661892 343.354866 364.946381 342.668048 364.946381 341.952 
C 364.946381 341.235952 364.661892 340.549134 364.15557 340.042812 
C 363.649247 339.536489 362.96243 339.252 362.246381 339.252 
C 361.530333 339.252 360.843516 339.536489 360.337193 340.042812 
C 359.83087 340.549134 359.546381 341.235952 359.546381 341.952 
C 359.546381 342.668048 359.83087 343.354866 360.337193 343.861188 
C 360.843516 344.367511 361.530333 344.652 362.246381 344.652 
z
" clip-path="url(#pd51b4d44d8)" style="stroke: #000000; stroke-width: 2; stroke-linejoin: miter"/>
   </g>
   <g id="patch_15">
    <path d="M 362.246381 296.652 
C 362.96243 296.652 363.649247 296.367511 364.15557 295.861188 
C 364.661892 295.354866 364.946381 294.668048 364.946381 293.952 
C 364.946381 293.235952 364.661892 292.549134 364.15557 292.042812 
C 363.649247 291.536489 362.96243 291.252 362.246381 291.252 
C 361.530333 291.252 360.843516 291.536489 360.337193 292.042812 
C 359.83087 292.549134 359.546381 293.235952 359.546381 293.952 
C 359.546381 294.668048 359.83087 295.354866 360.337193 295.861188 
C 360.843516 296.367511 361.530333 296.652 362.246381 296.652 
z
" clip-path="url(#pd51b4d44d8)" style="stroke: #000000; stroke-width: 2; stroke-linejoin: miter"/>
   </g>
   <g id="patch_16">
    <path d="M 431.246381 296.652 
C 431.96243 296.652 432.649247 296.367511 433.15557 295.861188 
C 433.661892 295.354866 433.946381 294.668048 433.946381 293.952 
C 433.946381 293.235952 433.661892 292.549134 433.15557 292.042812 
C 432.649247 291.536489 431.96243 291.252 431.246381 291.252 
C 430.530333 291.252 429.843516 291.536489 429.337193 292.042812 
C 428.83087 292.549134 428.546381 293.235952 428.546381 293.952 
C 428.546381 294.668048 428.83087 295.354866 429.337193 295.861188 
C 429.843516 296.367511 430.530333 296.652 431.246381 296.652 
z
" clip-path="url(#pd51b4d44d8)" style="stroke: #000000; stroke-width: 2; stroke-linejoin: miter"/>
   </g>
   <g id="text_3">
    <!-- $M_{2C}$ -->
    <g transform="translate(432.592633 249.937056) scale(0.16 -0.16)">
     <use xlink:href="#CMMI12-4d" transform="scale(0.996264)"/>
     <use xlink:href="#CMR17-32" transform="translate(94.373425 -14.943915) scale(0.697382)"/>
     <use xlink:href="#CMMI12-43" transform="translate(126.356607 -14.943915) scale(0.697382)"/>
    </g>
   </g>
   <g id="patch_17">
    <path d="M 362.246381 248.652 
C 362.96243 248.652 363.649247 248.367511 364.15557 247.861188 
C 364.661892 247.354866 364.946381 246.668048 364.946381 245.952 
C 364.946381 245.235952 364.661892 244.549134 364.15557 244.042812 
C 363.649247 243.536489 362.96243 243.252 362.246381 243.252 
C 361.530333 243.252 360.843516 243.536489 360.337193 244.042812 
C 359.83087 244.549134 359.546381 245.235952 359.546381 245.952 
C 359.546381 246.668048 359.83087 247.354866 360.337193 247.861188 
C 360.843516 248.367511 361.530333 248.652 362.246381 248.652 
z
" clip-path="url(#pd51b4d44d8)" style="stroke: #000000; stroke-width: 2; stroke-linejoin: miter"/>
   </g>
   <g id="patch_18">
    <path d="M 431.246381 200.652 
C 431.96243 200.652 432.649247 200.367511 433.15557 199.861188 
C 433.661892 199.354866 433.946381 198.668048 433.946381 197.952 
C 433.946381 197.235952 433.661892 196.549134 433.15557 196.042812 
C 432.649247 195.536489 431.96243 195.252 431.246381 195.252 
C 430.530333 195.252 429.843516 195.536489 429.337193 196.042812 
C 428.83087 196.549134 428.546381 197.235952 428.546381 197.952 
C 428.546381 198.668048 428.83087 199.354866 429.337193 199.861188 
C 429.843516 200.367511 430.530333 200.652 431.246381 200.652 
z
" clip-path="url(#pd51b4d44d8)" style="stroke: #000000; stroke-width: 2; stroke-linejoin: miter"/>
   </g>
   <g id="text_4">
    <!-- $I_\mathrm{out}$ -->
    <g transform="translate(402.845203 175.837056) scale(0.16 -0.16)">
     <defs>
      <path id="CMMI12-49" d="M 2355 3880 
C 2413 4103 2426 4167 2893 4167 
C 3034 4167 3085 4167 3085 4288 
C 3085 4352 3014 4352 2995 4352 
C 2880 4352 2739 4352 2624 4352 
L 1837 4352 
C 1709 4352 1562 4352 1434 4352 
C 1382 4352 1312 4352 1312 4231 
C 1312 4167 1363 4167 1491 4167 
C 1888 4167 1888 4116 1888 4046 
C 1888 4002 1875 3963 1862 3906 
L 998 472 
C 941 249 928 185 461 185 
C 320 185 262 185 262 64 
C 262 0 326 0 358 0 
C 474 0 614 0 730 0 
L 1517 0 
C 1645 0 1786 0 1914 0 
C 1965 0 2042 0 2042 115 
C 2042 185 2003 185 1862 185 
C 1466 185 1466 236 1466 312 
C 1466 325 1466 357 1491 459 
L 2355 3880 
z
" transform="scale(0.015625)"/>
      <path id="CMR17-6f" d="M 2758 1356 
C 2758 2176 2163 2816 1466 2816 
C 768 2816 173 2176 173 1356 
C 173 551 768 -64 1466 -64 
C 2163 -64 2758 551 2758 1356 
z
M 1466 51 
C 1165 51 909 230 762 480 
C 602 767 582 1126 582 1408 
C 582 1677 595 2010 762 2298 
C 890 2509 1139 2714 1466 2714 
C 1754 2714 1997 2554 2150 2330 
C 2349 2029 2349 1607 2349 1408 
C 2349 1158 2336 775 2163 467 
C 1984 173 1709 51 1466 51 
z
" transform="scale(0.015625)"/>
      <path id="CMR17-75" d="M 1882 2693 
L 1882 2528 
C 2259 2528 2317 2489 2317 2186 
L 2317 1032 
C 2317 500 2029 38 1555 38 
C 1030 38 986 348 986 678 
L 986 2763 
L 211 2693 
L 211 2528 
C 467 2528 640 2528 646 2274 
L 646 1058 
C 646 633 646 361 813 183 
C 896 101 1056 -64 1517 -64 
C 2061 -64 2272 377 2323 506 
L 2330 506 
L 2330 -63 
L 3091 -63 
L 3091 128 
C 2714 128 2656 166 2656 473 
L 2656 2763 
L 1882 2693 
z
" transform="scale(0.015625)"/>
      <path id="CMR17-74" d="M 966 2560 
L 1862 2560 
L 1862 2725 
L 966 2725 
L 966 3904 
L 851 3904 
C 838 3245 614 2668 70 2668 
L 70 2560 
L 627 2560 
L 627 771 
C 627 650 627 -64 1370 -64 
C 1747 -64 1965 306 1965 777 
L 1965 1140 
L 1850 1140 
L 1850 783 
C 1850 344 1677 51 1408 51 
C 1222 51 966 178 966 758 
L 966 2560 
z
" transform="scale(0.015625)"/>
     </defs>
     <use xlink:href="#CMMI12-49" transform="scale(0.996264)"/>
     <use xlink:href="#CMR17-6f" transform="translate(43.024176 -14.943915) scale(0.697382)"/>
     <use xlink:href="#CMR17-75" transform="translate(75.007358 -14.943915) scale(0.697382)"/>
     <use xlink:href="#CMR17-74" transform="translate(110.633966 -14.943915) scale(0.697382)"/>
    </g>
   </g>
   <g id="text_5">
    <!-- $M_{4}$ -->
    <g transform="translate(440.567564 99.937056) scale(0.16 -0.16)">
     <defs>
      <path id="CMR17-34" d="M 2150 4122 
C 2150 4256 2144 4256 2029 4256 
L 128 1254 
L 128 1088 
L 1779 1088 
L 1779 457 
C 1779 224 1766 160 1318 160 
L 1197 160 
L 1197 0 
C 1402 0 1747 0 1965 0 
C 2182 0 2528 0 2733 0 
L 2733 160 
L 2611 160 
C 2163 160 2150 224 2150 457 
L 2150 1088 
L 2803 1088 
L 2803 1254 
L 2150 1254 
L 2150 4122 
z
M 1798 3703 
L 1798 1254 
L 256 1254 
L 1798 3703 
z
" transform="scale(0.015625)"/>
     </defs>
     <use xlink:href="#CMMI12-4d" transform="scale(0.996264)"/>
     <use xlink:href="#CMR17-34" transform="translate(94.373425 -14.943915) scale(0.697382)"/>
    </g>
   </g>
   <g id="text_6">
    <!-- $V_\mathrm{DD}$ -->
    <g transform="translate(418.173236 16.052524) scale(0.16 -0.16)">
     <defs>
      <path id="CMMI12-56" d="M 3962 3640 
C 4179 3984 4378 4136 4704 4162 
C 4768 4168 4819 4168 4819 4282 
C 4819 4308 4806 4346 4749 4346 
C 4634 4346 4358 4346 4243 4346 
C 4058 4346 3866 4346 3686 4346 
C 3635 4346 3571 4346 3571 4226 
C 3571 4168 3629 4162 3654 4162 
C 3891 4143 3917 4029 3917 3952 
C 3917 3857 3827 3710 3821 3704 
L 1811 540 
L 1363 3969 
C 1363 4160 1696 4160 1766 4160 
C 1862 4160 1920 4160 1920 4282 
C 1920 4346 1850 4346 1830 4346 
C 1722 4346 1594 4346 1485 4346 
L 1126 4346 
C 659 4346 467 4346 461 4346 
C 422 4346 346 4346 346 4230 
C 346 4160 390 4160 493 4160 
C 819 4160 838 4102 858 3944 
L 1370 24 
C 1389 -109 1389 -128 1478 -128 
C 1555 -128 1587 -109 1651 -8 
L 3962 3640 
z
" transform="scale(0.015625)"/>
     </defs>
     <use xlink:href="#CMMI12-56" transform="scale(0.996264)"/>
     <use xlink:href="#CMR17-44" transform="translate(56.869579 -14.943915) scale(0.697382)"/>
     <use xlink:href="#CMR17-44" transform="translate(106.144849 -14.943915) scale(0.697382)"/>
    </g>
   </g>
   <g id="patch_19">
    <path d="M 362.246381 98.652 
C 362.96243 98.652 363.649247 98.367511 364.15557 97.861188 
C 364.661892 97.354866 364.946381 96.668048 364.946381 95.952 
C 364.946381 95.235952 364.661892 94.549134 364.15557 94.042812 
C 363.649247 93.536489 362.96243 93.252 362.246381 93.252 
C 361.530333 93.252 360.843516 93.536489 360.337193 94.042812 
C 359.83087 94.549134 359.546381 95.235952 359.546381 95.952 
C 359.546381 96.668048 359.83087 97.354866 360.337193 97.861188 
C 360.843516 98.367511 361.530333 98.652 362.246381 98.652 
z
" clip-path="url(#pd51b4d44d8)" style="stroke: #000000; stroke-width: 2; stroke-linejoin: miter"/>
   </g>
   <g id="text_7">
    <!-- $C_\mathrm{DEC2}$ -->
    <g transform="translate(376.646381 63.937056) scale(0.16 -0.16)">
     <use xlink:href="#CMMI12-43" transform="scale(0.996264)"/>
     <use xlink:href="#CMR17-44" transform="translate(69.792037 -14.943915) scale(0.697382)"/>
     <use xlink:href="#CMR17-45" transform="translate(119.067307 -14.943915) scale(0.697382)"/>
     <use xlink:href="#CMR17-43" transform="translate(162.877521 -14.943915) scale(0.697382)"/>
     <use xlink:href="#CMR17-32" transform="translate(209.434226 -14.943915) scale(0.697382)"/>
    </g>
   </g>
   <g id="text_8">
    <!-- $V_\mathrm{DD}$ -->
    <g transform="translate(349.173236 15.452524) scale(0.16 -0.16)">
     <use xlink:href="#CMMI12-56" transform="scale(0.996264)"/>
     <use xlink:href="#CMR17-44" transform="translate(56.869579 -14.943915) scale(0.697382)"/>
     <use xlink:href="#CMR17-44" transform="translate(106.144849 -14.943915) scale(0.697382)"/>
    </g>
   </g>
   <g id="patch_20">
    <path d="M 290.246381 98.652 
C 290.96243 98.652 291.649247 98.367511 292.15557 97.861188 
C 292.661892 97.354866 292.946381 96.668048 292.946381 95.952 
C 292.946381 95.235952 292.661892 94.549134 292.15557 94.042812 
C 291.649247 93.536489 290.96243 93.252 290.246381 93.252 
C 289.530333 93.252 288.843516 93.536489 288.337193 94.042812 
C 287.83087 94.549134 287.546381 95.235952 287.546381 95.952 
C 287.546381 96.668048 287.83087 97.354866 288.337193 97.861188 
C 288.843516 98.367511 289.530333 98.652 290.246381 98.652 
z
" clip-path="url(#pd51b4d44d8)" style="stroke: #000000; stroke-width: 2; stroke-linejoin: miter"/>
   </g>
   <g id="text_9">
    <!-- $M_{3}$ -->
    <g transform="translate(191.567564 99.937056) scale(0.16 -0.16)">
     <defs>
      <path id="CMR17-33" d="M 1414 2157 
C 1984 2157 2234 1662 2234 1090 
C 2234 320 1824 25 1453 25 
C 1114 25 563 194 390 693 
C 422 680 454 680 486 680 
C 640 680 755 782 755 948 
C 755 1133 614 1216 486 1216 
C 378 1216 211 1165 211 926 
C 211 335 787 -128 1466 -128 
C 2176 -128 2720 430 2720 1085 
C 2720 1707 2208 2157 1600 2227 
C 2086 2328 2554 2756 2554 3329 
C 2554 3820 2048 4179 1472 4179 
C 890 4179 378 3829 378 3329 
C 378 3110 544 3072 627 3072 
C 762 3072 877 3155 877 3321 
C 877 3486 762 3569 627 3569 
C 602 3569 570 3569 544 3557 
C 730 3959 1235 4032 1459 4032 
C 1683 4032 2106 3925 2106 3320 
C 2106 3143 2080 2828 1862 2550 
C 1670 2304 1453 2304 1242 2284 
C 1210 2284 1062 2269 1037 2269 
C 992 2263 966 2257 966 2208 
C 966 2163 973 2157 1101 2157 
L 1414 2157 
z
" transform="scale(0.015625)"/>
     </defs>
     <use xlink:href="#CMMI12-4d" transform="scale(0.996264)"/>
     <use xlink:href="#CMR17-33" transform="translate(94.373425 -14.943915) scale(0.697382)"/>
    </g>
   </g>
   <g id="text_10">
    <!-- $V_\mathrm{DD}$ -->
    <g transform="translate(208.173236 16.052524) scale(0.16 -0.16)">
     <use xlink:href="#CMMI12-56" transform="scale(0.996264)"/>
     <use xlink:href="#CMR17-44" transform="translate(56.869579 -14.943915) scale(0.697382)"/>
     <use xlink:href="#CMR17-44" transform="translate(106.144849 -14.943915) scale(0.697382)"/>
    </g>
   </g>
   <g id="patch_21">
    <path d="M 221.246381 146.652 
C 221.96243 146.652 222.649247 146.367511 223.15557 145.861188 
C 223.661892 145.354866 223.946381 144.668048 223.946381 143.952 
C 223.946381 143.235952 223.661892 142.549134 223.15557 142.042812 
C 222.649247 141.536489 221.96243 141.252 221.246381 141.252 
C 220.530333 141.252 219.843516 141.536489 219.337193 142.042812 
C 218.83087 142.549134 218.546381 143.235952 218.546381 143.952 
C 218.546381 144.668048 218.83087 145.354866 219.337193 145.861188 
C 219.843516 146.367511 220.530333 146.652 221.246381 146.652 
z
" clip-path="url(#pd51b4d44d8)" style="stroke: #000000; stroke-width: 2; stroke-linejoin: miter"/>
   </g>
   <g id="text_11">
    <!-- $I_\mathrm{ref}$ -->
    <g transform="translate(196.223632 175.837056) scale(0.16 -0.16)">
     <defs>
      <path id="CMR17-72" d="M 960 1497 
C 960 2112 1222 2688 1702 2688 
C 1747 2688 1792 2682 1837 2662 
C 1837 2662 1696 2617 1696 2452 
C 1696 2298 1818 2234 1914 2234 
C 1990 2234 2131 2279 2131 2458 
C 2131 2663 1926 2790 1709 2790 
C 1222 2790 1011 2317 947 2093 
L 941 2093 
L 941 2790 
L 198 2720 
L 198 2554 
C 576 2554 634 2515 634 2208 
L 634 428 
C 634 184 608 153 198 153 
L 198 -13 
C 352 0 646 0 813 0 
C 998 0 1325 0 1498 -13 
L 1498 153 
C 1037 153 960 153 960 440 
L 960 1497 
z
" transform="scale(0.015625)"/>
      <path id="CMR17-65" d="M 2438 1472 
C 2464 1498 2464 1511 2464 1576 
C 2464 2238 2118 2816 1389 2816 
C 710 2816 173 2169 173 1383 
C 173 551 781 -64 1459 -64 
C 2176 -64 2458 607 2458 740 
C 2458 784 2419 784 2406 784 
C 2362 784 2355 771 2330 696 
C 2189 265 1837 51 1504 51 
C 1229 51 954 203 781 480 
C 582 803 582 1176 582 1472 
L 2438 1472 
z
M 589 1568 
C 634 2505 1126 2714 1382 2714 
C 1818 2714 2112 2297 2118 1568 
L 589 1568 
z
" transform="scale(0.015625)"/>
      <path id="CMR17-66" d="M 979 2560 
L 1709 2560 
L 1709 2725 
L 966 2725 
L 966 3494 
C 966 4022 1235 4352 1510 4352 
C 1594 4352 1690 4327 1754 4282 
C 1702 4269 1568 4225 1568 4067 
C 1568 3901 1696 3850 1786 3850 
C 1875 3850 2003 3901 2003 4067 
C 2003 4308 1773 4454 1517 4454 
C 1152 4454 653 4156 653 3481 
L 653 2725 
L 141 2725 
L 141 2560 
L 653 2560 
L 653 427 
C 653 184 627 153 218 153 
L 218 -13 
C 371 0 666 0 832 0 
C 1018 0 1344 0 1517 -13 
L 1517 153 
C 1056 153 979 153 979 439 
L 979 2560 
z
" transform="scale(0.015625)"/>
     </defs>
     <use xlink:href="#CMMI12-49" transform="scale(0.996264)"/>
     <use xlink:href="#CMR17-72" transform="translate(43.024176 -14.943915) scale(0.697382)"/>
     <use xlink:href="#CMR17-65" transform="translate(67.720596 -14.943915) scale(0.697382)"/>
     <use xlink:href="#CMR17-66" transform="translate(96.060428 -14.943915) scale(0.697382)"/>
    </g>
   </g>
   <g id="text_12">
    <!-- $M_{1C}$ -->
    <g transform="translate(183.592633 249.937056) scale(0.16 -0.16)">
     <use xlink:href="#CMMI12-4d" transform="scale(0.996264)"/>
     <use xlink:href="#CMR17-31" transform="translate(94.373425 -14.943915) scale(0.697382)"/>
     <use xlink:href="#CMMI12-43" transform="translate(126.356607 -14.943915) scale(0.697382)"/>
    </g>
   </g>
   <g id="text_13">
    <!-- $M_{1}$ -->
    <g transform="translate(191.567564 345.937056) scale(0.16 -0.16)">
     <use xlink:href="#CMMI12-4d" transform="scale(0.996264)"/>
     <use xlink:href="#CMR17-31" transform="translate(94.373425 -14.943915) scale(0.697382)"/>
    </g>
   </g>
   <g id="patch_22">
    <path d="M 221.246381 392.652 
C 221.96243 392.652 222.649247 392.367511 223.15557 391.861188 
C 223.661892 391.354866 223.946381 390.668048 223.946381 389.952 
C 223.946381 389.235952 223.661892 388.549134 223.15557 388.042812 
C 222.649247 387.536489 221.96243 387.252 221.246381 387.252 
C 220.530333 387.252 219.843516 387.536489 219.337193 388.042812 
C 218.83087 388.549134 218.546381 389.235952 218.546381 389.952 
C 218.546381 390.668048 218.83087 391.354866 219.337193 391.861188 
C 219.843516 392.367511 220.530333 392.652 221.246381 392.652 
z
" clip-path="url(#pd51b4d44d8)" style="stroke: #000000; stroke-width: 2; stroke-linejoin: miter"/>
   </g>
   <g id="text_14">
    <!-- $C_\mathrm{DEC3}$ -->
    <g transform="translate(307.646381 438.937056) scale(0.16 -0.16)">
     <use xlink:href="#CMMI12-43" transform="scale(0.996264)"/>
     <use xlink:href="#CMR17-44" transform="translate(69.792037 -14.943915) scale(0.697382)"/>
     <use xlink:href="#CMR17-45" transform="translate(119.067307 -14.943915) scale(0.697382)"/>
     <use xlink:href="#CMR17-43" transform="translate(162.877521 -14.943915) scale(0.697382)"/>
     <use xlink:href="#CMR17-33" transform="translate(209.434226 -14.943915) scale(0.697382)"/>
    </g>
   </g>
   <g id="text_15">
    <!-- $R_\mathrm{1}$ -->
    <g transform="translate(253.406381 438.937056) scale(0.16 -0.16)">
     <defs>
      <path id="CMMI12-52" d="M 2355 3924 
C 2413 4160 2438 4160 2688 4160 
L 3149 4160 
C 3699 4160 4109 3995 4109 3499 
C 4109 3175 3942 2240 2656 2240 
L 1933 2240 
L 2355 3924 
z
M 3245 2169 
C 4038 2341 4659 2851 4659 3398 
C 4659 3894 4154 4352 3264 4352 
L 1530 4352 
C 1402 4352 1344 4352 1344 4226 
C 1344 4160 1389 4160 1510 4160 
C 1894 4160 1894 4112 1894 4045 
C 1894 4033 1894 3994 1869 3899 
L 1005 479 
C 947 256 934 192 493 192 
C 346 192 301 192 301 71 
C 301 7 371 7 390 7 
C 506 7 640 7 762 7 
L 1517 7 
C 1632 7 1766 7 1882 7 
C 1933 7 2003 7 2003 128 
C 2003 192 1946 192 1850 192 
C 1459 192 1459 243 1459 306 
C 1459 313 1459 357 1472 407 
L 1901 2112 
L 2669 2112 
C 3277 2112 3392 1731 3392 1522 
C 3392 1427 3328 1179 3283 1014 
C 3213 723 3194 652 3194 532 
C 3194 82 3565 -128 3994 -128 
C 4512 -128 4736 501 4736 591 
C 4736 635 4704 654 4666 654 
C 4614 654 4602 616 4589 565 
C 4435 114 4173 0 4013 0 
C 3853 0 3750 70 3750 356 
C 3750 509 3827 1088 3834 1120 
C 3866 1355 3866 1380 3866 1432 
C 3866 1896 3488 2093 3245 2169 
z
" transform="scale(0.015625)"/>
     </defs>
     <use xlink:href="#CMMI12-52" transform="scale(0.996264)"/>
     <use xlink:href="#CMR17-31" transform="translate(74.250826 -14.943915) scale(0.697382)"/>
    </g>
   </g>
   <g id="text_16">
    <!-- $M_\mathrm{SU1}$ -->
    <g transform="translate(117 213.937056) scale(0.16 -0.16)">
     <defs>
      <path id="CMR17-53" d="M 2803 4290 
C 2803 4404 2797 4411 2758 4411 
C 2720 4411 2707 4385 2682 4328 
L 2490 3907 
C 2246 4257 1875 4416 1472 4416 
C 819 4416 294 3901 294 3253 
C 294 3056 339 2776 557 2510 
C 794 2218 1018 2167 1530 2033 
C 1722 1982 2042 1899 2106 1874 
C 2470 1722 2662 1341 2662 985 
C 2662 527 2336 38 1779 38 
C 1094 38 454 419 410 1311 
C 403 1413 397 1419 352 1419 
C 301 1419 294 1413 294 1285 
L 294 -1 
C 294 -115 301 -122 339 -122 
C 384 -122 397 -90 486 108 
C 493 127 493 140 614 381 
C 934 -39 1472 -128 1779 -128 
C 2477 -128 2970 451 2970 1124 
C 2970 1454 2848 1708 2778 1823 
C 2509 2230 2221 2306 1914 2382 
C 1869 2402 1856 2402 1498 2490 
C 1152 2579 1005 2624 845 2796 
C 666 2992 602 3196 602 3399 
C 602 3812 934 4263 1478 4263 
C 2157 4263 2579 3786 2675 2993 
C 2694 2878 2701 2872 2746 2872 
C 2803 2872 2803 2891 2803 2999 
L 2803 4290 
z
" transform="scale(0.015625)"/>
      <path id="CMR17-55" d="M 3456 1433 
C 3456 579 2899 38 2291 38 
C 1965 38 1670 210 1491 477 
C 1286 783 1261 1178 1261 1401 
L 1261 3874 
C 1261 4160 1331 4160 1773 4160 
L 1773 4320 
C 1587 4320 1248 4320 1050 4320 
C 851 4320 512 4320 326 4320 
L 326 4160 
C 768 4160 838 4160 838 3874 
L 838 1433 
C 838 516 1536 -128 2278 -128 
C 3110 -128 3590 719 3590 1344 
L 3590 3766 
C 3590 4122 3917 4160 4102 4160 
L 4102 4326 
C 3955 4320 3686 4320 3526 4320 
C 3366 4320 3091 4320 2944 4326 
L 2944 4160 
C 3456 4160 3456 3861 3456 3702 
L 3456 1433 
z
" transform="scale(0.015625)"/>
     </defs>
     <use xlink:href="#CMMI12-4d" transform="scale(0.996264)"/>
     <use xlink:href="#CMR17-53" transform="translate(94.373425 -14.943915) scale(0.697382)"/>
     <use xlink:href="#CMR17-55" transform="translate(130.000033 -14.943915) scale(0.697382)"/>
     <use xlink:href="#CMR17-31" transform="translate(178.350518 -14.943915) scale(0.697382)"/>
    </g>
   </g>
   <g id="patch_23">
    <path d="M 113.246381 296.652 
C 113.96243 296.652 114.649247 296.367511 115.15557 295.861188 
C 115.661892 295.354866 115.946381 294.668048 115.946381 293.952 
C 115.946381 293.235952 115.661892 292.549134 115.15557 292.042812 
C 114.649247 291.536489 113.96243 291.252 113.246381 291.252 
C 112.530333 291.252 111.843516 291.536489 111.337193 292.042812 
C 110.83087 292.549134 110.546381 293.235952 110.546381 293.952 
C 110.546381 294.668048 110.83087 295.354866 111.337193 295.861188 
C 111.843516 296.367511 112.530333 296.652 113.246381 296.652 
z
" clip-path="url(#pd51b4d44d8)" style="stroke: #000000; stroke-width: 2; stroke-linejoin: miter"/>
   </g>
   <g id="text_17">
    <!-- $M_\mathrm{SU2}$ -->
    <g transform="translate(-0 345.937056) scale(0.16 -0.16)">
     <use xlink:href="#CMMI12-4d" transform="scale(0.996264)"/>
     <use xlink:href="#CMR17-53" transform="translate(94.373425 -14.943915) scale(0.697382)"/>
     <use xlink:href="#CMR17-55" transform="translate(130.000033 -14.943915) scale(0.697382)"/>
     <use xlink:href="#CMR17-32" transform="translate(178.350518 -14.943915) scale(0.697382)"/>
    </g>
   </g>
   <g id="patch_24">
    <path d="M 44.246381 212.652 
C 44.96243 212.652 45.649247 212.367511 46.15557 211.861188 
C 46.661892 211.354866 46.946381 210.668048 46.946381 209.952 
C 46.946381 209.235952 46.661892 208.549134 46.15557 208.042812 
C 45.649247 207.536489 44.96243 207.252 44.246381 207.252 
C 43.530333 207.252 42.843516 207.536489 42.337193 208.042812 
C 41.83087 208.549134 41.546381 209.235952 41.546381 209.952 
C 41.546381 210.668048 41.83087 211.354866 42.337193 211.861188 
C 42.843516 212.367511 43.530333 212.652 44.246381 212.652 
z
" clip-path="url(#pd51b4d44d8)" style="stroke: #000000; stroke-width: 2; stroke-linejoin: miter"/>
   </g>
   <g id="text_18">
    <!-- $C_\mathrm{SU1}$ -->
    <g transform="translate(58.646381 123.937056) scale(0.16 -0.16)">
     <use xlink:href="#CMMI12-43" transform="scale(0.996264)"/>
     <use xlink:href="#CMR17-53" transform="translate(69.792037 -14.943915) scale(0.697382)"/>
     <use xlink:href="#CMR17-55" transform="translate(105.418645 -14.943915) scale(0.697382)"/>
     <use xlink:href="#CMR17-31" transform="translate(153.76913 -14.943915) scale(0.697382)"/>
    </g>
   </g>
   <g id="text_19">
    <!-- $V_\mathrm{DD}$ -->
    <g transform="translate(31.173236 16.052524) scale(0.16 -0.16)">
     <use xlink:href="#CMMI12-56" transform="scale(0.996264)"/>
     <use xlink:href="#CMR17-44" transform="translate(56.869579 -14.943915) scale(0.697382)"/>
     <use xlink:href="#CMR17-44" transform="translate(106.144849 -14.943915) scale(0.697382)"/>
    </g>
   </g>
   <g id="patch_25">
    <path d="M 539.246381 296.652 
C 539.96243 296.652 540.649247 296.367511 541.15557 295.861188 
C 541.661892 295.354866 541.946381 294.668048 541.946381 293.952 
C 541.946381 293.235952 541.661892 292.549134 541.15557 292.042812 
C 540.649247 291.536489 539.96243 291.252 539.246381 291.252 
C 538.530333 291.252 537.843516 291.536489 537.337193 292.042812 
C 536.83087 292.549134 536.546381 293.235952 536.546381 293.952 
C 536.546381 294.668048 536.83087 295.354866 537.337193 295.861188 
C 537.843516 296.367511 538.530333 296.652 539.246381 296.652 
z
" clip-path="url(#pd51b4d44d8)" style="fill: #ffffff; stroke: #000000; stroke-width: 2; stroke-linejoin: miter"/>
   </g>
   <g id="text_20">
    <!-- $V_\mathrm{bias}$ -->
    <g transform="translate(547.346381 297.937056) scale(0.16 -0.16)">
     <defs>
      <path id="CMR17-62" d="M 960 4396 
L 198 4326 
L 198 4160 
C 576 4160 634 4122 634 3817 
L 634 -13 
L 749 -13 
L 934 441 
C 1120 141 1395 -64 1766 -64 
C 2406 -64 3053 500 3053 1370 
C 3053 2188 2477 2790 1830 2790 
C 1434 2790 1152 2579 960 2330 
L 960 4396 
z
M 973 2004 
C 973 2118 973 2138 1062 2272 
C 1312 2657 1670 2688 1792 2688 
C 1984 2688 2643 2585 2643 1376 
C 2643 108 1888 38 1734 38 
C 1536 38 1248 114 1043 486 
C 973 608 973 621 973 735 
L 973 2004 
z
" transform="scale(0.015625)"/>
      <path id="CMR17-69" d="M 992 3909 
C 992 4049 877 4170 730 4170 
C 589 4170 467 4056 467 3909 
C 467 3769 582 3648 730 3648 
C 870 3648 992 3763 992 3909 
z
M 243 2706 
L 243 2541 
C 602 2541 653 2502 653 2197 
L 653 427 
C 653 184 627 153 218 153 
L 218 -13 
C 371 0 646 0 806 0 
C 960 0 1222 0 1370 -13 
L 1370 153 
C 992 153 979 191 979 420 
L 979 2776 
L 243 2706 
z
" transform="scale(0.015625)"/>
      <path id="CMR17-61" d="M 2304 1653 
C 2304 2072 2304 2294 2035 2543 
C 1798 2752 1523 2816 1306 2816 
C 800 2816 435 2407 435 1971 
C 435 1728 627 1728 666 1728 
C 749 1728 896 1778 896 1954 
C 896 2112 774 2181 666 2181 
C 640 2181 608 2174 589 2168 
C 723 2592 1069 2714 1293 2714 
C 1613 2714 1965 2429 1965 1885 
L 1965 1600 
C 1587 1600 1133 1549 774 1357 
C 371 1133 256 813 256 570 
C 256 77 832 -64 1171 -64 
C 1523 -64 1850 139 1990 511 
C 2003 233 2182 -18 2464 -18 
C 2598 -18 2938 70 2938 567 
L 2938 920 
L 2822 920 
L 2822 562 
C 2822 178 2650 128 2566 128 
C 2304 128 2304 458 2304 738 
L 2304 1653 
z
M 1965 870 
C 1965 317 1568 38 1216 38 
C 896 38 646 275 646 570 
C 646 761 730 1100 1101 1305 
C 1408 1478 1760 1504 1965 1504 
L 1965 870 
z
" transform="scale(0.015625)"/>
      <path id="CMR17-73" d="M 1978 2697 
C 1978 2813 1971 2819 1933 2819 
C 1907 2819 1901 2813 1824 2717 
C 1805 2691 1747 2626 1728 2601 
C 1523 2819 1235 2819 1126 2819 
C 416 2819 160 2447 160 2076 
C 160 1498 813 1365 998 1325 
C 1402 1243 1542 1217 1677 1101 
C 1760 1025 1901 884 1901 654 
C 1901 384 1747 38 1158 38 
C 602 38 403 460 288 1021 
C 269 1110 269 1117 218 1117 
C 166 1117 160 1110 160 983 
L 160 63 
C 160 -51 166 -58 205 -58 
C 237 -58 243 -51 275 0 
C 314 57 410 211 448 276 
C 576 103 800 -64 1158 -64 
C 1792 -64 2131 283 2131 784 
C 2131 1112 1958 1285 1875 1362 
C 1683 1561 1459 1606 1190 1657 
C 838 1735 390 1825 390 2217 
C 390 2383 480 2737 1126 2737 
C 1811 2737 1850 2094 1862 1888 
C 1869 1856 1901 1849 1920 1849 
C 1978 1849 1978 1869 1978 1978 
L 1978 2697 
z
" transform="scale(0.015625)"/>
     </defs>
     <use xlink:href="#CMMI12-56" transform="scale(0.996264)"/>
     <use xlink:href="#CMR17-62" transform="translate(56.869579 -14.943915) scale(0.697382)"/>
     <use xlink:href="#CMR17-69" transform="translate(92.496187 -14.943915) scale(0.697382)"/>
     <use xlink:href="#CMR17-61" transform="translate(109.905846 -14.943915) scale(0.697382)"/>
     <use xlink:href="#CMR17-73" transform="translate(141.889028 -14.943915) scale(0.697382)"/>
    </g>
   </g>
   <g id="patch_26">
    <path d="M 539.246381 200.652 
C 539.96243 200.652 540.649247 200.367511 541.15557 199.861188 
C 541.661892 199.354866 541.946381 198.668048 541.946381 197.952 
C 541.946381 197.235952 541.661892 196.549134 541.15557 196.042812 
C 540.649247 195.536489 539.96243 195.252 539.246381 195.252 
C 538.530333 195.252 537.843516 195.536489 537.337193 196.042812 
C 536.83087 196.549134 536.546381 197.235952 536.546381 197.952 
C 536.546381 198.668048 536.83087 199.354866 537.337193 199.861188 
C 537.843516 200.367511 538.530333 200.652 539.246381 200.652 
z
" clip-path="url(#pd51b4d44d8)" style="fill: #ffffff; stroke: #000000; stroke-width: 2; stroke-linejoin: miter"/>
   </g>
   <g id="text_21">
    <!-- $V_\mathrm{bias,c}$ -->
    <g transform="translate(547.346381 201.117916) scale(0.16 -0.16)">
     <defs>
      <path id="CMMI12-3b" d="M 1248 -31 
C 1248 343 1126 619 864 619 
C 659 619 557 453 557 313 
C 557 172 653 0 870 0 
C 954 0 1024 26 1082 83 
C 1094 96 1101 96 1107 96 
C 1120 96 1120 5 1120 -27 
C 1120 -240 1082 -659 710 -1080 
C 640 -1157 640 -1170 640 -1183 
C 640 -1216 672 -1248 704 -1248 
C 755 -1248 1248 -771 1248 -31 
z
" transform="scale(0.015625)"/>
      <path id="CMR17-63" d="M 2234 2240 
C 2112 2240 1933 2240 1933 2017 
C 1933 1838 2080 1787 2163 1787 
C 2208 1787 2394 1807 2394 2024 
C 2394 2467 1958 2803 1466 2803 
C 787 2803 211 2178 211 1363 
C 211 516 813 -64 1466 -64 
C 2259 -64 2458 677 2458 748 
C 2458 774 2451 793 2406 793 
C 2362 793 2355 787 2330 703 
C 2163 180 1798 51 1523 51 
C 1114 51 621 427 621 1369 
C 621 2338 1094 2688 1472 2688 
C 1722 2688 2093 2573 2234 2240 
z
" transform="scale(0.015625)"/>
     </defs>
     <use xlink:href="#CMMI12-56" transform="scale(0.996264)"/>
     <use xlink:href="#CMR17-62" transform="translate(56.869579 -14.943915) scale(0.697382)"/>
     <use xlink:href="#CMR17-69" transform="translate(92.496187 -14.943915) scale(0.697382)"/>
     <use xlink:href="#CMR17-61" transform="translate(109.905846 -14.943915) scale(0.697382)"/>
     <use xlink:href="#CMR17-73" transform="translate(141.889028 -14.943915) scale(0.697382)"/>
     <use xlink:href="#CMMI12-3b" transform="translate(166.949851 -14.943915) scale(0.697382)"/>
     <use xlink:href="#CMR17-63" transform="translate(185.917783 -14.943915) scale(0.697382)"/>
    </g>
   </g>
   <g id="patch_27">
    <path d="M 290.246381 98.652 
C 290.96243 98.652 291.649247 98.367511 292.15557 97.861188 
C 292.661892 97.354866 292.946381 96.668048 292.946381 95.952 
C 292.946381 95.235952 292.661892 94.549134 292.15557 94.042812 
C 291.649247 93.536489 290.96243 93.252 290.246381 93.252 
C 289.530333 93.252 288.843516 93.536489 288.337193 94.042812 
C 287.83087 94.549134 287.546381 95.235952 287.546381 95.952 
C 287.546381 96.668048 287.83087 97.354866 288.337193 97.861188 
C 288.843516 98.367511 289.530333 98.652 290.246381 98.652 
z
" clip-path="url(#pd51b4d44d8)" style="stroke: #000000; stroke-width: 2; stroke-linejoin: miter"/>
   </g>
   <g id="text_22">
    <!-- $V_\mathrm{GS,34}$ -->
    <g transform="translate(271.090509 83.291344) scale(0.16 -0.16)">
     <defs>
      <path id="CMR17-47" d="M 3974 1233 
C 3974 1473 3994 1505 4390 1505 
L 4390 1670 
C 4237 1664 3891 1664 3718 1664 
C 3539 1664 3040 1664 2797 1664 
L 2797 1505 
L 2989 1505 
C 3539 1505 3552 1434 3552 1201 
L 3552 774 
C 3552 63 2720 63 2522 63 
C 1862 63 781 511 781 2160 
C 781 3808 1843 4250 2464 4250 
C 3187 4250 3712 3626 3834 2741 
C 3846 2664 3846 2651 3904 2651 
C 3974 2651 3974 2664 3974 2779 
L 3974 4288 
C 3974 4402 3968 4409 3930 4409 
C 3904 4409 3898 4402 3853 4326 
L 3571 3791 
C 3258 4187 2874 4416 2381 4416 
C 1286 4416 294 3456 294 2148 
C 294 845 1267 -128 2394 -128 
C 2912 -128 3418 56 3616 417 
C 3725 158 3904 -20 3936 -20 
C 3968 -20 3974 -13 3974 100 
L 3974 1233 
z
" transform="scale(0.015625)"/>
     </defs>
     <use xlink:href="#CMMI12-56" transform="scale(0.996264)"/>
     <use xlink:href="#CMR17-47" transform="translate(56.869579 -14.943915) scale(0.697382)"/>
     <use xlink:href="#CMR17-53" transform="translate(107.518102 -14.943915) scale(0.697382)"/>
     <use xlink:href="#CMMI12-3b" transform="translate(143.144711 -14.943915) scale(0.697382)"/>
     <use xlink:href="#CMR17-33" transform="translate(162.112643 -14.943915) scale(0.697382)"/>
     <use xlink:href="#CMR17-34" transform="translate(194.095825 -14.943915) scale(0.697382)"/>
    </g>
   </g>
   <g id="patch_28">
    <path d="M 185.246381 146.652 
C 185.96243 146.652 186.649247 146.367511 187.15557 145.861188 
C 187.661892 145.354866 187.946381 144.668048 187.946381 143.952 
C 187.946381 143.235952 187.661892 142.549134 187.15557 142.042812 
C 186.649247 141.536489 185.96243 141.252 185.246381 141.252 
C 184.530333 141.252 183.843516 141.536489 183.337193 142.042812 
C 182.83087 142.549134 182.546381 143.235952 182.546381 143.952 
C 182.546381 144.668048 182.83087 145.354866 183.337193 145.861188 
C 183.843516 146.367511 184.530333 146.652 185.246381 146.652 
z
" clip-path="url(#pd51b4d44d8)" style="fill: #ffffff; stroke: #000000; stroke-width: 2; stroke-linejoin: miter"/>
   </g>
   <g id="text_23">
    <!-- $V_\mathrm{SU,1}$ -->
    <g transform="translate(169.07376 131.291344) scale(0.16 -0.16)">
     <use xlink:href="#CMMI12-56" transform="scale(0.996264)"/>
     <use xlink:href="#CMR17-53" transform="translate(56.869579 -14.943915) scale(0.697382)"/>
     <use xlink:href="#CMR17-55" transform="translate(92.496187 -14.943915) scale(0.697382)"/>
     <use xlink:href="#CMMI12-3b" transform="translate(140.846672 -14.943915) scale(0.697382)"/>
     <use xlink:href="#CMR17-31" transform="translate(159.814605 -14.943915) scale(0.697382)"/>
    </g>
   </g>
   <g id="patch_29">
    <path d="M 185.246381 296.652 
C 185.96243 296.652 186.649247 296.367511 187.15557 295.861188 
C 187.661892 295.354866 187.946381 294.668048 187.946381 293.952 
C 187.946381 293.235952 187.661892 292.549134 187.15557 292.042812 
C 186.649247 291.536489 185.96243 291.252 185.246381 291.252 
C 184.530333 291.252 183.843516 291.536489 183.337193 292.042812 
C 182.83087 292.549134 182.546381 293.235952 182.546381 293.952 
C 182.546381 294.668048 182.83087 295.354866 183.337193 295.861188 
C 183.843516 296.367511 184.530333 296.652 185.246381 296.652 
z
" clip-path="url(#pd51b4d44d8)" style="fill: #ffffff; stroke: #000000; stroke-width: 2; stroke-linejoin: miter"/>
   </g>
   <g id="text_24">
    <!-- $V_\mathrm{SU,2}$ -->
    <g transform="translate(169.07376 281.291344) scale(0.16 -0.16)">
     <use xlink:href="#CMMI12-56" transform="scale(0.996264)"/>
     <use xlink:href="#CMR17-53" transform="translate(56.869579 -14.943915) scale(0.697382)"/>
     <use xlink:href="#CMR17-55" transform="translate(92.496187 -14.943915) scale(0.697382)"/>
     <use xlink:href="#CMMI12-3b" transform="translate(140.846672 -14.943915) scale(0.697382)"/>
     <use xlink:href="#CMR17-32" transform="translate(159.814605 -14.943915) scale(0.697382)"/>
    </g>
   </g>
  </g>
 </g>
 <defs>
  <clipPath id="pd51b4d44d8">
   <rect x="0.361581" y="0" width="585.5656" height="502.032"/>
  </clipPath>
 </defs>
</svg>
