<?xml version="1.0" encoding="utf-8" standalone="no"?>
<!DOCTYPE svg PUBLIC "-//W3C//DTD SVG 1.1//EN"
  "http://www.w3.org/Graphics/SVG/1.1/DTD/svg11.dtd">
<svg xmlns:xlink="http://www.w3.org/1999/xlink" width="435.8144pt" height="406.032pt" viewBox="0 0 435.8144 406.032" xmlns="http://www.w3.org/2000/svg" version="1.1">
 <metadata>
  <rdf:RDF xmlns:dc="http://purl.org/dc/elements/1.1/" xmlns:cc="http://creativecommons.org/ns#" xmlns:rdf="http://www.w3.org/1999/02/22-rdf-syntax-ns#">
   <cc:Work>
    <dc:type rdf:resource="http://purl.org/dc/dcmitype/StillImage"/>
    <dc:date>2025-05-26T08:17:07.598934</dc:date>
    <dc:format>image/svg+xml</dc:format>
    <dc:creator>
     <cc:Agent>
      <dc:title>Matplotlib v3.9.2, https://matplotlib.org/</dc:title>
     </cc:Agent>
    </dc:creator>
   </cc:Work>
  </rdf:RDF>
 </metadata>
 <defs>
  <style type="text/css">*{stroke-linejoin: round; stroke-linecap: butt}</style>
 </defs>
 <g id="figure_1">
  <g id="patch_1">
   <path d="M 0 406.032 
L 435.8144 406.032 
L 435.8144 0 
L 0 0 
L 0 406.032 
z
" style="fill: none"/>
  </g>
  <g id="axes_1">
   <g id="line2d_1">
    <path d="M 396.2456 197.952 
L 378.2456 197.952 
L 360.2456 197.952 
" clip-path="url(#p39c1e1f64c)" style="fill: none; stroke: #000000; stroke-width: 2; stroke-linecap: round"/>
   </g>
   <g id="line2d_2">
    <path d="M 360.2456 197.952 
L 360.2456 224.952 
L 360.2456 251.952 
" clip-path="url(#p39c1e1f64c)" style="fill: none; stroke: #000000; stroke-width: 2; stroke-linecap: round"/>
   </g>
   <g id="line2d_3">
    <path d="M 360.2456 251.952 
L 360.2456 284.712 
M 369.2456 284.712 
L 351.2456 284.712 
M 369.2456 291.192 
L 351.2456 291.192 
M 360.2456 291.192 
L 360.2456 323.952 
" clip-path="url(#p39c1e1f64c)" style="fill: none; stroke: #000000; stroke-width: 2; stroke-linecap: round"/>
   </g>
   <g id="line2d_4">
    <path d="M 360.2456 323.952 
L 360.2456 350.952 
L 360.2456 377.952 
" clip-path="url(#p39c1e1f64c)" style="fill: none; stroke: #000000; stroke-width: 2; stroke-linecap: round"/>
   </g>
   <g id="line2d_5">
    <path d="M 360.2456 377.952 
L 360.2456 392.352 
L 351.2456 392.352 
L 360.2456 401.352 
L 369.2456 392.352 
L 360.2456 392.352 
" clip-path="url(#p39c1e1f64c)" style="fill: none; stroke: #000000; stroke-width: 2; stroke-linecap: round"/>
   </g>
   <g id="line2d_6">
    <path d="M 360.2456 197.952 
L 324.2456 197.952 
L 288.2456 197.952 
" clip-path="url(#p39c1e1f64c)" style="fill: none; stroke: #000000; stroke-width: 2; stroke-linecap: round"/>
   </g>
   <g id="line2d_7">
    <path d="M 288.2456 197.952 
L 288.2456 206.952 
L 288.2456 215.952 
" clip-path="url(#p39c1e1f64c)" style="fill: none; stroke: #000000; stroke-width: 2; stroke-linecap: round"/>
   </g>
   <g id="line2d_8">
    <path d="M 288.2456 275.952 
L 288.2456 260.952 
L 273.2456 260.952 
L 273.2456 230.952 
L 288.2456 230.952 
L 288.2456 215.952 
" clip-path="url(#p39c1e1f64c)" style="fill: none; stroke: #000000; stroke-width: 2; stroke-linecap: round"/>
   </g>
   <g id="line2d_9">
    <path d="M 279.2456 260.952 
L 273.2456 260.952 
" clip-path="url(#p39c1e1f64c)" style="fill: none; stroke: #000000; stroke-width: 2; stroke-linecap: round"/>
   </g>
   <g id="patch_2">
    <path d="M 279.2456 256.452 
L 288.2456 260.952 
L 279.2456 265.452 
z
" clip-path="url(#p39c1e1f64c)"/>
   </g>
   <g id="line2d_10">
    <path d="M 270.2456 257.952 
L 270.2456 233.952 
" clip-path="url(#p39c1e1f64c)" style="fill: none; stroke: #000000; stroke-width: 2; stroke-linecap: round"/>
   </g>
   <g id="line2d_11">
    <path d="M 255.2456 245.952 
L 270.2456 245.952 
" clip-path="url(#p39c1e1f64c)" style="fill: none; stroke: #000000; stroke-width: 2; stroke-linecap: round"/>
   </g>
   <g id="line2d_12">
    <path d="M 288.2456 275.952 
L 288.2456 326.952 
L 288.2456 377.952 
" clip-path="url(#p39c1e1f64c)" style="fill: none; stroke: #000000; stroke-width: 2; stroke-linecap: round"/>
   </g>
   <g id="line2d_13">
    <path d="M 288.2456 377.952 
L 288.2456 392.352 
L 279.2456 392.352 
L 288.2456 401.352 
L 297.2456 392.352 
L 288.2456 392.352 
" clip-path="url(#p39c1e1f64c)" style="fill: none; stroke: #000000; stroke-width: 2; stroke-linecap: round"/>
   </g>
   <g id="line2d_14">
    <path d="M 255.2456 245.952 
L 237.2456 245.952 
L 219.2456 245.952 
" clip-path="url(#p39c1e1f64c)" style="fill: none; stroke: #000000; stroke-width: 2; stroke-linecap: round"/>
   </g>
   <g id="line2d_15">
    <path d="M 219.2456 245.952 
L 219.2456 221.952 
L 219.2456 197.952 
" clip-path="url(#p39c1e1f64c)" style="fill: none; stroke: #000000; stroke-width: 2; stroke-linecap: round"/>
   </g>
   <g id="line2d_16">
    <path d="M 219.2456 197.952 
L 253.7456 197.952 
L 288.2456 197.952 
" clip-path="url(#p39c1e1f64c)" style="fill: none; stroke: #000000; stroke-width: 2; stroke-linecap: round"/>
   </g>
   <g id="line2d_17">
    <path d="M 288.2456 197.952 
L 288.2456 161.952 
L 288.2456 125.952 
" clip-path="url(#p39c1e1f64c)" style="fill: none; stroke: #000000; stroke-width: 2; stroke-linecap: round"/>
   </g>
   <g id="line2d_18">
    <path d="M 288.2456 125.952 
L 288.2456 110.952 
L 273.2456 110.952 
L 273.2456 80.952 
L 288.2456 80.952 
L 288.2456 65.952 
" clip-path="url(#p39c1e1f64c)" style="fill: none; stroke: #000000; stroke-width: 2; stroke-linecap: round"/>
   </g>
   <g id="line2d_19">
    <path d="M 282.2456 80.952 
L 288.2456 80.952 
" clip-path="url(#p39c1e1f64c)" style="fill: none; stroke: #000000; stroke-width: 2; stroke-linecap: round"/>
   </g>
   <g id="patch_3">
    <path d="M 282.2456 85.452 
L 273.2456 80.952 
L 282.2456 76.452 
z
" clip-path="url(#p39c1e1f64c)"/>
   </g>
   <g id="line2d_20">
    <path d="M 270.2456 107.952 
L 270.2456 83.952 
" clip-path="url(#p39c1e1f64c)" style="fill: none; stroke: #000000; stroke-width: 2; stroke-linecap: round"/>
   </g>
   <g id="line2d_21">
    <path d="M 255.2456 95.952 
L 270.2456 95.952 
" clip-path="url(#p39c1e1f64c)" style="fill: none; stroke: #000000; stroke-width: 2; stroke-linecap: round"/>
   </g>
   <g id="line2d_22">
    <path d="M 288.2456 65.952 
L 288.2456 52.452 
L 288.2456 38.952 
" clip-path="url(#p39c1e1f64c)" style="fill: none; stroke: #000000; stroke-width: 2; stroke-linecap: round"/>
   </g>
   <g id="line2d_23">
    <path d="M 288.2456 38.952 
L 288.2456 24.552 
" clip-path="url(#p39c1e1f64c)" style="fill: none; stroke: #000000; stroke-width: 2; stroke-linecap: round"/>
   </g>
   <g id="line2d_24">
    <path d="M 288.2456 24.552 
L 281.4956 24.552 
" clip-path="url(#p39c1e1f64c)" style="fill: none; stroke: #000000; stroke-width: 2; stroke-linecap: round"/>
   </g>
   <g id="line2d_25">
    <path d="M 288.2456 24.552 
L 294.9956 24.552 
" clip-path="url(#p39c1e1f64c)" style="fill: none; stroke: #000000; stroke-width: 2; stroke-linecap: round"/>
   </g>
   <g id="line2d_26">
    <path d="M 255.2456 95.952 
L 237.2456 95.952 
L 219.2456 95.952 
" clip-path="url(#p39c1e1f64c)" style="fill: none; stroke: #000000; stroke-width: 2; stroke-linecap: round"/>
   </g>
   <g id="line2d_27">
    <path d="M 219.2456 95.952 
L 219.2456 63.192 
M 210.2456 63.192 
L 228.2456 63.192 
M 210.2456 56.712 
L 228.2456 56.712 
M 219.2456 56.712 
L 219.2456 23.952 
" clip-path="url(#p39c1e1f64c)" style="fill: none; stroke: #000000; stroke-width: 2; stroke-linecap: round"/>
   </g>
   <g id="line2d_28">
    <path d="M 219.2456 23.952 
L 219.2456 23.952 
" clip-path="url(#p39c1e1f64c)" style="fill: none; stroke: #000000; stroke-width: 2; stroke-linecap: round"/>
   </g>
   <g id="line2d_29">
    <path d="M 219.2456 23.952 
L 212.4956 23.952 
" clip-path="url(#p39c1e1f64c)" style="fill: none; stroke: #000000; stroke-width: 2; stroke-linecap: round"/>
   </g>
   <g id="line2d_30">
    <path d="M 219.2456 23.952 
L 225.9956 23.952 
" clip-path="url(#p39c1e1f64c)" style="fill: none; stroke: #000000; stroke-width: 2; stroke-linecap: round"/>
   </g>
   <g id="line2d_31">
    <path d="M 219.2456 95.952 
L 183.2456 95.952 
L 147.2456 95.952 
" clip-path="url(#p39c1e1f64c)" style="fill: none; stroke: #000000; stroke-width: 2; stroke-linecap: round"/>
   </g>
   <g id="line2d_32">
    <path d="M 147.2456 95.952 
L 129.2456 95.952 
L 111.2456 95.952 
" clip-path="url(#p39c1e1f64c)" style="fill: none; stroke: #000000; stroke-width: 2; stroke-linecap: round"/>
   </g>
   <g id="line2d_33">
    <path d="M 78.2456 65.952 
L 78.2456 80.952 
L 93.2456 80.952 
L 93.2456 110.952 
L 78.2456 110.952 
L 78.2456 125.952 
" clip-path="url(#p39c1e1f64c)" style="fill: none; stroke: #000000; stroke-width: 2; stroke-linecap: round"/>
   </g>
   <g id="line2d_34">
    <path d="M 78.2456 80.952 
L 84.2456 80.952 
" clip-path="url(#p39c1e1f64c)" style="fill: none; stroke: #000000; stroke-width: 2; stroke-linecap: round"/>
   </g>
   <g id="patch_4">
    <path d="M 84.2456 76.452 
L 93.2456 80.952 
L 84.2456 85.452 
z
" clip-path="url(#p39c1e1f64c)"/>
   </g>
   <g id="line2d_35">
    <path d="M 96.2456 83.952 
L 96.2456 107.952 
" clip-path="url(#p39c1e1f64c)" style="fill: none; stroke: #000000; stroke-width: 2; stroke-linecap: round"/>
   </g>
   <g id="line2d_36">
    <path d="M 96.2456 95.952 
L 111.2456 95.952 
" clip-path="url(#p39c1e1f64c)" style="fill: none; stroke: #000000; stroke-width: 2; stroke-linecap: round"/>
   </g>
   <g id="line2d_37">
    <path d="M 78.2456 65.952 
L 78.2456 52.452 
L 78.2456 38.952 
" clip-path="url(#p39c1e1f64c)" style="fill: none; stroke: #000000; stroke-width: 2; stroke-linecap: round"/>
   </g>
   <g id="line2d_38">
    <path d="M 78.2456 38.952 
L 78.2456 24.552 
" clip-path="url(#p39c1e1f64c)" style="fill: none; stroke: #000000; stroke-width: 2; stroke-linecap: round"/>
   </g>
   <g id="line2d_39">
    <path d="M 78.2456 24.552 
L 71.4956 24.552 
" clip-path="url(#p39c1e1f64c)" style="fill: none; stroke: #000000; stroke-width: 2; stroke-linecap: round"/>
   </g>
   <g id="line2d_40">
    <path d="M 78.2456 24.552 
L 84.9956 24.552 
" clip-path="url(#p39c1e1f64c)" style="fill: none; stroke: #000000; stroke-width: 2; stroke-linecap: round"/>
   </g>
   <g id="line2d_41">
    <path d="M 78.2456 125.952 
L 78.2456 134.952 
L 78.2456 143.952 
" clip-path="url(#p39c1e1f64c)" style="fill: none; stroke: #000000; stroke-width: 2; stroke-linecap: round"/>
   </g>
   <g id="line2d_42">
    <path d="M 78.2456 143.952 
L 60.2456 143.952 
L 42.2456 143.952 
" clip-path="url(#p39c1e1f64c)" style="fill: none; stroke: #000000; stroke-width: 2; stroke-linecap: round"/>
   </g>
   <g id="line2d_43">
    <path d="M 78.2456 143.952 
L 112.7456 143.952 
L 147.2456 143.952 
" clip-path="url(#p39c1e1f64c)" style="fill: none; stroke: #000000; stroke-width: 2; stroke-linecap: round"/>
   </g>
   <g id="line2d_44">
    <path d="M 147.2456 143.952 
L 147.2456 119.952 
L 147.2456 95.952 
" clip-path="url(#p39c1e1f64c)" style="fill: none; stroke: #000000; stroke-width: 2; stroke-linecap: round"/>
   </g>
   <g id="line2d_45">
    <path d="M 78.2456 125.952 
L 78.2456 170.952 
L 78.2456 215.952 
" clip-path="url(#p39c1e1f64c)" style="fill: none; stroke: #000000; stroke-width: 2; stroke-linecap: round"/>
   </g>
   <g id="line2d_46">
    <path d="M 78.2456 215.952 
L 78.2456 230.952 
L 93.2456 230.952 
L 93.2456 260.952 
L 78.2456 260.952 
L 78.2456 275.952 
" clip-path="url(#p39c1e1f64c)" style="fill: none; stroke: #000000; stroke-width: 2; stroke-linecap: round"/>
   </g>
   <g id="line2d_47">
    <path d="M 93.2456 260.952 
L 87.2456 260.952 
" clip-path="url(#p39c1e1f64c)" style="fill: none; stroke: #000000; stroke-width: 2; stroke-linecap: round"/>
   </g>
   <g id="patch_5">
    <path d="M 87.2456 265.452 
L 78.2456 260.952 
L 87.2456 256.452 
z
" clip-path="url(#p39c1e1f64c)"/>
   </g>
   <g id="line2d_48">
    <path d="M 96.2456 233.952 
L 96.2456 257.952 
" clip-path="url(#p39c1e1f64c)" style="fill: none; stroke: #000000; stroke-width: 2; stroke-linecap: round"/>
   </g>
   <g id="line2d_49">
    <path d="M 96.2456 245.952 
L 111.2456 245.952 
" clip-path="url(#p39c1e1f64c)" style="fill: none; stroke: #000000; stroke-width: 2; stroke-linecap: round"/>
   </g>
   <g id="line2d_50">
    <path d="M 111.2456 245.952 
L 165.2456 245.952 
L 219.2456 245.952 
" clip-path="url(#p39c1e1f64c)" style="fill: none; stroke: #000000; stroke-width: 2; stroke-linecap: round"/>
   </g>
   <g id="line2d_51">
    <path d="M 78.2456 275.952 
L 78.2456 284.952 
L 78.2456 293.952 
" clip-path="url(#p39c1e1f64c)" style="fill: none; stroke: #000000; stroke-width: 2; stroke-linecap: round"/>
   </g>
   <g id="line2d_52">
    <path d="M 78.2456 293.952 
L 114.2456 293.952 
L 150.2456 293.952 
" clip-path="url(#p39c1e1f64c)" style="fill: none; stroke: #000000; stroke-width: 2; stroke-linecap: round"/>
   </g>
   <g id="line2d_53">
    <path d="M 150.2456 293.952 
L 150.2456 298.452 
L 150.2456 302.952 
" clip-path="url(#p39c1e1f64c)" style="fill: none; stroke: #000000; stroke-width: 2; stroke-linecap: round"/>
   </g>
   <g id="line2d_54">
    <path d="M 150.2456 302.952 
L 150.2456 335.712 
M 159.2456 335.712 
L 141.2456 335.712 
M 159.2456 342.192 
L 141.2456 342.192 
M 150.2456 342.192 
L 150.2456 374.952 
" clip-path="url(#p39c1e1f64c)" style="fill: none; stroke: #000000; stroke-width: 2; stroke-linecap: round"/>
   </g>
   <g id="line2d_55">
    <path d="M 150.2456 374.952 
L 150.2456 376.452 
L 150.2456 377.952 
" clip-path="url(#p39c1e1f64c)" style="fill: none; stroke: #000000; stroke-width: 2; stroke-linecap: round"/>
   </g>
   <g id="line2d_56">
    <path d="M 150.2456 377.952 
L 150.2456 392.352 
L 141.2456 392.352 
L 150.2456 401.352 
L 159.2456 392.352 
L 150.2456 392.352 
" clip-path="url(#p39c1e1f64c)" style="fill: none; stroke: #000000; stroke-width: 2; stroke-linecap: round"/>
   </g>
   <g id="line2d_57">
    <path d="M 78.2456 293.952 
L 78.2456 298.452 
L 78.2456 302.952 
" clip-path="url(#p39c1e1f64c)" style="fill: none; stroke: #000000; stroke-width: 2; stroke-linecap: round"/>
   </g>
   <g id="line2d_58">
    <path d="M 78.2456 302.952 
L 78.2456 320.952 
L 87.2456 323.952 
L 69.2456 329.952 
L 87.2456 335.952 
L 69.2456 341.952 
L 87.2456 347.952 
L 69.2456 353.952 
L 78.2456 356.952 
L 78.2456 374.952 
" clip-path="url(#p39c1e1f64c)" style="fill: none; stroke: #000000; stroke-width: 2; stroke-linecap: round"/>
   </g>
   <g id="line2d_59">
    <path d="M 60.2456 329.952 
L 92.708292 344.934781 
" clip-path="url(#p39c1e1f64c)" style="fill: none; stroke: #000000; stroke-width: 2; stroke-linecap: round"/>
   </g>
   <g id="patch_6">
    <path d="M 93.91518 342.319858 
L 99.2456 347.952 
L 91.501405 347.549704 
z
" clip-path="url(#p39c1e1f64c)"/>
   </g>
   <g id="line2d_60">
    <path d="M 78.2456 374.952 
L 78.2456 376.452 
L 78.2456 377.952 
" clip-path="url(#p39c1e1f64c)" style="fill: none; stroke: #000000; stroke-width: 2; stroke-linecap: round"/>
   </g>
   <g id="line2d_61">
    <path d="M 78.2456 377.952 
L 78.2456 392.352 
L 69.2456 392.352 
L 78.2456 401.352 
L 87.2456 392.352 
L 78.2456 392.352 
" clip-path="url(#p39c1e1f64c)" style="fill: none; stroke: #000000; stroke-width: 2; stroke-linecap: round"/>
   </g>
   <g id="line2d_62">
    <path d="M 219.2456 197.952 
L 130.7456 197.952 
L 42.2456 197.952 
" clip-path="url(#p39c1e1f64c)" style="fill: none; stroke: #000000; stroke-width: 2; stroke-linecap: round"/>
   </g>
   <g id="patch_7">
    <path d="M 360.2456 200.652 
C 360.961648 200.652 361.648466 200.367511 362.154788 199.861188 
C 362.661111 199.354866 362.9456 198.668048 362.9456 197.952 
C 362.9456 197.235952 362.661111 196.549134 362.154788 196.042812 
C 361.648466 195.536489 360.961648 195.252 360.2456 195.252 
C 359.529552 195.252 358.842734 195.536489 358.336412 196.042812 
C 357.830089 196.549134 357.5456 197.235952 357.5456 197.952 
C 357.5456 198.668048 357.830089 199.354866 358.336412 199.861188 
C 358.842734 200.367511 359.529552 200.652 360.2456 200.652 
z
" clip-path="url(#p39c1e1f64c)" style="stroke: #000000; stroke-width: 2; stroke-linejoin: miter"/>
   </g>
   <g id="text_1">
    <!-- $C_\mathrm{DEC1}$ -->
    <g transform="translate(374.6456 291.937056) scale(0.16 -0.16)">
     <defs>
      <path id="CMMI12-43" d="M 4781 4423 
C 4781 4480 4736 4480 4723 4480 
C 4710 4480 4685 4480 4634 4416 
L 4192 3882 
C 3968 4264 3616 4480 3136 4480 
C 1754 4480 320 3088 320 1595 
C 320 533 1069 -128 2003 -128 
C 2515 -128 2963 88 3334 400 
C 3891 863 4058 1481 4058 1531 
C 4058 1588 4006 1588 3987 1588 
C 3930 1588 3923 1550 3910 1524 
C 3616 534 2752 57 2112 57 
C 1434 57 845 489 845 1391 
C 845 1595 909 2700 1632 3532 
C 1984 3939 2586 4295 3194 4295 
C 3898 4295 4211 3717 4211 3068 
C 4211 2903 4192 2764 4192 2738 
C 4192 2681 4256 2681 4275 2681 
C 4346 2681 4352 2687 4378 2801 
L 4781 4423 
z
" transform="scale(0.015625)"/>
      <path id="CMR17-44" d="M 333 4352 
L 333 4186 
C 774 4186 845 4186 845 3900 
L 845 452 
C 845 166 774 166 333 166 
L 333 0 
L 2368 0 
C 3398 0 4224 943 4224 2141 
C 4224 3346 3411 4352 2368 4352 
L 333 4352 
z
M 1523 166 
C 1267 166 1254 197 1254 414 
L 1254 3938 
C 1254 4155 1267 4186 1523 4186 
L 2240 4186 
C 2771 4186 3750 3874 3750 2141 
C 3750 1242 3488 879 3366 707 
C 3213 510 2848 166 2240 166 
L 1523 166 
z
" transform="scale(0.015625)"/>
      <path id="CMR17-45" d="M 3885 1615 
L 3770 1615 
C 3629 676 3546 166 2419 166 
L 1530 166 
C 1274 166 1261 197 1261 414 
L 1261 2176 
L 1862 2176 
C 2464 2176 2522 1960 2522 1430 
L 2637 1430 
L 2637 3081 
L 2522 3081 
C 2522 2557 2464 2342 1862 2342 
L 1261 2342 
L 1261 3913 
C 1261 4128 1274 4160 1530 4160 
L 2406 4160 
C 3398 4160 3514 3769 3603 2929 
L 3718 2929 
L 3565 4325 
L 326 4325 
L 326 4160 
C 768 4160 838 4160 838 3874 
L 838 451 
C 838 166 768 166 326 166 
L 326 0 
L 3654 0 
L 3885 1615 
z
" transform="scale(0.015625)"/>
      <path id="CMR17-43" d="M 3974 4289 
C 3974 4403 3968 4410 3930 4410 
C 3904 4410 3898 4403 3853 4327 
L 3571 3792 
C 3258 4187 2874 4416 2381 4416 
C 1286 4416 294 3456 294 2148 
C 294 826 1286 -128 2387 -128 
C 3366 -128 3974 730 3974 1461 
C 3974 1524 3974 1550 3917 1550 
C 3866 1550 3866 1531 3859 1474 
C 3808 585 3168 38 2477 38 
C 1824 38 781 495 781 2147 
C 781 3805 1843 4250 2464 4250 
C 3187 4250 3712 3628 3834 2745 
C 3846 2668 3846 2655 3904 2655 
C 3974 2655 3974 2668 3974 2783 
L 3974 4289 
z
" transform="scale(0.015625)"/>
      <path id="CMR17-31" d="M 1702 4058 
C 1702 4192 1696 4192 1606 4192 
C 1357 3916 979 3827 621 3827 
C 602 3827 570 3827 563 3808 
C 557 3795 557 3782 557 3648 
C 755 3648 1088 3686 1344 3839 
L 1344 461 
C 1344 236 1331 160 781 160 
L 589 160 
L 589 0 
C 896 0 1216 0 1523 0 
C 1830 0 2150 0 2458 0 
L 2458 160 
L 2266 160 
C 1715 160 1702 230 1702 458 
L 1702 4058 
z
" transform="scale(0.015625)"/>
     </defs>
     <use xlink:href="#CMMI12-43" transform="scale(0.996264)"/>
     <use xlink:href="#CMR17-44" transform="translate(69.792037 -14.943915) scale(0.697382)"/>
     <use xlink:href="#CMR17-45" transform="translate(119.067307 -14.943915) scale(0.697382)"/>
     <use xlink:href="#CMR17-43" transform="translate(162.877521 -14.943915) scale(0.697382)"/>
     <use xlink:href="#CMR17-31" transform="translate(209.434226 -14.943915) scale(0.697382)"/>
    </g>
   </g>
   <g id="text_2">
    <!-- $M_{2}$ -->
    <g transform="translate(297.566783 249.937056) scale(0.16 -0.16)">
     <defs>
      <path id="CMMI12-4d" d="M 5811 3886 
C 5869 4103 5882 4167 6336 4167 
C 6458 4167 6515 4167 6515 4288 
C 6515 4352 6470 4352 6349 4352 
L 5581 4352 
C 5421 4352 5414 4346 5344 4243 
L 3008 562 
L 2528 4211 
C 2509 4352 2502 4352 2336 4352 
L 1542 4352 
C 1421 4352 1363 4352 1363 4231 
C 1363 4167 1421 4167 1517 4167 
C 1907 4167 1907 4116 1907 4046 
C 1907 4034 1907 3995 1882 3899 
L 1062 634 
C 986 327 838 186 410 186 
C 390 186 314 186 314 73 
C 314 0 371 0 397 0 
C 525 0 851 0 979 0 
L 1286 0 
C 1376 0 1485 0 1574 0 
C 1619 0 1690 0 1690 122 
C 1690 180 1626 186 1600 186 
C 1389 186 1184 224 1184 454 
C 1184 518 1184 524 1210 613 
L 2093 4129 
L 2099 4129 
L 2630 172 
C 2650 19 2656 0 2714 0 
C 2784 0 2816 51 2848 109 
L 5421 4161 
L 5427 4161 
L 4499 473 
C 4442 250 4429 186 3981 186 
C 3859 186 3795 186 3795 70 
C 3795 0 3853 0 3891 0 
C 4000 0 4128 0 4237 0 
L 4992 0 
C 5101 0 5235 0 5344 0 
C 5395 0 5466 0 5466 122 
C 5466 186 5408 186 5312 186 
C 4922 186 4922 234 4922 294 
C 4922 301 4922 345 4934 396 
L 5811 3886 
z
" transform="scale(0.015625)"/>
      <path id="CMR17-32" d="M 2669 989 
L 2554 989 
C 2490 536 2438 459 2413 420 
C 2381 369 1920 369 1830 369 
L 602 369 
C 832 619 1280 1072 1824 1597 
C 2214 1967 2669 2402 2669 3035 
C 2669 3790 2067 4224 1395 4224 
C 691 4224 262 3604 262 3030 
C 262 2780 448 2748 525 2748 
C 589 2748 781 2787 781 3010 
C 781 3207 614 3264 525 3264 
C 486 3264 448 3258 422 3245 
C 544 3790 915 4058 1306 4058 
C 1862 4058 2227 3617 2227 3035 
C 2227 2479 1901 2000 1536 1584 
L 262 146 
L 262 0 
L 2515 0 
L 2669 989 
z
" transform="scale(0.015625)"/>
     </defs>
     <use xlink:href="#CMMI12-4d" transform="scale(0.996264)"/>
     <use xlink:href="#CMR17-32" transform="translate(94.373425 -14.943915) scale(0.697382)"/>
    </g>
   </g>
   <g id="patch_8">
    <path d="M 219.2456 248.652 
C 219.961648 248.652 220.648466 248.367511 221.154788 247.861188 
C 221.661111 247.354866 221.9456 246.668048 221.9456 245.952 
C 221.9456 245.235952 221.661111 244.549134 221.154788 244.042812 
C 220.648466 243.536489 219.961648 243.252 219.2456 243.252 
C 218.529552 243.252 217.842734 243.536489 217.336412 244.042812 
C 216.830089 244.549134 216.5456 245.235952 216.5456 245.952 
C 216.5456 246.668048 216.830089 247.354866 217.336412 247.861188 
C 217.842734 248.367511 218.529552 248.652 219.2456 248.652 
z
" clip-path="url(#p39c1e1f64c)" style="stroke: #000000; stroke-width: 2; stroke-linejoin: miter"/>
   </g>
   <g id="patch_9">
    <path d="M 219.2456 200.652 
C 219.961648 200.652 220.648466 200.367511 221.154788 199.861188 
C 221.661111 199.354866 221.9456 198.668048 221.9456 197.952 
C 221.9456 197.235952 221.661111 196.549134 221.154788 196.042812 
C 220.648466 195.536489 219.961648 195.252 219.2456 195.252 
C 218.529552 195.252 217.842734 195.536489 217.336412 196.042812 
C 216.830089 196.549134 216.5456 197.235952 216.5456 197.952 
C 216.5456 198.668048 216.830089 199.354866 217.336412 199.861188 
C 217.842734 200.367511 218.529552 200.652 219.2456 200.652 
z
" clip-path="url(#p39c1e1f64c)" style="stroke: #000000; stroke-width: 2; stroke-linejoin: miter"/>
   </g>
   <g id="patch_10">
    <path d="M 288.2456 200.652 
C 288.961648 200.652 289.648466 200.367511 290.154788 199.861188 
C 290.661111 199.354866 290.9456 198.668048 290.9456 197.952 
C 290.9456 197.235952 290.661111 196.549134 290.154788 196.042812 
C 289.648466 195.536489 288.961648 195.252 288.2456 195.252 
C 287.529552 195.252 286.842734 195.536489 286.336412 196.042812 
C 285.830089 196.549134 285.5456 197.235952 285.5456 197.952 
C 285.5456 198.668048 285.830089 199.354866 286.336412 199.861188 
C 286.842734 200.367511 287.529552 200.652 288.2456 200.652 
z
" clip-path="url(#p39c1e1f64c)" style="stroke: #000000; stroke-width: 2; stroke-linejoin: miter"/>
   </g>
   <g id="text_3">
    <!-- $M_{4}$ -->
    <g transform="translate(297.566783 99.937056) scale(0.16 -0.16)">
     <defs>
      <path id="CMR17-34" d="M 2150 4122 
C 2150 4256 2144 4256 2029 4256 
L 128 1254 
L 128 1088 
L 1779 1088 
L 1779 457 
C 1779 224 1766 160 1318 160 
L 1197 160 
L 1197 0 
C 1402 0 1747 0 1965 0 
C 2182 0 2528 0 2733 0 
L 2733 160 
L 2611 160 
C 2163 160 2150 224 2150 457 
L 2150 1088 
L 2803 1088 
L 2803 1254 
L 2150 1254 
L 2150 4122 
z
M 1798 3703 
L 1798 1254 
L 256 1254 
L 1798 3703 
z
" transform="scale(0.015625)"/>
     </defs>
     <use xlink:href="#CMMI12-4d" transform="scale(0.996264)"/>
     <use xlink:href="#CMR17-34" transform="translate(94.373425 -14.943915) scale(0.697382)"/>
    </g>
   </g>
   <g id="text_4">
    <!-- $V_\mathrm{DD}$ -->
    <g transform="translate(275.172455 16.052524) scale(0.16 -0.16)">
     <defs>
      <path id="CMMI12-56" d="M 3962 3640 
C 4179 3984 4378 4136 4704 4162 
C 4768 4168 4819 4168 4819 4282 
C 4819 4308 4806 4346 4749 4346 
C 4634 4346 4358 4346 4243 4346 
C 4058 4346 3866 4346 3686 4346 
C 3635 4346 3571 4346 3571 4226 
C 3571 4168 3629 4162 3654 4162 
C 3891 4143 3917 4029 3917 3952 
C 3917 3857 3827 3710 3821 3704 
L 1811 540 
L 1363 3969 
C 1363 4160 1696 4160 1766 4160 
C 1862 4160 1920 4160 1920 4282 
C 1920 4346 1850 4346 1830 4346 
C 1722 4346 1594 4346 1485 4346 
L 1126 4346 
C 659 4346 467 4346 461 4346 
C 422 4346 346 4346 346 4230 
C 346 4160 390 4160 493 4160 
C 819 4160 838 4102 858 3944 
L 1370 24 
C 1389 -109 1389 -128 1478 -128 
C 1555 -128 1587 -109 1651 -8 
L 3962 3640 
z
" transform="scale(0.015625)"/>
     </defs>
     <use xlink:href="#CMMI12-56" transform="scale(0.996264)"/>
     <use xlink:href="#CMR17-44" transform="translate(56.869579 -14.943915) scale(0.697382)"/>
     <use xlink:href="#CMR17-44" transform="translate(106.144849 -14.943915) scale(0.697382)"/>
    </g>
   </g>
   <g id="patch_11">
    <path d="M 219.2456 98.652 
C 219.961648 98.652 220.648466 98.367511 221.154788 97.861188 
C 221.661111 97.354866 221.9456 96.668048 221.9456 95.952 
C 221.9456 95.235952 221.661111 94.549134 221.154788 94.042812 
C 220.648466 93.536489 219.961648 93.252 219.2456 93.252 
C 218.529552 93.252 217.842734 93.536489 217.336412 94.042812 
C 216.830089 94.549134 216.5456 95.235952 216.5456 95.952 
C 216.5456 96.668048 216.830089 97.354866 217.336412 97.861188 
C 217.842734 98.367511 218.529552 98.652 219.2456 98.652 
z
" clip-path="url(#p39c1e1f64c)" style="stroke: #000000; stroke-width: 2; stroke-linejoin: miter"/>
   </g>
   <g id="text_5">
    <!-- $C_\mathrm{DEC2}$ -->
    <g transform="translate(233.6456 63.937056) scale(0.16 -0.16)">
     <use xlink:href="#CMMI12-43" transform="scale(0.996264)"/>
     <use xlink:href="#CMR17-44" transform="translate(69.792037 -14.943915) scale(0.697382)"/>
     <use xlink:href="#CMR17-45" transform="translate(119.067307 -14.943915) scale(0.697382)"/>
     <use xlink:href="#CMR17-43" transform="translate(162.877521 -14.943915) scale(0.697382)"/>
     <use xlink:href="#CMR17-32" transform="translate(209.434226 -14.943915) scale(0.697382)"/>
    </g>
   </g>
   <g id="text_6">
    <!-- $V_\mathrm{DD}$ -->
    <g transform="translate(206.172455 15.452524) scale(0.16 -0.16)">
     <use xlink:href="#CMMI12-56" transform="scale(0.996264)"/>
     <use xlink:href="#CMR17-44" transform="translate(56.869579 -14.943915) scale(0.697382)"/>
     <use xlink:href="#CMR17-44" transform="translate(106.144849 -14.943915) scale(0.697382)"/>
    </g>
   </g>
   <g id="patch_12">
    <path d="M 147.2456 98.652 
C 147.961648 98.652 148.648466 98.367511 149.154788 97.861188 
C 149.661111 97.354866 149.9456 96.668048 149.9456 95.952 
C 149.9456 95.235952 149.661111 94.549134 149.154788 94.042812 
C 148.648466 93.536489 147.961648 93.252 147.2456 93.252 
C 146.529552 93.252 145.842734 93.536489 145.336412 94.042812 
C 144.830089 94.549134 144.5456 95.235952 144.5456 95.952 
C 144.5456 96.668048 144.830089 97.354866 145.336412 97.861188 
C 145.842734 98.367511 146.529552 98.652 147.2456 98.652 
z
" clip-path="url(#p39c1e1f64c)" style="stroke: #000000; stroke-width: 2; stroke-linejoin: miter"/>
   </g>
   <g id="text_7">
    <!-- $M_{3}$ -->
    <g transform="translate(48.566783 99.937056) scale(0.16 -0.16)">
     <defs>
      <path id="CMR17-33" d="M 1414 2157 
C 1984 2157 2234 1662 2234 1090 
C 2234 320 1824 25 1453 25 
C 1114 25 563 194 390 693 
C 422 680 454 680 486 680 
C 640 680 755 782 755 948 
C 755 1133 614 1216 486 1216 
C 378 1216 211 1165 211 926 
C 211 335 787 -128 1466 -128 
C 2176 -128 2720 430 2720 1085 
C 2720 1707 2208 2157 1600 2227 
C 2086 2328 2554 2756 2554 3329 
C 2554 3820 2048 4179 1472 4179 
C 890 4179 378 3829 378 3329 
C 378 3110 544 3072 627 3072 
C 762 3072 877 3155 877 3321 
C 877 3486 762 3569 627 3569 
C 602 3569 570 3569 544 3557 
C 730 3959 1235 4032 1459 4032 
C 1683 4032 2106 3925 2106 3320 
C 2106 3143 2080 2828 1862 2550 
C 1670 2304 1453 2304 1242 2284 
C 1210 2284 1062 2269 1037 2269 
C 992 2263 966 2257 966 2208 
C 966 2163 973 2157 1101 2157 
L 1414 2157 
z
" transform="scale(0.015625)"/>
     </defs>
     <use xlink:href="#CMMI12-4d" transform="scale(0.996264)"/>
     <use xlink:href="#CMR17-33" transform="translate(94.373425 -14.943915) scale(0.697382)"/>
    </g>
   </g>
   <g id="text_8">
    <!-- $V_\mathrm{DD}$ -->
    <g transform="translate(65.172455 16.052524) scale(0.16 -0.16)">
     <use xlink:href="#CMMI12-56" transform="scale(0.996264)"/>
     <use xlink:href="#CMR17-44" transform="translate(56.869579 -14.943915) scale(0.697382)"/>
     <use xlink:href="#CMR17-44" transform="translate(106.144849 -14.943915) scale(0.697382)"/>
    </g>
   </g>
   <g id="patch_13">
    <path d="M 78.2456 146.652 
C 78.961648 146.652 79.648466 146.367511 80.154788 145.861188 
C 80.661111 145.354866 80.9456 144.668048 80.9456 143.952 
C 80.9456 143.235952 80.661111 142.549134 80.154788 142.042812 
C 79.648466 141.536489 78.961648 141.252 78.2456 141.252 
C 77.529552 141.252 76.842734 141.536489 76.336412 142.042812 
C 75.830089 142.549134 75.5456 143.235952 75.5456 143.952 
C 75.5456 144.668048 75.830089 145.354866 76.336412 145.861188 
C 76.842734 146.367511 77.529552 146.652 78.2456 146.652 
z
" clip-path="url(#p39c1e1f64c)" style="stroke: #000000; stroke-width: 2; stroke-linejoin: miter"/>
   </g>
   <g id="text_9">
    <!-- $M_{1}$ -->
    <g transform="translate(48.566783 249.937056) scale(0.16 -0.16)">
     <use xlink:href="#CMMI12-4d" transform="scale(0.996264)"/>
     <use xlink:href="#CMR17-31" transform="translate(94.373425 -14.943915) scale(0.697382)"/>
    </g>
   </g>
   <g id="patch_14">
    <path d="M 78.2456 296.652 
C 78.961648 296.652 79.648466 296.367511 80.154788 295.861188 
C 80.661111 295.354866 80.9456 294.668048 80.9456 293.952 
C 80.9456 293.235952 80.661111 292.549134 80.154788 292.042812 
C 79.648466 291.536489 78.961648 291.252 78.2456 291.252 
C 77.529552 291.252 76.842734 291.536489 76.336412 292.042812 
C 75.830089 292.549134 75.5456 293.235952 75.5456 293.952 
C 75.5456 294.668048 75.830089 295.354866 76.336412 295.861188 
C 76.842734 296.367511 77.529552 296.652 78.2456 296.652 
z
" clip-path="url(#p39c1e1f64c)" style="stroke: #000000; stroke-width: 2; stroke-linejoin: miter"/>
   </g>
   <g id="text_10">
    <!-- $C_\mathrm{DEC3}$ -->
    <g transform="translate(164.6456 342.937056) scale(0.16 -0.16)">
     <use xlink:href="#CMMI12-43" transform="scale(0.996264)"/>
     <use xlink:href="#CMR17-44" transform="translate(69.792037 -14.943915) scale(0.697382)"/>
     <use xlink:href="#CMR17-45" transform="translate(119.067307 -14.943915) scale(0.697382)"/>
     <use xlink:href="#CMR17-43" transform="translate(162.877521 -14.943915) scale(0.697382)"/>
     <use xlink:href="#CMR17-33" transform="translate(209.434226 -14.943915) scale(0.697382)"/>
    </g>
   </g>
   <g id="text_11">
    <!-- $R_\mathrm{1}$ -->
    <g transform="translate(110.4056 342.937056) scale(0.16 -0.16)">
     <defs>
      <path id="CMMI12-52" d="M 2355 3924 
C 2413 4160 2438 4160 2688 4160 
L 3149 4160 
C 3699 4160 4109 3995 4109 3499 
C 4109 3175 3942 2240 2656 2240 
L 1933 2240 
L 2355 3924 
z
M 3245 2169 
C 4038 2341 4659 2851 4659 3398 
C 4659 3894 4154 4352 3264 4352 
L 1530 4352 
C 1402 4352 1344 4352 1344 4226 
C 1344 4160 1389 4160 1510 4160 
C 1894 4160 1894 4112 1894 4045 
C 1894 4033 1894 3994 1869 3899 
L 1005 479 
C 947 256 934 192 493 192 
C 346 192 301 192 301 71 
C 301 7 371 7 390 7 
C 506 7 640 7 762 7 
L 1517 7 
C 1632 7 1766 7 1882 7 
C 1933 7 2003 7 2003 128 
C 2003 192 1946 192 1850 192 
C 1459 192 1459 243 1459 306 
C 1459 313 1459 357 1472 407 
L 1901 2112 
L 2669 2112 
C 3277 2112 3392 1731 3392 1522 
C 3392 1427 3328 1179 3283 1014 
C 3213 723 3194 652 3194 532 
C 3194 82 3565 -128 3994 -128 
C 4512 -128 4736 501 4736 591 
C 4736 635 4704 654 4666 654 
C 4614 654 4602 616 4589 565 
C 4435 114 4173 0 4013 0 
C 3853 0 3750 70 3750 356 
C 3750 509 3827 1088 3834 1120 
C 3866 1355 3866 1380 3866 1432 
C 3866 1896 3488 2093 3245 2169 
z
" transform="scale(0.015625)"/>
     </defs>
     <use xlink:href="#CMMI12-52" transform="scale(0.996264)"/>
     <use xlink:href="#CMR17-31" transform="translate(74.250826 -14.943915) scale(0.697382)"/>
    </g>
   </g>
   <g id="patch_15">
    <path d="M 396.2456 200.652 
C 396.961648 200.652 397.648466 200.367511 398.154788 199.861188 
C 398.661111 199.354866 398.9456 198.668048 398.9456 197.952 
C 398.9456 197.235952 398.661111 196.549134 398.154788 196.042812 
C 397.648466 195.536489 396.961648 195.252 396.2456 195.252 
C 395.529552 195.252 394.842734 195.536489 394.336412 196.042812 
C 393.830089 196.549134 393.5456 197.235952 393.5456 197.952 
C 393.5456 198.668048 393.830089 199.354866 394.336412 199.861188 
C 394.842734 200.367511 395.529552 200.652 396.2456 200.652 
z
" clip-path="url(#p39c1e1f64c)" style="fill: #ffffff; stroke: #000000; stroke-width: 2; stroke-linejoin: miter"/>
   </g>
   <g id="text_12">
    <!-- $V_\mathrm{bias}$ -->
    <g transform="translate(404.3456 201.937056) scale(0.16 -0.16)">
     <defs>
      <path id="CMR17-62" d="M 960 4396 
L 198 4326 
L 198 4160 
C 576 4160 634 4122 634 3817 
L 634 -13 
L 749 -13 
L 934 441 
C 1120 141 1395 -64 1766 -64 
C 2406 -64 3053 500 3053 1370 
C 3053 2188 2477 2790 1830 2790 
C 1434 2790 1152 2579 960 2330 
L 960 4396 
z
M 973 2004 
C 973 2118 973 2138 1062 2272 
C 1312 2657 1670 2688 1792 2688 
C 1984 2688 2643 2585 2643 1376 
C 2643 108 1888 38 1734 38 
C 1536 38 1248 114 1043 486 
C 973 608 973 621 973 735 
L 973 2004 
z
" transform="scale(0.015625)"/>
      <path id="CMR17-69" d="M 992 3909 
C 992 4049 877 4170 730 4170 
C 589 4170 467 4056 467 3909 
C 467 3769 582 3648 730 3648 
C 870 3648 992 3763 992 3909 
z
M 243 2706 
L 243 2541 
C 602 2541 653 2502 653 2197 
L 653 427 
C 653 184 627 153 218 153 
L 218 -13 
C 371 0 646 0 806 0 
C 960 0 1222 0 1370 -13 
L 1370 153 
C 992 153 979 191 979 420 
L 979 2776 
L 243 2706 
z
" transform="scale(0.015625)"/>
      <path id="CMR17-61" d="M 2304 1653 
C 2304 2072 2304 2294 2035 2543 
C 1798 2752 1523 2816 1306 2816 
C 800 2816 435 2407 435 1971 
C 435 1728 627 1728 666 1728 
C 749 1728 896 1778 896 1954 
C 896 2112 774 2181 666 2181 
C 640 2181 608 2174 589 2168 
C 723 2592 1069 2714 1293 2714 
C 1613 2714 1965 2429 1965 1885 
L 1965 1600 
C 1587 1600 1133 1549 774 1357 
C 371 1133 256 813 256 570 
C 256 77 832 -64 1171 -64 
C 1523 -64 1850 139 1990 511 
C 2003 233 2182 -18 2464 -18 
C 2598 -18 2938 70 2938 567 
L 2938 920 
L 2822 920 
L 2822 562 
C 2822 178 2650 128 2566 128 
C 2304 128 2304 458 2304 738 
L 2304 1653 
z
M 1965 870 
C 1965 317 1568 38 1216 38 
C 896 38 646 275 646 570 
C 646 761 730 1100 1101 1305 
C 1408 1478 1760 1504 1965 1504 
L 1965 870 
z
" transform="scale(0.015625)"/>
      <path id="CMR17-73" d="M 1978 2697 
C 1978 2813 1971 2819 1933 2819 
C 1907 2819 1901 2813 1824 2717 
C 1805 2691 1747 2626 1728 2601 
C 1523 2819 1235 2819 1126 2819 
C 416 2819 160 2447 160 2076 
C 160 1498 813 1365 998 1325 
C 1402 1243 1542 1217 1677 1101 
C 1760 1025 1901 884 1901 654 
C 1901 384 1747 38 1158 38 
C 602 38 403 460 288 1021 
C 269 1110 269 1117 218 1117 
C 166 1117 160 1110 160 983 
L 160 63 
C 160 -51 166 -58 205 -58 
C 237 -58 243 -51 275 0 
C 314 57 410 211 448 276 
C 576 103 800 -64 1158 -64 
C 1792 -64 2131 283 2131 784 
C 2131 1112 1958 1285 1875 1362 
C 1683 1561 1459 1606 1190 1657 
C 838 1735 390 1825 390 2217 
C 390 2383 480 2737 1126 2737 
C 1811 2737 1850 2094 1862 1888 
C 1869 1856 1901 1849 1920 1849 
C 1978 1849 1978 1869 1978 1978 
L 1978 2697 
z
" transform="scale(0.015625)"/>
     </defs>
     <use xlink:href="#CMMI12-56" transform="scale(0.996264)"/>
     <use xlink:href="#CMR17-62" transform="translate(56.869579 -14.943915) scale(0.697382)"/>
     <use xlink:href="#CMR17-69" transform="translate(92.496187 -14.943915) scale(0.697382)"/>
     <use xlink:href="#CMR17-61" transform="translate(109.905846 -14.943915) scale(0.697382)"/>
     <use xlink:href="#CMR17-73" transform="translate(141.889028 -14.943915) scale(0.697382)"/>
    </g>
   </g>
   <g id="patch_16">
    <path d="M 147.2456 98.652 
C 147.961648 98.652 148.648466 98.367511 149.154788 97.861188 
C 149.661111 97.354866 149.9456 96.668048 149.9456 95.952 
C 149.9456 95.235952 149.661111 94.549134 149.154788 94.042812 
C 148.648466 93.536489 147.961648 93.252 147.2456 93.252 
C 146.529552 93.252 145.842734 93.536489 145.336412 94.042812 
C 144.830089 94.549134 144.5456 95.235952 144.5456 95.952 
C 144.5456 96.668048 144.830089 97.354866 145.336412 97.861188 
C 145.842734 98.367511 146.529552 98.652 147.2456 98.652 
z
" clip-path="url(#p39c1e1f64c)" style="stroke: #000000; stroke-width: 2; stroke-linejoin: miter"/>
   </g>
   <g id="text_13">
    <!-- $V_\mathrm{GS,34}$ -->
    <g transform="translate(128.089728 83.291344) scale(0.16 -0.16)">
     <defs>
      <path id="CMR17-47" d="M 3974 1233 
C 3974 1473 3994 1505 4390 1505 
L 4390 1670 
C 4237 1664 3891 1664 3718 1664 
C 3539 1664 3040 1664 2797 1664 
L 2797 1505 
L 2989 1505 
C 3539 1505 3552 1434 3552 1201 
L 3552 774 
C 3552 63 2720 63 2522 63 
C 1862 63 781 511 781 2160 
C 781 3808 1843 4250 2464 4250 
C 3187 4250 3712 3626 3834 2741 
C 3846 2664 3846 2651 3904 2651 
C 3974 2651 3974 2664 3974 2779 
L 3974 4288 
C 3974 4402 3968 4409 3930 4409 
C 3904 4409 3898 4402 3853 4326 
L 3571 3791 
C 3258 4187 2874 4416 2381 4416 
C 1286 4416 294 3456 294 2148 
C 294 845 1267 -128 2394 -128 
C 2912 -128 3418 56 3616 417 
C 3725 158 3904 -20 3936 -20 
C 3968 -20 3974 -13 3974 100 
L 3974 1233 
z
" transform="scale(0.015625)"/>
      <path id="CMR17-53" d="M 2803 4290 
C 2803 4404 2797 4411 2758 4411 
C 2720 4411 2707 4385 2682 4328 
L 2490 3907 
C 2246 4257 1875 4416 1472 4416 
C 819 4416 294 3901 294 3253 
C 294 3056 339 2776 557 2510 
C 794 2218 1018 2167 1530 2033 
C 1722 1982 2042 1899 2106 1874 
C 2470 1722 2662 1341 2662 985 
C 2662 527 2336 38 1779 38 
C 1094 38 454 419 410 1311 
C 403 1413 397 1419 352 1419 
C 301 1419 294 1413 294 1285 
L 294 -1 
C 294 -115 301 -122 339 -122 
C 384 -122 397 -90 486 108 
C 493 127 493 140 614 381 
C 934 -39 1472 -128 1779 -128 
C 2477 -128 2970 451 2970 1124 
C 2970 1454 2848 1708 2778 1823 
C 2509 2230 2221 2306 1914 2382 
C 1869 2402 1856 2402 1498 2490 
C 1152 2579 1005 2624 845 2796 
C 666 2992 602 3196 602 3399 
C 602 3812 934 4263 1478 4263 
C 2157 4263 2579 3786 2675 2993 
C 2694 2878 2701 2872 2746 2872 
C 2803 2872 2803 2891 2803 2999 
L 2803 4290 
z
" transform="scale(0.015625)"/>
      <path id="CMMI12-3b" d="M 1248 -31 
C 1248 343 1126 619 864 619 
C 659 619 557 453 557 313 
C 557 172 653 0 870 0 
C 954 0 1024 26 1082 83 
C 1094 96 1101 96 1107 96 
C 1120 96 1120 5 1120 -27 
C 1120 -240 1082 -659 710 -1080 
C 640 -1157 640 -1170 640 -1183 
C 640 -1216 672 -1248 704 -1248 
C 755 -1248 1248 -771 1248 -31 
z
" transform="scale(0.015625)"/>
     </defs>
     <use xlink:href="#CMMI12-56" transform="scale(0.996264)"/>
     <use xlink:href="#CMR17-47" transform="translate(56.869579 -14.943915) scale(0.697382)"/>
     <use xlink:href="#CMR17-53" transform="translate(107.518102 -14.943915) scale(0.697382)"/>
     <use xlink:href="#CMMI12-3b" transform="translate(143.144711 -14.943915) scale(0.697382)"/>
     <use xlink:href="#CMR17-33" transform="translate(162.112643 -14.943915) scale(0.697382)"/>
     <use xlink:href="#CMR17-34" transform="translate(194.095825 -14.943915) scale(0.697382)"/>
    </g>
   </g>
   <g id="patch_17">
    <path d="M 42.2456 146.652 
C 42.961648 146.652 43.648466 146.367511 44.154788 145.861188 
C 44.661111 145.354866 44.9456 144.668048 44.9456 143.952 
C 44.9456 143.235952 44.661111 142.549134 44.154788 142.042812 
C 43.648466 141.536489 42.961648 141.252 42.2456 141.252 
C 41.529552 141.252 40.842734 141.536489 40.336412 142.042812 
C 39.830089 142.549134 39.5456 143.235952 39.5456 143.952 
C 39.5456 144.668048 39.830089 145.354866 40.336412 145.861188 
C 40.842734 146.367511 41.529552 146.652 42.2456 146.652 
z
" clip-path="url(#p39c1e1f64c)" style="fill: #ffffff; stroke: #000000; stroke-width: 2; stroke-linejoin: miter"/>
   </g>
   <g id="text_14">
    <!-- $V_\mathrm{SU,1}$ -->
    <g transform="translate(1.800357 147.117916) scale(0.16 -0.16)">
     <defs>
      <path id="CMR17-55" d="M 3456 1433 
C 3456 579 2899 38 2291 38 
C 1965 38 1670 210 1491 477 
C 1286 783 1261 1178 1261 1401 
L 1261 3874 
C 1261 4160 1331 4160 1773 4160 
L 1773 4320 
C 1587 4320 1248 4320 1050 4320 
C 851 4320 512 4320 326 4320 
L 326 4160 
C 768 4160 838 4160 838 3874 
L 838 1433 
C 838 516 1536 -128 2278 -128 
C 3110 -128 3590 719 3590 1344 
L 3590 3766 
C 3590 4122 3917 4160 4102 4160 
L 4102 4326 
C 3955 4320 3686 4320 3526 4320 
C 3366 4320 3091 4320 2944 4326 
L 2944 4160 
C 3456 4160 3456 3861 3456 3702 
L 3456 1433 
z
" transform="scale(0.015625)"/>
     </defs>
     <use xlink:href="#CMMI12-56" transform="scale(0.996264)"/>
     <use xlink:href="#CMR17-53" transform="translate(56.869579 -14.943915) scale(0.697382)"/>
     <use xlink:href="#CMR17-55" transform="translate(92.496187 -14.943915) scale(0.697382)"/>
     <use xlink:href="#CMMI12-3b" transform="translate(140.846672 -14.943915) scale(0.697382)"/>
     <use xlink:href="#CMR17-31" transform="translate(159.814605 -14.943915) scale(0.697382)"/>
    </g>
   </g>
   <g id="patch_18">
    <path d="M 42.2456 200.652 
C 42.961648 200.652 43.648466 200.367511 44.154788 199.861188 
C 44.661111 199.354866 44.9456 198.668048 44.9456 197.952 
C 44.9456 197.235952 44.661111 196.549134 44.154788 196.042812 
C 43.648466 195.536489 42.961648 195.252 42.2456 195.252 
C 41.529552 195.252 40.842734 195.536489 40.336412 196.042812 
C 39.830089 196.549134 39.5456 197.235952 39.5456 197.952 
C 39.5456 198.668048 39.830089 199.354866 40.336412 199.861188 
C 40.842734 200.367511 41.529552 200.652 42.2456 200.652 
z
" clip-path="url(#p39c1e1f64c)" style="fill: #ffffff; stroke: #000000; stroke-width: 2; stroke-linejoin: miter"/>
   </g>
   <g id="text_15">
    <!-- $V_\mathrm{SU,2}$ -->
    <g transform="translate(1.800357 201.117916) scale(0.16 -0.16)">
     <use xlink:href="#CMMI12-56" transform="scale(0.996264)"/>
     <use xlink:href="#CMR17-53" transform="translate(56.869579 -14.943915) scale(0.697382)"/>
     <use xlink:href="#CMR17-55" transform="translate(92.496187 -14.943915) scale(0.697382)"/>
     <use xlink:href="#CMMI12-3b" transform="translate(140.846672 -14.943915) scale(0.697382)"/>
     <use xlink:href="#CMR17-32" transform="translate(159.814605 -14.943915) scale(0.697382)"/>
    </g>
   </g>
  </g>
 </g>
 <defs>
  <clipPath id="p39c1e1f64c">
   <rect x="0" y="0" width="435.8144" height="406.032"/>
  </clipPath>
 </defs>
</svg>
