<?xml version="1.0" encoding="utf-8" standalone="no"?>
<!DOCTYPE svg PUBLIC "-//W3C//DTD SVG 1.1//EN"
  "http://www.w3.org/Graphics/SVG/1.1/DTD/svg11.dtd">
<svg xmlns:xlink="http://www.w3.org/1999/xlink" width="537.3176pt" height="307.4712pt" viewBox="0 0 537.3176 307.4712" xmlns="http://www.w3.org/2000/svg" version="1.1">
 <metadata>
  <rdf:RDF xmlns:dc="http://purl.org/dc/elements/1.1/" xmlns:cc="http://creativecommons.org/ns#" xmlns:rdf="http://www.w3.org/1999/02/22-rdf-syntax-ns#">
   <cc:Work>
    <dc:type rdf:resource="http://purl.org/dc/dcmitype/StillImage"/>
    <dc:date>2025-05-26T08:17:14.057026</dc:date>
    <dc:format>image/svg+xml</dc:format>
    <dc:creator>
     <cc:Agent>
      <dc:title>Matplotlib v3.9.2, https://matplotlib.org/</dc:title>
     </cc:Agent>
    </dc:creator>
   </cc:Work>
  </rdf:RDF>
 </metadata>
 <defs>
  <style type="text/css">*{stroke-linejoin: round; stroke-linecap: butt}</style>
 </defs>
 <g id="figure_1">
  <g id="patch_1">
   <path d="M 0 307.4712 
L 537.3176 307.4712 
L 537.3176 0 
L 0 0 
L 0 307.4712 
z
" style="fill: none"/>
  </g>
  <g id="axes_1">
   <g id="patch_2">
    <path d="M 191.6188 111.6156 
C 192.382585 111.6156 193.11519 111.312145 193.655268 110.772068 
C 194.195345 110.23199 194.4988 109.499385 194.4988 108.7356 
C 194.4988 107.971815 194.195345 107.23921 193.655268 106.699132 
C 193.11519 106.159055 192.382585 105.8556 191.6188 105.8556 
C 190.855015 105.8556 190.12241 106.159055 189.582332 106.699132 
C 189.042255 107.23921 188.7388 107.971815 188.7388 108.7356 
C 188.7388 109.499385 189.042255 110.23199 189.582332 110.772068 
C 190.12241 111.312145 190.855015 111.6156 191.6188 111.6156 
L 191.6188 111.6156 
z
" clip-path="url(#pe909827d42)" style="fill: none; stroke: #000000; stroke-width: 2; stroke-linejoin: miter"/>
   </g>
   <g id="patch_3">
    <path d="M 191.6188 207.0156 
C 192.382585 207.0156 193.11519 206.712145 193.655268 206.172068 
C 194.195345 205.63199 194.4988 204.899385 194.4988 204.1356 
C 194.4988 203.371815 194.195345 202.63921 193.655268 202.099132 
C 193.11519 201.559055 192.382585 201.2556 191.6188 201.2556 
C 190.855015 201.2556 190.12241 201.559055 189.582332 202.099132 
C 189.042255 202.63921 188.7388 203.371815 188.7388 204.1356 
C 188.7388 204.899385 189.042255 205.63199 189.582332 206.172068 
C 190.12241 206.712145 190.855015 207.0156 191.6188 207.0156 
L 191.6188 207.0156 
z
" clip-path="url(#pe909827d42)" style="fill: none; stroke: #000000; stroke-width: 2; stroke-linejoin: miter"/>
   </g>
   <g id="patch_4">
    <path d="M 371.6188 111.6156 
C 372.382585 111.6156 373.11519 111.312145 373.655268 110.772068 
C 374.195345 110.23199 374.4988 109.499385 374.4988 108.7356 
C 374.4988 107.971815 374.195345 107.23921 373.655268 106.699132 
C 373.11519 106.159055 372.382585 105.8556 371.6188 105.8556 
C 370.855015 105.8556 370.12241 106.159055 369.582332 106.699132 
C 369.042255 107.23921 368.7388 107.971815 368.7388 108.7356 
C 368.7388 109.499385 369.042255 110.23199 369.582332 110.772068 
C 370.12241 111.312145 370.855015 111.6156 371.6188 111.6156 
L 371.6188 111.6156 
z
" clip-path="url(#pe909827d42)" style="fill: none; stroke: #000000; stroke-width: 2; stroke-linejoin: miter"/>
   </g>
   <g id="patch_5">
    <path d="M 371.6188 207.0156 
C 372.382585 207.0156 373.11519 206.712145 373.655268 206.172068 
C 374.195345 205.63199 374.4988 204.899385 374.4988 204.1356 
C 374.4988 203.371815 374.195345 202.63921 373.655268 202.099132 
C 373.11519 201.559055 372.382585 201.2556 371.6188 201.2556 
C 370.855015 201.2556 370.12241 201.559055 369.582332 202.099132 
C 369.042255 202.63921 368.7388 203.371815 368.7388 204.1356 
C 368.7388 204.899385 369.042255 205.63199 369.582332 206.172068 
C 370.12241 206.712145 370.855015 207.0156 371.6188 207.0156 
L 371.6188 207.0156 
z
" clip-path="url(#pe909827d42)" style="fill: none; stroke: #000000; stroke-width: 2; stroke-linejoin: miter"/>
   </g>
   <g id="line2d_1">
    <path d="M 268.6588 25.0356 
L 268.6588 43.0356 
L 268.6588 61.0356 
" clip-path="url(#pe909827d42)" style="fill: none; stroke: #000000; stroke-width: 2; stroke-linecap: round"/>
   </g>
   <g id="line2d_2">
    <path d="M 268.6588 61.0356 
L 223.6588 61.0356 
L 178.6588 61.0356 
" clip-path="url(#pe909827d42)" style="fill: none; stroke: #000000; stroke-width: 2; stroke-linecap: round"/>
   </g>
   <g id="line2d_3">
    <path d="M 178.6588 61.0356 
L 178.6588 79.0356 
L 178.6588 97.0356 
" clip-path="url(#pe909827d42)" style="fill: none; stroke: #000000; stroke-width: 2; stroke-linecap: round"/>
   </g>
   <g id="line2d_4">
    <path d="M 178.6588 72.7356 
L 178.6588 97.0356 
M 178.6588 120.4356 
L 178.6588 144.7356 
" clip-path="url(#pe909827d42)" style="fill: none; stroke: #000000; stroke-width: 2; stroke-linecap: round"/>
   </g>
   <g id="line2d_5">
    <path d="M 178.6588 97.0356 
L 160.6588 97.0356 
L 178.6588 120.4356 
L 196.6588 97.0356 
L 178.6588 97.0356 
" clip-path="url(#pe909827d42)" style="fill: none; stroke: #000000; stroke-width: 2; stroke-linecap: round"/>
   </g>
   <g id="line2d_6">
    <path d="M 178.6588 120.4356 
L 160.6588 120.4356 
L 178.6588 97.0356 
L 196.6588 120.4356 
L 178.6588 120.4356 
" clip-path="url(#pe909827d42)" style="fill: none; stroke: #000000; stroke-width: 2; stroke-linecap: round"/>
   </g>
   <g id="line2d_7">
    <path d="M 194.4988 108.7356 
L 203.8588 108.7356 
" clip-path="url(#pe909827d42)" style="fill: none; stroke: #000000; stroke-width: 2; stroke-linecap: round"/>
   </g>
   <g id="line2d_8">
    <path d="M 168.5788 108.7356 
L 153.4588 108.7356 
" clip-path="url(#pe909827d42)" style="fill: none; stroke: #000000; stroke-width: 2; stroke-linecap: round"/>
   </g>
   <g id="line2d_9">
    <path d="M 153.4588 108.7356 
L 144.4588 108.7356 
L 135.4588 108.7356 
" clip-path="url(#pe909827d42)" style="fill: none; stroke: #000000; stroke-width: 2; stroke-linecap: round"/>
   </g>
   <g id="line2d_10">
    <path d="M 203.8588 108.7356 
L 212.8588 108.7356 
L 221.8588 108.7356 
" clip-path="url(#pe909827d42)" style="fill: none; stroke: #000000; stroke-width: 2; stroke-linecap: round"/>
   </g>
   <g id="line2d_11">
    <path d="M 178.6588 120.4356 
L 178.6588 138.4356 
L 178.6588 156.4356 
" clip-path="url(#pe909827d42)" style="fill: none; stroke: #000000; stroke-width: 2; stroke-linecap: round"/>
   </g>
   <g id="line2d_12">
    <path d="M 178.6588 156.4356 
L 124.6588 156.4356 
L 70.6588 156.4356 
" clip-path="url(#pe909827d42)" style="fill: none; stroke: #000000; stroke-width: 2; stroke-linecap: round"/>
   </g>
   <g id="line2d_13">
    <path d="M 70.6588 156.4356 
L 70.6588 160.9356 
L 70.6588 165.4356 
" clip-path="url(#pe909827d42)" style="fill: none; stroke: #000000; stroke-width: 2; stroke-linecap: round"/>
   </g>
   <g id="line2d_14">
    <path d="M 70.6588 165.4356 
L 70.6588 198.1956 
M 79.6588 198.1956 
L 61.6588 198.1956 
M 79.6588 204.6756 
L 61.6588 204.6756 
M 70.6588 204.6756 
L 70.6588 237.4356 
" clip-path="url(#pe909827d42)" style="fill: none; stroke: #000000; stroke-width: 2; stroke-linecap: round"/>
   </g>
   <g id="line2d_15">
    <path d="M 70.6588 237.4356 
L 70.6588 241.9356 
L 70.6588 246.4356 
" clip-path="url(#pe909827d42)" style="fill: none; stroke: #000000; stroke-width: 2; stroke-linecap: round"/>
   </g>
   <g id="line2d_16">
    <path d="M 70.6588 246.4356 
L 169.6588 246.4356 
L 268.6588 246.4356 
" clip-path="url(#pe909827d42)" style="fill: none; stroke: #000000; stroke-width: 2; stroke-linecap: round"/>
   </g>
   <g id="line2d_17">
    <path d="M 178.6588 156.4356 
L 178.6588 174.4356 
L 178.6588 192.4356 
" clip-path="url(#pe909827d42)" style="fill: none; stroke: #000000; stroke-width: 2; stroke-linecap: round"/>
   </g>
   <g id="line2d_18">
    <path d="M 178.6588 168.1356 
L 178.6588 192.4356 
M 178.6588 215.8356 
L 178.6588 240.1356 
" clip-path="url(#pe909827d42)" style="fill: none; stroke: #000000; stroke-width: 2; stroke-linecap: round"/>
   </g>
   <g id="line2d_19">
    <path d="M 178.6588 192.4356 
L 160.6588 192.4356 
L 178.6588 215.8356 
L 196.6588 192.4356 
L 178.6588 192.4356 
" clip-path="url(#pe909827d42)" style="fill: none; stroke: #000000; stroke-width: 2; stroke-linecap: round"/>
   </g>
   <g id="line2d_20">
    <path d="M 178.6588 215.8356 
L 160.6588 215.8356 
L 178.6588 192.4356 
L 196.6588 215.8356 
L 178.6588 215.8356 
" clip-path="url(#pe909827d42)" style="fill: none; stroke: #000000; stroke-width: 2; stroke-linecap: round"/>
   </g>
   <g id="line2d_21">
    <path d="M 194.4988 204.1356 
L 203.8588 204.1356 
" clip-path="url(#pe909827d42)" style="fill: none; stroke: #000000; stroke-width: 2; stroke-linecap: round"/>
   </g>
   <g id="line2d_22">
    <path d="M 168.5788 204.1356 
L 153.4588 204.1356 
" clip-path="url(#pe909827d42)" style="fill: none; stroke: #000000; stroke-width: 2; stroke-linecap: round"/>
   </g>
   <g id="line2d_23">
    <path d="M 153.4588 204.1356 
L 144.4588 204.1356 
L 135.4588 204.1356 
" clip-path="url(#pe909827d42)" style="fill: none; stroke: #000000; stroke-width: 2; stroke-linecap: round"/>
   </g>
   <g id="line2d_24">
    <path d="M 203.8588 204.1356 
L 212.8588 204.1356 
L 221.8588 204.1356 
" clip-path="url(#pe909827d42)" style="fill: none; stroke: #000000; stroke-width: 2; stroke-linecap: round"/>
   </g>
   <g id="line2d_25">
    <path d="M 178.6588 215.8356 
L 178.6588 231.1356 
L 178.6588 246.4356 
" clip-path="url(#pe909827d42)" style="fill: none; stroke: #000000; stroke-width: 2; stroke-linecap: round"/>
   </g>
   <g id="line2d_26">
    <path d="M 268.6588 61.0356 
L 313.6588 61.0356 
L 358.6588 61.0356 
" clip-path="url(#pe909827d42)" style="fill: none; stroke: #000000; stroke-width: 2; stroke-linecap: round"/>
   </g>
   <g id="line2d_27">
    <path d="M 358.6588 61.0356 
L 358.6588 79.0356 
L 358.6588 97.0356 
" clip-path="url(#pe909827d42)" style="fill: none; stroke: #000000; stroke-width: 2; stroke-linecap: round"/>
   </g>
   <g id="line2d_28">
    <path d="M 358.6588 72.7356 
L 358.6588 97.0356 
M 358.6588 120.4356 
L 358.6588 144.7356 
" clip-path="url(#pe909827d42)" style="fill: none; stroke: #000000; stroke-width: 2; stroke-linecap: round"/>
   </g>
   <g id="line2d_29">
    <path d="M 358.6588 97.0356 
L 340.6588 97.0356 
L 358.6588 120.4356 
L 376.6588 97.0356 
L 358.6588 97.0356 
" clip-path="url(#pe909827d42)" style="fill: none; stroke: #000000; stroke-width: 2; stroke-linecap: round"/>
   </g>
   <g id="line2d_30">
    <path d="M 358.6588 120.4356 
L 340.6588 120.4356 
L 358.6588 97.0356 
L 376.6588 120.4356 
L 358.6588 120.4356 
" clip-path="url(#pe909827d42)" style="fill: none; stroke: #000000; stroke-width: 2; stroke-linecap: round"/>
   </g>
   <g id="line2d_31">
    <path d="M 374.4988 108.7356 
L 383.8588 108.7356 
" clip-path="url(#pe909827d42)" style="fill: none; stroke: #000000; stroke-width: 2; stroke-linecap: round"/>
   </g>
   <g id="line2d_32">
    <path d="M 348.5788 108.7356 
L 333.4588 108.7356 
" clip-path="url(#pe909827d42)" style="fill: none; stroke: #000000; stroke-width: 2; stroke-linecap: round"/>
   </g>
   <g id="line2d_33">
    <path d="M 333.4588 108.7356 
L 324.4588 108.7356 
L 315.4588 108.7356 
" clip-path="url(#pe909827d42)" style="fill: none; stroke: #000000; stroke-width: 2; stroke-linecap: round"/>
   </g>
   <g id="line2d_34">
    <path d="M 383.8588 108.7356 
L 392.8588 108.7356 
L 401.8588 108.7356 
" clip-path="url(#pe909827d42)" style="fill: none; stroke: #000000; stroke-width: 2; stroke-linecap: round"/>
   </g>
   <g id="line2d_35">
    <path d="M 358.6588 120.4356 
L 358.6588 138.4356 
L 358.6588 156.4356 
" clip-path="url(#pe909827d42)" style="fill: none; stroke: #000000; stroke-width: 2; stroke-linecap: round"/>
   </g>
   <g id="line2d_36">
    <path d="M 358.6588 156.4356 
L 412.6588 156.4356 
L 466.6588 156.4356 
" clip-path="url(#pe909827d42)" style="fill: none; stroke: #000000; stroke-width: 2; stroke-linecap: round"/>
   </g>
   <g id="line2d_37">
    <path d="M 466.6588 156.4356 
L 466.6588 160.9356 
L 466.6588 165.4356 
" clip-path="url(#pe909827d42)" style="fill: none; stroke: #000000; stroke-width: 2; stroke-linecap: round"/>
   </g>
   <g id="line2d_38">
    <path d="M 466.6588 165.4356 
L 466.6588 198.1956 
M 475.6588 198.1956 
L 457.6588 198.1956 
M 475.6588 204.6756 
L 457.6588 204.6756 
M 466.6588 204.6756 
L 466.6588 237.4356 
" clip-path="url(#pe909827d42)" style="fill: none; stroke: #000000; stroke-width: 2; stroke-linecap: round"/>
   </g>
   <g id="line2d_39">
    <path d="M 466.6588 237.4356 
L 466.6588 241.9356 
L 466.6588 246.4356 
" clip-path="url(#pe909827d42)" style="fill: none; stroke: #000000; stroke-width: 2; stroke-linecap: round"/>
   </g>
   <g id="line2d_40">
    <path d="M 466.6588 246.4356 
L 367.6588 246.4356 
L 268.6588 246.4356 
" clip-path="url(#pe909827d42)" style="fill: none; stroke: #000000; stroke-width: 2; stroke-linecap: round"/>
   </g>
   <g id="line2d_41">
    <path d="M 268.6588 246.4356 
L 268.6588 264.4356 
L 268.6588 282.4356 
" clip-path="url(#pe909827d42)" style="fill: none; stroke: #000000; stroke-width: 2; stroke-linecap: round"/>
   </g>
   <g id="line2d_42">
    <path d="M 358.6588 156.4356 
L 358.6588 174.4356 
L 358.6588 192.4356 
" clip-path="url(#pe909827d42)" style="fill: none; stroke: #000000; stroke-width: 2; stroke-linecap: round"/>
   </g>
   <g id="line2d_43">
    <path d="M 358.6588 168.1356 
L 358.6588 192.4356 
M 358.6588 215.8356 
L 358.6588 240.1356 
" clip-path="url(#pe909827d42)" style="fill: none; stroke: #000000; stroke-width: 2; stroke-linecap: round"/>
   </g>
   <g id="line2d_44">
    <path d="M 358.6588 192.4356 
L 340.6588 192.4356 
L 358.6588 215.8356 
L 376.6588 192.4356 
L 358.6588 192.4356 
" clip-path="url(#pe909827d42)" style="fill: none; stroke: #000000; stroke-width: 2; stroke-linecap: round"/>
   </g>
   <g id="line2d_45">
    <path d="M 358.6588 215.8356 
L 340.6588 215.8356 
L 358.6588 192.4356 
L 376.6588 215.8356 
L 358.6588 215.8356 
" clip-path="url(#pe909827d42)" style="fill: none; stroke: #000000; stroke-width: 2; stroke-linecap: round"/>
   </g>
   <g id="line2d_46">
    <path d="M 374.4988 204.1356 
L 383.8588 204.1356 
" clip-path="url(#pe909827d42)" style="fill: none; stroke: #000000; stroke-width: 2; stroke-linecap: round"/>
   </g>
   <g id="line2d_47">
    <path d="M 348.5788 204.1356 
L 333.4588 204.1356 
" clip-path="url(#pe909827d42)" style="fill: none; stroke: #000000; stroke-width: 2; stroke-linecap: round"/>
   </g>
   <g id="line2d_48">
    <path d="M 333.4588 204.1356 
L 324.4588 204.1356 
L 315.4588 204.1356 
" clip-path="url(#pe909827d42)" style="fill: none; stroke: #000000; stroke-width: 2; stroke-linecap: round"/>
   </g>
   <g id="line2d_49">
    <path d="M 383.8588 204.1356 
L 392.8588 204.1356 
L 401.8588 204.1356 
" clip-path="url(#pe909827d42)" style="fill: none; stroke: #000000; stroke-width: 2; stroke-linecap: round"/>
   </g>
   <g id="line2d_50">
    <path d="M 358.6588 215.8356 
L 358.6588 231.1356 
L 358.6588 246.4356 
" clip-path="url(#pe909827d42)" style="fill: none; stroke: #000000; stroke-width: 2; stroke-linecap: round"/>
   </g>
   <g id="patch_6">
    <path d="M 268.6588 63.7356 
C 269.374848 63.7356 270.061666 63.451111 270.567988 62.944788 
C 271.074311 62.438466 271.3588 61.751648 271.3588 61.0356 
C 271.3588 60.319552 271.074311 59.632734 270.567988 59.126412 
C 270.061666 58.620089 269.374848 58.3356 268.6588 58.3356 
C 267.942752 58.3356 267.255934 58.620089 266.749612 59.126412 
C 266.243289 59.632734 265.9588 60.319552 265.9588 61.0356 
C 265.9588 61.751648 266.243289 62.438466 266.749612 62.944788 
C 267.255934 63.451111 267.942752 63.7356 268.6588 63.7356 
z
" clip-path="url(#pe909827d42)" style="stroke: #000000; stroke-width: 2; stroke-linejoin: miter"/>
   </g>
   <g id="text_1">
    <!-- $X_1$ -->
    <g transform="translate(151.507155 88.822524) scale(0.14 -0.14)">
     <defs>
      <path id="CMMI12-58" d="M 3040 2596 
L 2438 3994 
C 2522 4147 2714 4172 2790 4179 
C 2829 4179 2899 4179 2899 4292 
C 2899 4364 2842 4364 2803 4364 
C 2694 4364 2566 4364 2458 4364 
L 2086 4364 
C 1696 4364 1414 4364 1408 4364 
C 1357 4364 1293 4364 1293 4243 
C 1293 4179 1350 4179 1434 4179 
C 1805 4179 1830 4115 1894 3962 
L 2656 2185 
L 1267 693 
C 1037 442 762 198 288 198 
C 211 192 160 192 160 68 
C 160 48 166 0 237 0 
C 326 0 422 0 512 0 
L 813 0 
C 1018 0 1242 0 1440 0 
C 1485 0 1562 0 1562 115 
C 1562 179 1517 185 1478 185 
C 1350 198 1267 268 1267 370 
C 1267 479 1344 557 1530 748 
L 2099 1368 
C 2240 1516 2579 1886 2720 2026 
L 3392 453 
C 3398 441 3424 377 3424 370 
C 3424 313 3283 198 3078 198 
C 3040 198 2970 198 2970 71 
C 2970 0 3034 0 3066 0 
C 3174 0 3302 0 3411 0 
L 4115 0 
C 4230 0 4352 0 4461 0 
C 4506 0 4576 0 4576 130 
C 4576 198 4512 198 4454 198 
C 4070 198 4058 230 3949 465 
L 3104 2441 
L 3917 3316 
C 3981 3381 4128 3542 4186 3606 
C 4461 3896 4717 4160 5235 4160 
C 5299 4179 5363 4179 5363 4292 
C 5363 4364 5306 4364 5280 4364 
C 5190 4364 5094 4364 5005 4364 
L 4710 4364 
C 4506 4364 4282 4364 4083 4364 
C 4038 4364 3962 4364 3962 4249 
C 3962 4185 4006 4179 4045 4179 
C 4147 4167 4256 4116 4256 3994 
L 4250 3982 
C 4243 3937 4230 3873 4160 3797 
L 3040 2596 
z
" transform="scale(0.015625)"/>
      <path id="CMR17-31" d="M 1702 4058 
C 1702 4192 1696 4192 1606 4192 
C 1357 3916 979 3827 621 3827 
C 602 3827 570 3827 563 3808 
C 557 3795 557 3782 557 3648 
C 755 3648 1088 3686 1344 3839 
L 1344 461 
C 1344 236 1331 160 781 160 
L 589 160 
L 589 0 
C 896 0 1216 0 1523 0 
C 1830 0 2150 0 2458 0 
L 2458 160 
L 2266 160 
C 1715 160 1702 230 1702 458 
L 1702 4058 
z
" transform="scale(0.015625)"/>
     </defs>
     <use xlink:href="#CMMI12-58" transform="scale(0.996264)"/>
     <use xlink:href="#CMR17-31" transform="translate(80.960224 -14.943915) scale(0.697382)"/>
    </g>
   </g>
   <g id="patch_7">
    <path d="M 178.6588 159.1356 
C 179.374848 159.1356 180.061666 158.851111 180.567988 158.344788 
C 181.074311 157.838466 181.3588 157.151648 181.3588 156.4356 
C 181.3588 155.719552 181.074311 155.032734 180.567988 154.526412 
C 180.061666 154.020089 179.374848 153.7356 178.6588 153.7356 
C 177.942752 153.7356 177.255934 154.020089 176.749612 154.526412 
C 176.243289 155.032734 175.9588 155.719552 175.9588 156.4356 
C 175.9588 157.151648 176.243289 157.838466 176.749612 158.344788 
C 177.255934 158.851111 177.942752 159.1356 178.6588 159.1356 
z
" clip-path="url(#pe909827d42)" style="stroke: #000000; stroke-width: 2; stroke-linejoin: miter"/>
   </g>
   <g id="text_2">
    <!-- $C_\mathrm{s} \\$1.8\,pF -->
    <g transform="translate(20.032223 198.867464) scale(0.14 -0.14)">
     <defs>
      <path id="CMMI12-43" d="M 4781 4423 
C 4781 4480 4736 4480 4723 4480 
C 4710 4480 4685 4480 4634 4416 
L 4192 3882 
C 3968 4264 3616 4480 3136 4480 
C 1754 4480 320 3088 320 1595 
C 320 533 1069 -128 2003 -128 
C 2515 -128 2963 88 3334 400 
C 3891 863 4058 1481 4058 1531 
C 4058 1588 4006 1588 3987 1588 
C 3930 1588 3923 1550 3910 1524 
C 3616 534 2752 57 2112 57 
C 1434 57 845 489 845 1391 
C 845 1595 909 2700 1632 3532 
C 1984 3939 2586 4295 3194 4295 
C 3898 4295 4211 3717 4211 3068 
C 4211 2903 4192 2764 4192 2738 
C 4192 2681 4256 2681 4275 2681 
C 4346 2681 4352 2687 4378 2801 
L 4781 4423 
z
" transform="scale(0.015625)"/>
      <path id="CMR17-73" d="M 1978 2697 
C 1978 2813 1971 2819 1933 2819 
C 1907 2819 1901 2813 1824 2717 
C 1805 2691 1747 2626 1728 2601 
C 1523 2819 1235 2819 1126 2819 
C 416 2819 160 2447 160 2076 
C 160 1498 813 1365 998 1325 
C 1402 1243 1542 1217 1677 1101 
C 1760 1025 1901 884 1901 654 
C 1901 384 1747 38 1158 38 
C 602 38 403 460 288 1021 
C 269 1110 269 1117 218 1117 
C 166 1117 160 1110 160 983 
L 160 63 
C 160 -51 166 -58 205 -58 
C 237 -58 243 -51 275 0 
C 314 57 410 211 448 276 
C 576 103 800 -64 1158 -64 
C 1792 -64 2131 283 2131 784 
C 2131 1112 1958 1285 1875 1362 
C 1683 1561 1459 1606 1190 1657 
C 838 1735 390 1825 390 2217 
C 390 2383 480 2737 1126 2737 
C 1811 2737 1850 2094 1862 1888 
C 1869 1856 1901 1849 1920 1849 
C 1978 1849 1978 1869 1978 1978 
L 1978 2697 
z
" transform="scale(0.015625)"/>
      <path id="CMR17-2e" d="M 1062 261 
C 1062 420 934 522 800 522 
C 672 522 538 420 538 261 
C 538 102 666 0 800 0 
C 928 0 1062 102 1062 261 
z
" transform="scale(0.015625)"/>
      <path id="CMR17-38" d="M 1741 2264 
C 2144 2467 2554 2773 2554 3263 
C 2554 3841 1990 4179 1472 4179 
C 890 4179 378 3759 378 3180 
C 378 3021 416 2747 666 2505 
C 730 2442 998 2251 1171 2130 
C 883 1983 211 1634 211 934 
C 211 279 838 -128 1459 -128 
C 2144 -128 2720 362 2720 1010 
C 2720 1590 2330 1857 2074 2029 
L 1741 2264 
z
M 902 2822 
C 851 2854 595 3051 595 3351 
C 595 3739 998 4032 1459 4032 
C 1965 4032 2336 3676 2336 3262 
C 2336 2669 1670 2331 1638 2331 
C 1632 2331 1626 2331 1574 2370 
L 902 2822 
z
M 2080 1519 
C 2176 1449 2483 1240 2483 851 
C 2483 381 2010 25 1472 25 
C 890 25 448 438 448 940 
C 448 1443 838 1862 1280 2060 
L 2080 1519 
z
" transform="scale(0.015625)"/>
      <path id="CMR17-70" d="M 1408 -1063 
C 998 -1063 973 -1037 973 -789 
L 973 402 
C 1158 134 1427 -38 1766 -38 
C 2406 -38 3053 523 3053 1388 
C 3053 2191 2496 2802 1837 2802 
C 1453 2802 1139 2592 960 2338 
L 960 2802 
L 198 2732 
L 198 2567 
C 576 2567 634 2528 634 2223 
L 634 -789 
C 634 -1031 608 -1063 198 -1063 
L 198 -1228 
C 352 -1216 634 -1216 800 -1216 
C 966 -1216 1254 -1216 1408 -1228 
L 1408 -1063 
z
M 973 2012 
C 973 2102 973 2235 1222 2471 
C 1254 2497 1472 2688 1792 2688 
C 2259 2688 2643 2108 2643 1382 
C 2643 656 2234 64 1728 64 
C 1498 64 1248 172 1056 472 
C 973 612 973 650 973 752 
L 973 2012 
z
" transform="scale(0.015625)"/>
      <path id="CMR17-46" d="M 3482 4325 
L 326 4325 
L 326 4160 
C 768 4160 838 4160 838 3874 
L 838 446 
C 838 160 768 160 326 160 
L 326 0 
C 512 0 870 0 1069 0 
C 1331 0 1638 0 1901 0 
L 1901 160 
L 1760 160 
C 1274 160 1261 223 1261 452 
L 1261 2075 
L 1837 2075 
C 2432 2075 2490 1865 2490 1332 
L 2605 1332 
L 2605 2987 
L 2490 2987 
C 2490 2450 2432 2240 1837 2240 
L 1261 2240 
L 1261 3911 
C 1261 4128 1274 4160 1530 4160 
L 2355 4160 
C 3322 4160 3430 3765 3520 2916 
L 3635 2916 
L 3482 4325 
z
" transform="scale(0.015625)"/>
     </defs>
     <use xlink:href="#CMMI12-43" transform="translate(14.94396 0) scale(0.996264)"/>
     <use xlink:href="#CMR17-73" transform="translate(84.735997 -14.943915) scale(0.697382)"/>
     <use xlink:href="#CMR17-31" transform="translate(0 -84.004153) scale(0.996264)"/>
     <use xlink:href="#CMR17-2e" transform="translate(45.690477 -84.004153) scale(0.996264)"/>
     <use xlink:href="#CMR17-38" transform="translate(70.561536 -84.004153) scale(0.996264)"/>
     <use xlink:href="#CMR17-70" transform="translate(131.482648 -84.004153) scale(0.996264)"/>
     <use xlink:href="#CMR17-46" transform="translate(182.378018 -84.004153) scale(0.996264)"/>
    </g>
   </g>
   <g id="text_3">
    <!-- $X_2$ -->
    <g transform="translate(151.507155 184.222524) scale(0.14 -0.14)">
     <defs>
      <path id="CMR17-32" d="M 2669 989 
L 2554 989 
C 2490 536 2438 459 2413 420 
C 2381 369 1920 369 1830 369 
L 602 369 
C 832 619 1280 1072 1824 1597 
C 2214 1967 2669 2402 2669 3035 
C 2669 3790 2067 4224 1395 4224 
C 691 4224 262 3604 262 3030 
C 262 2780 448 2748 525 2748 
C 589 2748 781 2787 781 3010 
C 781 3207 614 3264 525 3264 
C 486 3264 448 3258 422 3245 
C 544 3790 915 4058 1306 4058 
C 1862 4058 2227 3617 2227 3035 
C 2227 2479 1901 2000 1536 1584 
L 262 146 
L 262 0 
L 2515 0 
L 2669 989 
z
" transform="scale(0.015625)"/>
     </defs>
     <use xlink:href="#CMMI12-58" transform="scale(0.996264)"/>
     <use xlink:href="#CMR17-32" transform="translate(80.960224 -14.943915) scale(0.697382)"/>
    </g>
   </g>
   <g id="patch_8">
    <path d="M 178.6588 249.1356 
C 179.374848 249.1356 180.061666 248.851111 180.567988 248.344788 
C 181.074311 247.838466 181.3588 247.151648 181.3588 246.4356 
C 181.3588 245.719552 181.074311 245.032734 180.567988 244.526412 
C 180.061666 244.020089 179.374848 243.7356 178.6588 243.7356 
C 177.942752 243.7356 177.255934 244.020089 176.749612 244.526412 
C 176.243289 245.032734 175.9588 245.719552 175.9588 246.4356 
C 175.9588 247.151648 176.243289 247.838466 176.749612 248.344788 
C 177.255934 248.851111 177.942752 249.1356 178.6588 249.1356 
z
" clip-path="url(#pe909827d42)" style="stroke: #000000; stroke-width: 2; stroke-linejoin: miter"/>
   </g>
   <g id="text_4">
    <!-- $X_3$ -->
    <g transform="translate(331.507155 88.822524) scale(0.14 -0.14)">
     <defs>
      <path id="CMR17-33" d="M 1414 2157 
C 1984 2157 2234 1662 2234 1090 
C 2234 320 1824 25 1453 25 
C 1114 25 563 194 390 693 
C 422 680 454 680 486 680 
C 640 680 755 782 755 948 
C 755 1133 614 1216 486 1216 
C 378 1216 211 1165 211 926 
C 211 335 787 -128 1466 -128 
C 2176 -128 2720 430 2720 1085 
C 2720 1707 2208 2157 1600 2227 
C 2086 2328 2554 2756 2554 3329 
C 2554 3820 2048 4179 1472 4179 
C 890 4179 378 3829 378 3329 
C 378 3110 544 3072 627 3072 
C 762 3072 877 3155 877 3321 
C 877 3486 762 3569 627 3569 
C 602 3569 570 3569 544 3557 
C 730 3959 1235 4032 1459 4032 
C 1683 4032 2106 3925 2106 3320 
C 2106 3143 2080 2828 1862 2550 
C 1670 2304 1453 2304 1242 2284 
C 1210 2284 1062 2269 1037 2269 
C 992 2263 966 2257 966 2208 
C 966 2163 973 2157 1101 2157 
L 1414 2157 
z
" transform="scale(0.015625)"/>
     </defs>
     <use xlink:href="#CMMI12-58" transform="scale(0.996264)"/>
     <use xlink:href="#CMR17-33" transform="translate(80.960224 -14.943915) scale(0.697382)"/>
    </g>
   </g>
   <g id="patch_9">
    <path d="M 358.6588 159.1356 
C 359.374848 159.1356 360.061666 158.851111 360.567988 158.344788 
C 361.074311 157.838466 361.3588 157.151648 361.3588 156.4356 
C 361.3588 155.719552 361.074311 155.032734 360.567988 154.526412 
C 360.061666 154.020089 359.374848 153.7356 358.6588 153.7356 
C 357.942752 153.7356 357.255934 154.020089 356.749612 154.526412 
C 356.243289 155.032734 355.9588 155.719552 355.9588 156.4356 
C 355.9588 157.151648 356.243289 157.838466 356.749612 158.344788 
C 357.255934 158.851111 357.942752 159.1356 358.6588 159.1356 
z
" clip-path="url(#pe909827d42)" style="stroke: #000000; stroke-width: 2; stroke-linejoin: miter"/>
   </g>
   <g id="text_5">
    <!-- $C_\mathrm{s} \\$1.8\,pF -->
    <g transform="translate(481.0588 198.867464) scale(0.14 -0.14)">
     <use xlink:href="#CMMI12-43" transform="translate(14.94396 0) scale(0.996264)"/>
     <use xlink:href="#CMR17-73" transform="translate(84.735997 -14.943915) scale(0.697382)"/>
     <use xlink:href="#CMR17-31" transform="translate(0 -84.004153) scale(0.996264)"/>
     <use xlink:href="#CMR17-2e" transform="translate(45.690477 -84.004153) scale(0.996264)"/>
     <use xlink:href="#CMR17-38" transform="translate(70.561536 -84.004153) scale(0.996264)"/>
     <use xlink:href="#CMR17-70" transform="translate(131.482648 -84.004153) scale(0.996264)"/>
     <use xlink:href="#CMR17-46" transform="translate(182.378018 -84.004153) scale(0.996264)"/>
    </g>
   </g>
   <g id="patch_10">
    <path d="M 268.6588 249.1356 
C 269.374848 249.1356 270.061666 248.851111 270.567988 248.344788 
C 271.074311 247.838466 271.3588 247.151648 271.3588 246.4356 
C 271.3588 245.719552 271.074311 245.032734 270.567988 244.526412 
C 270.061666 244.020089 269.374848 243.7356 268.6588 243.7356 
C 267.942752 243.7356 267.255934 244.020089 266.749612 244.526412 
C 266.243289 245.032734 265.9588 245.719552 265.9588 246.4356 
C 265.9588 247.151648 266.243289 247.838466 266.749612 248.344788 
C 267.255934 248.851111 267.942752 249.1356 268.6588 249.1356 
z
" clip-path="url(#pe909827d42)" style="stroke: #000000; stroke-width: 2; stroke-linejoin: miter"/>
   </g>
   <g id="text_6">
    <!-- $X_4$ -->
    <g transform="translate(331.507155 184.222524) scale(0.14 -0.14)">
     <defs>
      <path id="CMR17-34" d="M 2150 4122 
C 2150 4256 2144 4256 2029 4256 
L 128 1254 
L 128 1088 
L 1779 1088 
L 1779 457 
C 1779 224 1766 160 1318 160 
L 1197 160 
L 1197 0 
C 1402 0 1747 0 1965 0 
C 2182 0 2528 0 2733 0 
L 2733 160 
L 2611 160 
C 2163 160 2150 224 2150 457 
L 2150 1088 
L 2803 1088 
L 2803 1254 
L 2150 1254 
L 2150 4122 
z
M 1798 3703 
L 1798 1254 
L 256 1254 
L 1798 3703 
z
" transform="scale(0.015625)"/>
     </defs>
     <use xlink:href="#CMMI12-58" transform="scale(0.996264)"/>
     <use xlink:href="#CMR17-34" transform="translate(80.960224 -14.943915) scale(0.697382)"/>
    </g>
   </g>
   <g id="patch_11">
    <path d="M 358.6588 249.1356 
C 359.374848 249.1356 360.061666 248.851111 360.567988 248.344788 
C 361.074311 247.838466 361.3588 247.151648 361.3588 246.4356 
C 361.3588 245.719552 361.074311 245.032734 360.567988 244.526412 
C 360.061666 244.020089 359.374848 243.7356 358.6588 243.7356 
C 357.942752 243.7356 357.255934 244.020089 356.749612 244.526412 
C 356.243289 245.032734 355.9588 245.719552 355.9588 246.4356 
C 355.9588 247.151648 356.243289 247.838466 356.749612 248.344788 
C 357.255934 248.851111 357.942752 249.1356 358.6588 249.1356 
z
" clip-path="url(#pe909827d42)" style="stroke: #000000; stroke-width: 2; stroke-linejoin: miter"/>
   </g>
   <g id="patch_12">
    <path d="M 268.6588 27.7356 
C 269.374848 27.7356 270.061666 27.451111 270.567988 26.944788 
C 271.074311 26.438466 271.3588 25.751648 271.3588 25.0356 
C 271.3588 24.319552 271.074311 23.632734 270.567988 23.126412 
C 270.061666 22.620089 269.374848 22.3356 268.6588 22.3356 
C 267.942752 22.3356 267.255934 22.620089 266.749612 23.126412 
C 266.243289 23.632734 265.9588 24.319552 265.9588 25.0356 
C 265.9588 25.751648 266.243289 26.438466 266.749612 26.944788 
C 267.255934 27.451111 267.942752 27.7356 268.6588 27.7356 
z
" clip-path="url(#pe909827d42)" style="fill: #ffffff; stroke: #000000; stroke-width: 2; stroke-linejoin: miter"/>
   </g>
   <g id="text_7">
    <!-- $V_\mathrm{a}$ -->
    <g transform="translate(262.169319 14.223572) scale(0.14 -0.14)">
     <defs>
      <path id="CMMI12-56" d="M 3962 3640 
C 4179 3984 4378 4136 4704 4162 
C 4768 4168 4819 4168 4819 4282 
C 4819 4308 4806 4346 4749 4346 
C 4634 4346 4358 4346 4243 4346 
C 4058 4346 3866 4346 3686 4346 
C 3635 4346 3571 4346 3571 4226 
C 3571 4168 3629 4162 3654 4162 
C 3891 4143 3917 4029 3917 3952 
C 3917 3857 3827 3710 3821 3704 
L 1811 540 
L 1363 3969 
C 1363 4160 1696 4160 1766 4160 
C 1862 4160 1920 4160 1920 4282 
C 1920 4346 1850 4346 1830 4346 
C 1722 4346 1594 4346 1485 4346 
L 1126 4346 
C 659 4346 467 4346 461 4346 
C 422 4346 346 4346 346 4230 
C 346 4160 390 4160 493 4160 
C 819 4160 838 4102 858 3944 
L 1370 24 
C 1389 -109 1389 -128 1478 -128 
C 1555 -128 1587 -109 1651 -8 
L 3962 3640 
z
" transform="scale(0.015625)"/>
      <path id="CMR17-61" d="M 2304 1653 
C 2304 2072 2304 2294 2035 2543 
C 1798 2752 1523 2816 1306 2816 
C 800 2816 435 2407 435 1971 
C 435 1728 627 1728 666 1728 
C 749 1728 896 1778 896 1954 
C 896 2112 774 2181 666 2181 
C 640 2181 608 2174 589 2168 
C 723 2592 1069 2714 1293 2714 
C 1613 2714 1965 2429 1965 1885 
L 1965 1600 
C 1587 1600 1133 1549 774 1357 
C 371 1133 256 813 256 570 
C 256 77 832 -64 1171 -64 
C 1523 -64 1850 139 1990 511 
C 2003 233 2182 -18 2464 -18 
C 2598 -18 2938 70 2938 567 
L 2938 920 
L 2822 920 
L 2822 562 
C 2822 178 2650 128 2566 128 
C 2304 128 2304 458 2304 738 
L 2304 1653 
z
M 1965 870 
C 1965 317 1568 38 1216 38 
C 896 38 646 275 646 570 
C 646 761 730 1100 1101 1305 
C 1408 1478 1760 1504 1965 1504 
L 1965 870 
z
" transform="scale(0.015625)"/>
     </defs>
     <use xlink:href="#CMMI12-56" transform="scale(0.996264)"/>
     <use xlink:href="#CMR17-61" transform="translate(56.869579 -14.943915) scale(0.697382)"/>
    </g>
   </g>
   <g id="patch_13">
    <path d="M 135.4588 111.4356 
C 136.174848 111.4356 136.861666 111.151111 137.367988 110.644788 
C 137.874311 110.138466 138.1588 109.451648 138.1588 108.7356 
C 138.1588 108.019552 137.874311 107.332734 137.367988 106.826412 
C 136.861666 106.320089 136.174848 106.0356 135.4588 106.0356 
C 134.742752 106.0356 134.055934 106.320089 133.549612 106.826412 
C 133.043289 107.332734 132.7588 108.019552 132.7588 108.7356 
C 132.7588 109.451648 133.043289 110.138466 133.549612 110.644788 
C 134.055934 111.151111 134.742752 111.4356 135.4588 111.4356 
z
" clip-path="url(#pe909827d42)" style="fill: #ffffff; stroke: #000000; stroke-width: 2; stroke-linejoin: miter"/>
   </g>
   <g id="text_8">
    <!-- $\Phi_{5}$ -->
    <g transform="translate(112.478201 112.222524) scale(0.14 -0.14)">
     <defs>
      <path id="CMR17-8" d="M 2330 818 
C 3366 907 3974 1553 3974 2172 
C 3974 2818 3341 3444 2330 3534 
L 2330 3897 
C 2330 4128 2342 4192 2829 4192 
L 2970 4192 
L 2970 4352 
C 2707 4352 2400 4352 2131 4352 
C 1862 4352 1549 4352 1286 4352 
L 1286 4192 
L 1427 4192 
C 1914 4192 1926 4128 1926 3897 
L 1926 3534 
C 922 3444 294 2811 294 2179 
C 294 1521 947 907 1926 818 
L 1926 454 
C 1926 224 1914 160 1427 160 
L 1286 160 
L 1286 0 
C 1549 0 1862 0 2131 0 
C 2400 0 2707 0 2970 0 
L 2970 160 
L 2829 160 
C 2342 160 2330 224 2330 454 
L 2330 818 
z
M 1926 927 
C 1350 991 768 1323 768 2173 
C 768 3048 1370 3367 1926 3425 
L 1926 927 
z
M 2330 3425 
C 2835 3380 3501 3093 3501 2179 
C 3501 1240 2810 972 2330 927 
L 2330 3425 
z
" transform="scale(0.015625)"/>
      <path id="CMR17-35" d="M 730 3692 
C 794 3666 1056 3584 1325 3584 
C 1920 3584 2246 3911 2432 4100 
C 2432 4157 2432 4192 2394 4192 
C 2387 4192 2374 4192 2323 4163 
C 2099 4058 1837 3973 1517 3973 
C 1325 3973 1037 3999 723 4139 
C 653 4171 640 4171 634 4171 
C 602 4171 595 4164 595 4037 
L 595 2203 
C 595 2089 595 2057 659 2057 
C 691 2057 704 2070 736 2114 
C 941 2401 1222 2522 1542 2522 
C 1766 2522 2246 2382 2246 1289 
C 2246 1085 2246 715 2054 421 
C 1894 159 1645 25 1370 25 
C 947 25 518 320 403 814 
C 429 807 480 795 506 795 
C 589 795 749 840 749 1038 
C 749 1210 627 1280 506 1280 
C 358 1280 262 1190 262 1011 
C 262 454 704 -128 1382 -128 
C 2042 -128 2669 440 2669 1264 
C 2669 2030 2170 2624 1549 2624 
C 1222 2624 947 2503 730 2274 
L 730 3692 
z
" transform="scale(0.015625)"/>
     </defs>
     <use xlink:href="#CMR17-8" transform="scale(0.996264)"/>
     <use xlink:href="#CMR17-35" transform="translate(66.509881 -14.943915) scale(0.697382)"/>
    </g>
   </g>
   <g id="patch_14">
    <path d="M 221.8588 111.4356 
C 222.574848 111.4356 223.261666 111.151111 223.767988 110.644788 
C 224.274311 110.138466 224.5588 109.451648 224.5588 108.7356 
C 224.5588 108.019552 224.274311 107.332734 223.767988 106.826412 
C 223.261666 106.320089 222.574848 106.0356 221.8588 106.0356 
C 221.142752 106.0356 220.455934 106.320089 219.949612 106.826412 
C 219.443289 107.332734 219.1588 108.019552 219.1588 108.7356 
C 219.1588 109.451648 219.443289 110.138466 219.949612 110.644788 
C 220.455934 111.151111 221.142752 111.4356 221.8588 111.4356 
z
" clip-path="url(#pe909827d42)" style="fill: #ffffff; stroke: #000000; stroke-width: 2; stroke-linejoin: miter"/>
   </g>
   <g id="text_9">
    <!-- $\overline{\Phi_{5}}$ -->
    <g transform="translate(229.9588 112.950887) scale(0.14 -0.14)">
     <use xlink:href="#CMR17-8" transform="scale(0.996264)"/>
     <use xlink:href="#CMR17-35" transform="translate(66.509881 -14.943915) scale(0.697382)"/>
     <path d="M 0 80.018823 
L 98.991195 80.018823 
L 98.991195 84.003772 
L 0 84.003772 
L 0 80.018823 
z
"/>
    </g>
   </g>
   <g id="patch_15">
    <path d="M 135.4588 206.8356 
C 136.174848 206.8356 136.861666 206.551111 137.367988 206.044788 
C 137.874311 205.538466 138.1588 204.851648 138.1588 204.1356 
C 138.1588 203.419552 137.874311 202.732734 137.367988 202.226412 
C 136.861666 201.720089 136.174848 201.4356 135.4588 201.4356 
C 134.742752 201.4356 134.055934 201.720089 133.549612 202.226412 
C 133.043289 202.732734 132.7588 203.419552 132.7588 204.1356 
C 132.7588 204.851648 133.043289 205.538466 133.549612 206.044788 
C 134.055934 206.551111 134.742752 206.8356 135.4588 206.8356 
z
" clip-path="url(#pe909827d42)" style="fill: #ffffff; stroke: #000000; stroke-width: 2; stroke-linejoin: miter"/>
   </g>
   <g id="text_10">
    <!-- $\Phi_{6}$ -->
    <g transform="translate(112.478201 207.622524) scale(0.14 -0.14)">
     <defs>
      <path id="CMR17-36" d="M 678 2176 
C 678 3690 1395 4032 1811 4032 
C 1946 4032 2272 4009 2400 3776 
C 2298 3776 2106 3776 2106 3553 
C 2106 3381 2246 3323 2336 3323 
C 2394 3323 2566 3348 2566 3560 
C 2566 3954 2246 4179 1805 4179 
C 1043 4179 243 3390 243 1984 
C 243 253 966 -128 1478 -128 
C 2099 -128 2688 427 2688 1283 
C 2688 2081 2170 2662 1517 2662 
C 1126 2662 838 2407 678 1960 
L 678 2176 
z
M 1478 25 
C 691 25 691 1200 691 1436 
C 691 1896 909 2560 1504 2560 
C 1613 2560 1926 2560 2138 2120 
C 2253 1870 2253 1609 2253 1289 
C 2253 944 2253 690 2118 434 
C 1978 171 1773 25 1478 25 
z
" transform="scale(0.015625)"/>
     </defs>
     <use xlink:href="#CMR17-8" transform="scale(0.996264)"/>
     <use xlink:href="#CMR17-36" transform="translate(66.509881 -14.943915) scale(0.697382)"/>
    </g>
   </g>
   <g id="patch_16">
    <path d="M 221.8588 206.8356 
C 222.574848 206.8356 223.261666 206.551111 223.767988 206.044788 
C 224.274311 205.538466 224.5588 204.851648 224.5588 204.1356 
C 224.5588 203.419552 224.274311 202.732734 223.767988 202.226412 
C 223.261666 201.720089 222.574848 201.4356 221.8588 201.4356 
C 221.142752 201.4356 220.455934 201.720089 219.949612 202.226412 
C 219.443289 202.732734 219.1588 203.419552 219.1588 204.1356 
C 219.1588 204.851648 219.443289 205.538466 219.949612 206.044788 
C 220.455934 206.551111 221.142752 206.8356 221.8588 206.8356 
z
" clip-path="url(#pe909827d42)" style="fill: #ffffff; stroke: #000000; stroke-width: 2; stroke-linejoin: miter"/>
   </g>
   <g id="text_11">
    <!-- $\overline{\Phi_{6}}$ -->
    <g transform="translate(229.9588 208.350887) scale(0.14 -0.14)">
     <use xlink:href="#CMR17-8" transform="scale(0.996264)"/>
     <use xlink:href="#CMR17-36" transform="translate(66.509881 -14.943915) scale(0.697382)"/>
     <path d="M 0 80.018823 
L 98.991195 80.018823 
L 98.991195 84.003772 
L 0 84.003772 
L 0 80.018823 
z
"/>
    </g>
   </g>
   <g id="patch_17">
    <path d="M 315.4588 111.4356 
C 316.174848 111.4356 316.861666 111.151111 317.367988 110.644788 
C 317.874311 110.138466 318.1588 109.451648 318.1588 108.7356 
C 318.1588 108.019552 317.874311 107.332734 317.367988 106.826412 
C 316.861666 106.320089 316.174848 106.0356 315.4588 106.0356 
C 314.742752 106.0356 314.055934 106.320089 313.549612 106.826412 
C 313.043289 107.332734 312.7588 108.019552 312.7588 108.7356 
C 312.7588 109.451648 313.043289 110.138466 313.549612 110.644788 
C 314.055934 111.151111 314.742752 111.4356 315.4588 111.4356 
z
" clip-path="url(#pe909827d42)" style="fill: #ffffff; stroke: #000000; stroke-width: 2; stroke-linejoin: miter"/>
   </g>
   <g id="text_12">
    <!-- $\Phi_{6}$ -->
    <g transform="translate(292.478201 112.222524) scale(0.14 -0.14)">
     <use xlink:href="#CMR17-8" transform="scale(0.996264)"/>
     <use xlink:href="#CMR17-36" transform="translate(66.509881 -14.943915) scale(0.697382)"/>
    </g>
   </g>
   <g id="patch_18">
    <path d="M 401.8588 111.4356 
C 402.574848 111.4356 403.261666 111.151111 403.767988 110.644788 
C 404.274311 110.138466 404.5588 109.451648 404.5588 108.7356 
C 404.5588 108.019552 404.274311 107.332734 403.767988 106.826412 
C 403.261666 106.320089 402.574848 106.0356 401.8588 106.0356 
C 401.142752 106.0356 400.455934 106.320089 399.949612 106.826412 
C 399.443289 107.332734 399.1588 108.019552 399.1588 108.7356 
C 399.1588 109.451648 399.443289 110.138466 399.949612 110.644788 
C 400.455934 111.151111 401.142752 111.4356 401.8588 111.4356 
z
" clip-path="url(#pe909827d42)" style="fill: #ffffff; stroke: #000000; stroke-width: 2; stroke-linejoin: miter"/>
   </g>
   <g id="text_13">
    <!-- $\overline{\Phi_{6}}$ -->
    <g transform="translate(409.9588 112.950887) scale(0.14 -0.14)">
     <use xlink:href="#CMR17-8" transform="scale(0.996264)"/>
     <use xlink:href="#CMR17-36" transform="translate(66.509881 -14.943915) scale(0.697382)"/>
     <path d="M 0 80.018823 
L 98.991195 80.018823 
L 98.991195 84.003772 
L 0 84.003772 
L 0 80.018823 
z
"/>
    </g>
   </g>
   <g id="patch_19">
    <path d="M 268.6588 285.1356 
C 269.374848 285.1356 270.061666 284.851111 270.567988 284.344788 
C 271.074311 283.838466 271.3588 283.151648 271.3588 282.4356 
C 271.3588 281.719552 271.074311 281.032734 270.567988 280.526412 
C 270.061666 280.020089 269.374848 279.7356 268.6588 279.7356 
C 267.942752 279.7356 267.255934 280.020089 266.749612 280.526412 
C 266.243289 281.032734 265.9588 281.719552 265.9588 282.4356 
C 265.9588 283.151648 266.243289 283.838466 266.749612 284.344788 
C 267.255934 284.851111 267.942752 285.1356 268.6588 285.1356 
z
" clip-path="url(#pe909827d42)" style="fill: #ffffff; stroke: #000000; stroke-width: 2; stroke-linejoin: miter"/>
   </g>
   <g id="text_14">
    <!-- $V_\mathrm{b}$ -->
    <g transform="translate(261.890579 300.221476) scale(0.14 -0.14)">
     <defs>
      <path id="CMR17-62" d="M 960 4396 
L 198 4326 
L 198 4160 
C 576 4160 634 4122 634 3817 
L 634 -13 
L 749 -13 
L 934 441 
C 1120 141 1395 -64 1766 -64 
C 2406 -64 3053 500 3053 1370 
C 3053 2188 2477 2790 1830 2790 
C 1434 2790 1152 2579 960 2330 
L 960 4396 
z
M 973 2004 
C 973 2118 973 2138 1062 2272 
C 1312 2657 1670 2688 1792 2688 
C 1984 2688 2643 2585 2643 1376 
C 2643 108 1888 38 1734 38 
C 1536 38 1248 114 1043 486 
C 973 608 973 621 973 735 
L 973 2004 
z
" transform="scale(0.015625)"/>
     </defs>
     <use xlink:href="#CMMI12-56" transform="scale(0.996264)"/>
     <use xlink:href="#CMR17-62" transform="translate(56.869579 -14.943915) scale(0.697382)"/>
    </g>
   </g>
   <g id="patch_20">
    <path d="M 315.4588 206.8356 
C 316.174848 206.8356 316.861666 206.551111 317.367988 206.044788 
C 317.874311 205.538466 318.1588 204.851648 318.1588 204.1356 
C 318.1588 203.419552 317.874311 202.732734 317.367988 202.226412 
C 316.861666 201.720089 316.174848 201.4356 315.4588 201.4356 
C 314.742752 201.4356 314.055934 201.720089 313.549612 202.226412 
C 313.043289 202.732734 312.7588 203.419552 312.7588 204.1356 
C 312.7588 204.851648 313.043289 205.538466 313.549612 206.044788 
C 314.055934 206.551111 314.742752 206.8356 315.4588 206.8356 
z
" clip-path="url(#pe909827d42)" style="fill: #ffffff; stroke: #000000; stroke-width: 2; stroke-linejoin: miter"/>
   </g>
   <g id="text_15">
    <!-- $\Phi_{5}$ -->
    <g transform="translate(292.478201 207.622524) scale(0.14 -0.14)">
     <use xlink:href="#CMR17-8" transform="scale(0.996264)"/>
     <use xlink:href="#CMR17-35" transform="translate(66.509881 -14.943915) scale(0.697382)"/>
    </g>
   </g>
   <g id="patch_21">
    <path d="M 401.8588 206.8356 
C 402.574848 206.8356 403.261666 206.551111 403.767988 206.044788 
C 404.274311 205.538466 404.5588 204.851648 404.5588 204.1356 
C 404.5588 203.419552 404.274311 202.732734 403.767988 202.226412 
C 403.261666 201.720089 402.574848 201.4356 401.8588 201.4356 
C 401.142752 201.4356 400.455934 201.720089 399.949612 202.226412 
C 399.443289 202.732734 399.1588 203.419552 399.1588 204.1356 
C 399.1588 204.851648 399.443289 205.538466 399.949612 206.044788 
C 400.455934 206.551111 401.142752 206.8356 401.8588 206.8356 
z
" clip-path="url(#pe909827d42)" style="fill: #ffffff; stroke: #000000; stroke-width: 2; stroke-linejoin: miter"/>
   </g>
   <g id="text_16">
    <!-- $\overline{\Phi_{5}}$ -->
    <g transform="translate(409.9588 208.350887) scale(0.14 -0.14)">
     <use xlink:href="#CMR17-8" transform="scale(0.996264)"/>
     <use xlink:href="#CMR17-35" transform="translate(66.509881 -14.943915) scale(0.697382)"/>
     <path d="M 0 80.018823 
L 98.991195 80.018823 
L 98.991195 84.003772 
L 0 84.003772 
L 0 80.018823 
z
"/>
    </g>
   </g>
  </g>
 </g>
 <defs>
  <clipPath id="pe909827d42">
   <rect x="0" y="-0" width="537.3176" height="307.4712"/>
  </clipPath>
 </defs>
</svg>
