G04 EAGLE Gerber RS-274X export*
G75*
%MOMM*%
%FSLAX34Y34*%
%LPD*%
%INTop Copper*%
%IPPOS*%
%AMOC8*
5,1,8,0,0,1.08239X$1,22.5*%
G01*
G04 Define Apertures*
%ADD10R,1.164600X1.465300*%
%ADD11R,1.465300X1.164600*%
%ADD12R,0.761800X1.361800*%
%ADD13R,1.031200X1.420200*%
%ADD14C,1.320800*%
%ADD15C,1.524000*%
%ADD16C,1.422400*%
%ADD17P,1.53959X8X292.5*%
%ADD18C,1.016000*%
%ADD19R,1.308000X1.308000*%
%ADD20C,1.308000*%
%ADD21C,1.422400*%
%ADD22P,0.81872X8X22.5*%
%ADD23C,0.600000*%
%ADD24C,0.400000*%
%ADD25C,0.300000*%
G36*
X993383Y5943D02*
X992888Y5842D01*
X7112Y5842D01*
X6654Y5927D01*
X6228Y6200D01*
X5943Y6617D01*
X5842Y7112D01*
X5842Y792888D01*
X5927Y793346D01*
X6200Y793772D01*
X6617Y794057D01*
X7112Y794158D01*
X992888Y794158D01*
X993346Y794073D01*
X993772Y793800D01*
X994057Y793383D01*
X994158Y792888D01*
X994158Y738646D01*
X994080Y738208D01*
X993814Y737778D01*
X993402Y737485D01*
X992908Y737377D01*
X992411Y737469D01*
X991990Y737748D01*
X985923Y743815D01*
X972711Y743815D01*
X972282Y743890D01*
X971850Y744152D01*
X971554Y744562D01*
X971442Y745055D01*
X971530Y745552D01*
X971806Y745976D01*
X972225Y746258D01*
X976374Y747977D01*
X982023Y753626D01*
X985080Y761006D01*
X985080Y768994D01*
X982023Y776374D01*
X976374Y782023D01*
X968994Y785080D01*
X961006Y785080D01*
X953626Y782023D01*
X947977Y776374D01*
X944920Y768994D01*
X944920Y761006D01*
X947977Y753626D01*
X953626Y747977D01*
X957775Y746258D01*
X958143Y746025D01*
X958442Y745617D01*
X958558Y745125D01*
X958473Y744627D01*
X958201Y744201D01*
X957784Y743916D01*
X957289Y743815D01*
X487277Y743815D01*
X478560Y735098D01*
X478560Y512677D01*
X487277Y503960D01*
X589638Y503960D01*
X590114Y503867D01*
X590536Y503588D01*
X591576Y502548D01*
X591839Y502164D01*
X591948Y501670D01*
X591855Y501173D01*
X591576Y500752D01*
X590440Y499616D01*
X589280Y496816D01*
X589280Y493784D01*
X590440Y490984D01*
X591576Y489848D01*
X591839Y489464D01*
X591948Y488970D01*
X591855Y488473D01*
X591576Y488052D01*
X590440Y486916D01*
X589280Y484116D01*
X589280Y481084D01*
X590440Y478284D01*
X591576Y477148D01*
X591839Y476764D01*
X591948Y476270D01*
X591855Y475773D01*
X591576Y475352D01*
X590440Y474216D01*
X589280Y471416D01*
X589280Y468384D01*
X590440Y465584D01*
X591576Y464448D01*
X591839Y464064D01*
X591948Y463570D01*
X591855Y463073D01*
X591576Y462652D01*
X590440Y461516D01*
X589280Y458716D01*
X589280Y455684D01*
X590440Y452884D01*
X591576Y451748D01*
X591839Y451364D01*
X591948Y450870D01*
X591855Y450373D01*
X591576Y449952D01*
X590440Y448816D01*
X589280Y446016D01*
X589280Y442984D01*
X590440Y440184D01*
X591576Y439048D01*
X591839Y438664D01*
X591948Y438170D01*
X591855Y437673D01*
X591576Y437252D01*
X590440Y436116D01*
X589280Y433316D01*
X589280Y430284D01*
X590440Y427484D01*
X591116Y426808D01*
X591371Y426442D01*
X591487Y425950D01*
X591402Y425452D01*
X591130Y425026D01*
X590713Y424741D01*
X590218Y424640D01*
X349582Y424640D01*
X349143Y424718D01*
X348713Y424984D01*
X348421Y425396D01*
X348313Y425890D01*
X348405Y426387D01*
X348684Y426808D01*
X349360Y427484D01*
X350520Y430284D01*
X350520Y433316D01*
X349360Y436116D01*
X348224Y437252D01*
X347961Y437636D01*
X347853Y438130D01*
X347945Y438627D01*
X348224Y439048D01*
X349360Y440184D01*
X350520Y442984D01*
X350520Y446016D01*
X349360Y448816D01*
X348224Y449952D01*
X347961Y450336D01*
X347853Y450830D01*
X347945Y451327D01*
X348224Y451748D01*
X349360Y452884D01*
X350520Y455684D01*
X350520Y458716D01*
X349360Y461516D01*
X348224Y462652D01*
X347961Y463036D01*
X347853Y463530D01*
X347945Y464027D01*
X348224Y464448D01*
X349360Y465584D01*
X350520Y468384D01*
X350520Y471416D01*
X349360Y474216D01*
X348224Y475352D01*
X347961Y475736D01*
X347853Y476230D01*
X347945Y476727D01*
X348224Y477148D01*
X349360Y478284D01*
X350520Y481084D01*
X350520Y484116D01*
X349360Y486916D01*
X348224Y488052D01*
X347961Y488436D01*
X347853Y488930D01*
X347945Y489427D01*
X348224Y489848D01*
X349360Y490984D01*
X350520Y493784D01*
X350520Y496816D01*
X349360Y499616D01*
X348224Y500752D01*
X347961Y501136D01*
X347853Y501630D01*
X347945Y502127D01*
X348224Y502548D01*
X349360Y503684D01*
X350520Y506484D01*
X350520Y509516D01*
X349360Y512316D01*
X348224Y513452D01*
X347961Y513836D01*
X347853Y514330D01*
X347945Y514827D01*
X348224Y515248D01*
X349360Y516384D01*
X350520Y519184D01*
X350520Y522216D01*
X349360Y525016D01*
X348224Y526152D01*
X347961Y526536D01*
X347853Y527030D01*
X347945Y527527D01*
X348224Y527948D01*
X349360Y529084D01*
X350520Y531884D01*
X350520Y532130D01*
X335280Y532130D01*
X335280Y531884D01*
X336440Y529084D01*
X337576Y527948D01*
X337839Y527564D01*
X337948Y527070D01*
X337855Y526573D01*
X337576Y526152D01*
X336440Y525016D01*
X335280Y522216D01*
X335280Y519184D01*
X336440Y516384D01*
X337576Y515248D01*
X337839Y514864D01*
X337948Y514370D01*
X337855Y513873D01*
X337576Y513452D01*
X336440Y512316D01*
X335280Y509516D01*
X335280Y506484D01*
X336440Y503684D01*
X337576Y502548D01*
X337839Y502164D01*
X337948Y501670D01*
X337855Y501173D01*
X337576Y500752D01*
X336440Y499616D01*
X335280Y496816D01*
X335280Y493784D01*
X336440Y490984D01*
X337576Y489848D01*
X337839Y489464D01*
X337948Y488970D01*
X337855Y488473D01*
X337576Y488052D01*
X336440Y486916D01*
X335280Y484116D01*
X335280Y481084D01*
X336440Y478284D01*
X337576Y477148D01*
X337839Y476764D01*
X337948Y476270D01*
X337855Y475773D01*
X337576Y475352D01*
X336440Y474216D01*
X335280Y471416D01*
X335280Y468384D01*
X336440Y465584D01*
X337576Y464448D01*
X337839Y464064D01*
X337948Y463570D01*
X337855Y463073D01*
X337576Y462652D01*
X336440Y461516D01*
X335280Y458716D01*
X335280Y455684D01*
X336440Y452884D01*
X337576Y451748D01*
X337839Y451364D01*
X337948Y450870D01*
X337855Y450373D01*
X337576Y449952D01*
X336440Y448816D01*
X335280Y446016D01*
X335280Y442984D01*
X336440Y440184D01*
X337576Y439048D01*
X337839Y438664D01*
X337948Y438170D01*
X337855Y437673D01*
X337576Y437252D01*
X336440Y436116D01*
X335280Y433316D01*
X335280Y430284D01*
X336440Y427484D01*
X337116Y426808D01*
X337371Y426442D01*
X337487Y425950D01*
X337402Y425452D01*
X337130Y425026D01*
X336713Y424741D01*
X336218Y424640D01*
X203330Y424640D01*
X202872Y424725D01*
X202446Y424998D01*
X202161Y425415D01*
X202060Y425910D01*
X202060Y544790D01*
X202153Y545266D01*
X202432Y545688D01*
X204216Y547472D01*
X204216Y563778D01*
X202432Y565562D01*
X202161Y565965D01*
X202060Y566460D01*
X202060Y570190D01*
X202153Y570666D01*
X202432Y571088D01*
X204216Y572872D01*
X204216Y589178D01*
X202432Y590962D01*
X202161Y591365D01*
X202060Y591860D01*
X202060Y595590D01*
X202153Y596066D01*
X202432Y596488D01*
X204216Y598272D01*
X204216Y614578D01*
X202432Y616362D01*
X202161Y616765D01*
X202060Y617260D01*
X202060Y620990D01*
X202153Y621466D01*
X202432Y621888D01*
X204216Y623672D01*
X204216Y639978D01*
X202728Y641466D01*
X190312Y641466D01*
X188824Y639978D01*
X188824Y623672D01*
X190608Y621888D01*
X190879Y621485D01*
X190980Y620990D01*
X190980Y617260D01*
X190887Y616784D01*
X190608Y616362D01*
X188824Y614578D01*
X188824Y598272D01*
X190608Y596488D01*
X190879Y596085D01*
X190980Y595590D01*
X190980Y591860D01*
X190887Y591384D01*
X190608Y590962D01*
X188824Y589178D01*
X188824Y572872D01*
X190608Y571088D01*
X190879Y570685D01*
X190980Y570190D01*
X190980Y566460D01*
X190887Y565984D01*
X190608Y565562D01*
X188824Y563778D01*
X188824Y547472D01*
X190608Y545688D01*
X190879Y545285D01*
X190980Y544790D01*
X190980Y410885D01*
X190887Y410409D01*
X190608Y409987D01*
X188824Y408203D01*
X188824Y391897D01*
X190608Y390113D01*
X190879Y389710D01*
X190980Y389215D01*
X190980Y385485D01*
X190887Y385009D01*
X190608Y384587D01*
X188824Y382803D01*
X188824Y366497D01*
X190608Y364713D01*
X190879Y364310D01*
X190980Y363815D01*
X190980Y360085D01*
X190887Y359609D01*
X190608Y359187D01*
X188824Y357403D01*
X188824Y341097D01*
X190608Y339313D01*
X190879Y338910D01*
X190980Y338415D01*
X190980Y334685D01*
X190887Y334209D01*
X190608Y333787D01*
X188824Y332003D01*
X188824Y315697D01*
X190312Y314209D01*
X202728Y314209D01*
X204216Y315697D01*
X204216Y332003D01*
X202432Y333787D01*
X202161Y334190D01*
X202060Y334685D01*
X202060Y338415D01*
X202153Y338891D01*
X202432Y339313D01*
X204216Y341097D01*
X204216Y357403D01*
X202432Y359187D01*
X202161Y359590D01*
X202060Y360085D01*
X202060Y363815D01*
X202153Y364291D01*
X202432Y364713D01*
X204216Y366497D01*
X204216Y382803D01*
X202432Y384587D01*
X202161Y384990D01*
X202060Y385485D01*
X202060Y389215D01*
X202153Y389691D01*
X202432Y390113D01*
X204216Y391897D01*
X204216Y408203D01*
X202432Y409987D01*
X202161Y410390D01*
X202060Y410885D01*
X202060Y412290D01*
X202145Y412748D01*
X202418Y413174D01*
X202835Y413459D01*
X203330Y413560D01*
X336218Y413560D01*
X336657Y413482D01*
X337087Y413216D01*
X337379Y412804D01*
X337488Y412310D01*
X337395Y411813D01*
X337116Y411392D01*
X336440Y410716D01*
X335280Y407916D01*
X335280Y407670D01*
X350520Y407670D01*
X350520Y407916D01*
X349360Y410716D01*
X348684Y411392D01*
X348429Y411758D01*
X348313Y412250D01*
X348398Y412748D01*
X348670Y413174D01*
X349087Y413459D01*
X349582Y413560D01*
X590218Y413560D01*
X590657Y413482D01*
X591087Y413216D01*
X591379Y412804D01*
X591488Y412310D01*
X591395Y411813D01*
X591116Y411392D01*
X590440Y410716D01*
X589280Y407916D01*
X589280Y407670D01*
X604520Y407670D01*
X604520Y407916D01*
X603360Y410716D01*
X602224Y411852D01*
X601961Y412236D01*
X601853Y412730D01*
X601945Y413227D01*
X602224Y413648D01*
X603360Y414784D01*
X604520Y417584D01*
X604520Y420616D01*
X603360Y423416D01*
X602224Y424552D01*
X601961Y424936D01*
X601853Y425430D01*
X601945Y425927D01*
X602224Y426348D01*
X603360Y427484D01*
X604520Y430284D01*
X604520Y433316D01*
X603360Y436116D01*
X602224Y437252D01*
X601961Y437636D01*
X601853Y438130D01*
X601945Y438627D01*
X602224Y439048D01*
X603264Y440088D01*
X603667Y440359D01*
X604162Y440460D01*
X620101Y440460D01*
X620577Y440367D01*
X620999Y440088D01*
X624238Y436849D01*
X624509Y436446D01*
X624610Y435951D01*
X624610Y407902D01*
X633327Y399185D01*
X658148Y399185D01*
X658625Y399092D01*
X659046Y398813D01*
X660956Y396903D01*
X666194Y396903D01*
X669897Y400606D01*
X669897Y405844D01*
X666194Y409547D01*
X660956Y409547D01*
X659046Y407637D01*
X658644Y407366D01*
X658148Y407265D01*
X637199Y407265D01*
X636723Y407358D01*
X636301Y407637D01*
X633062Y410876D01*
X632791Y411279D01*
X632690Y411774D01*
X632690Y439823D01*
X623973Y448540D01*
X604162Y448540D01*
X603686Y448633D01*
X603264Y448912D01*
X602224Y449952D01*
X601961Y450336D01*
X601853Y450830D01*
X601945Y451327D01*
X602224Y451748D01*
X603264Y452788D01*
X603667Y453059D01*
X604162Y453160D01*
X627148Y453160D01*
X627669Y453681D01*
X628072Y453952D01*
X628567Y454053D01*
X631269Y454053D01*
X634972Y457756D01*
X634972Y462994D01*
X634274Y463692D01*
X634019Y464058D01*
X633902Y464550D01*
X633987Y465048D01*
X634259Y465474D01*
X634676Y465759D01*
X635172Y465860D01*
X645501Y465860D01*
X645977Y465767D01*
X646399Y465488D01*
X652377Y459510D01*
X675378Y459510D01*
X675817Y459432D01*
X676247Y459166D01*
X676539Y458754D01*
X676648Y458260D01*
X676555Y457763D01*
X676276Y457342D01*
X674927Y455993D01*
X673545Y452656D01*
X673545Y449044D01*
X674927Y445707D01*
X677482Y443152D01*
X680819Y441770D01*
X684431Y441770D01*
X687768Y443152D01*
X690323Y445707D01*
X691705Y449044D01*
X691705Y452656D01*
X690323Y455993D01*
X688974Y457342D01*
X688719Y457708D01*
X688603Y458200D01*
X688688Y458698D01*
X688960Y459124D01*
X689377Y459409D01*
X689872Y459510D01*
X693126Y459510D01*
X693602Y459417D01*
X694024Y459138D01*
X697263Y455899D01*
X697534Y455496D01*
X697635Y455001D01*
X697635Y430877D01*
X697542Y430400D01*
X697263Y429979D01*
X695353Y428069D01*
X695353Y422831D01*
X699056Y419128D01*
X704294Y419128D01*
X707997Y422831D01*
X707997Y428069D01*
X706087Y429979D01*
X705816Y430381D01*
X705715Y430877D01*
X705715Y458873D01*
X696998Y467590D01*
X689872Y467590D01*
X689433Y467668D01*
X689003Y467934D01*
X688711Y468346D01*
X688602Y468840D01*
X688695Y469337D01*
X688974Y469758D01*
X690323Y471107D01*
X691705Y474444D01*
X691705Y478056D01*
X690323Y481393D01*
X688974Y482742D01*
X688719Y483108D01*
X688603Y483600D01*
X688688Y484098D01*
X688960Y484524D01*
X689377Y484809D01*
X689872Y484910D01*
X712176Y484910D01*
X712652Y484817D01*
X713074Y484538D01*
X716313Y481299D01*
X716584Y480896D01*
X716685Y480401D01*
X716685Y408599D01*
X716592Y408123D01*
X716313Y407701D01*
X713074Y404462D01*
X712671Y404191D01*
X712176Y404090D01*
X691628Y404090D01*
X691161Y404179D01*
X690737Y404455D01*
X690455Y404874D01*
X690323Y405193D01*
X687768Y407748D01*
X684431Y409130D01*
X680819Y409130D01*
X677482Y407748D01*
X674927Y405193D01*
X673545Y401856D01*
X673545Y398244D01*
X674927Y394907D01*
X676276Y393558D01*
X676531Y393192D01*
X676647Y392700D01*
X676563Y392202D01*
X676290Y391776D01*
X675873Y391491D01*
X675378Y391390D01*
X630152Y391390D01*
X624174Y385412D01*
X623771Y385141D01*
X623276Y385040D01*
X604162Y385040D01*
X603686Y385133D01*
X603264Y385412D01*
X602224Y386452D01*
X601961Y386836D01*
X601853Y387330D01*
X601945Y387827D01*
X602224Y388248D01*
X603360Y389384D01*
X604520Y392184D01*
X604520Y395216D01*
X603360Y398016D01*
X602224Y399152D01*
X601961Y399536D01*
X601853Y400030D01*
X601945Y400527D01*
X602224Y400948D01*
X603360Y402084D01*
X604520Y404884D01*
X604520Y405130D01*
X589280Y405130D01*
X589280Y404884D01*
X590440Y402084D01*
X591576Y400948D01*
X591839Y400564D01*
X591948Y400070D01*
X591855Y399573D01*
X591576Y399152D01*
X590440Y398016D01*
X589280Y395216D01*
X589280Y392184D01*
X590440Y389384D01*
X591576Y388248D01*
X591839Y387864D01*
X591948Y387370D01*
X591855Y386873D01*
X591576Y386452D01*
X590440Y385316D01*
X589280Y382516D01*
X589280Y379484D01*
X590440Y376684D01*
X591576Y375548D01*
X591839Y375164D01*
X591948Y374670D01*
X591855Y374173D01*
X591576Y373752D01*
X590440Y372616D01*
X589280Y369816D01*
X589280Y366784D01*
X590440Y363984D01*
X591576Y362848D01*
X591839Y362464D01*
X591948Y361970D01*
X591855Y361473D01*
X591576Y361052D01*
X590440Y359916D01*
X589280Y357116D01*
X589280Y354084D01*
X590440Y351284D01*
X591576Y350148D01*
X591839Y349764D01*
X591948Y349270D01*
X591855Y348773D01*
X591576Y348352D01*
X590440Y347216D01*
X589280Y344416D01*
X589280Y341384D01*
X590440Y338584D01*
X591576Y337448D01*
X591839Y337064D01*
X591948Y336570D01*
X591855Y336073D01*
X591576Y335652D01*
X590440Y334516D01*
X589280Y331716D01*
X589280Y328684D01*
X590440Y325884D01*
X591576Y324748D01*
X591839Y324364D01*
X591948Y323870D01*
X591855Y323373D01*
X591576Y322952D01*
X590440Y321816D01*
X589280Y319016D01*
X589280Y315984D01*
X590440Y313184D01*
X591576Y312048D01*
X591839Y311664D01*
X591948Y311170D01*
X591855Y310673D01*
X591576Y310252D01*
X590440Y309116D01*
X589280Y306316D01*
X589280Y303284D01*
X590440Y300484D01*
X591576Y299348D01*
X591839Y298964D01*
X591948Y298470D01*
X591855Y297973D01*
X591576Y297552D01*
X590440Y296416D01*
X589280Y293616D01*
X589280Y293370D01*
X604520Y293370D01*
X604520Y293616D01*
X603360Y296416D01*
X602224Y297552D01*
X601961Y297936D01*
X601853Y298430D01*
X601945Y298927D01*
X602224Y299348D01*
X603264Y300388D01*
X603667Y300659D01*
X604162Y300760D01*
X627148Y300760D01*
X633126Y306738D01*
X633529Y307009D01*
X634024Y307110D01*
X675378Y307110D01*
X675817Y307032D01*
X676247Y306766D01*
X676539Y306354D01*
X676648Y305860D01*
X676555Y305363D01*
X676276Y304942D01*
X674927Y303593D01*
X673545Y300256D01*
X673545Y296644D01*
X674927Y293307D01*
X677482Y290752D01*
X680819Y289370D01*
X684431Y289370D01*
X687768Y290752D01*
X690323Y293307D01*
X691705Y296644D01*
X691705Y300256D01*
X690323Y303593D01*
X688974Y304942D01*
X688719Y305308D01*
X688603Y305800D01*
X688688Y306298D01*
X688960Y306724D01*
X689377Y307009D01*
X689872Y307110D01*
X827778Y307110D01*
X828217Y307032D01*
X828647Y306766D01*
X828939Y306354D01*
X829048Y305860D01*
X828955Y305363D01*
X828676Y304942D01*
X827327Y303593D01*
X825945Y300256D01*
X825945Y296644D01*
X827327Y293307D01*
X828176Y292458D01*
X828431Y292092D01*
X828547Y291600D01*
X828463Y291102D01*
X828190Y290676D01*
X827773Y290391D01*
X827278Y290290D01*
X819744Y290290D01*
X819258Y290387D01*
X817077Y291290D01*
X731002Y291290D01*
X730525Y291383D01*
X730104Y291662D01*
X729694Y292072D01*
X724456Y292072D01*
X720753Y288369D01*
X720753Y283131D01*
X724456Y279428D01*
X729694Y279428D01*
X730104Y279838D01*
X730506Y280109D01*
X731002Y280210D01*
X817077Y280210D01*
X819258Y281113D01*
X819744Y281210D01*
X827278Y281210D01*
X827717Y281132D01*
X828147Y280866D01*
X828439Y280454D01*
X828548Y279960D01*
X828455Y279463D01*
X828176Y279042D01*
X827327Y278193D01*
X825945Y274856D01*
X825945Y271244D01*
X827327Y267907D01*
X829882Y265352D01*
X833219Y263970D01*
X836831Y263970D01*
X840168Y265352D01*
X842723Y267907D01*
X844105Y271244D01*
X844105Y274856D01*
X842723Y278193D01*
X841874Y279042D01*
X841619Y279408D01*
X841503Y279900D01*
X841588Y280398D01*
X841860Y280824D01*
X842277Y281109D01*
X842772Y281210D01*
X850306Y281210D01*
X850792Y281113D01*
X852973Y280210D01*
X931164Y280210D01*
X931641Y280117D01*
X932062Y279838D01*
X935802Y276098D01*
X943798Y276098D01*
X949452Y281752D01*
X949452Y289748D01*
X943798Y295402D01*
X935802Y295402D01*
X932062Y291662D01*
X931659Y291391D01*
X931164Y291290D01*
X852973Y291290D01*
X850792Y290387D01*
X850306Y290290D01*
X842772Y290290D01*
X842333Y290368D01*
X841903Y290634D01*
X841611Y291046D01*
X841502Y291540D01*
X841595Y292037D01*
X841874Y292458D01*
X842723Y293307D01*
X844105Y296644D01*
X844105Y300256D01*
X842723Y303593D01*
X841374Y304942D01*
X841119Y305308D01*
X841003Y305800D01*
X841088Y306298D01*
X841360Y306724D01*
X841777Y307009D01*
X842272Y307110D01*
X858923Y307110D01*
X871251Y319438D01*
X871654Y319709D01*
X872149Y319810D01*
X931744Y319810D01*
X932183Y319732D01*
X932613Y319466D01*
X932905Y319054D01*
X933014Y318560D01*
X932921Y318063D01*
X932642Y317642D01*
X930148Y315148D01*
X930148Y307152D01*
X935802Y301498D01*
X943798Y301498D01*
X949452Y307152D01*
X949452Y315148D01*
X946958Y317642D01*
X946703Y318008D01*
X946587Y318500D01*
X946671Y318998D01*
X946944Y319424D01*
X947361Y319709D01*
X947856Y319810D01*
X954173Y319810D01*
X960889Y326526D01*
X961292Y326797D01*
X961787Y326898D01*
X969198Y326898D01*
X974852Y332552D01*
X974852Y340548D01*
X969198Y346202D01*
X961202Y346202D01*
X955548Y340548D01*
X955548Y333137D01*
X955455Y332661D01*
X955176Y332239D01*
X951199Y328262D01*
X950796Y327991D01*
X950301Y327890D01*
X947856Y327890D01*
X947417Y327968D01*
X946987Y328234D01*
X946695Y328646D01*
X946586Y329140D01*
X946679Y329637D01*
X946958Y330058D01*
X949452Y332552D01*
X949452Y340548D01*
X946958Y343042D01*
X946703Y343408D01*
X946587Y343900D01*
X946671Y344398D01*
X946944Y344824D01*
X947361Y345109D01*
X947856Y345210D01*
X954173Y345210D01*
X960889Y351926D01*
X961292Y352197D01*
X961787Y352298D01*
X969198Y352298D01*
X974852Y357952D01*
X974852Y365948D01*
X969198Y371602D01*
X961202Y371602D01*
X955548Y365948D01*
X955548Y358537D01*
X955455Y358061D01*
X955176Y357639D01*
X951199Y353662D01*
X950796Y353391D01*
X950301Y353290D01*
X947856Y353290D01*
X947417Y353368D01*
X946987Y353634D01*
X946695Y354046D01*
X946586Y354540D01*
X946679Y355037D01*
X946958Y355458D01*
X949452Y357952D01*
X949452Y365948D01*
X946958Y368442D01*
X946703Y368808D01*
X946587Y369300D01*
X946671Y369798D01*
X946944Y370224D01*
X947361Y370509D01*
X947856Y370610D01*
X954173Y370610D01*
X960889Y377326D01*
X961292Y377597D01*
X961787Y377698D01*
X969198Y377698D01*
X974852Y383352D01*
X974852Y391348D01*
X969198Y397002D01*
X961202Y397002D01*
X955548Y391348D01*
X955548Y383937D01*
X955455Y383461D01*
X955176Y383039D01*
X951199Y379062D01*
X950796Y378791D01*
X950301Y378690D01*
X947856Y378690D01*
X947417Y378768D01*
X946987Y379034D01*
X946695Y379446D01*
X946586Y379940D01*
X946679Y380437D01*
X946958Y380858D01*
X949452Y383352D01*
X949452Y391348D01*
X946958Y393842D01*
X946703Y394208D01*
X946587Y394700D01*
X946671Y395198D01*
X946944Y395624D01*
X947361Y395909D01*
X947856Y396010D01*
X954173Y396010D01*
X960889Y402726D01*
X961292Y402997D01*
X961787Y403098D01*
X969198Y403098D01*
X974852Y408752D01*
X974852Y416748D01*
X969198Y422402D01*
X961202Y422402D01*
X955548Y416748D01*
X955548Y409337D01*
X955455Y408861D01*
X955176Y408439D01*
X951199Y404462D01*
X950796Y404191D01*
X950301Y404090D01*
X947856Y404090D01*
X947417Y404168D01*
X946987Y404434D01*
X946695Y404846D01*
X946586Y405340D01*
X946679Y405837D01*
X946958Y406258D01*
X949452Y408752D01*
X949452Y416748D01*
X946958Y419242D01*
X946703Y419608D01*
X946587Y420100D01*
X946671Y420598D01*
X946944Y421024D01*
X947361Y421309D01*
X947856Y421410D01*
X954173Y421410D01*
X960889Y428126D01*
X961292Y428397D01*
X961787Y428498D01*
X969198Y428498D01*
X974852Y434152D01*
X974852Y442148D01*
X969198Y447802D01*
X961202Y447802D01*
X955548Y442148D01*
X955548Y434737D01*
X955455Y434261D01*
X955176Y433839D01*
X951199Y429862D01*
X950796Y429591D01*
X950301Y429490D01*
X947856Y429490D01*
X947417Y429568D01*
X946987Y429834D01*
X946695Y430246D01*
X946586Y430740D01*
X946679Y431237D01*
X946958Y431658D01*
X949452Y434152D01*
X949452Y442148D01*
X943798Y447802D01*
X935802Y447802D01*
X930148Y442148D01*
X930148Y434152D01*
X932642Y431658D01*
X932897Y431292D01*
X933013Y430800D01*
X932929Y430302D01*
X932656Y429876D01*
X932239Y429591D01*
X931744Y429490D01*
X868277Y429490D01*
X855949Y417162D01*
X855546Y416891D01*
X855051Y416790D01*
X842272Y416790D01*
X841833Y416868D01*
X841403Y417134D01*
X841111Y417546D01*
X841002Y418040D01*
X841095Y418537D01*
X841374Y418958D01*
X842723Y420307D01*
X844105Y423644D01*
X844105Y427256D01*
X842723Y430593D01*
X840168Y433148D01*
X836831Y434530D01*
X833219Y434530D01*
X829882Y433148D01*
X827327Y430593D01*
X827195Y430274D01*
X826934Y429876D01*
X826517Y429591D01*
X826022Y429490D01*
X761024Y429490D01*
X760548Y429583D01*
X760126Y429862D01*
X756887Y433101D01*
X756616Y433504D01*
X756515Y433999D01*
X756515Y509673D01*
X747798Y518390D01*
X689872Y518390D01*
X689433Y518468D01*
X689003Y518734D01*
X688711Y519146D01*
X688602Y519640D01*
X688695Y520137D01*
X688974Y520558D01*
X690323Y521907D01*
X691705Y525244D01*
X691705Y528856D01*
X690323Y532193D01*
X687768Y534748D01*
X684431Y536130D01*
X680819Y536130D01*
X677482Y534748D01*
X674927Y532193D01*
X673545Y528856D01*
X673545Y525244D01*
X674927Y521907D01*
X676276Y520558D01*
X676531Y520192D01*
X676647Y519700D01*
X676563Y519202D01*
X676290Y518776D01*
X675873Y518491D01*
X675378Y518390D01*
X662599Y518390D01*
X662123Y518483D01*
X661701Y518762D01*
X655723Y524740D01*
X604162Y524740D01*
X603686Y524833D01*
X603264Y525112D01*
X602224Y526152D01*
X601961Y526536D01*
X601853Y527030D01*
X601945Y527527D01*
X602224Y527948D01*
X603360Y529084D01*
X604520Y531884D01*
X604520Y532130D01*
X589280Y532130D01*
X589280Y531884D01*
X590440Y529084D01*
X591576Y527948D01*
X591839Y527564D01*
X591948Y527070D01*
X591855Y526573D01*
X591576Y526152D01*
X590440Y525016D01*
X589280Y522216D01*
X589280Y519184D01*
X590440Y516384D01*
X591576Y515248D01*
X591839Y514864D01*
X591948Y514370D01*
X591855Y513873D01*
X591576Y513452D01*
X590536Y512412D01*
X590133Y512141D01*
X589638Y512040D01*
X491149Y512040D01*
X490673Y512133D01*
X490251Y512412D01*
X487012Y515651D01*
X486741Y516054D01*
X486640Y516549D01*
X486640Y731226D01*
X486733Y731702D01*
X487012Y732124D01*
X490251Y735363D01*
X490654Y735634D01*
X491149Y735735D01*
X982051Y735735D01*
X982527Y735642D01*
X982949Y735363D01*
X986188Y732124D01*
X986459Y731721D01*
X986560Y731226D01*
X986560Y720844D01*
X986482Y720406D01*
X986216Y719976D01*
X985804Y719683D01*
X985310Y719575D01*
X984813Y719667D01*
X984392Y719946D01*
X976398Y727940D01*
X503152Y727940D01*
X494435Y719223D01*
X494435Y563477D01*
X503152Y554760D01*
X589638Y554760D01*
X590114Y554667D01*
X590536Y554388D01*
X591576Y553348D01*
X591839Y552964D01*
X591948Y552470D01*
X591855Y551973D01*
X591576Y551552D01*
X590440Y550416D01*
X589280Y547616D01*
X589280Y547370D01*
X604520Y547370D01*
X604520Y547616D01*
X603360Y550416D01*
X602224Y551552D01*
X601961Y551936D01*
X601853Y552430D01*
X601945Y552927D01*
X602224Y553348D01*
X603360Y554484D01*
X604520Y557284D01*
X604520Y560316D01*
X603360Y563116D01*
X602224Y564252D01*
X601961Y564636D01*
X601853Y565130D01*
X601945Y565627D01*
X602224Y566048D01*
X603360Y567184D01*
X604520Y569984D01*
X604520Y573016D01*
X603360Y575816D01*
X602224Y576952D01*
X601961Y577336D01*
X601853Y577830D01*
X601945Y578327D01*
X602224Y578748D01*
X603360Y579884D01*
X604520Y582684D01*
X604520Y585716D01*
X603360Y588516D01*
X602224Y589652D01*
X601961Y590036D01*
X601853Y590530D01*
X601945Y591027D01*
X602224Y591448D01*
X603360Y592584D01*
X604520Y595384D01*
X604520Y598416D01*
X603360Y601216D01*
X602224Y602352D01*
X601961Y602736D01*
X601853Y603230D01*
X601945Y603727D01*
X602224Y604148D01*
X603360Y605284D01*
X604520Y608084D01*
X604520Y611116D01*
X603360Y613916D01*
X602224Y615052D01*
X601961Y615436D01*
X601853Y615930D01*
X601945Y616427D01*
X602224Y616848D01*
X603360Y617984D01*
X604520Y620784D01*
X604520Y623816D01*
X603360Y626616D01*
X602224Y627752D01*
X601961Y628136D01*
X601853Y628630D01*
X601945Y629127D01*
X602224Y629548D01*
X603360Y630684D01*
X604520Y633484D01*
X604520Y636516D01*
X603360Y639316D01*
X602224Y640452D01*
X601961Y640836D01*
X601853Y641330D01*
X601945Y641827D01*
X602224Y642248D01*
X603360Y643384D01*
X604520Y646184D01*
X604520Y649216D01*
X603360Y652016D01*
X601216Y654160D01*
X598416Y655320D01*
X595384Y655320D01*
X592584Y654160D01*
X590440Y652016D01*
X589280Y649216D01*
X589280Y646184D01*
X590440Y643384D01*
X591576Y642248D01*
X591839Y641864D01*
X591948Y641370D01*
X591855Y640873D01*
X591576Y640452D01*
X590536Y639412D01*
X590133Y639141D01*
X589638Y639040D01*
X554649Y639040D01*
X554173Y639133D01*
X553751Y639412D01*
X550512Y642651D01*
X550241Y643054D01*
X550140Y643549D01*
X550140Y667726D01*
X550233Y668202D01*
X550512Y668624D01*
X553751Y671863D01*
X554154Y672134D01*
X554649Y672235D01*
X680926Y672235D01*
X681355Y672160D01*
X681788Y671898D01*
X682083Y671488D01*
X682196Y670995D01*
X682107Y670498D01*
X681831Y670074D01*
X681412Y669792D01*
X680333Y669345D01*
X677617Y666629D01*
X676148Y663082D01*
X676148Y645018D01*
X677617Y641471D01*
X680333Y638755D01*
X683880Y637286D01*
X687720Y637286D01*
X691267Y638755D01*
X693983Y641471D01*
X695452Y645018D01*
X695452Y663082D01*
X693983Y666629D01*
X691267Y669345D01*
X690188Y669792D01*
X689820Y670025D01*
X689521Y670433D01*
X689405Y670925D01*
X689489Y671423D01*
X689762Y671849D01*
X690179Y672134D01*
X690674Y672235D01*
X706326Y672235D01*
X706755Y672160D01*
X707188Y671898D01*
X707483Y671488D01*
X707596Y670995D01*
X707507Y670498D01*
X707231Y670074D01*
X706812Y669792D01*
X705733Y669345D01*
X703017Y666629D01*
X701548Y663082D01*
X701548Y645018D01*
X703017Y641471D01*
X705733Y638755D01*
X709280Y637286D01*
X713120Y637286D01*
X716667Y638755D01*
X719383Y641471D01*
X720852Y645018D01*
X720852Y663082D01*
X719383Y666629D01*
X716667Y669345D01*
X715588Y669792D01*
X715220Y670025D01*
X714921Y670433D01*
X714805Y670925D01*
X714889Y671423D01*
X715162Y671849D01*
X715579Y672134D01*
X716074Y672235D01*
X747601Y672235D01*
X748030Y672160D01*
X748463Y671898D01*
X748758Y671488D01*
X748871Y670995D01*
X748782Y670498D01*
X748506Y670074D01*
X748087Y669792D01*
X747008Y669345D01*
X744292Y666629D01*
X742823Y663082D01*
X742823Y645018D01*
X744292Y641471D01*
X747008Y638755D01*
X750555Y637286D01*
X754395Y637286D01*
X757942Y638755D01*
X760658Y641471D01*
X762127Y645018D01*
X762127Y663082D01*
X760658Y666629D01*
X757942Y669345D01*
X756863Y669792D01*
X756495Y670025D01*
X756196Y670433D01*
X756080Y670925D01*
X756164Y671423D01*
X756437Y671849D01*
X756854Y672134D01*
X757349Y672235D01*
X773001Y672235D01*
X773430Y672160D01*
X773863Y671898D01*
X774158Y671488D01*
X774271Y670995D01*
X774182Y670498D01*
X773906Y670074D01*
X773487Y669792D01*
X772408Y669345D01*
X769692Y666629D01*
X768223Y663082D01*
X768223Y645018D01*
X769692Y641471D01*
X771963Y639200D01*
X772234Y638797D01*
X772335Y638302D01*
X772335Y637821D01*
X772242Y637344D01*
X771963Y636923D01*
X769602Y634562D01*
X769200Y634291D01*
X768704Y634190D01*
X672746Y634190D01*
X672269Y634283D01*
X671848Y634562D01*
X638138Y668272D01*
X636102Y669115D01*
X567223Y669115D01*
X565187Y668272D01*
X557278Y660363D01*
X556435Y658327D01*
X556435Y654802D01*
X556342Y654325D01*
X556063Y653904D01*
X555653Y653494D01*
X555653Y648256D01*
X559356Y644553D01*
X564594Y644553D01*
X568297Y648256D01*
X568297Y653494D01*
X568086Y653705D01*
X567822Y654089D01*
X567714Y654583D01*
X567807Y655080D01*
X568086Y655501D01*
X570248Y657663D01*
X570650Y657934D01*
X571146Y658035D01*
X632179Y658035D01*
X632656Y657942D01*
X633077Y657663D01*
X666787Y623953D01*
X668823Y623110D01*
X772627Y623110D01*
X774663Y623953D01*
X782572Y631862D01*
X783415Y633898D01*
X783415Y638302D01*
X783508Y638779D01*
X783787Y639200D01*
X786058Y641471D01*
X787527Y645018D01*
X787527Y647240D01*
X787612Y647698D01*
X787885Y648124D01*
X788302Y648409D01*
X788797Y648510D01*
X902054Y648510D01*
X902531Y648417D01*
X902952Y648138D01*
X908488Y642602D01*
X908759Y642200D01*
X908860Y641704D01*
X908860Y519598D01*
X909703Y517562D01*
X917612Y509653D01*
X919648Y508810D01*
X931164Y508810D01*
X931641Y508717D01*
X932062Y508438D01*
X932642Y507858D01*
X932897Y507492D01*
X933013Y507000D01*
X932929Y506502D01*
X932656Y506076D01*
X932239Y505791D01*
X931744Y505690D01*
X900724Y505690D01*
X900248Y505783D01*
X899826Y506062D01*
X896587Y509301D01*
X896316Y509704D01*
X896215Y510199D01*
X896215Y535073D01*
X887498Y543790D01*
X842272Y543790D01*
X841833Y543868D01*
X841403Y544134D01*
X841111Y544546D01*
X841002Y545040D01*
X841095Y545537D01*
X841374Y545958D01*
X842723Y547307D01*
X844105Y550644D01*
X844105Y551180D01*
X825945Y551180D01*
X825945Y550644D01*
X827327Y547307D01*
X828676Y545958D01*
X828931Y545592D01*
X829047Y545100D01*
X828963Y544602D01*
X828690Y544176D01*
X828273Y543891D01*
X827778Y543790D01*
X742027Y543790D01*
X741550Y543883D01*
X741129Y544162D01*
X739219Y546072D01*
X733981Y546072D01*
X730278Y542369D01*
X730278Y537131D01*
X733981Y533428D01*
X739219Y533428D01*
X741129Y535338D01*
X741531Y535609D01*
X742027Y535710D01*
X749128Y535710D01*
X749567Y535632D01*
X749997Y535366D01*
X750290Y534954D01*
X750398Y534460D01*
X750305Y533963D01*
X750026Y533542D01*
X746153Y529669D01*
X746153Y524431D01*
X749856Y520728D01*
X755094Y520728D01*
X757004Y522638D01*
X757406Y522909D01*
X757902Y523010D01*
X807426Y523010D01*
X807902Y522917D01*
X808324Y522638D01*
X820652Y510310D01*
X827778Y510310D01*
X828217Y510232D01*
X828647Y509966D01*
X828939Y509554D01*
X829048Y509060D01*
X828955Y508563D01*
X828676Y508142D01*
X827200Y506666D01*
X827141Y506576D01*
X826724Y506291D01*
X826229Y506190D01*
X789152Y506190D01*
X788675Y506283D01*
X788254Y506562D01*
X786844Y507972D01*
X781606Y507972D01*
X777903Y504269D01*
X777903Y499031D01*
X781606Y495328D01*
X786844Y495328D01*
X788254Y496738D01*
X788656Y497009D01*
X789152Y497110D01*
X826229Y497110D01*
X826696Y497021D01*
X827120Y496745D01*
X827183Y496650D01*
X829882Y493952D01*
X833219Y492570D01*
X836831Y492570D01*
X840168Y493952D01*
X842723Y496507D01*
X844105Y499844D01*
X844105Y503456D01*
X842723Y506793D01*
X841374Y508142D01*
X841119Y508508D01*
X841003Y509000D01*
X841088Y509498D01*
X841360Y509924D01*
X841777Y510209D01*
X842272Y510310D01*
X851876Y510310D01*
X852352Y510217D01*
X852774Y509938D01*
X856013Y506699D01*
X856284Y506296D01*
X856385Y505801D01*
X856385Y480927D01*
X865102Y472210D01*
X931744Y472210D01*
X932183Y472132D01*
X932613Y471866D01*
X932905Y471454D01*
X933014Y470960D01*
X932921Y470463D01*
X932642Y470042D01*
X930148Y467548D01*
X930148Y459552D01*
X935802Y453898D01*
X943798Y453898D01*
X949452Y459552D01*
X949452Y467548D01*
X946958Y470042D01*
X946703Y470408D01*
X946587Y470900D01*
X946671Y471398D01*
X946944Y471824D01*
X947361Y472109D01*
X947856Y472210D01*
X950301Y472210D01*
X950777Y472117D01*
X951199Y471838D01*
X955176Y467861D01*
X955447Y467458D01*
X955548Y466963D01*
X955548Y459552D01*
X961202Y453898D01*
X969198Y453898D01*
X974852Y459552D01*
X974852Y467548D01*
X969198Y473202D01*
X961787Y473202D01*
X961311Y473295D01*
X960889Y473574D01*
X954173Y480290D01*
X947856Y480290D01*
X947417Y480368D01*
X946987Y480634D01*
X946695Y481046D01*
X946586Y481540D01*
X946679Y482037D01*
X946958Y482458D01*
X949452Y484952D01*
X949452Y492948D01*
X946958Y495442D01*
X946703Y495808D01*
X946587Y496300D01*
X946671Y496798D01*
X946944Y497224D01*
X947361Y497509D01*
X947856Y497610D01*
X950301Y497610D01*
X950777Y497517D01*
X951199Y497238D01*
X955176Y493261D01*
X955447Y492858D01*
X955548Y492363D01*
X955548Y484952D01*
X961202Y479298D01*
X969198Y479298D01*
X974852Y484952D01*
X974852Y492948D01*
X969198Y498602D01*
X961787Y498602D01*
X961311Y498695D01*
X960889Y498974D01*
X954173Y505690D01*
X947856Y505690D01*
X947417Y505768D01*
X946987Y506034D01*
X946695Y506446D01*
X946586Y506940D01*
X946679Y507437D01*
X946958Y507858D01*
X949452Y510352D01*
X949452Y518348D01*
X943798Y524002D01*
X935802Y524002D01*
X932062Y520262D01*
X931659Y519991D01*
X931164Y519890D01*
X923571Y519890D01*
X923094Y519983D01*
X922673Y520262D01*
X920312Y522623D01*
X920041Y523025D01*
X919940Y523521D01*
X919940Y645627D01*
X919097Y647663D01*
X908013Y658747D01*
X905977Y659590D01*
X788797Y659590D01*
X788339Y659675D01*
X787913Y659948D01*
X787628Y660365D01*
X787527Y660860D01*
X787527Y663082D01*
X786058Y666629D01*
X783342Y669345D01*
X782263Y669792D01*
X781895Y670025D01*
X781596Y670433D01*
X781480Y670925D01*
X781564Y671423D01*
X781837Y671849D01*
X782254Y672134D01*
X782749Y672235D01*
X956651Y672235D01*
X957127Y672142D01*
X957549Y671863D01*
X960788Y668624D01*
X961059Y668221D01*
X961160Y667726D01*
X961160Y651486D01*
X961067Y651009D01*
X960788Y650588D01*
X955548Y645348D01*
X955548Y637352D01*
X961202Y631698D01*
X969198Y631698D01*
X974867Y637367D01*
X975233Y637622D01*
X975725Y637738D01*
X976223Y637654D01*
X976649Y637381D01*
X976934Y636964D01*
X977035Y636469D01*
X977035Y620831D01*
X976957Y620392D01*
X976691Y619962D01*
X976279Y619670D01*
X975785Y619561D01*
X975288Y619654D01*
X974867Y619933D01*
X969198Y625602D01*
X961202Y625602D01*
X955548Y619948D01*
X955548Y611952D01*
X961202Y606298D01*
X969198Y606298D01*
X974867Y611967D01*
X975233Y612222D01*
X975725Y612338D01*
X976223Y612254D01*
X976649Y611981D01*
X976934Y611564D01*
X977035Y611069D01*
X977035Y595431D01*
X976957Y594992D01*
X976691Y594562D01*
X976279Y594270D01*
X975785Y594161D01*
X975288Y594254D01*
X974867Y594533D01*
X969198Y600202D01*
X961202Y600202D01*
X955548Y594548D01*
X955548Y586552D01*
X961202Y580898D01*
X969198Y580898D01*
X974867Y586567D01*
X975233Y586822D01*
X975725Y586938D01*
X976223Y586854D01*
X976649Y586581D01*
X976934Y586164D01*
X977035Y585669D01*
X977035Y573699D01*
X976942Y573223D01*
X976663Y572801D01*
X974829Y570967D01*
X974445Y570704D01*
X973951Y570595D01*
X973454Y570688D01*
X973033Y570967D01*
X969198Y574802D01*
X961202Y574802D01*
X955548Y569148D01*
X955548Y561152D01*
X961202Y555498D01*
X969198Y555498D01*
X974438Y560738D01*
X974841Y561009D01*
X975336Y561110D01*
X976398Y561110D01*
X984392Y569104D01*
X984758Y569359D01*
X985250Y569475D01*
X985748Y569390D01*
X986174Y569118D01*
X986459Y568701D01*
X986560Y568206D01*
X986560Y548299D01*
X986467Y547823D01*
X986188Y547401D01*
X982949Y544162D01*
X982546Y543891D01*
X982051Y543790D01*
X975336Y543790D01*
X974859Y543883D01*
X974438Y544162D01*
X969198Y549402D01*
X961202Y549402D01*
X955548Y543748D01*
X955548Y535752D01*
X961202Y530098D01*
X969198Y530098D01*
X974438Y535338D01*
X974841Y535609D01*
X975336Y535710D01*
X985923Y535710D01*
X991990Y541777D01*
X992356Y542032D01*
X992848Y542148D01*
X993346Y542063D01*
X993772Y541791D01*
X994057Y541374D01*
X994158Y540879D01*
X994158Y310021D01*
X994080Y309583D01*
X993814Y309153D01*
X993402Y308860D01*
X992908Y308752D01*
X992411Y308844D01*
X991990Y309123D01*
X985923Y315190D01*
X975336Y315190D01*
X974859Y315283D01*
X974438Y315562D01*
X969198Y320802D01*
X961202Y320802D01*
X955548Y315148D01*
X955548Y307152D01*
X961202Y301498D01*
X969198Y301498D01*
X974438Y306738D01*
X974841Y307009D01*
X975336Y307110D01*
X982051Y307110D01*
X982527Y307017D01*
X982949Y306738D01*
X986188Y303499D01*
X986459Y303096D01*
X986560Y302601D01*
X986560Y257294D01*
X986482Y256856D01*
X986216Y256426D01*
X985804Y256133D01*
X985310Y256025D01*
X984813Y256117D01*
X984392Y256396D01*
X976398Y264390D01*
X975336Y264390D01*
X974859Y264483D01*
X974438Y264762D01*
X969198Y270002D01*
X961202Y270002D01*
X955548Y264348D01*
X955548Y256352D01*
X961202Y250698D01*
X969198Y250698D01*
X973033Y254533D01*
X973417Y254796D01*
X973911Y254905D01*
X974407Y254812D01*
X974829Y254533D01*
X976663Y252699D01*
X976934Y252296D01*
X977035Y251801D01*
X977035Y239831D01*
X976957Y239392D01*
X976691Y238962D01*
X976279Y238670D01*
X975785Y238561D01*
X975288Y238654D01*
X974867Y238933D01*
X969198Y244602D01*
X961202Y244602D01*
X955548Y238948D01*
X955548Y230952D01*
X961202Y225298D01*
X969198Y225298D01*
X974867Y230967D01*
X975233Y231222D01*
X975725Y231338D01*
X976223Y231254D01*
X976649Y230981D01*
X976934Y230564D01*
X977035Y230069D01*
X977035Y214431D01*
X976957Y213992D01*
X976691Y213562D01*
X976279Y213270D01*
X975785Y213161D01*
X975288Y213254D01*
X974867Y213533D01*
X969198Y219202D01*
X961202Y219202D01*
X955548Y213548D01*
X955548Y205552D01*
X961202Y199898D01*
X969198Y199898D01*
X974867Y205567D01*
X975233Y205822D01*
X975725Y205938D01*
X976223Y205854D01*
X976649Y205581D01*
X976934Y205164D01*
X977035Y204669D01*
X977035Y189031D01*
X976957Y188592D01*
X976691Y188162D01*
X976279Y187870D01*
X975785Y187761D01*
X975288Y187854D01*
X974867Y188133D01*
X969198Y193802D01*
X961202Y193802D01*
X955548Y188148D01*
X955548Y180737D01*
X955455Y180261D01*
X955176Y179839D01*
X948460Y173123D01*
X948460Y166806D01*
X948382Y166367D01*
X948116Y165937D01*
X947704Y165645D01*
X947210Y165536D01*
X946713Y165629D01*
X946292Y165908D01*
X943798Y168402D01*
X935802Y168402D01*
X930148Y162748D01*
X930148Y160885D01*
X930063Y160427D01*
X929790Y160001D01*
X929373Y159716D01*
X928878Y159615D01*
X653074Y159615D01*
X652598Y159708D01*
X652176Y159987D01*
X648937Y163226D01*
X648666Y163629D01*
X648565Y164124D01*
X648565Y236623D01*
X639848Y245340D01*
X604162Y245340D01*
X603686Y245433D01*
X603264Y245712D01*
X602224Y246752D01*
X601961Y247136D01*
X601853Y247630D01*
X601945Y248127D01*
X602224Y248548D01*
X603360Y249684D01*
X604520Y252484D01*
X604520Y255516D01*
X603360Y258316D01*
X602224Y259452D01*
X601961Y259836D01*
X601853Y260330D01*
X601945Y260827D01*
X602224Y261248D01*
X603264Y262288D01*
X603667Y262559D01*
X604162Y262660D01*
X651851Y262660D01*
X652327Y262567D01*
X652749Y262288D01*
X655988Y259049D01*
X656259Y258646D01*
X656360Y258151D01*
X656360Y176127D01*
X665077Y167410D01*
X928773Y167410D01*
X935489Y174126D01*
X935892Y174397D01*
X936387Y174498D01*
X943798Y174498D01*
X949452Y180152D01*
X949452Y188148D01*
X943798Y193802D01*
X935802Y193802D01*
X930148Y188148D01*
X930148Y180737D01*
X930055Y180261D01*
X929776Y179839D01*
X925799Y175862D01*
X925396Y175591D01*
X924901Y175490D01*
X668949Y175490D01*
X668473Y175583D01*
X668051Y175862D01*
X664812Y179101D01*
X664541Y179504D01*
X664440Y179999D01*
X664440Y262023D01*
X655723Y270740D01*
X604162Y270740D01*
X603686Y270833D01*
X603264Y271112D01*
X602224Y272152D01*
X601961Y272536D01*
X601853Y273030D01*
X601945Y273527D01*
X602224Y273948D01*
X603360Y275084D01*
X604520Y277884D01*
X604520Y278130D01*
X589280Y278130D01*
X589280Y277884D01*
X590440Y275084D01*
X591576Y273948D01*
X591839Y273564D01*
X591948Y273070D01*
X591855Y272573D01*
X591576Y272152D01*
X590440Y271016D01*
X589280Y268216D01*
X589280Y265184D01*
X590440Y262384D01*
X591576Y261248D01*
X591839Y260864D01*
X591948Y260370D01*
X591855Y259873D01*
X591576Y259452D01*
X590536Y258412D01*
X590133Y258141D01*
X589638Y258040D01*
X528552Y258040D01*
X519835Y249323D01*
X519835Y65002D01*
X528552Y56285D01*
X957530Y56285D01*
X957960Y56210D01*
X958392Y55948D01*
X958688Y55538D01*
X958800Y55045D01*
X958711Y54548D01*
X958435Y54124D01*
X958016Y53842D01*
X953626Y52023D01*
X947977Y46374D01*
X944920Y38994D01*
X944920Y31006D01*
X947977Y23626D01*
X953626Y17977D01*
X961006Y14920D01*
X968994Y14920D01*
X976374Y17977D01*
X982023Y23626D01*
X985080Y31006D01*
X985080Y38994D01*
X982023Y46374D01*
X976374Y52023D01*
X971984Y53842D01*
X971616Y54075D01*
X971317Y54483D01*
X971200Y54975D01*
X971285Y55473D01*
X971558Y55899D01*
X971974Y56184D01*
X972470Y56285D01*
X985923Y56285D01*
X991990Y62352D01*
X992356Y62607D01*
X992848Y62723D01*
X993346Y62638D01*
X993772Y62366D01*
X994057Y61949D01*
X994158Y61454D01*
X994158Y7112D01*
X994073Y6654D01*
X993800Y6228D01*
X993383Y5943D01*
G37*
%LPC*%
G36*
X31006Y744920D02*
X38994Y744920D01*
X46374Y747977D01*
X52023Y753626D01*
X55080Y761006D01*
X55080Y768994D01*
X52023Y776374D01*
X46374Y782023D01*
X38994Y785080D01*
X31006Y785080D01*
X23626Y782023D01*
X17977Y776374D01*
X14920Y768994D01*
X14920Y761006D01*
X17977Y753626D01*
X23626Y747977D01*
X31006Y744920D01*
G37*
G36*
X171922Y622184D02*
X184338Y622184D01*
X185826Y623672D01*
X185826Y639978D01*
X184338Y641466D01*
X183440Y641466D01*
X182982Y641551D01*
X182556Y641824D01*
X182271Y642241D01*
X182170Y642736D01*
X182170Y712543D01*
X170719Y723994D01*
X134962Y723994D01*
X134504Y724079D01*
X134078Y724352D01*
X133792Y724769D01*
X133692Y725264D01*
X133692Y726829D01*
X132204Y728317D01*
X115446Y728317D01*
X113959Y726829D01*
X113959Y726416D01*
X113873Y725958D01*
X113601Y725532D01*
X113184Y725247D01*
X112689Y725146D01*
X110629Y725146D01*
X110162Y725235D01*
X109738Y725511D01*
X109456Y725930D01*
X109070Y726861D01*
X106212Y729719D01*
X102478Y731266D01*
X83196Y731266D01*
X79462Y729719D01*
X76604Y726861D01*
X76218Y725930D01*
X75957Y725532D01*
X75540Y725247D01*
X75045Y725146D01*
X45605Y725146D01*
X45138Y725235D01*
X44714Y725511D01*
X44432Y725930D01*
X44046Y726861D01*
X41188Y729719D01*
X37454Y731266D01*
X18172Y731266D01*
X14438Y729719D01*
X11580Y726861D01*
X10033Y723127D01*
X10033Y719085D01*
X11580Y715351D01*
X14438Y712493D01*
X18172Y710946D01*
X37454Y710946D01*
X41188Y712493D01*
X44046Y715351D01*
X44432Y716282D01*
X44693Y716680D01*
X45110Y716965D01*
X45605Y717066D01*
X75045Y717066D01*
X75512Y716977D01*
X75936Y716701D01*
X76218Y716282D01*
X76604Y715351D01*
X79462Y712493D01*
X83196Y710946D01*
X102478Y710946D01*
X106212Y712493D01*
X109070Y715351D01*
X109456Y716282D01*
X109717Y716680D01*
X110134Y716965D01*
X110629Y717066D01*
X112689Y717066D01*
X113146Y716981D01*
X113572Y716708D01*
X113858Y716291D01*
X113959Y715796D01*
X113959Y713079D01*
X114939Y712098D01*
X115203Y711714D01*
X115311Y711220D01*
X115219Y710723D01*
X114939Y710302D01*
X113959Y709321D01*
X113959Y703716D01*
X133692Y703716D01*
X133692Y709321D01*
X132711Y710302D01*
X132447Y710686D01*
X132339Y711180D01*
X132432Y711677D01*
X132711Y712098D01*
X133692Y713079D01*
X133692Y714644D01*
X133777Y715102D01*
X134049Y715528D01*
X134466Y715813D01*
X134962Y715914D01*
X166847Y715914D01*
X167323Y715821D01*
X167745Y715542D01*
X173718Y709569D01*
X173989Y709166D01*
X174090Y708671D01*
X174090Y642736D01*
X174005Y642278D01*
X173732Y641852D01*
X173315Y641567D01*
X172820Y641466D01*
X171922Y641466D01*
X170434Y639978D01*
X170434Y623672D01*
X171922Y622184D01*
G37*
G36*
X115446Y694083D02*
X122555Y694083D01*
X122555Y701176D01*
X113959Y701176D01*
X113959Y695571D01*
X115446Y694083D01*
G37*
G36*
X125095Y694083D02*
X132204Y694083D01*
X133692Y695571D01*
X133692Y701176D01*
X125095Y701176D01*
X125095Y694083D01*
G37*
G36*
X75057Y677164D02*
X91567Y677164D01*
X91567Y686054D01*
X83196Y686054D01*
X79462Y684507D01*
X76604Y681649D01*
X75057Y677915D01*
X75057Y677164D01*
G37*
G36*
X10033Y677164D02*
X26543Y677164D01*
X26543Y686054D01*
X18172Y686054D01*
X14438Y684507D01*
X11580Y681649D01*
X10033Y677915D01*
X10033Y677164D01*
G37*
G36*
X94107Y677164D02*
X110617Y677164D01*
X110617Y677915D01*
X109070Y681649D01*
X106212Y684507D01*
X102478Y686054D01*
X94107Y686054D01*
X94107Y677164D01*
G37*
G36*
X29083Y677164D02*
X45593Y677164D01*
X45593Y677915D01*
X44046Y681649D01*
X41188Y684507D01*
X37454Y686054D01*
X29083Y686054D01*
X29083Y677164D01*
G37*
G36*
X94107Y665734D02*
X102478Y665734D01*
X106212Y667281D01*
X109070Y670139D01*
X110617Y673873D01*
X110617Y674624D01*
X94107Y674624D01*
X94107Y665734D01*
G37*
G36*
X18172Y665734D02*
X26543Y665734D01*
X26543Y674624D01*
X10033Y674624D01*
X10033Y673873D01*
X11580Y670139D01*
X14438Y667281D01*
X18172Y665734D01*
G37*
G36*
X29083Y665734D02*
X37454Y665734D01*
X41188Y667281D01*
X44046Y670139D01*
X45593Y673873D01*
X45593Y674624D01*
X29083Y674624D01*
X29083Y665734D01*
G37*
G36*
X83196Y665734D02*
X91567Y665734D01*
X91567Y674624D01*
X75057Y674624D01*
X75057Y673873D01*
X76604Y670139D01*
X79462Y667281D01*
X83196Y665734D01*
G37*
G36*
X171922Y596784D02*
X184338Y596784D01*
X185826Y598272D01*
X185826Y614578D01*
X184338Y616066D01*
X171922Y616066D01*
X170434Y614578D01*
X170434Y611735D01*
X170349Y611277D01*
X170076Y610851D01*
X169659Y610566D01*
X169164Y610465D01*
X160949Y610465D01*
X160473Y610558D01*
X160051Y610837D01*
X156812Y614076D01*
X156541Y614479D01*
X156440Y614974D01*
X156440Y646198D01*
X147723Y654915D01*
X134962Y654915D01*
X134504Y655000D01*
X134078Y655273D01*
X133792Y655690D01*
X133692Y656185D01*
X133692Y656979D01*
X132204Y658467D01*
X115446Y658467D01*
X113959Y656979D01*
X113959Y656566D01*
X113873Y656108D01*
X113601Y655682D01*
X113184Y655397D01*
X112689Y655296D01*
X110629Y655296D01*
X110162Y655385D01*
X109738Y655661D01*
X109456Y656080D01*
X109070Y657011D01*
X106212Y659869D01*
X102478Y661416D01*
X83196Y661416D01*
X79462Y659869D01*
X76604Y657011D01*
X76218Y656080D01*
X75957Y655682D01*
X75540Y655397D01*
X75045Y655296D01*
X45605Y655296D01*
X45138Y655385D01*
X44714Y655661D01*
X44432Y656080D01*
X44046Y657011D01*
X41188Y659869D01*
X37454Y661416D01*
X18172Y661416D01*
X14438Y659869D01*
X11580Y657011D01*
X10033Y653277D01*
X10033Y649235D01*
X11580Y645501D01*
X14438Y642643D01*
X18172Y641096D01*
X37454Y641096D01*
X41188Y642643D01*
X44046Y645501D01*
X44432Y646432D01*
X44693Y646830D01*
X45110Y647115D01*
X45605Y647216D01*
X75045Y647216D01*
X75512Y647127D01*
X75936Y646851D01*
X76218Y646432D01*
X76604Y645501D01*
X79462Y642643D01*
X83196Y641096D01*
X102478Y641096D01*
X106212Y642643D01*
X109070Y645501D01*
X109456Y646432D01*
X109717Y646830D01*
X110134Y647115D01*
X110629Y647216D01*
X112689Y647216D01*
X113146Y647131D01*
X113572Y646858D01*
X113858Y646441D01*
X113959Y645946D01*
X113959Y643229D01*
X114939Y642248D01*
X115203Y641864D01*
X115311Y641370D01*
X115219Y640873D01*
X114939Y640452D01*
X113959Y639471D01*
X113959Y633866D01*
X133692Y633866D01*
X133692Y639471D01*
X132711Y640452D01*
X132447Y640836D01*
X132339Y641330D01*
X132432Y641827D01*
X132711Y642248D01*
X133692Y643229D01*
X133692Y645565D01*
X133777Y646023D01*
X134049Y646449D01*
X134466Y646734D01*
X134962Y646835D01*
X143851Y646835D01*
X144327Y646742D01*
X144749Y646463D01*
X147988Y643224D01*
X148259Y642821D01*
X148360Y642326D01*
X148360Y611102D01*
X157077Y602385D01*
X169164Y602385D01*
X169622Y602300D01*
X170048Y602027D01*
X170333Y601610D01*
X170434Y601115D01*
X170434Y598272D01*
X171922Y596784D01*
G37*
G36*
X335280Y547370D02*
X350520Y547370D01*
X350520Y547616D01*
X349360Y550416D01*
X348224Y551552D01*
X347961Y551936D01*
X347853Y552430D01*
X347945Y552927D01*
X348224Y553348D01*
X349360Y554484D01*
X350520Y557284D01*
X350520Y560316D01*
X349360Y563116D01*
X348224Y564252D01*
X347961Y564636D01*
X347853Y565130D01*
X347945Y565627D01*
X348224Y566048D01*
X349360Y567184D01*
X350520Y569984D01*
X350520Y573016D01*
X349360Y575816D01*
X348224Y576952D01*
X347961Y577336D01*
X347853Y577830D01*
X347945Y578327D01*
X348224Y578748D01*
X349360Y579884D01*
X350520Y582684D01*
X350520Y585716D01*
X349360Y588516D01*
X348224Y589652D01*
X347961Y590036D01*
X347853Y590530D01*
X347945Y591027D01*
X348224Y591448D01*
X349360Y592584D01*
X350520Y595384D01*
X350520Y598416D01*
X349360Y601216D01*
X348224Y602352D01*
X347961Y602736D01*
X347853Y603230D01*
X347945Y603727D01*
X348224Y604148D01*
X349360Y605284D01*
X350520Y608084D01*
X350520Y611116D01*
X349360Y613916D01*
X348224Y615052D01*
X347961Y615436D01*
X347853Y615930D01*
X347945Y616427D01*
X348224Y616848D01*
X349360Y617984D01*
X350520Y620784D01*
X350520Y623816D01*
X349360Y626616D01*
X348224Y627752D01*
X347961Y628136D01*
X347853Y628630D01*
X347945Y629127D01*
X348224Y629548D01*
X349360Y630684D01*
X350520Y633484D01*
X350520Y636516D01*
X349360Y639316D01*
X348224Y640452D01*
X347961Y640836D01*
X347853Y641330D01*
X347945Y641827D01*
X348224Y642248D01*
X349360Y643384D01*
X350520Y646184D01*
X350520Y649216D01*
X349360Y652016D01*
X347216Y654160D01*
X344416Y655320D01*
X341384Y655320D01*
X338584Y654160D01*
X336440Y652016D01*
X335280Y649216D01*
X335280Y646184D01*
X336440Y643384D01*
X337576Y642248D01*
X337839Y641864D01*
X337948Y641370D01*
X337855Y640873D01*
X337576Y640452D01*
X336440Y639316D01*
X335280Y636516D01*
X335280Y633484D01*
X336440Y630684D01*
X337576Y629548D01*
X337839Y629164D01*
X337948Y628670D01*
X337855Y628173D01*
X337576Y627752D01*
X336440Y626616D01*
X335280Y623816D01*
X335280Y620784D01*
X336440Y617984D01*
X337576Y616848D01*
X337839Y616464D01*
X337948Y615970D01*
X337855Y615473D01*
X337576Y615052D01*
X336440Y613916D01*
X335280Y611116D01*
X335280Y608084D01*
X336440Y605284D01*
X337576Y604148D01*
X337839Y603764D01*
X337948Y603270D01*
X337855Y602773D01*
X337576Y602352D01*
X336440Y601216D01*
X335280Y598416D01*
X335280Y595384D01*
X336440Y592584D01*
X337576Y591448D01*
X337839Y591064D01*
X337948Y590570D01*
X337855Y590073D01*
X337576Y589652D01*
X336440Y588516D01*
X335280Y585716D01*
X335280Y582684D01*
X336440Y579884D01*
X337576Y578748D01*
X337839Y578364D01*
X337948Y577870D01*
X337855Y577373D01*
X337576Y576952D01*
X336440Y575816D01*
X335280Y573016D01*
X335280Y569984D01*
X336440Y567184D01*
X337576Y566048D01*
X337839Y565664D01*
X337948Y565170D01*
X337855Y564673D01*
X337576Y564252D01*
X336440Y563116D01*
X335280Y560316D01*
X335280Y557284D01*
X336440Y554484D01*
X337576Y553348D01*
X337839Y552964D01*
X337948Y552470D01*
X337855Y551973D01*
X337576Y551552D01*
X336440Y550416D01*
X335280Y547616D01*
X335280Y547370D01*
G37*
G36*
X937880Y631698D02*
X941720Y631698D01*
X945267Y633167D01*
X947983Y635883D01*
X949452Y639430D01*
X949452Y643270D01*
X947983Y646817D01*
X945267Y649533D01*
X941720Y651002D01*
X937880Y651002D01*
X934333Y649533D01*
X931617Y646817D01*
X930148Y643270D01*
X930148Y639430D01*
X931617Y635883D01*
X934333Y633167D01*
X937880Y631698D01*
G37*
G36*
X115446Y624233D02*
X122555Y624233D01*
X122555Y631326D01*
X113959Y631326D01*
X113959Y625721D01*
X115446Y624233D01*
G37*
G36*
X125095Y624233D02*
X132204Y624233D01*
X133692Y625721D01*
X133692Y631326D01*
X125095Y631326D01*
X125095Y624233D01*
G37*
G36*
X935802Y606298D02*
X943798Y606298D01*
X949452Y611952D01*
X949452Y619948D01*
X943798Y625602D01*
X935802Y625602D01*
X930148Y619948D01*
X930148Y611952D01*
X935802Y606298D01*
G37*
G36*
X833219Y568770D02*
X836831Y568770D01*
X840168Y570152D01*
X842723Y572707D01*
X844105Y576044D01*
X844105Y579656D01*
X842723Y582993D01*
X840168Y585548D01*
X837056Y586837D01*
X836688Y587070D01*
X836389Y587478D01*
X836273Y587970D01*
X836358Y588468D01*
X836630Y588894D01*
X837047Y589179D01*
X837542Y589280D01*
X837804Y589280D01*
X842938Y591407D01*
X846868Y595337D01*
X848995Y600471D01*
X848995Y606029D01*
X846868Y611163D01*
X842938Y615093D01*
X837804Y617220D01*
X832246Y617220D01*
X827112Y615093D01*
X823182Y611163D01*
X821055Y606029D01*
X821055Y600471D01*
X823182Y595337D01*
X827112Y591407D01*
X832246Y589280D01*
X832508Y589280D01*
X832937Y589205D01*
X833369Y588943D01*
X833665Y588533D01*
X833777Y588040D01*
X833689Y587543D01*
X833413Y587119D01*
X832994Y586837D01*
X829882Y585548D01*
X827327Y582993D01*
X825945Y579656D01*
X825945Y576044D01*
X827327Y572707D01*
X829882Y570152D01*
X833219Y568770D01*
G37*
G36*
X680819Y568770D02*
X684431Y568770D01*
X687768Y570152D01*
X690323Y572707D01*
X691705Y576044D01*
X691705Y579656D01*
X690323Y582993D01*
X687768Y585548D01*
X684656Y586837D01*
X684288Y587070D01*
X683989Y587478D01*
X683873Y587970D01*
X683958Y588468D01*
X684230Y588894D01*
X684647Y589179D01*
X685142Y589280D01*
X685404Y589280D01*
X690538Y591407D01*
X694468Y595337D01*
X696595Y600471D01*
X696595Y606029D01*
X694468Y611163D01*
X690538Y615093D01*
X685404Y617220D01*
X679846Y617220D01*
X674712Y615093D01*
X670782Y611163D01*
X668655Y606029D01*
X668655Y600471D01*
X670782Y595337D01*
X674712Y591407D01*
X679846Y589280D01*
X680108Y589280D01*
X680537Y589205D01*
X680969Y588943D01*
X681265Y588533D01*
X681377Y588040D01*
X681289Y587543D01*
X681013Y587119D01*
X680594Y586837D01*
X677482Y585548D01*
X674927Y582993D01*
X673545Y579656D01*
X673545Y576044D01*
X674927Y572707D01*
X677482Y570152D01*
X680819Y568770D01*
G37*
G36*
X10033Y607314D02*
X26543Y607314D01*
X26543Y616204D01*
X18172Y616204D01*
X14438Y614657D01*
X11580Y611799D01*
X10033Y608065D01*
X10033Y607314D01*
G37*
G36*
X75057Y607314D02*
X91567Y607314D01*
X91567Y616204D01*
X83196Y616204D01*
X79462Y614657D01*
X76604Y611799D01*
X75057Y608065D01*
X75057Y607314D01*
G37*
G36*
X94107Y607314D02*
X110617Y607314D01*
X110617Y608065D01*
X109070Y611799D01*
X106212Y614657D01*
X102478Y616204D01*
X94107Y616204D01*
X94107Y607314D01*
G37*
G36*
X29083Y607314D02*
X45593Y607314D01*
X45593Y608065D01*
X44046Y611799D01*
X41188Y614657D01*
X37454Y616204D01*
X29083Y616204D01*
X29083Y607314D01*
G37*
G36*
X94107Y595884D02*
X102478Y595884D01*
X106212Y597431D01*
X109070Y600289D01*
X110617Y604023D01*
X110617Y604774D01*
X94107Y604774D01*
X94107Y595884D01*
G37*
G36*
X29083Y595884D02*
X37454Y595884D01*
X41188Y597431D01*
X44046Y600289D01*
X45593Y604023D01*
X45593Y604774D01*
X29083Y604774D01*
X29083Y595884D01*
G37*
G36*
X18172Y595884D02*
X26543Y595884D01*
X26543Y604774D01*
X10033Y604774D01*
X10033Y604023D01*
X11580Y600289D01*
X14438Y597431D01*
X18172Y595884D01*
G37*
G36*
X83196Y595884D02*
X91567Y595884D01*
X91567Y604774D01*
X75057Y604774D01*
X75057Y604023D01*
X76604Y600289D01*
X79462Y597431D01*
X83196Y595884D01*
G37*
G36*
X935802Y580898D02*
X943798Y580898D01*
X949452Y586552D01*
X949452Y594548D01*
X943798Y600202D01*
X935802Y600202D01*
X930148Y594548D01*
X930148Y586552D01*
X935802Y580898D01*
G37*
G36*
X75057Y582676D02*
X91567Y582676D01*
X91567Y591566D01*
X83196Y591566D01*
X79462Y590019D01*
X76604Y587161D01*
X75057Y583427D01*
X75057Y582676D01*
G37*
G36*
X10033Y582676D02*
X26543Y582676D01*
X26543Y591566D01*
X18172Y591566D01*
X14438Y590019D01*
X11580Y587161D01*
X10033Y583427D01*
X10033Y582676D01*
G37*
G36*
X29083Y582676D02*
X45593Y582676D01*
X45593Y583427D01*
X44046Y587161D01*
X41188Y590019D01*
X37454Y591566D01*
X29083Y591566D01*
X29083Y582676D01*
G37*
G36*
X94107Y582676D02*
X110617Y582676D01*
X110617Y583427D01*
X109070Y587161D01*
X106212Y590019D01*
X102478Y591566D01*
X94107Y591566D01*
X94107Y582676D01*
G37*
G36*
X18172Y526034D02*
X37454Y526034D01*
X41188Y527581D01*
X44046Y530439D01*
X44432Y531370D01*
X44693Y531768D01*
X45110Y532053D01*
X45605Y532154D01*
X75045Y532154D01*
X75512Y532065D01*
X75936Y531789D01*
X76218Y531370D01*
X76604Y530439D01*
X79462Y527581D01*
X83196Y526034D01*
X102478Y526034D01*
X106212Y527581D01*
X109070Y530439D01*
X109456Y531370D01*
X109717Y531768D01*
X110134Y532053D01*
X110629Y532154D01*
X112689Y532154D01*
X113146Y532069D01*
X113572Y531796D01*
X113858Y531379D01*
X113959Y530884D01*
X113959Y530471D01*
X115446Y528983D01*
X132204Y528983D01*
X133692Y530471D01*
X133692Y532036D01*
X133777Y532494D01*
X134049Y532920D01*
X134466Y533205D01*
X134962Y533306D01*
X148494Y533306D01*
X156440Y541252D01*
X156440Y572476D01*
X156533Y572952D01*
X156812Y573374D01*
X160051Y576613D01*
X160454Y576884D01*
X160949Y576985D01*
X169164Y576985D01*
X169622Y576900D01*
X170048Y576627D01*
X170333Y576210D01*
X170434Y575715D01*
X170434Y572872D01*
X171922Y571384D01*
X184338Y571384D01*
X185826Y572872D01*
X185826Y589178D01*
X184338Y590666D01*
X171922Y590666D01*
X170434Y589178D01*
X170434Y586335D01*
X170349Y585877D01*
X170076Y585451D01*
X169659Y585166D01*
X169164Y585065D01*
X157077Y585065D01*
X148360Y576348D01*
X148360Y545124D01*
X148267Y544648D01*
X147988Y544226D01*
X145520Y541758D01*
X145117Y541487D01*
X144622Y541386D01*
X134962Y541386D01*
X134504Y541471D01*
X134078Y541744D01*
X133792Y542161D01*
X133692Y542656D01*
X133692Y544221D01*
X132711Y545202D01*
X132447Y545586D01*
X132339Y546080D01*
X132432Y546577D01*
X132711Y546998D01*
X133692Y547979D01*
X133692Y553584D01*
X113959Y553584D01*
X113959Y547979D01*
X114939Y546998D01*
X115203Y546614D01*
X115311Y546120D01*
X115219Y545623D01*
X114939Y545202D01*
X113959Y544221D01*
X113959Y541504D01*
X113873Y541046D01*
X113601Y540620D01*
X113184Y540335D01*
X112689Y540234D01*
X110629Y540234D01*
X110162Y540323D01*
X109738Y540599D01*
X109456Y541018D01*
X109070Y541949D01*
X106212Y544807D01*
X102478Y546354D01*
X83196Y546354D01*
X79462Y544807D01*
X76604Y541949D01*
X76218Y541018D01*
X75957Y540620D01*
X75540Y540335D01*
X75045Y540234D01*
X45605Y540234D01*
X45138Y540323D01*
X44714Y540599D01*
X44432Y541018D01*
X44046Y541949D01*
X41188Y544807D01*
X37454Y546354D01*
X18172Y546354D01*
X14438Y544807D01*
X11580Y541949D01*
X10033Y538215D01*
X10033Y534173D01*
X11580Y530439D01*
X14438Y527581D01*
X18172Y526034D01*
G37*
G36*
X18172Y571246D02*
X26543Y571246D01*
X26543Y580136D01*
X10033Y580136D01*
X10033Y579385D01*
X11580Y575651D01*
X14438Y572793D01*
X18172Y571246D01*
G37*
G36*
X29083Y571246D02*
X37454Y571246D01*
X41188Y572793D01*
X44046Y575651D01*
X45593Y579385D01*
X45593Y580136D01*
X29083Y580136D01*
X29083Y571246D01*
G37*
G36*
X83196Y571246D02*
X91567Y571246D01*
X91567Y580136D01*
X75057Y580136D01*
X75057Y579385D01*
X76604Y575651D01*
X79462Y572793D01*
X83196Y571246D01*
G37*
G36*
X94107Y571246D02*
X102478Y571246D01*
X106212Y572793D01*
X109070Y575651D01*
X110617Y579385D01*
X110617Y580136D01*
X94107Y580136D01*
X94107Y571246D01*
G37*
G36*
X935802Y555498D02*
X943798Y555498D01*
X949452Y561152D01*
X949452Y569148D01*
X943798Y574802D01*
X935802Y574802D01*
X930148Y569148D01*
X930148Y561152D01*
X935802Y555498D01*
G37*
G36*
X18172Y456184D02*
X37454Y456184D01*
X41188Y457731D01*
X44046Y460589D01*
X44432Y461520D01*
X44693Y461918D01*
X45110Y462203D01*
X45605Y462304D01*
X75045Y462304D01*
X75512Y462215D01*
X75936Y461939D01*
X76218Y461520D01*
X76604Y460589D01*
X79462Y457731D01*
X83196Y456184D01*
X102478Y456184D01*
X106212Y457731D01*
X109070Y460589D01*
X109456Y461520D01*
X109717Y461918D01*
X110134Y462203D01*
X110629Y462304D01*
X112689Y462304D01*
X113146Y462219D01*
X113572Y461946D01*
X113858Y461529D01*
X113959Y461034D01*
X113959Y460621D01*
X115446Y459133D01*
X132204Y459133D01*
X133692Y460621D01*
X133692Y462186D01*
X133777Y462644D01*
X134049Y463070D01*
X134466Y463355D01*
X134962Y463456D01*
X170719Y463456D01*
X182170Y474907D01*
X182170Y544714D01*
X182255Y545172D01*
X182528Y545598D01*
X182945Y545883D01*
X183440Y545984D01*
X184338Y545984D01*
X185826Y547472D01*
X185826Y563778D01*
X184338Y565266D01*
X171922Y565266D01*
X170434Y563778D01*
X170434Y547472D01*
X171922Y545984D01*
X172820Y545984D01*
X173278Y545899D01*
X173704Y545626D01*
X173989Y545209D01*
X174090Y544714D01*
X174090Y478779D01*
X173997Y478303D01*
X173718Y477881D01*
X167745Y471908D01*
X167342Y471637D01*
X166847Y471536D01*
X134962Y471536D01*
X134504Y471621D01*
X134078Y471894D01*
X133792Y472311D01*
X133692Y472806D01*
X133692Y474371D01*
X132711Y475352D01*
X132447Y475736D01*
X132339Y476230D01*
X132432Y476727D01*
X132711Y477148D01*
X133692Y478129D01*
X133692Y483734D01*
X113959Y483734D01*
X113959Y478129D01*
X114939Y477148D01*
X115203Y476764D01*
X115311Y476270D01*
X115219Y475773D01*
X114939Y475352D01*
X113959Y474371D01*
X113959Y471654D01*
X113873Y471196D01*
X113601Y470770D01*
X113184Y470485D01*
X112689Y470384D01*
X110629Y470384D01*
X110162Y470473D01*
X109738Y470749D01*
X109456Y471168D01*
X109070Y472099D01*
X106212Y474957D01*
X102478Y476504D01*
X83196Y476504D01*
X79462Y474957D01*
X76604Y472099D01*
X76218Y471168D01*
X75957Y470770D01*
X75540Y470485D01*
X75045Y470384D01*
X45605Y470384D01*
X45138Y470473D01*
X44714Y470749D01*
X44432Y471168D01*
X44046Y472099D01*
X41188Y474957D01*
X37454Y476504D01*
X18172Y476504D01*
X14438Y474957D01*
X11580Y472099D01*
X10033Y468365D01*
X10033Y464323D01*
X11580Y460589D01*
X14438Y457731D01*
X18172Y456184D01*
G37*
G36*
X113959Y556124D02*
X122555Y556124D01*
X122555Y563217D01*
X115446Y563217D01*
X113959Y561729D01*
X113959Y556124D01*
G37*
G36*
X125095Y556124D02*
X133692Y556124D01*
X133692Y561729D01*
X132204Y563217D01*
X125095Y563217D01*
X125095Y556124D01*
G37*
G36*
X825945Y553720D02*
X833755Y553720D01*
X833755Y561530D01*
X833219Y561530D01*
X829882Y560148D01*
X827327Y557593D01*
X825945Y554256D01*
X825945Y553720D01*
G37*
G36*
X680819Y543370D02*
X684431Y543370D01*
X687768Y544752D01*
X690323Y547307D01*
X691705Y550644D01*
X691705Y554256D01*
X690323Y557593D01*
X687768Y560148D01*
X684431Y561530D01*
X680819Y561530D01*
X677482Y560148D01*
X674927Y557593D01*
X673545Y554256D01*
X673545Y550644D01*
X674927Y547307D01*
X677482Y544752D01*
X680819Y543370D01*
G37*
G36*
X836295Y553720D02*
X844105Y553720D01*
X844105Y554256D01*
X842723Y557593D01*
X840168Y560148D01*
X836831Y561530D01*
X836295Y561530D01*
X836295Y553720D01*
G37*
G36*
X935802Y530098D02*
X943798Y530098D01*
X949452Y535752D01*
X949452Y543748D01*
X943798Y549402D01*
X935802Y549402D01*
X930148Y543748D01*
X930148Y535752D01*
X935802Y530098D01*
G37*
G36*
X589280Y534670D02*
X604520Y534670D01*
X604520Y534916D01*
X603360Y537716D01*
X602224Y538852D01*
X601961Y539236D01*
X601853Y539730D01*
X601945Y540227D01*
X602224Y540648D01*
X603360Y541784D01*
X604520Y544584D01*
X604520Y544830D01*
X589280Y544830D01*
X589280Y544584D01*
X590440Y541784D01*
X591576Y540648D01*
X591839Y540264D01*
X591948Y539770D01*
X591855Y539273D01*
X591576Y538852D01*
X590440Y537716D01*
X589280Y534916D01*
X589280Y534670D01*
G37*
G36*
X335280Y534670D02*
X350520Y534670D01*
X350520Y534916D01*
X349360Y537716D01*
X348224Y538852D01*
X347961Y539236D01*
X347853Y539730D01*
X347945Y540227D01*
X348224Y540648D01*
X349360Y541784D01*
X350520Y544584D01*
X350520Y544830D01*
X335280Y544830D01*
X335280Y544584D01*
X336440Y541784D01*
X337576Y540648D01*
X337839Y540264D01*
X337948Y539770D01*
X337855Y539273D01*
X337576Y538852D01*
X336440Y537716D01*
X335280Y534916D01*
X335280Y534670D01*
G37*
G36*
X955548Y515620D02*
X963930Y515620D01*
X963930Y524002D01*
X961202Y524002D01*
X955548Y518348D01*
X955548Y515620D01*
G37*
G36*
X966470Y515620D02*
X974852Y515620D01*
X974852Y518348D01*
X969198Y524002D01*
X966470Y524002D01*
X966470Y515620D01*
G37*
G36*
X94107Y512826D02*
X110617Y512826D01*
X110617Y513577D01*
X109070Y517311D01*
X106212Y520169D01*
X102478Y521716D01*
X94107Y521716D01*
X94107Y512826D01*
G37*
G36*
X10033Y512826D02*
X26543Y512826D01*
X26543Y521716D01*
X18172Y521716D01*
X14438Y520169D01*
X11580Y517311D01*
X10033Y513577D01*
X10033Y512826D01*
G37*
G36*
X29083Y512826D02*
X45593Y512826D01*
X45593Y513577D01*
X44046Y517311D01*
X41188Y520169D01*
X37454Y521716D01*
X29083Y521716D01*
X29083Y512826D01*
G37*
G36*
X75057Y512826D02*
X91567Y512826D01*
X91567Y521716D01*
X83196Y521716D01*
X79462Y520169D01*
X76604Y517311D01*
X75057Y513577D01*
X75057Y512826D01*
G37*
G36*
X961202Y504698D02*
X963930Y504698D01*
X963930Y513080D01*
X955548Y513080D01*
X955548Y510352D01*
X961202Y504698D01*
G37*
G36*
X966470Y504698D02*
X969198Y504698D01*
X974852Y510352D01*
X974852Y513080D01*
X966470Y513080D01*
X966470Y504698D01*
G37*
G36*
X94107Y501396D02*
X102478Y501396D01*
X106212Y502943D01*
X109070Y505801D01*
X110617Y509535D01*
X110617Y510286D01*
X94107Y510286D01*
X94107Y501396D01*
G37*
G36*
X83196Y501396D02*
X91567Y501396D01*
X91567Y510286D01*
X75057Y510286D01*
X75057Y509535D01*
X76604Y505801D01*
X79462Y502943D01*
X83196Y501396D01*
G37*
G36*
X29083Y501396D02*
X37454Y501396D01*
X41188Y502943D01*
X44046Y505801D01*
X45593Y509535D01*
X45593Y510286D01*
X29083Y510286D01*
X29083Y501396D01*
G37*
G36*
X18172Y501396D02*
X26543Y501396D01*
X26543Y510286D01*
X10033Y510286D01*
X10033Y509535D01*
X11580Y505801D01*
X14438Y502943D01*
X18172Y501396D01*
G37*
G36*
X113959Y486274D02*
X122555Y486274D01*
X122555Y493367D01*
X115446Y493367D01*
X113959Y491879D01*
X113959Y486274D01*
G37*
G36*
X125095Y486274D02*
X133692Y486274D01*
X133692Y491879D01*
X132204Y493367D01*
X125095Y493367D01*
X125095Y486274D01*
G37*
G36*
X833219Y467170D02*
X836831Y467170D01*
X840168Y468552D01*
X842723Y471107D01*
X844105Y474444D01*
X844105Y478056D01*
X842723Y481393D01*
X840168Y483948D01*
X836831Y485330D01*
X833219Y485330D01*
X829882Y483948D01*
X827327Y481393D01*
X825945Y478056D01*
X825945Y474444D01*
X827327Y471107D01*
X829882Y468552D01*
X833219Y467170D01*
G37*
G36*
X833219Y441770D02*
X836831Y441770D01*
X840168Y443152D01*
X842723Y445707D01*
X844105Y449044D01*
X844105Y452656D01*
X842723Y455993D01*
X840168Y458548D01*
X836831Y459930D01*
X833219Y459930D01*
X829882Y458548D01*
X827327Y455993D01*
X825945Y452656D01*
X825945Y449044D01*
X827327Y445707D01*
X829882Y443152D01*
X833219Y441770D01*
G37*
G36*
X171922Y390409D02*
X184338Y390409D01*
X185826Y391897D01*
X185826Y408203D01*
X184338Y409691D01*
X171922Y409691D01*
X170434Y408203D01*
X170434Y405360D01*
X170349Y404902D01*
X170076Y404476D01*
X169659Y404191D01*
X169164Y404090D01*
X129977Y404090D01*
X129509Y404179D01*
X129086Y404455D01*
X128803Y404874D01*
X128656Y405230D01*
X126084Y407802D01*
X122723Y409194D01*
X113260Y409194D01*
X112802Y409279D01*
X112376Y409552D01*
X112091Y409969D01*
X111990Y410464D01*
X111990Y427014D01*
X112075Y427471D01*
X112348Y427897D01*
X112765Y428183D01*
X113260Y428284D01*
X114054Y428284D01*
X115542Y429771D01*
X115542Y446529D01*
X114054Y448017D01*
X100304Y448017D01*
X99323Y447036D01*
X98939Y446772D01*
X98445Y446664D01*
X97948Y446757D01*
X97527Y447036D01*
X96546Y448017D01*
X90941Y448017D01*
X90941Y428284D01*
X96546Y428284D01*
X97527Y429264D01*
X97911Y429528D01*
X98405Y429636D01*
X98902Y429544D01*
X99323Y429264D01*
X100304Y428284D01*
X102640Y428284D01*
X103098Y428198D01*
X103524Y427926D01*
X103809Y427509D01*
X103910Y427014D01*
X103910Y409228D01*
X103821Y408761D01*
X103545Y408337D01*
X103126Y408054D01*
X102516Y407802D01*
X99944Y405230D01*
X98552Y401869D01*
X98552Y398231D01*
X99944Y394870D01*
X102516Y392298D01*
X105877Y390906D01*
X122723Y390906D01*
X126084Y392298D01*
X128656Y394870D01*
X128803Y395226D01*
X129064Y395624D01*
X129481Y395909D01*
X129977Y396010D01*
X169164Y396010D01*
X169622Y395925D01*
X170048Y395652D01*
X170333Y395235D01*
X170434Y394740D01*
X170434Y391897D01*
X171922Y390409D01*
G37*
G36*
X81308Y439420D02*
X88401Y439420D01*
X88401Y448017D01*
X82796Y448017D01*
X81308Y446529D01*
X81308Y439420D01*
G37*
G36*
X43208Y439420D02*
X50301Y439420D01*
X50301Y448017D01*
X44696Y448017D01*
X43208Y446529D01*
X43208Y439420D01*
G37*
G36*
X171922Y365009D02*
X184338Y365009D01*
X185826Y366497D01*
X185826Y382803D01*
X184338Y384291D01*
X171922Y384291D01*
X170434Y382803D01*
X170434Y379960D01*
X170349Y379502D01*
X170076Y379076D01*
X169659Y378791D01*
X169164Y378690D01*
X129977Y378690D01*
X129509Y378779D01*
X129086Y379055D01*
X128803Y379474D01*
X128656Y379830D01*
X126084Y382402D01*
X122723Y383794D01*
X105877Y383794D01*
X102516Y382402D01*
X99944Y379830D01*
X99797Y379474D01*
X99536Y379076D01*
X99119Y378791D01*
X98623Y378690D01*
X84749Y378690D01*
X84273Y378783D01*
X83851Y379062D01*
X73491Y389422D01*
X73220Y389825D01*
X73119Y390320D01*
X73119Y427014D01*
X73204Y427471D01*
X73477Y427897D01*
X73894Y428183D01*
X74389Y428284D01*
X75954Y428284D01*
X77442Y429771D01*
X77442Y446529D01*
X75954Y448017D01*
X62204Y448017D01*
X61223Y447036D01*
X60839Y446772D01*
X60345Y446664D01*
X59848Y446757D01*
X59427Y447036D01*
X58446Y448017D01*
X52841Y448017D01*
X52841Y428284D01*
X58446Y428284D01*
X59427Y429264D01*
X59811Y429528D01*
X60305Y429636D01*
X60802Y429544D01*
X61223Y429264D01*
X62204Y428284D01*
X63769Y428284D01*
X64227Y428198D01*
X64653Y427926D01*
X64938Y427509D01*
X65039Y427014D01*
X65039Y386448D01*
X80877Y370610D01*
X98623Y370610D01*
X99091Y370521D01*
X99514Y370245D01*
X99797Y369826D01*
X99944Y369470D01*
X102516Y366898D01*
X105877Y365506D01*
X122723Y365506D01*
X126084Y366898D01*
X128656Y369470D01*
X128803Y369826D01*
X129064Y370224D01*
X129481Y370509D01*
X129977Y370610D01*
X169164Y370610D01*
X169622Y370525D01*
X170048Y370252D01*
X170333Y369835D01*
X170434Y369340D01*
X170434Y366497D01*
X171922Y365009D01*
G37*
G36*
X82796Y428284D02*
X88401Y428284D01*
X88401Y436880D01*
X81308Y436880D01*
X81308Y429771D01*
X82796Y428284D01*
G37*
G36*
X44696Y428284D02*
X50301Y428284D01*
X50301Y436880D01*
X43208Y436880D01*
X43208Y429771D01*
X44696Y428284D01*
G37*
G36*
X680819Y416370D02*
X684431Y416370D01*
X687768Y417752D01*
X690323Y420307D01*
X691705Y423644D01*
X691705Y427256D01*
X690323Y430593D01*
X687768Y433148D01*
X684431Y434530D01*
X680819Y434530D01*
X677482Y433148D01*
X674927Y430593D01*
X673545Y427256D01*
X673545Y423644D01*
X674927Y420307D01*
X677482Y417752D01*
X680819Y416370D01*
G37*
G36*
X22352Y401320D02*
X36830Y401320D01*
X36830Y409194D01*
X29677Y409194D01*
X26316Y407802D01*
X23744Y405230D01*
X22352Y401869D01*
X22352Y401320D01*
G37*
G36*
X39370Y401320D02*
X53848Y401320D01*
X53848Y401869D01*
X52456Y405230D01*
X49884Y407802D01*
X46523Y409194D01*
X39370Y409194D01*
X39370Y401320D01*
G37*
G36*
X190312Y168159D02*
X202728Y168159D01*
X204216Y169647D01*
X204216Y172490D01*
X204301Y172948D01*
X204574Y173374D01*
X204991Y173659D01*
X205486Y173760D01*
X255673Y173760D01*
X264390Y182477D01*
X264390Y308951D01*
X264483Y309427D01*
X264762Y309849D01*
X268001Y313088D01*
X268404Y313359D01*
X268899Y313460D01*
X335638Y313460D01*
X336114Y313367D01*
X336536Y313088D01*
X337576Y312048D01*
X337839Y311664D01*
X337948Y311170D01*
X337855Y310673D01*
X337576Y310252D01*
X336440Y309116D01*
X335280Y306316D01*
X335280Y303284D01*
X336440Y300484D01*
X337576Y299348D01*
X337839Y298964D01*
X337948Y298470D01*
X337855Y297973D01*
X337576Y297552D01*
X336440Y296416D01*
X335280Y293616D01*
X335280Y293370D01*
X350520Y293370D01*
X350520Y293616D01*
X349360Y296416D01*
X348224Y297552D01*
X347961Y297936D01*
X347853Y298430D01*
X347945Y298927D01*
X348224Y299348D01*
X349360Y300484D01*
X350520Y303284D01*
X350520Y306316D01*
X349360Y309116D01*
X348224Y310252D01*
X347961Y310636D01*
X347853Y311130D01*
X347945Y311627D01*
X348224Y312048D01*
X349360Y313184D01*
X350520Y315984D01*
X350520Y319016D01*
X349360Y321816D01*
X348224Y322952D01*
X347961Y323336D01*
X347853Y323830D01*
X347945Y324327D01*
X348224Y324748D01*
X349360Y325884D01*
X350520Y328684D01*
X350520Y331716D01*
X349360Y334516D01*
X348224Y335652D01*
X347961Y336036D01*
X347853Y336530D01*
X347945Y337027D01*
X348224Y337448D01*
X349360Y338584D01*
X350520Y341384D01*
X350520Y344416D01*
X349360Y347216D01*
X348224Y348352D01*
X347961Y348736D01*
X347853Y349230D01*
X347945Y349727D01*
X348224Y350148D01*
X349360Y351284D01*
X350520Y354084D01*
X350520Y357116D01*
X349360Y359916D01*
X348224Y361052D01*
X347961Y361436D01*
X347853Y361930D01*
X347945Y362427D01*
X348224Y362848D01*
X349360Y363984D01*
X350520Y366784D01*
X350520Y369816D01*
X349360Y372616D01*
X348224Y373752D01*
X347961Y374136D01*
X347853Y374630D01*
X347945Y375127D01*
X348224Y375548D01*
X349360Y376684D01*
X350520Y379484D01*
X350520Y382516D01*
X349360Y385316D01*
X348224Y386452D01*
X347961Y386836D01*
X347853Y387330D01*
X347945Y387827D01*
X348224Y388248D01*
X349360Y389384D01*
X350520Y392184D01*
X350520Y395216D01*
X349360Y398016D01*
X348224Y399152D01*
X347961Y399536D01*
X347853Y400030D01*
X347945Y400527D01*
X348224Y400948D01*
X349360Y402084D01*
X350520Y404884D01*
X350520Y405130D01*
X335280Y405130D01*
X335280Y404884D01*
X336440Y402084D01*
X337576Y400948D01*
X337839Y400564D01*
X337948Y400070D01*
X337855Y399573D01*
X337576Y399152D01*
X336536Y398112D01*
X336133Y397841D01*
X335638Y397740D01*
X217402Y397740D01*
X208685Y389023D01*
X208685Y262879D01*
X208592Y262403D01*
X208313Y261981D01*
X206384Y260052D01*
X206018Y259797D01*
X205526Y259681D01*
X205028Y259766D01*
X204602Y260038D01*
X204317Y260455D01*
X204216Y260950D01*
X204216Y262153D01*
X202728Y263641D01*
X190312Y263641D01*
X188824Y262153D01*
X188824Y245847D01*
X190312Y244359D01*
X202728Y244359D01*
X204216Y245847D01*
X204216Y248690D01*
X204301Y249148D01*
X204574Y249574D01*
X204991Y249859D01*
X205486Y249960D01*
X207718Y249960D01*
X216765Y259007D01*
X216765Y385151D01*
X216858Y385627D01*
X217137Y386049D01*
X220376Y389288D01*
X220779Y389559D01*
X221274Y389660D01*
X335638Y389660D01*
X336114Y389567D01*
X336536Y389288D01*
X337576Y388248D01*
X337839Y387864D01*
X337948Y387370D01*
X337855Y386873D01*
X337576Y386452D01*
X336440Y385316D01*
X335280Y382516D01*
X335280Y379484D01*
X336440Y376684D01*
X337576Y375548D01*
X337839Y375164D01*
X337948Y374670D01*
X337855Y374173D01*
X337576Y373752D01*
X336536Y372712D01*
X336133Y372441D01*
X335638Y372340D01*
X233277Y372340D01*
X224560Y363623D01*
X224560Y237149D01*
X224467Y236673D01*
X224188Y236251D01*
X220949Y233012D01*
X220546Y232741D01*
X220051Y232640D01*
X205486Y232640D01*
X205028Y232725D01*
X204602Y232998D01*
X204317Y233415D01*
X204216Y233910D01*
X204216Y236753D01*
X202728Y238241D01*
X190312Y238241D01*
X188824Y236753D01*
X188824Y220447D01*
X190312Y218959D01*
X202728Y218959D01*
X204216Y220447D01*
X204216Y223290D01*
X204301Y223748D01*
X204574Y224174D01*
X204991Y224459D01*
X205486Y224560D01*
X223923Y224560D01*
X232640Y233277D01*
X232640Y359751D01*
X232733Y360227D01*
X233012Y360649D01*
X236251Y363888D01*
X236654Y364159D01*
X237149Y364260D01*
X335638Y364260D01*
X336114Y364167D01*
X336536Y363888D01*
X337576Y362848D01*
X337839Y362464D01*
X337948Y361970D01*
X337855Y361473D01*
X337576Y361052D01*
X336440Y359916D01*
X335280Y357116D01*
X335280Y354084D01*
X336440Y351284D01*
X337576Y350148D01*
X337839Y349764D01*
X337948Y349270D01*
X337855Y348773D01*
X337576Y348352D01*
X336536Y347312D01*
X336133Y347041D01*
X335638Y346940D01*
X249152Y346940D01*
X240435Y338223D01*
X240435Y211749D01*
X240342Y211273D01*
X240063Y210851D01*
X236824Y207612D01*
X236421Y207341D01*
X235926Y207240D01*
X205486Y207240D01*
X205028Y207325D01*
X204602Y207598D01*
X204317Y208015D01*
X204216Y208510D01*
X204216Y211353D01*
X202728Y212841D01*
X190312Y212841D01*
X188824Y211353D01*
X188824Y195047D01*
X190312Y193559D01*
X202728Y193559D01*
X204216Y195047D01*
X204216Y197890D01*
X204301Y198348D01*
X204574Y198774D01*
X204991Y199059D01*
X205486Y199160D01*
X239798Y199160D01*
X248515Y207877D01*
X248515Y334351D01*
X248608Y334827D01*
X248887Y335249D01*
X252126Y338488D01*
X252529Y338759D01*
X253024Y338860D01*
X335638Y338860D01*
X336114Y338767D01*
X336536Y338488D01*
X337576Y337448D01*
X337839Y337064D01*
X337948Y336570D01*
X337855Y336073D01*
X337576Y335652D01*
X336440Y334516D01*
X335280Y331716D01*
X335280Y328684D01*
X336440Y325884D01*
X337576Y324748D01*
X337839Y324364D01*
X337948Y323870D01*
X337855Y323373D01*
X337576Y322952D01*
X336536Y321912D01*
X336133Y321641D01*
X335638Y321540D01*
X265027Y321540D01*
X256310Y312823D01*
X256310Y186349D01*
X256217Y185873D01*
X255938Y185451D01*
X252699Y182212D01*
X252296Y181941D01*
X251801Y181840D01*
X205486Y181840D01*
X205028Y181925D01*
X204602Y182198D01*
X204317Y182615D01*
X204216Y183110D01*
X204216Y185953D01*
X202728Y187441D01*
X190312Y187441D01*
X188824Y185953D01*
X188824Y169647D01*
X190312Y168159D01*
G37*
G36*
X29677Y390906D02*
X36830Y390906D01*
X36830Y398780D01*
X22352Y398780D01*
X22352Y398231D01*
X23744Y394870D01*
X26316Y392298D01*
X29677Y390906D01*
G37*
G36*
X39370Y390906D02*
X46523Y390906D01*
X49884Y392298D01*
X52456Y394870D01*
X53848Y398231D01*
X53848Y398780D01*
X39370Y398780D01*
X39370Y390906D01*
G37*
G36*
X39370Y375920D02*
X53848Y375920D01*
X53848Y376469D01*
X52456Y379830D01*
X49884Y382402D01*
X46523Y383794D01*
X39370Y383794D01*
X39370Y375920D01*
G37*
G36*
X22352Y375920D02*
X36830Y375920D01*
X36830Y383794D01*
X29677Y383794D01*
X26316Y382402D01*
X23744Y379830D01*
X22352Y376469D01*
X22352Y375920D01*
G37*
G36*
X29677Y365506D02*
X36830Y365506D01*
X36830Y373380D01*
X22352Y373380D01*
X22352Y372831D01*
X23744Y369470D01*
X26316Y366898D01*
X29677Y365506D01*
G37*
G36*
X39370Y365506D02*
X46523Y365506D01*
X49884Y366898D01*
X52456Y369470D01*
X53848Y372831D01*
X53848Y373380D01*
X39370Y373380D01*
X39370Y365506D01*
G37*
G36*
X52841Y275884D02*
X58446Y275884D01*
X59427Y276864D01*
X59811Y277128D01*
X60305Y277236D01*
X60802Y277144D01*
X61223Y276864D01*
X62204Y275884D01*
X75954Y275884D01*
X77442Y277371D01*
X77442Y294129D01*
X75954Y295617D01*
X74389Y295617D01*
X73931Y295702D01*
X73505Y295974D01*
X73220Y296391D01*
X73119Y296887D01*
X73119Y333580D01*
X73212Y334056D01*
X73491Y334478D01*
X83851Y344838D01*
X84254Y345109D01*
X84749Y345210D01*
X98623Y345210D01*
X99091Y345121D01*
X99514Y344845D01*
X99797Y344426D01*
X99944Y344070D01*
X102516Y341498D01*
X105877Y340106D01*
X122723Y340106D01*
X126084Y341498D01*
X128656Y344070D01*
X128803Y344426D01*
X129064Y344824D01*
X129481Y345109D01*
X129977Y345210D01*
X169164Y345210D01*
X169622Y345125D01*
X170048Y344852D01*
X170333Y344435D01*
X170434Y343940D01*
X170434Y341097D01*
X171922Y339609D01*
X184338Y339609D01*
X185826Y341097D01*
X185826Y357403D01*
X184338Y358891D01*
X171922Y358891D01*
X170434Y357403D01*
X170434Y354560D01*
X170349Y354102D01*
X170076Y353676D01*
X169659Y353391D01*
X169164Y353290D01*
X129977Y353290D01*
X129509Y353379D01*
X129086Y353655D01*
X128803Y354074D01*
X128656Y354430D01*
X126084Y357002D01*
X122723Y358394D01*
X105877Y358394D01*
X102516Y357002D01*
X99944Y354430D01*
X99797Y354074D01*
X99536Y353676D01*
X99119Y353391D01*
X98623Y353290D01*
X80877Y353290D01*
X65039Y337452D01*
X65039Y296887D01*
X64954Y296429D01*
X64681Y296003D01*
X64264Y295717D01*
X63769Y295617D01*
X62204Y295617D01*
X61223Y294636D01*
X60839Y294372D01*
X60345Y294264D01*
X59848Y294357D01*
X59427Y294636D01*
X58446Y295617D01*
X52841Y295617D01*
X52841Y275884D01*
G37*
G36*
X22352Y350520D02*
X36830Y350520D01*
X36830Y358394D01*
X29677Y358394D01*
X26316Y357002D01*
X23744Y354430D01*
X22352Y351069D01*
X22352Y350520D01*
G37*
G36*
X39370Y350520D02*
X53848Y350520D01*
X53848Y351069D01*
X52456Y354430D01*
X49884Y357002D01*
X46523Y358394D01*
X39370Y358394D01*
X39370Y350520D01*
G37*
G36*
X29677Y340106D02*
X36830Y340106D01*
X36830Y347980D01*
X22352Y347980D01*
X22352Y347431D01*
X23744Y344070D01*
X26316Y341498D01*
X29677Y340106D01*
G37*
G36*
X39370Y340106D02*
X46523Y340106D01*
X49884Y341498D01*
X52456Y344070D01*
X53848Y347431D01*
X53848Y347980D01*
X39370Y347980D01*
X39370Y340106D01*
G37*
G36*
X90941Y275884D02*
X96546Y275884D01*
X97527Y276864D01*
X97911Y277128D01*
X98405Y277236D01*
X98902Y277144D01*
X99323Y276864D01*
X100304Y275884D01*
X114054Y275884D01*
X115542Y277371D01*
X115542Y294129D01*
X114054Y295617D01*
X112489Y295617D01*
X112031Y295702D01*
X111605Y295974D01*
X111320Y296391D01*
X111219Y296887D01*
X111219Y313436D01*
X111304Y313894D01*
X111577Y314320D01*
X111994Y314605D01*
X112489Y314706D01*
X122723Y314706D01*
X126084Y316098D01*
X128656Y318670D01*
X128803Y319026D01*
X129064Y319424D01*
X129481Y319709D01*
X129977Y319810D01*
X169164Y319810D01*
X169622Y319725D01*
X170048Y319452D01*
X170333Y319035D01*
X170434Y318540D01*
X170434Y315697D01*
X171922Y314209D01*
X184338Y314209D01*
X185826Y315697D01*
X185826Y332003D01*
X184338Y333491D01*
X171922Y333491D01*
X170434Y332003D01*
X170434Y329160D01*
X170349Y328702D01*
X170076Y328276D01*
X169659Y327991D01*
X169164Y327890D01*
X129977Y327890D01*
X129509Y327979D01*
X129086Y328255D01*
X128803Y328674D01*
X128656Y329030D01*
X126084Y331602D01*
X122723Y332994D01*
X105877Y332994D01*
X102516Y331602D01*
X99944Y329030D01*
X98552Y325669D01*
X98552Y322031D01*
X99944Y318670D01*
X102630Y315984D01*
X102753Y315904D01*
X103038Y315487D01*
X103139Y314992D01*
X103139Y296887D01*
X103054Y296429D01*
X102781Y296003D01*
X102364Y295717D01*
X101869Y295617D01*
X100304Y295617D01*
X99323Y294636D01*
X98939Y294372D01*
X98445Y294264D01*
X97948Y294357D01*
X97527Y294636D01*
X96546Y295617D01*
X90941Y295617D01*
X90941Y275884D01*
G37*
G36*
X22352Y325120D02*
X36830Y325120D01*
X36830Y332994D01*
X29677Y332994D01*
X26316Y331602D01*
X23744Y329030D01*
X22352Y325669D01*
X22352Y325120D01*
G37*
G36*
X39370Y325120D02*
X53848Y325120D01*
X53848Y325669D01*
X52456Y329030D01*
X49884Y331602D01*
X46523Y332994D01*
X39370Y332994D01*
X39370Y325120D01*
G37*
G36*
X39370Y314706D02*
X46523Y314706D01*
X49884Y316098D01*
X52456Y318670D01*
X53848Y322031D01*
X53848Y322580D01*
X39370Y322580D01*
X39370Y314706D01*
G37*
G36*
X29677Y314706D02*
X36830Y314706D01*
X36830Y322580D01*
X22352Y322580D01*
X22352Y322031D01*
X23744Y318670D01*
X26316Y316098D01*
X29677Y314706D01*
G37*
G36*
X81308Y287020D02*
X88401Y287020D01*
X88401Y295617D01*
X82796Y295617D01*
X81308Y294129D01*
X81308Y287020D01*
G37*
G36*
X43208Y287020D02*
X50301Y287020D01*
X50301Y295617D01*
X44696Y295617D01*
X43208Y294129D01*
X43208Y287020D01*
G37*
G36*
X955548Y287020D02*
X963930Y287020D01*
X963930Y295402D01*
X961202Y295402D01*
X955548Y289748D01*
X955548Y287020D01*
G37*
G36*
X966470Y287020D02*
X974852Y287020D01*
X974852Y289748D01*
X969198Y295402D01*
X966470Y295402D01*
X966470Y287020D01*
G37*
G36*
X589280Y280670D02*
X604520Y280670D01*
X604520Y280916D01*
X603360Y283716D01*
X602224Y284852D01*
X601961Y285236D01*
X601853Y285730D01*
X601945Y286227D01*
X602224Y286648D01*
X603360Y287784D01*
X604520Y290584D01*
X604520Y290830D01*
X589280Y290830D01*
X589280Y290584D01*
X590440Y287784D01*
X591576Y286648D01*
X591839Y286264D01*
X591948Y285770D01*
X591855Y285273D01*
X591576Y284852D01*
X590440Y283716D01*
X589280Y280916D01*
X589280Y280670D01*
G37*
G36*
X335280Y280670D02*
X350520Y280670D01*
X350520Y280916D01*
X349360Y283716D01*
X348224Y284852D01*
X347961Y285236D01*
X347853Y285730D01*
X347945Y286227D01*
X348224Y286648D01*
X349360Y287784D01*
X350520Y290584D01*
X350520Y290830D01*
X335280Y290830D01*
X335280Y290584D01*
X336440Y287784D01*
X337576Y286648D01*
X337839Y286264D01*
X337948Y285770D01*
X337855Y285273D01*
X337576Y284852D01*
X336440Y283716D01*
X335280Y280916D01*
X335280Y280670D01*
G37*
G36*
X44696Y275884D02*
X50301Y275884D01*
X50301Y284480D01*
X43208Y284480D01*
X43208Y277371D01*
X44696Y275884D01*
G37*
G36*
X82796Y275884D02*
X88401Y275884D01*
X88401Y284480D01*
X81308Y284480D01*
X81308Y277371D01*
X82796Y275884D01*
G37*
G36*
X961202Y276098D02*
X963930Y276098D01*
X963930Y284480D01*
X955548Y284480D01*
X955548Y281752D01*
X961202Y276098D01*
G37*
G36*
X966470Y276098D02*
X969198Y276098D01*
X974852Y281752D01*
X974852Y284480D01*
X966470Y284480D01*
X966470Y276098D01*
G37*
G36*
X680819Y263970D02*
X684431Y263970D01*
X687768Y265352D01*
X690323Y267907D01*
X691705Y271244D01*
X691705Y274856D01*
X690323Y278193D01*
X687768Y280748D01*
X684431Y282130D01*
X680819Y282130D01*
X677482Y280748D01*
X674927Y278193D01*
X673545Y274856D01*
X673545Y271244D01*
X674927Y267907D01*
X677482Y265352D01*
X680819Y263970D01*
G37*
G36*
X190312Y66559D02*
X202728Y66559D01*
X204216Y68047D01*
X204216Y70890D01*
X204301Y71348D01*
X204574Y71774D01*
X204991Y72059D01*
X205486Y72160D01*
X319173Y72160D01*
X327890Y80877D01*
X327890Y181951D01*
X327983Y182427D01*
X328262Y182849D01*
X331501Y186088D01*
X331904Y186359D01*
X332399Y186460D01*
X335638Y186460D01*
X336114Y186367D01*
X336536Y186088D01*
X337576Y185048D01*
X337839Y184664D01*
X337948Y184170D01*
X337855Y183673D01*
X337576Y183252D01*
X336440Y182116D01*
X335280Y179316D01*
X335280Y176284D01*
X336440Y173484D01*
X337576Y172348D01*
X337839Y171964D01*
X337948Y171470D01*
X337855Y170973D01*
X337576Y170552D01*
X336440Y169416D01*
X335280Y166616D01*
X335280Y163584D01*
X336440Y160784D01*
X337576Y159648D01*
X337839Y159264D01*
X337948Y158770D01*
X337855Y158273D01*
X337576Y157852D01*
X336440Y156716D01*
X335280Y153916D01*
X335280Y153670D01*
X350520Y153670D01*
X350520Y153916D01*
X349360Y156716D01*
X348684Y157392D01*
X348429Y157758D01*
X348313Y158250D01*
X348398Y158748D01*
X348670Y159174D01*
X349087Y159459D01*
X349582Y159560D01*
X497723Y159560D01*
X498200Y159467D01*
X498621Y159188D01*
X499031Y158778D01*
X504269Y158778D01*
X507972Y162481D01*
X507972Y167719D01*
X504269Y171422D01*
X499031Y171422D01*
X498621Y171012D01*
X498219Y170741D01*
X497723Y170640D01*
X349582Y170640D01*
X349143Y170718D01*
X348713Y170984D01*
X348421Y171396D01*
X348313Y171890D01*
X348405Y172387D01*
X348684Y172808D01*
X349360Y173484D01*
X350520Y176284D01*
X350520Y179316D01*
X349360Y182116D01*
X348224Y183252D01*
X347961Y183636D01*
X347853Y184130D01*
X347945Y184627D01*
X348224Y185048D01*
X349360Y186184D01*
X350520Y188984D01*
X350520Y192016D01*
X349360Y194816D01*
X348224Y195952D01*
X347961Y196336D01*
X347853Y196830D01*
X347945Y197327D01*
X348224Y197748D01*
X349360Y198884D01*
X350520Y201684D01*
X350520Y204716D01*
X349360Y207516D01*
X348224Y208652D01*
X347961Y209036D01*
X347853Y209530D01*
X347945Y210027D01*
X348224Y210448D01*
X349360Y211584D01*
X350520Y214384D01*
X350520Y217416D01*
X349360Y220216D01*
X348224Y221352D01*
X347961Y221736D01*
X347853Y222230D01*
X347945Y222727D01*
X348224Y223148D01*
X349360Y224284D01*
X350520Y227084D01*
X350520Y230116D01*
X349360Y232916D01*
X348224Y234052D01*
X347961Y234436D01*
X347853Y234930D01*
X347945Y235427D01*
X348224Y235848D01*
X349360Y236984D01*
X350520Y239784D01*
X350520Y242816D01*
X349360Y245616D01*
X348224Y246752D01*
X347961Y247136D01*
X347853Y247630D01*
X347945Y248127D01*
X348224Y248548D01*
X349360Y249684D01*
X350520Y252484D01*
X350520Y255516D01*
X349360Y258316D01*
X348224Y259452D01*
X347961Y259836D01*
X347853Y260330D01*
X347945Y260827D01*
X348224Y261248D01*
X349360Y262384D01*
X350520Y265184D01*
X350520Y268216D01*
X349360Y271016D01*
X348224Y272152D01*
X347961Y272536D01*
X347853Y273030D01*
X347945Y273527D01*
X348224Y273948D01*
X349360Y275084D01*
X350520Y277884D01*
X350520Y278130D01*
X335280Y278130D01*
X335280Y277884D01*
X336440Y275084D01*
X337576Y273948D01*
X337839Y273564D01*
X337948Y273070D01*
X337855Y272573D01*
X337576Y272152D01*
X336536Y271112D01*
X336133Y270841D01*
X335638Y270740D01*
X280902Y270740D01*
X272185Y262023D01*
X272185Y160949D01*
X272092Y160473D01*
X271813Y160051D01*
X268574Y156812D01*
X268171Y156541D01*
X267676Y156440D01*
X205486Y156440D01*
X205028Y156525D01*
X204602Y156798D01*
X204317Y157215D01*
X204216Y157710D01*
X204216Y160553D01*
X202728Y162041D01*
X190312Y162041D01*
X188824Y160553D01*
X188824Y144247D01*
X190312Y142759D01*
X202728Y142759D01*
X204216Y144247D01*
X204216Y147090D01*
X204301Y147548D01*
X204574Y147974D01*
X204991Y148259D01*
X205486Y148360D01*
X271548Y148360D01*
X280265Y157077D01*
X280265Y258151D01*
X280358Y258627D01*
X280637Y259049D01*
X283876Y262288D01*
X284279Y262559D01*
X284774Y262660D01*
X335638Y262660D01*
X336114Y262567D01*
X336536Y262288D01*
X337576Y261248D01*
X337839Y260864D01*
X337948Y260370D01*
X337855Y259873D01*
X337576Y259452D01*
X336440Y258316D01*
X335280Y255516D01*
X335280Y252484D01*
X336440Y249684D01*
X337576Y248548D01*
X337839Y248164D01*
X337948Y247670D01*
X337855Y247173D01*
X337576Y246752D01*
X336536Y245712D01*
X336133Y245441D01*
X335638Y245340D01*
X296777Y245340D01*
X288060Y236623D01*
X288060Y135549D01*
X287967Y135073D01*
X287688Y134651D01*
X284449Y131412D01*
X284046Y131141D01*
X283551Y131040D01*
X205486Y131040D01*
X205028Y131125D01*
X204602Y131398D01*
X204317Y131815D01*
X204216Y132310D01*
X204216Y135153D01*
X202728Y136641D01*
X190312Y136641D01*
X188824Y135153D01*
X188824Y118847D01*
X190312Y117359D01*
X202728Y117359D01*
X204216Y118847D01*
X204216Y121690D01*
X204301Y122148D01*
X204574Y122574D01*
X204991Y122859D01*
X205486Y122960D01*
X287423Y122960D01*
X296140Y131677D01*
X296140Y232751D01*
X296233Y233227D01*
X296512Y233649D01*
X299751Y236888D01*
X300154Y237159D01*
X300649Y237260D01*
X335638Y237260D01*
X336114Y237167D01*
X336536Y236888D01*
X337576Y235848D01*
X337839Y235464D01*
X337948Y234970D01*
X337855Y234473D01*
X337576Y234052D01*
X336440Y232916D01*
X335280Y230116D01*
X335280Y227084D01*
X336440Y224284D01*
X337576Y223148D01*
X337839Y222764D01*
X337948Y222270D01*
X337855Y221773D01*
X337576Y221352D01*
X336536Y220312D01*
X336133Y220041D01*
X335638Y219940D01*
X312652Y219940D01*
X303935Y211223D01*
X303935Y110149D01*
X303842Y109673D01*
X303563Y109251D01*
X300324Y106012D01*
X299921Y105741D01*
X299426Y105640D01*
X205486Y105640D01*
X205028Y105725D01*
X204602Y105998D01*
X204317Y106415D01*
X204216Y106910D01*
X204216Y109753D01*
X202728Y111241D01*
X190312Y111241D01*
X188824Y109753D01*
X188824Y93447D01*
X190312Y91959D01*
X202728Y91959D01*
X204216Y93447D01*
X204216Y96290D01*
X204301Y96748D01*
X204574Y97174D01*
X204991Y97459D01*
X205486Y97560D01*
X303298Y97560D01*
X312015Y106277D01*
X312015Y207351D01*
X312108Y207827D01*
X312387Y208249D01*
X315626Y211488D01*
X316029Y211759D01*
X316524Y211860D01*
X335638Y211860D01*
X336114Y211767D01*
X336536Y211488D01*
X337576Y210448D01*
X337839Y210064D01*
X337948Y209570D01*
X337855Y209073D01*
X337576Y208652D01*
X336440Y207516D01*
X335280Y204716D01*
X335280Y201684D01*
X336440Y198884D01*
X337576Y197748D01*
X337839Y197364D01*
X337948Y196870D01*
X337855Y196373D01*
X337576Y195952D01*
X336536Y194912D01*
X336133Y194641D01*
X335638Y194540D01*
X328527Y194540D01*
X319810Y185823D01*
X319810Y84749D01*
X319717Y84273D01*
X319438Y83851D01*
X316199Y80612D01*
X315796Y80341D01*
X315301Y80240D01*
X205486Y80240D01*
X205028Y80325D01*
X204602Y80598D01*
X204317Y81015D01*
X204216Y81510D01*
X204216Y84353D01*
X202728Y85841D01*
X190312Y85841D01*
X188824Y84353D01*
X188824Y68047D01*
X190312Y66559D01*
G37*
G36*
X833219Y238570D02*
X836831Y238570D01*
X840168Y239952D01*
X842723Y242507D01*
X844105Y245844D01*
X844105Y249456D01*
X842723Y252793D01*
X840168Y255348D01*
X836831Y256730D01*
X833219Y256730D01*
X829882Y255348D01*
X827200Y252666D01*
X827141Y252576D01*
X826724Y252291D01*
X826229Y252190D01*
X780282Y252190D01*
X779805Y252283D01*
X779384Y252562D01*
X773262Y258684D01*
X772991Y259086D01*
X772890Y259582D01*
X772890Y264948D01*
X772983Y265425D01*
X773262Y265846D01*
X774672Y267256D01*
X774672Y272494D01*
X770969Y276197D01*
X765731Y276197D01*
X762028Y272494D01*
X762028Y267256D01*
X763438Y265846D01*
X763709Y265444D01*
X763810Y264948D01*
X763810Y255294D01*
X775994Y243110D01*
X826229Y243110D01*
X826696Y243021D01*
X827120Y242745D01*
X827183Y242650D01*
X829882Y239952D01*
X833219Y238570D01*
G37*
G36*
X935802Y250698D02*
X943798Y250698D01*
X949452Y256352D01*
X949452Y264348D01*
X943798Y270002D01*
X935802Y270002D01*
X930148Y264348D01*
X930148Y256352D01*
X935802Y250698D01*
G37*
G36*
X171922Y244359D02*
X184338Y244359D01*
X185826Y245847D01*
X185826Y262153D01*
X184338Y263641D01*
X171922Y263641D01*
X170434Y262153D01*
X170434Y259310D01*
X170349Y258852D01*
X170076Y258426D01*
X169659Y258141D01*
X169164Y258040D01*
X94069Y258040D01*
X93611Y258125D01*
X93185Y258398D01*
X92900Y258815D01*
X92799Y259310D01*
X92799Y261861D01*
X91311Y263349D01*
X81589Y263349D01*
X80101Y261861D01*
X80101Y246139D01*
X81589Y244651D01*
X91311Y244651D01*
X92799Y246139D01*
X92799Y248690D01*
X92884Y249148D01*
X93157Y249574D01*
X93574Y249859D01*
X94069Y249960D01*
X169164Y249960D01*
X169622Y249875D01*
X170048Y249602D01*
X170333Y249185D01*
X170434Y248690D01*
X170434Y245847D01*
X171922Y244359D01*
G37*
G36*
X67220Y255270D02*
X72299Y255270D01*
X72299Y261861D01*
X70811Y263349D01*
X67220Y263349D01*
X67220Y255270D01*
G37*
G36*
X59601Y255270D02*
X64680Y255270D01*
X64680Y263349D01*
X61089Y263349D01*
X59601Y261861D01*
X59601Y255270D01*
G37*
G36*
X680819Y238570D02*
X684431Y238570D01*
X687768Y239952D01*
X690323Y242507D01*
X691705Y245844D01*
X691705Y249456D01*
X690323Y252793D01*
X687768Y255348D01*
X684431Y256730D01*
X680819Y256730D01*
X677482Y255348D01*
X674927Y252793D01*
X673545Y249456D01*
X673545Y245844D01*
X674927Y242507D01*
X677482Y239952D01*
X680819Y238570D01*
G37*
G36*
X67220Y244651D02*
X70811Y244651D01*
X72299Y246139D01*
X72299Y252730D01*
X67220Y252730D01*
X67220Y244651D01*
G37*
G36*
X61089Y244651D02*
X64680Y244651D01*
X64680Y252730D01*
X59601Y252730D01*
X59601Y246139D01*
X61089Y244651D01*
G37*
G36*
X935802Y225298D02*
X943798Y225298D01*
X949452Y230952D01*
X949452Y238948D01*
X943798Y244602D01*
X935802Y244602D01*
X930148Y238948D01*
X930148Y230952D01*
X935802Y225298D01*
G37*
G36*
X832246Y182880D02*
X837804Y182880D01*
X842938Y185007D01*
X846868Y188937D01*
X848995Y194071D01*
X848995Y199629D01*
X846868Y204763D01*
X842938Y208693D01*
X838029Y210727D01*
X837661Y210960D01*
X837362Y211368D01*
X837246Y211860D01*
X837331Y212358D01*
X837603Y212784D01*
X838020Y213069D01*
X838515Y213170D01*
X842617Y213170D01*
X844105Y214658D01*
X844105Y229842D01*
X842617Y231330D01*
X827433Y231330D01*
X825945Y229842D01*
X825945Y227560D01*
X825860Y227102D01*
X825587Y226676D01*
X825170Y226391D01*
X824675Y226290D01*
X761024Y226290D01*
X760548Y226383D01*
X760126Y226662D01*
X757525Y229263D01*
X757262Y229647D01*
X757153Y230141D01*
X757246Y230638D01*
X757525Y231059D01*
X758797Y232331D01*
X758797Y237569D01*
X755094Y241272D01*
X749856Y241272D01*
X746153Y237569D01*
X746153Y232331D01*
X748063Y230421D01*
X748334Y230019D01*
X748435Y229523D01*
X748435Y226927D01*
X757152Y218210D01*
X824675Y218210D01*
X825133Y218125D01*
X825559Y217852D01*
X825844Y217435D01*
X825945Y216940D01*
X825945Y214658D01*
X827433Y213170D01*
X831535Y213170D01*
X831964Y213095D01*
X832396Y212833D01*
X832692Y212423D01*
X832805Y211930D01*
X832716Y211433D01*
X832440Y211009D01*
X832021Y210727D01*
X827112Y208693D01*
X823182Y204763D01*
X821055Y199629D01*
X821055Y194071D01*
X823182Y188937D01*
X827112Y185007D01*
X832246Y182880D01*
G37*
G36*
X171922Y218959D02*
X184338Y218959D01*
X185826Y220447D01*
X185826Y236753D01*
X184338Y238241D01*
X171922Y238241D01*
X170434Y236753D01*
X170434Y233910D01*
X170349Y233452D01*
X170076Y233026D01*
X169659Y232741D01*
X169164Y232640D01*
X94069Y232640D01*
X93611Y232725D01*
X93185Y232998D01*
X92900Y233415D01*
X92799Y233910D01*
X92799Y236461D01*
X91311Y237949D01*
X81589Y237949D01*
X80101Y236461D01*
X80101Y220739D01*
X81589Y219251D01*
X91311Y219251D01*
X92799Y220739D01*
X92799Y223290D01*
X92884Y223748D01*
X93157Y224174D01*
X93574Y224459D01*
X94069Y224560D01*
X169164Y224560D01*
X169622Y224475D01*
X170048Y224202D01*
X170333Y223785D01*
X170434Y223290D01*
X170434Y220447D01*
X171922Y218959D01*
G37*
G36*
X59601Y229870D02*
X64680Y229870D01*
X64680Y237949D01*
X61089Y237949D01*
X59601Y236461D01*
X59601Y229870D01*
G37*
G36*
X67220Y229870D02*
X72299Y229870D01*
X72299Y236461D01*
X70811Y237949D01*
X67220Y237949D01*
X67220Y229870D01*
G37*
G36*
X679846Y182880D02*
X685404Y182880D01*
X690538Y185007D01*
X694468Y188937D01*
X696595Y194071D01*
X696595Y199629D01*
X694468Y204763D01*
X690538Y208693D01*
X685404Y210820D01*
X685142Y210820D01*
X684713Y210895D01*
X684281Y211157D01*
X683985Y211567D01*
X683873Y212060D01*
X683962Y212557D01*
X684237Y212981D01*
X684656Y213263D01*
X687768Y214552D01*
X690323Y217107D01*
X691705Y220444D01*
X691705Y224056D01*
X690323Y227393D01*
X687768Y229948D01*
X684431Y231330D01*
X680819Y231330D01*
X677482Y229948D01*
X674927Y227393D01*
X673545Y224056D01*
X673545Y220444D01*
X674927Y217107D01*
X677482Y214552D01*
X680594Y213263D01*
X680962Y213030D01*
X681261Y212622D01*
X681377Y212130D01*
X681292Y211632D01*
X681020Y211206D01*
X680603Y210921D01*
X680108Y210820D01*
X679846Y210820D01*
X674712Y208693D01*
X670782Y204763D01*
X668655Y199629D01*
X668655Y194071D01*
X670782Y188937D01*
X674712Y185007D01*
X679846Y182880D01*
G37*
G36*
X67220Y219251D02*
X70811Y219251D01*
X72299Y220739D01*
X72299Y227330D01*
X67220Y227330D01*
X67220Y219251D01*
G37*
G36*
X61089Y219251D02*
X64680Y219251D01*
X64680Y227330D01*
X59601Y227330D01*
X59601Y220739D01*
X61089Y219251D01*
G37*
G36*
X935802Y199898D02*
X943798Y199898D01*
X949452Y205552D01*
X949452Y213548D01*
X943798Y219202D01*
X935802Y219202D01*
X930148Y213548D01*
X930148Y205552D01*
X935802Y199898D01*
G37*
G36*
X171922Y193559D02*
X184338Y193559D01*
X185826Y195047D01*
X185826Y211353D01*
X184338Y212841D01*
X171922Y212841D01*
X170434Y211353D01*
X170434Y208510D01*
X170349Y208052D01*
X170076Y207626D01*
X169659Y207341D01*
X169164Y207240D01*
X94069Y207240D01*
X93611Y207325D01*
X93185Y207598D01*
X92900Y208015D01*
X92799Y208510D01*
X92799Y211061D01*
X91311Y212549D01*
X81589Y212549D01*
X80101Y211061D01*
X80101Y195339D01*
X81589Y193851D01*
X91311Y193851D01*
X92799Y195339D01*
X92799Y197890D01*
X92884Y198348D01*
X93157Y198774D01*
X93574Y199059D01*
X94069Y199160D01*
X169164Y199160D01*
X169622Y199075D01*
X170048Y198802D01*
X170333Y198385D01*
X170434Y197890D01*
X170434Y195047D01*
X171922Y193559D01*
G37*
G36*
X59601Y204470D02*
X64680Y204470D01*
X64680Y212549D01*
X61089Y212549D01*
X59601Y211061D01*
X59601Y204470D01*
G37*
G36*
X67220Y204470D02*
X72299Y204470D01*
X72299Y211061D01*
X70811Y212549D01*
X67220Y212549D01*
X67220Y204470D01*
G37*
G36*
X67220Y193851D02*
X70811Y193851D01*
X72299Y195339D01*
X72299Y201930D01*
X67220Y201930D01*
X67220Y193851D01*
G37*
G36*
X61089Y193851D02*
X64680Y193851D01*
X64680Y201930D01*
X59601Y201930D01*
X59601Y195339D01*
X61089Y193851D01*
G37*
G36*
X171922Y168159D02*
X184338Y168159D01*
X185826Y169647D01*
X185826Y185953D01*
X184338Y187441D01*
X171922Y187441D01*
X170434Y185953D01*
X170434Y183110D01*
X170349Y182652D01*
X170076Y182226D01*
X169659Y181941D01*
X169164Y181840D01*
X94069Y181840D01*
X93611Y181925D01*
X93185Y182198D01*
X92900Y182615D01*
X92799Y183110D01*
X92799Y185661D01*
X91311Y187149D01*
X81589Y187149D01*
X80101Y185661D01*
X80101Y169939D01*
X81589Y168451D01*
X91311Y168451D01*
X92799Y169939D01*
X92799Y172490D01*
X92884Y172948D01*
X93157Y173374D01*
X93574Y173659D01*
X94069Y173760D01*
X169164Y173760D01*
X169622Y173675D01*
X170048Y173402D01*
X170333Y172985D01*
X170434Y172490D01*
X170434Y169647D01*
X171922Y168159D01*
G37*
G36*
X59601Y179070D02*
X64680Y179070D01*
X64680Y187149D01*
X61089Y187149D01*
X59601Y185661D01*
X59601Y179070D01*
G37*
G36*
X67220Y179070D02*
X72299Y179070D01*
X72299Y185661D01*
X70811Y187149D01*
X67220Y187149D01*
X67220Y179070D01*
G37*
G36*
X67220Y168451D02*
X70811Y168451D01*
X72299Y169939D01*
X72299Y176530D01*
X67220Y176530D01*
X67220Y168451D01*
G37*
G36*
X61089Y168451D02*
X64680Y168451D01*
X64680Y176530D01*
X59601Y176530D01*
X59601Y169939D01*
X61089Y168451D01*
G37*
G36*
X171922Y142759D02*
X184338Y142759D01*
X185826Y144247D01*
X185826Y160553D01*
X184338Y162041D01*
X171922Y162041D01*
X170434Y160553D01*
X170434Y157710D01*
X170349Y157252D01*
X170076Y156826D01*
X169659Y156541D01*
X169164Y156440D01*
X94069Y156440D01*
X93611Y156525D01*
X93185Y156798D01*
X92900Y157215D01*
X92799Y157710D01*
X92799Y160261D01*
X91311Y161749D01*
X81589Y161749D01*
X80101Y160261D01*
X80101Y144539D01*
X81589Y143051D01*
X91311Y143051D01*
X92799Y144539D01*
X92799Y147090D01*
X92884Y147548D01*
X93157Y147974D01*
X93574Y148259D01*
X94069Y148360D01*
X169164Y148360D01*
X169622Y148275D01*
X170048Y148002D01*
X170333Y147585D01*
X170434Y147090D01*
X170434Y144247D01*
X171922Y142759D01*
G37*
G36*
X67220Y153670D02*
X72299Y153670D01*
X72299Y160261D01*
X70811Y161749D01*
X67220Y161749D01*
X67220Y153670D01*
G37*
G36*
X59601Y153670D02*
X64680Y153670D01*
X64680Y161749D01*
X61089Y161749D01*
X59601Y160261D01*
X59601Y153670D01*
G37*
G36*
X344170Y144780D02*
X344416Y144780D01*
X347216Y145940D01*
X349360Y148084D01*
X350520Y150884D01*
X350520Y151130D01*
X344170Y151130D01*
X344170Y144780D01*
G37*
G36*
X341384Y144780D02*
X341630Y144780D01*
X341630Y151130D01*
X335280Y151130D01*
X335280Y150884D01*
X336440Y148084D01*
X338584Y145940D01*
X341384Y144780D01*
G37*
G36*
X67220Y143051D02*
X70811Y143051D01*
X72299Y144539D01*
X72299Y151130D01*
X67220Y151130D01*
X67220Y143051D01*
G37*
G36*
X61089Y143051D02*
X64680Y143051D01*
X64680Y151130D01*
X59601Y151130D01*
X59601Y144539D01*
X61089Y143051D01*
G37*
G36*
X171922Y117359D02*
X184338Y117359D01*
X185826Y118847D01*
X185826Y135153D01*
X184338Y136641D01*
X171922Y136641D01*
X170434Y135153D01*
X170434Y132310D01*
X170349Y131852D01*
X170076Y131426D01*
X169659Y131141D01*
X169164Y131040D01*
X94069Y131040D01*
X93611Y131125D01*
X93185Y131398D01*
X92900Y131815D01*
X92799Y132310D01*
X92799Y134861D01*
X91311Y136349D01*
X81589Y136349D01*
X80101Y134861D01*
X80101Y119139D01*
X81589Y117651D01*
X91311Y117651D01*
X92799Y119139D01*
X92799Y121690D01*
X92884Y122148D01*
X93157Y122574D01*
X93574Y122859D01*
X94069Y122960D01*
X169164Y122960D01*
X169622Y122875D01*
X170048Y122602D01*
X170333Y122185D01*
X170434Y121690D01*
X170434Y118847D01*
X171922Y117359D01*
G37*
G36*
X67220Y128270D02*
X72299Y128270D01*
X72299Y134861D01*
X70811Y136349D01*
X67220Y136349D01*
X67220Y128270D01*
G37*
G36*
X59601Y128270D02*
X64680Y128270D01*
X64680Y136349D01*
X61089Y136349D01*
X59601Y134861D01*
X59601Y128270D01*
G37*
G36*
X67220Y117651D02*
X70811Y117651D01*
X72299Y119139D01*
X72299Y125730D01*
X67220Y125730D01*
X67220Y117651D01*
G37*
G36*
X61089Y117651D02*
X64680Y117651D01*
X64680Y125730D01*
X59601Y125730D01*
X59601Y119139D01*
X61089Y117651D01*
G37*
G36*
X171922Y91959D02*
X184338Y91959D01*
X185826Y93447D01*
X185826Y109753D01*
X184338Y111241D01*
X171922Y111241D01*
X170434Y109753D01*
X170434Y106910D01*
X170349Y106452D01*
X170076Y106026D01*
X169659Y105741D01*
X169164Y105640D01*
X94069Y105640D01*
X93611Y105725D01*
X93185Y105998D01*
X92900Y106415D01*
X92799Y106910D01*
X92799Y109461D01*
X91311Y110949D01*
X81589Y110949D01*
X80101Y109461D01*
X80101Y93739D01*
X81589Y92251D01*
X91311Y92251D01*
X92799Y93739D01*
X92799Y96290D01*
X92884Y96748D01*
X93157Y97174D01*
X93574Y97459D01*
X94069Y97560D01*
X169164Y97560D01*
X169622Y97475D01*
X170048Y97202D01*
X170333Y96785D01*
X170434Y96290D01*
X170434Y93447D01*
X171922Y91959D01*
G37*
G36*
X59601Y102870D02*
X64680Y102870D01*
X64680Y110949D01*
X61089Y110949D01*
X59601Y109461D01*
X59601Y102870D01*
G37*
G36*
X67220Y102870D02*
X72299Y102870D01*
X72299Y109461D01*
X70811Y110949D01*
X67220Y110949D01*
X67220Y102870D01*
G37*
G36*
X67220Y92251D02*
X70811Y92251D01*
X72299Y93739D01*
X72299Y100330D01*
X67220Y100330D01*
X67220Y92251D01*
G37*
G36*
X61089Y92251D02*
X64680Y92251D01*
X64680Y100330D01*
X59601Y100330D01*
X59601Y93739D01*
X61089Y92251D01*
G37*
G36*
X171922Y66559D02*
X184338Y66559D01*
X185826Y68047D01*
X185826Y84353D01*
X184338Y85841D01*
X171922Y85841D01*
X170434Y84353D01*
X170434Y81510D01*
X170349Y81052D01*
X170076Y80626D01*
X169659Y80341D01*
X169164Y80240D01*
X94069Y80240D01*
X93611Y80325D01*
X93185Y80598D01*
X92900Y81015D01*
X92799Y81510D01*
X92799Y84061D01*
X91311Y85549D01*
X81589Y85549D01*
X80101Y84061D01*
X80101Y68339D01*
X81589Y66851D01*
X91311Y66851D01*
X92799Y68339D01*
X92799Y70890D01*
X92884Y71348D01*
X93157Y71774D01*
X93574Y72059D01*
X94069Y72160D01*
X169164Y72160D01*
X169622Y72075D01*
X170048Y71802D01*
X170333Y71385D01*
X170434Y70890D01*
X170434Y68047D01*
X171922Y66559D01*
G37*
G36*
X59601Y77470D02*
X64680Y77470D01*
X64680Y85549D01*
X61089Y85549D01*
X59601Y84061D01*
X59601Y77470D01*
G37*
G36*
X67220Y77470D02*
X72299Y77470D01*
X72299Y84061D01*
X70811Y85549D01*
X67220Y85549D01*
X67220Y77470D01*
G37*
G36*
X67220Y66851D02*
X70811Y66851D01*
X72299Y68339D01*
X72299Y74930D01*
X67220Y74930D01*
X67220Y66851D01*
G37*
G36*
X61089Y66851D02*
X64680Y66851D01*
X64680Y74930D01*
X59601Y74930D01*
X59601Y68339D01*
X61089Y66851D01*
G37*
G36*
X31006Y14920D02*
X38994Y14920D01*
X46374Y17977D01*
X52023Y23626D01*
X55080Y31006D01*
X55080Y38994D01*
X52023Y46374D01*
X46374Y52023D01*
X38994Y55080D01*
X31006Y55080D01*
X23626Y52023D01*
X17977Y46374D01*
X14920Y38994D01*
X14920Y31006D01*
X17977Y23626D01*
X23626Y17977D01*
X31006Y14920D01*
G37*
%LPD*%
G36*
X590133Y562941D02*
X589638Y562840D01*
X507024Y562840D01*
X506548Y562933D01*
X506126Y563212D01*
X502887Y566451D01*
X502616Y566854D01*
X502515Y567349D01*
X502515Y715351D01*
X502608Y715827D01*
X502887Y716249D01*
X506126Y719488D01*
X506529Y719759D01*
X507024Y719860D01*
X972526Y719860D01*
X973002Y719767D01*
X973424Y719488D01*
X976663Y716249D01*
X976934Y715846D01*
X977035Y715351D01*
X977035Y714547D01*
X976957Y714108D01*
X976691Y713678D01*
X976279Y713385D01*
X975785Y713277D01*
X975288Y713370D01*
X974867Y713649D01*
X974169Y714347D01*
X968931Y714347D01*
X967021Y712437D01*
X966619Y712166D01*
X966123Y712065D01*
X519027Y712065D01*
X510310Y703348D01*
X510310Y588877D01*
X519027Y580160D01*
X589638Y580160D01*
X590114Y580067D01*
X590536Y579788D01*
X591576Y578748D01*
X591839Y578364D01*
X591948Y577870D01*
X591855Y577373D01*
X591576Y576952D01*
X590440Y575816D01*
X589280Y573016D01*
X589280Y569984D01*
X590440Y567184D01*
X591576Y566048D01*
X591839Y565664D01*
X591948Y565170D01*
X591855Y564673D01*
X591576Y564252D01*
X590536Y563212D01*
X590133Y562941D01*
G37*
G36*
X590133Y588341D02*
X589638Y588240D01*
X522899Y588240D01*
X522423Y588333D01*
X522001Y588612D01*
X518762Y591851D01*
X518491Y592254D01*
X518390Y592749D01*
X518390Y699476D01*
X518483Y699952D01*
X518762Y700374D01*
X522001Y703613D01*
X522404Y703884D01*
X522899Y703985D01*
X966123Y703985D01*
X966600Y703892D01*
X967021Y703613D01*
X968931Y701703D01*
X974169Y701703D01*
X974867Y702401D01*
X975233Y702656D01*
X975725Y702773D01*
X976223Y702688D01*
X976649Y702416D01*
X976934Y701999D01*
X977035Y701503D01*
X977035Y646231D01*
X976957Y645792D01*
X976691Y645362D01*
X976279Y645070D01*
X975785Y644961D01*
X975288Y645054D01*
X974867Y645333D01*
X969612Y650588D01*
X969341Y650991D01*
X969240Y651486D01*
X969240Y671598D01*
X960523Y680315D01*
X550777Y680315D01*
X542060Y671598D01*
X542060Y639677D01*
X550777Y630960D01*
X589638Y630960D01*
X590114Y630867D01*
X590536Y630588D01*
X591576Y629548D01*
X591839Y629164D01*
X591948Y628670D01*
X591855Y628173D01*
X591576Y627752D01*
X590440Y626616D01*
X589280Y623816D01*
X589280Y620784D01*
X590440Y617984D01*
X591576Y616848D01*
X591839Y616464D01*
X591948Y615970D01*
X591855Y615473D01*
X591576Y615052D01*
X590536Y614012D01*
X590133Y613741D01*
X589638Y613640D01*
X538774Y613640D01*
X538298Y613733D01*
X537876Y614012D01*
X534637Y617251D01*
X534366Y617654D01*
X534265Y618149D01*
X534265Y683601D01*
X534358Y684077D01*
X534637Y684499D01*
X537876Y687738D01*
X538279Y688009D01*
X538774Y688110D01*
X959773Y688110D01*
X960250Y688017D01*
X960671Y687738D01*
X962581Y685828D01*
X967819Y685828D01*
X971522Y689531D01*
X971522Y694769D01*
X967819Y698472D01*
X962581Y698472D01*
X960671Y696562D01*
X960269Y696291D01*
X959773Y696190D01*
X534902Y696190D01*
X526185Y687473D01*
X526185Y614277D01*
X534902Y605560D01*
X589638Y605560D01*
X590114Y605467D01*
X590536Y605188D01*
X591576Y604148D01*
X591839Y603764D01*
X591948Y603270D01*
X591855Y602773D01*
X591576Y602352D01*
X590440Y601216D01*
X589280Y598416D01*
X589280Y595384D01*
X590440Y592584D01*
X591576Y591448D01*
X591839Y591064D01*
X591948Y590570D01*
X591855Y590073D01*
X591576Y589652D01*
X590536Y588612D01*
X590133Y588341D01*
G37*
G36*
X746449Y391491D02*
X745953Y391390D01*
X689872Y391390D01*
X689433Y391468D01*
X689003Y391734D01*
X688711Y392146D01*
X688602Y392640D01*
X688695Y393137D01*
X688974Y393558D01*
X690323Y394907D01*
X690455Y395226D01*
X690716Y395624D01*
X691133Y395909D01*
X691628Y396010D01*
X716048Y396010D01*
X724765Y404727D01*
X724765Y484273D01*
X716048Y492990D01*
X689872Y492990D01*
X689433Y493068D01*
X689003Y493334D01*
X688711Y493746D01*
X688602Y494240D01*
X688695Y494737D01*
X688974Y495158D01*
X690323Y496507D01*
X691705Y499844D01*
X691705Y500380D01*
X673545Y500380D01*
X673545Y499844D01*
X674927Y496507D01*
X676276Y495158D01*
X676531Y494792D01*
X676647Y494300D01*
X676563Y493802D01*
X676290Y493376D01*
X675873Y493091D01*
X675378Y492990D01*
X662599Y492990D01*
X662123Y493083D01*
X661701Y493362D01*
X655723Y499340D01*
X604162Y499340D01*
X603686Y499433D01*
X603264Y499712D01*
X602224Y500752D01*
X601961Y501136D01*
X601853Y501630D01*
X601945Y502127D01*
X602224Y502548D01*
X603360Y503684D01*
X604520Y506484D01*
X604520Y509516D01*
X603360Y512316D01*
X602224Y513452D01*
X601961Y513836D01*
X601853Y514330D01*
X601945Y514827D01*
X602224Y515248D01*
X603264Y516288D01*
X603667Y516559D01*
X604162Y516660D01*
X651851Y516660D01*
X652327Y516567D01*
X652749Y516288D01*
X658727Y510310D01*
X675378Y510310D01*
X675817Y510232D01*
X676247Y509966D01*
X676539Y509554D01*
X676648Y509060D01*
X676555Y508563D01*
X676276Y508142D01*
X674927Y506793D01*
X673545Y503456D01*
X673545Y502920D01*
X691705Y502920D01*
X691705Y503456D01*
X690323Y506793D01*
X688974Y508142D01*
X688719Y508508D01*
X688603Y509000D01*
X688688Y509498D01*
X688960Y509924D01*
X689377Y510209D01*
X689872Y510310D01*
X743926Y510310D01*
X744402Y510217D01*
X744824Y509938D01*
X748063Y506699D01*
X748334Y506296D01*
X748435Y505801D01*
X748435Y430127D01*
X757152Y421410D01*
X826022Y421410D01*
X826489Y421321D01*
X826913Y421045D01*
X827195Y420626D01*
X827327Y420307D01*
X828676Y418958D01*
X828931Y418592D01*
X829047Y418100D01*
X828963Y417602D01*
X828690Y417176D01*
X828273Y416891D01*
X827778Y416790D01*
X745149Y416790D01*
X744673Y416883D01*
X744251Y417162D01*
X741012Y420401D01*
X740741Y420804D01*
X740640Y421299D01*
X740640Y432723D01*
X740733Y433200D01*
X741012Y433621D01*
X742922Y435531D01*
X742922Y440769D01*
X739219Y444472D01*
X733981Y444472D01*
X730278Y440769D01*
X730278Y435531D01*
X732188Y433621D01*
X732459Y433219D01*
X732560Y432723D01*
X732560Y417427D01*
X741277Y408710D01*
X745953Y408710D01*
X746392Y408632D01*
X746822Y408366D01*
X747115Y407954D01*
X747223Y407460D01*
X747130Y406963D01*
X746851Y406542D01*
X742978Y402669D01*
X742978Y397431D01*
X746851Y393558D01*
X747106Y393192D01*
X747223Y392700D01*
X747138Y392202D01*
X746866Y391776D01*
X746449Y391491D01*
G37*
G36*
X623771Y359741D02*
X623276Y359640D01*
X604162Y359640D01*
X603686Y359733D01*
X603264Y360012D01*
X602224Y361052D01*
X601961Y361436D01*
X601853Y361930D01*
X601945Y362427D01*
X602224Y362848D01*
X603360Y363984D01*
X604520Y366784D01*
X604520Y369816D01*
X603360Y372616D01*
X602224Y373752D01*
X601961Y374136D01*
X601853Y374630D01*
X601945Y375127D01*
X602224Y375548D01*
X603264Y376588D01*
X603667Y376859D01*
X604162Y376960D01*
X627148Y376960D01*
X633126Y382938D01*
X633529Y383209D01*
X634024Y383310D01*
X675378Y383310D01*
X675817Y383232D01*
X676247Y382966D01*
X676539Y382554D01*
X676648Y382060D01*
X676555Y381563D01*
X676276Y381142D01*
X674927Y379793D01*
X673545Y376456D01*
X673545Y372844D01*
X674927Y369507D01*
X676276Y368158D01*
X676531Y367792D01*
X676647Y367300D01*
X676563Y366802D01*
X676290Y366376D01*
X675873Y366091D01*
X675378Y365990D01*
X630152Y365990D01*
X624174Y360012D01*
X623771Y359741D01*
G37*
G36*
X828273Y340691D02*
X827778Y340590D01*
X689872Y340590D01*
X689433Y340668D01*
X689003Y340934D01*
X688711Y341346D01*
X688602Y341840D01*
X688695Y342337D01*
X688974Y342758D01*
X690323Y344107D01*
X691705Y347444D01*
X691705Y351056D01*
X690323Y354393D01*
X688974Y355742D01*
X688719Y356108D01*
X688603Y356600D01*
X688688Y357098D01*
X688960Y357524D01*
X689377Y357809D01*
X689872Y357910D01*
X827778Y357910D01*
X828217Y357832D01*
X828647Y357566D01*
X828939Y357154D01*
X829048Y356660D01*
X828955Y356163D01*
X828676Y355742D01*
X827327Y354393D01*
X825945Y351056D01*
X825945Y347444D01*
X827327Y344107D01*
X828676Y342758D01*
X828931Y342392D01*
X829047Y341900D01*
X828963Y341402D01*
X828690Y340976D01*
X828273Y340691D01*
G37*
G36*
X828273Y315291D02*
X827778Y315190D01*
X689872Y315190D01*
X689433Y315268D01*
X689003Y315534D01*
X688711Y315946D01*
X688602Y316440D01*
X688695Y316937D01*
X688974Y317358D01*
X690323Y318707D01*
X691705Y322044D01*
X691705Y325656D01*
X690323Y328993D01*
X688974Y330342D01*
X688719Y330708D01*
X688603Y331200D01*
X688688Y331698D01*
X688960Y332124D01*
X689377Y332409D01*
X689872Y332510D01*
X827778Y332510D01*
X828217Y332432D01*
X828647Y332166D01*
X828939Y331754D01*
X829048Y331260D01*
X828955Y330763D01*
X828676Y330342D01*
X827327Y328993D01*
X825945Y325656D01*
X825945Y322044D01*
X827327Y318707D01*
X828676Y317358D01*
X828931Y316992D01*
X829047Y316500D01*
X828963Y316002D01*
X828690Y315576D01*
X828273Y315291D01*
G37*
G36*
X982546Y64466D02*
X982051Y64365D01*
X532424Y64365D01*
X531948Y64458D01*
X531526Y64737D01*
X528287Y67976D01*
X528016Y68379D01*
X527915Y68874D01*
X527915Y245451D01*
X528008Y245927D01*
X528287Y246349D01*
X531526Y249588D01*
X531929Y249859D01*
X532424Y249960D01*
X589638Y249960D01*
X590114Y249867D01*
X590536Y249588D01*
X591576Y248548D01*
X591839Y248164D01*
X591948Y247670D01*
X591855Y247173D01*
X591576Y246752D01*
X590440Y245616D01*
X589280Y242816D01*
X589280Y239784D01*
X590440Y236984D01*
X591576Y235848D01*
X591839Y235464D01*
X591948Y234970D01*
X591855Y234473D01*
X591576Y234052D01*
X590536Y233012D01*
X590133Y232741D01*
X589638Y232640D01*
X544427Y232640D01*
X535710Y223923D01*
X535710Y80877D01*
X544427Y72160D01*
X976398Y72160D01*
X984392Y80154D01*
X984758Y80409D01*
X985250Y80525D01*
X985748Y80440D01*
X986174Y80168D01*
X986459Y79751D01*
X986560Y79256D01*
X986560Y68874D01*
X986467Y68398D01*
X986188Y67976D01*
X982949Y64737D01*
X982546Y64466D01*
G37*
G36*
X944446Y143841D02*
X943951Y143740D01*
X637199Y143740D01*
X636723Y143833D01*
X636301Y144112D01*
X633062Y147351D01*
X632791Y147754D01*
X632690Y148249D01*
X632690Y214398D01*
X627148Y219940D01*
X604162Y219940D01*
X603686Y220033D01*
X603264Y220312D01*
X602224Y221352D01*
X601961Y221736D01*
X601853Y222230D01*
X601945Y222727D01*
X602224Y223148D01*
X603360Y224284D01*
X604520Y227084D01*
X604520Y230116D01*
X603360Y232916D01*
X602224Y234052D01*
X601961Y234436D01*
X601853Y234930D01*
X601945Y235427D01*
X602224Y235848D01*
X603264Y236888D01*
X603667Y237159D01*
X604162Y237260D01*
X635976Y237260D01*
X636452Y237167D01*
X636874Y236888D01*
X640113Y233649D01*
X640384Y233246D01*
X640485Y232751D01*
X640485Y160252D01*
X649202Y151535D01*
X932839Y151535D01*
X933316Y151442D01*
X933737Y151163D01*
X935802Y149098D01*
X943798Y149098D01*
X946292Y151592D01*
X946658Y151847D01*
X947150Y151963D01*
X947648Y151879D01*
X948074Y151606D01*
X948359Y151189D01*
X948460Y150694D01*
X948460Y148249D01*
X948367Y147773D01*
X948088Y147351D01*
X944849Y144112D01*
X944446Y143841D01*
G37*
G36*
X973021Y80341D02*
X972526Y80240D01*
X548299Y80240D01*
X547823Y80333D01*
X547401Y80612D01*
X544162Y83851D01*
X543891Y84254D01*
X543790Y84749D01*
X543790Y220051D01*
X543883Y220527D01*
X544162Y220949D01*
X547401Y224188D01*
X547804Y224459D01*
X548299Y224560D01*
X589638Y224560D01*
X590114Y224467D01*
X590536Y224188D01*
X591576Y223148D01*
X591839Y222764D01*
X591948Y222270D01*
X591855Y221773D01*
X591576Y221352D01*
X590440Y220216D01*
X589280Y217416D01*
X589280Y214384D01*
X590440Y211584D01*
X591576Y210448D01*
X591839Y210064D01*
X591948Y209570D01*
X591855Y209073D01*
X591576Y208652D01*
X590536Y207612D01*
X590133Y207341D01*
X589638Y207240D01*
X560302Y207240D01*
X551585Y198523D01*
X551585Y96752D01*
X560302Y88035D01*
X966123Y88035D01*
X966600Y87942D01*
X967021Y87663D01*
X968931Y85753D01*
X974169Y85753D01*
X974867Y86451D01*
X975233Y86706D01*
X975725Y86823D01*
X976223Y86738D01*
X976649Y86466D01*
X976934Y86049D01*
X977035Y85553D01*
X977035Y84749D01*
X976942Y84273D01*
X976663Y83851D01*
X973424Y80612D01*
X973021Y80341D01*
G37*
G36*
X957146Y127966D02*
X956651Y127865D01*
X621324Y127865D01*
X620848Y127958D01*
X620426Y128237D01*
X617187Y131476D01*
X616916Y131879D01*
X616815Y132374D01*
X616815Y188998D01*
X611273Y194540D01*
X604162Y194540D01*
X603686Y194633D01*
X603264Y194912D01*
X602224Y195952D01*
X601961Y196336D01*
X601853Y196830D01*
X601945Y197327D01*
X602224Y197748D01*
X603360Y198884D01*
X604520Y201684D01*
X604520Y204716D01*
X603360Y207516D01*
X602224Y208652D01*
X601961Y209036D01*
X601853Y209530D01*
X601945Y210027D01*
X602224Y210448D01*
X603264Y211488D01*
X603667Y211759D01*
X604162Y211860D01*
X623276Y211860D01*
X623752Y211767D01*
X624174Y211488D01*
X624238Y211424D01*
X624509Y211021D01*
X624610Y210526D01*
X624610Y144377D01*
X633327Y135660D01*
X947823Y135660D01*
X956540Y144377D01*
X956540Y150694D01*
X956618Y151133D01*
X956884Y151563D01*
X957296Y151855D01*
X957790Y151964D01*
X958287Y151871D01*
X958708Y151592D01*
X960788Y149512D01*
X961059Y149109D01*
X961160Y148614D01*
X961160Y132374D01*
X961067Y131898D01*
X960788Y131476D01*
X957549Y128237D01*
X957146Y127966D01*
G37*
G36*
X966619Y96216D02*
X966123Y96115D01*
X564174Y96115D01*
X563698Y96208D01*
X563276Y96487D01*
X560037Y99726D01*
X559766Y100129D01*
X559665Y100624D01*
X559665Y194651D01*
X559758Y195127D01*
X560037Y195549D01*
X563276Y198788D01*
X563679Y199059D01*
X564174Y199160D01*
X589638Y199160D01*
X590114Y199067D01*
X590536Y198788D01*
X591576Y197748D01*
X591839Y197364D01*
X591948Y196870D01*
X591855Y196373D01*
X591576Y195952D01*
X590440Y194816D01*
X589280Y192016D01*
X589280Y188984D01*
X590440Y186184D01*
X591576Y185048D01*
X591839Y184664D01*
X591948Y184170D01*
X591855Y183673D01*
X591576Y183252D01*
X590536Y182212D01*
X590133Y181941D01*
X589638Y181840D01*
X576177Y181840D01*
X567460Y173123D01*
X567460Y112627D01*
X576177Y103910D01*
X959773Y103910D01*
X960250Y103817D01*
X960671Y103538D01*
X962581Y101628D01*
X967819Y101628D01*
X971522Y105331D01*
X971522Y110569D01*
X967819Y114272D01*
X962581Y114272D01*
X960671Y112362D01*
X960269Y112091D01*
X959773Y111990D01*
X580049Y111990D01*
X579573Y112083D01*
X579151Y112362D01*
X575912Y115601D01*
X575641Y116004D01*
X575540Y116499D01*
X575540Y169251D01*
X575633Y169727D01*
X575912Y170149D01*
X579151Y173388D01*
X579554Y173659D01*
X580049Y173760D01*
X589638Y173760D01*
X590114Y173667D01*
X590536Y173388D01*
X591576Y172348D01*
X591839Y171964D01*
X591948Y171470D01*
X591855Y170973D01*
X591576Y170552D01*
X590440Y169416D01*
X589280Y166616D01*
X589280Y163584D01*
X590440Y160784D01*
X591576Y159648D01*
X591839Y159264D01*
X591948Y158770D01*
X591855Y158273D01*
X591576Y157852D01*
X590440Y156716D01*
X589280Y153916D01*
X589280Y153670D01*
X604520Y153670D01*
X604520Y153916D01*
X603360Y156716D01*
X602224Y157852D01*
X601961Y158236D01*
X601853Y158730D01*
X601945Y159227D01*
X602224Y159648D01*
X603360Y160784D01*
X604520Y163584D01*
X604520Y166616D01*
X603360Y169416D01*
X602224Y170552D01*
X601961Y170936D01*
X601853Y171430D01*
X601945Y171927D01*
X602224Y172348D01*
X603360Y173484D01*
X604520Y176284D01*
X604520Y179316D01*
X603360Y182116D01*
X602224Y183252D01*
X601961Y183636D01*
X601853Y184130D01*
X601945Y184627D01*
X602224Y185048D01*
X603264Y186088D01*
X603667Y186359D01*
X604162Y186460D01*
X607401Y186460D01*
X607877Y186367D01*
X608299Y186088D01*
X608363Y186024D01*
X608634Y185621D01*
X608735Y185126D01*
X608735Y128502D01*
X617452Y119785D01*
X960523Y119785D01*
X969240Y128502D01*
X969240Y148614D01*
X969333Y149091D01*
X969612Y149512D01*
X974867Y154767D01*
X975233Y155022D01*
X975725Y155138D01*
X976223Y155054D01*
X976649Y154781D01*
X976934Y154364D01*
X977035Y153869D01*
X977035Y98597D01*
X976957Y98158D01*
X976691Y97728D01*
X976279Y97435D01*
X975785Y97327D01*
X975288Y97420D01*
X974867Y97699D01*
X974169Y98397D01*
X968931Y98397D01*
X967021Y96487D01*
X966619Y96216D01*
G37*
%LPC*%
G36*
X598170Y144780D02*
X598416Y144780D01*
X601216Y145940D01*
X603360Y148084D01*
X604520Y150884D01*
X604520Y151130D01*
X598170Y151130D01*
X598170Y144780D01*
G37*
G36*
X595384Y144780D02*
X595630Y144780D01*
X595630Y151130D01*
X589280Y151130D01*
X589280Y150884D01*
X590440Y148084D01*
X592584Y145940D01*
X595384Y144780D01*
G37*
%LPD*%
D10*
X69079Y438150D03*
X51571Y438150D03*
X107179Y438150D03*
X89671Y438150D03*
X69079Y285750D03*
X51571Y285750D03*
X107179Y285750D03*
X89671Y285750D03*
D11*
X123825Y467496D03*
X123825Y485004D03*
X123825Y537346D03*
X123825Y554854D03*
X123825Y650104D03*
X123825Y632596D03*
X123825Y719954D03*
X123825Y702446D03*
D12*
X65950Y254000D03*
X86450Y254000D03*
X65950Y228600D03*
X86450Y228600D03*
X65950Y203200D03*
X86450Y203200D03*
X65950Y177800D03*
X86450Y177800D03*
X65950Y152400D03*
X86450Y152400D03*
X65950Y127000D03*
X86450Y127000D03*
X65950Y101600D03*
X86450Y101600D03*
X65950Y76200D03*
X86450Y76200D03*
D13*
X178130Y254000D03*
X196520Y254000D03*
X178130Y323850D03*
X196520Y323850D03*
X178130Y349250D03*
X196520Y349250D03*
X178130Y374650D03*
X196520Y374650D03*
X178130Y555625D03*
X196520Y555625D03*
X178130Y581025D03*
X196520Y581025D03*
X178130Y606425D03*
X196520Y606425D03*
X178130Y631825D03*
X196520Y631825D03*
X178130Y228600D03*
X196520Y228600D03*
X178130Y203200D03*
X196520Y203200D03*
X178130Y177800D03*
X196520Y177800D03*
X178130Y152400D03*
X196520Y152400D03*
X178130Y127000D03*
X196520Y127000D03*
X178130Y101600D03*
X196520Y101600D03*
X178130Y76200D03*
X196520Y76200D03*
X178130Y400050D03*
X196520Y400050D03*
D14*
X44704Y400050D02*
X31496Y400050D01*
X31496Y374650D02*
X44704Y374650D01*
X107696Y374650D02*
X120904Y374650D01*
X120904Y400050D02*
X107696Y400050D01*
X44704Y349250D02*
X31496Y349250D01*
X31496Y323850D02*
X44704Y323850D01*
X107696Y349250D02*
X120904Y349250D01*
X120904Y323850D02*
X107696Y323850D01*
D15*
X100457Y466344D02*
X85217Y466344D01*
X85217Y511556D02*
X100457Y511556D01*
X35433Y466344D02*
X20193Y466344D01*
X20193Y511556D02*
X35433Y511556D01*
X85217Y536194D02*
X100457Y536194D01*
X100457Y581406D02*
X85217Y581406D01*
X35433Y536194D02*
X20193Y536194D01*
X20193Y581406D02*
X35433Y581406D01*
X35433Y651256D02*
X20193Y651256D01*
X20193Y606044D02*
X35433Y606044D01*
X85217Y651256D02*
X100457Y651256D01*
X100457Y606044D02*
X85217Y606044D01*
X35433Y721106D02*
X20193Y721106D01*
X20193Y675894D02*
X35433Y675894D01*
X85217Y721106D02*
X100457Y721106D01*
X100457Y675894D02*
X85217Y675894D01*
D16*
X939800Y641350D03*
D17*
X965200Y641350D03*
X939800Y615950D03*
X965200Y615950D03*
X939800Y590550D03*
X965200Y590550D03*
X939800Y565150D03*
X965200Y565150D03*
X939800Y539750D03*
X965200Y539750D03*
X939800Y514350D03*
X965200Y514350D03*
X939800Y488950D03*
X965200Y488950D03*
X939800Y463550D03*
X965200Y463550D03*
X939800Y438150D03*
X965200Y438150D03*
X939800Y412750D03*
X965200Y412750D03*
X939800Y387350D03*
X965200Y387350D03*
X939800Y361950D03*
X965200Y361950D03*
X939800Y336550D03*
X965200Y336550D03*
X965200Y311150D03*
X939800Y311150D03*
X965200Y285750D03*
X939800Y285750D03*
X965200Y260350D03*
X939800Y260350D03*
X939800Y234950D03*
X965200Y234950D03*
X965200Y209550D03*
X939800Y209550D03*
X939800Y184150D03*
X965200Y184150D03*
X939800Y158750D03*
X965200Y158750D03*
D18*
X342900Y596900D03*
X342900Y609600D03*
X342900Y622300D03*
X342900Y635000D03*
X342900Y647700D03*
X596900Y596900D03*
X596900Y609600D03*
X596900Y622300D03*
X596900Y635000D03*
X596900Y647700D03*
X342900Y533400D03*
X342900Y546100D03*
X342900Y558800D03*
X342900Y571500D03*
X342900Y584200D03*
X342900Y469900D03*
X342900Y482600D03*
X342900Y495300D03*
X342900Y508000D03*
X342900Y520700D03*
X342900Y406400D03*
X342900Y419100D03*
X342900Y431800D03*
X342900Y444500D03*
X342900Y457200D03*
X342900Y342900D03*
X342900Y355600D03*
X342900Y368300D03*
X342900Y381000D03*
X342900Y393700D03*
X342900Y279400D03*
X342900Y292100D03*
X342900Y304800D03*
X342900Y317500D03*
X342900Y330200D03*
X342900Y215900D03*
X342900Y228600D03*
X342900Y241300D03*
X342900Y254000D03*
X342900Y266700D03*
X342900Y152400D03*
X342900Y165100D03*
X342900Y177800D03*
X342900Y190500D03*
X342900Y203200D03*
X596900Y533400D03*
X596900Y546100D03*
X596900Y558800D03*
X596900Y571500D03*
X596900Y584200D03*
X596900Y469900D03*
X596900Y482600D03*
X596900Y495300D03*
X596900Y508000D03*
X596900Y520700D03*
X596900Y406400D03*
X596900Y419100D03*
X596900Y431800D03*
X596900Y444500D03*
X596900Y457200D03*
X596900Y342900D03*
X596900Y355600D03*
X596900Y368300D03*
X596900Y381000D03*
X596900Y393700D03*
X596900Y279400D03*
X596900Y292100D03*
X596900Y304800D03*
X596900Y317500D03*
X596900Y330200D03*
X596900Y215900D03*
X596900Y228600D03*
X596900Y241300D03*
X596900Y254000D03*
X596900Y266700D03*
X596900Y152400D03*
X596900Y165100D03*
X596900Y177800D03*
X596900Y190500D03*
X596900Y203200D03*
D19*
X835025Y222250D03*
D20*
X835025Y247650D03*
X835025Y273050D03*
X835025Y298450D03*
X835025Y323850D03*
X835025Y349250D03*
X835025Y374650D03*
X835025Y400050D03*
X835025Y425450D03*
X835025Y450850D03*
X835025Y476250D03*
X835025Y501650D03*
X835025Y527050D03*
X835025Y552450D03*
X835025Y577850D03*
X682625Y577850D03*
X682625Y552450D03*
X682625Y527050D03*
X682625Y501650D03*
X682625Y476250D03*
X682625Y450850D03*
X682625Y425450D03*
X682625Y400050D03*
X682625Y374650D03*
X682625Y349250D03*
X682625Y323850D03*
X682625Y298450D03*
X682625Y273050D03*
X682625Y247650D03*
X682625Y222250D03*
D21*
X777875Y646938D02*
X777875Y661162D01*
X752475Y661162D02*
X752475Y646938D01*
X685800Y646938D02*
X685800Y661162D01*
X711200Y661162D02*
X711200Y646938D01*
D22*
X123825Y688975D03*
X123825Y619125D03*
X123825Y568325D03*
X123825Y498475D03*
X15875Y285750D03*
X15875Y438150D03*
X15875Y228600D03*
X15875Y177800D03*
X15875Y127000D03*
X15875Y76200D03*
X466725Y447675D03*
X466725Y365125D03*
X371475Y187325D03*
X501650Y142875D03*
X930275Y777875D03*
X727075Y269875D03*
X720725Y552450D03*
X784225Y463550D03*
X838200Y631825D03*
X623888Y134938D03*
X661988Y147638D03*
X749300Y349250D03*
X749300Y323850D03*
X647700Y377825D03*
X536575Y241300D03*
X549275Y212725D03*
X511175Y574675D03*
X527050Y600075D03*
D23*
X196520Y400050D02*
X196520Y374650D01*
X196520Y349250D01*
X196520Y323850D01*
X196520Y606425D02*
X196520Y631825D01*
X196520Y606425D02*
X196520Y581025D01*
X196520Y555625D01*
X196520Y419100D01*
X196520Y400050D01*
X196520Y419100D02*
X342900Y419100D01*
X596900Y419100D01*
X854075Y285750D02*
X939800Y285750D01*
D24*
X854075Y285750D02*
X815975Y285750D01*
D22*
X727075Y285750D03*
D23*
X815975Y285750D01*
D25*
X178130Y254000D02*
X86450Y254000D01*
X86450Y228600D02*
X178130Y228600D01*
X178130Y203200D02*
X86450Y203200D01*
X86450Y177800D02*
X178130Y177800D01*
X178130Y152400D02*
X86450Y152400D01*
X86450Y127000D02*
X178130Y127000D01*
X178130Y101600D02*
X86450Y101600D01*
X86450Y76200D02*
X178130Y76200D01*
D23*
X342900Y165100D02*
X501650Y165100D01*
D22*
X501650Y165100D03*
D23*
X920750Y514350D02*
X939800Y514350D01*
X920750Y514350D02*
X914400Y520700D01*
X914400Y644525D01*
X904875Y654050D01*
X777875Y654050D01*
X777875Y635000D01*
X771525Y628650D01*
X673100Y628650D01*
X669925Y628650D01*
X641350Y657225D01*
X635000Y663575D01*
X631825Y663575D01*
X568325Y663575D01*
X561975Y657225D01*
X561975Y650875D01*
D22*
X561975Y650875D03*
D25*
X95250Y721106D02*
X92837Y721106D01*
X95250Y721106D02*
X122673Y721106D01*
X123825Y719954D01*
X95250Y721106D02*
X27813Y721106D01*
X123825Y719954D02*
X169046Y719954D01*
X177800Y711200D01*
X178130Y710870D01*
X178130Y631825D01*
X122673Y651256D02*
X92837Y651256D01*
X122673Y651256D02*
X123825Y650104D01*
X92837Y651256D02*
X27813Y651256D01*
X123825Y650104D02*
X124596Y650875D01*
X146050Y650875D01*
X152400Y644525D01*
X152400Y612775D01*
X158750Y606425D01*
X178130Y606425D01*
X123825Y537346D02*
X122673Y536194D01*
X92837Y536194D02*
X27813Y536194D01*
X92837Y536194D02*
X122673Y536194D01*
X123825Y537346D02*
X146821Y537346D01*
X152400Y542925D01*
X152400Y574675D01*
X158750Y581025D01*
X178130Y581025D01*
X123825Y467496D02*
X122673Y466344D01*
X92837Y466344D02*
X27813Y466344D01*
X92837Y466344D02*
X122673Y466344D01*
X123825Y467496D02*
X169046Y467496D01*
X178130Y476580D02*
X178130Y555625D01*
X178130Y476580D02*
X169046Y467496D01*
X107950Y437379D02*
X107179Y438150D01*
X107950Y437379D02*
X107950Y403225D01*
X111125Y400050D02*
X114300Y400050D01*
X111125Y400050D02*
X107950Y403225D01*
X114300Y400050D02*
X178130Y400050D01*
X69079Y388121D02*
X69079Y438150D01*
X69079Y388121D02*
X82550Y374650D01*
X114300Y374650D01*
X178130Y374650D01*
X114300Y349250D02*
X82550Y349250D01*
X69850Y336550D01*
X69079Y335779D01*
X69079Y285750D01*
X114300Y349250D02*
X178130Y349250D01*
X107179Y319904D02*
X107179Y285750D01*
X111125Y323850D02*
X114300Y323850D01*
X111125Y323850D02*
X107179Y319904D01*
X114300Y323850D02*
X178130Y323850D01*
X212725Y260680D02*
X206045Y254000D01*
X196520Y254000D01*
X212725Y260680D02*
X212725Y387350D01*
X219075Y393700D01*
X342900Y393700D01*
X222250Y228600D02*
X196520Y228600D01*
X222250Y228600D02*
X228600Y234950D01*
X228600Y361950D01*
X234950Y368300D01*
X342900Y368300D01*
X238125Y203200D02*
X196520Y203200D01*
X238125Y203200D02*
X244475Y209550D01*
X244475Y336550D01*
X250825Y342900D01*
X342900Y342900D01*
X244475Y177800D02*
X196520Y177800D01*
X254000Y177800D02*
X260350Y184150D01*
X254000Y177800D02*
X244475Y177800D01*
X260350Y184150D02*
X260350Y311150D01*
X266700Y317500D01*
X342900Y317500D01*
X269875Y152400D02*
X196520Y152400D01*
X269875Y152400D02*
X276225Y158750D01*
X276225Y260350D01*
X282575Y266700D01*
X342900Y266700D01*
X285750Y127000D02*
X196520Y127000D01*
X285750Y127000D02*
X292100Y133350D01*
X292100Y234950D01*
X298450Y241300D01*
X342900Y241300D01*
X301625Y101600D02*
X196520Y101600D01*
X301625Y101600D02*
X307975Y107950D01*
X307975Y209550D01*
X314325Y215900D01*
X342900Y215900D01*
X317500Y76200D02*
X196520Y76200D01*
X317500Y76200D02*
X323850Y82550D01*
X323850Y184150D01*
X330200Y190500D01*
X342900Y190500D01*
X552450Y635000D02*
X596900Y635000D01*
X552450Y635000D02*
X546100Y641350D01*
X546100Y669925D01*
X552450Y676275D01*
X958850Y676275D01*
X965200Y669925D01*
X965200Y641350D01*
X596900Y609600D02*
X536575Y609600D01*
X530225Y615950D01*
X530225Y644525D01*
X530225Y685800D01*
X536575Y692150D01*
X965200Y692150D01*
D22*
X965200Y692150D03*
D25*
X596900Y584200D02*
X520700Y584200D01*
X514350Y590550D01*
X514350Y701675D01*
X520700Y708025D01*
X596900Y708025D01*
X971550Y708025D01*
D22*
X971550Y708025D03*
D25*
X596900Y558800D02*
X504825Y558800D01*
X498475Y565150D01*
X498475Y612775D01*
X498475Y717550D01*
X504825Y723900D01*
X955675Y723900D01*
X974725Y723900D02*
X977900Y720725D01*
X981075Y717550D01*
X981075Y571500D01*
X974725Y565150D01*
X965200Y565150D01*
X955675Y723900D02*
X974725Y723900D01*
X654050Y520700D02*
X596900Y520700D01*
X654050Y520700D02*
X657225Y517525D01*
X660400Y514350D01*
X746125Y514350D01*
X752475Y508000D01*
X752475Y431800D01*
X758825Y425450D01*
X835025Y425450D01*
X596900Y508000D02*
X488950Y508000D01*
X482600Y514350D01*
X482600Y609600D01*
X482600Y733425D01*
X488950Y739775D01*
X571500Y739775D01*
X984250Y739775D01*
X990600Y733425D01*
X990600Y546100D01*
X984250Y539750D01*
X965200Y539750D01*
X654050Y495300D02*
X596900Y495300D01*
X654050Y495300D02*
X660400Y488950D01*
X714375Y488950D01*
X720725Y482600D01*
X720725Y425450D01*
X720725Y406400D01*
X714375Y400050D01*
X682625Y400050D01*
X641350Y482600D02*
X596900Y482600D01*
X641350Y482600D02*
X644525Y485775D01*
D22*
X644525Y485775D03*
D25*
X952500Y501650D02*
X965200Y488950D01*
X952500Y501650D02*
X898525Y501650D01*
X892175Y508000D01*
X892175Y533400D01*
X885825Y539750D01*
X777875Y539750D01*
X736600Y539750D01*
D22*
X736600Y539750D03*
D25*
X647700Y469900D02*
X596900Y469900D01*
X647700Y469900D02*
X654050Y463550D01*
X695325Y463550D01*
X701675Y457200D01*
X701675Y425450D01*
D22*
X701675Y425450D03*
D25*
X749300Y400050D02*
X835025Y400050D01*
D22*
X749300Y400050D03*
D25*
X625475Y457200D02*
X596900Y457200D01*
X625475Y457200D02*
X628650Y460375D01*
D22*
X628650Y460375D03*
D25*
X952500Y476250D02*
X965200Y463550D01*
X952500Y476250D02*
X866775Y476250D01*
X860425Y482600D01*
X860425Y498475D01*
X860425Y508000D01*
X854075Y514350D01*
X825500Y514350D01*
X822325Y514350D01*
X812800Y523875D01*
X809625Y527050D01*
X752475Y527050D01*
D22*
X752475Y527050D03*
D25*
X622300Y444500D02*
X596900Y444500D01*
X622300Y444500D02*
X628650Y438150D01*
X628650Y409575D01*
X711200Y374650D02*
X835025Y374650D01*
X635000Y403225D02*
X628650Y409575D01*
X635000Y403225D02*
X663575Y403225D01*
D22*
X663575Y403225D03*
X711200Y374650D03*
D25*
X952500Y425450D02*
X965200Y438150D01*
X952500Y425450D02*
X869950Y425450D01*
X857250Y412750D01*
X796925Y412750D01*
X790575Y412750D01*
X742950Y412750D01*
X736600Y419100D01*
X736600Y438150D01*
D22*
X736600Y438150D03*
D25*
X952500Y400050D02*
X965200Y412750D01*
X952500Y400050D02*
X869950Y400050D01*
X857250Y387350D01*
X631825Y387350D02*
X625475Y381000D01*
X596900Y381000D01*
X752475Y387350D02*
X857250Y387350D01*
X701675Y387350D02*
X631825Y387350D01*
X701675Y387350D02*
X752475Y387350D01*
X952500Y374650D02*
X965200Y387350D01*
X952500Y374650D02*
X869950Y374650D01*
X857250Y361950D01*
X631825Y361950D01*
X625475Y355600D01*
X596900Y355600D01*
D22*
X752475Y234950D03*
D25*
X752475Y228600D02*
X758825Y222250D01*
X752475Y228600D02*
X752475Y234950D01*
X758825Y222250D02*
X835025Y222250D01*
X952500Y349250D02*
X965200Y361950D01*
X952500Y349250D02*
X869950Y349250D01*
X857250Y336550D01*
X768350Y336550D01*
X631825Y336550D01*
X625475Y330200D01*
X596900Y330200D01*
X952500Y323850D02*
X965200Y336550D01*
X952500Y323850D02*
X869950Y323850D01*
X857250Y311150D01*
X765175Y311150D01*
X631825Y311150D01*
X625475Y304800D01*
X596900Y304800D01*
X596900Y266700D02*
X606425Y266700D01*
X654050Y266700D01*
X657225Y263525D01*
X660400Y260350D01*
X660400Y196850D01*
X660400Y177800D01*
X666750Y171450D01*
X806450Y171450D01*
X927100Y171450D01*
X939800Y184150D01*
X596900Y254000D02*
X530225Y254000D01*
X523875Y247650D01*
X523875Y66675D01*
X530225Y60325D01*
X590550Y60325D01*
X984250Y60325D01*
X990600Y66675D01*
X990600Y304800D01*
X984250Y311150D01*
X965200Y311150D01*
X638175Y241300D02*
X596900Y241300D01*
X638175Y241300D02*
X644525Y234950D01*
X644525Y190500D01*
X644525Y161925D01*
X650875Y155575D01*
X936625Y155575D02*
X939800Y158750D01*
X936625Y155575D02*
X650875Y155575D01*
X596900Y228600D02*
X546100Y228600D01*
X539750Y222250D01*
X539750Y212725D01*
X539750Y190500D01*
X539750Y82550D01*
X546100Y76200D01*
X974725Y76200D01*
X981075Y82550D01*
X981075Y101600D01*
X981075Y254000D01*
X974725Y260350D01*
X965200Y260350D01*
X625475Y215900D02*
X596900Y215900D01*
X625475Y215900D02*
X628650Y212725D01*
X628650Y180975D01*
X628650Y146050D01*
X635000Y139700D01*
X946150Y139700D02*
X952500Y146050D01*
X946150Y139700D02*
X635000Y139700D01*
X952500Y171450D02*
X965200Y184150D01*
X952500Y171450D02*
X952500Y146050D01*
X596900Y203200D02*
X561975Y203200D01*
X555625Y196850D01*
X555625Y130175D01*
X555625Y98425D01*
X561975Y92075D01*
X971550Y92075D01*
D22*
X971550Y92075D03*
D25*
X609600Y190500D02*
X596900Y190500D01*
X609600Y190500D02*
X612775Y187325D01*
X612775Y130175D01*
X965200Y130175D02*
X965200Y158750D01*
X965200Y130175D02*
X958850Y123825D01*
X619125Y123825D01*
X612775Y130175D01*
X596900Y177800D02*
X577850Y177800D01*
X571500Y171450D01*
X571500Y139700D01*
X571500Y114300D01*
X577850Y107950D01*
X650875Y107950D01*
X965200Y107950D01*
D22*
X965200Y107950D03*
X784225Y501650D03*
D24*
X835025Y501650D01*
X835025Y247650D02*
X777875Y247650D01*
X768350Y257175D01*
X768350Y263525D01*
X768350Y269875D01*
D22*
X768350Y269875D03*
M02*
