G04 EAGLE Gerber RS-274X export*
G75*
%MOMM*%
%FSLAX34Y34*%
%LPD*%
%INSilkscreen Bottom*%
%IPPOS*%
%AMOC8*
5,1,8,0,0,1.08239X$1,22.5*%
G01*
G04 Define Apertures*
%ADD10C,0.203200*%
%ADD11R,0.050800X0.025400*%
%ADD12R,0.177800X0.025400*%
%ADD13R,0.025400X0.025400*%
%ADD14R,0.127000X0.025400*%
%ADD15R,0.330200X0.025400*%
%ADD16R,0.152400X0.025400*%
%ADD17R,0.558800X0.025400*%
%ADD18R,0.355600X0.025400*%
%ADD19R,0.508000X0.025400*%
%ADD20R,0.609600X0.025400*%
%ADD21R,0.431800X0.025400*%
%ADD22R,0.406400X0.025400*%
%ADD23R,0.482600X0.025400*%
%ADD24R,0.533400X0.025400*%
%ADD25R,0.203200X0.025400*%
%ADD26R,0.228600X0.025400*%
%ADD27R,0.457200X0.025400*%
%ADD28R,0.254000X0.025400*%
%ADD29R,0.101600X0.025400*%
%ADD30R,0.279400X0.025400*%
%ADD31R,0.584200X0.025400*%
%ADD32R,0.304800X0.025400*%
%ADD33R,0.381000X0.025400*%
%ADD34R,0.076200X0.025400*%
%ADD35R,0.711200X0.025400*%
%ADD36R,0.863600X0.025400*%
%ADD37R,1.041400X0.025400*%
%ADD38R,1.066800X0.025400*%
%ADD39R,4.318000X0.025400*%
%ADD40R,1.219200X0.025400*%
%ADD41R,1.422400X0.025400*%
%ADD42R,1.346200X0.025400*%
%ADD43R,1.574800X0.025400*%
%ADD44R,1.473200X0.025400*%
%ADD45R,1.727200X0.025400*%
%ADD46R,1.600200X0.025400*%
%ADD47R,1.828800X0.025400*%
%ADD48R,1.676400X0.025400*%
%ADD49R,1.930400X0.025400*%
%ADD50R,1.803400X0.025400*%
%ADD51R,2.032000X0.025400*%
%ADD52R,1.879600X0.025400*%
%ADD53R,2.159000X0.025400*%
%ADD54R,1.955800X0.025400*%
%ADD55R,2.209800X0.025400*%
%ADD56R,2.006600X0.025400*%
%ADD57R,2.286000X0.025400*%
%ADD58R,2.057400X0.025400*%
%ADD59R,2.387600X0.025400*%
%ADD60R,2.438400X0.025400*%
%ADD61R,2.489200X0.025400*%
%ADD62R,2.260600X0.025400*%
%ADD63R,2.590800X0.025400*%
%ADD64R,2.336800X0.025400*%
%ADD65R,2.616200X0.025400*%
%ADD66R,2.692400X0.025400*%
%ADD67R,2.413000X0.025400*%
%ADD68R,2.717800X0.025400*%
%ADD69R,2.463800X0.025400*%
%ADD70R,2.794000X0.025400*%
%ADD71R,2.514600X0.025400*%
%ADD72R,2.844800X0.025400*%
%ADD73R,2.565400X0.025400*%
%ADD74R,2.895600X0.025400*%
%ADD75R,2.946400X0.025400*%
%ADD76R,2.641600X0.025400*%
%ADD77R,2.971800X0.025400*%
%ADD78R,3.022600X0.025400*%
%ADD79R,3.048000X0.025400*%
%ADD80R,3.098800X0.025400*%
%ADD81R,3.124200X0.025400*%
%ADD82R,2.667000X0.025400*%
%ADD83R,3.149600X0.025400*%
%ADD84R,3.200400X0.025400*%
%ADD85R,3.225800X0.025400*%
%ADD86R,3.251200X0.025400*%
%ADD87R,3.276600X0.025400*%
%ADD88R,1.524000X0.025400*%
%ADD89R,1.498600X0.025400*%
%ADD90R,0.990600X0.025400*%
%ADD91R,1.244600X0.025400*%
%ADD92R,1.371600X0.025400*%
%ADD93R,0.838200X0.025400*%
%ADD94R,1.193800X0.025400*%
%ADD95R,1.320800X0.025400*%
%ADD96R,1.295400X0.025400*%
%ADD97R,0.787400X0.025400*%
%ADD98R,1.143000X0.025400*%
%ADD99R,1.117600X0.025400*%
%ADD100R,0.635000X0.025400*%
%ADD101R,1.092200X0.025400*%
%ADD102R,1.168400X0.025400*%
%ADD103R,1.016000X0.025400*%
%ADD104R,0.965200X0.025400*%
%ADD105R,0.660400X0.025400*%
%ADD106R,0.762000X0.025400*%
%ADD107R,0.889000X0.025400*%
%ADD108R,0.939800X0.025400*%
%ADD109R,1.549400X0.025400*%
%ADD110R,0.914400X0.025400*%
%ADD111R,1.778000X0.025400*%
%ADD112R,1.905000X0.025400*%
%ADD113R,2.082800X0.025400*%
%ADD114R,2.133600X0.025400*%
%ADD115R,2.184400X0.025400*%
%ADD116R,2.362200X0.025400*%
%ADD117R,2.540000X0.025400*%
%ADD118R,1.270000X0.025400*%
%ADD119R,0.812800X0.025400*%
%ADD120R,0.736600X0.025400*%
%ADD121R,0.685800X0.025400*%
%ADD122C,0.152400*%
%ADD123R,0.254000X0.508000*%
%ADD124R,0.127000X0.381000*%
%ADD125R,0.254000X0.254000*%
%ADD126C,0.166400*%
%ADD127R,4.886800X0.353500*%
%ADD128R,1.684300X0.582200*%
%ADD129R,0.582300X0.561400*%
G36*
X845384Y55945D02*
X844877Y57972D01*
X845904Y59511D01*
X847386Y60500D01*
X852168Y61934D01*
X853219Y61934D01*
X856905Y59301D01*
X846462Y54328D01*
X845384Y55945D01*
G37*
G36*
X808542Y37623D02*
X821987Y61152D01*
X832637Y49533D01*
X832637Y48823D01*
X808778Y37370D01*
X808542Y37623D01*
G37*
G36*
X854868Y72843D02*
X854444Y73266D01*
X831696Y77532D01*
X831696Y78733D01*
X850787Y111666D01*
X875629Y68671D01*
X865928Y63821D01*
X864839Y63821D01*
X854868Y72843D01*
G37*
G36*
X801054Y27437D02*
X840365Y45434D01*
X841426Y45434D01*
X845257Y43039D01*
X849507Y40207D01*
X852804Y37853D01*
X856565Y35502D01*
X859806Y33649D01*
X860590Y33649D01*
X860965Y34024D01*
X861395Y34884D01*
X861395Y36188D01*
X860483Y38010D01*
X858622Y40802D01*
X849610Y48866D01*
X849610Y49590D01*
X862519Y55805D01*
X864108Y55805D01*
X866579Y52346D01*
X866579Y43327D01*
X867046Y39122D01*
X867976Y36333D01*
X868883Y34518D01*
X870186Y33649D01*
X870840Y33649D01*
X872237Y52280D01*
X872237Y55987D01*
X871795Y56872D01*
X870252Y59443D01*
X879640Y63890D01*
X901161Y26108D01*
X801054Y26108D01*
X801054Y27437D01*
G37*
D10*
X580235Y774375D02*
X584609Y776125D01*
X584696Y776162D01*
X584781Y776202D01*
X584864Y776246D01*
X584945Y776293D01*
X585024Y776343D01*
X585101Y776397D01*
X585176Y776454D01*
X585249Y776514D01*
X585318Y776577D01*
X585386Y776642D01*
X585450Y776711D01*
X585512Y776782D01*
X585570Y776855D01*
X585625Y776931D01*
X585678Y777009D01*
X585727Y777089D01*
X585772Y777171D01*
X585814Y777255D01*
X585853Y777341D01*
X585888Y777428D01*
X585920Y777517D01*
X585947Y777606D01*
X585971Y777697D01*
X585992Y777789D01*
X586008Y777882D01*
X586020Y777975D01*
X586029Y778068D01*
X586034Y778162D01*
X586035Y778256D01*
X586032Y778350D01*
X586025Y778444D01*
X586014Y778537D01*
X586000Y778630D01*
X585981Y778722D01*
X585959Y778813D01*
X585933Y778903D01*
X585903Y778992D01*
X585870Y779080D01*
X585833Y779167D01*
X585793Y779251D01*
X585749Y779334D01*
X585701Y779415D01*
X585650Y779495D01*
X585596Y779571D01*
X585539Y779646D01*
X585479Y779718D01*
X585416Y779788D01*
X585350Y779855D01*
X585282Y779919D01*
X585210Y779980D01*
X585137Y780039D01*
X585061Y780094D01*
X584983Y780146D01*
X584902Y780194D01*
X584820Y780240D01*
X584736Y780282D01*
X584650Y780320D01*
X584563Y780355D01*
X584474Y780386D01*
X584384Y780413D01*
X584293Y780437D01*
X584202Y780457D01*
X584109Y780473D01*
X584016Y780485D01*
X583922Y780494D01*
X583829Y780498D01*
X583735Y780499D01*
X583734Y780500D02*
X583495Y780494D01*
X583257Y780482D01*
X583018Y780464D01*
X582781Y780440D01*
X582543Y780411D01*
X582307Y780376D01*
X582072Y780336D01*
X581837Y780290D01*
X581604Y780238D01*
X581372Y780180D01*
X581142Y780117D01*
X580913Y780049D01*
X580686Y779975D01*
X580460Y779895D01*
X580237Y779811D01*
X580016Y779721D01*
X579797Y779625D01*
X580235Y774375D02*
X580148Y774338D01*
X580063Y774298D01*
X579980Y774254D01*
X579899Y774207D01*
X579820Y774157D01*
X579743Y774103D01*
X579668Y774046D01*
X579595Y773986D01*
X579526Y773923D01*
X579458Y773858D01*
X579394Y773789D01*
X579332Y773718D01*
X579274Y773645D01*
X579219Y773569D01*
X579166Y773491D01*
X579117Y773411D01*
X579072Y773329D01*
X579030Y773245D01*
X578991Y773159D01*
X578956Y773072D01*
X578924Y772983D01*
X578897Y772894D01*
X578873Y772803D01*
X578852Y772711D01*
X578836Y772618D01*
X578824Y772525D01*
X578815Y772432D01*
X578810Y772338D01*
X578809Y772244D01*
X578812Y772150D01*
X578819Y772056D01*
X578830Y771963D01*
X578844Y771870D01*
X578863Y771778D01*
X578885Y771687D01*
X578911Y771597D01*
X578941Y771508D01*
X578974Y771420D01*
X579011Y771333D01*
X579051Y771249D01*
X579095Y771166D01*
X579143Y771085D01*
X579194Y771005D01*
X579248Y770929D01*
X579305Y770854D01*
X579365Y770782D01*
X579428Y770712D01*
X579494Y770645D01*
X579562Y770581D01*
X579634Y770520D01*
X579707Y770461D01*
X579783Y770406D01*
X579861Y770354D01*
X579942Y770306D01*
X580024Y770260D01*
X580108Y770218D01*
X580194Y770180D01*
X580281Y770145D01*
X580370Y770114D01*
X580460Y770087D01*
X580551Y770063D01*
X580642Y770043D01*
X580735Y770027D01*
X580828Y770015D01*
X580922Y770006D01*
X581015Y770002D01*
X581109Y770001D01*
X581110Y770001D02*
X581461Y770010D01*
X581812Y770027D01*
X582162Y770053D01*
X582511Y770087D01*
X582859Y770129D01*
X583206Y770180D01*
X583552Y770238D01*
X583897Y770305D01*
X584240Y770380D01*
X584581Y770463D01*
X584920Y770554D01*
X585256Y770653D01*
X585591Y770760D01*
X585922Y770875D01*
X572207Y783999D02*
X572207Y785749D01*
X563458Y785749D01*
X567833Y770001D01*
X556409Y776125D02*
X545910Y776125D01*
X538172Y770001D02*
X538172Y785749D01*
X532923Y777000D01*
X527674Y785749D01*
X527674Y770001D01*
X520418Y770001D02*
X520418Y780500D01*
X520856Y784874D02*
X520856Y785749D01*
X519981Y785749D01*
X519981Y784874D01*
X520856Y784874D01*
X513497Y780500D02*
X513497Y770001D01*
X513497Y780500D02*
X509122Y780500D01*
X509021Y780498D01*
X508921Y780492D01*
X508821Y780483D01*
X508721Y780469D01*
X508622Y780452D01*
X508524Y780431D01*
X508426Y780406D01*
X508330Y780378D01*
X508235Y780345D01*
X508141Y780310D01*
X508048Y780270D01*
X507957Y780227D01*
X507868Y780181D01*
X507781Y780131D01*
X507695Y780078D01*
X507612Y780022D01*
X507531Y779963D01*
X507452Y779900D01*
X507376Y779835D01*
X507302Y779766D01*
X507231Y779695D01*
X507162Y779621D01*
X507097Y779545D01*
X507034Y779466D01*
X506975Y779385D01*
X506919Y779302D01*
X506866Y779216D01*
X506816Y779129D01*
X506770Y779040D01*
X506727Y778949D01*
X506687Y778856D01*
X506652Y778762D01*
X506619Y778667D01*
X506591Y778571D01*
X506566Y778473D01*
X506545Y778375D01*
X506528Y778276D01*
X506514Y778176D01*
X506505Y778076D01*
X506499Y777976D01*
X506497Y777875D01*
X506498Y777875D02*
X506498Y770001D01*
X499577Y770001D02*
X499577Y780500D01*
X500014Y784874D02*
X500014Y785749D01*
X499139Y785749D01*
X499139Y784874D01*
X500014Y784874D01*
X492842Y776125D02*
X482343Y776125D01*
X474737Y770001D02*
X474737Y785749D01*
X467738Y785749D01*
X467738Y778750D02*
X474737Y778750D01*
X460972Y785749D02*
X460972Y770001D01*
X460972Y785749D02*
X456597Y785749D01*
X456466Y785747D01*
X456335Y785741D01*
X456205Y785731D01*
X456075Y785718D01*
X455945Y785700D01*
X455816Y785679D01*
X455688Y785653D01*
X455560Y785624D01*
X455433Y785591D01*
X455308Y785555D01*
X455183Y785514D01*
X455060Y785470D01*
X454938Y785422D01*
X454818Y785371D01*
X454699Y785316D01*
X454582Y785257D01*
X454467Y785195D01*
X454354Y785130D01*
X454242Y785061D01*
X454133Y784989D01*
X454026Y784914D01*
X453921Y784835D01*
X453819Y784754D01*
X453719Y784669D01*
X453622Y784581D01*
X453527Y784491D01*
X453435Y784398D01*
X453346Y784302D01*
X453260Y784203D01*
X453177Y784102D01*
X453097Y783999D01*
X453020Y783893D01*
X452947Y783785D01*
X452876Y783674D01*
X452809Y783562D01*
X452745Y783448D01*
X452685Y783332D01*
X452628Y783214D01*
X452575Y783094D01*
X452525Y782973D01*
X452479Y782850D01*
X452437Y782727D01*
X452399Y782602D01*
X452364Y782475D01*
X452333Y782348D01*
X452305Y782220D01*
X452282Y782092D01*
X452263Y781962D01*
X452247Y781832D01*
X452235Y781702D01*
X452227Y781571D01*
X452223Y781440D01*
X452223Y781310D01*
X452227Y781179D01*
X452235Y781048D01*
X452247Y780918D01*
X452263Y780788D01*
X452282Y780658D01*
X452305Y780530D01*
X452333Y780402D01*
X452364Y780275D01*
X452399Y780148D01*
X452437Y780023D01*
X452479Y779900D01*
X452525Y779777D01*
X452575Y779656D01*
X452628Y779536D01*
X452685Y779418D01*
X452745Y779302D01*
X452809Y779188D01*
X452876Y779076D01*
X452947Y778965D01*
X453020Y778857D01*
X453097Y778751D01*
X453177Y778648D01*
X453260Y778547D01*
X453346Y778448D01*
X453435Y778352D01*
X453527Y778259D01*
X453622Y778169D01*
X453719Y778081D01*
X453819Y777996D01*
X453921Y777915D01*
X454026Y777836D01*
X454133Y777761D01*
X454242Y777689D01*
X454354Y777620D01*
X454467Y777555D01*
X454582Y777493D01*
X454699Y777434D01*
X454818Y777379D01*
X454938Y777328D01*
X455060Y777280D01*
X455183Y777236D01*
X455308Y777195D01*
X455433Y777159D01*
X455560Y777126D01*
X455688Y777097D01*
X455816Y777071D01*
X455945Y777050D01*
X456075Y777032D01*
X456205Y777019D01*
X456335Y777009D01*
X456466Y777003D01*
X456597Y777001D01*
X456597Y777000D02*
X460972Y777000D01*
X439470Y778750D02*
X436846Y778750D01*
X436846Y770001D01*
X442095Y770001D01*
X442212Y770003D01*
X442329Y770009D01*
X442445Y770019D01*
X442562Y770032D01*
X442677Y770050D01*
X442792Y770071D01*
X442906Y770096D01*
X443020Y770125D01*
X443132Y770158D01*
X443243Y770195D01*
X443353Y770235D01*
X443461Y770279D01*
X443568Y770326D01*
X443674Y770377D01*
X443777Y770432D01*
X443879Y770490D01*
X443978Y770551D01*
X444076Y770615D01*
X444171Y770683D01*
X444264Y770754D01*
X444355Y770828D01*
X444443Y770905D01*
X444528Y770985D01*
X444611Y771068D01*
X444691Y771153D01*
X444768Y771241D01*
X444842Y771332D01*
X444913Y771425D01*
X444981Y771520D01*
X445045Y771618D01*
X445106Y771717D01*
X445164Y771819D01*
X445219Y771922D01*
X445270Y772028D01*
X445317Y772135D01*
X445361Y772243D01*
X445401Y772353D01*
X445438Y772464D01*
X445471Y772576D01*
X445500Y772690D01*
X445525Y772804D01*
X445546Y772919D01*
X445564Y773035D01*
X445577Y773151D01*
X445587Y773267D01*
X445593Y773384D01*
X445595Y773501D01*
X445594Y773501D02*
X445594Y782249D01*
X445595Y782249D02*
X445593Y782366D01*
X445587Y782483D01*
X445577Y782599D01*
X445564Y782715D01*
X445546Y782831D01*
X445525Y782946D01*
X445500Y783060D01*
X445471Y783174D01*
X445438Y783286D01*
X445401Y783397D01*
X445361Y783507D01*
X445317Y783615D01*
X445270Y783722D01*
X445219Y783828D01*
X445164Y783931D01*
X445106Y784033D01*
X445045Y784132D01*
X444981Y784230D01*
X444913Y784325D01*
X444842Y784418D01*
X444768Y784509D01*
X444691Y784597D01*
X444611Y784682D01*
X444528Y784765D01*
X444443Y784845D01*
X444355Y784922D01*
X444264Y784996D01*
X444171Y785067D01*
X444076Y785135D01*
X443978Y785199D01*
X443879Y785260D01*
X443777Y785318D01*
X443674Y785373D01*
X443568Y785424D01*
X443461Y785471D01*
X443353Y785515D01*
X443243Y785555D01*
X443132Y785592D01*
X443020Y785625D01*
X442906Y785654D01*
X442792Y785679D01*
X442677Y785700D01*
X442562Y785718D01*
X442445Y785731D01*
X442329Y785741D01*
X442212Y785747D01*
X442095Y785749D01*
X436846Y785749D01*
X425068Y785749D02*
X430317Y770001D01*
X419818Y770001D02*
X425068Y785749D01*
X421131Y773938D02*
X429005Y773938D01*
X586359Y759079D02*
X586359Y743331D01*
X586359Y759079D02*
X581985Y759079D01*
X581855Y759077D01*
X581726Y759071D01*
X581597Y759062D01*
X581468Y759048D01*
X581339Y759031D01*
X581211Y759010D01*
X581084Y758985D01*
X580958Y758957D01*
X580832Y758924D01*
X580708Y758888D01*
X580584Y758849D01*
X580462Y758805D01*
X580341Y758758D01*
X580222Y758708D01*
X580104Y758654D01*
X579988Y758596D01*
X579873Y758535D01*
X579761Y758471D01*
X579650Y758404D01*
X579541Y758333D01*
X579435Y758259D01*
X579331Y758182D01*
X579229Y758102D01*
X579130Y758018D01*
X579033Y757932D01*
X578938Y757843D01*
X578847Y757752D01*
X578758Y757657D01*
X578672Y757560D01*
X578588Y757461D01*
X578508Y757359D01*
X578431Y757255D01*
X578357Y757149D01*
X578286Y757040D01*
X578219Y756929D01*
X578155Y756817D01*
X578094Y756702D01*
X578036Y756586D01*
X577982Y756468D01*
X577932Y756349D01*
X577885Y756228D01*
X577841Y756106D01*
X577802Y755982D01*
X577766Y755858D01*
X577733Y755732D01*
X577705Y755606D01*
X577680Y755479D01*
X577659Y755351D01*
X577642Y755222D01*
X577628Y755093D01*
X577619Y754964D01*
X577613Y754835D01*
X577611Y754705D01*
X577610Y754705D02*
X577610Y747705D01*
X577611Y747705D02*
X577613Y747575D01*
X577619Y747446D01*
X577628Y747317D01*
X577642Y747188D01*
X577659Y747059D01*
X577680Y746931D01*
X577705Y746804D01*
X577733Y746678D01*
X577766Y746552D01*
X577802Y746428D01*
X577841Y746304D01*
X577885Y746182D01*
X577932Y746061D01*
X577982Y745942D01*
X578036Y745824D01*
X578094Y745708D01*
X578155Y745593D01*
X578219Y745481D01*
X578286Y745370D01*
X578357Y745261D01*
X578431Y745155D01*
X578508Y745051D01*
X578588Y744949D01*
X578672Y744850D01*
X578758Y744753D01*
X578847Y744658D01*
X578938Y744567D01*
X579033Y744478D01*
X579130Y744392D01*
X579229Y744308D01*
X579331Y744228D01*
X579435Y744151D01*
X579541Y744077D01*
X579650Y744006D01*
X579761Y743939D01*
X579873Y743875D01*
X579988Y743814D01*
X580104Y743756D01*
X580222Y743702D01*
X580341Y743652D01*
X580462Y743605D01*
X580584Y743561D01*
X580708Y743522D01*
X580832Y743486D01*
X580958Y743453D01*
X581084Y743425D01*
X581211Y743400D01*
X581339Y743379D01*
X581468Y743362D01*
X581597Y743348D01*
X581726Y743339D01*
X581855Y743333D01*
X581985Y743331D01*
X586359Y743331D01*
X567749Y743331D02*
X563375Y743331D01*
X567749Y743331D02*
X567850Y743333D01*
X567950Y743339D01*
X568050Y743348D01*
X568150Y743362D01*
X568249Y743379D01*
X568347Y743400D01*
X568445Y743425D01*
X568541Y743453D01*
X568636Y743486D01*
X568730Y743521D01*
X568823Y743561D01*
X568914Y743604D01*
X569003Y743650D01*
X569090Y743700D01*
X569176Y743753D01*
X569259Y743809D01*
X569340Y743868D01*
X569419Y743931D01*
X569495Y743996D01*
X569569Y744065D01*
X569640Y744136D01*
X569709Y744210D01*
X569774Y744286D01*
X569837Y744365D01*
X569896Y744446D01*
X569952Y744529D01*
X570005Y744615D01*
X570055Y744702D01*
X570101Y744791D01*
X570144Y744882D01*
X570184Y744975D01*
X570220Y745069D01*
X570252Y745164D01*
X570280Y745260D01*
X570305Y745358D01*
X570326Y745456D01*
X570343Y745555D01*
X570357Y745655D01*
X570366Y745755D01*
X570372Y745855D01*
X570374Y745956D01*
X570374Y750330D01*
X570372Y750448D01*
X570366Y750566D01*
X570356Y750684D01*
X570342Y750801D01*
X570324Y750918D01*
X570302Y751035D01*
X570277Y751150D01*
X570247Y751264D01*
X570213Y751378D01*
X570176Y751490D01*
X570135Y751601D01*
X570090Y751710D01*
X570042Y751818D01*
X569990Y751924D01*
X569934Y752029D01*
X569875Y752131D01*
X569813Y752231D01*
X569747Y752329D01*
X569678Y752425D01*
X569605Y752519D01*
X569530Y752610D01*
X569451Y752698D01*
X569370Y752784D01*
X569285Y752867D01*
X569198Y752947D01*
X569109Y753024D01*
X569016Y753098D01*
X568922Y753168D01*
X568825Y753236D01*
X568725Y753300D01*
X568624Y753361D01*
X568521Y753418D01*
X568415Y753472D01*
X568308Y753523D01*
X568200Y753569D01*
X568090Y753612D01*
X567978Y753651D01*
X567865Y753687D01*
X567751Y753718D01*
X567636Y753746D01*
X567521Y753770D01*
X567404Y753790D01*
X567287Y753806D01*
X567169Y753818D01*
X567051Y753826D01*
X566933Y753830D01*
X566815Y753830D01*
X566697Y753826D01*
X566579Y753818D01*
X566461Y753806D01*
X566344Y753790D01*
X566227Y753770D01*
X566112Y753746D01*
X565997Y753718D01*
X565883Y753687D01*
X565770Y753651D01*
X565658Y753612D01*
X565548Y753569D01*
X565440Y753523D01*
X565333Y753472D01*
X565227Y753418D01*
X565124Y753361D01*
X565023Y753300D01*
X564923Y753236D01*
X564826Y753168D01*
X564732Y753098D01*
X564639Y753024D01*
X564550Y752947D01*
X564463Y752867D01*
X564378Y752784D01*
X564297Y752698D01*
X564218Y752610D01*
X564143Y752519D01*
X564070Y752425D01*
X564001Y752329D01*
X563935Y752231D01*
X563873Y752131D01*
X563814Y752029D01*
X563758Y751924D01*
X563706Y751818D01*
X563658Y751710D01*
X563613Y751601D01*
X563572Y751490D01*
X563535Y751378D01*
X563501Y751264D01*
X563471Y751150D01*
X563446Y751035D01*
X563424Y750918D01*
X563406Y750801D01*
X563392Y750684D01*
X563382Y750566D01*
X563376Y750448D01*
X563374Y750330D01*
X563375Y750330D02*
X563375Y748580D01*
X570374Y748580D01*
X557348Y753830D02*
X553848Y743331D01*
X550349Y753830D01*
X541697Y743331D02*
X537323Y743331D01*
X541697Y743331D02*
X541798Y743333D01*
X541898Y743339D01*
X541998Y743348D01*
X542098Y743362D01*
X542197Y743379D01*
X542295Y743400D01*
X542393Y743425D01*
X542489Y743453D01*
X542584Y743486D01*
X542678Y743521D01*
X542771Y743561D01*
X542862Y743604D01*
X542951Y743650D01*
X543038Y743700D01*
X543124Y743753D01*
X543207Y743809D01*
X543288Y743868D01*
X543367Y743931D01*
X543443Y743996D01*
X543517Y744065D01*
X543588Y744136D01*
X543657Y744210D01*
X543722Y744286D01*
X543785Y744365D01*
X543844Y744446D01*
X543900Y744529D01*
X543953Y744615D01*
X544003Y744702D01*
X544049Y744791D01*
X544092Y744882D01*
X544132Y744975D01*
X544168Y745069D01*
X544200Y745164D01*
X544228Y745260D01*
X544253Y745358D01*
X544274Y745456D01*
X544291Y745555D01*
X544305Y745655D01*
X544314Y745755D01*
X544320Y745855D01*
X544322Y745956D01*
X544322Y750330D01*
X544320Y750448D01*
X544314Y750566D01*
X544304Y750684D01*
X544290Y750801D01*
X544272Y750918D01*
X544250Y751035D01*
X544225Y751150D01*
X544195Y751264D01*
X544161Y751378D01*
X544124Y751490D01*
X544083Y751601D01*
X544038Y751710D01*
X543990Y751818D01*
X543938Y751924D01*
X543882Y752029D01*
X543823Y752131D01*
X543761Y752231D01*
X543695Y752329D01*
X543626Y752425D01*
X543553Y752519D01*
X543478Y752610D01*
X543399Y752698D01*
X543318Y752784D01*
X543233Y752867D01*
X543146Y752947D01*
X543057Y753024D01*
X542964Y753098D01*
X542870Y753168D01*
X542773Y753236D01*
X542673Y753300D01*
X542572Y753361D01*
X542469Y753418D01*
X542363Y753472D01*
X542256Y753523D01*
X542148Y753569D01*
X542038Y753612D01*
X541926Y753651D01*
X541813Y753687D01*
X541699Y753718D01*
X541584Y753746D01*
X541469Y753770D01*
X541352Y753790D01*
X541235Y753806D01*
X541117Y753818D01*
X540999Y753826D01*
X540881Y753830D01*
X540763Y753830D01*
X540645Y753826D01*
X540527Y753818D01*
X540409Y753806D01*
X540292Y753790D01*
X540175Y753770D01*
X540060Y753746D01*
X539945Y753718D01*
X539831Y753687D01*
X539718Y753651D01*
X539606Y753612D01*
X539496Y753569D01*
X539388Y753523D01*
X539281Y753472D01*
X539175Y753418D01*
X539072Y753361D01*
X538971Y753300D01*
X538871Y753236D01*
X538774Y753168D01*
X538680Y753098D01*
X538587Y753024D01*
X538498Y752947D01*
X538411Y752867D01*
X538326Y752784D01*
X538245Y752698D01*
X538166Y752610D01*
X538091Y752519D01*
X538018Y752425D01*
X537949Y752329D01*
X537883Y752231D01*
X537821Y752131D01*
X537762Y752029D01*
X537706Y751924D01*
X537654Y751818D01*
X537606Y751710D01*
X537561Y751601D01*
X537520Y751490D01*
X537483Y751378D01*
X537449Y751264D01*
X537419Y751150D01*
X537394Y751035D01*
X537372Y750918D01*
X537354Y750801D01*
X537340Y750684D01*
X537330Y750566D01*
X537324Y750448D01*
X537322Y750330D01*
X537323Y750330D02*
X537323Y748580D01*
X544322Y748580D01*
X530596Y745956D02*
X530596Y759079D01*
X530596Y745956D02*
X530594Y745855D01*
X530588Y745755D01*
X530579Y745655D01*
X530565Y745555D01*
X530548Y745456D01*
X530527Y745358D01*
X530502Y745260D01*
X530474Y745164D01*
X530441Y745069D01*
X530406Y744975D01*
X530366Y744882D01*
X530323Y744791D01*
X530277Y744702D01*
X530227Y744615D01*
X530174Y744529D01*
X530118Y744446D01*
X530059Y744365D01*
X529996Y744286D01*
X529931Y744210D01*
X529862Y744136D01*
X529791Y744065D01*
X529717Y743996D01*
X529641Y743931D01*
X529562Y743868D01*
X529481Y743809D01*
X529398Y743753D01*
X529312Y743700D01*
X529225Y743650D01*
X529136Y743604D01*
X529045Y743561D01*
X528952Y743521D01*
X528858Y743486D01*
X528763Y743453D01*
X528667Y743425D01*
X528569Y743400D01*
X528471Y743379D01*
X528372Y743362D01*
X528272Y743348D01*
X528172Y743339D01*
X528072Y743333D01*
X527971Y743331D01*
X522438Y746831D02*
X522438Y750330D01*
X522439Y750330D02*
X522437Y750448D01*
X522431Y750566D01*
X522421Y750684D01*
X522407Y750801D01*
X522389Y750918D01*
X522367Y751035D01*
X522342Y751150D01*
X522312Y751264D01*
X522278Y751378D01*
X522241Y751490D01*
X522200Y751601D01*
X522155Y751710D01*
X522107Y751818D01*
X522055Y751924D01*
X521999Y752029D01*
X521940Y752131D01*
X521878Y752231D01*
X521812Y752329D01*
X521743Y752425D01*
X521670Y752519D01*
X521595Y752610D01*
X521516Y752698D01*
X521435Y752784D01*
X521350Y752867D01*
X521263Y752947D01*
X521174Y753024D01*
X521081Y753098D01*
X520987Y753168D01*
X520890Y753236D01*
X520790Y753300D01*
X520689Y753361D01*
X520586Y753418D01*
X520480Y753472D01*
X520373Y753523D01*
X520265Y753569D01*
X520155Y753612D01*
X520043Y753651D01*
X519930Y753687D01*
X519816Y753718D01*
X519701Y753746D01*
X519586Y753770D01*
X519469Y753790D01*
X519352Y753806D01*
X519234Y753818D01*
X519116Y753826D01*
X518998Y753830D01*
X518880Y753830D01*
X518762Y753826D01*
X518644Y753818D01*
X518526Y753806D01*
X518409Y753790D01*
X518292Y753770D01*
X518177Y753746D01*
X518062Y753718D01*
X517948Y753687D01*
X517835Y753651D01*
X517723Y753612D01*
X517613Y753569D01*
X517505Y753523D01*
X517398Y753472D01*
X517292Y753418D01*
X517189Y753361D01*
X517088Y753300D01*
X516988Y753236D01*
X516891Y753168D01*
X516797Y753098D01*
X516704Y753024D01*
X516615Y752947D01*
X516528Y752867D01*
X516443Y752784D01*
X516362Y752698D01*
X516283Y752610D01*
X516208Y752519D01*
X516135Y752425D01*
X516066Y752329D01*
X516000Y752231D01*
X515938Y752131D01*
X515879Y752029D01*
X515823Y751924D01*
X515771Y751818D01*
X515723Y751710D01*
X515678Y751601D01*
X515637Y751490D01*
X515600Y751378D01*
X515566Y751264D01*
X515536Y751150D01*
X515511Y751035D01*
X515489Y750918D01*
X515471Y750801D01*
X515457Y750684D01*
X515447Y750566D01*
X515441Y750448D01*
X515439Y750330D01*
X515439Y746831D01*
X515441Y746713D01*
X515447Y746595D01*
X515457Y746477D01*
X515471Y746360D01*
X515489Y746243D01*
X515511Y746126D01*
X515536Y746011D01*
X515566Y745897D01*
X515600Y745783D01*
X515637Y745671D01*
X515678Y745560D01*
X515723Y745451D01*
X515771Y745343D01*
X515823Y745237D01*
X515879Y745132D01*
X515938Y745030D01*
X516000Y744930D01*
X516066Y744832D01*
X516135Y744736D01*
X516208Y744642D01*
X516283Y744551D01*
X516362Y744463D01*
X516443Y744377D01*
X516528Y744294D01*
X516615Y744214D01*
X516704Y744137D01*
X516797Y744063D01*
X516891Y743993D01*
X516988Y743925D01*
X517088Y743861D01*
X517189Y743800D01*
X517292Y743743D01*
X517398Y743689D01*
X517505Y743638D01*
X517613Y743592D01*
X517723Y743549D01*
X517835Y743510D01*
X517948Y743474D01*
X518062Y743443D01*
X518177Y743415D01*
X518292Y743391D01*
X518409Y743371D01*
X518526Y743355D01*
X518644Y743343D01*
X518762Y743335D01*
X518880Y743331D01*
X518998Y743331D01*
X519116Y743335D01*
X519234Y743343D01*
X519352Y743355D01*
X519469Y743371D01*
X519586Y743391D01*
X519701Y743415D01*
X519816Y743443D01*
X519930Y743474D01*
X520043Y743510D01*
X520155Y743549D01*
X520265Y743592D01*
X520373Y743638D01*
X520480Y743689D01*
X520586Y743743D01*
X520689Y743800D01*
X520790Y743861D01*
X520890Y743925D01*
X520987Y743993D01*
X521081Y744063D01*
X521174Y744137D01*
X521263Y744214D01*
X521350Y744294D01*
X521435Y744377D01*
X521516Y744463D01*
X521595Y744551D01*
X521670Y744642D01*
X521743Y744736D01*
X521812Y744832D01*
X521878Y744930D01*
X521940Y745030D01*
X521999Y745132D01*
X522055Y745237D01*
X522107Y745343D01*
X522155Y745451D01*
X522200Y745560D01*
X522241Y745671D01*
X522278Y745783D01*
X522312Y745897D01*
X522342Y746011D01*
X522367Y746126D01*
X522389Y746243D01*
X522407Y746360D01*
X522421Y746477D01*
X522431Y746595D01*
X522437Y746713D01*
X522439Y746831D01*
X508282Y753830D02*
X508282Y738082D01*
X508282Y753830D02*
X503908Y753830D01*
X503807Y753828D01*
X503707Y753822D01*
X503607Y753813D01*
X503507Y753799D01*
X503408Y753782D01*
X503310Y753761D01*
X503212Y753736D01*
X503116Y753708D01*
X503021Y753675D01*
X502927Y753640D01*
X502834Y753600D01*
X502743Y753557D01*
X502654Y753511D01*
X502567Y753461D01*
X502481Y753408D01*
X502398Y753352D01*
X502317Y753293D01*
X502238Y753230D01*
X502162Y753165D01*
X502088Y753096D01*
X502017Y753025D01*
X501948Y752951D01*
X501883Y752875D01*
X501820Y752796D01*
X501761Y752715D01*
X501705Y752632D01*
X501652Y752546D01*
X501602Y752459D01*
X501556Y752370D01*
X501513Y752279D01*
X501473Y752186D01*
X501438Y752092D01*
X501405Y751997D01*
X501377Y751901D01*
X501352Y751803D01*
X501331Y751705D01*
X501314Y751606D01*
X501300Y751506D01*
X501291Y751406D01*
X501285Y751306D01*
X501283Y751205D01*
X501283Y745956D01*
X501285Y745855D01*
X501291Y745755D01*
X501300Y745655D01*
X501314Y745555D01*
X501331Y745456D01*
X501352Y745358D01*
X501377Y745260D01*
X501405Y745164D01*
X501438Y745069D01*
X501473Y744975D01*
X501513Y744882D01*
X501556Y744791D01*
X501602Y744702D01*
X501652Y744615D01*
X501705Y744529D01*
X501761Y744446D01*
X501820Y744365D01*
X501883Y744286D01*
X501948Y744210D01*
X502017Y744136D01*
X502088Y744065D01*
X502162Y743996D01*
X502238Y743931D01*
X502317Y743868D01*
X502398Y743809D01*
X502481Y743753D01*
X502567Y743700D01*
X502654Y743650D01*
X502743Y743604D01*
X502834Y743561D01*
X502927Y743521D01*
X503021Y743486D01*
X503116Y743453D01*
X503212Y743425D01*
X503310Y743400D01*
X503408Y743379D01*
X503507Y743362D01*
X503607Y743348D01*
X503707Y743339D01*
X503807Y743333D01*
X503908Y743331D01*
X508282Y743331D01*
X493968Y743331D02*
X493968Y753830D01*
X486094Y753830D01*
X485993Y753828D01*
X485893Y753822D01*
X485793Y753813D01*
X485693Y753799D01*
X485594Y753782D01*
X485496Y753761D01*
X485398Y753736D01*
X485302Y753708D01*
X485207Y753675D01*
X485113Y753640D01*
X485020Y753600D01*
X484929Y753557D01*
X484840Y753511D01*
X484753Y753461D01*
X484667Y753408D01*
X484584Y753352D01*
X484503Y753293D01*
X484424Y753230D01*
X484348Y753165D01*
X484274Y753096D01*
X484203Y753025D01*
X484134Y752951D01*
X484069Y752875D01*
X484006Y752796D01*
X483947Y752715D01*
X483891Y752632D01*
X483838Y752546D01*
X483788Y752459D01*
X483742Y752370D01*
X483699Y752279D01*
X483659Y752186D01*
X483624Y752092D01*
X483591Y751997D01*
X483563Y751901D01*
X483538Y751803D01*
X483517Y751705D01*
X483500Y751606D01*
X483486Y751506D01*
X483477Y751406D01*
X483471Y751306D01*
X483469Y751205D01*
X483469Y743331D01*
X488718Y743331D02*
X488718Y753830D01*
X473441Y743331D02*
X469067Y743331D01*
X473441Y743331D02*
X473542Y743333D01*
X473642Y743339D01*
X473742Y743348D01*
X473842Y743362D01*
X473941Y743379D01*
X474039Y743400D01*
X474137Y743425D01*
X474233Y743453D01*
X474328Y743486D01*
X474422Y743521D01*
X474515Y743561D01*
X474606Y743604D01*
X474695Y743650D01*
X474782Y743700D01*
X474868Y743753D01*
X474951Y743809D01*
X475032Y743868D01*
X475111Y743931D01*
X475187Y743996D01*
X475261Y744065D01*
X475332Y744136D01*
X475401Y744210D01*
X475466Y744286D01*
X475529Y744365D01*
X475588Y744446D01*
X475644Y744529D01*
X475697Y744615D01*
X475747Y744702D01*
X475793Y744791D01*
X475836Y744882D01*
X475876Y744975D01*
X475912Y745069D01*
X475944Y745164D01*
X475972Y745260D01*
X475997Y745358D01*
X476018Y745456D01*
X476035Y745555D01*
X476049Y745655D01*
X476058Y745755D01*
X476064Y745855D01*
X476066Y745956D01*
X476066Y750330D01*
X476064Y750448D01*
X476058Y750566D01*
X476048Y750684D01*
X476034Y750801D01*
X476016Y750918D01*
X475994Y751035D01*
X475969Y751150D01*
X475939Y751264D01*
X475905Y751378D01*
X475868Y751490D01*
X475827Y751601D01*
X475782Y751710D01*
X475734Y751818D01*
X475682Y751924D01*
X475626Y752029D01*
X475567Y752131D01*
X475505Y752231D01*
X475439Y752329D01*
X475370Y752425D01*
X475297Y752519D01*
X475222Y752610D01*
X475143Y752698D01*
X475062Y752784D01*
X474977Y752867D01*
X474890Y752947D01*
X474801Y753024D01*
X474708Y753098D01*
X474614Y753168D01*
X474517Y753236D01*
X474417Y753300D01*
X474316Y753361D01*
X474213Y753418D01*
X474107Y753472D01*
X474000Y753523D01*
X473892Y753569D01*
X473782Y753612D01*
X473670Y753651D01*
X473557Y753687D01*
X473443Y753718D01*
X473328Y753746D01*
X473213Y753770D01*
X473096Y753790D01*
X472979Y753806D01*
X472861Y753818D01*
X472743Y753826D01*
X472625Y753830D01*
X472507Y753830D01*
X472389Y753826D01*
X472271Y753818D01*
X472153Y753806D01*
X472036Y753790D01*
X471919Y753770D01*
X471804Y753746D01*
X471689Y753718D01*
X471575Y753687D01*
X471462Y753651D01*
X471350Y753612D01*
X471240Y753569D01*
X471132Y753523D01*
X471025Y753472D01*
X470919Y753418D01*
X470816Y753361D01*
X470715Y753300D01*
X470615Y753236D01*
X470518Y753168D01*
X470424Y753098D01*
X470331Y753024D01*
X470242Y752947D01*
X470155Y752867D01*
X470070Y752784D01*
X469989Y752698D01*
X469910Y752610D01*
X469835Y752519D01*
X469762Y752425D01*
X469693Y752329D01*
X469627Y752231D01*
X469565Y752131D01*
X469506Y752029D01*
X469450Y751924D01*
X469398Y751818D01*
X469350Y751710D01*
X469305Y751601D01*
X469264Y751490D01*
X469227Y751378D01*
X469193Y751264D01*
X469163Y751150D01*
X469138Y751035D01*
X469116Y750918D01*
X469098Y750801D01*
X469084Y750684D01*
X469074Y750566D01*
X469068Y750448D01*
X469066Y750330D01*
X469067Y750330D02*
X469067Y748580D01*
X476066Y748580D01*
X461998Y743331D02*
X461998Y753830D01*
X457623Y753830D01*
X457522Y753828D01*
X457422Y753822D01*
X457322Y753813D01*
X457222Y753799D01*
X457123Y753782D01*
X457025Y753761D01*
X456927Y753736D01*
X456831Y753708D01*
X456736Y753675D01*
X456642Y753640D01*
X456549Y753600D01*
X456458Y753557D01*
X456369Y753511D01*
X456282Y753461D01*
X456196Y753408D01*
X456113Y753352D01*
X456032Y753293D01*
X455953Y753230D01*
X455877Y753165D01*
X455803Y753096D01*
X455732Y753025D01*
X455663Y752951D01*
X455598Y752875D01*
X455535Y752796D01*
X455476Y752715D01*
X455420Y752632D01*
X455367Y752546D01*
X455317Y752459D01*
X455271Y752370D01*
X455228Y752279D01*
X455188Y752186D01*
X455153Y752092D01*
X455120Y751997D01*
X455092Y751901D01*
X455067Y751803D01*
X455046Y751705D01*
X455029Y751606D01*
X455015Y751506D01*
X455006Y751406D01*
X455000Y751306D01*
X454998Y751205D01*
X454998Y743331D01*
X449279Y753830D02*
X444029Y753830D01*
X447529Y759079D02*
X447529Y745956D01*
X447527Y745855D01*
X447521Y745755D01*
X447512Y745655D01*
X447498Y745555D01*
X447481Y745456D01*
X447460Y745358D01*
X447435Y745260D01*
X447407Y745164D01*
X447374Y745069D01*
X447339Y744975D01*
X447299Y744882D01*
X447256Y744791D01*
X447210Y744702D01*
X447160Y744615D01*
X447107Y744529D01*
X447051Y744446D01*
X446992Y744365D01*
X446929Y744286D01*
X446864Y744210D01*
X446795Y744136D01*
X446724Y744065D01*
X446650Y743996D01*
X446574Y743931D01*
X446495Y743868D01*
X446414Y743809D01*
X446331Y743753D01*
X446245Y743700D01*
X446158Y743650D01*
X446069Y743604D01*
X445978Y743561D01*
X445885Y743521D01*
X445791Y743485D01*
X445696Y743453D01*
X445600Y743425D01*
X445502Y743400D01*
X445404Y743379D01*
X445305Y743362D01*
X445205Y743348D01*
X445105Y743339D01*
X445005Y743333D01*
X444904Y743331D01*
X444029Y743331D01*
X428751Y752080D02*
X424377Y752080D01*
X424377Y752079D02*
X424246Y752077D01*
X424115Y752071D01*
X423985Y752061D01*
X423855Y752048D01*
X423725Y752030D01*
X423596Y752009D01*
X423468Y751983D01*
X423340Y751954D01*
X423213Y751921D01*
X423088Y751885D01*
X422963Y751844D01*
X422840Y751800D01*
X422718Y751752D01*
X422598Y751701D01*
X422479Y751646D01*
X422362Y751587D01*
X422247Y751525D01*
X422134Y751460D01*
X422022Y751391D01*
X421913Y751319D01*
X421806Y751244D01*
X421701Y751165D01*
X421599Y751084D01*
X421499Y750999D01*
X421402Y750911D01*
X421307Y750821D01*
X421215Y750728D01*
X421126Y750632D01*
X421040Y750533D01*
X420957Y750432D01*
X420877Y750329D01*
X420800Y750223D01*
X420727Y750115D01*
X420656Y750004D01*
X420589Y749892D01*
X420525Y749778D01*
X420465Y749662D01*
X420408Y749544D01*
X420355Y749424D01*
X420305Y749303D01*
X420259Y749180D01*
X420217Y749057D01*
X420179Y748932D01*
X420144Y748805D01*
X420113Y748678D01*
X420085Y748550D01*
X420062Y748422D01*
X420043Y748292D01*
X420027Y748162D01*
X420015Y748032D01*
X420007Y747901D01*
X420003Y747770D01*
X420003Y747640D01*
X420007Y747509D01*
X420015Y747378D01*
X420027Y747248D01*
X420043Y747118D01*
X420062Y746988D01*
X420085Y746860D01*
X420113Y746732D01*
X420144Y746605D01*
X420179Y746478D01*
X420217Y746353D01*
X420259Y746230D01*
X420305Y746107D01*
X420355Y745986D01*
X420408Y745866D01*
X420465Y745748D01*
X420525Y745632D01*
X420589Y745518D01*
X420656Y745406D01*
X420727Y745295D01*
X420800Y745187D01*
X420877Y745081D01*
X420957Y744978D01*
X421040Y744877D01*
X421126Y744778D01*
X421215Y744682D01*
X421307Y744589D01*
X421402Y744499D01*
X421499Y744411D01*
X421599Y744326D01*
X421701Y744245D01*
X421806Y744166D01*
X421913Y744091D01*
X422022Y744019D01*
X422134Y743950D01*
X422247Y743885D01*
X422362Y743823D01*
X422479Y743764D01*
X422598Y743709D01*
X422718Y743658D01*
X422840Y743610D01*
X422963Y743566D01*
X423088Y743525D01*
X423213Y743489D01*
X423340Y743456D01*
X423468Y743427D01*
X423596Y743401D01*
X423725Y743380D01*
X423855Y743362D01*
X423985Y743349D01*
X424115Y743339D01*
X424246Y743333D01*
X424377Y743331D01*
X428751Y743331D01*
X428751Y759079D01*
X424377Y759079D01*
X424259Y759077D01*
X424141Y759071D01*
X424023Y759061D01*
X423906Y759047D01*
X423789Y759029D01*
X423672Y759007D01*
X423557Y758982D01*
X423443Y758952D01*
X423329Y758918D01*
X423217Y758881D01*
X423106Y758840D01*
X422997Y758795D01*
X422889Y758747D01*
X422783Y758695D01*
X422678Y758639D01*
X422576Y758580D01*
X422476Y758518D01*
X422378Y758452D01*
X422282Y758383D01*
X422188Y758310D01*
X422097Y758235D01*
X422009Y758156D01*
X421923Y758075D01*
X421840Y757990D01*
X421760Y757903D01*
X421683Y757814D01*
X421609Y757721D01*
X421539Y757627D01*
X421471Y757530D01*
X421407Y757430D01*
X421346Y757329D01*
X421289Y757226D01*
X421235Y757120D01*
X421184Y757013D01*
X421138Y756905D01*
X421095Y756795D01*
X421056Y756683D01*
X421020Y756570D01*
X420989Y756456D01*
X420961Y756341D01*
X420937Y756226D01*
X420917Y756109D01*
X420901Y755992D01*
X420889Y755874D01*
X420881Y755756D01*
X420877Y755638D01*
X420877Y755520D01*
X420881Y755402D01*
X420889Y755284D01*
X420901Y755166D01*
X420917Y755049D01*
X420937Y754932D01*
X420961Y754817D01*
X420989Y754702D01*
X421020Y754588D01*
X421056Y754475D01*
X421095Y754363D01*
X421138Y754253D01*
X421184Y754145D01*
X421235Y754038D01*
X421289Y753932D01*
X421346Y753829D01*
X421407Y753728D01*
X421471Y753628D01*
X421539Y753531D01*
X421609Y753437D01*
X421683Y753344D01*
X421760Y753255D01*
X421840Y753168D01*
X421923Y753083D01*
X422009Y753002D01*
X422097Y752923D01*
X422188Y752848D01*
X422282Y752775D01*
X422378Y752706D01*
X422476Y752640D01*
X422576Y752578D01*
X422678Y752519D01*
X422783Y752463D01*
X422889Y752411D01*
X422997Y752363D01*
X423106Y752318D01*
X423217Y752277D01*
X423329Y752240D01*
X423443Y752206D01*
X423557Y752176D01*
X423672Y752151D01*
X423789Y752129D01*
X423906Y752111D01*
X424023Y752097D01*
X424141Y752087D01*
X424259Y752081D01*
X424377Y752079D01*
X414062Y750330D02*
X414062Y746831D01*
X414062Y750330D02*
X414060Y750448D01*
X414054Y750566D01*
X414044Y750684D01*
X414030Y750801D01*
X414012Y750918D01*
X413990Y751035D01*
X413965Y751150D01*
X413935Y751264D01*
X413901Y751378D01*
X413864Y751490D01*
X413823Y751601D01*
X413778Y751710D01*
X413730Y751818D01*
X413678Y751924D01*
X413622Y752029D01*
X413563Y752131D01*
X413501Y752231D01*
X413435Y752329D01*
X413366Y752425D01*
X413293Y752519D01*
X413218Y752610D01*
X413139Y752698D01*
X413058Y752784D01*
X412973Y752867D01*
X412886Y752947D01*
X412797Y753024D01*
X412704Y753098D01*
X412610Y753168D01*
X412513Y753236D01*
X412413Y753300D01*
X412312Y753361D01*
X412209Y753418D01*
X412103Y753472D01*
X411996Y753523D01*
X411888Y753569D01*
X411778Y753612D01*
X411666Y753651D01*
X411553Y753687D01*
X411439Y753718D01*
X411324Y753746D01*
X411209Y753770D01*
X411092Y753790D01*
X410975Y753806D01*
X410857Y753818D01*
X410739Y753826D01*
X410621Y753830D01*
X410503Y753830D01*
X410385Y753826D01*
X410267Y753818D01*
X410149Y753806D01*
X410032Y753790D01*
X409915Y753770D01*
X409800Y753746D01*
X409685Y753718D01*
X409571Y753687D01*
X409458Y753651D01*
X409346Y753612D01*
X409236Y753569D01*
X409128Y753523D01*
X409021Y753472D01*
X408915Y753418D01*
X408812Y753361D01*
X408711Y753300D01*
X408611Y753236D01*
X408514Y753168D01*
X408420Y753098D01*
X408327Y753024D01*
X408238Y752947D01*
X408151Y752867D01*
X408066Y752784D01*
X407985Y752698D01*
X407906Y752610D01*
X407831Y752519D01*
X407758Y752425D01*
X407689Y752329D01*
X407623Y752231D01*
X407561Y752131D01*
X407502Y752029D01*
X407446Y751924D01*
X407394Y751818D01*
X407346Y751710D01*
X407301Y751601D01*
X407260Y751490D01*
X407223Y751378D01*
X407189Y751264D01*
X407159Y751150D01*
X407134Y751035D01*
X407112Y750918D01*
X407094Y750801D01*
X407080Y750684D01*
X407070Y750566D01*
X407064Y750448D01*
X407062Y750330D01*
X407063Y750330D02*
X407063Y746831D01*
X407062Y746831D02*
X407064Y746713D01*
X407070Y746595D01*
X407080Y746477D01*
X407094Y746360D01*
X407112Y746243D01*
X407134Y746126D01*
X407159Y746011D01*
X407189Y745897D01*
X407223Y745783D01*
X407260Y745671D01*
X407301Y745560D01*
X407346Y745451D01*
X407394Y745343D01*
X407446Y745237D01*
X407502Y745132D01*
X407561Y745030D01*
X407623Y744930D01*
X407689Y744832D01*
X407758Y744736D01*
X407831Y744642D01*
X407906Y744551D01*
X407985Y744463D01*
X408066Y744377D01*
X408151Y744294D01*
X408238Y744214D01*
X408327Y744137D01*
X408420Y744063D01*
X408514Y743993D01*
X408611Y743925D01*
X408711Y743861D01*
X408812Y743800D01*
X408915Y743743D01*
X409021Y743689D01*
X409128Y743638D01*
X409236Y743592D01*
X409346Y743549D01*
X409458Y743510D01*
X409571Y743474D01*
X409685Y743443D01*
X409800Y743415D01*
X409915Y743391D01*
X410032Y743371D01*
X410149Y743355D01*
X410267Y743343D01*
X410385Y743335D01*
X410503Y743331D01*
X410621Y743331D01*
X410739Y743335D01*
X410857Y743343D01*
X410975Y743355D01*
X411092Y743371D01*
X411209Y743391D01*
X411324Y743415D01*
X411439Y743443D01*
X411553Y743474D01*
X411666Y743510D01*
X411778Y743549D01*
X411888Y743592D01*
X411996Y743638D01*
X412103Y743689D01*
X412209Y743743D01*
X412312Y743800D01*
X412413Y743861D01*
X412513Y743925D01*
X412610Y743993D01*
X412704Y744063D01*
X412797Y744137D01*
X412886Y744214D01*
X412973Y744294D01*
X413058Y744377D01*
X413139Y744463D01*
X413218Y744551D01*
X413293Y744642D01*
X413366Y744736D01*
X413435Y744832D01*
X413501Y744930D01*
X413563Y745030D01*
X413622Y745132D01*
X413678Y745237D01*
X413730Y745343D01*
X413778Y745451D01*
X413823Y745560D01*
X413864Y745671D01*
X413901Y745783D01*
X413935Y745897D01*
X413965Y746011D01*
X413990Y746126D01*
X414012Y746243D01*
X414030Y746360D01*
X414044Y746477D01*
X414054Y746595D01*
X414060Y746713D01*
X414062Y746831D01*
X397541Y749455D02*
X393604Y749455D01*
X397541Y749455D02*
X397650Y749453D01*
X397759Y749447D01*
X397868Y749437D01*
X397977Y749424D01*
X398085Y749406D01*
X398192Y749385D01*
X398298Y749360D01*
X398404Y749331D01*
X398508Y749298D01*
X398611Y749262D01*
X398713Y749222D01*
X398813Y749178D01*
X398912Y749131D01*
X399008Y749080D01*
X399103Y749026D01*
X399196Y748969D01*
X399287Y748908D01*
X399376Y748844D01*
X399462Y748777D01*
X399546Y748707D01*
X399628Y748634D01*
X399706Y748558D01*
X399782Y748480D01*
X399855Y748398D01*
X399925Y748314D01*
X399992Y748228D01*
X400056Y748139D01*
X400117Y748048D01*
X400174Y747955D01*
X400228Y747860D01*
X400279Y747764D01*
X400326Y747665D01*
X400370Y747565D01*
X400410Y747463D01*
X400446Y747360D01*
X400479Y747256D01*
X400508Y747150D01*
X400533Y747044D01*
X400554Y746937D01*
X400572Y746829D01*
X400585Y746720D01*
X400595Y746611D01*
X400601Y746502D01*
X400603Y746393D01*
X400601Y746284D01*
X400595Y746175D01*
X400585Y746066D01*
X400572Y745957D01*
X400554Y745849D01*
X400533Y745742D01*
X400508Y745636D01*
X400479Y745530D01*
X400446Y745426D01*
X400410Y745323D01*
X400370Y745221D01*
X400326Y745121D01*
X400279Y745022D01*
X400228Y744926D01*
X400174Y744831D01*
X400117Y744738D01*
X400056Y744647D01*
X399992Y744558D01*
X399925Y744472D01*
X399855Y744388D01*
X399782Y744306D01*
X399706Y744228D01*
X399628Y744152D01*
X399546Y744079D01*
X399462Y744009D01*
X399376Y743942D01*
X399287Y743878D01*
X399196Y743817D01*
X399103Y743760D01*
X399008Y743706D01*
X398912Y743655D01*
X398813Y743608D01*
X398713Y743564D01*
X398611Y743524D01*
X398508Y743488D01*
X398404Y743455D01*
X398298Y743426D01*
X398192Y743401D01*
X398085Y743380D01*
X397977Y743362D01*
X397868Y743349D01*
X397759Y743339D01*
X397650Y743333D01*
X397541Y743331D01*
X393604Y743331D01*
X393604Y751205D01*
X393603Y751205D02*
X393605Y751306D01*
X393611Y751406D01*
X393620Y751506D01*
X393634Y751606D01*
X393651Y751705D01*
X393672Y751803D01*
X393697Y751901D01*
X393725Y751997D01*
X393758Y752092D01*
X393793Y752186D01*
X393833Y752279D01*
X393876Y752370D01*
X393922Y752459D01*
X393972Y752546D01*
X394025Y752632D01*
X394081Y752715D01*
X394140Y752796D01*
X394203Y752875D01*
X394268Y752951D01*
X394337Y753025D01*
X394408Y753096D01*
X394482Y753165D01*
X394558Y753230D01*
X394637Y753293D01*
X394718Y753352D01*
X394801Y753408D01*
X394887Y753461D01*
X394974Y753511D01*
X395063Y753557D01*
X395154Y753600D01*
X395247Y753640D01*
X395341Y753676D01*
X395436Y753708D01*
X395532Y753736D01*
X395630Y753761D01*
X395728Y753782D01*
X395827Y753799D01*
X395927Y753813D01*
X396027Y753822D01*
X396127Y753828D01*
X396228Y753830D01*
X399728Y753830D01*
X385823Y753830D02*
X385823Y743331D01*
X385823Y753830D02*
X380574Y753830D01*
X380574Y752080D01*
X368594Y759079D02*
X368594Y743331D01*
X372968Y743331D01*
X373069Y743333D01*
X373169Y743339D01*
X373269Y743348D01*
X373369Y743362D01*
X373468Y743379D01*
X373566Y743400D01*
X373664Y743425D01*
X373760Y743453D01*
X373855Y743486D01*
X373949Y743521D01*
X374042Y743561D01*
X374133Y743604D01*
X374222Y743650D01*
X374309Y743700D01*
X374395Y743753D01*
X374478Y743809D01*
X374559Y743868D01*
X374638Y743931D01*
X374714Y743996D01*
X374788Y744065D01*
X374859Y744136D01*
X374928Y744210D01*
X374993Y744286D01*
X375056Y744365D01*
X375115Y744446D01*
X375171Y744529D01*
X375224Y744615D01*
X375274Y744702D01*
X375320Y744791D01*
X375363Y744882D01*
X375403Y744975D01*
X375439Y745069D01*
X375471Y745164D01*
X375499Y745260D01*
X375524Y745358D01*
X375545Y745456D01*
X375562Y745555D01*
X375576Y745655D01*
X375585Y745755D01*
X375591Y745855D01*
X375593Y745956D01*
X375593Y751205D01*
X375591Y751306D01*
X375585Y751406D01*
X375576Y751506D01*
X375562Y751606D01*
X375545Y751705D01*
X375524Y751803D01*
X375499Y751901D01*
X375471Y751997D01*
X375438Y752092D01*
X375403Y752186D01*
X375363Y752279D01*
X375320Y752370D01*
X375274Y752459D01*
X375224Y752546D01*
X375171Y752632D01*
X375115Y752715D01*
X375056Y752796D01*
X374993Y752875D01*
X374928Y752951D01*
X374859Y753025D01*
X374788Y753096D01*
X374714Y753165D01*
X374638Y753230D01*
X374559Y753293D01*
X374478Y753352D01*
X374395Y753408D01*
X374309Y753461D01*
X374222Y753511D01*
X374133Y753557D01*
X374042Y753600D01*
X373949Y753640D01*
X373855Y753675D01*
X373760Y753708D01*
X373664Y753736D01*
X373566Y753761D01*
X373468Y753782D01*
X373369Y753799D01*
X373269Y753813D01*
X373169Y753822D01*
X373069Y753828D01*
X372968Y753830D01*
X368594Y753830D01*
X586359Y732409D02*
X586359Y716661D01*
X581985Y716661D01*
X581884Y716663D01*
X581784Y716669D01*
X581684Y716678D01*
X581584Y716692D01*
X581485Y716709D01*
X581387Y716730D01*
X581289Y716755D01*
X581193Y716783D01*
X581098Y716816D01*
X581004Y716851D01*
X580911Y716891D01*
X580820Y716934D01*
X580731Y716980D01*
X580644Y717030D01*
X580558Y717083D01*
X580475Y717139D01*
X580394Y717198D01*
X580315Y717261D01*
X580239Y717326D01*
X580165Y717395D01*
X580094Y717466D01*
X580025Y717540D01*
X579960Y717616D01*
X579897Y717695D01*
X579838Y717776D01*
X579782Y717859D01*
X579729Y717945D01*
X579679Y718032D01*
X579633Y718121D01*
X579590Y718212D01*
X579550Y718305D01*
X579515Y718399D01*
X579482Y718494D01*
X579454Y718590D01*
X579429Y718688D01*
X579408Y718786D01*
X579391Y718885D01*
X579377Y718985D01*
X579368Y719085D01*
X579362Y719185D01*
X579360Y719286D01*
X579360Y724535D01*
X579362Y724636D01*
X579368Y724736D01*
X579377Y724836D01*
X579391Y724936D01*
X579408Y725035D01*
X579429Y725133D01*
X579454Y725231D01*
X579482Y725327D01*
X579515Y725422D01*
X579550Y725516D01*
X579590Y725609D01*
X579633Y725700D01*
X579679Y725789D01*
X579729Y725876D01*
X579782Y725962D01*
X579838Y726045D01*
X579897Y726126D01*
X579960Y726205D01*
X580025Y726281D01*
X580094Y726355D01*
X580165Y726426D01*
X580239Y726495D01*
X580315Y726560D01*
X580394Y726623D01*
X580475Y726682D01*
X580558Y726738D01*
X580644Y726791D01*
X580731Y726841D01*
X580820Y726887D01*
X580911Y726930D01*
X581004Y726970D01*
X581098Y727006D01*
X581193Y727038D01*
X581289Y727066D01*
X581387Y727091D01*
X581485Y727112D01*
X581584Y727129D01*
X581684Y727143D01*
X581784Y727152D01*
X581884Y727158D01*
X581985Y727160D01*
X586359Y727160D01*
X573421Y711412D02*
X571671Y711412D01*
X566422Y727160D01*
X573421Y727160D02*
X569922Y716661D01*
X547163Y716661D02*
X547046Y716663D01*
X546929Y716669D01*
X546813Y716679D01*
X546696Y716692D01*
X546581Y716710D01*
X546466Y716731D01*
X546352Y716756D01*
X546238Y716785D01*
X546126Y716818D01*
X546015Y716855D01*
X545905Y716895D01*
X545797Y716939D01*
X545690Y716986D01*
X545584Y717037D01*
X545481Y717092D01*
X545379Y717150D01*
X545280Y717211D01*
X545182Y717275D01*
X545087Y717343D01*
X544994Y717414D01*
X544903Y717488D01*
X544815Y717565D01*
X544730Y717645D01*
X544647Y717728D01*
X544567Y717813D01*
X544490Y717901D01*
X544416Y717992D01*
X544345Y718085D01*
X544277Y718180D01*
X544213Y718278D01*
X544152Y718377D01*
X544094Y718479D01*
X544039Y718582D01*
X543988Y718688D01*
X543941Y718795D01*
X543897Y718903D01*
X543857Y719013D01*
X543820Y719124D01*
X543787Y719236D01*
X543758Y719350D01*
X543733Y719464D01*
X543712Y719579D01*
X543694Y719694D01*
X543681Y719811D01*
X543671Y719927D01*
X543665Y720044D01*
X543663Y720161D01*
X547163Y716661D02*
X547340Y716663D01*
X547517Y716669D01*
X547693Y716680D01*
X547869Y716695D01*
X548045Y716714D01*
X548221Y716737D01*
X548395Y716764D01*
X548570Y716796D01*
X548743Y716832D01*
X548915Y716872D01*
X549086Y716916D01*
X549257Y716964D01*
X549426Y717016D01*
X549593Y717072D01*
X549760Y717132D01*
X549925Y717196D01*
X550088Y717264D01*
X550250Y717336D01*
X550409Y717412D01*
X550567Y717491D01*
X550723Y717575D01*
X550877Y717662D01*
X551029Y717753D01*
X551179Y717847D01*
X551326Y717945D01*
X551471Y718046D01*
X551614Y718151D01*
X551754Y718259D01*
X551891Y718370D01*
X552026Y718485D01*
X552157Y718603D01*
X552286Y718724D01*
X552412Y718848D01*
X551975Y728909D02*
X551973Y729026D01*
X551967Y729143D01*
X551957Y729259D01*
X551944Y729376D01*
X551926Y729491D01*
X551905Y729606D01*
X551880Y729720D01*
X551851Y729834D01*
X551818Y729946D01*
X551781Y730057D01*
X551741Y730167D01*
X551697Y730275D01*
X551650Y730382D01*
X551599Y730488D01*
X551544Y730591D01*
X551486Y730693D01*
X551425Y730792D01*
X551361Y730890D01*
X551293Y730985D01*
X551222Y731078D01*
X551148Y731169D01*
X551071Y731257D01*
X550991Y731342D01*
X550908Y731425D01*
X550823Y731505D01*
X550735Y731582D01*
X550644Y731656D01*
X550551Y731727D01*
X550456Y731795D01*
X550358Y731859D01*
X550259Y731920D01*
X550157Y731978D01*
X550054Y732033D01*
X549948Y732084D01*
X549841Y732131D01*
X549733Y732175D01*
X549623Y732215D01*
X549512Y732252D01*
X549400Y732285D01*
X549286Y732314D01*
X549172Y732339D01*
X549057Y732360D01*
X548942Y732378D01*
X548825Y732391D01*
X548709Y732401D01*
X548592Y732407D01*
X548475Y732409D01*
X548319Y732407D01*
X548162Y732402D01*
X548006Y732392D01*
X547850Y732379D01*
X547695Y732362D01*
X547540Y732342D01*
X547385Y732318D01*
X547231Y732290D01*
X547078Y732259D01*
X546926Y732224D01*
X546774Y732185D01*
X546624Y732142D01*
X546474Y732097D01*
X546326Y732047D01*
X546179Y731994D01*
X546033Y731938D01*
X545888Y731878D01*
X545745Y731814D01*
X545604Y731748D01*
X545464Y731678D01*
X545326Y731604D01*
X545190Y731527D01*
X545055Y731448D01*
X544923Y731364D01*
X544792Y731278D01*
X544664Y731189D01*
X544538Y731097D01*
X550225Y725847D02*
X550324Y725907D01*
X550420Y725971D01*
X550514Y726037D01*
X550606Y726106D01*
X550696Y726179D01*
X550784Y726254D01*
X550868Y726332D01*
X550951Y726413D01*
X551030Y726496D01*
X551107Y726582D01*
X551181Y726670D01*
X551253Y726761D01*
X551321Y726854D01*
X551386Y726949D01*
X551448Y727047D01*
X551507Y727146D01*
X551562Y727247D01*
X551615Y727350D01*
X551664Y727454D01*
X551709Y727560D01*
X551751Y727667D01*
X551790Y727776D01*
X551825Y727886D01*
X551856Y727997D01*
X551884Y728109D01*
X551908Y728221D01*
X551928Y728335D01*
X551945Y728449D01*
X551958Y728564D01*
X551968Y728679D01*
X551973Y728794D01*
X551975Y728909D01*
X545414Y723223D02*
X545315Y723163D01*
X545219Y723099D01*
X545125Y723033D01*
X545033Y722964D01*
X544943Y722891D01*
X544855Y722816D01*
X544771Y722738D01*
X544688Y722657D01*
X544609Y722574D01*
X544532Y722488D01*
X544458Y722400D01*
X544386Y722309D01*
X544318Y722216D01*
X544253Y722121D01*
X544191Y722023D01*
X544132Y721924D01*
X544077Y721823D01*
X544024Y721720D01*
X543976Y721616D01*
X543930Y721510D01*
X543888Y721403D01*
X543849Y721294D01*
X543814Y721184D01*
X543783Y721073D01*
X543755Y720961D01*
X543731Y720849D01*
X543711Y720735D01*
X543694Y720621D01*
X543681Y720506D01*
X543671Y720391D01*
X543666Y720276D01*
X543664Y720161D01*
X545413Y723223D02*
X550225Y725847D01*
X538055Y717536D02*
X538055Y716661D01*
X538055Y717536D02*
X537180Y717536D01*
X537180Y716661D01*
X538055Y716661D01*
X522192Y716661D02*
X522192Y732409D01*
X517818Y732409D01*
X517688Y732407D01*
X517559Y732401D01*
X517430Y732392D01*
X517301Y732378D01*
X517172Y732361D01*
X517044Y732340D01*
X516917Y732315D01*
X516791Y732287D01*
X516665Y732254D01*
X516541Y732218D01*
X516417Y732179D01*
X516295Y732135D01*
X516174Y732088D01*
X516055Y732038D01*
X515937Y731984D01*
X515821Y731926D01*
X515706Y731865D01*
X515594Y731801D01*
X515483Y731734D01*
X515374Y731663D01*
X515268Y731589D01*
X515164Y731512D01*
X515062Y731432D01*
X514963Y731348D01*
X514866Y731262D01*
X514771Y731173D01*
X514680Y731082D01*
X514591Y730987D01*
X514505Y730890D01*
X514421Y730791D01*
X514341Y730689D01*
X514264Y730585D01*
X514190Y730479D01*
X514119Y730370D01*
X514052Y730259D01*
X513988Y730147D01*
X513927Y730032D01*
X513869Y729916D01*
X513815Y729798D01*
X513765Y729679D01*
X513718Y729558D01*
X513674Y729436D01*
X513635Y729312D01*
X513599Y729188D01*
X513566Y729062D01*
X513538Y728936D01*
X513513Y728809D01*
X513492Y728681D01*
X513475Y728552D01*
X513461Y728423D01*
X513452Y728294D01*
X513446Y728165D01*
X513444Y728035D01*
X513443Y728035D02*
X513443Y721035D01*
X513444Y721035D02*
X513446Y720905D01*
X513452Y720776D01*
X513461Y720647D01*
X513475Y720518D01*
X513492Y720389D01*
X513513Y720261D01*
X513538Y720134D01*
X513566Y720008D01*
X513599Y719882D01*
X513635Y719758D01*
X513674Y719634D01*
X513718Y719512D01*
X513765Y719391D01*
X513815Y719272D01*
X513869Y719154D01*
X513927Y719038D01*
X513988Y718923D01*
X514052Y718811D01*
X514119Y718700D01*
X514190Y718591D01*
X514264Y718485D01*
X514341Y718381D01*
X514421Y718279D01*
X514505Y718180D01*
X514591Y718083D01*
X514680Y717988D01*
X514771Y717897D01*
X514866Y717808D01*
X514963Y717722D01*
X515062Y717638D01*
X515164Y717558D01*
X515268Y717481D01*
X515374Y717407D01*
X515483Y717336D01*
X515594Y717269D01*
X515706Y717205D01*
X515821Y717144D01*
X515937Y717086D01*
X516055Y717032D01*
X516174Y716982D01*
X516295Y716935D01*
X516417Y716891D01*
X516541Y716852D01*
X516665Y716816D01*
X516791Y716783D01*
X516917Y716755D01*
X517044Y716730D01*
X517172Y716709D01*
X517301Y716692D01*
X517430Y716678D01*
X517559Y716669D01*
X517688Y716663D01*
X517818Y716661D01*
X522192Y716661D01*
X506207Y720161D02*
X506207Y723660D01*
X506205Y723778D01*
X506199Y723896D01*
X506189Y724014D01*
X506175Y724131D01*
X506157Y724248D01*
X506135Y724365D01*
X506110Y724480D01*
X506080Y724594D01*
X506046Y724708D01*
X506009Y724820D01*
X505968Y724931D01*
X505923Y725040D01*
X505875Y725148D01*
X505823Y725254D01*
X505767Y725359D01*
X505708Y725461D01*
X505646Y725561D01*
X505580Y725659D01*
X505511Y725755D01*
X505438Y725849D01*
X505363Y725940D01*
X505284Y726028D01*
X505203Y726114D01*
X505118Y726197D01*
X505031Y726277D01*
X504942Y726354D01*
X504849Y726428D01*
X504755Y726498D01*
X504658Y726566D01*
X504558Y726630D01*
X504457Y726691D01*
X504354Y726748D01*
X504248Y726802D01*
X504141Y726853D01*
X504033Y726899D01*
X503923Y726942D01*
X503811Y726981D01*
X503698Y727017D01*
X503584Y727048D01*
X503469Y727076D01*
X503354Y727100D01*
X503237Y727120D01*
X503120Y727136D01*
X503002Y727148D01*
X502884Y727156D01*
X502766Y727160D01*
X502648Y727160D01*
X502530Y727156D01*
X502412Y727148D01*
X502294Y727136D01*
X502177Y727120D01*
X502060Y727100D01*
X501945Y727076D01*
X501830Y727048D01*
X501716Y727017D01*
X501603Y726981D01*
X501491Y726942D01*
X501381Y726899D01*
X501273Y726853D01*
X501166Y726802D01*
X501060Y726748D01*
X500957Y726691D01*
X500856Y726630D01*
X500756Y726566D01*
X500659Y726498D01*
X500565Y726428D01*
X500472Y726354D01*
X500383Y726277D01*
X500296Y726197D01*
X500211Y726114D01*
X500130Y726028D01*
X500051Y725940D01*
X499976Y725849D01*
X499903Y725755D01*
X499834Y725659D01*
X499768Y725561D01*
X499706Y725461D01*
X499647Y725359D01*
X499591Y725254D01*
X499539Y725148D01*
X499491Y725040D01*
X499446Y724931D01*
X499405Y724820D01*
X499368Y724708D01*
X499334Y724594D01*
X499304Y724480D01*
X499279Y724365D01*
X499257Y724248D01*
X499239Y724131D01*
X499225Y724014D01*
X499215Y723896D01*
X499209Y723778D01*
X499207Y723660D01*
X499208Y723660D02*
X499208Y720161D01*
X499207Y720161D02*
X499209Y720043D01*
X499215Y719925D01*
X499225Y719807D01*
X499239Y719690D01*
X499257Y719573D01*
X499279Y719456D01*
X499304Y719341D01*
X499334Y719227D01*
X499368Y719113D01*
X499405Y719001D01*
X499446Y718890D01*
X499491Y718781D01*
X499539Y718673D01*
X499591Y718567D01*
X499647Y718462D01*
X499706Y718360D01*
X499768Y718260D01*
X499834Y718162D01*
X499903Y718066D01*
X499976Y717972D01*
X500051Y717881D01*
X500130Y717793D01*
X500211Y717707D01*
X500296Y717624D01*
X500383Y717544D01*
X500472Y717467D01*
X500565Y717393D01*
X500659Y717323D01*
X500756Y717255D01*
X500856Y717191D01*
X500957Y717130D01*
X501060Y717073D01*
X501166Y717019D01*
X501273Y716968D01*
X501381Y716922D01*
X501491Y716879D01*
X501603Y716840D01*
X501716Y716804D01*
X501830Y716773D01*
X501945Y716745D01*
X502060Y716721D01*
X502177Y716701D01*
X502294Y716685D01*
X502412Y716673D01*
X502530Y716665D01*
X502648Y716661D01*
X502766Y716661D01*
X502884Y716665D01*
X503002Y716673D01*
X503120Y716685D01*
X503237Y716701D01*
X503354Y716721D01*
X503469Y716745D01*
X503584Y716773D01*
X503698Y716804D01*
X503811Y716840D01*
X503923Y716879D01*
X504033Y716922D01*
X504141Y716968D01*
X504248Y717019D01*
X504354Y717073D01*
X504457Y717130D01*
X504558Y717191D01*
X504658Y717255D01*
X504755Y717323D01*
X504849Y717393D01*
X504942Y717467D01*
X505031Y717544D01*
X505118Y717624D01*
X505203Y717707D01*
X505284Y717793D01*
X505363Y717881D01*
X505438Y717972D01*
X505511Y718066D01*
X505580Y718162D01*
X505646Y718260D01*
X505708Y718360D01*
X505767Y718462D01*
X505823Y718567D01*
X505875Y718673D01*
X505923Y718781D01*
X505968Y718890D01*
X506009Y719001D01*
X506046Y719113D01*
X506080Y719227D01*
X506110Y719341D01*
X506135Y719456D01*
X506157Y719573D01*
X506175Y719690D01*
X506189Y719807D01*
X506199Y719925D01*
X506205Y720043D01*
X506207Y720161D01*
X492037Y716661D02*
X492037Y727160D01*
X486787Y727160D01*
X486787Y725410D01*
X481095Y727160D02*
X481095Y716661D01*
X481095Y727160D02*
X475846Y727160D01*
X475846Y725410D01*
X468152Y716661D02*
X463777Y716661D01*
X468152Y716661D02*
X468253Y716663D01*
X468353Y716669D01*
X468453Y716678D01*
X468553Y716692D01*
X468652Y716709D01*
X468750Y716730D01*
X468848Y716755D01*
X468944Y716783D01*
X469039Y716816D01*
X469133Y716851D01*
X469226Y716891D01*
X469317Y716934D01*
X469406Y716980D01*
X469493Y717030D01*
X469579Y717083D01*
X469662Y717139D01*
X469743Y717198D01*
X469822Y717261D01*
X469898Y717326D01*
X469972Y717395D01*
X470043Y717466D01*
X470112Y717540D01*
X470177Y717616D01*
X470240Y717695D01*
X470299Y717776D01*
X470355Y717859D01*
X470408Y717945D01*
X470458Y718032D01*
X470504Y718121D01*
X470547Y718212D01*
X470587Y718305D01*
X470623Y718399D01*
X470655Y718494D01*
X470683Y718590D01*
X470708Y718688D01*
X470729Y718786D01*
X470746Y718885D01*
X470760Y718985D01*
X470769Y719085D01*
X470775Y719185D01*
X470777Y719286D01*
X470776Y719286D02*
X470776Y723660D01*
X470777Y723660D02*
X470775Y723778D01*
X470769Y723896D01*
X470759Y724014D01*
X470745Y724131D01*
X470727Y724248D01*
X470705Y724365D01*
X470680Y724480D01*
X470650Y724594D01*
X470616Y724708D01*
X470579Y724820D01*
X470538Y724931D01*
X470493Y725040D01*
X470445Y725148D01*
X470393Y725254D01*
X470337Y725359D01*
X470278Y725461D01*
X470216Y725561D01*
X470150Y725659D01*
X470081Y725755D01*
X470008Y725849D01*
X469933Y725940D01*
X469854Y726028D01*
X469773Y726114D01*
X469688Y726197D01*
X469601Y726277D01*
X469512Y726354D01*
X469419Y726428D01*
X469325Y726498D01*
X469228Y726566D01*
X469128Y726630D01*
X469027Y726691D01*
X468924Y726748D01*
X468818Y726802D01*
X468711Y726853D01*
X468603Y726899D01*
X468493Y726942D01*
X468381Y726981D01*
X468268Y727017D01*
X468154Y727048D01*
X468039Y727076D01*
X467924Y727100D01*
X467807Y727120D01*
X467690Y727136D01*
X467572Y727148D01*
X467454Y727156D01*
X467336Y727160D01*
X467218Y727160D01*
X467100Y727156D01*
X466982Y727148D01*
X466864Y727136D01*
X466747Y727120D01*
X466630Y727100D01*
X466515Y727076D01*
X466400Y727048D01*
X466286Y727017D01*
X466173Y726981D01*
X466061Y726942D01*
X465951Y726899D01*
X465843Y726853D01*
X465736Y726802D01*
X465630Y726748D01*
X465527Y726691D01*
X465426Y726630D01*
X465326Y726566D01*
X465229Y726498D01*
X465135Y726428D01*
X465042Y726354D01*
X464953Y726277D01*
X464866Y726197D01*
X464781Y726114D01*
X464700Y726028D01*
X464621Y725940D01*
X464546Y725849D01*
X464473Y725755D01*
X464404Y725659D01*
X464338Y725561D01*
X464276Y725461D01*
X464217Y725359D01*
X464161Y725254D01*
X464109Y725148D01*
X464061Y725040D01*
X464016Y724931D01*
X463975Y724820D01*
X463938Y724708D01*
X463904Y724594D01*
X463874Y724480D01*
X463849Y724365D01*
X463827Y724248D01*
X463809Y724131D01*
X463795Y724014D01*
X463785Y723896D01*
X463779Y723778D01*
X463777Y723660D01*
X463777Y721910D01*
X470776Y721910D01*
X456606Y716661D02*
X456606Y727160D01*
X451357Y727160D01*
X451357Y725410D01*
X434180Y720161D02*
X434180Y732409D01*
X434179Y720161D02*
X434181Y720044D01*
X434187Y719927D01*
X434197Y719811D01*
X434210Y719694D01*
X434228Y719579D01*
X434249Y719464D01*
X434274Y719350D01*
X434303Y719236D01*
X434336Y719124D01*
X434373Y719013D01*
X434413Y718903D01*
X434457Y718795D01*
X434504Y718688D01*
X434555Y718582D01*
X434610Y718479D01*
X434668Y718377D01*
X434729Y718278D01*
X434793Y718180D01*
X434861Y718085D01*
X434932Y717992D01*
X435006Y717901D01*
X435083Y717813D01*
X435163Y717728D01*
X435246Y717645D01*
X435331Y717565D01*
X435419Y717488D01*
X435510Y717414D01*
X435603Y717343D01*
X435698Y717275D01*
X435796Y717211D01*
X435895Y717150D01*
X435997Y717092D01*
X436100Y717037D01*
X436206Y716986D01*
X436313Y716939D01*
X436421Y716895D01*
X436531Y716855D01*
X436642Y716818D01*
X436754Y716785D01*
X436868Y716756D01*
X436982Y716731D01*
X437097Y716710D01*
X437212Y716692D01*
X437329Y716679D01*
X437445Y716669D01*
X437562Y716663D01*
X437679Y716661D01*
X439429Y716661D01*
X426067Y716661D02*
X426067Y732409D01*
X417318Y732409D02*
X426067Y722785D01*
X422567Y726285D02*
X417318Y716661D01*
X410689Y721035D02*
X410689Y732409D01*
X410689Y721035D02*
X410687Y720904D01*
X410681Y720773D01*
X410671Y720643D01*
X410658Y720513D01*
X410640Y720383D01*
X410619Y720254D01*
X410593Y720126D01*
X410564Y719998D01*
X410531Y719871D01*
X410495Y719746D01*
X410454Y719621D01*
X410410Y719498D01*
X410362Y719376D01*
X410311Y719256D01*
X410256Y719137D01*
X410197Y719020D01*
X410135Y718905D01*
X410070Y718792D01*
X410001Y718680D01*
X409929Y718571D01*
X409854Y718464D01*
X409775Y718359D01*
X409694Y718257D01*
X409609Y718157D01*
X409521Y718060D01*
X409431Y717965D01*
X409338Y717873D01*
X409242Y717784D01*
X409143Y717698D01*
X409042Y717615D01*
X408939Y717535D01*
X408833Y717458D01*
X408725Y717385D01*
X408614Y717314D01*
X408502Y717247D01*
X408388Y717183D01*
X408272Y717123D01*
X408154Y717066D01*
X408034Y717013D01*
X407913Y716963D01*
X407790Y716917D01*
X407667Y716875D01*
X407542Y716837D01*
X407415Y716802D01*
X407288Y716771D01*
X407160Y716743D01*
X407032Y716720D01*
X406902Y716701D01*
X406772Y716685D01*
X406642Y716673D01*
X406511Y716665D01*
X406380Y716661D01*
X406250Y716661D01*
X406119Y716665D01*
X405988Y716673D01*
X405858Y716685D01*
X405728Y716701D01*
X405598Y716720D01*
X405470Y716743D01*
X405342Y716771D01*
X405215Y716802D01*
X405088Y716837D01*
X404963Y716875D01*
X404840Y716917D01*
X404717Y716963D01*
X404596Y717013D01*
X404476Y717066D01*
X404358Y717123D01*
X404242Y717183D01*
X404128Y717247D01*
X404016Y717314D01*
X403905Y717385D01*
X403797Y717458D01*
X403691Y717535D01*
X403588Y717615D01*
X403487Y717698D01*
X403388Y717784D01*
X403292Y717873D01*
X403199Y717965D01*
X403109Y718060D01*
X403021Y718157D01*
X402936Y718257D01*
X402855Y718359D01*
X402776Y718464D01*
X402701Y718571D01*
X402629Y718680D01*
X402560Y718792D01*
X402495Y718905D01*
X402433Y719020D01*
X402374Y719137D01*
X402319Y719256D01*
X402268Y719376D01*
X402220Y719498D01*
X402176Y719621D01*
X402135Y719746D01*
X402099Y719871D01*
X402066Y719998D01*
X402037Y720126D01*
X402011Y720254D01*
X401990Y720383D01*
X401972Y720513D01*
X401959Y720643D01*
X401949Y720773D01*
X401943Y720904D01*
X401941Y721035D01*
X401940Y721035D02*
X401940Y732409D01*
X395354Y716661D02*
X394479Y716661D01*
X395354Y716661D02*
X395354Y717536D01*
X394479Y717536D01*
X394479Y716661D01*
X395791Y713161D01*
X378700Y716661D02*
X378700Y732409D01*
X380449Y716661D02*
X376950Y716661D01*
X376950Y732409D02*
X380449Y732409D01*
X365841Y716661D02*
X365724Y716663D01*
X365607Y716669D01*
X365491Y716679D01*
X365374Y716692D01*
X365259Y716710D01*
X365144Y716731D01*
X365030Y716756D01*
X364916Y716785D01*
X364804Y716818D01*
X364693Y716855D01*
X364583Y716895D01*
X364475Y716939D01*
X364368Y716986D01*
X364262Y717037D01*
X364159Y717092D01*
X364057Y717150D01*
X363958Y717211D01*
X363860Y717275D01*
X363765Y717343D01*
X363672Y717414D01*
X363581Y717488D01*
X363493Y717565D01*
X363408Y717645D01*
X363325Y717728D01*
X363245Y717813D01*
X363168Y717901D01*
X363094Y717992D01*
X363023Y718085D01*
X362955Y718180D01*
X362891Y718278D01*
X362830Y718377D01*
X362772Y718479D01*
X362717Y718582D01*
X362666Y718688D01*
X362619Y718795D01*
X362575Y718903D01*
X362535Y719013D01*
X362498Y719124D01*
X362465Y719236D01*
X362436Y719350D01*
X362411Y719464D01*
X362390Y719579D01*
X362372Y719694D01*
X362359Y719811D01*
X362349Y719927D01*
X362343Y720044D01*
X362341Y720161D01*
X365841Y716661D02*
X366018Y716663D01*
X366195Y716669D01*
X366371Y716680D01*
X366547Y716695D01*
X366723Y716714D01*
X366899Y716737D01*
X367073Y716764D01*
X367248Y716796D01*
X367421Y716832D01*
X367593Y716872D01*
X367764Y716916D01*
X367935Y716964D01*
X368104Y717016D01*
X368271Y717072D01*
X368438Y717132D01*
X368603Y717196D01*
X368766Y717264D01*
X368928Y717336D01*
X369087Y717412D01*
X369245Y717491D01*
X369401Y717575D01*
X369555Y717662D01*
X369707Y717753D01*
X369857Y717847D01*
X370004Y717945D01*
X370149Y718046D01*
X370292Y718151D01*
X370432Y718259D01*
X370569Y718370D01*
X370704Y718485D01*
X370835Y718603D01*
X370964Y718724D01*
X371090Y718848D01*
X370653Y728909D02*
X370651Y729026D01*
X370645Y729143D01*
X370635Y729259D01*
X370622Y729376D01*
X370604Y729491D01*
X370583Y729606D01*
X370558Y729720D01*
X370529Y729834D01*
X370496Y729946D01*
X370459Y730057D01*
X370419Y730167D01*
X370375Y730275D01*
X370328Y730382D01*
X370277Y730488D01*
X370222Y730591D01*
X370164Y730693D01*
X370103Y730792D01*
X370039Y730890D01*
X369971Y730985D01*
X369900Y731078D01*
X369826Y731169D01*
X369749Y731257D01*
X369669Y731342D01*
X369586Y731425D01*
X369501Y731505D01*
X369413Y731582D01*
X369322Y731656D01*
X369229Y731727D01*
X369134Y731795D01*
X369036Y731859D01*
X368937Y731920D01*
X368835Y731978D01*
X368732Y732033D01*
X368626Y732084D01*
X368519Y732131D01*
X368411Y732175D01*
X368301Y732215D01*
X368190Y732252D01*
X368078Y732285D01*
X367964Y732314D01*
X367850Y732339D01*
X367735Y732360D01*
X367620Y732378D01*
X367503Y732391D01*
X367387Y732401D01*
X367270Y732407D01*
X367153Y732409D01*
X366997Y732407D01*
X366840Y732402D01*
X366684Y732392D01*
X366528Y732379D01*
X366373Y732362D01*
X366218Y732342D01*
X366063Y732318D01*
X365909Y732290D01*
X365756Y732259D01*
X365604Y732224D01*
X365452Y732185D01*
X365302Y732142D01*
X365152Y732097D01*
X365004Y732047D01*
X364857Y731994D01*
X364711Y731938D01*
X364566Y731878D01*
X364423Y731814D01*
X364282Y731748D01*
X364142Y731678D01*
X364004Y731604D01*
X363868Y731527D01*
X363733Y731448D01*
X363601Y731364D01*
X363470Y731278D01*
X363342Y731189D01*
X363216Y731097D01*
X368902Y725847D02*
X369001Y725907D01*
X369097Y725971D01*
X369191Y726037D01*
X369283Y726106D01*
X369373Y726179D01*
X369461Y726254D01*
X369545Y726332D01*
X369628Y726413D01*
X369707Y726496D01*
X369784Y726582D01*
X369858Y726670D01*
X369930Y726761D01*
X369998Y726854D01*
X370063Y726949D01*
X370125Y727047D01*
X370184Y727146D01*
X370239Y727247D01*
X370292Y727350D01*
X370341Y727454D01*
X370386Y727560D01*
X370428Y727667D01*
X370467Y727776D01*
X370502Y727886D01*
X370533Y727997D01*
X370561Y728109D01*
X370585Y728221D01*
X370605Y728335D01*
X370622Y728449D01*
X370635Y728564D01*
X370645Y728679D01*
X370650Y728794D01*
X370652Y728909D01*
X364092Y723223D02*
X363993Y723163D01*
X363897Y723099D01*
X363803Y723033D01*
X363711Y722964D01*
X363621Y722891D01*
X363533Y722816D01*
X363449Y722738D01*
X363366Y722657D01*
X363287Y722574D01*
X363210Y722488D01*
X363136Y722400D01*
X363064Y722309D01*
X362996Y722216D01*
X362931Y722121D01*
X362869Y722023D01*
X362810Y721924D01*
X362755Y721823D01*
X362702Y721720D01*
X362654Y721616D01*
X362608Y721510D01*
X362566Y721403D01*
X362527Y721294D01*
X362492Y721184D01*
X362461Y721073D01*
X362433Y720961D01*
X362409Y720849D01*
X362389Y720735D01*
X362372Y720621D01*
X362359Y720506D01*
X362349Y720391D01*
X362344Y720276D01*
X362342Y720161D01*
X364091Y723223D02*
X368903Y725847D01*
X355205Y732409D02*
X355205Y716661D01*
X355205Y732409D02*
X350831Y732409D01*
X350700Y732407D01*
X350569Y732401D01*
X350439Y732391D01*
X350309Y732378D01*
X350179Y732360D01*
X350050Y732339D01*
X349922Y732313D01*
X349794Y732284D01*
X349667Y732251D01*
X349542Y732215D01*
X349417Y732174D01*
X349294Y732130D01*
X349172Y732082D01*
X349052Y732031D01*
X348933Y731976D01*
X348816Y731917D01*
X348701Y731855D01*
X348588Y731790D01*
X348476Y731721D01*
X348367Y731649D01*
X348260Y731574D01*
X348155Y731495D01*
X348053Y731414D01*
X347953Y731329D01*
X347856Y731241D01*
X347761Y731151D01*
X347669Y731058D01*
X347580Y730962D01*
X347494Y730863D01*
X347411Y730762D01*
X347331Y730659D01*
X347254Y730553D01*
X347181Y730445D01*
X347110Y730334D01*
X347043Y730222D01*
X346979Y730108D01*
X346919Y729992D01*
X346862Y729874D01*
X346809Y729754D01*
X346759Y729633D01*
X346713Y729510D01*
X346671Y729387D01*
X346633Y729262D01*
X346598Y729135D01*
X346567Y729008D01*
X346539Y728880D01*
X346516Y728752D01*
X346497Y728622D01*
X346481Y728492D01*
X346469Y728362D01*
X346461Y728231D01*
X346457Y728100D01*
X346457Y727970D01*
X346461Y727839D01*
X346469Y727708D01*
X346481Y727578D01*
X346497Y727448D01*
X346516Y727318D01*
X346539Y727190D01*
X346567Y727062D01*
X346598Y726935D01*
X346633Y726808D01*
X346671Y726683D01*
X346713Y726560D01*
X346759Y726437D01*
X346809Y726316D01*
X346862Y726196D01*
X346919Y726078D01*
X346979Y725962D01*
X347043Y725848D01*
X347110Y725736D01*
X347181Y725625D01*
X347254Y725517D01*
X347331Y725411D01*
X347411Y725308D01*
X347494Y725207D01*
X347580Y725108D01*
X347669Y725012D01*
X347761Y724919D01*
X347856Y724829D01*
X347953Y724741D01*
X348053Y724656D01*
X348155Y724575D01*
X348260Y724496D01*
X348367Y724421D01*
X348476Y724349D01*
X348588Y724280D01*
X348701Y724215D01*
X348816Y724153D01*
X348933Y724094D01*
X349052Y724039D01*
X349172Y723988D01*
X349294Y723940D01*
X349417Y723896D01*
X349542Y723855D01*
X349667Y723819D01*
X349794Y723786D01*
X349922Y723757D01*
X350050Y723731D01*
X350179Y723710D01*
X350309Y723692D01*
X350439Y723679D01*
X350569Y723669D01*
X350700Y723663D01*
X350831Y723661D01*
X350831Y723660D02*
X355205Y723660D01*
X585047Y703552D02*
X585179Y703272D01*
X585305Y702989D01*
X585424Y702703D01*
X585536Y702414D01*
X585641Y702122D01*
X585739Y701828D01*
X585830Y701532D01*
X585914Y701234D01*
X585991Y700934D01*
X586061Y700632D01*
X586123Y700329D01*
X586178Y700024D01*
X586226Y699718D01*
X586267Y699410D01*
X586300Y699102D01*
X586326Y698794D01*
X586344Y698484D01*
X586355Y698175D01*
X586359Y697865D01*
X585047Y703552D02*
X585009Y703657D01*
X584967Y703760D01*
X584922Y703862D01*
X584874Y703963D01*
X584822Y704061D01*
X584766Y704158D01*
X584708Y704253D01*
X584646Y704346D01*
X584581Y704436D01*
X584512Y704524D01*
X584441Y704610D01*
X584367Y704694D01*
X584290Y704774D01*
X584211Y704853D01*
X584128Y704928D01*
X584043Y705000D01*
X583956Y705070D01*
X583866Y705136D01*
X583775Y705199D01*
X583681Y705259D01*
X583585Y705316D01*
X583487Y705370D01*
X583387Y705420D01*
X583286Y705466D01*
X583183Y705509D01*
X583078Y705549D01*
X582973Y705585D01*
X582866Y705617D01*
X582758Y705645D01*
X582649Y705670D01*
X582540Y705691D01*
X582430Y705708D01*
X582319Y705722D01*
X582208Y705731D01*
X582097Y705737D01*
X581985Y705739D01*
X581873Y705737D01*
X581762Y705731D01*
X581651Y705722D01*
X581540Y705708D01*
X581430Y705691D01*
X581321Y705670D01*
X581212Y705645D01*
X581104Y705617D01*
X580997Y705585D01*
X580892Y705549D01*
X580787Y705509D01*
X580684Y705466D01*
X580583Y705420D01*
X580483Y705370D01*
X580385Y705316D01*
X580289Y705259D01*
X580195Y705199D01*
X580104Y705136D01*
X580014Y705070D01*
X579927Y705000D01*
X579842Y704928D01*
X579759Y704853D01*
X579680Y704774D01*
X579603Y704694D01*
X579529Y704610D01*
X579458Y704524D01*
X579389Y704436D01*
X579324Y704346D01*
X579262Y704253D01*
X579204Y704158D01*
X579148Y704061D01*
X579096Y703963D01*
X579048Y703862D01*
X579003Y703760D01*
X578961Y703657D01*
X578923Y703552D01*
X578922Y703552D02*
X578790Y703272D01*
X578664Y702988D01*
X578545Y702702D01*
X578433Y702413D01*
X578328Y702122D01*
X578230Y701828D01*
X578139Y701532D01*
X578055Y701234D01*
X577978Y700934D01*
X577908Y700632D01*
X577846Y700328D01*
X577791Y700024D01*
X577743Y699718D01*
X577702Y699410D01*
X577669Y699102D01*
X577643Y698794D01*
X577625Y698484D01*
X577614Y698175D01*
X577610Y697865D01*
X586359Y697865D02*
X586355Y697555D01*
X586344Y697246D01*
X586326Y696936D01*
X586300Y696628D01*
X586267Y696320D01*
X586226Y696012D01*
X586178Y695706D01*
X586123Y695401D01*
X586061Y695098D01*
X585991Y694796D01*
X585914Y694496D01*
X585830Y694198D01*
X585739Y693902D01*
X585641Y693608D01*
X585536Y693316D01*
X585424Y693027D01*
X585305Y692741D01*
X585179Y692458D01*
X585047Y692178D01*
X585009Y692073D01*
X584967Y691970D01*
X584922Y691868D01*
X584874Y691767D01*
X584822Y691669D01*
X584766Y691572D01*
X584708Y691477D01*
X584646Y691384D01*
X584581Y691294D01*
X584512Y691206D01*
X584441Y691120D01*
X584367Y691036D01*
X584290Y690956D01*
X584211Y690877D01*
X584128Y690802D01*
X584043Y690730D01*
X583956Y690660D01*
X583866Y690594D01*
X583775Y690531D01*
X583681Y690471D01*
X583585Y690414D01*
X583487Y690360D01*
X583387Y690310D01*
X583286Y690264D01*
X583183Y690221D01*
X583078Y690181D01*
X582973Y690145D01*
X582866Y690113D01*
X582758Y690085D01*
X582649Y690060D01*
X582540Y690039D01*
X582430Y690022D01*
X582319Y690008D01*
X582208Y689999D01*
X582097Y689993D01*
X581985Y689991D01*
X578922Y692178D02*
X578790Y692458D01*
X578664Y692741D01*
X578545Y693027D01*
X578433Y693316D01*
X578328Y693608D01*
X578230Y693902D01*
X578139Y694198D01*
X578055Y694496D01*
X577978Y694796D01*
X577908Y695098D01*
X577846Y695401D01*
X577791Y695706D01*
X577743Y696012D01*
X577702Y696320D01*
X577669Y696628D01*
X577643Y696936D01*
X577625Y697246D01*
X577614Y697555D01*
X577610Y697865D01*
X578923Y692178D02*
X578961Y692073D01*
X579003Y691970D01*
X579048Y691868D01*
X579096Y691767D01*
X579148Y691669D01*
X579204Y691572D01*
X579262Y691477D01*
X579324Y691384D01*
X579389Y691294D01*
X579458Y691206D01*
X579529Y691120D01*
X579603Y691036D01*
X579680Y690956D01*
X579759Y690877D01*
X579842Y690802D01*
X579927Y690730D01*
X580014Y690660D01*
X580104Y690594D01*
X580195Y690531D01*
X580289Y690471D01*
X580385Y690414D01*
X580483Y690360D01*
X580583Y690310D01*
X580684Y690264D01*
X580787Y690221D01*
X580892Y690181D01*
X580997Y690145D01*
X581104Y690113D01*
X581212Y690085D01*
X581321Y690060D01*
X581430Y690039D01*
X581540Y690022D01*
X581651Y690008D01*
X581762Y689999D01*
X581873Y689993D01*
X581985Y689991D01*
X585484Y693491D02*
X578485Y702239D01*
X570727Y694365D02*
X570725Y694496D01*
X570719Y694627D01*
X570709Y694757D01*
X570696Y694887D01*
X570678Y695017D01*
X570657Y695146D01*
X570631Y695274D01*
X570602Y695402D01*
X570569Y695529D01*
X570533Y695654D01*
X570492Y695779D01*
X570448Y695902D01*
X570400Y696024D01*
X570349Y696144D01*
X570294Y696263D01*
X570235Y696380D01*
X570173Y696495D01*
X570108Y696608D01*
X570039Y696720D01*
X569967Y696829D01*
X569892Y696936D01*
X569813Y697041D01*
X569732Y697143D01*
X569647Y697243D01*
X569559Y697340D01*
X569469Y697435D01*
X569376Y697527D01*
X569280Y697616D01*
X569181Y697702D01*
X569080Y697785D01*
X568977Y697865D01*
X568871Y697942D01*
X568763Y698015D01*
X568652Y698086D01*
X568540Y698153D01*
X568426Y698217D01*
X568310Y698277D01*
X568192Y698334D01*
X568072Y698387D01*
X567951Y698437D01*
X567828Y698483D01*
X567705Y698525D01*
X567580Y698563D01*
X567453Y698598D01*
X567326Y698629D01*
X567198Y698657D01*
X567070Y698680D01*
X566940Y698699D01*
X566810Y698715D01*
X566680Y698727D01*
X566549Y698735D01*
X566418Y698739D01*
X566288Y698739D01*
X566157Y698735D01*
X566026Y698727D01*
X565896Y698715D01*
X565766Y698699D01*
X565636Y698680D01*
X565508Y698657D01*
X565380Y698629D01*
X565253Y698598D01*
X565126Y698563D01*
X565001Y698525D01*
X564878Y698483D01*
X564755Y698437D01*
X564634Y698387D01*
X564514Y698334D01*
X564396Y698277D01*
X564280Y698217D01*
X564166Y698153D01*
X564054Y698086D01*
X563943Y698015D01*
X563835Y697942D01*
X563729Y697865D01*
X563626Y697785D01*
X563525Y697702D01*
X563426Y697616D01*
X563330Y697527D01*
X563237Y697435D01*
X563147Y697340D01*
X563059Y697243D01*
X562974Y697143D01*
X562893Y697041D01*
X562814Y696936D01*
X562739Y696829D01*
X562667Y696720D01*
X562598Y696608D01*
X562533Y696495D01*
X562471Y696380D01*
X562412Y696263D01*
X562357Y696144D01*
X562306Y696024D01*
X562258Y695902D01*
X562214Y695779D01*
X562173Y695654D01*
X562137Y695529D01*
X562104Y695402D01*
X562075Y695274D01*
X562049Y695146D01*
X562028Y695017D01*
X562010Y694887D01*
X561997Y694757D01*
X561987Y694627D01*
X561981Y694496D01*
X561979Y694365D01*
X561981Y694234D01*
X561987Y694103D01*
X561997Y693973D01*
X562010Y693843D01*
X562028Y693713D01*
X562049Y693584D01*
X562075Y693456D01*
X562104Y693328D01*
X562137Y693201D01*
X562173Y693076D01*
X562214Y692951D01*
X562258Y692828D01*
X562306Y692706D01*
X562357Y692586D01*
X562412Y692467D01*
X562471Y692350D01*
X562533Y692235D01*
X562598Y692122D01*
X562667Y692010D01*
X562739Y691901D01*
X562814Y691794D01*
X562893Y691689D01*
X562974Y691587D01*
X563059Y691487D01*
X563147Y691390D01*
X563237Y691295D01*
X563330Y691203D01*
X563426Y691114D01*
X563525Y691028D01*
X563626Y690945D01*
X563729Y690865D01*
X563835Y690788D01*
X563943Y690715D01*
X564054Y690644D01*
X564166Y690577D01*
X564280Y690513D01*
X564396Y690453D01*
X564514Y690396D01*
X564634Y690343D01*
X564755Y690293D01*
X564878Y690247D01*
X565001Y690205D01*
X565126Y690167D01*
X565253Y690132D01*
X565380Y690101D01*
X565508Y690073D01*
X565636Y690050D01*
X565766Y690031D01*
X565896Y690015D01*
X566026Y690003D01*
X566157Y689995D01*
X566288Y689991D01*
X566418Y689991D01*
X566549Y689995D01*
X566680Y690003D01*
X566810Y690015D01*
X566940Y690031D01*
X567070Y690050D01*
X567198Y690073D01*
X567326Y690101D01*
X567453Y690132D01*
X567580Y690167D01*
X567705Y690205D01*
X567828Y690247D01*
X567951Y690293D01*
X568072Y690343D01*
X568192Y690396D01*
X568310Y690453D01*
X568426Y690513D01*
X568540Y690577D01*
X568652Y690644D01*
X568763Y690715D01*
X568871Y690788D01*
X568977Y690865D01*
X569080Y690945D01*
X569181Y691028D01*
X569280Y691114D01*
X569376Y691203D01*
X569469Y691295D01*
X569559Y691390D01*
X569647Y691487D01*
X569732Y691587D01*
X569813Y691689D01*
X569892Y691794D01*
X569967Y691901D01*
X570039Y692010D01*
X570108Y692122D01*
X570173Y692235D01*
X570235Y692350D01*
X570294Y692467D01*
X570349Y692586D01*
X570400Y692706D01*
X570448Y692828D01*
X570492Y692951D01*
X570533Y693076D01*
X570569Y693201D01*
X570602Y693328D01*
X570631Y693456D01*
X570657Y693584D01*
X570678Y693713D01*
X570696Y693843D01*
X570709Y693973D01*
X570719Y694103D01*
X570725Y694234D01*
X570727Y694365D01*
X569853Y702239D02*
X569851Y702357D01*
X569845Y702475D01*
X569835Y702593D01*
X569821Y702710D01*
X569803Y702827D01*
X569781Y702944D01*
X569756Y703059D01*
X569726Y703173D01*
X569692Y703287D01*
X569655Y703399D01*
X569614Y703510D01*
X569569Y703619D01*
X569521Y703727D01*
X569469Y703833D01*
X569413Y703938D01*
X569354Y704040D01*
X569292Y704140D01*
X569226Y704238D01*
X569157Y704334D01*
X569084Y704428D01*
X569009Y704519D01*
X568930Y704607D01*
X568849Y704693D01*
X568764Y704776D01*
X568677Y704856D01*
X568588Y704933D01*
X568495Y705007D01*
X568401Y705077D01*
X568304Y705145D01*
X568204Y705209D01*
X568103Y705270D01*
X568000Y705327D01*
X567894Y705381D01*
X567787Y705432D01*
X567679Y705478D01*
X567569Y705521D01*
X567457Y705560D01*
X567344Y705596D01*
X567230Y705627D01*
X567115Y705655D01*
X567000Y705679D01*
X566883Y705699D01*
X566766Y705715D01*
X566648Y705727D01*
X566530Y705735D01*
X566412Y705739D01*
X566294Y705739D01*
X566176Y705735D01*
X566058Y705727D01*
X565940Y705715D01*
X565823Y705699D01*
X565706Y705679D01*
X565591Y705655D01*
X565476Y705627D01*
X565362Y705596D01*
X565249Y705560D01*
X565137Y705521D01*
X565027Y705478D01*
X564919Y705432D01*
X564812Y705381D01*
X564706Y705327D01*
X564603Y705270D01*
X564502Y705209D01*
X564402Y705145D01*
X564305Y705077D01*
X564211Y705007D01*
X564118Y704933D01*
X564029Y704856D01*
X563942Y704776D01*
X563857Y704693D01*
X563776Y704607D01*
X563697Y704519D01*
X563622Y704428D01*
X563549Y704334D01*
X563480Y704238D01*
X563414Y704140D01*
X563352Y704040D01*
X563293Y703938D01*
X563237Y703833D01*
X563185Y703727D01*
X563137Y703619D01*
X563092Y703510D01*
X563051Y703399D01*
X563014Y703287D01*
X562980Y703173D01*
X562950Y703059D01*
X562925Y702944D01*
X562903Y702827D01*
X562885Y702710D01*
X562871Y702593D01*
X562861Y702475D01*
X562855Y702357D01*
X562853Y702239D01*
X562855Y702121D01*
X562861Y702003D01*
X562871Y701885D01*
X562885Y701768D01*
X562903Y701651D01*
X562925Y701534D01*
X562950Y701419D01*
X562980Y701305D01*
X563014Y701191D01*
X563051Y701079D01*
X563092Y700968D01*
X563137Y700859D01*
X563185Y700751D01*
X563237Y700645D01*
X563293Y700540D01*
X563352Y700438D01*
X563414Y700338D01*
X563480Y700240D01*
X563549Y700144D01*
X563622Y700050D01*
X563697Y699959D01*
X563776Y699871D01*
X563857Y699785D01*
X563942Y699702D01*
X564029Y699622D01*
X564118Y699545D01*
X564211Y699471D01*
X564305Y699401D01*
X564402Y699333D01*
X564502Y699269D01*
X564603Y699208D01*
X564706Y699151D01*
X564812Y699097D01*
X564919Y699046D01*
X565027Y699000D01*
X565137Y698957D01*
X565249Y698918D01*
X565362Y698882D01*
X565476Y698851D01*
X565591Y698823D01*
X565706Y698799D01*
X565823Y698779D01*
X565940Y698763D01*
X566058Y698751D01*
X566176Y698743D01*
X566294Y698739D01*
X566412Y698739D01*
X566530Y698743D01*
X566648Y698751D01*
X566766Y698763D01*
X566883Y698779D01*
X567000Y698799D01*
X567115Y698823D01*
X567230Y698851D01*
X567344Y698882D01*
X567457Y698918D01*
X567569Y698957D01*
X567679Y699000D01*
X567787Y699046D01*
X567894Y699097D01*
X568000Y699151D01*
X568103Y699208D01*
X568204Y699269D01*
X568304Y699333D01*
X568401Y699401D01*
X568495Y699471D01*
X568588Y699545D01*
X568677Y699622D01*
X568764Y699702D01*
X568849Y699785D01*
X568930Y699871D01*
X569009Y699959D01*
X569084Y700050D01*
X569157Y700144D01*
X569226Y700240D01*
X569292Y700338D01*
X569354Y700438D01*
X569413Y700540D01*
X569469Y700645D01*
X569521Y700751D01*
X569569Y700859D01*
X569614Y700968D01*
X569655Y701079D01*
X569692Y701191D01*
X569726Y701305D01*
X569756Y701419D01*
X569781Y701534D01*
X569803Y701651D01*
X569821Y701768D01*
X569835Y701885D01*
X569845Y702003D01*
X569851Y702121D01*
X569853Y702239D01*
X555849Y690866D02*
X555849Y689991D01*
X555849Y690866D02*
X554974Y690866D01*
X554974Y689991D01*
X555849Y689991D01*
X544032Y705739D02*
X543908Y705737D01*
X543785Y705731D01*
X543661Y705722D01*
X543539Y705708D01*
X543416Y705691D01*
X543294Y705669D01*
X543173Y705644D01*
X543053Y705615D01*
X542934Y705583D01*
X542815Y705546D01*
X542698Y705506D01*
X542583Y705463D01*
X542468Y705415D01*
X542356Y705364D01*
X542245Y705310D01*
X542135Y705252D01*
X542028Y705191D01*
X541922Y705126D01*
X541819Y705058D01*
X541718Y704987D01*
X541619Y704913D01*
X541522Y704836D01*
X541428Y704755D01*
X541337Y704672D01*
X541248Y704586D01*
X541162Y704497D01*
X541079Y704406D01*
X540998Y704312D01*
X540921Y704215D01*
X540847Y704116D01*
X540776Y704015D01*
X540708Y703912D01*
X540643Y703806D01*
X540582Y703699D01*
X540524Y703589D01*
X540470Y703478D01*
X540419Y703366D01*
X540371Y703251D01*
X540328Y703136D01*
X540288Y703019D01*
X540251Y702900D01*
X540219Y702781D01*
X540190Y702661D01*
X540165Y702540D01*
X540143Y702418D01*
X540126Y702295D01*
X540112Y702173D01*
X540103Y702049D01*
X540097Y701926D01*
X540095Y701802D01*
X544032Y705739D02*
X544173Y705737D01*
X544315Y705731D01*
X544456Y705721D01*
X544596Y705707D01*
X544736Y705690D01*
X544876Y705668D01*
X545015Y705643D01*
X545153Y705613D01*
X545291Y705580D01*
X545427Y705543D01*
X545563Y705502D01*
X545697Y705457D01*
X545829Y705409D01*
X545961Y705357D01*
X546091Y705301D01*
X546219Y705242D01*
X546346Y705179D01*
X546470Y705112D01*
X546593Y705043D01*
X546714Y704969D01*
X546833Y704893D01*
X546950Y704813D01*
X547064Y704730D01*
X547176Y704643D01*
X547285Y704554D01*
X547392Y704462D01*
X547497Y704366D01*
X547598Y704268D01*
X547697Y704167D01*
X547793Y704063D01*
X547886Y703957D01*
X547976Y703848D01*
X548063Y703736D01*
X548147Y703622D01*
X548227Y703506D01*
X548305Y703388D01*
X548379Y703267D01*
X548449Y703145D01*
X548516Y703021D01*
X548580Y702894D01*
X548640Y702766D01*
X548697Y702637D01*
X548749Y702506D01*
X548799Y702373D01*
X548844Y702239D01*
X541407Y698740D02*
X541317Y698828D01*
X541229Y698920D01*
X541144Y699014D01*
X541062Y699111D01*
X540983Y699210D01*
X540906Y699311D01*
X540833Y699415D01*
X540763Y699520D01*
X540696Y699628D01*
X540633Y699738D01*
X540573Y699850D01*
X540516Y699963D01*
X540462Y700078D01*
X540412Y700195D01*
X540366Y700313D01*
X540323Y700432D01*
X540284Y700553D01*
X540248Y700674D01*
X540216Y700797D01*
X540188Y700921D01*
X540163Y701045D01*
X540142Y701170D01*
X540125Y701296D01*
X540112Y701422D01*
X540103Y701548D01*
X540097Y701675D01*
X540095Y701802D01*
X541408Y698740D02*
X548844Y689991D01*
X540095Y689991D01*
X533213Y697865D02*
X533209Y698175D01*
X533198Y698484D01*
X533180Y698794D01*
X533154Y699102D01*
X533121Y699410D01*
X533080Y699718D01*
X533032Y700024D01*
X532977Y700329D01*
X532915Y700632D01*
X532845Y700934D01*
X532768Y701234D01*
X532684Y701532D01*
X532593Y701828D01*
X532495Y702122D01*
X532390Y702414D01*
X532278Y702703D01*
X532159Y702989D01*
X532033Y703272D01*
X531901Y703552D01*
X531900Y703552D02*
X531862Y703657D01*
X531820Y703760D01*
X531775Y703862D01*
X531727Y703963D01*
X531675Y704061D01*
X531619Y704158D01*
X531561Y704253D01*
X531499Y704346D01*
X531434Y704436D01*
X531365Y704524D01*
X531294Y704610D01*
X531220Y704694D01*
X531143Y704774D01*
X531064Y704853D01*
X530981Y704928D01*
X530896Y705000D01*
X530809Y705070D01*
X530719Y705136D01*
X530628Y705199D01*
X530534Y705259D01*
X530438Y705316D01*
X530340Y705370D01*
X530240Y705420D01*
X530139Y705466D01*
X530036Y705509D01*
X529931Y705549D01*
X529826Y705585D01*
X529719Y705617D01*
X529611Y705645D01*
X529502Y705670D01*
X529393Y705691D01*
X529283Y705708D01*
X529172Y705722D01*
X529061Y705731D01*
X528950Y705737D01*
X528838Y705739D01*
X528726Y705737D01*
X528615Y705731D01*
X528504Y705722D01*
X528393Y705708D01*
X528283Y705691D01*
X528174Y705670D01*
X528065Y705645D01*
X527957Y705617D01*
X527850Y705585D01*
X527745Y705549D01*
X527640Y705509D01*
X527537Y705466D01*
X527436Y705420D01*
X527336Y705370D01*
X527238Y705316D01*
X527142Y705259D01*
X527048Y705199D01*
X526957Y705136D01*
X526867Y705070D01*
X526780Y705000D01*
X526695Y704928D01*
X526612Y704853D01*
X526533Y704774D01*
X526456Y704694D01*
X526382Y704610D01*
X526311Y704524D01*
X526242Y704436D01*
X526177Y704346D01*
X526115Y704253D01*
X526057Y704158D01*
X526001Y704061D01*
X525949Y703963D01*
X525901Y703862D01*
X525856Y703760D01*
X525814Y703657D01*
X525776Y703552D01*
X525644Y703272D01*
X525518Y702988D01*
X525399Y702702D01*
X525287Y702413D01*
X525182Y702122D01*
X525084Y701828D01*
X524993Y701532D01*
X524909Y701234D01*
X524832Y700934D01*
X524762Y700632D01*
X524700Y700328D01*
X524645Y700024D01*
X524597Y699718D01*
X524556Y699410D01*
X524523Y699102D01*
X524497Y698794D01*
X524479Y698484D01*
X524468Y698175D01*
X524464Y697865D01*
X533213Y697865D02*
X533209Y697555D01*
X533198Y697246D01*
X533180Y696936D01*
X533154Y696628D01*
X533121Y696320D01*
X533080Y696012D01*
X533032Y695706D01*
X532977Y695401D01*
X532915Y695098D01*
X532845Y694796D01*
X532768Y694496D01*
X532684Y694198D01*
X532593Y693902D01*
X532495Y693608D01*
X532390Y693316D01*
X532278Y693027D01*
X532159Y692741D01*
X532033Y692458D01*
X531901Y692178D01*
X531900Y692178D02*
X531862Y692073D01*
X531820Y691970D01*
X531775Y691868D01*
X531727Y691767D01*
X531675Y691669D01*
X531619Y691572D01*
X531561Y691477D01*
X531499Y691384D01*
X531434Y691294D01*
X531365Y691206D01*
X531294Y691120D01*
X531220Y691036D01*
X531143Y690956D01*
X531064Y690877D01*
X530981Y690802D01*
X530896Y690730D01*
X530809Y690660D01*
X530719Y690594D01*
X530628Y690531D01*
X530534Y690471D01*
X530438Y690414D01*
X530340Y690360D01*
X530240Y690310D01*
X530139Y690264D01*
X530036Y690221D01*
X529931Y690181D01*
X529826Y690145D01*
X529719Y690113D01*
X529611Y690085D01*
X529502Y690060D01*
X529393Y690039D01*
X529283Y690022D01*
X529172Y690008D01*
X529061Y689999D01*
X528950Y689993D01*
X528838Y689991D01*
X525775Y692178D02*
X525643Y692458D01*
X525517Y692741D01*
X525398Y693027D01*
X525286Y693316D01*
X525181Y693608D01*
X525083Y693902D01*
X524992Y694198D01*
X524908Y694496D01*
X524831Y694796D01*
X524761Y695098D01*
X524699Y695401D01*
X524644Y695706D01*
X524596Y696012D01*
X524555Y696320D01*
X524522Y696628D01*
X524496Y696936D01*
X524478Y697246D01*
X524467Y697555D01*
X524463Y697865D01*
X525776Y692178D02*
X525814Y692073D01*
X525856Y691970D01*
X525901Y691868D01*
X525949Y691767D01*
X526001Y691669D01*
X526057Y691572D01*
X526115Y691477D01*
X526177Y691384D01*
X526242Y691294D01*
X526311Y691206D01*
X526382Y691120D01*
X526456Y691036D01*
X526533Y690956D01*
X526612Y690877D01*
X526695Y690802D01*
X526780Y690730D01*
X526867Y690660D01*
X526957Y690594D01*
X527048Y690531D01*
X527142Y690471D01*
X527238Y690414D01*
X527336Y690360D01*
X527436Y690310D01*
X527537Y690264D01*
X527640Y690221D01*
X527745Y690181D01*
X527850Y690145D01*
X527957Y690113D01*
X528065Y690085D01*
X528174Y690060D01*
X528283Y690039D01*
X528393Y690022D01*
X528504Y690008D01*
X528615Y689999D01*
X528726Y689993D01*
X528838Y689991D01*
X532338Y693491D02*
X525339Y702239D01*
X512770Y705739D02*
X512646Y705737D01*
X512523Y705731D01*
X512399Y705722D01*
X512277Y705708D01*
X512154Y705691D01*
X512032Y705669D01*
X511911Y705644D01*
X511791Y705615D01*
X511672Y705583D01*
X511553Y705546D01*
X511436Y705506D01*
X511321Y705463D01*
X511206Y705415D01*
X511094Y705364D01*
X510983Y705310D01*
X510873Y705252D01*
X510766Y705191D01*
X510660Y705126D01*
X510557Y705058D01*
X510456Y704987D01*
X510357Y704913D01*
X510260Y704836D01*
X510166Y704755D01*
X510075Y704672D01*
X509986Y704586D01*
X509900Y704497D01*
X509817Y704406D01*
X509736Y704312D01*
X509659Y704215D01*
X509585Y704116D01*
X509514Y704015D01*
X509446Y703912D01*
X509381Y703806D01*
X509320Y703699D01*
X509262Y703589D01*
X509208Y703478D01*
X509157Y703366D01*
X509109Y703251D01*
X509066Y703136D01*
X509026Y703019D01*
X508989Y702900D01*
X508957Y702781D01*
X508928Y702661D01*
X508903Y702540D01*
X508881Y702418D01*
X508864Y702295D01*
X508850Y702173D01*
X508841Y702049D01*
X508835Y701926D01*
X508833Y701802D01*
X512770Y705739D02*
X512911Y705737D01*
X513053Y705731D01*
X513194Y705721D01*
X513334Y705707D01*
X513474Y705690D01*
X513614Y705668D01*
X513753Y705643D01*
X513891Y705613D01*
X514029Y705580D01*
X514165Y705543D01*
X514301Y705502D01*
X514435Y705457D01*
X514567Y705409D01*
X514699Y705357D01*
X514829Y705301D01*
X514957Y705242D01*
X515084Y705179D01*
X515208Y705112D01*
X515331Y705043D01*
X515452Y704969D01*
X515571Y704893D01*
X515688Y704813D01*
X515802Y704730D01*
X515914Y704643D01*
X516023Y704554D01*
X516130Y704462D01*
X516235Y704366D01*
X516336Y704268D01*
X516435Y704167D01*
X516531Y704063D01*
X516624Y703957D01*
X516714Y703848D01*
X516801Y703736D01*
X516885Y703622D01*
X516965Y703506D01*
X517043Y703388D01*
X517117Y703267D01*
X517187Y703145D01*
X517254Y703021D01*
X517318Y702894D01*
X517378Y702766D01*
X517435Y702637D01*
X517487Y702506D01*
X517537Y702373D01*
X517582Y702239D01*
X510144Y698740D02*
X510054Y698828D01*
X509966Y698920D01*
X509881Y699014D01*
X509799Y699111D01*
X509720Y699210D01*
X509643Y699311D01*
X509570Y699415D01*
X509500Y699520D01*
X509433Y699628D01*
X509370Y699738D01*
X509310Y699850D01*
X509253Y699963D01*
X509199Y700078D01*
X509149Y700195D01*
X509103Y700313D01*
X509060Y700432D01*
X509021Y700553D01*
X508985Y700674D01*
X508953Y700797D01*
X508925Y700921D01*
X508900Y701045D01*
X508879Y701170D01*
X508862Y701296D01*
X508849Y701422D01*
X508840Y701548D01*
X508834Y701675D01*
X508832Y701802D01*
X510145Y698740D02*
X517582Y689991D01*
X508833Y689991D01*
X501950Y693491D02*
X498451Y705739D01*
X501950Y693491D02*
X493201Y693491D01*
X495826Y696990D02*
X495826Y689991D01*
D11*
X591058Y24638D03*
D12*
X591185Y24892D03*
D13*
X585343Y24892D03*
X584327Y24892D03*
X580009Y24892D03*
X576199Y24892D03*
D14*
X569341Y24892D03*
D13*
X563753Y24892D03*
X555879Y24892D03*
X554863Y24892D03*
X550037Y24892D03*
D12*
X545211Y24892D03*
D13*
X534543Y24892D03*
X533527Y24892D03*
X529463Y24892D03*
X505079Y24892D03*
X502793Y24892D03*
X501777Y24892D03*
X498729Y24892D03*
X497713Y24892D03*
X492633Y24892D03*
D15*
X591185Y25146D03*
D14*
X584835Y25146D03*
D16*
X579628Y25146D03*
D14*
X575691Y25146D03*
X569341Y25146D03*
D17*
X561086Y25146D03*
D14*
X555371Y25146D03*
D16*
X550926Y25146D03*
D18*
X545338Y25146D03*
D14*
X539623Y25146D03*
X534035Y25146D03*
X529463Y25146D03*
X523367Y25146D03*
D16*
X518922Y25146D03*
D19*
X507492Y25146D03*
D14*
X502285Y25146D03*
X498221Y25146D03*
X493141Y25146D03*
D20*
X487426Y25146D03*
D21*
X591185Y25400D03*
D14*
X584835Y25400D03*
D12*
X579755Y25400D03*
D14*
X575691Y25400D03*
D12*
X569341Y25400D03*
D17*
X561086Y25400D03*
D14*
X555371Y25400D03*
D16*
X551180Y25400D03*
D22*
X545338Y25400D03*
D14*
X539623Y25400D03*
X534035Y25400D03*
X529209Y25400D03*
D16*
X523494Y25400D03*
X518922Y25400D03*
D19*
X507492Y25400D03*
D14*
X502285Y25400D03*
X498221Y25400D03*
D16*
X493268Y25400D03*
D20*
X487426Y25400D03*
D23*
X591185Y25654D03*
D14*
X584835Y25654D03*
D12*
X579755Y25654D03*
D14*
X575691Y25654D03*
D12*
X569341Y25654D03*
D24*
X561213Y25654D03*
D14*
X555371Y25654D03*
D16*
X551180Y25654D03*
D23*
X545465Y25654D03*
D14*
X539623Y25654D03*
X534035Y25654D03*
X529209Y25654D03*
X523621Y25654D03*
D16*
X518922Y25654D03*
D19*
X507492Y25654D03*
D14*
X502285Y25654D03*
X498221Y25654D03*
D12*
X493395Y25654D03*
D20*
X487426Y25654D03*
D19*
X591058Y25908D03*
D14*
X584835Y25908D03*
D25*
X579882Y25908D03*
D14*
X575691Y25908D03*
D26*
X569341Y25908D03*
D24*
X561213Y25908D03*
D14*
X555371Y25908D03*
D16*
X551434Y25908D03*
D11*
X547878Y25908D03*
D27*
X545084Y25908D03*
D14*
X539623Y25908D03*
X534035Y25908D03*
D16*
X529082Y25908D03*
D14*
X523621Y25908D03*
D16*
X518922Y25908D03*
D19*
X507492Y25908D03*
D14*
X502285Y25908D03*
X498221Y25908D03*
D12*
X493395Y25908D03*
D20*
X487426Y25908D03*
D12*
X592963Y26162D03*
X589407Y26162D03*
D14*
X584835Y26162D03*
D26*
X580009Y26162D03*
D14*
X575691Y26162D03*
D26*
X569341Y26162D03*
D16*
X563118Y26162D03*
D14*
X555371Y26162D03*
D16*
X551688Y26162D03*
X547116Y26162D03*
X543306Y26162D03*
D14*
X539623Y26162D03*
X534035Y26162D03*
X528955Y26162D03*
D16*
X523748Y26162D03*
X518922Y26162D03*
X509270Y26162D03*
D14*
X502285Y26162D03*
X498221Y26162D03*
D25*
X493522Y26162D03*
D12*
X489331Y26162D03*
D16*
X593090Y26416D03*
X589026Y26416D03*
D14*
X584835Y26416D03*
D28*
X580136Y26416D03*
D14*
X575691Y26416D03*
D28*
X569468Y26416D03*
D14*
X563245Y26416D03*
X555371Y26416D03*
D16*
X551688Y26416D03*
D29*
X547116Y26416D03*
D16*
X543306Y26416D03*
D14*
X539623Y26416D03*
X534035Y26416D03*
X528955Y26416D03*
X523875Y26416D03*
D16*
X518922Y26416D03*
D14*
X509397Y26416D03*
X502285Y26416D03*
X498221Y26416D03*
D26*
X493649Y26416D03*
D16*
X489204Y26416D03*
X593344Y26670D03*
X589026Y26670D03*
D14*
X584835Y26670D03*
D30*
X580263Y26670D03*
D14*
X575691Y26670D03*
D30*
X569341Y26670D03*
D14*
X563245Y26670D03*
X555371Y26670D03*
D16*
X551942Y26670D03*
D13*
X547243Y26670D03*
D14*
X543179Y26670D03*
X539623Y26670D03*
X534035Y26670D03*
D20*
X526288Y26670D03*
D16*
X518922Y26670D03*
X509270Y26670D03*
D14*
X502285Y26670D03*
X498221Y26670D03*
D28*
X493776Y26670D03*
D16*
X488950Y26670D03*
D14*
X593471Y26924D03*
D16*
X588772Y26924D03*
D14*
X584835Y26924D03*
D30*
X580263Y26924D03*
D14*
X575691Y26924D03*
D16*
X570230Y26924D03*
D14*
X568579Y26924D03*
X563245Y26924D03*
X555371Y26924D03*
D16*
X552196Y26924D03*
D14*
X543179Y26924D03*
X539623Y26924D03*
X534035Y26924D03*
D31*
X526415Y26924D03*
D16*
X518922Y26924D03*
X509270Y26924D03*
D14*
X502285Y26924D03*
X498221Y26924D03*
D30*
X493903Y26924D03*
D12*
X488823Y26924D03*
D16*
X593598Y27178D03*
X588772Y27178D03*
D14*
X584835Y27178D03*
D32*
X580390Y27178D03*
D14*
X575691Y27178D03*
X570357Y27178D03*
X568579Y27178D03*
X563245Y27178D03*
X555371Y27178D03*
X552323Y27178D03*
D16*
X543306Y27178D03*
D14*
X539623Y27178D03*
X534035Y27178D03*
D17*
X526288Y27178D03*
D16*
X518922Y27178D03*
X509270Y27178D03*
D14*
X502285Y27178D03*
X498221Y27178D03*
D30*
X493903Y27178D03*
D16*
X488696Y27178D03*
X593598Y27432D03*
X588772Y27432D03*
D14*
X584835Y27432D03*
D15*
X580517Y27432D03*
D14*
X575691Y27432D03*
X570357Y27432D03*
X568325Y27432D03*
X563245Y27432D03*
D21*
X553847Y27432D03*
D16*
X543306Y27432D03*
D14*
X539623Y27432D03*
X534035Y27432D03*
D24*
X526415Y27432D03*
D16*
X518922Y27432D03*
X509270Y27432D03*
D14*
X502285Y27432D03*
X498221Y27432D03*
D32*
X494030Y27432D03*
D16*
X488442Y27432D03*
X593598Y27686D03*
D14*
X588645Y27686D03*
X584835Y27686D03*
D12*
X581533Y27686D03*
D16*
X579628Y27686D03*
D14*
X575691Y27686D03*
D16*
X570484Y27686D03*
D14*
X568325Y27686D03*
X563245Y27686D03*
D27*
X553720Y27686D03*
D25*
X543560Y27686D03*
D14*
X539623Y27686D03*
X534035Y27686D03*
D24*
X526415Y27686D03*
D16*
X518922Y27686D03*
X509270Y27686D03*
D14*
X502285Y27686D03*
X498221Y27686D03*
D16*
X495046Y27686D03*
D14*
X493141Y27686D03*
D16*
X488188Y27686D03*
X593598Y27940D03*
D14*
X588645Y27940D03*
X584835Y27940D03*
D16*
X581660Y27940D03*
X579628Y27940D03*
D14*
X575691Y27940D03*
X570611Y27940D03*
D16*
X568198Y27940D03*
X563118Y27940D03*
D19*
X553466Y27940D03*
D26*
X544449Y27940D03*
D13*
X542925Y27940D03*
D14*
X539623Y27940D03*
X534035Y27940D03*
X528193Y27940D03*
D16*
X524510Y27940D03*
X518922Y27940D03*
X509270Y27940D03*
D14*
X502285Y27940D03*
X498221Y27940D03*
D12*
X495173Y27940D03*
D14*
X493141Y27940D03*
D16*
X487934Y27940D03*
X593598Y28194D03*
D14*
X588645Y28194D03*
X584835Y28194D03*
D16*
X581914Y28194D03*
X579628Y28194D03*
D14*
X575691Y28194D03*
X570611Y28194D03*
X568071Y28194D03*
D23*
X561467Y28194D03*
D24*
X553339Y28194D03*
D15*
X544703Y28194D03*
D14*
X539623Y28194D03*
X534035Y28194D03*
X528193Y28194D03*
X524637Y28194D03*
D16*
X518922Y28194D03*
X509270Y28194D03*
D14*
X502285Y28194D03*
X498221Y28194D03*
D16*
X495300Y28194D03*
D14*
X493141Y28194D03*
D16*
X487680Y28194D03*
X593598Y28448D03*
D14*
X588645Y28448D03*
X584835Y28448D03*
D12*
X582041Y28448D03*
D16*
X579628Y28448D03*
D14*
X575691Y28448D03*
D16*
X570738Y28448D03*
D14*
X568071Y28448D03*
D23*
X561467Y28448D03*
D16*
X555244Y28448D03*
D33*
X552323Y28448D03*
D18*
X545084Y28448D03*
D14*
X539623Y28448D03*
X534035Y28448D03*
X527939Y28448D03*
X524637Y28448D03*
D16*
X518922Y28448D03*
X509270Y28448D03*
D14*
X502285Y28448D03*
X498221Y28448D03*
D16*
X495554Y28448D03*
D14*
X493141Y28448D03*
D16*
X487426Y28448D03*
X593598Y28702D03*
D14*
X588645Y28702D03*
X584835Y28702D03*
D12*
X582295Y28702D03*
D16*
X579628Y28702D03*
D14*
X575691Y28702D03*
X570865Y28702D03*
D16*
X567944Y28702D03*
D23*
X561467Y28702D03*
D14*
X555371Y28702D03*
D25*
X551180Y28702D03*
D33*
X545465Y28702D03*
D14*
X539623Y28702D03*
X534035Y28702D03*
X527939Y28702D03*
X524891Y28702D03*
D16*
X518922Y28702D03*
X509270Y28702D03*
D14*
X502285Y28702D03*
X498221Y28702D03*
D12*
X495681Y28702D03*
D14*
X493141Y28702D03*
D16*
X487172Y28702D03*
X593598Y28956D03*
D14*
X588645Y28956D03*
X584835Y28956D03*
D16*
X582422Y28956D03*
X579628Y28956D03*
D14*
X575691Y28956D03*
D16*
X570992Y28956D03*
D14*
X567817Y28956D03*
D23*
X561467Y28956D03*
D14*
X555371Y28956D03*
D16*
X550926Y28956D03*
D18*
X545846Y28956D03*
D14*
X539623Y28956D03*
X534035Y28956D03*
X527685Y28956D03*
D16*
X525018Y28956D03*
X518922Y28956D03*
X509270Y28956D03*
D14*
X502285Y28956D03*
X498221Y28956D03*
D12*
X495935Y28956D03*
D14*
X493141Y28956D03*
D12*
X487045Y28956D03*
D16*
X593598Y29210D03*
D14*
X588645Y29210D03*
X584835Y29210D03*
D16*
X582676Y29210D03*
X579628Y29210D03*
D14*
X575691Y29210D03*
D16*
X570992Y29210D03*
X567690Y29210D03*
X563118Y29210D03*
D14*
X555371Y29210D03*
X550799Y29210D03*
D28*
X546354Y29210D03*
D14*
X539623Y29210D03*
X534035Y29210D03*
X527685Y29210D03*
X525145Y29210D03*
D16*
X518922Y29210D03*
X509270Y29210D03*
D14*
X502285Y29210D03*
X498221Y29210D03*
D16*
X496062Y29210D03*
D14*
X493141Y29210D03*
D12*
X486791Y29210D03*
D16*
X593598Y29464D03*
D14*
X588645Y29464D03*
X584835Y29464D03*
D16*
X582930Y29464D03*
X579628Y29464D03*
D14*
X575691Y29464D03*
X571119Y29464D03*
X567563Y29464D03*
X563245Y29464D03*
X555371Y29464D03*
X550799Y29464D03*
D25*
X546862Y29464D03*
D14*
X539623Y29464D03*
X534035Y29464D03*
D16*
X527558Y29464D03*
D14*
X525145Y29464D03*
D16*
X518922Y29464D03*
X509270Y29464D03*
D14*
X502285Y29464D03*
X498221Y29464D03*
D16*
X496316Y29464D03*
D14*
X493141Y29464D03*
D16*
X486664Y29464D03*
X593598Y29718D03*
D14*
X588645Y29718D03*
D15*
X583819Y29718D03*
D16*
X579628Y29718D03*
D14*
X575691Y29718D03*
D16*
X571246Y29718D03*
X567436Y29718D03*
D14*
X563245Y29718D03*
X555371Y29718D03*
D16*
X550672Y29718D03*
X547116Y29718D03*
D14*
X539623Y29718D03*
X534035Y29718D03*
X527431Y29718D03*
D16*
X525272Y29718D03*
X518922Y29718D03*
X509270Y29718D03*
D14*
X502285Y29718D03*
D32*
X497332Y29718D03*
D14*
X493141Y29718D03*
D29*
X486664Y29718D03*
D13*
X485775Y29718D03*
D16*
X593598Y29972D03*
D14*
X588645Y29972D03*
D32*
X583946Y29972D03*
D16*
X579628Y29972D03*
D14*
X575691Y29972D03*
D16*
X571246Y29972D03*
X567436Y29972D03*
D14*
X563245Y29972D03*
X555371Y29972D03*
D16*
X550672Y29972D03*
D14*
X547243Y29972D03*
X539623Y29972D03*
X534035Y29972D03*
X527431Y29972D03*
X525399Y29972D03*
D16*
X518922Y29972D03*
X509270Y29972D03*
D14*
X502285Y29972D03*
D32*
X497332Y29972D03*
D14*
X493141Y29972D03*
D16*
X486156Y29972D03*
X593598Y30226D03*
D14*
X588645Y30226D03*
D30*
X584073Y30226D03*
D16*
X579628Y30226D03*
D14*
X575691Y30226D03*
D16*
X571500Y30226D03*
D14*
X567309Y30226D03*
X563245Y30226D03*
X555371Y30226D03*
X550799Y30226D03*
X547243Y30226D03*
X539623Y30226D03*
X534035Y30226D03*
X527177Y30226D03*
X525399Y30226D03*
D16*
X518922Y30226D03*
X509270Y30226D03*
D14*
X502285Y30226D03*
D30*
X497459Y30226D03*
D14*
X493141Y30226D03*
D16*
X485902Y30226D03*
X593598Y30480D03*
D14*
X588645Y30480D03*
D28*
X584200Y30480D03*
D16*
X579628Y30480D03*
D14*
X575691Y30480D03*
D16*
X571500Y30480D03*
X567182Y30480D03*
D14*
X563245Y30480D03*
X555371Y30480D03*
D16*
X550926Y30480D03*
D14*
X547243Y30480D03*
X539623Y30480D03*
X534035Y30480D03*
D30*
X526415Y30480D03*
D14*
X518795Y30480D03*
D16*
X509270Y30480D03*
D14*
X502285Y30480D03*
D28*
X497586Y30480D03*
D14*
X493141Y30480D03*
D16*
X485648Y30480D03*
X593598Y30734D03*
D14*
X588645Y30734D03*
D28*
X584200Y30734D03*
D16*
X579628Y30734D03*
D14*
X575691Y30734D03*
X571627Y30734D03*
D16*
X567182Y30734D03*
D14*
X563245Y30734D03*
X555371Y30734D03*
D12*
X551053Y30734D03*
D16*
X547116Y30734D03*
D34*
X543687Y30734D03*
D14*
X539623Y30734D03*
D16*
X533908Y30734D03*
D30*
X526415Y30734D03*
D16*
X518922Y30734D03*
X509270Y30734D03*
D14*
X502285Y30734D03*
D26*
X497713Y30734D03*
D14*
X493141Y30734D03*
D29*
X485902Y30734D03*
D11*
X484886Y30734D03*
D14*
X593725Y30988D03*
X588645Y30988D03*
D26*
X584327Y30988D03*
D16*
X579628Y30988D03*
D14*
X575691Y30988D03*
D16*
X571754Y30988D03*
X566928Y30988D03*
D22*
X561848Y30988D03*
D13*
X558673Y30988D03*
D17*
X553212Y30988D03*
D16*
X546862Y30988D03*
X543814Y30988D03*
D14*
X539623Y30988D03*
D31*
X534035Y30988D03*
D12*
X526669Y30988D03*
D13*
X525399Y30988D03*
D20*
X518922Y30988D03*
D16*
X509270Y30988D03*
D14*
X502285Y30988D03*
D26*
X497713Y30988D03*
D14*
X493141Y30988D03*
D16*
X485394Y30988D03*
X593598Y31242D03*
D14*
X588645Y31242D03*
D25*
X584454Y31242D03*
D16*
X579628Y31242D03*
D14*
X575691Y31242D03*
D16*
X571754Y31242D03*
X566928Y31242D03*
D24*
X561213Y31242D03*
D17*
X553212Y31242D03*
D27*
X545338Y31242D03*
D14*
X539623Y31242D03*
D31*
X534035Y31242D03*
D25*
X526288Y31242D03*
D20*
X518922Y31242D03*
D16*
X509270Y31242D03*
D14*
X502285Y31242D03*
D25*
X497840Y31242D03*
D14*
X493141Y31242D03*
D31*
X487299Y31242D03*
D16*
X593598Y31496D03*
D14*
X588645Y31496D03*
D12*
X584581Y31496D03*
D16*
X579628Y31496D03*
D14*
X575691Y31496D03*
D16*
X572008Y31496D03*
D14*
X566801Y31496D03*
D24*
X561213Y31496D03*
X553339Y31496D03*
D21*
X545211Y31496D03*
D14*
X539623Y31496D03*
D20*
X533908Y31496D03*
D12*
X526415Y31496D03*
D20*
X518922Y31496D03*
D16*
X509270Y31496D03*
X502158Y31496D03*
D12*
X497967Y31496D03*
D14*
X493141Y31496D03*
D31*
X487299Y31496D03*
D16*
X593598Y31750D03*
D14*
X588645Y31750D03*
D16*
X584708Y31750D03*
X579628Y31750D03*
D14*
X575691Y31750D03*
D16*
X572008Y31750D03*
X566674Y31750D03*
D24*
X561213Y31750D03*
D23*
X553593Y31750D03*
D33*
X545211Y31750D03*
D14*
X539623Y31750D03*
D31*
X534035Y31750D03*
D12*
X526415Y31750D03*
D20*
X518922Y31750D03*
D16*
X509270Y31750D03*
D14*
X502285Y31750D03*
D16*
X498094Y31750D03*
D14*
X493141Y31750D03*
D31*
X487299Y31750D03*
D16*
X593598Y32004D03*
D14*
X588645Y32004D03*
D16*
X584708Y32004D03*
X579628Y32004D03*
D14*
X575691Y32004D03*
D12*
X572135Y32004D03*
D16*
X566674Y32004D03*
D24*
X561213Y32004D03*
D21*
X553847Y32004D03*
D30*
X545211Y32004D03*
D14*
X539623Y32004D03*
D31*
X534035Y32004D03*
D16*
X526288Y32004D03*
D20*
X518922Y32004D03*
D14*
X509397Y32004D03*
X502285Y32004D03*
D16*
X498094Y32004D03*
D14*
X493141Y32004D03*
D31*
X487299Y32004D03*
D14*
X545211Y32258D03*
D16*
X527558Y33274D03*
D14*
X525145Y33274D03*
X527431Y33528D03*
X525145Y33528D03*
X527431Y33782D03*
X525145Y33782D03*
X527431Y34036D03*
X525145Y34036D03*
D12*
X592709Y36322D03*
D26*
X584327Y36322D03*
D14*
X578231Y36322D03*
X573405Y36322D03*
X570611Y36322D03*
X564515Y36322D03*
X561467Y36322D03*
X556387Y36322D03*
X552831Y36322D03*
D29*
X547624Y36322D03*
D24*
X542163Y36322D03*
D25*
X534924Y36322D03*
D14*
X526415Y36322D03*
D16*
X521462Y36322D03*
D24*
X516255Y36322D03*
D16*
X511048Y36322D03*
D19*
X501904Y36322D03*
D17*
X495046Y36322D03*
D16*
X489712Y36322D03*
X485140Y36322D03*
D32*
X592582Y36576D03*
D18*
X584454Y36576D03*
D14*
X578231Y36576D03*
X573405Y36576D03*
X570611Y36576D03*
X564515Y36576D03*
X561467Y36576D03*
X556387Y36576D03*
X552831Y36576D03*
X547751Y36576D03*
D24*
X542163Y36576D03*
D18*
X535178Y36576D03*
D14*
X526415Y36576D03*
D16*
X521716Y36576D03*
D17*
X516382Y36576D03*
D16*
X511048Y36576D03*
D19*
X501904Y36576D03*
D17*
X495046Y36576D03*
D16*
X489712Y36576D03*
D14*
X485267Y36576D03*
D32*
X592836Y36830D03*
D13*
X590931Y36830D03*
D27*
X584454Y36830D03*
D14*
X578231Y36830D03*
D16*
X573532Y36830D03*
D14*
X570357Y36830D03*
D16*
X564642Y36830D03*
D14*
X561467Y36830D03*
D13*
X557149Y36830D03*
D29*
X556260Y36830D03*
D14*
X552831Y36830D03*
D16*
X547878Y36830D03*
D24*
X542163Y36830D03*
D21*
X535305Y36830D03*
D14*
X526415Y36830D03*
D12*
X521843Y36830D03*
D17*
X516382Y36830D03*
D16*
X511048Y36830D03*
D19*
X501904Y36830D03*
D17*
X495046Y36830D03*
D16*
X489712Y36830D03*
X485394Y36830D03*
D21*
X592709Y37084D03*
D19*
X584454Y37084D03*
D14*
X578231Y37084D03*
D16*
X573532Y37084D03*
X570230Y37084D03*
D14*
X564769Y37084D03*
X561467Y37084D03*
D12*
X556641Y37084D03*
D14*
X552831Y37084D03*
D12*
X548005Y37084D03*
D24*
X542163Y37084D03*
D19*
X535178Y37084D03*
D14*
X526415Y37084D03*
D16*
X521970Y37084D03*
D17*
X516382Y37084D03*
D16*
X511048Y37084D03*
D19*
X501904Y37084D03*
D17*
X495046Y37084D03*
D16*
X489712Y37084D03*
X485648Y37084D03*
D21*
X592455Y37338D03*
D17*
X584454Y37338D03*
D14*
X578231Y37338D03*
D16*
X573532Y37338D03*
X570230Y37338D03*
X564896Y37338D03*
D14*
X561467Y37338D03*
D12*
X556641Y37338D03*
D14*
X552831Y37338D03*
D12*
X548005Y37338D03*
D24*
X542163Y37338D03*
X535305Y37338D03*
D14*
X526415Y37338D03*
D16*
X522224Y37338D03*
D17*
X516382Y37338D03*
D16*
X511048Y37338D03*
D19*
X501904Y37338D03*
D24*
X495173Y37338D03*
D16*
X489712Y37338D03*
D14*
X485775Y37338D03*
D29*
X593852Y37592D03*
D16*
X591058Y37592D03*
D25*
X586486Y37592D03*
X582422Y37592D03*
D14*
X578231Y37592D03*
D16*
X573532Y37592D03*
D14*
X570103Y37592D03*
X565023Y37592D03*
X561467Y37592D03*
D25*
X556768Y37592D03*
D14*
X552831Y37592D03*
D25*
X548132Y37592D03*
D14*
X544195Y37592D03*
D16*
X536956Y37592D03*
X533146Y37592D03*
D14*
X526415Y37592D03*
D12*
X522351Y37592D03*
D16*
X518414Y37592D03*
X511048Y37592D03*
X503682Y37592D03*
X497078Y37592D03*
X489712Y37592D03*
X485902Y37592D03*
D13*
X593979Y37846D03*
D16*
X590804Y37846D03*
D12*
X586867Y37846D03*
X582041Y37846D03*
D14*
X578231Y37846D03*
D16*
X573532Y37846D03*
X569976Y37846D03*
D14*
X565023Y37846D03*
X561467Y37846D03*
D26*
X556895Y37846D03*
D14*
X552831Y37846D03*
D26*
X548259Y37846D03*
D14*
X544195Y37846D03*
D34*
X537083Y37846D03*
D16*
X533146Y37846D03*
D14*
X526415Y37846D03*
D16*
X522478Y37846D03*
D14*
X518541Y37846D03*
D16*
X511048Y37846D03*
D14*
X503809Y37846D03*
X497205Y37846D03*
D16*
X489712Y37846D03*
X486156Y37846D03*
X590804Y38100D03*
X586994Y38100D03*
X581914Y38100D03*
D14*
X578231Y38100D03*
D16*
X573532Y38100D03*
D20*
X567436Y38100D03*
D14*
X561467Y38100D03*
D28*
X557022Y38100D03*
D14*
X552831Y38100D03*
D11*
X549402Y38100D03*
D12*
X548005Y38100D03*
D14*
X544195Y38100D03*
D13*
X537083Y38100D03*
D14*
X533019Y38100D03*
X526415Y38100D03*
D16*
X522732Y38100D03*
X518414Y38100D03*
X511048Y38100D03*
D14*
X503809Y38100D03*
X497205Y38100D03*
D16*
X489712Y38100D03*
X486410Y38100D03*
X590804Y38354D03*
X587248Y38354D03*
X581660Y38354D03*
D14*
X578231Y38354D03*
D16*
X573532Y38354D03*
D31*
X567563Y38354D03*
D14*
X561467Y38354D03*
D30*
X557149Y38354D03*
D14*
X552831Y38354D03*
D30*
X548513Y38354D03*
D14*
X544195Y38354D03*
X533019Y38354D03*
X526415Y38354D03*
D16*
X522986Y38354D03*
X518414Y38354D03*
X511048Y38354D03*
D14*
X503809Y38354D03*
X497205Y38354D03*
X489839Y38354D03*
D16*
X486410Y38354D03*
X590804Y38608D03*
X587248Y38608D03*
X581660Y38608D03*
D14*
X578231Y38608D03*
D16*
X573532Y38608D03*
D17*
X567436Y38608D03*
D14*
X561467Y38608D03*
D32*
X557276Y38608D03*
D14*
X552831Y38608D03*
D30*
X548513Y38608D03*
D14*
X544195Y38608D03*
X533019Y38608D03*
X526415Y38608D03*
D16*
X523240Y38608D03*
X518414Y38608D03*
X511048Y38608D03*
X509270Y38608D03*
D14*
X503809Y38608D03*
D16*
X497078Y38608D03*
X489712Y38608D03*
X486664Y38608D03*
X590804Y38862D03*
X587502Y38862D03*
X581406Y38862D03*
D14*
X578231Y38862D03*
D16*
X573532Y38862D03*
D24*
X567563Y38862D03*
D14*
X561467Y38862D03*
D32*
X557276Y38862D03*
D14*
X552831Y38862D03*
D13*
X550037Y38862D03*
D28*
X548386Y38862D03*
D14*
X544195Y38862D03*
D12*
X533273Y38862D03*
D16*
X526288Y38862D03*
D12*
X523367Y38862D03*
D16*
X518414Y38862D03*
D21*
X509651Y38862D03*
D14*
X503809Y38862D03*
D16*
X497078Y38862D03*
D27*
X488188Y38862D03*
D14*
X590677Y39116D03*
D16*
X587502Y39116D03*
X581406Y39116D03*
D14*
X578231Y39116D03*
X573405Y39116D03*
D16*
X569214Y39116D03*
D15*
X566547Y39116D03*
D14*
X561467Y39116D03*
D16*
X558292Y39116D03*
D14*
X556387Y39116D03*
X552831Y39116D03*
D16*
X549656Y39116D03*
D14*
X547751Y39116D03*
X544195Y39116D03*
D26*
X533527Y39116D03*
D25*
X526034Y39116D03*
D16*
X523494Y39116D03*
D14*
X518541Y39116D03*
D23*
X509397Y39116D03*
D14*
X503809Y39116D03*
X497205Y39116D03*
D23*
X488061Y39116D03*
D14*
X590677Y39370D03*
D16*
X587502Y39370D03*
X581406Y39370D03*
X578104Y39370D03*
D21*
X574929Y39370D03*
D14*
X569341Y39370D03*
D16*
X565658Y39370D03*
D14*
X561467Y39370D03*
D16*
X558546Y39370D03*
D14*
X556387Y39370D03*
X552831Y39370D03*
D16*
X549910Y39370D03*
D14*
X547751Y39370D03*
D16*
X544068Y39370D03*
D13*
X542671Y39370D03*
D29*
X534924Y39370D03*
D16*
X533400Y39370D03*
D25*
X526034Y39370D03*
D16*
X523748Y39370D03*
X518414Y39370D03*
D13*
X517017Y39370D03*
D19*
X509270Y39370D03*
D14*
X503809Y39370D03*
D16*
X497078Y39370D03*
D11*
X493522Y39370D03*
D19*
X487934Y39370D03*
D14*
X590677Y39624D03*
D16*
X587502Y39624D03*
D14*
X581279Y39624D03*
D20*
X575818Y39624D03*
D14*
X569341Y39624D03*
X565785Y39624D03*
X561467Y39624D03*
D12*
X558673Y39624D03*
D14*
X556387Y39624D03*
X552831Y39624D03*
D12*
X550037Y39624D03*
D14*
X547751Y39624D03*
D23*
X542417Y39624D03*
D15*
X534543Y39624D03*
D22*
X525018Y39624D03*
D19*
X516636Y39624D03*
D24*
X509143Y39624D03*
D14*
X503809Y39624D03*
D19*
X495300Y39624D03*
D17*
X487680Y39624D03*
D14*
X590677Y39878D03*
X587629Y39878D03*
X581279Y39878D03*
D20*
X575818Y39878D03*
D14*
X569087Y39878D03*
D16*
X565912Y39878D03*
D14*
X561467Y39878D03*
D16*
X558800Y39878D03*
D14*
X556387Y39878D03*
X552831Y39878D03*
D16*
X550164Y39878D03*
D14*
X547751Y39878D03*
D23*
X542417Y39878D03*
D18*
X534924Y39878D03*
D33*
X525145Y39878D03*
D19*
X516636Y39878D03*
D16*
X511048Y39878D03*
D12*
X507111Y39878D03*
D14*
X503809Y39878D03*
D19*
X495300Y39878D03*
D16*
X489712Y39878D03*
D18*
X486664Y39878D03*
D14*
X590677Y40132D03*
X587629Y40132D03*
X581279Y40132D03*
D20*
X575818Y40132D03*
D14*
X569087Y40132D03*
X566039Y40132D03*
X561467Y40132D03*
D16*
X559054Y40132D03*
D14*
X556387Y40132D03*
X552831Y40132D03*
D16*
X550418Y40132D03*
D14*
X547751Y40132D03*
D23*
X542417Y40132D03*
D18*
X535432Y40132D03*
X525272Y40132D03*
D19*
X516636Y40132D03*
D16*
X511048Y40132D03*
X506984Y40132D03*
D14*
X503809Y40132D03*
D19*
X495300Y40132D03*
D14*
X489839Y40132D03*
D16*
X485394Y40132D03*
D14*
X590677Y40386D03*
D16*
X587502Y40386D03*
X581406Y40386D03*
D20*
X575818Y40386D03*
D14*
X568833Y40386D03*
D16*
X566166Y40386D03*
D14*
X561467Y40386D03*
D16*
X559308Y40386D03*
D14*
X556387Y40386D03*
X552831Y40386D03*
D16*
X550672Y40386D03*
D14*
X547751Y40386D03*
D23*
X542417Y40386D03*
D15*
X535813Y40386D03*
D16*
X526288Y40386D03*
X524510Y40386D03*
D19*
X516636Y40386D03*
D16*
X511048Y40386D03*
X506730Y40386D03*
D14*
X503809Y40386D03*
D19*
X495300Y40386D03*
D16*
X489712Y40386D03*
D14*
X485267Y40386D03*
X590677Y40640D03*
D16*
X587502Y40640D03*
X581406Y40640D03*
D14*
X578231Y40640D03*
D16*
X573532Y40640D03*
D14*
X568833Y40640D03*
X566293Y40640D03*
X561467Y40640D03*
D16*
X559562Y40640D03*
D14*
X556387Y40640D03*
X552831Y40640D03*
D16*
X550926Y40640D03*
D14*
X547751Y40640D03*
X544195Y40640D03*
D26*
X536321Y40640D03*
D14*
X526415Y40640D03*
X524383Y40640D03*
D16*
X518414Y40640D03*
X511048Y40640D03*
X506730Y40640D03*
D14*
X503809Y40640D03*
D16*
X497078Y40640D03*
X489712Y40640D03*
X485140Y40640D03*
D14*
X590677Y40894D03*
D16*
X587502Y40894D03*
X581406Y40894D03*
D14*
X578231Y40894D03*
X573405Y40894D03*
D16*
X568706Y40894D03*
D14*
X566293Y40894D03*
X561467Y40894D03*
D12*
X559689Y40894D03*
D14*
X556387Y40894D03*
X552831Y40894D03*
D16*
X550926Y40894D03*
D14*
X547751Y40894D03*
X544195Y40894D03*
D25*
X536702Y40894D03*
D14*
X526415Y40894D03*
D16*
X524256Y40894D03*
D14*
X518541Y40894D03*
D16*
X511048Y40894D03*
X506730Y40894D03*
D14*
X503809Y40894D03*
X497205Y40894D03*
D16*
X489712Y40894D03*
D14*
X485013Y40894D03*
X590677Y41148D03*
X587375Y41148D03*
D16*
X581406Y41148D03*
D14*
X578231Y41148D03*
D16*
X573532Y41148D03*
D14*
X568579Y41148D03*
X566547Y41148D03*
D32*
X560578Y41148D03*
D14*
X556387Y41148D03*
D32*
X551942Y41148D03*
D14*
X547751Y41148D03*
X544195Y41148D03*
D16*
X536956Y41148D03*
D14*
X526415Y41148D03*
X523875Y41148D03*
D16*
X518414Y41148D03*
X511048Y41148D03*
X506730Y41148D03*
D14*
X503809Y41148D03*
X497205Y41148D03*
D16*
X489712Y41148D03*
D14*
X485013Y41148D03*
X590677Y41402D03*
D16*
X587248Y41402D03*
X581660Y41402D03*
D14*
X578231Y41402D03*
D16*
X573532Y41402D03*
D14*
X568579Y41402D03*
X566547Y41402D03*
D30*
X560705Y41402D03*
D14*
X556387Y41402D03*
D30*
X552069Y41402D03*
D14*
X547751Y41402D03*
X544195Y41402D03*
X537083Y41402D03*
X526415Y41402D03*
X523621Y41402D03*
D16*
X518414Y41402D03*
X511048Y41402D03*
X506730Y41402D03*
D14*
X503809Y41402D03*
X497205Y41402D03*
D16*
X489712Y41402D03*
X485140Y41402D03*
D14*
X590677Y41656D03*
D12*
X587121Y41656D03*
X581787Y41656D03*
D14*
X578231Y41656D03*
D16*
X573532Y41656D03*
D14*
X568325Y41656D03*
X566547Y41656D03*
D28*
X560832Y41656D03*
D14*
X556387Y41656D03*
D30*
X552069Y41656D03*
D14*
X547751Y41656D03*
X544195Y41656D03*
X537083Y41656D03*
X526415Y41656D03*
D16*
X523494Y41656D03*
X518414Y41656D03*
X511048Y41656D03*
X506730Y41656D03*
D14*
X503809Y41656D03*
X497205Y41656D03*
D16*
X489712Y41656D03*
X485140Y41656D03*
D14*
X590677Y41910D03*
D12*
X586867Y41910D03*
X582041Y41910D03*
D14*
X578231Y41910D03*
D16*
X573532Y41910D03*
D30*
X567563Y41910D03*
D28*
X560832Y41910D03*
D14*
X556387Y41910D03*
D28*
X552196Y41910D03*
D14*
X547751Y41910D03*
X544195Y41910D03*
X537083Y41910D03*
D13*
X533273Y41910D03*
D14*
X526415Y41910D03*
X523367Y41910D03*
D16*
X518414Y41910D03*
X511048Y41910D03*
X506984Y41910D03*
D14*
X503809Y41910D03*
X497205Y41910D03*
D16*
X489712Y41910D03*
X485140Y41910D03*
D14*
X590677Y42164D03*
D12*
X586613Y42164D03*
D25*
X582168Y42164D03*
D14*
X578231Y42164D03*
D16*
X573532Y42164D03*
D28*
X567436Y42164D03*
D26*
X560959Y42164D03*
D14*
X556387Y42164D03*
D26*
X552323Y42164D03*
D14*
X547751Y42164D03*
X544195Y42164D03*
D16*
X536956Y42164D03*
D34*
X533527Y42164D03*
D14*
X526415Y42164D03*
D16*
X522986Y42164D03*
D14*
X518541Y42164D03*
D16*
X511048Y42164D03*
D12*
X507111Y42164D03*
D14*
X503809Y42164D03*
X497205Y42164D03*
D16*
X489712Y42164D03*
X485394Y42164D03*
D14*
X590677Y42418D03*
D28*
X585978Y42418D03*
X582676Y42418D03*
D14*
X578231Y42418D03*
D16*
X573532Y42418D03*
D26*
X567563Y42418D03*
D25*
X561086Y42418D03*
D14*
X556387Y42418D03*
D25*
X552450Y42418D03*
D14*
X547751Y42418D03*
D16*
X544068Y42418D03*
D18*
X541274Y42418D03*
D16*
X536702Y42418D03*
D12*
X533781Y42418D03*
D14*
X526415Y42418D03*
D16*
X522732Y42418D03*
X518414Y42418D03*
D15*
X515493Y42418D03*
D16*
X511048Y42418D03*
D18*
X508254Y42418D03*
D14*
X503809Y42418D03*
D16*
X497078Y42418D03*
D18*
X494284Y42418D03*
D16*
X489712Y42418D03*
D22*
X486664Y42418D03*
D14*
X590677Y42672D03*
D17*
X584454Y42672D03*
D14*
X578231Y42672D03*
D16*
X573532Y42672D03*
D26*
X567563Y42672D03*
D12*
X561213Y42672D03*
D14*
X556387Y42672D03*
D12*
X552577Y42672D03*
D14*
X547751Y42672D03*
D24*
X542163Y42672D03*
D21*
X535051Y42672D03*
D14*
X526415Y42672D03*
D16*
X522478Y42672D03*
D17*
X516382Y42672D03*
D24*
X509143Y42672D03*
D14*
X503809Y42672D03*
D17*
X495046Y42672D03*
X487680Y42672D03*
D14*
X590677Y42926D03*
D23*
X584327Y42926D03*
D14*
X578231Y42926D03*
D16*
X573532Y42926D03*
D25*
X567436Y42926D03*
D12*
X561213Y42926D03*
D14*
X556387Y42926D03*
D12*
X552577Y42926D03*
D14*
X547751Y42926D03*
D24*
X542163Y42926D03*
D27*
X534924Y42926D03*
D14*
X526415Y42926D03*
D16*
X522224Y42926D03*
D17*
X516382Y42926D03*
D19*
X509270Y42926D03*
D14*
X503809Y42926D03*
D17*
X495046Y42926D03*
X487680Y42926D03*
D14*
X590677Y43180D03*
D22*
X584454Y43180D03*
D14*
X578231Y43180D03*
D16*
X573532Y43180D03*
D12*
X567563Y43180D03*
D16*
X561340Y43180D03*
D14*
X556387Y43180D03*
D16*
X552704Y43180D03*
D14*
X547751Y43180D03*
D24*
X542163Y43180D03*
D33*
X535051Y43180D03*
D14*
X526415Y43180D03*
D16*
X521970Y43180D03*
D17*
X516382Y43180D03*
D27*
X509524Y43180D03*
D14*
X503809Y43180D03*
D17*
X495046Y43180D03*
D19*
X487934Y43180D03*
D16*
X590804Y43434D03*
D32*
X584454Y43434D03*
D14*
X578231Y43434D03*
D16*
X573532Y43434D03*
X567436Y43434D03*
D14*
X561467Y43434D03*
X556387Y43434D03*
X552831Y43434D03*
X547751Y43434D03*
D24*
X542163Y43434D03*
D30*
X535051Y43434D03*
D14*
X526415Y43434D03*
D16*
X521716Y43434D03*
D17*
X516382Y43434D03*
D22*
X509778Y43434D03*
D14*
X503809Y43434D03*
D17*
X495046Y43434D03*
D21*
X488315Y43434D03*
D29*
X584454Y43688D03*
D13*
X535305Y43688D03*
D24*
X617093Y55118D03*
D35*
X525018Y55118D03*
D36*
X616966Y55372D03*
D37*
X525145Y55372D03*
D38*
X616966Y55626D03*
D39*
X572770Y55626D03*
D40*
X525018Y55626D03*
X616966Y55880D03*
D39*
X572770Y55880D03*
D41*
X525018Y55880D03*
D42*
X617093Y56134D03*
D39*
X572770Y56134D03*
D43*
X525018Y56134D03*
D44*
X616966Y56388D03*
D39*
X572770Y56388D03*
D45*
X525018Y56388D03*
D46*
X617093Y56642D03*
D39*
X572770Y56642D03*
D47*
X525018Y56642D03*
D48*
X616966Y56896D03*
D39*
X572770Y56896D03*
D49*
X525018Y56896D03*
D50*
X617093Y57150D03*
D39*
X572770Y57150D03*
D51*
X525018Y57150D03*
D52*
X616966Y57404D03*
D39*
X572770Y57404D03*
D53*
X524891Y57404D03*
D54*
X617093Y57658D03*
D39*
X572770Y57658D03*
D55*
X524891Y57658D03*
D56*
X617093Y57912D03*
D39*
X572770Y57912D03*
D57*
X525018Y57912D03*
D58*
X617093Y58166D03*
D39*
X572770Y58166D03*
D59*
X525018Y58166D03*
D53*
X617093Y58420D03*
D39*
X572770Y58420D03*
D60*
X525018Y58420D03*
D55*
X617093Y58674D03*
D39*
X572770Y58674D03*
D61*
X525018Y58674D03*
D62*
X617093Y58928D03*
D39*
X572770Y58928D03*
D63*
X525018Y58928D03*
D64*
X617220Y59182D03*
D39*
X572770Y59182D03*
D65*
X524891Y59182D03*
D59*
X617220Y59436D03*
D39*
X572770Y59436D03*
D66*
X525018Y59436D03*
D67*
X617347Y59690D03*
D39*
X572770Y59690D03*
D68*
X524891Y59690D03*
D69*
X617347Y59944D03*
D39*
X572770Y59944D03*
D70*
X525018Y59944D03*
D71*
X617347Y60198D03*
D39*
X572770Y60198D03*
D72*
X525018Y60198D03*
D73*
X617347Y60452D03*
D39*
X572770Y60452D03*
D74*
X525018Y60452D03*
D65*
X617347Y60706D03*
D39*
X572770Y60706D03*
D75*
X525018Y60706D03*
D76*
X617474Y60960D03*
D39*
X572770Y60960D03*
D77*
X524891Y60960D03*
D73*
X618109Y61214D03*
D29*
X604520Y61214D03*
D39*
X572770Y61214D03*
D78*
X524891Y61214D03*
D11*
X612902Y58928D03*
D76*
X616966Y61468D03*
D39*
X572770Y61468D03*
D79*
X525018Y61468D03*
D66*
X617220Y61722D03*
D39*
X572770Y61722D03*
D80*
X525018Y61722D03*
D66*
X616966Y61976D03*
D39*
X572770Y61976D03*
D81*
X524891Y61976D03*
D82*
X616839Y62230D03*
D39*
X572770Y62230D03*
D83*
X525018Y62230D03*
D82*
X616585Y62484D03*
D39*
X572770Y62484D03*
D84*
X525018Y62484D03*
D76*
X616458Y62738D03*
D39*
X572770Y62738D03*
D85*
X524891Y62738D03*
D76*
X616204Y62992D03*
D39*
X572770Y62992D03*
D86*
X525018Y62992D03*
D76*
X616204Y63246D03*
D39*
X572770Y63246D03*
D87*
X524891Y63246D03*
D76*
X615950Y63500D03*
D39*
X572770Y63500D03*
D88*
X533908Y63500D03*
D89*
X516001Y63500D03*
D90*
X623951Y63754D03*
D91*
X608965Y63754D03*
D39*
X572770Y63754D03*
D92*
X534670Y63754D03*
X515112Y63754D03*
D93*
X624459Y64008D03*
D94*
X608711Y64008D03*
D39*
X572770Y64008D03*
D95*
X535178Y64008D03*
D96*
X514731Y64008D03*
D97*
X624459Y64262D03*
D98*
X608203Y64262D03*
D39*
X572770Y64262D03*
D91*
X535559Y64262D03*
X514223Y64262D03*
D35*
X624586Y64516D03*
D99*
X608076Y64516D03*
D39*
X572770Y64516D03*
D40*
X535940Y64516D03*
D94*
X513969Y64516D03*
D100*
X624713Y64770D03*
D101*
X607949Y64770D03*
D102*
X536194Y64770D03*
X513588Y64770D03*
D17*
X624840Y65024D03*
D38*
X607822Y65024D03*
D98*
X536321Y65024D03*
X513461Y65024D03*
D19*
X624840Y65278D03*
D38*
X607568Y65278D03*
D11*
X572770Y65278D03*
D98*
X536575Y65278D03*
X513207Y65278D03*
D21*
X624967Y65532D03*
D37*
X607441Y65532D03*
D14*
X572643Y65532D03*
D101*
X536829Y65532D03*
X512953Y65532D03*
D33*
X624967Y65786D03*
D103*
X607314Y65786D03*
D16*
X572770Y65786D03*
D101*
X537083Y65786D03*
D38*
X512826Y65786D03*
D15*
X625221Y66040D03*
D103*
X607314Y66040D03*
D26*
X572643Y66040D03*
D38*
X537210Y66040D03*
D37*
X512699Y66040D03*
D32*
X625094Y66294D03*
D103*
X607060Y66294D03*
D32*
X572770Y66294D03*
D37*
X537337Y66294D03*
X512445Y66294D03*
D28*
X625094Y66548D03*
D103*
X607060Y66548D03*
D18*
X572770Y66548D03*
D38*
X537464Y66548D03*
D37*
X512445Y66548D03*
D12*
X625221Y66802D03*
D90*
X606933Y66802D03*
D22*
X572770Y66802D03*
D37*
X537591Y66802D03*
D103*
X512318Y66802D03*
D14*
X625221Y67056D03*
D90*
X606933Y67056D03*
D27*
X572770Y67056D03*
D103*
X537718Y67056D03*
X512064Y67056D03*
D29*
X625094Y67310D03*
D90*
X606933Y67310D03*
D24*
X572643Y67310D03*
D37*
X537845Y67310D03*
D90*
X511937Y67310D03*
D11*
X625094Y67564D03*
D104*
X606806Y67564D03*
D20*
X572770Y67564D03*
D103*
X537972Y67564D03*
D90*
X511937Y67564D03*
D104*
X606806Y67818D03*
D105*
X572770Y67818D03*
D90*
X538099Y67818D03*
D104*
X511810Y67818D03*
D90*
X606679Y68072D03*
D35*
X572770Y68072D03*
D90*
X538099Y68072D03*
X511683Y68072D03*
D104*
X606552Y68326D03*
D106*
X572770Y68326D03*
D104*
X538226Y68326D03*
X511556Y68326D03*
X606552Y68580D03*
D93*
X572643Y68580D03*
D90*
X538353Y68580D03*
D104*
X511556Y68580D03*
X606552Y68834D03*
D107*
X572643Y68834D03*
D104*
X538480Y68834D03*
D108*
X511429Y68834D03*
D104*
X606552Y69088D03*
D108*
X572643Y69088D03*
D104*
X538480Y69088D03*
X511302Y69088D03*
X606552Y69342D03*
D103*
X572770Y69342D03*
D104*
X538480Y69342D03*
X511302Y69342D03*
X606552Y69596D03*
D38*
X572770Y69596D03*
D108*
X538607Y69596D03*
X511175Y69596D03*
D104*
X606552Y69850D03*
D99*
X572770Y69850D03*
D108*
X538607Y69850D03*
X511175Y69850D03*
D104*
X606552Y70104D03*
D94*
X572643Y70104D03*
D108*
X538607Y70104D03*
X511175Y70104D03*
D104*
X606552Y70358D03*
D91*
X572643Y70358D03*
D104*
X538734Y70358D03*
D108*
X511175Y70358D03*
D104*
X606552Y70612D03*
D95*
X572770Y70612D03*
D108*
X538861Y70612D03*
X510921Y70612D03*
D104*
X606552Y70866D03*
D42*
X572643Y70866D03*
D108*
X538861Y70866D03*
X510921Y70866D03*
D104*
X606552Y71120D03*
D11*
X579628Y71120D03*
D42*
X572389Y71120D03*
D108*
X538861Y71120D03*
X510921Y71120D03*
D104*
X606552Y71374D03*
D44*
X572770Y71374D03*
D108*
X538861Y71374D03*
X510921Y71374D03*
D104*
X606552Y71628D03*
D109*
X572643Y71628D03*
D108*
X538861Y71628D03*
X510921Y71628D03*
D104*
X606552Y71882D03*
D46*
X572643Y71882D03*
D108*
X538861Y71882D03*
X510921Y71882D03*
D104*
X606552Y72136D03*
D48*
X572770Y72136D03*
D110*
X538988Y72136D03*
X510794Y72136D03*
D104*
X606552Y72390D03*
D45*
X572770Y72390D03*
D110*
X538988Y72390D03*
X510794Y72390D03*
D104*
X606552Y72644D03*
D111*
X572770Y72644D03*
D108*
X539115Y72644D03*
D110*
X510794Y72644D03*
D104*
X606552Y72898D03*
D47*
X572770Y72898D03*
D108*
X539115Y72898D03*
D110*
X510794Y72898D03*
D104*
X606552Y73152D03*
D112*
X572643Y73152D03*
D108*
X539115Y73152D03*
D110*
X510794Y73152D03*
D104*
X606552Y73406D03*
D54*
X572643Y73406D03*
D108*
X539115Y73406D03*
D110*
X510794Y73406D03*
D104*
X606552Y73660D03*
D51*
X572770Y73660D03*
D108*
X539115Y73660D03*
D110*
X510794Y73660D03*
D104*
X606552Y73914D03*
D113*
X572770Y73914D03*
D108*
X539115Y73914D03*
D110*
X510794Y73914D03*
D104*
X606552Y74168D03*
D114*
X572770Y74168D03*
D108*
X539115Y74168D03*
D110*
X510794Y74168D03*
D104*
X606552Y74422D03*
D115*
X572770Y74422D03*
D108*
X539115Y74422D03*
D110*
X510794Y74422D03*
D104*
X606552Y74676D03*
D62*
X572643Y74676D03*
D108*
X539115Y74676D03*
D110*
X510794Y74676D03*
D104*
X606552Y74930D03*
D57*
X572770Y74930D03*
D108*
X539115Y74930D03*
D110*
X510794Y74930D03*
D104*
X606552Y75184D03*
D116*
X572643Y75184D03*
D108*
X539115Y75184D03*
D110*
X510794Y75184D03*
D104*
X606552Y75438D03*
D67*
X572643Y75438D03*
D108*
X539115Y75438D03*
D110*
X510794Y75438D03*
D104*
X606552Y75692D03*
D61*
X572770Y75692D03*
D108*
X539115Y75692D03*
D110*
X510794Y75692D03*
D104*
X606552Y75946D03*
D117*
X572770Y75946D03*
D108*
X539115Y75946D03*
D110*
X510794Y75946D03*
D104*
X606552Y76200D03*
D118*
X579374Y76200D03*
D96*
X566039Y76200D03*
D108*
X539115Y76200D03*
D110*
X510794Y76200D03*
D104*
X606552Y76454D03*
D96*
X579501Y76454D03*
X565785Y76454D03*
D108*
X539115Y76454D03*
D110*
X510794Y76454D03*
D104*
X606552Y76708D03*
D96*
X580009Y76708D03*
X565531Y76708D03*
D108*
X539115Y76708D03*
D110*
X510794Y76708D03*
D104*
X606552Y76962D03*
D96*
X580263Y76962D03*
X565277Y76962D03*
D108*
X539115Y76962D03*
D110*
X510794Y76962D03*
D104*
X606552Y77216D03*
D96*
X580517Y77216D03*
D118*
X564896Y77216D03*
D108*
X539115Y77216D03*
D110*
X510794Y77216D03*
D104*
X606552Y77470D03*
D96*
X580771Y77470D03*
X564769Y77470D03*
D108*
X539115Y77470D03*
D110*
X510794Y77470D03*
D104*
X606552Y77724D03*
D96*
X581025Y77724D03*
X564261Y77724D03*
D108*
X539115Y77724D03*
D110*
X510794Y77724D03*
D104*
X606552Y77978D03*
D118*
X581406Y77978D03*
X564134Y77978D03*
D108*
X539115Y77978D03*
D110*
X510794Y77978D03*
D104*
X606552Y78232D03*
D96*
X581787Y78232D03*
X563753Y78232D03*
D108*
X539115Y78232D03*
D110*
X510794Y78232D03*
D104*
X606552Y78486D03*
D96*
X582041Y78486D03*
X563499Y78486D03*
D108*
X539115Y78486D03*
D110*
X510794Y78486D03*
D104*
X606552Y78740D03*
D96*
X582295Y78740D03*
X563245Y78740D03*
D108*
X539115Y78740D03*
D110*
X510794Y78740D03*
D104*
X606552Y78994D03*
D96*
X582549Y78994D03*
D118*
X562864Y78994D03*
D108*
X539115Y78994D03*
D110*
X510794Y78994D03*
D104*
X606552Y79248D03*
D118*
X582930Y79248D03*
D96*
X562483Y79248D03*
D108*
X539115Y79248D03*
D110*
X510794Y79248D03*
D104*
X606552Y79502D03*
D95*
X583184Y79502D03*
D96*
X562229Y79502D03*
D108*
X539115Y79502D03*
D110*
X510794Y79502D03*
D104*
X606552Y79756D03*
D96*
X583565Y79756D03*
X561975Y79756D03*
D108*
X539115Y79756D03*
D110*
X510794Y79756D03*
D104*
X606552Y80010D03*
D96*
X583819Y80010D03*
X561721Y80010D03*
D108*
X539115Y80010D03*
D110*
X510794Y80010D03*
D104*
X606552Y80264D03*
D96*
X584073Y80264D03*
D118*
X561340Y80264D03*
D108*
X539115Y80264D03*
D110*
X510794Y80264D03*
D104*
X606552Y80518D03*
D96*
X584327Y80518D03*
D118*
X561086Y80518D03*
D108*
X539115Y80518D03*
D110*
X510794Y80518D03*
D104*
X606552Y80772D03*
D96*
X584581Y80772D03*
X560705Y80772D03*
D108*
X539115Y80772D03*
D110*
X510794Y80772D03*
D104*
X606552Y81026D03*
D118*
X584962Y81026D03*
D96*
X560451Y81026D03*
D108*
X539115Y81026D03*
D110*
X510794Y81026D03*
D104*
X606552Y81280D03*
D96*
X585343Y81280D03*
X560197Y81280D03*
D108*
X539115Y81280D03*
D110*
X510794Y81280D03*
D104*
X606552Y81534D03*
D96*
X585597Y81534D03*
X559943Y81534D03*
D108*
X539115Y81534D03*
D110*
X510794Y81534D03*
D104*
X606552Y81788D03*
D118*
X585978Y81788D03*
D96*
X559689Y81788D03*
D108*
X539115Y81788D03*
D110*
X510794Y81788D03*
D104*
X606552Y82042D03*
D96*
X586105Y82042D03*
X559181Y82042D03*
D108*
X539115Y82042D03*
D110*
X510794Y82042D03*
D104*
X606552Y82296D03*
D118*
X586486Y82296D03*
D96*
X558927Y82296D03*
D108*
X539115Y82296D03*
D110*
X510794Y82296D03*
D104*
X606552Y82550D03*
D118*
X586740Y82550D03*
D96*
X558673Y82550D03*
D108*
X539115Y82550D03*
D110*
X510794Y82550D03*
D104*
X606552Y82804D03*
D96*
X587121Y82804D03*
X558419Y82804D03*
D108*
X539115Y82804D03*
D110*
X510794Y82804D03*
D104*
X606552Y83058D03*
D118*
X587248Y83058D03*
D96*
X558165Y83058D03*
D108*
X539115Y83058D03*
D110*
X510794Y83058D03*
D104*
X606552Y83312D03*
D96*
X587629Y83312D03*
D118*
X557784Y83312D03*
D108*
X539115Y83312D03*
D110*
X510794Y83312D03*
D104*
X606552Y83566D03*
D96*
X587883Y83566D03*
D118*
X557530Y83566D03*
D108*
X539115Y83566D03*
D110*
X510794Y83566D03*
D104*
X606552Y83820D03*
D118*
X588010Y83820D03*
D91*
X557403Y83820D03*
D108*
X539115Y83820D03*
D110*
X510794Y83820D03*
D104*
X606552Y84074D03*
D98*
X588645Y84074D03*
D11*
X582422Y84074D03*
D40*
X557276Y84074D03*
D108*
X539115Y84074D03*
D110*
X510794Y84074D03*
D104*
X606552Y84328D03*
D94*
X588391Y84328D03*
X557149Y84328D03*
D108*
X539115Y84328D03*
D110*
X510794Y84328D03*
D104*
X606552Y84582D03*
D102*
X588518Y84582D03*
X557022Y84582D03*
D108*
X539115Y84582D03*
D110*
X510794Y84582D03*
D104*
X606552Y84836D03*
D98*
X588645Y84836D03*
D99*
X556768Y84836D03*
D108*
X539115Y84836D03*
D110*
X510794Y84836D03*
D104*
X606552Y85090D03*
D99*
X588772Y85090D03*
D101*
X556641Y85090D03*
D108*
X539115Y85090D03*
D110*
X510794Y85090D03*
D104*
X606552Y85344D03*
D38*
X589026Y85344D03*
X556514Y85344D03*
D108*
X539115Y85344D03*
D110*
X510794Y85344D03*
D104*
X606552Y85598D03*
D37*
X589153Y85598D03*
X556387Y85598D03*
D108*
X539115Y85598D03*
D110*
X510794Y85598D03*
D104*
X606552Y85852D03*
D103*
X589280Y85852D03*
X556260Y85852D03*
D108*
X539115Y85852D03*
D110*
X510794Y85852D03*
D104*
X606552Y86106D03*
D90*
X589407Y86106D03*
X556133Y86106D03*
D108*
X539115Y86106D03*
D110*
X510794Y86106D03*
D104*
X606552Y86360D03*
X589534Y86360D03*
X556006Y86360D03*
D108*
X539115Y86360D03*
D110*
X510794Y86360D03*
D104*
X606552Y86614D03*
D108*
X589661Y86614D03*
D110*
X555752Y86614D03*
D108*
X539115Y86614D03*
D110*
X510794Y86614D03*
D104*
X606552Y86868D03*
D110*
X589788Y86868D03*
D107*
X555625Y86868D03*
D108*
X539115Y86868D03*
D110*
X510794Y86868D03*
D104*
X606552Y87122D03*
D36*
X590042Y87122D03*
X555498Y87122D03*
D108*
X539115Y87122D03*
D110*
X510794Y87122D03*
D104*
X606552Y87376D03*
D93*
X590169Y87376D03*
X555371Y87376D03*
D108*
X539115Y87376D03*
D110*
X510794Y87376D03*
D104*
X606552Y87630D03*
D119*
X590296Y87630D03*
X555244Y87630D03*
D108*
X539115Y87630D03*
D110*
X510794Y87630D03*
D104*
X606552Y87884D03*
D97*
X590423Y87884D03*
X555117Y87884D03*
D108*
X539115Y87884D03*
D110*
X510794Y87884D03*
D104*
X606552Y88138D03*
D106*
X590550Y88138D03*
D120*
X554863Y88138D03*
D108*
X539115Y88138D03*
D110*
X510794Y88138D03*
D104*
X606552Y88392D03*
D120*
X590677Y88392D03*
D35*
X554736Y88392D03*
D108*
X539115Y88392D03*
D110*
X510794Y88392D03*
D104*
X606552Y88646D03*
D121*
X590931Y88646D03*
X554609Y88646D03*
D108*
X539115Y88646D03*
D110*
X510794Y88646D03*
D104*
X606552Y88900D03*
D105*
X591058Y88900D03*
X554482Y88900D03*
D108*
X539115Y88900D03*
D110*
X510794Y88900D03*
D104*
X606552Y89154D03*
D100*
X591185Y89154D03*
X554355Y89154D03*
D108*
X539115Y89154D03*
D110*
X510794Y89154D03*
D104*
X606552Y89408D03*
D20*
X591312Y89408D03*
D31*
X554101Y89408D03*
D108*
X539115Y89408D03*
D110*
X510794Y89408D03*
D104*
X606552Y89662D03*
D31*
X591439Y89662D03*
D17*
X553974Y89662D03*
D108*
X539115Y89662D03*
D110*
X510794Y89662D03*
D104*
X606552Y89916D03*
D17*
X591566Y89916D03*
D24*
X553847Y89916D03*
D108*
X539115Y89916D03*
D110*
X510794Y89916D03*
D104*
X606552Y90170D03*
D19*
X591820Y90170D03*
X553720Y90170D03*
D108*
X539115Y90170D03*
D110*
X510794Y90170D03*
D104*
X606552Y90424D03*
D23*
X591947Y90424D03*
X553593Y90424D03*
D108*
X539115Y90424D03*
D110*
X510794Y90424D03*
D104*
X606552Y90678D03*
D27*
X592074Y90678D03*
X553466Y90678D03*
D108*
X539115Y90678D03*
D110*
X510794Y90678D03*
D104*
X606552Y90932D03*
D21*
X592201Y90932D03*
X553339Y90932D03*
D108*
X539115Y90932D03*
D110*
X510794Y90932D03*
D104*
X606552Y91186D03*
D22*
X592328Y91186D03*
D33*
X553085Y91186D03*
D108*
X539115Y91186D03*
D110*
X510794Y91186D03*
D104*
X606552Y91440D03*
D33*
X592455Y91440D03*
D18*
X552958Y91440D03*
D108*
X539115Y91440D03*
D110*
X510794Y91440D03*
D104*
X606552Y91694D03*
D15*
X592709Y91694D03*
X552831Y91694D03*
D108*
X539115Y91694D03*
D110*
X510794Y91694D03*
D104*
X606552Y91948D03*
D32*
X592836Y91948D03*
X552704Y91948D03*
D108*
X539115Y91948D03*
D110*
X510794Y91948D03*
D104*
X606552Y92202D03*
D25*
X593344Y92202D03*
D11*
X591820Y92202D03*
D30*
X552577Y92202D03*
D108*
X539115Y92202D03*
D110*
X510794Y92202D03*
D104*
X606552Y92456D03*
D28*
X593090Y92456D03*
D26*
X552323Y92456D03*
D108*
X539115Y92456D03*
D110*
X510794Y92456D03*
D104*
X606552Y92710D03*
D26*
X593217Y92710D03*
D25*
X552196Y92710D03*
D108*
X539115Y92710D03*
D110*
X510794Y92710D03*
D104*
X606552Y92964D03*
D25*
X593344Y92964D03*
D12*
X552069Y92964D03*
D108*
X539115Y92964D03*
D110*
X510794Y92964D03*
D104*
X606552Y93218D03*
D16*
X593598Y93218D03*
X551942Y93218D03*
D108*
X539115Y93218D03*
D110*
X510794Y93218D03*
D104*
X606552Y93472D03*
D14*
X593725Y93472D03*
X551815Y93472D03*
D108*
X539115Y93472D03*
D110*
X510794Y93472D03*
D104*
X606552Y93726D03*
D29*
X593852Y93726D03*
X551688Y93726D03*
D108*
X539115Y93726D03*
D110*
X510794Y93726D03*
D104*
X606552Y93980D03*
D34*
X593979Y93980D03*
X551561Y93980D03*
D108*
X539115Y93980D03*
X510667Y93980D03*
X606425Y94234D03*
D11*
X594106Y94234D03*
D13*
X551307Y94234D03*
D108*
X539115Y94234D03*
X510667Y94234D03*
X606425Y94488D03*
X539115Y94488D03*
X510667Y94488D03*
D122*
X987298Y654050D02*
X987552Y654050D01*
X917702Y654050D02*
X911098Y654050D01*
X917702Y654050D02*
X917702Y146050D01*
X987298Y146050D02*
X987298Y654050D01*
X911098Y654050D02*
X911098Y146050D01*
X917702Y146050D01*
X929132Y637032D02*
X929132Y645668D01*
X929132Y637032D02*
X920750Y641350D01*
X929132Y645668D01*
X923290Y641350D02*
X920750Y641350D01*
X917702Y120904D02*
X930910Y120904D01*
X987552Y120904D02*
X987552Y129540D01*
X987552Y679450D02*
X974090Y679450D01*
X917702Y679450D02*
X917702Y670560D01*
X974090Y129540D02*
X987552Y129540D01*
X974090Y129540D02*
X974090Y120904D01*
X958850Y120904D02*
X958850Y129540D01*
X987552Y129540D02*
X987552Y146050D01*
X987298Y146050D01*
X987552Y120904D02*
X974090Y120904D01*
X958850Y120904D01*
X930910Y120904D02*
X930910Y129540D01*
X917702Y129540D01*
X930910Y120904D02*
X946150Y120904D01*
X946150Y129540D01*
X946150Y120904D02*
X958850Y120904D01*
X917702Y129540D02*
X917702Y146050D01*
X987552Y654050D02*
X987552Y670560D01*
X958850Y129540D02*
X946150Y129540D01*
X974090Y670560D02*
X987552Y670560D01*
X987552Y679450D01*
X974090Y679450D02*
X974090Y670560D01*
X958850Y670560D02*
X958850Y679450D01*
X958850Y670560D02*
X946150Y670560D01*
X946150Y679450D01*
X930910Y679450D02*
X930910Y670560D01*
X917702Y670560D01*
X946150Y679450D02*
X958850Y679450D01*
X974090Y679450D01*
X946150Y679450D02*
X930910Y679450D01*
X917702Y679450D01*
X917702Y670560D02*
X917702Y654050D01*
X917702Y129540D02*
X917702Y120904D01*
X930910Y658368D02*
X927862Y662178D01*
X941578Y662178D01*
X941578Y658368D02*
X941578Y665988D01*
D123*
X926084Y641350D03*
D124*
X927989Y643255D03*
X927989Y639445D03*
D125*
X924052Y641350D03*
D122*
X905510Y658368D02*
X902462Y662178D01*
X916178Y662178D01*
X916178Y658368D02*
X916178Y665988D01*
D126*
X343275Y24041D02*
X247621Y122191D01*
X345771Y121359D02*
X254275Y23209D01*
X288378Y37349D02*
X310836Y37349D01*
X310934Y37351D01*
X311032Y37357D01*
X311129Y37366D01*
X311226Y37380D01*
X311323Y37397D01*
X311419Y37418D01*
X311513Y37443D01*
X311607Y37471D01*
X311700Y37504D01*
X311791Y37539D01*
X311881Y37579D01*
X311969Y37621D01*
X312055Y37668D01*
X312140Y37717D01*
X312222Y37770D01*
X312303Y37826D01*
X312381Y37885D01*
X312456Y37947D01*
X312530Y38012D01*
X312600Y38080D01*
X312668Y38151D01*
X312733Y38224D01*
X312795Y38300D01*
X312855Y38378D01*
X312911Y38459D01*
X312963Y38541D01*
X313013Y38626D01*
X313059Y38712D01*
X313102Y38800D01*
X313141Y38890D01*
X313177Y38981D01*
X313209Y39074D01*
X313237Y39168D01*
X313262Y39262D01*
X313283Y39358D01*
X313300Y39455D01*
X313314Y39552D01*
X313323Y39649D01*
X313329Y39747D01*
X313331Y39845D01*
X318322Y103892D01*
X318322Y105555D01*
X318320Y105711D01*
X318314Y105867D01*
X318304Y106023D01*
X318291Y106179D01*
X318273Y106334D01*
X318252Y106489D01*
X318226Y106644D01*
X318197Y106797D01*
X318164Y106950D01*
X318127Y107102D01*
X318087Y107253D01*
X318042Y107403D01*
X317994Y107552D01*
X317942Y107699D01*
X317886Y107845D01*
X317827Y107990D01*
X317764Y108133D01*
X317698Y108275D01*
X317628Y108414D01*
X317555Y108552D01*
X317478Y108689D01*
X317398Y108823D01*
X317314Y108955D01*
X317227Y109085D01*
X317137Y109213D01*
X317044Y109338D01*
X316948Y109461D01*
X316848Y109582D01*
X316746Y109700D01*
X316641Y109816D01*
X316532Y109929D01*
X316421Y110039D01*
X316308Y110146D01*
X316191Y110250D01*
X316072Y110352D01*
X315951Y110450D01*
X315827Y110546D01*
X315660Y110667D01*
X315491Y110785D01*
X315319Y110898D01*
X315145Y111008D01*
X314968Y111113D01*
X314788Y111214D01*
X314606Y111310D01*
X314422Y111403D01*
X314236Y111490D01*
X314047Y111574D01*
X313857Y111652D01*
X313665Y111726D01*
X313471Y111796D01*
X313276Y111861D01*
X313079Y111921D01*
X312880Y111977D01*
X312681Y112027D01*
X312480Y112073D01*
X312278Y112114D01*
X312076Y112151D01*
X311872Y112182D01*
X311668Y112209D01*
X308972Y112500D01*
X306270Y112735D01*
X303564Y112916D01*
X300855Y113041D01*
X300855Y114705D01*
X290041Y114705D01*
X290041Y111378D01*
X300855Y111378D01*
X300855Y113041D01*
X289210Y113041D02*
X288378Y113041D01*
X287623Y113033D01*
X286869Y113008D01*
X286115Y112966D01*
X285363Y112907D01*
X284612Y112832D01*
X283863Y112741D01*
X283116Y112632D01*
X282372Y112508D01*
X281630Y112367D01*
X280892Y112209D01*
X280693Y112162D01*
X280495Y112109D01*
X280299Y112052D01*
X280104Y111991D01*
X279911Y111924D01*
X279719Y111853D01*
X279529Y111777D01*
X279341Y111696D01*
X279155Y111611D01*
X278971Y111522D01*
X278790Y111428D01*
X278611Y111329D01*
X278434Y111226D01*
X278260Y111119D01*
X278088Y111008D01*
X277919Y110892D01*
X277754Y110773D01*
X277591Y110649D01*
X277431Y110522D01*
X277274Y110390D01*
X277121Y110255D01*
X276971Y110116D01*
X276824Y109974D01*
X276681Y109828D01*
X276541Y109678D01*
X276406Y109525D01*
X276274Y109369D01*
X276146Y109210D01*
X276021Y109047D01*
X275901Y108882D01*
X275901Y108883D02*
X275825Y108773D01*
X275753Y108660D01*
X275684Y108546D01*
X275619Y108430D01*
X275557Y108312D01*
X275498Y108192D01*
X275443Y108070D01*
X275392Y107947D01*
X275344Y107823D01*
X275300Y107697D01*
X275259Y107569D01*
X275223Y107441D01*
X275190Y107312D01*
X275161Y107182D01*
X275136Y107051D01*
X275115Y106919D01*
X275097Y106787D01*
X275084Y106654D01*
X275074Y106521D01*
X275069Y106387D01*
X279228Y50658D01*
X275277Y89751D02*
X270079Y89751D01*
X270079Y98277D01*
X274861Y98277D01*
X312500Y105555D02*
X312915Y113041D01*
X312916Y113041D02*
X312920Y113098D01*
X312921Y113156D01*
X312917Y113213D01*
X312910Y113270D01*
X312898Y113326D01*
X312883Y113382D01*
X312864Y113436D01*
X312842Y113489D01*
X312816Y113540D01*
X312786Y113589D01*
X312753Y113636D01*
X312717Y113681D01*
X312678Y113723D01*
X312636Y113762D01*
X312592Y113798D01*
X312545Y113832D01*
X312496Y113862D01*
X312445Y113888D01*
X312392Y113911D01*
X312338Y113930D01*
X312283Y113946D01*
X312227Y113958D01*
X312170Y113966D01*
X312113Y113970D01*
X312055Y113970D01*
X311998Y113966D01*
X311941Y113958D01*
X311885Y113946D01*
X311830Y113930D01*
X311776Y113911D01*
X311723Y113888D01*
X311672Y113862D01*
X311623Y113832D01*
X311576Y113798D01*
X311532Y113762D01*
X311490Y113723D01*
X311451Y113681D01*
X311415Y113636D01*
X311382Y113589D01*
X311352Y113540D01*
X311326Y113489D01*
X311304Y113436D01*
X311285Y113382D01*
X311270Y113326D01*
X311258Y113270D01*
X311251Y113213D01*
X311247Y113156D01*
X311248Y113098D01*
X311252Y113041D01*
X311668Y105555D01*
X312500Y105555D01*
X272563Y40052D02*
X272565Y40236D01*
X272572Y40420D01*
X272583Y40604D01*
X272599Y40787D01*
X272619Y40970D01*
X272644Y41152D01*
X272673Y41334D01*
X272707Y41515D01*
X272745Y41695D01*
X272788Y41874D01*
X272835Y42052D01*
X272886Y42228D01*
X272941Y42404D01*
X273001Y42578D01*
X273065Y42750D01*
X273134Y42921D01*
X273206Y43090D01*
X273283Y43257D01*
X273363Y43423D01*
X273448Y43586D01*
X273537Y43747D01*
X273630Y43906D01*
X273726Y44063D01*
X273826Y44217D01*
X273931Y44369D01*
X274038Y44518D01*
X274150Y44664D01*
X274265Y44808D01*
X274383Y44949D01*
X274505Y45087D01*
X274630Y45221D01*
X274759Y45353D01*
X274891Y45482D01*
X275025Y45607D01*
X275163Y45729D01*
X275304Y45847D01*
X275448Y45962D01*
X275594Y46074D01*
X275743Y46181D01*
X275895Y46286D01*
X276049Y46386D01*
X276206Y46482D01*
X276365Y46575D01*
X276526Y46664D01*
X276689Y46749D01*
X276855Y46829D01*
X277022Y46906D01*
X277191Y46978D01*
X277362Y47047D01*
X277534Y47111D01*
X277708Y47171D01*
X277884Y47226D01*
X278060Y47277D01*
X278238Y47324D01*
X278417Y47367D01*
X278597Y47405D01*
X278778Y47439D01*
X278960Y47468D01*
X279142Y47493D01*
X279325Y47513D01*
X279508Y47529D01*
X279692Y47540D01*
X279876Y47547D01*
X280060Y47549D01*
X280244Y47547D01*
X280428Y47540D01*
X280612Y47529D01*
X280795Y47513D01*
X280978Y47493D01*
X281160Y47468D01*
X281342Y47439D01*
X281523Y47405D01*
X281703Y47367D01*
X281882Y47324D01*
X282060Y47277D01*
X282236Y47226D01*
X282412Y47171D01*
X282586Y47111D01*
X282758Y47047D01*
X282929Y46978D01*
X283098Y46906D01*
X283265Y46829D01*
X283431Y46749D01*
X283594Y46664D01*
X283755Y46575D01*
X283914Y46482D01*
X284071Y46386D01*
X284225Y46286D01*
X284377Y46181D01*
X284526Y46074D01*
X284672Y45962D01*
X284816Y45847D01*
X284957Y45729D01*
X285095Y45607D01*
X285229Y45482D01*
X285361Y45353D01*
X285490Y45221D01*
X285615Y45087D01*
X285737Y44949D01*
X285855Y44808D01*
X285970Y44664D01*
X286082Y44518D01*
X286189Y44369D01*
X286294Y44217D01*
X286394Y44063D01*
X286490Y43906D01*
X286583Y43747D01*
X286672Y43586D01*
X286757Y43423D01*
X286837Y43257D01*
X286914Y43090D01*
X286986Y42921D01*
X287055Y42750D01*
X287119Y42578D01*
X287179Y42404D01*
X287234Y42228D01*
X287285Y42052D01*
X287332Y41874D01*
X287375Y41695D01*
X287413Y41515D01*
X287447Y41334D01*
X287476Y41152D01*
X287501Y40970D01*
X287521Y40787D01*
X287537Y40604D01*
X287548Y40420D01*
X287555Y40236D01*
X287557Y40052D01*
X287555Y39868D01*
X287548Y39684D01*
X287537Y39500D01*
X287521Y39317D01*
X287501Y39134D01*
X287476Y38952D01*
X287447Y38770D01*
X287413Y38589D01*
X287375Y38409D01*
X287332Y38230D01*
X287285Y38052D01*
X287234Y37876D01*
X287179Y37700D01*
X287119Y37526D01*
X287055Y37354D01*
X286986Y37183D01*
X286914Y37014D01*
X286837Y36847D01*
X286757Y36681D01*
X286672Y36518D01*
X286583Y36357D01*
X286490Y36198D01*
X286394Y36041D01*
X286294Y35887D01*
X286189Y35735D01*
X286082Y35586D01*
X285970Y35440D01*
X285855Y35296D01*
X285737Y35155D01*
X285615Y35017D01*
X285490Y34883D01*
X285361Y34751D01*
X285229Y34622D01*
X285095Y34497D01*
X284957Y34375D01*
X284816Y34257D01*
X284672Y34142D01*
X284526Y34030D01*
X284377Y33923D01*
X284225Y33818D01*
X284071Y33718D01*
X283914Y33622D01*
X283755Y33529D01*
X283594Y33440D01*
X283431Y33355D01*
X283265Y33275D01*
X283098Y33198D01*
X282929Y33126D01*
X282758Y33057D01*
X282586Y32993D01*
X282412Y32933D01*
X282236Y32878D01*
X282060Y32827D01*
X281882Y32780D01*
X281703Y32737D01*
X281523Y32699D01*
X281342Y32665D01*
X281160Y32636D01*
X280978Y32611D01*
X280795Y32591D01*
X280612Y32575D01*
X280428Y32564D01*
X280244Y32557D01*
X280060Y32555D01*
X279876Y32557D01*
X279692Y32564D01*
X279508Y32575D01*
X279325Y32591D01*
X279142Y32611D01*
X278960Y32636D01*
X278778Y32665D01*
X278597Y32699D01*
X278417Y32737D01*
X278238Y32780D01*
X278060Y32827D01*
X277884Y32878D01*
X277708Y32933D01*
X277534Y32993D01*
X277362Y33057D01*
X277191Y33126D01*
X277022Y33198D01*
X276855Y33275D01*
X276689Y33355D01*
X276526Y33440D01*
X276365Y33529D01*
X276206Y33622D01*
X276049Y33718D01*
X275895Y33818D01*
X275743Y33923D01*
X275594Y34030D01*
X275448Y34142D01*
X275304Y34257D01*
X275163Y34375D01*
X275025Y34497D01*
X274891Y34622D01*
X274759Y34751D01*
X274630Y34883D01*
X274505Y35017D01*
X274383Y35155D01*
X274265Y35296D01*
X274150Y35440D01*
X274038Y35586D01*
X273931Y35735D01*
X273826Y35887D01*
X273726Y36041D01*
X273630Y36198D01*
X273537Y36357D01*
X273448Y36518D01*
X273363Y36681D01*
X273283Y36847D01*
X273206Y37014D01*
X273134Y37183D01*
X273065Y37354D01*
X273001Y37526D01*
X272941Y37700D01*
X272886Y37876D01*
X272835Y38052D01*
X272788Y38230D01*
X272745Y38409D01*
X272707Y38589D01*
X272673Y38770D01*
X272644Y38952D01*
X272619Y39134D01*
X272599Y39317D01*
X272583Y39500D01*
X272572Y39684D01*
X272565Y39868D01*
X272563Y40052D01*
X267583Y106803D02*
X267585Y106925D01*
X267591Y107047D01*
X267601Y107168D01*
X267615Y107289D01*
X267632Y107410D01*
X267654Y107529D01*
X267680Y107649D01*
X267709Y107767D01*
X267743Y107884D01*
X267780Y108000D01*
X267820Y108115D01*
X267865Y108228D01*
X267913Y108340D01*
X267965Y108451D01*
X268020Y108559D01*
X268079Y108666D01*
X268142Y108770D01*
X268207Y108873D01*
X268277Y108973D01*
X268349Y109072D01*
X268424Y109167D01*
X268503Y109260D01*
X268584Y109351D01*
X268669Y109439D01*
X268756Y109524D01*
X268846Y109606D01*
X268938Y109685D01*
X269033Y109762D01*
X269131Y109835D01*
X269231Y109905D01*
X269333Y109971D01*
X269437Y110034D01*
X269543Y110094D01*
X269651Y110150D01*
X269761Y110203D01*
X269873Y110252D01*
X269986Y110298D01*
X270100Y110340D01*
X270216Y110378D01*
X270333Y110412D01*
X270451Y110442D01*
X270570Y110469D01*
X270689Y110491D01*
X270810Y110510D01*
X270931Y110525D01*
X271052Y110536D01*
X271174Y110543D01*
X271296Y110546D01*
X271417Y110545D01*
X271539Y110540D01*
X271661Y110531D01*
X271782Y110518D01*
X271903Y110501D01*
X272023Y110481D01*
X272142Y110456D01*
X272260Y110427D01*
X272378Y110395D01*
X272494Y110359D01*
X272609Y110319D01*
X272723Y110275D01*
X272835Y110228D01*
X272946Y110177D01*
X273055Y110123D01*
X273162Y110065D01*
X273267Y110003D01*
X273371Y109938D01*
X273472Y109870D01*
X273570Y109799D01*
X273667Y109724D01*
X273760Y109646D01*
X273852Y109565D01*
X273940Y109482D01*
X274026Y109395D01*
X274109Y109306D01*
X274189Y109214D01*
X274266Y109120D01*
X274340Y109023D01*
X274410Y108923D01*
X274478Y108822D01*
X274542Y108718D01*
X274602Y108613D01*
X274660Y108505D01*
X274713Y108396D01*
X274763Y108284D01*
X274810Y108172D01*
X274852Y108058D01*
X274891Y107942D01*
X274927Y107826D01*
X274958Y107708D01*
X274986Y107589D01*
X275009Y107470D01*
X275029Y107349D01*
X275045Y107229D01*
X275057Y107107D01*
X275065Y106986D01*
X275069Y106864D01*
X275069Y106742D01*
X275065Y106620D01*
X275057Y106499D01*
X275045Y106377D01*
X275029Y106257D01*
X275009Y106136D01*
X274986Y106017D01*
X274958Y105898D01*
X274927Y105780D01*
X274891Y105664D01*
X274852Y105548D01*
X274810Y105434D01*
X274763Y105322D01*
X274713Y105210D01*
X274660Y105101D01*
X274602Y104993D01*
X274542Y104888D01*
X274478Y104784D01*
X274410Y104683D01*
X274340Y104583D01*
X274266Y104486D01*
X274189Y104392D01*
X274109Y104300D01*
X274026Y104211D01*
X273940Y104124D01*
X273852Y104041D01*
X273760Y103960D01*
X273667Y103882D01*
X273570Y103807D01*
X273472Y103736D01*
X273371Y103668D01*
X273267Y103603D01*
X273162Y103541D01*
X273055Y103483D01*
X272946Y103429D01*
X272835Y103378D01*
X272723Y103331D01*
X272609Y103287D01*
X272494Y103247D01*
X272378Y103211D01*
X272260Y103179D01*
X272142Y103150D01*
X272023Y103125D01*
X271903Y103105D01*
X271782Y103088D01*
X271661Y103075D01*
X271539Y103066D01*
X271417Y103061D01*
X271296Y103060D01*
X271174Y103063D01*
X271052Y103070D01*
X270931Y103081D01*
X270810Y103096D01*
X270689Y103115D01*
X270570Y103137D01*
X270451Y103164D01*
X270333Y103194D01*
X270216Y103228D01*
X270100Y103266D01*
X269986Y103308D01*
X269873Y103354D01*
X269761Y103403D01*
X269651Y103456D01*
X269543Y103512D01*
X269437Y103572D01*
X269333Y103635D01*
X269231Y103701D01*
X269131Y103771D01*
X269033Y103844D01*
X268938Y103921D01*
X268846Y104000D01*
X268756Y104082D01*
X268669Y104167D01*
X268584Y104255D01*
X268503Y104346D01*
X268424Y104439D01*
X268349Y104534D01*
X268277Y104633D01*
X268207Y104733D01*
X268142Y104836D01*
X268079Y104940D01*
X268020Y105047D01*
X267965Y105155D01*
X267913Y105266D01*
X267865Y105378D01*
X267820Y105491D01*
X267780Y105606D01*
X267743Y105722D01*
X267709Y105839D01*
X267680Y105957D01*
X267654Y106077D01*
X267632Y106196D01*
X267615Y106317D01*
X267601Y106438D01*
X267591Y106559D01*
X267585Y106681D01*
X267583Y106803D01*
X275901Y40052D02*
X275903Y40181D01*
X275909Y40309D01*
X275919Y40438D01*
X275933Y40566D01*
X275951Y40693D01*
X275973Y40820D01*
X275998Y40946D01*
X276028Y41071D01*
X276061Y41196D01*
X276099Y41319D01*
X276140Y41441D01*
X276185Y41561D01*
X276233Y41681D01*
X276285Y41798D01*
X276341Y41914D01*
X276401Y42028D01*
X276464Y42141D01*
X276530Y42251D01*
X276600Y42359D01*
X276673Y42465D01*
X276749Y42569D01*
X276829Y42670D01*
X276911Y42769D01*
X276997Y42865D01*
X277085Y42959D01*
X277177Y43049D01*
X277271Y43137D01*
X277368Y43222D01*
X277467Y43304D01*
X277569Y43382D01*
X277673Y43458D01*
X277780Y43530D01*
X277888Y43599D01*
X277999Y43664D01*
X278112Y43727D01*
X278227Y43785D01*
X278343Y43840D01*
X278461Y43891D01*
X278581Y43939D01*
X278702Y43983D01*
X278824Y44023D01*
X278947Y44059D01*
X279072Y44092D01*
X279197Y44121D01*
X279324Y44145D01*
X279451Y44166D01*
X279578Y44183D01*
X279706Y44196D01*
X279835Y44205D01*
X279963Y44210D01*
X280092Y44211D01*
X280221Y44208D01*
X280349Y44201D01*
X280478Y44190D01*
X280606Y44175D01*
X280733Y44156D01*
X280860Y44133D01*
X280985Y44107D01*
X281111Y44076D01*
X281235Y44042D01*
X281357Y44003D01*
X281479Y43961D01*
X281599Y43916D01*
X281718Y43866D01*
X281835Y43813D01*
X281951Y43756D01*
X282065Y43696D01*
X282177Y43632D01*
X282286Y43565D01*
X282394Y43494D01*
X282499Y43420D01*
X282602Y43343D01*
X282703Y43263D01*
X282801Y43180D01*
X282897Y43093D01*
X282989Y43004D01*
X283079Y42912D01*
X283166Y42817D01*
X283251Y42720D01*
X283332Y42620D01*
X283410Y42517D01*
X283484Y42413D01*
X283556Y42305D01*
X283624Y42196D01*
X283688Y42085D01*
X283749Y41972D01*
X283807Y41857D01*
X283861Y41740D01*
X283912Y41621D01*
X283958Y41501D01*
X284001Y41380D01*
X284040Y41257D01*
X284076Y41134D01*
X284107Y41009D01*
X284135Y40883D01*
X284159Y40757D01*
X284179Y40629D01*
X284195Y40502D01*
X284207Y40373D01*
X284215Y40245D01*
X284219Y40116D01*
X284219Y39988D01*
X284215Y39859D01*
X284207Y39731D01*
X284195Y39602D01*
X284179Y39475D01*
X284159Y39347D01*
X284135Y39221D01*
X284107Y39095D01*
X284076Y38970D01*
X284040Y38847D01*
X284001Y38724D01*
X283958Y38603D01*
X283912Y38483D01*
X283861Y38364D01*
X283807Y38247D01*
X283749Y38132D01*
X283688Y38019D01*
X283624Y37908D01*
X283556Y37799D01*
X283484Y37691D01*
X283410Y37587D01*
X283332Y37484D01*
X283251Y37384D01*
X283166Y37287D01*
X283079Y37192D01*
X282989Y37100D01*
X282897Y37011D01*
X282801Y36924D01*
X282703Y36841D01*
X282602Y36761D01*
X282499Y36684D01*
X282394Y36610D01*
X282286Y36539D01*
X282177Y36472D01*
X282065Y36408D01*
X281951Y36348D01*
X281835Y36291D01*
X281718Y36238D01*
X281599Y36188D01*
X281479Y36143D01*
X281357Y36101D01*
X281235Y36062D01*
X281111Y36028D01*
X280985Y35997D01*
X280860Y35971D01*
X280733Y35948D01*
X280606Y35929D01*
X280478Y35914D01*
X280349Y35903D01*
X280221Y35896D01*
X280092Y35893D01*
X279963Y35894D01*
X279835Y35899D01*
X279706Y35908D01*
X279578Y35921D01*
X279451Y35938D01*
X279324Y35959D01*
X279197Y35983D01*
X279072Y36012D01*
X278947Y36045D01*
X278824Y36081D01*
X278702Y36121D01*
X278581Y36165D01*
X278461Y36213D01*
X278343Y36264D01*
X278227Y36319D01*
X278112Y36377D01*
X277999Y36440D01*
X277888Y36505D01*
X277780Y36574D01*
X277673Y36646D01*
X277569Y36722D01*
X277467Y36800D01*
X277368Y36882D01*
X277271Y36967D01*
X277177Y37055D01*
X277085Y37145D01*
X276997Y37239D01*
X276911Y37335D01*
X276829Y37434D01*
X276749Y37535D01*
X276673Y37639D01*
X276600Y37745D01*
X276530Y37853D01*
X276464Y37963D01*
X276401Y38076D01*
X276341Y38190D01*
X276285Y38306D01*
X276233Y38423D01*
X276185Y38543D01*
X276140Y38663D01*
X276099Y38785D01*
X276061Y38908D01*
X276028Y39033D01*
X275998Y39158D01*
X275973Y39284D01*
X275951Y39411D01*
X275933Y39538D01*
X275919Y39666D01*
X275909Y39795D01*
X275903Y39923D01*
X275901Y40052D01*
D127*
X299295Y105036D03*
D128*
X293681Y86424D03*
D129*
X309589Y34542D03*
M02*
