G04 EAGLE Gerber RS-274X export*
G75*
%MOMM*%
%FSLAX34Y34*%
%LPD*%
%INSolderpaste Top*%
%IPPOS*%
%AMOC8*
5,1,8,0,0,1.08239X$1,22.5*%
G01*
G04 Define Apertures*
%ADD10R,1.164600X1.465300*%
%ADD11R,1.465300X1.164600*%
%ADD12R,0.761800X1.361800*%
%ADD13R,1.031200X1.420200*%
D10*
X69079Y438150D03*
X51571Y438150D03*
X107179Y438150D03*
X89671Y438150D03*
X69079Y285750D03*
X51571Y285750D03*
X107179Y285750D03*
X89671Y285750D03*
D11*
X123825Y467496D03*
X123825Y485004D03*
X123825Y537346D03*
X123825Y554854D03*
X123825Y650104D03*
X123825Y632596D03*
X123825Y719954D03*
X123825Y702446D03*
D12*
X65950Y254000D03*
X86450Y254000D03*
X65950Y228600D03*
X86450Y228600D03*
X65950Y203200D03*
X86450Y203200D03*
X65950Y177800D03*
X86450Y177800D03*
X65950Y152400D03*
X86450Y152400D03*
X65950Y127000D03*
X86450Y127000D03*
X65950Y101600D03*
X86450Y101600D03*
X65950Y76200D03*
X86450Y76200D03*
D13*
X178130Y254000D03*
X196520Y254000D03*
X178130Y323850D03*
X196520Y323850D03*
X178130Y349250D03*
X196520Y349250D03*
X178130Y374650D03*
X196520Y374650D03*
X178130Y555625D03*
X196520Y555625D03*
X178130Y581025D03*
X196520Y581025D03*
X178130Y606425D03*
X196520Y606425D03*
X178130Y631825D03*
X196520Y631825D03*
X178130Y228600D03*
X196520Y228600D03*
X178130Y203200D03*
X196520Y203200D03*
X178130Y177800D03*
X196520Y177800D03*
X178130Y152400D03*
X196520Y152400D03*
X178130Y127000D03*
X196520Y127000D03*
X178130Y101600D03*
X196520Y101600D03*
X178130Y76200D03*
X196520Y76200D03*
X178130Y400050D03*
X196520Y400050D03*
M02*
