G04 EAGLE Gerber RS-274X export*
G75*
%MOMM*%
%FSLAX34Y34*%
%LPD*%
%INSoldermask Top*%
%IPPOS*%
%AMOC8*
5,1,8,0,0,1.08239X$1,22.5*%
G01*
G04 Define Apertures*
%ADD10C,3.203200*%
%ADD11R,1.367800X1.668500*%
%ADD12R,1.668500X1.367800*%
%ADD13R,0.965000X1.565000*%
%ADD14R,1.234400X1.623400*%
%ADD15C,1.524000*%
%ADD16C,1.727200*%
%ADD17C,1.625600*%
%ADD18P,1.75953X8X292.5*%
%ADD19C,1.219200*%
%ADD20C,1.981200*%
%ADD21R,1.511200X1.511200*%
%ADD22C,1.511200*%
%ADD23C,1.625600*%
%ADD24P,1.03866X8X22.5*%
D10*
X35000Y35000D03*
X965000Y35000D03*
X35000Y765000D03*
X965000Y765000D03*
D11*
X69079Y438150D03*
X51571Y438150D03*
X107179Y438150D03*
X89671Y438150D03*
X69079Y285750D03*
X51571Y285750D03*
X107179Y285750D03*
X89671Y285750D03*
D12*
X123825Y467496D03*
X123825Y485004D03*
X123825Y537346D03*
X123825Y554854D03*
X123825Y650104D03*
X123825Y632596D03*
X123825Y719954D03*
X123825Y702446D03*
D13*
X65950Y254000D03*
X86450Y254000D03*
X65950Y228600D03*
X86450Y228600D03*
X65950Y203200D03*
X86450Y203200D03*
X65950Y177800D03*
X86450Y177800D03*
X65950Y152400D03*
X86450Y152400D03*
X65950Y127000D03*
X86450Y127000D03*
X65950Y101600D03*
X86450Y101600D03*
X65950Y76200D03*
X86450Y76200D03*
D14*
X178130Y254000D03*
X196520Y254000D03*
X178130Y323850D03*
X196520Y323850D03*
X178130Y349250D03*
X196520Y349250D03*
X178130Y374650D03*
X196520Y374650D03*
X178130Y555625D03*
X196520Y555625D03*
X178130Y581025D03*
X196520Y581025D03*
X178130Y606425D03*
X196520Y606425D03*
X178130Y631825D03*
X196520Y631825D03*
X178130Y228600D03*
X196520Y228600D03*
X178130Y203200D03*
X196520Y203200D03*
X178130Y177800D03*
X196520Y177800D03*
X178130Y152400D03*
X196520Y152400D03*
X178130Y127000D03*
X196520Y127000D03*
X178130Y101600D03*
X196520Y101600D03*
X178130Y76200D03*
X196520Y76200D03*
X178130Y400050D03*
X196520Y400050D03*
D15*
X44704Y400050D02*
X31496Y400050D01*
X31496Y374650D02*
X44704Y374650D01*
X107696Y374650D02*
X120904Y374650D01*
X120904Y400050D02*
X107696Y400050D01*
X44704Y349250D02*
X31496Y349250D01*
X31496Y323850D02*
X44704Y323850D01*
X107696Y349250D02*
X120904Y349250D01*
X120904Y323850D02*
X107696Y323850D01*
D16*
X100457Y466344D02*
X85217Y466344D01*
X85217Y511556D02*
X100457Y511556D01*
X35433Y466344D02*
X20193Y466344D01*
X20193Y511556D02*
X35433Y511556D01*
X85217Y536194D02*
X100457Y536194D01*
X100457Y581406D02*
X85217Y581406D01*
X35433Y536194D02*
X20193Y536194D01*
X20193Y581406D02*
X35433Y581406D01*
X35433Y651256D02*
X20193Y651256D01*
X20193Y606044D02*
X35433Y606044D01*
X85217Y651256D02*
X100457Y651256D01*
X100457Y606044D02*
X85217Y606044D01*
X35433Y721106D02*
X20193Y721106D01*
X20193Y675894D02*
X35433Y675894D01*
X85217Y721106D02*
X100457Y721106D01*
X100457Y675894D02*
X85217Y675894D01*
D17*
X939800Y641350D03*
D18*
X965200Y641350D03*
X939800Y615950D03*
X965200Y615950D03*
X939800Y590550D03*
X965200Y590550D03*
X939800Y565150D03*
X965200Y565150D03*
X939800Y539750D03*
X965200Y539750D03*
X939800Y514350D03*
X965200Y514350D03*
X939800Y488950D03*
X965200Y488950D03*
X939800Y463550D03*
X965200Y463550D03*
X939800Y438150D03*
X965200Y438150D03*
X939800Y412750D03*
X965200Y412750D03*
X939800Y387350D03*
X965200Y387350D03*
X939800Y361950D03*
X965200Y361950D03*
X939800Y336550D03*
X965200Y336550D03*
X965200Y311150D03*
X939800Y311150D03*
X965200Y285750D03*
X939800Y285750D03*
X965200Y260350D03*
X939800Y260350D03*
X939800Y234950D03*
X965200Y234950D03*
X965200Y209550D03*
X939800Y209550D03*
X939800Y184150D03*
X965200Y184150D03*
X939800Y158750D03*
X965200Y158750D03*
D19*
X342900Y596900D03*
X342900Y609600D03*
X342900Y622300D03*
X342900Y635000D03*
X342900Y647700D03*
X596900Y596900D03*
X596900Y609600D03*
X596900Y622300D03*
X596900Y635000D03*
X596900Y647700D03*
X342900Y533400D03*
X342900Y546100D03*
X342900Y558800D03*
X342900Y571500D03*
X342900Y584200D03*
X342900Y469900D03*
X342900Y482600D03*
X342900Y495300D03*
X342900Y508000D03*
X342900Y520700D03*
X342900Y406400D03*
X342900Y419100D03*
X342900Y431800D03*
X342900Y444500D03*
X342900Y457200D03*
X342900Y342900D03*
X342900Y355600D03*
X342900Y368300D03*
X342900Y381000D03*
X342900Y393700D03*
X342900Y279400D03*
X342900Y292100D03*
X342900Y304800D03*
X342900Y317500D03*
X342900Y330200D03*
X342900Y215900D03*
X342900Y228600D03*
X342900Y241300D03*
X342900Y254000D03*
X342900Y266700D03*
X342900Y152400D03*
X342900Y165100D03*
X342900Y177800D03*
X342900Y190500D03*
X342900Y203200D03*
X596900Y533400D03*
X596900Y546100D03*
X596900Y558800D03*
X596900Y571500D03*
X596900Y584200D03*
X596900Y469900D03*
X596900Y482600D03*
X596900Y495300D03*
X596900Y508000D03*
X596900Y520700D03*
X596900Y406400D03*
X596900Y419100D03*
X596900Y431800D03*
X596900Y444500D03*
X596900Y457200D03*
X596900Y342900D03*
X596900Y355600D03*
X596900Y368300D03*
X596900Y381000D03*
X596900Y393700D03*
X596900Y279400D03*
X596900Y292100D03*
X596900Y304800D03*
X596900Y317500D03*
X596900Y330200D03*
X596900Y215900D03*
X596900Y228600D03*
X596900Y241300D03*
X596900Y254000D03*
X596900Y266700D03*
X596900Y152400D03*
X596900Y165100D03*
X596900Y177800D03*
X596900Y190500D03*
X596900Y203200D03*
D20*
X835025Y196850D03*
D21*
X835025Y222250D03*
D22*
X835025Y247650D03*
X835025Y273050D03*
X835025Y298450D03*
X835025Y323850D03*
X835025Y349250D03*
X835025Y374650D03*
X835025Y400050D03*
X835025Y425450D03*
X835025Y450850D03*
X835025Y476250D03*
X835025Y501650D03*
X835025Y527050D03*
X835025Y552450D03*
X835025Y577850D03*
X682625Y577850D03*
X682625Y552450D03*
X682625Y527050D03*
X682625Y501650D03*
X682625Y476250D03*
X682625Y450850D03*
X682625Y425450D03*
X682625Y400050D03*
X682625Y374650D03*
X682625Y349250D03*
X682625Y323850D03*
X682625Y298450D03*
X682625Y273050D03*
X682625Y247650D03*
X682625Y222250D03*
D20*
X682625Y196850D03*
X682625Y603250D03*
X835025Y603250D03*
D23*
X777875Y646938D02*
X777875Y661162D01*
X752475Y661162D02*
X752475Y646938D01*
X685800Y646938D02*
X685800Y661162D01*
X711200Y661162D02*
X711200Y646938D01*
D24*
X123825Y688975D03*
X123825Y619125D03*
X123825Y568325D03*
X123825Y498475D03*
X15875Y285750D03*
X15875Y438150D03*
X15875Y228600D03*
X15875Y177800D03*
X15875Y127000D03*
X15875Y76200D03*
X466725Y447675D03*
X466725Y365125D03*
X371475Y187325D03*
X501650Y142875D03*
X930275Y777875D03*
X727075Y269875D03*
X720725Y552450D03*
X784225Y463550D03*
X838200Y631825D03*
X623888Y134938D03*
X661988Y147638D03*
X749300Y349250D03*
X749300Y323850D03*
X647700Y377825D03*
X536575Y241300D03*
X549275Y212725D03*
X511175Y574675D03*
X527050Y600075D03*
X727075Y285750D03*
X501650Y165100D03*
X561975Y650875D03*
X965200Y692150D03*
X971550Y708025D03*
X644525Y485775D03*
X736600Y539750D03*
X701675Y425450D03*
X749300Y400050D03*
X628650Y460375D03*
X752475Y527050D03*
X663575Y403225D03*
X711200Y374650D03*
X736600Y438150D03*
X752475Y234950D03*
X971550Y92075D03*
X965200Y107950D03*
X784225Y501650D03*
X768350Y269875D03*
M02*
