<?xml version="1.0" encoding="utf-8" standalone="no"?>
<!DOCTYPE svg PUBLIC "-//W3C//DTD SVG 1.1//EN"
  "http://www.w3.org/Graphics/SVG/1.1/DTD/svg11.dtd">
<svg xmlns:xlink="http://www.w3.org/1999/xlink" width="395.9756pt" height="430.098pt" viewBox="0 0 395.9756 430.098" xmlns="http://www.w3.org/2000/svg" version="1.1">
 <metadata>
  <rdf:RDF xmlns:dc="http://purl.org/dc/elements/1.1/" xmlns:cc="http://creativecommons.org/ns#" xmlns:rdf="http://www.w3.org/1999/02/22-rdf-syntax-ns#">
   <cc:Work>
    <dc:type rdf:resource="http://purl.org/dc/dcmitype/StillImage"/>
    <dc:date>2025-05-27T12:51:10.164201</dc:date>
    <dc:format>image/svg+xml</dc:format>
    <dc:creator>
     <cc:Agent>
      <dc:title>Matplotlib v3.9.2, https://matplotlib.org/</dc:title>
     </cc:Agent>
    </dc:creator>
   </cc:Work>
  </rdf:RDF>
 </metadata>
 <defs>
  <style type="text/css">*{stroke-linejoin: round; stroke-linecap: butt}</style>
 </defs>
 <g id="figure_1">
  <g id="patch_1">
   <path d="M 0 430.098 
L 395.9756 430.098 
L 395.9756 0 
L 0 0 
L 0 430.098 
z
" style="fill: none"/>
  </g>
  <g id="axes_1">
   <g id="patch_2">
    <path d="M 191.4804 69.198 
C 192.244185 69.198 192.97679 68.894545 193.516868 68.354468 
C 194.056945 67.81439 194.3604 67.081785 194.3604 66.318 
C 194.3604 65.554215 194.056945 64.82161 193.516868 64.281532 
C 192.97679 63.741455 192.244185 63.438 191.4804 63.438 
C 190.716615 63.438 189.98401 63.741455 189.443932 64.281532 
C 188.903855 64.82161 188.6004 65.554215 188.6004 66.318 
C 188.6004 67.081785 188.903855 67.81439 189.443932 68.354468 
C 189.98401 68.894545 190.716615 69.198 191.4804 69.198 
L 191.4804 69.198 
z
" clip-path="url(#peb4cf390fa)" style="fill: none; stroke: #000000; stroke-width: 2; stroke-linejoin: miter"/>
   </g>
   <g id="patch_3">
    <path d="M 280.2204 129.858 
C 280.984185 129.858 281.71679 129.554545 282.256868 129.014468 
C 282.796945 128.47439 283.1004 127.741785 283.1004 126.978 
C 283.1004 126.214215 282.796945 125.48161 282.256868 124.941532 
C 281.71679 124.401455 280.984185 124.098 280.2204 124.098 
C 279.456615 124.098 278.72401 124.401455 278.183932 124.941532 
C 277.643855 125.48161 277.3404 126.214215 277.3404 126.978 
C 277.3404 127.741785 277.643855 128.47439 278.183932 129.014468 
C 278.72401 129.554545 279.456615 129.858 280.2204 129.858 
L 280.2204 129.858 
z
" clip-path="url(#peb4cf390fa)" style="fill: none; stroke: #000000; stroke-width: 2; stroke-linejoin: miter"/>
   </g>
   <g id="patch_4">
    <path d="M 280.2204 327.858 
C 280.984185 327.858 281.71679 327.554545 282.256868 327.014468 
C 282.796945 326.47439 283.1004 325.741785 283.1004 324.978 
C 283.1004 324.214215 282.796945 323.48161 282.256868 322.941532 
C 281.71679 322.401455 280.984185 322.098 280.2204 322.098 
C 279.456615 322.098 278.72401 322.401455 278.183932 322.941532 
C 277.643855 323.48161 277.3404 324.214215 277.3404 324.978 
C 277.3404 325.741785 277.643855 326.47439 278.183932 327.014468 
C 278.72401 327.554545 279.456615 327.858 280.2204 327.858 
L 280.2204 327.858 
z
" clip-path="url(#peb4cf390fa)" style="fill: none; stroke: #000000; stroke-width: 2; stroke-linejoin: miter"/>
   </g>
   <g id="patch_5">
    <path d="M 191.4804 267.198 
C 192.244185 267.198 192.97679 266.894545 193.516868 266.354468 
C 194.056945 265.81439 194.3604 265.081785 194.3604 264.318 
C 194.3604 263.554215 194.056945 262.82161 193.516868 262.281532 
C 192.97679 261.741455 192.244185 261.438 191.4804 261.438 
C 190.716615 261.438 189.98401 261.741455 189.443932 262.281532 
C 188.903855 262.82161 188.6004 263.554215 188.6004 264.318 
C 188.6004 265.081785 188.903855 265.81439 189.443932 266.354468 
C 189.98401 266.894545 190.716615 267.198 191.4804 267.198 
L 191.4804 267.198 
z
" clip-path="url(#peb4cf390fa)" style="fill: none; stroke: #000000; stroke-width: 2; stroke-linejoin: miter"/>
   </g>
   <g id="patch_6">
    <path d="M 83.4804 313.998 
C 84.244185 313.998 84.97679 313.694545 85.516868 313.154468 
C 86.056945 312.61439 86.3604 311.881785 86.3604 311.118 
C 86.3604 310.354215 86.056945 309.62161 85.516868 309.081532 
C 84.97679 308.541455 84.244185 308.238 83.4804 308.238 
C 82.716615 308.238 81.98401 308.541455 81.443932 309.081532 
C 80.903855 309.62161 80.6004 310.354215 80.6004 311.118 
C 80.6004 311.881785 80.903855 312.61439 81.443932 313.154468 
C 81.98401 313.694545 82.716615 313.998 83.4804 313.998 
L 83.4804 313.998 
z
" clip-path="url(#peb4cf390fa)" style="fill: none; stroke: #000000; stroke-width: 2; stroke-linejoin: miter"/>
   </g>
   <g id="line2d_1">
    <path d="M 178.5204 36.618 
L 178.5204 22.218 
" clip-path="url(#peb4cf390fa)" style="fill: none; stroke: #000000; stroke-width: 2; stroke-linecap: round"/>
   </g>
   <g id="line2d_2">
    <path d="M 178.5204 22.218 
L 171.7704 22.218 
" clip-path="url(#peb4cf390fa)" style="fill: none; stroke: #000000; stroke-width: 2; stroke-linecap: round"/>
   </g>
   <g id="line2d_3">
    <path d="M 178.5204 22.218 
L 185.2704 22.218 
" clip-path="url(#peb4cf390fa)" style="fill: none; stroke: #000000; stroke-width: 2; stroke-linecap: round"/>
   </g>
   <g id="line2d_4">
    <path d="M 178.5204 36.618 
L 178.5204 45.618 
L 178.5204 54.618 
" clip-path="url(#peb4cf390fa)" style="fill: none; stroke: #000000; stroke-width: 2; stroke-linecap: round"/>
   </g>
   <g id="line2d_5">
    <path d="M 178.5204 30.318 
L 178.5204 54.618 
M 178.5204 78.018 
L 178.5204 102.318 
" clip-path="url(#peb4cf390fa)" style="fill: none; stroke: #000000; stroke-width: 2; stroke-linecap: round"/>
   </g>
   <g id="line2d_6">
    <path d="M 178.5204 54.618 
L 160.5204 54.618 
L 178.5204 78.018 
L 196.5204 54.618 
L 178.5204 54.618 
" clip-path="url(#peb4cf390fa)" style="fill: none; stroke: #000000; stroke-width: 2; stroke-linecap: round"/>
   </g>
   <g id="line2d_7">
    <path d="M 178.5204 78.018 
L 160.5204 78.018 
L 178.5204 54.618 
L 196.5204 78.018 
L 178.5204 78.018 
" clip-path="url(#peb4cf390fa)" style="fill: none; stroke: #000000; stroke-width: 2; stroke-linecap: round"/>
   </g>
   <g id="line2d_8">
    <path d="M 194.3604 66.318 
L 203.7204 66.318 
" clip-path="url(#peb4cf390fa)" style="fill: none; stroke: #000000; stroke-width: 2; stroke-linecap: round"/>
   </g>
   <g id="line2d_9">
    <path d="M 168.4404 66.318 
L 153.3204 66.318 
" clip-path="url(#peb4cf390fa)" style="fill: none; stroke: #000000; stroke-width: 2; stroke-linecap: round"/>
   </g>
   <g id="line2d_10">
    <path d="M 153.3204 66.318 
L 144.3204 66.318 
L 135.3204 66.318 
" clip-path="url(#peb4cf390fa)" style="fill: none; stroke: #000000; stroke-width: 2; stroke-linecap: round"/>
   </g>
   <g id="line2d_11">
    <path d="M 203.7204 66.318 
L 212.7204 66.318 
L 221.7204 66.318 
" clip-path="url(#peb4cf390fa)" style="fill: none; stroke: #000000; stroke-width: 2; stroke-linecap: round"/>
   </g>
   <g id="line2d_12">
    <path d="M 178.5204 78.018 
L 178.5204 96.018 
L 178.5204 114.018 
" clip-path="url(#peb4cf390fa)" style="fill: none; stroke: #000000; stroke-width: 2; stroke-linecap: round"/>
   </g>
   <g id="line2d_13">
    <path d="M 178.5204 114.018 
L 223.5204 114.018 
L 268.5204 114.018 
" clip-path="url(#peb4cf390fa)" style="fill: none; stroke: #000000; stroke-width: 2; stroke-linecap: round"/>
   </g>
   <g id="line2d_14">
    <path d="M 316.2204 114.018 
L 291.9204 114.018 
M 268.5204 114.018 
L 244.2204 114.018 
" clip-path="url(#peb4cf390fa)" style="fill: none; stroke: #000000; stroke-width: 2; stroke-linecap: round"/>
   </g>
   <g id="line2d_15">
    <path d="M 291.9204 114.018 
L 291.9204 96.018 
L 268.5204 114.018 
L 291.9204 132.018 
L 291.9204 114.018 
" clip-path="url(#peb4cf390fa)" style="fill: none; stroke: #000000; stroke-width: 2; stroke-linecap: round"/>
   </g>
   <g id="line2d_16">
    <path d="M 268.5204 114.018 
L 268.5204 96.018 
L 291.9204 114.018 
L 268.5204 132.018 
L 268.5204 114.018 
" clip-path="url(#peb4cf390fa)" style="fill: none; stroke: #000000; stroke-width: 2; stroke-linecap: round"/>
   </g>
   <g id="line2d_17">
    <path d="M 280.2204 129.858 
L 280.2204 139.218 
" clip-path="url(#peb4cf390fa)" style="fill: none; stroke: #000000; stroke-width: 2; stroke-linecap: round"/>
   </g>
   <g id="line2d_18">
    <path d="M 280.2204 103.938 
L 280.2204 88.818 
" clip-path="url(#peb4cf390fa)" style="fill: none; stroke: #000000; stroke-width: 2; stroke-linecap: round"/>
   </g>
   <g id="line2d_19">
    <path d="M 280.2204 88.818 
L 280.2204 79.818 
L 280.2204 70.818 
" clip-path="url(#peb4cf390fa)" style="fill: none; stroke: #000000; stroke-width: 2; stroke-linecap: round"/>
   </g>
   <g id="line2d_20">
    <path d="M 280.2204 139.218 
L 280.2204 148.218 
L 280.2204 157.218 
" clip-path="url(#peb4cf390fa)" style="fill: none; stroke: #000000; stroke-width: 2; stroke-linecap: round"/>
   </g>
   <g id="line2d_21">
    <path d="M 291.9204 114.018 
L 309.9204 114.018 
L 327.9204 114.018 
" clip-path="url(#peb4cf390fa)" style="fill: none; stroke: #000000; stroke-width: 2; stroke-linecap: round"/>
   </g>
   <g id="line2d_22">
    <path d="M 327.9204 114.018 
L 345.9204 114.018 
L 363.9204 114.018 
" clip-path="url(#peb4cf390fa)" style="fill: none; stroke: #000000; stroke-width: 2; stroke-linecap: round"/>
   </g>
   <g id="line2d_23">
    <path d="M 327.9204 114.018 
L 327.9204 213.018 
L 327.9204 312.018 
" clip-path="url(#peb4cf390fa)" style="fill: none; stroke: #000000; stroke-width: 2; stroke-linecap: round"/>
   </g>
   <g id="line2d_24">
    <path d="M 327.9204 312.018 
L 309.9204 312.018 
L 291.9204 312.018 
" clip-path="url(#peb4cf390fa)" style="fill: none; stroke: #000000; stroke-width: 2; stroke-linecap: round"/>
   </g>
   <g id="line2d_25">
    <path d="M 316.2204 312.018 
L 291.9204 312.018 
M 268.5204 312.018 
L 244.2204 312.018 
" clip-path="url(#peb4cf390fa)" style="fill: none; stroke: #000000; stroke-width: 2; stroke-linecap: round"/>
   </g>
   <g id="line2d_26">
    <path d="M 291.9204 312.018 
L 291.9204 294.018 
L 268.5204 312.018 
L 291.9204 330.018 
L 291.9204 312.018 
" clip-path="url(#peb4cf390fa)" style="fill: none; stroke: #000000; stroke-width: 2; stroke-linecap: round"/>
   </g>
   <g id="line2d_27">
    <path d="M 268.5204 312.018 
L 268.5204 294.018 
L 291.9204 312.018 
L 268.5204 330.018 
L 268.5204 312.018 
" clip-path="url(#peb4cf390fa)" style="fill: none; stroke: #000000; stroke-width: 2; stroke-linecap: round"/>
   </g>
   <g id="line2d_28">
    <path d="M 280.2204 327.858 
L 280.2204 337.218 
" clip-path="url(#peb4cf390fa)" style="fill: none; stroke: #000000; stroke-width: 2; stroke-linecap: round"/>
   </g>
   <g id="line2d_29">
    <path d="M 280.2204 301.938 
L 280.2204 286.818 
" clip-path="url(#peb4cf390fa)" style="fill: none; stroke: #000000; stroke-width: 2; stroke-linecap: round"/>
   </g>
   <g id="line2d_30">
    <path d="M 280.2204 286.818 
L 280.2204 277.818 
L 280.2204 268.818 
" clip-path="url(#peb4cf390fa)" style="fill: none; stroke: #000000; stroke-width: 2; stroke-linecap: round"/>
   </g>
   <g id="line2d_31">
    <path d="M 280.2204 337.218 
L 280.2204 346.218 
L 280.2204 355.218 
" clip-path="url(#peb4cf390fa)" style="fill: none; stroke: #000000; stroke-width: 2; stroke-linecap: round"/>
   </g>
   <g id="line2d_32">
    <path d="M 268.5204 312.018 
L 223.5204 312.018 
L 178.5204 312.018 
" clip-path="url(#peb4cf390fa)" style="fill: none; stroke: #000000; stroke-width: 2; stroke-linecap: round"/>
   </g>
   <g id="line2d_33">
    <path d="M 178.5204 312.018 
L 178.5204 321.018 
L 178.5204 330.018 
" clip-path="url(#peb4cf390fa)" style="fill: none; stroke: #000000; stroke-width: 2; stroke-linecap: round"/>
   </g>
   <g id="line2d_34">
    <path d="M 178.5204 330.018 
L 178.5204 362.778 
M 187.5204 362.778 
L 169.5204 362.778 
M 187.5204 369.258 
L 169.5204 369.258 
M 178.5204 369.258 
L 178.5204 402.018 
" clip-path="url(#peb4cf390fa)" style="fill: none; stroke: #000000; stroke-width: 2; stroke-linecap: round"/>
   </g>
   <g id="line2d_35">
    <path d="M 178.5204 402.018 
L 178.5204 416.418 
L 169.5204 416.418 
L 178.5204 425.418 
L 187.5204 416.418 
L 178.5204 416.418 
" clip-path="url(#peb4cf390fa)" style="fill: none; stroke: #000000; stroke-width: 2; stroke-linecap: round"/>
   </g>
   <g id="line2d_36">
    <path d="M 178.5204 312.018 
L 178.5204 294.018 
L 178.5204 276.018 
" clip-path="url(#peb4cf390fa)" style="fill: none; stroke: #000000; stroke-width: 2; stroke-linecap: round"/>
   </g>
   <g id="line2d_37">
    <path d="M 178.5204 228.318 
L 178.5204 252.618 
M 178.5204 276.018 
L 178.5204 300.318 
" clip-path="url(#peb4cf390fa)" style="fill: none; stroke: #000000; stroke-width: 2; stroke-linecap: round"/>
   </g>
   <g id="line2d_38">
    <path d="M 178.5204 252.618 
L 160.5204 252.618 
L 178.5204 276.018 
L 196.5204 252.618 
L 178.5204 252.618 
" clip-path="url(#peb4cf390fa)" style="fill: none; stroke: #000000; stroke-width: 2; stroke-linecap: round"/>
   </g>
   <g id="line2d_39">
    <path d="M 178.5204 276.018 
L 160.5204 276.018 
L 178.5204 252.618 
L 196.5204 276.018 
L 178.5204 276.018 
" clip-path="url(#peb4cf390fa)" style="fill: none; stroke: #000000; stroke-width: 2; stroke-linecap: round"/>
   </g>
   <g id="line2d_40">
    <path d="M 194.3604 264.318 
L 203.7204 264.318 
" clip-path="url(#peb4cf390fa)" style="fill: none; stroke: #000000; stroke-width: 2; stroke-linecap: round"/>
   </g>
   <g id="line2d_41">
    <path d="M 168.4404 264.318 
L 153.3204 264.318 
" clip-path="url(#peb4cf390fa)" style="fill: none; stroke: #000000; stroke-width: 2; stroke-linecap: round"/>
   </g>
   <g id="line2d_42">
    <path d="M 153.3204 264.318 
L 144.3204 264.318 
L 135.3204 264.318 
" clip-path="url(#peb4cf390fa)" style="fill: none; stroke: #000000; stroke-width: 2; stroke-linecap: round"/>
   </g>
   <g id="line2d_43">
    <path d="M 203.7204 264.318 
L 212.7204 264.318 
L 221.7204 264.318 
" clip-path="url(#peb4cf390fa)" style="fill: none; stroke: #000000; stroke-width: 2; stroke-linecap: round"/>
   </g>
   <g id="line2d_44">
    <path d="M 178.5204 252.618 
L 178.5204 234.618 
L 178.5204 216.618 
" clip-path="url(#peb4cf390fa)" style="fill: none; stroke: #000000; stroke-width: 2; stroke-linecap: round"/>
   </g>
   <g id="line2d_45">
    <path d="M 178.5204 216.618 
L 178.5204 207.618 
L 178.5204 198.618 
" clip-path="url(#peb4cf390fa)" style="fill: none; stroke: #000000; stroke-width: 2; stroke-linecap: round"/>
   </g>
   <g id="line2d_46">
    <path d="M 178.5204 198.618 
L 178.5204 165.858 
M 169.5204 165.858 
L 187.5204 165.858 
M 169.5204 159.378 
L 187.5204 159.378 
M 178.5204 159.378 
L 178.5204 126.618 
" clip-path="url(#peb4cf390fa)" style="fill: none; stroke: #000000; stroke-width: 2; stroke-linecap: round"/>
   </g>
   <g id="line2d_47">
    <path d="M 178.5204 126.618 
L 178.5204 117.618 
L 178.5204 108.618 
" clip-path="url(#peb4cf390fa)" style="fill: none; stroke: #000000; stroke-width: 2; stroke-linecap: round"/>
   </g>
   <g id="line2d_48">
    <path d="M 178.5204 216.618 
L 124.5204 216.618 
L 70.5204 216.618 
" clip-path="url(#peb4cf390fa)" style="fill: none; stroke: #000000; stroke-width: 2; stroke-linecap: round"/>
   </g>
   <g id="line2d_49">
    <path d="M 70.5204 216.618 
L 70.5204 258.018 
L 70.5204 299.418 
" clip-path="url(#peb4cf390fa)" style="fill: none; stroke: #000000; stroke-width: 2; stroke-linecap: round"/>
   </g>
   <g id="line2d_50">
    <path d="M 70.5204 275.118 
L 70.5204 299.418 
M 70.5204 322.818 
L 70.5204 347.118 
" clip-path="url(#peb4cf390fa)" style="fill: none; stroke: #000000; stroke-width: 2; stroke-linecap: round"/>
   </g>
   <g id="line2d_51">
    <path d="M 70.5204 299.418 
L 52.5204 299.418 
L 70.5204 322.818 
L 88.5204 299.418 
L 70.5204 299.418 
" clip-path="url(#peb4cf390fa)" style="fill: none; stroke: #000000; stroke-width: 2; stroke-linecap: round"/>
   </g>
   <g id="line2d_52">
    <path d="M 70.5204 322.818 
L 52.5204 322.818 
L 70.5204 299.418 
L 88.5204 322.818 
L 70.5204 322.818 
" clip-path="url(#peb4cf390fa)" style="fill: none; stroke: #000000; stroke-width: 2; stroke-linecap: round"/>
   </g>
   <g id="line2d_53">
    <path d="M 86.3604 311.118 
L 95.7204 311.118 
" clip-path="url(#peb4cf390fa)" style="fill: none; stroke: #000000; stroke-width: 2; stroke-linecap: round"/>
   </g>
   <g id="line2d_54">
    <path d="M 60.4404 311.118 
L 45.3204 311.118 
" clip-path="url(#peb4cf390fa)" style="fill: none; stroke: #000000; stroke-width: 2; stroke-linecap: round"/>
   </g>
   <g id="line2d_55">
    <path d="M 45.3204 311.118 
L 36.3204 311.118 
L 27.3204 311.118 
" clip-path="url(#peb4cf390fa)" style="fill: none; stroke: #000000; stroke-width: 2; stroke-linecap: round"/>
   </g>
   <g id="line2d_56">
    <path d="M 95.7204 311.118 
L 104.7204 311.118 
L 113.7204 311.118 
" clip-path="url(#peb4cf390fa)" style="fill: none; stroke: #000000; stroke-width: 2; stroke-linecap: round"/>
   </g>
   <g id="line2d_57">
    <path d="M 70.5204 322.818 
L 70.5204 362.418 
L 70.5204 402.018 
" clip-path="url(#peb4cf390fa)" style="fill: none; stroke: #000000; stroke-width: 2; stroke-linecap: round"/>
   </g>
   <g id="line2d_58">
    <path d="M 70.5204 402.018 
L 70.5204 416.418 
L 61.5204 416.418 
L 70.5204 425.418 
L 79.5204 416.418 
L 70.5204 416.418 
" clip-path="url(#peb4cf390fa)" style="fill: none; stroke: #000000; stroke-width: 2; stroke-linecap: round"/>
   </g>
   <g id="text_1">
    <!-- $V_\mathrm{DD}$ -->
    <g transform="translate(166.875067 14.105972) scale(0.14 -0.14)">
     <defs>
      <path id="CMMI12-56" d="M 3962 3640 
C 4179 3984 4378 4136 4704 4162 
C 4768 4168 4819 4168 4819 4282 
C 4819 4308 4806 4346 4749 4346 
C 4634 4346 4358 4346 4243 4346 
C 4058 4346 3866 4346 3686 4346 
C 3635 4346 3571 4346 3571 4226 
C 3571 4168 3629 4162 3654 4162 
C 3891 4143 3917 4029 3917 3952 
C 3917 3857 3827 3710 3821 3704 
L 1811 540 
L 1363 3969 
C 1363 4160 1696 4160 1766 4160 
C 1862 4160 1920 4160 1920 4282 
C 1920 4346 1850 4346 1830 4346 
C 1722 4346 1594 4346 1485 4346 
L 1126 4346 
C 659 4346 467 4346 461 4346 
C 422 4346 346 4346 346 4230 
C 346 4160 390 4160 493 4160 
C 819 4160 838 4102 858 3944 
L 1370 24 
C 1389 -109 1389 -128 1478 -128 
C 1555 -128 1587 -109 1651 -8 
L 3962 3640 
z
" transform="scale(0.015625)"/>
      <path id="CMR17-44" d="M 333 4352 
L 333 4186 
C 774 4186 845 4186 845 3900 
L 845 452 
C 845 166 774 166 333 166 
L 333 0 
L 2368 0 
C 3398 0 4224 943 4224 2141 
C 4224 3346 3411 4352 2368 4352 
L 333 4352 
z
M 1523 166 
C 1267 166 1254 197 1254 414 
L 1254 3938 
C 1254 4155 1267 4186 1523 4186 
L 2240 4186 
C 2771 4186 3750 3874 3750 2141 
C 3750 1242 3488 879 3366 707 
C 3213 510 2848 166 2240 166 
L 1523 166 
z
" transform="scale(0.015625)"/>
     </defs>
     <use xlink:href="#CMMI12-56" transform="scale(0.996264)"/>
     <use xlink:href="#CMR17-44" transform="translate(56.869579 -14.943915) scale(0.697382)"/>
     <use xlink:href="#CMR17-44" transform="translate(106.144849 -14.943915) scale(0.697382)"/>
    </g>
   </g>
   <g id="text_2">
    <!-- $X_1$ -->
    <g transform="translate(151.368755 46.404924) scale(0.14 -0.14)">
     <defs>
      <path id="CMMI12-58" d="M 3040 2596 
L 2438 3994 
C 2522 4147 2714 4172 2790 4179 
C 2829 4179 2899 4179 2899 4292 
C 2899 4364 2842 4364 2803 4364 
C 2694 4364 2566 4364 2458 4364 
L 2086 4364 
C 1696 4364 1414 4364 1408 4364 
C 1357 4364 1293 4364 1293 4243 
C 1293 4179 1350 4179 1434 4179 
C 1805 4179 1830 4115 1894 3962 
L 2656 2185 
L 1267 693 
C 1037 442 762 198 288 198 
C 211 192 160 192 160 68 
C 160 48 166 0 237 0 
C 326 0 422 0 512 0 
L 813 0 
C 1018 0 1242 0 1440 0 
C 1485 0 1562 0 1562 115 
C 1562 179 1517 185 1478 185 
C 1350 198 1267 268 1267 370 
C 1267 479 1344 557 1530 748 
L 2099 1368 
C 2240 1516 2579 1886 2720 2026 
L 3392 453 
C 3398 441 3424 377 3424 370 
C 3424 313 3283 198 3078 198 
C 3040 198 2970 198 2970 71 
C 2970 0 3034 0 3066 0 
C 3174 0 3302 0 3411 0 
L 4115 0 
C 4230 0 4352 0 4461 0 
C 4506 0 4576 0 4576 130 
C 4576 198 4512 198 4454 198 
C 4070 198 4058 230 3949 465 
L 3104 2441 
L 3917 3316 
C 3981 3381 4128 3542 4186 3606 
C 4461 3896 4717 4160 5235 4160 
C 5299 4179 5363 4179 5363 4292 
C 5363 4364 5306 4364 5280 4364 
C 5190 4364 5094 4364 5005 4364 
L 4710 4364 
C 4506 4364 4282 4364 4083 4364 
C 4038 4364 3962 4364 3962 4249 
C 3962 4185 4006 4179 4045 4179 
C 4147 4167 4256 4116 4256 3994 
L 4250 3982 
C 4243 3937 4230 3873 4160 3797 
L 3040 2596 
z
" transform="scale(0.015625)"/>
      <path id="CMR17-31" d="M 1702 4058 
C 1702 4192 1696 4192 1606 4192 
C 1357 3916 979 3827 621 3827 
C 602 3827 570 3827 563 3808 
C 557 3795 557 3782 557 3648 
C 755 3648 1088 3686 1344 3839 
L 1344 461 
C 1344 236 1331 160 781 160 
L 589 160 
L 589 0 
C 896 0 1216 0 1523 0 
C 1830 0 2150 0 2458 0 
L 2458 160 
L 2266 160 
C 1715 160 1702 230 1702 458 
L 1702 4058 
z
" transform="scale(0.015625)"/>
     </defs>
     <use xlink:href="#CMMI12-58" transform="scale(0.996264)"/>
     <use xlink:href="#CMR17-31" transform="translate(80.960224 -14.943915) scale(0.697382)"/>
    </g>
   </g>
   <g id="patch_7">
    <path d="M 178.5204 116.718 
C 179.236448 116.718 179.923266 116.433511 180.429588 115.927188 
C 180.935911 115.420866 181.2204 114.734048 181.2204 114.018 
C 181.2204 113.301952 180.935911 112.615134 180.429588 112.108812 
C 179.923266 111.602489 179.236448 111.318 178.5204 111.318 
C 177.804352 111.318 177.117534 111.602489 176.611212 112.108812 
C 176.104889 112.615134 175.8204 113.301952 175.8204 114.018 
C 175.8204 114.734048 176.104889 115.420866 176.611212 115.927188 
C 177.117534 116.433511 177.804352 116.718 178.5204 116.718 
z
" clip-path="url(#peb4cf390fa)" style="stroke: #000000; stroke-width: 2; stroke-linejoin: miter"/>
   </g>
   <g id="text_3">
    <!-- $X_2$ -->
    <g transform="translate(246.844577 100.505972) scale(0.14 -0.14)">
     <defs>
      <path id="CMR17-32" d="M 2669 989 
L 2554 989 
C 2490 536 2438 459 2413 420 
C 2381 369 1920 369 1830 369 
L 602 369 
C 832 619 1280 1072 1824 1597 
C 2214 1967 2669 2402 2669 3035 
C 2669 3790 2067 4224 1395 4224 
C 691 4224 262 3604 262 3030 
C 262 2780 448 2748 525 2748 
C 589 2748 781 2787 781 3010 
C 781 3207 614 3264 525 3264 
C 486 3264 448 3258 422 3245 
C 544 3790 915 4058 1306 4058 
C 1862 4058 2227 3617 2227 3035 
C 2227 2479 1901 2000 1536 1584 
L 262 146 
L 262 0 
L 2515 0 
L 2669 989 
z
" transform="scale(0.015625)"/>
     </defs>
     <use xlink:href="#CMMI12-58" transform="scale(0.996264)"/>
     <use xlink:href="#CMR17-32" transform="translate(80.960224 -14.943915) scale(0.697382)"/>
    </g>
   </g>
   <g id="patch_8">
    <path d="M 327.9204 116.718 
C 328.636448 116.718 329.323266 116.433511 329.829588 115.927188 
C 330.335911 115.420866 330.6204 114.734048 330.6204 114.018 
C 330.6204 113.301952 330.335911 112.615134 329.829588 112.108812 
C 329.323266 111.602489 328.636448 111.318 327.9204 111.318 
C 327.204352 111.318 326.517534 111.602489 326.011212 112.108812 
C 325.504889 112.615134 325.2204 113.301952 325.2204 114.018 
C 325.2204 114.734048 325.504889 115.420866 326.011212 115.927188 
C 326.517534 116.433511 327.204352 116.718 327.9204 116.718 
z
" clip-path="url(#peb4cf390fa)" style="stroke: #000000; stroke-width: 2; stroke-linejoin: miter"/>
   </g>
   <g id="text_4">
    <!-- $X_4$ -->
    <g transform="translate(246.844577 298.505972) scale(0.14 -0.14)">
     <defs>
      <path id="CMR17-34" d="M 2150 4122 
C 2150 4256 2144 4256 2029 4256 
L 128 1254 
L 128 1088 
L 1779 1088 
L 1779 457 
C 1779 224 1766 160 1318 160 
L 1197 160 
L 1197 0 
C 1402 0 1747 0 1965 0 
C 2182 0 2528 0 2733 0 
L 2733 160 
L 2611 160 
C 2163 160 2150 224 2150 457 
L 2150 1088 
L 2803 1088 
L 2803 1254 
L 2150 1254 
L 2150 4122 
z
M 1798 3703 
L 1798 1254 
L 256 1254 
L 1798 3703 
z
" transform="scale(0.015625)"/>
     </defs>
     <use xlink:href="#CMMI12-58" transform="scale(0.996264)"/>
     <use xlink:href="#CMR17-34" transform="translate(80.960224 -14.943915) scale(0.697382)"/>
    </g>
   </g>
   <g id="patch_9">
    <path d="M 178.5204 314.718 
C 179.236448 314.718 179.923266 314.433511 180.429588 313.927188 
C 180.935911 313.420866 181.2204 312.734048 181.2204 312.018 
C 181.2204 311.301952 180.935911 310.615134 180.429588 310.108812 
C 179.923266 309.602489 179.236448 309.318 178.5204 309.318 
C 177.804352 309.318 177.117534 309.602489 176.611212 310.108812 
C 176.104889 310.615134 175.8204 311.301952 175.8204 312.018 
C 175.8204 312.734048 176.104889 313.420866 176.611212 313.927188 
C 177.117534 314.433511 177.804352 314.718 178.5204 314.718 
z
" clip-path="url(#peb4cf390fa)" style="stroke: #000000; stroke-width: 2; stroke-linejoin: miter"/>
   </g>
   <g id="text_5">
    <!-- $C_2$ -->
    <g transform="translate(151.132289 369.504924) scale(0.14 -0.14)">
     <defs>
      <path id="CMMI12-43" d="M 4781 4423 
C 4781 4480 4736 4480 4723 4480 
C 4710 4480 4685 4480 4634 4416 
L 4192 3882 
C 3968 4264 3616 4480 3136 4480 
C 1754 4480 320 3088 320 1595 
C 320 533 1069 -128 2003 -128 
C 2515 -128 2963 88 3334 400 
C 3891 863 4058 1481 4058 1531 
C 4058 1588 4006 1588 3987 1588 
C 3930 1588 3923 1550 3910 1524 
C 3616 534 2752 57 2112 57 
C 1434 57 845 489 845 1391 
C 845 1595 909 2700 1632 3532 
C 1984 3939 2586 4295 3194 4295 
C 3898 4295 4211 3717 4211 3068 
C 4211 2903 4192 2764 4192 2738 
C 4192 2681 4256 2681 4275 2681 
C 4346 2681 4352 2687 4378 2801 
L 4781 4423 
z
" transform="scale(0.015625)"/>
     </defs>
     <use xlink:href="#CMMI12-43" transform="scale(0.996264)"/>
     <use xlink:href="#CMR17-32" transform="translate(69.792037 -14.943915) scale(0.697382)"/>
    </g>
   </g>
   <g id="text_6">
    <!-- $X_3$ -->
    <g transform="translate(151.368755 244.404924) scale(0.14 -0.14)">
     <defs>
      <path id="CMR17-33" d="M 1414 2157 
C 1984 2157 2234 1662 2234 1090 
C 2234 320 1824 25 1453 25 
C 1114 25 563 194 390 693 
C 422 680 454 680 486 680 
C 640 680 755 782 755 948 
C 755 1133 614 1216 486 1216 
C 378 1216 211 1165 211 926 
C 211 335 787 -128 1466 -128 
C 2176 -128 2720 430 2720 1085 
C 2720 1707 2208 2157 1600 2227 
C 2086 2328 2554 2756 2554 3329 
C 2554 3820 2048 4179 1472 4179 
C 890 4179 378 3829 378 3329 
C 378 3110 544 3072 627 3072 
C 762 3072 877 3155 877 3321 
C 877 3486 762 3569 627 3569 
C 602 3569 570 3569 544 3557 
C 730 3959 1235 4032 1459 4032 
C 1683 4032 2106 3925 2106 3320 
C 2106 3143 2080 2828 1862 2550 
C 1670 2304 1453 2304 1242 2284 
C 1210 2284 1062 2269 1037 2269 
C 992 2263 966 2257 966 2208 
C 966 2163 973 2157 1101 2157 
L 1414 2157 
z
" transform="scale(0.015625)"/>
     </defs>
     <use xlink:href="#CMMI12-58" transform="scale(0.996264)"/>
     <use xlink:href="#CMR17-33" transform="translate(80.960224 -14.943915) scale(0.697382)"/>
    </g>
   </g>
   <g id="patch_10">
    <path d="M 178.5204 219.318 
C 179.236448 219.318 179.923266 219.033511 180.429588 218.527188 
C 180.935911 218.020866 181.2204 217.334048 181.2204 216.618 
C 181.2204 215.901952 180.935911 215.215134 180.429588 214.708812 
C 179.923266 214.202489 179.236448 213.918 178.5204 213.918 
C 177.804352 213.918 177.117534 214.202489 176.611212 214.708812 
C 176.104889 215.215134 175.8204 215.901952 175.8204 216.618 
C 175.8204 217.334048 176.104889 218.020866 176.611212 218.527188 
C 177.117534 219.033511 177.804352 219.318 178.5204 219.318 
z
" clip-path="url(#peb4cf390fa)" style="stroke: #000000; stroke-width: 2; stroke-linejoin: miter"/>
   </g>
   <g id="text_7">
    <!-- $C_1$ -->
    <g transform="translate(151.132289 166.104924) scale(0.14 -0.14)">
     <use xlink:href="#CMMI12-43" transform="scale(0.996264)"/>
     <use xlink:href="#CMR17-31" transform="translate(69.792037 -14.943915) scale(0.697382)"/>
    </g>
   </g>
   <g id="text_8">
    <!-- $X_5$ -->
    <g transform="translate(43.368755 291.204924) scale(0.14 -0.14)">
     <defs>
      <path id="CMR17-35" d="M 730 3692 
C 794 3666 1056 3584 1325 3584 
C 1920 3584 2246 3911 2432 4100 
C 2432 4157 2432 4192 2394 4192 
C 2387 4192 2374 4192 2323 4163 
C 2099 4058 1837 3973 1517 3973 
C 1325 3973 1037 3999 723 4139 
C 653 4171 640 4171 634 4171 
C 602 4171 595 4164 595 4037 
L 595 2203 
C 595 2089 595 2057 659 2057 
C 691 2057 704 2070 736 2114 
C 941 2401 1222 2522 1542 2522 
C 1766 2522 2246 2382 2246 1289 
C 2246 1085 2246 715 2054 421 
C 1894 159 1645 25 1370 25 
C 947 25 518 320 403 814 
C 429 807 480 795 506 795 
C 589 795 749 840 749 1038 
C 749 1210 627 1280 506 1280 
C 358 1280 262 1190 262 1011 
C 262 454 704 -128 1382 -128 
C 2042 -128 2669 440 2669 1264 
C 2669 2030 2170 2624 1549 2624 
C 1222 2624 947 2503 730 2274 
L 730 3692 
z
" transform="scale(0.015625)"/>
     </defs>
     <use xlink:href="#CMMI12-58" transform="scale(0.996264)"/>
     <use xlink:href="#CMR17-35" transform="translate(80.960224 -14.943915) scale(0.697382)"/>
    </g>
   </g>
   <g id="patch_11">
    <path d="M 135.3204 69.018 
C 136.036448 69.018 136.723266 68.733511 137.229588 68.227188 
C 137.735911 67.720866 138.0204 67.034048 138.0204 66.318 
C 138.0204 65.601952 137.735911 64.915134 137.229588 64.408812 
C 136.723266 63.902489 136.036448 63.618 135.3204 63.618 
C 134.604352 63.618 133.917534 63.902489 133.411212 64.408812 
C 132.904889 64.915134 132.6204 65.601952 132.6204 66.318 
C 132.6204 67.034048 132.904889 67.720866 133.411212 68.227188 
C 133.917534 68.733511 134.604352 69.018 135.3204 69.018 
z
" clip-path="url(#peb4cf390fa)" style="fill: #ffffff; stroke: #000000; stroke-width: 2; stroke-linejoin: miter"/>
   </g>
   <g id="text_9">
    <!-- $\Phi_{10}$ -->
    <g transform="translate(107.322574 69.804924) scale(0.14 -0.14)">
     <defs>
      <path id="CMR17-8" d="M 2330 818 
C 3366 907 3974 1553 3974 2172 
C 3974 2818 3341 3444 2330 3534 
L 2330 3897 
C 2330 4128 2342 4192 2829 4192 
L 2970 4192 
L 2970 4352 
C 2707 4352 2400 4352 2131 4352 
C 1862 4352 1549 4352 1286 4352 
L 1286 4192 
L 1427 4192 
C 1914 4192 1926 4128 1926 3897 
L 1926 3534 
C 922 3444 294 2811 294 2179 
C 294 1521 947 907 1926 818 
L 1926 454 
C 1926 224 1914 160 1427 160 
L 1286 160 
L 1286 0 
C 1549 0 1862 0 2131 0 
C 2400 0 2707 0 2970 0 
L 2970 160 
L 2829 160 
C 2342 160 2330 224 2330 454 
L 2330 818 
z
M 1926 927 
C 1350 991 768 1323 768 2173 
C 768 3048 1370 3367 1926 3425 
L 1926 927 
z
M 2330 3425 
C 2835 3380 3501 3093 3501 2179 
C 3501 1240 2810 972 2330 927 
L 2330 3425 
z
" transform="scale(0.015625)"/>
      <path id="CMR17-30" d="M 2688 2025 
C 2688 2416 2682 3080 2413 3591 
C 2176 4039 1798 4198 1466 4198 
C 1158 4198 768 4058 525 3597 
C 269 3118 243 2524 243 2025 
C 243 1661 250 1106 448 619 
C 723 -39 1216 -128 1466 -128 
C 1760 -128 2208 -7 2470 600 
C 2662 1042 2688 1559 2688 2025 
z
M 1466 -26 
C 1056 -26 813 325 723 812 
C 653 1188 653 1738 653 2096 
C 653 2588 653 2997 736 3387 
C 858 3929 1216 4096 1466 4096 
C 1728 4096 2067 3923 2189 3400 
C 2272 3036 2278 2607 2278 2096 
C 2278 1680 2278 1169 2202 792 
C 2067 95 1690 -26 1466 -26 
z
" transform="scale(0.015625)"/>
     </defs>
     <use xlink:href="#CMR17-8" transform="scale(0.996264)"/>
     <use xlink:href="#CMR17-31" transform="translate(66.509881 -14.943915) scale(0.697382)"/>
     <use xlink:href="#CMR17-30" transform="translate(98.493063 -14.943915) scale(0.697382)"/>
    </g>
   </g>
   <g id="patch_12">
    <path d="M 221.7204 69.018 
C 222.436448 69.018 223.123266 68.733511 223.629588 68.227188 
C 224.135911 67.720866 224.4204 67.034048 224.4204 66.318 
C 224.4204 65.601952 224.135911 64.915134 223.629588 64.408812 
C 223.123266 63.902489 222.436448 63.618 221.7204 63.618 
C 221.004352 63.618 220.317534 63.902489 219.811212 64.408812 
C 219.304889 64.915134 219.0204 65.601952 219.0204 66.318 
C 219.0204 67.034048 219.304889 67.720866 219.811212 68.227188 
C 220.317534 68.733511 221.004352 69.018 221.7204 69.018 
z
" clip-path="url(#peb4cf390fa)" style="fill: #ffffff; stroke: #000000; stroke-width: 2; stroke-linejoin: miter"/>
   </g>
   <g id="text_10">
    <!-- $\overline{\Phi_{10}}$ -->
    <g transform="translate(229.8204 70.533287) scale(0.14 -0.14)">
     <use xlink:href="#CMR17-8" transform="scale(0.996264)"/>
     <use xlink:href="#CMR17-31" transform="translate(66.509881 -14.943915) scale(0.697382)"/>
     <use xlink:href="#CMR17-30" transform="translate(98.493063 -14.943915) scale(0.697382)"/>
     <path d="M 0 80.018823 
L 130.974376 80.018823 
L 130.974376 84.003772 
L 0 84.003772 
L 0 80.018823 
z
"/>
    </g>
   </g>
   <g id="patch_13">
    <path d="M 280.2204 73.518 
C 280.936448 73.518 281.623266 73.233511 282.129588 72.727188 
C 282.635911 72.220866 282.9204 71.534048 282.9204 70.818 
C 282.9204 70.101952 282.635911 69.415134 282.129588 68.908812 
C 281.623266 68.402489 280.936448 68.118 280.2204 68.118 
C 279.504352 68.118 278.817534 68.402489 278.311212 68.908812 
C 277.804889 69.415134 277.5204 70.101952 277.5204 70.818 
C 277.5204 71.534048 277.804889 72.220866 278.311212 72.727188 
C 278.817534 73.233511 279.504352 73.518 280.2204 73.518 
z
" clip-path="url(#peb4cf390fa)" style="fill: #ffffff; stroke: #000000; stroke-width: 2; stroke-linejoin: miter"/>
   </g>
   <g id="text_11">
    <!-- $\Phi_9$ -->
    <g transform="translate(272.7801 60.005972) scale(0.14 -0.14)">
     <defs>
      <path id="CMR17-39" d="M 2253 1864 
C 2253 464 1670 31 1190 31 
C 1043 31 685 31 538 294 
C 704 268 826 357 826 518 
C 826 692 685 749 595 749 
C 538 749 365 723 365 506 
C 365 71 742 -128 1203 -128 
C 1939 -128 2688 674 2688 2073 
C 2688 3817 1971 4179 1485 4179 
C 851 4179 243 3628 243 2778 
C 243 1991 762 1408 1414 1408 
C 1952 1408 2189 1903 2253 2112 
L 2253 1864 
z
M 1427 1510 
C 1254 1510 1011 1542 813 1922 
C 678 2169 678 2461 678 2771 
C 678 3146 678 3405 858 3684 
C 947 3817 1114 4032 1485 4032 
C 2240 4032 2240 2885 2240 2632 
C 2240 2182 2035 1510 1427 1510 
z
" transform="scale(0.015625)"/>
     </defs>
     <use xlink:href="#CMR17-8" transform="scale(0.996264)"/>
     <use xlink:href="#CMR17-39" transform="translate(66.509881 -14.943915) scale(0.697382)"/>
    </g>
   </g>
   <g id="patch_14">
    <path d="M 280.2204 159.918 
C 280.936448 159.918 281.623266 159.633511 282.129588 159.127188 
C 282.635911 158.620866 282.9204 157.934048 282.9204 157.218 
C 282.9204 156.501952 282.635911 155.815134 282.129588 155.308812 
C 281.623266 154.802489 280.936448 154.518 280.2204 154.518 
C 279.504352 154.518 278.817534 154.802489 278.311212 155.308812 
C 277.804889 155.815134 277.5204 156.501952 277.5204 157.218 
C 277.5204 157.934048 277.804889 158.620866 278.311212 159.127188 
C 278.817534 159.633511 279.504352 159.918 280.2204 159.918 
z
" clip-path="url(#peb4cf390fa)" style="fill: #ffffff; stroke: #000000; stroke-width: 2; stroke-linejoin: miter"/>
   </g>
   <g id="text_12">
    <!-- $\overline{\Phi_9}$ -->
    <g transform="translate(272.531034 176.460602) scale(0.14 -0.14)">
     <use xlink:href="#CMR17-8" transform="scale(0.996264)"/>
     <use xlink:href="#CMR17-39" transform="translate(66.509881 -14.943915) scale(0.697382)"/>
     <path d="M 0 80.018823 
L 98.991195 80.018823 
L 98.991195 84.003772 
L 0 84.003772 
L 0 80.018823 
z
"/>
    </g>
   </g>
   <g id="patch_15">
    <path d="M 363.9204 116.718 
C 364.636448 116.718 365.323266 116.433511 365.829588 115.927188 
C 366.335911 115.420866 366.6204 114.734048 366.6204 114.018 
C 366.6204 113.301952 366.335911 112.615134 365.829588 112.108812 
C 365.323266 111.602489 364.636448 111.318 363.9204 111.318 
C 363.204352 111.318 362.517534 111.602489 362.011212 112.108812 
C 361.504889 112.615134 361.2204 113.301952 361.2204 114.018 
C 361.2204 114.734048 361.504889 115.420866 362.011212 115.927188 
C 362.517534 116.433511 363.204352 116.718 363.9204 116.718 
z
" clip-path="url(#peb4cf390fa)" style="fill: #ffffff; stroke: #000000; stroke-width: 2; stroke-linejoin: miter"/>
   </g>
   <g id="text_13">
    <!-- $V_\mathrm{cm}$ -->
    <g transform="translate(372.0204 117.504924) scale(0.14 -0.14)">
     <defs>
      <path id="CMR17-63" d="M 2234 2240 
C 2112 2240 1933 2240 1933 2017 
C 1933 1838 2080 1787 2163 1787 
C 2208 1787 2394 1807 2394 2024 
C 2394 2467 1958 2803 1466 2803 
C 787 2803 211 2178 211 1363 
C 211 516 813 -64 1466 -64 
C 2259 -64 2458 677 2458 748 
C 2458 774 2451 793 2406 793 
C 2362 793 2355 787 2330 703 
C 2163 180 1798 51 1523 51 
C 1114 51 621 427 621 1369 
C 621 2338 1094 2688 1472 2688 
C 1722 2688 2093 2573 2234 2240 
z
" transform="scale(0.015625)"/>
      <path id="CMR17-6d" d="M 4326 1933 
C 4326 2252 4269 2790 3507 2790 
C 3072 2790 2771 2496 2656 2151 
L 2650 2151 
C 2573 2676 2195 2790 1837 2790 
C 1331 2790 1069 2400 973 2144 
L 966 2144 
L 966 2790 
L 211 2720 
L 211 2554 
C 589 2554 646 2515 646 2208 
L 646 428 
C 646 184 621 153 211 153 
L 211 -13 
C 365 0 646 0 813 0 
C 979 0 1267 0 1421 -13 
L 1421 153 
C 1011 153 986 178 986 428 
L 986 1658 
C 986 2247 1344 2688 1792 2688 
C 2266 2688 2317 2266 2317 1958 
L 2317 428 
C 2317 184 2291 153 1882 153 
L 1882 -13 
C 2035 0 2317 0 2483 0 
C 2650 0 2938 0 3091 -13 
L 3091 153 
C 2682 153 2656 178 2656 428 
L 2656 1658 
C 2656 2247 3014 2688 3462 2688 
C 3936 2688 3987 2266 3987 1958 
L 3987 428 
C 3987 184 3962 153 3552 153 
L 3552 -13 
C 3706 0 3987 0 4154 0 
C 4320 0 4608 0 4762 -13 
L 4762 153 
C 4352 153 4326 178 4326 428 
L 4326 1933 
z
" transform="scale(0.015625)"/>
     </defs>
     <use xlink:href="#CMMI12-56" transform="scale(0.996264)"/>
     <use xlink:href="#CMR17-63" transform="translate(56.869579 -14.943915) scale(0.697382)"/>
     <use xlink:href="#CMR17-6d" transform="translate(85.209411 -14.943915) scale(0.697382)"/>
    </g>
   </g>
   <g id="patch_16">
    <path d="M 280.2204 271.518 
C 280.936448 271.518 281.623266 271.233511 282.129588 270.727188 
C 282.635911 270.220866 282.9204 269.534048 282.9204 268.818 
C 282.9204 268.101952 282.635911 267.415134 282.129588 266.908812 
C 281.623266 266.402489 280.936448 266.118 280.2204 266.118 
C 279.504352 266.118 278.817534 266.402489 278.311212 266.908812 
C 277.804889 267.415134 277.5204 268.101952 277.5204 268.818 
C 277.5204 269.534048 277.804889 270.220866 278.311212 270.727188 
C 278.817534 271.233511 279.504352 271.518 280.2204 271.518 
z
" clip-path="url(#peb4cf390fa)" style="fill: #ffffff; stroke: #000000; stroke-width: 2; stroke-linejoin: miter"/>
   </g>
   <g id="text_14">
    <!-- $\Phi_9$ -->
    <g transform="translate(272.7801 258.005972) scale(0.14 -0.14)">
     <use xlink:href="#CMR17-8" transform="scale(0.996264)"/>
     <use xlink:href="#CMR17-39" transform="translate(66.509881 -14.943915) scale(0.697382)"/>
    </g>
   </g>
   <g id="patch_17">
    <path d="M 280.2204 357.918 
C 280.936448 357.918 281.623266 357.633511 282.129588 357.127188 
C 282.635911 356.620866 282.9204 355.934048 282.9204 355.218 
C 282.9204 354.501952 282.635911 353.815134 282.129588 353.308812 
C 281.623266 352.802489 280.936448 352.518 280.2204 352.518 
C 279.504352 352.518 278.817534 352.802489 278.311212 353.308812 
C 277.804889 353.815134 277.5204 354.501952 277.5204 355.218 
C 277.5204 355.934048 277.804889 356.620866 278.311212 357.127188 
C 278.817534 357.633511 279.504352 357.918 280.2204 357.918 
z
" clip-path="url(#peb4cf390fa)" style="fill: #ffffff; stroke: #000000; stroke-width: 2; stroke-linejoin: miter"/>
   </g>
   <g id="text_15">
    <!-- $\overline{\Phi_9}$ -->
    <g transform="translate(272.531034 374.460602) scale(0.14 -0.14)">
     <use xlink:href="#CMR17-8" transform="scale(0.996264)"/>
     <use xlink:href="#CMR17-39" transform="translate(66.509881 -14.943915) scale(0.697382)"/>
     <path d="M 0 80.018823 
L 98.991195 80.018823 
L 98.991195 84.003772 
L 0 84.003772 
L 0 80.018823 
z
"/>
    </g>
   </g>
   <g id="patch_18">
    <path d="M 135.3204 267.018 
C 136.036448 267.018 136.723266 266.733511 137.229588 266.227188 
C 137.735911 265.720866 138.0204 265.034048 138.0204 264.318 
C 138.0204 263.601952 137.735911 262.915134 137.229588 262.408812 
C 136.723266 261.902489 136.036448 261.618 135.3204 261.618 
C 134.604352 261.618 133.917534 261.902489 133.411212 262.408812 
C 132.904889 262.915134 132.6204 263.601952 132.6204 264.318 
C 132.6204 265.034048 132.904889 265.720866 133.411212 266.227188 
C 133.917534 266.733511 134.604352 267.018 135.3204 267.018 
z
" clip-path="url(#peb4cf390fa)" style="fill: #ffffff; stroke: #000000; stroke-width: 2; stroke-linejoin: miter"/>
   </g>
   <g id="text_16">
    <!-- $\Phi_{10}$ -->
    <g transform="translate(107.322574 267.804924) scale(0.14 -0.14)">
     <use xlink:href="#CMR17-8" transform="scale(0.996264)"/>
     <use xlink:href="#CMR17-31" transform="translate(66.509881 -14.943915) scale(0.697382)"/>
     <use xlink:href="#CMR17-30" transform="translate(98.493063 -14.943915) scale(0.697382)"/>
    </g>
   </g>
   <g id="patch_19">
    <path d="M 221.7204 267.018 
C 222.436448 267.018 223.123266 266.733511 223.629588 266.227188 
C 224.135911 265.720866 224.4204 265.034048 224.4204 264.318 
C 224.4204 263.601952 224.135911 262.915134 223.629588 262.408812 
C 223.123266 261.902489 222.436448 261.618 221.7204 261.618 
C 221.004352 261.618 220.317534 261.902489 219.811212 262.408812 
C 219.304889 262.915134 219.0204 263.601952 219.0204 264.318 
C 219.0204 265.034048 219.304889 265.720866 219.811212 266.227188 
C 220.317534 266.733511 221.004352 267.018 221.7204 267.018 
z
" clip-path="url(#peb4cf390fa)" style="fill: #ffffff; stroke: #000000; stroke-width: 2; stroke-linejoin: miter"/>
   </g>
   <g id="text_17">
    <!-- $\overline{\Phi_{10}}$ -->
    <g transform="translate(229.8204 268.533287) scale(0.14 -0.14)">
     <use xlink:href="#CMR17-8" transform="scale(0.996264)"/>
     <use xlink:href="#CMR17-31" transform="translate(66.509881 -14.943915) scale(0.697382)"/>
     <use xlink:href="#CMR17-30" transform="translate(98.493063 -14.943915) scale(0.697382)"/>
     <path d="M 0 80.018823 
L 130.974376 80.018823 
L 130.974376 84.003772 
L 0 84.003772 
L 0 80.018823 
z
"/>
    </g>
   </g>
   <g id="patch_20">
    <path d="M 27.3204 313.818 
C 28.036448 313.818 28.723266 313.533511 29.229588 313.027188 
C 29.735911 312.520866 30.0204 311.834048 30.0204 311.118 
C 30.0204 310.401952 29.735911 309.715134 29.229588 309.208812 
C 28.723266 308.702489 28.036448 308.418 27.3204 308.418 
C 26.604352 308.418 25.917534 308.702489 25.411212 309.208812 
C 24.904889 309.715134 24.6204 310.401952 24.6204 311.118 
C 24.6204 311.834048 24.904889 312.520866 25.411212 313.027188 
C 25.917534 313.533511 26.604352 313.818 27.3204 313.818 
z
" clip-path="url(#peb4cf390fa)" style="fill: #ffffff; stroke: #000000; stroke-width: 2; stroke-linejoin: miter"/>
   </g>
   <g id="text_18">
    <!-- $\Phi_9$ -->
    <g transform="translate(4.339801 314.604924) scale(0.14 -0.14)">
     <use xlink:href="#CMR17-8" transform="scale(0.996264)"/>
     <use xlink:href="#CMR17-39" transform="translate(66.509881 -14.943915) scale(0.697382)"/>
    </g>
   </g>
   <g id="patch_21">
    <path d="M 113.7204 313.818 
C 114.436448 313.818 115.123266 313.533511 115.629588 313.027188 
C 116.135911 312.520866 116.4204 311.834048 116.4204 311.118 
C 116.4204 310.401952 116.135911 309.715134 115.629588 309.208812 
C 115.123266 308.702489 114.436448 308.418 113.7204 308.418 
C 113.004352 308.418 112.317534 308.702489 111.811212 309.208812 
C 111.304889 309.715134 111.0204 310.401952 111.0204 311.118 
C 111.0204 311.834048 111.304889 312.520866 111.811212 313.027188 
C 112.317534 313.533511 113.004352 313.818 113.7204 313.818 
z
" clip-path="url(#peb4cf390fa)" style="fill: #ffffff; stroke: #000000; stroke-width: 2; stroke-linejoin: miter"/>
   </g>
   <g id="text_19">
    <!-- $\overline{\Phi_9}$ -->
    <g transform="translate(121.8204 315.333287) scale(0.14 -0.14)">
     <use xlink:href="#CMR17-8" transform="scale(0.996264)"/>
     <use xlink:href="#CMR17-39" transform="translate(66.509881 -14.943915) scale(0.697382)"/>
     <path d="M 0 80.018823 
L 98.991195 80.018823 
L 98.991195 84.003772 
L 0 84.003772 
L 0 80.018823 
z
"/>
    </g>
   </g>
  </g>
 </g>
 <defs>
  <clipPath id="peb4cf390fa">
   <rect x="0" y="-0" width="395.9756" height="430.098"/>
  </clipPath>
 </defs>
</svg>
