<?xml version="1.0" encoding="utf-8" standalone="no"?>
<!DOCTYPE svg PUBLIC "-//W3C//DTD SVG 1.1//EN"
  "http://www.w3.org/Graphics/SVG/1.1/DTD/svg11.dtd">
<svg xmlns:xlink="http://www.w3.org/1999/xlink" width="240.5632pt" height="235.2732pt" viewBox="0 0 240.5632 235.2732" xmlns="http://www.w3.org/2000/svg" version="1.1">
 <metadata>
  <rdf:RDF xmlns:dc="http://purl.org/dc/elements/1.1/" xmlns:cc="http://creativecommons.org/ns#" xmlns:rdf="http://www.w3.org/1999/02/22-rdf-syntax-ns#">
   <cc:Work>
    <dc:type rdf:resource="http://purl.org/dc/dcmitype/StillImage"/>
    <dc:date>2025-05-23T18:32:04.771417</dc:date>
    <dc:format>image/svg+xml</dc:format>
    <dc:creator>
     <cc:Agent>
      <dc:title>Matplotlib v3.9.2, https://matplotlib.org/</dc:title>
     </cc:Agent>
    </dc:creator>
   </cc:Work>
  </rdf:RDF>
 </metadata>
 <defs>
  <style type="text/css">*{stroke-linejoin: round; stroke-linecap: butt}</style>
 </defs>
 <g id="figure_1">
  <g id="patch_1">
   <path d="M 0 235.2732 
L 240.5632 235.2732 
L 240.5632 0 
L 0 0 
L 0 235.2732 
z
" style="fill: none"/>
  </g>
  <g id="axes_1">
   <g id="patch_2">
    <path d="M 72.3464 179.4756 
C 73.110185 179.4756 73.84279 179.172145 74.382868 178.632068 
C 74.922945 178.09199 75.2264 177.359385 75.2264 176.5956 
C 75.2264 175.831815 74.922945 175.09921 74.382868 174.559132 
C 73.84279 174.019055 73.110185 173.7156 72.3464 173.7156 
C 71.582615 173.7156 70.85001 174.019055 70.309932 174.559132 
C 69.769855 175.09921 69.4664 175.831815 69.4664 176.5956 
C 69.4664 177.359385 69.769855 178.09199 70.309932 178.632068 
C 70.85001 179.172145 71.582615 179.4756 72.3464 179.4756 
L 72.3464 179.4756 
z
" clip-path="url(#pb6caf1a3db)" style="fill: none; stroke: #000000; stroke-width: 2; stroke-linejoin: miter"/>
   </g>
   <g id="patch_3">
    <path d="M 167.7464 179.4756 
C 168.510185 179.4756 169.24279 179.172145 169.782868 178.632068 
C 170.322945 178.09199 170.6264 177.359385 170.6264 176.5956 
C 170.6264 175.831815 170.322945 175.09921 169.782868 174.559132 
C 169.24279 174.019055 168.510185 173.7156 167.7464 173.7156 
C 166.982615 173.7156 166.25001 174.019055 165.709932 174.559132 
C 165.169855 175.09921 164.8664 175.831815 164.8664 176.5956 
C 164.8664 177.359385 165.169855 178.09199 165.709932 178.632068 
C 166.25001 179.172145 166.982615 179.4756 167.7464 179.4756 
L 167.7464 179.4756 
z
" clip-path="url(#pb6caf1a3db)" style="fill: none; stroke: #000000; stroke-width: 2; stroke-linejoin: miter"/>
   </g>
   <g id="patch_4">
    <path d="M 133.0064 75.6156 
C 133.770185 75.6156 134.50279 75.312145 135.042868 74.772068 
C 135.582945 74.23199 135.8864 73.499385 135.8864 72.7356 
C 135.8864 71.971815 135.582945 71.23921 135.042868 70.699132 
C 134.50279 70.159055 133.770185 69.8556 133.0064 69.8556 
C 132.242615 69.8556 131.51001 70.159055 130.969932 70.699132 
C 130.429855 71.23921 130.1264 71.971815 130.1264 72.7356 
C 130.1264 73.499385 130.429855 74.23199 130.969932 74.772068 
C 131.51001 75.312145 132.242615 75.6156 133.0064 75.6156 
L 133.0064 75.6156 
z
" clip-path="url(#pb6caf1a3db)" style="fill: none; stroke: #000000; stroke-width: 2; stroke-linejoin: miter"/>
   </g>
   <g id="line2d_1">
    <path d="M 24.6464 163.6356 
L 42.6464 163.6356 
L 60.6464 163.6356 
" clip-path="url(#pb6caf1a3db)" style="fill: none; stroke: #000000; stroke-width: 2; stroke-linecap: round"/>
   </g>
   <g id="line2d_2">
    <path d="M 108.3464 163.6356 
L 84.0464 163.6356 
M 60.6464 163.6356 
L 36.3464 163.6356 
" clip-path="url(#pb6caf1a3db)" style="fill: none; stroke: #000000; stroke-width: 2; stroke-linecap: round"/>
   </g>
   <g id="line2d_3">
    <path d="M 84.0464 163.6356 
L 84.0464 145.6356 
L 60.6464 163.6356 
L 84.0464 181.6356 
L 84.0464 163.6356 
" clip-path="url(#pb6caf1a3db)" style="fill: none; stroke: #000000; stroke-width: 2; stroke-linecap: round"/>
   </g>
   <g id="line2d_4">
    <path d="M 60.6464 163.6356 
L 60.6464 145.6356 
L 84.0464 163.6356 
L 60.6464 181.6356 
L 60.6464 163.6356 
" clip-path="url(#pb6caf1a3db)" style="fill: none; stroke: #000000; stroke-width: 2; stroke-linecap: round"/>
   </g>
   <g id="line2d_5">
    <path d="M 72.3464 179.4756 
L 72.3464 188.8356 
" clip-path="url(#pb6caf1a3db)" style="fill: none; stroke: #000000; stroke-width: 2; stroke-linecap: round"/>
   </g>
   <g id="line2d_6">
    <path d="M 72.3464 153.5556 
L 72.3464 138.4356 
" clip-path="url(#pb6caf1a3db)" style="fill: none; stroke: #000000; stroke-width: 2; stroke-linecap: round"/>
   </g>
   <g id="line2d_7">
    <path d="M 72.3464 138.4356 
L 72.3464 129.4356 
L 72.3464 120.4356 
" clip-path="url(#pb6caf1a3db)" style="fill: none; stroke: #000000; stroke-width: 2; stroke-linecap: round"/>
   </g>
   <g id="line2d_8">
    <path d="M 72.3464 188.8356 
L 72.3464 197.8356 
L 72.3464 206.8356 
" clip-path="url(#pb6caf1a3db)" style="fill: none; stroke: #000000; stroke-width: 2; stroke-linecap: round"/>
   </g>
   <g id="line2d_9">
    <path d="M 84.0464 163.6356 
L 102.0464 163.6356 
L 120.0464 163.6356 
" clip-path="url(#pb6caf1a3db)" style="fill: none; stroke: #000000; stroke-width: 2; stroke-linecap: round"/>
   </g>
   <g id="line2d_10">
    <path d="M 120.0464 163.6356 
L 138.0464 163.6356 
L 156.0464 163.6356 
" clip-path="url(#pb6caf1a3db)" style="fill: none; stroke: #000000; stroke-width: 2; stroke-linecap: round"/>
   </g>
   <g id="line2d_11">
    <path d="M 203.7464 163.6356 
L 179.4464 163.6356 
M 156.0464 163.6356 
L 131.7464 163.6356 
" clip-path="url(#pb6caf1a3db)" style="fill: none; stroke: #000000; stroke-width: 2; stroke-linecap: round"/>
   </g>
   <g id="line2d_12">
    <path d="M 179.4464 163.6356 
L 179.4464 145.6356 
L 156.0464 163.6356 
L 179.4464 181.6356 
L 179.4464 163.6356 
" clip-path="url(#pb6caf1a3db)" style="fill: none; stroke: #000000; stroke-width: 2; stroke-linecap: round"/>
   </g>
   <g id="line2d_13">
    <path d="M 156.0464 163.6356 
L 156.0464 145.6356 
L 179.4464 163.6356 
L 156.0464 181.6356 
L 156.0464 163.6356 
" clip-path="url(#pb6caf1a3db)" style="fill: none; stroke: #000000; stroke-width: 2; stroke-linecap: round"/>
   </g>
   <g id="line2d_14">
    <path d="M 167.7464 179.4756 
L 167.7464 188.8356 
" clip-path="url(#pb6caf1a3db)" style="fill: none; stroke: #000000; stroke-width: 2; stroke-linecap: round"/>
   </g>
   <g id="line2d_15">
    <path d="M 167.7464 153.5556 
L 167.7464 138.4356 
" clip-path="url(#pb6caf1a3db)" style="fill: none; stroke: #000000; stroke-width: 2; stroke-linecap: round"/>
   </g>
   <g id="line2d_16">
    <path d="M 167.7464 138.4356 
L 167.7464 129.4356 
L 167.7464 120.4356 
" clip-path="url(#pb6caf1a3db)" style="fill: none; stroke: #000000; stroke-width: 2; stroke-linecap: round"/>
   </g>
   <g id="line2d_17">
    <path d="M 167.7464 188.8356 
L 167.7464 197.8356 
L 167.7464 206.8356 
" clip-path="url(#pb6caf1a3db)" style="fill: none; stroke: #000000; stroke-width: 2; stroke-linecap: round"/>
   </g>
   <g id="line2d_18">
    <path d="M 179.4464 163.6356 
L 197.4464 163.6356 
L 215.4464 163.6356 
" clip-path="url(#pb6caf1a3db)" style="fill: none; stroke: #000000; stroke-width: 2; stroke-linecap: round"/>
   </g>
   <g id="line2d_19">
    <path d="M 120.0464 163.6356 
L 120.0464 151.0356 
L 120.0464 138.4356 
" clip-path="url(#pb6caf1a3db)" style="fill: none; stroke: #000000; stroke-width: 2; stroke-linecap: round"/>
   </g>
   <g id="line2d_20">
    <path d="M 120.0464 138.4356 
L 120.0464 111.4356 
L 120.0464 84.4356 
" clip-path="url(#pb6caf1a3db)" style="fill: none; stroke: #000000; stroke-width: 2; stroke-linecap: round"/>
   </g>
   <g id="line2d_21">
    <path d="M 120.0464 36.7356 
L 120.0464 61.0356 
M 120.0464 84.4356 
L 120.0464 108.7356 
" clip-path="url(#pb6caf1a3db)" style="fill: none; stroke: #000000; stroke-width: 2; stroke-linecap: round"/>
   </g>
   <g id="line2d_22">
    <path d="M 120.0464 61.0356 
L 102.0464 61.0356 
L 120.0464 84.4356 
L 138.0464 61.0356 
L 120.0464 61.0356 
" clip-path="url(#pb6caf1a3db)" style="fill: none; stroke: #000000; stroke-width: 2; stroke-linecap: round"/>
   </g>
   <g id="line2d_23">
    <path d="M 120.0464 84.4356 
L 102.0464 84.4356 
L 120.0464 61.0356 
L 138.0464 84.4356 
L 120.0464 84.4356 
" clip-path="url(#pb6caf1a3db)" style="fill: none; stroke: #000000; stroke-width: 2; stroke-linecap: round"/>
   </g>
   <g id="line2d_24">
    <path d="M 135.8864 72.7356 
L 145.2464 72.7356 
" clip-path="url(#pb6caf1a3db)" style="fill: none; stroke: #000000; stroke-width: 2; stroke-linecap: round"/>
   </g>
   <g id="line2d_25">
    <path d="M 109.9664 72.7356 
L 94.8464 72.7356 
" clip-path="url(#pb6caf1a3db)" style="fill: none; stroke: #000000; stroke-width: 2; stroke-linecap: round"/>
   </g>
   <g id="line2d_26">
    <path d="M 94.8464 72.7356 
L 85.8464 72.7356 
L 76.8464 72.7356 
" clip-path="url(#pb6caf1a3db)" style="fill: none; stroke: #000000; stroke-width: 2; stroke-linecap: round"/>
   </g>
   <g id="line2d_27">
    <path d="M 145.2464 72.7356 
L 154.2464 72.7356 
L 163.2464 72.7356 
" clip-path="url(#pb6caf1a3db)" style="fill: none; stroke: #000000; stroke-width: 2; stroke-linecap: round"/>
   </g>
   <g id="line2d_28">
    <path d="M 120.0464 61.0356 
L 120.0464 43.0356 
L 120.0464 25.0356 
" clip-path="url(#pb6caf1a3db)" style="fill: none; stroke: #000000; stroke-width: 2; stroke-linecap: round"/>
   </g>
   <g id="text_1">
    <!-- $X_1$ -->
    <g transform="translate(38.970577 150.123572) scale(0.14 -0.14)">
     <defs>
      <path id="CMMI12-58" d="M 3040 2596 
L 2438 3994 
C 2522 4147 2714 4172 2790 4179 
C 2829 4179 2899 4179 2899 4292 
C 2899 4364 2842 4364 2803 4364 
C 2694 4364 2566 4364 2458 4364 
L 2086 4364 
C 1696 4364 1414 4364 1408 4364 
C 1357 4364 1293 4364 1293 4243 
C 1293 4179 1350 4179 1434 4179 
C 1805 4179 1830 4115 1894 3962 
L 2656 2185 
L 1267 693 
C 1037 442 762 198 288 198 
C 211 192 160 192 160 68 
C 160 48 166 0 237 0 
C 326 0 422 0 512 0 
L 813 0 
C 1018 0 1242 0 1440 0 
C 1485 0 1562 0 1562 115 
C 1562 179 1517 185 1478 185 
C 1350 198 1267 268 1267 370 
C 1267 479 1344 557 1530 748 
L 2099 1368 
C 2240 1516 2579 1886 2720 2026 
L 3392 453 
C 3398 441 3424 377 3424 370 
C 3424 313 3283 198 3078 198 
C 3040 198 2970 198 2970 71 
C 2970 0 3034 0 3066 0 
C 3174 0 3302 0 3411 0 
L 4115 0 
C 4230 0 4352 0 4461 0 
C 4506 0 4576 0 4576 130 
C 4576 198 4512 198 4454 198 
C 4070 198 4058 230 3949 465 
L 3104 2441 
L 3917 3316 
C 3981 3381 4128 3542 4186 3606 
C 4461 3896 4717 4160 5235 4160 
C 5299 4179 5363 4179 5363 4292 
C 5363 4364 5306 4364 5280 4364 
C 5190 4364 5094 4364 5005 4364 
L 4710 4364 
C 4506 4364 4282 4364 4083 4364 
C 4038 4364 3962 4364 3962 4249 
C 3962 4185 4006 4179 4045 4179 
C 4147 4167 4256 4116 4256 3994 
L 4250 3982 
C 4243 3937 4230 3873 4160 3797 
L 3040 2596 
z
" transform="scale(0.015625)"/>
      <path id="CMR17-31" d="M 1702 4058 
C 1702 4192 1696 4192 1606 4192 
C 1357 3916 979 3827 621 3827 
C 602 3827 570 3827 563 3808 
C 557 3795 557 3782 557 3648 
C 755 3648 1088 3686 1344 3839 
L 1344 461 
C 1344 236 1331 160 781 160 
L 589 160 
L 589 0 
C 896 0 1216 0 1523 0 
C 1830 0 2150 0 2458 0 
L 2458 160 
L 2266 160 
C 1715 160 1702 230 1702 458 
L 1702 4058 
z
" transform="scale(0.015625)"/>
     </defs>
     <use xlink:href="#CMMI12-58" transform="scale(0.996264)"/>
     <use xlink:href="#CMR17-31" transform="translate(80.960224 -14.943915) scale(0.697382)"/>
    </g>
   </g>
   <g id="patch_5">
    <path d="M 120.0464 166.3356 
C 120.762448 166.3356 121.449266 166.051111 121.955588 165.544788 
C 122.461911 165.038466 122.7464 164.351648 122.7464 163.6356 
C 122.7464 162.919552 122.461911 162.232734 121.955588 161.726412 
C 121.449266 161.220089 120.762448 160.9356 120.0464 160.9356 
C 119.330352 160.9356 118.643534 161.220089 118.137212 161.726412 
C 117.630889 162.232734 117.3464 162.919552 117.3464 163.6356 
C 117.3464 164.351648 117.630889 165.038466 118.137212 165.544788 
C 118.643534 166.051111 119.330352 166.3356 120.0464 166.3356 
z
" clip-path="url(#pb6caf1a3db)" style="stroke: #000000; stroke-width: 2; stroke-linejoin: miter"/>
   </g>
   <g id="text_2">
    <!-- $X_2$ -->
    <g transform="translate(134.370577 150.123572) scale(0.14 -0.14)">
     <defs>
      <path id="CMR17-32" d="M 2669 989 
L 2554 989 
C 2490 536 2438 459 2413 420 
C 2381 369 1920 369 1830 369 
L 602 369 
C 832 619 1280 1072 1824 1597 
C 2214 1967 2669 2402 2669 3035 
C 2669 3790 2067 4224 1395 4224 
C 691 4224 262 3604 262 3030 
C 262 2780 448 2748 525 2748 
C 589 2748 781 2787 781 3010 
C 781 3207 614 3264 525 3264 
C 486 3264 448 3258 422 3245 
C 544 3790 915 4058 1306 4058 
C 1862 4058 2227 3617 2227 3035 
C 2227 2479 1901 2000 1536 1584 
L 262 146 
L 262 0 
L 2515 0 
L 2669 989 
z
" transform="scale(0.015625)"/>
     </defs>
     <use xlink:href="#CMMI12-58" transform="scale(0.996264)"/>
     <use xlink:href="#CMR17-32" transform="translate(80.960224 -14.943915) scale(0.697382)"/>
    </g>
   </g>
   <g id="text_3">
    <!-- $X_3$ -->
    <g transform="translate(92.894755 52.822524) scale(0.14 -0.14)">
     <defs>
      <path id="CMR17-33" d="M 1414 2157 
C 1984 2157 2234 1662 2234 1090 
C 2234 320 1824 25 1453 25 
C 1114 25 563 194 390 693 
C 422 680 454 680 486 680 
C 640 680 755 782 755 948 
C 755 1133 614 1216 486 1216 
C 378 1216 211 1165 211 926 
C 211 335 787 -128 1466 -128 
C 2176 -128 2720 430 2720 1085 
C 2720 1707 2208 2157 1600 2227 
C 2086 2328 2554 2756 2554 3329 
C 2554 3820 2048 4179 1472 4179 
C 890 4179 378 3829 378 3329 
C 378 3110 544 3072 627 3072 
C 762 3072 877 3155 877 3321 
C 877 3486 762 3569 627 3569 
C 602 3569 570 3569 544 3557 
C 730 3959 1235 4032 1459 4032 
C 1683 4032 2106 3925 2106 3320 
C 2106 3143 2080 2828 1862 2550 
C 1670 2304 1453 2304 1242 2284 
C 1210 2284 1062 2269 1037 2269 
C 992 2263 966 2257 966 2208 
C 966 2163 973 2157 1101 2157 
L 1414 2157 
z
" transform="scale(0.015625)"/>
     </defs>
     <use xlink:href="#CMMI12-58" transform="scale(0.996264)"/>
     <use xlink:href="#CMR17-33" transform="translate(80.960224 -14.943915) scale(0.697382)"/>
    </g>
   </g>
   <g id="patch_6">
    <path d="M 24.6464 166.3356 
C 25.362448 166.3356 26.049266 166.051111 26.555588 165.544788 
C 27.061911 165.038466 27.3464 164.351648 27.3464 163.6356 
C 27.3464 162.919552 27.061911 162.232734 26.555588 161.726412 
C 26.049266 161.220089 25.362448 160.9356 24.6464 160.9356 
C 23.930352 160.9356 23.243534 161.220089 22.737212 161.726412 
C 22.230889 162.232734 21.9464 162.919552 21.9464 163.6356 
C 21.9464 164.351648 22.230889 165.038466 22.737212 165.544788 
C 23.243534 166.051111 23.930352 166.3356 24.6464 166.3356 
z
" clip-path="url(#pb6caf1a3db)" style="fill: #ffffff; stroke: #000000; stroke-width: 2; stroke-linejoin: miter"/>
   </g>
   <g id="text_4">
    <!-- $V_\mathrm{a}$ -->
    <g transform="translate(3.567437 167.122524) scale(0.14 -0.14)">
     <defs>
      <path id="CMMI12-56" d="M 3962 3640 
C 4179 3984 4378 4136 4704 4162 
C 4768 4168 4819 4168 4819 4282 
C 4819 4308 4806 4346 4749 4346 
C 4634 4346 4358 4346 4243 4346 
C 4058 4346 3866 4346 3686 4346 
C 3635 4346 3571 4346 3571 4226 
C 3571 4168 3629 4162 3654 4162 
C 3891 4143 3917 4029 3917 3952 
C 3917 3857 3827 3710 3821 3704 
L 1811 540 
L 1363 3969 
C 1363 4160 1696 4160 1766 4160 
C 1862 4160 1920 4160 1920 4282 
C 1920 4346 1850 4346 1830 4346 
C 1722 4346 1594 4346 1485 4346 
L 1126 4346 
C 659 4346 467 4346 461 4346 
C 422 4346 346 4346 346 4230 
C 346 4160 390 4160 493 4160 
C 819 4160 838 4102 858 3944 
L 1370 24 
C 1389 -109 1389 -128 1478 -128 
C 1555 -128 1587 -109 1651 -8 
L 3962 3640 
z
" transform="scale(0.015625)"/>
      <path id="CMR17-61" d="M 2304 1653 
C 2304 2072 2304 2294 2035 2543 
C 1798 2752 1523 2816 1306 2816 
C 800 2816 435 2407 435 1971 
C 435 1728 627 1728 666 1728 
C 749 1728 896 1778 896 1954 
C 896 2112 774 2181 666 2181 
C 640 2181 608 2174 589 2168 
C 723 2592 1069 2714 1293 2714 
C 1613 2714 1965 2429 1965 1885 
L 1965 1600 
C 1587 1600 1133 1549 774 1357 
C 371 1133 256 813 256 570 
C 256 77 832 -64 1171 -64 
C 1523 -64 1850 139 1990 511 
C 2003 233 2182 -18 2464 -18 
C 2598 -18 2938 70 2938 567 
L 2938 920 
L 2822 920 
L 2822 562 
C 2822 178 2650 128 2566 128 
C 2304 128 2304 458 2304 738 
L 2304 1653 
z
M 1965 870 
C 1965 317 1568 38 1216 38 
C 896 38 646 275 646 570 
C 646 761 730 1100 1101 1305 
C 1408 1478 1760 1504 1965 1504 
L 1965 870 
z
" transform="scale(0.015625)"/>
     </defs>
     <use xlink:href="#CMMI12-56" transform="scale(0.996264)"/>
     <use xlink:href="#CMR17-61" transform="translate(56.869579 -14.943915) scale(0.697382)"/>
    </g>
   </g>
   <g id="patch_7">
    <path d="M 72.3464 123.1356 
C 73.062448 123.1356 73.749266 122.851111 74.255588 122.344788 
C 74.761911 121.838466 75.0464 121.151648 75.0464 120.4356 
C 75.0464 119.719552 74.761911 119.032734 74.255588 118.526412 
C 73.749266 118.020089 73.062448 117.7356 72.3464 117.7356 
C 71.630352 117.7356 70.943534 118.020089 70.437212 118.526412 
C 69.930889 119.032734 69.6464 119.719552 69.6464 120.4356 
C 69.6464 121.151648 69.930889 121.838466 70.437212 122.344788 
C 70.943534 122.851111 71.630352 123.1356 72.3464 123.1356 
z
" clip-path="url(#pb6caf1a3db)" style="fill: #ffffff; stroke: #000000; stroke-width: 2; stroke-linejoin: miter"/>
   </g>
   <g id="text_5">
    <!-- $V_\mathrm{CTRL}$ -->
    <g transform="translate(54.290156 109.623572) scale(0.14 -0.14)">
     <defs>
      <path id="CMR17-43" d="M 3974 4289 
C 3974 4403 3968 4410 3930 4410 
C 3904 4410 3898 4403 3853 4327 
L 3571 3792 
C 3258 4187 2874 4416 2381 4416 
C 1286 4416 294 3456 294 2148 
C 294 826 1286 -128 2387 -128 
C 3366 -128 3974 730 3974 1461 
C 3974 1524 3974 1550 3917 1550 
C 3866 1550 3866 1531 3859 1474 
C 3808 585 3168 38 2477 38 
C 1824 38 781 495 781 2147 
C 781 3805 1843 4250 2464 4250 
C 3187 4250 3712 3628 3834 2745 
C 3846 2668 3846 2655 3904 2655 
C 3974 2655 3974 2668 3974 2783 
L 3974 4289 
z
" transform="scale(0.015625)"/>
      <path id="CMR17-54" d="M 3981 4326 
L 288 4326 
L 179 2918 
L 294 2918 
C 378 3976 467 4160 1453 4160 
C 1568 4160 1754 4160 1805 4154 
C 1926 4135 1926 4058 1926 3912 
L 1926 459 
C 1926 230 1907 160 1376 160 
L 1197 160 
L 1197 0 
C 1504 0 1824 0 2138 0 
C 2451 0 2771 0 3078 0 
L 3078 160 
L 2899 160 
C 2368 160 2349 230 2349 459 
L 2349 3912 
C 2349 4052 2349 4129 2464 4154 
C 2515 4160 2701 4160 2816 4160 
C 3795 4160 3891 3976 3974 2918 
L 4090 2918 
L 3981 4326 
z
" transform="scale(0.015625)"/>
      <path id="CMR17-52" d="M 2509 2146 
C 3117 2268 3629 2676 3629 3186 
C 3629 3785 2950 4326 2054 4326 
L 333 4326 
L 333 4160 
C 774 4160 845 4160 845 3873 
L 845 415 
C 845 128 774 128 333 128 
L 333 -26 
C 518 -26 851 -26 1050 -26 
C 1248 -26 1581 -26 1766 -26 
L 1766 128 
C 1325 128 1254 128 1254 417 
L 1254 2112 
L 2003 2112 
C 2368 2112 2573 1964 2662 1881 
C 2918 1632 2918 1459 2918 1024 
C 2918 595 2918 377 3110 160 
C 3354 -102 3680 -128 3821 -128 
C 4294 -128 4365 396 4365 503 
C 4365 540 4365 585 4307 585 
C 4256 585 4250 547 4250 522 
C 4218 112 4032 -26 3834 -26 
C 3482 -26 3443 375 3405 764 
C 3386 898 3373 993 3360 1133 
C 3322 1452 3270 1917 2509 2146 
z
M 1984 2214 
L 1254 2214 
L 1254 3913 
C 1254 4129 1267 4160 1523 4160 
L 1990 4160 
C 2522 4160 3142 3977 3142 3190 
C 3142 2372 2464 2214 1984 2214 
z
" transform="scale(0.015625)"/>
      <path id="CMR17-4c" d="M 3469 1615 
L 3354 1615 
C 3302 983 3219 166 2125 166 
L 1530 166 
C 1274 166 1261 197 1261 414 
L 1261 3898 
C 1261 4129 1274 4192 1760 4192 
L 1901 4192 
L 1901 4352 
C 1638 4352 1331 4352 1069 4352 
C 870 4352 512 4352 326 4352 
L 326 4192 
C 768 4192 838 4192 838 3905 
L 838 452 
C 838 166 768 166 326 166 
L 326 0 
L 3315 0 
L 3469 1615 
z
" transform="scale(0.015625)"/>
     </defs>
     <use xlink:href="#CMMI12-56" transform="scale(0.996264)"/>
     <use xlink:href="#CMR17-43" transform="translate(56.869579 -14.943915) scale(0.697382)"/>
     <use xlink:href="#CMR17-54" transform="translate(103.426284 -14.943915) scale(0.697382)"/>
     <use xlink:href="#CMR17-52" transform="translate(149.982989 -14.943915) scale(0.697382)"/>
     <use xlink:href="#CMR17-4c" transform="translate(197.436554 -14.943915) scale(0.697382)"/>
    </g>
   </g>
   <g id="patch_8">
    <path d="M 72.3464 209.5356 
C 73.062448 209.5356 73.749266 209.251111 74.255588 208.744788 
C 74.761911 208.238466 75.0464 207.551648 75.0464 206.8356 
C 75.0464 206.119552 74.761911 205.432734 74.255588 204.926412 
C 73.749266 204.420089 73.062448 204.1356 72.3464 204.1356 
C 71.630352 204.1356 70.943534 204.420089 70.437212 204.926412 
C 69.930889 205.432734 69.6464 206.119552 69.6464 206.8356 
C 69.6464 207.551648 69.930889 208.238466 70.437212 208.744788 
C 70.943534 209.251111 71.630352 209.5356 72.3464 209.5356 
z
" clip-path="url(#pb6caf1a3db)" style="fill: #ffffff; stroke: #000000; stroke-width: 2; stroke-linejoin: miter"/>
   </g>
   <g id="text_6">
    <!-- $\overline{V_\mathrm{CTRL}}$ -->
    <g transform="translate(54.04109 226.078202) scale(0.14 -0.14)">
     <use xlink:href="#CMMI12-56" transform="scale(0.996264)"/>
     <use xlink:href="#CMR17-43" transform="translate(56.869579 -14.943915) scale(0.697382)"/>
     <use xlink:href="#CMR17-54" transform="translate(103.426284 -14.943915) scale(0.697382)"/>
     <use xlink:href="#CMR17-52" transform="translate(149.982989 -14.943915) scale(0.697382)"/>
     <use xlink:href="#CMR17-4c" transform="translate(197.436554 -14.943915) scale(0.697382)"/>
     <path d="M 0 80.032884 
L 238.101489 80.032884 
L 238.101489 84.017834 
L 0 84.017834 
L 0 80.032884 
z
"/>
    </g>
   </g>
   <g id="patch_9">
    <path d="M 167.7464 123.1356 
C 168.462448 123.1356 169.149266 122.851111 169.655588 122.344788 
C 170.161911 121.838466 170.4464 121.151648 170.4464 120.4356 
C 170.4464 119.719552 170.161911 119.032734 169.655588 118.526412 
C 169.149266 118.020089 168.462448 117.7356 167.7464 117.7356 
C 167.030352 117.7356 166.343534 118.020089 165.837212 118.526412 
C 165.330889 119.032734 165.0464 119.719552 165.0464 120.4356 
C 165.0464 121.151648 165.330889 121.838466 165.837212 122.344788 
C 166.343534 122.851111 167.030352 123.1356 167.7464 123.1356 
z
" clip-path="url(#pb6caf1a3db)" style="fill: #ffffff; stroke: #000000; stroke-width: 2; stroke-linejoin: miter"/>
   </g>
   <g id="text_7">
    <!-- $\overline{V_\mathrm{CTRL}}$ -->
    <g transform="translate(149.44109 109.623572) scale(0.14 -0.14)">
     <use xlink:href="#CMMI12-56" transform="scale(0.996264)"/>
     <use xlink:href="#CMR17-43" transform="translate(56.869579 -14.943915) scale(0.697382)"/>
     <use xlink:href="#CMR17-54" transform="translate(103.426284 -14.943915) scale(0.697382)"/>
     <use xlink:href="#CMR17-52" transform="translate(149.982989 -14.943915) scale(0.697382)"/>
     <use xlink:href="#CMR17-4c" transform="translate(197.436554 -14.943915) scale(0.697382)"/>
     <path d="M 0 80.032884 
L 238.101489 80.032884 
L 238.101489 84.017834 
L 0 84.017834 
L 0 80.032884 
z
"/>
    </g>
   </g>
   <g id="patch_10">
    <path d="M 167.7464 209.5356 
C 168.462448 209.5356 169.149266 209.251111 169.655588 208.744788 
C 170.161911 208.238466 170.4464 207.551648 170.4464 206.8356 
C 170.4464 206.119552 170.161911 205.432734 169.655588 204.926412 
C 169.149266 204.420089 168.462448 204.1356 167.7464 204.1356 
C 167.030352 204.1356 166.343534 204.420089 165.837212 204.926412 
C 165.330889 205.432734 165.0464 206.119552 165.0464 206.8356 
C 165.0464 207.551648 165.330889 208.238466 165.837212 208.744788 
C 166.343534 209.251111 167.030352 209.5356 167.7464 209.5356 
z
" clip-path="url(#pb6caf1a3db)" style="fill: #ffffff; stroke: #000000; stroke-width: 2; stroke-linejoin: miter"/>
   </g>
   <g id="text_8">
    <!-- $V_\mathrm{CTRL}$ -->
    <g transform="translate(149.690156 224.621476) scale(0.14 -0.14)">
     <use xlink:href="#CMMI12-56" transform="scale(0.996264)"/>
     <use xlink:href="#CMR17-43" transform="translate(56.869579 -14.943915) scale(0.697382)"/>
     <use xlink:href="#CMR17-54" transform="translate(103.426284 -14.943915) scale(0.697382)"/>
     <use xlink:href="#CMR17-52" transform="translate(149.982989 -14.943915) scale(0.697382)"/>
     <use xlink:href="#CMR17-4c" transform="translate(197.436554 -14.943915) scale(0.697382)"/>
    </g>
   </g>
   <g id="patch_11">
    <path d="M 215.4464 166.3356 
C 216.162448 166.3356 216.849266 166.051111 217.355588 165.544788 
C 217.861911 165.038466 218.1464 164.351648 218.1464 163.6356 
C 218.1464 162.919552 217.861911 162.232734 217.355588 161.726412 
C 216.849266 161.220089 216.162448 160.9356 215.4464 160.9356 
C 214.730352 160.9356 214.043534 161.220089 213.537212 161.726412 
C 213.030889 162.232734 212.7464 162.919552 212.7464 163.6356 
C 212.7464 164.351648 213.030889 165.038466 213.537212 165.544788 
C 214.043534 166.051111 214.730352 166.3356 215.4464 166.3356 
z
" clip-path="url(#pb6caf1a3db)" style="fill: #ffffff; stroke: #000000; stroke-width: 2; stroke-linejoin: miter"/>
   </g>
   <g id="text_9">
    <!-- $V_\mathrm{b}$ -->
    <g transform="translate(223.5464 167.122524) scale(0.14 -0.14)">
     <defs>
      <path id="CMR17-62" d="M 960 4396 
L 198 4326 
L 198 4160 
C 576 4160 634 4122 634 3817 
L 634 -13 
L 749 -13 
L 934 441 
C 1120 141 1395 -64 1766 -64 
C 2406 -64 3053 500 3053 1370 
C 3053 2188 2477 2790 1830 2790 
C 1434 2790 1152 2579 960 2330 
L 960 4396 
z
M 973 2004 
C 973 2118 973 2138 1062 2272 
C 1312 2657 1670 2688 1792 2688 
C 1984 2688 2643 2585 2643 1376 
C 2643 108 1888 38 1734 38 
C 1536 38 1248 114 1043 486 
C 973 608 973 621 973 735 
L 973 2004 
z
" transform="scale(0.015625)"/>
     </defs>
     <use xlink:href="#CMMI12-56" transform="scale(0.996264)"/>
     <use xlink:href="#CMR17-62" transform="translate(56.869579 -14.943915) scale(0.697382)"/>
    </g>
   </g>
   <g id="patch_12">
    <path d="M 76.8464 75.4356 
C 77.562448 75.4356 78.249266 75.151111 78.755588 74.644788 
C 79.261911 74.138466 79.5464 73.451648 79.5464 72.7356 
C 79.5464 72.019552 79.261911 71.332734 78.755588 70.826412 
C 78.249266 70.320089 77.562448 70.0356 76.8464 70.0356 
C 76.130352 70.0356 75.443534 70.320089 74.937212 70.826412 
C 74.430889 71.332734 74.1464 72.019552 74.1464 72.7356 
C 74.1464 73.451648 74.430889 74.138466 74.937212 74.644788 
C 75.443534 75.151111 76.130352 75.4356 76.8464 75.4356 
z
" clip-path="url(#pb6caf1a3db)" style="fill: #ffffff; stroke: #000000; stroke-width: 2; stroke-linejoin: miter"/>
   </g>
   <g id="text_10">
    <!-- $\overline{V_\mathrm{HZ}}$ -->
    <g transform="translate(46.630011 76.950887) scale(0.14 -0.14)">
     <defs>
      <path id="CMR17-48" d="M 3590 3905 
C 3590 4192 3661 4192 4102 4192 
L 4102 4352 
C 3917 4352 3578 4352 3379 4352 
C 3181 4352 2842 4352 2656 4352 
L 2656 4192 
C 3098 4192 3168 4192 3168 3904 
L 3168 2341 
L 1261 2341 
L 1261 3904 
C 1261 4192 1331 4192 1773 4192 
L 1773 4352 
C 1587 4352 1248 4352 1050 4352 
C 851 4352 512 4352 326 4352 
L 326 4192 
C 768 4192 838 4192 838 3905 
L 838 447 
C 838 160 768 160 326 160 
L 326 0 
C 512 0 851 0 1050 0 
C 1248 0 1587 0 1773 0 
L 1773 160 
C 1331 160 1261 160 1261 446 
L 1261 2176 
L 3168 2176 
L 3168 446 
C 3168 160 3098 160 2656 160 
L 2656 0 
C 2842 0 3181 0 3379 0 
C 3578 0 3917 0 4102 0 
L 4102 160 
C 3661 160 3590 160 3590 447 
L 3590 3905 
z
" transform="scale(0.015625)"/>
      <path id="CMR17-5a" d="M 3302 4230 
C 3302 4352 3296 4352 3162 4352 
L 442 4352 
L 378 2948 
L 493 2948 
C 531 3675 723 4192 1760 4192 
L 2816 4192 
L 339 204 
C 294 134 294 127 294 83 
C 294 0 307 0 435 0 
L 3245 0 
L 3334 1666 
L 3219 1666 
C 3162 829 3117 178 1894 178 
L 781 178 
L 3302 4230 
z
" transform="scale(0.015625)"/>
     </defs>
     <use xlink:href="#CMMI12-56" transform="scale(0.996264)"/>
     <use xlink:href="#CMR17-48" transform="translate(56.869579 -14.943915) scale(0.697382)"/>
     <use xlink:href="#CMR17-5a" transform="translate(105.220064 -14.943915) scale(0.697382)"/>
     <path d="M 0 80.032884 
L 144.98814 80.032884 
L 144.98814 84.017834 
L 0 84.017834 
L 0 80.032884 
z
"/>
    </g>
   </g>
   <g id="patch_13">
    <path d="M 163.2464 75.4356 
C 163.962448 75.4356 164.649266 75.151111 165.155588 74.644788 
C 165.661911 74.138466 165.9464 73.451648 165.9464 72.7356 
C 165.9464 72.019552 165.661911 71.332734 165.155588 70.826412 
C 164.649266 70.320089 163.962448 70.0356 163.2464 70.0356 
C 162.530352 70.0356 161.843534 70.320089 161.337212 70.826412 
C 160.830889 71.332734 160.5464 72.019552 160.5464 72.7356 
C 160.5464 73.451648 160.830889 74.138466 161.337212 74.644788 
C 161.843534 75.151111 162.530352 75.4356 163.2464 75.4356 
z
" clip-path="url(#pb6caf1a3db)" style="fill: #ffffff; stroke: #000000; stroke-width: 2; stroke-linejoin: miter"/>
   </g>
   <g id="text_11">
    <!-- $V_\mathrm{HZ}$ -->
    <g transform="translate(171.3464 76.222524) scale(0.14 -0.14)">
     <use xlink:href="#CMMI12-56" transform="scale(0.996264)"/>
     <use xlink:href="#CMR17-48" transform="translate(56.869579 -14.943915) scale(0.697382)"/>
     <use xlink:href="#CMR17-5a" transform="translate(105.220064 -14.943915) scale(0.697382)"/>
    </g>
   </g>
   <g id="patch_14">
    <path d="M 120.0464 27.7356 
C 120.762448 27.7356 121.449266 27.451111 121.955588 26.944788 
C 122.461911 26.438466 122.7464 25.751648 122.7464 25.0356 
C 122.7464 24.319552 122.461911 23.632734 121.955588 23.126412 
C 121.449266 22.620089 120.762448 22.3356 120.0464 22.3356 
C 119.330352 22.3356 118.643534 22.620089 118.137212 23.126412 
C 117.630889 23.632734 117.3464 24.319552 117.3464 25.0356 
C 117.3464 25.751648 117.630889 26.438466 118.137212 26.944788 
C 118.643534 27.451111 119.330352 27.7356 120.0464 27.7356 
z
" clip-path="url(#pb6caf1a3db)" style="fill: #ffffff; stroke: #000000; stroke-width: 2; stroke-linejoin: miter"/>
   </g>
   <g id="text_12">
    <!-- $V_\mathrm{c}$ -->
    <g transform="translate(113.835651 14.223572) scale(0.14 -0.14)">
     <defs>
      <path id="CMR17-63" d="M 2234 2240 
C 2112 2240 1933 2240 1933 2017 
C 1933 1838 2080 1787 2163 1787 
C 2208 1787 2394 1807 2394 2024 
C 2394 2467 1958 2803 1466 2803 
C 787 2803 211 2178 211 1363 
C 211 516 813 -64 1466 -64 
C 2259 -64 2458 677 2458 748 
C 2458 774 2451 793 2406 793 
C 2362 793 2355 787 2330 703 
C 2163 180 1798 51 1523 51 
C 1114 51 621 427 621 1369 
C 621 2338 1094 2688 1472 2688 
C 1722 2688 2093 2573 2234 2240 
z
" transform="scale(0.015625)"/>
     </defs>
     <use xlink:href="#CMMI12-56" transform="scale(0.996264)"/>
     <use xlink:href="#CMR17-63" transform="translate(56.869579 -14.943915) scale(0.697382)"/>
    </g>
   </g>
  </g>
 </g>
 <defs>
  <clipPath id="pb6caf1a3db">
   <rect x="0" y="0" width="240.5632" height="235.2732"/>
  </clipPath>
 </defs>
</svg>
