<?xml version="1.0" encoding="utf-8" standalone="no"?>
<!DOCTYPE svg PUBLIC "-//W3C//DTD SVG 1.1//EN"
  "http://www.w3.org/Graphics/SVG/1.1/DTD/svg11.dtd">
<svg xmlns:xlink="http://www.w3.org/1999/xlink" width="240.5632pt" height="143.2752pt" viewBox="0 0 240.5632 143.2752" xmlns="http://www.w3.org/2000/svg" version="1.1">
 <metadata>
  <rdf:RDF xmlns:dc="http://purl.org/dc/elements/1.1/" xmlns:cc="http://creativecommons.org/ns#" xmlns:rdf="http://www.w3.org/1999/02/22-rdf-syntax-ns#">
   <cc:Work>
    <dc:type rdf:resource="http://purl.org/dc/dcmitype/StillImage"/>
    <dc:date>2025-05-23T18:32:04.259810</dc:date>
    <dc:format>image/svg+xml</dc:format>
    <dc:creator>
     <cc:Agent>
      <dc:title>Matplotlib v3.9.2, https://matplotlib.org/</dc:title>
     </cc:Agent>
    </dc:creator>
   </cc:Work>
  </rdf:RDF>
 </metadata>
 <defs>
  <style type="text/css">*{stroke-linejoin: round; stroke-linecap: butt}</style>
 </defs>
 <g id="figure_1">
  <g id="patch_1">
   <path d="M 0 143.2752 
L 240.5632 143.2752 
L 240.5632 0 
L 0 0 
L 0 143.2752 
z
" style="fill: none"/>
  </g>
  <g id="axes_1">
   <g id="patch_2">
    <path d="M 72.3464 87.4776 
C 73.110185 87.4776 73.84279 87.174145 74.382868 86.634068 
C 74.922945 86.09399 75.2264 85.361385 75.2264 84.5976 
C 75.2264 83.833815 74.922945 83.10121 74.382868 82.561132 
C 73.84279 82.021055 73.110185 81.7176 72.3464 81.7176 
C 71.582615 81.7176 70.85001 82.021055 70.309932 82.561132 
C 69.769855 83.10121 69.4664 83.833815 69.4664 84.5976 
C 69.4664 85.361385 69.769855 86.09399 70.309932 86.634068 
C 70.85001 87.174145 71.582615 87.4776 72.3464 87.4776 
L 72.3464 87.4776 
z
" clip-path="url(#p7c9505c19a)" style="fill: none; stroke: #000000; stroke-width: 2; stroke-linejoin: miter"/>
   </g>
   <g id="patch_3">
    <path d="M 167.7464 87.4776 
C 168.510185 87.4776 169.24279 87.174145 169.782868 86.634068 
C 170.322945 86.09399 170.6264 85.361385 170.6264 84.5976 
C 170.6264 83.833815 170.322945 83.10121 169.782868 82.561132 
C 169.24279 82.021055 168.510185 81.7176 167.7464 81.7176 
C 166.982615 81.7176 166.25001 82.021055 165.709932 82.561132 
C 165.169855 83.10121 164.8664 83.833815 164.8664 84.5976 
C 164.8664 85.361385 165.169855 86.09399 165.709932 86.634068 
C 166.25001 87.174145 166.982615 87.4776 167.7464 87.4776 
L 167.7464 87.4776 
z
" clip-path="url(#p7c9505c19a)" style="fill: none; stroke: #000000; stroke-width: 2; stroke-linejoin: miter"/>
   </g>
   <g id="line2d_1">
    <path d="M 24.6464 71.6376 
L 42.6464 71.6376 
L 60.6464 71.6376 
" clip-path="url(#p7c9505c19a)" style="fill: none; stroke: #000000; stroke-width: 2; stroke-linecap: round"/>
   </g>
   <g id="line2d_2">
    <path d="M 108.3464 71.6376 
L 84.0464 71.6376 
M 60.6464 71.6376 
L 36.3464 71.6376 
" clip-path="url(#p7c9505c19a)" style="fill: none; stroke: #000000; stroke-width: 2; stroke-linecap: round"/>
   </g>
   <g id="line2d_3">
    <path d="M 84.0464 71.6376 
L 84.0464 53.6376 
L 60.6464 71.6376 
L 84.0464 89.6376 
L 84.0464 71.6376 
" clip-path="url(#p7c9505c19a)" style="fill: none; stroke: #000000; stroke-width: 2; stroke-linecap: round"/>
   </g>
   <g id="line2d_4">
    <path d="M 60.6464 71.6376 
L 60.6464 53.6376 
L 84.0464 71.6376 
L 60.6464 89.6376 
L 60.6464 71.6376 
" clip-path="url(#p7c9505c19a)" style="fill: none; stroke: #000000; stroke-width: 2; stroke-linecap: round"/>
   </g>
   <g id="line2d_5">
    <path d="M 72.3464 87.4776 
L 72.3464 96.8376 
" clip-path="url(#p7c9505c19a)" style="fill: none; stroke: #000000; stroke-width: 2; stroke-linecap: round"/>
   </g>
   <g id="line2d_6">
    <path d="M 72.3464 61.5576 
L 72.3464 46.4376 
" clip-path="url(#p7c9505c19a)" style="fill: none; stroke: #000000; stroke-width: 2; stroke-linecap: round"/>
   </g>
   <g id="line2d_7">
    <path d="M 72.3464 46.4376 
L 72.3464 37.4376 
L 72.3464 28.4376 
" clip-path="url(#p7c9505c19a)" style="fill: none; stroke: #000000; stroke-width: 2; stroke-linecap: round"/>
   </g>
   <g id="line2d_8">
    <path d="M 72.3464 96.8376 
L 72.3464 105.8376 
L 72.3464 114.8376 
" clip-path="url(#p7c9505c19a)" style="fill: none; stroke: #000000; stroke-width: 2; stroke-linecap: round"/>
   </g>
   <g id="line2d_9">
    <path d="M 84.0464 71.6376 
L 102.0464 71.6376 
L 120.0464 71.6376 
" clip-path="url(#p7c9505c19a)" style="fill: none; stroke: #000000; stroke-width: 2; stroke-linecap: round"/>
   </g>
   <g id="line2d_10">
    <path d="M 120.0464 71.6376 
L 138.0464 71.6376 
L 156.0464 71.6376 
" clip-path="url(#p7c9505c19a)" style="fill: none; stroke: #000000; stroke-width: 2; stroke-linecap: round"/>
   </g>
   <g id="line2d_11">
    <path d="M 203.7464 71.6376 
L 179.4464 71.6376 
M 156.0464 71.6376 
L 131.7464 71.6376 
" clip-path="url(#p7c9505c19a)" style="fill: none; stroke: #000000; stroke-width: 2; stroke-linecap: round"/>
   </g>
   <g id="line2d_12">
    <path d="M 179.4464 71.6376 
L 179.4464 53.6376 
L 156.0464 71.6376 
L 179.4464 89.6376 
L 179.4464 71.6376 
" clip-path="url(#p7c9505c19a)" style="fill: none; stroke: #000000; stroke-width: 2; stroke-linecap: round"/>
   </g>
   <g id="line2d_13">
    <path d="M 156.0464 71.6376 
L 156.0464 53.6376 
L 179.4464 71.6376 
L 156.0464 89.6376 
L 156.0464 71.6376 
" clip-path="url(#p7c9505c19a)" style="fill: none; stroke: #000000; stroke-width: 2; stroke-linecap: round"/>
   </g>
   <g id="line2d_14">
    <path d="M 167.7464 87.4776 
L 167.7464 96.8376 
" clip-path="url(#p7c9505c19a)" style="fill: none; stroke: #000000; stroke-width: 2; stroke-linecap: round"/>
   </g>
   <g id="line2d_15">
    <path d="M 167.7464 61.5576 
L 167.7464 46.4376 
" clip-path="url(#p7c9505c19a)" style="fill: none; stroke: #000000; stroke-width: 2; stroke-linecap: round"/>
   </g>
   <g id="line2d_16">
    <path d="M 167.7464 46.4376 
L 167.7464 37.4376 
L 167.7464 28.4376 
" clip-path="url(#p7c9505c19a)" style="fill: none; stroke: #000000; stroke-width: 2; stroke-linecap: round"/>
   </g>
   <g id="line2d_17">
    <path d="M 167.7464 96.8376 
L 167.7464 105.8376 
L 167.7464 114.8376 
" clip-path="url(#p7c9505c19a)" style="fill: none; stroke: #000000; stroke-width: 2; stroke-linecap: round"/>
   </g>
   <g id="line2d_18">
    <path d="M 179.4464 71.6376 
L 197.4464 71.6376 
L 215.4464 71.6376 
" clip-path="url(#p7c9505c19a)" style="fill: none; stroke: #000000; stroke-width: 2; stroke-linecap: round"/>
   </g>
   <g id="line2d_19">
    <path d="M 120.0464 71.6376 
L 120.0464 59.0376 
L 120.0464 46.4376 
" clip-path="url(#p7c9505c19a)" style="fill: none; stroke: #000000; stroke-width: 2; stroke-linecap: round"/>
   </g>
   <g id="line2d_20">
    <path d="M 120.0464 46.4376 
L 120.0464 37.4376 
L 120.0464 28.4376 
" clip-path="url(#p7c9505c19a)" style="fill: none; stroke: #000000; stroke-width: 2; stroke-linecap: round"/>
   </g>
   <g id="text_1">
    <!-- $X_1$ -->
    <g transform="translate(38.970577 58.125572) scale(0.14 -0.14)">
     <defs>
      <path id="CMMI12-58" d="M 3040 2596 
L 2438 3994 
C 2522 4147 2714 4172 2790 4179 
C 2829 4179 2899 4179 2899 4292 
C 2899 4364 2842 4364 2803 4364 
C 2694 4364 2566 4364 2458 4364 
L 2086 4364 
C 1696 4364 1414 4364 1408 4364 
C 1357 4364 1293 4364 1293 4243 
C 1293 4179 1350 4179 1434 4179 
C 1805 4179 1830 4115 1894 3962 
L 2656 2185 
L 1267 693 
C 1037 442 762 198 288 198 
C 211 192 160 192 160 68 
C 160 48 166 0 237 0 
C 326 0 422 0 512 0 
L 813 0 
C 1018 0 1242 0 1440 0 
C 1485 0 1562 0 1562 115 
C 1562 179 1517 185 1478 185 
C 1350 198 1267 268 1267 370 
C 1267 479 1344 557 1530 748 
L 2099 1368 
C 2240 1516 2579 1886 2720 2026 
L 3392 453 
C 3398 441 3424 377 3424 370 
C 3424 313 3283 198 3078 198 
C 3040 198 2970 198 2970 71 
C 2970 0 3034 0 3066 0 
C 3174 0 3302 0 3411 0 
L 4115 0 
C 4230 0 4352 0 4461 0 
C 4506 0 4576 0 4576 130 
C 4576 198 4512 198 4454 198 
C 4070 198 4058 230 3949 465 
L 3104 2441 
L 3917 3316 
C 3981 3381 4128 3542 4186 3606 
C 4461 3896 4717 4160 5235 4160 
C 5299 4179 5363 4179 5363 4292 
C 5363 4364 5306 4364 5280 4364 
C 5190 4364 5094 4364 5005 4364 
L 4710 4364 
C 4506 4364 4282 4364 4083 4364 
C 4038 4364 3962 4364 3962 4249 
C 3962 4185 4006 4179 4045 4179 
C 4147 4167 4256 4116 4256 3994 
L 4250 3982 
C 4243 3937 4230 3873 4160 3797 
L 3040 2596 
z
" transform="scale(0.015625)"/>
      <path id="CMR17-31" d="M 1702 4058 
C 1702 4192 1696 4192 1606 4192 
C 1357 3916 979 3827 621 3827 
C 602 3827 570 3827 563 3808 
C 557 3795 557 3782 557 3648 
C 755 3648 1088 3686 1344 3839 
L 1344 461 
C 1344 236 1331 160 781 160 
L 589 160 
L 589 0 
C 896 0 1216 0 1523 0 
C 1830 0 2150 0 2458 0 
L 2458 160 
L 2266 160 
C 1715 160 1702 230 1702 458 
L 1702 4058 
z
" transform="scale(0.015625)"/>
     </defs>
     <use xlink:href="#CMMI12-58" transform="scale(0.996264)"/>
     <use xlink:href="#CMR17-31" transform="translate(80.960224 -14.943915) scale(0.697382)"/>
    </g>
   </g>
   <g id="patch_4">
    <path d="M 120.0464 74.3376 
C 120.762448 74.3376 121.449266 74.053111 121.955588 73.546788 
C 122.461911 73.040466 122.7464 72.353648 122.7464 71.6376 
C 122.7464 70.921552 122.461911 70.234734 121.955588 69.728412 
C 121.449266 69.222089 120.762448 68.9376 120.0464 68.9376 
C 119.330352 68.9376 118.643534 69.222089 118.137212 69.728412 
C 117.630889 70.234734 117.3464 70.921552 117.3464 71.6376 
C 117.3464 72.353648 117.630889 73.040466 118.137212 73.546788 
C 118.643534 74.053111 119.330352 74.3376 120.0464 74.3376 
z
" clip-path="url(#p7c9505c19a)" style="stroke: #000000; stroke-width: 2; stroke-linejoin: miter"/>
   </g>
   <g id="text_2">
    <!-- $X_2$ -->
    <g transform="translate(134.370577 58.125572) scale(0.14 -0.14)">
     <defs>
      <path id="CMR17-32" d="M 2669 989 
L 2554 989 
C 2490 536 2438 459 2413 420 
C 2381 369 1920 369 1830 369 
L 602 369 
C 832 619 1280 1072 1824 1597 
C 2214 1967 2669 2402 2669 3035 
C 2669 3790 2067 4224 1395 4224 
C 691 4224 262 3604 262 3030 
C 262 2780 448 2748 525 2748 
C 589 2748 781 2787 781 3010 
C 781 3207 614 3264 525 3264 
C 486 3264 448 3258 422 3245 
C 544 3790 915 4058 1306 4058 
C 1862 4058 2227 3617 2227 3035 
C 2227 2479 1901 2000 1536 1584 
L 262 146 
L 262 0 
L 2515 0 
L 2669 989 
z
" transform="scale(0.015625)"/>
     </defs>
     <use xlink:href="#CMMI12-58" transform="scale(0.996264)"/>
     <use xlink:href="#CMR17-32" transform="translate(80.960224 -14.943915) scale(0.697382)"/>
    </g>
   </g>
   <g id="patch_5">
    <path d="M 24.6464 74.3376 
C 25.362448 74.3376 26.049266 74.053111 26.555588 73.546788 
C 27.061911 73.040466 27.3464 72.353648 27.3464 71.6376 
C 27.3464 70.921552 27.061911 70.234734 26.555588 69.728412 
C 26.049266 69.222089 25.362448 68.9376 24.6464 68.9376 
C 23.930352 68.9376 23.243534 69.222089 22.737212 69.728412 
C 22.230889 70.234734 21.9464 70.921552 21.9464 71.6376 
C 21.9464 72.353648 22.230889 73.040466 22.737212 73.546788 
C 23.243534 74.053111 23.930352 74.3376 24.6464 74.3376 
z
" clip-path="url(#p7c9505c19a)" style="fill: #ffffff; stroke: #000000; stroke-width: 2; stroke-linejoin: miter"/>
   </g>
   <g id="text_3">
    <!-- $V_\mathrm{a}$ -->
    <g transform="translate(3.567437 75.124524) scale(0.14 -0.14)">
     <defs>
      <path id="CMMI12-56" d="M 3962 3640 
C 4179 3984 4378 4136 4704 4162 
C 4768 4168 4819 4168 4819 4282 
C 4819 4308 4806 4346 4749 4346 
C 4634 4346 4358 4346 4243 4346 
C 4058 4346 3866 4346 3686 4346 
C 3635 4346 3571 4346 3571 4226 
C 3571 4168 3629 4162 3654 4162 
C 3891 4143 3917 4029 3917 3952 
C 3917 3857 3827 3710 3821 3704 
L 1811 540 
L 1363 3969 
C 1363 4160 1696 4160 1766 4160 
C 1862 4160 1920 4160 1920 4282 
C 1920 4346 1850 4346 1830 4346 
C 1722 4346 1594 4346 1485 4346 
L 1126 4346 
C 659 4346 467 4346 461 4346 
C 422 4346 346 4346 346 4230 
C 346 4160 390 4160 493 4160 
C 819 4160 838 4102 858 3944 
L 1370 24 
C 1389 -109 1389 -128 1478 -128 
C 1555 -128 1587 -109 1651 -8 
L 3962 3640 
z
" transform="scale(0.015625)"/>
      <path id="CMR17-61" d="M 2304 1653 
C 2304 2072 2304 2294 2035 2543 
C 1798 2752 1523 2816 1306 2816 
C 800 2816 435 2407 435 1971 
C 435 1728 627 1728 666 1728 
C 749 1728 896 1778 896 1954 
C 896 2112 774 2181 666 2181 
C 640 2181 608 2174 589 2168 
C 723 2592 1069 2714 1293 2714 
C 1613 2714 1965 2429 1965 1885 
L 1965 1600 
C 1587 1600 1133 1549 774 1357 
C 371 1133 256 813 256 570 
C 256 77 832 -64 1171 -64 
C 1523 -64 1850 139 1990 511 
C 2003 233 2182 -18 2464 -18 
C 2598 -18 2938 70 2938 567 
L 2938 920 
L 2822 920 
L 2822 562 
C 2822 178 2650 128 2566 128 
C 2304 128 2304 458 2304 738 
L 2304 1653 
z
M 1965 870 
C 1965 317 1568 38 1216 38 
C 896 38 646 275 646 570 
C 646 761 730 1100 1101 1305 
C 1408 1478 1760 1504 1965 1504 
L 1965 870 
z
" transform="scale(0.015625)"/>
     </defs>
     <use xlink:href="#CMMI12-56" transform="scale(0.996264)"/>
     <use xlink:href="#CMR17-61" transform="translate(56.869579 -14.943915) scale(0.697382)"/>
    </g>
   </g>
   <g id="patch_6">
    <path d="M 72.3464 31.1376 
C 73.062448 31.1376 73.749266 30.853111 74.255588 30.346788 
C 74.761911 29.840466 75.0464 29.153648 75.0464 28.4376 
C 75.0464 27.721552 74.761911 27.034734 74.255588 26.528412 
C 73.749266 26.022089 73.062448 25.7376 72.3464 25.7376 
C 71.630352 25.7376 70.943534 26.022089 70.437212 26.528412 
C 69.930889 27.034734 69.6464 27.721552 69.6464 28.4376 
C 69.6464 29.153648 69.930889 29.840466 70.437212 30.346788 
C 70.943534 30.853111 71.630352 31.1376 72.3464 31.1376 
z
" clip-path="url(#p7c9505c19a)" style="fill: #ffffff; stroke: #000000; stroke-width: 2; stroke-linejoin: miter"/>
   </g>
   <g id="text_4">
    <!-- $V_\mathrm{CTRL}$ -->
    <g transform="translate(54.290156 17.625572) scale(0.14 -0.14)">
     <defs>
      <path id="CMR17-43" d="M 3974 4289 
C 3974 4403 3968 4410 3930 4410 
C 3904 4410 3898 4403 3853 4327 
L 3571 3792 
C 3258 4187 2874 4416 2381 4416 
C 1286 4416 294 3456 294 2148 
C 294 826 1286 -128 2387 -128 
C 3366 -128 3974 730 3974 1461 
C 3974 1524 3974 1550 3917 1550 
C 3866 1550 3866 1531 3859 1474 
C 3808 585 3168 38 2477 38 
C 1824 38 781 495 781 2147 
C 781 3805 1843 4250 2464 4250 
C 3187 4250 3712 3628 3834 2745 
C 3846 2668 3846 2655 3904 2655 
C 3974 2655 3974 2668 3974 2783 
L 3974 4289 
z
" transform="scale(0.015625)"/>
      <path id="CMR17-54" d="M 3981 4326 
L 288 4326 
L 179 2918 
L 294 2918 
C 378 3976 467 4160 1453 4160 
C 1568 4160 1754 4160 1805 4154 
C 1926 4135 1926 4058 1926 3912 
L 1926 459 
C 1926 230 1907 160 1376 160 
L 1197 160 
L 1197 0 
C 1504 0 1824 0 2138 0 
C 2451 0 2771 0 3078 0 
L 3078 160 
L 2899 160 
C 2368 160 2349 230 2349 459 
L 2349 3912 
C 2349 4052 2349 4129 2464 4154 
C 2515 4160 2701 4160 2816 4160 
C 3795 4160 3891 3976 3974 2918 
L 4090 2918 
L 3981 4326 
z
" transform="scale(0.015625)"/>
      <path id="CMR17-52" d="M 2509 2146 
C 3117 2268 3629 2676 3629 3186 
C 3629 3785 2950 4326 2054 4326 
L 333 4326 
L 333 4160 
C 774 4160 845 4160 845 3873 
L 845 415 
C 845 128 774 128 333 128 
L 333 -26 
C 518 -26 851 -26 1050 -26 
C 1248 -26 1581 -26 1766 -26 
L 1766 128 
C 1325 128 1254 128 1254 417 
L 1254 2112 
L 2003 2112 
C 2368 2112 2573 1964 2662 1881 
C 2918 1632 2918 1459 2918 1024 
C 2918 595 2918 377 3110 160 
C 3354 -102 3680 -128 3821 -128 
C 4294 -128 4365 396 4365 503 
C 4365 540 4365 585 4307 585 
C 4256 585 4250 547 4250 522 
C 4218 112 4032 -26 3834 -26 
C 3482 -26 3443 375 3405 764 
C 3386 898 3373 993 3360 1133 
C 3322 1452 3270 1917 2509 2146 
z
M 1984 2214 
L 1254 2214 
L 1254 3913 
C 1254 4129 1267 4160 1523 4160 
L 1990 4160 
C 2522 4160 3142 3977 3142 3190 
C 3142 2372 2464 2214 1984 2214 
z
" transform="scale(0.015625)"/>
      <path id="CMR17-4c" d="M 3469 1615 
L 3354 1615 
C 3302 983 3219 166 2125 166 
L 1530 166 
C 1274 166 1261 197 1261 414 
L 1261 3898 
C 1261 4129 1274 4192 1760 4192 
L 1901 4192 
L 1901 4352 
C 1638 4352 1331 4352 1069 4352 
C 870 4352 512 4352 326 4352 
L 326 4192 
C 768 4192 838 4192 838 3905 
L 838 452 
C 838 166 768 166 326 166 
L 326 0 
L 3315 0 
L 3469 1615 
z
" transform="scale(0.015625)"/>
     </defs>
     <use xlink:href="#CMMI12-56" transform="scale(0.996264)"/>
     <use xlink:href="#CMR17-43" transform="translate(56.869579 -14.943915) scale(0.697382)"/>
     <use xlink:href="#CMR17-54" transform="translate(103.426284 -14.943915) scale(0.697382)"/>
     <use xlink:href="#CMR17-52" transform="translate(149.982989 -14.943915) scale(0.697382)"/>
     <use xlink:href="#CMR17-4c" transform="translate(197.436554 -14.943915) scale(0.697382)"/>
    </g>
   </g>
   <g id="patch_7">
    <path d="M 72.3464 117.5376 
C 73.062448 117.5376 73.749266 117.253111 74.255588 116.746788 
C 74.761911 116.240466 75.0464 115.553648 75.0464 114.8376 
C 75.0464 114.121552 74.761911 113.434734 74.255588 112.928412 
C 73.749266 112.422089 73.062448 112.1376 72.3464 112.1376 
C 71.630352 112.1376 70.943534 112.422089 70.437212 112.928412 
C 69.930889 113.434734 69.6464 114.121552 69.6464 114.8376 
C 69.6464 115.553648 69.930889 116.240466 70.437212 116.746788 
C 70.943534 117.253111 71.630352 117.5376 72.3464 117.5376 
z
" clip-path="url(#p7c9505c19a)" style="fill: #ffffff; stroke: #000000; stroke-width: 2; stroke-linejoin: miter"/>
   </g>
   <g id="text_5">
    <!-- $\overline{V_\mathrm{CTRL}}$ -->
    <g transform="translate(54.04109 134.080202) scale(0.14 -0.14)">
     <use xlink:href="#CMMI12-56" transform="scale(0.996264)"/>
     <use xlink:href="#CMR17-43" transform="translate(56.869579 -14.943915) scale(0.697382)"/>
     <use xlink:href="#CMR17-54" transform="translate(103.426284 -14.943915) scale(0.697382)"/>
     <use xlink:href="#CMR17-52" transform="translate(149.982989 -14.943915) scale(0.697382)"/>
     <use xlink:href="#CMR17-4c" transform="translate(197.436554 -14.943915) scale(0.697382)"/>
     <path d="M 0 80.032884 
L 238.101489 80.032884 
L 238.101489 84.017834 
L 0 84.017834 
L 0 80.032884 
z
"/>
    </g>
   </g>
   <g id="patch_8">
    <path d="M 167.7464 31.1376 
C 168.462448 31.1376 169.149266 30.853111 169.655588 30.346788 
C 170.161911 29.840466 170.4464 29.153648 170.4464 28.4376 
C 170.4464 27.721552 170.161911 27.034734 169.655588 26.528412 
C 169.149266 26.022089 168.462448 25.7376 167.7464 25.7376 
C 167.030352 25.7376 166.343534 26.022089 165.837212 26.528412 
C 165.330889 27.034734 165.0464 27.721552 165.0464 28.4376 
C 165.0464 29.153648 165.330889 29.840466 165.837212 30.346788 
C 166.343534 30.853111 167.030352 31.1376 167.7464 31.1376 
z
" clip-path="url(#p7c9505c19a)" style="fill: #ffffff; stroke: #000000; stroke-width: 2; stroke-linejoin: miter"/>
   </g>
   <g id="text_6">
    <!-- $\overline{V_\mathrm{CTRL}}$ -->
    <g transform="translate(149.44109 17.625572) scale(0.14 -0.14)">
     <use xlink:href="#CMMI12-56" transform="scale(0.996264)"/>
     <use xlink:href="#CMR17-43" transform="translate(56.869579 -14.943915) scale(0.697382)"/>
     <use xlink:href="#CMR17-54" transform="translate(103.426284 -14.943915) scale(0.697382)"/>
     <use xlink:href="#CMR17-52" transform="translate(149.982989 -14.943915) scale(0.697382)"/>
     <use xlink:href="#CMR17-4c" transform="translate(197.436554 -14.943915) scale(0.697382)"/>
     <path d="M 0 80.032884 
L 238.101489 80.032884 
L 238.101489 84.017834 
L 0 84.017834 
L 0 80.032884 
z
"/>
    </g>
   </g>
   <g id="patch_9">
    <path d="M 167.7464 117.5376 
C 168.462448 117.5376 169.149266 117.253111 169.655588 116.746788 
C 170.161911 116.240466 170.4464 115.553648 170.4464 114.8376 
C 170.4464 114.121552 170.161911 113.434734 169.655588 112.928412 
C 169.149266 112.422089 168.462448 112.1376 167.7464 112.1376 
C 167.030352 112.1376 166.343534 112.422089 165.837212 112.928412 
C 165.330889 113.434734 165.0464 114.121552 165.0464 114.8376 
C 165.0464 115.553648 165.330889 116.240466 165.837212 116.746788 
C 166.343534 117.253111 167.030352 117.5376 167.7464 117.5376 
z
" clip-path="url(#p7c9505c19a)" style="fill: #ffffff; stroke: #000000; stroke-width: 2; stroke-linejoin: miter"/>
   </g>
   <g id="text_7">
    <!-- $V_\mathrm{CTRL}$ -->
    <g transform="translate(149.690156 132.623476) scale(0.14 -0.14)">
     <use xlink:href="#CMMI12-56" transform="scale(0.996264)"/>
     <use xlink:href="#CMR17-43" transform="translate(56.869579 -14.943915) scale(0.697382)"/>
     <use xlink:href="#CMR17-54" transform="translate(103.426284 -14.943915) scale(0.697382)"/>
     <use xlink:href="#CMR17-52" transform="translate(149.982989 -14.943915) scale(0.697382)"/>
     <use xlink:href="#CMR17-4c" transform="translate(197.436554 -14.943915) scale(0.697382)"/>
    </g>
   </g>
   <g id="patch_10">
    <path d="M 215.4464 74.3376 
C 216.162448 74.3376 216.849266 74.053111 217.355588 73.546788 
C 217.861911 73.040466 218.1464 72.353648 218.1464 71.6376 
C 218.1464 70.921552 217.861911 70.234734 217.355588 69.728412 
C 216.849266 69.222089 216.162448 68.9376 215.4464 68.9376 
C 214.730352 68.9376 214.043534 69.222089 213.537212 69.728412 
C 213.030889 70.234734 212.7464 70.921552 212.7464 71.6376 
C 212.7464 72.353648 213.030889 73.040466 213.537212 73.546788 
C 214.043534 74.053111 214.730352 74.3376 215.4464 74.3376 
z
" clip-path="url(#p7c9505c19a)" style="fill: #ffffff; stroke: #000000; stroke-width: 2; stroke-linejoin: miter"/>
   </g>
   <g id="text_8">
    <!-- $V_\mathrm{b}$ -->
    <g transform="translate(223.5464 75.124524) scale(0.14 -0.14)">
     <defs>
      <path id="CMR17-62" d="M 960 4396 
L 198 4326 
L 198 4160 
C 576 4160 634 4122 634 3817 
L 634 -13 
L 749 -13 
L 934 441 
C 1120 141 1395 -64 1766 -64 
C 2406 -64 3053 500 3053 1370 
C 3053 2188 2477 2790 1830 2790 
C 1434 2790 1152 2579 960 2330 
L 960 4396 
z
M 973 2004 
C 973 2118 973 2138 1062 2272 
C 1312 2657 1670 2688 1792 2688 
C 1984 2688 2643 2585 2643 1376 
C 2643 108 1888 38 1734 38 
C 1536 38 1248 114 1043 486 
C 973 608 973 621 973 735 
L 973 2004 
z
" transform="scale(0.015625)"/>
     </defs>
     <use xlink:href="#CMMI12-56" transform="scale(0.996264)"/>
     <use xlink:href="#CMR17-62" transform="translate(56.869579 -14.943915) scale(0.697382)"/>
    </g>
   </g>
   <g id="patch_11">
    <path d="M 120.0464 31.1376 
C 120.762448 31.1376 121.449266 30.853111 121.955588 30.346788 
C 122.461911 29.840466 122.7464 29.153648 122.7464 28.4376 
C 122.7464 27.721552 122.461911 27.034734 121.955588 26.528412 
C 121.449266 26.022089 120.762448 25.7376 120.0464 25.7376 
C 119.330352 25.7376 118.643534 26.022089 118.137212 26.528412 
C 117.630889 27.034734 117.3464 27.721552 117.3464 28.4376 
C 117.3464 29.153648 117.630889 29.840466 118.137212 30.346788 
C 118.643534 30.853111 119.330352 31.1376 120.0464 31.1376 
z
" clip-path="url(#p7c9505c19a)" style="fill: #ffffff; stroke: #000000; stroke-width: 2; stroke-linejoin: miter"/>
   </g>
   <g id="text_9">
    <!-- $V_\mathrm{c}$ -->
    <g transform="translate(113.835651 17.625572) scale(0.14 -0.14)">
     <defs>
      <path id="CMR17-63" d="M 2234 2240 
C 2112 2240 1933 2240 1933 2017 
C 1933 1838 2080 1787 2163 1787 
C 2208 1787 2394 1807 2394 2024 
C 2394 2467 1958 2803 1466 2803 
C 787 2803 211 2178 211 1363 
C 211 516 813 -64 1466 -64 
C 2259 -64 2458 677 2458 748 
C 2458 774 2451 793 2406 793 
C 2362 793 2355 787 2330 703 
C 2163 180 1798 51 1523 51 
C 1114 51 621 427 621 1369 
C 621 2338 1094 2688 1472 2688 
C 1722 2688 2093 2573 2234 2240 
z
" transform="scale(0.015625)"/>
     </defs>
     <use xlink:href="#CMMI12-56" transform="scale(0.996264)"/>
     <use xlink:href="#CMR17-63" transform="translate(56.869579 -14.943915) scale(0.697382)"/>
    </g>
   </g>
  </g>
 </g>
 <defs>
  <clipPath id="p7c9505c19a">
   <rect x="0" y="0" width="240.5632" height="143.2752"/>
  </clipPath>
 </defs>
</svg>
