M48
;GenerationSoftware,Autodesk,EAGLE,9.7.0*%
;CreationDate,2024-10-09T07:58:37Z*%
FMAT,2
ICI,OFF
METRIC,TZ,000.000
T8C0.350
T7C0.800
T6C0.914
T5C1.016
T4C1.321
T3C2.000
T2C2.200
T1C3.000
%
G90
M71
T1
X4000Y66000
X4000Y4000
T2
X5715Y20955
X5715Y10795
T3
X3500Y31432
X10500Y31432
T4
X21273Y15875
X37148Y4445
X32385Y27622
X10478Y4128
X11112Y46355
X6032Y59665
X43180Y58737
X37148Y14922
X23495Y4128
X37148Y21590
X6032Y54635
T5
X60325Y32702
X60325Y30162
X60325Y27622
X60325Y25082
X60325Y17463
X60325Y14922
X60325Y12382
X60325Y9843
X60325Y7302
X60325Y20003
X56832Y46672
X56832Y44132
X56832Y41593
X56832Y39053
X56832Y36513
X56832Y33973
X68199Y37783
X60325Y40323
X60325Y37783
X4763Y41275
X4763Y43815
X4763Y46355
X43180Y50800
X43180Y53340
X60325Y35243
X60325Y22542
X68199Y55562
X68199Y53022
X68199Y50482
X68199Y47942
X68199Y45402
X68199Y42863
X68199Y40323
X68199Y35243
X68199Y32702
X68199Y30162
X68199Y27622
X68199Y25082
X68199Y22542
X68199Y20003
X68199Y17463
X68199Y14922
X68199Y12382
X68199Y9843
X68199Y7302
X60325Y55562
X60325Y53022
X60325Y50482
X60325Y47942
X60325Y45402
X60325Y42863
T6
X65723Y30162
X63182Y30162
X65723Y32702
X63182Y32702
X65723Y35243
X63182Y35243
X65723Y37783
X63182Y37783
X63182Y40323
X65723Y40323
X63182Y42863
X65723Y42863
X63182Y45402
X65723Y45402
X65723Y47942
X63182Y47942
X65723Y50482
X65723Y53022
X63182Y53022
X65723Y55562
X63182Y55562
X53022Y41593
X53022Y44132
X56959Y25019
X56959Y27559
X56832Y54292
X56832Y56832
X65723Y17463
X65723Y7302
X63182Y7302
X65723Y9843
X63182Y9843
X65723Y12382
X63182Y12382
X65723Y14922
X63182Y14922
X63182Y50482
X63182Y17463
X65723Y20003
X63182Y20003
X65723Y22542
X63182Y22542
X65723Y25082
X63182Y25082
X65723Y27622
X63182Y27622
T7
X10795Y13335
X10795Y15875
T8
X60325Y2857
X22860Y52070
X16828Y55562
X13017Y50482
X26352Y4763
X27940Y55562
X30480Y55562
X39688Y49530
X36513Y28257
X36513Y25717
X43815Y23495
X43815Y6350
X36513Y11112
X36513Y8573
X38418Y17463
X27622Y17780
X25082Y13970
X19685Y52070
X27305Y38654
X28494Y37465
X47307Y13652
X43815Y2223
X43815Y19368
X38418Y41593
X34608Y37465
X28892Y41910
X19685Y43180
X54927Y20638
X55880Y3492
X43815Y10481
X54610Y18733
X62230Y18733
X48260Y29527
X46355Y26035
X43815Y27622
X45720Y41593
X62230Y28892
X43815Y20955
X48260Y19685
X28257Y13970
X29210Y15557
X40005Y39053
X31432Y39053
X28892Y45402
X23812Y27305
X54292Y53022
X52705Y53975
X19685Y41910
X27940Y31432
X18098Y44132
X26479Y35179
X14922Y44132
X14922Y39688
X14922Y36513
X9208Y27940
X8890Y33338
X40323Y30162
X40958Y9843
X46355Y4128
X40323Y13017
X40323Y19685
X23812Y17780
X30797Y19685
X41593Y47274
X44767Y16192
X16510Y44132
X56959Y31242
X49530Y59055
X43498Y13652
X66612Y23876
X64452Y26352
X9208Y29210
X39688Y22225
X49212Y17780
X45720Y32067
X41910Y13652
X42863Y28892
X13335Y39688
X38418Y45402
X43815Y8573
X44767Y22542
X38100Y33020
X64452Y41593
X68263Y2857
X39688Y5080
X17780Y29845
X31750Y31432
X37783Y60642
X54062Y33947
X26035Y40958
X23812Y28575
X26352Y31432
M30