<?xml version="1.0" encoding="utf-8" standalone="no"?>
<!DOCTYPE svg PUBLIC "-//W3C//DTD SVG 1.1//EN"
  "http://www.w3.org/Graphics/SVG/1.1/DTD/svg11.dtd">
<svg xmlns:xlink="http://www.w3.org/1999/xlink" width="421.678125pt" height="277.15625pt" viewBox="0 0 421.678125 277.15625" xmlns="http://www.w3.org/2000/svg" version="1.1">
 <metadata>
  <rdf:RDF xmlns:dc="http://purl.org/dc/elements/1.1/" xmlns:cc="http://creativecommons.org/ns#" xmlns:rdf="http://www.w3.org/1999/02/22-rdf-syntax-ns#">
   <cc:Work>
    <dc:type rdf:resource="http://purl.org/dc/dcmitype/StillImage"/>
    <dc:date>2025-05-30T22:35:43.093562</dc:date>
    <dc:format>image/svg+xml</dc:format>
    <dc:creator>
     <cc:Agent>
      <dc:title>Matplotlib v3.9.2, https://matplotlib.org/</dc:title>
     </cc:Agent>
    </dc:creator>
   </cc:Work>
  </rdf:RDF>
 </metadata>
 <defs>
  <style type="text/css">*{stroke-linejoin: round; stroke-linecap: butt}</style>
 </defs>
 <g id="figure_1">
  <g id="patch_1">
   <path d="M 0 277.15625 
L 421.678125 277.15625 
L 421.678125 -0 
L 0 -0 
z
" style="fill: #ffffff"/>
  </g>
  <g id="axes_1">
   <g id="patch_2">
    <path d="M 53.328125 239.6 
L 414.478125 239.6 
L 414.478125 7.2 
L 53.328125 7.2 
z
" style="fill: #ffffff"/>
   </g>
   <g id="matplotlib.axis_1">
    <g id="xtick_1">
     <g id="line2d_1">
      <path d="M 69.744034 239.6 
L 69.744034 7.2 
" clip-path="url(#pdfe2235a39)" style="fill: none; stroke-dasharray: 2.96,1.28; stroke-dashoffset: 0; stroke: #b0b0b0; stroke-width: 0.8"/>
     </g>
     <g id="line2d_2">
      <defs>
       <path id="m026c5eee1d" d="M 0 0 
L 0 3.5 
" style="stroke: #000000; stroke-width: 0.8"/>
      </defs>
      <g>
       <use xlink:href="#m026c5eee1d" x="69.744034" y="239.6" style="stroke: #000000; stroke-width: 0.8"/>
      </g>
     </g>
     <g id="text_1">
      <!-- 0.0 -->
      <g transform="translate(61.792472 254.198438) scale(0.1 -0.1)">
       <defs>
        <path id="DejaVuSans-30" d="M 2034 4250 
Q 1547 4250 1301 3770 
Q 1056 3291 1056 2328 
Q 1056 1369 1301 889 
Q 1547 409 2034 409 
Q 2525 409 2770 889 
Q 3016 1369 3016 2328 
Q 3016 3291 2770 3770 
Q 2525 4250 2034 4250 
z
M 2034 4750 
Q 2819 4750 3233 4129 
Q 3647 3509 3647 2328 
Q 3647 1150 3233 529 
Q 2819 -91 2034 -91 
Q 1250 -91 836 529 
Q 422 1150 422 2328 
Q 422 3509 836 4129 
Q 1250 4750 2034 4750 
z
" transform="scale(0.015625)"/>
        <path id="DejaVuSans-2e" d="M 684 794 
L 1344 794 
L 1344 0 
L 684 0 
L 684 794 
z
" transform="scale(0.015625)"/>
       </defs>
       <use xlink:href="#DejaVuSans-30"/>
       <use xlink:href="#DejaVuSans-2e" x="63.623047"/>
       <use xlink:href="#DejaVuSans-30" x="95.410156"/>
      </g>
     </g>
    </g>
    <g id="xtick_2">
     <g id="line2d_3">
      <path d="M 135.408992 239.6 
L 135.408992 7.2 
" clip-path="url(#pdfe2235a39)" style="fill: none; stroke-dasharray: 2.96,1.28; stroke-dashoffset: 0; stroke: #b0b0b0; stroke-width: 0.8"/>
     </g>
     <g id="line2d_4">
      <g>
       <use xlink:href="#m026c5eee1d" x="135.408992" y="239.6" style="stroke: #000000; stroke-width: 0.8"/>
      </g>
     </g>
     <g id="text_2">
      <!-- 0.2 -->
      <g transform="translate(127.457429 254.198438) scale(0.1 -0.1)">
       <defs>
        <path id="DejaVuSans-32" d="M 1228 531 
L 3431 531 
L 3431 0 
L 469 0 
L 469 531 
Q 828 903 1448 1529 
Q 2069 2156 2228 2338 
Q 2531 2678 2651 2914 
Q 2772 3150 2772 3378 
Q 2772 3750 2511 3984 
Q 2250 4219 1831 4219 
Q 1534 4219 1204 4116 
Q 875 4013 500 3803 
L 500 4441 
Q 881 4594 1212 4672 
Q 1544 4750 1819 4750 
Q 2544 4750 2975 4387 
Q 3406 4025 3406 3419 
Q 3406 3131 3298 2873 
Q 3191 2616 2906 2266 
Q 2828 2175 2409 1742 
Q 1991 1309 1228 531 
z
" transform="scale(0.015625)"/>
       </defs>
       <use xlink:href="#DejaVuSans-30"/>
       <use xlink:href="#DejaVuSans-2e" x="63.623047"/>
       <use xlink:href="#DejaVuSans-32" x="95.410156"/>
      </g>
     </g>
    </g>
    <g id="xtick_3">
     <g id="line2d_5">
      <path d="M 201.07395 239.6 
L 201.07395 7.2 
" clip-path="url(#pdfe2235a39)" style="fill: none; stroke-dasharray: 2.96,1.28; stroke-dashoffset: 0; stroke: #b0b0b0; stroke-width: 0.8"/>
     </g>
     <g id="line2d_6">
      <g>
       <use xlink:href="#m026c5eee1d" x="201.07395" y="239.6" style="stroke: #000000; stroke-width: 0.8"/>
      </g>
     </g>
     <g id="text_3">
      <!-- 0.4 -->
      <g transform="translate(193.122387 254.198438) scale(0.1 -0.1)">
       <defs>
        <path id="DejaVuSans-34" d="M 2419 4116 
L 825 1625 
L 2419 1625 
L 2419 4116 
z
M 2253 4666 
L 3047 4666 
L 3047 1625 
L 3713 1625 
L 3713 1100 
L 3047 1100 
L 3047 0 
L 2419 0 
L 2419 1100 
L 313 1100 
L 313 1709 
L 2253 4666 
z
" transform="scale(0.015625)"/>
       </defs>
       <use xlink:href="#DejaVuSans-30"/>
       <use xlink:href="#DejaVuSans-2e" x="63.623047"/>
       <use xlink:href="#DejaVuSans-34" x="95.410156"/>
      </g>
     </g>
    </g>
    <g id="xtick_4">
     <g id="line2d_7">
      <path d="M 266.738907 239.6 
L 266.738907 7.2 
" clip-path="url(#pdfe2235a39)" style="fill: none; stroke-dasharray: 2.96,1.28; stroke-dashoffset: 0; stroke: #b0b0b0; stroke-width: 0.8"/>
     </g>
     <g id="line2d_8">
      <g>
       <use xlink:href="#m026c5eee1d" x="266.738907" y="239.6" style="stroke: #000000; stroke-width: 0.8"/>
      </g>
     </g>
     <g id="text_4">
      <!-- 0.6 -->
      <g transform="translate(258.787345 254.198438) scale(0.1 -0.1)">
       <defs>
        <path id="DejaVuSans-36" d="M 2113 2584 
Q 1688 2584 1439 2293 
Q 1191 2003 1191 1497 
Q 1191 994 1439 701 
Q 1688 409 2113 409 
Q 2538 409 2786 701 
Q 3034 994 3034 1497 
Q 3034 2003 2786 2293 
Q 2538 2584 2113 2584 
z
M 3366 4563 
L 3366 3988 
Q 3128 4100 2886 4159 
Q 2644 4219 2406 4219 
Q 1781 4219 1451 3797 
Q 1122 3375 1075 2522 
Q 1259 2794 1537 2939 
Q 1816 3084 2150 3084 
Q 2853 3084 3261 2657 
Q 3669 2231 3669 1497 
Q 3669 778 3244 343 
Q 2819 -91 2113 -91 
Q 1303 -91 875 529 
Q 447 1150 447 2328 
Q 447 3434 972 4092 
Q 1497 4750 2381 4750 
Q 2619 4750 2861 4703 
Q 3103 4656 3366 4563 
z
" transform="scale(0.015625)"/>
       </defs>
       <use xlink:href="#DejaVuSans-30"/>
       <use xlink:href="#DejaVuSans-2e" x="63.623047"/>
       <use xlink:href="#DejaVuSans-36" x="95.410156"/>
      </g>
     </g>
    </g>
    <g id="xtick_5">
     <g id="line2d_9">
      <path d="M 332.403865 239.6 
L 332.403865 7.2 
" clip-path="url(#pdfe2235a39)" style="fill: none; stroke-dasharray: 2.96,1.28; stroke-dashoffset: 0; stroke: #b0b0b0; stroke-width: 0.8"/>
     </g>
     <g id="line2d_10">
      <g>
       <use xlink:href="#m026c5eee1d" x="332.403865" y="239.6" style="stroke: #000000; stroke-width: 0.8"/>
      </g>
     </g>
     <g id="text_5">
      <!-- 0.8 -->
      <g transform="translate(324.452303 254.198438) scale(0.1 -0.1)">
       <defs>
        <path id="DejaVuSans-38" d="M 2034 2216 
Q 1584 2216 1326 1975 
Q 1069 1734 1069 1313 
Q 1069 891 1326 650 
Q 1584 409 2034 409 
Q 2484 409 2743 651 
Q 3003 894 3003 1313 
Q 3003 1734 2745 1975 
Q 2488 2216 2034 2216 
z
M 1403 2484 
Q 997 2584 770 2862 
Q 544 3141 544 3541 
Q 544 4100 942 4425 
Q 1341 4750 2034 4750 
Q 2731 4750 3128 4425 
Q 3525 4100 3525 3541 
Q 3525 3141 3298 2862 
Q 3072 2584 2669 2484 
Q 3125 2378 3379 2068 
Q 3634 1759 3634 1313 
Q 3634 634 3220 271 
Q 2806 -91 2034 -91 
Q 1263 -91 848 271 
Q 434 634 434 1313 
Q 434 1759 690 2068 
Q 947 2378 1403 2484 
z
M 1172 3481 
Q 1172 3119 1398 2916 
Q 1625 2713 2034 2713 
Q 2441 2713 2670 2916 
Q 2900 3119 2900 3481 
Q 2900 3844 2670 4047 
Q 2441 4250 2034 4250 
Q 1625 4250 1398 4047 
Q 1172 3844 1172 3481 
z
" transform="scale(0.015625)"/>
       </defs>
       <use xlink:href="#DejaVuSans-30"/>
       <use xlink:href="#DejaVuSans-2e" x="63.623047"/>
       <use xlink:href="#DejaVuSans-38" x="95.410156"/>
      </g>
     </g>
    </g>
    <g id="xtick_6">
     <g id="line2d_11">
      <path d="M 398.068823 239.6 
L 398.068823 7.2 
" clip-path="url(#pdfe2235a39)" style="fill: none; stroke-dasharray: 2.96,1.28; stroke-dashoffset: 0; stroke: #b0b0b0; stroke-width: 0.8"/>
     </g>
     <g id="line2d_12">
      <g>
       <use xlink:href="#m026c5eee1d" x="398.068823" y="239.6" style="stroke: #000000; stroke-width: 0.8"/>
      </g>
     </g>
     <g id="text_6">
      <!-- 1.0 -->
      <g transform="translate(390.11726 254.198438) scale(0.1 -0.1)">
       <defs>
        <path id="DejaVuSans-31" d="M 794 531 
L 1825 531 
L 1825 4091 
L 703 3866 
L 703 4441 
L 1819 4666 
L 2450 4666 
L 2450 531 
L 3481 531 
L 3481 0 
L 794 0 
L 794 531 
z
" transform="scale(0.015625)"/>
       </defs>
       <use xlink:href="#DejaVuSans-31"/>
       <use xlink:href="#DejaVuSans-2e" x="63.623047"/>
       <use xlink:href="#DejaVuSans-30" x="95.410156"/>
      </g>
     </g>
    </g>
    <g id="text_7">
     <!-- $t$ (ms) -->
     <g transform="translate(218.953125 267.876562) scale(0.1 -0.1)">
      <defs>
       <path id="DejaVuSans-Oblique-74" d="M 2706 3500 
L 2619 3053 
L 1472 3053 
L 1100 1153 
Q 1081 1047 1072 975 
Q 1063 903 1063 863 
Q 1063 663 1183 572 
Q 1303 481 1569 481 
L 2150 481 
L 2053 0 
L 1503 0 
Q 991 0 739 200 
Q 488 400 488 806 
Q 488 878 497 964 
Q 506 1050 525 1153 
L 897 3053 
L 409 3053 
L 500 3500 
L 978 3500 
L 1172 4494 
L 1747 4494 
L 1556 3500 
L 2706 3500 
z
" transform="scale(0.015625)"/>
       <path id="DejaVuSans-20" transform="scale(0.015625)"/>
       <path id="DejaVuSans-28" d="M 1984 4856 
Q 1566 4138 1362 3434 
Q 1159 2731 1159 2009 
Q 1159 1288 1364 580 
Q 1569 -128 1984 -844 
L 1484 -844 
Q 1016 -109 783 600 
Q 550 1309 550 2009 
Q 550 2706 781 3412 
Q 1013 4119 1484 4856 
L 1984 4856 
z
" transform="scale(0.015625)"/>
       <path id="DejaVuSans-6d" d="M 3328 2828 
Q 3544 3216 3844 3400 
Q 4144 3584 4550 3584 
Q 5097 3584 5394 3201 
Q 5691 2819 5691 2113 
L 5691 0 
L 5113 0 
L 5113 2094 
Q 5113 2597 4934 2840 
Q 4756 3084 4391 3084 
Q 3944 3084 3684 2787 
Q 3425 2491 3425 1978 
L 3425 0 
L 2847 0 
L 2847 2094 
Q 2847 2600 2669 2842 
Q 2491 3084 2119 3084 
Q 1678 3084 1418 2786 
Q 1159 2488 1159 1978 
L 1159 0 
L 581 0 
L 581 3500 
L 1159 3500 
L 1159 2956 
Q 1356 3278 1631 3431 
Q 1906 3584 2284 3584 
Q 2666 3584 2933 3390 
Q 3200 3197 3328 2828 
z
" transform="scale(0.015625)"/>
       <path id="DejaVuSans-73" d="M 2834 3397 
L 2834 2853 
Q 2591 2978 2328 3040 
Q 2066 3103 1784 3103 
Q 1356 3103 1142 2972 
Q 928 2841 928 2578 
Q 928 2378 1081 2264 
Q 1234 2150 1697 2047 
L 1894 2003 
Q 2506 1872 2764 1633 
Q 3022 1394 3022 966 
Q 3022 478 2636 193 
Q 2250 -91 1575 -91 
Q 1294 -91 989 -36 
Q 684 19 347 128 
L 347 722 
Q 666 556 975 473 
Q 1284 391 1588 391 
Q 1994 391 2212 530 
Q 2431 669 2431 922 
Q 2431 1156 2273 1281 
Q 2116 1406 1581 1522 
L 1381 1569 
Q 847 1681 609 1914 
Q 372 2147 372 2553 
Q 372 3047 722 3315 
Q 1072 3584 1716 3584 
Q 2034 3584 2315 3537 
Q 2597 3491 2834 3397 
z
" transform="scale(0.015625)"/>
       <path id="DejaVuSans-29" d="M 513 4856 
L 1013 4856 
Q 1481 4119 1714 3412 
Q 1947 2706 1947 2009 
Q 1947 1309 1714 600 
Q 1481 -109 1013 -844 
L 513 -844 
Q 928 -128 1133 580 
Q 1338 1288 1338 2009 
Q 1338 2731 1133 3434 
Q 928 4138 513 4856 
z
" transform="scale(0.015625)"/>
      </defs>
      <use xlink:href="#DejaVuSans-Oblique-74" transform="translate(0 0.125)"/>
      <use xlink:href="#DejaVuSans-20" transform="translate(39.208984 0.125)"/>
      <use xlink:href="#DejaVuSans-28" transform="translate(70.996094 0.125)"/>
      <use xlink:href="#DejaVuSans-6d" transform="translate(110.009766 0.125)"/>
      <use xlink:href="#DejaVuSans-73" transform="translate(207.421875 0.125)"/>
      <use xlink:href="#DejaVuSans-29" transform="translate(259.521484 0.125)"/>
     </g>
    </g>
   </g>
   <g id="matplotlib.axis_2">
    <g id="ytick_1">
     <g id="line2d_13">
      <path d="M 53.328125 218.370914 
L 414.478125 218.370914 
" clip-path="url(#pdfe2235a39)" style="fill: none; stroke-dasharray: 2.96,1.28; stroke-dashoffset: 0; stroke: #b0b0b0; stroke-width: 0.8"/>
     </g>
     <g id="line2d_14">
      <defs>
       <path id="m17256c5099" d="M 0 0 
L -3.5 0 
" style="stroke: #000000; stroke-width: 0.8"/>
      </defs>
      <g>
       <use xlink:href="#m17256c5099" x="53.328125" y="218.370914" style="stroke: #000000; stroke-width: 0.8"/>
      </g>
     </g>
     <g id="text_8">
      <!-- 0 -->
      <g transform="translate(39.965625 222.170133) scale(0.1 -0.1)">
       <use xlink:href="#DejaVuSans-30"/>
      </g>
     </g>
    </g>
    <g id="ytick_2">
     <g id="line2d_15">
      <path d="M 53.328125 191.623277 
L 414.478125 191.623277 
" clip-path="url(#pdfe2235a39)" style="fill: none; stroke-dasharray: 2.96,1.28; stroke-dashoffset: 0; stroke: #b0b0b0; stroke-width: 0.8"/>
     </g>
     <g id="line2d_16">
      <g>
       <use xlink:href="#m17256c5099" x="53.328125" y="191.623277" style="stroke: #000000; stroke-width: 0.8"/>
      </g>
     </g>
     <g id="text_9">
      <!-- 200 -->
      <g transform="translate(27.240625 195.422496) scale(0.1 -0.1)">
       <use xlink:href="#DejaVuSans-32"/>
       <use xlink:href="#DejaVuSans-30" x="63.623047"/>
       <use xlink:href="#DejaVuSans-30" x="127.246094"/>
      </g>
     </g>
    </g>
    <g id="ytick_3">
     <g id="line2d_17">
      <path d="M 53.328125 164.87564 
L 414.478125 164.87564 
" clip-path="url(#pdfe2235a39)" style="fill: none; stroke-dasharray: 2.96,1.28; stroke-dashoffset: 0; stroke: #b0b0b0; stroke-width: 0.8"/>
     </g>
     <g id="line2d_18">
      <g>
       <use xlink:href="#m17256c5099" x="53.328125" y="164.87564" style="stroke: #000000; stroke-width: 0.8"/>
      </g>
     </g>
     <g id="text_10">
      <!-- 400 -->
      <g transform="translate(27.240625 168.674859) scale(0.1 -0.1)">
       <use xlink:href="#DejaVuSans-34"/>
       <use xlink:href="#DejaVuSans-30" x="63.623047"/>
       <use xlink:href="#DejaVuSans-30" x="127.246094"/>
      </g>
     </g>
    </g>
    <g id="ytick_4">
     <g id="line2d_19">
      <path d="M 53.328125 138.128003 
L 414.478125 138.128003 
" clip-path="url(#pdfe2235a39)" style="fill: none; stroke-dasharray: 2.96,1.28; stroke-dashoffset: 0; stroke: #b0b0b0; stroke-width: 0.8"/>
     </g>
     <g id="line2d_20">
      <g>
       <use xlink:href="#m17256c5099" x="53.328125" y="138.128003" style="stroke: #000000; stroke-width: 0.8"/>
      </g>
     </g>
     <g id="text_11">
      <!-- 600 -->
      <g transform="translate(27.240625 141.927222) scale(0.1 -0.1)">
       <use xlink:href="#DejaVuSans-36"/>
       <use xlink:href="#DejaVuSans-30" x="63.623047"/>
       <use xlink:href="#DejaVuSans-30" x="127.246094"/>
      </g>
     </g>
    </g>
    <g id="ytick_5">
     <g id="line2d_21">
      <path d="M 53.328125 111.380366 
L 414.478125 111.380366 
" clip-path="url(#pdfe2235a39)" style="fill: none; stroke-dasharray: 2.96,1.28; stroke-dashoffset: 0; stroke: #b0b0b0; stroke-width: 0.8"/>
     </g>
     <g id="line2d_22">
      <g>
       <use xlink:href="#m17256c5099" x="53.328125" y="111.380366" style="stroke: #000000; stroke-width: 0.8"/>
      </g>
     </g>
     <g id="text_12">
      <!-- 800 -->
      <g transform="translate(27.240625 115.179585) scale(0.1 -0.1)">
       <use xlink:href="#DejaVuSans-38"/>
       <use xlink:href="#DejaVuSans-30" x="63.623047"/>
       <use xlink:href="#DejaVuSans-30" x="127.246094"/>
      </g>
     </g>
    </g>
    <g id="ytick_6">
     <g id="line2d_23">
      <path d="M 53.328125 84.632729 
L 414.478125 84.632729 
" clip-path="url(#pdfe2235a39)" style="fill: none; stroke-dasharray: 2.96,1.28; stroke-dashoffset: 0; stroke: #b0b0b0; stroke-width: 0.8"/>
     </g>
     <g id="line2d_24">
      <g>
       <use xlink:href="#m17256c5099" x="53.328125" y="84.632729" style="stroke: #000000; stroke-width: 0.8"/>
      </g>
     </g>
     <g id="text_13">
      <!-- 1000 -->
      <g transform="translate(20.878125 88.431948) scale(0.1 -0.1)">
       <use xlink:href="#DejaVuSans-31"/>
       <use xlink:href="#DejaVuSans-30" x="63.623047"/>
       <use xlink:href="#DejaVuSans-30" x="127.246094"/>
       <use xlink:href="#DejaVuSans-30" x="190.869141"/>
      </g>
     </g>
    </g>
    <g id="ytick_7">
     <g id="line2d_25">
      <path d="M 53.328125 57.885092 
L 414.478125 57.885092 
" clip-path="url(#pdfe2235a39)" style="fill: none; stroke-dasharray: 2.96,1.28; stroke-dashoffset: 0; stroke: #b0b0b0; stroke-width: 0.8"/>
     </g>
     <g id="line2d_26">
      <g>
       <use xlink:href="#m17256c5099" x="53.328125" y="57.885092" style="stroke: #000000; stroke-width: 0.8"/>
      </g>
     </g>
     <g id="text_14">
      <!-- 1200 -->
      <g transform="translate(20.878125 61.684311) scale(0.1 -0.1)">
       <use xlink:href="#DejaVuSans-31"/>
       <use xlink:href="#DejaVuSans-32" x="63.623047"/>
       <use xlink:href="#DejaVuSans-30" x="127.246094"/>
       <use xlink:href="#DejaVuSans-30" x="190.869141"/>
      </g>
     </g>
    </g>
    <g id="ytick_8">
     <g id="line2d_27">
      <path d="M 53.328125 31.137455 
L 414.478125 31.137455 
" clip-path="url(#pdfe2235a39)" style="fill: none; stroke-dasharray: 2.96,1.28; stroke-dashoffset: 0; stroke: #b0b0b0; stroke-width: 0.8"/>
     </g>
     <g id="line2d_28">
      <g>
       <use xlink:href="#m17256c5099" x="53.328125" y="31.137455" style="stroke: #000000; stroke-width: 0.8"/>
      </g>
     </g>
     <g id="text_15">
      <!-- 1400 -->
      <g transform="translate(20.878125 34.936674) scale(0.1 -0.1)">
       <use xlink:href="#DejaVuSans-31"/>
       <use xlink:href="#DejaVuSans-34" x="63.623047"/>
       <use xlink:href="#DejaVuSans-30" x="127.246094"/>
       <use xlink:href="#DejaVuSans-30" x="190.869141"/>
      </g>
     </g>
    </g>
    <g id="text_16">
     <!-- $V$ (mV) -->
     <g transform="translate(14.798438 140.65) rotate(-90) scale(0.1 -0.1)">
      <defs>
       <path id="DejaVuSans-Oblique-56" d="M 1319 0 
L 500 4666 
L 1119 4666 
L 1797 653 
L 4063 4666 
L 4750 4666 
L 2053 0 
L 1319 0 
z
" transform="scale(0.015625)"/>
       <path id="DejaVuSans-56" d="M 1831 0 
L 50 4666 
L 709 4666 
L 2188 738 
L 3669 4666 
L 4325 4666 
L 2547 0 
L 1831 0 
z
" transform="scale(0.015625)"/>
      </defs>
      <use xlink:href="#DejaVuSans-Oblique-56" transform="translate(0 0.125)"/>
      <use xlink:href="#DejaVuSans-20" transform="translate(68.408203 0.125)"/>
      <use xlink:href="#DejaVuSans-28" transform="translate(100.195312 0.125)"/>
      <use xlink:href="#DejaVuSans-6d" transform="translate(139.208984 0.125)"/>
      <use xlink:href="#DejaVuSans-56" transform="translate(236.621094 0.125)"/>
      <use xlink:href="#DejaVuSans-29" transform="translate(305.029297 0.125)"/>
     </g>
    </g>
   </g>
   <g id="line2d_29">
    <path d="M 69.744034 229.036364 
L 69.755798 229.036226 
L 70.036462 229.035731 
L 70.585366 227.070363 
L 74.09948 213.990261 
L 75.345681 210.035217 
L 76.330655 207.572808 
L 77.315629 205.816016 
L 77.89789 205.12397 
L 78.554539 204.686961 
L 78.882864 204.625321 
L 79.211189 204.691218 
L 79.539514 204.906255 
L 80.209931 205.837509 
L 82.084031 209.082829 
L 82.986924 210.039609 
L 83.971898 210.771057 
L 85.285197 211.420322 
L 86.516415 211.797606 
L 88.138832 212.054828 
L 90.045907 212.113799 
L 92.262099 211.957145 
L 95.134941 211.527687 
L 99.239001 210.674172 
L 100.5523 210.24162 
L 101.455193 209.677487 
L 102.440168 208.708077 
L 103.623048 207.067317 
L 104.533238 205.3344 
L 105.518212 202.878044 
L 106.74943 199.013136 
L 108.06273 193.820331 
L 109.271709 188.848589 
L 109.928358 186.61225 
L 110.585008 185.109184 
L 111.241658 184.273252 
L 111.808843 183.930277 
L 112.463107 183.696162 
L 113.448081 183.386808 
L 114.401392 183.255464 
L 114.634164 183.366835 
L 115.947463 183.110928 
L 117.023883 183.041909 
L 117.135583 183.182433 
L 118.777207 182.936342 
L 119.667547 182.906772 
L 119.966244 183.015871 
L 121.607868 182.808165 
L 122.278835 182.795767 
L 122.469036 182.937719 
L 123.782335 182.738752 
L 124.90314 182.701343 
L 124.972019 182.7996 
L 125.956994 182.695486 
L 127.538424 182.609149 
L 127.803422 182.738267 
L 129.116721 182.554467 
L 130.157523 182.528105 
L 130.306551 182.683795 
L 131.61985 182.483084 
L 132.816923 182.476729 
L 133.138042 182.560443 
L 134.779666 182.376322 
L 135.413904 182.373933 
L 135.641238 182.516183 
L 136.954537 182.329299 
L 138.036669 182.307524 
L 138.14446 182.46401 
L 139.786084 182.250296 
L 140.679619 182.243713 
L 140.976029 182.366387 
L 142.289328 182.195615 
L 143.291582 182.182358 
L 143.479292 182.336313 
L 144.792591 182.146262 
L 145.915926 182.127927 
L 145.982573 182.231661 
L 146.967547 182.135594 
L 148.550987 182.072277 
L 148.814195 182.210798 
L 150.127494 182.036708 
L 151.170299 182.026803 
L 151.317505 182.192604 
L 152.630804 181.998339 
L 153.828886 182.009827 
L 154.149153 182.100538 
L 155.462452 181.942009 
L 156.426617 181.937742 
L 156.652488 182.087614 
L 157.965787 181.908591 
L 159.049455 181.901038 
L 159.155833 182.065549 
L 160.797457 181.860437 
L 161.692095 181.864944 
L 161.987513 181.993884 
L 163.300812 181.831221 
L 164.30435 181.829639 
L 164.490876 181.989897 
L 165.804176 181.805847 
L 166.928713 181.799609 
L 166.994249 181.906448 
L 167.979223 181.815454 
L 169.56366 181.766669 
L 169.825954 181.910275 
L 171.139253 181.742555 
L 172.183081 181.742575 
L 172.329341 181.91397 
L 173.64264 181.723847 
L 174.841239 181.745975 
L 175.161059 181.840511 
L 176.474358 181.688246 
L 177.439365 181.692034 
L 177.664459 181.846101 
L 178.977758 181.671922 
L 180.062242 181.672733 
L 180.167864 181.841771 
L 181.809488 181.641822 
L 182.704715 181.652804 
L 182.9996 181.785207 
L 184.312899 181.627415 
L 185.317126 181.632628 
L 185.503015 181.796381 
L 186.816315 181.615936 
L 187.941499 181.6167 
L 188.006435 181.725267 
L 188.99141 181.637207 
L 190.576385 181.596827 
L 190.838184 181.743247 
L 192.151483 181.579277 
L 193.195865 181.584992 
L 193.341612 181.759505 
L 194.654911 181.571815 
L 195.853791 181.600013 
L 196.173369 181.696668 
L 197.486668 181.54802 
L 198.452131 181.556374 
L 198.676804 181.712754 
L 199.990103 181.541382 
L 201.075028 181.546938 
L 201.180242 181.718496 
L 202.493541 181.537258 
L 203.717412 181.536131 
L 204.012007 181.670444 
L 205.325306 181.515437 
L 206.329907 181.524468 
L 206.515451 181.690143 
L 207.82875 181.511749 
L 208.954286 181.516437 
L 209.018897 181.625952 
L 210.003871 181.539538 
L 211.589138 181.503865 
L 211.85067 181.651827 
L 213.163969 181.489978 
L 214.208649 181.498858 
L 214.35412 181.675084 
L 215.667419 181.488765 
L 216.86645 181.520322 
L 217.185897 181.618135 
L 218.499196 181.47152 
L 219.464906 181.482413 
L 219.689351 181.640054 
L 221.00265 181.470243 
L 222.087815 181.47842 
L 222.192807 181.651359 
L 223.506106 181.471132 
L 224.73015 181.472655 
L 225.024589 181.608006 
L 226.337888 181.454548 
L 227.34269 181.465683 
L 227.528048 181.632406 
L 228.841347 181.455156 
L 229.967072 181.462 
L 230.031508 181.572031 
L 231.016482 181.486527 
L 232.605609 181.454228 
L 232.864708 181.605962 
L 234.178007 181.443644 
L 235.220868 181.453821 
L 235.36817 181.629139 
L 236.681469 181.452933 
L 237.879316 181.489566 
L 238.198845 181.58927 
L 239.512144 181.453908 
L 240.477673 181.470503 
L 240.701741 181.6297 
L 242.01504 181.464325 
L 243.100601 181.474819 
L 243.205404 181.648205 
L 244.518703 181.469672 
L 245.742911 181.472109 
L 246.037273 181.607968 
L 247.350572 181.454934 
L 248.35614 181.466419 
L 248.542218 181.636877 
L 249.855517 181.458308 
L 250.972711 181.462243 
L 251.045679 181.569962 
L 251.702329 181.533343 
L 253.015628 181.449827 
L 253.614723 181.468227 
L 253.876355 181.616486 
L 255.189654 181.466375 
L 256.23422 181.481755 
L 256.379259 181.659423 
L 257.692558 181.477761 
L 258.895578 181.519125 
L 259.212776 181.614404 
L 260.526075 181.46804 
L 261.493692 181.477819 
L 261.716235 181.638411 
L 263.029534 181.476206 
L 264.113388 181.488818 
L 264.218599 181.658675 
L 265.860223 181.477789 
L 266.755645 181.498473 
L 267.049839 181.635403 
L 268.363138 181.485339 
L 269.368262 181.497422 
L 269.553512 181.664393 
L 270.866811 181.487947 
L 271.992645 181.494417 
L 272.057061 181.604133 
L 272.713711 181.559471 
L 274.02701 181.46844 
L 274.631182 181.485582 
L 274.89028 181.637162 
L 276.20358 181.474273 
L 277.246441 181.483511 
L 277.393742 181.658474 
L 278.707041 181.481739 
L 279.904915 181.517325 
L 280.224469 181.616814 
L 281.537769 181.480759 
L 282.503249 181.496526 
L 282.727371 181.655401 
L 284.04067 181.489469 
L 285.125095 181.496785 
L 285.232514 181.669567 
L 286.874138 181.480276 
L 287.772663 181.499829 
L 288.064298 181.633479 
L 289.377597 181.486692 
L 290.381054 181.500864 
L 290.566703 181.665702 
L 291.880002 181.499347 
L 293.005431 181.510804 
L 293.069616 181.619686 
L 293.726266 181.578362 
L 295.039565 181.489659 
L 295.640261 181.506504 
L 295.901612 181.655368 
L 297.214911 181.494805 
L 298.259795 181.504328 
L 298.405159 181.680967 
L 299.718458 181.495014 
L 300.92115 181.533668 
L 301.238344 181.628223 
L 302.551643 181.480288 
L 303.519265 181.489131 
L 303.741805 181.649305 
L 305.055105 181.486453 
L 306.138961 181.498394 
L 306.244238 181.667964 
L 307.885862 181.486602 
L 308.78123 181.506919 
L 309.075461 181.6436 
L 310.38876 181.493279 
L 311.394499 181.505097 
L 311.580577 181.675304 
L 312.893877 181.497227 
L 314.01107 181.500413 
L 314.084037 181.607629 
L 314.740686 181.571237 
L 316.053986 181.486799 
L 316.653091 181.50455 
L 316.914789 181.652404 
L 318.228088 181.501553 
L 319.27258 181.515786 
L 319.417699 181.692906 
L 320.730998 181.51074 
L 321.930316 181.54363 
L 322.249693 181.642346 
L 323.562992 181.49641 
L 324.528836 181.507235 
L 324.753239 181.665006 
L 326.066538 181.495111 
L 327.151747 181.502741 
L 327.256738 181.675477 
L 328.570037 181.495102 
L 329.794087 181.495851 
L 330.088543 181.631088 
L 331.401842 181.477098 
L 332.406623 181.487552 
L 332.592014 181.654054 
L 333.905313 181.476394 
L 335.031004 181.482494 
L 335.095481 181.592352 
L 336.080455 181.50661 
L 337.669541 181.473376 
L 337.928639 181.624879 
L 339.241938 181.46212 
L 340.2848 181.471669 
L 340.432101 181.646694 
L 341.7454 181.470132 
L 342.94327 181.506125 
L 343.26282 181.605637 
L 344.576119 181.469857 
L 345.541608 181.485941 
L 345.765716 181.644906 
L 347.079015 181.479201 
L 348.163455 181.486866 
L 348.270874 181.659808 
L 349.912498 181.470752 
L 350.811023 181.490593 
L 351.102658 181.624334 
L 352.415957 181.477757 
L 353.419413 181.492216 
L 353.605042 181.657176 
L 354.918341 181.490984 
L 356.043791 181.502747 
L 356.107955 181.611701 
L 356.764604 181.570445 
L 358.077904 181.482 
L 358.678618 181.499004 
L 358.93995 181.647975 
L 360.25325 181.487583 
L 361.298154 181.497362 
L 361.443499 181.674128 
L 362.756798 181.488288 
L 363.95951 181.527241 
L 364.276704 181.621856 
L 365.590003 181.474109 
L 366.557625 181.483128 
L 366.780165 181.643394 
L 368.093464 181.480627 
L 369.17732 181.492798 
L 369.282578 181.662475 
L 370.924202 181.481297 
L 371.819586 181.501786 
L 372.113804 181.638552 
L 373.427103 181.488369 
L 374.432859 181.50036 
L 374.618937 181.670652 
L 375.932236 181.492707 
L 377.049429 181.496011 
L 377.122397 181.6033 
L 377.779047 181.566927 
L 379.092346 181.482624 
L 379.691449 181.50048 
L 379.953134 181.648408 
L 381.266433 181.497675 
L 382.310939 181.512062 
L 382.456046 181.689258 
L 383.769345 181.507158 
L 384.96867 181.540202 
L 385.288041 181.638971 
L 386.60134 181.493121 
L 387.567195 181.504055 
L 387.791588 181.661879 
L 389.104887 181.492052 
L 390.189028 181.497504 
L 390.296443 181.670043 
L 391.938067 181.479162 
L 392.836596 181.498243 
L 393.128229 181.631638 
L 394.441528 181.484463 
L 395.444987 181.498469 
L 395.630665 181.663201 
L 396.943964 181.496731 
L 398.062216 181.505212 
L 398.062216 181.505212 
" clip-path="url(#pdfe2235a39)" style="fill: none; stroke: #1f77b4; stroke-width: 2; stroke-linecap: square"/>
   </g>
   <g id="line2d_30">
    <path d="M 69.744034 224.706162 
L 69.755798 224.70517 
L 70.257042 224.647064 
L 74.09948 223.296892 
L 76.00233 222.358781 
L 80.770732 219.748812 
L 85.285197 217.982747 
L 87.173065 216.944218 
L 89.060933 215.668288 
L 91.277125 213.875769 
L 93.821642 211.498504 
L 99.895651 205.645078 
L 101.783518 204.198401 
L 103.294723 203.262026 
L 104.533238 202.760738 
L 105.846537 202.45441 
L 107.40608 202.325661 
L 162.315837 201.401994 
L 177.439365 201.300479 
L 180.496189 201.293193 
L 201.073957 201.207236 
L 201.180242 201.221667 
L 240.472961 201.15142 
L 240.477673 201.157439 
L 243.533728 201.166818 
L 266.755645 201.169851 
L 273.370361 201.171823 
L 287.719266 201.164777 
L 288.064298 201.179106 
L 311.394499 201.175423 
L 313.550526 201.171246 
L 332.403885 201.168474 
L 332.406623 201.174101 
L 334.561963 201.16867 
L 350.757626 201.160568 
L 351.102658 201.174897 
L 374.432859 201.172659 
L 376.588886 201.16865 
L 395.442244 201.167496 
L 395.444987 201.173072 
L 397.600614 201.170337 
L 398.062216 201.168145 
L 398.062216 201.168145 
" clip-path="url(#pdfe2235a39)" style="fill: none; stroke: #ff7f0e; stroke-width: 2; stroke-linecap: square"/>
   </g>
   <g id="line2d_31">
    <path d="M 69.744034 218.370914 
L 70.036462 218.370914 
L 70.585366 215.236425 
L 102.966399 17.763636 
L 398.062216 17.763636 
L 398.062216 17.763636 
" clip-path="url(#pdfe2235a39)" style="fill: none; stroke: #2ca02c; stroke-width: 2; stroke-linecap: square"/>
   </g>
   <g id="line2d_32">
    <path d="M 69.744034 218.379384 
L 69.755798 218.379353 
L 70.257042 218.322083 
L 72.22699 217.486093 
L 72.786181 217.050919 
L 73.114506 216.607316 
L 73.44283 215.847455 
L 73.771155 214.55116 
L 74.75613 208.944365 
L 75.674006 206.950532 
L 78.554539 201.364937 
L 80.770732 197.490004 
L 83.315249 193.576551 
L 97.351133 173.169206 
L 98.910676 171.308832 
L 100.223975 170.00717 
L 101.455193 169.060598 
L 102.768492 168.367736 
L 102.966399 168.363189 
L 103.907029 169.052574 
L 104.861563 170.009968 
L 106.174862 171.693706 
L 107.40608 173.614189 
L 109.102243 176.722588 
L 110.585008 179.857976 
L 112.134782 183.637351 
L 114.104731 189.102519 
L 122.278835 212.578328 
L 123.125685 214.302645 
L 124.11066 215.811741 
L 124.972019 216.703139 
L 125.956994 217.32876 
L 126.941968 217.674981 
L 128.460072 217.91932 
L 130.963201 218.031668 
L 140.976029 218.070919 
L 398.062216 218.10593 
L 398.062216 218.10593 
" clip-path="url(#pdfe2235a39)" style="fill: none; stroke: #d62728; stroke-width: 2; stroke-linecap: square"/>
   </g>
   <g id="line2d_33">
    <path d="M 69.744034 222.091001 
L 69.755798 221.297939 
L 72.370638 221.240293 
L 72.457856 220.144905 
L 74.997234 220.057315 
L 75.027881 219.412469 
L 77.623866 219.23393 
L 77.632439 218.936844 
L 80.250439 218.784301 
L 80.252582 218.630041 
L 90.756832 218.074481 
L 90.758975 218.184697 
L 93.383424 217.972962 
L 93.38396 218.121331 
L 93.493317 218.117028 
L 96.010021 217.855977 
L 96.010155 217.971142 
L 96.044448 218.060646 
L 98.636618 217.754818 
L 98.636652 217.799422 
L 98.645225 217.992861 
L 101.263225 217.647515 
L 101.265369 217.914526 
L 103.889815 217.397435 
L 103.907029 217.775034 
L 105.846537 217.116312 
L 106.516411 216.764972 
L 106.51643 216.802647 
L 106.520717 217.36322 
L 108.391054 215.7302 
L 109.143009 215.020935 
L 109.143016 215.023505 
L 109.144088 216.284218 
L 109.928358 215.341534 
L 111.241658 214.122984 
L 111.769611 213.697822 
L 111.808843 215.413583 
L 112.791432 214.421838 
L 114.104731 213.399435 
L 114.396208 213.18218 
L 114.401392 215.138337 
L 115.290814 214.260512 
L 116.604113 213.257695 
L 117.022804 212.998745 
L 117.022811 213.020115 
L 117.023883 215.023066 
L 117.463908 214.547264 
L 118.777207 213.458411 
L 119.649406 212.849574 
L 119.667547 214.910972 
L 120.622894 213.997303 
L 121.936193 213.023018 
L 122.276001 212.805772 
L 122.278835 214.893314 
L 123.125685 214.056754 
L 124.438984 213.055142 
L 124.902604 212.761652 
L 124.972019 214.773016 
L 126.285318 213.578729 
L 127.5292 212.685065 
L 127.538424 214.823081 
L 128.460072 213.917518 
L 129.773371 212.924368 
L 130.155796 212.686525 
L 130.155807 212.758823 
L 130.157523 214.808139 
L 130.963201 213.997008 
L 132.2765 212.974964 
L 132.782397 212.629873 
L 132.816923 214.742126 
L 133.794691 213.792501 
L 135.107991 212.808258 
L 135.408994 212.59338 
L 135.413904 214.764395 
L 136.297887 213.875369 
L 137.611186 212.86327 
L 138.03559 212.599585 
L 138.035597 212.624459 
L 138.036669 214.770166 
L 138.14446 214.619945 
L 139.457759 213.40819 
L 140.662192 212.536228 
L 140.679619 214.710145 
L 141.632678 213.761597 
L 142.945977 212.760448 
L 143.288788 212.536562 
L 143.291582 214.721364 
L 144.135942 213.853227 
L 145.449241 212.822811 
L 145.91539 212.52234 
L 145.982573 214.617918 
L 147.295872 213.381271 
L 148.541987 212.466353 
L 148.550987 214.682638 
L 149.470844 213.746823 
L 150.784143 212.729111 
L 151.168582 212.485114 
L 151.168593 212.560468 
L 151.170299 214.679392 
L 151.974154 213.84298 
L 153.287454 212.796572 
L 153.795184 212.444927 
L 153.828886 214.622553 
L 154.805802 213.645586 
L 156.119102 212.641039 
L 156.421781 212.421992 
L 156.426617 214.654546 
L 157.309137 213.741963 
L 158.622436 212.709722 
L 159.048377 212.440662 
L 159.048384 212.466907 
L 159.049455 214.668958 
L 159.155833 214.515846 
L 160.140807 213.548986 
L 161.454106 212.557905 
L 161.674979 212.389308 
L 161.692095 214.615455 
L 162.644162 213.645319 
L 163.957461 212.627499 
L 164.301574 212.399762 
L 164.30435 214.633712 
L 165.147526 213.747265 
L 166.460825 212.700329 
L 166.928177 212.395908 
L 166.994249 214.535653 
L 167.979223 213.552682 
L 169.292522 212.54941 
L 169.554773 212.34853 
L 169.56366 214.606787 
L 170.482603 213.65403 
L 171.795902 212.622658 
L 172.181368 212.37528 
L 172.18138 212.452282 
L 172.183081 214.609029 
L 172.98599 213.75843 
L 174.29929 212.698462 
L 174.80797 212.343203 
L 174.841239 214.556637 
L 175.817709 213.564336 
L 177.131008 212.548503 
L 177.434567 212.327168 
L 177.439365 214.593652 
L 178.321109 213.667847 
L 179.634408 212.624413 
L 180.061163 212.352395 
L 180.06117 212.379395 
L 180.062242 214.612647 
L 180.167864 214.457908 
L 181.152839 213.477916 
L 182.466138 212.47752 
L 182.687765 212.307526 
L 182.704715 214.562658 
L 183.656249 213.580438 
L 184.969548 212.553386 
L 185.314361 212.323536 
L 185.317126 214.584797 
L 186.159665 213.688112 
L 187.472964 212.632034 
L 187.940963 212.325448 
L 188.006435 214.489742 
L 188.99141 213.495975 
L 190.304709 212.485095 
L 190.56756 212.282905 
L 190.576385 214.564485 
L 191.494834 213.602294 
L 192.808133 212.563393 
L 193.194155 212.314166 
L 193.194166 212.39208 
L 193.195865 214.569831 
L 193.998262 213.711345 
L 195.311561 212.643907 
L 195.820757 212.286676 
L 195.853791 214.519967 
L 196.830018 213.519167 
L 198.143318 212.497139 
L 198.447354 212.274555 
L 198.452131 214.55983 
L 199.333453 213.626706 
L 200.646752 212.577131 
L 201.07395 212.3035 
L 201.073957 212.330917 
L 201.075028 214.581423 
L 201.180242 214.425784 
L 202.165216 213.438545 
L 203.478515 212.433053 
L 203.700551 212.262299 
L 203.717412 214.533435 
L 204.668657 213.544554 
L 205.981956 212.512454 
L 206.327147 212.281454 
L 206.329907 214.55777 
L 207.1721 213.655451 
L 208.485399 212.594375 
L 208.95375 212.286616 
L 209.018897 214.464421 
L 210.003871 213.464725 
L 211.31717 212.449697 
L 211.580346 212.246798 
L 211.589138 214.541193 
L 212.507319 213.573829 
L 213.820618 212.530825 
L 214.206941 212.280594 
L 214.206953 212.359007 
L 214.208649 214.548283 
L 215.01077 213.685476 
L 216.324069 212.613969 
L 216.833543 212.255671 
L 216.86645 214.499841 
L 217.842547 213.494394 
L 219.155846 212.468997 
L 219.46014 212.245738 
L 219.464906 214.541294 
L 220.346001 213.604173 
L 221.6593 212.551259 
L 222.086736 212.276755 
L 222.086743 212.304399 
L 222.087815 214.564335 
L 222.192807 214.408204 
L 223.177781 213.417013 
L 224.49108 212.408758 
L 224.713338 212.237593 
L 224.73015 214.517463 
L 225.681238 213.524953 
L 226.994538 212.490115 
L 227.339934 212.258494 
L 227.34269 214.543016 
L 228.184697 213.63763 
L 229.497996 212.573845 
L 229.966536 212.265453 
L 230.031508 214.450616 
L 231.016482 213.447697 
L 232.329781 212.430424 
L 232.556398 212.306061 
L 232.605609 214.692657 
L 233.193033 213.978912 
L 234.506332 212.799443 
L 235.179231 212.261312 
L 235.220868 214.145351 
L 235.36817 214.166788 
L 236.681469 212.982946 
L 237.84633 212.168003 
L 237.879316 214.427302 
L 238.855494 213.434113 
L 240.168793 212.419032 
L 240.472927 212.197866 
L 240.477673 214.510732 
L 241.358391 213.577226 
L 242.67169 212.527697 
L 243.099523 212.253865 
L 243.09953 212.281704 
L 243.100601 214.549764 
L 243.205404 214.393841 
L 244.190378 213.403491 
L 245.503677 212.396301 
L 245.726124 212.225242 
L 245.742911 214.50956 
L 246.693922 213.51719 
L 248.007222 212.482712 
L 248.311682 212.279598 
L 248.312761 212.305887 
L 248.35614 214.780517 
L 248.870542 214.06489 
L 250.183842 212.862113 
L 250.972711 212.2265 
L 251.045679 214.255364 
L 252.358978 213.046471 
L 253.605919 212.153237 
L 253.614723 214.4645 
L 254.533005 213.508532 
L 255.846304 212.47592 
L 256.232514 212.228187 
L 256.232526 212.307382 
L 256.23422 214.514801 
L 257.035909 213.655071 
L 258.349208 212.586774 
L 258.835292 212.279824 
L 258.895578 214.625023 
L 259.869425 213.562606 
L 261.444674 212.237496 
L 261.446828 212.256976 
L 261.493692 214.274891 
L 263.686184 212.455459 
L 264.112309 212.195946 
L 264.112316 212.223862 
L 264.113388 214.495867 
L 264.218599 214.34152 
L 265.203574 213.36452 
L 266.516873 212.36804 
L 266.738911 212.198809 
L 266.755645 214.492904 
L 267.706488 213.506117 
L 269.019787 212.476249 
L 269.365507 212.245505 
L 269.368262 214.53475 
L 270.210162 213.631993 
L 271.523461 212.570902 
L 271.992109 212.263238 
L 272.057061 214.449405 
L 273.042036 213.448416 
L 274.355335 212.432874 
L 274.581971 212.308742 
L 274.631182 214.694395 
L 275.218605 213.981785 
L 276.531904 212.80424 
L 277.204804 212.266721 
L 277.246441 214.149186 
L 277.393742 214.170741 
L 278.707041 212.988425 
L 279.871903 212.174339 
L 279.904915 214.431464 
L 280.881119 213.43974 
L 282.194418 212.42584 
L 282.498499 212.204911 
L 282.503249 214.515274 
L 283.384021 213.583069 
L 284.69732 212.534701 
L 285.125095 212.261178 
L 285.232514 214.535433 
L 286.217488 213.490279 
L 287.719266 212.255595 
L 287.772663 214.306052 
L 289.049272 213.116133 
L 290.378293 212.187105 
L 290.381054 214.480571 
L 291.223353 213.589522 
L 292.536652 212.539784 
L 293.004896 212.235501 
L 293.069616 214.432342 
L 294.05459 213.436301 
L 295.36789 212.424815 
L 295.631492 212.222353 
L 295.640261 214.525559 
L 296.558261 213.559354 
L 297.87156 212.517696 
L 298.258087 212.267731 
L 298.258099 212.346335 
L 298.259795 214.540056 
L 299.061809 213.677594 
L 300.375108 212.606684 
L 300.860865 212.299201 
L 300.92115 214.636943 
L 301.894993 213.574419 
L 303.470247 212.249023 
L 303.472401 212.268508 
L 303.519265 214.282704 
L 305.711754 212.463593 
L 306.137882 212.204031 
L 306.137889 212.23188 
L 306.138961 214.501063 
L 306.244238 214.346762 
L 307.229212 213.370239 
L 308.542511 212.373988 
L 308.764484 212.204796 
L 308.78123 214.496762 
L 309.732111 213.51048 
L 311.04541 212.48093 
L 311.350041 212.278538 
L 311.35112 212.304832 
L 311.394499 214.780053 
L 311.908902 214.066459 
L 313.222201 212.866672 
L 314.01107 212.232416 
L 314.084037 214.259587 
L 315.397336 213.053907 
L 316.644278 212.162224 
L 316.653091 214.470342 
L 317.571438 213.516341 
L 318.884737 212.485404 
L 319.270874 212.238078 
L 319.270885 212.317127 
L 319.27258 214.521161 
L 320.074349 213.663067 
L 321.387648 212.596381 
L 321.897476 212.239412 
L 321.930316 214.489605 
L 322.906343 213.486518 
L 324.219642 212.463338 
L 324.524072 212.240456 
L 324.528836 214.537942 
L 325.409889 213.602236 
L 326.723188 212.550799 
L 327.150668 212.276677 
L 327.150676 212.304322 
L 327.151747 214.5643 
L 327.256738 214.408338 
L 328.241712 213.418368 
L 329.555012 212.411225 
L 329.77727 212.240221 
L 329.794087 214.519192 
L 330.745192 213.527823 
L 332.058491 212.494007 
L 332.403866 212.262617 
L 332.406623 214.545673 
L 333.248663 213.641288 
L 334.561963 212.578492 
L 335.030469 212.270357 
L 335.095481 214.453848 
L 336.080455 213.452016 
L 337.393754 212.435589 
L 337.620331 212.311362 
L 337.669541 214.69596 
L 338.256964 213.982989 
L 339.570263 212.804535 
L 340.243164 212.266795 
L 340.2848 214.149219 
L 340.432101 214.170676 
L 341.7454 212.9877 
L 342.910262 212.173287 
L 342.94327 214.430759 
L 343.91947 213.438491 
L 345.232769 212.424108 
L 345.536859 212.203082 
L 345.541608 214.514092 
L 346.422365 213.581392 
L 347.735664 212.532555 
L 348.163455 212.258905 
L 348.270874 214.533938 
L 349.255848 213.488255 
L 350.757626 212.25329 
L 350.811023 214.304475 
L 352.087633 213.113942 
L 353.416653 212.184568 
L 353.419413 214.478932 
L 354.261692 213.587461 
L 355.574991 212.537331 
L 356.043255 212.23295 
L 356.107955 214.430671 
L 357.092929 213.434177 
L 358.406228 212.422359 
L 358.669851 212.21984 
L 358.678618 214.523936 
L 359.5966 213.557329 
L 360.909899 212.515341 
L 361.296447 212.265295 
L 361.296458 212.343937 
L 361.298154 214.538492 
L 362.100148 213.67569 
L 363.413447 212.604454 
L 363.899224 212.29688 
L 363.95951 214.635477 
L 364.933353 213.572553 
L 366.508606 212.246977 
L 366.510761 212.266461 
L 366.557625 214.281304 
L 368.750114 212.461273 
L 369.176241 212.201678 
L 369.176249 212.229546 
L 369.17732 214.499552 
L 369.282578 214.345219 
L 370.267552 213.36842 
L 371.580851 212.371977 
L 371.802843 212.202755 
L 371.819586 214.495443 
L 372.770453 213.508883 
L 374.083752 212.479123 
L 374.388401 212.276689 
L 374.38948 212.302982 
L 374.432859 214.778935 
L 374.947262 214.065122 
L 376.260561 212.865131 
L 377.049429 212.230747 
L 377.122397 214.258442 
L 378.435696 213.052249 
L 379.682638 212.160476 
L 379.691449 214.469209 
L 380.609783 213.51501 
L 381.923082 212.483916 
L 382.309233 212.23655 
L 382.309244 212.315622 
L 382.310939 214.52018 
L 383.112696 213.661906 
L 384.425995 212.595051 
L 384.935835 212.238038 
L 384.96867 214.488713 
L 385.944691 213.485428 
L 387.25799 212.462105 
L 387.562432 212.239195 
L 387.567195 214.53713 
L 388.448238 213.601253 
L 389.761537 212.549673 
L 390.189028 212.275514 
L 390.296443 214.544144 
L 391.281417 213.498022 
L 392.783199 212.262628 
L 392.836596 214.310733 
L 394.113203 213.120214 
L 395.442225 212.190668 
L 395.444987 214.482871 
L 396.287314 213.591641 
L 397.600614 212.541663 
L 398.062216 212.248773 
L 398.062216 212.248773 
" clip-path="url(#pdfe2235a39)" style="fill: none; stroke: #9467bd; stroke-width: 2; stroke-linecap: square"/>
   </g>
   <g id="patch_3">
    <path d="M 53.328125 239.6 
L 53.328125 7.2 
" style="fill: none; stroke: #000000; stroke-width: 0.8; stroke-linejoin: miter; stroke-linecap: square"/>
   </g>
   <g id="patch_4">
    <path d="M 414.478125 239.6 
L 414.478125 7.2 
" style="fill: none; stroke: #000000; stroke-width: 0.8; stroke-linejoin: miter; stroke-linecap: square"/>
   </g>
   <g id="patch_5">
    <path d="M 53.328125 239.6 
L 414.478125 239.6 
" style="fill: none; stroke: #000000; stroke-width: 0.8; stroke-linejoin: miter; stroke-linecap: square"/>
   </g>
   <g id="patch_6">
    <path d="M 53.328125 7.2 
L 414.478125 7.2 
" style="fill: none; stroke: #000000; stroke-width: 0.8; stroke-linejoin: miter; stroke-linecap: square"/>
   </g>
   <g id="legend_1">
    <g id="patch_7">
     <path d="M 310.79375 161.595312 
L 407.478125 161.595312 
Q 409.478125 161.595312 409.478125 159.595312 
L 409.478125 87.204687 
Q 409.478125 85.204687 407.478125 85.204687 
L 310.79375 85.204687 
Q 308.79375 85.204687 308.79375 87.204687 
L 308.79375 159.595312 
Q 308.79375 161.595312 310.79375 161.595312 
z
" style="fill: #ffffff; opacity: 0.8; stroke: #cccccc; stroke-linejoin: miter"/>
    </g>
    <g id="line2d_34">
     <path d="M 312.79375 93.303125 
L 322.79375 93.303125 
L 332.79375 93.303125 
" style="fill: none; stroke: #1f77b4; stroke-width: 2; stroke-linecap: square"/>
    </g>
    <g id="text_17">
     <!-- Vbiasc -->
     <g transform="translate(340.79375 96.803125) scale(0.1 -0.1)">
      <defs>
       <path id="DejaVuSans-62" d="M 3116 1747 
Q 3116 2381 2855 2742 
Q 2594 3103 2138 3103 
Q 1681 3103 1420 2742 
Q 1159 2381 1159 1747 
Q 1159 1113 1420 752 
Q 1681 391 2138 391 
Q 2594 391 2855 752 
Q 3116 1113 3116 1747 
z
M 1159 2969 
Q 1341 3281 1617 3432 
Q 1894 3584 2278 3584 
Q 2916 3584 3314 3078 
Q 3713 2572 3713 1747 
Q 3713 922 3314 415 
Q 2916 -91 2278 -91 
Q 1894 -91 1617 61 
Q 1341 213 1159 525 
L 1159 0 
L 581 0 
L 581 4863 
L 1159 4863 
L 1159 2969 
z
" transform="scale(0.015625)"/>
       <path id="DejaVuSans-69" d="M 603 3500 
L 1178 3500 
L 1178 0 
L 603 0 
L 603 3500 
z
M 603 4863 
L 1178 4863 
L 1178 4134 
L 603 4134 
L 603 4863 
z
" transform="scale(0.015625)"/>
       <path id="DejaVuSans-61" d="M 2194 1759 
Q 1497 1759 1228 1600 
Q 959 1441 959 1056 
Q 959 750 1161 570 
Q 1363 391 1709 391 
Q 2188 391 2477 730 
Q 2766 1069 2766 1631 
L 2766 1759 
L 2194 1759 
z
M 3341 1997 
L 3341 0 
L 2766 0 
L 2766 531 
Q 2569 213 2275 61 
Q 1981 -91 1556 -91 
Q 1019 -91 701 211 
Q 384 513 384 1019 
Q 384 1609 779 1909 
Q 1175 2209 1959 2209 
L 2766 2209 
L 2766 2266 
Q 2766 2663 2505 2880 
Q 2244 3097 1772 3097 
Q 1472 3097 1187 3025 
Q 903 2953 641 2809 
L 641 3341 
Q 956 3463 1253 3523 
Q 1550 3584 1831 3584 
Q 2591 3584 2966 3190 
Q 3341 2797 3341 1997 
z
" transform="scale(0.015625)"/>
       <path id="DejaVuSans-63" d="M 3122 3366 
L 3122 2828 
Q 2878 2963 2633 3030 
Q 2388 3097 2138 3097 
Q 1578 3097 1268 2742 
Q 959 2388 959 1747 
Q 959 1106 1268 751 
Q 1578 397 2138 397 
Q 2388 397 2633 464 
Q 2878 531 3122 666 
L 3122 134 
Q 2881 22 2623 -34 
Q 2366 -91 2075 -91 
Q 1284 -91 818 406 
Q 353 903 353 1747 
Q 353 2603 823 3093 
Q 1294 3584 2113 3584 
Q 2378 3584 2631 3529 
Q 2884 3475 3122 3366 
z
" transform="scale(0.015625)"/>
      </defs>
      <use xlink:href="#DejaVuSans-56"/>
      <use xlink:href="#DejaVuSans-62" x="68.408203"/>
      <use xlink:href="#DejaVuSans-69" x="131.884766"/>
      <use xlink:href="#DejaVuSans-61" x="159.667969"/>
      <use xlink:href="#DejaVuSans-73" x="220.947266"/>
      <use xlink:href="#DejaVuSans-63" x="273.046875"/>
     </g>
    </g>
    <g id="line2d_35">
     <path d="M 312.79375 107.98125 
L 322.79375 107.98125 
L 332.79375 107.98125 
" style="fill: none; stroke: #ff7f0e; stroke-width: 2; stroke-linecap: square"/>
    </g>
    <g id="text_18">
     <!-- Vbias -->
     <g transform="translate(340.79375 111.48125) scale(0.1 -0.1)">
      <use xlink:href="#DejaVuSans-56"/>
      <use xlink:href="#DejaVuSans-62" x="68.408203"/>
      <use xlink:href="#DejaVuSans-69" x="131.884766"/>
      <use xlink:href="#DejaVuSans-61" x="159.667969"/>
      <use xlink:href="#DejaVuSans-73" x="220.947266"/>
     </g>
    </g>
    <g id="line2d_36">
     <path d="M 312.79375 122.659375 
L 322.79375 122.659375 
L 332.79375 122.659375 
" style="fill: none; stroke: #2ca02c; stroke-width: 2; stroke-linecap: square"/>
    </g>
    <g id="text_19">
     <!-- VDD+Enable -->
     <g transform="translate(340.79375 126.159375) scale(0.1 -0.1)">
      <defs>
       <path id="DejaVuSans-44" d="M 1259 4147 
L 1259 519 
L 2022 519 
Q 2988 519 3436 956 
Q 3884 1394 3884 2338 
Q 3884 3275 3436 3711 
Q 2988 4147 2022 4147 
L 1259 4147 
z
M 628 4666 
L 1925 4666 
Q 3281 4666 3915 4102 
Q 4550 3538 4550 2338 
Q 4550 1131 3912 565 
Q 3275 0 1925 0 
L 628 0 
L 628 4666 
z
" transform="scale(0.015625)"/>
       <path id="DejaVuSans-2b" d="M 2944 4013 
L 2944 2272 
L 4684 2272 
L 4684 1741 
L 2944 1741 
L 2944 0 
L 2419 0 
L 2419 1741 
L 678 1741 
L 678 2272 
L 2419 2272 
L 2419 4013 
L 2944 4013 
z
" transform="scale(0.015625)"/>
       <path id="DejaVuSans-45" d="M 628 4666 
L 3578 4666 
L 3578 4134 
L 1259 4134 
L 1259 2753 
L 3481 2753 
L 3481 2222 
L 1259 2222 
L 1259 531 
L 3634 531 
L 3634 0 
L 628 0 
L 628 4666 
z
" transform="scale(0.015625)"/>
       <path id="DejaVuSans-6e" d="M 3513 2113 
L 3513 0 
L 2938 0 
L 2938 2094 
Q 2938 2591 2744 2837 
Q 2550 3084 2163 3084 
Q 1697 3084 1428 2787 
Q 1159 2491 1159 1978 
L 1159 0 
L 581 0 
L 581 3500 
L 1159 3500 
L 1159 2956 
Q 1366 3272 1645 3428 
Q 1925 3584 2291 3584 
Q 2894 3584 3203 3211 
Q 3513 2838 3513 2113 
z
" transform="scale(0.015625)"/>
       <path id="DejaVuSans-6c" d="M 603 4863 
L 1178 4863 
L 1178 0 
L 603 0 
L 603 4863 
z
" transform="scale(0.015625)"/>
       <path id="DejaVuSans-65" d="M 3597 1894 
L 3597 1613 
L 953 1613 
Q 991 1019 1311 708 
Q 1631 397 2203 397 
Q 2534 397 2845 478 
Q 3156 559 3463 722 
L 3463 178 
Q 3153 47 2828 -22 
Q 2503 -91 2169 -91 
Q 1331 -91 842 396 
Q 353 884 353 1716 
Q 353 2575 817 3079 
Q 1281 3584 2069 3584 
Q 2775 3584 3186 3129 
Q 3597 2675 3597 1894 
z
M 3022 2063 
Q 3016 2534 2758 2815 
Q 2500 3097 2075 3097 
Q 1594 3097 1305 2825 
Q 1016 2553 972 2059 
L 3022 2063 
z
" transform="scale(0.015625)"/>
      </defs>
      <use xlink:href="#DejaVuSans-56"/>
      <use xlink:href="#DejaVuSans-44" x="68.408203"/>
      <use xlink:href="#DejaVuSans-44" x="145.410156"/>
      <use xlink:href="#DejaVuSans-2b" x="222.412109"/>
      <use xlink:href="#DejaVuSans-45" x="306.201172"/>
      <use xlink:href="#DejaVuSans-6e" x="369.384766"/>
      <use xlink:href="#DejaVuSans-61" x="432.763672"/>
      <use xlink:href="#DejaVuSans-62" x="494.042969"/>
      <use xlink:href="#DejaVuSans-6c" x="557.519531"/>
      <use xlink:href="#DejaVuSans-65" x="585.302734"/>
     </g>
    </g>
    <g id="line2d_37">
     <path d="M 312.79375 137.3375 
L 322.79375 137.3375 
L 332.79375 137.3375 
" style="fill: none; stroke: #d62728; stroke-width: 2; stroke-linecap: square"/>
    </g>
    <g id="text_20">
     <!-- Vsu -->
     <g transform="translate(340.79375 140.8375) scale(0.1 -0.1)">
      <defs>
       <path id="DejaVuSans-75" d="M 544 1381 
L 544 3500 
L 1119 3500 
L 1119 1403 
Q 1119 906 1312 657 
Q 1506 409 1894 409 
Q 2359 409 2629 706 
Q 2900 1003 2900 1516 
L 2900 3500 
L 3475 3500 
L 3475 0 
L 2900 0 
L 2900 538 
Q 2691 219 2414 64 
Q 2138 -91 1772 -91 
Q 1169 -91 856 284 
Q 544 659 544 1381 
z
M 1991 3584 
L 1991 3584 
z
" transform="scale(0.015625)"/>
      </defs>
      <use xlink:href="#DejaVuSans-56"/>
      <use xlink:href="#DejaVuSans-73" x="68.408203"/>
      <use xlink:href="#DejaVuSans-75" x="120.507812"/>
     </g>
    </g>
    <g id="line2d_38">
     <path d="M 312.79375 152.015625 
L 322.79375 152.015625 
L 332.79375 152.015625 
" style="fill: none; stroke: #9467bd; stroke-width: 2; stroke-linecap: square"/>
    </g>
    <g id="text_21">
     <!-- Vres -->
     <g transform="translate(340.79375 155.515625) scale(0.1 -0.1)">
      <defs>
       <path id="DejaVuSans-72" d="M 2631 2963 
Q 2534 3019 2420 3045 
Q 2306 3072 2169 3072 
Q 1681 3072 1420 2755 
Q 1159 2438 1159 1844 
L 1159 0 
L 581 0 
L 581 3500 
L 1159 3500 
L 1159 2956 
Q 1341 3275 1631 3429 
Q 1922 3584 2338 3584 
Q 2397 3584 2469 3576 
Q 2541 3569 2628 3553 
L 2631 2963 
z
" transform="scale(0.015625)"/>
      </defs>
      <use xlink:href="#DejaVuSans-56"/>
      <use xlink:href="#DejaVuSans-72" x="68.408203"/>
      <use xlink:href="#DejaVuSans-65" x="107.271484"/>
      <use xlink:href="#DejaVuSans-73" x="168.794922"/>
     </g>
    </g>
   </g>
  </g>
 </g>
 <defs>
  <clipPath id="pdfe2235a39">
   <rect x="53.328125" y="7.2" width="361.15" height="232.4"/>
  </clipPath>
 </defs>
</svg>
