M48
;GenerationSoftware,Autodesk,EAGLE,9.7.0*%
;CreationDate,2024-06-14T12:19:53Z*%
FMAT,2
ICI,OFF
METRIC,TZ,000.000
T11C0.300
T10C0.630
T9C0.813
T8C0.850
T7C0.900
T6C1.016
T5C1.200
T4C1.321
T3C1.600
T2C3.000
T1C3.250
%
G90
M71
T1
X67628Y37148
X67628Y25717
T2
X4000Y4000
X45000Y42000
X44270Y62000
X70000Y9000
X4000Y62000
T3
X64577Y39178
X64577Y23687
T4
X21907Y57150
T5
X68263Y44132
X68263Y49212
X68263Y56515
X68263Y61595
T6
X1905Y21590
X1905Y19050
X1905Y16510
X1905Y13970
X1905Y11430
X1905Y8890
X33655Y25082
X15875Y6667
X15875Y9208
X15875Y11747
X25082Y6667
X25082Y9208
X33655Y22542
X34290Y6667
X34290Y9208
X34290Y11747
X43498Y6667
X43498Y9208
X43498Y11747
X52705Y6667
X52705Y9208
X52705Y11747
X52070Y44510
X52070Y47050
X52070Y49590
X4445Y57150
X6985Y57150
X4445Y54610
X6985Y54610
X4445Y52070
X6985Y52070
X6985Y49530
X4445Y46990
X6985Y46990
X4445Y49530
X4445Y44450
X6985Y44450
X4445Y41910
X6985Y41910
X4445Y39370
X6985Y39370
X4445Y36830
X6985Y36830
X4445Y34290
X6985Y34290
X4445Y31750
X6985Y31750
X4445Y29210
X6985Y29210
X4445Y26670
X6985Y26670
X4445Y24130
X6985Y24130
X4445Y21590
X6985Y21590
X4445Y19050
X6985Y19050
X4445Y16510
X6985Y16510
X4445Y13970
X6985Y13970
X4445Y11430
X6985Y11430
X4445Y8890
X6985Y8890
X9525Y57150
X9525Y54610
X9525Y52070
X9525Y49530
X9525Y46990
X9525Y44450
X9525Y41910
X9525Y39370
X9525Y36830
X9525Y34290
X9525Y31750
X9525Y29210
X9525Y26670
X9525Y24130
X9525Y21590
X9525Y19050
X9525Y16510
X9525Y13970
X9525Y11430
X9525Y8890
X61912Y61595
X61912Y59055
X61912Y56515
X61912Y49212
X61912Y46672
X61912Y44132
X15240Y47625
X17780Y47625
X20320Y47625
X66993Y19050
X69533Y19050
X1905Y57150
X1905Y54610
X1905Y52070
X1905Y49530
X1905Y46990
X1905Y44450
X1905Y41910
X25082Y11747
X1905Y39370
X1905Y36830
X1905Y34290
X1905Y31750
X1905Y29210
X1905Y26670
X1905Y24130
T7
X58737Y30797
X61277Y32067
X61277Y29527
X61277Y26987
X58737Y35878
X61277Y34608
X58737Y33338
X58737Y28257
T8
X17780Y54292
T9
X41593Y57150
X33973Y57150
X28892Y57150
X31432Y57150
X28892Y49530
X31432Y49530
X33973Y49530
X36513Y49530
X39053Y49530
X41593Y49530
X62547Y19368
X39053Y57150
X26352Y57150
X26352Y49530
X36513Y57150
X57467Y19368
T10
X20220Y42863
X15340Y42863
T11
X57467Y15875
X32067Y26987
X16828Y36830
X30797Y34608
X20320Y26670
X12114Y34021
X18415Y34290
X22860Y51117
X44767Y48704
X43498Y37592
X51117Y37592
X43498Y39815
X51117Y39815
X31432Y38862
X31432Y36640
X44767Y54102
X22860Y53975
X12065Y51879
X12065Y49657
X14287Y2540
X20638Y2540
X23495Y2540
X29845Y2540
X39053Y2540
X48260Y2540
X57467Y2540
X60007Y14287
X63817Y14287
X67628Y14287
X32067Y28257
X58102Y49212
X55245Y47625
X48577Y43815
X46990Y45085
X46990Y53022
X58102Y60875
X55245Y59372
X18098Y39053
X22860Y39053
X16192Y51117
X39053Y54102
X41593Y54102
X28892Y34608
X51117Y2540
X41910Y2540
X32702Y2540
X41275Y35560
X28892Y54102
X37148Y20638
X37148Y39370
X24765Y31750
X24765Y28575
X14922Y54292
X15367Y26543
X25400Y21907
X19050Y27813
X20955Y21717
X20638Y30162
X16828Y33973
X43180Y20638
X52070Y20638
X27622Y44450
X43180Y45085
X12700Y59690
X22225Y59690
X24765Y53975
X46037Y56197
X17463Y2540
X26670Y2540
X35878Y2540
X45085Y2540
X54292Y2540
X71120Y14287
X24765Y48895
X54610Y52705
X21907Y35243
X23812Y32385
X28257Y25082
X24447Y26670
X27940Y28257
X23495Y31115
X19050Y28829
X27559Y32258
X55562Y51435
X58737Y38735
X18098Y25717
X67310Y16192
X41275Y33338
X41275Y26987
X25717Y24765
X14605Y22479
X15875Y22479
X17145Y22479
X17780Y32893
X18415Y22479
X19365Y22479
X22352Y32385
X20638Y54292
X12065Y54610
X17463Y15875
X20638Y15875
X46990Y46990
X46990Y48260
X41275Y24765
X48577Y48260
X36513Y54102
X33973Y54102
X31432Y54102
X26352Y54102
X26670Y15875
X29845Y15875
X35878Y15875
X39053Y15875
X16192Y57150
X45085Y15875
X48260Y15875
X29591Y20828
X26987Y20892
X49847Y33338
X54927Y26987
X54292Y15875
X63500Y16192
M30