<?xml version="1.0" encoding="utf-8" standalone="no"?>
<!DOCTYPE svg PUBLIC "-//W3C//DTD SVG 1.1//EN"
  "http://www.w3.org/Graphics/SVG/1.1/DTD/svg11.dtd">
<svg xmlns:xlink="http://www.w3.org/1999/xlink" width="416.767pt" height="552.126pt" viewBox="0 0 416.767 552.126" xmlns="http://www.w3.org/2000/svg" version="1.1">
 <metadata>
  <rdf:RDF xmlns:dc="http://purl.org/dc/elements/1.1/" xmlns:cc="http://creativecommons.org/ns#" xmlns:rdf="http://www.w3.org/1999/02/22-rdf-syntax-ns#">
   <cc:Work>
    <dc:type rdf:resource="http://purl.org/dc/dcmitype/StillImage"/>
    <dc:date>2025-05-26T15:05:04.543272</dc:date>
    <dc:format>image/svg+xml</dc:format>
    <dc:creator>
     <cc:Agent>
      <dc:title>Matplotlib v3.9.2, https://matplotlib.org/</dc:title>
     </cc:Agent>
    </dc:creator>
   </cc:Work>
  </rdf:RDF>
 </metadata>
 <defs>
  <style type="text/css">*{stroke-linejoin: round; stroke-linecap: butt}</style>
 </defs>
 <g id="figure_1">
  <g id="patch_1">
   <path d="M 0 552.126 
L 416.767 552.126 
L 416.767 0 
L 0 0 
L 0 552.126 
z
" style="fill: none"/>
  </g>
  <g id="axes_1">
   <g id="line2d_1">
    <path d="M 9.146 278.046 
L 36.146 278.046 
L 63.146 278.046 
" clip-path="url(#pbf374054f7)" style="fill: none; stroke: #000000; stroke-width: 2; stroke-linecap: round"/>
   </g>
   <g id="line2d_2">
    <path d="M 63.146 278.046 
L 63.146 224.046 
L 63.146 170.046 
" clip-path="url(#pbf374054f7)" style="fill: none; stroke: #000000; stroke-width: 2; stroke-linecap: round"/>
   </g>
   <g id="line2d_3">
    <path d="M 63.146 170.046 
L 81.146 170.046 
L 99.146 170.046 
" clip-path="url(#pbf374054f7)" style="fill: none; stroke: #000000; stroke-width: 2; stroke-linecap: round"/>
   </g>
   <g id="line2d_4">
    <path d="M 63.146 170.046 
L 63.146 116.046 
L 63.146 62.046 
" clip-path="url(#pbf374054f7)" style="fill: none; stroke: #000000; stroke-width: 2; stroke-linecap: round"/>
   </g>
   <g id="line2d_5">
    <path d="M 63.146 62.046 
L 81.146 62.046 
L 99.146 62.046 
" clip-path="url(#pbf374054f7)" style="fill: none; stroke: #000000; stroke-width: 2; stroke-linecap: round"/>
   </g>
   <g id="line2d_6">
    <path d="M 63.146 278.046 
L 63.146 332.046 
L 63.146 386.046 
" clip-path="url(#pbf374054f7)" style="fill: none; stroke: #000000; stroke-width: 2; stroke-linecap: round"/>
   </g>
   <g id="line2d_7">
    <path d="M 63.146 386.046 
L 81.146 386.046 
L 99.146 386.046 
" clip-path="url(#pbf374054f7)" style="fill: none; stroke: #000000; stroke-width: 2; stroke-linecap: round"/>
   </g>
   <g id="line2d_8">
    <path d="M 63.146 386.046 
L 63.146 440.046 
L 63.146 494.046 
" clip-path="url(#pbf374054f7)" style="fill: none; stroke: #000000; stroke-width: 2; stroke-linecap: round"/>
   </g>
   <g id="line2d_9">
    <path d="M 63.146 494.046 
L 81.146 494.046 
L 99.146 494.046 
" clip-path="url(#pbf374054f7)" style="fill: none; stroke: #000000; stroke-width: 2; stroke-linecap: round"/>
   </g>
   <g id="line2d_10">
    <path d="M 132.146 524.046 
L 132.146 509.046 
L 117.146 509.046 
L 117.146 479.046 
L 132.146 479.046 
L 132.146 464.046 
" clip-path="url(#pbf374054f7)" style="fill: none; stroke: #000000; stroke-width: 2; stroke-linecap: round"/>
   </g>
   <g id="line2d_11">
    <path d="M 123.146 509.046 
L 117.146 509.046 
" clip-path="url(#pbf374054f7)" style="fill: none; stroke: #000000; stroke-width: 2; stroke-linecap: round"/>
   </g>
   <g id="patch_2">
    <path d="M 123.146 504.546 
L 132.146 509.046 
L 123.146 513.546 
z
" clip-path="url(#pbf374054f7)"/>
   </g>
   <g id="line2d_12">
    <path d="M 114.146 506.046 
L 114.146 482.046 
" clip-path="url(#pbf374054f7)" style="fill: none; stroke: #000000; stroke-width: 2; stroke-linecap: round"/>
   </g>
   <g id="line2d_13">
    <path d="M 99.146 494.046 
L 114.146 494.046 
" clip-path="url(#pbf374054f7)" style="fill: none; stroke: #000000; stroke-width: 2; stroke-linecap: round"/>
   </g>
   <g id="line2d_14">
    <path d="M 132.146 416.046 
L 132.146 401.046 
L 117.146 401.046 
L 117.146 371.046 
L 132.146 371.046 
L 132.146 356.046 
" clip-path="url(#pbf374054f7)" style="fill: none; stroke: #000000; stroke-width: 2; stroke-linecap: round"/>
   </g>
   <g id="line2d_15">
    <path d="M 123.146 401.046 
L 117.146 401.046 
" clip-path="url(#pbf374054f7)" style="fill: none; stroke: #000000; stroke-width: 2; stroke-linecap: round"/>
   </g>
   <g id="patch_3">
    <path d="M 123.146 396.546 
L 132.146 401.046 
L 123.146 405.546 
z
" clip-path="url(#pbf374054f7)"/>
   </g>
   <g id="line2d_16">
    <path d="M 114.146 398.046 
L 114.146 374.046 
" clip-path="url(#pbf374054f7)" style="fill: none; stroke: #000000; stroke-width: 2; stroke-linecap: round"/>
   </g>
   <g id="line2d_17">
    <path d="M 99.146 386.046 
L 114.146 386.046 
" clip-path="url(#pbf374054f7)" style="fill: none; stroke: #000000; stroke-width: 2; stroke-linecap: round"/>
   </g>
   <g id="line2d_18">
    <path d="M 132.146 200.046 
L 132.146 185.046 
L 117.146 185.046 
L 117.146 155.046 
L 132.146 155.046 
L 132.146 140.046 
" clip-path="url(#pbf374054f7)" style="fill: none; stroke: #000000; stroke-width: 2; stroke-linecap: round"/>
   </g>
   <g id="line2d_19">
    <path d="M 126.146 155.046 
L 132.146 155.046 
" clip-path="url(#pbf374054f7)" style="fill: none; stroke: #000000; stroke-width: 2; stroke-linecap: round"/>
   </g>
   <g id="patch_4">
    <path d="M 126.146 159.546 
L 117.146 155.046 
L 126.146 150.546 
z
" clip-path="url(#pbf374054f7)"/>
   </g>
   <g id="line2d_20">
    <path d="M 114.146 182.046 
L 114.146 158.046 
" clip-path="url(#pbf374054f7)" style="fill: none; stroke: #000000; stroke-width: 2; stroke-linecap: round"/>
   </g>
   <g id="line2d_21">
    <path d="M 99.146 170.046 
L 114.146 170.046 
" clip-path="url(#pbf374054f7)" style="fill: none; stroke: #000000; stroke-width: 2; stroke-linecap: round"/>
   </g>
   <g id="line2d_22">
    <path d="M 132.146 92.046 
L 132.146 77.046 
L 117.146 77.046 
L 117.146 47.046 
L 132.146 47.046 
L 132.146 32.046 
" clip-path="url(#pbf374054f7)" style="fill: none; stroke: #000000; stroke-width: 2; stroke-linecap: round"/>
   </g>
   <g id="line2d_23">
    <path d="M 126.146 47.046 
L 132.146 47.046 
" clip-path="url(#pbf374054f7)" style="fill: none; stroke: #000000; stroke-width: 2; stroke-linecap: round"/>
   </g>
   <g id="patch_5">
    <path d="M 126.146 51.546 
L 117.146 47.046 
L 126.146 42.546 
z
" clip-path="url(#pbf374054f7)"/>
   </g>
   <g id="line2d_24">
    <path d="M 114.146 74.046 
L 114.146 50.046 
" clip-path="url(#pbf374054f7)" style="fill: none; stroke: #000000; stroke-width: 2; stroke-linecap: round"/>
   </g>
   <g id="line2d_25">
    <path d="M 99.146 62.046 
L 114.146 62.046 
" clip-path="url(#pbf374054f7)" style="fill: none; stroke: #000000; stroke-width: 2; stroke-linecap: round"/>
   </g>
   <g id="line2d_26">
    <path d="M 132.146 524.046 
L 132.146 538.446 
L 123.146 538.446 
L 132.146 547.446 
L 141.146 538.446 
L 132.146 538.446 
" clip-path="url(#pbf374054f7)" style="fill: none; stroke: #000000; stroke-width: 2; stroke-linecap: round"/>
   </g>
   <g id="line2d_27">
    <path d="M 132.146 464.046 
L 132.146 440.046 
L 132.146 416.046 
" clip-path="url(#pbf374054f7)" style="fill: none; stroke: #000000; stroke-width: 2; stroke-linecap: round"/>
   </g>
   <g id="line2d_28">
    <path d="M 132.146 356.046 
L 132.146 317.046 
L 132.146 278.046 
" clip-path="url(#pbf374054f7)" style="fill: none; stroke: #000000; stroke-width: 2; stroke-linecap: round"/>
   </g>
   <g id="line2d_29">
    <path d="M 132.146 278.046 
L 132.146 239.046 
L 132.146 200.046 
" clip-path="url(#pbf374054f7)" style="fill: none; stroke: #000000; stroke-width: 2; stroke-linecap: round"/>
   </g>
   <g id="line2d_30">
    <path d="M 132.146 140.046 
L 132.146 116.046 
L 132.146 92.046 
" clip-path="url(#pbf374054f7)" style="fill: none; stroke: #000000; stroke-width: 2; stroke-linecap: round"/>
   </g>
   <g id="line2d_31">
    <path d="M 132.146 32.046 
L 132.146 17.646 
" clip-path="url(#pbf374054f7)" style="fill: none; stroke: #000000; stroke-width: 2; stroke-linecap: round"/>
   </g>
   <g id="line2d_32">
    <path d="M 132.146 17.646 
L 125.396 17.646 
" clip-path="url(#pbf374054f7)" style="fill: none; stroke: #000000; stroke-width: 2; stroke-linecap: round"/>
   </g>
   <g id="line2d_33">
    <path d="M 132.146 17.646 
L 138.896 17.646 
" clip-path="url(#pbf374054f7)" style="fill: none; stroke: #000000; stroke-width: 2; stroke-linecap: round"/>
   </g>
   <g id="line2d_34">
    <path d="M 132.146 278.046 
L 177.146 278.046 
L 222.146 278.046 
" clip-path="url(#pbf374054f7)" style="fill: none; stroke: #000000; stroke-width: 2; stroke-linecap: round"/>
   </g>
   <g id="line2d_35">
    <path d="M 222.146 278.046 
L 222.146 213.246 
L 222.146 148.446 
" clip-path="url(#pbf374054f7)" style="fill: none; stroke: #000000; stroke-width: 2; stroke-linecap: round"/>
   </g>
   <g id="line2d_36">
    <path d="M 252.146 115.446 
L 237.146 115.446 
L 237.146 130.446 
L 207.146 130.446 
L 207.146 115.446 
L 192.146 115.446 
" clip-path="url(#pbf374054f7)" style="fill: none; stroke: #000000; stroke-width: 2; stroke-linecap: round"/>
   </g>
   <g id="line2d_37">
    <path d="M 207.146 121.446 
L 207.146 115.446 
" clip-path="url(#pbf374054f7)" style="fill: none; stroke: #000000; stroke-width: 2; stroke-linecap: round"/>
   </g>
   <g id="patch_6">
    <path d="M 211.646 121.446 
L 207.146 130.446 
L 202.646 121.446 
z
" clip-path="url(#pbf374054f7)"/>
   </g>
   <g id="line2d_38">
    <path d="M 234.146 133.446 
L 210.146 133.446 
" clip-path="url(#pbf374054f7)" style="fill: none; stroke: #000000; stroke-width: 2; stroke-linecap: round"/>
   </g>
   <g id="line2d_39">
    <path d="M 222.146 148.446 
L 222.146 133.446 
" clip-path="url(#pbf374054f7)" style="fill: none; stroke: #000000; stroke-width: 2; stroke-linecap: round"/>
   </g>
   <g id="line2d_40">
    <path d="M 192.146 115.446 
L 162.266 115.446 
L 132.386 115.446 
" clip-path="url(#pbf374054f7)" style="fill: none; stroke: #000000; stroke-width: 2; stroke-linecap: round"/>
   </g>
   <g id="line2d_41">
    <path d="M 252.146 115.446 
L 270.146 115.446 
L 288.146 115.446 
" clip-path="url(#pbf374054f7)" style="fill: none; stroke: #000000; stroke-width: 2; stroke-linecap: round"/>
   </g>
   <g id="line2d_42">
    <path d="M 288.146 115.446 
L 288.146 129.846 
L 279.146 129.846 
L 288.146 138.846 
L 297.146 129.846 
L 288.146 129.846 
" clip-path="url(#pbf374054f7)" style="fill: none; stroke: #000000; stroke-width: 2; stroke-linecap: round"/>
   </g>
   <g id="line2d_43">
    <path d="M 222.146 278.046 
L 222.146 342.846 
L 222.146 407.646 
" clip-path="url(#pbf374054f7)" style="fill: none; stroke: #000000; stroke-width: 2; stroke-linecap: round"/>
   </g>
   <g id="line2d_44">
    <path d="M 192.146 440.646 
L 207.146 440.646 
L 207.146 425.646 
L 237.146 425.646 
L 237.146 440.646 
L 252.146 440.646 
" clip-path="url(#pbf374054f7)" style="fill: none; stroke: #000000; stroke-width: 2; stroke-linecap: round"/>
   </g>
   <g id="line2d_45">
    <path d="M 207.146 431.646 
L 207.146 425.646 
" clip-path="url(#pbf374054f7)" style="fill: none; stroke: #000000; stroke-width: 2; stroke-linecap: round"/>
   </g>
   <g id="patch_7">
    <path d="M 211.646 431.646 
L 207.146 440.646 
L 202.646 431.646 
z
" clip-path="url(#pbf374054f7)"/>
   </g>
   <g id="line2d_46">
    <path d="M 210.146 422.646 
L 234.146 422.646 
" clip-path="url(#pbf374054f7)" style="fill: none; stroke: #000000; stroke-width: 2; stroke-linecap: round"/>
   </g>
   <g id="line2d_47">
    <path d="M 222.146 407.646 
L 222.146 422.646 
" clip-path="url(#pbf374054f7)" style="fill: none; stroke: #000000; stroke-width: 2; stroke-linecap: round"/>
   </g>
   <g id="line2d_48">
    <path d="M 192.146 440.646 
L 162.266 440.646 
L 132.386 440.646 
" clip-path="url(#pbf374054f7)" style="fill: none; stroke: #000000; stroke-width: 2; stroke-linecap: round"/>
   </g>
   <g id="line2d_49">
    <path d="M 252.146 440.646 
L 270.146 440.646 
L 288.146 440.646 
" clip-path="url(#pbf374054f7)" style="fill: none; stroke: #000000; stroke-width: 2; stroke-linecap: round"/>
   </g>
   <g id="line2d_50">
    <path d="M 288.146 440.646 
L 288.146 426.246 
" clip-path="url(#pbf374054f7)" style="fill: none; stroke: #000000; stroke-width: 2; stroke-linecap: round"/>
   </g>
   <g id="line2d_51">
    <path d="M 288.146 426.246 
L 281.396 426.246 
" clip-path="url(#pbf374054f7)" style="fill: none; stroke: #000000; stroke-width: 2; stroke-linecap: round"/>
   </g>
   <g id="line2d_52">
    <path d="M 288.146 426.246 
L 294.896 426.246 
" clip-path="url(#pbf374054f7)" style="fill: none; stroke: #000000; stroke-width: 2; stroke-linecap: round"/>
   </g>
   <g id="line2d_53">
    <path d="M 222.146 278.046 
L 253.646 278.046 
L 285.146 278.046 
" clip-path="url(#pbf374054f7)" style="fill: none; stroke: #000000; stroke-width: 2; stroke-linecap: round"/>
   </g>
   <g id="line2d_54">
    <path d="M 285.146 278.046 
L 285.146 251.046 
L 285.146 224.046 
" clip-path="url(#pbf374054f7)" style="fill: none; stroke: #000000; stroke-width: 2; stroke-linecap: round"/>
   </g>
   <g id="line2d_55">
    <path d="M 285.146 224.046 
L 303.146 224.046 
L 321.146 224.046 
" clip-path="url(#pbf374054f7)" style="fill: none; stroke: #000000; stroke-width: 2; stroke-linecap: round"/>
   </g>
   <g id="line2d_56">
    <path d="M 354.146 254.046 
L 354.146 239.046 
L 339.146 239.046 
L 339.146 209.046 
L 354.146 209.046 
L 354.146 194.046 
" clip-path="url(#pbf374054f7)" style="fill: none; stroke: #000000; stroke-width: 2; stroke-linecap: round"/>
   </g>
   <g id="line2d_57">
    <path d="M 348.146 209.046 
L 354.146 209.046 
" clip-path="url(#pbf374054f7)" style="fill: none; stroke: #000000; stroke-width: 2; stroke-linecap: round"/>
   </g>
   <g id="patch_8">
    <path d="M 348.146 213.546 
L 339.146 209.046 
L 348.146 204.546 
z
" clip-path="url(#pbf374054f7)"/>
   </g>
   <g id="line2d_58">
    <path d="M 336.146 236.046 
L 336.146 212.046 
" clip-path="url(#pbf374054f7)" style="fill: none; stroke: #000000; stroke-width: 2; stroke-linecap: round"/>
   </g>
   <g id="line2d_59">
    <path d="M 321.146 224.046 
L 336.146 224.046 
" clip-path="url(#pbf374054f7)" style="fill: none; stroke: #000000; stroke-width: 2; stroke-linecap: round"/>
   </g>
   <g id="line2d_60">
    <path d="M 354.146 194.046 
L 354.146 179.646 
" clip-path="url(#pbf374054f7)" style="fill: none; stroke: #000000; stroke-width: 2; stroke-linecap: round"/>
   </g>
   <g id="line2d_61">
    <path d="M 354.146 179.646 
L 347.396 179.646 
" clip-path="url(#pbf374054f7)" style="fill: none; stroke: #000000; stroke-width: 2; stroke-linecap: round"/>
   </g>
   <g id="line2d_62">
    <path d="M 354.146 179.646 
L 360.896 179.646 
" clip-path="url(#pbf374054f7)" style="fill: none; stroke: #000000; stroke-width: 2; stroke-linecap: round"/>
   </g>
   <g id="line2d_63">
    <path d="M 285.146 278.046 
L 285.146 305.046 
L 285.146 332.046 
" clip-path="url(#pbf374054f7)" style="fill: none; stroke: #000000; stroke-width: 2; stroke-linecap: round"/>
   </g>
   <g id="line2d_64">
    <path d="M 285.146 332.046 
L 303.146 332.046 
L 321.146 332.046 
" clip-path="url(#pbf374054f7)" style="fill: none; stroke: #000000; stroke-width: 2; stroke-linecap: round"/>
   </g>
   <g id="line2d_65">
    <path d="M 354.146 362.046 
L 354.146 347.046 
L 339.146 347.046 
L 339.146 317.046 
L 354.146 317.046 
L 354.146 302.046 
" clip-path="url(#pbf374054f7)" style="fill: none; stroke: #000000; stroke-width: 2; stroke-linecap: round"/>
   </g>
   <g id="line2d_66">
    <path d="M 345.146 347.046 
L 339.146 347.046 
" clip-path="url(#pbf374054f7)" style="fill: none; stroke: #000000; stroke-width: 2; stroke-linecap: round"/>
   </g>
   <g id="patch_9">
    <path d="M 345.146 342.546 
L 354.146 347.046 
L 345.146 351.546 
z
" clip-path="url(#pbf374054f7)"/>
   </g>
   <g id="line2d_67">
    <path d="M 336.146 344.046 
L 336.146 320.046 
" clip-path="url(#pbf374054f7)" style="fill: none; stroke: #000000; stroke-width: 2; stroke-linecap: round"/>
   </g>
   <g id="line2d_68">
    <path d="M 321.146 332.046 
L 336.146 332.046 
" clip-path="url(#pbf374054f7)" style="fill: none; stroke: #000000; stroke-width: 2; stroke-linecap: round"/>
   </g>
   <g id="line2d_69">
    <path d="M 354.146 362.046 
L 354.146 376.446 
L 345.146 376.446 
L 354.146 385.446 
L 363.146 376.446 
L 354.146 376.446 
" clip-path="url(#pbf374054f7)" style="fill: none; stroke: #000000; stroke-width: 2; stroke-linecap: round"/>
   </g>
   <g id="line2d_70">
    <path d="M 354.146 302.046 
L 354.146 290.046 
L 354.146 278.046 
" clip-path="url(#pbf374054f7)" style="fill: none; stroke: #000000; stroke-width: 2; stroke-linecap: round"/>
   </g>
   <g id="line2d_71">
    <path d="M 354.146 278.046 
L 354.146 266.046 
L 354.146 254.046 
" clip-path="url(#pbf374054f7)" style="fill: none; stroke: #000000; stroke-width: 2; stroke-linecap: round"/>
   </g>
   <g id="line2d_72">
    <path d="M 354.146 278.046 
L 381.146 278.046 
L 408.146 278.046 
" clip-path="url(#pbf374054f7)" style="fill: none; stroke: #000000; stroke-width: 2; stroke-linecap: round"/>
   </g>
   <g id="patch_10">
    <path d="M 63.146 280.746 
C 63.862048 280.746 64.548866 280.461511 65.055188 279.955188 
C 65.561511 279.448866 65.846 278.762048 65.846 278.046 
C 65.846 277.329952 65.561511 276.643134 65.055188 276.136812 
C 64.548866 275.630489 63.862048 275.346 63.146 275.346 
C 62.429952 275.346 61.743134 275.630489 61.236812 276.136812 
C 60.730489 276.643134 60.446 277.329952 60.446 278.046 
C 60.446 278.762048 60.730489 279.448866 61.236812 279.955188 
C 61.743134 280.461511 62.429952 280.746 63.146 280.746 
z
" clip-path="url(#pbf374054f7)" style="stroke: #000000; stroke-width: 2; stroke-linejoin: miter"/>
   </g>
   <g id="patch_11">
    <path d="M 63.146 172.746 
C 63.862048 172.746 64.548866 172.461511 65.055188 171.955188 
C 65.561511 171.448866 65.846 170.762048 65.846 170.046 
C 65.846 169.329952 65.561511 168.643134 65.055188 168.136812 
C 64.548866 167.630489 63.862048 167.346 63.146 167.346 
C 62.429952 167.346 61.743134 167.630489 61.236812 168.136812 
C 60.730489 168.643134 60.446 169.329952 60.446 170.046 
C 60.446 170.762048 60.730489 171.448866 61.236812 171.955188 
C 61.743134 172.461511 62.429952 172.746 63.146 172.746 
z
" clip-path="url(#pbf374054f7)" style="stroke: #000000; stroke-width: 2; stroke-linejoin: miter"/>
   </g>
   <g id="patch_12">
    <path d="M 63.146 388.746 
C 63.862048 388.746 64.548866 388.461511 65.055188 387.955188 
C 65.561511 387.448866 65.846 386.762048 65.846 386.046 
C 65.846 385.329952 65.561511 384.643134 65.055188 384.136812 
C 64.548866 383.630489 63.862048 383.346 63.146 383.346 
C 62.429952 383.346 61.743134 383.630489 61.236812 384.136812 
C 60.730489 384.643134 60.446 385.329952 60.446 386.046 
C 60.446 386.762048 60.730489 387.448866 61.236812 387.955188 
C 61.743134 388.461511 62.429952 388.746 63.146 388.746 
z
" clip-path="url(#pbf374054f7)" style="stroke: #000000; stroke-width: 2; stroke-linejoin: miter"/>
   </g>
   <g id="text_1">
    <!-- $M_1 \\$1.0/0.5 -->
    <g transform="translate(138.416347 490.29341) scale(0.14 -0.14)">
     <defs>
      <path id="CMMI12-4d" d="M 5811 3886 
C 5869 4103 5882 4167 6336 4167 
C 6458 4167 6515 4167 6515 4288 
C 6515 4352 6470 4352 6349 4352 
L 5581 4352 
C 5421 4352 5414 4346 5344 4243 
L 3008 562 
L 2528 4211 
C 2509 4352 2502 4352 2336 4352 
L 1542 4352 
C 1421 4352 1363 4352 1363 4231 
C 1363 4167 1421 4167 1517 4167 
C 1907 4167 1907 4116 1907 4046 
C 1907 4034 1907 3995 1882 3899 
L 1062 634 
C 986 327 838 186 410 186 
C 390 186 314 186 314 73 
C 314 0 371 0 397 0 
C 525 0 851 0 979 0 
L 1286 0 
C 1376 0 1485 0 1574 0 
C 1619 0 1690 0 1690 122 
C 1690 180 1626 186 1600 186 
C 1389 186 1184 224 1184 454 
C 1184 518 1184 524 1210 613 
L 2093 4129 
L 2099 4129 
L 2630 172 
C 2650 19 2656 0 2714 0 
C 2784 0 2816 51 2848 109 
L 5421 4161 
L 5427 4161 
L 4499 473 
C 4442 250 4429 186 3981 186 
C 3859 186 3795 186 3795 70 
C 3795 0 3853 0 3891 0 
C 4000 0 4128 0 4237 0 
L 4992 0 
C 5101 0 5235 0 5344 0 
C 5395 0 5466 0 5466 122 
C 5466 186 5408 186 5312 186 
C 4922 186 4922 234 4922 294 
C 4922 301 4922 345 4934 396 
L 5811 3886 
z
" transform="scale(0.015625)"/>
      <path id="CMR17-31" d="M 1702 4058 
C 1702 4192 1696 4192 1606 4192 
C 1357 3916 979 3827 621 3827 
C 602 3827 570 3827 563 3808 
C 557 3795 557 3782 557 3648 
C 755 3648 1088 3686 1344 3839 
L 1344 461 
C 1344 236 1331 160 781 160 
L 589 160 
L 589 0 
C 896 0 1216 0 1523 0 
C 1830 0 2150 0 2458 0 
L 2458 160 
L 2266 160 
C 1715 160 1702 230 1702 458 
L 1702 4058 
z
" transform="scale(0.015625)"/>
      <path id="CMR17-2e" d="M 1062 261 
C 1062 420 934 522 800 522 
C 672 522 538 420 538 261 
C 538 102 666 0 800 0 
C 928 0 1062 102 1062 261 
z
" transform="scale(0.015625)"/>
      <path id="CMR17-30" d="M 2688 2025 
C 2688 2416 2682 3080 2413 3591 
C 2176 4039 1798 4198 1466 4198 
C 1158 4198 768 4058 525 3597 
C 269 3118 243 2524 243 2025 
C 243 1661 250 1106 448 619 
C 723 -39 1216 -128 1466 -128 
C 1760 -128 2208 -7 2470 600 
C 2662 1042 2688 1559 2688 2025 
z
M 1466 -26 
C 1056 -26 813 325 723 812 
C 653 1188 653 1738 653 2096 
C 653 2588 653 2997 736 3387 
C 858 3929 1216 4096 1466 4096 
C 1728 4096 2067 3923 2189 3400 
C 2272 3036 2278 2607 2278 2096 
C 2278 1680 2278 1169 2202 792 
C 2067 95 1690 -26 1466 -26 
z
" transform="scale(0.015625)"/>
      <path id="CMR17-2f" d="M 2605 4545 
C 2637 4627 2637 4640 2637 4653 
C 2637 4729 2579 4768 2528 4768 
C 2451 4768 2426 4717 2400 4640 
L 326 -1377 
C 294 -1460 294 -1473 294 -1486 
C 294 -1562 352 -1600 403 -1600 
C 480 -1600 506 -1549 531 -1473 
L 2605 4545 
z
" transform="scale(0.015625)"/>
      <path id="CMR17-35" d="M 730 3692 
C 794 3666 1056 3584 1325 3584 
C 1920 3584 2246 3911 2432 4100 
C 2432 4157 2432 4192 2394 4192 
C 2387 4192 2374 4192 2323 4163 
C 2099 4058 1837 3973 1517 3973 
C 1325 3973 1037 3999 723 4139 
C 653 4171 640 4171 634 4171 
C 602 4171 595 4164 595 4037 
L 595 2203 
C 595 2089 595 2057 659 2057 
C 691 2057 704 2070 736 2114 
C 941 2401 1222 2522 1542 2522 
C 1766 2522 2246 2382 2246 1289 
C 2246 1085 2246 715 2054 421 
C 1894 159 1645 25 1370 25 
C 947 25 518 320 403 814 
C 429 807 480 795 506 795 
C 589 795 749 840 749 1038 
C 749 1210 627 1280 506 1280 
C 358 1280 262 1190 262 1011 
C 262 454 704 -128 1382 -128 
C 2042 -128 2669 440 2669 1264 
C 2669 2030 2170 2624 1549 2624 
C 1222 2624 947 2503 730 2274 
L 730 3692 
z
" transform="scale(0.015625)"/>
     </defs>
     <use xlink:href="#CMMI12-4d" transform="translate(14.94396 0) scale(0.996264)"/>
     <use xlink:href="#CMR17-31" transform="translate(109.317385 -14.943915) scale(0.697382)"/>
     <use xlink:href="#CMR17-31" transform="translate(0 -90.570289) scale(0.996264)"/>
     <use xlink:href="#CMR17-2e" transform="translate(45.690477 -90.570289) scale(0.996264)"/>
     <use xlink:href="#CMR17-30" transform="translate(70.561536 -90.570289) scale(0.996264)"/>
     <use xlink:href="#CMR17-2f" transform="translate(116.252013 -90.570289) scale(0.996264)"/>
     <use xlink:href="#CMR17-30" transform="translate(161.94249 -90.570289) scale(0.996264)"/>
     <use xlink:href="#CMR17-2e" transform="translate(207.632967 -90.570289) scale(0.996264)"/>
     <use xlink:href="#CMR17-35" transform="translate(232.504025 -90.570289) scale(0.996264)"/>
    </g>
   </g>
   <g id="text_2">
    <!-- $M_2 \\$1.0/0.5 -->
    <g transform="translate(138.416347 382.29341) scale(0.14 -0.14)">
     <defs>
      <path id="CMR17-32" d="M 2669 989 
L 2554 989 
C 2490 536 2438 459 2413 420 
C 2381 369 1920 369 1830 369 
L 602 369 
C 832 619 1280 1072 1824 1597 
C 2214 1967 2669 2402 2669 3035 
C 2669 3790 2067 4224 1395 4224 
C 691 4224 262 3604 262 3030 
C 262 2780 448 2748 525 2748 
C 589 2748 781 2787 781 3010 
C 781 3207 614 3264 525 3264 
C 486 3264 448 3258 422 3245 
C 544 3790 915 4058 1306 4058 
C 1862 4058 2227 3617 2227 3035 
C 2227 2479 1901 2000 1536 1584 
L 262 146 
L 262 0 
L 2515 0 
L 2669 989 
z
" transform="scale(0.015625)"/>
     </defs>
     <use xlink:href="#CMMI12-4d" transform="translate(14.94396 0) scale(0.996264)"/>
     <use xlink:href="#CMR17-32" transform="translate(109.317385 -14.943915) scale(0.697382)"/>
     <use xlink:href="#CMR17-31" transform="translate(0 -90.570289) scale(0.996264)"/>
     <use xlink:href="#CMR17-2e" transform="translate(45.690477 -90.570289) scale(0.996264)"/>
     <use xlink:href="#CMR17-30" transform="translate(70.561536 -90.570289) scale(0.996264)"/>
     <use xlink:href="#CMR17-2f" transform="translate(116.252013 -90.570289) scale(0.996264)"/>
     <use xlink:href="#CMR17-30" transform="translate(161.94249 -90.570289) scale(0.996264)"/>
     <use xlink:href="#CMR17-2e" transform="translate(207.632967 -90.570289) scale(0.996264)"/>
     <use xlink:href="#CMR17-35" transform="translate(232.504025 -90.570289) scale(0.996264)"/>
    </g>
   </g>
   <g id="text_3">
    <!-- $M_4 \\$3.0/0.5 -->
    <g transform="translate(138.416347 166.29341) scale(0.14 -0.14)">
     <defs>
      <path id="CMR17-34" d="M 2150 4122 
C 2150 4256 2144 4256 2029 4256 
L 128 1254 
L 128 1088 
L 1779 1088 
L 1779 457 
C 1779 224 1766 160 1318 160 
L 1197 160 
L 1197 0 
C 1402 0 1747 0 1965 0 
C 2182 0 2528 0 2733 0 
L 2733 160 
L 2611 160 
C 2163 160 2150 224 2150 457 
L 2150 1088 
L 2803 1088 
L 2803 1254 
L 2150 1254 
L 2150 4122 
z
M 1798 3703 
L 1798 1254 
L 256 1254 
L 1798 3703 
z
" transform="scale(0.015625)"/>
      <path id="CMR17-33" d="M 1414 2157 
C 1984 2157 2234 1662 2234 1090 
C 2234 320 1824 25 1453 25 
C 1114 25 563 194 390 693 
C 422 680 454 680 486 680 
C 640 680 755 782 755 948 
C 755 1133 614 1216 486 1216 
C 378 1216 211 1165 211 926 
C 211 335 787 -128 1466 -128 
C 2176 -128 2720 430 2720 1085 
C 2720 1707 2208 2157 1600 2227 
C 2086 2328 2554 2756 2554 3329 
C 2554 3820 2048 4179 1472 4179 
C 890 4179 378 3829 378 3329 
C 378 3110 544 3072 627 3072 
C 762 3072 877 3155 877 3321 
C 877 3486 762 3569 627 3569 
C 602 3569 570 3569 544 3557 
C 730 3959 1235 4032 1459 4032 
C 1683 4032 2106 3925 2106 3320 
C 2106 3143 2080 2828 1862 2550 
C 1670 2304 1453 2304 1242 2284 
C 1210 2284 1062 2269 1037 2269 
C 992 2263 966 2257 966 2208 
C 966 2163 973 2157 1101 2157 
L 1414 2157 
z
" transform="scale(0.015625)"/>
     </defs>
     <use xlink:href="#CMMI12-4d" transform="translate(14.94396 0) scale(0.996264)"/>
     <use xlink:href="#CMR17-34" transform="translate(109.317385 -14.943915) scale(0.697382)"/>
     <use xlink:href="#CMR17-33" transform="translate(0 -90.570289) scale(0.996264)"/>
     <use xlink:href="#CMR17-2e" transform="translate(45.690477 -90.570289) scale(0.996264)"/>
     <use xlink:href="#CMR17-30" transform="translate(70.561536 -90.570289) scale(0.996264)"/>
     <use xlink:href="#CMR17-2f" transform="translate(116.252013 -90.570289) scale(0.996264)"/>
     <use xlink:href="#CMR17-30" transform="translate(161.94249 -90.570289) scale(0.996264)"/>
     <use xlink:href="#CMR17-2e" transform="translate(207.632967 -90.570289) scale(0.996264)"/>
     <use xlink:href="#CMR17-35" transform="translate(232.504025 -90.570289) scale(0.996264)"/>
    </g>
   </g>
   <g id="text_4">
    <!-- $M_5 \\$3.0/0.5 -->
    <g transform="translate(138.416347 58.29341) scale(0.14 -0.14)">
     <use xlink:href="#CMMI12-4d" transform="translate(14.94396 0) scale(0.996264)"/>
     <use xlink:href="#CMR17-35" transform="translate(109.317385 -14.943915) scale(0.697382)"/>
     <use xlink:href="#CMR17-33" transform="translate(0 -90.570289) scale(0.996264)"/>
     <use xlink:href="#CMR17-2e" transform="translate(45.690477 -90.570289) scale(0.996264)"/>
     <use xlink:href="#CMR17-30" transform="translate(70.561536 -90.570289) scale(0.996264)"/>
     <use xlink:href="#CMR17-2f" transform="translate(116.252013 -90.570289) scale(0.996264)"/>
     <use xlink:href="#CMR17-30" transform="translate(161.94249 -90.570289) scale(0.996264)"/>
     <use xlink:href="#CMR17-2e" transform="translate(207.632967 -90.570289) scale(0.996264)"/>
     <use xlink:href="#CMR17-35" transform="translate(232.504025 -90.570289) scale(0.996264)"/>
    </g>
   </g>
   <g id="patch_13">
    <path d="M 132.146 280.746 
C 132.862048 280.746 133.548866 280.461511 134.055188 279.955188 
C 134.561511 279.448866 134.846 278.762048 134.846 278.046 
C 134.846 277.329952 134.561511 276.643134 134.055188 276.136812 
C 133.548866 275.630489 132.862048 275.346 132.146 275.346 
C 131.429952 275.346 130.743134 275.630489 130.236812 276.136812 
C 129.730489 276.643134 129.446 277.329952 129.446 278.046 
C 129.446 278.762048 129.730489 279.448866 130.236812 279.955188 
C 130.743134 280.461511 131.429952 280.746 132.146 280.746 
z
" clip-path="url(#pbf374054f7)" style="stroke: #000000; stroke-width: 2; stroke-linejoin: miter"/>
   </g>
   <g id="text_5">
    <!-- 3.3V -->
    <g transform="translate(118.30176 11.333972) scale(0.14 -0.14)">
     <defs>
      <path id="CMR17-56" d="M 3776 3745 
C 3834 3886 3936 4160 4365 4160 
L 4365 4332 
C 4218 4319 4051 4319 3891 4319 
C 3738 4319 3475 4319 3328 4332 
L 3328 4160 
C 3648 4160 3661 3936 3661 3898 
C 3661 3827 3642 3783 3622 3732 
L 2362 446 
L 1043 3886 
C 1024 3931 1011 3963 1011 3994 
C 1011 4160 1267 4160 1402 4160 
L 1402 4319 
C 1197 4319 896 4319 685 4319 
C 518 4319 218 4319 64 4332 
L 64 4160 
C 435 4160 506 4135 582 3931 
L 2106 -26 
C 2138 -115 2144 -128 2214 -128 
C 2285 -128 2291 -115 2323 -26 
L 3776 3745 
z
" transform="scale(0.015625)"/>
     </defs>
     <use xlink:href="#CMR17-33" transform="scale(0.996264)"/>
     <use xlink:href="#CMR17-2e" transform="translate(45.690477 0) scale(0.996264)"/>
     <use xlink:href="#CMR17-33" transform="translate(70.561536 0) scale(0.996264)"/>
     <use xlink:href="#CMR17-56" transform="translate(116.252013 0) scale(0.996264)"/>
    </g>
   </g>
   <g id="patch_14">
    <path d="M 222.146 280.746 
C 222.862048 280.746 223.548866 280.461511 224.055188 279.955188 
C 224.561511 279.448866 224.846 278.762048 224.846 278.046 
C 224.846 277.329952 224.561511 276.643134 224.055188 276.136812 
C 223.548866 275.630489 222.862048 275.346 222.146 275.346 
C 221.429952 275.346 220.743134 275.630489 220.236812 276.136812 
C 219.730489 276.643134 219.446 277.329952 219.446 278.046 
C 219.446 278.762048 219.730489 279.448866 220.236812 279.955188 
C 220.743134 280.461511 221.429952 280.746 222.146 280.746 
z
" clip-path="url(#pbf374054f7)" style="stroke: #000000; stroke-width: 2; stroke-linejoin: miter"/>
   </g>
   <g id="text_6">
    <!-- $M_6 \\$12.0/0.5 -->
    <g transform="translate(197.866929 94.976925) scale(0.14 -0.14)">
     <defs>
      <path id="CMR17-36" d="M 678 2176 
C 678 3690 1395 4032 1811 4032 
C 1946 4032 2272 4009 2400 3776 
C 2298 3776 2106 3776 2106 3553 
C 2106 3381 2246 3323 2336 3323 
C 2394 3323 2566 3348 2566 3560 
C 2566 3954 2246 4179 1805 4179 
C 1043 4179 243 3390 243 1984 
C 243 253 966 -128 1478 -128 
C 2099 -128 2688 427 2688 1283 
C 2688 2081 2170 2662 1517 2662 
C 1126 2662 838 2407 678 1960 
L 678 2176 
z
M 1478 25 
C 691 25 691 1200 691 1436 
C 691 1896 909 2560 1504 2560 
C 1613 2560 1926 2560 2138 2120 
C 2253 1870 2253 1609 2253 1289 
C 2253 944 2253 690 2118 434 
C 1978 171 1773 25 1478 25 
z
" transform="scale(0.015625)"/>
     </defs>
     <use xlink:href="#CMMI12-4d" transform="translate(14.94396 0) scale(0.996264)"/>
     <use xlink:href="#CMR17-36" transform="translate(109.317385 -14.943915) scale(0.697382)"/>
     <use xlink:href="#CMR17-31" transform="translate(0 -90.570289) scale(0.996264)"/>
     <use xlink:href="#CMR17-32" transform="translate(45.690477 -90.570289) scale(0.996264)"/>
     <use xlink:href="#CMR17-2e" transform="translate(91.380954 -90.570289) scale(0.996264)"/>
     <use xlink:href="#CMR17-30" transform="translate(116.252013 -90.570289) scale(0.996264)"/>
     <use xlink:href="#CMR17-2f" transform="translate(161.94249 -90.570289) scale(0.996264)"/>
     <use xlink:href="#CMR17-30" transform="translate(207.632967 -90.570289) scale(0.996264)"/>
     <use xlink:href="#CMR17-2e" transform="translate(253.323444 -90.570289) scale(0.996264)"/>
     <use xlink:href="#CMR17-35" transform="translate(278.194503 -90.570289) scale(0.996264)"/>
    </g>
   </g>
   <g id="patch_15">
    <path d="M 132.386 118.146 
C 133.102048 118.146 133.788866 117.861511 134.295188 117.355188 
C 134.801511 116.848866 135.086 116.162048 135.086 115.446 
C 135.086 114.729952 134.801511 114.043134 134.295188 113.536812 
C 133.788866 113.030489 133.102048 112.746 132.386 112.746 
C 131.669952 112.746 130.983134 113.030489 130.476812 113.536812 
C 129.970489 114.043134 129.686 114.729952 129.686 115.446 
C 129.686 116.162048 129.970489 116.848866 130.476812 117.355188 
C 130.983134 117.861511 131.669952 118.146 132.386 118.146 
z
" clip-path="url(#pbf374054f7)" style="stroke: #000000; stroke-width: 2; stroke-linejoin: miter"/>
   </g>
   <g id="text_7">
    <!-- $M_3 \\$4.0/0.5 -->
    <g transform="translate(201.281174 459.176925) scale(0.14 -0.14)">
     <use xlink:href="#CMMI12-4d" transform="translate(14.94396 0) scale(0.996264)"/>
     <use xlink:href="#CMR17-33" transform="translate(109.317385 -14.943915) scale(0.697382)"/>
     <use xlink:href="#CMR17-34" transform="translate(0 -90.570289) scale(0.996264)"/>
     <use xlink:href="#CMR17-2e" transform="translate(45.690477 -90.570289) scale(0.996264)"/>
     <use xlink:href="#CMR17-30" transform="translate(70.561536 -90.570289) scale(0.996264)"/>
     <use xlink:href="#CMR17-2f" transform="translate(116.252013 -90.570289) scale(0.996264)"/>
     <use xlink:href="#CMR17-30" transform="translate(161.94249 -90.570289) scale(0.996264)"/>
     <use xlink:href="#CMR17-2e" transform="translate(207.632967 -90.570289) scale(0.996264)"/>
     <use xlink:href="#CMR17-35" transform="translate(232.504025 -90.570289) scale(0.996264)"/>
    </g>
   </g>
   <g id="patch_16">
    <path d="M 132.386 443.346 
C 133.102048 443.346 133.788866 443.061511 134.295188 442.555188 
C 134.801511 442.048866 135.086 441.362048 135.086 440.646 
C 135.086 439.929952 134.801511 439.243134 134.295188 438.736812 
C 133.788866 438.230489 133.102048 437.946 132.386 437.946 
C 131.669952 437.946 130.983134 438.230489 130.476812 438.736812 
C 129.970489 439.243134 129.686 439.929952 129.686 440.646 
C 129.686 441.362048 129.970489 442.048866 130.476812 442.555188 
C 130.983134 443.061511 131.669952 443.346 132.386 443.346 
z
" clip-path="url(#pbf374054f7)" style="stroke: #000000; stroke-width: 2; stroke-linejoin: miter"/>
   </g>
   <g id="text_8">
    <!-- 3.3V -->
    <g transform="translate(274.30176 419.933972) scale(0.14 -0.14)">
     <use xlink:href="#CMR17-33" transform="scale(0.996264)"/>
     <use xlink:href="#CMR17-2e" transform="translate(45.690477 0) scale(0.996264)"/>
     <use xlink:href="#CMR17-33" transform="translate(70.561536 0) scale(0.996264)"/>
     <use xlink:href="#CMR17-56" transform="translate(116.252013 0) scale(0.996264)"/>
    </g>
   </g>
   <g id="patch_17">
    <path d="M 285.146 280.746 
C 285.862048 280.746 286.548866 280.461511 287.055188 279.955188 
C 287.561511 279.448866 287.846 278.762048 287.846 278.046 
C 287.846 277.329952 287.561511 276.643134 287.055188 276.136812 
C 286.548866 275.630489 285.862048 275.346 285.146 275.346 
C 284.429952 275.346 283.743134 275.630489 283.236812 276.136812 
C 282.730489 276.643134 282.446 277.329952 282.446 278.046 
C 282.446 278.762048 282.730489 279.448866 283.236812 279.955188 
C 283.743134 280.461511 284.429952 280.746 285.146 280.746 
z
" clip-path="url(#pbf374054f7)" style="stroke: #000000; stroke-width: 2; stroke-linejoin: miter"/>
   </g>
   <g id="text_9">
    <!-- $M_8 \\$3.0/0.5 -->
    <g transform="translate(360.416347 220.29341) scale(0.14 -0.14)">
     <defs>
      <path id="CMR17-38" d="M 1741 2264 
C 2144 2467 2554 2773 2554 3263 
C 2554 3841 1990 4179 1472 4179 
C 890 4179 378 3759 378 3180 
C 378 3021 416 2747 666 2505 
C 730 2442 998 2251 1171 2130 
C 883 1983 211 1634 211 934 
C 211 279 838 -128 1459 -128 
C 2144 -128 2720 362 2720 1010 
C 2720 1590 2330 1857 2074 2029 
L 1741 2264 
z
M 902 2822 
C 851 2854 595 3051 595 3351 
C 595 3739 998 4032 1459 4032 
C 1965 4032 2336 3676 2336 3262 
C 2336 2669 1670 2331 1638 2331 
C 1632 2331 1626 2331 1574 2370 
L 902 2822 
z
M 2080 1519 
C 2176 1449 2483 1240 2483 851 
C 2483 381 2010 25 1472 25 
C 890 25 448 438 448 940 
C 448 1443 838 1862 1280 2060 
L 2080 1519 
z
" transform="scale(0.015625)"/>
     </defs>
     <use xlink:href="#CMMI12-4d" transform="translate(14.94396 0) scale(0.996264)"/>
     <use xlink:href="#CMR17-38" transform="translate(109.317385 -14.943915) scale(0.697382)"/>
     <use xlink:href="#CMR17-33" transform="translate(0 -90.570289) scale(0.996264)"/>
     <use xlink:href="#CMR17-2e" transform="translate(45.690477 -90.570289) scale(0.996264)"/>
     <use xlink:href="#CMR17-30" transform="translate(70.561536 -90.570289) scale(0.996264)"/>
     <use xlink:href="#CMR17-2f" transform="translate(116.252013 -90.570289) scale(0.996264)"/>
     <use xlink:href="#CMR17-30" transform="translate(161.94249 -90.570289) scale(0.996264)"/>
     <use xlink:href="#CMR17-2e" transform="translate(207.632967 -90.570289) scale(0.996264)"/>
     <use xlink:href="#CMR17-35" transform="translate(232.504025 -90.570289) scale(0.996264)"/>
    </g>
   </g>
   <g id="text_10">
    <!-- 3.3V -->
    <g transform="translate(340.30176 173.333972) scale(0.14 -0.14)">
     <use xlink:href="#CMR17-33" transform="scale(0.996264)"/>
     <use xlink:href="#CMR17-2e" transform="translate(45.690477 0) scale(0.996264)"/>
     <use xlink:href="#CMR17-33" transform="translate(70.561536 0) scale(0.996264)"/>
     <use xlink:href="#CMR17-56" transform="translate(116.252013 0) scale(0.996264)"/>
    </g>
   </g>
   <g id="text_11">
    <!-- $M_7 \\$1.0/0.5 -->
    <g transform="translate(360.416347 328.29341) scale(0.14 -0.14)">
     <defs>
      <path id="CMR17-37" d="M 2886 3941 
L 2886 4081 
L 1382 4081 
C 634 4081 621 4165 595 4288 
L 480 4288 
L 294 3094 
L 410 3094 
C 429 3215 474 3540 550 3661 
C 589 3712 1062 3712 1171 3712 
L 2579 3712 
L 1869 2661 
C 1395 1954 1069 999 1069 165 
C 1069 89 1069 -128 1299 -128 
C 1530 -128 1530 89 1530 171 
L 1530 465 
C 1530 1508 1709 2196 2003 2636 
L 2886 3941 
z
" transform="scale(0.015625)"/>
     </defs>
     <use xlink:href="#CMMI12-4d" transform="translate(14.94396 0) scale(0.996264)"/>
     <use xlink:href="#CMR17-37" transform="translate(109.317385 -14.943915) scale(0.697382)"/>
     <use xlink:href="#CMR17-31" transform="translate(0 -90.570289) scale(0.996264)"/>
     <use xlink:href="#CMR17-2e" transform="translate(45.690477 -90.570289) scale(0.996264)"/>
     <use xlink:href="#CMR17-30" transform="translate(70.561536 -90.570289) scale(0.996264)"/>
     <use xlink:href="#CMR17-2f" transform="translate(116.252013 -90.570289) scale(0.996264)"/>
     <use xlink:href="#CMR17-30" transform="translate(161.94249 -90.570289) scale(0.996264)"/>
     <use xlink:href="#CMR17-2e" transform="translate(207.632967 -90.570289) scale(0.996264)"/>
     <use xlink:href="#CMR17-35" transform="translate(232.504025 -90.570289) scale(0.996264)"/>
    </g>
   </g>
   <g id="patch_18">
    <path d="M 354.146 280.746 
C 354.862048 280.746 355.548866 280.461511 356.055188 279.955188 
C 356.561511 279.448866 356.846 278.762048 356.846 278.046 
C 356.846 277.329952 356.561511 276.643134 356.055188 276.136812 
C 355.548866 275.630489 354.862048 275.346 354.146 275.346 
C 353.429952 275.346 352.743134 275.630489 352.236812 276.136812 
C 351.730489 276.643134 351.446 277.329952 351.446 278.046 
C 351.446 278.762048 351.730489 279.448866 352.236812 279.955188 
C 352.743134 280.461511 353.429952 280.746 354.146 280.746 
z
" clip-path="url(#pbf374054f7)" style="stroke: #000000; stroke-width: 2; stroke-linejoin: miter"/>
   </g>
   <g id="patch_19">
    <path d="M 9.146 280.746 
C 9.862048 280.746 10.548866 280.461511 11.055188 279.955188 
C 11.561511 279.448866 11.846 278.762048 11.846 278.046 
C 11.846 277.329952 11.561511 276.643134 11.055188 276.136812 
C 10.548866 275.630489 9.862048 275.346 9.146 275.346 
C 8.429952 275.346 7.743134 275.630489 7.236812 276.136812 
C 6.730489 276.643134 6.446 277.329952 6.446 278.046 
C 6.446 278.762048 6.730489 279.448866 7.236812 279.955188 
C 7.743134 280.461511 8.429952 280.746 9.146 280.746 
z
" clip-path="url(#pbf374054f7)" style="fill: #ffffff; stroke: #000000; stroke-width: 2; stroke-linejoin: miter"/>
   </g>
   <g id="text_12">
    <!-- $A$ -->
    <g transform="translate(4.027051 269.033972) scale(0.14 -0.14)">
     <defs>
      <path id="CMMI12-41" d="M 1088 691 
C 864 314 646 186 339 186 
C 269 180 218 180 218 58 
C 218 24 250 0 294 0 
C 410 0 698 0 813 0 
C 998 0 1203 0 1382 0 
C 1421 0 1498 0 1498 122 
C 1498 180 1446 186 1408 186 
C 1261 186 1139 236 1139 388 
C 1139 476 1178 546 1261 685 
L 1747 1479 
L 3379 1479 
C 3386 1423 3386 1373 3392 1316 
C 3411 1152 3488 495 3488 376 
C 3488 186 3162 186 3059 186 
C 2989 186 2918 186 2918 70 
C 2918 0 2976 0 3014 0 
C 3123 0 3251 0 3360 0 
L 3725 0 
C 4115 0 4397 0 4403 0 
C 4448 0 4518 0 4518 122 
C 4518 186 4461 186 4365 186 
C 4013 186 4006 244 3987 434 
L 3597 4404 
C 3584 4531 3558 4544 3488 4544 
C 3424 4544 3386 4531 3328 4435 
L 1088 691 
z
M 1856 1664 
L 3142 3819 
L 3360 1664 
L 1856 1664 
z
" transform="scale(0.015625)"/>
     </defs>
     <use xlink:href="#CMMI12-41" transform="scale(0.996264)"/>
    </g>
   </g>
   <g id="patch_20">
    <path d="M 408.146 280.746 
C 408.862048 280.746 409.548866 280.461511 410.055188 279.955188 
C 410.561511 279.448866 410.846 278.762048 410.846 278.046 
C 410.846 277.329952 410.561511 276.643134 410.055188 276.136812 
C 409.548866 275.630489 408.862048 275.346 408.146 275.346 
C 407.429952 275.346 406.743134 275.630489 406.236812 276.136812 
C 405.730489 276.643134 405.446 277.329952 405.446 278.046 
C 405.446 278.762048 405.730489 279.448866 406.236812 279.955188 
C 406.743134 280.461511 407.429952 280.746 408.146 280.746 
z
" clip-path="url(#pbf374054f7)" style="fill: #ffffff; stroke: #000000; stroke-width: 2; stroke-linejoin: miter"/>
   </g>
   <g id="text_13">
    <!-- $B$ -->
    <g transform="translate(402.958445 269.033972) scale(0.14 -0.14)">
     <defs>
      <path id="CMMI12-42" d="M 2342 3921 
C 2400 4160 2426 4160 2675 4160 
L 3507 4160 
C 4230 4160 4230 3544 4230 3485 
C 4230 2966 3712 2304 2867 2304 
L 1946 2304 
L 2342 3921 
z
M 3424 2275 
C 4122 2402 4755 2886 4755 3473 
C 4755 3970 4314 4352 3590 4352 
L 1536 4352 
C 1414 4352 1357 4352 1357 4226 
C 1357 4160 1414 4160 1510 4160 
C 1901 4160 1901 4112 1901 4044 
C 1901 4032 1901 3993 1875 3897 
L 1011 472 
C 954 249 941 185 493 185 
C 371 185 307 185 307 70 
C 307 0 346 0 474 0 
L 2669 0 
C 3648 0 4403 739 4403 1383 
C 4403 1906 3942 2224 3424 2275 
z
M 2515 185 
L 1651 185 
C 1562 185 1549 185 1510 192 
C 1440 198 1434 211 1434 261 
C 1434 305 1446 343 1459 399 
L 1907 2176 
L 3110 2176 
C 3866 2176 3866 1483 3866 1433 
C 3866 828 3309 185 2515 185 
z
" transform="scale(0.015625)"/>
     </defs>
     <use xlink:href="#CMMI12-42" transform="scale(0.996264)"/>
    </g>
   </g>
  </g>
 </g>
 <defs>
  <clipPath id="pbf374054f7">
   <rect x="0" y="0" width="416.767" height="552.126"/>
  </clipPath>
 </defs>
</svg>
