<?xml version="1.0" encoding="utf-8" standalone="no"?>
<!DOCTYPE svg PUBLIC "-//W3C//DTD SVG 1.1//EN"
  "http://www.w3.org/Graphics/SVG/1.1/DTD/svg11.dtd">
<svg xmlns:xlink="http://www.w3.org/1999/xlink" width="808.1064pt" height="311.2992pt" viewBox="0 0 808.1064 311.2992" xmlns="http://www.w3.org/2000/svg" version="1.1">
 <metadata>
  <rdf:RDF xmlns:dc="http://purl.org/dc/elements/1.1/" xmlns:cc="http://creativecommons.org/ns#" xmlns:rdf="http://www.w3.org/1999/02/22-rdf-syntax-ns#">
   <cc:Work>
    <dc:type rdf:resource="http://purl.org/dc/dcmitype/StillImage"/>
    <dc:date>2025-05-29T22:15:48.721160</dc:date>
    <dc:format>image/svg+xml</dc:format>
    <dc:creator>
     <cc:Agent>
      <dc:title>Matplotlib v3.9.2, https://matplotlib.org/</dc:title>
     </cc:Agent>
    </dc:creator>
   </cc:Work>
  </rdf:RDF>
 </metadata>
 <defs>
  <style type="text/css">*{stroke-linejoin: round; stroke-linecap: butt}</style>
 </defs>
 <g id="figure_1">
  <g id="patch_1">
   <path d="M 0 311.2992 
L 808.1064 311.2992 
L 808.1064 0 
L 0 0 
L 0 311.2992 
z
" style="fill: none"/>
  </g>
  <g id="axes_1">
   <g id="patch_2">
    <path d="M 35.5856 83.616 
C 40.359256 83.616 44.938038 81.719406 48.313522 78.343922 
C 51.689006 74.968438 53.5856 70.389656 53.5856 65.616 
C 53.5856 60.842344 51.689006 56.263562 48.313522 52.888078 
C 44.938038 49.512594 40.359256 47.616 35.5856 47.616 
C 30.811944 47.616 26.233162 49.512594 22.857678 52.888078 
C 19.482194 56.263562 17.5856 60.842344 17.5856 65.616 
C 17.5856 70.389656 19.482194 74.968438 22.857678 78.343922 
C 26.233162 81.719406 30.811944 83.616 35.5856 83.616 
L 35.5856 83.616 
z
" clip-path="url(#p7345b277bc)" style="fill: none; stroke: #000000; stroke-width: 2; stroke-linejoin: miter"/>
   </g>
   <g id="patch_3">
    <path d="M 125.5856 83.616 
C 130.359256 83.616 134.938038 81.719406 138.313522 78.343922 
C 141.689006 74.968438 143.5856 70.389656 143.5856 65.616 
C 143.5856 60.842344 141.689006 56.263562 138.313522 52.888078 
C 134.938038 49.512594 130.359256 47.616 125.5856 47.616 
C 120.811944 47.616 116.233162 49.512594 112.857678 52.888078 
C 109.482194 56.263562 107.5856 60.842344 107.5856 65.616 
C 107.5856 70.389656 109.482194 74.968438 112.857678 78.343922 
C 116.233162 81.719406 120.811944 83.616 125.5856 83.616 
L 125.5856 83.616 
z
" clip-path="url(#p7345b277bc)" style="fill: none; stroke: #000000; stroke-width: 2; stroke-linejoin: miter"/>
   </g>
   <g id="patch_4">
    <path d="M 215.5856 83.616 
C 220.359256 83.616 224.938038 81.719406 228.313522 78.343922 
C 231.689006 74.968438 233.5856 70.389656 233.5856 65.616 
C 233.5856 60.842344 231.689006 56.263562 228.313522 52.888078 
C 224.938038 49.512594 220.359256 47.616 215.5856 47.616 
C 210.811944 47.616 206.233162 49.512594 202.857678 52.888078 
C 199.482194 56.263562 197.5856 60.842344 197.5856 65.616 
C 197.5856 70.389656 199.482194 74.968438 202.857678 78.343922 
C 206.233162 81.719406 210.811944 83.616 215.5856 83.616 
L 215.5856 83.616 
z
" clip-path="url(#p7345b277bc)" style="fill: none; stroke: #000000; stroke-width: 2; stroke-linejoin: miter"/>
   </g>
   <g id="patch_5">
    <path d="M 305.5856 83.616 
C 310.359256 83.616 314.938038 81.719406 318.313522 78.343922 
C 321.689006 74.968438 323.5856 70.389656 323.5856 65.616 
C 323.5856 60.842344 321.689006 56.263562 318.313522 52.888078 
C 314.938038 49.512594 310.359256 47.616 305.5856 47.616 
C 300.811944 47.616 296.233162 49.512594 292.857678 52.888078 
C 289.482194 56.263562 287.5856 60.842344 287.5856 65.616 
C 287.5856 70.389656 289.482194 74.968438 292.857678 78.343922 
C 296.233162 81.719406 300.811944 83.616 305.5856 83.616 
L 305.5856 83.616 
z
" clip-path="url(#p7345b277bc)" style="fill: none; stroke: #000000; stroke-width: 2; stroke-linejoin: miter"/>
   </g>
   <g id="patch_6">
    <path d="M 395.5856 83.616 
C 400.359256 83.616 404.938038 81.719406 408.313522 78.343922 
C 411.689006 74.968438 413.5856 70.389656 413.5856 65.616 
C 413.5856 60.842344 411.689006 56.263562 408.313522 52.888078 
C 404.938038 49.512594 400.359256 47.616 395.5856 47.616 
C 390.811944 47.616 386.233162 49.512594 382.857678 52.888078 
C 379.482194 56.263562 377.5856 60.842344 377.5856 65.616 
C 377.5856 70.389656 379.482194 74.968438 382.857678 78.343922 
C 386.233162 81.719406 390.811944 83.616 395.5856 83.616 
L 395.5856 83.616 
z
" clip-path="url(#p7345b277bc)" style="fill: none; stroke: #000000; stroke-width: 2; stroke-linejoin: miter"/>
   </g>
   <g id="patch_7">
    <path d="M 485.5856 83.616 
C 490.359256 83.616 494.938038 81.719406 498.313522 78.343922 
C 501.689006 74.968438 503.5856 70.389656 503.5856 65.616 
C 503.5856 60.842344 501.689006 56.263562 498.313522 52.888078 
C 494.938038 49.512594 490.359256 47.616 485.5856 47.616 
C 480.811944 47.616 476.233162 49.512594 472.857678 52.888078 
C 469.482194 56.263562 467.5856 60.842344 467.5856 65.616 
C 467.5856 70.389656 469.482194 74.968438 472.857678 78.343922 
C 476.233162 81.719406 480.811944 83.616 485.5856 83.616 
L 485.5856 83.616 
z
" clip-path="url(#p7345b277bc)" style="fill: none; stroke: #000000; stroke-width: 2; stroke-linejoin: miter"/>
   </g>
   <g id="patch_8">
    <path d="M 575.5856 83.616 
C 580.359256 83.616 584.938038 81.719406 588.313522 78.343922 
C 591.689006 74.968438 593.5856 70.389656 593.5856 65.616 
C 593.5856 60.842344 591.689006 56.263562 588.313522 52.888078 
C 584.938038 49.512594 580.359256 47.616 575.5856 47.616 
C 570.811944 47.616 566.233162 49.512594 562.857678 52.888078 
C 559.482194 56.263562 557.5856 60.842344 557.5856 65.616 
C 557.5856 70.389656 559.482194 74.968438 562.857678 78.343922 
C 566.233162 81.719406 570.811944 83.616 575.5856 83.616 
L 575.5856 83.616 
z
" clip-path="url(#p7345b277bc)" style="fill: none; stroke: #000000; stroke-width: 2; stroke-linejoin: miter"/>
   </g>
   <g id="patch_9">
    <path d="M 665.5856 83.616 
C 670.359256 83.616 674.938038 81.719406 678.313522 78.343922 
C 681.689006 74.968438 683.5856 70.389656 683.5856 65.616 
C 683.5856 60.842344 681.689006 56.263562 678.313522 52.888078 
C 674.938038 49.512594 670.359256 47.616 665.5856 47.616 
C 660.811944 47.616 656.233162 49.512594 652.857678 52.888078 
C 649.482194 56.263562 647.5856 60.842344 647.5856 65.616 
C 647.5856 70.389656 649.482194 74.968438 652.857678 78.343922 
C 656.233162 81.719406 660.811944 83.616 665.5856 83.616 
L 665.5856 83.616 
z
" clip-path="url(#p7345b277bc)" style="fill: none; stroke: #000000; stroke-width: 2; stroke-linejoin: miter"/>
   </g>
   <g id="line2d_1">
    <path d="M 773.5856 191.616 
L 755.5856 191.616 
L 737.5856 191.616 
" clip-path="url(#p7345b277bc)" style="fill: none; stroke: #000000; stroke-width: 2; stroke-linecap: round"/>
   </g>
   <g id="line2d_2">
    <path d="M 737.5856 191.616 
L 737.5856 209.616 
L 701.5856 209.616 
L 701.5856 173.616 
L 737.5856 173.616 
L 737.5856 191.616 
" clip-path="url(#p7345b277bc)" style="fill: none; stroke: #000000; stroke-width: 2; stroke-linecap: round"/>
   </g>
   <g id="line2d_3">
    <path d="M 701.5856 191.616 
L 368.5856 191.616 
L 35.5856 191.616 
" clip-path="url(#p7345b277bc)" style="fill: none; stroke: #000000; stroke-width: 2; stroke-linecap: round"/>
   </g>
   <g id="line2d_4">
    <path d="M 35.5856 191.616 
L 35.5856 182.616 
L 35.5856 173.616 
" clip-path="url(#p7345b277bc)" style="fill: none; stroke: #000000; stroke-width: 2; stroke-linecap: round"/>
   </g>
   <g id="line2d_5">
    <path d="M 35.5856 173.616 
L 35.5856 155.616 
M 51.7856 148.416 
L 39.1856 128.256 
M 35.5856 119.616 
L 35.5856 101.616 
" clip-path="url(#p7345b277bc)" style="fill: none; stroke: #000000; stroke-width: 2; stroke-linecap: round"/>
   </g>
   <g id="line2d_6">
    <path d="M 35.5856 101.616 
L 35.5856 83.616 
L 35.5856 83.616 
M 35.5856 47.616 
L 35.5856 47.616 
L 35.5856 29.616 
" clip-path="url(#p7345b277bc)" style="fill: none; stroke: #000000; stroke-width: 2; stroke-linecap: round"/>
   </g>
   <g id="line2d_7">
    <path d="M 35.5856 65.616 
L 35.5856 56.616 
" clip-path="url(#p7345b277bc)" style="fill: none; stroke: #000000; stroke-width: 2; stroke-linecap: round"/>
   </g>
   <g id="patch_10">
    <path d="M 38.2856 65.616 
L 35.5856 74.616 
L 32.8856 65.616 
z
" clip-path="url(#p7345b277bc)"/>
   </g>
   <g id="line2d_8">
    <path d="M 35.5856 29.616 
L 35.5856 20.616 
L 35.5856 11.616 
" clip-path="url(#p7345b277bc)" style="fill: none; stroke: #000000; stroke-width: 2; stroke-linecap: round"/>
   </g>
   <g id="line2d_9">
    <path d="M 35.5856 11.616 
L 80.5856 11.616 
L 125.5856 11.616 
" clip-path="url(#p7345b277bc)" style="fill: none; stroke: #000000; stroke-width: 2; stroke-linecap: round"/>
   </g>
   <g id="line2d_10">
    <path d="M 125.5856 11.616 
L 125.5856 20.616 
L 125.5856 29.616 
" clip-path="url(#p7345b277bc)" style="fill: none; stroke: #000000; stroke-width: 2; stroke-linecap: round"/>
   </g>
   <g id="line2d_11">
    <path d="M 125.5856 29.616 
L 125.5856 47.616 
L 125.5856 47.616 
M 125.5856 83.616 
L 125.5856 83.616 
L 125.5856 101.616 
" clip-path="url(#p7345b277bc)" style="fill: none; stroke: #000000; stroke-width: 2; stroke-linecap: round"/>
   </g>
   <g id="line2d_12">
    <path d="M 125.5856 56.616 
L 125.5856 65.616 
" clip-path="url(#p7345b277bc)" style="fill: none; stroke: #000000; stroke-width: 2; stroke-linecap: round"/>
   </g>
   <g id="patch_11">
    <path d="M 128.2856 65.616 
L 125.5856 74.616 
L 122.8856 65.616 
z
" clip-path="url(#p7345b277bc)"/>
   </g>
   <g id="line2d_13">
    <path d="M 125.5856 101.616 
L 125.5856 119.616 
M 129.1856 128.256 
L 141.7856 148.416 
M 125.5856 155.616 
L 125.5856 173.616 
" clip-path="url(#p7345b277bc)" style="fill: none; stroke: #000000; stroke-width: 2; stroke-linecap: round"/>
   </g>
   <g id="line2d_14">
    <path d="M 125.5856 173.616 
L 125.5856 182.616 
L 125.5856 191.616 
" clip-path="url(#p7345b277bc)" style="fill: none; stroke: #000000; stroke-width: 2; stroke-linecap: round"/>
   </g>
   <g id="line2d_15">
    <path d="M 125.5856 11.616 
L 170.5856 11.616 
L 215.5856 11.616 
" clip-path="url(#p7345b277bc)" style="fill: none; stroke: #000000; stroke-width: 2; stroke-linecap: round"/>
   </g>
   <g id="line2d_16">
    <path d="M 215.5856 11.616 
L 215.5856 20.616 
L 215.5856 29.616 
" clip-path="url(#p7345b277bc)" style="fill: none; stroke: #000000; stroke-width: 2; stroke-linecap: round"/>
   </g>
   <g id="line2d_17">
    <path d="M 215.5856 29.616 
L 215.5856 47.616 
L 215.5856 47.616 
M 215.5856 83.616 
L 215.5856 83.616 
L 215.5856 101.616 
" clip-path="url(#p7345b277bc)" style="fill: none; stroke: #000000; stroke-width: 2; stroke-linecap: round"/>
   </g>
   <g id="line2d_18">
    <path d="M 215.5856 56.616 
L 215.5856 65.616 
" clip-path="url(#p7345b277bc)" style="fill: none; stroke: #000000; stroke-width: 2; stroke-linecap: round"/>
   </g>
   <g id="patch_12">
    <path d="M 218.2856 65.616 
L 215.5856 74.616 
L 212.8856 65.616 
z
" clip-path="url(#p7345b277bc)"/>
   </g>
   <g id="line2d_19">
    <path d="M 215.5856 101.616 
L 215.5856 119.616 
M 219.1856 128.256 
L 231.7856 148.416 
M 215.5856 155.616 
L 215.5856 173.616 
" clip-path="url(#p7345b277bc)" style="fill: none; stroke: #000000; stroke-width: 2; stroke-linecap: round"/>
   </g>
   <g id="line2d_20">
    <path d="M 215.5856 173.616 
L 215.5856 182.616 
L 215.5856 191.616 
" clip-path="url(#p7345b277bc)" style="fill: none; stroke: #000000; stroke-width: 2; stroke-linecap: round"/>
   </g>
   <g id="line2d_21">
    <path d="M 215.5856 11.616 
L 260.5856 11.616 
L 305.5856 11.616 
" clip-path="url(#p7345b277bc)" style="fill: none; stroke: #000000; stroke-width: 2; stroke-linecap: round"/>
   </g>
   <g id="line2d_22">
    <path d="M 305.5856 11.616 
L 305.5856 20.616 
L 305.5856 29.616 
" clip-path="url(#p7345b277bc)" style="fill: none; stroke: #000000; stroke-width: 2; stroke-linecap: round"/>
   </g>
   <g id="line2d_23">
    <path d="M 305.5856 29.616 
L 305.5856 47.616 
L 305.5856 47.616 
M 305.5856 83.616 
L 305.5856 83.616 
L 305.5856 101.616 
" clip-path="url(#p7345b277bc)" style="fill: none; stroke: #000000; stroke-width: 2; stroke-linecap: round"/>
   </g>
   <g id="line2d_24">
    <path d="M 305.5856 56.616 
L 305.5856 65.616 
" clip-path="url(#p7345b277bc)" style="fill: none; stroke: #000000; stroke-width: 2; stroke-linecap: round"/>
   </g>
   <g id="patch_13">
    <path d="M 308.2856 65.616 
L 305.5856 74.616 
L 302.8856 65.616 
z
" clip-path="url(#p7345b277bc)"/>
   </g>
   <g id="line2d_25">
    <path d="M 305.5856 101.616 
L 305.5856 119.616 
M 309.1856 128.256 
L 321.7856 148.416 
M 305.5856 155.616 
L 305.5856 173.616 
" clip-path="url(#p7345b277bc)" style="fill: none; stroke: #000000; stroke-width: 2; stroke-linecap: round"/>
   </g>
   <g id="line2d_26">
    <path d="M 305.5856 173.616 
L 305.5856 182.616 
L 305.5856 191.616 
" clip-path="url(#p7345b277bc)" style="fill: none; stroke: #000000; stroke-width: 2; stroke-linecap: round"/>
   </g>
   <g id="line2d_27">
    <path d="M 305.5856 11.616 
L 350.5856 11.616 
L 395.5856 11.616 
" clip-path="url(#p7345b277bc)" style="fill: none; stroke: #000000; stroke-width: 2; stroke-linecap: round"/>
   </g>
   <g id="line2d_28">
    <path d="M 395.5856 11.616 
L 395.5856 20.616 
L 395.5856 29.616 
" clip-path="url(#p7345b277bc)" style="fill: none; stroke: #000000; stroke-width: 2; stroke-linecap: round"/>
   </g>
   <g id="line2d_29">
    <path d="M 395.5856 29.616 
L 395.5856 47.616 
L 395.5856 47.616 
M 395.5856 83.616 
L 395.5856 83.616 
L 395.5856 101.616 
" clip-path="url(#p7345b277bc)" style="fill: none; stroke: #000000; stroke-width: 2; stroke-linecap: round"/>
   </g>
   <g id="line2d_30">
    <path d="M 395.5856 56.616 
L 395.5856 65.616 
" clip-path="url(#p7345b277bc)" style="fill: none; stroke: #000000; stroke-width: 2; stroke-linecap: round"/>
   </g>
   <g id="patch_14">
    <path d="M 398.2856 65.616 
L 395.5856 74.616 
L 392.8856 65.616 
z
" clip-path="url(#p7345b277bc)"/>
   </g>
   <g id="line2d_31">
    <path d="M 395.5856 101.616 
L 395.5856 119.616 
M 399.1856 128.256 
L 411.7856 148.416 
M 395.5856 155.616 
L 395.5856 173.616 
" clip-path="url(#p7345b277bc)" style="fill: none; stroke: #000000; stroke-width: 2; stroke-linecap: round"/>
   </g>
   <g id="line2d_32">
    <path d="M 395.5856 173.616 
L 395.5856 182.616 
L 395.5856 191.616 
" clip-path="url(#p7345b277bc)" style="fill: none; stroke: #000000; stroke-width: 2; stroke-linecap: round"/>
   </g>
   <g id="line2d_33">
    <path d="M 395.5856 11.616 
L 440.5856 11.616 
L 485.5856 11.616 
" clip-path="url(#p7345b277bc)" style="fill: none; stroke: #000000; stroke-width: 2; stroke-linecap: round"/>
   </g>
   <g id="line2d_34">
    <path d="M 485.5856 11.616 
L 485.5856 20.616 
L 485.5856 29.616 
" clip-path="url(#p7345b277bc)" style="fill: none; stroke: #000000; stroke-width: 2; stroke-linecap: round"/>
   </g>
   <g id="line2d_35">
    <path d="M 485.5856 29.616 
L 485.5856 47.616 
L 485.5856 47.616 
M 485.5856 83.616 
L 485.5856 83.616 
L 485.5856 101.616 
" clip-path="url(#p7345b277bc)" style="fill: none; stroke: #000000; stroke-width: 2; stroke-linecap: round"/>
   </g>
   <g id="line2d_36">
    <path d="M 485.5856 56.616 
L 485.5856 65.616 
" clip-path="url(#p7345b277bc)" style="fill: none; stroke: #000000; stroke-width: 2; stroke-linecap: round"/>
   </g>
   <g id="patch_15">
    <path d="M 488.2856 65.616 
L 485.5856 74.616 
L 482.8856 65.616 
z
" clip-path="url(#p7345b277bc)"/>
   </g>
   <g id="line2d_37">
    <path d="M 485.5856 101.616 
L 485.5856 119.616 
M 489.1856 128.256 
L 501.7856 148.416 
M 485.5856 155.616 
L 485.5856 173.616 
" clip-path="url(#p7345b277bc)" style="fill: none; stroke: #000000; stroke-width: 2; stroke-linecap: round"/>
   </g>
   <g id="line2d_38">
    <path d="M 485.5856 173.616 
L 485.5856 182.616 
L 485.5856 191.616 
" clip-path="url(#p7345b277bc)" style="fill: none; stroke: #000000; stroke-width: 2; stroke-linecap: round"/>
   </g>
   <g id="line2d_39">
    <path d="M 485.5856 11.616 
L 530.5856 11.616 
L 575.5856 11.616 
" clip-path="url(#p7345b277bc)" style="fill: none; stroke: #000000; stroke-width: 2; stroke-linecap: round"/>
   </g>
   <g id="line2d_40">
    <path d="M 575.5856 11.616 
L 575.5856 20.616 
L 575.5856 29.616 
" clip-path="url(#p7345b277bc)" style="fill: none; stroke: #000000; stroke-width: 2; stroke-linecap: round"/>
   </g>
   <g id="line2d_41">
    <path d="M 575.5856 29.616 
L 575.5856 47.616 
L 575.5856 47.616 
M 575.5856 83.616 
L 575.5856 83.616 
L 575.5856 101.616 
" clip-path="url(#p7345b277bc)" style="fill: none; stroke: #000000; stroke-width: 2; stroke-linecap: round"/>
   </g>
   <g id="line2d_42">
    <path d="M 575.5856 56.616 
L 575.5856 65.616 
" clip-path="url(#p7345b277bc)" style="fill: none; stroke: #000000; stroke-width: 2; stroke-linecap: round"/>
   </g>
   <g id="patch_16">
    <path d="M 578.2856 65.616 
L 575.5856 74.616 
L 572.8856 65.616 
z
" clip-path="url(#p7345b277bc)"/>
   </g>
   <g id="line2d_43">
    <path d="M 575.5856 101.616 
L 575.5856 119.616 
M 579.1856 128.256 
L 591.7856 148.416 
M 575.5856 155.616 
L 575.5856 173.616 
" clip-path="url(#p7345b277bc)" style="fill: none; stroke: #000000; stroke-width: 2; stroke-linecap: round"/>
   </g>
   <g id="line2d_44">
    <path d="M 575.5856 173.616 
L 575.5856 182.616 
L 575.5856 191.616 
" clip-path="url(#p7345b277bc)" style="fill: none; stroke: #000000; stroke-width: 2; stroke-linecap: round"/>
   </g>
   <g id="line2d_45">
    <path d="M 575.5856 11.616 
L 620.5856 11.616 
L 665.5856 11.616 
" clip-path="url(#p7345b277bc)" style="fill: none; stroke: #000000; stroke-width: 2; stroke-linecap: round"/>
   </g>
   <g id="line2d_46">
    <path d="M 665.5856 11.616 
L 665.5856 20.616 
L 665.5856 29.616 
" clip-path="url(#p7345b277bc)" style="fill: none; stroke: #000000; stroke-width: 2; stroke-linecap: round"/>
   </g>
   <g id="line2d_47">
    <path d="M 665.5856 29.616 
L 665.5856 47.616 
L 665.5856 47.616 
M 665.5856 83.616 
L 665.5856 83.616 
L 665.5856 101.616 
" clip-path="url(#p7345b277bc)" style="fill: none; stroke: #000000; stroke-width: 2; stroke-linecap: round"/>
   </g>
   <g id="line2d_48">
    <path d="M 665.5856 56.616 
L 665.5856 65.616 
" clip-path="url(#p7345b277bc)" style="fill: none; stroke: #000000; stroke-width: 2; stroke-linecap: round"/>
   </g>
   <g id="patch_17">
    <path d="M 668.2856 65.616 
L 665.5856 74.616 
L 662.8856 65.616 
z
" clip-path="url(#p7345b277bc)"/>
   </g>
   <g id="line2d_49">
    <path d="M 665.5856 101.616 
L 665.5856 119.616 
M 669.1856 128.256 
L 681.7856 148.416 
M 665.5856 155.616 
L 665.5856 173.616 
" clip-path="url(#p7345b277bc)" style="fill: none; stroke: #000000; stroke-width: 2; stroke-linecap: round"/>
   </g>
   <g id="line2d_50">
    <path d="M 665.5856 173.616 
L 665.5856 182.616 
L 665.5856 191.616 
" clip-path="url(#p7345b277bc)" style="fill: none; stroke: #000000; stroke-width: 2; stroke-linecap: round"/>
   </g>
   <g id="line2d_51">
    <path d="M 665.5856 191.616 
L 665.5856 200.616 
L 665.5856 209.616 
" clip-path="url(#p7345b277bc)" style="fill: none; stroke: #000000; stroke-width: 2; stroke-linecap: round"/>
   </g>
   <g id="line2d_52">
    <path d="M 665.5856 209.616 
L 665.5856 227.616 
L 674.5856 230.616 
L 656.5856 236.616 
L 674.5856 242.616 
L 656.5856 248.616 
L 674.5856 254.616 
L 656.5856 260.616 
L 665.5856 263.616 
L 665.5856 281.616 
" clip-path="url(#p7345b277bc)" style="fill: none; stroke: #000000; stroke-width: 2; stroke-linecap: round"/>
   </g>
   <g id="line2d_53">
    <path d="M 665.5856 281.616 
L 665.5856 290.616 
L 665.5856 299.616 
" clip-path="url(#p7345b277bc)" style="fill: none; stroke: #000000; stroke-width: 2; stroke-linecap: round"/>
   </g>
   <g id="line2d_54">
    <path d="M 665.5856 299.616 
L 719.5856 299.616 
L 773.5856 299.616 
" clip-path="url(#p7345b277bc)" style="fill: none; stroke: #000000; stroke-width: 2; stroke-linecap: round"/>
   </g>
   <g id="line2d_55">
    <path d="M 665.5856 11.616 
L 719.5856 11.616 
L 773.5856 11.616 
" clip-path="url(#p7345b277bc)" style="fill: none; stroke: #000000; stroke-width: 2; stroke-linecap: round"/>
   </g>
   <g id="text_1">
    <!-- $t_\mathrm{settle}$ -->
    <g transform="translate(703.718686 195.601056) scale(0.16 -0.16)">
     <defs>
      <path id="CMMI12-74" d="M 1286 2566 
L 1875 2566 
C 1997 2566 2061 2566 2061 2681 
C 2061 2752 2022 2752 1894 2752 
L 1331 2752 
L 1568 3692 
C 1594 3781 1594 3794 1594 3840 
C 1594 3943 1510 4000 1427 4000 
C 1376 4000 1229 3981 1178 3775 
L 928 2752 
L 326 2752 
C 198 2752 141 2752 141 2630 
C 141 2566 186 2566 307 2566 
L 877 2566 
L 454 881 
C 403 658 384 594 384 511 
C 384 211 595 -64 954 -64 
C 1600 -64 1946 868 1946 912 
C 1946 951 1920 970 1882 970 
C 1869 970 1843 970 1830 944 
C 1824 938 1818 931 1773 829 
C 1638 511 1344 64 973 64 
C 781 64 768 224 768 364 
C 768 370 768 492 787 568 
L 1286 2566 
z
" transform="scale(0.015625)"/>
      <path id="CMR17-73" d="M 1978 2697 
C 1978 2813 1971 2819 1933 2819 
C 1907 2819 1901 2813 1824 2717 
C 1805 2691 1747 2626 1728 2601 
C 1523 2819 1235 2819 1126 2819 
C 416 2819 160 2447 160 2076 
C 160 1498 813 1365 998 1325 
C 1402 1243 1542 1217 1677 1101 
C 1760 1025 1901 884 1901 654 
C 1901 384 1747 38 1158 38 
C 602 38 403 460 288 1021 
C 269 1110 269 1117 218 1117 
C 166 1117 160 1110 160 983 
L 160 63 
C 160 -51 166 -58 205 -58 
C 237 -58 243 -51 275 0 
C 314 57 410 211 448 276 
C 576 103 800 -64 1158 -64 
C 1792 -64 2131 283 2131 784 
C 2131 1112 1958 1285 1875 1362 
C 1683 1561 1459 1606 1190 1657 
C 838 1735 390 1825 390 2217 
C 390 2383 480 2737 1126 2737 
C 1811 2737 1850 2094 1862 1888 
C 1869 1856 1901 1849 1920 1849 
C 1978 1849 1978 1869 1978 1978 
L 1978 2697 
z
" transform="scale(0.015625)"/>
      <path id="CMR17-65" d="M 2438 1472 
C 2464 1498 2464 1511 2464 1576 
C 2464 2238 2118 2816 1389 2816 
C 710 2816 173 2169 173 1383 
C 173 551 781 -64 1459 -64 
C 2176 -64 2458 607 2458 740 
C 2458 784 2419 784 2406 784 
C 2362 784 2355 771 2330 696 
C 2189 265 1837 51 1504 51 
C 1229 51 954 203 781 480 
C 582 803 582 1176 582 1472 
L 2438 1472 
z
M 589 1568 
C 634 2505 1126 2714 1382 2714 
C 1818 2714 2112 2297 2118 1568 
L 589 1568 
z
" transform="scale(0.015625)"/>
      <path id="CMR17-74" d="M 966 2560 
L 1862 2560 
L 1862 2725 
L 966 2725 
L 966 3904 
L 851 3904 
C 838 3245 614 2668 70 2668 
L 70 2560 
L 627 2560 
L 627 771 
C 627 650 627 -64 1370 -64 
C 1747 -64 1965 306 1965 777 
L 1965 1140 
L 1850 1140 
L 1850 783 
C 1850 344 1677 51 1408 51 
C 1222 51 966 178 966 758 
L 966 2560 
z
" transform="scale(0.015625)"/>
      <path id="CMR17-6c" d="M 979 4396 
L 218 4326 
L 218 4160 
C 595 4160 653 4122 653 3817 
L 653 426 
C 653 184 627 153 218 153 
L 218 -13 
C 371 0 653 0 813 0 
C 979 0 1261 0 1414 -13 
L 1414 153 
C 1005 153 979 178 979 426 
L 979 4396 
z
" transform="scale(0.015625)"/>
     </defs>
     <use xlink:href="#CMMI12-74" transform="scale(0.996264)"/>
     <use xlink:href="#CMR17-73" transform="translate(35.22633 -14.943915) scale(0.697382)"/>
     <use xlink:href="#CMR17-65" transform="translate(60.287153 -14.943915) scale(0.697382)"/>
     <use xlink:href="#CMR17-74" transform="translate(88.626984 -14.943915) scale(0.697382)"/>
     <use xlink:href="#CMR17-74" transform="translate(113.323405 -14.943915) scale(0.697382)"/>
     <use xlink:href="#CMR17-6c" transform="translate(138.019825 -14.943915) scale(0.697382)"/>
     <use xlink:href="#CMR17-65" transform="translate(155.429484 -14.943915) scale(0.697382)"/>
    </g>
   </g>
   <g id="patch_18">
    <path d="M 35.5856 128.256 
C 36.731277 128.256 37.830185 127.800818 38.640301 126.990701 
C 39.450418 126.180585 39.9056 125.081677 39.9056 123.936 
C 39.9056 122.790323 39.450418 121.691415 38.640301 120.881299 
C 37.830185 120.071182 36.731277 119.616 35.5856 119.616 
C 34.439923 119.616 33.341015 120.071182 32.530899 120.881299 
C 31.720782 121.691415 31.2656 122.790323 31.2656 123.936 
C 31.2656 125.081677 31.720782 126.180585 32.530899 126.990701 
C 33.341015 127.800818 34.439923 128.256 35.5856 128.256 
z
" clip-path="url(#p7345b277bc)" style="fill: #ffffff; stroke: #000000; stroke-width: 2; stroke-linejoin: miter"/>
   </g>
   <g id="patch_19">
    <path d="M 35.5856 155.616 
C 36.731277 155.616 37.830185 155.160818 38.640301 154.350701 
C 39.450418 153.540585 39.9056 152.441677 39.9056 151.296 
C 39.9056 150.150323 39.450418 149.051415 38.640301 148.241299 
C 37.830185 147.431182 36.731277 146.976 35.5856 146.976 
C 34.439923 146.976 33.341015 147.431182 32.530899 148.241299 
C 31.720782 149.051415 31.2656 150.150323 31.2656 151.296 
C 31.2656 152.441677 31.720782 153.540585 32.530899 154.350701 
C 33.341015 155.160818 34.439923 155.616 35.5856 155.616 
z
" clip-path="url(#p7345b277bc)" style="fill: #ffffff; stroke: #000000; stroke-width: 2; stroke-linejoin: miter"/>
   </g>
   <g id="text_2">
    <!-- $D_0$ -->
    <g transform="translate(9.127452 141.601056) scale(0.16 -0.16)">
     <defs>
      <path id="CMMI12-44" d="M 1005 472 
C 947 249 934 185 486 185 
C 365 185 301 185 301 70 
C 301 0 339 0 467 0 
L 2496 0 
C 3789 0 5050 1332 5050 2753 
C 5050 3671 4499 4352 3584 4352 
L 1530 4352 
C 1408 4352 1350 4352 1350 4231 
C 1350 4167 1408 4167 1504 4167 
C 1894 4167 1894 4116 1894 4046 
C 1894 4034 1894 3995 1869 3899 
L 1005 472 
z
M 2355 3931 
C 2413 4167 2438 4167 2688 4167 
L 3392 4167 
C 3994 4167 4544 3842 4544 2963 
C 4544 2644 4416 1536 3795 835 
C 3616 625 3130 185 2394 185 
L 1664 185 
C 1574 185 1562 185 1523 192 
C 1453 198 1446 211 1446 262 
C 1446 307 1459 345 1472 402 
L 2355 3931 
z
" transform="scale(0.015625)"/>
      <path id="CMR17-30" d="M 2688 2025 
C 2688 2416 2682 3080 2413 3591 
C 2176 4039 1798 4198 1466 4198 
C 1158 4198 768 4058 525 3597 
C 269 3118 243 2524 243 2025 
C 243 1661 250 1106 448 619 
C 723 -39 1216 -128 1466 -128 
C 1760 -128 2208 -7 2470 600 
C 2662 1042 2688 1559 2688 2025 
z
M 1466 -26 
C 1056 -26 813 325 723 812 
C 653 1188 653 1738 653 2096 
C 653 2588 653 2997 736 3387 
C 858 3929 1216 4096 1466 4096 
C 1728 4096 2067 3923 2189 3400 
C 2272 3036 2278 2607 2278 2096 
C 2278 1680 2278 1169 2202 792 
C 2067 95 1690 -26 1466 -26 
z
" transform="scale(0.015625)"/>
     </defs>
     <use xlink:href="#CMMI12-44" transform="scale(0.996264)"/>
     <use xlink:href="#CMR17-30" transform="translate(80.99423 -14.943915) scale(0.697382)"/>
    </g>
   </g>
   <g id="text_3">
    <!-- $I_0$ -->
    <g transform="translate(1.522662 69.601056) scale(0.16 -0.16)">
     <defs>
      <path id="CMMI12-49" d="M 2355 3880 
C 2413 4103 2426 4167 2893 4167 
C 3034 4167 3085 4167 3085 4288 
C 3085 4352 3014 4352 2995 4352 
C 2880 4352 2739 4352 2624 4352 
L 1837 4352 
C 1709 4352 1562 4352 1434 4352 
C 1382 4352 1312 4352 1312 4231 
C 1312 4167 1363 4167 1491 4167 
C 1888 4167 1888 4116 1888 4046 
C 1888 4002 1875 3963 1862 3906 
L 998 472 
C 941 249 928 185 461 185 
C 320 185 262 185 262 64 
C 262 0 326 0 358 0 
C 474 0 614 0 730 0 
L 1517 0 
C 1645 0 1786 0 1914 0 
C 1965 0 2042 0 2042 115 
C 2042 185 2003 185 1862 185 
C 1466 185 1466 236 1466 312 
C 1466 325 1466 357 1491 459 
L 2355 3880 
z
" transform="scale(0.015625)"/>
     </defs>
     <use xlink:href="#CMMI12-49" transform="scale(0.996264)"/>
     <use xlink:href="#CMR17-30" transform="translate(43.024176 -14.943915) scale(0.697382)"/>
    </g>
   </g>
   <g id="patch_20">
    <path d="M 125.5856 14.316 
C 126.301648 14.316 126.988466 14.031511 127.494788 13.525188 
C 128.001111 13.018866 128.2856 12.332048 128.2856 11.616 
C 128.2856 10.899952 128.001111 10.213134 127.494788 9.706812 
C 126.988466 9.200489 126.301648 8.916 125.5856 8.916 
C 124.869552 8.916 124.182734 9.200489 123.676412 9.706812 
C 123.170089 10.213134 122.8856 10.899952 122.8856 11.616 
C 122.8856 12.332048 123.170089 13.018866 123.676412 13.525188 
C 124.182734 14.031511 124.869552 14.316 125.5856 14.316 
z
" clip-path="url(#p7345b277bc)" style="stroke: #000000; stroke-width: 2; stroke-linejoin: miter"/>
   </g>
   <g id="text_4">
    <!-- $2 I_0$ -->
    <g transform="translate(83.718675 69.601056) scale(0.16 -0.16)">
     <defs>
      <path id="CMR17-32" d="M 2669 989 
L 2554 989 
C 2490 536 2438 459 2413 420 
C 2381 369 1920 369 1830 369 
L 602 369 
C 832 619 1280 1072 1824 1597 
C 2214 1967 2669 2402 2669 3035 
C 2669 3790 2067 4224 1395 4224 
C 691 4224 262 3604 262 3030 
C 262 2780 448 2748 525 2748 
C 589 2748 781 2787 781 3010 
C 781 3207 614 3264 525 3264 
C 486 3264 448 3258 422 3245 
C 544 3790 915 4058 1306 4058 
C 1862 4058 2227 3617 2227 3035 
C 2227 2479 1901 2000 1536 1584 
L 262 146 
L 262 0 
L 2515 0 
L 2669 989 
z
" transform="scale(0.015625)"/>
     </defs>
     <use xlink:href="#CMR17-32" transform="scale(0.996264)"/>
     <use xlink:href="#CMMI12-49" transform="translate(45.690477 0) scale(0.996264)"/>
     <use xlink:href="#CMR17-30" transform="translate(88.714653 -14.943915) scale(0.697382)"/>
    </g>
   </g>
   <g id="patch_21">
    <path d="M 125.5856 128.256 
C 126.731277 128.256 127.830185 127.800818 128.640301 126.990701 
C 129.450418 126.180585 129.9056 125.081677 129.9056 123.936 
C 129.9056 122.790323 129.450418 121.691415 128.640301 120.881299 
C 127.830185 120.071182 126.731277 119.616 125.5856 119.616 
C 124.439923 119.616 123.341015 120.071182 122.530899 120.881299 
C 121.720782 121.691415 121.2656 122.790323 121.2656 123.936 
C 121.2656 125.081677 121.720782 126.180585 122.530899 126.990701 
C 123.341015 127.800818 124.439923 128.256 125.5856 128.256 
z
" clip-path="url(#p7345b277bc)" style="fill: #ffffff; stroke: #000000; stroke-width: 2; stroke-linejoin: miter"/>
   </g>
   <g id="patch_22">
    <path d="M 125.5856 155.616 
C 126.731277 155.616 127.830185 155.160818 128.640301 154.350701 
C 129.450418 153.540585 129.9056 152.441677 129.9056 151.296 
C 129.9056 150.150323 129.450418 149.051415 128.640301 148.241299 
C 127.830185 147.431182 126.731277 146.976 125.5856 146.976 
C 124.439923 146.976 123.341015 147.431182 122.530899 148.241299 
C 121.720782 149.051415 121.2656 150.150323 121.2656 151.296 
C 121.2656 152.441677 121.720782 153.540585 122.530899 154.350701 
C 123.341015 155.160818 124.439923 155.616 125.5856 155.616 
z
" clip-path="url(#p7345b277bc)" style="fill: #ffffff; stroke: #000000; stroke-width: 2; stroke-linejoin: miter"/>
   </g>
   <g id="text_5">
    <!-- $D_1$ -->
    <g transform="translate(99.127452 141.601056) scale(0.16 -0.16)">
     <defs>
      <path id="CMR17-31" d="M 1702 4058 
C 1702 4192 1696 4192 1606 4192 
C 1357 3916 979 3827 621 3827 
C 602 3827 570 3827 563 3808 
C 557 3795 557 3782 557 3648 
C 755 3648 1088 3686 1344 3839 
L 1344 461 
C 1344 236 1331 160 781 160 
L 589 160 
L 589 0 
C 896 0 1216 0 1523 0 
C 1830 0 2150 0 2458 0 
L 2458 160 
L 2266 160 
C 1715 160 1702 230 1702 458 
L 1702 4058 
z
" transform="scale(0.015625)"/>
     </defs>
     <use xlink:href="#CMMI12-44" transform="scale(0.996264)"/>
     <use xlink:href="#CMR17-31" transform="translate(80.99423 -14.943915) scale(0.697382)"/>
    </g>
   </g>
   <g id="patch_23">
    <path d="M 125.5856 194.316 
C 126.301648 194.316 126.988466 194.031511 127.494788 193.525188 
C 128.001111 193.018866 128.2856 192.332048 128.2856 191.616 
C 128.2856 190.899952 128.001111 190.213134 127.494788 189.706812 
C 126.988466 189.200489 126.301648 188.916 125.5856 188.916 
C 124.869552 188.916 124.182734 189.200489 123.676412 189.706812 
C 123.170089 190.213134 122.8856 190.899952 122.8856 191.616 
C 122.8856 192.332048 123.170089 193.018866 123.676412 193.525188 
C 124.182734 194.031511 124.869552 194.316 125.5856 194.316 
z
" clip-path="url(#p7345b277bc)" style="stroke: #000000; stroke-width: 2; stroke-linejoin: miter"/>
   </g>
   <g id="patch_24">
    <path d="M 215.5856 14.316 
C 216.301648 14.316 216.988466 14.031511 217.494788 13.525188 
C 218.001111 13.018866 218.2856 12.332048 218.2856 11.616 
C 218.2856 10.899952 218.001111 10.213134 217.494788 9.706812 
C 216.988466 9.200489 216.301648 8.916 215.5856 8.916 
C 214.869552 8.916 214.182734 9.200489 213.676412 9.706812 
C 213.170089 10.213134 212.8856 10.899952 212.8856 11.616 
C 212.8856 12.332048 213.170089 13.018866 213.676412 13.525188 
C 214.182734 14.031511 214.869552 14.316 215.5856 14.316 
z
" clip-path="url(#p7345b277bc)" style="stroke: #000000; stroke-width: 2; stroke-linejoin: miter"/>
   </g>
   <g id="text_6">
    <!-- $4 I_0$ -->
    <g transform="translate(173.718675 69.601056) scale(0.16 -0.16)">
     <defs>
      <path id="CMR17-34" d="M 2150 4122 
C 2150 4256 2144 4256 2029 4256 
L 128 1254 
L 128 1088 
L 1779 1088 
L 1779 457 
C 1779 224 1766 160 1318 160 
L 1197 160 
L 1197 0 
C 1402 0 1747 0 1965 0 
C 2182 0 2528 0 2733 0 
L 2733 160 
L 2611 160 
C 2163 160 2150 224 2150 457 
L 2150 1088 
L 2803 1088 
L 2803 1254 
L 2150 1254 
L 2150 4122 
z
M 1798 3703 
L 1798 1254 
L 256 1254 
L 1798 3703 
z
" transform="scale(0.015625)"/>
     </defs>
     <use xlink:href="#CMR17-34" transform="scale(0.996264)"/>
     <use xlink:href="#CMMI12-49" transform="translate(45.690477 0) scale(0.996264)"/>
     <use xlink:href="#CMR17-30" transform="translate(88.714653 -14.943915) scale(0.697382)"/>
    </g>
   </g>
   <g id="patch_25">
    <path d="M 215.5856 128.256 
C 216.731277 128.256 217.830185 127.800818 218.640301 126.990701 
C 219.450418 126.180585 219.9056 125.081677 219.9056 123.936 
C 219.9056 122.790323 219.450418 121.691415 218.640301 120.881299 
C 217.830185 120.071182 216.731277 119.616 215.5856 119.616 
C 214.439923 119.616 213.341015 120.071182 212.530899 120.881299 
C 211.720782 121.691415 211.2656 122.790323 211.2656 123.936 
C 211.2656 125.081677 211.720782 126.180585 212.530899 126.990701 
C 213.341015 127.800818 214.439923 128.256 215.5856 128.256 
z
" clip-path="url(#p7345b277bc)" style="fill: #ffffff; stroke: #000000; stroke-width: 2; stroke-linejoin: miter"/>
   </g>
   <g id="patch_26">
    <path d="M 215.5856 155.616 
C 216.731277 155.616 217.830185 155.160818 218.640301 154.350701 
C 219.450418 153.540585 219.9056 152.441677 219.9056 151.296 
C 219.9056 150.150323 219.450418 149.051415 218.640301 148.241299 
C 217.830185 147.431182 216.731277 146.976 215.5856 146.976 
C 214.439923 146.976 213.341015 147.431182 212.530899 148.241299 
C 211.720782 149.051415 211.2656 150.150323 211.2656 151.296 
C 211.2656 152.441677 211.720782 153.540585 212.530899 154.350701 
C 213.341015 155.160818 214.439923 155.616 215.5856 155.616 
z
" clip-path="url(#p7345b277bc)" style="fill: #ffffff; stroke: #000000; stroke-width: 2; stroke-linejoin: miter"/>
   </g>
   <g id="text_7">
    <!-- $D_2$ -->
    <g transform="translate(189.127452 141.601056) scale(0.16 -0.16)">
     <use xlink:href="#CMMI12-44" transform="scale(0.996264)"/>
     <use xlink:href="#CMR17-32" transform="translate(80.99423 -14.943915) scale(0.697382)"/>
    </g>
   </g>
   <g id="patch_27">
    <path d="M 215.5856 194.316 
C 216.301648 194.316 216.988466 194.031511 217.494788 193.525188 
C 218.001111 193.018866 218.2856 192.332048 218.2856 191.616 
C 218.2856 190.899952 218.001111 190.213134 217.494788 189.706812 
C 216.988466 189.200489 216.301648 188.916 215.5856 188.916 
C 214.869552 188.916 214.182734 189.200489 213.676412 189.706812 
C 213.170089 190.213134 212.8856 190.899952 212.8856 191.616 
C 212.8856 192.332048 213.170089 193.018866 213.676412 193.525188 
C 214.182734 194.031511 214.869552 194.316 215.5856 194.316 
z
" clip-path="url(#p7345b277bc)" style="stroke: #000000; stroke-width: 2; stroke-linejoin: miter"/>
   </g>
   <g id="patch_28">
    <path d="M 305.5856 14.316 
C 306.301648 14.316 306.988466 14.031511 307.494788 13.525188 
C 308.001111 13.018866 308.2856 12.332048 308.2856 11.616 
C 308.2856 10.899952 308.001111 10.213134 307.494788 9.706812 
C 306.988466 9.200489 306.301648 8.916 305.5856 8.916 
C 304.869552 8.916 304.182734 9.200489 303.676412 9.706812 
C 303.170089 10.213134 302.8856 10.899952 302.8856 11.616 
C 302.8856 12.332048 303.170089 13.018866 303.676412 13.525188 
C 304.182734 14.031511 304.869552 14.316 305.5856 14.316 
z
" clip-path="url(#p7345b277bc)" style="stroke: #000000; stroke-width: 2; stroke-linejoin: miter"/>
   </g>
   <g id="text_8">
    <!-- $8 I_0$ -->
    <g transform="translate(263.718675 69.601056) scale(0.16 -0.16)">
     <defs>
      <path id="CMR17-38" d="M 1741 2264 
C 2144 2467 2554 2773 2554 3263 
C 2554 3841 1990 4179 1472 4179 
C 890 4179 378 3759 378 3180 
C 378 3021 416 2747 666 2505 
C 730 2442 998 2251 1171 2130 
C 883 1983 211 1634 211 934 
C 211 279 838 -128 1459 -128 
C 2144 -128 2720 362 2720 1010 
C 2720 1590 2330 1857 2074 2029 
L 1741 2264 
z
M 902 2822 
C 851 2854 595 3051 595 3351 
C 595 3739 998 4032 1459 4032 
C 1965 4032 2336 3676 2336 3262 
C 2336 2669 1670 2331 1638 2331 
C 1632 2331 1626 2331 1574 2370 
L 902 2822 
z
M 2080 1519 
C 2176 1449 2483 1240 2483 851 
C 2483 381 2010 25 1472 25 
C 890 25 448 438 448 940 
C 448 1443 838 1862 1280 2060 
L 2080 1519 
z
" transform="scale(0.015625)"/>
     </defs>
     <use xlink:href="#CMR17-38" transform="scale(0.996264)"/>
     <use xlink:href="#CMMI12-49" transform="translate(45.690477 0) scale(0.996264)"/>
     <use xlink:href="#CMR17-30" transform="translate(88.714653 -14.943915) scale(0.697382)"/>
    </g>
   </g>
   <g id="patch_29">
    <path d="M 305.5856 128.256 
C 306.731277 128.256 307.830185 127.800818 308.640301 126.990701 
C 309.450418 126.180585 309.9056 125.081677 309.9056 123.936 
C 309.9056 122.790323 309.450418 121.691415 308.640301 120.881299 
C 307.830185 120.071182 306.731277 119.616 305.5856 119.616 
C 304.439923 119.616 303.341015 120.071182 302.530899 120.881299 
C 301.720782 121.691415 301.2656 122.790323 301.2656 123.936 
C 301.2656 125.081677 301.720782 126.180585 302.530899 126.990701 
C 303.341015 127.800818 304.439923 128.256 305.5856 128.256 
z
" clip-path="url(#p7345b277bc)" style="fill: #ffffff; stroke: #000000; stroke-width: 2; stroke-linejoin: miter"/>
   </g>
   <g id="patch_30">
    <path d="M 305.5856 155.616 
C 306.731277 155.616 307.830185 155.160818 308.640301 154.350701 
C 309.450418 153.540585 309.9056 152.441677 309.9056 151.296 
C 309.9056 150.150323 309.450418 149.051415 308.640301 148.241299 
C 307.830185 147.431182 306.731277 146.976 305.5856 146.976 
C 304.439923 146.976 303.341015 147.431182 302.530899 148.241299 
C 301.720782 149.051415 301.2656 150.150323 301.2656 151.296 
C 301.2656 152.441677 301.720782 153.540585 302.530899 154.350701 
C 303.341015 155.160818 304.439923 155.616 305.5856 155.616 
z
" clip-path="url(#p7345b277bc)" style="fill: #ffffff; stroke: #000000; stroke-width: 2; stroke-linejoin: miter"/>
   </g>
   <g id="text_9">
    <!-- $D_3$ -->
    <g transform="translate(279.127452 141.601056) scale(0.16 -0.16)">
     <defs>
      <path id="CMR17-33" d="M 1414 2157 
C 1984 2157 2234 1662 2234 1090 
C 2234 320 1824 25 1453 25 
C 1114 25 563 194 390 693 
C 422 680 454 680 486 680 
C 640 680 755 782 755 948 
C 755 1133 614 1216 486 1216 
C 378 1216 211 1165 211 926 
C 211 335 787 -128 1466 -128 
C 2176 -128 2720 430 2720 1085 
C 2720 1707 2208 2157 1600 2227 
C 2086 2328 2554 2756 2554 3329 
C 2554 3820 2048 4179 1472 4179 
C 890 4179 378 3829 378 3329 
C 378 3110 544 3072 627 3072 
C 762 3072 877 3155 877 3321 
C 877 3486 762 3569 627 3569 
C 602 3569 570 3569 544 3557 
C 730 3959 1235 4032 1459 4032 
C 1683 4032 2106 3925 2106 3320 
C 2106 3143 2080 2828 1862 2550 
C 1670 2304 1453 2304 1242 2284 
C 1210 2284 1062 2269 1037 2269 
C 992 2263 966 2257 966 2208 
C 966 2163 973 2157 1101 2157 
L 1414 2157 
z
" transform="scale(0.015625)"/>
     </defs>
     <use xlink:href="#CMMI12-44" transform="scale(0.996264)"/>
     <use xlink:href="#CMR17-33" transform="translate(80.99423 -14.943915) scale(0.697382)"/>
    </g>
   </g>
   <g id="patch_31">
    <path d="M 305.5856 194.316 
C 306.301648 194.316 306.988466 194.031511 307.494788 193.525188 
C 308.001111 193.018866 308.2856 192.332048 308.2856 191.616 
C 308.2856 190.899952 308.001111 190.213134 307.494788 189.706812 
C 306.988466 189.200489 306.301648 188.916 305.5856 188.916 
C 304.869552 188.916 304.182734 189.200489 303.676412 189.706812 
C 303.170089 190.213134 302.8856 190.899952 302.8856 191.616 
C 302.8856 192.332048 303.170089 193.018866 303.676412 193.525188 
C 304.182734 194.031511 304.869552 194.316 305.5856 194.316 
z
" clip-path="url(#p7345b277bc)" style="stroke: #000000; stroke-width: 2; stroke-linejoin: miter"/>
   </g>
   <g id="patch_32">
    <path d="M 395.5856 14.316 
C 396.301648 14.316 396.988466 14.031511 397.494788 13.525188 
C 398.001111 13.018866 398.2856 12.332048 398.2856 11.616 
C 398.2856 10.899952 398.001111 10.213134 397.494788 9.706812 
C 396.988466 9.200489 396.301648 8.916 395.5856 8.916 
C 394.869552 8.916 394.182734 9.200489 393.676412 9.706812 
C 393.170089 10.213134 392.8856 10.899952 392.8856 11.616 
C 392.8856 12.332048 393.170089 13.018866 393.676412 13.525188 
C 394.182734 14.031511 394.869552 14.316 395.5856 14.316 
z
" clip-path="url(#p7345b277bc)" style="stroke: #000000; stroke-width: 2; stroke-linejoin: miter"/>
   </g>
   <g id="text_10">
    <!-- $16 I_0$ -->
    <g transform="translate(345.914688 69.601056) scale(0.16 -0.16)">
     <defs>
      <path id="CMR17-36" d="M 678 2176 
C 678 3690 1395 4032 1811 4032 
C 1946 4032 2272 4009 2400 3776 
C 2298 3776 2106 3776 2106 3553 
C 2106 3381 2246 3323 2336 3323 
C 2394 3323 2566 3348 2566 3560 
C 2566 3954 2246 4179 1805 4179 
C 1043 4179 243 3390 243 1984 
C 243 253 966 -128 1478 -128 
C 2099 -128 2688 427 2688 1283 
C 2688 2081 2170 2662 1517 2662 
C 1126 2662 838 2407 678 1960 
L 678 2176 
z
M 1478 25 
C 691 25 691 1200 691 1436 
C 691 1896 909 2560 1504 2560 
C 1613 2560 1926 2560 2138 2120 
C 2253 1870 2253 1609 2253 1289 
C 2253 944 2253 690 2118 434 
C 1978 171 1773 25 1478 25 
z
" transform="scale(0.015625)"/>
     </defs>
     <use xlink:href="#CMR17-31" transform="scale(0.996264)"/>
     <use xlink:href="#CMR17-36" transform="translate(45.690477 0) scale(0.996264)"/>
     <use xlink:href="#CMMI12-49" transform="translate(91.380954 0) scale(0.996264)"/>
     <use xlink:href="#CMR17-30" transform="translate(134.40513 -14.943915) scale(0.697382)"/>
    </g>
   </g>
   <g id="patch_33">
    <path d="M 395.5856 128.256 
C 396.731277 128.256 397.830185 127.800818 398.640301 126.990701 
C 399.450418 126.180585 399.9056 125.081677 399.9056 123.936 
C 399.9056 122.790323 399.450418 121.691415 398.640301 120.881299 
C 397.830185 120.071182 396.731277 119.616 395.5856 119.616 
C 394.439923 119.616 393.341015 120.071182 392.530899 120.881299 
C 391.720782 121.691415 391.2656 122.790323 391.2656 123.936 
C 391.2656 125.081677 391.720782 126.180585 392.530899 126.990701 
C 393.341015 127.800818 394.439923 128.256 395.5856 128.256 
z
" clip-path="url(#p7345b277bc)" style="fill: #ffffff; stroke: #000000; stroke-width: 2; stroke-linejoin: miter"/>
   </g>
   <g id="patch_34">
    <path d="M 395.5856 155.616 
C 396.731277 155.616 397.830185 155.160818 398.640301 154.350701 
C 399.450418 153.540585 399.9056 152.441677 399.9056 151.296 
C 399.9056 150.150323 399.450418 149.051415 398.640301 148.241299 
C 397.830185 147.431182 396.731277 146.976 395.5856 146.976 
C 394.439923 146.976 393.341015 147.431182 392.530899 148.241299 
C 391.720782 149.051415 391.2656 150.150323 391.2656 151.296 
C 391.2656 152.441677 391.720782 153.540585 392.530899 154.350701 
C 393.341015 155.160818 394.439923 155.616 395.5856 155.616 
z
" clip-path="url(#p7345b277bc)" style="fill: #ffffff; stroke: #000000; stroke-width: 2; stroke-linejoin: miter"/>
   </g>
   <g id="text_11">
    <!-- $D_4$ -->
    <g transform="translate(369.127452 141.601056) scale(0.16 -0.16)">
     <use xlink:href="#CMMI12-44" transform="scale(0.996264)"/>
     <use xlink:href="#CMR17-34" transform="translate(80.99423 -14.943915) scale(0.697382)"/>
    </g>
   </g>
   <g id="patch_35">
    <path d="M 395.5856 194.316 
C 396.301648 194.316 396.988466 194.031511 397.494788 193.525188 
C 398.001111 193.018866 398.2856 192.332048 398.2856 191.616 
C 398.2856 190.899952 398.001111 190.213134 397.494788 189.706812 
C 396.988466 189.200489 396.301648 188.916 395.5856 188.916 
C 394.869552 188.916 394.182734 189.200489 393.676412 189.706812 
C 393.170089 190.213134 392.8856 190.899952 392.8856 191.616 
C 392.8856 192.332048 393.170089 193.018866 393.676412 193.525188 
C 394.182734 194.031511 394.869552 194.316 395.5856 194.316 
z
" clip-path="url(#p7345b277bc)" style="stroke: #000000; stroke-width: 2; stroke-linejoin: miter"/>
   </g>
   <g id="patch_36">
    <path d="M 485.5856 14.316 
C 486.301648 14.316 486.988466 14.031511 487.494788 13.525188 
C 488.001111 13.018866 488.2856 12.332048 488.2856 11.616 
C 488.2856 10.899952 488.001111 10.213134 487.494788 9.706812 
C 486.988466 9.200489 486.301648 8.916 485.5856 8.916 
C 484.869552 8.916 484.182734 9.200489 483.676412 9.706812 
C 483.170089 10.213134 482.8856 10.899952 482.8856 11.616 
C 482.8856 12.332048 483.170089 13.018866 483.676412 13.525188 
C 484.182734 14.031511 484.869552 14.316 485.5856 14.316 
z
" clip-path="url(#p7345b277bc)" style="stroke: #000000; stroke-width: 2; stroke-linejoin: miter"/>
   </g>
   <g id="text_12">
    <!-- $32 I_0$ -->
    <g transform="translate(435.914688 69.601056) scale(0.16 -0.16)">
     <use xlink:href="#CMR17-33" transform="scale(0.996264)"/>
     <use xlink:href="#CMR17-32" transform="translate(45.690477 0) scale(0.996264)"/>
     <use xlink:href="#CMMI12-49" transform="translate(91.380954 0) scale(0.996264)"/>
     <use xlink:href="#CMR17-30" transform="translate(134.40513 -14.943915) scale(0.697382)"/>
    </g>
   </g>
   <g id="patch_37">
    <path d="M 485.5856 128.256 
C 486.731277 128.256 487.830185 127.800818 488.640301 126.990701 
C 489.450418 126.180585 489.9056 125.081677 489.9056 123.936 
C 489.9056 122.790323 489.450418 121.691415 488.640301 120.881299 
C 487.830185 120.071182 486.731277 119.616 485.5856 119.616 
C 484.439923 119.616 483.341015 120.071182 482.530899 120.881299 
C 481.720782 121.691415 481.2656 122.790323 481.2656 123.936 
C 481.2656 125.081677 481.720782 126.180585 482.530899 126.990701 
C 483.341015 127.800818 484.439923 128.256 485.5856 128.256 
z
" clip-path="url(#p7345b277bc)" style="fill: #ffffff; stroke: #000000; stroke-width: 2; stroke-linejoin: miter"/>
   </g>
   <g id="patch_38">
    <path d="M 485.5856 155.616 
C 486.731277 155.616 487.830185 155.160818 488.640301 154.350701 
C 489.450418 153.540585 489.9056 152.441677 489.9056 151.296 
C 489.9056 150.150323 489.450418 149.051415 488.640301 148.241299 
C 487.830185 147.431182 486.731277 146.976 485.5856 146.976 
C 484.439923 146.976 483.341015 147.431182 482.530899 148.241299 
C 481.720782 149.051415 481.2656 150.150323 481.2656 151.296 
C 481.2656 152.441677 481.720782 153.540585 482.530899 154.350701 
C 483.341015 155.160818 484.439923 155.616 485.5856 155.616 
z
" clip-path="url(#p7345b277bc)" style="fill: #ffffff; stroke: #000000; stroke-width: 2; stroke-linejoin: miter"/>
   </g>
   <g id="text_13">
    <!-- $D_5$ -->
    <g transform="translate(459.127452 141.601056) scale(0.16 -0.16)">
     <defs>
      <path id="CMR17-35" d="M 730 3692 
C 794 3666 1056 3584 1325 3584 
C 1920 3584 2246 3911 2432 4100 
C 2432 4157 2432 4192 2394 4192 
C 2387 4192 2374 4192 2323 4163 
C 2099 4058 1837 3973 1517 3973 
C 1325 3973 1037 3999 723 4139 
C 653 4171 640 4171 634 4171 
C 602 4171 595 4164 595 4037 
L 595 2203 
C 595 2089 595 2057 659 2057 
C 691 2057 704 2070 736 2114 
C 941 2401 1222 2522 1542 2522 
C 1766 2522 2246 2382 2246 1289 
C 2246 1085 2246 715 2054 421 
C 1894 159 1645 25 1370 25 
C 947 25 518 320 403 814 
C 429 807 480 795 506 795 
C 589 795 749 840 749 1038 
C 749 1210 627 1280 506 1280 
C 358 1280 262 1190 262 1011 
C 262 454 704 -128 1382 -128 
C 2042 -128 2669 440 2669 1264 
C 2669 2030 2170 2624 1549 2624 
C 1222 2624 947 2503 730 2274 
L 730 3692 
z
" transform="scale(0.015625)"/>
     </defs>
     <use xlink:href="#CMMI12-44" transform="scale(0.996264)"/>
     <use xlink:href="#CMR17-35" transform="translate(80.99423 -14.943915) scale(0.697382)"/>
    </g>
   </g>
   <g id="patch_39">
    <path d="M 485.5856 194.316 
C 486.301648 194.316 486.988466 194.031511 487.494788 193.525188 
C 488.001111 193.018866 488.2856 192.332048 488.2856 191.616 
C 488.2856 190.899952 488.001111 190.213134 487.494788 189.706812 
C 486.988466 189.200489 486.301648 188.916 485.5856 188.916 
C 484.869552 188.916 484.182734 189.200489 483.676412 189.706812 
C 483.170089 190.213134 482.8856 190.899952 482.8856 191.616 
C 482.8856 192.332048 483.170089 193.018866 483.676412 193.525188 
C 484.182734 194.031511 484.869552 194.316 485.5856 194.316 
z
" clip-path="url(#p7345b277bc)" style="stroke: #000000; stroke-width: 2; stroke-linejoin: miter"/>
   </g>
   <g id="patch_40">
    <path d="M 575.5856 14.316 
C 576.301648 14.316 576.988466 14.031511 577.494788 13.525188 
C 578.001111 13.018866 578.2856 12.332048 578.2856 11.616 
C 578.2856 10.899952 578.001111 10.213134 577.494788 9.706812 
C 576.988466 9.200489 576.301648 8.916 575.5856 8.916 
C 574.869552 8.916 574.182734 9.200489 573.676412 9.706812 
C 573.170089 10.213134 572.8856 10.899952 572.8856 11.616 
C 572.8856 12.332048 573.170089 13.018866 573.676412 13.525188 
C 574.182734 14.031511 574.869552 14.316 575.5856 14.316 
z
" clip-path="url(#p7345b277bc)" style="stroke: #000000; stroke-width: 2; stroke-linejoin: miter"/>
   </g>
   <g id="text_14">
    <!-- $64 I_0$ -->
    <g transform="translate(525.914688 69.601056) scale(0.16 -0.16)">
     <use xlink:href="#CMR17-36" transform="scale(0.996264)"/>
     <use xlink:href="#CMR17-34" transform="translate(45.690477 0) scale(0.996264)"/>
     <use xlink:href="#CMMI12-49" transform="translate(91.380954 0) scale(0.996264)"/>
     <use xlink:href="#CMR17-30" transform="translate(134.40513 -14.943915) scale(0.697382)"/>
    </g>
   </g>
   <g id="patch_41">
    <path d="M 575.5856 128.256 
C 576.731277 128.256 577.830185 127.800818 578.640301 126.990701 
C 579.450418 126.180585 579.9056 125.081677 579.9056 123.936 
C 579.9056 122.790323 579.450418 121.691415 578.640301 120.881299 
C 577.830185 120.071182 576.731277 119.616 575.5856 119.616 
C 574.439923 119.616 573.341015 120.071182 572.530899 120.881299 
C 571.720782 121.691415 571.2656 122.790323 571.2656 123.936 
C 571.2656 125.081677 571.720782 126.180585 572.530899 126.990701 
C 573.341015 127.800818 574.439923 128.256 575.5856 128.256 
z
" clip-path="url(#p7345b277bc)" style="fill: #ffffff; stroke: #000000; stroke-width: 2; stroke-linejoin: miter"/>
   </g>
   <g id="patch_42">
    <path d="M 575.5856 155.616 
C 576.731277 155.616 577.830185 155.160818 578.640301 154.350701 
C 579.450418 153.540585 579.9056 152.441677 579.9056 151.296 
C 579.9056 150.150323 579.450418 149.051415 578.640301 148.241299 
C 577.830185 147.431182 576.731277 146.976 575.5856 146.976 
C 574.439923 146.976 573.341015 147.431182 572.530899 148.241299 
C 571.720782 149.051415 571.2656 150.150323 571.2656 151.296 
C 571.2656 152.441677 571.720782 153.540585 572.530899 154.350701 
C 573.341015 155.160818 574.439923 155.616 575.5856 155.616 
z
" clip-path="url(#p7345b277bc)" style="fill: #ffffff; stroke: #000000; stroke-width: 2; stroke-linejoin: miter"/>
   </g>
   <g id="text_15">
    <!-- $D_6$ -->
    <g transform="translate(549.127452 141.601056) scale(0.16 -0.16)">
     <use xlink:href="#CMMI12-44" transform="scale(0.996264)"/>
     <use xlink:href="#CMR17-36" transform="translate(80.99423 -14.943915) scale(0.697382)"/>
    </g>
   </g>
   <g id="patch_43">
    <path d="M 575.5856 194.316 
C 576.301648 194.316 576.988466 194.031511 577.494788 193.525188 
C 578.001111 193.018866 578.2856 192.332048 578.2856 191.616 
C 578.2856 190.899952 578.001111 190.213134 577.494788 189.706812 
C 576.988466 189.200489 576.301648 188.916 575.5856 188.916 
C 574.869552 188.916 574.182734 189.200489 573.676412 189.706812 
C 573.170089 190.213134 572.8856 190.899952 572.8856 191.616 
C 572.8856 192.332048 573.170089 193.018866 573.676412 193.525188 
C 574.182734 194.031511 574.869552 194.316 575.5856 194.316 
z
" clip-path="url(#p7345b277bc)" style="stroke: #000000; stroke-width: 2; stroke-linejoin: miter"/>
   </g>
   <g id="patch_44">
    <path d="M 665.5856 14.316 
C 666.301648 14.316 666.988466 14.031511 667.494788 13.525188 
C 668.001111 13.018866 668.2856 12.332048 668.2856 11.616 
C 668.2856 10.899952 668.001111 10.213134 667.494788 9.706812 
C 666.988466 9.200489 666.301648 8.916 665.5856 8.916 
C 664.869552 8.916 664.182734 9.200489 663.676412 9.706812 
C 663.170089 10.213134 662.8856 10.899952 662.8856 11.616 
C 662.8856 12.332048 663.170089 13.018866 663.676412 13.525188 
C 664.182734 14.031511 664.869552 14.316 665.5856 14.316 
z
" clip-path="url(#p7345b277bc)" style="stroke: #000000; stroke-width: 2; stroke-linejoin: miter"/>
   </g>
   <g id="text_16">
    <!-- $128 I_0$ -->
    <g transform="translate(608.110701 69.601056) scale(0.16 -0.16)">
     <use xlink:href="#CMR17-31" transform="scale(0.996264)"/>
     <use xlink:href="#CMR17-32" transform="translate(45.690477 0) scale(0.996264)"/>
     <use xlink:href="#CMR17-38" transform="translate(91.380954 0) scale(0.996264)"/>
     <use xlink:href="#CMMI12-49" transform="translate(137.071431 0) scale(0.996264)"/>
     <use xlink:href="#CMR17-30" transform="translate(180.095607 -14.943915) scale(0.697382)"/>
    </g>
   </g>
   <g id="patch_45">
    <path d="M 665.5856 128.256 
C 666.731277 128.256 667.830185 127.800818 668.640301 126.990701 
C 669.450418 126.180585 669.9056 125.081677 669.9056 123.936 
C 669.9056 122.790323 669.450418 121.691415 668.640301 120.881299 
C 667.830185 120.071182 666.731277 119.616 665.5856 119.616 
C 664.439923 119.616 663.341015 120.071182 662.530899 120.881299 
C 661.720782 121.691415 661.2656 122.790323 661.2656 123.936 
C 661.2656 125.081677 661.720782 126.180585 662.530899 126.990701 
C 663.341015 127.800818 664.439923 128.256 665.5856 128.256 
z
" clip-path="url(#p7345b277bc)" style="fill: #ffffff; stroke: #000000; stroke-width: 2; stroke-linejoin: miter"/>
   </g>
   <g id="patch_46">
    <path d="M 665.5856 155.616 
C 666.731277 155.616 667.830185 155.160818 668.640301 154.350701 
C 669.450418 153.540585 669.9056 152.441677 669.9056 151.296 
C 669.9056 150.150323 669.450418 149.051415 668.640301 148.241299 
C 667.830185 147.431182 666.731277 146.976 665.5856 146.976 
C 664.439923 146.976 663.341015 147.431182 662.530899 148.241299 
C 661.720782 149.051415 661.2656 150.150323 661.2656 151.296 
C 661.2656 152.441677 661.720782 153.540585 662.530899 154.350701 
C 663.341015 155.160818 664.439923 155.616 665.5856 155.616 
z
" clip-path="url(#p7345b277bc)" style="fill: #ffffff; stroke: #000000; stroke-width: 2; stroke-linejoin: miter"/>
   </g>
   <g id="text_17">
    <!-- $D_7$ -->
    <g transform="translate(639.127452 141.601056) scale(0.16 -0.16)">
     <defs>
      <path id="CMR17-37" d="M 2886 3941 
L 2886 4081 
L 1382 4081 
C 634 4081 621 4165 595 4288 
L 480 4288 
L 294 3094 
L 410 3094 
C 429 3215 474 3540 550 3661 
C 589 3712 1062 3712 1171 3712 
L 2579 3712 
L 1869 2661 
C 1395 1954 1069 999 1069 165 
C 1069 89 1069 -128 1299 -128 
C 1530 -128 1530 89 1530 171 
L 1530 465 
C 1530 1508 1709 2196 2003 2636 
L 2886 3941 
z
" transform="scale(0.015625)"/>
     </defs>
     <use xlink:href="#CMMI12-44" transform="scale(0.996264)"/>
     <use xlink:href="#CMR17-37" transform="translate(80.99423 -14.943915) scale(0.697382)"/>
    </g>
   </g>
   <g id="patch_47">
    <path d="M 665.5856 194.316 
C 666.301648 194.316 666.988466 194.031511 667.494788 193.525188 
C 668.001111 193.018866 668.2856 192.332048 668.2856 191.616 
C 668.2856 190.899952 668.001111 190.213134 667.494788 189.706812 
C 666.988466 189.200489 666.301648 188.916 665.5856 188.916 
C 664.869552 188.916 664.182734 189.200489 663.676412 189.706812 
C 663.170089 190.213134 662.8856 190.899952 662.8856 191.616 
C 662.8856 192.332048 663.170089 193.018866 663.676412 193.525188 
C 664.182734 194.031511 664.869552 194.316 665.5856 194.316 
z
" clip-path="url(#p7345b277bc)" style="stroke: #000000; stroke-width: 2; stroke-linejoin: miter"/>
   </g>
   <g id="text_18">
    <!-- $R_\mathrm{I2U}$ -->
    <g transform="translate(623.128494 249.601056) scale(0.16 -0.16)">
     <defs>
      <path id="CMMI12-52" d="M 2355 3924 
C 2413 4160 2438 4160 2688 4160 
L 3149 4160 
C 3699 4160 4109 3995 4109 3499 
C 4109 3175 3942 2240 2656 2240 
L 1933 2240 
L 2355 3924 
z
M 3245 2169 
C 4038 2341 4659 2851 4659 3398 
C 4659 3894 4154 4352 3264 4352 
L 1530 4352 
C 1402 4352 1344 4352 1344 4226 
C 1344 4160 1389 4160 1510 4160 
C 1894 4160 1894 4112 1894 4045 
C 1894 4033 1894 3994 1869 3899 
L 1005 479 
C 947 256 934 192 493 192 
C 346 192 301 192 301 71 
C 301 7 371 7 390 7 
C 506 7 640 7 762 7 
L 1517 7 
C 1632 7 1766 7 1882 7 
C 1933 7 2003 7 2003 128 
C 2003 192 1946 192 1850 192 
C 1459 192 1459 243 1459 306 
C 1459 313 1459 357 1472 407 
L 1901 2112 
L 2669 2112 
C 3277 2112 3392 1731 3392 1522 
C 3392 1427 3328 1179 3283 1014 
C 3213 723 3194 652 3194 532 
C 3194 82 3565 -128 3994 -128 
C 4512 -128 4736 501 4736 591 
C 4736 635 4704 654 4666 654 
C 4614 654 4602 616 4589 565 
C 4435 114 4173 0 4013 0 
C 3853 0 3750 70 3750 356 
C 3750 509 3827 1088 3834 1120 
C 3866 1355 3866 1380 3866 1432 
C 3866 1896 3488 2093 3245 2169 
z
" transform="scale(0.015625)"/>
      <path id="CMR17-49" d="M 1261 3905 
C 1261 4192 1338 4192 1798 4192 
L 1798 4352 
C 1594 4352 1267 4352 1050 4352 
C 832 4352 506 4352 301 4352 
L 301 4192 
C 762 4192 838 4192 838 3905 
L 838 447 
C 838 160 762 160 301 160 
L 301 0 
C 506 0 832 0 1050 0 
C 1267 0 1594 0 1798 0 
L 1798 160 
C 1338 160 1261 160 1261 447 
L 1261 3905 
z
" transform="scale(0.015625)"/>
      <path id="CMR17-55" d="M 3456 1433 
C 3456 579 2899 38 2291 38 
C 1965 38 1670 210 1491 477 
C 1286 783 1261 1178 1261 1401 
L 1261 3874 
C 1261 4160 1331 4160 1773 4160 
L 1773 4320 
C 1587 4320 1248 4320 1050 4320 
C 851 4320 512 4320 326 4320 
L 326 4160 
C 768 4160 838 4160 838 3874 
L 838 1433 
C 838 516 1536 -128 2278 -128 
C 3110 -128 3590 719 3590 1344 
L 3590 3766 
C 3590 4122 3917 4160 4102 4160 
L 4102 4326 
C 3955 4320 3686 4320 3526 4320 
C 3366 4320 3091 4320 2944 4326 
L 2944 4160 
C 3456 4160 3456 3861 3456 3702 
L 3456 1433 
z
" transform="scale(0.015625)"/>
     </defs>
     <use xlink:href="#CMMI12-52" transform="scale(0.996264)"/>
     <use xlink:href="#CMR17-49" transform="translate(74.250826 -14.943915) scale(0.697382)"/>
     <use xlink:href="#CMR17-32" transform="translate(97.097615 -14.943915) scale(0.697382)"/>
     <use xlink:href="#CMR17-55" transform="translate(129.080797 -14.943915) scale(0.697382)"/>
    </g>
   </g>
   <g id="patch_48">
    <path d="M 773.5856 302.316 
C 774.301648 302.316 774.988466 302.031511 775.494788 301.525188 
C 776.001111 301.018866 776.2856 300.332048 776.2856 299.616 
C 776.2856 298.899952 776.001111 298.213134 775.494788 297.706812 
C 774.988466 297.200489 774.301648 296.916 773.5856 296.916 
C 772.869552 296.916 772.182734 297.200489 771.676412 297.706812 
C 771.170089 298.213134 770.8856 298.899952 770.8856 299.616 
C 770.8856 300.332048 771.170089 301.018866 771.676412 301.525188 
C 772.182734 302.031511 772.869552 302.316 773.5856 302.316 
z
" clip-path="url(#p7345b277bc)" style="fill: #ffffff; stroke: #000000; stroke-width: 2; stroke-linejoin: miter"/>
   </g>
   <g id="text_19">
    <!-- $V_\mathrm{SS}$ -->
    <g transform="translate(779.8856 303.601056) scale(0.16 -0.16)">
     <defs>
      <path id="CMMI12-56" d="M 3962 3640 
C 4179 3984 4378 4136 4704 4162 
C 4768 4168 4819 4168 4819 4282 
C 4819 4308 4806 4346 4749 4346 
C 4634 4346 4358 4346 4243 4346 
C 4058 4346 3866 4346 3686 4346 
C 3635 4346 3571 4346 3571 4226 
C 3571 4168 3629 4162 3654 4162 
C 3891 4143 3917 4029 3917 3952 
C 3917 3857 3827 3710 3821 3704 
L 1811 540 
L 1363 3969 
C 1363 4160 1696 4160 1766 4160 
C 1862 4160 1920 4160 1920 4282 
C 1920 4346 1850 4346 1830 4346 
C 1722 4346 1594 4346 1485 4346 
L 1126 4346 
C 659 4346 467 4346 461 4346 
C 422 4346 346 4346 346 4230 
C 346 4160 390 4160 493 4160 
C 819 4160 838 4102 858 3944 
L 1370 24 
C 1389 -109 1389 -128 1478 -128 
C 1555 -128 1587 -109 1651 -8 
L 3962 3640 
z
" transform="scale(0.015625)"/>
      <path id="CMR17-53" d="M 2803 4290 
C 2803 4404 2797 4411 2758 4411 
C 2720 4411 2707 4385 2682 4328 
L 2490 3907 
C 2246 4257 1875 4416 1472 4416 
C 819 4416 294 3901 294 3253 
C 294 3056 339 2776 557 2510 
C 794 2218 1018 2167 1530 2033 
C 1722 1982 2042 1899 2106 1874 
C 2470 1722 2662 1341 2662 985 
C 2662 527 2336 38 1779 38 
C 1094 38 454 419 410 1311 
C 403 1413 397 1419 352 1419 
C 301 1419 294 1413 294 1285 
L 294 -1 
C 294 -115 301 -122 339 -122 
C 384 -122 397 -90 486 108 
C 493 127 493 140 614 381 
C 934 -39 1472 -128 1779 -128 
C 2477 -128 2970 451 2970 1124 
C 2970 1454 2848 1708 2778 1823 
C 2509 2230 2221 2306 1914 2382 
C 1869 2402 1856 2402 1498 2490 
C 1152 2579 1005 2624 845 2796 
C 666 2992 602 3196 602 3399 
C 602 3812 934 4263 1478 4263 
C 2157 4263 2579 3786 2675 2993 
C 2694 2878 2701 2872 2746 2872 
C 2803 2872 2803 2891 2803 2999 
L 2803 4290 
z
" transform="scale(0.015625)"/>
     </defs>
     <use xlink:href="#CMMI12-56" transform="scale(0.996264)"/>
     <use xlink:href="#CMR17-53" transform="translate(56.869579 -14.943915) scale(0.697382)"/>
     <use xlink:href="#CMR17-53" transform="translate(92.496187 -14.943915) scale(0.697382)"/>
    </g>
   </g>
   <g id="patch_49">
    <path d="M 773.5856 14.316 
C 774.301648 14.316 774.988466 14.031511 775.494788 13.525188 
C 776.001111 13.018866 776.2856 12.332048 776.2856 11.616 
C 776.2856 10.899952 776.001111 10.213134 775.494788 9.706812 
C 774.988466 9.200489 774.301648 8.916 773.5856 8.916 
C 772.869552 8.916 772.182734 9.200489 771.676412 9.706812 
C 771.170089 10.213134 770.8856 10.899952 770.8856 11.616 
C 770.8856 12.332048 771.170089 13.018866 771.676412 13.525188 
C 772.182734 14.031511 772.869552 14.316 773.5856 14.316 
z
" clip-path="url(#p7345b277bc)" style="fill: #ffffff; stroke: #000000; stroke-width: 2; stroke-linejoin: miter"/>
   </g>
   <g id="text_20">
    <!-- $V_\mathrm{DD}$ -->
    <g transform="translate(779.8856 15.601056) scale(0.16 -0.16)">
     <defs>
      <path id="CMR17-44" d="M 333 4352 
L 333 4186 
C 774 4186 845 4186 845 3900 
L 845 452 
C 845 166 774 166 333 166 
L 333 0 
L 2368 0 
C 3398 0 4224 943 4224 2141 
C 4224 3346 3411 4352 2368 4352 
L 333 4352 
z
M 1523 166 
C 1267 166 1254 197 1254 414 
L 1254 3938 
C 1254 4155 1267 4186 1523 4186 
L 2240 4186 
C 2771 4186 3750 3874 3750 2141 
C 3750 1242 3488 879 3366 707 
C 3213 510 2848 166 2240 166 
L 1523 166 
z
" transform="scale(0.015625)"/>
     </defs>
     <use xlink:href="#CMMI12-56" transform="scale(0.996264)"/>
     <use xlink:href="#CMR17-44" transform="translate(56.869579 -14.943915) scale(0.697382)"/>
     <use xlink:href="#CMR17-44" transform="translate(106.144849 -14.943915) scale(0.697382)"/>
    </g>
   </g>
   <g id="patch_50">
    <path d="M 773.5856 194.316 
C 774.301648 194.316 774.988466 194.031511 775.494788 193.525188 
C 776.001111 193.018866 776.2856 192.332048 776.2856 191.616 
C 776.2856 190.899952 776.001111 190.213134 775.494788 189.706812 
C 774.988466 189.200489 774.301648 188.916 773.5856 188.916 
C 772.869552 188.916 772.182734 189.200489 771.676412 189.706812 
C 771.170089 190.213134 770.8856 190.899952 770.8856 191.616 
C 770.8856 192.332048 771.170089 193.018866 771.676412 193.525188 
C 772.182734 194.031511 772.869552 194.316 773.5856 194.316 
z
" clip-path="url(#p7345b277bc)" style="fill: #ffffff; stroke: #000000; stroke-width: 2; stroke-linejoin: miter"/>
   </g>
   <g id="text_21">
    <!-- $V_\mathrm{out}$ -->
    <g transform="translate(779.8856 195.601056) scale(0.16 -0.16)">
     <defs>
      <path id="CMR17-6f" d="M 2758 1356 
C 2758 2176 2163 2816 1466 2816 
C 768 2816 173 2176 173 1356 
C 173 551 768 -64 1466 -64 
C 2163 -64 2758 551 2758 1356 
z
M 1466 51 
C 1165 51 909 230 762 480 
C 602 767 582 1126 582 1408 
C 582 1677 595 2010 762 2298 
C 890 2509 1139 2714 1466 2714 
C 1754 2714 1997 2554 2150 2330 
C 2349 2029 2349 1607 2349 1408 
C 2349 1158 2336 775 2163 467 
C 1984 173 1709 51 1466 51 
z
" transform="scale(0.015625)"/>
      <path id="CMR17-75" d="M 1882 2693 
L 1882 2528 
C 2259 2528 2317 2489 2317 2186 
L 2317 1032 
C 2317 500 2029 38 1555 38 
C 1030 38 986 348 986 678 
L 986 2763 
L 211 2693 
L 211 2528 
C 467 2528 640 2528 646 2274 
L 646 1058 
C 646 633 646 361 813 183 
C 896 101 1056 -64 1517 -64 
C 2061 -64 2272 377 2323 506 
L 2330 506 
L 2330 -63 
L 3091 -63 
L 3091 128 
C 2714 128 2656 166 2656 473 
L 2656 2763 
L 1882 2693 
z
" transform="scale(0.015625)"/>
     </defs>
     <use xlink:href="#CMMI12-56" transform="scale(0.996264)"/>
     <use xlink:href="#CMR17-6f" transform="translate(56.869579 -14.943915) scale(0.697382)"/>
     <use xlink:href="#CMR17-75" transform="translate(88.852761 -14.943915) scale(0.697382)"/>
     <use xlink:href="#CMR17-74" transform="translate(124.479369 -14.943915) scale(0.697382)"/>
    </g>
   </g>
  </g>
 </g>
 <defs>
  <clipPath id="p7345b277bc">
   <rect x="0" y="0" width="808.1064" height="311.2992"/>
  </clipPath>
 </defs>
</svg>
