M48
;GenerationSoftware,Autodesk,EAGLE,9.7.0*%
;CreationDate,2025-03-25T07:32:04Z*%
FMAT,2
ICI,OFF
METRIC,TZ,000.000
T10C0.350
T9C0.500
T8C0.800
T7C0.813
T6C0.889
T5C1.016
T4C1.321
T3C2.000
T2C2.200
T1C3.000
%
G90
M71
T1
X4000Y86000
X96000Y4000
X96000Y86000
X4000Y4000
T2
X5920Y41080
X5920Y30920
X5920Y22330
X5920Y12170
T3
X3750Y53245
X10750Y53245
T4
X17000Y17250
X6250Y73735
X6250Y78765
X28000Y58750
X28000Y17250
X17000Y58750
X28000Y47750
X17000Y47500
X17000Y36000
X45500Y13750
X72250Y43000
X72250Y54750
X84250Y66750
X25750Y28500
X41255Y25910
X40500Y86750
X28000Y36000
T5
X30690Y10500
X33230Y10500
X35770Y10500
X81751Y29989
X38310Y10500
X81751Y34511
X75249Y29989
X75249Y34511
X45460Y10500
X75249Y83489
X48000Y10500
X50540Y10500
X55000Y62730
X75249Y88011
X81751Y88011
X81751Y83489
X12020Y64250
X9480Y64250
X55000Y65270
X40500Y62730
X45750Y65270
X45750Y62730
X36500Y65270
X36500Y62730
X27250Y65270
X27250Y62730
X59000Y62730
X59000Y65270
X49750Y62730
X49750Y65270
X40500Y65270
X84250Y74790
X84250Y72250
X84250Y69710
X91250Y63230
X91250Y65770
X65730Y60250
X68270Y60250
X9480Y60250
X12020Y60250
X65730Y64250
X31250Y62730
X31250Y65270
X68270Y64250
X91250Y74790
X91250Y72250
X91250Y69710
T6
X94031Y39610
X94031Y44030
T7
X63400Y11310
X65940Y11310
X68480Y11310
X65940Y3690
X76100Y11310
X68480Y3690
X71020Y3690
X76100Y3690
X73560Y11310
X73560Y3690
X71020Y11310
X63400Y3690
T8
X11000Y14710
X11000Y36000
X11000Y33460
X11000Y17250
T9
X40500Y56250
X40250Y51500
X35000Y44250
X35000Y39500
X46500Y38250
X59750Y44500
X36250Y33250
X68270Y51625
X88250Y43250
X93250Y54500
X68250Y38250
X44000Y56250
X60000Y34250
X68250Y35000
X88250Y59375
X84000Y81000
X84125Y40000
X21750Y39500
X23750Y64250
X28750Y60750
X45250Y51000
X21750Y62250
X21750Y21250
X21750Y51250
X56750Y18750
X82500Y18750
X77750Y18750
X74750Y18750
X64750Y18750
X61500Y18750
X53625Y33250
X42500Y38250
T10
X49500Y42750
X46000Y42750
X45000Y48000
X59750Y29250
X31000Y23000
X86250Y40000
X82500Y57750
X76750Y57750
X51250Y48000
X49250Y46750
X49250Y49250
X84250Y61250
X45000Y46500
X65000Y37000
X65000Y39750
X97000Y25750
X97000Y20750
X60500Y48000
X78125Y46125
X80250Y48250
X77000Y43250
X80000Y43250
X90500Y39250
X86500Y47750
X90500Y44500
X73500Y76250
X70500Y78000
X75250Y66750
X40750Y48000
X40750Y44500
X47500Y39750
X50000Y39750
X66250Y70000
X91500Y48250
X52500Y39750
X12250Y72000
X19250Y66750
X47000Y54000
X53000Y54000
X61000Y53000
X56750Y52500
X63500Y43000
X45000Y34500
X40250Y34500
X36250Y53000
X36250Y57750
X24000Y55500
X24000Y44500
X24000Y32500
X24000Y14000
X24000Y23000
X36250Y31000
X84000Y16250
X74750Y16250
X64750Y16250
X60250Y16250
X55500Y16250
X86750Y67000
X73000Y38500
X91500Y35500
X97000Y35500
X97000Y48250
X73000Y81000
X62250Y69500
X62250Y72500
X62250Y75500
X53000Y69500
X79250Y16250
X53000Y72500
X53000Y75500
X43750Y69500
X43750Y72500
X43750Y75500
X34500Y69500
X34500Y72500
X34500Y75500
X33750Y78250
X19250Y81750
X17250Y77500
X11750Y77500
X22250Y78250
X45000Y49500
X45000Y45000
X80750Y57750
X80750Y69750
X80750Y74750
X36250Y24000
X55250Y50750
X56000Y49750
X78500Y57750
X55250Y48750
X54250Y42750
X52500Y42750
X47750Y42750
X50750Y42750
M30