<?xml version="1.0" encoding="utf-8" standalone="no"?>
<!DOCTYPE svg PUBLIC "-//W3C//DTD SVG 1.1//EN"
  "http://www.w3.org/Graphics/SVG/1.1/DTD/svg11.dtd">
<svg xmlns:xlink="http://www.w3.org/1999/xlink" width="343.1632pt" height="373.7556pt" viewBox="0 0 343.1632 373.7556" xmlns="http://www.w3.org/2000/svg" version="1.1">
 <metadata>
  <rdf:RDF xmlns:dc="http://purl.org/dc/elements/1.1/" xmlns:cc="http://creativecommons.org/ns#" xmlns:rdf="http://www.w3.org/1999/02/22-rdf-syntax-ns#">
   <cc:Work>
    <dc:type rdf:resource="http://purl.org/dc/dcmitype/StillImage"/>
    <dc:date>2025-05-30T14:32:55.349601</dc:date>
    <dc:format>image/svg+xml</dc:format>
    <dc:creator>
     <cc:Agent>
      <dc:title>Matplotlib v3.9.2, https://matplotlib.org/</dc:title>
     </cc:Agent>
    </dc:creator>
   </cc:Work>
  </rdf:RDF>
 </metadata>
 <defs>
  <style type="text/css">*{stroke-linejoin: round; stroke-linecap: butt}</style>
 </defs>
 <g id="figure_1">
  <g id="patch_1">
   <path d="M 0 373.7556 
L 343.1632 373.7556 
L 343.1632 0 
L 0 0 
L 0 373.7556 
z
" style="fill: none"/>
  </g>
  <g id="axes_1">
   <g id="patch_2">
    <path d="M 126.3464 75.0756 
C 127.110185 75.0756 127.84279 74.772145 128.382868 74.232068 
C 128.922945 73.69199 129.2264 72.959385 129.2264 72.1956 
C 129.2264 71.431815 128.922945 70.69921 128.382868 70.159132 
C 127.84279 69.619055 127.110185 69.3156 126.3464 69.3156 
C 125.582615 69.3156 124.85001 69.619055 124.309932 70.159132 
C 123.769855 70.69921 123.4664 71.431815 123.4664 72.1956 
C 123.4664 72.959385 123.769855 73.69199 124.309932 74.232068 
C 124.85001 74.772145 125.582615 75.0756 126.3464 75.0756 
L 126.3464 75.0756 
z
" clip-path="url(#p1a2c263c79)" style="fill: none; stroke: #000000; stroke-width: 2; stroke-linejoin: miter"/>
   </g>
   <g id="patch_3">
    <path d="M 126.3464 201.0756 
C 127.110185 201.0756 127.84279 200.772145 128.382868 200.232068 
C 128.922945 199.69199 129.2264 198.959385 129.2264 198.1956 
C 129.2264 197.431815 128.922945 196.69921 128.382868 196.159132 
C 127.84279 195.619055 127.110185 195.3156 126.3464 195.3156 
C 125.582615 195.3156 124.85001 195.619055 124.309932 196.159132 
C 123.769855 196.69921 123.4664 197.431815 123.4664 198.1956 
C 123.4664 198.959385 123.769855 199.69199 124.309932 200.232068 
C 124.85001 200.772145 125.582615 201.0756 126.3464 201.0756 
L 126.3464 201.0756 
z
" clip-path="url(#p1a2c263c79)" style="fill: none; stroke: #000000; stroke-width: 2; stroke-linejoin: miter"/>
   </g>
   <g id="patch_4">
    <path d="M 126.3464 327.0756 
C 127.110185 327.0756 127.84279 326.772145 128.382868 326.232068 
C 128.922945 325.69199 129.2264 324.959385 129.2264 324.1956 
C 129.2264 323.431815 128.922945 322.69921 128.382868 322.159132 
C 127.84279 321.619055 127.110185 321.3156 126.3464 321.3156 
C 125.582615 321.3156 124.85001 321.619055 124.309932 322.159132 
C 123.769855 322.69921 123.4664 323.431815 123.4664 324.1956 
C 123.4664 324.959385 123.769855 325.69199 124.309932 326.232068 
C 124.85001 326.772145 125.582615 327.0756 126.3464 327.0756 
L 126.3464 327.0756 
z
" clip-path="url(#p1a2c263c79)" style="fill: none; stroke: #000000; stroke-width: 2; stroke-linejoin: miter"/>
   </g>
   <g id="line2d_1">
    <path d="M 24.6464 185.2356 
L 42.6464 185.2356 
L 60.6464 185.2356 
" clip-path="url(#p1a2c263c79)" style="fill: none; stroke: #000000; stroke-width: 2; stroke-linecap: round"/>
   </g>
   <g id="line2d_2">
    <path d="M 60.6464 185.2356 
L 60.6464 122.2356 
L 60.6464 59.2356 
" clip-path="url(#p1a2c263c79)" style="fill: none; stroke: #000000; stroke-width: 2; stroke-linecap: round"/>
   </g>
   <g id="line2d_3">
    <path d="M 60.6464 59.2356 
L 87.6464 59.2356 
L 114.6464 59.2356 
" clip-path="url(#p1a2c263c79)" style="fill: none; stroke: #000000; stroke-width: 2; stroke-linecap: round"/>
   </g>
   <g id="line2d_4">
    <path d="M 162.3464 59.2356 
L 138.0464 59.2356 
M 114.6464 59.2356 
L 90.3464 59.2356 
" clip-path="url(#p1a2c263c79)" style="fill: none; stroke: #000000; stroke-width: 2; stroke-linecap: round"/>
   </g>
   <g id="line2d_5">
    <path d="M 138.0464 59.2356 
L 138.0464 41.2356 
L 114.6464 59.2356 
L 138.0464 77.2356 
L 138.0464 59.2356 
" clip-path="url(#p1a2c263c79)" style="fill: none; stroke: #000000; stroke-width: 2; stroke-linecap: round"/>
   </g>
   <g id="line2d_6">
    <path d="M 114.6464 59.2356 
L 114.6464 41.2356 
L 138.0464 59.2356 
L 114.6464 77.2356 
L 114.6464 59.2356 
" clip-path="url(#p1a2c263c79)" style="fill: none; stroke: #000000; stroke-width: 2; stroke-linecap: round"/>
   </g>
   <g id="line2d_7">
    <path d="M 126.3464 75.0756 
L 126.3464 84.4356 
" clip-path="url(#p1a2c263c79)" style="fill: none; stroke: #000000; stroke-width: 2; stroke-linecap: round"/>
   </g>
   <g id="line2d_8">
    <path d="M 126.3464 49.1556 
L 126.3464 34.0356 
" clip-path="url(#p1a2c263c79)" style="fill: none; stroke: #000000; stroke-width: 2; stroke-linecap: round"/>
   </g>
   <g id="line2d_9">
    <path d="M 126.3464 34.0356 
L 126.3464 29.5356 
L 126.3464 25.0356 
" clip-path="url(#p1a2c263c79)" style="fill: none; stroke: #000000; stroke-width: 2; stroke-linecap: round"/>
   </g>
   <g id="line2d_10">
    <path d="M 126.3464 84.4356 
L 126.3464 88.9356 
L 126.3464 93.4356 
" clip-path="url(#p1a2c263c79)" style="fill: none; stroke: #000000; stroke-width: 2; stroke-linecap: round"/>
   </g>
   <g id="line2d_11">
    <path d="M 138.0464 59.2356 
L 156.0464 59.2356 
L 174.0464 59.2356 
" clip-path="url(#p1a2c263c79)" style="fill: none; stroke: #000000; stroke-width: 2; stroke-linecap: round"/>
   </g>
   <g id="line2d_12">
    <path d="M 174.0464 59.2356 
L 206.8064 59.2356 
M 206.8064 50.2356 
L 206.8064 68.2356 
M 213.2864 50.2356 
L 213.2864 68.2356 
M 213.2864 59.2356 
L 246.0464 59.2356 
" clip-path="url(#p1a2c263c79)" style="fill: none; stroke: #000000; stroke-width: 2; stroke-linecap: round"/>
   </g>
   <g id="line2d_13">
    <path d="M 246.0464 59.2356 
L 264.0464 59.2356 
L 282.0464 59.2356 
" clip-path="url(#p1a2c263c79)" style="fill: none; stroke: #000000; stroke-width: 2; stroke-linecap: round"/>
   </g>
   <g id="line2d_14">
    <path d="M 282.0464 59.2356 
L 282.0464 122.2356 
L 282.0464 185.2356 
" clip-path="url(#p1a2c263c79)" style="fill: none; stroke: #000000; stroke-width: 2; stroke-linecap: round"/>
   </g>
   <g id="line2d_15">
    <path d="M 60.6464 185.2356 
L 87.6464 185.2356 
L 114.6464 185.2356 
" clip-path="url(#p1a2c263c79)" style="fill: none; stroke: #000000; stroke-width: 2; stroke-linecap: round"/>
   </g>
   <g id="line2d_16">
    <path d="M 162.3464 185.2356 
L 138.0464 185.2356 
M 114.6464 185.2356 
L 90.3464 185.2356 
" clip-path="url(#p1a2c263c79)" style="fill: none; stroke: #000000; stroke-width: 2; stroke-linecap: round"/>
   </g>
   <g id="line2d_17">
    <path d="M 138.0464 185.2356 
L 138.0464 167.2356 
L 114.6464 185.2356 
L 138.0464 203.2356 
L 138.0464 185.2356 
" clip-path="url(#p1a2c263c79)" style="fill: none; stroke: #000000; stroke-width: 2; stroke-linecap: round"/>
   </g>
   <g id="line2d_18">
    <path d="M 114.6464 185.2356 
L 114.6464 167.2356 
L 138.0464 185.2356 
L 114.6464 203.2356 
L 114.6464 185.2356 
" clip-path="url(#p1a2c263c79)" style="fill: none; stroke: #000000; stroke-width: 2; stroke-linecap: round"/>
   </g>
   <g id="line2d_19">
    <path d="M 126.3464 201.0756 
L 126.3464 210.4356 
" clip-path="url(#p1a2c263c79)" style="fill: none; stroke: #000000; stroke-width: 2; stroke-linecap: round"/>
   </g>
   <g id="line2d_20">
    <path d="M 126.3464 175.1556 
L 126.3464 160.0356 
" clip-path="url(#p1a2c263c79)" style="fill: none; stroke: #000000; stroke-width: 2; stroke-linecap: round"/>
   </g>
   <g id="line2d_21">
    <path d="M 126.3464 160.0356 
L 126.3464 155.5356 
L 126.3464 151.0356 
" clip-path="url(#p1a2c263c79)" style="fill: none; stroke: #000000; stroke-width: 2; stroke-linecap: round"/>
   </g>
   <g id="line2d_22">
    <path d="M 126.3464 210.4356 
L 126.3464 214.9356 
L 126.3464 219.4356 
" clip-path="url(#p1a2c263c79)" style="fill: none; stroke: #000000; stroke-width: 2; stroke-linecap: round"/>
   </g>
   <g id="line2d_23">
    <path d="M 138.0464 185.2356 
L 156.0464 185.2356 
L 174.0464 185.2356 
" clip-path="url(#p1a2c263c79)" style="fill: none; stroke: #000000; stroke-width: 2; stroke-linecap: round"/>
   </g>
   <g id="line2d_24">
    <path d="M 174.0464 185.2356 
L 206.8064 185.2356 
M 206.8064 176.2356 
L 206.8064 194.2356 
M 213.2864 176.2356 
L 213.2864 194.2356 
M 213.2864 185.2356 
L 246.0464 185.2356 
" clip-path="url(#p1a2c263c79)" style="fill: none; stroke: #000000; stroke-width: 2; stroke-linecap: round"/>
   </g>
   <g id="line2d_25">
    <path d="M 246.0464 185.2356 
L 264.0464 185.2356 
L 282.0464 185.2356 
" clip-path="url(#p1a2c263c79)" style="fill: none; stroke: #000000; stroke-width: 2; stroke-linecap: round"/>
   </g>
   <g id="line2d_26">
    <path d="M 60.6464 185.2356 
L 60.6464 248.2356 
L 60.6464 311.2356 
" clip-path="url(#p1a2c263c79)" style="fill: none; stroke: #000000; stroke-width: 2; stroke-linecap: round"/>
   </g>
   <g id="line2d_27">
    <path d="M 60.6464 311.2356 
L 87.6464 311.2356 
L 114.6464 311.2356 
" clip-path="url(#p1a2c263c79)" style="fill: none; stroke: #000000; stroke-width: 2; stroke-linecap: round"/>
   </g>
   <g id="line2d_28">
    <path d="M 162.3464 311.2356 
L 138.0464 311.2356 
M 114.6464 311.2356 
L 90.3464 311.2356 
" clip-path="url(#p1a2c263c79)" style="fill: none; stroke: #000000; stroke-width: 2; stroke-linecap: round"/>
   </g>
   <g id="line2d_29">
    <path d="M 138.0464 311.2356 
L 138.0464 293.2356 
L 114.6464 311.2356 
L 138.0464 329.2356 
L 138.0464 311.2356 
" clip-path="url(#p1a2c263c79)" style="fill: none; stroke: #000000; stroke-width: 2; stroke-linecap: round"/>
   </g>
   <g id="line2d_30">
    <path d="M 114.6464 311.2356 
L 114.6464 293.2356 
L 138.0464 311.2356 
L 114.6464 329.2356 
L 114.6464 311.2356 
" clip-path="url(#p1a2c263c79)" style="fill: none; stroke: #000000; stroke-width: 2; stroke-linecap: round"/>
   </g>
   <g id="line2d_31">
    <path d="M 126.3464 327.0756 
L 126.3464 336.4356 
" clip-path="url(#p1a2c263c79)" style="fill: none; stroke: #000000; stroke-width: 2; stroke-linecap: round"/>
   </g>
   <g id="line2d_32">
    <path d="M 126.3464 301.1556 
L 126.3464 286.0356 
" clip-path="url(#p1a2c263c79)" style="fill: none; stroke: #000000; stroke-width: 2; stroke-linecap: round"/>
   </g>
   <g id="line2d_33">
    <path d="M 126.3464 286.0356 
L 126.3464 281.5356 
L 126.3464 277.0356 
" clip-path="url(#p1a2c263c79)" style="fill: none; stroke: #000000; stroke-width: 2; stroke-linecap: round"/>
   </g>
   <g id="line2d_34">
    <path d="M 126.3464 336.4356 
L 126.3464 340.9356 
L 126.3464 345.4356 
" clip-path="url(#p1a2c263c79)" style="fill: none; stroke: #000000; stroke-width: 2; stroke-linecap: round"/>
   </g>
   <g id="line2d_35">
    <path d="M 138.0464 311.2356 
L 156.0464 311.2356 
L 174.0464 311.2356 
" clip-path="url(#p1a2c263c79)" style="fill: none; stroke: #000000; stroke-width: 2; stroke-linecap: round"/>
   </g>
   <g id="line2d_36">
    <path d="M 174.0464 311.2356 
L 206.8064 311.2356 
M 206.8064 302.2356 
L 206.8064 320.2356 
M 213.2864 302.2356 
L 213.2864 320.2356 
M 213.2864 311.2356 
L 246.0464 311.2356 
" clip-path="url(#p1a2c263c79)" style="fill: none; stroke: #000000; stroke-width: 2; stroke-linecap: round"/>
   </g>
   <g id="line2d_37">
    <path d="M 246.0464 311.2356 
L 264.0464 311.2356 
L 282.0464 311.2356 
" clip-path="url(#p1a2c263c79)" style="fill: none; stroke: #000000; stroke-width: 2; stroke-linecap: round"/>
   </g>
   <g id="line2d_38">
    <path d="M 282.0464 311.2356 
L 282.0464 248.2356 
L 282.0464 185.2356 
" clip-path="url(#p1a2c263c79)" style="fill: none; stroke: #000000; stroke-width: 2; stroke-linecap: round"/>
   </g>
   <g id="line2d_39">
    <path d="M 282.0464 185.2356 
L 300.0464 185.2356 
L 318.0464 185.2356 
" clip-path="url(#p1a2c263c79)" style="fill: none; stroke: #000000; stroke-width: 2; stroke-linecap: round"/>
   </g>
   <g id="patch_5">
    <path d="M 60.6464 187.9356 
C 61.362448 187.9356 62.049266 187.651111 62.555588 187.144788 
C 63.061911 186.638466 63.3464 185.951648 63.3464 185.2356 
C 63.3464 184.519552 63.061911 183.832734 62.555588 183.326412 
C 62.049266 182.820089 61.362448 182.5356 60.6464 182.5356 
C 59.930352 182.5356 59.243534 182.820089 58.737212 183.326412 
C 58.230889 183.832734 57.9464 184.519552 57.9464 185.2356 
C 57.9464 185.951648 58.230889 186.638466 58.737212 187.144788 
C 59.243534 187.651111 59.930352 187.9356 60.6464 187.9356 
z
" clip-path="url(#p1a2c263c79)" style="stroke: #000000; stroke-width: 2; stroke-linejoin: miter"/>
   </g>
   <g id="text_1">
    <!-- $X_3$ -->
    <g transform="translate(92.970577 45.723572) scale(0.14 -0.14)">
     <defs>
      <path id="CMMI12-58" d="M 3040 2596 
L 2438 3994 
C 2522 4147 2714 4172 2790 4179 
C 2829 4179 2899 4179 2899 4292 
C 2899 4364 2842 4364 2803 4364 
C 2694 4364 2566 4364 2458 4364 
L 2086 4364 
C 1696 4364 1414 4364 1408 4364 
C 1357 4364 1293 4364 1293 4243 
C 1293 4179 1350 4179 1434 4179 
C 1805 4179 1830 4115 1894 3962 
L 2656 2185 
L 1267 693 
C 1037 442 762 198 288 198 
C 211 192 160 192 160 68 
C 160 48 166 0 237 0 
C 326 0 422 0 512 0 
L 813 0 
C 1018 0 1242 0 1440 0 
C 1485 0 1562 0 1562 115 
C 1562 179 1517 185 1478 185 
C 1350 198 1267 268 1267 370 
C 1267 479 1344 557 1530 748 
L 2099 1368 
C 2240 1516 2579 1886 2720 2026 
L 3392 453 
C 3398 441 3424 377 3424 370 
C 3424 313 3283 198 3078 198 
C 3040 198 2970 198 2970 71 
C 2970 0 3034 0 3066 0 
C 3174 0 3302 0 3411 0 
L 4115 0 
C 4230 0 4352 0 4461 0 
C 4506 0 4576 0 4576 130 
C 4576 198 4512 198 4454 198 
C 4070 198 4058 230 3949 465 
L 3104 2441 
L 3917 3316 
C 3981 3381 4128 3542 4186 3606 
C 4461 3896 4717 4160 5235 4160 
C 5299 4179 5363 4179 5363 4292 
C 5363 4364 5306 4364 5280 4364 
C 5190 4364 5094 4364 5005 4364 
L 4710 4364 
C 4506 4364 4282 4364 4083 4364 
C 4038 4364 3962 4364 3962 4249 
C 3962 4185 4006 4179 4045 4179 
C 4147 4167 4256 4116 4256 3994 
L 4250 3982 
C 4243 3937 4230 3873 4160 3797 
L 3040 2596 
z
" transform="scale(0.015625)"/>
      <path id="CMR17-33" d="M 1414 2157 
C 1984 2157 2234 1662 2234 1090 
C 2234 320 1824 25 1453 25 
C 1114 25 563 194 390 693 
C 422 680 454 680 486 680 
C 640 680 755 782 755 948 
C 755 1133 614 1216 486 1216 
C 378 1216 211 1165 211 926 
C 211 335 787 -128 1466 -128 
C 2176 -128 2720 430 2720 1085 
C 2720 1707 2208 2157 1600 2227 
C 2086 2328 2554 2756 2554 3329 
C 2554 3820 2048 4179 1472 4179 
C 890 4179 378 3829 378 3329 
C 378 3110 544 3072 627 3072 
C 762 3072 877 3155 877 3321 
C 877 3486 762 3569 627 3569 
C 602 3569 570 3569 544 3557 
C 730 3959 1235 4032 1459 4032 
C 1683 4032 2106 3925 2106 3320 
C 2106 3143 2080 2828 1862 2550 
C 1670 2304 1453 2304 1242 2284 
C 1210 2284 1062 2269 1037 2269 
C 992 2263 966 2257 966 2208 
C 966 2163 973 2157 1101 2157 
L 1414 2157 
z
" transform="scale(0.015625)"/>
     </defs>
     <use xlink:href="#CMMI12-58" transform="scale(0.996264)"/>
     <use xlink:href="#CMR17-33" transform="translate(80.960224 -14.943915) scale(0.697382)"/>
    </g>
   </g>
   <g id="text_2">
    <!-- $C_3$ -->
    <g transform="translate(202.652344 42.123572) scale(0.14 -0.14)">
     <defs>
      <path id="CMMI12-43" d="M 4781 4423 
C 4781 4480 4736 4480 4723 4480 
C 4710 4480 4685 4480 4634 4416 
L 4192 3882 
C 3968 4264 3616 4480 3136 4480 
C 1754 4480 320 3088 320 1595 
C 320 533 1069 -128 2003 -128 
C 2515 -128 2963 88 3334 400 
C 3891 863 4058 1481 4058 1531 
C 4058 1588 4006 1588 3987 1588 
C 3930 1588 3923 1550 3910 1524 
C 3616 534 2752 57 2112 57 
C 1434 57 845 489 845 1391 
C 845 1595 909 2700 1632 3532 
C 1984 3939 2586 4295 3194 4295 
C 3898 4295 4211 3717 4211 3068 
C 4211 2903 4192 2764 4192 2738 
C 4192 2681 4256 2681 4275 2681 
C 4346 2681 4352 2687 4378 2801 
L 4781 4423 
z
" transform="scale(0.015625)"/>
     </defs>
     <use xlink:href="#CMMI12-43" transform="scale(0.996264)"/>
     <use xlink:href="#CMR17-33" transform="translate(69.792037 -14.943915) scale(0.697382)"/>
    </g>
   </g>
   <g id="text_3">
    <!-- 165\,pF -->
    <g transform="translate(190.41567 83.321476) scale(0.14 -0.14)">
     <defs>
      <path id="CMR17-31" d="M 1702 4058 
C 1702 4192 1696 4192 1606 4192 
C 1357 3916 979 3827 621 3827 
C 602 3827 570 3827 563 3808 
C 557 3795 557 3782 557 3648 
C 755 3648 1088 3686 1344 3839 
L 1344 461 
C 1344 236 1331 160 781 160 
L 589 160 
L 589 0 
C 896 0 1216 0 1523 0 
C 1830 0 2150 0 2458 0 
L 2458 160 
L 2266 160 
C 1715 160 1702 230 1702 458 
L 1702 4058 
z
" transform="scale(0.015625)"/>
      <path id="CMR17-36" d="M 678 2176 
C 678 3690 1395 4032 1811 4032 
C 1946 4032 2272 4009 2400 3776 
C 2298 3776 2106 3776 2106 3553 
C 2106 3381 2246 3323 2336 3323 
C 2394 3323 2566 3348 2566 3560 
C 2566 3954 2246 4179 1805 4179 
C 1043 4179 243 3390 243 1984 
C 243 253 966 -128 1478 -128 
C 2099 -128 2688 427 2688 1283 
C 2688 2081 2170 2662 1517 2662 
C 1126 2662 838 2407 678 1960 
L 678 2176 
z
M 1478 25 
C 691 25 691 1200 691 1436 
C 691 1896 909 2560 1504 2560 
C 1613 2560 1926 2560 2138 2120 
C 2253 1870 2253 1609 2253 1289 
C 2253 944 2253 690 2118 434 
C 1978 171 1773 25 1478 25 
z
" transform="scale(0.015625)"/>
      <path id="CMR17-35" d="M 730 3692 
C 794 3666 1056 3584 1325 3584 
C 1920 3584 2246 3911 2432 4100 
C 2432 4157 2432 4192 2394 4192 
C 2387 4192 2374 4192 2323 4163 
C 2099 4058 1837 3973 1517 3973 
C 1325 3973 1037 3999 723 4139 
C 653 4171 640 4171 634 4171 
C 602 4171 595 4164 595 4037 
L 595 2203 
C 595 2089 595 2057 659 2057 
C 691 2057 704 2070 736 2114 
C 941 2401 1222 2522 1542 2522 
C 1766 2522 2246 2382 2246 1289 
C 2246 1085 2246 715 2054 421 
C 1894 159 1645 25 1370 25 
C 947 25 518 320 403 814 
C 429 807 480 795 506 795 
C 589 795 749 840 749 1038 
C 749 1210 627 1280 506 1280 
C 358 1280 262 1190 262 1011 
C 262 454 704 -128 1382 -128 
C 2042 -128 2669 440 2669 1264 
C 2669 2030 2170 2624 1549 2624 
C 1222 2624 947 2503 730 2274 
L 730 3692 
z
" transform="scale(0.015625)"/>
      <path id="CMR17-70" d="M 1408 -1063 
C 998 -1063 973 -1037 973 -789 
L 973 402 
C 1158 134 1427 -38 1766 -38 
C 2406 -38 3053 523 3053 1388 
C 3053 2191 2496 2802 1837 2802 
C 1453 2802 1139 2592 960 2338 
L 960 2802 
L 198 2732 
L 198 2567 
C 576 2567 634 2528 634 2223 
L 634 -789 
C 634 -1031 608 -1063 198 -1063 
L 198 -1228 
C 352 -1216 634 -1216 800 -1216 
C 966 -1216 1254 -1216 1408 -1228 
L 1408 -1063 
z
M 973 2012 
C 973 2102 973 2235 1222 2471 
C 1254 2497 1472 2688 1792 2688 
C 2259 2688 2643 2108 2643 1382 
C 2643 656 2234 64 1728 64 
C 1498 64 1248 172 1056 472 
C 973 612 973 650 973 752 
L 973 2012 
z
" transform="scale(0.015625)"/>
      <path id="CMR17-46" d="M 3482 4325 
L 326 4325 
L 326 4160 
C 768 4160 838 4160 838 3874 
L 838 446 
C 838 160 768 160 326 160 
L 326 0 
C 512 0 870 0 1069 0 
C 1331 0 1638 0 1901 0 
L 1901 160 
L 1760 160 
C 1274 160 1261 223 1261 452 
L 1261 2075 
L 1837 2075 
C 2432 2075 2490 1865 2490 1332 
L 2605 1332 
L 2605 2987 
L 2490 2987 
C 2490 2450 2432 2240 1837 2240 
L 1261 2240 
L 1261 3911 
C 1261 4128 1274 4160 1530 4160 
L 2355 4160 
C 3322 4160 3430 3765 3520 2916 
L 3635 2916 
L 3482 4325 
z
" transform="scale(0.015625)"/>
     </defs>
     <use xlink:href="#CMR17-31" transform="scale(0.996264)"/>
     <use xlink:href="#CMR17-36" transform="translate(45.690477 0) scale(0.996264)"/>
     <use xlink:href="#CMR17-35" transform="translate(91.380954 0) scale(0.996264)"/>
     <use xlink:href="#CMR17-70" transform="translate(152.302067 0) scale(0.996264)"/>
     <use xlink:href="#CMR17-46" transform="translate(203.197436 0) scale(0.996264)"/>
    </g>
   </g>
   <g id="text_4">
    <!-- $X_2$ -->
    <g transform="translate(92.970577 171.723572) scale(0.14 -0.14)">
     <defs>
      <path id="CMR17-32" d="M 2669 989 
L 2554 989 
C 2490 536 2438 459 2413 420 
C 2381 369 1920 369 1830 369 
L 602 369 
C 832 619 1280 1072 1824 1597 
C 2214 1967 2669 2402 2669 3035 
C 2669 3790 2067 4224 1395 4224 
C 691 4224 262 3604 262 3030 
C 262 2780 448 2748 525 2748 
C 589 2748 781 2787 781 3010 
C 781 3207 614 3264 525 3264 
C 486 3264 448 3258 422 3245 
C 544 3790 915 4058 1306 4058 
C 1862 4058 2227 3617 2227 3035 
C 2227 2479 1901 2000 1536 1584 
L 262 146 
L 262 0 
L 2515 0 
L 2669 989 
z
" transform="scale(0.015625)"/>
     </defs>
     <use xlink:href="#CMMI12-58" transform="scale(0.996264)"/>
     <use xlink:href="#CMR17-32" transform="translate(80.960224 -14.943915) scale(0.697382)"/>
    </g>
   </g>
   <g id="text_5">
    <!-- $C_2$ -->
    <g transform="translate(202.652344 168.123572) scale(0.14 -0.14)">
     <use xlink:href="#CMMI12-43" transform="scale(0.996264)"/>
     <use xlink:href="#CMR17-32" transform="translate(69.792037 -14.943915) scale(0.697382)"/>
    </g>
   </g>
   <g id="text_6">
    <!-- 132\,pF -->
    <g transform="translate(190.41567 209.321476) scale(0.14 -0.14)">
     <use xlink:href="#CMR17-31" transform="scale(0.996264)"/>
     <use xlink:href="#CMR17-33" transform="translate(45.690477 0) scale(0.996264)"/>
     <use xlink:href="#CMR17-32" transform="translate(91.380954 0) scale(0.996264)"/>
     <use xlink:href="#CMR17-70" transform="translate(152.302067 0) scale(0.996264)"/>
     <use xlink:href="#CMR17-46" transform="translate(203.197436 0) scale(0.996264)"/>
    </g>
   </g>
   <g id="text_7">
    <!-- $X_1$ -->
    <g transform="translate(92.970577 297.723572) scale(0.14 -0.14)">
     <use xlink:href="#CMMI12-58" transform="scale(0.996264)"/>
     <use xlink:href="#CMR17-31" transform="translate(80.960224 -14.943915) scale(0.697382)"/>
    </g>
   </g>
   <g id="text_8">
    <!-- $C_1$ -->
    <g transform="translate(202.652344 294.123572) scale(0.14 -0.14)">
     <use xlink:href="#CMMI12-43" transform="scale(0.996264)"/>
     <use xlink:href="#CMR17-31" transform="translate(69.792037 -14.943915) scale(0.697382)"/>
    </g>
   </g>
   <g id="text_9">
    <!-- 33\,pF -->
    <g transform="translate(193.829914 335.321476) scale(0.14 -0.14)">
     <use xlink:href="#CMR17-33" transform="scale(0.996264)"/>
     <use xlink:href="#CMR17-33" transform="translate(45.690477 0) scale(0.996264)"/>
     <use xlink:href="#CMR17-70" transform="translate(106.61159 0) scale(0.996264)"/>
     <use xlink:href="#CMR17-46" transform="translate(157.506959 0) scale(0.996264)"/>
    </g>
   </g>
   <g id="patch_6">
    <path d="M 282.0464 187.9356 
C 282.762448 187.9356 283.449266 187.651111 283.955588 187.144788 
C 284.461911 186.638466 284.7464 185.951648 284.7464 185.2356 
C 284.7464 184.519552 284.461911 183.832734 283.955588 183.326412 
C 283.449266 182.820089 282.762448 182.5356 282.0464 182.5356 
C 281.330352 182.5356 280.643534 182.820089 280.137212 183.326412 
C 279.630889 183.832734 279.3464 184.519552 279.3464 185.2356 
C 279.3464 185.951648 279.630889 186.638466 280.137212 187.144788 
C 280.643534 187.651111 281.330352 187.9356 282.0464 187.9356 
z
" clip-path="url(#p1a2c263c79)" style="stroke: #000000; stroke-width: 2; stroke-linejoin: miter"/>
   </g>
   <g id="patch_7">
    <path d="M 24.6464 187.9356 
C 25.362448 187.9356 26.049266 187.651111 26.555588 187.144788 
C 27.061911 186.638466 27.3464 185.951648 27.3464 185.2356 
C 27.3464 184.519552 27.061911 183.832734 26.555588 183.326412 
C 26.049266 182.820089 25.362448 182.5356 24.6464 182.5356 
C 23.930352 182.5356 23.243534 182.820089 22.737212 183.326412 
C 22.230889 183.832734 21.9464 184.519552 21.9464 185.2356 
C 21.9464 185.951648 22.230889 186.638466 22.737212 187.144788 
C 23.243534 187.651111 23.930352 187.9356 24.6464 187.9356 
z
" clip-path="url(#p1a2c263c79)" style="fill: #ffffff; stroke: #000000; stroke-width: 2; stroke-linejoin: miter"/>
   </g>
   <g id="text_10">
    <!-- $V_\mathrm{a}$ -->
    <g transform="translate(3.567437 188.722524) scale(0.14 -0.14)">
     <defs>
      <path id="CMMI12-56" d="M 3962 3640 
C 4179 3984 4378 4136 4704 4162 
C 4768 4168 4819 4168 4819 4282 
C 4819 4308 4806 4346 4749 4346 
C 4634 4346 4358 4346 4243 4346 
C 4058 4346 3866 4346 3686 4346 
C 3635 4346 3571 4346 3571 4226 
C 3571 4168 3629 4162 3654 4162 
C 3891 4143 3917 4029 3917 3952 
C 3917 3857 3827 3710 3821 3704 
L 1811 540 
L 1363 3969 
C 1363 4160 1696 4160 1766 4160 
C 1862 4160 1920 4160 1920 4282 
C 1920 4346 1850 4346 1830 4346 
C 1722 4346 1594 4346 1485 4346 
L 1126 4346 
C 659 4346 467 4346 461 4346 
C 422 4346 346 4346 346 4230 
C 346 4160 390 4160 493 4160 
C 819 4160 838 4102 858 3944 
L 1370 24 
C 1389 -109 1389 -128 1478 -128 
C 1555 -128 1587 -109 1651 -8 
L 3962 3640 
z
" transform="scale(0.015625)"/>
      <path id="CMR17-61" d="M 2304 1653 
C 2304 2072 2304 2294 2035 2543 
C 1798 2752 1523 2816 1306 2816 
C 800 2816 435 2407 435 1971 
C 435 1728 627 1728 666 1728 
C 749 1728 896 1778 896 1954 
C 896 2112 774 2181 666 2181 
C 640 2181 608 2174 589 2168 
C 723 2592 1069 2714 1293 2714 
C 1613 2714 1965 2429 1965 1885 
L 1965 1600 
C 1587 1600 1133 1549 774 1357 
C 371 1133 256 813 256 570 
C 256 77 832 -64 1171 -64 
C 1523 -64 1850 139 1990 511 
C 2003 233 2182 -18 2464 -18 
C 2598 -18 2938 70 2938 567 
L 2938 920 
L 2822 920 
L 2822 562 
C 2822 178 2650 128 2566 128 
C 2304 128 2304 458 2304 738 
L 2304 1653 
z
M 1965 870 
C 1965 317 1568 38 1216 38 
C 896 38 646 275 646 570 
C 646 761 730 1100 1101 1305 
C 1408 1478 1760 1504 1965 1504 
L 1965 870 
z
" transform="scale(0.015625)"/>
     </defs>
     <use xlink:href="#CMMI12-56" transform="scale(0.996264)"/>
     <use xlink:href="#CMR17-61" transform="translate(56.869579 -14.943915) scale(0.697382)"/>
    </g>
   </g>
   <g id="patch_8">
    <path d="M 126.3464 27.7356 
C 127.062448 27.7356 127.749266 27.451111 128.255588 26.944788 
C 128.761911 26.438466 129.0464 25.751648 129.0464 25.0356 
C 129.0464 24.319552 128.761911 23.632734 128.255588 23.126412 
C 127.749266 22.620089 127.062448 22.3356 126.3464 22.3356 
C 125.630352 22.3356 124.943534 22.620089 124.437212 23.126412 
C 123.930889 23.632734 123.6464 24.319552 123.6464 25.0356 
C 123.6464 25.751648 123.930889 26.438466 124.437212 26.944788 
C 124.943534 27.451111 125.630352 27.7356 126.3464 27.7356 
z
" clip-path="url(#p1a2c263c79)" style="fill: #ffffff; stroke: #000000; stroke-width: 2; stroke-linejoin: miter"/>
   </g>
   <g id="text_11">
    <!-- $V_\mathrm{EN3}$ -->
    <g transform="translate(112.680613 14.223572) scale(0.14 -0.14)">
     <defs>
      <path id="CMR17-45" d="M 3885 1615 
L 3770 1615 
C 3629 676 3546 166 2419 166 
L 1530 166 
C 1274 166 1261 197 1261 414 
L 1261 2176 
L 1862 2176 
C 2464 2176 2522 1960 2522 1430 
L 2637 1430 
L 2637 3081 
L 2522 3081 
C 2522 2557 2464 2342 1862 2342 
L 1261 2342 
L 1261 3913 
C 1261 4128 1274 4160 1530 4160 
L 2406 4160 
C 3398 4160 3514 3769 3603 2929 
L 3718 2929 
L 3565 4325 
L 326 4325 
L 326 4160 
C 768 4160 838 4160 838 3874 
L 838 451 
C 838 166 768 166 326 166 
L 326 0 
L 3654 0 
L 3885 1615 
z
" transform="scale(0.015625)"/>
      <path id="CMR17-4e" d="M 1312 4250 
C 1267 4320 1261 4320 1139 4320 
L 326 4320 
L 326 4160 
L 448 4160 
C 704 4160 819 4129 838 4122 
L 838 610 
C 838 451 838 153 326 153 
L 326 -13 
C 474 0 742 0 902 0 
C 1062 0 1331 0 1478 -13 
L 1478 153 
C 966 153 966 451 966 610 
L 966 4033 
C 1011 3995 1011 3982 1056 3919 
L 3430 76 
C 3475 0 3494 0 3526 0 
C 3590 0 3590 19 3590 139 
L 3590 3705 
C 3590 3863 3590 4160 4102 4160 
L 4102 4326 
C 3955 4320 3686 4320 3526 4320 
C 3366 4320 3098 4320 2950 4326 
L 2950 4160 
C 3462 4160 3462 3862 3462 3703 
L 3462 763 
L 1312 4250 
z
" transform="scale(0.015625)"/>
     </defs>
     <use xlink:href="#CMMI12-56" transform="scale(0.996264)"/>
     <use xlink:href="#CMR17-45" transform="translate(56.869579 -14.943915) scale(0.697382)"/>
     <use xlink:href="#CMR17-4e" transform="translate(100.679793 -14.943915) scale(0.697382)"/>
     <use xlink:href="#CMR17-33" transform="translate(149.030278 -14.943915) scale(0.697382)"/>
    </g>
   </g>
   <g id="patch_9">
    <path d="M 126.3464 96.1356 
C 127.062448 96.1356 127.749266 95.851111 128.255588 95.344788 
C 128.761911 94.838466 129.0464 94.151648 129.0464 93.4356 
C 129.0464 92.719552 128.761911 92.032734 128.255588 91.526412 
C 127.749266 91.020089 127.062448 90.7356 126.3464 90.7356 
C 125.630352 90.7356 124.943534 91.020089 124.437212 91.526412 
C 123.930889 92.032734 123.6464 92.719552 123.6464 93.4356 
C 123.6464 94.151648 123.930889 94.838466 124.437212 95.344788 
C 124.943534 95.851111 125.630352 96.1356 126.3464 96.1356 
z
" clip-path="url(#p1a2c263c79)" style="fill: #ffffff; stroke: #000000; stroke-width: 2; stroke-linejoin: miter"/>
   </g>
   <g id="text_12">
    <!-- $\overline{V_\mathrm{EN3}}$ -->
    <g transform="translate(112.431547 112.678202) scale(0.14 -0.14)">
     <use xlink:href="#CMMI12-56" transform="scale(0.996264)"/>
     <use xlink:href="#CMR17-45" transform="translate(56.869579 -14.943915) scale(0.697382)"/>
     <use xlink:href="#CMR17-4e" transform="translate(100.679793 -14.943915) scale(0.697382)"/>
     <use xlink:href="#CMR17-33" transform="translate(149.030278 -14.943915) scale(0.697382)"/>
     <path d="M 0 80.032884 
L 181.511592 80.032884 
L 181.511592 84.017834 
L 0 84.017834 
L 0 80.032884 
z
"/>
    </g>
   </g>
   <g id="patch_10">
    <path d="M 126.3464 153.7356 
C 127.062448 153.7356 127.749266 153.451111 128.255588 152.944788 
C 128.761911 152.438466 129.0464 151.751648 129.0464 151.0356 
C 129.0464 150.319552 128.761911 149.632734 128.255588 149.126412 
C 127.749266 148.620089 127.062448 148.3356 126.3464 148.3356 
C 125.630352 148.3356 124.943534 148.620089 124.437212 149.126412 
C 123.930889 149.632734 123.6464 150.319552 123.6464 151.0356 
C 123.6464 151.751648 123.930889 152.438466 124.437212 152.944788 
C 124.943534 153.451111 125.630352 153.7356 126.3464 153.7356 
z
" clip-path="url(#p1a2c263c79)" style="fill: #ffffff; stroke: #000000; stroke-width: 2; stroke-linejoin: miter"/>
   </g>
   <g id="text_13">
    <!-- $V_\mathrm{EN2}$ -->
    <g transform="translate(112.680613 140.223572) scale(0.14 -0.14)">
     <use xlink:href="#CMMI12-56" transform="scale(0.996264)"/>
     <use xlink:href="#CMR17-45" transform="translate(56.869579 -14.943915) scale(0.697382)"/>
     <use xlink:href="#CMR17-4e" transform="translate(100.679793 -14.943915) scale(0.697382)"/>
     <use xlink:href="#CMR17-32" transform="translate(149.030278 -14.943915) scale(0.697382)"/>
    </g>
   </g>
   <g id="patch_11">
    <path d="M 126.3464 222.1356 
C 127.062448 222.1356 127.749266 221.851111 128.255588 221.344788 
C 128.761911 220.838466 129.0464 220.151648 129.0464 219.4356 
C 129.0464 218.719552 128.761911 218.032734 128.255588 217.526412 
C 127.749266 217.020089 127.062448 216.7356 126.3464 216.7356 
C 125.630352 216.7356 124.943534 217.020089 124.437212 217.526412 
C 123.930889 218.032734 123.6464 218.719552 123.6464 219.4356 
C 123.6464 220.151648 123.930889 220.838466 124.437212 221.344788 
C 124.943534 221.851111 125.630352 222.1356 126.3464 222.1356 
z
" clip-path="url(#p1a2c263c79)" style="fill: #ffffff; stroke: #000000; stroke-width: 2; stroke-linejoin: miter"/>
   </g>
   <g id="text_14">
    <!-- $\overline{V_\mathrm{EN2}}$ -->
    <g transform="translate(112.431547 238.678202) scale(0.14 -0.14)">
     <use xlink:href="#CMMI12-56" transform="scale(0.996264)"/>
     <use xlink:href="#CMR17-45" transform="translate(56.869579 -14.943915) scale(0.697382)"/>
     <use xlink:href="#CMR17-4e" transform="translate(100.679793 -14.943915) scale(0.697382)"/>
     <use xlink:href="#CMR17-32" transform="translate(149.030278 -14.943915) scale(0.697382)"/>
     <path d="M 0 80.032884 
L 181.511592 80.032884 
L 181.511592 84.017834 
L 0 84.017834 
L 0 80.032884 
z
"/>
    </g>
   </g>
   <g id="patch_12">
    <path d="M 126.3464 279.7356 
C 127.062448 279.7356 127.749266 279.451111 128.255588 278.944788 
C 128.761911 278.438466 129.0464 277.751648 129.0464 277.0356 
C 129.0464 276.319552 128.761911 275.632734 128.255588 275.126412 
C 127.749266 274.620089 127.062448 274.3356 126.3464 274.3356 
C 125.630352 274.3356 124.943534 274.620089 124.437212 275.126412 
C 123.930889 275.632734 123.6464 276.319552 123.6464 277.0356 
C 123.6464 277.751648 123.930889 278.438466 124.437212 278.944788 
C 124.943534 279.451111 125.630352 279.7356 126.3464 279.7356 
z
" clip-path="url(#p1a2c263c79)" style="fill: #ffffff; stroke: #000000; stroke-width: 2; stroke-linejoin: miter"/>
   </g>
   <g id="text_15">
    <!-- $V_\mathrm{EN1}$ -->
    <g transform="translate(112.680613 266.223572) scale(0.14 -0.14)">
     <use xlink:href="#CMMI12-56" transform="scale(0.996264)"/>
     <use xlink:href="#CMR17-45" transform="translate(56.869579 -14.943915) scale(0.697382)"/>
     <use xlink:href="#CMR17-4e" transform="translate(100.679793 -14.943915) scale(0.697382)"/>
     <use xlink:href="#CMR17-31" transform="translate(149.030278 -14.943915) scale(0.697382)"/>
    </g>
   </g>
   <g id="patch_13">
    <path d="M 126.3464 348.1356 
C 127.062448 348.1356 127.749266 347.851111 128.255588 347.344788 
C 128.761911 346.838466 129.0464 346.151648 129.0464 345.4356 
C 129.0464 344.719552 128.761911 344.032734 128.255588 343.526412 
C 127.749266 343.020089 127.062448 342.7356 126.3464 342.7356 
C 125.630352 342.7356 124.943534 343.020089 124.437212 343.526412 
C 123.930889 344.032734 123.6464 344.719552 123.6464 345.4356 
C 123.6464 346.151648 123.930889 346.838466 124.437212 347.344788 
C 124.943534 347.851111 125.630352 348.1356 126.3464 348.1356 
z
" clip-path="url(#p1a2c263c79)" style="fill: #ffffff; stroke: #000000; stroke-width: 2; stroke-linejoin: miter"/>
   </g>
   <g id="text_16">
    <!-- $\overline{V_\mathrm{EN1}}$ -->
    <g transform="translate(112.431547 364.678202) scale(0.14 -0.14)">
     <use xlink:href="#CMMI12-56" transform="scale(0.996264)"/>
     <use xlink:href="#CMR17-45" transform="translate(56.869579 -14.943915) scale(0.697382)"/>
     <use xlink:href="#CMR17-4e" transform="translate(100.679793 -14.943915) scale(0.697382)"/>
     <use xlink:href="#CMR17-31" transform="translate(149.030278 -14.943915) scale(0.697382)"/>
     <path d="M 0 80.032884 
L 181.511592 80.032884 
L 181.511592 84.017834 
L 0 84.017834 
L 0 80.032884 
z
"/>
    </g>
   </g>
   <g id="patch_14">
    <path d="M 318.0464 187.9356 
C 318.762448 187.9356 319.449266 187.651111 319.955588 187.144788 
C 320.461911 186.638466 320.7464 185.951648 320.7464 185.2356 
C 320.7464 184.519552 320.461911 183.832734 319.955588 183.326412 
C 319.449266 182.820089 318.762448 182.5356 318.0464 182.5356 
C 317.330352 182.5356 316.643534 182.820089 316.137212 183.326412 
C 315.630889 183.832734 315.3464 184.519552 315.3464 185.2356 
C 315.3464 185.951648 315.630889 186.638466 316.137212 187.144788 
C 316.643534 187.651111 317.330352 187.9356 318.0464 187.9356 
z
" clip-path="url(#p1a2c263c79)" style="fill: #ffffff; stroke: #000000; stroke-width: 2; stroke-linejoin: miter"/>
   </g>
   <g id="text_17">
    <!-- $V_\mathrm{b}$ -->
    <g transform="translate(326.1464 188.722524) scale(0.14 -0.14)">
     <defs>
      <path id="CMR17-62" d="M 960 4396 
L 198 4326 
L 198 4160 
C 576 4160 634 4122 634 3817 
L 634 -13 
L 749 -13 
L 934 441 
C 1120 141 1395 -64 1766 -64 
C 2406 -64 3053 500 3053 1370 
C 3053 2188 2477 2790 1830 2790 
C 1434 2790 1152 2579 960 2330 
L 960 4396 
z
M 973 2004 
C 973 2118 973 2138 1062 2272 
C 1312 2657 1670 2688 1792 2688 
C 1984 2688 2643 2585 2643 1376 
C 2643 108 1888 38 1734 38 
C 1536 38 1248 114 1043 486 
C 973 608 973 621 973 735 
L 973 2004 
z
" transform="scale(0.015625)"/>
     </defs>
     <use xlink:href="#CMMI12-56" transform="scale(0.996264)"/>
     <use xlink:href="#CMR17-62" transform="translate(56.869579 -14.943915) scale(0.697382)"/>
    </g>
   </g>
  </g>
 </g>
 <defs>
  <clipPath id="p1a2c263c79">
   <rect x="0" y="-0" width="343.1632" height="373.7556"/>
  </clipPath>
 </defs>
</svg>
