G04 EAGLE Gerber RS-274X export*
G75*
%MOMM*%
%FSLAX34Y34*%
%LPD*%
%INSolderpaste Bottom*%
%IPPOS*%
%AMOC8*
5,1,8,0,0,1.08239X$1,22.5*%
G01*
G04 Define Apertures*
%ADD10R,1.164600X1.465300*%
%ADD11R,0.920900X0.970200*%
%ADD12R,1.000000X1.400000*%
%ADD13R,1.400000X1.000000*%
%ADD14R,1.420200X1.031200*%
%ADD15R,1.031200X1.420200*%
D10*
X201246Y360000D03*
X218754Y360000D03*
X201246Y477500D03*
X218754Y477500D03*
X201246Y172500D03*
X218754Y172500D03*
X201246Y587500D03*
X218754Y587500D03*
X808746Y162500D03*
X826254Y162500D03*
X761246Y162500D03*
X778754Y162500D03*
X713746Y162500D03*
X731254Y162500D03*
X681254Y162500D03*
X663746Y162500D03*
X633754Y162500D03*
X616246Y162500D03*
X586254Y162500D03*
X568746Y162500D03*
D11*
X444754Y525000D03*
X460246Y525000D03*
D12*
X380000Y466000D03*
X370500Y444000D03*
X389500Y444000D03*
D13*
X564000Y360000D03*
X586000Y350500D03*
X586000Y369500D03*
D12*
X620000Y466000D03*
X610500Y444000D03*
X629500Y444000D03*
D13*
X514000Y360000D03*
X536000Y350500D03*
X536000Y369500D03*
X438500Y360000D03*
X416500Y369500D03*
X416500Y350500D03*
X486000Y360000D03*
X464000Y369500D03*
X464000Y350500D03*
D12*
X620000Y494000D03*
X629500Y516000D03*
X610500Y516000D03*
D13*
X391000Y360000D03*
X369000Y369500D03*
X369000Y350500D03*
D12*
X380000Y494000D03*
X389500Y516000D03*
X370500Y516000D03*
X380000Y418500D03*
X370500Y396500D03*
X389500Y396500D03*
X380000Y541500D03*
X389500Y563500D03*
X370500Y563500D03*
X620000Y421000D03*
X610500Y399000D03*
X629500Y399000D03*
D13*
X611500Y360000D03*
X633500Y350500D03*
X633500Y369500D03*
D14*
X240000Y171695D03*
X240000Y153305D03*
X240000Y621695D03*
X240000Y603305D03*
X240000Y586695D03*
X240000Y568305D03*
D15*
X349195Y417500D03*
X330805Y417500D03*
X349195Y542500D03*
X330805Y542500D03*
X650805Y417500D03*
X669195Y417500D03*
D14*
X612500Y326695D03*
X612500Y308305D03*
X565000Y326695D03*
X565000Y308305D03*
D15*
X650805Y465000D03*
X669195Y465000D03*
X808305Y205000D03*
X826695Y205000D03*
X760805Y205000D03*
X779195Y205000D03*
X713305Y205000D03*
X731695Y205000D03*
D14*
X515000Y329195D03*
X515000Y310805D03*
D15*
X681695Y205000D03*
X663305Y205000D03*
X634195Y205952D03*
X615805Y205952D03*
D14*
X437500Y329195D03*
X437500Y310805D03*
X240000Y394195D03*
X240000Y375805D03*
D15*
X586695Y205000D03*
X568305Y205000D03*
X650805Y495000D03*
X669195Y495000D03*
D14*
X485000Y329195D03*
X485000Y310805D03*
X387500Y329195D03*
X387500Y310805D03*
X240000Y359195D03*
X240000Y340805D03*
X240000Y511695D03*
X240000Y493305D03*
X240000Y476695D03*
X240000Y458305D03*
D15*
X349195Y465000D03*
X330805Y465000D03*
X349195Y495000D03*
X330805Y495000D03*
D14*
X240000Y211695D03*
X240000Y193305D03*
M02*
