G04 EAGLE Gerber RS-274X export*
G75*
%MOMM*%
%FSLAX34Y34*%
%LPD*%
%INSolderpaste Top*%
%IPPOS*%
%AMOC8*
5,1,8,0,0,1.08239X$1,22.5*%
G01*
G04 Define Apertures*
%ADD10R,1.164600X1.465300*%
%ADD11R,1.465300X1.164600*%
%ADD12R,0.920900X0.970200*%
%ADD13R,2.800000X2.400000*%
%ADD14R,0.761800X1.361800*%
%ADD15R,1.652500X4.115300*%
%ADD16R,0.875700X1.210300*%
%ADD17R,1.420200X1.031200*%
%ADD18R,1.031200X1.420200*%
%ADD19R,1.300000X0.600000*%
%ADD20R,0.897900X1.860300*%
%ADD21R,3.189100X1.860300*%
%ADD22R,2.200000X0.600000*%
%ADD23R,1.500000X0.400000*%
%ADD24R,2.000000X2.500000*%
%ADD25R,2.500000X2.000000*%
%ADD26R,1.200000X2.500000*%
%ADD27R,2.311400X0.508000*%
%ADD28R,2.489200X2.006600*%
%ADD29R,0.787400X0.685800*%
%ADD30R,0.250000X0.700000*%
%ADD31R,0.700000X0.250000*%
D10*
X311246Y755000D03*
X328754Y755000D03*
X496246Y695000D03*
X513754Y695000D03*
X588746Y695000D03*
X606254Y695000D03*
D11*
X337500Y813754D03*
X337500Y796246D03*
X192500Y698754D03*
X192500Y681246D03*
X752500Y698754D03*
X752500Y681246D03*
D10*
X143746Y675000D03*
X161254Y675000D03*
X705571Y675125D03*
X723079Y675125D03*
X403746Y755000D03*
X421254Y755000D03*
X761254Y810000D03*
X743746Y810000D03*
X883754Y625000D03*
X866246Y625000D03*
D11*
X842500Y643754D03*
X842500Y626246D03*
D10*
X496246Y755000D03*
X513754Y755000D03*
D11*
X280000Y258754D03*
X280000Y241246D03*
X885000Y386254D03*
X885000Y368746D03*
D10*
X761254Y385000D03*
X743746Y385000D03*
D12*
X460246Y525000D03*
X444754Y525000D03*
D10*
X843746Y432500D03*
X861254Y432500D03*
D12*
X492746Y525000D03*
X477254Y525000D03*
X507254Y525000D03*
X522746Y525000D03*
D11*
X847500Y453746D03*
X847500Y471254D03*
D12*
X539754Y525000D03*
X555246Y525000D03*
D10*
X588746Y755000D03*
X606254Y755000D03*
D11*
X882500Y453746D03*
X882500Y471254D03*
D13*
X145000Y854000D03*
X145000Y791000D03*
D11*
X192500Y848754D03*
X192500Y831246D03*
X222500Y813754D03*
X222500Y796246D03*
D10*
X311246Y695000D03*
X328754Y695000D03*
X403746Y695000D03*
X421254Y695000D03*
D14*
X912250Y527500D03*
X932750Y527500D03*
X912250Y562500D03*
X932750Y562500D03*
X910250Y282500D03*
X889750Y282500D03*
X910250Y232500D03*
X889750Y232500D03*
X910250Y182500D03*
X889750Y182500D03*
D15*
X255617Y850000D03*
X304383Y850000D03*
D16*
X863173Y385000D03*
X841827Y385000D03*
D17*
X222500Y849195D03*
X222500Y830805D03*
D18*
X946695Y282500D03*
X928305Y282500D03*
X946695Y232500D03*
X928305Y232500D03*
X808305Y810000D03*
X826695Y810000D03*
D17*
X337500Y849195D03*
X337500Y830805D03*
D18*
X946695Y182500D03*
X928305Y182500D03*
X805805Y385000D03*
X824195Y385000D03*
D17*
X722500Y503305D03*
X722500Y521695D03*
X722500Y474195D03*
X722500Y455805D03*
D18*
X873305Y527500D03*
X891695Y527500D03*
X873305Y562500D03*
X891695Y562500D03*
D19*
X309500Y734500D03*
X309500Y715500D03*
X330500Y725000D03*
X402000Y734500D03*
X402000Y715500D03*
X423000Y725000D03*
X494500Y734500D03*
X494500Y715500D03*
X515500Y725000D03*
X587000Y734500D03*
X587000Y715500D03*
X608000Y725000D03*
D20*
X122000Y699250D03*
X145000Y699250D03*
X168000Y699250D03*
D21*
X145000Y760750D03*
D20*
X682000Y699250D03*
X705000Y699250D03*
X728000Y699250D03*
D21*
X705000Y760750D03*
D22*
X363500Y271150D03*
X311500Y271150D03*
X363500Y258450D03*
X363500Y283850D03*
X363500Y296550D03*
X311500Y258450D03*
X311500Y283850D03*
X311500Y296550D03*
D23*
X748750Y502250D03*
X748750Y495750D03*
X748750Y489250D03*
X748750Y482750D03*
X748750Y476250D03*
X748750Y469750D03*
X748750Y463250D03*
X748750Y456750D03*
X748750Y450250D03*
X748750Y443750D03*
X748750Y437250D03*
X748750Y430750D03*
X748750Y424250D03*
X748750Y417750D03*
X821250Y417750D03*
X821250Y424250D03*
X821250Y430750D03*
X821250Y437250D03*
X821250Y443750D03*
X821250Y450250D03*
X821250Y456750D03*
X821250Y463250D03*
X821250Y469750D03*
X821250Y476250D03*
X821250Y482750D03*
X821250Y489250D03*
X821250Y495750D03*
X821250Y502250D03*
D24*
X26500Y497950D03*
X119500Y497950D03*
X45500Y566950D03*
D25*
X160000Y539950D03*
D26*
X17500Y566950D03*
D27*
X914240Y402200D03*
X914240Y410200D03*
X914240Y418200D03*
X914240Y426200D03*
X914240Y434200D03*
D28*
X915192Y373700D03*
X915192Y462700D03*
X970300Y373700D03*
X970300Y462700D03*
D29*
X883128Y659104D03*
X866872Y659104D03*
X866872Y645896D03*
X883128Y645896D03*
D30*
X517500Y504000D03*
X512500Y504000D03*
X507500Y504000D03*
X502500Y504000D03*
X497500Y504000D03*
X492500Y504000D03*
X487500Y504000D03*
X482500Y504000D03*
D31*
X476000Y497500D03*
X476000Y492500D03*
X476000Y487500D03*
X476000Y482500D03*
X476000Y477500D03*
X476000Y472500D03*
X476000Y467500D03*
X476000Y462500D03*
D30*
X482500Y456000D03*
X487500Y456000D03*
X492500Y456000D03*
X497500Y456000D03*
X502500Y456000D03*
X507500Y456000D03*
X512500Y456000D03*
X517500Y456000D03*
D31*
X524000Y462500D03*
X524000Y467500D03*
X524000Y472500D03*
X524000Y477500D03*
X524000Y482500D03*
X524000Y487500D03*
X524000Y492500D03*
X524000Y497500D03*
M02*
