G04 EAGLE Gerber RS-274X export*
G75*
%MOMM*%
%FSLAX34Y34*%
%LPD*%
%INSoldermask Bottom*%
%IPPOS*%
%AMOC8*
5,1,8,0,0,1.08239X$1,22.5*%
G01*
G04 Define Apertures*
%ADD10C,3.203200*%
%ADD11R,1.367800X1.668500*%
%ADD12R,1.124100X1.173400*%
%ADD13R,1.203200X1.603200*%
%ADD14R,1.603200X1.203200*%
%ADD15C,1.727200*%
%ADD16R,1.623400X1.234400*%
%ADD17R,1.234400X1.623400*%
%ADD18C,1.524000*%
%ADD19P,2.55682X8X22.5*%
%ADD20P,2.55682X8X292.5*%
%ADD21C,2.184400*%
%ADD22C,1.511200*%
%ADD23C,3.419200*%
%ADD24C,2.203200*%
%ADD25C,1.600200*%
%ADD26P,1.03866X8X22.5*%
%ADD27P,1.20102X8X22.5*%
D10*
X40000Y40000D03*
X40000Y860000D03*
X960000Y40000D03*
X960000Y860000D03*
D11*
X201246Y360000D03*
X218754Y360000D03*
X201246Y477500D03*
X218754Y477500D03*
X201246Y172500D03*
X218754Y172500D03*
X201246Y587500D03*
X218754Y587500D03*
X808746Y162500D03*
X826254Y162500D03*
X761246Y162500D03*
X778754Y162500D03*
X713746Y162500D03*
X731254Y162500D03*
X681254Y162500D03*
X663746Y162500D03*
X633754Y162500D03*
X616246Y162500D03*
X586254Y162500D03*
X568746Y162500D03*
D12*
X444754Y525000D03*
X460246Y525000D03*
D13*
X380000Y466000D03*
X370500Y444000D03*
X389500Y444000D03*
D14*
X564000Y360000D03*
X586000Y350500D03*
X586000Y369500D03*
D13*
X620000Y466000D03*
X610500Y444000D03*
X629500Y444000D03*
D14*
X514000Y360000D03*
X536000Y350500D03*
X536000Y369500D03*
X438500Y360000D03*
X416500Y369500D03*
X416500Y350500D03*
X486000Y360000D03*
X464000Y369500D03*
X464000Y350500D03*
D13*
X620000Y494000D03*
X629500Y516000D03*
X610500Y516000D03*
D14*
X391000Y360000D03*
X369000Y369500D03*
X369000Y350500D03*
D13*
X380000Y494000D03*
X389500Y516000D03*
X370500Y516000D03*
X380000Y418500D03*
X370500Y396500D03*
X389500Y396500D03*
X380000Y541500D03*
X389500Y563500D03*
X370500Y563500D03*
X620000Y421000D03*
X610500Y399000D03*
X629500Y399000D03*
D14*
X611500Y360000D03*
X633500Y350500D03*
X633500Y369500D03*
D15*
X320120Y652700D02*
X304880Y652700D01*
X304880Y627300D02*
X320120Y627300D01*
X657300Y634880D02*
X657300Y650120D01*
X682700Y650120D02*
X682700Y634880D01*
X120200Y610120D02*
X120200Y594880D01*
X94800Y594880D02*
X94800Y610120D01*
X682700Y610120D02*
X682700Y594880D01*
X657300Y594880D02*
X657300Y610120D01*
X904880Y657700D02*
X920120Y657700D01*
X920120Y632300D02*
X904880Y632300D01*
X850120Y697100D02*
X834880Y697100D01*
X834880Y722500D02*
X850120Y722500D01*
X850120Y747900D02*
X834880Y747900D01*
X412620Y652700D02*
X397380Y652700D01*
X397380Y627300D02*
X412620Y627300D01*
X489880Y652700D02*
X505120Y652700D01*
X505120Y627300D02*
X489880Y627300D01*
X582380Y652700D02*
X597620Y652700D01*
X597620Y627300D02*
X582380Y627300D01*
X280120Y627300D02*
X264880Y627300D01*
X264880Y652700D02*
X280120Y652700D01*
X357380Y627300D02*
X372620Y627300D01*
X372620Y652700D02*
X357380Y652700D01*
X449880Y627300D02*
X465120Y627300D01*
X465120Y652700D02*
X449880Y652700D01*
X542380Y627300D02*
X557620Y627300D01*
X557620Y652700D02*
X542380Y652700D01*
X94800Y650120D02*
X94800Y634880D01*
X120200Y634880D02*
X120200Y650120D01*
D16*
X240000Y171695D03*
X240000Y153305D03*
X240000Y621695D03*
X240000Y603305D03*
X240000Y586695D03*
X240000Y568305D03*
D17*
X349195Y417500D03*
X330805Y417500D03*
X349195Y542500D03*
X330805Y542500D03*
X650805Y417500D03*
X669195Y417500D03*
D16*
X612500Y326695D03*
X612500Y308305D03*
X565000Y326695D03*
X565000Y308305D03*
D17*
X650805Y465000D03*
X669195Y465000D03*
X808305Y205000D03*
X826695Y205000D03*
X760805Y205000D03*
X779195Y205000D03*
X713305Y205000D03*
X731695Y205000D03*
D16*
X515000Y329195D03*
X515000Y310805D03*
D17*
X681695Y205000D03*
X663305Y205000D03*
X634195Y205952D03*
X615805Y205952D03*
D16*
X437500Y329195D03*
X437500Y310805D03*
X240000Y394195D03*
X240000Y375805D03*
D17*
X586695Y205000D03*
X568305Y205000D03*
X650805Y495000D03*
X669195Y495000D03*
D16*
X485000Y329195D03*
X485000Y310805D03*
X387500Y329195D03*
X387500Y310805D03*
X240000Y359195D03*
X240000Y340805D03*
X240000Y511695D03*
X240000Y493305D03*
X240000Y476695D03*
X240000Y458305D03*
D17*
X349195Y465000D03*
X330805Y465000D03*
X349195Y495000D03*
X330805Y495000D03*
D16*
X240000Y211695D03*
X240000Y193305D03*
D15*
X809892Y834894D02*
X825132Y834894D01*
X825132Y880106D02*
X809892Y880106D01*
X760108Y834894D02*
X744868Y834894D01*
X744868Y880106D02*
X760108Y880106D01*
D18*
X634000Y43504D02*
X634000Y30296D01*
X659400Y30296D02*
X659400Y43504D01*
X761000Y106496D02*
X761000Y119704D01*
X735600Y119704D02*
X735600Y106496D01*
X684800Y43504D02*
X684800Y30296D01*
X710200Y30296D02*
X710200Y43504D01*
X761000Y43504D02*
X761000Y30296D01*
X735600Y30296D02*
X735600Y43504D01*
X710200Y106496D02*
X710200Y119704D01*
X684800Y119704D02*
X684800Y106496D01*
X659400Y106496D02*
X659400Y119704D01*
X634000Y119704D02*
X634000Y106496D01*
D15*
X744868Y345106D02*
X760108Y345106D01*
X760108Y299894D02*
X744868Y299894D01*
X809892Y345106D02*
X825132Y345106D01*
X825132Y299894D02*
X809892Y299894D01*
D19*
X405000Y867500D03*
X412550Y259100D03*
X257500Y285000D03*
D20*
X842500Y667500D03*
D19*
X722500Y547500D03*
X722500Y430000D03*
X455000Y137500D03*
X170000Y360000D03*
X170000Y475000D03*
X280000Y360000D03*
X280000Y477500D03*
X170000Y172500D03*
X170000Y587500D03*
X280000Y172500D03*
X280000Y587500D03*
D21*
X72406Y787646D02*
X52594Y787646D01*
X52594Y737354D02*
X72406Y737354D01*
D22*
X103460Y334600D02*
X116540Y334600D01*
X116540Y360000D02*
X103460Y360000D01*
D23*
X59200Y309200D03*
X59200Y410800D03*
D22*
X103460Y147100D02*
X116540Y147100D01*
X116540Y172500D02*
X103460Y172500D01*
D23*
X59200Y121700D03*
X59200Y223300D03*
D24*
X37500Y532450D03*
X107500Y532450D03*
D15*
X904880Y747900D02*
X920120Y747900D01*
X920120Y722500D02*
X904880Y722500D01*
X904880Y697100D02*
X920120Y697100D01*
X306900Y112620D02*
X306900Y97380D01*
X332300Y97380D02*
X332300Y112620D01*
X357700Y112620D02*
X357700Y97380D01*
X383100Y97380D02*
X383100Y112620D01*
D25*
X940308Y396102D03*
X940308Y440298D03*
D15*
X454600Y112620D02*
X454600Y97380D01*
X480000Y97380D02*
X480000Y112620D01*
X505400Y112620D02*
X505400Y97380D01*
D26*
X222500Y782500D03*
X117500Y775000D03*
X172500Y775000D03*
X192500Y817500D03*
X337500Y782500D03*
X345000Y755000D03*
X345000Y725000D03*
X345000Y695000D03*
X437500Y755000D03*
X437500Y725000D03*
X437500Y695000D03*
X530000Y755000D03*
X530000Y725000D03*
X530000Y695000D03*
X622500Y755000D03*
X622500Y725000D03*
X622500Y695000D03*
X730000Y810000D03*
X970000Y482500D03*
X970000Y355000D03*
X915000Y355000D03*
X730000Y385000D03*
X867500Y670000D03*
X555000Y162500D03*
X602500Y162500D03*
X647500Y162500D03*
X747500Y162500D03*
X792500Y162500D03*
X840000Y162500D03*
X362500Y310000D03*
X240000Y230000D03*
X240000Y140000D03*
X240000Y325000D03*
X240000Y445000D03*
X240000Y555000D03*
X362500Y577500D03*
X362500Y530000D03*
X402500Y345000D03*
X450000Y345000D03*
X635000Y430000D03*
X567500Y525000D03*
X610000Y530000D03*
X530000Y540000D03*
X470000Y540000D03*
X192500Y667500D03*
X122500Y720000D03*
X525000Y397500D03*
X915000Y482500D03*
X662500Y700000D03*
X500000Y397500D03*
X475000Y397500D03*
X407500Y445000D03*
X407500Y480000D03*
X752500Y667500D03*
X705000Y780000D03*
X735000Y762500D03*
X905000Y445000D03*
X865000Y477500D03*
X905000Y392500D03*
X800000Y432500D03*
X770000Y432500D03*
X802500Y482500D03*
X781250Y461250D03*
X605000Y480000D03*
X970000Y207500D03*
X970000Y257500D03*
X650000Y397500D03*
X650000Y370000D03*
X842500Y612500D03*
X492500Y492500D03*
X492500Y467500D03*
X512500Y480000D03*
X767500Y577500D03*
X825000Y577500D03*
X862500Y400000D03*
X310000Y230000D03*
X597500Y292500D03*
D27*
X237500Y642500D03*
X287500Y607500D03*
X452500Y510000D03*
X217500Y622500D03*
X217500Y212500D03*
X217500Y395000D03*
X217500Y512500D03*
X567500Y187500D03*
X825000Y187500D03*
X777500Y187500D03*
X747500Y187500D03*
X647500Y187500D03*
X615000Y187500D03*
X536250Y332500D03*
X425000Y382500D03*
X405000Y562500D03*
X402500Y515000D03*
X350000Y442500D03*
X350000Y395000D03*
X465000Y382500D03*
X597500Y445000D03*
X362500Y332500D03*
X682700Y516250D03*
X882500Y432500D03*
X932500Y545000D03*
X682500Y382500D03*
X440000Y562500D03*
X600000Y342500D03*
X682500Y350000D03*
X882500Y593750D03*
X840000Y810000D03*
X841250Y400000D03*
D26*
X450000Y465000D03*
X450000Y495000D03*
X450000Y450000D03*
X807500Y577500D03*
X807500Y697500D03*
X807500Y747500D03*
X362500Y240000D03*
X552500Y507500D03*
X560000Y497500D03*
X785000Y577500D03*
X552500Y487500D03*
X542500Y427500D03*
X525000Y427500D03*
X477500Y427500D03*
X507500Y427500D03*
X495000Y427500D03*
X460000Y427500D03*
X450000Y480000D03*
M02*
