G04 EAGLE Gerber RS-274X export*
G75*
%MOMM*%
%FSLAX34Y34*%
%LPD*%
%INSoldermask Top*%
%IPPOS*%
%AMOC8*
5,1,8,0,0,1.08239X$1,22.5*%
G01*
G04 Define Apertures*
%ADD10C,3.203200*%
%ADD11R,1.367800X1.668500*%
%ADD12R,1.668500X1.367800*%
%ADD13R,1.124100X1.173400*%
%ADD14R,3.003200X2.603200*%
%ADD15R,0.965000X1.565000*%
%ADD16C,1.727200*%
%ADD17R,1.855700X4.318500*%
%ADD18R,1.078900X1.413500*%
%ADD19R,1.623400X1.234400*%
%ADD20R,1.234400X1.623400*%
%ADD21C,1.524000*%
%ADD22P,2.55682X8X22.5*%
%ADD23P,2.55682X8X292.5*%
%ADD24R,1.503200X0.803200*%
%ADD25R,1.101100X2.063500*%
%ADD26R,3.392300X2.063500*%
%ADD27R,2.403200X0.803200*%
%ADD28R,1.703200X0.603200*%
%ADD29C,2.184400*%
%ADD30C,1.511200*%
%ADD31C,3.419200*%
%ADD32R,2.203200X2.703200*%
%ADD33R,2.703200X2.203200*%
%ADD34R,1.403200X2.703200*%
%ADD35C,2.203200*%
%ADD36R,2.514600X0.711200*%
%ADD37R,2.692400X2.209800*%
%ADD38C,1.600200*%
%ADD39R,0.990600X0.889000*%
%ADD40R,0.453200X0.903200*%
%ADD41R,0.903200X0.453200*%
%ADD42P,1.03866X8X22.5*%
%ADD43P,1.20102X8X22.5*%
D10*
X40000Y40000D03*
X40000Y860000D03*
X960000Y40000D03*
X960000Y860000D03*
D11*
X311246Y755000D03*
X328754Y755000D03*
X496246Y695000D03*
X513754Y695000D03*
X588746Y695000D03*
X606254Y695000D03*
D12*
X337500Y813754D03*
X337500Y796246D03*
X192500Y698754D03*
X192500Y681246D03*
X752500Y698754D03*
X752500Y681246D03*
D11*
X143746Y675000D03*
X161254Y675000D03*
X705571Y675125D03*
X723079Y675125D03*
X403746Y755000D03*
X421254Y755000D03*
X761254Y810000D03*
X743746Y810000D03*
X883754Y625000D03*
X866246Y625000D03*
D12*
X842500Y643754D03*
X842500Y626246D03*
D11*
X496246Y755000D03*
X513754Y755000D03*
D12*
X280000Y258754D03*
X280000Y241246D03*
X885000Y386254D03*
X885000Y368746D03*
D11*
X761254Y385000D03*
X743746Y385000D03*
D13*
X460246Y525000D03*
X444754Y525000D03*
D11*
X843746Y432500D03*
X861254Y432500D03*
D13*
X492746Y525000D03*
X477254Y525000D03*
X507254Y525000D03*
X522746Y525000D03*
D12*
X847500Y453746D03*
X847500Y471254D03*
D13*
X539754Y525000D03*
X555246Y525000D03*
D11*
X588746Y755000D03*
X606254Y755000D03*
D12*
X882500Y453746D03*
X882500Y471254D03*
D14*
X145000Y854000D03*
X145000Y791000D03*
D12*
X192500Y848754D03*
X192500Y831246D03*
X222500Y813754D03*
X222500Y796246D03*
D11*
X311246Y695000D03*
X328754Y695000D03*
X403746Y695000D03*
X421254Y695000D03*
D15*
X912250Y527500D03*
X932750Y527500D03*
X912250Y562500D03*
X932750Y562500D03*
X910250Y282500D03*
X889750Y282500D03*
X910250Y232500D03*
X889750Y232500D03*
X910250Y182500D03*
X889750Y182500D03*
D16*
X320120Y652700D02*
X304880Y652700D01*
X304880Y627300D02*
X320120Y627300D01*
X657300Y634880D02*
X657300Y650120D01*
X682700Y650120D02*
X682700Y634880D01*
X120200Y610120D02*
X120200Y594880D01*
X94800Y594880D02*
X94800Y610120D01*
X682700Y610120D02*
X682700Y594880D01*
X657300Y594880D02*
X657300Y610120D01*
X904880Y657700D02*
X920120Y657700D01*
X920120Y632300D02*
X904880Y632300D01*
X850120Y697100D02*
X834880Y697100D01*
X834880Y722500D02*
X850120Y722500D01*
X850120Y747900D02*
X834880Y747900D01*
X412620Y652700D02*
X397380Y652700D01*
X397380Y627300D02*
X412620Y627300D01*
X489880Y652700D02*
X505120Y652700D01*
X505120Y627300D02*
X489880Y627300D01*
X582380Y652700D02*
X597620Y652700D01*
X597620Y627300D02*
X582380Y627300D01*
X280120Y627300D02*
X264880Y627300D01*
X264880Y652700D02*
X280120Y652700D01*
X357380Y627300D02*
X372620Y627300D01*
X372620Y652700D02*
X357380Y652700D01*
X449880Y627300D02*
X465120Y627300D01*
X465120Y652700D02*
X449880Y652700D01*
X542380Y627300D02*
X557620Y627300D01*
X557620Y652700D02*
X542380Y652700D01*
X94800Y650120D02*
X94800Y634880D01*
X120200Y634880D02*
X120200Y650120D01*
D17*
X255617Y850000D03*
X304383Y850000D03*
D18*
X863173Y385000D03*
X841827Y385000D03*
D19*
X222500Y849195D03*
X222500Y830805D03*
D20*
X946695Y282500D03*
X928305Y282500D03*
X946695Y232500D03*
X928305Y232500D03*
X808305Y810000D03*
X826695Y810000D03*
D19*
X337500Y849195D03*
X337500Y830805D03*
D20*
X946695Y182500D03*
X928305Y182500D03*
X805805Y385000D03*
X824195Y385000D03*
D19*
X722500Y503305D03*
X722500Y521695D03*
X722500Y474195D03*
X722500Y455805D03*
D20*
X873305Y527500D03*
X891695Y527500D03*
X873305Y562500D03*
X891695Y562500D03*
D16*
X825132Y834894D02*
X809892Y834894D01*
X809892Y880106D02*
X825132Y880106D01*
X760108Y834894D02*
X744868Y834894D01*
X744868Y880106D02*
X760108Y880106D01*
D21*
X634000Y43504D02*
X634000Y30296D01*
X659400Y30296D02*
X659400Y43504D01*
X761000Y106496D02*
X761000Y119704D01*
X735600Y119704D02*
X735600Y106496D01*
X684800Y43504D02*
X684800Y30296D01*
X710200Y30296D02*
X710200Y43504D01*
X761000Y43504D02*
X761000Y30296D01*
X735600Y30296D02*
X735600Y43504D01*
X710200Y106496D02*
X710200Y119704D01*
X684800Y119704D02*
X684800Y106496D01*
X659400Y106496D02*
X659400Y119704D01*
X634000Y119704D02*
X634000Y106496D01*
D16*
X744868Y345106D02*
X760108Y345106D01*
X760108Y299894D02*
X744868Y299894D01*
X809892Y345106D02*
X825132Y345106D01*
X825132Y299894D02*
X809892Y299894D01*
D22*
X405000Y867500D03*
X412550Y259100D03*
X257500Y285000D03*
D23*
X842500Y667500D03*
D22*
X722500Y547500D03*
X722500Y430000D03*
X455000Y137500D03*
X170000Y360000D03*
X170000Y475000D03*
X280000Y360000D03*
X280000Y477500D03*
X170000Y172500D03*
X170000Y587500D03*
X280000Y172500D03*
X280000Y587500D03*
D24*
X309500Y734500D03*
X309500Y715500D03*
X330500Y725000D03*
X402000Y734500D03*
X402000Y715500D03*
X423000Y725000D03*
X494500Y734500D03*
X494500Y715500D03*
X515500Y725000D03*
X587000Y734500D03*
X587000Y715500D03*
X608000Y725000D03*
D25*
X122000Y699250D03*
X145000Y699250D03*
X168000Y699250D03*
D26*
X145000Y760750D03*
D25*
X682000Y699250D03*
X705000Y699250D03*
X728000Y699250D03*
D26*
X705000Y760750D03*
D27*
X363500Y271150D03*
X311500Y271150D03*
X363500Y258450D03*
X363500Y283850D03*
X363500Y296550D03*
X311500Y258450D03*
X311500Y283850D03*
X311500Y296550D03*
D28*
X748750Y502250D03*
X748750Y495750D03*
X748750Y489250D03*
X748750Y482750D03*
X748750Y476250D03*
X748750Y469750D03*
X748750Y463250D03*
X748750Y456750D03*
X748750Y450250D03*
X748750Y443750D03*
X748750Y437250D03*
X748750Y430750D03*
X748750Y424250D03*
X748750Y417750D03*
X821250Y417750D03*
X821250Y424250D03*
X821250Y430750D03*
X821250Y437250D03*
X821250Y443750D03*
X821250Y450250D03*
X821250Y456750D03*
X821250Y463250D03*
X821250Y469750D03*
X821250Y476250D03*
X821250Y482750D03*
X821250Y489250D03*
X821250Y495750D03*
X821250Y502250D03*
D29*
X72406Y787646D02*
X52594Y787646D01*
X52594Y737354D02*
X72406Y737354D01*
D30*
X103460Y334600D02*
X116540Y334600D01*
X116540Y360000D02*
X103460Y360000D01*
D31*
X59200Y309200D03*
X59200Y410800D03*
D30*
X103460Y147100D02*
X116540Y147100D01*
X116540Y172500D02*
X103460Y172500D01*
D31*
X59200Y121700D03*
X59200Y223300D03*
D32*
X26500Y497950D03*
X119500Y497950D03*
X45500Y566950D03*
D33*
X160000Y539950D03*
D34*
X17500Y566950D03*
D35*
X37500Y532450D03*
X107500Y532450D03*
D16*
X904880Y747900D02*
X920120Y747900D01*
X920120Y722500D02*
X904880Y722500D01*
X904880Y697100D02*
X920120Y697100D01*
X306900Y112620D02*
X306900Y97380D01*
X332300Y97380D02*
X332300Y112620D01*
X357700Y112620D02*
X357700Y97380D01*
X383100Y97380D02*
X383100Y112620D01*
D36*
X914240Y402200D03*
X914240Y410200D03*
X914240Y418200D03*
X914240Y426200D03*
X914240Y434200D03*
D37*
X915192Y373700D03*
X915192Y462700D03*
X970300Y373700D03*
X970300Y462700D03*
D38*
X940308Y396102D03*
X940308Y440298D03*
D16*
X454600Y112620D02*
X454600Y97380D01*
X480000Y97380D02*
X480000Y112620D01*
X505400Y112620D02*
X505400Y97380D01*
D39*
X883128Y659104D03*
X866872Y659104D03*
X866872Y645896D03*
X883128Y645896D03*
D40*
X517500Y504000D03*
X512500Y504000D03*
X507500Y504000D03*
X502500Y504000D03*
X497500Y504000D03*
X492500Y504000D03*
X487500Y504000D03*
X482500Y504000D03*
D41*
X476000Y497500D03*
X476000Y492500D03*
X476000Y487500D03*
X476000Y482500D03*
X476000Y477500D03*
X476000Y472500D03*
X476000Y467500D03*
X476000Y462500D03*
D40*
X482500Y456000D03*
X487500Y456000D03*
X492500Y456000D03*
X497500Y456000D03*
X502500Y456000D03*
X507500Y456000D03*
X512500Y456000D03*
X517500Y456000D03*
D41*
X524000Y462500D03*
X524000Y467500D03*
X524000Y472500D03*
X524000Y477500D03*
X524000Y482500D03*
X524000Y487500D03*
X524000Y492500D03*
X524000Y497500D03*
D42*
X222500Y782500D03*
X117500Y775000D03*
X172500Y775000D03*
X192500Y817500D03*
X337500Y782500D03*
X345000Y755000D03*
X345000Y725000D03*
X345000Y695000D03*
X437500Y755000D03*
X437500Y725000D03*
X437500Y695000D03*
X530000Y755000D03*
X530000Y725000D03*
X530000Y695000D03*
X622500Y755000D03*
X622500Y725000D03*
X622500Y695000D03*
X730000Y810000D03*
X970000Y482500D03*
X970000Y355000D03*
X915000Y355000D03*
X730000Y385000D03*
X867500Y670000D03*
X555000Y162500D03*
X602500Y162500D03*
X647500Y162500D03*
X747500Y162500D03*
X792500Y162500D03*
X840000Y162500D03*
X362500Y310000D03*
X240000Y230000D03*
X240000Y140000D03*
X240000Y325000D03*
X240000Y445000D03*
X240000Y555000D03*
X362500Y577500D03*
X362500Y530000D03*
X402500Y345000D03*
X450000Y345000D03*
X635000Y430000D03*
X567500Y525000D03*
X610000Y530000D03*
X530000Y540000D03*
X470000Y540000D03*
X192500Y667500D03*
X122500Y720000D03*
X525000Y397500D03*
X915000Y482500D03*
X662500Y700000D03*
X500000Y397500D03*
X475000Y397500D03*
X407500Y445000D03*
X407500Y480000D03*
X752500Y667500D03*
X705000Y780000D03*
X735000Y762500D03*
X905000Y445000D03*
X865000Y477500D03*
X905000Y392500D03*
X800000Y432500D03*
X770000Y432500D03*
X802500Y482500D03*
X781250Y461250D03*
X605000Y480000D03*
X970000Y207500D03*
X970000Y257500D03*
X650000Y397500D03*
X650000Y370000D03*
X842500Y612500D03*
X492500Y492500D03*
X492500Y467500D03*
X512500Y480000D03*
X767500Y577500D03*
X825000Y577500D03*
X862500Y400000D03*
X310000Y230000D03*
X597500Y292500D03*
D43*
X237500Y642500D03*
X287500Y607500D03*
X452500Y510000D03*
X217500Y622500D03*
X217500Y212500D03*
X217500Y395000D03*
X217500Y512500D03*
X567500Y187500D03*
X825000Y187500D03*
X777500Y187500D03*
X747500Y187500D03*
X647500Y187500D03*
X615000Y187500D03*
X536250Y332500D03*
X425000Y382500D03*
X405000Y562500D03*
X402500Y515000D03*
X350000Y442500D03*
X350000Y395000D03*
X465000Y382500D03*
X597500Y445000D03*
X362500Y332500D03*
X682700Y516250D03*
X882500Y432500D03*
X932500Y545000D03*
X682500Y382500D03*
X440000Y562500D03*
X600000Y342500D03*
X682500Y350000D03*
X882500Y593750D03*
X840000Y810000D03*
X841250Y400000D03*
D42*
X450000Y465000D03*
X450000Y495000D03*
X450000Y450000D03*
X807500Y577500D03*
X807500Y697500D03*
X807500Y747500D03*
X362500Y240000D03*
X552500Y507500D03*
X560000Y497500D03*
X785000Y577500D03*
X552500Y487500D03*
X542500Y427500D03*
X525000Y427500D03*
X477500Y427500D03*
X507500Y427500D03*
X495000Y427500D03*
X460000Y427500D03*
X450000Y480000D03*
M02*
