<?xml version="1.0" encoding="utf-8" standalone="no"?>
<!DOCTYPE svg PUBLIC "-//W3C//DTD SVG 1.1//EN"
  "http://www.w3.org/Graphics/SVG/1.1/DTD/svg11.dtd">
<svg xmlns:xlink="http://www.w3.org/1999/xlink" width="426.199886pt" height="332.264pt" viewBox="0 0 426.199886 332.264" xmlns="http://www.w3.org/2000/svg" version="1.1">
 <metadata>
  <rdf:RDF xmlns:dc="http://purl.org/dc/elements/1.1/" xmlns:cc="http://creativecommons.org/ns#" xmlns:rdf="http://www.w3.org/1999/02/22-rdf-syntax-ns#">
   <cc:Work>
    <dc:type rdf:resource="http://purl.org/dc/dcmitype/StillImage"/>
    <dc:date>2025-05-20T18:07:18.437037</dc:date>
    <dc:format>image/svg+xml</dc:format>
    <dc:creator>
     <cc:Agent>
      <dc:title>Matplotlib v3.9.2, https://matplotlib.org/</dc:title>
     </cc:Agent>
    </dc:creator>
   </cc:Work>
  </rdf:RDF>
 </metadata>
 <defs>
  <style type="text/css">*{stroke-linejoin: round; stroke-linecap: butt}</style>
 </defs>
 <g id="figure_1">
  <g id="patch_1">
   <path d="M 0 332.264 
L 426.199886 332.264 
L 426.199886 0 
L 0 0 
L 0 332.264 
z
" style="fill: none"/>
  </g>
  <g id="axes_1">
   <g id="patch_2">
    <path d="M 42.9776 282.584 
C 47.751256 282.584 52.330038 280.687406 55.705522 277.311922 
C 59.081006 273.936438 60.9776 269.357656 60.9776 264.584 
C 60.9776 259.810344 59.081006 255.231562 55.705522 251.856078 
C 52.330038 248.480594 47.751256 246.584 42.9776 246.584 
C 38.203944 246.584 33.625162 248.480594 30.249678 251.856078 
C 26.874194 255.231562 24.9776 259.810344 24.9776 264.584 
C 24.9776 269.357656 26.874194 273.936438 30.249678 277.311922 
C 33.625162 280.687406 38.203944 282.584 42.9776 282.584 
L 42.9776 282.584 
z
" clip-path="url(#p96d7f08890)" style="fill: none; stroke: #000000; stroke-width: 2; stroke-linejoin: miter"/>
   </g>
   <g id="patch_3">
    <path d="M 285.9776 66.584 
C 290.751256 66.584 295.330038 64.687406 298.705522 61.311922 
C 302.081006 57.936438 303.9776 53.357656 303.9776 48.584 
C 303.9776 43.810344 302.081006 39.231562 298.705522 35.856078 
C 295.330038 32.480594 290.751256 30.584 285.9776 30.584 
C 281.203944 30.584 276.625162 32.480594 273.249678 35.856078 
C 269.874194 39.231562 267.9776 43.810344 267.9776 48.584 
C 267.9776 53.357656 269.874194 57.936438 273.249678 61.311922 
C 276.625162 64.687406 281.203944 66.584 285.9776 66.584 
L 285.9776 66.584 
z
" clip-path="url(#p96d7f08890)" style="fill: none; stroke: #000000; stroke-width: 2; stroke-linejoin: miter"/>
   </g>
   <g id="line2d_1">
    <path d="M 42.9776 318.584 
L 42.9776 318.584 
L 33.9776 318.584 
L 42.9776 327.584 
L 51.9776 318.584 
L 42.9776 318.584 
" clip-path="url(#p96d7f08890)" style="fill: none; stroke: #000000; stroke-width: 2; stroke-linecap: round"/>
   </g>
   <g id="line2d_2">
    <path d="M 42.9776 318.584 
L 42.9776 309.584 
L 42.9776 300.584 
" clip-path="url(#p96d7f08890)" style="fill: none; stroke: #000000; stroke-width: 2; stroke-linecap: round"/>
   </g>
   <g id="line2d_3">
    <path d="M 42.9776 300.584 
L 42.9776 282.584 
L 42.9776 282.584 
M 42.9776 246.584 
L 42.9776 246.584 
L 42.9776 228.584 
" clip-path="url(#p96d7f08890)" style="fill: none; stroke: #000000; stroke-width: 2; stroke-linecap: round"/>
   </g>
   <g id="line2d_4">
    <path d="M 51.9776 264.584 
L 51.2276 262.720503 
L 50.4776 260.984 
L 49.7276 259.492831 
L 48.9776 258.348617 
L 48.2276 257.629334 
L 47.4776 257.384 
L 46.7276 257.629334 
L 45.9776 258.348617 
L 45.2276 259.492831 
L 44.4776 260.984 
L 43.7276 262.720503 
L 42.9776 264.584 
L 42.2276 266.447497 
L 41.4776 268.184 
L 40.7276 269.675169 
L 39.9776 270.819383 
L 39.2276 271.538666 
L 38.4776 271.784 
L 37.7276 271.538666 
L 36.9776 270.819383 
L 36.2276 269.675169 
L 35.4776 268.184 
L 34.7276 266.447497 
L 33.9776 264.584 
" clip-path="url(#p96d7f08890)" style="fill: none; stroke: #000000; stroke-width: 2; stroke-linecap: round"/>
   </g>
   <g id="line2d_5">
    <path d="M 42.9776 228.584 
L 60.9776 228.584 
L 78.9776 228.584 
" clip-path="url(#p96d7f08890)" style="fill: none; stroke: #ff0000; stroke-width: 2; stroke-linecap: round"/>
   </g>
   <g id="line2d_6">
    <path d="M 78.9776 228.584 
L 78.9776 264.584 
L 78.9776 300.584 
" clip-path="url(#p96d7f08890)" style="fill: none; stroke: #ff0000; stroke-width: 2; stroke-linecap: round"/>
   </g>
   <g id="line2d_7">
    <path d="M 78.9776 300.584 
L 60.9776 300.584 
L 42.9776 300.584 
" clip-path="url(#p96d7f08890)" style="fill: none; stroke: #ff0000; stroke-width: 2; stroke-linecap: round"/>
   </g>
   <g id="line2d_8">
    <path d="M 42.9776 228.584 
L 42.9776 219.584 
L 42.9776 210.584 
" clip-path="url(#p96d7f08890)" style="fill: none; stroke: #000000; stroke-width: 2; stroke-linecap: round"/>
   </g>
   <g id="line2d_9">
    <path d="M 42.9776 210.584 
L 51.9776 210.584 
L 60.9776 210.584 
" clip-path="url(#p96d7f08890)" style="fill: none; stroke: #000000; stroke-width: 2; stroke-linecap: round"/>
   </g>
   <g id="line2d_10">
    <path d="M 60.9776 210.584 
L 78.9776 210.584 
L 81.9776 201.584 
L 87.9776 219.584 
L 93.9776 201.584 
L 99.9776 219.584 
L 105.9776 201.584 
L 111.9776 219.584 
L 114.9776 210.584 
L 132.9776 210.584 
" clip-path="url(#p96d7f08890)" style="fill: none; stroke: #000000; stroke-width: 2; stroke-linecap: round"/>
   </g>
   <g id="line2d_11">
    <path d="M 132.9776 210.584 
L 165.7376 210.584 
M 165.7376 201.584 
L 165.7376 219.584 
M 172.2176 201.584 
L 172.2176 219.584 
M 172.2176 210.584 
L 204.9776 210.584 
" clip-path="url(#p96d7f08890)" style="fill: none; stroke: #000000; stroke-width: 2; stroke-linecap: round"/>
   </g>
   <g id="line2d_12">
    <path d="M 204.9776 210.584 
L 209.4776 210.584 
L 213.9776 210.584 
" clip-path="url(#p96d7f08890)" style="fill: none; stroke: #000000; stroke-width: 2; stroke-linecap: round"/>
   </g>
   <g id="line2d_13">
    <path d="M 213.9776 210.584 
L 218.4776 210.584 
L 222.9776 210.584 
" clip-path="url(#p96d7f08890)" style="fill: none; stroke: #000000; stroke-width: 2; stroke-linecap: round"/>
   </g>
   <g id="line2d_14">
    <path d="M 245.4776 233.084 
L 245.4776 188.084 
L 323.419886 233.084 
L 245.4776 278.084 
L 245.4776 233.084 
M 323.419886 233.084 
" clip-path="url(#p96d7f08890)" style="fill: none; stroke: #000000; stroke-width: 2; stroke-linecap: round"/>
   </g>
   <g id="line2d_15">
    <path d="M 251.620386 210.584 
L 258.820386 210.584 
" clip-path="url(#p96d7f08890)" style="fill: none; stroke: #000000; stroke-width: 2; stroke-linecap: round"/>
   </g>
   <g id="line2d_16">
    <path d="M 251.620386 255.584 
L 258.820386 255.584 
" clip-path="url(#p96d7f08890)" style="fill: none; stroke: #000000; stroke-width: 2; stroke-linecap: round"/>
   </g>
   <g id="line2d_17">
    <path d="M 255.220386 259.184 
L 255.220386 251.984 
" clip-path="url(#p96d7f08890)" style="fill: none; stroke: #000000; stroke-width: 2; stroke-linecap: round"/>
   </g>
   <g id="line2d_18">
    <path d="M 222.9776 210.584 
L 245.4776 210.584 
" clip-path="url(#p96d7f08890)" style="fill: none; stroke: #000000; stroke-width: 2; stroke-linecap: round"/>
   </g>
   <g id="line2d_19">
    <path d="M 222.9776 255.584 
L 245.4776 255.584 
" clip-path="url(#p96d7f08890)" style="fill: none; stroke: #000000; stroke-width: 2; stroke-linecap: round"/>
   </g>
   <g id="line2d_20">
    <path d="M 323.419886 233.084 
L 345.919886 233.084 
" clip-path="url(#p96d7f08890)" style="fill: none; stroke: #000000; stroke-width: 2; stroke-linecap: round"/>
   </g>
   <g id="line2d_21">
    <path d="M 222.9776 255.584 
L 218.4776 255.584 
L 213.9776 255.584 
" clip-path="url(#p96d7f08890)" style="fill: none; stroke: #000000; stroke-width: 2; stroke-linecap: round"/>
   </g>
   <g id="line2d_22">
    <path d="M 213.9776 255.584 
L 213.9776 287.084 
L 213.9776 318.584 
" clip-path="url(#p96d7f08890)" style="fill: none; stroke: #000000; stroke-width: 2; stroke-linecap: round"/>
   </g>
   <g id="line2d_23">
    <path d="M 213.9776 318.584 
L 213.9776 318.584 
L 204.9776 318.584 
L 213.9776 327.584 
L 222.9776 318.584 
L 213.9776 318.584 
" clip-path="url(#p96d7f08890)" style="fill: none; stroke: #000000; stroke-width: 2; stroke-linecap: round"/>
   </g>
   <g id="line2d_24">
    <path d="M 345.919886 233.084 
L 350.419886 233.084 
L 354.919886 233.084 
" clip-path="url(#p96d7f08890)" style="fill: none; stroke: #000000; stroke-width: 2; stroke-linecap: round"/>
   </g>
   <g id="line2d_25">
    <path d="M 354.919886 233.084 
L 372.919886 233.084 
L 390.919886 233.084 
" clip-path="url(#p96d7f08890)" style="fill: none; stroke: #000000; stroke-width: 2; stroke-linecap: round"/>
   </g>
   <g id="line2d_26">
    <path d="M 390.919886 233.084 
L 390.919886 237.584 
L 390.919886 242.084 
" clip-path="url(#p96d7f08890)" style="fill: none; stroke: #ffffff; stroke-width: 2; stroke-linecap: round"/>
   </g>
   <g id="line2d_27">
    <path d="M 390.919886 242.084 
L 390.919886 267.284 
L 390.919886 283.484 
" clip-path="url(#p96d7f08890)" style="fill: none; stroke: #000000; stroke-width: 2; stroke-linecap: round"/>
   </g>
   <g id="patch_4">
    <path d="M 393.619886 283.484 
L 390.919886 292.484 
L 388.219886 283.484 
z
" clip-path="url(#p96d7f08890)"/>
   </g>
   <g id="line2d_28">
    <path d="M 390.919886 292.484 
L 390.919886 296.984 
L 390.919886 301.484 
" clip-path="url(#p96d7f08890)" style="fill: none; stroke: #ffffff; stroke-width: 2; stroke-linecap: round"/>
   </g>
   <g id="line2d_29">
    <path d="M 390.919886 301.484 
L 390.919886 310.034 
L 390.919886 318.584 
" clip-path="url(#p96d7f08890)" style="fill: none; stroke: #000000; stroke-width: 2; stroke-linecap: round"/>
   </g>
   <g id="line2d_30">
    <path d="M 390.919886 318.584 
L 390.919886 318.584 
L 381.919886 318.584 
L 390.919886 327.584 
L 399.919886 318.584 
L 390.919886 318.584 
" clip-path="url(#p96d7f08890)" style="fill: none; stroke: #000000; stroke-width: 2; stroke-linecap: round"/>
   </g>
   <g id="line2d_31">
    <path d="M 213.9776 210.584 
L 213.9776 183.584 
L 213.9776 156.584 
" clip-path="url(#p96d7f08890)" style="fill: none; stroke: #000000; stroke-width: 2; stroke-linecap: round"/>
   </g>
   <g id="line2d_32">
    <path d="M 213.9776 156.584 
L 231.9776 156.584 
L 249.9776 156.584 
" clip-path="url(#p96d7f08890)" style="fill: none; stroke: #000000; stroke-width: 2; stroke-linecap: round"/>
   </g>
   <g id="line2d_33">
    <path d="M 249.9776 156.584 
L 282.7376 156.584 
M 282.7376 147.584 
L 282.7376 165.584 
M 289.2176 147.584 
L 289.2176 165.584 
M 289.2176 156.584 
L 321.9776 156.584 
" clip-path="url(#p96d7f08890)" style="fill: none; stroke: #000000; stroke-width: 2; stroke-linecap: round"/>
   </g>
   <g id="line2d_34">
    <path d="M 321.9776 156.584 
L 338.448743 156.584 
L 354.919886 156.584 
" clip-path="url(#p96d7f08890)" style="fill: none; stroke: #000000; stroke-width: 2; stroke-linecap: round"/>
   </g>
   <g id="line2d_35">
    <path d="M 213.9776 156.584 
L 213.9776 129.584 
L 213.9776 102.584 
" clip-path="url(#p96d7f08890)" style="fill: none; stroke: #000000; stroke-width: 2; stroke-linecap: round"/>
   </g>
   <g id="line2d_36">
    <path d="M 213.9776 102.584 
L 231.9776 102.584 
L 249.9776 102.584 
" clip-path="url(#p96d7f08890)" style="fill: none; stroke: #000000; stroke-width: 2; stroke-linecap: round"/>
   </g>
   <g id="line2d_37">
    <path d="M 249.9776 102.584 
L 267.9776 102.584 
L 270.9776 93.584 
L 276.9776 111.584 
L 282.9776 93.584 
L 288.9776 111.584 
L 294.9776 93.584 
L 300.9776 111.584 
L 303.9776 102.584 
L 321.9776 102.584 
" clip-path="url(#p96d7f08890)" style="fill: none; stroke: #000000; stroke-width: 2; stroke-linecap: round"/>
   </g>
   <g id="line2d_38">
    <path d="M 321.9776 102.584 
L 338.448743 102.584 
L 354.919886 102.584 
" clip-path="url(#p96d7f08890)" style="fill: none; stroke: #000000; stroke-width: 2; stroke-linecap: round"/>
   </g>
   <g id="line2d_39">
    <path d="M 354.919886 102.584 
L 354.919886 167.834 
L 354.919886 233.084 
" clip-path="url(#p96d7f08890)" style="fill: none; stroke: #000000; stroke-width: 2; stroke-linecap: round"/>
   </g>
   <g id="line2d_40">
    <path d="M 213.9776 102.584 
L 213.9776 75.584 
L 213.9776 48.584 
" clip-path="url(#p96d7f08890)" style="fill: none; stroke: #000000; stroke-width: 2; stroke-linecap: round"/>
   </g>
   <g id="line2d_41">
    <path d="M 213.9776 48.584 
L 231.9776 48.584 
L 249.9776 48.584 
" clip-path="url(#p96d7f08890)" style="fill: none; stroke: #000000; stroke-width: 2; stroke-linecap: round"/>
   </g>
   <g id="line2d_42">
    <path d="M 249.9776 48.584 
L 267.9776 48.584 
L 267.9776 48.584 
M 303.9776 48.584 
L 303.9776 48.584 
L 321.9776 48.584 
" clip-path="url(#p96d7f08890)" style="fill: none; stroke: #000000; stroke-width: 2; stroke-linecap: round"/>
   </g>
   <g id="line2d_43">
    <path d="M 285.9776 57.584 
L 287.841097 56.834 
L 289.5776 56.084 
L 291.068769 55.334 
L 292.212983 54.584 
L 292.932266 53.834 
L 293.1776 53.084 
L 292.932266 52.334 
L 292.212983 51.584 
L 291.068769 50.834 
L 289.5776 50.084 
L 287.841097 49.334 
L 285.9776 48.584 
L 284.114103 47.834 
L 282.3776 47.084 
L 280.886431 46.334 
L 279.742217 45.584 
L 279.022934 44.834 
L 278.7776 44.084 
L 279.022934 43.334 
L 279.742217 42.584 
L 280.886431 41.834 
L 282.3776 41.084 
L 284.114103 40.334 
L 285.9776 39.584 
" clip-path="url(#p96d7f08890)" style="fill: none; stroke: #000000; stroke-width: 2; stroke-linecap: round"/>
   </g>
   <g id="line2d_44">
    <path d="M 321.9776 48.584 
L 338.448743 48.584 
L 354.919886 48.584 
" clip-path="url(#p96d7f08890)" style="fill: none; stroke: #000000; stroke-width: 2; stroke-linecap: round"/>
   </g>
   <g id="line2d_45">
    <path d="M 354.919886 48.584 
L 354.919886 140.834 
L 354.919886 233.084 
" clip-path="url(#p96d7f08890)" style="fill: none; stroke: #000000; stroke-width: 2; stroke-linecap: round"/>
   </g>
   <g id="text_1">
    <!-- $V_\mathrm{in}$ -->
    <g transform="translate(2.980023 268.569056) scale(0.16 -0.16)">
     <defs>
      <path id="CMMI12-56" d="M 3962 3640 
C 4179 3984 4378 4136 4704 4162 
C 4768 4168 4819 4168 4819 4282 
C 4819 4308 4806 4346 4749 4346 
C 4634 4346 4358 4346 4243 4346 
C 4058 4346 3866 4346 3686 4346 
C 3635 4346 3571 4346 3571 4226 
C 3571 4168 3629 4162 3654 4162 
C 3891 4143 3917 4029 3917 3952 
C 3917 3857 3827 3710 3821 3704 
L 1811 540 
L 1363 3969 
C 1363 4160 1696 4160 1766 4160 
C 1862 4160 1920 4160 1920 4282 
C 1920 4346 1850 4346 1830 4346 
C 1722 4346 1594 4346 1485 4346 
L 1126 4346 
C 659 4346 467 4346 461 4346 
C 422 4346 346 4346 346 4230 
C 346 4160 390 4160 493 4160 
C 819 4160 838 4102 858 3944 
L 1370 24 
C 1389 -109 1389 -128 1478 -128 
C 1555 -128 1587 -109 1651 -8 
L 3962 3640 
z
" transform="scale(0.015625)"/>
      <path id="CMR17-69" d="M 992 3909 
C 992 4049 877 4170 730 4170 
C 589 4170 467 4056 467 3909 
C 467 3769 582 3648 730 3648 
C 870 3648 992 3763 992 3909 
z
M 243 2706 
L 243 2541 
C 602 2541 653 2502 653 2197 
L 653 427 
C 653 184 627 153 218 153 
L 218 -13 
C 371 0 646 0 806 0 
C 960 0 1222 0 1370 -13 
L 1370 153 
C 992 153 979 191 979 420 
L 979 2776 
L 243 2706 
z
" transform="scale(0.015625)"/>
      <path id="CMR17-6e" d="M 2656 1933 
C 2656 2259 2592 2790 1837 2790 
C 1331 2790 1069 2400 973 2144 
L 966 2144 
L 966 2790 
L 211 2720 
L 211 2554 
C 589 2554 646 2515 646 2208 
L 646 428 
C 646 184 621 153 211 153 
L 211 -13 
C 365 0 646 0 813 0 
C 979 0 1267 0 1421 -13 
L 1421 153 
C 1011 153 986 178 986 428 
L 986 1658 
C 986 2247 1344 2688 1792 2688 
C 2266 2688 2317 2266 2317 1958 
L 2317 428 
C 2317 184 2291 153 1882 153 
L 1882 -13 
C 2035 0 2317 0 2483 0 
C 2650 0 2938 0 3091 -13 
L 3091 153 
C 2682 153 2656 178 2656 428 
L 2656 1933 
z
" transform="scale(0.015625)"/>
     </defs>
     <use xlink:href="#CMMI12-56" transform="scale(0.996264)"/>
     <use xlink:href="#CMR17-69" transform="translate(56.869579 -14.943915) scale(0.697382)"/>
     <use xlink:href="#CMR17-6e" transform="translate(74.279238 -14.943915) scale(0.697382)"/>
    </g>
   </g>
   <g id="patch_5">
    <path d="M 42.9776 303.284 
C 43.693648 303.284 44.380466 302.999511 44.886788 302.493188 
C 45.393111 301.986866 45.6776 301.300048 45.6776 300.584 
C 45.6776 299.867952 45.393111 299.181134 44.886788 298.674812 
C 44.380466 298.168489 43.693648 297.884 42.9776 297.884 
C 42.261552 297.884 41.574734 298.168489 41.068412 298.674812 
C 40.562089 299.181134 40.2776 299.867952 40.2776 300.584 
C 40.2776 301.300048 40.562089 301.986866 41.068412 302.493188 
C 41.574734 302.999511 42.261552 303.284 42.9776 303.284 
z
" clip-path="url(#p96d7f08890)" style="fill: #ff0000; stroke: #ff0000; stroke-width: 2; stroke-linejoin: miter"/>
   </g>
   <g id="text_2">
    <!-- $R_1$ -->
    <g transform="translate(88.247999 194.884524) scale(0.16 -0.16)">
     <defs>
      <path id="CMMI12-52" d="M 2355 3924 
C 2413 4160 2438 4160 2688 4160 
L 3149 4160 
C 3699 4160 4109 3995 4109 3499 
C 4109 3175 3942 2240 2656 2240 
L 1933 2240 
L 2355 3924 
z
M 3245 2169 
C 4038 2341 4659 2851 4659 3398 
C 4659 3894 4154 4352 3264 4352 
L 1530 4352 
C 1402 4352 1344 4352 1344 4226 
C 1344 4160 1389 4160 1510 4160 
C 1894 4160 1894 4112 1894 4045 
C 1894 4033 1894 3994 1869 3899 
L 1005 479 
C 947 256 934 192 493 192 
C 346 192 301 192 301 71 
C 301 7 371 7 390 7 
C 506 7 640 7 762 7 
L 1517 7 
C 1632 7 1766 7 1882 7 
C 1933 7 2003 7 2003 128 
C 2003 192 1946 192 1850 192 
C 1459 192 1459 243 1459 306 
C 1459 313 1459 357 1472 407 
L 1901 2112 
L 2669 2112 
C 3277 2112 3392 1731 3392 1522 
C 3392 1427 3328 1179 3283 1014 
C 3213 723 3194 652 3194 532 
C 3194 82 3565 -128 3994 -128 
C 4512 -128 4736 501 4736 591 
C 4736 635 4704 654 4666 654 
C 4614 654 4602 616 4589 565 
C 4435 114 4173 0 4013 0 
C 3853 0 3750 70 3750 356 
C 3750 509 3827 1088 3834 1120 
C 3866 1355 3866 1380 3866 1432 
C 3866 1896 3488 2093 3245 2169 
z
" transform="scale(0.015625)"/>
      <path id="CMR17-31" d="M 1702 4058 
C 1702 4192 1696 4192 1606 4192 
C 1357 3916 979 3827 621 3827 
C 602 3827 570 3827 563 3808 
C 557 3795 557 3782 557 3648 
C 755 3648 1088 3686 1344 3839 
L 1344 461 
C 1344 236 1331 160 781 160 
L 589 160 
L 589 0 
C 896 0 1216 0 1523 0 
C 1830 0 2150 0 2458 0 
L 2458 160 
L 2266 160 
C 1715 160 1702 230 1702 458 
L 1702 4058 
z
" transform="scale(0.015625)"/>
     </defs>
     <use xlink:href="#CMMI12-52" transform="scale(0.996264)"/>
     <use xlink:href="#CMR17-31" transform="translate(74.250826 -14.943915) scale(0.697382)"/>
    </g>
   </g>
   <g id="text_3">
    <!-- $C_1$ -->
    <g transform="translate(160.604701 194.884524) scale(0.16 -0.16)">
     <defs>
      <path id="CMMI12-43" d="M 4781 4423 
C 4781 4480 4736 4480 4723 4480 
C 4710 4480 4685 4480 4634 4416 
L 4192 3882 
C 3968 4264 3616 4480 3136 4480 
C 1754 4480 320 3088 320 1595 
C 320 533 1069 -128 2003 -128 
C 2515 -128 2963 88 3334 400 
C 3891 863 4058 1481 4058 1531 
C 4058 1588 4006 1588 3987 1588 
C 3930 1588 3923 1550 3910 1524 
C 3616 534 2752 57 2112 57 
C 1434 57 845 489 845 1391 
C 845 1595 909 2700 1632 3532 
C 1984 3939 2586 4295 3194 4295 
C 3898 4295 4211 3717 4211 3068 
C 4211 2903 4192 2764 4192 2738 
C 4192 2681 4256 2681 4275 2681 
C 4346 2681 4352 2687 4378 2801 
L 4781 4423 
z
" transform="scale(0.015625)"/>
     </defs>
     <use xlink:href="#CMMI12-43" transform="scale(0.996264)"/>
     <use xlink:href="#CMR17-31" transform="translate(69.792037 -14.943915) scale(0.697382)"/>
    </g>
   </g>
   <g id="patch_6">
    <path d="M 213.9776 213.284 
C 214.693648 213.284 215.380466 212.999511 215.886788 212.493188 
C 216.393111 211.986866 216.6776 211.300048 216.6776 210.584 
C 216.6776 209.867952 216.393111 209.181134 215.886788 208.674812 
C 215.380466 208.168489 214.693648 207.884 213.9776 207.884 
C 213.261552 207.884 212.574734 208.168489 212.068412 208.674812 
C 211.562089 209.181134 211.2776 209.867952 211.2776 210.584 
C 211.2776 211.300048 211.562089 211.986866 212.068412 212.493188 
C 212.574734 212.999511 213.261552 213.284 213.9776 213.284 
z
" clip-path="url(#p96d7f08890)" style="stroke: #000000; stroke-width: 2; stroke-linejoin: miter"/>
   </g>
   <g id="patch_7">
    <path d="M 354.919886 235.784 
C 355.635935 235.784 356.322752 235.499511 356.829075 234.993188 
C 357.335397 234.486866 357.619886 233.800048 357.619886 233.084 
C 357.619886 232.367952 357.335397 231.681134 356.829075 231.174812 
C 356.322752 230.668489 355.635935 230.384 354.919886 230.384 
C 354.203838 230.384 353.517021 230.668489 353.010698 231.174812 
C 352.504375 231.681134 352.219886 232.367952 352.219886 233.084 
C 352.219886 233.800048 352.504375 234.486866 353.010698 234.993188 
C 353.517021 235.499511 354.203838 235.784 354.919886 235.784 
z
" clip-path="url(#p96d7f08890)" style="stroke: #000000; stroke-width: 2; stroke-linejoin: miter"/>
   </g>
   <g id="patch_8">
    <path d="M 390.919886 235.784 
C 391.635935 235.784 392.322752 235.499511 392.829075 234.993188 
C 393.335397 234.486866 393.619886 233.800048 393.619886 233.084 
C 393.619886 232.367952 393.335397 231.681134 392.829075 231.174812 
C 392.322752 230.668489 391.635935 230.384 390.919886 230.384 
C 390.203838 230.384 389.517021 230.668489 389.010698 231.174812 
C 388.504375 231.681134 388.219886 232.367952 388.219886 233.084 
C 388.219886 233.800048 388.504375 234.486866 389.010698 234.993188 
C 389.517021 235.499511 390.203838 235.784 390.919886 235.784 
z
" clip-path="url(#p96d7f08890)" style="fill: #ffffff; stroke: #000000; stroke-width: 2; stroke-linejoin: miter"/>
   </g>
   <g id="text_4">
    <!-- $V_\mathrm{out}$ -->
    <g transform="translate(396.303443 271.269056) scale(0.16 -0.16)">
     <defs>
      <path id="CMR17-6f" d="M 2758 1356 
C 2758 2176 2163 2816 1466 2816 
C 768 2816 173 2176 173 1356 
C 173 551 768 -64 1466 -64 
C 2163 -64 2758 551 2758 1356 
z
M 1466 51 
C 1165 51 909 230 762 480 
C 602 767 582 1126 582 1408 
C 582 1677 595 2010 762 2298 
C 890 2509 1139 2714 1466 2714 
C 1754 2714 1997 2554 2150 2330 
C 2349 2029 2349 1607 2349 1408 
C 2349 1158 2336 775 2163 467 
C 1984 173 1709 51 1466 51 
z
" transform="scale(0.015625)"/>
      <path id="CMR17-75" d="M 1882 2693 
L 1882 2528 
C 2259 2528 2317 2489 2317 2186 
L 2317 1032 
C 2317 500 2029 38 1555 38 
C 1030 38 986 348 986 678 
L 986 2763 
L 211 2693 
L 211 2528 
C 467 2528 640 2528 646 2274 
L 646 1058 
C 646 633 646 361 813 183 
C 896 101 1056 -64 1517 -64 
C 2061 -64 2272 377 2323 506 
L 2330 506 
L 2330 -63 
L 3091 -63 
L 3091 128 
C 2714 128 2656 166 2656 473 
L 2656 2763 
L 1882 2693 
z
" transform="scale(0.015625)"/>
      <path id="CMR17-74" d="M 966 2560 
L 1862 2560 
L 1862 2725 
L 966 2725 
L 966 3904 
L 851 3904 
C 838 3245 614 2668 70 2668 
L 70 2560 
L 627 2560 
L 627 771 
C 627 650 627 -64 1370 -64 
C 1747 -64 1965 306 1965 777 
L 1965 1140 
L 1850 1140 
L 1850 783 
C 1850 344 1677 51 1408 51 
C 1222 51 966 178 966 758 
L 966 2560 
z
" transform="scale(0.015625)"/>
     </defs>
     <use xlink:href="#CMMI12-56" transform="scale(0.996264)"/>
     <use xlink:href="#CMR17-6f" transform="translate(56.869579 -14.943915) scale(0.697382)"/>
     <use xlink:href="#CMR17-75" transform="translate(88.852761 -14.943915) scale(0.697382)"/>
     <use xlink:href="#CMR17-74" transform="translate(124.479369 -14.943915) scale(0.697382)"/>
    </g>
   </g>
   <g id="patch_9">
    <path d="M 213.9776 159.284 
C 214.693648 159.284 215.380466 158.999511 215.886788 158.493188 
C 216.393111 157.986866 216.6776 157.300048 216.6776 156.584 
C 216.6776 155.867952 216.393111 155.181134 215.886788 154.674812 
C 215.380466 154.168489 214.693648 153.884 213.9776 153.884 
C 213.261552 153.884 212.574734 154.168489 212.068412 154.674812 
C 211.562089 155.181134 211.2776 155.867952 211.2776 156.584 
C 211.2776 157.300048 211.562089 157.986866 212.068412 158.493188 
C 212.574734 158.999511 213.261552 159.284 213.9776 159.284 
z
" clip-path="url(#p96d7f08890)" style="stroke: #000000; stroke-width: 2; stroke-linejoin: miter"/>
   </g>
   <g id="text_5">
    <!-- $C_2$ -->
    <g transform="translate(277.604701 140.884524) scale(0.16 -0.16)">
     <defs>
      <path id="CMR17-32" d="M 2669 989 
L 2554 989 
C 2490 536 2438 459 2413 420 
C 2381 369 1920 369 1830 369 
L 602 369 
C 832 619 1280 1072 1824 1597 
C 2214 1967 2669 2402 2669 3035 
C 2669 3790 2067 4224 1395 4224 
C 691 4224 262 3604 262 3030 
C 262 2780 448 2748 525 2748 
C 589 2748 781 2787 781 3010 
C 781 3207 614 3264 525 3264 
C 486 3264 448 3258 422 3245 
C 544 3790 915 4058 1306 4058 
C 1862 4058 2227 3617 2227 3035 
C 2227 2479 1901 2000 1536 1584 
L 262 146 
L 262 0 
L 2515 0 
L 2669 989 
z
" transform="scale(0.015625)"/>
     </defs>
     <use xlink:href="#CMMI12-43" transform="scale(0.996264)"/>
     <use xlink:href="#CMR17-32" transform="translate(69.792037 -14.943915) scale(0.697382)"/>
    </g>
   </g>
   <g id="patch_10">
    <path d="M 354.919886 159.284 
C 355.635935 159.284 356.322752 158.999511 356.829075 158.493188 
C 357.335397 157.986866 357.619886 157.300048 357.619886 156.584 
C 357.619886 155.867952 357.335397 155.181134 356.829075 154.674812 
C 356.322752 154.168489 355.635935 153.884 354.919886 153.884 
C 354.203838 153.884 353.517021 154.168489 353.010698 154.674812 
C 352.504375 155.181134 352.219886 155.867952 352.219886 156.584 
C 352.219886 157.300048 352.504375 157.986866 353.010698 158.493188 
C 353.517021 158.999511 354.203838 159.284 354.919886 159.284 
z
" clip-path="url(#p96d7f08890)" style="stroke: #000000; stroke-width: 2; stroke-linejoin: miter"/>
   </g>
   <g id="patch_11">
    <path d="M 213.9776 105.284 
C 214.693648 105.284 215.380466 104.999511 215.886788 104.493188 
C 216.393111 103.986866 216.6776 103.300048 216.6776 102.584 
C 216.6776 101.867952 216.393111 101.181134 215.886788 100.674812 
C 215.380466 100.168489 214.693648 99.884 213.9776 99.884 
C 213.261552 99.884 212.574734 100.168489 212.068412 100.674812 
C 211.562089 101.181134 211.2776 101.867952 211.2776 102.584 
C 211.2776 103.300048 211.562089 103.986866 212.068412 104.493188 
C 212.574734 104.999511 213.261552 105.284 213.9776 105.284 
z
" clip-path="url(#p96d7f08890)" style="stroke: #000000; stroke-width: 2; stroke-linejoin: miter"/>
   </g>
   <g id="text_6">
    <!-- $R_2$ -->
    <g transform="translate(277.247999 86.884524) scale(0.16 -0.16)">
     <use xlink:href="#CMMI12-52" transform="scale(0.996264)"/>
     <use xlink:href="#CMR17-32" transform="translate(74.250826 -14.943915) scale(0.697382)"/>
    </g>
   </g>
   <g id="patch_12">
    <path d="M 354.919886 105.284 
C 355.635935 105.284 356.322752 104.999511 356.829075 104.493188 
C 357.335397 103.986866 357.619886 103.300048 357.619886 102.584 
C 357.619886 101.867952 357.335397 101.181134 356.829075 100.674812 
C 356.322752 100.168489 355.635935 99.884 354.919886 99.884 
C 354.203838 99.884 353.517021 100.168489 353.010698 100.674812 
C 352.504375 101.181134 352.219886 101.867952 352.219886 102.584 
C 352.219886 103.300048 352.504375 103.986866 353.010698 104.493188 
C 353.517021 104.999511 354.203838 105.284 354.919886 105.284 
z
" clip-path="url(#p96d7f08890)" style="stroke: #000000; stroke-width: 2; stroke-linejoin: miter"/>
   </g>
   <g id="text_7">
    <!-- $\overline{I_\mathrm{n,R2}^2}$ -->
    <g transform="translate(270.741036 20.12982) scale(0.16 -0.16)">
     <defs>
      <path id="CMMI12-49" d="M 2355 3880 
C 2413 4103 2426 4167 2893 4167 
C 3034 4167 3085 4167 3085 4288 
C 3085 4352 3014 4352 2995 4352 
C 2880 4352 2739 4352 2624 4352 
L 1837 4352 
C 1709 4352 1562 4352 1434 4352 
C 1382 4352 1312 4352 1312 4231 
C 1312 4167 1363 4167 1491 4167 
C 1888 4167 1888 4116 1888 4046 
C 1888 4002 1875 3963 1862 3906 
L 998 472 
C 941 249 928 185 461 185 
C 320 185 262 185 262 64 
C 262 0 326 0 358 0 
C 474 0 614 0 730 0 
L 1517 0 
C 1645 0 1786 0 1914 0 
C 1965 0 2042 0 2042 115 
C 2042 185 2003 185 1862 185 
C 1466 185 1466 236 1466 312 
C 1466 325 1466 357 1491 459 
L 2355 3880 
z
" transform="scale(0.015625)"/>
      <path id="CMMI12-3b" d="M 1248 -31 
C 1248 343 1126 619 864 619 
C 659 619 557 453 557 313 
C 557 172 653 0 870 0 
C 954 0 1024 26 1082 83 
C 1094 96 1101 96 1107 96 
C 1120 96 1120 5 1120 -27 
C 1120 -240 1082 -659 710 -1080 
C 640 -1157 640 -1170 640 -1183 
C 640 -1216 672 -1248 704 -1248 
C 755 -1248 1248 -771 1248 -31 
z
" transform="scale(0.015625)"/>
      <path id="CMR17-52" d="M 2509 2146 
C 3117 2268 3629 2676 3629 3186 
C 3629 3785 2950 4326 2054 4326 
L 333 4326 
L 333 4160 
C 774 4160 845 4160 845 3873 
L 845 415 
C 845 128 774 128 333 128 
L 333 -26 
C 518 -26 851 -26 1050 -26 
C 1248 -26 1581 -26 1766 -26 
L 1766 128 
C 1325 128 1254 128 1254 417 
L 1254 2112 
L 2003 2112 
C 2368 2112 2573 1964 2662 1881 
C 2918 1632 2918 1459 2918 1024 
C 2918 595 2918 377 3110 160 
C 3354 -102 3680 -128 3821 -128 
C 4294 -128 4365 396 4365 503 
C 4365 540 4365 585 4307 585 
C 4256 585 4250 547 4250 522 
C 4218 112 4032 -26 3834 -26 
C 3482 -26 3443 375 3405 764 
C 3386 898 3373 993 3360 1133 
C 3322 1452 3270 1917 2509 2146 
z
M 1984 2214 
L 1254 2214 
L 1254 3913 
C 1254 4129 1267 4160 1523 4160 
L 1990 4160 
C 2522 4160 3142 3977 3142 3190 
C 3142 2372 2464 2214 1984 2214 
z
" transform="scale(0.015625)"/>
     </defs>
     <use xlink:href="#CMMI12-49" transform="scale(0.996264)"/>
     <use xlink:href="#CMR17-32" transform="translate(50.856514 34.315728) scale(0.697382)"/>
     <use xlink:href="#CMR17-6e" transform="translate(43.024176 -29.268645) scale(0.697382)"/>
     <use xlink:href="#CMMI12-3b" transform="translate(78.650784 -29.268645) scale(0.697382)"/>
     <use xlink:href="#CMR17-52" transform="translate(97.618717 -29.268645) scale(0.697382)"/>
     <use xlink:href="#CMR17-32" transform="translate(145.072281 -29.268645) scale(0.697382)"/>
     <path d="M 0 91.224589 
L 177.553595 91.224589 
L 177.553595 95.209538 
L 0 95.209538 
L 0 91.224589 
z
"/>
    </g>
   </g>
   <g id="patch_13">
    <path d="M 42.9776 231.284 
C 43.693648 231.284 44.380466 230.999511 44.886788 230.493188 
C 45.393111 229.986866 45.6776 229.300048 45.6776 228.584 
C 45.6776 227.867952 45.393111 227.181134 44.886788 226.674812 
C 44.380466 226.168489 43.693648 225.884 42.9776 225.884 
C 42.261552 225.884 41.574734 226.168489 41.068412 226.674812 
C 40.562089 227.181134 40.2776 227.867952 40.2776 228.584 
C 40.2776 229.300048 40.562089 229.986866 41.068412 230.493188 
C 41.574734 230.999511 42.261552 231.284 42.9776 231.284 
z
" clip-path="url(#p96d7f08890)" style="fill: #ff0000; stroke: #ff0000; stroke-width: 2; stroke-linejoin: miter"/>
   </g>
   <g id="patch_14">
    <path d="M 390.919886 304.184 
C 391.635935 304.184 392.322752 303.899511 392.829075 303.393188 
C 393.335397 302.886866 393.619886 302.200048 393.619886 301.484 
C 393.619886 300.767952 393.335397 300.081134 392.829075 299.574812 
C 392.322752 299.068489 391.635935 298.784 390.919886 298.784 
C 390.203838 298.784 389.517021 299.068489 389.010698 299.574812 
C 388.504375 300.081134 388.219886 300.767952 388.219886 301.484 
C 388.219886 302.200048 388.504375 302.886866 389.010698 303.393188 
C 389.517021 303.899511 390.203838 304.184 390.919886 304.184 
z
" clip-path="url(#p96d7f08890)" style="fill: #ffffff; stroke: #000000; stroke-width: 2; stroke-linejoin: miter"/>
   </g>
  </g>
 </g>
 <defs>
  <clipPath id="p96d7f08890">
   <rect x="0" y="-0" width="426.199886" height="332.264"/>
  </clipPath>
 </defs>
</svg>
