<?xml version="1.0" encoding="utf-8" standalone="no"?>
<!DOCTYPE svg PUBLIC "-//W3C//DTD SVG 1.1//EN"
  "http://www.w3.org/Graphics/SVG/1.1/DTD/svg11.dtd">
<svg xmlns:xlink="http://www.w3.org/1999/xlink" width="426.199886pt" height="269.832pt" viewBox="0 0 426.199886 269.832" xmlns="http://www.w3.org/2000/svg" version="1.1">
 <metadata>
  <rdf:RDF xmlns:dc="http://purl.org/dc/elements/1.1/" xmlns:cc="http://creativecommons.org/ns#" xmlns:rdf="http://www.w3.org/1999/02/22-rdf-syntax-ns#">
   <cc:Work>
    <dc:type rdf:resource="http://purl.org/dc/dcmitype/StillImage"/>
    <dc:date>2025-05-20T18:07:18.951804</dc:date>
    <dc:format>image/svg+xml</dc:format>
    <dc:creator>
     <cc:Agent>
      <dc:title>Matplotlib v3.9.2, https://matplotlib.org/</dc:title>
     </cc:Agent>
    </dc:creator>
   </cc:Work>
  </rdf:RDF>
 </metadata>
 <defs>
  <style type="text/css">*{stroke-linejoin: round; stroke-linecap: butt}</style>
 </defs>
 <g id="figure_1">
  <g id="patch_1">
   <path d="M 0 269.832 
L 426.199886 269.832 
L 426.199886 0 
L 0 0 
L 0 269.832 
z
" style="fill: none"/>
  </g>
  <g id="axes_1">
   <g id="patch_2">
    <path d="M 42.9776 220.152 
C 47.751256 220.152 52.330038 218.255406 55.705522 214.879922 
C 59.081006 211.504438 60.9776 206.925656 60.9776 202.152 
C 60.9776 197.378344 59.081006 192.799562 55.705522 189.424078 
C 52.330038 186.048594 47.751256 184.152 42.9776 184.152 
C 38.203944 184.152 33.625162 186.048594 30.249678 189.424078 
C 26.874194 192.799562 24.9776 197.378344 24.9776 202.152 
C 24.9776 206.925656 26.874194 211.504438 30.249678 214.879922 
C 33.625162 218.255406 38.203944 220.152 42.9776 220.152 
L 42.9776 220.152 
z
" clip-path="url(#p4aef387293)" style="fill: none; stroke: #000000; stroke-width: 2; stroke-linejoin: miter"/>
   </g>
   <g id="patch_3">
    <path d="M 213.9776 238.152 
C 218.751256 238.152 223.330038 236.255406 226.705522 232.879922 
C 230.081006 229.504438 231.9776 224.925656 231.9776 220.152 
C 231.9776 215.378344 230.081006 210.799562 226.705522 207.424078 
C 223.330038 204.048594 218.751256 202.152 213.9776 202.152 
C 209.203944 202.152 204.625162 204.048594 201.249678 207.424078 
C 197.874194 210.799562 195.9776 215.378344 195.9776 220.152 
C 195.9776 224.925656 197.874194 229.504438 201.249678 232.879922 
C 204.625162 236.255406 209.203944 238.152 213.9776 238.152 
L 213.9776 238.152 
z
" clip-path="url(#p4aef387293)" style="fill: none; stroke: #000000; stroke-width: 2; stroke-linejoin: miter"/>
   </g>
   <g id="line2d_1">
    <path d="M 42.9776 256.152 
L 42.9776 256.152 
L 33.9776 256.152 
L 42.9776 265.152 
L 51.9776 256.152 
L 42.9776 256.152 
" clip-path="url(#p4aef387293)" style="fill: none; stroke: #000000; stroke-width: 2; stroke-linecap: round"/>
   </g>
   <g id="line2d_2">
    <path d="M 42.9776 256.152 
L 42.9776 247.152 
L 42.9776 238.152 
" clip-path="url(#p4aef387293)" style="fill: none; stroke: #000000; stroke-width: 2; stroke-linecap: round"/>
   </g>
   <g id="line2d_3">
    <path d="M 42.9776 238.152 
L 42.9776 220.152 
L 42.9776 220.152 
M 42.9776 184.152 
L 42.9776 184.152 
L 42.9776 166.152 
" clip-path="url(#p4aef387293)" style="fill: none; stroke: #000000; stroke-width: 2; stroke-linecap: round"/>
   </g>
   <g id="line2d_4">
    <path d="M 51.9776 202.152 
L 51.2276 200.288503 
L 50.4776 198.552 
L 49.7276 197.060831 
L 48.9776 195.916617 
L 48.2276 195.197334 
L 47.4776 194.952 
L 46.7276 195.197334 
L 45.9776 195.916617 
L 45.2276 197.060831 
L 44.4776 198.552 
L 43.7276 200.288503 
L 42.9776 202.152 
L 42.2276 204.015497 
L 41.4776 205.752 
L 40.7276 207.243169 
L 39.9776 208.387383 
L 39.2276 209.106666 
L 38.4776 209.352 
L 37.7276 209.106666 
L 36.9776 208.387383 
L 36.2276 207.243169 
L 35.4776 205.752 
L 34.7276 204.015497 
L 33.9776 202.152 
" clip-path="url(#p4aef387293)" style="fill: none; stroke: #000000; stroke-width: 2; stroke-linecap: round"/>
   </g>
   <g id="line2d_5">
    <path d="M 42.9776 166.152 
L 60.9776 166.152 
L 78.9776 166.152 
" clip-path="url(#p4aef387293)" style="fill: none; stroke: #ff0000; stroke-width: 2; stroke-linecap: round"/>
   </g>
   <g id="line2d_6">
    <path d="M 78.9776 166.152 
L 78.9776 202.152 
L 78.9776 238.152 
" clip-path="url(#p4aef387293)" style="fill: none; stroke: #ff0000; stroke-width: 2; stroke-linecap: round"/>
   </g>
   <g id="line2d_7">
    <path d="M 78.9776 238.152 
L 60.9776 238.152 
L 42.9776 238.152 
" clip-path="url(#p4aef387293)" style="fill: none; stroke: #ff0000; stroke-width: 2; stroke-linecap: round"/>
   </g>
   <g id="line2d_8">
    <path d="M 42.9776 166.152 
L 42.9776 152.652 
L 42.9776 139.152 
" clip-path="url(#p4aef387293)" style="fill: none; stroke: #000000; stroke-width: 2; stroke-linecap: round"/>
   </g>
   <g id="line2d_9">
    <path d="M 42.9776 139.152 
L 51.9776 139.152 
L 60.9776 139.152 
" clip-path="url(#p4aef387293)" style="fill: none; stroke: #000000; stroke-width: 2; stroke-linecap: round"/>
   </g>
   <g id="line2d_10">
    <path d="M 60.9776 139.152 
L 78.9776 139.152 
L 81.9776 130.152 
L 87.9776 148.152 
L 93.9776 130.152 
L 99.9776 148.152 
L 105.9776 130.152 
L 111.9776 148.152 
L 114.9776 139.152 
L 132.9776 139.152 
" clip-path="url(#p4aef387293)" style="fill: none; stroke: #000000; stroke-width: 2; stroke-linecap: round"/>
   </g>
   <g id="line2d_11">
    <path d="M 132.9776 139.152 
L 165.7376 139.152 
M 165.7376 130.152 
L 165.7376 148.152 
M 172.2176 130.152 
L 172.2176 148.152 
M 172.2176 139.152 
L 204.9776 139.152 
" clip-path="url(#p4aef387293)" style="fill: none; stroke: #000000; stroke-width: 2; stroke-linecap: round"/>
   </g>
   <g id="line2d_12">
    <path d="M 204.9776 139.152 
L 209.4776 139.152 
L 213.9776 139.152 
" clip-path="url(#p4aef387293)" style="fill: none; stroke: #000000; stroke-width: 2; stroke-linecap: round"/>
   </g>
   <g id="line2d_13">
    <path d="M 213.9776 139.152 
L 218.4776 139.152 
L 222.9776 139.152 
" clip-path="url(#p4aef387293)" style="fill: none; stroke: #000000; stroke-width: 2; stroke-linecap: round"/>
   </g>
   <g id="line2d_14">
    <path d="M 245.4776 161.652 
L 245.4776 116.652 
L 323.419886 161.652 
L 245.4776 206.652 
L 245.4776 161.652 
M 323.419886 161.652 
" clip-path="url(#p4aef387293)" style="fill: none; stroke: #000000; stroke-width: 2; stroke-linecap: round"/>
   </g>
   <g id="line2d_15">
    <path d="M 251.620386 139.152 
L 258.820386 139.152 
" clip-path="url(#p4aef387293)" style="fill: none; stroke: #000000; stroke-width: 2; stroke-linecap: round"/>
   </g>
   <g id="line2d_16">
    <path d="M 251.620386 184.152 
L 258.820386 184.152 
" clip-path="url(#p4aef387293)" style="fill: none; stroke: #000000; stroke-width: 2; stroke-linecap: round"/>
   </g>
   <g id="line2d_17">
    <path d="M 255.220386 187.752 
L 255.220386 180.552 
" clip-path="url(#p4aef387293)" style="fill: none; stroke: #000000; stroke-width: 2; stroke-linecap: round"/>
   </g>
   <g id="line2d_18">
    <path d="M 222.9776 139.152 
L 245.4776 139.152 
" clip-path="url(#p4aef387293)" style="fill: none; stroke: #000000; stroke-width: 2; stroke-linecap: round"/>
   </g>
   <g id="line2d_19">
    <path d="M 222.9776 184.152 
L 245.4776 184.152 
" clip-path="url(#p4aef387293)" style="fill: none; stroke: #000000; stroke-width: 2; stroke-linecap: round"/>
   </g>
   <g id="line2d_20">
    <path d="M 323.419886 161.652 
L 345.919886 161.652 
" clip-path="url(#p4aef387293)" style="fill: none; stroke: #000000; stroke-width: 2; stroke-linecap: round"/>
   </g>
   <g id="line2d_21">
    <path d="M 222.9776 184.152 
L 218.4776 184.152 
L 213.9776 184.152 
" clip-path="url(#p4aef387293)" style="fill: none; stroke: #000000; stroke-width: 2; stroke-linecap: round"/>
   </g>
   <g id="line2d_22">
    <path d="M 213.9776 184.152 
L 213.9776 202.152 
L 213.9776 202.152 
M 213.9776 238.152 
L 213.9776 238.152 
L 213.9776 256.152 
" clip-path="url(#p4aef387293)" style="fill: none; stroke: #000000; stroke-width: 2; stroke-linecap: round"/>
   </g>
   <g id="line2d_23">
    <path d="M 204.9776 220.152 
L 205.7276 222.015497 
L 206.4776 223.752 
L 207.2276 225.243169 
L 207.9776 226.387383 
L 208.7276 227.106666 
L 209.4776 227.352 
L 210.2276 227.106666 
L 210.9776 226.387383 
L 211.7276 225.243169 
L 212.4776 223.752 
L 213.2276 222.015497 
L 213.9776 220.152 
L 214.7276 218.288503 
L 215.4776 216.552 
L 216.2276 215.060831 
L 216.9776 213.916617 
L 217.7276 213.197334 
L 218.4776 212.952 
L 219.2276 213.197334 
L 219.9776 213.916617 
L 220.7276 215.060831 
L 221.4776 216.552 
L 222.2276 218.288503 
L 222.9776 220.152 
" clip-path="url(#p4aef387293)" style="fill: none; stroke: #000000; stroke-width: 2; stroke-linecap: round"/>
   </g>
   <g id="line2d_24">
    <path d="M 213.9776 256.152 
" clip-path="url(#p4aef387293)" style="fill: none; stroke: #000000; stroke-width: 2; stroke-linecap: round"/>
   </g>
   <g id="line2d_25">
    <path d="M 213.9776 256.152 
L 213.9776 256.152 
L 204.9776 256.152 
L 213.9776 265.152 
L 222.9776 256.152 
L 213.9776 256.152 
" clip-path="url(#p4aef387293)" style="fill: none; stroke: #000000; stroke-width: 2; stroke-linecap: round"/>
   </g>
   <g id="line2d_26">
    <path d="M 345.919886 161.652 
L 350.419886 161.652 
L 354.919886 161.652 
" clip-path="url(#p4aef387293)" style="fill: none; stroke: #000000; stroke-width: 2; stroke-linecap: round"/>
   </g>
   <g id="line2d_27">
    <path d="M 354.919886 161.652 
L 372.919886 161.652 
L 390.919886 161.652 
" clip-path="url(#p4aef387293)" style="fill: none; stroke: #000000; stroke-width: 2; stroke-linecap: round"/>
   </g>
   <g id="line2d_28">
    <path d="M 390.919886 161.652 
L 390.919886 166.152 
L 390.919886 170.652 
" clip-path="url(#p4aef387293)" style="fill: none; stroke: #ffffff; stroke-width: 2; stroke-linecap: round"/>
   </g>
   <g id="line2d_29">
    <path d="M 390.919886 170.652 
L 390.919886 195.852 
L 390.919886 212.052 
" clip-path="url(#p4aef387293)" style="fill: none; stroke: #000000; stroke-width: 2; stroke-linecap: round"/>
   </g>
   <g id="patch_4">
    <path d="M 393.619886 212.052 
L 390.919886 221.052 
L 388.219886 212.052 
z
" clip-path="url(#p4aef387293)"/>
   </g>
   <g id="line2d_30">
    <path d="M 390.919886 221.052 
L 390.919886 225.552 
L 390.919886 230.052 
" clip-path="url(#p4aef387293)" style="fill: none; stroke: #ffffff; stroke-width: 2; stroke-linecap: round"/>
   </g>
   <g id="line2d_31">
    <path d="M 390.919886 230.052 
L 390.919886 243.102 
L 390.919886 256.152 
" clip-path="url(#p4aef387293)" style="fill: none; stroke: #000000; stroke-width: 2; stroke-linecap: round"/>
   </g>
   <g id="line2d_32">
    <path d="M 390.919886 256.152 
L 390.919886 256.152 
L 381.919886 256.152 
L 390.919886 265.152 
L 399.919886 256.152 
L 390.919886 256.152 
" clip-path="url(#p4aef387293)" style="fill: none; stroke: #000000; stroke-width: 2; stroke-linecap: round"/>
   </g>
   <g id="line2d_33">
    <path d="M 213.9776 139.152 
L 213.9776 112.152 
L 213.9776 85.152 
" clip-path="url(#p4aef387293)" style="fill: none; stroke: #000000; stroke-width: 2; stroke-linecap: round"/>
   </g>
   <g id="line2d_34">
    <path d="M 213.9776 85.152 
L 231.9776 85.152 
L 249.9776 85.152 
" clip-path="url(#p4aef387293)" style="fill: none; stroke: #000000; stroke-width: 2; stroke-linecap: round"/>
   </g>
   <g id="line2d_35">
    <path d="M 249.9776 85.152 
L 282.7376 85.152 
M 282.7376 76.152 
L 282.7376 94.152 
M 289.2176 76.152 
L 289.2176 94.152 
M 289.2176 85.152 
L 321.9776 85.152 
" clip-path="url(#p4aef387293)" style="fill: none; stroke: #000000; stroke-width: 2; stroke-linecap: round"/>
   </g>
   <g id="line2d_36">
    <path d="M 321.9776 85.152 
L 338.448743 85.152 
L 354.919886 85.152 
" clip-path="url(#p4aef387293)" style="fill: none; stroke: #000000; stroke-width: 2; stroke-linecap: round"/>
   </g>
   <g id="line2d_37">
    <path d="M 213.9776 85.152 
L 213.9776 58.152 
L 213.9776 31.152 
" clip-path="url(#p4aef387293)" style="fill: none; stroke: #000000; stroke-width: 2; stroke-linecap: round"/>
   </g>
   <g id="line2d_38">
    <path d="M 213.9776 31.152 
L 231.9776 31.152 
L 249.9776 31.152 
" clip-path="url(#p4aef387293)" style="fill: none; stroke: #000000; stroke-width: 2; stroke-linecap: round"/>
   </g>
   <g id="line2d_39">
    <path d="M 249.9776 31.152 
L 267.9776 31.152 
L 270.9776 22.152 
L 276.9776 40.152 
L 282.9776 22.152 
L 288.9776 40.152 
L 294.9776 22.152 
L 300.9776 40.152 
L 303.9776 31.152 
L 321.9776 31.152 
" clip-path="url(#p4aef387293)" style="fill: none; stroke: #000000; stroke-width: 2; stroke-linecap: round"/>
   </g>
   <g id="line2d_40">
    <path d="M 321.9776 31.152 
L 338.448743 31.152 
L 354.919886 31.152 
" clip-path="url(#p4aef387293)" style="fill: none; stroke: #000000; stroke-width: 2; stroke-linecap: round"/>
   </g>
   <g id="line2d_41">
    <path d="M 354.919886 31.152 
L 354.919886 96.402 
L 354.919886 161.652 
" clip-path="url(#p4aef387293)" style="fill: none; stroke: #000000; stroke-width: 2; stroke-linecap: round"/>
   </g>
   <g id="text_1">
    <!-- $V_\mathrm{in}$ -->
    <g transform="translate(2.980023 206.137056) scale(0.16 -0.16)">
     <defs>
      <path id="CMMI12-56" d="M 3962 3640 
C 4179 3984 4378 4136 4704 4162 
C 4768 4168 4819 4168 4819 4282 
C 4819 4308 4806 4346 4749 4346 
C 4634 4346 4358 4346 4243 4346 
C 4058 4346 3866 4346 3686 4346 
C 3635 4346 3571 4346 3571 4226 
C 3571 4168 3629 4162 3654 4162 
C 3891 4143 3917 4029 3917 3952 
C 3917 3857 3827 3710 3821 3704 
L 1811 540 
L 1363 3969 
C 1363 4160 1696 4160 1766 4160 
C 1862 4160 1920 4160 1920 4282 
C 1920 4346 1850 4346 1830 4346 
C 1722 4346 1594 4346 1485 4346 
L 1126 4346 
C 659 4346 467 4346 461 4346 
C 422 4346 346 4346 346 4230 
C 346 4160 390 4160 493 4160 
C 819 4160 838 4102 858 3944 
L 1370 24 
C 1389 -109 1389 -128 1478 -128 
C 1555 -128 1587 -109 1651 -8 
L 3962 3640 
z
" transform="scale(0.015625)"/>
      <path id="CMR17-69" d="M 992 3909 
C 992 4049 877 4170 730 4170 
C 589 4170 467 4056 467 3909 
C 467 3769 582 3648 730 3648 
C 870 3648 992 3763 992 3909 
z
M 243 2706 
L 243 2541 
C 602 2541 653 2502 653 2197 
L 653 427 
C 653 184 627 153 218 153 
L 218 -13 
C 371 0 646 0 806 0 
C 960 0 1222 0 1370 -13 
L 1370 153 
C 992 153 979 191 979 420 
L 979 2776 
L 243 2706 
z
" transform="scale(0.015625)"/>
      <path id="CMR17-6e" d="M 2656 1933 
C 2656 2259 2592 2790 1837 2790 
C 1331 2790 1069 2400 973 2144 
L 966 2144 
L 966 2790 
L 211 2720 
L 211 2554 
C 589 2554 646 2515 646 2208 
L 646 428 
C 646 184 621 153 211 153 
L 211 -13 
C 365 0 646 0 813 0 
C 979 0 1267 0 1421 -13 
L 1421 153 
C 1011 153 986 178 986 428 
L 986 1658 
C 986 2247 1344 2688 1792 2688 
C 2266 2688 2317 2266 2317 1958 
L 2317 428 
C 2317 184 2291 153 1882 153 
L 1882 -13 
C 2035 0 2317 0 2483 0 
C 2650 0 2938 0 3091 -13 
L 3091 153 
C 2682 153 2656 178 2656 428 
L 2656 1933 
z
" transform="scale(0.015625)"/>
     </defs>
     <use xlink:href="#CMMI12-56" transform="scale(0.996264)"/>
     <use xlink:href="#CMR17-69" transform="translate(56.869579 -14.943915) scale(0.697382)"/>
     <use xlink:href="#CMR17-6e" transform="translate(74.279238 -14.943915) scale(0.697382)"/>
    </g>
   </g>
   <g id="patch_5">
    <path d="M 42.9776 240.852 
C 43.693648 240.852 44.380466 240.567511 44.886788 240.061188 
C 45.393111 239.554866 45.6776 238.868048 45.6776 238.152 
C 45.6776 237.435952 45.393111 236.749134 44.886788 236.242812 
C 44.380466 235.736489 43.693648 235.452 42.9776 235.452 
C 42.261552 235.452 41.574734 235.736489 41.068412 236.242812 
C 40.562089 236.749134 40.2776 237.435952 40.2776 238.152 
C 40.2776 238.868048 40.562089 239.554866 41.068412 240.061188 
C 41.574734 240.567511 42.261552 240.852 42.9776 240.852 
z
" clip-path="url(#p4aef387293)" style="fill: #ff0000; stroke: #ff0000; stroke-width: 2; stroke-linejoin: miter"/>
   </g>
   <g id="text_2">
    <!-- $R_1$ -->
    <g transform="translate(88.247999 123.452524) scale(0.16 -0.16)">
     <defs>
      <path id="CMMI12-52" d="M 2355 3924 
C 2413 4160 2438 4160 2688 4160 
L 3149 4160 
C 3699 4160 4109 3995 4109 3499 
C 4109 3175 3942 2240 2656 2240 
L 1933 2240 
L 2355 3924 
z
M 3245 2169 
C 4038 2341 4659 2851 4659 3398 
C 4659 3894 4154 4352 3264 4352 
L 1530 4352 
C 1402 4352 1344 4352 1344 4226 
C 1344 4160 1389 4160 1510 4160 
C 1894 4160 1894 4112 1894 4045 
C 1894 4033 1894 3994 1869 3899 
L 1005 479 
C 947 256 934 192 493 192 
C 346 192 301 192 301 71 
C 301 7 371 7 390 7 
C 506 7 640 7 762 7 
L 1517 7 
C 1632 7 1766 7 1882 7 
C 1933 7 2003 7 2003 128 
C 2003 192 1946 192 1850 192 
C 1459 192 1459 243 1459 306 
C 1459 313 1459 357 1472 407 
L 1901 2112 
L 2669 2112 
C 3277 2112 3392 1731 3392 1522 
C 3392 1427 3328 1179 3283 1014 
C 3213 723 3194 652 3194 532 
C 3194 82 3565 -128 3994 -128 
C 4512 -128 4736 501 4736 591 
C 4736 635 4704 654 4666 654 
C 4614 654 4602 616 4589 565 
C 4435 114 4173 0 4013 0 
C 3853 0 3750 70 3750 356 
C 3750 509 3827 1088 3834 1120 
C 3866 1355 3866 1380 3866 1432 
C 3866 1896 3488 2093 3245 2169 
z
" transform="scale(0.015625)"/>
      <path id="CMR17-31" d="M 1702 4058 
C 1702 4192 1696 4192 1606 4192 
C 1357 3916 979 3827 621 3827 
C 602 3827 570 3827 563 3808 
C 557 3795 557 3782 557 3648 
C 755 3648 1088 3686 1344 3839 
L 1344 461 
C 1344 236 1331 160 781 160 
L 589 160 
L 589 0 
C 896 0 1216 0 1523 0 
C 1830 0 2150 0 2458 0 
L 2458 160 
L 2266 160 
C 1715 160 1702 230 1702 458 
L 1702 4058 
z
" transform="scale(0.015625)"/>
     </defs>
     <use xlink:href="#CMMI12-52" transform="scale(0.996264)"/>
     <use xlink:href="#CMR17-31" transform="translate(74.250826 -14.943915) scale(0.697382)"/>
    </g>
   </g>
   <g id="text_3">
    <!-- $C_1$ -->
    <g transform="translate(160.604701 123.452524) scale(0.16 -0.16)">
     <defs>
      <path id="CMMI12-43" d="M 4781 4423 
C 4781 4480 4736 4480 4723 4480 
C 4710 4480 4685 4480 4634 4416 
L 4192 3882 
C 3968 4264 3616 4480 3136 4480 
C 1754 4480 320 3088 320 1595 
C 320 533 1069 -128 2003 -128 
C 2515 -128 2963 88 3334 400 
C 3891 863 4058 1481 4058 1531 
C 4058 1588 4006 1588 3987 1588 
C 3930 1588 3923 1550 3910 1524 
C 3616 534 2752 57 2112 57 
C 1434 57 845 489 845 1391 
C 845 1595 909 2700 1632 3532 
C 1984 3939 2586 4295 3194 4295 
C 3898 4295 4211 3717 4211 3068 
C 4211 2903 4192 2764 4192 2738 
C 4192 2681 4256 2681 4275 2681 
C 4346 2681 4352 2687 4378 2801 
L 4781 4423 
z
" transform="scale(0.015625)"/>
     </defs>
     <use xlink:href="#CMMI12-43" transform="scale(0.996264)"/>
     <use xlink:href="#CMR17-31" transform="translate(69.792037 -14.943915) scale(0.697382)"/>
    </g>
   </g>
   <g id="patch_6">
    <path d="M 213.9776 141.852 
C 214.693648 141.852 215.380466 141.567511 215.886788 141.061188 
C 216.393111 140.554866 216.6776 139.868048 216.6776 139.152 
C 216.6776 138.435952 216.393111 137.749134 215.886788 137.242812 
C 215.380466 136.736489 214.693648 136.452 213.9776 136.452 
C 213.261552 136.452 212.574734 136.736489 212.068412 137.242812 
C 211.562089 137.749134 211.2776 138.435952 211.2776 139.152 
C 211.2776 139.868048 211.562089 140.554866 212.068412 141.061188 
C 212.574734 141.567511 213.261552 141.852 213.9776 141.852 
z
" clip-path="url(#p4aef387293)" style="stroke: #000000; stroke-width: 2; stroke-linejoin: miter"/>
   </g>
   <g id="text_4">
    <!-- $\overline{V_\mathrm{n,flicker}^2}$ -->
    <g transform="translate(144.625746 224.278752) scale(0.16 -0.16)">
     <defs>
      <path id="CMR17-32" d="M 2669 989 
L 2554 989 
C 2490 536 2438 459 2413 420 
C 2381 369 1920 369 1830 369 
L 602 369 
C 832 619 1280 1072 1824 1597 
C 2214 1967 2669 2402 2669 3035 
C 2669 3790 2067 4224 1395 4224 
C 691 4224 262 3604 262 3030 
C 262 2780 448 2748 525 2748 
C 589 2748 781 2787 781 3010 
C 781 3207 614 3264 525 3264 
C 486 3264 448 3258 422 3245 
C 544 3790 915 4058 1306 4058 
C 1862 4058 2227 3617 2227 3035 
C 2227 2479 1901 2000 1536 1584 
L 262 146 
L 262 0 
L 2515 0 
L 2669 989 
z
" transform="scale(0.015625)"/>
      <path id="CMMI12-3b" d="M 1248 -31 
C 1248 343 1126 619 864 619 
C 659 619 557 453 557 313 
C 557 172 653 0 870 0 
C 954 0 1024 26 1082 83 
C 1094 96 1101 96 1107 96 
C 1120 96 1120 5 1120 -27 
C 1120 -240 1082 -659 710 -1080 
C 640 -1157 640 -1170 640 -1183 
C 640 -1216 672 -1248 704 -1248 
C 755 -1248 1248 -771 1248 -31 
z
" transform="scale(0.015625)"/>
      <path id="CMR17-d" d="M 2554 4409 
C 2483 4396 2426 4384 2342 4365 
C 2157 4460 1914 4460 1850 4460 
C 1306 4460 634 4154 634 3472 
L 634 2725 
L 122 2725 
L 122 2560 
L 634 2560 
L 634 427 
C 634 184 608 153 198 153 
L 198 -13 
C 352 0 634 0 794 0 
C 960 0 1242 0 1395 -13 
L 1395 153 
C 986 153 960 178 960 427 
L 960 2560 
L 2227 2560 
L 2227 427 
C 2227 184 2202 153 1792 153 
L 1792 -13 
C 1946 0 2227 0 2387 0 
C 2554 0 2835 0 2989 -13 
L 2989 153 
C 2579 153 2554 178 2554 427 
L 2554 4409 
z
M 947 2725 
L 947 3469 
C 947 4028 1370 4352 1837 4352 
C 1869 4352 2221 4352 2221 4282 
C 2221 4275 2214 4269 2182 4237 
C 2125 4199 2099 4135 2099 4071 
C 2099 3981 2144 3905 2227 3873 
L 2227 2725 
L 947 2725 
z
" transform="scale(0.015625)"/>
      <path id="CMR17-63" d="M 2234 2240 
C 2112 2240 1933 2240 1933 2017 
C 1933 1838 2080 1787 2163 1787 
C 2208 1787 2394 1807 2394 2024 
C 2394 2467 1958 2803 1466 2803 
C 787 2803 211 2178 211 1363 
C 211 516 813 -64 1466 -64 
C 2259 -64 2458 677 2458 748 
C 2458 774 2451 793 2406 793 
C 2362 793 2355 787 2330 703 
C 2163 180 1798 51 1523 51 
C 1114 51 621 427 621 1369 
C 621 2338 1094 2688 1472 2688 
C 1722 2688 2093 2573 2234 2240 
z
" transform="scale(0.015625)"/>
      <path id="CMR17-6b" d="M 1670 1673 
C 1664 1686 1632 1724 1632 1743 
C 1632 1756 2086 2171 2144 2222 
C 2509 2528 2739 2560 2906 2560 
L 2906 2733 
C 2867 2733 2854 2733 2848 2720 
L 2534 2720 
C 2355 2720 2080 2720 1907 2733 
L 1907 2566 
C 1997 2559 2061 2508 2061 2419 
C 2061 2291 1933 2170 1926 2170 
L 960 1289 
L 960 4396 
L 198 4326 
L 198 4160 
C 576 4160 634 4122 634 3817 
L 634 426 
C 634 184 608 153 198 153 
L 198 -13 
C 352 0 634 0 794 0 
C 954 0 1235 0 1389 -13 
L 1389 153 
C 979 153 954 178 954 428 
L 954 1130 
L 1395 1532 
L 2042 574 
C 2118 459 2182 369 2182 286 
C 2182 172 2067 153 1990 153 
L 1990 -13 
C 2144 0 2419 0 2579 0 
C 2694 0 2931 0 3040 0 
L 3040 153 
C 2739 153 2669 210 2477 491 
L 1670 1673 
z
" transform="scale(0.015625)"/>
      <path id="CMR17-65" d="M 2438 1472 
C 2464 1498 2464 1511 2464 1576 
C 2464 2238 2118 2816 1389 2816 
C 710 2816 173 2169 173 1383 
C 173 551 781 -64 1459 -64 
C 2176 -64 2458 607 2458 740 
C 2458 784 2419 784 2406 784 
C 2362 784 2355 771 2330 696 
C 2189 265 1837 51 1504 51 
C 1229 51 954 203 781 480 
C 582 803 582 1176 582 1472 
L 2438 1472 
z
M 589 1568 
C 634 2505 1126 2714 1382 2714 
C 1818 2714 2112 2297 2118 1568 
L 589 1568 
z
" transform="scale(0.015625)"/>
      <path id="CMR17-72" d="M 960 1497 
C 960 2112 1222 2688 1702 2688 
C 1747 2688 1792 2682 1837 2662 
C 1837 2662 1696 2617 1696 2452 
C 1696 2298 1818 2234 1914 2234 
C 1990 2234 2131 2279 2131 2458 
C 2131 2663 1926 2790 1709 2790 
C 1222 2790 1011 2317 947 2093 
L 941 2093 
L 941 2790 
L 198 2720 
L 198 2554 
C 576 2554 634 2515 634 2208 
L 634 428 
C 634 184 608 153 198 153 
L 198 -13 
C 352 0 646 0 813 0 
C 998 0 1325 0 1498 -13 
L 1498 153 
C 1037 153 960 153 960 440 
L 960 1497 
z
" transform="scale(0.015625)"/>
     </defs>
     <use xlink:href="#CMMI12-56" transform="scale(0.996264)"/>
     <use xlink:href="#CMR17-32" transform="translate(78.547321 34.315728) scale(0.697382)"/>
     <use xlink:href="#CMR17-6e" transform="translate(56.869579 -30.053361) scale(0.697382)"/>
     <use xlink:href="#CMMI12-3b" transform="translate(92.496187 -30.053361) scale(0.697382)"/>
     <use xlink:href="#CMR17-d" transform="translate(111.46412 -30.053361) scale(0.697382)"/>
     <use xlink:href="#CMR17-69" transform="translate(146.283514 -30.053361) scale(0.697382)"/>
     <use xlink:href="#CMR17-63" transform="translate(163.693173 -30.053361) scale(0.697382)"/>
     <use xlink:href="#CMR17-6b" transform="translate(190.211283 -30.053361) scale(0.697382)"/>
     <use xlink:href="#CMR17-65" transform="translate(222.19445 -30.053361) scale(0.697382)"/>
     <use xlink:href="#CMR17-72" transform="translate(250.534282 -30.053361) scale(0.697382)"/>
     <path d="M 0 91.224589 
L 275.728834 91.224589 
L 275.728834 95.209538 
L 0 95.209538 
L 0 91.224589 
z
"/>
    </g>
   </g>
   <g id="patch_7">
    <path d="M 354.919886 164.352 
C 355.635935 164.352 356.322752 164.067511 356.829075 163.561188 
C 357.335397 163.054866 357.619886 162.368048 357.619886 161.652 
C 357.619886 160.935952 357.335397 160.249134 356.829075 159.742812 
C 356.322752 159.236489 355.635935 158.952 354.919886 158.952 
C 354.203838 158.952 353.517021 159.236489 353.010698 159.742812 
C 352.504375 160.249134 352.219886 160.935952 352.219886 161.652 
C 352.219886 162.368048 352.504375 163.054866 353.010698 163.561188 
C 353.517021 164.067511 354.203838 164.352 354.919886 164.352 
z
" clip-path="url(#p4aef387293)" style="stroke: #000000; stroke-width: 2; stroke-linejoin: miter"/>
   </g>
   <g id="patch_8">
    <path d="M 390.919886 164.352 
C 391.635935 164.352 392.322752 164.067511 392.829075 163.561188 
C 393.335397 163.054866 393.619886 162.368048 393.619886 161.652 
C 393.619886 160.935952 393.335397 160.249134 392.829075 159.742812 
C 392.322752 159.236489 391.635935 158.952 390.919886 158.952 
C 390.203838 158.952 389.517021 159.236489 389.010698 159.742812 
C 388.504375 160.249134 388.219886 160.935952 388.219886 161.652 
C 388.219886 162.368048 388.504375 163.054866 389.010698 163.561188 
C 389.517021 164.067511 390.203838 164.352 390.919886 164.352 
z
" clip-path="url(#p4aef387293)" style="fill: #ffffff; stroke: #000000; stroke-width: 2; stroke-linejoin: miter"/>
   </g>
   <g id="text_5">
    <!-- $V_\mathrm{out}$ -->
    <g transform="translate(396.303443 199.837056) scale(0.16 -0.16)">
     <defs>
      <path id="CMR17-6f" d="M 2758 1356 
C 2758 2176 2163 2816 1466 2816 
C 768 2816 173 2176 173 1356 
C 173 551 768 -64 1466 -64 
C 2163 -64 2758 551 2758 1356 
z
M 1466 51 
C 1165 51 909 230 762 480 
C 602 767 582 1126 582 1408 
C 582 1677 595 2010 762 2298 
C 890 2509 1139 2714 1466 2714 
C 1754 2714 1997 2554 2150 2330 
C 2349 2029 2349 1607 2349 1408 
C 2349 1158 2336 775 2163 467 
C 1984 173 1709 51 1466 51 
z
" transform="scale(0.015625)"/>
      <path id="CMR17-75" d="M 1882 2693 
L 1882 2528 
C 2259 2528 2317 2489 2317 2186 
L 2317 1032 
C 2317 500 2029 38 1555 38 
C 1030 38 986 348 986 678 
L 986 2763 
L 211 2693 
L 211 2528 
C 467 2528 640 2528 646 2274 
L 646 1058 
C 646 633 646 361 813 183 
C 896 101 1056 -64 1517 -64 
C 2061 -64 2272 377 2323 506 
L 2330 506 
L 2330 -63 
L 3091 -63 
L 3091 128 
C 2714 128 2656 166 2656 473 
L 2656 2763 
L 1882 2693 
z
" transform="scale(0.015625)"/>
      <path id="CMR17-74" d="M 966 2560 
L 1862 2560 
L 1862 2725 
L 966 2725 
L 966 3904 
L 851 3904 
C 838 3245 614 2668 70 2668 
L 70 2560 
L 627 2560 
L 627 771 
C 627 650 627 -64 1370 -64 
C 1747 -64 1965 306 1965 777 
L 1965 1140 
L 1850 1140 
L 1850 783 
C 1850 344 1677 51 1408 51 
C 1222 51 966 178 966 758 
L 966 2560 
z
" transform="scale(0.015625)"/>
     </defs>
     <use xlink:href="#CMMI12-56" transform="scale(0.996264)"/>
     <use xlink:href="#CMR17-6f" transform="translate(56.869579 -14.943915) scale(0.697382)"/>
     <use xlink:href="#CMR17-75" transform="translate(88.852761 -14.943915) scale(0.697382)"/>
     <use xlink:href="#CMR17-74" transform="translate(124.479369 -14.943915) scale(0.697382)"/>
    </g>
   </g>
   <g id="patch_9">
    <path d="M 213.9776 87.852 
C 214.693648 87.852 215.380466 87.567511 215.886788 87.061188 
C 216.393111 86.554866 216.6776 85.868048 216.6776 85.152 
C 216.6776 84.435952 216.393111 83.749134 215.886788 83.242812 
C 215.380466 82.736489 214.693648 82.452 213.9776 82.452 
C 213.261552 82.452 212.574734 82.736489 212.068412 83.242812 
C 211.562089 83.749134 211.2776 84.435952 211.2776 85.152 
C 211.2776 85.868048 211.562089 86.554866 212.068412 87.061188 
C 212.574734 87.567511 213.261552 87.852 213.9776 87.852 
z
" clip-path="url(#p4aef387293)" style="stroke: #000000; stroke-width: 2; stroke-linejoin: miter"/>
   </g>
   <g id="text_6">
    <!-- $C_2$ -->
    <g transform="translate(277.604701 69.452524) scale(0.16 -0.16)">
     <use xlink:href="#CMMI12-43" transform="scale(0.996264)"/>
     <use xlink:href="#CMR17-32" transform="translate(69.792037 -14.943915) scale(0.697382)"/>
    </g>
   </g>
   <g id="patch_10">
    <path d="M 354.919886 87.852 
C 355.635935 87.852 356.322752 87.567511 356.829075 87.061188 
C 357.335397 86.554866 357.619886 85.868048 357.619886 85.152 
C 357.619886 84.435952 357.335397 83.749134 356.829075 83.242812 
C 356.322752 82.736489 355.635935 82.452 354.919886 82.452 
C 354.203838 82.452 353.517021 82.736489 353.010698 83.242812 
C 352.504375 83.749134 352.219886 84.435952 352.219886 85.152 
C 352.219886 85.868048 352.504375 86.554866 353.010698 87.061188 
C 353.517021 87.567511 354.203838 87.852 354.919886 87.852 
z
" clip-path="url(#p4aef387293)" style="stroke: #000000; stroke-width: 2; stroke-linejoin: miter"/>
   </g>
   <g id="text_7">
    <!-- $R_2$ -->
    <g transform="translate(277.247999 15.452524) scale(0.16 -0.16)">
     <use xlink:href="#CMMI12-52" transform="scale(0.996264)"/>
     <use xlink:href="#CMR17-32" transform="translate(74.250826 -14.943915) scale(0.697382)"/>
    </g>
   </g>
   <g id="patch_11">
    <path d="M 42.9776 168.852 
C 43.693648 168.852 44.380466 168.567511 44.886788 168.061188 
C 45.393111 167.554866 45.6776 166.868048 45.6776 166.152 
C 45.6776 165.435952 45.393111 164.749134 44.886788 164.242812 
C 44.380466 163.736489 43.693648 163.452 42.9776 163.452 
C 42.261552 163.452 41.574734 163.736489 41.068412 164.242812 
C 40.562089 164.749134 40.2776 165.435952 40.2776 166.152 
C 40.2776 166.868048 40.562089 167.554866 41.068412 168.061188 
C 41.574734 168.567511 42.261552 168.852 42.9776 168.852 
z
" clip-path="url(#p4aef387293)" style="fill: #ff0000; stroke: #ff0000; stroke-width: 2; stroke-linejoin: miter"/>
   </g>
   <g id="patch_12">
    <path d="M 390.919886 232.752 
C 391.635935 232.752 392.322752 232.467511 392.829075 231.961188 
C 393.335397 231.454866 393.619886 230.768048 393.619886 230.052 
C 393.619886 229.335952 393.335397 228.649134 392.829075 228.142812 
C 392.322752 227.636489 391.635935 227.352 390.919886 227.352 
C 390.203838 227.352 389.517021 227.636489 389.010698 228.142812 
C 388.504375 228.649134 388.219886 229.335952 388.219886 230.052 
C 388.219886 230.768048 388.504375 231.454866 389.010698 231.961188 
C 389.517021 232.467511 390.203838 232.752 390.919886 232.752 
z
" clip-path="url(#p4aef387293)" style="fill: #ffffff; stroke: #000000; stroke-width: 2; stroke-linejoin: miter"/>
   </g>
  </g>
 </g>
 <defs>
  <clipPath id="p4aef387293">
   <rect x="0" y="0" width="426.199886" height="269.832"/>
  </clipPath>
 </defs>
</svg>
