<?xml version="1.0" encoding="utf-8" standalone="no"?>
<!DOCTYPE svg PUBLIC "-//W3C//DTD SVG 1.1//EN"
  "http://www.w3.org/Graphics/SVG/1.1/DTD/svg11.dtd">
<svg xmlns:xlink="http://www.w3.org/1999/xlink" width="330.2576pt" height="203.84pt" viewBox="0 0 330.2576 203.84" xmlns="http://www.w3.org/2000/svg" version="1.1">
 <metadata>
  <rdf:RDF xmlns:dc="http://purl.org/dc/elements/1.1/" xmlns:cc="http://creativecommons.org/ns#" xmlns:rdf="http://www.w3.org/1999/02/22-rdf-syntax-ns#">
   <cc:Work>
    <dc:type rdf:resource="http://purl.org/dc/dcmitype/StillImage"/>
    <dc:date>2025-05-20T18:07:16.331416</dc:date>
    <dc:format>image/svg+xml</dc:format>
    <dc:creator>
     <cc:Agent>
      <dc:title>Matplotlib v3.9.2, https://matplotlib.org/</dc:title>
     </cc:Agent>
    </dc:creator>
   </cc:Work>
  </rdf:RDF>
 </metadata>
 <defs>
  <style type="text/css">*{stroke-linejoin: round; stroke-linecap: butt}</style>
 </defs>
 <g id="figure_1">
  <g id="patch_1">
   <path d="M 0 203.84 
L 330.2576 203.84 
L 330.2576 0 
L 0 0 
L 0 203.84 
z
" style="fill: none"/>
  </g>
  <g id="axes_1">
   <g id="patch_2">
    <path d="M 42.9776 127.16 
C 47.751256 127.16 52.330038 125.263406 55.705522 121.887922 
C 59.081006 118.512438 60.9776 113.933656 60.9776 109.16 
C 60.9776 104.386344 59.081006 99.807562 55.705522 96.432078 
C 52.330038 93.056594 47.751256 91.16 42.9776 91.16 
C 38.203944 91.16 33.625162 93.056594 30.249678 96.432078 
C 26.874194 99.807562 24.9776 104.386344 24.9776 109.16 
C 24.9776 113.933656 26.874194 118.512438 30.249678 121.887922 
C 33.625162 125.263406 38.203944 127.16 42.9776 127.16 
L 42.9776 127.16 
z
" clip-path="url(#p16dfbfc885)" style="fill: none; stroke: #000000; stroke-width: 2; stroke-linejoin: miter"/>
   </g>
   <g id="patch_3">
    <path d="M 186.9776 163.16 
C 191.751256 163.16 196.330038 161.263406 199.705522 157.887922 
C 203.081006 154.512438 204.9776 149.933656 204.9776 145.16 
C 204.9776 140.386344 203.081006 135.807562 199.705522 132.432078 
C 196.330038 129.056594 191.751256 127.16 186.9776 127.16 
C 182.203944 127.16 177.625162 129.056594 174.249678 132.432078 
C 170.874194 135.807562 168.9776 140.386344 168.9776 145.16 
C 168.9776 149.933656 170.874194 154.512438 174.249678 157.887922 
C 177.625162 161.263406 182.203944 163.16 186.9776 163.16 
L 186.9776 163.16 
z
" clip-path="url(#p16dfbfc885)" style="fill: none; stroke: #000000; stroke-width: 2; stroke-linejoin: miter"/>
   </g>
   <g id="line2d_1">
    <path d="M 42.9776 190.16 
L 42.9776 190.16 
L 33.9776 190.16 
L 42.9776 199.16 
L 51.9776 190.16 
L 42.9776 190.16 
" clip-path="url(#p16dfbfc885)" style="fill: none; stroke: #000000; stroke-width: 2; stroke-linecap: round"/>
   </g>
   <g id="line2d_2">
    <path d="M 42.9776 190.16 
L 42.9776 167.66 
L 42.9776 145.16 
" clip-path="url(#p16dfbfc885)" style="fill: none; stroke: #000000; stroke-width: 2; stroke-linecap: round"/>
   </g>
   <g id="line2d_3">
    <path d="M 42.9776 145.16 
L 42.9776 127.16 
L 42.9776 127.16 
M 42.9776 91.16 
L 42.9776 91.16 
L 42.9776 73.16 
" clip-path="url(#p16dfbfc885)" style="fill: none; stroke: #000000; stroke-width: 2; stroke-linecap: round"/>
   </g>
   <g id="line2d_4">
    <path d="M 51.9776 109.16 
L 51.2276 107.296503 
L 50.4776 105.56 
L 49.7276 104.068831 
L 48.9776 102.924617 
L 48.2276 102.205334 
L 47.4776 101.96 
L 46.7276 102.205334 
L 45.9776 102.924617 
L 45.2276 104.068831 
L 44.4776 105.56 
L 43.7276 107.296503 
L 42.9776 109.16 
L 42.2276 111.023497 
L 41.4776 112.76 
L 40.7276 114.251169 
L 39.9776 115.395383 
L 39.2276 116.114666 
L 38.4776 116.36 
L 37.7276 116.114666 
L 36.9776 115.395383 
L 36.2276 114.251169 
L 35.4776 112.76 
L 34.7276 111.023497 
L 33.9776 109.16 
" clip-path="url(#p16dfbfc885)" style="fill: none; stroke: #000000; stroke-width: 2; stroke-linecap: round"/>
   </g>
   <g id="line2d_5">
    <path d="M 42.9776 73.16 
L 60.9776 73.16 
L 78.9776 73.16 
" clip-path="url(#p16dfbfc885)" style="fill: none; stroke: #ff0000; stroke-width: 2; stroke-linecap: round"/>
   </g>
   <g id="line2d_6">
    <path d="M 78.9776 73.16 
L 78.9776 109.16 
L 78.9776 145.16 
" clip-path="url(#p16dfbfc885)" style="fill: none; stroke: #ff0000; stroke-width: 2; stroke-linecap: round"/>
   </g>
   <g id="line2d_7">
    <path d="M 78.9776 145.16 
L 60.9776 145.16 
L 42.9776 145.16 
" clip-path="url(#p16dfbfc885)" style="fill: none; stroke: #ff0000; stroke-width: 2; stroke-linecap: round"/>
   </g>
   <g id="line2d_8">
    <path d="M 42.9776 73.16 
L 42.9776 50.66 
L 42.9776 28.16 
" clip-path="url(#p16dfbfc885)" style="fill: none; stroke: #000000; stroke-width: 2; stroke-linecap: round"/>
   </g>
   <g id="line2d_9">
    <path d="M 42.9776 28.16 
L 60.9776 28.16 
L 78.9776 28.16 
" clip-path="url(#p16dfbfc885)" style="fill: none; stroke: #000000; stroke-width: 2; stroke-linecap: round"/>
   </g>
   <g id="line2d_10">
    <path d="M 78.9776 28.16 
L 111.7376 28.16 
M 111.7376 19.16 
L 111.7376 37.16 
M 118.2176 19.16 
L 118.2176 37.16 
M 118.2176 28.16 
L 150.9776 28.16 
" clip-path="url(#p16dfbfc885)" style="fill: none; stroke: #000000; stroke-width: 2; stroke-linecap: round"/>
   </g>
   <g id="line2d_11">
    <path d="M 150.9776 28.16 
L 168.9776 28.16 
L 186.9776 28.16 
" clip-path="url(#p16dfbfc885)" style="fill: none; stroke: #000000; stroke-width: 2; stroke-linecap: round"/>
   </g>
   <g id="line2d_12">
    <path d="M 186.9776 28.16 
L 186.9776 32.66 
L 186.9776 37.16 
" clip-path="url(#p16dfbfc885)" style="fill: none; stroke: #000000; stroke-width: 2; stroke-linecap: round"/>
   </g>
   <g id="line2d_13">
    <path d="M 186.9776 37.16 
L 186.9776 55.16 
L 195.9776 58.16 
L 177.9776 64.16 
L 195.9776 70.16 
L 177.9776 76.16 
L 195.9776 82.16 
L 177.9776 88.16 
L 186.9776 91.16 
L 186.9776 109.16 
" clip-path="url(#p16dfbfc885)" style="fill: none; stroke: #000000; stroke-width: 2; stroke-linecap: round"/>
   </g>
   <g id="line2d_14">
    <path d="M 186.9776 109.16 
L 186.9776 127.16 
L 186.9776 127.16 
M 186.9776 163.16 
L 186.9776 163.16 
L 186.9776 181.16 
" clip-path="url(#p16dfbfc885)" style="fill: none; stroke: #000000; stroke-width: 2; stroke-linecap: round"/>
   </g>
   <g id="line2d_15">
    <path d="M 177.9776 145.16 
L 178.7276 147.023497 
L 179.4776 148.76 
L 180.2276 150.251169 
L 180.9776 151.395383 
L 181.7276 152.114666 
L 182.4776 152.36 
L 183.2276 152.114666 
L 183.9776 151.395383 
L 184.7276 150.251169 
L 185.4776 148.76 
L 186.2276 147.023497 
L 186.9776 145.16 
L 187.7276 143.296503 
L 188.4776 141.56 
L 189.2276 140.068831 
L 189.9776 138.924617 
L 190.7276 138.205334 
L 191.4776 137.96 
L 192.2276 138.205334 
L 192.9776 138.924617 
L 193.7276 140.068831 
L 194.4776 141.56 
L 195.2276 143.296503 
L 195.9776 145.16 
" clip-path="url(#p16dfbfc885)" style="fill: none; stroke: #000000; stroke-width: 2; stroke-linecap: round"/>
   </g>
   <g id="line2d_16">
    <path d="M 186.9776 181.16 
L 186.9776 185.66 
L 186.9776 190.16 
" clip-path="url(#p16dfbfc885)" style="fill: none; stroke: #000000; stroke-width: 2; stroke-linecap: round"/>
   </g>
   <g id="line2d_17">
    <path d="M 186.9776 190.16 
L 186.9776 190.16 
L 177.9776 190.16 
L 186.9776 199.16 
L 195.9776 190.16 
L 186.9776 190.16 
" clip-path="url(#p16dfbfc885)" style="fill: none; stroke: #000000; stroke-width: 2; stroke-linecap: round"/>
   </g>
   <g id="line2d_18">
    <path d="M 186.9776 28.16 
L 240.9776 28.16 
L 294.9776 28.16 
" clip-path="url(#p16dfbfc885)" style="fill: none; stroke: #000000; stroke-width: 2; stroke-linecap: round"/>
   </g>
   <g id="line2d_19">
    <path d="M 294.9776 28.16 
L 294.9776 37.16 
L 294.9776 46.16 
" clip-path="url(#p16dfbfc885)" style="fill: none; stroke: #ffffff; stroke-width: 2; stroke-linecap: round"/>
   </g>
   <g id="line2d_20">
    <path d="M 294.9776 46.16 
L 294.9776 100.16 
L 294.9776 145.16 
" clip-path="url(#p16dfbfc885)" style="fill: none; stroke: #000000; stroke-width: 2; stroke-linecap: round"/>
   </g>
   <g id="patch_4">
    <path d="M 297.6776 145.16 
L 294.9776 154.16 
L 292.2776 145.16 
z
" clip-path="url(#p16dfbfc885)"/>
   </g>
   <g id="line2d_21">
    <path d="M 294.9776 154.16 
L 294.9776 163.16 
L 294.9776 172.16 
" clip-path="url(#p16dfbfc885)" style="fill: none; stroke: #ffffff; stroke-width: 2; stroke-linecap: round"/>
   </g>
   <g id="line2d_22">
    <path d="M 294.9776 172.16 
L 294.9776 181.16 
L 294.9776 190.16 
" clip-path="url(#p16dfbfc885)" style="fill: none; stroke: #000000; stroke-width: 2; stroke-linecap: round"/>
   </g>
   <g id="line2d_23">
    <path d="M 294.9776 190.16 
L 294.9776 190.16 
L 285.9776 190.16 
L 294.9776 199.16 
L 303.9776 190.16 
L 294.9776 190.16 
" clip-path="url(#p16dfbfc885)" style="fill: none; stroke: #000000; stroke-width: 2; stroke-linecap: round"/>
   </g>
   <g id="text_1">
    <!-- $V_\mathrm{in}$ -->
    <g transform="translate(2.980023 113.145056) scale(0.16 -0.16)">
     <defs>
      <path id="CMMI12-56" d="M 3962 3640 
C 4179 3984 4378 4136 4704 4162 
C 4768 4168 4819 4168 4819 4282 
C 4819 4308 4806 4346 4749 4346 
C 4634 4346 4358 4346 4243 4346 
C 4058 4346 3866 4346 3686 4346 
C 3635 4346 3571 4346 3571 4226 
C 3571 4168 3629 4162 3654 4162 
C 3891 4143 3917 4029 3917 3952 
C 3917 3857 3827 3710 3821 3704 
L 1811 540 
L 1363 3969 
C 1363 4160 1696 4160 1766 4160 
C 1862 4160 1920 4160 1920 4282 
C 1920 4346 1850 4346 1830 4346 
C 1722 4346 1594 4346 1485 4346 
L 1126 4346 
C 659 4346 467 4346 461 4346 
C 422 4346 346 4346 346 4230 
C 346 4160 390 4160 493 4160 
C 819 4160 838 4102 858 3944 
L 1370 24 
C 1389 -109 1389 -128 1478 -128 
C 1555 -128 1587 -109 1651 -8 
L 3962 3640 
z
" transform="scale(0.015625)"/>
      <path id="CMR17-69" d="M 992 3909 
C 992 4049 877 4170 730 4170 
C 589 4170 467 4056 467 3909 
C 467 3769 582 3648 730 3648 
C 870 3648 992 3763 992 3909 
z
M 243 2706 
L 243 2541 
C 602 2541 653 2502 653 2197 
L 653 427 
C 653 184 627 153 218 153 
L 218 -13 
C 371 0 646 0 806 0 
C 960 0 1222 0 1370 -13 
L 1370 153 
C 992 153 979 191 979 420 
L 979 2776 
L 243 2706 
z
" transform="scale(0.015625)"/>
      <path id="CMR17-6e" d="M 2656 1933 
C 2656 2259 2592 2790 1837 2790 
C 1331 2790 1069 2400 973 2144 
L 966 2144 
L 966 2790 
L 211 2720 
L 211 2554 
C 589 2554 646 2515 646 2208 
L 646 428 
C 646 184 621 153 211 153 
L 211 -13 
C 365 0 646 0 813 0 
C 979 0 1267 0 1421 -13 
L 1421 153 
C 1011 153 986 178 986 428 
L 986 1658 
C 986 2247 1344 2688 1792 2688 
C 2266 2688 2317 2266 2317 1958 
L 2317 428 
C 2317 184 2291 153 1882 153 
L 1882 -13 
C 2035 0 2317 0 2483 0 
C 2650 0 2938 0 3091 -13 
L 3091 153 
C 2682 153 2656 178 2656 428 
L 2656 1933 
z
" transform="scale(0.015625)"/>
     </defs>
     <use xlink:href="#CMMI12-56" transform="scale(0.996264)"/>
     <use xlink:href="#CMR17-69" transform="translate(56.869579 -14.943915) scale(0.697382)"/>
     <use xlink:href="#CMR17-6e" transform="translate(74.279238 -14.943915) scale(0.697382)"/>
    </g>
   </g>
   <g id="patch_5">
    <path d="M 42.9776 147.86 
C 43.693648 147.86 44.380466 147.575511 44.886788 147.069188 
C 45.393111 146.562866 45.6776 145.876048 45.6776 145.16 
C 45.6776 144.443952 45.393111 143.757134 44.886788 143.250812 
C 44.380466 142.744489 43.693648 142.46 42.9776 142.46 
C 42.261552 142.46 41.574734 142.744489 41.068412 143.250812 
C 40.562089 143.757134 40.2776 144.443952 40.2776 145.16 
C 40.2776 145.876048 40.562089 146.562866 41.068412 147.069188 
C 41.574734 147.575511 42.261552 147.86 42.9776 147.86 
z
" clip-path="url(#p16dfbfc885)" style="fill: #ff0000; stroke: #ff0000; stroke-width: 2; stroke-linejoin: miter"/>
   </g>
   <g id="text_2">
    <!-- $C$ -->
    <g transform="translate(109.394236 12.460524) scale(0.16 -0.16)">
     <defs>
      <path id="CMMI12-43" d="M 4781 4423 
C 4781 4480 4736 4480 4723 4480 
C 4710 4480 4685 4480 4634 4416 
L 4192 3882 
C 3968 4264 3616 4480 3136 4480 
C 1754 4480 320 3088 320 1595 
C 320 533 1069 -128 2003 -128 
C 2515 -128 2963 88 3334 400 
C 3891 863 4058 1481 4058 1531 
C 4058 1588 4006 1588 3987 1588 
C 3930 1588 3923 1550 3910 1524 
C 3616 534 2752 57 2112 57 
C 1434 57 845 489 845 1391 
C 845 1595 909 2700 1632 3532 
C 1984 3939 2586 4295 3194 4295 
C 3898 4295 4211 3717 4211 3068 
C 4211 2903 4192 2764 4192 2738 
C 4192 2681 4256 2681 4275 2681 
C 4346 2681 4352 2687 4378 2801 
L 4781 4423 
z
" transform="scale(0.015625)"/>
     </defs>
     <use xlink:href="#CMMI12-43" transform="scale(0.996264)"/>
    </g>
   </g>
   <g id="patch_6">
    <path d="M 186.9776 30.86 
C 187.693648 30.86 188.380466 30.575511 188.886788 30.069188 
C 189.393111 29.562866 189.6776 28.876048 189.6776 28.16 
C 189.6776 27.443952 189.393111 26.757134 188.886788 26.250812 
C 188.380466 25.744489 187.693648 25.46 186.9776 25.46 
C 186.261552 25.46 185.574734 25.744489 185.068412 26.250812 
C 184.562089 26.757134 184.2776 27.443952 184.2776 28.16 
C 184.2776 28.876048 184.562089 29.562866 185.068412 30.069188 
C 185.574734 30.575511 186.261552 30.86 186.9776 30.86 
z
" clip-path="url(#p16dfbfc885)" style="stroke: #000000; stroke-width: 2; stroke-linejoin: miter"/>
   </g>
   <g id="text_3">
    <!-- $R_\mathrm{noiseless}$ -->
    <g transform="translate(204.198385 77.145056) scale(0.16 -0.16)">
     <defs>
      <path id="CMMI12-52" d="M 2355 3924 
C 2413 4160 2438 4160 2688 4160 
L 3149 4160 
C 3699 4160 4109 3995 4109 3499 
C 4109 3175 3942 2240 2656 2240 
L 1933 2240 
L 2355 3924 
z
M 3245 2169 
C 4038 2341 4659 2851 4659 3398 
C 4659 3894 4154 4352 3264 4352 
L 1530 4352 
C 1402 4352 1344 4352 1344 4226 
C 1344 4160 1389 4160 1510 4160 
C 1894 4160 1894 4112 1894 4045 
C 1894 4033 1894 3994 1869 3899 
L 1005 479 
C 947 256 934 192 493 192 
C 346 192 301 192 301 71 
C 301 7 371 7 390 7 
C 506 7 640 7 762 7 
L 1517 7 
C 1632 7 1766 7 1882 7 
C 1933 7 2003 7 2003 128 
C 2003 192 1946 192 1850 192 
C 1459 192 1459 243 1459 306 
C 1459 313 1459 357 1472 407 
L 1901 2112 
L 2669 2112 
C 3277 2112 3392 1731 3392 1522 
C 3392 1427 3328 1179 3283 1014 
C 3213 723 3194 652 3194 532 
C 3194 82 3565 -128 3994 -128 
C 4512 -128 4736 501 4736 591 
C 4736 635 4704 654 4666 654 
C 4614 654 4602 616 4589 565 
C 4435 114 4173 0 4013 0 
C 3853 0 3750 70 3750 356 
C 3750 509 3827 1088 3834 1120 
C 3866 1355 3866 1380 3866 1432 
C 3866 1896 3488 2093 3245 2169 
z
" transform="scale(0.015625)"/>
      <path id="CMR17-6f" d="M 2758 1356 
C 2758 2176 2163 2816 1466 2816 
C 768 2816 173 2176 173 1356 
C 173 551 768 -64 1466 -64 
C 2163 -64 2758 551 2758 1356 
z
M 1466 51 
C 1165 51 909 230 762 480 
C 602 767 582 1126 582 1408 
C 582 1677 595 2010 762 2298 
C 890 2509 1139 2714 1466 2714 
C 1754 2714 1997 2554 2150 2330 
C 2349 2029 2349 1607 2349 1408 
C 2349 1158 2336 775 2163 467 
C 1984 173 1709 51 1466 51 
z
" transform="scale(0.015625)"/>
      <path id="CMR17-73" d="M 1978 2697 
C 1978 2813 1971 2819 1933 2819 
C 1907 2819 1901 2813 1824 2717 
C 1805 2691 1747 2626 1728 2601 
C 1523 2819 1235 2819 1126 2819 
C 416 2819 160 2447 160 2076 
C 160 1498 813 1365 998 1325 
C 1402 1243 1542 1217 1677 1101 
C 1760 1025 1901 884 1901 654 
C 1901 384 1747 38 1158 38 
C 602 38 403 460 288 1021 
C 269 1110 269 1117 218 1117 
C 166 1117 160 1110 160 983 
L 160 63 
C 160 -51 166 -58 205 -58 
C 237 -58 243 -51 275 0 
C 314 57 410 211 448 276 
C 576 103 800 -64 1158 -64 
C 1792 -64 2131 283 2131 784 
C 2131 1112 1958 1285 1875 1362 
C 1683 1561 1459 1606 1190 1657 
C 838 1735 390 1825 390 2217 
C 390 2383 480 2737 1126 2737 
C 1811 2737 1850 2094 1862 1888 
C 1869 1856 1901 1849 1920 1849 
C 1978 1849 1978 1869 1978 1978 
L 1978 2697 
z
" transform="scale(0.015625)"/>
      <path id="CMR17-65" d="M 2438 1472 
C 2464 1498 2464 1511 2464 1576 
C 2464 2238 2118 2816 1389 2816 
C 710 2816 173 2169 173 1383 
C 173 551 781 -64 1459 -64 
C 2176 -64 2458 607 2458 740 
C 2458 784 2419 784 2406 784 
C 2362 784 2355 771 2330 696 
C 2189 265 1837 51 1504 51 
C 1229 51 954 203 781 480 
C 582 803 582 1176 582 1472 
L 2438 1472 
z
M 589 1568 
C 634 2505 1126 2714 1382 2714 
C 1818 2714 2112 2297 2118 1568 
L 589 1568 
z
" transform="scale(0.015625)"/>
      <path id="CMR17-6c" d="M 979 4396 
L 218 4326 
L 218 4160 
C 595 4160 653 4122 653 3817 
L 653 426 
C 653 184 627 153 218 153 
L 218 -13 
C 371 0 653 0 813 0 
C 979 0 1261 0 1414 -13 
L 1414 153 
C 1005 153 979 178 979 426 
L 979 4396 
z
" transform="scale(0.015625)"/>
     </defs>
     <use xlink:href="#CMMI12-52" transform="scale(0.996264)"/>
     <use xlink:href="#CMR17-6e" transform="translate(74.250826 -14.943915) scale(0.697382)"/>
     <use xlink:href="#CMR17-6f" transform="translate(109.877434 -14.943915) scale(0.697382)"/>
     <use xlink:href="#CMR17-69" transform="translate(141.860616 -14.943915) scale(0.697382)"/>
     <use xlink:href="#CMR17-73" transform="translate(159.270275 -14.943915) scale(0.697382)"/>
     <use xlink:href="#CMR17-65" transform="translate(184.331097 -14.943915) scale(0.697382)"/>
     <use xlink:href="#CMR17-6c" transform="translate(212.670929 -14.943915) scale(0.697382)"/>
     <use xlink:href="#CMR17-65" transform="translate(230.080588 -14.943915) scale(0.697382)"/>
     <use xlink:href="#CMR17-73" transform="translate(258.420419 -14.943915) scale(0.697382)"/>
     <use xlink:href="#CMR17-73" transform="translate(283.481242 -14.943915) scale(0.697382)"/>
    </g>
   </g>
   <g id="text_4">
    <!-- $\overline{V_\mathrm{n,R}^2}$ -->
    <g transform="translate(217.468277 149.348745) scale(0.16 -0.16)">
     <defs>
      <path id="CMR17-32" d="M 2669 989 
L 2554 989 
C 2490 536 2438 459 2413 420 
C 2381 369 1920 369 1830 369 
L 602 369 
C 832 619 1280 1072 1824 1597 
C 2214 1967 2669 2402 2669 3035 
C 2669 3790 2067 4224 1395 4224 
C 691 4224 262 3604 262 3030 
C 262 2780 448 2748 525 2748 
C 589 2748 781 2787 781 3010 
C 781 3207 614 3264 525 3264 
C 486 3264 448 3258 422 3245 
C 544 3790 915 4058 1306 4058 
C 1862 4058 2227 3617 2227 3035 
C 2227 2479 1901 2000 1536 1584 
L 262 146 
L 262 0 
L 2515 0 
L 2669 989 
z
" transform="scale(0.015625)"/>
      <path id="CMMI12-3b" d="M 1248 -31 
C 1248 343 1126 619 864 619 
C 659 619 557 453 557 313 
C 557 172 653 0 870 0 
C 954 0 1024 26 1082 83 
C 1094 96 1101 96 1107 96 
C 1120 96 1120 5 1120 -27 
C 1120 -240 1082 -659 710 -1080 
C 640 -1157 640 -1170 640 -1183 
C 640 -1216 672 -1248 704 -1248 
C 755 -1248 1248 -771 1248 -31 
z
" transform="scale(0.015625)"/>
      <path id="CMR17-52" d="M 2509 2146 
C 3117 2268 3629 2676 3629 3186 
C 3629 3785 2950 4326 2054 4326 
L 333 4326 
L 333 4160 
C 774 4160 845 4160 845 3873 
L 845 415 
C 845 128 774 128 333 128 
L 333 -26 
C 518 -26 851 -26 1050 -26 
C 1248 -26 1581 -26 1766 -26 
L 1766 128 
C 1325 128 1254 128 1254 417 
L 1254 2112 
L 2003 2112 
C 2368 2112 2573 1964 2662 1881 
C 2918 1632 2918 1459 2918 1024 
C 2918 595 2918 377 3110 160 
C 3354 -102 3680 -128 3821 -128 
C 4294 -128 4365 396 4365 503 
C 4365 540 4365 585 4307 585 
C 4256 585 4250 547 4250 522 
C 4218 112 4032 -26 3834 -26 
C 3482 -26 3443 375 3405 764 
C 3386 898 3373 993 3360 1133 
C 3322 1452 3270 1917 2509 2146 
z
M 1984 2214 
L 1254 2214 
L 1254 3913 
C 1254 4129 1267 4160 1523 4160 
L 1990 4160 
C 2522 4160 3142 3977 3142 3190 
C 3142 2372 2464 2214 1984 2214 
z
" transform="scale(0.015625)"/>
     </defs>
     <use xlink:href="#CMMI12-56" transform="scale(0.996264)"/>
     <use xlink:href="#CMR17-32" transform="translate(78.547321 34.315728) scale(0.697382)"/>
     <use xlink:href="#CMR17-6e" transform="translate(56.869579 -29.268645) scale(0.697382)"/>
     <use xlink:href="#CMMI12-3b" transform="translate(92.496187 -29.268645) scale(0.697382)"/>
     <use xlink:href="#CMR17-52" transform="translate(111.46412 -29.268645) scale(0.697382)"/>
     <path d="M 0 91.224589 
L 159.415817 91.224589 
L 159.415817 95.209538 
L 0 95.209538 
L 0 91.224589 
z
"/>
    </g>
   </g>
   <g id="patch_7">
    <path d="M 294.9776 30.86 
C 295.693648 30.86 296.380466 30.575511 296.886788 30.069188 
C 297.393111 29.562866 297.6776 28.876048 297.6776 28.16 
C 297.6776 27.443952 297.393111 26.757134 296.886788 26.250812 
C 296.380466 25.744489 295.693648 25.46 294.9776 25.46 
C 294.261552 25.46 293.574734 25.744489 293.068412 26.250812 
C 292.562089 26.757134 292.2776 27.443952 292.2776 28.16 
C 292.2776 28.876048 292.562089 29.562866 293.068412 30.069188 
C 293.574734 30.575511 294.261552 30.86 294.9776 30.86 
z
" clip-path="url(#p16dfbfc885)" style="fill: #ffffff; stroke: #000000; stroke-width: 2; stroke-linejoin: miter"/>
   </g>
   <g id="text_5">
    <!-- $V_\mathrm{out}$ -->
    <g transform="translate(300.361157 104.145056) scale(0.16 -0.16)">
     <defs>
      <path id="CMR17-75" d="M 1882 2693 
L 1882 2528 
C 2259 2528 2317 2489 2317 2186 
L 2317 1032 
C 2317 500 2029 38 1555 38 
C 1030 38 986 348 986 678 
L 986 2763 
L 211 2693 
L 211 2528 
C 467 2528 640 2528 646 2274 
L 646 1058 
C 646 633 646 361 813 183 
C 896 101 1056 -64 1517 -64 
C 2061 -64 2272 377 2323 506 
L 2330 506 
L 2330 -63 
L 3091 -63 
L 3091 128 
C 2714 128 2656 166 2656 473 
L 2656 2763 
L 1882 2693 
z
" transform="scale(0.015625)"/>
      <path id="CMR17-74" d="M 966 2560 
L 1862 2560 
L 1862 2725 
L 966 2725 
L 966 3904 
L 851 3904 
C 838 3245 614 2668 70 2668 
L 70 2560 
L 627 2560 
L 627 771 
C 627 650 627 -64 1370 -64 
C 1747 -64 1965 306 1965 777 
L 1965 1140 
L 1850 1140 
L 1850 783 
C 1850 344 1677 51 1408 51 
C 1222 51 966 178 966 758 
L 966 2560 
z
" transform="scale(0.015625)"/>
     </defs>
     <use xlink:href="#CMMI12-56" transform="scale(0.996264)"/>
     <use xlink:href="#CMR17-6f" transform="translate(56.869579 -14.943915) scale(0.697382)"/>
     <use xlink:href="#CMR17-75" transform="translate(88.852761 -14.943915) scale(0.697382)"/>
     <use xlink:href="#CMR17-74" transform="translate(124.479369 -14.943915) scale(0.697382)"/>
    </g>
   </g>
   <g id="patch_8">
    <path d="M 42.9776 75.86 
C 43.693648 75.86 44.380466 75.575511 44.886788 75.069188 
C 45.393111 74.562866 45.6776 73.876048 45.6776 73.16 
C 45.6776 72.443952 45.393111 71.757134 44.886788 71.250812 
C 44.380466 70.744489 43.693648 70.46 42.9776 70.46 
C 42.261552 70.46 41.574734 70.744489 41.068412 71.250812 
C 40.562089 71.757134 40.2776 72.443952 40.2776 73.16 
C 40.2776 73.876048 40.562089 74.562866 41.068412 75.069188 
C 41.574734 75.575511 42.261552 75.86 42.9776 75.86 
z
" clip-path="url(#p16dfbfc885)" style="fill: #ff0000; stroke: #ff0000; stroke-width: 2; stroke-linejoin: miter"/>
   </g>
   <g id="patch_9">
    <path d="M 294.9776 174.86 
C 295.693648 174.86 296.380466 174.575511 296.886788 174.069188 
C 297.393111 173.562866 297.6776 172.876048 297.6776 172.16 
C 297.6776 171.443952 297.393111 170.757134 296.886788 170.250812 
C 296.380466 169.744489 295.693648 169.46 294.9776 169.46 
C 294.261552 169.46 293.574734 169.744489 293.068412 170.250812 
C 292.562089 170.757134 292.2776 171.443952 292.2776 172.16 
C 292.2776 172.876048 292.562089 173.562866 293.068412 174.069188 
C 293.574734 174.575511 294.261552 174.86 294.9776 174.86 
z
" clip-path="url(#p16dfbfc885)" style="fill: #ffffff; stroke: #000000; stroke-width: 2; stroke-linejoin: miter"/>
   </g>
  </g>
 </g>
 <defs>
  <clipPath id="p16dfbfc885">
   <rect x="0" y="-0" width="330.2576" height="203.84"/>
  </clipPath>
 </defs>
</svg>
