<?xml version="1.0" encoding="utf-8" standalone="no"?>
<!DOCTYPE svg PUBLIC "-//W3C//DTD SVG 1.1//EN"
  "http://www.w3.org/Graphics/SVG/1.1/DTD/svg11.dtd">
<svg xmlns:xlink="http://www.w3.org/1999/xlink" width="621.968pt" height="297.36pt" viewBox="0 0 621.968 297.36" xmlns="http://www.w3.org/2000/svg" version="1.1">
 <metadata>
  <rdf:RDF xmlns:dc="http://purl.org/dc/elements/1.1/" xmlns:cc="http://creativecommons.org/ns#" xmlns:rdf="http://www.w3.org/1999/02/22-rdf-syntax-ns#">
   <cc:Work>
    <dc:type rdf:resource="http://purl.org/dc/dcmitype/StillImage"/>
    <dc:date>2025-05-20T18:07:15.452467</dc:date>
    <dc:format>image/svg+xml</dc:format>
    <dc:creator>
     <cc:Agent>
      <dc:title>Matplotlib v3.9.2, https://matplotlib.org/</dc:title>
     </cc:Agent>
    </dc:creator>
   </cc:Work>
  </rdf:RDF>
 </metadata>
 <defs>
  <style type="text/css">*{stroke-linejoin: round; stroke-linecap: butt}</style>
 </defs>
 <g id="figure_1">
  <g id="patch_1">
   <path d="M 0 297.36 
L 621.968 297.36 
L 621.968 0 
L 0 0 
L 0 297.36 
z
" style="fill: none"/>
  </g>
  <g id="axes_1">
   <g id="patch_2">
    <path d="M 149.648 166.68 
C 154.421656 166.68 159.000438 164.783406 162.375922 161.407922 
C 165.751406 158.032438 167.648 153.453656 167.648 148.68 
C 167.648 143.906344 165.751406 139.327562 162.375922 135.952078 
C 159.000438 132.576594 154.421656 130.68 149.648 130.68 
C 144.874344 130.68 140.295562 132.576594 136.920078 135.952078 
C 133.544594 139.327562 131.648 143.906344 131.648 148.68 
C 131.648 153.453656 133.544594 158.032438 136.920078 161.407922 
C 140.295562 164.783406 144.874344 166.68 149.648 166.68 
L 149.648 166.68 
z
" clip-path="url(#p8d025e6f9e)" style="fill: none; stroke: #000000; stroke-width: 2; stroke-linejoin: miter"/>
   </g>
   <g id="patch_3">
    <path d="M 437.648 166.68 
C 442.421656 166.68 447.000438 164.783406 450.375922 161.407922 
C 453.751406 158.032438 455.648 153.453656 455.648 148.68 
C 455.648 143.906344 453.751406 139.327562 450.375922 135.952078 
C 447.000438 132.576594 442.421656 130.68 437.648 130.68 
C 432.874344 130.68 428.295562 132.576594 424.920078 135.952078 
C 421.544594 139.327562 419.648 143.906344 419.648 148.68 
C 419.648 153.453656 421.544594 158.032438 424.920078 161.407922 
C 428.295562 164.783406 432.874344 166.68 437.648 166.68 
L 437.648 166.68 
z
" clip-path="url(#p8d025e6f9e)" style="fill: none; stroke: #000000; stroke-width: 2; stroke-linejoin: miter"/>
   </g>
   <g id="line2d_1">
    <path d="M 23.648 148.68 
L 50.648 148.68 
L 77.648 148.68 
" clip-path="url(#p8d025e6f9e)" style="fill: none; stroke: #000000; stroke-width: 2; stroke-linecap: round"/>
   </g>
   <g id="line2d_2">
    <path d="M 77.648 148.68 
L 104.648 148.68 
L 122.648 148.68 
" clip-path="url(#p8d025e6f9e)" style="fill: none; stroke: #000000; stroke-width: 2; stroke-linecap: round"/>
   </g>
   <g id="patch_4">
    <path d="M 122.648 145.98 
L 131.648 148.68 
L 122.648 151.38 
z
" clip-path="url(#p8d025e6f9e)"/>
   </g>
   <g id="line2d_3">
    <path d="M 167.648 148.68 
L 203.648 148.68 
L 230.648 148.68 
" clip-path="url(#p8d025e6f9e)" style="fill: none; stroke: #000000; stroke-width: 2; stroke-linecap: round"/>
   </g>
   <g id="patch_5">
    <path d="M 230.648 145.98 
L 239.648 148.68 
L 230.648 151.38 
z
" clip-path="url(#p8d025e6f9e)"/>
   </g>
   <g id="line2d_4">
    <path d="M 239.648 148.68 
L 239.648 112.68 
L 347.648 112.68 
L 347.648 184.68 
L 239.648 184.68 
L 239.648 148.68 
" clip-path="url(#p8d025e6f9e)" style="fill: none; stroke: #000000; stroke-width: 2; stroke-linecap: round"/>
   </g>
   <g id="line2d_5">
    <path d="M 347.648 148.68 
L 383.648 148.68 
L 410.648 148.68 
" clip-path="url(#p8d025e6f9e)" style="fill: none; stroke: #000000; stroke-width: 2; stroke-linecap: round"/>
   </g>
   <g id="patch_6">
    <path d="M 410.648 145.98 
L 419.648 148.68 
L 410.648 151.38 
z
" clip-path="url(#p8d025e6f9e)"/>
   </g>
   <g id="line2d_6">
    <path d="M 455.648 148.68 
L 491.648 148.68 
L 527.648 148.68 
" clip-path="url(#p8d025e6f9e)" style="fill: none; stroke: #000000; stroke-width: 2; stroke-linecap: round"/>
   </g>
   <g id="line2d_7">
    <path d="M 527.648 148.68 
L 563.648 148.68 
L 599.648 148.68 
" clip-path="url(#p8d025e6f9e)" style="fill: none; stroke: #000000; stroke-width: 2; stroke-linecap: round"/>
   </g>
   <g id="line2d_8">
    <path d="M 527.648 148.68 
L 527.648 202.68 
L 527.648 256.68 
" clip-path="url(#p8d025e6f9e)" style="fill: none; stroke: #000000; stroke-width: 2; stroke-linecap: round"/>
   </g>
   <g id="line2d_9">
    <path d="M 527.648 256.68 
L 459.248 256.68 
L 399.848 256.68 
" clip-path="url(#p8d025e6f9e)" style="fill: none; stroke: #000000; stroke-width: 2; stroke-linecap: round"/>
   </g>
   <g id="patch_7">
    <path d="M 399.848 259.38 
L 390.848 256.68 
L 399.848 253.98 
z
" clip-path="url(#p8d025e6f9e)"/>
   </g>
   <g id="line2d_10">
    <path d="M 282.848 256.68 
L 282.848 220.68 
L 390.848 220.68 
L 390.848 292.68 
L 282.848 292.68 
L 282.848 256.68 
" clip-path="url(#p8d025e6f9e)" style="fill: none; stroke: #000000; stroke-width: 2; stroke-linecap: round"/>
   </g>
   <g id="line2d_11">
    <path d="M 282.848 256.68 
L 216.248 256.68 
L 149.648 256.68 
" clip-path="url(#p8d025e6f9e)" style="fill: none; stroke: #000000; stroke-width: 2; stroke-linecap: round"/>
   </g>
   <g id="line2d_12">
    <path d="M 149.648 256.68 
L 149.648 229.68 
L 149.648 202.68 
" clip-path="url(#p8d025e6f9e)" style="fill: none; stroke: #000000; stroke-width: 2; stroke-linecap: round"/>
   </g>
   <g id="line2d_13">
    <path d="M 149.648 202.68 
L 149.648 184.68 
L 149.648 175.68 
" clip-path="url(#p8d025e6f9e)" style="fill: none; stroke: #000000; stroke-width: 2; stroke-linecap: round"/>
   </g>
   <g id="patch_8">
    <path d="M 146.948 175.68 
L 149.648 166.68 
L 152.348 175.68 
z
" clip-path="url(#p8d025e6f9e)"/>
   </g>
   <g id="line2d_14">
    <path d="M 77.648 148.68 
L 77.648 94.68 
L 77.648 40.68 
" clip-path="url(#p8d025e6f9e)" style="fill: none; stroke: #000000; stroke-width: 2; stroke-linecap: round"/>
   </g>
   <g id="line2d_15">
    <path d="M 77.648 40.68 
L 146.048 40.68 
L 205.448 40.68 
" clip-path="url(#p8d025e6f9e)" style="fill: none; stroke: #000000; stroke-width: 2; stroke-linecap: round"/>
   </g>
   <g id="patch_9">
    <path d="M 205.448 37.98 
L 214.448 40.68 
L 205.448 43.38 
z
" clip-path="url(#p8d025e6f9e)"/>
   </g>
   <g id="line2d_16">
    <path d="M 214.448 40.68 
L 214.448 4.68 
L 322.448 4.68 
L 322.448 76.68 
L 214.448 76.68 
L 214.448 40.68 
" clip-path="url(#p8d025e6f9e)" style="fill: none; stroke: #000000; stroke-width: 2; stroke-linecap: round"/>
   </g>
   <g id="line2d_17">
    <path d="M 322.448 40.68 
L 380.048 40.68 
L 437.648 40.68 
" clip-path="url(#p8d025e6f9e)" style="fill: none; stroke: #000000; stroke-width: 2; stroke-linecap: round"/>
   </g>
   <g id="line2d_18">
    <path d="M 437.648 40.68 
L 437.648 85.68 
L 437.648 121.68 
" clip-path="url(#p8d025e6f9e)" style="fill: none; stroke: #000000; stroke-width: 2; stroke-linecap: round"/>
   </g>
   <g id="patch_10">
    <path d="M 440.348 121.68 
L 437.648 130.68 
L 434.948 121.68 
z
" clip-path="url(#p8d025e6f9e)"/>
   </g>
   <g id="patch_11">
    <path d="M 77.648 151.38 
C 78.364048 151.38 79.050866 151.095511 79.557188 150.589188 
C 80.063511 150.082866 80.348 149.396048 80.348 148.68 
C 80.348 147.963952 80.063511 147.277134 79.557188 146.770812 
C 79.050866 146.264489 78.364048 145.98 77.648 145.98 
C 76.931952 145.98 76.245134 146.264489 75.738812 146.770812 
C 75.232489 147.277134 74.948 147.963952 74.948 148.68 
C 74.948 149.396048 75.232489 150.082866 75.738812 150.589188 
C 76.245134 151.095511 76.931952 151.38 77.648 151.38 
z
" clip-path="url(#p8d025e6f9e)" style="stroke: #000000; stroke-width: 2; stroke-linejoin: miter"/>
   </g>
   <g id="text_1">
    <!-- $\Sigma$ -->
    <g transform="translate(142.916314 152.166924) scale(0.14 -0.14)">
     <defs>
      <path id="CMR17-6" d="M 2067 2097 
C 2112 2148 2112 2161 2112 2180 
C 2112 2204 2086 2243 2080 2256 
L 819 4186 
L 2368 4186 
C 3430 4186 3750 3956 3859 2944 
L 3974 2944 
L 3821 4352 
L 435 4352 
C 301 4352 294 4346 294 4212 
L 1773 1944 
L 346 121 
C 301 64 301 58 301 45 
C 301 0 339 0 435 0 
L 3821 0 
L 3974 1460 
L 3859 1460 
C 3757 428 3392 218 2355 218 
L 589 218 
L 2067 2097 
z
" transform="scale(0.015625)"/>
     </defs>
     <use xlink:href="#CMR17-6" transform="scale(0.996264)"/>
    </g>
   </g>
   <g id="text_2">
    <!-- $H_\mathrm{ol}(j \omega)$ -->
    <g transform="translate(267.701438 152.665056) scale(0.16 -0.16)">
     <defs>
      <path id="CMMI12-48" d="M 4787 3887 
C 4845 4103 4858 4167 5312 4167 
C 5427 4167 5491 4167 5491 4282 
C 5491 4352 5434 4352 5395 4352 
C 5280 4352 5146 4352 5024 4352 
L 4269 4352 
C 4147 4352 4013 4352 3891 4352 
C 3846 4352 3770 4352 3770 4231 
C 3770 4167 3814 4167 3936 4167 
C 4320 4167 4320 4116 4320 4046 
C 4320 4034 4320 3995 4294 3900 
L 3904 2361 
L 1971 2361 
L 2355 3887 
C 2413 4103 2426 4167 2880 4167 
C 2995 4167 3059 4167 3059 4282 
C 3059 4352 3002 4352 2963 4352 
C 2848 4352 2714 4352 2592 4352 
L 1837 4352 
C 1715 4352 1581 4352 1459 4352 
C 1414 4352 1338 4352 1338 4231 
C 1338 4167 1382 4167 1504 4167 
C 1888 4167 1888 4116 1888 4046 
C 1888 4034 1888 3995 1862 3899 
L 998 472 
C 941 249 928 185 486 185 
C 339 185 294 185 294 64 
C 294 0 365 0 384 0 
C 499 0 634 0 755 0 
L 1510 0 
C 1632 0 1766 0 1888 0 
C 1939 0 2010 0 2010 121 
C 2010 185 1952 185 1856 185 
C 1466 185 1466 236 1466 300 
C 1466 307 1466 351 1478 402 
L 1920 2176 
L 3859 2176 
C 3750 1753 3424 416 3411 376 
C 3341 185 3238 185 2861 185 
C 2784 185 2726 185 2726 64 
C 2726 0 2797 0 2816 0 
C 2931 0 3066 0 3187 0 
L 3942 0 
C 4064 0 4198 0 4320 0 
C 4371 0 4442 0 4442 121 
C 4442 185 4384 185 4288 185 
C 3898 185 3898 236 3898 300 
C 3898 307 3898 351 3910 402 
L 4787 3887 
z
" transform="scale(0.015625)"/>
      <path id="CMR17-6f" d="M 2758 1356 
C 2758 2176 2163 2816 1466 2816 
C 768 2816 173 2176 173 1356 
C 173 551 768 -64 1466 -64 
C 2163 -64 2758 551 2758 1356 
z
M 1466 51 
C 1165 51 909 230 762 480 
C 602 767 582 1126 582 1408 
C 582 1677 595 2010 762 2298 
C 890 2509 1139 2714 1466 2714 
C 1754 2714 1997 2554 2150 2330 
C 2349 2029 2349 1607 2349 1408 
C 2349 1158 2336 775 2163 467 
C 1984 173 1709 51 1466 51 
z
" transform="scale(0.015625)"/>
      <path id="CMR17-6c" d="M 979 4396 
L 218 4326 
L 218 4160 
C 595 4160 653 4122 653 3817 
L 653 426 
C 653 184 627 153 218 153 
L 218 -13 
C 371 0 653 0 813 0 
C 979 0 1261 0 1414 -13 
L 1414 153 
C 1005 153 979 178 979 426 
L 979 4396 
z
" transform="scale(0.015625)"/>
      <path id="CMR17-28" d="M 1958 -1561 
C 1958 -1555 1958 -1542 1939 -1523 
C 1645 -1224 858 -407 858 1581 
C 858 3569 1632 4379 1946 4697 
C 1946 4704 1958 4717 1958 4736 
C 1958 4755 1939 4768 1914 4768 
C 1843 4768 1299 4296 986 3594 
C 666 2887 576 2199 576 1588 
C 576 1128 621 351 1005 -471 
C 1312 -1135 1837 -1600 1914 -1600 
C 1946 -1600 1958 -1587 1958 -1561 
z
" transform="scale(0.015625)"/>
      <path id="CMMI12-6a" d="M 2240 2028 
C 2266 2131 2266 2219 2266 2245 
C 2266 2613 1990 2816 1702 2816 
C 1056 2816 710 1889 710 1845 
C 710 1813 736 1788 774 1788 
C 826 1788 832 1813 864 1876 
C 1120 2492 1440 2689 1683 2689 
C 1818 2689 1888 2618 1888 2397 
C 1888 2245 1869 2181 1843 2067 
L 1235 -327 
C 1114 -796 813 -1152 461 -1152 
C 435 -1152 301 -1152 179 -1088 
C 333 -1056 454 -936 454 -784 
C 454 -682 378 -580 237 -580 
C 70 -580 -83 -720 -83 -911 
C -83 -1171 198 -1280 461 -1280 
C 902 -1280 1485 -956 1645 -320 
L 2240 2028 
z
M 2502 4013 
C 2502 4173 2368 4224 2291 4224 
C 2118 4224 1971 4058 1971 3917 
C 1971 3822 2048 3707 2189 3707 
C 2336 3707 2502 3847 2502 4013 
z
" transform="scale(0.015625)"/>
      <path id="CMMI12-21" d="M 3802 2395 
C 3802 2580 3750 2816 3526 2816 
C 3398 2816 3251 2657 3251 2529 
C 3251 2472 3277 2434 3328 2376 
C 3424 2268 3546 2096 3546 1797 
C 3546 1567 3405 1204 3302 1007 
C 3123 656 2829 357 2496 357 
C 2093 357 1939 615 1869 975 
C 1939 1143 2086 1560 2086 1728 
C 2086 1798 2061 1856 1978 1856 
C 1933 1856 1882 1831 1850 1779 
C 1760 1638 1677 1129 1683 994 
C 1562 756 1216 357 806 357 
C 378 357 262 733 262 1096 
C 262 1758 678 2338 794 2497 
C 858 2593 902 2657 902 2669 
C 902 2714 877 2784 819 2784 
C 717 2784 685 2701 634 2625 
C 307 2121 77 1414 77 803 
C 77 408 224 -64 704 -64 
C 1235 -64 1568 391 1702 634 
C 1754 275 1946 -64 2413 -64 
C 2899 -64 3206 363 3437 879 
C 3603 1249 3802 2045 3802 2395 
z
" transform="scale(0.015625)"/>
      <path id="CMR17-29" d="M 1683 1581 
C 1683 2040 1638 2817 1254 3639 
C 947 4303 422 4768 346 4768 
C 326 4768 301 4761 301 4729 
C 301 4717 307 4710 314 4697 
C 621 4378 1402 3568 1402 1584 
C 1402 -407 627 -1217 314 -1537 
C 307 -1549 301 -1556 301 -1568 
C 301 -1600 326 -1600 346 -1600 
C 416 -1600 960 -1128 1274 -426 
C 1594 281 1683 969 1683 1581 
z
" transform="scale(0.015625)"/>
     </defs>
     <use xlink:href="#CMMI12-48" transform="scale(0.996264)"/>
     <use xlink:href="#CMR17-6f" transform="translate(80.824837 -14.943915) scale(0.697382)"/>
     <use xlink:href="#CMR17-6c" transform="translate(112.808019 -14.943915) scale(0.697382)"/>
     <use xlink:href="#CMR17-28" transform="translate(130.715809 0) scale(0.996264)"/>
     <use xlink:href="#CMMI12-6a" transform="translate(165.996577 0) scale(0.996264)"/>
     <use xlink:href="#CMMI12-21" transform="translate(211.95906 0) scale(0.996264)"/>
     <use xlink:href="#CMR17-29" transform="translate(276.277406 0) scale(0.996264)"/>
    </g>
   </g>
   <g id="text_3">
    <!-- $\Sigma$ -->
    <g transform="translate(430.916314 152.166924) scale(0.14 -0.14)">
     <use xlink:href="#CMR17-6" transform="scale(0.996264)"/>
    </g>
   </g>
   <g id="patch_12">
    <path d="M 527.648 151.38 
C 528.364048 151.38 529.050866 151.095511 529.557188 150.589188 
C 530.063511 150.082866 530.348 149.396048 530.348 148.68 
C 530.348 147.963952 530.063511 147.277134 529.557188 146.770812 
C 529.050866 146.264489 528.364048 145.98 527.648 145.98 
C 526.931952 145.98 526.245134 146.264489 525.738812 146.770812 
C 525.232489 147.277134 524.948 147.963952 524.948 148.68 
C 524.948 149.396048 525.232489 150.082866 525.738812 150.589188 
C 526.245134 151.095511 526.931952 151.38 527.648 151.38 
z
" clip-path="url(#p8d025e6f9e)" style="stroke: #000000; stroke-width: 2; stroke-linejoin: miter"/>
   </g>
   <g id="text_4">
    <!-- $\beta$ -->
    <g transform="translate(332.442341 260.665056) scale(0.16 -0.16)">
     <defs>
      <path id="CMMI12-c" d="M 3622 3701 
C 3622 4081 3296 4480 2714 4480 
C 1888 4480 1363 3477 1197 2816 
L 186 -1172 
C 173 -1223 211 -1236 243 -1236 
C 288 -1236 320 -1230 326 -1198 
L 774 586 
C 838 229 1190 -64 1568 -64 
C 2483 -64 3347 650 3347 1599 
C 3347 1841 3290 2083 3155 2287 
C 3078 2408 2982 2497 2880 2574 
C 3341 2815 3622 3200 3622 3701 
z
M 2509 2580 
C 2406 2542 2304 2529 2182 2529 
C 2093 2529 2010 2523 1894 2561 
C 1958 2606 2054 2618 2189 2618 
C 2304 2618 2419 2606 2509 2580 
z
M 3290 3758 
C 3290 3410 3117 2903 2701 2669 
C 2579 2718 2413 2752 2272 2752 
C 2138 2752 1754 2752 1754 2555 
C 1754 2389 2106 2389 2214 2389 
C 2381 2389 2528 2432 2682 2484 
C 2886 2318 2976 2101 2976 1783 
C 2976 1413 2874 1115 2752 841 
C 2541 369 2042 64 1600 64 
C 1133 64 890 432 890 864 
C 890 922 890 1005 915 1099 
L 1331 2771 
C 1542 3603 2080 4353 2701 4353 
C 3162 4353 3290 4036 3290 3758 
z
" transform="scale(0.015625)"/>
     </defs>
     <use xlink:href="#CMMI12-c" transform="scale(0.996264)"/>
    </g>
   </g>
   <g id="text_5">
    <!-- $-$ -->
    <g transform="translate(158.648 188.665056) scale(0.16 -0.16)">
     <defs>
      <path id="CMSY10-0" d="M 4218 1472 
C 4326 1472 4442 1472 4442 1600 
C 4442 1728 4326 1728 4218 1728 
L 755 1728 
C 646 1728 531 1728 531 1600 
C 531 1472 646 1472 755 1472 
L 4218 1472 
z
" transform="scale(0.015625)"/>
     </defs>
     <use xlink:href="#CMSY10-0" transform="scale(0.996264)"/>
    </g>
   </g>
   <g id="text_6">
    <!-- $d$ -->
    <g transform="translate(264.392871 44.665056) scale(0.16 -0.16)">
     <defs>
      <path id="CMMI12-64" d="M 3219 4257 
C 3226 4282 3238 4320 3238 4352 
C 3238 4416 3174 4416 3162 4416 
C 3155 4416 2842 4388 2810 4380 
C 2701 4373 2605 4358 2490 4358 
C 2330 4345 2285 4339 2285 4224 
C 2285 4160 2336 4160 2426 4160 
C 2739 4160 2746 4103 2746 4040 
C 2746 4002 2733 3952 2726 3933 
L 2336 2395 
C 2266 2561 2093 2816 1760 2816 
C 1037 2816 256 1884 256 939 
C 256 307 627 -64 1062 -64 
C 1414 -64 1715 211 1894 422 
C 1958 45 2259 -64 2451 -64 
C 2643 -64 2797 51 2912 281 
C 3014 498 3104 888 3104 913 
C 3104 945 3078 971 3040 971 
C 2982 971 2976 939 2950 843 
C 2854 466 2733 64 2470 64 
C 2285 64 2272 229 2272 357 
C 2272 382 2272 515 2317 694 
L 3219 4257 
z
M 1926 760 
C 1894 651 1894 639 1805 517 
C 1664 338 1382 64 1082 64 
C 819 64 672 300 672 677 
C 672 1028 870 1743 992 2012 
C 1210 2459 1510 2689 1760 2689 
C 2182 2689 2266 2165 2266 2114 
C 2266 2108 2246 2024 2240 2012 
L 1926 760 
z
" transform="scale(0.015625)"/>
     </defs>
     <use xlink:href="#CMMI12-64" transform="scale(0.996264)"/>
    </g>
   </g>
   <g id="patch_13">
    <path d="M 23.648 151.38 
C 24.364048 151.38 25.050866 151.095511 25.557188 150.589188 
C 26.063511 150.082866 26.348 149.396048 26.348 148.68 
C 26.348 147.963952 26.063511 147.277134 25.557188 146.770812 
C 25.050866 146.264489 24.364048 145.98 23.648 145.98 
C 22.931952 145.98 22.245134 146.264489 21.738812 146.770812 
C 21.232489 147.277134 20.948 147.963952 20.948 148.68 
C 20.948 149.396048 21.232489 150.082866 21.738812 150.589188 
C 22.245134 151.095511 22.931952 151.38 23.648 151.38 
z
" clip-path="url(#p8d025e6f9e)" style="fill: #ffffff; stroke: #000000; stroke-width: 2; stroke-linejoin: miter"/>
   </g>
   <g id="text_7">
    <!-- $X(j \omega)$ -->
    <g transform="translate(1.652359 138.394944) scale(0.16 -0.16)">
     <defs>
      <path id="CMMI12-58" d="M 3040 2596 
L 2438 3994 
C 2522 4147 2714 4172 2790 4179 
C 2829 4179 2899 4179 2899 4292 
C 2899 4364 2842 4364 2803 4364 
C 2694 4364 2566 4364 2458 4364 
L 2086 4364 
C 1696 4364 1414 4364 1408 4364 
C 1357 4364 1293 4364 1293 4243 
C 1293 4179 1350 4179 1434 4179 
C 1805 4179 1830 4115 1894 3962 
L 2656 2185 
L 1267 693 
C 1037 442 762 198 288 198 
C 211 192 160 192 160 68 
C 160 48 166 0 237 0 
C 326 0 422 0 512 0 
L 813 0 
C 1018 0 1242 0 1440 0 
C 1485 0 1562 0 1562 115 
C 1562 179 1517 185 1478 185 
C 1350 198 1267 268 1267 370 
C 1267 479 1344 557 1530 748 
L 2099 1368 
C 2240 1516 2579 1886 2720 2026 
L 3392 453 
C 3398 441 3424 377 3424 370 
C 3424 313 3283 198 3078 198 
C 3040 198 2970 198 2970 71 
C 2970 0 3034 0 3066 0 
C 3174 0 3302 0 3411 0 
L 4115 0 
C 4230 0 4352 0 4461 0 
C 4506 0 4576 0 4576 130 
C 4576 198 4512 198 4454 198 
C 4070 198 4058 230 3949 465 
L 3104 2441 
L 3917 3316 
C 3981 3381 4128 3542 4186 3606 
C 4461 3896 4717 4160 5235 4160 
C 5299 4179 5363 4179 5363 4292 
C 5363 4364 5306 4364 5280 4364 
C 5190 4364 5094 4364 5005 4364 
L 4710 4364 
C 4506 4364 4282 4364 4083 4364 
C 4038 4364 3962 4364 3962 4249 
C 3962 4185 4006 4179 4045 4179 
C 4147 4167 4256 4116 4256 3994 
L 4250 3982 
C 4243 3937 4230 3873 4160 3797 
L 3040 2596 
z
" transform="scale(0.015625)"/>
     </defs>
     <use xlink:href="#CMMI12-58" transform="scale(0.996264)"/>
     <use xlink:href="#CMR17-28" transform="translate(88.792562 0) scale(0.996264)"/>
     <use xlink:href="#CMMI12-6a" transform="translate(124.07333 0) scale(0.996264)"/>
     <use xlink:href="#CMMI12-21" transform="translate(170.035812 0) scale(0.996264)"/>
     <use xlink:href="#CMR17-29" transform="translate(234.354158 0) scale(0.996264)"/>
    </g>
   </g>
   <g id="patch_14">
    <path d="M 599.648 151.38 
C 600.364048 151.38 601.050866 151.095511 601.557188 150.589188 
C 602.063511 150.082866 602.348 149.396048 602.348 148.68 
C 602.348 147.963952 602.063511 147.277134 601.557188 146.770812 
C 601.050866 146.264489 600.364048 145.98 599.648 145.98 
C 598.931952 145.98 598.245134 146.264489 597.738812 146.770812 
C 597.232489 147.277134 596.948 147.963952 596.948 148.68 
C 596.948 149.396048 597.232489 150.082866 597.738812 150.589188 
C 598.245134 151.095511 598.931952 151.38 599.648 151.38 
z
" clip-path="url(#p8d025e6f9e)" style="fill: #ffffff; stroke: #000000; stroke-width: 2; stroke-linejoin: miter"/>
   </g>
   <g id="text_8">
    <!-- $Y(j \omega)$ -->
    <g transform="translate(578.493656 138.394944) scale(0.16 -0.16)">
     <defs>
      <path id="CMMI12-59" d="M 3763 3645 
L 3910 3791 
C 4192 4078 4429 4149 4653 4167 
C 4723 4173 4781 4179 4781 4288 
C 4781 4352 4717 4352 4704 4352 
C 4627 4352 4544 4352 4467 4352 
L 4205 4352 
C 4019 4352 3821 4352 3642 4352 
C 3597 4352 3526 4352 3526 4226 
C 3526 4166 3590 4160 3610 4160 
C 3802 4160 3802 4064 3802 4026 
C 3802 3956 3750 3860 3622 3713 
L 2099 1969 
L 1376 3911 
C 1338 4000 1338 4013 1338 4026 
C 1338 4160 1600 4160 1677 4160 
C 1754 4160 1824 4160 1824 4279 
C 1824 4352 1766 4352 1728 4352 
C 1619 4352 1491 4352 1382 4352 
L 672 4352 
C 557 4352 435 4352 326 4352 
C 282 4352 211 4352 211 4226 
C 211 4160 269 4160 365 4160 
C 678 4160 736 4102 794 3956 
L 1587 1835 
C 1594 1816 1613 1745 1613 1726 
C 1613 1707 1299 452 1280 388 
C 1229 217 1165 185 755 185 
C 646 185 595 185 595 64 
C 595 0 666 0 685 0 
C 800 0 934 0 1056 0 
L 1811 0 
C 1926 0 2061 0 2176 0 
C 2221 0 2298 0 2298 115 
C 2298 185 2253 185 2144 185 
C 1747 185 1747 230 1747 300 
C 1747 345 1798 548 1830 676 
L 2061 1594 
C 2099 1727 2099 1739 2157 1803 
L 3763 3645 
z
" transform="scale(0.015625)"/>
     </defs>
     <use xlink:href="#CMMI12-59" transform="scale(0.996264)"/>
     <use xlink:href="#CMR17-28" transform="translate(78.276349 0) scale(0.996264)"/>
     <use xlink:href="#CMMI12-6a" transform="translate(113.557117 0) scale(0.996264)"/>
     <use xlink:href="#CMMI12-21" transform="translate(159.519599 0) scale(0.996264)"/>
     <use xlink:href="#CMR17-29" transform="translate(223.837945 0) scale(0.996264)"/>
    </g>
   </g>
  </g>
 </g>
 <defs>
  <clipPath id="p8d025e6f9e">
   <rect x="0" y="0" width="621.968" height="297.36"/>
  </clipPath>
 </defs>
</svg>
