<?xml version="1.0" encoding="utf-8" standalone="no"?>
<!DOCTYPE svg PUBLIC "-//W3C//DTD SVG 1.1//EN"
  "http://www.w3.org/Graphics/SVG/1.1/DTD/svg11.dtd">
<svg xmlns:xlink="http://www.w3.org/1999/xlink" width="611.767pt" height="474.126pt" viewBox="0 0 611.767 474.126" xmlns="http://www.w3.org/2000/svg" version="1.1">
 <metadata>
  <rdf:RDF xmlns:dc="http://purl.org/dc/elements/1.1/" xmlns:cc="http://creativecommons.org/ns#" xmlns:rdf="http://www.w3.org/1999/02/22-rdf-syntax-ns#">
   <cc:Work>
    <dc:type rdf:resource="http://purl.org/dc/dcmitype/StillImage"/>
    <dc:date>2025-05-25T15:15:14.829217</dc:date>
    <dc:format>image/svg+xml</dc:format>
    <dc:creator>
     <cc:Agent>
      <dc:title>Matplotlib v3.9.2, https://matplotlib.org/</dc:title>
     </cc:Agent>
    </dc:creator>
   </cc:Work>
  </rdf:RDF>
 </metadata>
 <defs>
  <style type="text/css">*{stroke-linejoin: round; stroke-linecap: butt}</style>
 </defs>
 <g id="figure_1">
  <g id="patch_1">
   <path d="M 0 474.126 
L 611.767 474.126 
L 611.767 0 
L 0 0 
L 0 474.126 
z
" style="fill: none"/>
  </g>
  <g id="axes_1">
   <g id="line2d_1">
    <path d="M 9.146 164.046 
L 36.146 164.046 
L 63.146 164.046 
" clip-path="url(#p36042ee7b3)" style="fill: none; stroke: #000000; stroke-width: 2; stroke-linecap: round"/>
   </g>
   <g id="line2d_2">
    <path d="M 63.146 164.046 
L 63.146 137.046 
L 63.146 110.046 
" clip-path="url(#p36042ee7b3)" style="fill: none; stroke: #000000; stroke-width: 2; stroke-linecap: round"/>
   </g>
   <g id="line2d_3">
    <path d="M 63.146 110.046 
L 81.146 110.046 
L 99.146 110.046 
" clip-path="url(#p36042ee7b3)" style="fill: none; stroke: #000000; stroke-width: 2; stroke-linecap: round"/>
   </g>
   <g id="line2d_4">
    <path d="M 132.146 140.046 
L 132.146 125.046 
L 117.146 125.046 
L 117.146 95.046 
L 132.146 95.046 
L 132.146 80.046 
" clip-path="url(#p36042ee7b3)" style="fill: none; stroke: #000000; stroke-width: 2; stroke-linecap: round"/>
   </g>
   <g id="line2d_5">
    <path d="M 126.146 95.046 
L 132.146 95.046 
" clip-path="url(#p36042ee7b3)" style="fill: none; stroke: #000000; stroke-width: 2; stroke-linecap: round"/>
   </g>
   <g id="patch_2">
    <path d="M 126.146 99.546 
L 117.146 95.046 
L 126.146 90.546 
z
" clip-path="url(#p36042ee7b3)"/>
   </g>
   <g id="line2d_6">
    <path d="M 114.146 122.046 
L 114.146 98.046 
" clip-path="url(#p36042ee7b3)" style="fill: none; stroke: #000000; stroke-width: 2; stroke-linecap: round"/>
   </g>
   <g id="line2d_7">
    <path d="M 99.146 110.046 
L 114.146 110.046 
" clip-path="url(#p36042ee7b3)" style="fill: none; stroke: #000000; stroke-width: 2; stroke-linecap: round"/>
   </g>
   <g id="line2d_8">
    <path d="M 132.146 80.046 
L 132.146 65.646 
" clip-path="url(#p36042ee7b3)" style="fill: none; stroke: #000000; stroke-width: 2; stroke-linecap: round"/>
   </g>
   <g id="line2d_9">
    <path d="M 132.146 65.646 
L 125.396 65.646 
" clip-path="url(#p36042ee7b3)" style="fill: none; stroke: #000000; stroke-width: 2; stroke-linecap: round"/>
   </g>
   <g id="line2d_10">
    <path d="M 132.146 65.646 
L 138.896 65.646 
" clip-path="url(#p36042ee7b3)" style="fill: none; stroke: #000000; stroke-width: 2; stroke-linecap: round"/>
   </g>
   <g id="line2d_11">
    <path d="M 63.146 164.046 
L 63.146 191.046 
L 63.146 218.046 
" clip-path="url(#p36042ee7b3)" style="fill: none; stroke: #000000; stroke-width: 2; stroke-linecap: round"/>
   </g>
   <g id="line2d_12">
    <path d="M 63.146 218.046 
L 81.146 218.046 
L 99.146 218.046 
" clip-path="url(#p36042ee7b3)" style="fill: none; stroke: #000000; stroke-width: 2; stroke-linecap: round"/>
   </g>
   <g id="line2d_13">
    <path d="M 132.146 248.046 
L 132.146 233.046 
L 117.146 233.046 
L 117.146 203.046 
L 132.146 203.046 
L 132.146 188.046 
" clip-path="url(#p36042ee7b3)" style="fill: none; stroke: #000000; stroke-width: 2; stroke-linecap: round"/>
   </g>
   <g id="line2d_14">
    <path d="M 123.146 233.046 
L 117.146 233.046 
" clip-path="url(#p36042ee7b3)" style="fill: none; stroke: #000000; stroke-width: 2; stroke-linecap: round"/>
   </g>
   <g id="patch_3">
    <path d="M 123.146 228.546 
L 132.146 233.046 
L 123.146 237.546 
z
" clip-path="url(#p36042ee7b3)"/>
   </g>
   <g id="line2d_15">
    <path d="M 114.146 230.046 
L 114.146 206.046 
" clip-path="url(#p36042ee7b3)" style="fill: none; stroke: #000000; stroke-width: 2; stroke-linecap: round"/>
   </g>
   <g id="line2d_16">
    <path d="M 99.146 218.046 
L 114.146 218.046 
" clip-path="url(#p36042ee7b3)" style="fill: none; stroke: #000000; stroke-width: 2; stroke-linecap: round"/>
   </g>
   <g id="line2d_17">
    <path d="M 132.146 248.046 
L 132.146 262.446 
L 123.146 262.446 
L 132.146 271.446 
L 141.146 262.446 
L 132.146 262.446 
" clip-path="url(#p36042ee7b3)" style="fill: none; stroke: #000000; stroke-width: 2; stroke-linecap: round"/>
   </g>
   <g id="line2d_18">
    <path d="M 132.146 188.046 
L 132.146 176.046 
L 132.146 164.046 
" clip-path="url(#p36042ee7b3)" style="fill: none; stroke: #000000; stroke-width: 2; stroke-linecap: round"/>
   </g>
   <g id="line2d_19">
    <path d="M 132.146 164.046 
L 132.146 152.046 
L 132.146 140.046 
" clip-path="url(#p36042ee7b3)" style="fill: none; stroke: #000000; stroke-width: 2; stroke-linecap: round"/>
   </g>
   <g id="line2d_20">
    <path d="M 132.146 164.046 
L 163.646 164.046 
L 195.146 164.046 
" clip-path="url(#p36042ee7b3)" style="fill: none; stroke: #000000; stroke-width: 2; stroke-linecap: round"/>
   </g>
   <g id="line2d_21">
    <path d="M 195.146 164.046 
L 213.146 164.046 
L 231.146 164.046 
" clip-path="url(#p36042ee7b3)" style="fill: none; stroke: #000000; stroke-width: 2; stroke-linecap: round"/>
   </g>
   <g id="line2d_22">
    <path d="M 264.146 194.046 
L 264.146 179.046 
L 249.146 179.046 
L 249.146 149.046 
L 264.146 149.046 
L 264.146 134.046 
" clip-path="url(#p36042ee7b3)" style="fill: none; stroke: #000000; stroke-width: 2; stroke-linecap: round"/>
   </g>
   <g id="line2d_23">
    <path d="M 255.146 179.046 
L 249.146 179.046 
" clip-path="url(#p36042ee7b3)" style="fill: none; stroke: #000000; stroke-width: 2; stroke-linecap: round"/>
   </g>
   <g id="patch_4">
    <path d="M 255.146 174.546 
L 264.146 179.046 
L 255.146 183.546 
z
" clip-path="url(#p36042ee7b3)"/>
   </g>
   <g id="line2d_24">
    <path d="M 246.146 176.046 
L 246.146 152.046 
" clip-path="url(#p36042ee7b3)" style="fill: none; stroke: #000000; stroke-width: 2; stroke-linecap: round"/>
   </g>
   <g id="line2d_25">
    <path d="M 231.146 164.046 
L 246.146 164.046 
" clip-path="url(#p36042ee7b3)" style="fill: none; stroke: #000000; stroke-width: 2; stroke-linecap: round"/>
   </g>
   <g id="line2d_26">
    <path d="M 264.146 194.046 
L 264.146 203.046 
L 264.146 212.046 
" clip-path="url(#p36042ee7b3)" style="fill: none; stroke: #000000; stroke-width: 2; stroke-linecap: round"/>
   </g>
   <g id="line2d_27">
    <path d="M 264.146 212.046 
L 291.146 212.046 
L 318.146 212.046 
" clip-path="url(#p36042ee7b3)" style="fill: none; stroke: #000000; stroke-width: 2; stroke-linecap: round"/>
   </g>
   <g id="line2d_28">
    <path d="M 318.146 212.046 
L 345.146 212.046 
L 372.146 212.046 
" clip-path="url(#p36042ee7b3)" style="fill: none; stroke: #000000; stroke-width: 2; stroke-linecap: round"/>
   </g>
   <g id="line2d_29">
    <path d="M 372.146 212.046 
L 372.146 203.046 
L 372.146 194.046 
" clip-path="url(#p36042ee7b3)" style="fill: none; stroke: #000000; stroke-width: 2; stroke-linecap: round"/>
   </g>
   <g id="line2d_30">
    <path d="M 372.146 134.046 
L 372.146 149.046 
L 387.146 149.046 
L 387.146 179.046 
L 372.146 179.046 
L 372.146 194.046 
" clip-path="url(#p36042ee7b3)" style="fill: none; stroke: #000000; stroke-width: 2; stroke-linecap: round"/>
   </g>
   <g id="line2d_31">
    <path d="M 387.146 179.046 
L 381.146 179.046 
" clip-path="url(#p36042ee7b3)" style="fill: none; stroke: #000000; stroke-width: 2; stroke-linecap: round"/>
   </g>
   <g id="patch_5">
    <path d="M 381.146 183.546 
L 372.146 179.046 
L 381.146 174.546 
z
" clip-path="url(#p36042ee7b3)"/>
   </g>
   <g id="line2d_32">
    <path d="M 390.146 152.046 
L 390.146 176.046 
" clip-path="url(#p36042ee7b3)" style="fill: none; stroke: #000000; stroke-width: 2; stroke-linecap: round"/>
   </g>
   <g id="line2d_33">
    <path d="M 390.146 164.046 
L 405.146 164.046 
" clip-path="url(#p36042ee7b3)" style="fill: none; stroke: #000000; stroke-width: 2; stroke-linecap: round"/>
   </g>
   <g id="line2d_34">
    <path d="M 318.146 212.046 
L 318.146 226.446 
L 309.146 226.446 
L 318.146 235.446 
L 327.146 226.446 
L 318.146 226.446 
" clip-path="url(#p36042ee7b3)" style="fill: none; stroke: #000000; stroke-width: 2; stroke-linecap: round"/>
   </g>
   <g id="line2d_35">
    <path d="M 264.146 134.046 
L 264.146 125.046 
L 264.146 116.046 
" clip-path="url(#p36042ee7b3)" style="fill: none; stroke: #000000; stroke-width: 2; stroke-linecap: round"/>
   </g>
   <g id="line2d_36">
    <path d="M 264.146 116.046 
L 264.146 107.046 
L 264.146 98.046 
" clip-path="url(#p36042ee7b3)" style="fill: none; stroke: #000000; stroke-width: 2; stroke-linecap: round"/>
   </g>
   <g id="line2d_37">
    <path d="M 264.146 38.046 
L 264.146 53.046 
L 279.146 53.046 
L 279.146 83.046 
L 264.146 83.046 
L 264.146 98.046 
" clip-path="url(#p36042ee7b3)" style="fill: none; stroke: #000000; stroke-width: 2; stroke-linecap: round"/>
   </g>
   <g id="line2d_38">
    <path d="M 264.146 53.046 
L 270.146 53.046 
" clip-path="url(#p36042ee7b3)" style="fill: none; stroke: #000000; stroke-width: 2; stroke-linecap: round"/>
   </g>
   <g id="patch_6">
    <path d="M 270.146 48.546 
L 279.146 53.046 
L 270.146 57.546 
z
" clip-path="url(#p36042ee7b3)"/>
   </g>
   <g id="line2d_39">
    <path d="M 282.146 56.046 
L 282.146 80.046 
" clip-path="url(#p36042ee7b3)" style="fill: none; stroke: #000000; stroke-width: 2; stroke-linecap: round"/>
   </g>
   <g id="line2d_40">
    <path d="M 282.146 68.046 
L 297.146 68.046 
" clip-path="url(#p36042ee7b3)" style="fill: none; stroke: #000000; stroke-width: 2; stroke-linecap: round"/>
   </g>
   <g id="line2d_41">
    <path d="M 264.146 38.046 
L 264.146 23.646 
" clip-path="url(#p36042ee7b3)" style="fill: none; stroke: #000000; stroke-width: 2; stroke-linecap: round"/>
   </g>
   <g id="line2d_42">
    <path d="M 264.146 23.646 
L 257.396 23.646 
" clip-path="url(#p36042ee7b3)" style="fill: none; stroke: #000000; stroke-width: 2; stroke-linecap: round"/>
   </g>
   <g id="line2d_43">
    <path d="M 264.146 23.646 
L 270.896 23.646 
" clip-path="url(#p36042ee7b3)" style="fill: none; stroke: #000000; stroke-width: 2; stroke-linecap: round"/>
   </g>
   <g id="line2d_44">
    <path d="M 372.146 134.046 
L 372.146 125.046 
L 372.146 116.046 
" clip-path="url(#p36042ee7b3)" style="fill: none; stroke: #000000; stroke-width: 2; stroke-linecap: round"/>
   </g>
   <g id="line2d_45">
    <path d="M 372.146 116.046 
L 372.146 107.046 
L 372.146 98.046 
" clip-path="url(#p36042ee7b3)" style="fill: none; stroke: #000000; stroke-width: 2; stroke-linecap: round"/>
   </g>
   <g id="line2d_46">
    <path d="M 372.146 98.046 
L 372.146 83.046 
L 357.146 83.046 
L 357.146 53.046 
L 372.146 53.046 
L 372.146 38.046 
" clip-path="url(#p36042ee7b3)" style="fill: none; stroke: #000000; stroke-width: 2; stroke-linecap: round"/>
   </g>
   <g id="line2d_47">
    <path d="M 366.146 53.046 
L 372.146 53.046 
" clip-path="url(#p36042ee7b3)" style="fill: none; stroke: #000000; stroke-width: 2; stroke-linecap: round"/>
   </g>
   <g id="patch_7">
    <path d="M 366.146 57.546 
L 357.146 53.046 
L 366.146 48.546 
z
" clip-path="url(#p36042ee7b3)"/>
   </g>
   <g id="line2d_48">
    <path d="M 354.146 80.046 
L 354.146 56.046 
" clip-path="url(#p36042ee7b3)" style="fill: none; stroke: #000000; stroke-width: 2; stroke-linecap: round"/>
   </g>
   <g id="line2d_49">
    <path d="M 339.146 68.046 
L 354.146 68.046 
" clip-path="url(#p36042ee7b3)" style="fill: none; stroke: #000000; stroke-width: 2; stroke-linecap: round"/>
   </g>
   <g id="line2d_50">
    <path d="M 372.146 38.046 
L 372.146 23.646 
" clip-path="url(#p36042ee7b3)" style="fill: none; stroke: #000000; stroke-width: 2; stroke-linecap: round"/>
   </g>
   <g id="line2d_51">
    <path d="M 372.146 23.646 
L 365.396 23.646 
" clip-path="url(#p36042ee7b3)" style="fill: none; stroke: #000000; stroke-width: 2; stroke-linecap: round"/>
   </g>
   <g id="line2d_52">
    <path d="M 372.146 23.646 
L 378.896 23.646 
" clip-path="url(#p36042ee7b3)" style="fill: none; stroke: #000000; stroke-width: 2; stroke-linecap: round"/>
   </g>
   <g id="line2d_53">
    <path d="M 264.146 116.046 
L 282.146 116.046 
L 300.146 116.046 
" clip-path="url(#p36042ee7b3)" style="fill: none; stroke: #000000; stroke-width: 2; stroke-linecap: round"/>
   </g>
   <g id="line2d_54">
    <path d="M 300.146 116.046 
L 319.646 92.046 
L 339.146 68.046 
" clip-path="url(#p36042ee7b3)" style="fill: none; stroke: #000000; stroke-width: 2; stroke-linecap: round"/>
   </g>
   <g id="line2d_55">
    <path d="M 372.146 116.046 
L 354.146 116.046 
L 336.146 116.046 
" clip-path="url(#p36042ee7b3)" style="fill: none; stroke: #000000; stroke-width: 2; stroke-linecap: round"/>
   </g>
   <g id="line2d_56">
    <path d="M 336.146 116.046 
L 316.646 92.046 
L 297.146 68.046 
" clip-path="url(#p36042ee7b3)" style="fill: none; stroke: #000000; stroke-width: 2; stroke-linecap: round"/>
   </g>
   <g id="line2d_57">
    <path d="M 372.146 116.046 
L 399.146 116.046 
L 426.146 116.046 
" clip-path="url(#p36042ee7b3)" style="fill: none; stroke: #000000; stroke-width: 2; stroke-linecap: round"/>
   </g>
   <g id="line2d_58">
    <path d="M 426.146 116.046 
L 453.146 116.046 
L 480.146 116.046 
" clip-path="url(#p36042ee7b3)" style="fill: none; stroke: #000000; stroke-width: 2; stroke-linecap: round"/>
   </g>
   <g id="line2d_59">
    <path d="M 480.146 116.046 
L 480.146 89.046 
L 480.146 62.046 
" clip-path="url(#p36042ee7b3)" style="fill: none; stroke: #000000; stroke-width: 2; stroke-linecap: round"/>
   </g>
   <g id="line2d_60">
    <path d="M 480.146 62.046 
L 498.146 62.046 
L 516.146 62.046 
" clip-path="url(#p36042ee7b3)" style="fill: none; stroke: #000000; stroke-width: 2; stroke-linecap: round"/>
   </g>
   <g id="line2d_61">
    <path d="M 549.146 92.046 
L 549.146 77.046 
L 534.146 77.046 
L 534.146 47.046 
L 549.146 47.046 
L 549.146 32.046 
" clip-path="url(#p36042ee7b3)" style="fill: none; stroke: #000000; stroke-width: 2; stroke-linecap: round"/>
   </g>
   <g id="line2d_62">
    <path d="M 543.146 47.046 
L 549.146 47.046 
" clip-path="url(#p36042ee7b3)" style="fill: none; stroke: #000000; stroke-width: 2; stroke-linecap: round"/>
   </g>
   <g id="patch_8">
    <path d="M 543.146 51.546 
L 534.146 47.046 
L 543.146 42.546 
z
" clip-path="url(#p36042ee7b3)"/>
   </g>
   <g id="line2d_63">
    <path d="M 531.146 74.046 
L 531.146 50.046 
" clip-path="url(#p36042ee7b3)" style="fill: none; stroke: #000000; stroke-width: 2; stroke-linecap: round"/>
   </g>
   <g id="line2d_64">
    <path d="M 516.146 62.046 
L 531.146 62.046 
" clip-path="url(#p36042ee7b3)" style="fill: none; stroke: #000000; stroke-width: 2; stroke-linecap: round"/>
   </g>
   <g id="line2d_65">
    <path d="M 549.146 32.046 
L 549.146 17.646 
" clip-path="url(#p36042ee7b3)" style="fill: none; stroke: #000000; stroke-width: 2; stroke-linecap: round"/>
   </g>
   <g id="line2d_66">
    <path d="M 549.146 17.646 
L 542.396 17.646 
" clip-path="url(#p36042ee7b3)" style="fill: none; stroke: #000000; stroke-width: 2; stroke-linecap: round"/>
   </g>
   <g id="line2d_67">
    <path d="M 549.146 17.646 
L 555.896 17.646 
" clip-path="url(#p36042ee7b3)" style="fill: none; stroke: #000000; stroke-width: 2; stroke-linecap: round"/>
   </g>
   <g id="line2d_68">
    <path d="M 480.146 116.046 
L 480.146 143.046 
L 480.146 170.046 
" clip-path="url(#p36042ee7b3)" style="fill: none; stroke: #000000; stroke-width: 2; stroke-linecap: round"/>
   </g>
   <g id="line2d_69">
    <path d="M 480.146 170.046 
L 498.146 170.046 
L 516.146 170.046 
" clip-path="url(#p36042ee7b3)" style="fill: none; stroke: #000000; stroke-width: 2; stroke-linecap: round"/>
   </g>
   <g id="line2d_70">
    <path d="M 549.146 200.046 
L 549.146 185.046 
L 534.146 185.046 
L 534.146 155.046 
L 549.146 155.046 
L 549.146 140.046 
" clip-path="url(#p36042ee7b3)" style="fill: none; stroke: #000000; stroke-width: 2; stroke-linecap: round"/>
   </g>
   <g id="line2d_71">
    <path d="M 540.146 185.046 
L 534.146 185.046 
" clip-path="url(#p36042ee7b3)" style="fill: none; stroke: #000000; stroke-width: 2; stroke-linecap: round"/>
   </g>
   <g id="patch_9">
    <path d="M 540.146 180.546 
L 549.146 185.046 
L 540.146 189.546 
z
" clip-path="url(#p36042ee7b3)"/>
   </g>
   <g id="line2d_72">
    <path d="M 531.146 182.046 
L 531.146 158.046 
" clip-path="url(#p36042ee7b3)" style="fill: none; stroke: #000000; stroke-width: 2; stroke-linecap: round"/>
   </g>
   <g id="line2d_73">
    <path d="M 516.146 170.046 
L 531.146 170.046 
" clip-path="url(#p36042ee7b3)" style="fill: none; stroke: #000000; stroke-width: 2; stroke-linecap: round"/>
   </g>
   <g id="line2d_74">
    <path d="M 549.146 200.046 
L 549.146 214.446 
L 540.146 214.446 
L 549.146 223.446 
L 558.146 214.446 
L 549.146 214.446 
" clip-path="url(#p36042ee7b3)" style="fill: none; stroke: #000000; stroke-width: 2; stroke-linecap: round"/>
   </g>
   <g id="line2d_75">
    <path d="M 549.146 140.046 
L 549.146 128.046 
L 549.146 116.046 
" clip-path="url(#p36042ee7b3)" style="fill: none; stroke: #000000; stroke-width: 2; stroke-linecap: round"/>
   </g>
   <g id="line2d_76">
    <path d="M 549.146 116.046 
L 549.146 104.046 
L 549.146 92.046 
" clip-path="url(#p36042ee7b3)" style="fill: none; stroke: #000000; stroke-width: 2; stroke-linecap: round"/>
   </g>
   <g id="line2d_77">
    <path d="M 549.146 116.046 
L 576.146 116.046 
L 603.146 116.046 
" clip-path="url(#p36042ee7b3)" style="fill: none; stroke: #000000; stroke-width: 2; stroke-linecap: round"/>
   </g>
   <g id="line2d_78">
    <path d="M 195.146 164.046 
L 195.146 263.046 
L 195.146 362.046 
" clip-path="url(#p36042ee7b3)" style="fill: none; stroke: #000000; stroke-width: 2; stroke-linecap: round"/>
   </g>
   <g id="line2d_79">
    <path d="M 195.146 362.046 
L 231.146 362.046 
L 267.146 362.046 
" clip-path="url(#p36042ee7b3)" style="fill: none; stroke: #000000; stroke-width: 2; stroke-linecap: round"/>
   </g>
   <g id="line2d_80">
    <path d="M 267.146 362.046 
L 267.146 335.046 
L 267.146 308.046 
" clip-path="url(#p36042ee7b3)" style="fill: none; stroke: #000000; stroke-width: 2; stroke-linecap: round"/>
   </g>
   <g id="line2d_81">
    <path d="M 267.146 308.046 
L 285.146 308.046 
L 303.146 308.046 
" clip-path="url(#p36042ee7b3)" style="fill: none; stroke: #000000; stroke-width: 2; stroke-linecap: round"/>
   </g>
   <g id="line2d_82">
    <path d="M 336.146 338.046 
L 336.146 323.046 
L 321.146 323.046 
L 321.146 293.046 
L 336.146 293.046 
L 336.146 278.046 
" clip-path="url(#p36042ee7b3)" style="fill: none; stroke: #000000; stroke-width: 2; stroke-linecap: round"/>
   </g>
   <g id="line2d_83">
    <path d="M 330.146 293.046 
L 336.146 293.046 
" clip-path="url(#p36042ee7b3)" style="fill: none; stroke: #000000; stroke-width: 2; stroke-linecap: round"/>
   </g>
   <g id="patch_10">
    <path d="M 330.146 297.546 
L 321.146 293.046 
L 330.146 288.546 
z
" clip-path="url(#p36042ee7b3)"/>
   </g>
   <g id="line2d_84">
    <path d="M 318.146 320.046 
L 318.146 296.046 
" clip-path="url(#p36042ee7b3)" style="fill: none; stroke: #000000; stroke-width: 2; stroke-linecap: round"/>
   </g>
   <g id="line2d_85">
    <path d="M 303.146 308.046 
L 318.146 308.046 
" clip-path="url(#p36042ee7b3)" style="fill: none; stroke: #000000; stroke-width: 2; stroke-linecap: round"/>
   </g>
   <g id="line2d_86">
    <path d="M 336.146 278.046 
L 336.146 263.646 
" clip-path="url(#p36042ee7b3)" style="fill: none; stroke: #000000; stroke-width: 2; stroke-linecap: round"/>
   </g>
   <g id="line2d_87">
    <path d="M 336.146 263.646 
L 329.396 263.646 
" clip-path="url(#p36042ee7b3)" style="fill: none; stroke: #000000; stroke-width: 2; stroke-linecap: round"/>
   </g>
   <g id="line2d_88">
    <path d="M 336.146 263.646 
L 342.896 263.646 
" clip-path="url(#p36042ee7b3)" style="fill: none; stroke: #000000; stroke-width: 2; stroke-linecap: round"/>
   </g>
   <g id="line2d_89">
    <path d="M 267.146 362.046 
L 267.146 389.046 
L 267.146 416.046 
" clip-path="url(#p36042ee7b3)" style="fill: none; stroke: #000000; stroke-width: 2; stroke-linecap: round"/>
   </g>
   <g id="line2d_90">
    <path d="M 267.146 416.046 
L 285.146 416.046 
L 303.146 416.046 
" clip-path="url(#p36042ee7b3)" style="fill: none; stroke: #000000; stroke-width: 2; stroke-linecap: round"/>
   </g>
   <g id="line2d_91">
    <path d="M 336.146 446.046 
L 336.146 431.046 
L 321.146 431.046 
L 321.146 401.046 
L 336.146 401.046 
L 336.146 386.046 
" clip-path="url(#p36042ee7b3)" style="fill: none; stroke: #000000; stroke-width: 2; stroke-linecap: round"/>
   </g>
   <g id="line2d_92">
    <path d="M 327.146 431.046 
L 321.146 431.046 
" clip-path="url(#p36042ee7b3)" style="fill: none; stroke: #000000; stroke-width: 2; stroke-linecap: round"/>
   </g>
   <g id="patch_11">
    <path d="M 327.146 426.546 
L 336.146 431.046 
L 327.146 435.546 
z
" clip-path="url(#p36042ee7b3)"/>
   </g>
   <g id="line2d_93">
    <path d="M 318.146 428.046 
L 318.146 404.046 
" clip-path="url(#p36042ee7b3)" style="fill: none; stroke: #000000; stroke-width: 2; stroke-linecap: round"/>
   </g>
   <g id="line2d_94">
    <path d="M 303.146 416.046 
L 318.146 416.046 
" clip-path="url(#p36042ee7b3)" style="fill: none; stroke: #000000; stroke-width: 2; stroke-linecap: round"/>
   </g>
   <g id="line2d_95">
    <path d="M 336.146 446.046 
L 336.146 460.446 
L 327.146 460.446 
L 336.146 469.446 
L 345.146 460.446 
L 336.146 460.446 
" clip-path="url(#p36042ee7b3)" style="fill: none; stroke: #000000; stroke-width: 2; stroke-linecap: round"/>
   </g>
   <g id="line2d_96">
    <path d="M 336.146 386.046 
L 336.146 374.046 
L 336.146 362.046 
" clip-path="url(#p36042ee7b3)" style="fill: none; stroke: #000000; stroke-width: 2; stroke-linecap: round"/>
   </g>
   <g id="line2d_97">
    <path d="M 336.146 362.046 
L 336.146 350.046 
L 336.146 338.046 
" clip-path="url(#p36042ee7b3)" style="fill: none; stroke: #000000; stroke-width: 2; stroke-linecap: round"/>
   </g>
   <g id="line2d_98">
    <path d="M 336.146 362.046 
L 381.146 362.046 
L 426.146 362.046 
" clip-path="url(#p36042ee7b3)" style="fill: none; stroke: #000000; stroke-width: 2; stroke-linecap: round"/>
   </g>
   <g id="line2d_99">
    <path d="M 426.146 362.046 
L 426.146 263.046 
L 426.146 164.046 
" clip-path="url(#p36042ee7b3)" style="fill: none; stroke: #000000; stroke-width: 2; stroke-linecap: round"/>
   </g>
   <g id="line2d_100">
    <path d="M 426.146 164.046 
L 415.646 164.046 
L 405.146 164.046 
" clip-path="url(#p36042ee7b3)" style="fill: none; stroke: #000000; stroke-width: 2; stroke-linecap: round"/>
   </g>
   <g id="patch_12">
    <path d="M 63.146 166.746 
C 63.862048 166.746 64.548866 166.461511 65.055188 165.955188 
C 65.561511 165.448866 65.846 164.762048 65.846 164.046 
C 65.846 163.329952 65.561511 162.643134 65.055188 162.136812 
C 64.548866 161.630489 63.862048 161.346 63.146 161.346 
C 62.429952 161.346 61.743134 161.630489 61.236812 162.136812 
C 60.730489 162.643134 60.446 163.329952 60.446 164.046 
C 60.446 164.762048 60.730489 165.448866 61.236812 165.955188 
C 61.743134 166.461511 62.429952 166.746 63.146 166.746 
z
" clip-path="url(#p36042ee7b3)" style="stroke: #000000; stroke-width: 2; stroke-linejoin: miter"/>
   </g>
   <g id="text_1">
    <!-- $M_{11} \\$3.0/0.5 -->
    <g transform="translate(138.416347 106.29341) scale(0.14 -0.14)">
     <defs>
      <path id="CMMI12-4d" d="M 5811 3886 
C 5869 4103 5882 4167 6336 4167 
C 6458 4167 6515 4167 6515 4288 
C 6515 4352 6470 4352 6349 4352 
L 5581 4352 
C 5421 4352 5414 4346 5344 4243 
L 3008 562 
L 2528 4211 
C 2509 4352 2502 4352 2336 4352 
L 1542 4352 
C 1421 4352 1363 4352 1363 4231 
C 1363 4167 1421 4167 1517 4167 
C 1907 4167 1907 4116 1907 4046 
C 1907 4034 1907 3995 1882 3899 
L 1062 634 
C 986 327 838 186 410 186 
C 390 186 314 186 314 73 
C 314 0 371 0 397 0 
C 525 0 851 0 979 0 
L 1286 0 
C 1376 0 1485 0 1574 0 
C 1619 0 1690 0 1690 122 
C 1690 180 1626 186 1600 186 
C 1389 186 1184 224 1184 454 
C 1184 518 1184 524 1210 613 
L 2093 4129 
L 2099 4129 
L 2630 172 
C 2650 19 2656 0 2714 0 
C 2784 0 2816 51 2848 109 
L 5421 4161 
L 5427 4161 
L 4499 473 
C 4442 250 4429 186 3981 186 
C 3859 186 3795 186 3795 70 
C 3795 0 3853 0 3891 0 
C 4000 0 4128 0 4237 0 
L 4992 0 
C 5101 0 5235 0 5344 0 
C 5395 0 5466 0 5466 122 
C 5466 186 5408 186 5312 186 
C 4922 186 4922 234 4922 294 
C 4922 301 4922 345 4934 396 
L 5811 3886 
z
" transform="scale(0.015625)"/>
      <path id="CMR17-31" d="M 1702 4058 
C 1702 4192 1696 4192 1606 4192 
C 1357 3916 979 3827 621 3827 
C 602 3827 570 3827 563 3808 
C 557 3795 557 3782 557 3648 
C 755 3648 1088 3686 1344 3839 
L 1344 461 
C 1344 236 1331 160 781 160 
L 589 160 
L 589 0 
C 896 0 1216 0 1523 0 
C 1830 0 2150 0 2458 0 
L 2458 160 
L 2266 160 
C 1715 160 1702 230 1702 458 
L 1702 4058 
z
" transform="scale(0.015625)"/>
      <path id="CMR17-33" d="M 1414 2157 
C 1984 2157 2234 1662 2234 1090 
C 2234 320 1824 25 1453 25 
C 1114 25 563 194 390 693 
C 422 680 454 680 486 680 
C 640 680 755 782 755 948 
C 755 1133 614 1216 486 1216 
C 378 1216 211 1165 211 926 
C 211 335 787 -128 1466 -128 
C 2176 -128 2720 430 2720 1085 
C 2720 1707 2208 2157 1600 2227 
C 2086 2328 2554 2756 2554 3329 
C 2554 3820 2048 4179 1472 4179 
C 890 4179 378 3829 378 3329 
C 378 3110 544 3072 627 3072 
C 762 3072 877 3155 877 3321 
C 877 3486 762 3569 627 3569 
C 602 3569 570 3569 544 3557 
C 730 3959 1235 4032 1459 4032 
C 1683 4032 2106 3925 2106 3320 
C 2106 3143 2080 2828 1862 2550 
C 1670 2304 1453 2304 1242 2284 
C 1210 2284 1062 2269 1037 2269 
C 992 2263 966 2257 966 2208 
C 966 2163 973 2157 1101 2157 
L 1414 2157 
z
" transform="scale(0.015625)"/>
      <path id="CMR17-2e" d="M 1062 261 
C 1062 420 934 522 800 522 
C 672 522 538 420 538 261 
C 538 102 666 0 800 0 
C 928 0 1062 102 1062 261 
z
" transform="scale(0.015625)"/>
      <path id="CMR17-30" d="M 2688 2025 
C 2688 2416 2682 3080 2413 3591 
C 2176 4039 1798 4198 1466 4198 
C 1158 4198 768 4058 525 3597 
C 269 3118 243 2524 243 2025 
C 243 1661 250 1106 448 619 
C 723 -39 1216 -128 1466 -128 
C 1760 -128 2208 -7 2470 600 
C 2662 1042 2688 1559 2688 2025 
z
M 1466 -26 
C 1056 -26 813 325 723 812 
C 653 1188 653 1738 653 2096 
C 653 2588 653 2997 736 3387 
C 858 3929 1216 4096 1466 4096 
C 1728 4096 2067 3923 2189 3400 
C 2272 3036 2278 2607 2278 2096 
C 2278 1680 2278 1169 2202 792 
C 2067 95 1690 -26 1466 -26 
z
" transform="scale(0.015625)"/>
      <path id="CMR17-2f" d="M 2605 4545 
C 2637 4627 2637 4640 2637 4653 
C 2637 4729 2579 4768 2528 4768 
C 2451 4768 2426 4717 2400 4640 
L 326 -1377 
C 294 -1460 294 -1473 294 -1486 
C 294 -1562 352 -1600 403 -1600 
C 480 -1600 506 -1549 531 -1473 
L 2605 4545 
z
" transform="scale(0.015625)"/>
      <path id="CMR17-35" d="M 730 3692 
C 794 3666 1056 3584 1325 3584 
C 1920 3584 2246 3911 2432 4100 
C 2432 4157 2432 4192 2394 4192 
C 2387 4192 2374 4192 2323 4163 
C 2099 4058 1837 3973 1517 3973 
C 1325 3973 1037 3999 723 4139 
C 653 4171 640 4171 634 4171 
C 602 4171 595 4164 595 4037 
L 595 2203 
C 595 2089 595 2057 659 2057 
C 691 2057 704 2070 736 2114 
C 941 2401 1222 2522 1542 2522 
C 1766 2522 2246 2382 2246 1289 
C 2246 1085 2246 715 2054 421 
C 1894 159 1645 25 1370 25 
C 947 25 518 320 403 814 
C 429 807 480 795 506 795 
C 589 795 749 840 749 1038 
C 749 1210 627 1280 506 1280 
C 358 1280 262 1190 262 1011 
C 262 454 704 -128 1382 -128 
C 2042 -128 2669 440 2669 1264 
C 2669 2030 2170 2624 1549 2624 
C 1222 2624 947 2503 730 2274 
L 730 3692 
z
" transform="scale(0.015625)"/>
     </defs>
     <use xlink:href="#CMMI12-4d" transform="translate(14.94396 0) scale(0.996264)"/>
     <use xlink:href="#CMR17-31" transform="translate(109.317385 -14.943915) scale(0.697382)"/>
     <use xlink:href="#CMR17-31" transform="translate(141.300567 -14.943915) scale(0.697382)"/>
     <use xlink:href="#CMR17-33" transform="translate(0 -90.570289) scale(0.996264)"/>
     <use xlink:href="#CMR17-2e" transform="translate(45.690477 -90.570289) scale(0.996264)"/>
     <use xlink:href="#CMR17-30" transform="translate(70.561536 -90.570289) scale(0.996264)"/>
     <use xlink:href="#CMR17-2f" transform="translate(116.252013 -90.570289) scale(0.996264)"/>
     <use xlink:href="#CMR17-30" transform="translate(161.94249 -90.570289) scale(0.996264)"/>
     <use xlink:href="#CMR17-2e" transform="translate(207.632967 -90.570289) scale(0.996264)"/>
     <use xlink:href="#CMR17-35" transform="translate(232.504025 -90.570289) scale(0.996264)"/>
    </g>
   </g>
   <g id="text_2">
    <!-- 3.3V -->
    <g transform="translate(118.30176 59.333972) scale(0.14 -0.14)">
     <defs>
      <path id="CMR17-56" d="M 3776 3745 
C 3834 3886 3936 4160 4365 4160 
L 4365 4332 
C 4218 4319 4051 4319 3891 4319 
C 3738 4319 3475 4319 3328 4332 
L 3328 4160 
C 3648 4160 3661 3936 3661 3898 
C 3661 3827 3642 3783 3622 3732 
L 2362 446 
L 1043 3886 
C 1024 3931 1011 3963 1011 3994 
C 1011 4160 1267 4160 1402 4160 
L 1402 4319 
C 1197 4319 896 4319 685 4319 
C 518 4319 218 4319 64 4332 
L 64 4160 
C 435 4160 506 4135 582 3931 
L 2106 -26 
C 2138 -115 2144 -128 2214 -128 
C 2285 -128 2291 -115 2323 -26 
L 3776 3745 
z
" transform="scale(0.015625)"/>
     </defs>
     <use xlink:href="#CMR17-33" transform="scale(0.996264)"/>
     <use xlink:href="#CMR17-2e" transform="translate(45.690477 0) scale(0.996264)"/>
     <use xlink:href="#CMR17-33" transform="translate(70.561536 0) scale(0.996264)"/>
     <use xlink:href="#CMR17-56" transform="translate(116.252013 0) scale(0.996264)"/>
    </g>
   </g>
   <g id="text_3">
    <!-- $M_{12} \\$1.0/0.5 -->
    <g transform="translate(138.416347 214.29341) scale(0.14 -0.14)">
     <defs>
      <path id="CMR17-32" d="M 2669 989 
L 2554 989 
C 2490 536 2438 459 2413 420 
C 2381 369 1920 369 1830 369 
L 602 369 
C 832 619 1280 1072 1824 1597 
C 2214 1967 2669 2402 2669 3035 
C 2669 3790 2067 4224 1395 4224 
C 691 4224 262 3604 262 3030 
C 262 2780 448 2748 525 2748 
C 589 2748 781 2787 781 3010 
C 781 3207 614 3264 525 3264 
C 486 3264 448 3258 422 3245 
C 544 3790 915 4058 1306 4058 
C 1862 4058 2227 3617 2227 3035 
C 2227 2479 1901 2000 1536 1584 
L 262 146 
L 262 0 
L 2515 0 
L 2669 989 
z
" transform="scale(0.015625)"/>
     </defs>
     <use xlink:href="#CMMI12-4d" transform="translate(14.94396 0) scale(0.996264)"/>
     <use xlink:href="#CMR17-31" transform="translate(109.317385 -14.943915) scale(0.697382)"/>
     <use xlink:href="#CMR17-32" transform="translate(141.300567 -14.943915) scale(0.697382)"/>
     <use xlink:href="#CMR17-31" transform="translate(0 -90.570289) scale(0.996264)"/>
     <use xlink:href="#CMR17-2e" transform="translate(45.690477 -90.570289) scale(0.996264)"/>
     <use xlink:href="#CMR17-30" transform="translate(70.561536 -90.570289) scale(0.996264)"/>
     <use xlink:href="#CMR17-2f" transform="translate(116.252013 -90.570289) scale(0.996264)"/>
     <use xlink:href="#CMR17-30" transform="translate(161.94249 -90.570289) scale(0.996264)"/>
     <use xlink:href="#CMR17-2e" transform="translate(207.632967 -90.570289) scale(0.996264)"/>
     <use xlink:href="#CMR17-35" transform="translate(232.504025 -90.570289) scale(0.996264)"/>
    </g>
   </g>
   <g id="patch_13">
    <path d="M 132.146 166.746 
C 132.862048 166.746 133.548866 166.461511 134.055188 165.955188 
C 134.561511 165.448866 134.846 164.762048 134.846 164.046 
C 134.846 163.329952 134.561511 162.643134 134.055188 162.136812 
C 133.548866 161.630489 132.862048 161.346 132.146 161.346 
C 131.429952 161.346 130.743134 161.630489 130.236812 162.136812 
C 129.730489 162.643134 129.446 163.329952 129.446 164.046 
C 129.446 164.762048 129.730489 165.448866 130.236812 165.955188 
C 130.743134 166.461511 131.429952 166.746 132.146 166.746 
z
" clip-path="url(#p36042ee7b3)" style="stroke: #000000; stroke-width: 2; stroke-linejoin: miter"/>
   </g>
   <g id="text_4">
    <!-- $M_{1} \\$10.0/$\\$0.13 -->
    <g transform="translate(273.572534 155.301023) scale(0.14 -0.14)">
     <use xlink:href="#CMMI12-4d" transform="translate(14.94396 0) scale(0.996264)"/>
     <use xlink:href="#CMR17-31" transform="translate(109.317385 -14.943915) scale(0.697382)"/>
     <use xlink:href="#CMR17-31" transform="translate(0 -90.570289) scale(0.996264)"/>
     <use xlink:href="#CMR17-30" transform="translate(45.690477 -90.570289) scale(0.996264)"/>
     <use xlink:href="#CMR17-2e" transform="translate(91.380954 -90.570289) scale(0.996264)"/>
     <use xlink:href="#CMR17-30" transform="translate(116.252013 -90.570289) scale(0.996264)"/>
     <use xlink:href="#CMR17-2f" transform="translate(161.94249 -90.570289) scale(0.996264)"/>
     <use xlink:href="#CMR17-30" transform="translate(0 -180.610127) scale(0.996264)"/>
     <use xlink:href="#CMR17-2e" transform="translate(45.690477 -180.610127) scale(0.996264)"/>
     <use xlink:href="#CMR17-31" transform="translate(70.561536 -180.610127) scale(0.996264)"/>
     <use xlink:href="#CMR17-33" transform="translate(116.252013 -180.610127) scale(0.996264)"/>
    </g>
   </g>
   <g id="patch_14">
    <path d="M 318.146 214.746 
C 318.862048 214.746 319.548866 214.461511 320.055188 213.955188 
C 320.561511 213.448866 320.846 212.762048 320.846 212.046 
C 320.846 211.329952 320.561511 210.643134 320.055188 210.136812 
C 319.548866 209.630489 318.862048 209.346 318.146 209.346 
C 317.429952 209.346 316.743134 209.630489 316.236812 210.136812 
C 315.730489 210.643134 315.446 211.329952 315.446 212.046 
C 315.446 212.762048 315.730489 213.448866 316.236812 213.955188 
C 316.743134 214.461511 317.429952 214.746 318.146 214.746 
z
" clip-path="url(#p36042ee7b3)" style="stroke: #000000; stroke-width: 2; stroke-linejoin: miter"/>
   </g>
   <g id="text_5">
    <!-- $M_{2} \\$10.0/$\\$0.13 -->
    <g transform="translate(335.372534 155.301023) scale(0.14 -0.14)">
     <use xlink:href="#CMMI12-4d" transform="translate(14.94396 0) scale(0.996264)"/>
     <use xlink:href="#CMR17-32" transform="translate(109.317385 -14.943915) scale(0.697382)"/>
     <use xlink:href="#CMR17-31" transform="translate(0 -90.570289) scale(0.996264)"/>
     <use xlink:href="#CMR17-30" transform="translate(45.690477 -90.570289) scale(0.996264)"/>
     <use xlink:href="#CMR17-2e" transform="translate(91.380954 -90.570289) scale(0.996264)"/>
     <use xlink:href="#CMR17-30" transform="translate(116.252013 -90.570289) scale(0.996264)"/>
     <use xlink:href="#CMR17-2f" transform="translate(161.94249 -90.570289) scale(0.996264)"/>
     <use xlink:href="#CMR17-30" transform="translate(0 -180.610127) scale(0.996264)"/>
     <use xlink:href="#CMR17-2e" transform="translate(45.690477 -180.610127) scale(0.996264)"/>
     <use xlink:href="#CMR17-31" transform="translate(70.561536 -180.610127) scale(0.996264)"/>
     <use xlink:href="#CMR17-33" transform="translate(116.252013 -180.610127) scale(0.996264)"/>
    </g>
   </g>
   <g id="patch_15">
    <path d="M 264.146 118.746 
C 264.862048 118.746 265.548866 118.461511 266.055188 117.955188 
C 266.561511 117.448866 266.846 116.762048 266.846 116.046 
C 266.846 115.329952 266.561511 114.643134 266.055188 114.136812 
C 265.548866 113.630489 264.862048 113.346 264.146 113.346 
C 263.429952 113.346 262.743134 113.630489 262.236812 114.136812 
C 261.730489 114.643134 261.446 115.329952 261.446 116.046 
C 261.446 116.762048 261.730489 117.448866 262.236812 117.955188 
C 262.743134 118.461511 263.429952 118.746 264.146 118.746 
z
" clip-path="url(#p36042ee7b3)" style="stroke: #000000; stroke-width: 2; stroke-linejoin: miter"/>
   </g>
   <g id="text_6">
    <!-- $M_{3} \\$3.0/0.13 -->
    <g transform="translate(211.987859 64.29341) scale(0.14 -0.14)">
     <use xlink:href="#CMMI12-4d" transform="translate(14.94396 0) scale(0.996264)"/>
     <use xlink:href="#CMR17-33" transform="translate(109.317385 -14.943915) scale(0.697382)"/>
     <use xlink:href="#CMR17-33" transform="translate(0 -90.570289) scale(0.996264)"/>
     <use xlink:href="#CMR17-2e" transform="translate(45.690477 -90.570289) scale(0.996264)"/>
     <use xlink:href="#CMR17-30" transform="translate(70.561536 -90.570289) scale(0.996264)"/>
     <use xlink:href="#CMR17-2f" transform="translate(116.252013 -90.570289) scale(0.996264)"/>
     <use xlink:href="#CMR17-30" transform="translate(161.94249 -90.570289) scale(0.996264)"/>
     <use xlink:href="#CMR17-2e" transform="translate(207.632967 -90.570289) scale(0.996264)"/>
     <use xlink:href="#CMR17-31" transform="translate(232.504025 -90.570289) scale(0.996264)"/>
     <use xlink:href="#CMR17-33" transform="translate(278.194503 -90.570289) scale(0.996264)"/>
    </g>
   </g>
   <g id="text_7">
    <!-- 1.5V -->
    <g transform="translate(250.30176 17.333972) scale(0.14 -0.14)">
     <use xlink:href="#CMR17-31" transform="scale(0.996264)"/>
     <use xlink:href="#CMR17-2e" transform="translate(45.690477 0) scale(0.996264)"/>
     <use xlink:href="#CMR17-35" transform="translate(70.561536 0) scale(0.996264)"/>
     <use xlink:href="#CMR17-56" transform="translate(116.252013 0) scale(0.996264)"/>
    </g>
   </g>
   <g id="patch_16">
    <path d="M 372.146 118.746 
C 372.862048 118.746 373.548866 118.461511 374.055188 117.955188 
C 374.561511 117.448866 374.846 116.762048 374.846 116.046 
C 374.846 115.329952 374.561511 114.643134 374.055188 114.136812 
C 373.548866 113.630489 372.862048 113.346 372.146 113.346 
C 371.429952 113.346 370.743134 113.630489 370.236812 114.136812 
C 369.730489 114.643134 369.446 115.329952 369.446 116.046 
C 369.446 116.762048 369.730489 117.448866 370.236812 117.955188 
C 370.743134 118.461511 371.429952 118.746 372.146 118.746 
z
" clip-path="url(#p36042ee7b3)" style="stroke: #000000; stroke-width: 2; stroke-linejoin: miter"/>
   </g>
   <g id="text_8">
    <!-- $M_{4} \\$3.0/0.13 -->
    <g transform="translate(376.987859 64.29341) scale(0.14 -0.14)">
     <defs>
      <path id="CMR17-34" d="M 2150 4122 
C 2150 4256 2144 4256 2029 4256 
L 128 1254 
L 128 1088 
L 1779 1088 
L 1779 457 
C 1779 224 1766 160 1318 160 
L 1197 160 
L 1197 0 
C 1402 0 1747 0 1965 0 
C 2182 0 2528 0 2733 0 
L 2733 160 
L 2611 160 
C 2163 160 2150 224 2150 457 
L 2150 1088 
L 2803 1088 
L 2803 1254 
L 2150 1254 
L 2150 4122 
z
M 1798 3703 
L 1798 1254 
L 256 1254 
L 1798 3703 
z
" transform="scale(0.015625)"/>
     </defs>
     <use xlink:href="#CMMI12-4d" transform="translate(14.94396 0) scale(0.996264)"/>
     <use xlink:href="#CMR17-34" transform="translate(109.317385 -14.943915) scale(0.697382)"/>
     <use xlink:href="#CMR17-33" transform="translate(0 -90.570289) scale(0.996264)"/>
     <use xlink:href="#CMR17-2e" transform="translate(45.690477 -90.570289) scale(0.996264)"/>
     <use xlink:href="#CMR17-30" transform="translate(70.561536 -90.570289) scale(0.996264)"/>
     <use xlink:href="#CMR17-2f" transform="translate(116.252013 -90.570289) scale(0.996264)"/>
     <use xlink:href="#CMR17-30" transform="translate(161.94249 -90.570289) scale(0.996264)"/>
     <use xlink:href="#CMR17-2e" transform="translate(207.632967 -90.570289) scale(0.996264)"/>
     <use xlink:href="#CMR17-31" transform="translate(232.504025 -90.570289) scale(0.996264)"/>
     <use xlink:href="#CMR17-33" transform="translate(278.194503 -90.570289) scale(0.996264)"/>
    </g>
   </g>
   <g id="text_9">
    <!-- 1.5V -->
    <g transform="translate(358.30176 17.333972) scale(0.14 -0.14)">
     <use xlink:href="#CMR17-31" transform="scale(0.996264)"/>
     <use xlink:href="#CMR17-2e" transform="translate(45.690477 0) scale(0.996264)"/>
     <use xlink:href="#CMR17-35" transform="translate(70.561536 0) scale(0.996264)"/>
     <use xlink:href="#CMR17-56" transform="translate(116.252013 0) scale(0.996264)"/>
    </g>
   </g>
   <g id="patch_17">
    <path d="M 480.146 118.746 
C 480.862048 118.746 481.548866 118.461511 482.055188 117.955188 
C 482.561511 117.448866 482.846 116.762048 482.846 116.046 
C 482.846 115.329952 482.561511 114.643134 482.055188 114.136812 
C 481.548866 113.630489 480.862048 113.346 480.146 113.346 
C 479.429952 113.346 478.743134 113.630489 478.236812 114.136812 
C 477.730489 114.643134 477.446 115.329952 477.446 116.046 
C 477.446 116.762048 477.730489 117.448866 478.236812 117.955188 
C 478.743134 118.461511 479.429952 118.746 480.146 118.746 
z
" clip-path="url(#p36042ee7b3)" style="stroke: #000000; stroke-width: 2; stroke-linejoin: miter"/>
   </g>
   <g id="text_10">
    <!-- $M_{31} \\$3.0/0.13 -->
    <g transform="translate(553.987859 58.29341) scale(0.14 -0.14)">
     <use xlink:href="#CMMI12-4d" transform="translate(14.94396 0) scale(0.996264)"/>
     <use xlink:href="#CMR17-33" transform="translate(109.317385 -14.943915) scale(0.697382)"/>
     <use xlink:href="#CMR17-31" transform="translate(141.300567 -14.943915) scale(0.697382)"/>
     <use xlink:href="#CMR17-33" transform="translate(0 -90.570289) scale(0.996264)"/>
     <use xlink:href="#CMR17-2e" transform="translate(45.690477 -90.570289) scale(0.996264)"/>
     <use xlink:href="#CMR17-30" transform="translate(70.561536 -90.570289) scale(0.996264)"/>
     <use xlink:href="#CMR17-2f" transform="translate(116.252013 -90.570289) scale(0.996264)"/>
     <use xlink:href="#CMR17-30" transform="translate(161.94249 -90.570289) scale(0.996264)"/>
     <use xlink:href="#CMR17-2e" transform="translate(207.632967 -90.570289) scale(0.996264)"/>
     <use xlink:href="#CMR17-31" transform="translate(232.504025 -90.570289) scale(0.996264)"/>
     <use xlink:href="#CMR17-33" transform="translate(278.194503 -90.570289) scale(0.996264)"/>
    </g>
   </g>
   <g id="text_11">
    <!-- 1.5V -->
    <g transform="translate(535.30176 11.333972) scale(0.14 -0.14)">
     <use xlink:href="#CMR17-31" transform="scale(0.996264)"/>
     <use xlink:href="#CMR17-2e" transform="translate(45.690477 0) scale(0.996264)"/>
     <use xlink:href="#CMR17-35" transform="translate(70.561536 0) scale(0.996264)"/>
     <use xlink:href="#CMR17-56" transform="translate(116.252013 0) scale(0.996264)"/>
    </g>
   </g>
   <g id="text_12">
    <!-- $M_{32} \\$1.0/0.13 -->
    <g transform="translate(553.987859 166.29341) scale(0.14 -0.14)">
     <use xlink:href="#CMMI12-4d" transform="translate(14.94396 0) scale(0.996264)"/>
     <use xlink:href="#CMR17-33" transform="translate(109.317385 -14.943915) scale(0.697382)"/>
     <use xlink:href="#CMR17-32" transform="translate(141.300567 -14.943915) scale(0.697382)"/>
     <use xlink:href="#CMR17-31" transform="translate(0 -90.570289) scale(0.996264)"/>
     <use xlink:href="#CMR17-2e" transform="translate(45.690477 -90.570289) scale(0.996264)"/>
     <use xlink:href="#CMR17-30" transform="translate(70.561536 -90.570289) scale(0.996264)"/>
     <use xlink:href="#CMR17-2f" transform="translate(116.252013 -90.570289) scale(0.996264)"/>
     <use xlink:href="#CMR17-30" transform="translate(161.94249 -90.570289) scale(0.996264)"/>
     <use xlink:href="#CMR17-2e" transform="translate(207.632967 -90.570289) scale(0.996264)"/>
     <use xlink:href="#CMR17-31" transform="translate(232.504025 -90.570289) scale(0.996264)"/>
     <use xlink:href="#CMR17-33" transform="translate(278.194503 -90.570289) scale(0.996264)"/>
    </g>
   </g>
   <g id="patch_18">
    <path d="M 549.146 118.746 
C 549.862048 118.746 550.548866 118.461511 551.055188 117.955188 
C 551.561511 117.448866 551.846 116.762048 551.846 116.046 
C 551.846 115.329952 551.561511 114.643134 551.055188 114.136812 
C 550.548866 113.630489 549.862048 113.346 549.146 113.346 
C 548.429952 113.346 547.743134 113.630489 547.236812 114.136812 
C 546.730489 114.643134 546.446 115.329952 546.446 116.046 
C 546.446 116.762048 546.730489 117.448866 547.236812 117.955188 
C 547.743134 118.461511 548.429952 118.746 549.146 118.746 
z
" clip-path="url(#p36042ee7b3)" style="stroke: #000000; stroke-width: 2; stroke-linejoin: miter"/>
   </g>
   <g id="patch_19">
    <path d="M 267.146 364.746 
C 267.862048 364.746 268.548866 364.461511 269.055188 363.955188 
C 269.561511 363.448866 269.846 362.762048 269.846 362.046 
C 269.846 361.329952 269.561511 360.643134 269.055188 360.136812 
C 268.548866 359.630489 267.862048 359.346 267.146 359.346 
C 266.429952 359.346 265.743134 359.630489 265.236812 360.136812 
C 264.730489 360.643134 264.446 361.329952 264.446 362.046 
C 264.446 362.762048 264.730489 363.448866 265.236812 363.955188 
C 265.743134 364.461511 266.429952 364.746 267.146 364.746 
z
" clip-path="url(#p36042ee7b3)" style="stroke: #000000; stroke-width: 2; stroke-linejoin: miter"/>
   </g>
   <g id="text_13">
    <!-- $M_{21} \\$3.0/0.5 -->
    <g transform="translate(342.416347 304.29341) scale(0.14 -0.14)">
     <use xlink:href="#CMMI12-4d" transform="translate(14.94396 0) scale(0.996264)"/>
     <use xlink:href="#CMR17-32" transform="translate(109.317385 -14.943915) scale(0.697382)"/>
     <use xlink:href="#CMR17-31" transform="translate(141.300567 -14.943915) scale(0.697382)"/>
     <use xlink:href="#CMR17-33" transform="translate(0 -90.570289) scale(0.996264)"/>
     <use xlink:href="#CMR17-2e" transform="translate(45.690477 -90.570289) scale(0.996264)"/>
     <use xlink:href="#CMR17-30" transform="translate(70.561536 -90.570289) scale(0.996264)"/>
     <use xlink:href="#CMR17-2f" transform="translate(116.252013 -90.570289) scale(0.996264)"/>
     <use xlink:href="#CMR17-30" transform="translate(161.94249 -90.570289) scale(0.996264)"/>
     <use xlink:href="#CMR17-2e" transform="translate(207.632967 -90.570289) scale(0.996264)"/>
     <use xlink:href="#CMR17-35" transform="translate(232.504025 -90.570289) scale(0.996264)"/>
    </g>
   </g>
   <g id="text_14">
    <!-- 3.3V -->
    <g transform="translate(322.30176 257.333972) scale(0.14 -0.14)">
     <use xlink:href="#CMR17-33" transform="scale(0.996264)"/>
     <use xlink:href="#CMR17-2e" transform="translate(45.690477 0) scale(0.996264)"/>
     <use xlink:href="#CMR17-33" transform="translate(70.561536 0) scale(0.996264)"/>
     <use xlink:href="#CMR17-56" transform="translate(116.252013 0) scale(0.996264)"/>
    </g>
   </g>
   <g id="text_15">
    <!-- $M_{22} \\$1.0/0.5 -->
    <g transform="translate(342.416347 412.29341) scale(0.14 -0.14)">
     <use xlink:href="#CMMI12-4d" transform="translate(14.94396 0) scale(0.996264)"/>
     <use xlink:href="#CMR17-32" transform="translate(109.317385 -14.943915) scale(0.697382)"/>
     <use xlink:href="#CMR17-32" transform="translate(141.300567 -14.943915) scale(0.697382)"/>
     <use xlink:href="#CMR17-31" transform="translate(0 -90.570289) scale(0.996264)"/>
     <use xlink:href="#CMR17-2e" transform="translate(45.690477 -90.570289) scale(0.996264)"/>
     <use xlink:href="#CMR17-30" transform="translate(70.561536 -90.570289) scale(0.996264)"/>
     <use xlink:href="#CMR17-2f" transform="translate(116.252013 -90.570289) scale(0.996264)"/>
     <use xlink:href="#CMR17-30" transform="translate(161.94249 -90.570289) scale(0.996264)"/>
     <use xlink:href="#CMR17-2e" transform="translate(207.632967 -90.570289) scale(0.996264)"/>
     <use xlink:href="#CMR17-35" transform="translate(232.504025 -90.570289) scale(0.996264)"/>
    </g>
   </g>
   <g id="patch_20">
    <path d="M 336.146 364.746 
C 336.862048 364.746 337.548866 364.461511 338.055188 363.955188 
C 338.561511 363.448866 338.846 362.762048 338.846 362.046 
C 338.846 361.329952 338.561511 360.643134 338.055188 360.136812 
C 337.548866 359.630489 336.862048 359.346 336.146 359.346 
C 335.429952 359.346 334.743134 359.630489 334.236812 360.136812 
C 333.730489 360.643134 333.446 361.329952 333.446 362.046 
C 333.446 362.762048 333.730489 363.448866 334.236812 363.955188 
C 334.743134 364.461511 335.429952 364.746 336.146 364.746 
z
" clip-path="url(#p36042ee7b3)" style="stroke: #000000; stroke-width: 2; stroke-linejoin: miter"/>
   </g>
   <g id="patch_21">
    <path d="M 9.146 166.746 
C 9.862048 166.746 10.548866 166.461511 11.055188 165.955188 
C 11.561511 165.448866 11.846 164.762048 11.846 164.046 
C 11.846 163.329952 11.561511 162.643134 11.055188 162.136812 
C 10.548866 161.630489 9.862048 161.346 9.146 161.346 
C 8.429952 161.346 7.743134 161.630489 7.236812 162.136812 
C 6.730489 162.643134 6.446 163.329952 6.446 164.046 
C 6.446 164.762048 6.730489 165.448866 7.236812 165.955188 
C 7.743134 166.461511 8.429952 166.746 9.146 166.746 
z
" clip-path="url(#p36042ee7b3)" style="fill: #ffffff; stroke: #000000; stroke-width: 2; stroke-linejoin: miter"/>
   </g>
   <g id="text_16">
    <!-- $A$ -->
    <g transform="translate(4.027051 155.033972) scale(0.14 -0.14)">
     <defs>
      <path id="CMMI12-41" d="M 1088 691 
C 864 314 646 186 339 186 
C 269 180 218 180 218 58 
C 218 24 250 0 294 0 
C 410 0 698 0 813 0 
C 998 0 1203 0 1382 0 
C 1421 0 1498 0 1498 122 
C 1498 180 1446 186 1408 186 
C 1261 186 1139 236 1139 388 
C 1139 476 1178 546 1261 685 
L 1747 1479 
L 3379 1479 
C 3386 1423 3386 1373 3392 1316 
C 3411 1152 3488 495 3488 376 
C 3488 186 3162 186 3059 186 
C 2989 186 2918 186 2918 70 
C 2918 0 2976 0 3014 0 
C 3123 0 3251 0 3360 0 
L 3725 0 
C 4115 0 4397 0 4403 0 
C 4448 0 4518 0 4518 122 
C 4518 186 4461 186 4365 186 
C 4013 186 4006 244 3987 434 
L 3597 4404 
C 3584 4531 3558 4544 3488 4544 
C 3424 4544 3386 4531 3328 4435 
L 1088 691 
z
M 1856 1664 
L 3142 3819 
L 3360 1664 
L 1856 1664 
z
" transform="scale(0.015625)"/>
     </defs>
     <use xlink:href="#CMMI12-41" transform="scale(0.996264)"/>
    </g>
   </g>
   <g id="patch_22">
    <path d="M 195.146 166.746 
C 195.862048 166.746 196.548866 166.461511 197.055188 165.955188 
C 197.561511 165.448866 197.846 164.762048 197.846 164.046 
C 197.846 163.329952 197.561511 162.643134 197.055188 162.136812 
C 196.548866 161.630489 195.862048 161.346 195.146 161.346 
C 194.429952 161.346 193.743134 161.630489 193.236812 162.136812 
C 192.730489 162.643134 192.446 163.329952 192.446 164.046 
C 192.446 164.762048 192.730489 165.448866 193.236812 165.955188 
C 193.743134 166.461511 194.429952 166.746 195.146 166.746 
z
" clip-path="url(#p36042ee7b3)" style="stroke: #000000; stroke-width: 2; stroke-linejoin: miter"/>
   </g>
   <g id="text_17">
    <!-- $\overline{A}$ -->
    <g transform="translate(190.027051 155.033972) scale(0.14 -0.14)">
     <use xlink:href="#CMMI12-41" transform="scale(0.996264)"/>
     <path d="M 0 80.032884 
L 73.127885 80.032884 
L 73.127885 84.017834 
L 0 84.017834 
L 0 80.032884 
z
"/>
    </g>
   </g>
   <g id="patch_23">
    <path d="M 426.146 118.746 
C 426.862048 118.746 427.548866 118.461511 428.055188 117.955188 
C 428.561511 117.448866 428.846 116.762048 428.846 116.046 
C 428.846 115.329952 428.561511 114.643134 428.055188 114.136812 
C 427.548866 113.630489 426.862048 113.346 426.146 113.346 
C 425.429952 113.346 424.743134 113.630489 424.236812 114.136812 
C 423.730489 114.643134 423.446 115.329952 423.446 116.046 
C 423.446 116.762048 423.730489 117.448866 424.236812 117.955188 
C 424.743134 118.461511 425.429952 118.746 426.146 118.746 
z
" clip-path="url(#p36042ee7b3)" style="fill: #ffffff; stroke: #000000; stroke-width: 2; stroke-linejoin: miter"/>
   </g>
   <g id="text_18">
    <!-- $T$ -->
    <g transform="translate(422.143751 107.033972) scale(0.14 -0.14)">
     <defs>
      <path id="CMMI12-54" d="M 2669 3910 
C 2707 4064 2720 4121 2816 4147 
C 2867 4160 3078 4160 3213 4160 
C 3853 4160 4154 4134 4154 3634 
C 4154 3537 4128 3295 4090 3057 
L 4083 2980 
C 4083 2954 4109 2916 4147 2916 
C 4211 2916 4211 2948 4230 3050 
L 4416 4184 
C 4429 4243 4429 4256 4429 4275 
C 4429 4345 4390 4345 4262 4345 
L 762 4345 
C 614 4345 608 4339 570 4224 
L 179 3070 
C 173 3056 154 2986 154 2980 
C 154 2948 179 2916 218 2916 
C 269 2916 282 2941 307 3024 
C 576 3801 710 4160 1562 4160 
L 1990 4160 
C 2144 4160 2208 4160 2208 4089 
C 2208 4069 2208 4057 2176 3941 
L 1318 499 
C 1254 249 1242 185 563 185 
C 403 185 358 185 358 64 
C 358 0 429 0 461 0 
C 621 0 787 0 947 0 
L 1946 0 
C 2106 0 2278 0 2438 0 
C 2509 0 2573 0 2573 121 
C 2573 185 2528 185 2362 185 
C 1786 185 1786 243 1786 339 
C 1786 346 1786 391 1811 494 
L 2669 3910 
z
" transform="scale(0.015625)"/>
     </defs>
     <use xlink:href="#CMMI12-54" transform="scale(0.996264)"/>
    </g>
   </g>
   <g id="patch_24">
    <path d="M 603.146 118.746 
C 603.862048 118.746 604.548866 118.461511 605.055188 117.955188 
C 605.561511 117.448866 605.846 116.762048 605.846 116.046 
C 605.846 115.329952 605.561511 114.643134 605.055188 114.136812 
C 604.548866 113.630489 603.862048 113.346 603.146 113.346 
C 602.429952 113.346 601.743134 113.630489 601.236812 114.136812 
C 600.730489 114.643134 600.446 115.329952 600.446 116.046 
C 600.446 116.762048 600.730489 117.448866 601.236812 117.955188 
C 601.743134 118.461511 602.429952 118.746 603.146 118.746 
z
" clip-path="url(#p36042ee7b3)" style="fill: #ffffff; stroke: #000000; stroke-width: 2; stroke-linejoin: miter"/>
   </g>
   <g id="text_19">
    <!-- $B$ -->
    <g transform="translate(597.958445 107.033972) scale(0.14 -0.14)">
     <defs>
      <path id="CMMI12-42" d="M 2342 3921 
C 2400 4160 2426 4160 2675 4160 
L 3507 4160 
C 4230 4160 4230 3544 4230 3485 
C 4230 2966 3712 2304 2867 2304 
L 1946 2304 
L 2342 3921 
z
M 3424 2275 
C 4122 2402 4755 2886 4755 3473 
C 4755 3970 4314 4352 3590 4352 
L 1536 4352 
C 1414 4352 1357 4352 1357 4226 
C 1357 4160 1414 4160 1510 4160 
C 1901 4160 1901 4112 1901 4044 
C 1901 4032 1901 3993 1875 3897 
L 1011 472 
C 954 249 941 185 493 185 
C 371 185 307 185 307 70 
C 307 0 346 0 474 0 
L 2669 0 
C 3648 0 4403 739 4403 1383 
C 4403 1906 3942 2224 3424 2275 
z
M 2515 185 
L 1651 185 
C 1562 185 1549 185 1510 192 
C 1440 198 1434 211 1434 261 
C 1434 305 1446 343 1459 399 
L 1907 2176 
L 3110 2176 
C 3866 2176 3866 1483 3866 1433 
C 3866 828 3309 185 2515 185 
z
" transform="scale(0.015625)"/>
     </defs>
     <use xlink:href="#CMMI12-42" transform="scale(0.996264)"/>
    </g>
   </g>
  </g>
 </g>
 <defs>
  <clipPath id="p36042ee7b3">
   <rect x="0" y="-0" width="611.767" height="474.126"/>
  </clipPath>
 </defs>
</svg>
