<?xml version="1.0" encoding="utf-8" standalone="no"?>
<!DOCTYPE svg PUBLIC "-//W3C//DTD SVG 1.1//EN"
  "http://www.w3.org/Graphics/SVG/1.1/DTD/svg11.dtd">
<svg xmlns:xlink="http://www.w3.org/1999/xlink" width="603.968pt" height="480.432pt" viewBox="0 0 603.968 480.432" xmlns="http://www.w3.org/2000/svg" version="1.1">
 <metadata>
  <rdf:RDF xmlns:dc="http://purl.org/dc/elements/1.1/" xmlns:cc="http://creativecommons.org/ns#" xmlns:rdf="http://www.w3.org/1999/02/22-rdf-syntax-ns#">
   <cc:Work>
    <dc:type rdf:resource="http://purl.org/dc/dcmitype/StillImage"/>
    <dc:date>2025-05-25T15:15:11.635693</dc:date>
    <dc:format>image/svg+xml</dc:format>
    <dc:creator>
     <cc:Agent>
      <dc:title>Matplotlib v3.9.2, https://matplotlib.org/</dc:title>
     </cc:Agent>
    </dc:creator>
   </cc:Work>
  </rdf:RDF>
 </metadata>
 <defs>
  <style type="text/css">*{stroke-linejoin: round; stroke-linecap: butt}</style>
 </defs>
 <g id="figure_1">
  <g id="patch_1">
   <path d="M 0 480.432 
L 603.968 480.432 
L 603.968 0 
L 0 0 
L 0 480.432 
z
" style="fill: none"/>
  </g>
  <g id="axes_1">
   <g id="line2d_1">
    <path d="M 9.784 170.352 
L 36.784 170.352 
L 63.784 170.352 
" clip-path="url(#pd5a1ed2fd2)" style="fill: none; stroke: #000000; stroke-width: 2; stroke-linecap: round"/>
   </g>
   <g id="line2d_2">
    <path d="M 63.784 170.352 
L 63.784 143.352 
L 63.784 116.352 
" clip-path="url(#pd5a1ed2fd2)" style="fill: none; stroke: #000000; stroke-width: 2; stroke-linecap: round"/>
   </g>
   <g id="line2d_3">
    <path d="M 63.784 116.352 
L 81.784 116.352 
L 99.784 116.352 
" clip-path="url(#pd5a1ed2fd2)" style="fill: none; stroke: #000000; stroke-width: 2; stroke-linecap: round"/>
   </g>
   <g id="line2d_4">
    <path d="M 132.784 146.352 
L 132.784 131.352 
L 117.784 131.352 
L 117.784 101.352 
L 132.784 101.352 
L 132.784 86.352 
" clip-path="url(#pd5a1ed2fd2)" style="fill: none; stroke: #000000; stroke-width: 2; stroke-linecap: round"/>
   </g>
   <g id="line2d_5">
    <path d="M 126.784 101.352 
L 132.784 101.352 
" clip-path="url(#pd5a1ed2fd2)" style="fill: none; stroke: #000000; stroke-width: 2; stroke-linecap: round"/>
   </g>
   <g id="patch_2">
    <path d="M 126.784 105.852 
L 117.784 101.352 
L 126.784 96.852 
z
" clip-path="url(#pd5a1ed2fd2)"/>
   </g>
   <g id="line2d_6">
    <path d="M 114.784 128.352 
L 114.784 104.352 
" clip-path="url(#pd5a1ed2fd2)" style="fill: none; stroke: #000000; stroke-width: 2; stroke-linecap: round"/>
   </g>
   <g id="line2d_7">
    <path d="M 99.784 116.352 
L 114.784 116.352 
" clip-path="url(#pd5a1ed2fd2)" style="fill: none; stroke: #000000; stroke-width: 2; stroke-linecap: round"/>
   </g>
   <g id="line2d_8">
    <path d="M 132.784 86.352 
L 132.784 71.952 
" clip-path="url(#pd5a1ed2fd2)" style="fill: none; stroke: #000000; stroke-width: 2; stroke-linecap: round"/>
   </g>
   <g id="line2d_9">
    <path d="M 132.784 71.952 
L 126.034 71.952 
" clip-path="url(#pd5a1ed2fd2)" style="fill: none; stroke: #000000; stroke-width: 2; stroke-linecap: round"/>
   </g>
   <g id="line2d_10">
    <path d="M 132.784 71.952 
L 139.534 71.952 
" clip-path="url(#pd5a1ed2fd2)" style="fill: none; stroke: #000000; stroke-width: 2; stroke-linecap: round"/>
   </g>
   <g id="line2d_11">
    <path d="M 63.784 170.352 
L 63.784 197.352 
L 63.784 224.352 
" clip-path="url(#pd5a1ed2fd2)" style="fill: none; stroke: #000000; stroke-width: 2; stroke-linecap: round"/>
   </g>
   <g id="line2d_12">
    <path d="M 63.784 224.352 
L 81.784 224.352 
L 99.784 224.352 
" clip-path="url(#pd5a1ed2fd2)" style="fill: none; stroke: #000000; stroke-width: 2; stroke-linecap: round"/>
   </g>
   <g id="line2d_13">
    <path d="M 132.784 254.352 
L 132.784 239.352 
L 117.784 239.352 
L 117.784 209.352 
L 132.784 209.352 
L 132.784 194.352 
" clip-path="url(#pd5a1ed2fd2)" style="fill: none; stroke: #000000; stroke-width: 2; stroke-linecap: round"/>
   </g>
   <g id="line2d_14">
    <path d="M 123.784 239.352 
L 117.784 239.352 
" clip-path="url(#pd5a1ed2fd2)" style="fill: none; stroke: #000000; stroke-width: 2; stroke-linecap: round"/>
   </g>
   <g id="patch_3">
    <path d="M 123.784 234.852 
L 132.784 239.352 
L 123.784 243.852 
z
" clip-path="url(#pd5a1ed2fd2)"/>
   </g>
   <g id="line2d_15">
    <path d="M 114.784 236.352 
L 114.784 212.352 
" clip-path="url(#pd5a1ed2fd2)" style="fill: none; stroke: #000000; stroke-width: 2; stroke-linecap: round"/>
   </g>
   <g id="line2d_16">
    <path d="M 99.784 224.352 
L 114.784 224.352 
" clip-path="url(#pd5a1ed2fd2)" style="fill: none; stroke: #000000; stroke-width: 2; stroke-linecap: round"/>
   </g>
   <g id="line2d_17">
    <path d="M 132.784 254.352 
L 132.784 268.752 
L 123.784 268.752 
L 132.784 277.752 
L 141.784 268.752 
L 132.784 268.752 
" clip-path="url(#pd5a1ed2fd2)" style="fill: none; stroke: #000000; stroke-width: 2; stroke-linecap: round"/>
   </g>
   <g id="line2d_18">
    <path d="M 132.784 194.352 
L 132.784 182.352 
L 132.784 170.352 
" clip-path="url(#pd5a1ed2fd2)" style="fill: none; stroke: #000000; stroke-width: 2; stroke-linecap: round"/>
   </g>
   <g id="line2d_19">
    <path d="M 132.784 170.352 
L 132.784 158.352 
L 132.784 146.352 
" clip-path="url(#pd5a1ed2fd2)" style="fill: none; stroke: #000000; stroke-width: 2; stroke-linecap: round"/>
   </g>
   <g id="line2d_20">
    <path d="M 132.784 170.352 
L 159.784 170.352 
L 186.784 170.352 
" clip-path="url(#pd5a1ed2fd2)" style="fill: none; stroke: #000000; stroke-width: 2; stroke-linecap: round"/>
   </g>
   <g id="line2d_21">
    <path d="M 186.784 170.352 
L 204.784 170.352 
L 222.784 170.352 
" clip-path="url(#pd5a1ed2fd2)" style="fill: none; stroke: #000000; stroke-width: 2; stroke-linecap: round"/>
   </g>
   <g id="line2d_22">
    <path d="M 255.784 200.352 
L 255.784 185.352 
L 240.784 185.352 
L 240.784 155.352 
L 255.784 155.352 
L 255.784 140.352 
" clip-path="url(#pd5a1ed2fd2)" style="fill: none; stroke: #000000; stroke-width: 2; stroke-linecap: round"/>
   </g>
   <g id="line2d_23">
    <path d="M 246.784 185.352 
L 240.784 185.352 
" clip-path="url(#pd5a1ed2fd2)" style="fill: none; stroke: #000000; stroke-width: 2; stroke-linecap: round"/>
   </g>
   <g id="patch_4">
    <path d="M 246.784 180.852 
L 255.784 185.352 
L 246.784 189.852 
z
" clip-path="url(#pd5a1ed2fd2)"/>
   </g>
   <g id="line2d_24">
    <path d="M 237.784 182.352 
L 237.784 158.352 
" clip-path="url(#pd5a1ed2fd2)" style="fill: none; stroke: #000000; stroke-width: 2; stroke-linecap: round"/>
   </g>
   <g id="line2d_25">
    <path d="M 222.784 170.352 
L 237.784 170.352 
" clip-path="url(#pd5a1ed2fd2)" style="fill: none; stroke: #000000; stroke-width: 2; stroke-linecap: round"/>
   </g>
   <g id="line2d_26">
    <path d="M 255.784 200.352 
L 255.784 209.352 
L 255.784 218.352 
" clip-path="url(#pd5a1ed2fd2)" style="fill: none; stroke: #000000; stroke-width: 2; stroke-linecap: round"/>
   </g>
   <g id="line2d_27">
    <path d="M 255.784 218.352 
L 282.784 218.352 
L 309.784 218.352 
" clip-path="url(#pd5a1ed2fd2)" style="fill: none; stroke: #000000; stroke-width: 2; stroke-linecap: round"/>
   </g>
   <g id="line2d_28">
    <path d="M 309.784 218.352 
L 336.784 218.352 
L 363.784 218.352 
" clip-path="url(#pd5a1ed2fd2)" style="fill: none; stroke: #000000; stroke-width: 2; stroke-linecap: round"/>
   </g>
   <g id="line2d_29">
    <path d="M 363.784 218.352 
L 363.784 209.352 
L 363.784 200.352 
" clip-path="url(#pd5a1ed2fd2)" style="fill: none; stroke: #000000; stroke-width: 2; stroke-linecap: round"/>
   </g>
   <g id="line2d_30">
    <path d="M 363.784 140.352 
L 363.784 155.352 
L 378.784 155.352 
L 378.784 185.352 
L 363.784 185.352 
L 363.784 200.352 
" clip-path="url(#pd5a1ed2fd2)" style="fill: none; stroke: #000000; stroke-width: 2; stroke-linecap: round"/>
   </g>
   <g id="line2d_31">
    <path d="M 378.784 185.352 
L 372.784 185.352 
" clip-path="url(#pd5a1ed2fd2)" style="fill: none; stroke: #000000; stroke-width: 2; stroke-linecap: round"/>
   </g>
   <g id="patch_5">
    <path d="M 372.784 189.852 
L 363.784 185.352 
L 372.784 180.852 
z
" clip-path="url(#pd5a1ed2fd2)"/>
   </g>
   <g id="line2d_32">
    <path d="M 381.784 158.352 
L 381.784 182.352 
" clip-path="url(#pd5a1ed2fd2)" style="fill: none; stroke: #000000; stroke-width: 2; stroke-linecap: round"/>
   </g>
   <g id="line2d_33">
    <path d="M 381.784 170.352 
L 396.784 170.352 
" clip-path="url(#pd5a1ed2fd2)" style="fill: none; stroke: #000000; stroke-width: 2; stroke-linecap: round"/>
   </g>
   <g id="line2d_34">
    <path d="M 309.784 218.352 
L 309.784 232.752 
L 300.784 232.752 
L 309.784 241.752 
L 318.784 232.752 
L 309.784 232.752 
" clip-path="url(#pd5a1ed2fd2)" style="fill: none; stroke: #000000; stroke-width: 2; stroke-linecap: round"/>
   </g>
   <g id="line2d_35">
    <path d="M 255.784 140.352 
L 255.784 131.352 
L 255.784 122.352 
" clip-path="url(#pd5a1ed2fd2)" style="fill: none; stroke: #000000; stroke-width: 2; stroke-linecap: round"/>
   </g>
   <g id="line2d_36">
    <path d="M 255.784 122.352 
L 255.784 113.352 
L 255.784 104.352 
" clip-path="url(#pd5a1ed2fd2)" style="fill: none; stroke: #000000; stroke-width: 2; stroke-linecap: round"/>
   </g>
   <g id="line2d_37">
    <path d="M 255.784 44.352 
L 255.784 59.352 
L 270.784 59.352 
L 270.784 89.352 
L 255.784 89.352 
L 255.784 104.352 
" clip-path="url(#pd5a1ed2fd2)" style="fill: none; stroke: #000000; stroke-width: 2; stroke-linecap: round"/>
   </g>
   <g id="line2d_38">
    <path d="M 255.784 59.352 
L 261.784 59.352 
" clip-path="url(#pd5a1ed2fd2)" style="fill: none; stroke: #000000; stroke-width: 2; stroke-linecap: round"/>
   </g>
   <g id="patch_6">
    <path d="M 261.784 54.852 
L 270.784 59.352 
L 261.784 63.852 
z
" clip-path="url(#pd5a1ed2fd2)"/>
   </g>
   <g id="line2d_39">
    <path d="M 273.784 62.352 
L 273.784 86.352 
" clip-path="url(#pd5a1ed2fd2)" style="fill: none; stroke: #000000; stroke-width: 2; stroke-linecap: round"/>
   </g>
   <g id="line2d_40">
    <path d="M 273.784 74.352 
L 288.784 74.352 
" clip-path="url(#pd5a1ed2fd2)" style="fill: none; stroke: #000000; stroke-width: 2; stroke-linecap: round"/>
   </g>
   <g id="line2d_41">
    <path d="M 255.784 44.352 
L 255.784 29.952 
" clip-path="url(#pd5a1ed2fd2)" style="fill: none; stroke: #000000; stroke-width: 2; stroke-linecap: round"/>
   </g>
   <g id="line2d_42">
    <path d="M 255.784 29.952 
L 249.034 29.952 
" clip-path="url(#pd5a1ed2fd2)" style="fill: none; stroke: #000000; stroke-width: 2; stroke-linecap: round"/>
   </g>
   <g id="line2d_43">
    <path d="M 255.784 29.952 
L 262.534 29.952 
" clip-path="url(#pd5a1ed2fd2)" style="fill: none; stroke: #000000; stroke-width: 2; stroke-linecap: round"/>
   </g>
   <g id="line2d_44">
    <path d="M 363.784 140.352 
L 363.784 131.352 
L 363.784 122.352 
" clip-path="url(#pd5a1ed2fd2)" style="fill: none; stroke: #000000; stroke-width: 2; stroke-linecap: round"/>
   </g>
   <g id="line2d_45">
    <path d="M 363.784 122.352 
L 363.784 113.352 
L 363.784 104.352 
" clip-path="url(#pd5a1ed2fd2)" style="fill: none; stroke: #000000; stroke-width: 2; stroke-linecap: round"/>
   </g>
   <g id="line2d_46">
    <path d="M 363.784 104.352 
L 363.784 89.352 
L 348.784 89.352 
L 348.784 59.352 
L 363.784 59.352 
L 363.784 44.352 
" clip-path="url(#pd5a1ed2fd2)" style="fill: none; stroke: #000000; stroke-width: 2; stroke-linecap: round"/>
   </g>
   <g id="line2d_47">
    <path d="M 357.784 59.352 
L 363.784 59.352 
" clip-path="url(#pd5a1ed2fd2)" style="fill: none; stroke: #000000; stroke-width: 2; stroke-linecap: round"/>
   </g>
   <g id="patch_7">
    <path d="M 357.784 63.852 
L 348.784 59.352 
L 357.784 54.852 
z
" clip-path="url(#pd5a1ed2fd2)"/>
   </g>
   <g id="line2d_48">
    <path d="M 345.784 86.352 
L 345.784 62.352 
" clip-path="url(#pd5a1ed2fd2)" style="fill: none; stroke: #000000; stroke-width: 2; stroke-linecap: round"/>
   </g>
   <g id="line2d_49">
    <path d="M 330.784 74.352 
L 345.784 74.352 
" clip-path="url(#pd5a1ed2fd2)" style="fill: none; stroke: #000000; stroke-width: 2; stroke-linecap: round"/>
   </g>
   <g id="line2d_50">
    <path d="M 363.784 44.352 
L 363.784 29.952 
" clip-path="url(#pd5a1ed2fd2)" style="fill: none; stroke: #000000; stroke-width: 2; stroke-linecap: round"/>
   </g>
   <g id="line2d_51">
    <path d="M 363.784 29.952 
L 357.034 29.952 
" clip-path="url(#pd5a1ed2fd2)" style="fill: none; stroke: #000000; stroke-width: 2; stroke-linecap: round"/>
   </g>
   <g id="line2d_52">
    <path d="M 363.784 29.952 
L 370.534 29.952 
" clip-path="url(#pd5a1ed2fd2)" style="fill: none; stroke: #000000; stroke-width: 2; stroke-linecap: round"/>
   </g>
   <g id="line2d_53">
    <path d="M 255.784 122.352 
L 273.784 122.352 
L 291.784 122.352 
" clip-path="url(#pd5a1ed2fd2)" style="fill: none; stroke: #000000; stroke-width: 2; stroke-linecap: round"/>
   </g>
   <g id="line2d_54">
    <path d="M 291.784 122.352 
L 311.284 98.352 
L 330.784 74.352 
" clip-path="url(#pd5a1ed2fd2)" style="fill: none; stroke: #000000; stroke-width: 2; stroke-linecap: round"/>
   </g>
   <g id="line2d_55">
    <path d="M 363.784 122.352 
L 345.784 122.352 
L 327.784 122.352 
" clip-path="url(#pd5a1ed2fd2)" style="fill: none; stroke: #000000; stroke-width: 2; stroke-linecap: round"/>
   </g>
   <g id="line2d_56">
    <path d="M 327.784 122.352 
L 308.284 98.352 
L 288.784 74.352 
" clip-path="url(#pd5a1ed2fd2)" style="fill: none; stroke: #000000; stroke-width: 2; stroke-linecap: round"/>
   </g>
   <g id="line2d_57">
    <path d="M 363.784 122.352 
L 390.784 122.352 
L 417.784 122.352 
" clip-path="url(#pd5a1ed2fd2)" style="fill: none; stroke: #000000; stroke-width: 2; stroke-linecap: round"/>
   </g>
   <g id="line2d_58">
    <path d="M 417.784 122.352 
L 444.784 122.352 
L 471.784 122.352 
" clip-path="url(#pd5a1ed2fd2)" style="fill: none; stroke: #000000; stroke-width: 2; stroke-linecap: round"/>
   </g>
   <g id="line2d_59">
    <path d="M 471.784 122.352 
L 471.784 95.352 
L 471.784 68.352 
" clip-path="url(#pd5a1ed2fd2)" style="fill: none; stroke: #000000; stroke-width: 2; stroke-linecap: round"/>
   </g>
   <g id="line2d_60">
    <path d="M 471.784 68.352 
L 489.784 68.352 
L 507.784 68.352 
" clip-path="url(#pd5a1ed2fd2)" style="fill: none; stroke: #000000; stroke-width: 2; stroke-linecap: round"/>
   </g>
   <g id="line2d_61">
    <path d="M 540.784 98.352 
L 540.784 83.352 
L 525.784 83.352 
L 525.784 53.352 
L 540.784 53.352 
L 540.784 38.352 
" clip-path="url(#pd5a1ed2fd2)" style="fill: none; stroke: #000000; stroke-width: 2; stroke-linecap: round"/>
   </g>
   <g id="line2d_62">
    <path d="M 534.784 53.352 
L 540.784 53.352 
" clip-path="url(#pd5a1ed2fd2)" style="fill: none; stroke: #000000; stroke-width: 2; stroke-linecap: round"/>
   </g>
   <g id="patch_8">
    <path d="M 534.784 57.852 
L 525.784 53.352 
L 534.784 48.852 
z
" clip-path="url(#pd5a1ed2fd2)"/>
   </g>
   <g id="line2d_63">
    <path d="M 522.784 80.352 
L 522.784 56.352 
" clip-path="url(#pd5a1ed2fd2)" style="fill: none; stroke: #000000; stroke-width: 2; stroke-linecap: round"/>
   </g>
   <g id="line2d_64">
    <path d="M 507.784 68.352 
L 522.784 68.352 
" clip-path="url(#pd5a1ed2fd2)" style="fill: none; stroke: #000000; stroke-width: 2; stroke-linecap: round"/>
   </g>
   <g id="line2d_65">
    <path d="M 540.784 38.352 
L 540.784 23.952 
" clip-path="url(#pd5a1ed2fd2)" style="fill: none; stroke: #000000; stroke-width: 2; stroke-linecap: round"/>
   </g>
   <g id="line2d_66">
    <path d="M 540.784 23.952 
L 534.034 23.952 
" clip-path="url(#pd5a1ed2fd2)" style="fill: none; stroke: #000000; stroke-width: 2; stroke-linecap: round"/>
   </g>
   <g id="line2d_67">
    <path d="M 540.784 23.952 
L 547.534 23.952 
" clip-path="url(#pd5a1ed2fd2)" style="fill: none; stroke: #000000; stroke-width: 2; stroke-linecap: round"/>
   </g>
   <g id="line2d_68">
    <path d="M 471.784 122.352 
L 471.784 149.352 
L 471.784 176.352 
" clip-path="url(#pd5a1ed2fd2)" style="fill: none; stroke: #000000; stroke-width: 2; stroke-linecap: round"/>
   </g>
   <g id="line2d_69">
    <path d="M 471.784 176.352 
L 489.784 176.352 
L 507.784 176.352 
" clip-path="url(#pd5a1ed2fd2)" style="fill: none; stroke: #000000; stroke-width: 2; stroke-linecap: round"/>
   </g>
   <g id="line2d_70">
    <path d="M 540.784 206.352 
L 540.784 191.352 
L 525.784 191.352 
L 525.784 161.352 
L 540.784 161.352 
L 540.784 146.352 
" clip-path="url(#pd5a1ed2fd2)" style="fill: none; stroke: #000000; stroke-width: 2; stroke-linecap: round"/>
   </g>
   <g id="line2d_71">
    <path d="M 531.784 191.352 
L 525.784 191.352 
" clip-path="url(#pd5a1ed2fd2)" style="fill: none; stroke: #000000; stroke-width: 2; stroke-linecap: round"/>
   </g>
   <g id="patch_9">
    <path d="M 531.784 186.852 
L 540.784 191.352 
L 531.784 195.852 
z
" clip-path="url(#pd5a1ed2fd2)"/>
   </g>
   <g id="line2d_72">
    <path d="M 522.784 188.352 
L 522.784 164.352 
" clip-path="url(#pd5a1ed2fd2)" style="fill: none; stroke: #000000; stroke-width: 2; stroke-linecap: round"/>
   </g>
   <g id="line2d_73">
    <path d="M 507.784 176.352 
L 522.784 176.352 
" clip-path="url(#pd5a1ed2fd2)" style="fill: none; stroke: #000000; stroke-width: 2; stroke-linecap: round"/>
   </g>
   <g id="line2d_74">
    <path d="M 540.784 206.352 
L 540.784 220.752 
L 531.784 220.752 
L 540.784 229.752 
L 549.784 220.752 
L 540.784 220.752 
" clip-path="url(#pd5a1ed2fd2)" style="fill: none; stroke: #000000; stroke-width: 2; stroke-linecap: round"/>
   </g>
   <g id="line2d_75">
    <path d="M 540.784 146.352 
L 540.784 134.352 
L 540.784 122.352 
" clip-path="url(#pd5a1ed2fd2)" style="fill: none; stroke: #000000; stroke-width: 2; stroke-linecap: round"/>
   </g>
   <g id="line2d_76">
    <path d="M 540.784 122.352 
L 540.784 110.352 
L 540.784 98.352 
" clip-path="url(#pd5a1ed2fd2)" style="fill: none; stroke: #000000; stroke-width: 2; stroke-linecap: round"/>
   </g>
   <g id="line2d_77">
    <path d="M 540.784 122.352 
L 567.784 122.352 
L 594.784 122.352 
" clip-path="url(#pd5a1ed2fd2)" style="fill: none; stroke: #000000; stroke-width: 2; stroke-linecap: round"/>
   </g>
   <g id="line2d_78">
    <path d="M 186.784 170.352 
L 186.784 269.352 
L 186.784 368.352 
" clip-path="url(#pd5a1ed2fd2)" style="fill: none; stroke: #000000; stroke-width: 2; stroke-linecap: round"/>
   </g>
   <g id="line2d_79">
    <path d="M 186.784 368.352 
L 222.784 368.352 
L 258.784 368.352 
" clip-path="url(#pd5a1ed2fd2)" style="fill: none; stroke: #000000; stroke-width: 2; stroke-linecap: round"/>
   </g>
   <g id="line2d_80">
    <path d="M 258.784 368.352 
L 258.784 341.352 
L 258.784 314.352 
" clip-path="url(#pd5a1ed2fd2)" style="fill: none; stroke: #000000; stroke-width: 2; stroke-linecap: round"/>
   </g>
   <g id="line2d_81">
    <path d="M 258.784 314.352 
L 276.784 314.352 
L 294.784 314.352 
" clip-path="url(#pd5a1ed2fd2)" style="fill: none; stroke: #000000; stroke-width: 2; stroke-linecap: round"/>
   </g>
   <g id="line2d_82">
    <path d="M 327.784 344.352 
L 327.784 329.352 
L 312.784 329.352 
L 312.784 299.352 
L 327.784 299.352 
L 327.784 284.352 
" clip-path="url(#pd5a1ed2fd2)" style="fill: none; stroke: #000000; stroke-width: 2; stroke-linecap: round"/>
   </g>
   <g id="line2d_83">
    <path d="M 321.784 299.352 
L 327.784 299.352 
" clip-path="url(#pd5a1ed2fd2)" style="fill: none; stroke: #000000; stroke-width: 2; stroke-linecap: round"/>
   </g>
   <g id="patch_10">
    <path d="M 321.784 303.852 
L 312.784 299.352 
L 321.784 294.852 
z
" clip-path="url(#pd5a1ed2fd2)"/>
   </g>
   <g id="line2d_84">
    <path d="M 309.784 326.352 
L 309.784 302.352 
" clip-path="url(#pd5a1ed2fd2)" style="fill: none; stroke: #000000; stroke-width: 2; stroke-linecap: round"/>
   </g>
   <g id="line2d_85">
    <path d="M 294.784 314.352 
L 309.784 314.352 
" clip-path="url(#pd5a1ed2fd2)" style="fill: none; stroke: #000000; stroke-width: 2; stroke-linecap: round"/>
   </g>
   <g id="line2d_86">
    <path d="M 327.784 284.352 
L 327.784 269.952 
" clip-path="url(#pd5a1ed2fd2)" style="fill: none; stroke: #000000; stroke-width: 2; stroke-linecap: round"/>
   </g>
   <g id="line2d_87">
    <path d="M 327.784 269.952 
L 321.034 269.952 
" clip-path="url(#pd5a1ed2fd2)" style="fill: none; stroke: #000000; stroke-width: 2; stroke-linecap: round"/>
   </g>
   <g id="line2d_88">
    <path d="M 327.784 269.952 
L 334.534 269.952 
" clip-path="url(#pd5a1ed2fd2)" style="fill: none; stroke: #000000; stroke-width: 2; stroke-linecap: round"/>
   </g>
   <g id="line2d_89">
    <path d="M 258.784 368.352 
L 258.784 395.352 
L 258.784 422.352 
" clip-path="url(#pd5a1ed2fd2)" style="fill: none; stroke: #000000; stroke-width: 2; stroke-linecap: round"/>
   </g>
   <g id="line2d_90">
    <path d="M 258.784 422.352 
L 276.784 422.352 
L 294.784 422.352 
" clip-path="url(#pd5a1ed2fd2)" style="fill: none; stroke: #000000; stroke-width: 2; stroke-linecap: round"/>
   </g>
   <g id="line2d_91">
    <path d="M 327.784 452.352 
L 327.784 437.352 
L 312.784 437.352 
L 312.784 407.352 
L 327.784 407.352 
L 327.784 392.352 
" clip-path="url(#pd5a1ed2fd2)" style="fill: none; stroke: #000000; stroke-width: 2; stroke-linecap: round"/>
   </g>
   <g id="line2d_92">
    <path d="M 318.784 437.352 
L 312.784 437.352 
" clip-path="url(#pd5a1ed2fd2)" style="fill: none; stroke: #000000; stroke-width: 2; stroke-linecap: round"/>
   </g>
   <g id="patch_11">
    <path d="M 318.784 432.852 
L 327.784 437.352 
L 318.784 441.852 
z
" clip-path="url(#pd5a1ed2fd2)"/>
   </g>
   <g id="line2d_93">
    <path d="M 309.784 434.352 
L 309.784 410.352 
" clip-path="url(#pd5a1ed2fd2)" style="fill: none; stroke: #000000; stroke-width: 2; stroke-linecap: round"/>
   </g>
   <g id="line2d_94">
    <path d="M 294.784 422.352 
L 309.784 422.352 
" clip-path="url(#pd5a1ed2fd2)" style="fill: none; stroke: #000000; stroke-width: 2; stroke-linecap: round"/>
   </g>
   <g id="line2d_95">
    <path d="M 327.784 452.352 
L 327.784 466.752 
L 318.784 466.752 
L 327.784 475.752 
L 336.784 466.752 
L 327.784 466.752 
" clip-path="url(#pd5a1ed2fd2)" style="fill: none; stroke: #000000; stroke-width: 2; stroke-linecap: round"/>
   </g>
   <g id="line2d_96">
    <path d="M 327.784 392.352 
L 327.784 380.352 
L 327.784 368.352 
" clip-path="url(#pd5a1ed2fd2)" style="fill: none; stroke: #000000; stroke-width: 2; stroke-linecap: round"/>
   </g>
   <g id="line2d_97">
    <path d="M 327.784 368.352 
L 327.784 356.352 
L 327.784 344.352 
" clip-path="url(#pd5a1ed2fd2)" style="fill: none; stroke: #000000; stroke-width: 2; stroke-linecap: round"/>
   </g>
   <g id="line2d_98">
    <path d="M 327.784 368.352 
L 372.784 368.352 
L 417.784 368.352 
" clip-path="url(#pd5a1ed2fd2)" style="fill: none; stroke: #000000; stroke-width: 2; stroke-linecap: round"/>
   </g>
   <g id="line2d_99">
    <path d="M 417.784 368.352 
L 417.784 269.352 
L 417.784 170.352 
" clip-path="url(#pd5a1ed2fd2)" style="fill: none; stroke: #000000; stroke-width: 2; stroke-linecap: round"/>
   </g>
   <g id="line2d_100">
    <path d="M 417.784 170.352 
L 407.284 170.352 
L 396.784 170.352 
" clip-path="url(#pd5a1ed2fd2)" style="fill: none; stroke: #000000; stroke-width: 2; stroke-linecap: round"/>
   </g>
   <g id="patch_12">
    <path d="M 63.784 173.052 
C 64.500048 173.052 65.186866 172.767511 65.693188 172.261188 
C 66.199511 171.754866 66.484 171.068048 66.484 170.352 
C 66.484 169.635952 66.199511 168.949134 65.693188 168.442812 
C 65.186866 167.936489 64.500048 167.652 63.784 167.652 
C 63.067952 167.652 62.381134 167.936489 61.874812 168.442812 
C 61.368489 168.949134 61.084 169.635952 61.084 170.352 
C 61.084 171.068048 61.368489 171.754866 61.874812 172.261188 
C 62.381134 172.767511 63.067952 173.052 63.784 173.052 
z
" clip-path="url(#pd5a1ed2fd2)" style="stroke: #000000; stroke-width: 2; stroke-linejoin: miter"/>
   </g>
   <g id="text_1">
    <!-- $M_{11}$ -->
    <g transform="translate(136.526113 120.337056) scale(0.16 -0.16)">
     <defs>
      <path id="CMMI12-4d" d="M 5811 3886 
C 5869 4103 5882 4167 6336 4167 
C 6458 4167 6515 4167 6515 4288 
C 6515 4352 6470 4352 6349 4352 
L 5581 4352 
C 5421 4352 5414 4346 5344 4243 
L 3008 562 
L 2528 4211 
C 2509 4352 2502 4352 2336 4352 
L 1542 4352 
C 1421 4352 1363 4352 1363 4231 
C 1363 4167 1421 4167 1517 4167 
C 1907 4167 1907 4116 1907 4046 
C 1907 4034 1907 3995 1882 3899 
L 1062 634 
C 986 327 838 186 410 186 
C 390 186 314 186 314 73 
C 314 0 371 0 397 0 
C 525 0 851 0 979 0 
L 1286 0 
C 1376 0 1485 0 1574 0 
C 1619 0 1690 0 1690 122 
C 1690 180 1626 186 1600 186 
C 1389 186 1184 224 1184 454 
C 1184 518 1184 524 1210 613 
L 2093 4129 
L 2099 4129 
L 2630 172 
C 2650 19 2656 0 2714 0 
C 2784 0 2816 51 2848 109 
L 5421 4161 
L 5427 4161 
L 4499 473 
C 4442 250 4429 186 3981 186 
C 3859 186 3795 186 3795 70 
C 3795 0 3853 0 3891 0 
C 4000 0 4128 0 4237 0 
L 4992 0 
C 5101 0 5235 0 5344 0 
C 5395 0 5466 0 5466 122 
C 5466 186 5408 186 5312 186 
C 4922 186 4922 234 4922 294 
C 4922 301 4922 345 4934 396 
L 5811 3886 
z
" transform="scale(0.015625)"/>
      <path id="CMR17-31" d="M 1702 4058 
C 1702 4192 1696 4192 1606 4192 
C 1357 3916 979 3827 621 3827 
C 602 3827 570 3827 563 3808 
C 557 3795 557 3782 557 3648 
C 755 3648 1088 3686 1344 3839 
L 1344 461 
C 1344 236 1331 160 781 160 
L 589 160 
L 589 0 
C 896 0 1216 0 1523 0 
C 1830 0 2150 0 2458 0 
L 2458 160 
L 2266 160 
C 1715 160 1702 230 1702 458 
L 1702 4058 
z
" transform="scale(0.015625)"/>
     </defs>
     <use xlink:href="#CMMI12-4d" transform="scale(0.996264)"/>
     <use xlink:href="#CMR17-31" transform="translate(94.373425 -14.943915) scale(0.697382)"/>
     <use xlink:href="#CMR17-31" transform="translate(126.356607 -14.943915) scale(0.697382)"/>
    </g>
   </g>
   <g id="text_2">
    <!-- $V_\mathrm{DD1}$ -->
    <g transform="translate(116.92132 63.452524) scale(0.16 -0.16)">
     <defs>
      <path id="CMMI12-56" d="M 3962 3640 
C 4179 3984 4378 4136 4704 4162 
C 4768 4168 4819 4168 4819 4282 
C 4819 4308 4806 4346 4749 4346 
C 4634 4346 4358 4346 4243 4346 
C 4058 4346 3866 4346 3686 4346 
C 3635 4346 3571 4346 3571 4226 
C 3571 4168 3629 4162 3654 4162 
C 3891 4143 3917 4029 3917 3952 
C 3917 3857 3827 3710 3821 3704 
L 1811 540 
L 1363 3969 
C 1363 4160 1696 4160 1766 4160 
C 1862 4160 1920 4160 1920 4282 
C 1920 4346 1850 4346 1830 4346 
C 1722 4346 1594 4346 1485 4346 
L 1126 4346 
C 659 4346 467 4346 461 4346 
C 422 4346 346 4346 346 4230 
C 346 4160 390 4160 493 4160 
C 819 4160 838 4102 858 3944 
L 1370 24 
C 1389 -109 1389 -128 1478 -128 
C 1555 -128 1587 -109 1651 -8 
L 3962 3640 
z
" transform="scale(0.015625)"/>
      <path id="CMR17-44" d="M 333 4352 
L 333 4186 
C 774 4186 845 4186 845 3900 
L 845 452 
C 845 166 774 166 333 166 
L 333 0 
L 2368 0 
C 3398 0 4224 943 4224 2141 
C 4224 3346 3411 4352 2368 4352 
L 333 4352 
z
M 1523 166 
C 1267 166 1254 197 1254 414 
L 1254 3938 
C 1254 4155 1267 4186 1523 4186 
L 2240 4186 
C 2771 4186 3750 3874 3750 2141 
C 3750 1242 3488 879 3366 707 
C 3213 510 2848 166 2240 166 
L 1523 166 
z
" transform="scale(0.015625)"/>
     </defs>
     <use xlink:href="#CMMI12-56" transform="scale(0.996264)"/>
     <use xlink:href="#CMR17-44" transform="translate(56.869579 -14.943915) scale(0.697382)"/>
     <use xlink:href="#CMR17-44" transform="translate(106.144849 -14.943915) scale(0.697382)"/>
     <use xlink:href="#CMR17-31" transform="translate(155.420119 -14.943915) scale(0.697382)"/>
    </g>
   </g>
   <g id="text_3">
    <!-- $M_{12}$ -->
    <g transform="translate(136.526113 228.337056) scale(0.16 -0.16)">
     <defs>
      <path id="CMR17-32" d="M 2669 989 
L 2554 989 
C 2490 536 2438 459 2413 420 
C 2381 369 1920 369 1830 369 
L 602 369 
C 832 619 1280 1072 1824 1597 
C 2214 1967 2669 2402 2669 3035 
C 2669 3790 2067 4224 1395 4224 
C 691 4224 262 3604 262 3030 
C 262 2780 448 2748 525 2748 
C 589 2748 781 2787 781 3010 
C 781 3207 614 3264 525 3264 
C 486 3264 448 3258 422 3245 
C 544 3790 915 4058 1306 4058 
C 1862 4058 2227 3617 2227 3035 
C 2227 2479 1901 2000 1536 1584 
L 262 146 
L 262 0 
L 2515 0 
L 2669 989 
z
" transform="scale(0.015625)"/>
     </defs>
     <use xlink:href="#CMMI12-4d" transform="scale(0.996264)"/>
     <use xlink:href="#CMR17-31" transform="translate(94.373425 -14.943915) scale(0.697382)"/>
     <use xlink:href="#CMR17-32" transform="translate(126.356607 -14.943915) scale(0.697382)"/>
    </g>
   </g>
   <g id="patch_13">
    <path d="M 132.784 173.052 
C 133.500048 173.052 134.186866 172.767511 134.693188 172.261188 
C 135.199511 171.754866 135.484 171.068048 135.484 170.352 
C 135.484 169.635952 135.199511 168.949134 134.693188 168.442812 
C 134.186866 167.936489 133.500048 167.652 132.784 167.652 
C 132.067952 167.652 131.381134 167.936489 130.874812 168.442812 
C 130.368489 168.949134 130.084 169.635952 130.084 170.352 
C 130.084 171.068048 130.368489 171.754866 130.874812 172.261188 
C 131.381134 172.767511 132.067952 173.052 132.784 173.052 
z
" clip-path="url(#pd5a1ed2fd2)" style="stroke: #000000; stroke-width: 2; stroke-linejoin: miter"/>
   </g>
   <g id="text_4">
    <!-- $M_{1}$ -->
    <g transform="translate(256.105183 174.337056) scale(0.16 -0.16)">
     <use xlink:href="#CMMI12-4d" transform="scale(0.996264)"/>
     <use xlink:href="#CMR17-31" transform="translate(94.373425 -14.943915) scale(0.697382)"/>
    </g>
   </g>
   <g id="patch_14">
    <path d="M 309.784 221.052 
C 310.500048 221.052 311.186866 220.767511 311.693188 220.261188 
C 312.199511 219.754866 312.484 219.068048 312.484 218.352 
C 312.484 217.635952 312.199511 216.949134 311.693188 216.442812 
C 311.186866 215.936489 310.500048 215.652 309.784 215.652 
C 309.067952 215.652 308.381134 215.936489 307.874812 216.442812 
C 307.368489 216.949134 307.084 217.635952 307.084 218.352 
C 307.084 219.068048 307.368489 219.754866 307.874812 220.261188 
C 308.381134 220.767511 309.067952 221.052 309.784 221.052 
z
" clip-path="url(#pd5a1ed2fd2)" style="stroke: #000000; stroke-width: 2; stroke-linejoin: miter"/>
   </g>
   <g id="text_5">
    <!-- $M_{2}$ -->
    <g transform="translate(339.505183 174.337056) scale(0.16 -0.16)">
     <use xlink:href="#CMMI12-4d" transform="scale(0.996264)"/>
     <use xlink:href="#CMR17-32" transform="translate(94.373425 -14.943915) scale(0.697382)"/>
    </g>
   </g>
   <g id="patch_15">
    <path d="M 255.784 125.052 
C 256.500048 125.052 257.186866 124.767511 257.693188 124.261188 
C 258.199511 123.754866 258.484 123.068048 258.484 122.352 
C 258.484 121.635952 258.199511 120.949134 257.693188 120.442812 
C 257.186866 119.936489 256.500048 119.652 255.784 119.652 
C 255.067952 119.652 254.381134 119.936489 253.874812 120.442812 
C 253.368489 120.949134 253.084 121.635952 253.084 122.352 
C 253.084 123.068048 253.368489 123.754866 253.874812 124.261188 
C 254.381134 124.767511 255.067952 125.052 255.784 125.052 
z
" clip-path="url(#pd5a1ed2fd2)" style="stroke: #000000; stroke-width: 2; stroke-linejoin: miter"/>
   </g>
   <g id="text_6">
    <!-- $M_{3}$ -->
    <g transform="translate(231.505183 78.337056) scale(0.16 -0.16)">
     <defs>
      <path id="CMR17-33" d="M 1414 2157 
C 1984 2157 2234 1662 2234 1090 
C 2234 320 1824 25 1453 25 
C 1114 25 563 194 390 693 
C 422 680 454 680 486 680 
C 640 680 755 782 755 948 
C 755 1133 614 1216 486 1216 
C 378 1216 211 1165 211 926 
C 211 335 787 -128 1466 -128 
C 2176 -128 2720 430 2720 1085 
C 2720 1707 2208 2157 1600 2227 
C 2086 2328 2554 2756 2554 3329 
C 2554 3820 2048 4179 1472 4179 
C 890 4179 378 3829 378 3329 
C 378 3110 544 3072 627 3072 
C 762 3072 877 3155 877 3321 
C 877 3486 762 3569 627 3569 
C 602 3569 570 3569 544 3557 
C 730 3959 1235 4032 1459 4032 
C 1683 4032 2106 3925 2106 3320 
C 2106 3143 2080 2828 1862 2550 
C 1670 2304 1453 2304 1242 2284 
C 1210 2284 1062 2269 1037 2269 
C 992 2263 966 2257 966 2208 
C 966 2163 973 2157 1101 2157 
L 1414 2157 
z
" transform="scale(0.015625)"/>
     </defs>
     <use xlink:href="#CMMI12-4d" transform="scale(0.996264)"/>
     <use xlink:href="#CMR17-33" transform="translate(94.373425 -14.943915) scale(0.697382)"/>
    </g>
   </g>
   <g id="text_7">
    <!-- $V_\mathrm{DD2}$ -->
    <g transform="translate(239.92132 21.452524) scale(0.16 -0.16)">
     <use xlink:href="#CMMI12-56" transform="scale(0.996264)"/>
     <use xlink:href="#CMR17-44" transform="translate(56.869579 -14.943915) scale(0.697382)"/>
     <use xlink:href="#CMR17-44" transform="translate(106.144849 -14.943915) scale(0.697382)"/>
     <use xlink:href="#CMR17-32" transform="translate(155.420119 -14.943915) scale(0.697382)"/>
    </g>
   </g>
   <g id="patch_16">
    <path d="M 363.784 125.052 
C 364.500048 125.052 365.186866 124.767511 365.693188 124.261188 
C 366.199511 123.754866 366.484 123.068048 366.484 122.352 
C 366.484 121.635952 366.199511 120.949134 365.693188 120.442812 
C 365.186866 119.936489 364.500048 119.652 363.784 119.652 
C 363.067952 119.652 362.381134 119.936489 361.874812 120.442812 
C 361.368489 120.949134 361.084 121.635952 361.084 122.352 
C 361.084 123.068048 361.368489 123.754866 361.874812 124.261188 
C 362.381134 124.767511 363.067952 125.052 363.784 125.052 
z
" clip-path="url(#pd5a1ed2fd2)" style="stroke: #000000; stroke-width: 2; stroke-linejoin: miter"/>
   </g>
   <g id="text_8">
    <!-- $M_{4}$ -->
    <g transform="translate(364.105183 78.337056) scale(0.16 -0.16)">
     <defs>
      <path id="CMR17-34" d="M 2150 4122 
C 2150 4256 2144 4256 2029 4256 
L 128 1254 
L 128 1088 
L 1779 1088 
L 1779 457 
C 1779 224 1766 160 1318 160 
L 1197 160 
L 1197 0 
C 1402 0 1747 0 1965 0 
C 2182 0 2528 0 2733 0 
L 2733 160 
L 2611 160 
C 2163 160 2150 224 2150 457 
L 2150 1088 
L 2803 1088 
L 2803 1254 
L 2150 1254 
L 2150 4122 
z
M 1798 3703 
L 1798 1254 
L 256 1254 
L 1798 3703 
z
" transform="scale(0.015625)"/>
     </defs>
     <use xlink:href="#CMMI12-4d" transform="scale(0.996264)"/>
     <use xlink:href="#CMR17-34" transform="translate(94.373425 -14.943915) scale(0.697382)"/>
    </g>
   </g>
   <g id="text_9">
    <!-- $V_\mathrm{DD2}$ -->
    <g transform="translate(347.92132 21.452524) scale(0.16 -0.16)">
     <use xlink:href="#CMMI12-56" transform="scale(0.996264)"/>
     <use xlink:href="#CMR17-44" transform="translate(56.869579 -14.943915) scale(0.697382)"/>
     <use xlink:href="#CMR17-44" transform="translate(106.144849 -14.943915) scale(0.697382)"/>
     <use xlink:href="#CMR17-32" transform="translate(155.420119 -14.943915) scale(0.697382)"/>
    </g>
   </g>
   <g id="patch_17">
    <path d="M 471.784 125.052 
C 472.500048 125.052 473.186866 124.767511 473.693188 124.261188 
C 474.199511 123.754866 474.484 123.068048 474.484 122.352 
C 474.484 121.635952 474.199511 120.949134 473.693188 120.442812 
C 473.186866 119.936489 472.500048 119.652 471.784 119.652 
C 471.067952 119.652 470.381134 119.936489 469.874812 120.442812 
C 469.368489 120.949134 469.084 121.635952 469.084 122.352 
C 469.084 123.068048 469.368489 123.754866 469.874812 124.261188 
C 470.381134 124.767511 471.067952 125.052 471.784 125.052 
z
" clip-path="url(#pd5a1ed2fd2)" style="stroke: #000000; stroke-width: 2; stroke-linejoin: miter"/>
   </g>
   <g id="text_10">
    <!-- $M_{31}$ -->
    <g transform="translate(544.526113 72.337056) scale(0.16 -0.16)">
     <use xlink:href="#CMMI12-4d" transform="scale(0.996264)"/>
     <use xlink:href="#CMR17-33" transform="translate(94.373425 -14.943915) scale(0.697382)"/>
     <use xlink:href="#CMR17-31" transform="translate(126.356607 -14.943915) scale(0.697382)"/>
    </g>
   </g>
   <g id="text_11">
    <!-- $V_\mathrm{DD2}$ -->
    <g transform="translate(524.92132 15.452524) scale(0.16 -0.16)">
     <use xlink:href="#CMMI12-56" transform="scale(0.996264)"/>
     <use xlink:href="#CMR17-44" transform="translate(56.869579 -14.943915) scale(0.697382)"/>
     <use xlink:href="#CMR17-44" transform="translate(106.144849 -14.943915) scale(0.697382)"/>
     <use xlink:href="#CMR17-32" transform="translate(155.420119 -14.943915) scale(0.697382)"/>
    </g>
   </g>
   <g id="text_12">
    <!-- $M_{32}$ -->
    <g transform="translate(544.526113 180.337056) scale(0.16 -0.16)">
     <use xlink:href="#CMMI12-4d" transform="scale(0.996264)"/>
     <use xlink:href="#CMR17-33" transform="translate(94.373425 -14.943915) scale(0.697382)"/>
     <use xlink:href="#CMR17-32" transform="translate(126.356607 -14.943915) scale(0.697382)"/>
    </g>
   </g>
   <g id="patch_18">
    <path d="M 540.784 125.052 
C 541.500048 125.052 542.186866 124.767511 542.693188 124.261188 
C 543.199511 123.754866 543.484 123.068048 543.484 122.352 
C 543.484 121.635952 543.199511 120.949134 542.693188 120.442812 
C 542.186866 119.936489 541.500048 119.652 540.784 119.652 
C 540.067952 119.652 539.381134 119.936489 538.874812 120.442812 
C 538.368489 120.949134 538.084 121.635952 538.084 122.352 
C 538.084 123.068048 538.368489 123.754866 538.874812 124.261188 
C 539.381134 124.767511 540.067952 125.052 540.784 125.052 
z
" clip-path="url(#pd5a1ed2fd2)" style="stroke: #000000; stroke-width: 2; stroke-linejoin: miter"/>
   </g>
   <g id="patch_19">
    <path d="M 258.784 371.052 
C 259.500048 371.052 260.186866 370.767511 260.693188 370.261188 
C 261.199511 369.754866 261.484 369.068048 261.484 368.352 
C 261.484 367.635952 261.199511 366.949134 260.693188 366.442812 
C 260.186866 365.936489 259.500048 365.652 258.784 365.652 
C 258.067952 365.652 257.381134 365.936489 256.874812 366.442812 
C 256.368489 366.949134 256.084 367.635952 256.084 368.352 
C 256.084 369.068048 256.368489 369.754866 256.874812 370.261188 
C 257.381134 370.767511 258.067952 371.052 258.784 371.052 
z
" clip-path="url(#pd5a1ed2fd2)" style="stroke: #000000; stroke-width: 2; stroke-linejoin: miter"/>
   </g>
   <g id="text_13">
    <!-- $M_{21}$ -->
    <g transform="translate(331.526113 318.337056) scale(0.16 -0.16)">
     <use xlink:href="#CMMI12-4d" transform="scale(0.996264)"/>
     <use xlink:href="#CMR17-32" transform="translate(94.373425 -14.943915) scale(0.697382)"/>
     <use xlink:href="#CMR17-31" transform="translate(126.356607 -14.943915) scale(0.697382)"/>
    </g>
   </g>
   <g id="text_14">
    <!-- $V_\mathrm{DD1}$ -->
    <g transform="translate(311.92132 261.452524) scale(0.16 -0.16)">
     <use xlink:href="#CMMI12-56" transform="scale(0.996264)"/>
     <use xlink:href="#CMR17-44" transform="translate(56.869579 -14.943915) scale(0.697382)"/>
     <use xlink:href="#CMR17-44" transform="translate(106.144849 -14.943915) scale(0.697382)"/>
     <use xlink:href="#CMR17-31" transform="translate(155.420119 -14.943915) scale(0.697382)"/>
    </g>
   </g>
   <g id="text_15">
    <!-- $M_{22}$ -->
    <g transform="translate(331.526113 426.337056) scale(0.16 -0.16)">
     <use xlink:href="#CMMI12-4d" transform="scale(0.996264)"/>
     <use xlink:href="#CMR17-32" transform="translate(94.373425 -14.943915) scale(0.697382)"/>
     <use xlink:href="#CMR17-32" transform="translate(126.356607 -14.943915) scale(0.697382)"/>
    </g>
   </g>
   <g id="patch_20">
    <path d="M 327.784 371.052 
C 328.500048 371.052 329.186866 370.767511 329.693188 370.261188 
C 330.199511 369.754866 330.484 369.068048 330.484 368.352 
C 330.484 367.635952 330.199511 366.949134 329.693188 366.442812 
C 329.186866 365.936489 328.500048 365.652 327.784 365.652 
C 327.067952 365.652 326.381134 365.936489 325.874812 366.442812 
C 325.368489 366.949134 325.084 367.635952 325.084 368.352 
C 325.084 369.068048 325.368489 369.754866 325.874812 370.261188 
C 326.381134 370.767511 327.067952 371.052 327.784 371.052 
z
" clip-path="url(#pd5a1ed2fd2)" style="stroke: #000000; stroke-width: 2; stroke-linejoin: miter"/>
   </g>
   <g id="patch_21">
    <path d="M 9.784 173.052 
C 10.500048 173.052 11.186866 172.767511 11.693188 172.261188 
C 12.199511 171.754866 12.484 171.068048 12.484 170.352 
C 12.484 169.635952 12.199511 168.949134 11.693188 168.442812 
C 11.186866 167.936489 10.500048 167.652 9.784 167.652 
C 9.067952 167.652 8.381134 167.936489 7.874812 168.442812 
C 7.368489 168.949134 7.084 169.635952 7.084 170.352 
C 7.084 171.068048 7.368489 171.754866 7.874812 172.261188 
C 8.381134 172.767511 9.067952 173.052 9.784 173.052 
z
" clip-path="url(#pd5a1ed2fd2)" style="fill: #ffffff; stroke: #000000; stroke-width: 2; stroke-linejoin: miter"/>
   </g>
   <g id="text_16">
    <!-- $A$ -->
    <g transform="translate(3.933769 160.952524) scale(0.16 -0.16)">
     <defs>
      <path id="CMMI12-41" d="M 1088 691 
C 864 314 646 186 339 186 
C 269 180 218 180 218 58 
C 218 24 250 0 294 0 
C 410 0 698 0 813 0 
C 998 0 1203 0 1382 0 
C 1421 0 1498 0 1498 122 
C 1498 180 1446 186 1408 186 
C 1261 186 1139 236 1139 388 
C 1139 476 1178 546 1261 685 
L 1747 1479 
L 3379 1479 
C 3386 1423 3386 1373 3392 1316 
C 3411 1152 3488 495 3488 376 
C 3488 186 3162 186 3059 186 
C 2989 186 2918 186 2918 70 
C 2918 0 2976 0 3014 0 
C 3123 0 3251 0 3360 0 
L 3725 0 
C 4115 0 4397 0 4403 0 
C 4448 0 4518 0 4518 122 
C 4518 186 4461 186 4365 186 
C 4013 186 4006 244 3987 434 
L 3597 4404 
C 3584 4531 3558 4544 3488 4544 
C 3424 4544 3386 4531 3328 4435 
L 1088 691 
z
M 1856 1664 
L 3142 3819 
L 3360 1664 
L 1856 1664 
z
" transform="scale(0.015625)"/>
     </defs>
     <use xlink:href="#CMMI12-41" transform="scale(0.996264)"/>
    </g>
   </g>
   <g id="patch_22">
    <path d="M 186.784 173.052 
C 187.500048 173.052 188.186866 172.767511 188.693188 172.261188 
C 189.199511 171.754866 189.484 171.068048 189.484 170.352 
C 189.484 169.635952 189.199511 168.949134 188.693188 168.442812 
C 188.186866 167.936489 187.500048 167.652 186.784 167.652 
C 186.067952 167.652 185.381134 167.936489 184.874812 168.442812 
C 184.368489 168.949134 184.084 169.635952 184.084 170.352 
C 184.084 171.068048 184.368489 171.754866 184.874812 172.261188 
C 185.381134 172.767511 186.067952 173.052 186.784 173.052 
z
" clip-path="url(#pd5a1ed2fd2)" style="stroke: #000000; stroke-width: 2; stroke-linejoin: miter"/>
   </g>
   <g id="text_17">
    <!-- $\overline{A}$ -->
    <g transform="translate(180.933769 160.952524) scale(0.16 -0.16)">
     <use xlink:href="#CMMI12-41" transform="scale(0.996264)"/>
     <path d="M 0 80.032884 
L 73.127885 80.032884 
L 73.127885 84.017834 
L 0 84.017834 
L 0 80.032884 
z
"/>
    </g>
   </g>
   <g id="patch_23">
    <path d="M 417.784 125.052 
C 418.500048 125.052 419.186866 124.767511 419.693188 124.261188 
C 420.199511 123.754866 420.484 123.068048 420.484 122.352 
C 420.484 121.635952 420.199511 120.949134 419.693188 120.442812 
C 419.186866 119.936489 418.500048 119.652 417.784 119.652 
C 417.067952 119.652 416.381134 119.936489 415.874812 120.442812 
C 415.368489 120.949134 415.084 121.635952 415.084 122.352 
C 415.084 123.068048 415.368489 123.754866 415.874812 124.261188 
C 416.381134 124.767511 417.067952 125.052 417.784 125.052 
z
" clip-path="url(#pd5a1ed2fd2)" style="fill: #ffffff; stroke: #000000; stroke-width: 2; stroke-linejoin: miter"/>
   </g>
   <g id="text_18">
    <!-- $T$ -->
    <g transform="translate(413.209997 112.952524) scale(0.16 -0.16)">
     <defs>
      <path id="CMMI12-54" d="M 2669 3910 
C 2707 4064 2720 4121 2816 4147 
C 2867 4160 3078 4160 3213 4160 
C 3853 4160 4154 4134 4154 3634 
C 4154 3537 4128 3295 4090 3057 
L 4083 2980 
C 4083 2954 4109 2916 4147 2916 
C 4211 2916 4211 2948 4230 3050 
L 4416 4184 
C 4429 4243 4429 4256 4429 4275 
C 4429 4345 4390 4345 4262 4345 
L 762 4345 
C 614 4345 608 4339 570 4224 
L 179 3070 
C 173 3056 154 2986 154 2980 
C 154 2948 179 2916 218 2916 
C 269 2916 282 2941 307 3024 
C 576 3801 710 4160 1562 4160 
L 1990 4160 
C 2144 4160 2208 4160 2208 4089 
C 2208 4069 2208 4057 2176 3941 
L 1318 499 
C 1254 249 1242 185 563 185 
C 403 185 358 185 358 64 
C 358 0 429 0 461 0 
C 621 0 787 0 947 0 
L 1946 0 
C 2106 0 2278 0 2438 0 
C 2509 0 2573 0 2573 121 
C 2573 185 2528 185 2362 185 
C 1786 185 1786 243 1786 339 
C 1786 346 1786 391 1811 494 
L 2669 3910 
z
" transform="scale(0.015625)"/>
     </defs>
     <use xlink:href="#CMMI12-54" transform="scale(0.996264)"/>
    </g>
   </g>
   <g id="patch_24">
    <path d="M 594.784 125.052 
C 595.500048 125.052 596.186866 124.767511 596.693188 124.261188 
C 597.199511 123.754866 597.484 123.068048 597.484 122.352 
C 597.484 121.635952 597.199511 120.949134 596.693188 120.442812 
C 596.186866 119.936489 595.500048 119.652 594.784 119.652 
C 594.067952 119.652 593.381134 119.936489 592.874812 120.442812 
C 592.368489 120.949134 592.084 121.635952 592.084 122.352 
C 592.084 123.068048 592.368489 123.754866 592.874812 124.261188 
C 593.381134 124.767511 594.067952 125.052 594.784 125.052 
z
" clip-path="url(#pd5a1ed2fd2)" style="fill: #ffffff; stroke: #000000; stroke-width: 2; stroke-linejoin: miter"/>
   </g>
   <g id="text_19">
    <!-- $B$ -->
    <g transform="translate(588.855358 112.952524) scale(0.16 -0.16)">
     <defs>
      <path id="CMMI12-42" d="M 2342 3921 
C 2400 4160 2426 4160 2675 4160 
L 3507 4160 
C 4230 4160 4230 3544 4230 3485 
C 4230 2966 3712 2304 2867 2304 
L 1946 2304 
L 2342 3921 
z
M 3424 2275 
C 4122 2402 4755 2886 4755 3473 
C 4755 3970 4314 4352 3590 4352 
L 1536 4352 
C 1414 4352 1357 4352 1357 4226 
C 1357 4160 1414 4160 1510 4160 
C 1901 4160 1901 4112 1901 4044 
C 1901 4032 1901 3993 1875 3897 
L 1011 472 
C 954 249 941 185 493 185 
C 371 185 307 185 307 70 
C 307 0 346 0 474 0 
L 2669 0 
C 3648 0 4403 739 4403 1383 
C 4403 1906 3942 2224 3424 2275 
z
M 2515 185 
L 1651 185 
C 1562 185 1549 185 1510 192 
C 1440 198 1434 211 1434 261 
C 1434 305 1446 343 1459 399 
L 1907 2176 
L 3110 2176 
C 3866 2176 3866 1483 3866 1433 
C 3866 828 3309 185 2515 185 
z
" transform="scale(0.015625)"/>
     </defs>
     <use xlink:href="#CMMI12-42" transform="scale(0.996264)"/>
    </g>
   </g>
  </g>
 </g>
 <defs>
  <clipPath id="pd5a1ed2fd2">
   <rect x="0" y="-0" width="603.968" height="480.432"/>
  </clipPath>
 </defs>
</svg>
