<?xml version="1.0" encoding="utf-8" standalone="no"?>
<!DOCTYPE svg PUBLIC "-//W3C//DTD SVG 1.1//EN"
  "http://www.w3.org/Graphics/SVG/1.1/DTD/svg11.dtd">
<svg xmlns:xlink="http://www.w3.org/1999/xlink" width="422.688pt" height="431.8608pt" viewBox="0 0 422.688 431.8608" xmlns="http://www.w3.org/2000/svg" version="1.1">
 <metadata>
  <rdf:RDF xmlns:dc="http://purl.org/dc/elements/1.1/" xmlns:cc="http://creativecommons.org/ns#" xmlns:rdf="http://www.w3.org/1999/02/22-rdf-syntax-ns#">
   <cc:Work>
    <dc:type rdf:resource="http://purl.org/dc/dcmitype/StillImage"/>
    <dc:date>2025-05-25T14:12:11.278652</dc:date>
    <dc:format>image/svg+xml</dc:format>
    <dc:creator>
     <cc:Agent>
      <dc:title>Matplotlib v3.9.2, https://matplotlib.org/</dc:title>
     </cc:Agent>
    </dc:creator>
   </cc:Work>
  </rdf:RDF>
 </metadata>
 <defs>
  <style type="text/css">*{stroke-linejoin: round; stroke-linecap: butt}</style>
 </defs>
 <g id="figure_1">
  <g id="patch_1">
   <path d="M 0 431.8608 
L 422.688 431.8608 
L 422.688 0 
L 0 0 
L 0 431.8608 
z
" style="fill: none"/>
  </g>
  <g id="axes_1">
   <g id="patch_2">
    <path d="M 164.208 85.8264 
C 164.971785 85.8264 165.70439 85.522945 166.244468 84.982868 
C 166.784545 84.44279 167.088 83.710185 167.088 82.9464 
C 167.088 82.182615 166.784545 81.45001 166.244468 80.909932 
C 165.70439 80.369855 164.971785 80.0664 164.208 80.0664 
C 163.444215 80.0664 162.71161 80.369855 162.171532 80.909932 
C 161.631455 81.45001 161.328 82.182615 161.328 82.9464 
C 161.328 83.710185 161.631455 84.44279 162.171532 84.982868 
C 162.71161 85.522945 163.444215 85.8264 164.208 85.8264 
L 164.208 85.8264 
z
" clip-path="url(#p1d6e75c5c5)" style="fill: none; stroke: #000000; stroke-width: 2; stroke-linejoin: miter"/>
   </g>
   <g id="patch_3">
    <path d="M 331.608 85.8264 
C 332.371785 85.8264 333.10439 85.522945 333.644468 84.982868 
C 334.184545 84.44279 334.488 83.710185 334.488 82.9464 
C 334.488 82.182615 334.184545 81.45001 333.644468 80.909932 
C 333.10439 80.369855 332.371785 80.0664 331.608 80.0664 
C 330.844215 80.0664 330.11161 80.369855 329.571532 80.909932 
C 329.031455 81.45001 328.728 82.182615 328.728 82.9464 
C 328.728 83.710185 329.031455 84.44279 329.571532 84.982868 
C 330.11161 85.522945 330.844215 85.8264 331.608 85.8264 
L 331.608 85.8264 
z
" clip-path="url(#p1d6e75c5c5)" style="fill: none; stroke: #000000; stroke-width: 2; stroke-linejoin: miter"/>
   </g>
   <g id="patch_4">
    <path d="M 164.208 229.8264 
C 164.971785 229.8264 165.70439 229.522945 166.244468 228.982868 
C 166.784545 228.44279 167.088 227.710185 167.088 226.9464 
C 167.088 226.182615 166.784545 225.45001 166.244468 224.909932 
C 165.70439 224.369855 164.971785 224.0664 164.208 224.0664 
C 163.444215 224.0664 162.71161 224.369855 162.171532 224.909932 
C 161.631455 225.45001 161.328 226.182615 161.328 226.9464 
C 161.328 227.710185 161.631455 228.44279 162.171532 228.982868 
C 162.71161 229.522945 163.444215 229.8264 164.208 229.8264 
L 164.208 229.8264 
z
" clip-path="url(#p1d6e75c5c5)" style="fill: none; stroke: #000000; stroke-width: 2; stroke-linejoin: miter"/>
   </g>
   <g id="patch_5">
    <path d="M 164.208 373.8264 
C 164.971785 373.8264 165.70439 373.522945 166.244468 372.982868 
C 166.784545 372.44279 167.088 371.710185 167.088 370.9464 
C 167.088 370.182615 166.784545 369.45001 166.244468 368.909932 
C 165.70439 368.369855 164.971785 368.0664 164.208 368.0664 
C 163.444215 368.0664 162.71161 368.369855 162.171532 368.909932 
C 161.631455 369.45001 161.328 370.182615 161.328 370.9464 
C 161.328 371.710185 161.631455 372.44279 162.171532 372.982868 
C 162.71161 373.522945 163.444215 373.8264 164.208 373.8264 
L 164.208 373.8264 
z
" clip-path="url(#p1d6e75c5c5)" style="fill: none; stroke: #000000; stroke-width: 2; stroke-linejoin: miter"/>
   </g>
   <g id="patch_6">
    <path d="M 331.608 373.8264 
C 332.371785 373.8264 333.10439 373.522945 333.644468 372.982868 
C 334.184545 372.44279 334.488 371.710185 334.488 370.9464 
C 334.488 370.182615 334.184545 369.45001 333.644468 368.909932 
C 333.10439 368.369855 332.371785 368.0664 331.608 368.0664 
C 330.844215 368.0664 330.11161 368.369855 329.571532 368.909932 
C 329.031455 369.45001 328.728 370.182615 328.728 370.9464 
C 328.728 371.710185 329.031455 372.44279 329.571532 372.982868 
C 330.11161 373.522945 330.844215 373.8264 331.608 373.8264 
L 331.608 373.8264 
z
" clip-path="url(#p1d6e75c5c5)" style="fill: none; stroke: #000000; stroke-width: 2; stroke-linejoin: miter"/>
   </g>
   <g id="line2d_1">
    <path d="M 44.508 213.9864 
L 62.508 213.9864 
L 80.508 213.9864 
" clip-path="url(#p1d6e75c5c5)" style="fill: none; stroke: #000000; stroke-width: 2; stroke-linecap: round"/>
   </g>
   <g id="line2d_2">
    <path d="M 80.508 213.9864 
L 80.508 195.9864 
L 80.508 177.9864 
" clip-path="url(#p1d6e75c5c5)" style="fill: none; stroke: #000000; stroke-width: 2; stroke-linecap: round"/>
   </g>
   <g id="line2d_3">
    <path d="M 80.508 177.9864 
L 80.508 145.2264 
M 71.508 145.2264 
L 89.508 145.2264 
M 71.508 138.7464 
L 89.508 138.7464 
M 80.508 138.7464 
L 80.508 105.9864 
" clip-path="url(#p1d6e75c5c5)" style="fill: none; stroke: #000000; stroke-width: 2; stroke-linecap: round"/>
   </g>
   <g id="line2d_4">
    <path d="M 80.508 105.9864 
L 80.508 87.9864 
L 80.508 69.9864 
" clip-path="url(#p1d6e75c5c5)" style="fill: none; stroke: #000000; stroke-width: 2; stroke-linecap: round"/>
   </g>
   <g id="line2d_5">
    <path d="M 80.508 69.9864 
L 62.508 69.9864 
L 44.508 69.9864 
" clip-path="url(#p1d6e75c5c5)" style="fill: none; stroke: #000000; stroke-width: 2; stroke-linecap: round"/>
   </g>
   <g id="line2d_6">
    <path d="M 80.508 69.9864 
L 116.508 69.9864 
L 152.508 69.9864 
" clip-path="url(#p1d6e75c5c5)" style="fill: none; stroke: #000000; stroke-width: 2; stroke-linecap: round"/>
   </g>
   <g id="line2d_7">
    <path d="M 200.208 69.9864 
L 175.908 69.9864 
M 152.508 69.9864 
L 128.208 69.9864 
" clip-path="url(#p1d6e75c5c5)" style="fill: none; stroke: #000000; stroke-width: 2; stroke-linecap: round"/>
   </g>
   <g id="line2d_8">
    <path d="M 175.908 69.9864 
L 175.908 51.9864 
L 152.508 69.9864 
L 175.908 87.9864 
L 175.908 69.9864 
" clip-path="url(#p1d6e75c5c5)" style="fill: none; stroke: #000000; stroke-width: 2; stroke-linecap: round"/>
   </g>
   <g id="line2d_9">
    <path d="M 152.508 69.9864 
L 152.508 51.9864 
L 175.908 69.9864 
L 152.508 87.9864 
L 152.508 69.9864 
" clip-path="url(#p1d6e75c5c5)" style="fill: none; stroke: #000000; stroke-width: 2; stroke-linecap: round"/>
   </g>
   <g id="line2d_10">
    <path d="M 164.208 85.8264 
L 164.208 95.1864 
" clip-path="url(#p1d6e75c5c5)" style="fill: none; stroke: #000000; stroke-width: 2; stroke-linecap: round"/>
   </g>
   <g id="line2d_11">
    <path d="M 164.208 59.9064 
L 164.208 44.7864 
" clip-path="url(#p1d6e75c5c5)" style="fill: none; stroke: #000000; stroke-width: 2; stroke-linecap: round"/>
   </g>
   <g id="line2d_12">
    <path d="M 164.208 44.7864 
L 164.208 35.7864 
L 164.208 26.7864 
" clip-path="url(#p1d6e75c5c5)" style="fill: none; stroke: #000000; stroke-width: 2; stroke-linecap: round"/>
   </g>
   <g id="line2d_13">
    <path d="M 164.208 95.1864 
L 164.208 104.1864 
L 164.208 113.1864 
" clip-path="url(#p1d6e75c5c5)" style="fill: none; stroke: #000000; stroke-width: 2; stroke-linecap: round"/>
   </g>
   <g id="line2d_14">
    <path d="M 175.908 69.9864 
L 211.908 69.9864 
L 247.908 69.9864 
" clip-path="url(#p1d6e75c5c5)" style="fill: none; stroke: #000000; stroke-width: 2; stroke-linecap: round"/>
   </g>
   <g id="line2d_15">
    <path d="M 247.908 69.9864 
L 283.908 69.9864 
L 319.908 69.9864 
" clip-path="url(#p1d6e75c5c5)" style="fill: none; stroke: #000000; stroke-width: 2; stroke-linecap: round"/>
   </g>
   <g id="line2d_16">
    <path d="M 367.608 69.9864 
L 343.308 69.9864 
M 319.908 69.9864 
L 295.608 69.9864 
" clip-path="url(#p1d6e75c5c5)" style="fill: none; stroke: #000000; stroke-width: 2; stroke-linecap: round"/>
   </g>
   <g id="line2d_17">
    <path d="M 343.308 69.9864 
L 343.308 51.9864 
L 319.908 69.9864 
L 343.308 87.9864 
L 343.308 69.9864 
" clip-path="url(#p1d6e75c5c5)" style="fill: none; stroke: #000000; stroke-width: 2; stroke-linecap: round"/>
   </g>
   <g id="line2d_18">
    <path d="M 319.908 69.9864 
L 319.908 51.9864 
L 343.308 69.9864 
L 319.908 87.9864 
L 319.908 69.9864 
" clip-path="url(#p1d6e75c5c5)" style="fill: none; stroke: #000000; stroke-width: 2; stroke-linecap: round"/>
   </g>
   <g id="line2d_19">
    <path d="M 331.608 85.8264 
L 331.608 95.1864 
" clip-path="url(#p1d6e75c5c5)" style="fill: none; stroke: #000000; stroke-width: 2; stroke-linecap: round"/>
   </g>
   <g id="line2d_20">
    <path d="M 331.608 59.9064 
L 331.608 44.7864 
" clip-path="url(#p1d6e75c5c5)" style="fill: none; stroke: #000000; stroke-width: 2; stroke-linecap: round"/>
   </g>
   <g id="line2d_21">
    <path d="M 331.608 44.7864 
L 331.608 35.7864 
L 331.608 26.7864 
" clip-path="url(#p1d6e75c5c5)" style="fill: none; stroke: #000000; stroke-width: 2; stroke-linecap: round"/>
   </g>
   <g id="line2d_22">
    <path d="M 331.608 95.1864 
L 331.608 104.1864 
L 331.608 113.1864 
" clip-path="url(#p1d6e75c5c5)" style="fill: none; stroke: #000000; stroke-width: 2; stroke-linecap: round"/>
   </g>
   <g id="line2d_23">
    <path d="M 343.308 69.9864 
L 379.308 69.9864 
L 415.308 69.9864 
" clip-path="url(#p1d6e75c5c5)" style="fill: none; stroke: #000000; stroke-width: 2; stroke-linecap: round"/>
   </g>
   <g id="line2d_24">
    <path d="M 415.308 69.9864 
L 415.308 141.9864 
L 415.308 213.9864 
" clip-path="url(#p1d6e75c5c5)" style="fill: none; stroke: #000000; stroke-width: 2; stroke-linecap: round"/>
   </g>
   <g id="line2d_25">
    <path d="M 247.908 69.9864 
L 247.908 87.9864 
L 247.908 105.9864 
" clip-path="url(#p1d6e75c5c5)" style="fill: none; stroke: #000000; stroke-width: 2; stroke-linecap: round"/>
   </g>
   <g id="line2d_26">
    <path d="M 247.908 105.9864 
L 247.908 138.7464 
M 256.908 138.7464 
L 238.908 138.7464 
M 256.908 145.2264 
L 238.908 145.2264 
M 247.908 145.2264 
L 247.908 177.9864 
" clip-path="url(#p1d6e75c5c5)" style="fill: none; stroke: #000000; stroke-width: 2; stroke-linecap: round"/>
   </g>
   <g id="line2d_27">
    <path d="M 247.908 177.9864 
L 247.908 195.9864 
L 247.908 213.9864 
" clip-path="url(#p1d6e75c5c5)" style="fill: none; stroke: #000000; stroke-width: 2; stroke-linecap: round"/>
   </g>
   <g id="line2d_28">
    <path d="M 80.508 213.9864 
L 116.508 213.9864 
L 152.508 213.9864 
" clip-path="url(#p1d6e75c5c5)" style="fill: none; stroke: #000000; stroke-width: 2; stroke-linecap: round"/>
   </g>
   <g id="line2d_29">
    <path d="M 200.208 213.9864 
L 175.908 213.9864 
M 152.508 213.9864 
L 128.208 213.9864 
" clip-path="url(#p1d6e75c5c5)" style="fill: none; stroke: #000000; stroke-width: 2; stroke-linecap: round"/>
   </g>
   <g id="line2d_30">
    <path d="M 175.908 213.9864 
L 175.908 195.9864 
L 152.508 213.9864 
L 175.908 231.9864 
L 175.908 213.9864 
" clip-path="url(#p1d6e75c5c5)" style="fill: none; stroke: #000000; stroke-width: 2; stroke-linecap: round"/>
   </g>
   <g id="line2d_31">
    <path d="M 152.508 213.9864 
L 152.508 195.9864 
L 175.908 213.9864 
L 152.508 231.9864 
L 152.508 213.9864 
" clip-path="url(#p1d6e75c5c5)" style="fill: none; stroke: #000000; stroke-width: 2; stroke-linecap: round"/>
   </g>
   <g id="line2d_32">
    <path d="M 164.208 229.8264 
L 164.208 239.1864 
" clip-path="url(#p1d6e75c5c5)" style="fill: none; stroke: #000000; stroke-width: 2; stroke-linecap: round"/>
   </g>
   <g id="line2d_33">
    <path d="M 164.208 203.9064 
L 164.208 188.7864 
" clip-path="url(#p1d6e75c5c5)" style="fill: none; stroke: #000000; stroke-width: 2; stroke-linecap: round"/>
   </g>
   <g id="line2d_34">
    <path d="M 164.208 188.7864 
L 164.208 179.7864 
L 164.208 170.7864 
" clip-path="url(#p1d6e75c5c5)" style="fill: none; stroke: #000000; stroke-width: 2; stroke-linecap: round"/>
   </g>
   <g id="line2d_35">
    <path d="M 164.208 239.1864 
L 164.208 248.1864 
L 164.208 257.1864 
" clip-path="url(#p1d6e75c5c5)" style="fill: none; stroke: #000000; stroke-width: 2; stroke-linecap: round"/>
   </g>
   <g id="line2d_36">
    <path d="M 175.908 213.9864 
L 211.908 213.9864 
L 247.908 213.9864 
" clip-path="url(#p1d6e75c5c5)" style="fill: none; stroke: #000000; stroke-width: 2; stroke-linecap: round"/>
   </g>
   <g id="line2d_37">
    <path d="M 247.908 213.9864 
L 331.608 213.9864 
L 415.308 213.9864 
" clip-path="url(#p1d6e75c5c5)" style="fill: none; stroke: #000000; stroke-width: 2; stroke-linecap: round"/>
   </g>
   <g id="line2d_38">
    <path d="M 80.508 213.9864 
L 80.508 231.9864 
L 80.508 249.9864 
" clip-path="url(#p1d6e75c5c5)" style="fill: none; stroke: #000000; stroke-width: 2; stroke-linecap: round"/>
   </g>
   <g id="line2d_39">
    <path d="M 80.508 249.9864 
L 80.508 282.7464 
M 89.508 282.7464 
L 71.508 282.7464 
M 89.508 289.2264 
L 71.508 289.2264 
M 80.508 289.2264 
L 80.508 321.9864 
" clip-path="url(#p1d6e75c5c5)" style="fill: none; stroke: #000000; stroke-width: 2; stroke-linecap: round"/>
   </g>
   <g id="line2d_40">
    <path d="M 80.508 321.9864 
L 80.508 339.9864 
L 80.508 357.9864 
" clip-path="url(#p1d6e75c5c5)" style="fill: none; stroke: #000000; stroke-width: 2; stroke-linecap: round"/>
   </g>
   <g id="line2d_41">
    <path d="M 80.508 357.9864 
L 62.508 357.9864 
L 44.508 357.9864 
" clip-path="url(#p1d6e75c5c5)" style="fill: none; stroke: #000000; stroke-width: 2; stroke-linecap: round"/>
   </g>
   <g id="line2d_42">
    <path d="M 80.508 357.9864 
L 116.508 357.9864 
L 152.508 357.9864 
" clip-path="url(#p1d6e75c5c5)" style="fill: none; stroke: #000000; stroke-width: 2; stroke-linecap: round"/>
   </g>
   <g id="line2d_43">
    <path d="M 200.208 357.9864 
L 175.908 357.9864 
M 152.508 357.9864 
L 128.208 357.9864 
" clip-path="url(#p1d6e75c5c5)" style="fill: none; stroke: #000000; stroke-width: 2; stroke-linecap: round"/>
   </g>
   <g id="line2d_44">
    <path d="M 175.908 357.9864 
L 175.908 339.9864 
L 152.508 357.9864 
L 175.908 375.9864 
L 175.908 357.9864 
" clip-path="url(#p1d6e75c5c5)" style="fill: none; stroke: #000000; stroke-width: 2; stroke-linecap: round"/>
   </g>
   <g id="line2d_45">
    <path d="M 152.508 357.9864 
L 152.508 339.9864 
L 175.908 357.9864 
L 152.508 375.9864 
L 152.508 357.9864 
" clip-path="url(#p1d6e75c5c5)" style="fill: none; stroke: #000000; stroke-width: 2; stroke-linecap: round"/>
   </g>
   <g id="line2d_46">
    <path d="M 164.208 373.8264 
L 164.208 383.1864 
" clip-path="url(#p1d6e75c5c5)" style="fill: none; stroke: #000000; stroke-width: 2; stroke-linecap: round"/>
   </g>
   <g id="line2d_47">
    <path d="M 164.208 347.9064 
L 164.208 332.7864 
" clip-path="url(#p1d6e75c5c5)" style="fill: none; stroke: #000000; stroke-width: 2; stroke-linecap: round"/>
   </g>
   <g id="line2d_48">
    <path d="M 164.208 332.7864 
L 164.208 323.7864 
L 164.208 314.7864 
" clip-path="url(#p1d6e75c5c5)" style="fill: none; stroke: #000000; stroke-width: 2; stroke-linecap: round"/>
   </g>
   <g id="line2d_49">
    <path d="M 164.208 383.1864 
L 164.208 392.1864 
L 164.208 401.1864 
" clip-path="url(#p1d6e75c5c5)" style="fill: none; stroke: #000000; stroke-width: 2; stroke-linecap: round"/>
   </g>
   <g id="line2d_50">
    <path d="M 175.908 357.9864 
L 211.908 357.9864 
L 247.908 357.9864 
" clip-path="url(#p1d6e75c5c5)" style="fill: none; stroke: #000000; stroke-width: 2; stroke-linecap: round"/>
   </g>
   <g id="line2d_51">
    <path d="M 247.908 357.9864 
L 283.908 357.9864 
L 319.908 357.9864 
" clip-path="url(#p1d6e75c5c5)" style="fill: none; stroke: #000000; stroke-width: 2; stroke-linecap: round"/>
   </g>
   <g id="line2d_52">
    <path d="M 367.608 357.9864 
L 343.308 357.9864 
M 319.908 357.9864 
L 295.608 357.9864 
" clip-path="url(#p1d6e75c5c5)" style="fill: none; stroke: #000000; stroke-width: 2; stroke-linecap: round"/>
   </g>
   <g id="line2d_53">
    <path d="M 343.308 357.9864 
L 343.308 339.9864 
L 319.908 357.9864 
L 343.308 375.9864 
L 343.308 357.9864 
" clip-path="url(#p1d6e75c5c5)" style="fill: none; stroke: #000000; stroke-width: 2; stroke-linecap: round"/>
   </g>
   <g id="line2d_54">
    <path d="M 319.908 357.9864 
L 319.908 339.9864 
L 343.308 357.9864 
L 319.908 375.9864 
L 319.908 357.9864 
" clip-path="url(#p1d6e75c5c5)" style="fill: none; stroke: #000000; stroke-width: 2; stroke-linecap: round"/>
   </g>
   <g id="line2d_55">
    <path d="M 331.608 373.8264 
L 331.608 383.1864 
" clip-path="url(#p1d6e75c5c5)" style="fill: none; stroke: #000000; stroke-width: 2; stroke-linecap: round"/>
   </g>
   <g id="line2d_56">
    <path d="M 331.608 347.9064 
L 331.608 332.7864 
" clip-path="url(#p1d6e75c5c5)" style="fill: none; stroke: #000000; stroke-width: 2; stroke-linecap: round"/>
   </g>
   <g id="line2d_57">
    <path d="M 331.608 332.7864 
L 331.608 323.7864 
L 331.608 314.7864 
" clip-path="url(#p1d6e75c5c5)" style="fill: none; stroke: #000000; stroke-width: 2; stroke-linecap: round"/>
   </g>
   <g id="line2d_58">
    <path d="M 331.608 383.1864 
L 331.608 392.1864 
L 331.608 401.1864 
" clip-path="url(#p1d6e75c5c5)" style="fill: none; stroke: #000000; stroke-width: 2; stroke-linecap: round"/>
   </g>
   <g id="line2d_59">
    <path d="M 343.308 357.9864 
L 379.308 357.9864 
L 415.308 357.9864 
" clip-path="url(#p1d6e75c5c5)" style="fill: none; stroke: #000000; stroke-width: 2; stroke-linecap: round"/>
   </g>
   <g id="line2d_60">
    <path d="M 415.308 357.9864 
L 415.308 285.9864 
L 415.308 213.9864 
" clip-path="url(#p1d6e75c5c5)" style="fill: none; stroke: #000000; stroke-width: 2; stroke-linecap: round"/>
   </g>
   <g id="line2d_61">
    <path d="M 247.908 357.9864 
L 247.908 339.9864 
L 247.908 321.9864 
" clip-path="url(#p1d6e75c5c5)" style="fill: none; stroke: #000000; stroke-width: 2; stroke-linecap: round"/>
   </g>
   <g id="line2d_62">
    <path d="M 247.908 321.9864 
L 247.908 289.2264 
M 238.908 289.2264 
L 256.908 289.2264 
M 238.908 282.7464 
L 256.908 282.7464 
M 247.908 282.7464 
L 247.908 249.9864 
" clip-path="url(#p1d6e75c5c5)" style="fill: none; stroke: #000000; stroke-width: 2; stroke-linecap: round"/>
   </g>
   <g id="line2d_63">
    <path d="M 247.908 249.9864 
L 247.908 231.9864 
L 247.908 213.9864 
" clip-path="url(#p1d6e75c5c5)" style="fill: none; stroke: #000000; stroke-width: 2; stroke-linecap: round"/>
   </g>
   <g id="patch_7">
    <path d="M 80.508 216.6864 
C 81.224048 216.6864 81.910866 216.401911 82.417188 215.895588 
C 82.923511 215.389266 83.208 214.702448 83.208 213.9864 
C 83.208 213.270352 82.923511 212.583534 82.417188 212.077212 
C 81.910866 211.570889 81.224048 211.2864 80.508 211.2864 
C 79.791952 211.2864 79.105134 211.570889 78.598812 212.077212 
C 78.092489 212.583534 77.808 213.270352 77.808 213.9864 
C 77.808 214.702448 78.092489 215.389266 78.598812 215.895588 
C 79.105134 216.401911 79.791952 216.6864 80.508 216.6864 
z
" clip-path="url(#p1d6e75c5c5)" style="stroke: #000000; stroke-width: 2; stroke-linejoin: miter"/>
   </g>
   <g id="text_1">
    <!-- $C_2$ -->
    <g transform="translate(49.362203 145.971456) scale(0.16 -0.16)">
     <defs>
      <path id="CMMI12-43" d="M 4781 4423 
C 4781 4480 4736 4480 4723 4480 
C 4710 4480 4685 4480 4634 4416 
L 4192 3882 
C 3968 4264 3616 4480 3136 4480 
C 1754 4480 320 3088 320 1595 
C 320 533 1069 -128 2003 -128 
C 2515 -128 2963 88 3334 400 
C 3891 863 4058 1481 4058 1531 
C 4058 1588 4006 1588 3987 1588 
C 3930 1588 3923 1550 3910 1524 
C 3616 534 2752 57 2112 57 
C 1434 57 845 489 845 1391 
C 845 1595 909 2700 1632 3532 
C 1984 3939 2586 4295 3194 4295 
C 3898 4295 4211 3717 4211 3068 
C 4211 2903 4192 2764 4192 2738 
C 4192 2681 4256 2681 4275 2681 
C 4346 2681 4352 2687 4378 2801 
L 4781 4423 
z
" transform="scale(0.015625)"/>
      <path id="CMR17-32" d="M 2669 989 
L 2554 989 
C 2490 536 2438 459 2413 420 
C 2381 369 1920 369 1830 369 
L 602 369 
C 832 619 1280 1072 1824 1597 
C 2214 1967 2669 2402 2669 3035 
C 2669 3790 2067 4224 1395 4224 
C 691 4224 262 3604 262 3030 
C 262 2780 448 2748 525 2748 
C 589 2748 781 2787 781 3010 
C 781 3207 614 3264 525 3264 
C 486 3264 448 3258 422 3245 
C 544 3790 915 4058 1306 4058 
C 1862 4058 2227 3617 2227 3035 
C 2227 2479 1901 2000 1536 1584 
L 262 146 
L 262 0 
L 2515 0 
L 2669 989 
z
" transform="scale(0.015625)"/>
     </defs>
     <use xlink:href="#CMMI12-43" transform="scale(0.996264)"/>
     <use xlink:href="#CMR17-32" transform="translate(69.792037 -14.943915) scale(0.697382)"/>
    </g>
   </g>
   <g id="text_2">
    <!-- 900\,fF -->
    <g transform="translate(94.908 145.971456) scale(0.16 -0.16)">
     <defs>
      <path id="CMR17-39" d="M 2253 1864 
C 2253 464 1670 31 1190 31 
C 1043 31 685 31 538 294 
C 704 268 826 357 826 518 
C 826 692 685 749 595 749 
C 538 749 365 723 365 506 
C 365 71 742 -128 1203 -128 
C 1939 -128 2688 674 2688 2073 
C 2688 3817 1971 4179 1485 4179 
C 851 4179 243 3628 243 2778 
C 243 1991 762 1408 1414 1408 
C 1952 1408 2189 1903 2253 2112 
L 2253 1864 
z
M 1427 1510 
C 1254 1510 1011 1542 813 1922 
C 678 2169 678 2461 678 2771 
C 678 3146 678 3405 858 3684 
C 947 3817 1114 4032 1485 4032 
C 2240 4032 2240 2885 2240 2632 
C 2240 2182 2035 1510 1427 1510 
z
" transform="scale(0.015625)"/>
      <path id="CMR17-30" d="M 2688 2025 
C 2688 2416 2682 3080 2413 3591 
C 2176 4039 1798 4198 1466 4198 
C 1158 4198 768 4058 525 3597 
C 269 3118 243 2524 243 2025 
C 243 1661 250 1106 448 619 
C 723 -39 1216 -128 1466 -128 
C 1760 -128 2208 -7 2470 600 
C 2662 1042 2688 1559 2688 2025 
z
M 1466 -26 
C 1056 -26 813 325 723 812 
C 653 1188 653 1738 653 2096 
C 653 2588 653 2997 736 3387 
C 858 3929 1216 4096 1466 4096 
C 1728 4096 2067 3923 2189 3400 
C 2272 3036 2278 2607 2278 2096 
C 2278 1680 2278 1169 2202 792 
C 2067 95 1690 -26 1466 -26 
z
" transform="scale(0.015625)"/>
      <path id="CMR17-66" d="M 979 2560 
L 1709 2560 
L 1709 2725 
L 966 2725 
L 966 3494 
C 966 4022 1235 4352 1510 4352 
C 1594 4352 1690 4327 1754 4282 
C 1702 4269 1568 4225 1568 4067 
C 1568 3901 1696 3850 1786 3850 
C 1875 3850 2003 3901 2003 4067 
C 2003 4308 1773 4454 1517 4454 
C 1152 4454 653 4156 653 3481 
L 653 2725 
L 141 2725 
L 141 2560 
L 653 2560 
L 653 427 
C 653 184 627 153 218 153 
L 218 -13 
C 371 0 666 0 832 0 
C 1018 0 1344 0 1517 -13 
L 1517 153 
C 1056 153 979 153 979 439 
L 979 2560 
z
" transform="scale(0.015625)"/>
      <path id="CMR17-46" d="M 3482 4325 
L 326 4325 
L 326 4160 
C 768 4160 838 4160 838 3874 
L 838 446 
C 838 160 768 160 326 160 
L 326 0 
C 512 0 870 0 1069 0 
C 1331 0 1638 0 1901 0 
L 1901 160 
L 1760 160 
C 1274 160 1261 223 1261 452 
L 1261 2075 
L 1837 2075 
C 2432 2075 2490 1865 2490 1332 
L 2605 1332 
L 2605 2987 
L 2490 2987 
C 2490 2450 2432 2240 1837 2240 
L 1261 2240 
L 1261 3911 
C 1261 4128 1274 4160 1530 4160 
L 2355 4160 
C 3322 4160 3430 3765 3520 2916 
L 3635 2916 
L 3482 4325 
z
" transform="scale(0.015625)"/>
     </defs>
     <use xlink:href="#CMR17-39" transform="scale(0.996264)"/>
     <use xlink:href="#CMR17-30" transform="translate(45.690477 0) scale(0.996264)"/>
     <use xlink:href="#CMR17-30" transform="translate(91.380954 0) scale(0.996264)"/>
     <use xlink:href="#CMR17-66" transform="translate(152.302067 0) scale(0.996264)"/>
     <use xlink:href="#CMR17-46" transform="translate(179.775579 0) scale(0.996264)"/>
    </g>
   </g>
   <g id="patch_8">
    <path d="M 80.508 72.6864 
C 81.224048 72.6864 81.910866 72.401911 82.417188 71.895588 
C 82.923511 71.389266 83.208 70.702448 83.208 69.9864 
C 83.208 69.270352 82.923511 68.583534 82.417188 68.077212 
C 81.910866 67.570889 81.224048 67.2864 80.508 67.2864 
C 79.791952 67.2864 79.105134 67.570889 78.598812 68.077212 
C 78.092489 68.583534 77.808 69.270352 77.808 69.9864 
C 77.808 70.702448 78.092489 71.389266 78.598812 71.895588 
C 79.105134 72.401911 79.791952 72.6864 80.508 72.6864 
z
" clip-path="url(#p1d6e75c5c5)" style="stroke: #000000; stroke-width: 2; stroke-linejoin: miter"/>
   </g>
   <g id="text_3">
    <!-- $X_1$ -->
    <g transform="translate(129.741647 56.086924) scale(0.16 -0.16)">
     <defs>
      <path id="CMMI12-58" d="M 3040 2596 
L 2438 3994 
C 2522 4147 2714 4172 2790 4179 
C 2829 4179 2899 4179 2899 4292 
C 2899 4364 2842 4364 2803 4364 
C 2694 4364 2566 4364 2458 4364 
L 2086 4364 
C 1696 4364 1414 4364 1408 4364 
C 1357 4364 1293 4364 1293 4243 
C 1293 4179 1350 4179 1434 4179 
C 1805 4179 1830 4115 1894 3962 
L 2656 2185 
L 1267 693 
C 1037 442 762 198 288 198 
C 211 192 160 192 160 68 
C 160 48 166 0 237 0 
C 326 0 422 0 512 0 
L 813 0 
C 1018 0 1242 0 1440 0 
C 1485 0 1562 0 1562 115 
C 1562 179 1517 185 1478 185 
C 1350 198 1267 268 1267 370 
C 1267 479 1344 557 1530 748 
L 2099 1368 
C 2240 1516 2579 1886 2720 2026 
L 3392 453 
C 3398 441 3424 377 3424 370 
C 3424 313 3283 198 3078 198 
C 3040 198 2970 198 2970 71 
C 2970 0 3034 0 3066 0 
C 3174 0 3302 0 3411 0 
L 4115 0 
C 4230 0 4352 0 4461 0 
C 4506 0 4576 0 4576 130 
C 4576 198 4512 198 4454 198 
C 4070 198 4058 230 3949 465 
L 3104 2441 
L 3917 3316 
C 3981 3381 4128 3542 4186 3606 
C 4461 3896 4717 4160 5235 4160 
C 5299 4179 5363 4179 5363 4292 
C 5363 4364 5306 4364 5280 4364 
C 5190 4364 5094 4364 5005 4364 
L 4710 4364 
C 4506 4364 4282 4364 4083 4364 
C 4038 4364 3962 4364 3962 4249 
C 3962 4185 4006 4179 4045 4179 
C 4147 4167 4256 4116 4256 3994 
L 4250 3982 
C 4243 3937 4230 3873 4160 3797 
L 3040 2596 
z
" transform="scale(0.015625)"/>
      <path id="CMR17-31" d="M 1702 4058 
C 1702 4192 1696 4192 1606 4192 
C 1357 3916 979 3827 621 3827 
C 602 3827 570 3827 563 3808 
C 557 3795 557 3782 557 3648 
C 755 3648 1088 3686 1344 3839 
L 1344 461 
C 1344 236 1331 160 781 160 
L 589 160 
L 589 0 
C 896 0 1216 0 1523 0 
C 1830 0 2150 0 2458 0 
L 2458 160 
L 2266 160 
C 1715 160 1702 230 1702 458 
L 1702 4058 
z
" transform="scale(0.015625)"/>
     </defs>
     <use xlink:href="#CMMI12-58" transform="scale(0.996264)"/>
     <use xlink:href="#CMR17-31" transform="translate(80.960224 -14.943915) scale(0.697382)"/>
    </g>
   </g>
   <g id="patch_9">
    <path d="M 247.908 72.6864 
C 248.624048 72.6864 249.310866 72.401911 249.817188 71.895588 
C 250.323511 71.389266 250.608 70.702448 250.608 69.9864 
C 250.608 69.270352 250.323511 68.583534 249.817188 68.077212 
C 249.310866 67.570889 248.624048 67.2864 247.908 67.2864 
C 247.191952 67.2864 246.505134 67.570889 245.998812 68.077212 
C 245.492489 68.583534 245.208 69.270352 245.208 69.9864 
C 245.208 70.702448 245.492489 71.389266 245.998812 71.895588 
C 246.505134 72.401911 247.191952 72.6864 247.908 72.6864 
z
" clip-path="url(#p1d6e75c5c5)" style="stroke: #000000; stroke-width: 2; stroke-linejoin: miter"/>
   </g>
   <g id="text_4">
    <!-- $X_4$ -->
    <g transform="translate(297.141647 56.086924) scale(0.16 -0.16)">
     <defs>
      <path id="CMR17-34" d="M 2150 4122 
C 2150 4256 2144 4256 2029 4256 
L 128 1254 
L 128 1088 
L 1779 1088 
L 1779 457 
C 1779 224 1766 160 1318 160 
L 1197 160 
L 1197 0 
C 1402 0 1747 0 1965 0 
C 2182 0 2528 0 2733 0 
L 2733 160 
L 2611 160 
C 2163 160 2150 224 2150 457 
L 2150 1088 
L 2803 1088 
L 2803 1254 
L 2150 1254 
L 2150 4122 
z
M 1798 3703 
L 1798 1254 
L 256 1254 
L 1798 3703 
z
" transform="scale(0.015625)"/>
     </defs>
     <use xlink:href="#CMMI12-58" transform="scale(0.996264)"/>
     <use xlink:href="#CMR17-34" transform="translate(80.960224 -14.943915) scale(0.697382)"/>
    </g>
   </g>
   <g id="patch_10">
    <path d="M 415.308 216.6864 
C 416.024048 216.6864 416.710866 216.401911 417.217188 215.895588 
C 417.723511 215.389266 418.008 214.702448 418.008 213.9864 
C 418.008 213.270352 417.723511 212.583534 417.217188 212.077212 
C 416.710866 211.570889 416.024048 211.2864 415.308 211.2864 
C 414.591952 211.2864 413.905134 211.570889 413.398812 212.077212 
C 412.892489 212.583534 412.608 213.270352 412.608 213.9864 
C 412.608 214.702448 412.892489 215.389266 413.398812 215.895588 
C 413.905134 216.401911 414.591952 216.6864 415.308 216.6864 
z
" clip-path="url(#p1d6e75c5c5)" style="stroke: #000000; stroke-width: 2; stroke-linejoin: miter"/>
   </g>
   <g id="text_5">
    <!-- $C_1$ -->
    <g transform="translate(216.762203 145.971456) scale(0.16 -0.16)">
     <use xlink:href="#CMMI12-43" transform="scale(0.996264)"/>
     <use xlink:href="#CMR17-31" transform="translate(69.792037 -14.943915) scale(0.697382)"/>
    </g>
   </g>
   <g id="text_6">
    <!-- 100\,fF -->
    <g transform="translate(262.308 145.971456) scale(0.16 -0.16)">
     <use xlink:href="#CMR17-31" transform="scale(0.996264)"/>
     <use xlink:href="#CMR17-30" transform="translate(45.690477 0) scale(0.996264)"/>
     <use xlink:href="#CMR17-30" transform="translate(91.380954 0) scale(0.996264)"/>
     <use xlink:href="#CMR17-66" transform="translate(152.302067 0) scale(0.996264)"/>
     <use xlink:href="#CMR17-46" transform="translate(179.775579 0) scale(0.996264)"/>
    </g>
   </g>
   <g id="text_7">
    <!-- $X_2$ -->
    <g transform="translate(129.741647 200.086924) scale(0.16 -0.16)">
     <use xlink:href="#CMMI12-58" transform="scale(0.996264)"/>
     <use xlink:href="#CMR17-32" transform="translate(80.960224 -14.943915) scale(0.697382)"/>
    </g>
   </g>
   <g id="patch_11">
    <path d="M 247.908 216.6864 
C 248.624048 216.6864 249.310866 216.401911 249.817188 215.895588 
C 250.323511 215.389266 250.608 214.702448 250.608 213.9864 
C 250.608 213.270352 250.323511 212.583534 249.817188 212.077212 
C 249.310866 211.570889 248.624048 211.2864 247.908 211.2864 
C 247.191952 211.2864 246.505134 211.570889 245.998812 212.077212 
C 245.492489 212.583534 245.208 213.270352 245.208 213.9864 
C 245.208 214.702448 245.492489 215.389266 245.998812 215.895588 
C 246.505134 216.401911 247.191952 216.6864 247.908 216.6864 
z
" clip-path="url(#p1d6e75c5c5)" style="stroke: #000000; stroke-width: 2; stroke-linejoin: miter"/>
   </g>
   <g id="text_8">
    <!-- $C_2$ -->
    <g transform="translate(49.362203 289.971456) scale(0.16 -0.16)">
     <use xlink:href="#CMMI12-43" transform="scale(0.996264)"/>
     <use xlink:href="#CMR17-32" transform="translate(69.792037 -14.943915) scale(0.697382)"/>
    </g>
   </g>
   <g id="text_9">
    <!-- 900\,fF -->
    <g transform="translate(94.908 289.971456) scale(0.16 -0.16)">
     <use xlink:href="#CMR17-39" transform="scale(0.996264)"/>
     <use xlink:href="#CMR17-30" transform="translate(45.690477 0) scale(0.996264)"/>
     <use xlink:href="#CMR17-30" transform="translate(91.380954 0) scale(0.996264)"/>
     <use xlink:href="#CMR17-66" transform="translate(152.302067 0) scale(0.996264)"/>
     <use xlink:href="#CMR17-46" transform="translate(179.775579 0) scale(0.996264)"/>
    </g>
   </g>
   <g id="patch_12">
    <path d="M 80.508 360.6864 
C 81.224048 360.6864 81.910866 360.401911 82.417188 359.895588 
C 82.923511 359.389266 83.208 358.702448 83.208 357.9864 
C 83.208 357.270352 82.923511 356.583534 82.417188 356.077212 
C 81.910866 355.570889 81.224048 355.2864 80.508 355.2864 
C 79.791952 355.2864 79.105134 355.570889 78.598812 356.077212 
C 78.092489 356.583534 77.808 357.270352 77.808 357.9864 
C 77.808 358.702448 78.092489 359.389266 78.598812 359.895588 
C 79.105134 360.401911 79.791952 360.6864 80.508 360.6864 
z
" clip-path="url(#p1d6e75c5c5)" style="stroke: #000000; stroke-width: 2; stroke-linejoin: miter"/>
   </g>
   <g id="text_10">
    <!-- $X_3$ -->
    <g transform="translate(129.741647 344.086924) scale(0.16 -0.16)">
     <defs>
      <path id="CMR17-33" d="M 1414 2157 
C 1984 2157 2234 1662 2234 1090 
C 2234 320 1824 25 1453 25 
C 1114 25 563 194 390 693 
C 422 680 454 680 486 680 
C 640 680 755 782 755 948 
C 755 1133 614 1216 486 1216 
C 378 1216 211 1165 211 926 
C 211 335 787 -128 1466 -128 
C 2176 -128 2720 430 2720 1085 
C 2720 1707 2208 2157 1600 2227 
C 2086 2328 2554 2756 2554 3329 
C 2554 3820 2048 4179 1472 4179 
C 890 4179 378 3829 378 3329 
C 378 3110 544 3072 627 3072 
C 762 3072 877 3155 877 3321 
C 877 3486 762 3569 627 3569 
C 602 3569 570 3569 544 3557 
C 730 3959 1235 4032 1459 4032 
C 1683 4032 2106 3925 2106 3320 
C 2106 3143 2080 2828 1862 2550 
C 1670 2304 1453 2304 1242 2284 
C 1210 2284 1062 2269 1037 2269 
C 992 2263 966 2257 966 2208 
C 966 2163 973 2157 1101 2157 
L 1414 2157 
z
" transform="scale(0.015625)"/>
     </defs>
     <use xlink:href="#CMMI12-58" transform="scale(0.996264)"/>
     <use xlink:href="#CMR17-33" transform="translate(80.960224 -14.943915) scale(0.697382)"/>
    </g>
   </g>
   <g id="patch_13">
    <path d="M 247.908 360.6864 
C 248.624048 360.6864 249.310866 360.401911 249.817188 359.895588 
C 250.323511 359.389266 250.608 358.702448 250.608 357.9864 
C 250.608 357.270352 250.323511 356.583534 249.817188 356.077212 
C 249.310866 355.570889 248.624048 355.2864 247.908 355.2864 
C 247.191952 355.2864 246.505134 355.570889 245.998812 356.077212 
C 245.492489 356.583534 245.208 357.270352 245.208 357.9864 
C 245.208 358.702448 245.492489 359.389266 245.998812 359.895588 
C 246.505134 360.401911 247.191952 360.6864 247.908 360.6864 
z
" clip-path="url(#p1d6e75c5c5)" style="stroke: #000000; stroke-width: 2; stroke-linejoin: miter"/>
   </g>
   <g id="text_11">
    <!-- $X_5$ -->
    <g transform="translate(297.141647 344.086924) scale(0.16 -0.16)">
     <defs>
      <path id="CMR17-35" d="M 730 3692 
C 794 3666 1056 3584 1325 3584 
C 1920 3584 2246 3911 2432 4100 
C 2432 4157 2432 4192 2394 4192 
C 2387 4192 2374 4192 2323 4163 
C 2099 4058 1837 3973 1517 3973 
C 1325 3973 1037 3999 723 4139 
C 653 4171 640 4171 634 4171 
C 602 4171 595 4164 595 4037 
L 595 2203 
C 595 2089 595 2057 659 2057 
C 691 2057 704 2070 736 2114 
C 941 2401 1222 2522 1542 2522 
C 1766 2522 2246 2382 2246 1289 
C 2246 1085 2246 715 2054 421 
C 1894 159 1645 25 1370 25 
C 947 25 518 320 403 814 
C 429 807 480 795 506 795 
C 589 795 749 840 749 1038 
C 749 1210 627 1280 506 1280 
C 358 1280 262 1190 262 1011 
C 262 454 704 -128 1382 -128 
C 2042 -128 2669 440 2669 1264 
C 2669 2030 2170 2624 1549 2624 
C 1222 2624 947 2503 730 2274 
L 730 3692 
z
" transform="scale(0.015625)"/>
     </defs>
     <use xlink:href="#CMMI12-58" transform="scale(0.996264)"/>
     <use xlink:href="#CMR17-35" transform="translate(80.960224 -14.943915) scale(0.697382)"/>
    </g>
   </g>
   <g id="text_12">
    <!-- $C_1$ -->
    <g transform="translate(216.762203 289.971456) scale(0.16 -0.16)">
     <use xlink:href="#CMMI12-43" transform="scale(0.996264)"/>
     <use xlink:href="#CMR17-31" transform="translate(69.792037 -14.943915) scale(0.697382)"/>
    </g>
   </g>
   <g id="text_13">
    <!-- 100\,fF -->
    <g transform="translate(262.308 289.971456) scale(0.16 -0.16)">
     <use xlink:href="#CMR17-31" transform="scale(0.996264)"/>
     <use xlink:href="#CMR17-30" transform="translate(45.690477 0) scale(0.996264)"/>
     <use xlink:href="#CMR17-30" transform="translate(91.380954 0) scale(0.996264)"/>
     <use xlink:href="#CMR17-66" transform="translate(152.302067 0) scale(0.996264)"/>
     <use xlink:href="#CMR17-46" transform="translate(179.775579 0) scale(0.996264)"/>
    </g>
   </g>
   <g id="patch_14">
    <path d="M 44.508 216.6864 
C 45.224048 216.6864 45.910866 216.401911 46.417188 215.895588 
C 46.923511 215.389266 47.208 214.702448 47.208 213.9864 
C 47.208 213.270352 46.923511 212.583534 46.417188 212.077212 
C 45.910866 211.570889 45.224048 211.2864 44.508 211.2864 
C 43.791952 211.2864 43.105134 211.570889 42.598812 212.077212 
C 42.092489 212.583534 41.808 213.270352 41.808 213.9864 
C 41.808 214.702448 42.092489 215.389266 42.598812 215.895588 
C 43.105134 216.401911 43.791952 216.6864 44.508 216.6864 
z
" clip-path="url(#p1d6e75c5c5)" style="fill: #ffffff; stroke: #000000; stroke-width: 2; stroke-linejoin: miter"/>
   </g>
   <g id="text_14">
    <!-- $V_\mathrm{cmfb}$ -->
    <g transform="translate(3.442844 217.971456) scale(0.16 -0.16)">
     <defs>
      <path id="CMMI12-56" d="M 3962 3640 
C 4179 3984 4378 4136 4704 4162 
C 4768 4168 4819 4168 4819 4282 
C 4819 4308 4806 4346 4749 4346 
C 4634 4346 4358 4346 4243 4346 
C 4058 4346 3866 4346 3686 4346 
C 3635 4346 3571 4346 3571 4226 
C 3571 4168 3629 4162 3654 4162 
C 3891 4143 3917 4029 3917 3952 
C 3917 3857 3827 3710 3821 3704 
L 1811 540 
L 1363 3969 
C 1363 4160 1696 4160 1766 4160 
C 1862 4160 1920 4160 1920 4282 
C 1920 4346 1850 4346 1830 4346 
C 1722 4346 1594 4346 1485 4346 
L 1126 4346 
C 659 4346 467 4346 461 4346 
C 422 4346 346 4346 346 4230 
C 346 4160 390 4160 493 4160 
C 819 4160 838 4102 858 3944 
L 1370 24 
C 1389 -109 1389 -128 1478 -128 
C 1555 -128 1587 -109 1651 -8 
L 3962 3640 
z
" transform="scale(0.015625)"/>
      <path id="CMR17-63" d="M 2234 2240 
C 2112 2240 1933 2240 1933 2017 
C 1933 1838 2080 1787 2163 1787 
C 2208 1787 2394 1807 2394 2024 
C 2394 2467 1958 2803 1466 2803 
C 787 2803 211 2178 211 1363 
C 211 516 813 -64 1466 -64 
C 2259 -64 2458 677 2458 748 
C 2458 774 2451 793 2406 793 
C 2362 793 2355 787 2330 703 
C 2163 180 1798 51 1523 51 
C 1114 51 621 427 621 1369 
C 621 2338 1094 2688 1472 2688 
C 1722 2688 2093 2573 2234 2240 
z
" transform="scale(0.015625)"/>
      <path id="CMR17-6d" d="M 4326 1933 
C 4326 2252 4269 2790 3507 2790 
C 3072 2790 2771 2496 2656 2151 
L 2650 2151 
C 2573 2676 2195 2790 1837 2790 
C 1331 2790 1069 2400 973 2144 
L 966 2144 
L 966 2790 
L 211 2720 
L 211 2554 
C 589 2554 646 2515 646 2208 
L 646 428 
C 646 184 621 153 211 153 
L 211 -13 
C 365 0 646 0 813 0 
C 979 0 1267 0 1421 -13 
L 1421 153 
C 1011 153 986 178 986 428 
L 986 1658 
C 986 2247 1344 2688 1792 2688 
C 2266 2688 2317 2266 2317 1958 
L 2317 428 
C 2317 184 2291 153 1882 153 
L 1882 -13 
C 2035 0 2317 0 2483 0 
C 2650 0 2938 0 3091 -13 
L 3091 153 
C 2682 153 2656 178 2656 428 
L 2656 1658 
C 2656 2247 3014 2688 3462 2688 
C 3936 2688 3987 2266 3987 1958 
L 3987 428 
C 3987 184 3962 153 3552 153 
L 3552 -13 
C 3706 0 3987 0 4154 0 
C 4320 0 4608 0 4762 -13 
L 4762 153 
C 4352 153 4326 178 4326 428 
L 4326 1933 
z
" transform="scale(0.015625)"/>
      <path id="CMR17-62" d="M 960 4396 
L 198 4326 
L 198 4160 
C 576 4160 634 4122 634 3817 
L 634 -13 
L 749 -13 
L 934 441 
C 1120 141 1395 -64 1766 -64 
C 2406 -64 3053 500 3053 1370 
C 3053 2188 2477 2790 1830 2790 
C 1434 2790 1152 2579 960 2330 
L 960 4396 
z
M 973 2004 
C 973 2118 973 2138 1062 2272 
C 1312 2657 1670 2688 1792 2688 
C 1984 2688 2643 2585 2643 1376 
C 2643 108 1888 38 1734 38 
C 1536 38 1248 114 1043 486 
C 973 608 973 621 973 735 
L 973 2004 
z
" transform="scale(0.015625)"/>
     </defs>
     <use xlink:href="#CMMI12-56" transform="scale(0.996264)"/>
     <use xlink:href="#CMR17-63" transform="translate(56.869579 -14.943915) scale(0.697382)"/>
     <use xlink:href="#CMR17-6d" transform="translate(85.209411 -14.943915) scale(0.697382)"/>
     <use xlink:href="#CMR17-66" transform="translate(139.052877 -14.943915) scale(0.697382)"/>
     <use xlink:href="#CMR17-62" transform="translate(158.284242 -14.943915) scale(0.697382)"/>
    </g>
   </g>
   <g id="patch_15">
    <path d="M 44.508 72.6864 
C 45.224048 72.6864 45.910866 72.401911 46.417188 71.895588 
C 46.923511 71.389266 47.208 70.702448 47.208 69.9864 
C 47.208 69.270352 46.923511 68.583534 46.417188 68.077212 
C 45.910866 67.570889 45.224048 67.2864 44.508 67.2864 
C 43.791952 67.2864 43.105134 67.570889 42.598812 68.077212 
C 42.092489 68.583534 41.808 69.270352 41.808 69.9864 
C 41.808 70.702448 42.092489 71.389266 42.598812 71.895588 
C 43.105134 72.401911 43.791952 72.6864 44.508 72.6864 
z
" clip-path="url(#p1d6e75c5c5)" style="fill: #ffffff; stroke: #000000; stroke-width: 2; stroke-linejoin: miter"/>
   </g>
   <g id="text_15">
    <!-- $V_\mathrm{out,p}$ -->
    <g transform="translate(1.893113 73.152316) scale(0.16 -0.16)">
     <defs>
      <path id="CMR17-6f" d="M 2758 1356 
C 2758 2176 2163 2816 1466 2816 
C 768 2816 173 2176 173 1356 
C 173 551 768 -64 1466 -64 
C 2163 -64 2758 551 2758 1356 
z
M 1466 51 
C 1165 51 909 230 762 480 
C 602 767 582 1126 582 1408 
C 582 1677 595 2010 762 2298 
C 890 2509 1139 2714 1466 2714 
C 1754 2714 1997 2554 2150 2330 
C 2349 2029 2349 1607 2349 1408 
C 2349 1158 2336 775 2163 467 
C 1984 173 1709 51 1466 51 
z
" transform="scale(0.015625)"/>
      <path id="CMR17-75" d="M 1882 2693 
L 1882 2528 
C 2259 2528 2317 2489 2317 2186 
L 2317 1032 
C 2317 500 2029 38 1555 38 
C 1030 38 986 348 986 678 
L 986 2763 
L 211 2693 
L 211 2528 
C 467 2528 640 2528 646 2274 
L 646 1058 
C 646 633 646 361 813 183 
C 896 101 1056 -64 1517 -64 
C 2061 -64 2272 377 2323 506 
L 2330 506 
L 2330 -63 
L 3091 -63 
L 3091 128 
C 2714 128 2656 166 2656 473 
L 2656 2763 
L 1882 2693 
z
" transform="scale(0.015625)"/>
      <path id="CMR17-74" d="M 966 2560 
L 1862 2560 
L 1862 2725 
L 966 2725 
L 966 3904 
L 851 3904 
C 838 3245 614 2668 70 2668 
L 70 2560 
L 627 2560 
L 627 771 
C 627 650 627 -64 1370 -64 
C 1747 -64 1965 306 1965 777 
L 1965 1140 
L 1850 1140 
L 1850 783 
C 1850 344 1677 51 1408 51 
C 1222 51 966 178 966 758 
L 966 2560 
z
" transform="scale(0.015625)"/>
      <path id="CMMI12-3b" d="M 1248 -31 
C 1248 343 1126 619 864 619 
C 659 619 557 453 557 313 
C 557 172 653 0 870 0 
C 954 0 1024 26 1082 83 
C 1094 96 1101 96 1107 96 
C 1120 96 1120 5 1120 -27 
C 1120 -240 1082 -659 710 -1080 
C 640 -1157 640 -1170 640 -1183 
C 640 -1216 672 -1248 704 -1248 
C 755 -1248 1248 -771 1248 -31 
z
" transform="scale(0.015625)"/>
      <path id="CMR17-70" d="M 1408 -1063 
C 998 -1063 973 -1037 973 -789 
L 973 402 
C 1158 134 1427 -38 1766 -38 
C 2406 -38 3053 523 3053 1388 
C 3053 2191 2496 2802 1837 2802 
C 1453 2802 1139 2592 960 2338 
L 960 2802 
L 198 2732 
L 198 2567 
C 576 2567 634 2528 634 2223 
L 634 -789 
C 634 -1031 608 -1063 198 -1063 
L 198 -1228 
C 352 -1216 634 -1216 800 -1216 
C 966 -1216 1254 -1216 1408 -1228 
L 1408 -1063 
z
M 973 2012 
C 973 2102 973 2235 1222 2471 
C 1254 2497 1472 2688 1792 2688 
C 2259 2688 2643 2108 2643 1382 
C 2643 656 2234 64 1728 64 
C 1498 64 1248 172 1056 472 
C 973 612 973 650 973 752 
L 973 2012 
z
" transform="scale(0.015625)"/>
     </defs>
     <use xlink:href="#CMMI12-56" transform="scale(0.996264)"/>
     <use xlink:href="#CMR17-6f" transform="translate(56.869579 -14.943915) scale(0.697382)"/>
     <use xlink:href="#CMR17-75" transform="translate(88.852761 -14.943915) scale(0.697382)"/>
     <use xlink:href="#CMR17-74" transform="translate(124.479369 -14.943915) scale(0.697382)"/>
     <use xlink:href="#CMMI12-3b" transform="translate(149.17579 -14.943915) scale(0.697382)"/>
     <use xlink:href="#CMR17-70" transform="translate(168.143723 -14.943915) scale(0.697382)"/>
    </g>
   </g>
   <g id="patch_16">
    <path d="M 164.208 29.4864 
C 164.924048 29.4864 165.610866 29.201911 166.117188 28.695588 
C 166.623511 28.189266 166.908 27.502448 166.908 26.7864 
C 166.908 26.070352 166.623511 25.383534 166.117188 24.877212 
C 165.610866 24.370889 164.924048 24.0864 164.208 24.0864 
C 163.491952 24.0864 162.805134 24.370889 162.298812 24.877212 
C 161.792489 25.383534 161.508 26.070352 161.508 26.7864 
C 161.508 27.502448 161.792489 28.189266 162.298812 28.695588 
C 162.805134 29.201911 163.491952 29.4864 164.208 29.4864 
z
" clip-path="url(#p1d6e75c5c5)" style="fill: #ffffff; stroke: #000000; stroke-width: 2; stroke-linejoin: miter"/>
   </g>
   <g id="text_16">
    <!-- $\Phi_4$ -->
    <g transform="translate(155.782252 15.586924) scale(0.16 -0.16)">
     <defs>
      <path id="CMR17-8" d="M 2330 818 
C 3366 907 3974 1553 3974 2172 
C 3974 2818 3341 3444 2330 3534 
L 2330 3897 
C 2330 4128 2342 4192 2829 4192 
L 2970 4192 
L 2970 4352 
C 2707 4352 2400 4352 2131 4352 
C 1862 4352 1549 4352 1286 4352 
L 1286 4192 
L 1427 4192 
C 1914 4192 1926 4128 1926 3897 
L 1926 3534 
C 922 3444 294 2811 294 2179 
C 294 1521 947 907 1926 818 
L 1926 454 
C 1926 224 1914 160 1427 160 
L 1286 160 
L 1286 0 
C 1549 0 1862 0 2131 0 
C 2400 0 2707 0 2970 0 
L 2970 160 
L 2829 160 
C 2342 160 2330 224 2330 454 
L 2330 818 
z
M 1926 927 
C 1350 991 768 1323 768 2173 
C 768 3048 1370 3367 1926 3425 
L 1926 927 
z
M 2330 3425 
C 2835 3380 3501 3093 3501 2179 
C 3501 1240 2810 972 2330 927 
L 2330 3425 
z
" transform="scale(0.015625)"/>
     </defs>
     <use xlink:href="#CMR17-8" transform="scale(0.996264)"/>
     <use xlink:href="#CMR17-34" transform="translate(66.509881 -14.943915) scale(0.697382)"/>
    </g>
   </g>
   <g id="patch_17">
    <path d="M 164.208 115.8864 
C 164.924048 115.8864 165.610866 115.601911 166.117188 115.095588 
C 166.623511 114.589266 166.908 113.902448 166.908 113.1864 
C 166.908 112.470352 166.623511 111.783534 166.117188 111.277212 
C 165.610866 110.770889 164.924048 110.4864 164.208 110.4864 
C 163.491952 110.4864 162.805134 110.770889 162.298812 111.277212 
C 161.792489 111.783534 161.508 112.470352 161.508 113.1864 
C 161.508 113.902448 161.792489 114.589266 162.298812 115.095588 
C 162.805134 115.601911 163.491952 115.8864 164.208 115.8864 
z
" clip-path="url(#p1d6e75c5c5)" style="fill: #ffffff; stroke: #000000; stroke-width: 2; stroke-linejoin: miter"/>
   </g>
   <g id="text_17">
    <!-- $\overline{\Phi_4}$ -->
    <g transform="translate(155.533186 134.020811) scale(0.16 -0.16)">
     <use xlink:href="#CMR17-8" transform="scale(0.996264)"/>
     <use xlink:href="#CMR17-34" transform="translate(66.509881 -14.943915) scale(0.697382)"/>
     <path d="M 0 80.018823 
L 98.991195 80.018823 
L 98.991195 84.003772 
L 0 84.003772 
L 0 80.018823 
z
"/>
    </g>
   </g>
   <g id="patch_18">
    <path d="M 331.608 29.4864 
C 332.324048 29.4864 333.010866 29.201911 333.517188 28.695588 
C 334.023511 28.189266 334.308 27.502448 334.308 26.7864 
C 334.308 26.070352 334.023511 25.383534 333.517188 24.877212 
C 333.010866 24.370889 332.324048 24.0864 331.608 24.0864 
C 330.891952 24.0864 330.205134 24.370889 329.698812 24.877212 
C 329.192489 25.383534 328.908 26.070352 328.908 26.7864 
C 328.908 27.502448 329.192489 28.189266 329.698812 28.695588 
C 330.205134 29.201911 330.891952 29.4864 331.608 29.4864 
z
" clip-path="url(#p1d6e75c5c5)" style="fill: #ffffff; stroke: #000000; stroke-width: 2; stroke-linejoin: miter"/>
   </g>
   <g id="text_18">
    <!-- $\Phi_3$ -->
    <g transform="translate(323.182252 15.586924) scale(0.16 -0.16)">
     <use xlink:href="#CMR17-8" transform="scale(0.996264)"/>
     <use xlink:href="#CMR17-33" transform="translate(66.509881 -14.943915) scale(0.697382)"/>
    </g>
   </g>
   <g id="patch_19">
    <path d="M 331.608 115.8864 
C 332.324048 115.8864 333.010866 115.601911 333.517188 115.095588 
C 334.023511 114.589266 334.308 113.902448 334.308 113.1864 
C 334.308 112.470352 334.023511 111.783534 333.517188 111.277212 
C 333.010866 110.770889 332.324048 110.4864 331.608 110.4864 
C 330.891952 110.4864 330.205134 110.770889 329.698812 111.277212 
C 329.192489 111.783534 328.908 112.470352 328.908 113.1864 
C 328.908 113.902448 329.192489 114.589266 329.698812 115.095588 
C 330.205134 115.601911 330.891952 115.8864 331.608 115.8864 
z
" clip-path="url(#p1d6e75c5c5)" style="fill: #ffffff; stroke: #000000; stroke-width: 2; stroke-linejoin: miter"/>
   </g>
   <g id="text_19">
    <!-- $\overline{\Phi_3}$ -->
    <g transform="translate(322.933186 134.020811) scale(0.16 -0.16)">
     <use xlink:href="#CMR17-8" transform="scale(0.996264)"/>
     <use xlink:href="#CMR17-33" transform="translate(66.509881 -14.943915) scale(0.697382)"/>
     <path d="M 0 80.018823 
L 98.991195 80.018823 
L 98.991195 84.003772 
L 0 84.003772 
L 0 80.018823 
z
"/>
    </g>
   </g>
   <g id="patch_20">
    <path d="M 164.208 173.4864 
C 164.924048 173.4864 165.610866 173.201911 166.117188 172.695588 
C 166.623511 172.189266 166.908 171.502448 166.908 170.7864 
C 166.908 170.070352 166.623511 169.383534 166.117188 168.877212 
C 165.610866 168.370889 164.924048 168.0864 164.208 168.0864 
C 163.491952 168.0864 162.805134 168.370889 162.298812 168.877212 
C 161.792489 169.383534 161.508 170.070352 161.508 170.7864 
C 161.508 171.502448 161.792489 172.189266 162.298812 172.695588 
C 162.805134 173.201911 163.491952 173.4864 164.208 173.4864 
z
" clip-path="url(#p1d6e75c5c5)" style="fill: #ffffff; stroke: #000000; stroke-width: 2; stroke-linejoin: miter"/>
   </g>
   <g id="text_20">
    <!-- $\Phi_4$ -->
    <g transform="translate(155.782252 159.586924) scale(0.16 -0.16)">
     <use xlink:href="#CMR17-8" transform="scale(0.996264)"/>
     <use xlink:href="#CMR17-34" transform="translate(66.509881 -14.943915) scale(0.697382)"/>
    </g>
   </g>
   <g id="patch_21">
    <path d="M 164.208 259.8864 
C 164.924048 259.8864 165.610866 259.601911 166.117188 259.095588 
C 166.623511 258.589266 166.908 257.902448 166.908 257.1864 
C 166.908 256.470352 166.623511 255.783534 166.117188 255.277212 
C 165.610866 254.770889 164.924048 254.4864 164.208 254.4864 
C 163.491952 254.4864 162.805134 254.770889 162.298812 255.277212 
C 161.792489 255.783534 161.508 256.470352 161.508 257.1864 
C 161.508 257.902448 161.792489 258.589266 162.298812 259.095588 
C 162.805134 259.601911 163.491952 259.8864 164.208 259.8864 
z
" clip-path="url(#p1d6e75c5c5)" style="fill: #ffffff; stroke: #000000; stroke-width: 2; stroke-linejoin: miter"/>
   </g>
   <g id="text_21">
    <!-- $\overline{\Phi_4}$ -->
    <g transform="translate(155.533186 278.020811) scale(0.16 -0.16)">
     <use xlink:href="#CMR17-8" transform="scale(0.996264)"/>
     <use xlink:href="#CMR17-34" transform="translate(66.509881 -14.943915) scale(0.697382)"/>
     <path d="M 0 80.018823 
L 98.991195 80.018823 
L 98.991195 84.003772 
L 0 84.003772 
L 0 80.018823 
z
"/>
    </g>
   </g>
   <g id="patch_22">
    <path d="M 44.508 360.6864 
C 45.224048 360.6864 45.910866 360.401911 46.417188 359.895588 
C 46.923511 359.389266 47.208 358.702448 47.208 357.9864 
C 47.208 357.270352 46.923511 356.583534 46.417188 356.077212 
C 45.910866 355.570889 45.224048 355.2864 44.508 355.2864 
C 43.791952 355.2864 43.105134 355.570889 42.598812 356.077212 
C 42.092489 356.583534 41.808 357.270352 41.808 357.9864 
C 41.808 358.702448 42.092489 359.389266 42.598812 359.895588 
C 43.105134 360.401911 43.791952 360.6864 44.508 360.6864 
z
" clip-path="url(#p1d6e75c5c5)" style="fill: #ffffff; stroke: #000000; stroke-width: 2; stroke-linejoin: miter"/>
   </g>
   <g id="text_22">
    <!-- $V_\mathrm{out,n}$ -->
    <g transform="translate(1.893113 361.152316) scale(0.16 -0.16)">
     <defs>
      <path id="CMR17-6e" d="M 2656 1933 
C 2656 2259 2592 2790 1837 2790 
C 1331 2790 1069 2400 973 2144 
L 966 2144 
L 966 2790 
L 211 2720 
L 211 2554 
C 589 2554 646 2515 646 2208 
L 646 428 
C 646 184 621 153 211 153 
L 211 -13 
C 365 0 646 0 813 0 
C 979 0 1267 0 1421 -13 
L 1421 153 
C 1011 153 986 178 986 428 
L 986 1658 
C 986 2247 1344 2688 1792 2688 
C 2266 2688 2317 2266 2317 1958 
L 2317 428 
C 2317 184 2291 153 1882 153 
L 1882 -13 
C 2035 0 2317 0 2483 0 
C 2650 0 2938 0 3091 -13 
L 3091 153 
C 2682 153 2656 178 2656 428 
L 2656 1933 
z
" transform="scale(0.015625)"/>
     </defs>
     <use xlink:href="#CMMI12-56" transform="scale(0.996264)"/>
     <use xlink:href="#CMR17-6f" transform="translate(56.869579 -14.943915) scale(0.697382)"/>
     <use xlink:href="#CMR17-75" transform="translate(88.852761 -14.943915) scale(0.697382)"/>
     <use xlink:href="#CMR17-74" transform="translate(124.479369 -14.943915) scale(0.697382)"/>
     <use xlink:href="#CMMI12-3b" transform="translate(149.17579 -14.943915) scale(0.697382)"/>
     <use xlink:href="#CMR17-6e" transform="translate(168.143723 -14.943915) scale(0.697382)"/>
    </g>
   </g>
   <g id="patch_23">
    <path d="M 164.208 317.4864 
C 164.924048 317.4864 165.610866 317.201911 166.117188 316.695588 
C 166.623511 316.189266 166.908 315.502448 166.908 314.7864 
C 166.908 314.070352 166.623511 313.383534 166.117188 312.877212 
C 165.610866 312.370889 164.924048 312.0864 164.208 312.0864 
C 163.491952 312.0864 162.805134 312.370889 162.298812 312.877212 
C 161.792489 313.383534 161.508 314.070352 161.508 314.7864 
C 161.508 315.502448 161.792489 316.189266 162.298812 316.695588 
C 162.805134 317.201911 163.491952 317.4864 164.208 317.4864 
z
" clip-path="url(#p1d6e75c5c5)" style="fill: #ffffff; stroke: #000000; stroke-width: 2; stroke-linejoin: miter"/>
   </g>
   <g id="text_23">
    <!-- $\Phi_4$ -->
    <g transform="translate(155.782252 303.586924) scale(0.16 -0.16)">
     <use xlink:href="#CMR17-8" transform="scale(0.996264)"/>
     <use xlink:href="#CMR17-34" transform="translate(66.509881 -14.943915) scale(0.697382)"/>
    </g>
   </g>
   <g id="patch_24">
    <path d="M 164.208 403.8864 
C 164.924048 403.8864 165.610866 403.601911 166.117188 403.095588 
C 166.623511 402.589266 166.908 401.902448 166.908 401.1864 
C 166.908 400.470352 166.623511 399.783534 166.117188 399.277212 
C 165.610866 398.770889 164.924048 398.4864 164.208 398.4864 
C 163.491952 398.4864 162.805134 398.770889 162.298812 399.277212 
C 161.792489 399.783534 161.508 400.470352 161.508 401.1864 
C 161.508 401.902448 161.792489 402.589266 162.298812 403.095588 
C 162.805134 403.601911 163.491952 403.8864 164.208 403.8864 
z
" clip-path="url(#p1d6e75c5c5)" style="fill: #ffffff; stroke: #000000; stroke-width: 2; stroke-linejoin: miter"/>
   </g>
   <g id="text_24">
    <!-- $\overline{\Phi_4}$ -->
    <g transform="translate(155.533186 422.020811) scale(0.16 -0.16)">
     <use xlink:href="#CMR17-8" transform="scale(0.996264)"/>
     <use xlink:href="#CMR17-34" transform="translate(66.509881 -14.943915) scale(0.697382)"/>
     <path d="M 0 80.018823 
L 98.991195 80.018823 
L 98.991195 84.003772 
L 0 84.003772 
L 0 80.018823 
z
"/>
    </g>
   </g>
   <g id="patch_25">
    <path d="M 331.608 317.4864 
C 332.324048 317.4864 333.010866 317.201911 333.517188 316.695588 
C 334.023511 316.189266 334.308 315.502448 334.308 314.7864 
C 334.308 314.070352 334.023511 313.383534 333.517188 312.877212 
C 333.010866 312.370889 332.324048 312.0864 331.608 312.0864 
C 330.891952 312.0864 330.205134 312.370889 329.698812 312.877212 
C 329.192489 313.383534 328.908 314.070352 328.908 314.7864 
C 328.908 315.502448 329.192489 316.189266 329.698812 316.695588 
C 330.205134 317.201911 330.891952 317.4864 331.608 317.4864 
z
" clip-path="url(#p1d6e75c5c5)" style="fill: #ffffff; stroke: #000000; stroke-width: 2; stroke-linejoin: miter"/>
   </g>
   <g id="text_25">
    <!-- $\Phi_3$ -->
    <g transform="translate(323.182252 303.586924) scale(0.16 -0.16)">
     <use xlink:href="#CMR17-8" transform="scale(0.996264)"/>
     <use xlink:href="#CMR17-33" transform="translate(66.509881 -14.943915) scale(0.697382)"/>
    </g>
   </g>
   <g id="patch_26">
    <path d="M 331.608 403.8864 
C 332.324048 403.8864 333.010866 403.601911 333.517188 403.095588 
C 334.023511 402.589266 334.308 401.902448 334.308 401.1864 
C 334.308 400.470352 334.023511 399.783534 333.517188 399.277212 
C 333.010866 398.770889 332.324048 398.4864 331.608 398.4864 
C 330.891952 398.4864 330.205134 398.770889 329.698812 399.277212 
C 329.192489 399.783534 328.908 400.470352 328.908 401.1864 
C 328.908 401.902448 329.192489 402.589266 329.698812 403.095588 
C 330.205134 403.601911 330.891952 403.8864 331.608 403.8864 
z
" clip-path="url(#p1d6e75c5c5)" style="fill: #ffffff; stroke: #000000; stroke-width: 2; stroke-linejoin: miter"/>
   </g>
   <g id="text_26">
    <!-- $\overline{\Phi_3}$ -->
    <g transform="translate(322.933186 422.020811) scale(0.16 -0.16)">
     <use xlink:href="#CMR17-8" transform="scale(0.996264)"/>
     <use xlink:href="#CMR17-33" transform="translate(66.509881 -14.943915) scale(0.697382)"/>
     <path d="M 0 80.018823 
L 98.991195 80.018823 
L 98.991195 84.003772 
L 0 84.003772 
L 0 80.018823 
z
"/>
    </g>
   </g>
  </g>
 </g>
 <defs>
  <clipPath id="p1d6e75c5c5">
   <rect x="0" y="0" width="422.688" height="431.8608"/>
  </clipPath>
 </defs>
</svg>
