<?xml version="1.0" encoding="utf-8" standalone="no"?>
<!DOCTYPE svg PUBLIC "-//W3C//DTD SVG 1.1//EN"
  "http://www.w3.org/Graphics/SVG/1.1/DTD/svg11.dtd">
<svg xmlns:xlink="http://www.w3.org/1999/xlink" width="444.96pt" height="329.76pt" viewBox="0 0 444.96 329.76" xmlns="http://www.w3.org/2000/svg" version="1.1">
 <metadata>
  <rdf:RDF xmlns:dc="http://purl.org/dc/elements/1.1/" xmlns:cc="http://creativecommons.org/ns#" xmlns:rdf="http://www.w3.org/1999/02/22-rdf-syntax-ns#">
   <cc:Work>
    <dc:type rdf:resource="http://purl.org/dc/dcmitype/StillImage"/>
    <dc:date>2025-06-16T21:19:42.150656</dc:date>
    <dc:format>image/svg+xml</dc:format>
    <dc:creator>
     <cc:Agent>
      <dc:title>Matplotlib v3.9.2, https://matplotlib.org/</dc:title>
     </cc:Agent>
    </dc:creator>
   </cc:Work>
  </rdf:RDF>
 </metadata>
 <defs>
  <style type="text/css">*{stroke-linejoin: round; stroke-linecap: butt}</style>
 </defs>
 <g id="figure_1">
  <g id="patch_1">
   <path d="M 0 329.76 
L 444.96 329.76 
L 444.96 0 
L 0 0 
z
" style="fill: #ffffff"/>
  </g>
  <g id="axes_1">
   <g id="patch_2">
    <path d="M 53.136812 285.214399 
L 425.620465 285.214399 
L 425.620465 7.2 
L 53.136812 7.2 
z
" style="fill: #ffffff"/>
   </g>
   <g id="matplotlib.axis_1">
    <g id="xtick_1">
     <g id="line2d_1">
      <path d="M 53.136812 285.214399 
L 53.136812 7.2 
" clip-path="url(#p8614629844)" style="fill: none; stroke-dasharray: 2.96,1.28; stroke-dashoffset: 0; stroke: #b0b0b0; stroke-width: 0.8"/>
     </g>
     <g id="line2d_2">
      <defs>
       <path id="mbe8a527c70" d="M 0 0 
L 0 3.5 
" style="stroke: #000000; stroke-width: 0.8"/>
      </defs>
      <g>
       <use xlink:href="#mbe8a527c70" x="53.136812" y="285.214399" style="stroke: #000000; stroke-width: 0.8"/>
      </g>
     </g>
     <g id="text_1">
      <!-- $\mathdefault{5.0}$ -->
      <g transform="translate(44.411521 301.900275) scale(0.14 -0.14)">
       <defs>
        <path id="CMR17-35" d="M 730 3692 
C 794 3666 1056 3584 1325 3584 
C 1920 3584 2246 3911 2432 4100 
C 2432 4157 2432 4192 2394 4192 
C 2387 4192 2374 4192 2323 4163 
C 2099 4058 1837 3973 1517 3973 
C 1325 3973 1037 3999 723 4139 
C 653 4171 640 4171 634 4171 
C 602 4171 595 4164 595 4037 
L 595 2203 
C 595 2089 595 2057 659 2057 
C 691 2057 704 2070 736 2114 
C 941 2401 1222 2522 1542 2522 
C 1766 2522 2246 2382 2246 1289 
C 2246 1085 2246 715 2054 421 
C 1894 159 1645 25 1370 25 
C 947 25 518 320 403 814 
C 429 807 480 795 506 795 
C 589 795 749 840 749 1038 
C 749 1210 627 1280 506 1280 
C 358 1280 262 1190 262 1011 
C 262 454 704 -128 1382 -128 
C 2042 -128 2669 440 2669 1264 
C 2669 2030 2170 2624 1549 2624 
C 1222 2624 947 2503 730 2274 
L 730 3692 
z
" transform="scale(0.015625)"/>
        <path id="CMMI12-3a" d="M 1178 307 
C 1178 492 1024 619 870 619 
C 685 619 557 466 557 313 
C 557 128 710 0 864 0 
C 1050 0 1178 153 1178 307 
z
" transform="scale(0.015625)"/>
        <path id="CMR17-30" d="M 2688 2025 
C 2688 2416 2682 3080 2413 3591 
C 2176 4039 1798 4198 1466 4198 
C 1158 4198 768 4058 525 3597 
C 269 3118 243 2524 243 2025 
C 243 1661 250 1106 448 619 
C 723 -39 1216 -128 1466 -128 
C 1760 -128 2208 -7 2470 600 
C 2662 1042 2688 1559 2688 2025 
z
M 1466 -26 
C 1056 -26 813 325 723 812 
C 653 1188 653 1738 653 2096 
C 653 2588 653 2997 736 3387 
C 858 3929 1216 4096 1466 4096 
C 1728 4096 2067 3923 2189 3400 
C 2272 3036 2278 2607 2278 2096 
C 2278 1680 2278 1169 2202 792 
C 2067 95 1690 -26 1466 -26 
z
" transform="scale(0.015625)"/>
       </defs>
       <use xlink:href="#CMR17-35" transform="scale(0.996264)"/>
       <use xlink:href="#CMMI12-3a" transform="translate(45.690477 0) scale(0.996264)"/>
       <use xlink:href="#CMR17-30" transform="translate(72.787654 0) scale(0.996264)"/>
      </g>
     </g>
    </g>
    <g id="xtick_2">
     <g id="line2d_3">
      <path d="M 99.697269 285.214399 
L 99.697269 7.2 
" clip-path="url(#p8614629844)" style="fill: none; stroke-dasharray: 2.96,1.28; stroke-dashoffset: 0; stroke: #b0b0b0; stroke-width: 0.8"/>
     </g>
     <g id="line2d_4">
      <g>
       <use xlink:href="#mbe8a527c70" x="99.697269" y="285.214399" style="stroke: #000000; stroke-width: 0.8"/>
      </g>
     </g>
     <g id="text_2">
      <!-- $\mathdefault{7.5}$ -->
      <g transform="translate(90.971978 301.900275) scale(0.14 -0.14)">
       <defs>
        <path id="CMR17-37" d="M 2886 3941 
L 2886 4081 
L 1382 4081 
C 634 4081 621 4165 595 4288 
L 480 4288 
L 294 3094 
L 410 3094 
C 429 3215 474 3540 550 3661 
C 589 3712 1062 3712 1171 3712 
L 2579 3712 
L 1869 2661 
C 1395 1954 1069 999 1069 165 
C 1069 89 1069 -128 1299 -128 
C 1530 -128 1530 89 1530 171 
L 1530 465 
C 1530 1508 1709 2196 2003 2636 
L 2886 3941 
z
" transform="scale(0.015625)"/>
       </defs>
       <use xlink:href="#CMR17-37" transform="scale(0.996264)"/>
       <use xlink:href="#CMMI12-3a" transform="translate(45.690477 0) scale(0.996264)"/>
       <use xlink:href="#CMR17-35" transform="translate(72.787654 0) scale(0.996264)"/>
      </g>
     </g>
    </g>
    <g id="xtick_3">
     <g id="line2d_5">
      <path d="M 146.257725 285.214399 
L 146.257725 7.2 
" clip-path="url(#p8614629844)" style="fill: none; stroke-dasharray: 2.96,1.28; stroke-dashoffset: 0; stroke: #b0b0b0; stroke-width: 0.8"/>
     </g>
     <g id="line2d_6">
      <g>
       <use xlink:href="#mbe8a527c70" x="146.257725" y="285.214399" style="stroke: #000000; stroke-width: 0.8"/>
      </g>
     </g>
     <g id="text_3">
      <!-- $\mathdefault{10.0}$ -->
      <g transform="translate(134.11819 301.900275) scale(0.14 -0.14)">
       <defs>
        <path id="CMR17-31" d="M 1702 4058 
C 1702 4192 1696 4192 1606 4192 
C 1357 3916 979 3827 621 3827 
C 602 3827 570 3827 563 3808 
C 557 3795 557 3782 557 3648 
C 755 3648 1088 3686 1344 3839 
L 1344 461 
C 1344 236 1331 160 781 160 
L 589 160 
L 589 0 
C 896 0 1216 0 1523 0 
C 1830 0 2150 0 2458 0 
L 2458 160 
L 2266 160 
C 1715 160 1702 230 1702 458 
L 1702 4058 
z
" transform="scale(0.015625)"/>
       </defs>
       <use xlink:href="#CMR17-31" transform="scale(0.996264)"/>
       <use xlink:href="#CMR17-30" transform="translate(45.690477 0) scale(0.996264)"/>
       <use xlink:href="#CMMI12-3a" transform="translate(91.380954 0) scale(0.996264)"/>
       <use xlink:href="#CMR17-30" transform="translate(118.478131 0) scale(0.996264)"/>
      </g>
     </g>
    </g>
    <g id="xtick_4">
     <g id="line2d_7">
      <path d="M 192.818182 285.214399 
L 192.818182 7.2 
" clip-path="url(#p8614629844)" style="fill: none; stroke-dasharray: 2.96,1.28; stroke-dashoffset: 0; stroke: #b0b0b0; stroke-width: 0.8"/>
     </g>
     <g id="line2d_8">
      <g>
       <use xlink:href="#mbe8a527c70" x="192.818182" y="285.214399" style="stroke: #000000; stroke-width: 0.8"/>
      </g>
     </g>
     <g id="text_4">
      <!-- $\mathdefault{12.5}$ -->
      <g transform="translate(180.678647 301.900275) scale(0.14 -0.14)">
       <defs>
        <path id="CMR17-32" d="M 2669 989 
L 2554 989 
C 2490 536 2438 459 2413 420 
C 2381 369 1920 369 1830 369 
L 602 369 
C 832 619 1280 1072 1824 1597 
C 2214 1967 2669 2402 2669 3035 
C 2669 3790 2067 4224 1395 4224 
C 691 4224 262 3604 262 3030 
C 262 2780 448 2748 525 2748 
C 589 2748 781 2787 781 3010 
C 781 3207 614 3264 525 3264 
C 486 3264 448 3258 422 3245 
C 544 3790 915 4058 1306 4058 
C 1862 4058 2227 3617 2227 3035 
C 2227 2479 1901 2000 1536 1584 
L 262 146 
L 262 0 
L 2515 0 
L 2669 989 
z
" transform="scale(0.015625)"/>
       </defs>
       <use xlink:href="#CMR17-31" transform="scale(0.996264)"/>
       <use xlink:href="#CMR17-32" transform="translate(45.690477 0) scale(0.996264)"/>
       <use xlink:href="#CMMI12-3a" transform="translate(91.380954 0) scale(0.996264)"/>
       <use xlink:href="#CMR17-35" transform="translate(118.478131 0) scale(0.996264)"/>
      </g>
     </g>
    </g>
    <g id="xtick_5">
     <g id="line2d_9">
      <path d="M 239.378638 285.214399 
L 239.378638 7.2 
" clip-path="url(#p8614629844)" style="fill: none; stroke-dasharray: 2.96,1.28; stroke-dashoffset: 0; stroke: #b0b0b0; stroke-width: 0.8"/>
     </g>
     <g id="line2d_10">
      <g>
       <use xlink:href="#mbe8a527c70" x="239.378638" y="285.214399" style="stroke: #000000; stroke-width: 0.8"/>
      </g>
     </g>
     <g id="text_5">
      <!-- $\mathdefault{15.0}$ -->
      <g transform="translate(227.239103 301.900275) scale(0.14 -0.14)">
       <use xlink:href="#CMR17-31" transform="scale(0.996264)"/>
       <use xlink:href="#CMR17-35" transform="translate(45.690477 0) scale(0.996264)"/>
       <use xlink:href="#CMMI12-3a" transform="translate(91.380954 0) scale(0.996264)"/>
       <use xlink:href="#CMR17-30" transform="translate(118.478131 0) scale(0.996264)"/>
      </g>
     </g>
    </g>
    <g id="xtick_6">
     <g id="line2d_11">
      <path d="M 285.939095 285.214399 
L 285.939095 7.2 
" clip-path="url(#p8614629844)" style="fill: none; stroke-dasharray: 2.96,1.28; stroke-dashoffset: 0; stroke: #b0b0b0; stroke-width: 0.8"/>
     </g>
     <g id="line2d_12">
      <g>
       <use xlink:href="#mbe8a527c70" x="285.939095" y="285.214399" style="stroke: #000000; stroke-width: 0.8"/>
      </g>
     </g>
     <g id="text_6">
      <!-- $\mathdefault{17.5}$ -->
      <g transform="translate(273.79956 301.900275) scale(0.14 -0.14)">
       <use xlink:href="#CMR17-31" transform="scale(0.996264)"/>
       <use xlink:href="#CMR17-37" transform="translate(45.690477 0) scale(0.996264)"/>
       <use xlink:href="#CMMI12-3a" transform="translate(91.380954 0) scale(0.996264)"/>
       <use xlink:href="#CMR17-35" transform="translate(118.478131 0) scale(0.996264)"/>
      </g>
     </g>
    </g>
    <g id="xtick_7">
     <g id="line2d_13">
      <path d="M 332.499552 285.214399 
L 332.499552 7.2 
" clip-path="url(#p8614629844)" style="fill: none; stroke-dasharray: 2.96,1.28; stroke-dashoffset: 0; stroke: #b0b0b0; stroke-width: 0.8"/>
     </g>
     <g id="line2d_14">
      <g>
       <use xlink:href="#mbe8a527c70" x="332.499552" y="285.214399" style="stroke: #000000; stroke-width: 0.8"/>
      </g>
     </g>
     <g id="text_7">
      <!-- $\mathdefault{20.0}$ -->
      <g transform="translate(320.360016 301.900275) scale(0.14 -0.14)">
       <use xlink:href="#CMR17-32" transform="scale(0.996264)"/>
       <use xlink:href="#CMR17-30" transform="translate(45.690477 0) scale(0.996264)"/>
       <use xlink:href="#CMMI12-3a" transform="translate(91.380954 0) scale(0.996264)"/>
       <use xlink:href="#CMR17-30" transform="translate(118.478131 0) scale(0.996264)"/>
      </g>
     </g>
    </g>
    <g id="xtick_8">
     <g id="line2d_15">
      <path d="M 379.060008 285.214399 
L 379.060008 7.2 
" clip-path="url(#p8614629844)" style="fill: none; stroke-dasharray: 2.96,1.28; stroke-dashoffset: 0; stroke: #b0b0b0; stroke-width: 0.8"/>
     </g>
     <g id="line2d_16">
      <g>
       <use xlink:href="#mbe8a527c70" x="379.060008" y="285.214399" style="stroke: #000000; stroke-width: 0.8"/>
      </g>
     </g>
     <g id="text_8">
      <!-- $\mathdefault{22.5}$ -->
      <g transform="translate(366.920473 301.900275) scale(0.14 -0.14)">
       <use xlink:href="#CMR17-32" transform="scale(0.996264)"/>
       <use xlink:href="#CMR17-32" transform="translate(45.690477 0) scale(0.996264)"/>
       <use xlink:href="#CMMI12-3a" transform="translate(91.380954 0) scale(0.996264)"/>
       <use xlink:href="#CMR17-35" transform="translate(118.478131 0) scale(0.996264)"/>
      </g>
     </g>
    </g>
    <g id="xtick_9">
     <g id="line2d_17">
      <path d="M 425.620465 285.214399 
L 425.620465 7.2 
" clip-path="url(#p8614629844)" style="fill: none; stroke-dasharray: 2.96,1.28; stroke-dashoffset: 0; stroke: #b0b0b0; stroke-width: 0.8"/>
     </g>
     <g id="line2d_18">
      <g>
       <use xlink:href="#mbe8a527c70" x="425.620465" y="285.214399" style="stroke: #000000; stroke-width: 0.8"/>
      </g>
     </g>
     <g id="text_9">
      <!-- $\mathdefault{25.0}$ -->
      <g transform="translate(413.480929 301.900275) scale(0.14 -0.14)">
       <use xlink:href="#CMR17-32" transform="scale(0.996264)"/>
       <use xlink:href="#CMR17-35" transform="translate(45.690477 0) scale(0.996264)"/>
       <use xlink:href="#CMMI12-3a" transform="translate(91.380954 0) scale(0.996264)"/>
       <use xlink:href="#CMR17-30" transform="translate(118.478131 0) scale(0.996264)"/>
      </g>
     </g>
    </g>
    <g id="text_10">
     <!-- $g_\mathrm{m} / I_\mathrm{D}$ (S/A) -->
     <g transform="translate(201.257547 319.073076) scale(0.14 -0.14)">
      <defs>
       <path id="CMMI12-67" d="M 2163 811 
C 2138 709 2125 683 2042 588 
C 1779 249 1510 128 1312 128 
C 1101 128 902 294 902 734 
C 902 1073 1094 1788 1235 2076 
C 1421 2433 1709 2689 1978 2689 
C 2400 2689 2483 2165 2483 2127 
L 2464 2037 
L 2163 811 
z
M 2560 2395 
C 2477 2580 2298 2816 1978 2816 
C 1280 2816 486 1941 486 990 
C 486 326 890 0 1299 0 
C 1638 0 1939 268 2054 396 
L 1914 -171 
C 1824 -516 1786 -674 1555 -894 
C 1293 -1152 1050 -1152 909 -1152 
C 717 -1152 557 -1139 397 -1089 
C 602 -1033 653 -858 653 -789 
C 653 -689 576 -588 435 -588 
C 282 -588 115 -714 115 -922 
C 115 -1180 378 -1280 922 -1280 
C 1747 -1280 2176 -753 2259 -410 
L 2970 2435 
C 2989 2511 2989 2524 2989 2536 
C 2989 2625 2918 2695 2822 2695 
C 2669 2695 2579 2567 2560 2395 
z
" transform="scale(0.015625)"/>
       <path id="CMR17-6d" d="M 4326 1933 
C 4326 2252 4269 2790 3507 2790 
C 3072 2790 2771 2496 2656 2151 
L 2650 2151 
C 2573 2676 2195 2790 1837 2790 
C 1331 2790 1069 2400 973 2144 
L 966 2144 
L 966 2790 
L 211 2720 
L 211 2554 
C 589 2554 646 2515 646 2208 
L 646 428 
C 646 184 621 153 211 153 
L 211 -13 
C 365 0 646 0 813 0 
C 979 0 1267 0 1421 -13 
L 1421 153 
C 1011 153 986 178 986 428 
L 986 1658 
C 986 2247 1344 2688 1792 2688 
C 2266 2688 2317 2266 2317 1958 
L 2317 428 
C 2317 184 2291 153 1882 153 
L 1882 -13 
C 2035 0 2317 0 2483 0 
C 2650 0 2938 0 3091 -13 
L 3091 153 
C 2682 153 2656 178 2656 428 
L 2656 1658 
C 2656 2247 3014 2688 3462 2688 
C 3936 2688 3987 2266 3987 1958 
L 3987 428 
C 3987 184 3962 153 3552 153 
L 3552 -13 
C 3706 0 3987 0 4154 0 
C 4320 0 4608 0 4762 -13 
L 4762 153 
C 4352 153 4326 178 4326 428 
L 4326 1933 
z
" transform="scale(0.015625)"/>
       <path id="CMMI12-3d" d="M 2746 4562 
C 2746 4569 2784 4666 2784 4678 
C 2784 4755 2720 4800 2669 4800 
C 2637 4800 2579 4800 2528 4659 
L 384 -1363 
C 384 -1370 346 -1465 346 -1478 
C 346 -1555 410 -1600 461 -1600 
C 499 -1600 557 -1593 602 -1459 
L 2746 4562 
z
" transform="scale(0.015625)"/>
       <path id="CMMI12-49" d="M 2355 3880 
C 2413 4103 2426 4167 2893 4167 
C 3034 4167 3085 4167 3085 4288 
C 3085 4352 3014 4352 2995 4352 
C 2880 4352 2739 4352 2624 4352 
L 1837 4352 
C 1709 4352 1562 4352 1434 4352 
C 1382 4352 1312 4352 1312 4231 
C 1312 4167 1363 4167 1491 4167 
C 1888 4167 1888 4116 1888 4046 
C 1888 4002 1875 3963 1862 3906 
L 998 472 
C 941 249 928 185 461 185 
C 320 185 262 185 262 64 
C 262 0 326 0 358 0 
C 474 0 614 0 730 0 
L 1517 0 
C 1645 0 1786 0 1914 0 
C 1965 0 2042 0 2042 115 
C 2042 185 2003 185 1862 185 
C 1466 185 1466 236 1466 312 
C 1466 325 1466 357 1491 459 
L 2355 3880 
z
" transform="scale(0.015625)"/>
       <path id="CMR17-44" d="M 333 4352 
L 333 4186 
C 774 4186 845 4186 845 3900 
L 845 452 
C 845 166 774 166 333 166 
L 333 0 
L 2368 0 
C 3398 0 4224 943 4224 2141 
C 4224 3346 3411 4352 2368 4352 
L 333 4352 
z
M 1523 166 
C 1267 166 1254 197 1254 414 
L 1254 3938 
C 1254 4155 1267 4186 1523 4186 
L 2240 4186 
C 2771 4186 3750 3874 3750 2141 
C 3750 1242 3488 879 3366 707 
C 3213 510 2848 166 2240 166 
L 1523 166 
z
" transform="scale(0.015625)"/>
       <path id="CMR17-28" d="M 1958 -1561 
C 1958 -1555 1958 -1542 1939 -1523 
C 1645 -1224 858 -407 858 1581 
C 858 3569 1632 4379 1946 4697 
C 1946 4704 1958 4717 1958 4736 
C 1958 4755 1939 4768 1914 4768 
C 1843 4768 1299 4296 986 3594 
C 666 2887 576 2199 576 1588 
C 576 1128 621 351 1005 -471 
C 1312 -1135 1837 -1600 1914 -1600 
C 1946 -1600 1958 -1587 1958 -1561 
z
" transform="scale(0.015625)"/>
       <path id="CMR17-53" d="M 2803 4290 
C 2803 4404 2797 4411 2758 4411 
C 2720 4411 2707 4385 2682 4328 
L 2490 3907 
C 2246 4257 1875 4416 1472 4416 
C 819 4416 294 3901 294 3253 
C 294 3056 339 2776 557 2510 
C 794 2218 1018 2167 1530 2033 
C 1722 1982 2042 1899 2106 1874 
C 2470 1722 2662 1341 2662 985 
C 2662 527 2336 38 1779 38 
C 1094 38 454 419 410 1311 
C 403 1413 397 1419 352 1419 
C 301 1419 294 1413 294 1285 
L 294 -1 
C 294 -115 301 -122 339 -122 
C 384 -122 397 -90 486 108 
C 493 127 493 140 614 381 
C 934 -39 1472 -128 1779 -128 
C 2477 -128 2970 451 2970 1124 
C 2970 1454 2848 1708 2778 1823 
C 2509 2230 2221 2306 1914 2382 
C 1869 2402 1856 2402 1498 2490 
C 1152 2579 1005 2624 845 2796 
C 666 2992 602 3196 602 3399 
C 602 3812 934 4263 1478 4263 
C 2157 4263 2579 3786 2675 2993 
C 2694 2878 2701 2872 2746 2872 
C 2803 2872 2803 2891 2803 2999 
L 2803 4290 
z
" transform="scale(0.015625)"/>
       <path id="CMR17-2f" d="M 2605 4545 
C 2637 4627 2637 4640 2637 4653 
C 2637 4729 2579 4768 2528 4768 
C 2451 4768 2426 4717 2400 4640 
L 326 -1377 
C 294 -1460 294 -1473 294 -1486 
C 294 -1562 352 -1600 403 -1600 
C 480 -1600 506 -1549 531 -1473 
L 2605 4545 
z
" transform="scale(0.015625)"/>
       <path id="CMR17-41" d="M 2323 4378 
C 2291 4461 2278 4480 2214 4480 
C 2150 4480 2138 4461 2106 4378 
L 749 566 
C 627 223 371 153 147 153 
L 147 -13 
C 262 0 518 0 640 0 
C 800 0 1056 0 1210 -13 
L 1210 153 
C 909 153 864 361 864 439 
C 864 497 877 530 890 569 
L 1229 1536 
L 2906 1536 
L 3290 442 
C 3322 365 3322 352 3322 327 
C 3322 153 3046 153 2925 153 
L 2925 0 
C 3110 0 3443 0 3642 0 
C 3808 0 4128 0 4282 -13 
L 4282 153 
C 3942 153 3827 153 3744 387 
L 2323 4378 
z
M 2067 3893 
L 2848 1702 
L 1286 1702 
L 2067 3893 
z
" transform="scale(0.015625)"/>
       <path id="CMR17-29" d="M 1683 1581 
C 1683 2040 1638 2817 1254 3639 
C 947 4303 422 4768 346 4768 
C 326 4768 301 4761 301 4729 
C 301 4717 307 4710 314 4697 
C 621 4378 1402 3568 1402 1584 
C 1402 -407 627 -1217 314 -1537 
C 307 -1549 301 -1556 301 -1568 
C 301 -1600 326 -1600 346 -1600 
C 416 -1600 960 -1128 1274 -426 
C 1594 281 1683 969 1683 1581 
z
" transform="scale(0.015625)"/>
      </defs>
      <use xlink:href="#CMMI12-67" transform="scale(0.996264)"/>
      <use xlink:href="#CMR17-6d" transform="translate(46.710897 -14.943915) scale(0.697382)"/>
      <use xlink:href="#CMMI12-3d" transform="translate(101.052495 0) scale(0.996264)"/>
      <use xlink:href="#CMMI12-49" transform="translate(149.827414 0) scale(0.996264)"/>
      <use xlink:href="#CMR17-44" transform="translate(192.85159 -14.943915) scale(0.697382)"/>
      <use xlink:href="#CMR17-28" transform="translate(272.700958 0) scale(0.996264)"/>
      <use xlink:href="#CMR17-53" transform="translate(307.981726 0) scale(0.996264)"/>
      <use xlink:href="#CMR17-2f" transform="translate(358.877096 0) scale(0.996264)"/>
      <use xlink:href="#CMR17-41" transform="translate(404.567573 0) scale(0.996264)"/>
      <use xlink:href="#CMR17-29" transform="translate(473.640003 0) scale(0.996264)"/>
     </g>
    </g>
   </g>
   <g id="matplotlib.axis_2">
    <g id="ytick_1">
     <g id="line2d_19">
      <path d="M 53.136812 273.779212 
L 425.620465 273.779212 
" clip-path="url(#p8614629844)" style="fill: none; stroke-dasharray: 2.96,1.28; stroke-dashoffset: 0; stroke: #b0b0b0; stroke-width: 0.8"/>
     </g>
     <g id="line2d_20">
      <defs>
       <path id="m85901af0fa" d="M 0 0 
L -3.5 0 
" style="stroke: #000000; stroke-width: 0.8"/>
      </defs>
      <g>
       <use xlink:href="#m85901af0fa" x="53.136812" y="273.779212" style="stroke: #000000; stroke-width: 0.8"/>
      </g>
     </g>
     <g id="text_11">
      <!-- $\mathdefault{50}$ -->
      <g transform="translate(32.479835 278.622151) scale(0.14 -0.14)">
       <use xlink:href="#CMR17-35" transform="scale(0.996264)"/>
       <use xlink:href="#CMR17-30" transform="translate(45.690477 0) scale(0.996264)"/>
      </g>
     </g>
    </g>
    <g id="ytick_2">
     <g id="line2d_21">
      <path d="M 53.136812 233.350746 
L 425.620465 233.350746 
" clip-path="url(#p8614629844)" style="fill: none; stroke-dasharray: 2.96,1.28; stroke-dashoffset: 0; stroke: #b0b0b0; stroke-width: 0.8"/>
     </g>
     <g id="line2d_22">
      <g>
       <use xlink:href="#m85901af0fa" x="53.136812" y="233.350746" style="stroke: #000000; stroke-width: 0.8"/>
      </g>
     </g>
     <g id="text_12">
      <!-- $\mathdefault{100}$ -->
      <g transform="translate(25.651346 238.193684) scale(0.14 -0.14)">
       <use xlink:href="#CMR17-31" transform="scale(0.996264)"/>
       <use xlink:href="#CMR17-30" transform="translate(45.690477 0) scale(0.996264)"/>
       <use xlink:href="#CMR17-30" transform="translate(91.380954 0) scale(0.996264)"/>
      </g>
     </g>
    </g>
    <g id="ytick_3">
     <g id="line2d_23">
      <path d="M 53.136812 192.922279 
L 425.620465 192.922279 
" clip-path="url(#p8614629844)" style="fill: none; stroke-dasharray: 2.96,1.28; stroke-dashoffset: 0; stroke: #b0b0b0; stroke-width: 0.8"/>
     </g>
     <g id="line2d_24">
      <g>
       <use xlink:href="#m85901af0fa" x="53.136812" y="192.922279" style="stroke: #000000; stroke-width: 0.8"/>
      </g>
     </g>
     <g id="text_13">
      <!-- $\mathdefault{150}$ -->
      <g transform="translate(25.651346 197.765217) scale(0.14 -0.14)">
       <use xlink:href="#CMR17-31" transform="scale(0.996264)"/>
       <use xlink:href="#CMR17-35" transform="translate(45.690477 0) scale(0.996264)"/>
       <use xlink:href="#CMR17-30" transform="translate(91.380954 0) scale(0.996264)"/>
      </g>
     </g>
    </g>
    <g id="ytick_4">
     <g id="line2d_25">
      <path d="M 53.136812 152.493813 
L 425.620465 152.493813 
" clip-path="url(#p8614629844)" style="fill: none; stroke-dasharray: 2.96,1.28; stroke-dashoffset: 0; stroke: #b0b0b0; stroke-width: 0.8"/>
     </g>
     <g id="line2d_26">
      <g>
       <use xlink:href="#m85901af0fa" x="53.136812" y="152.493813" style="stroke: #000000; stroke-width: 0.8"/>
      </g>
     </g>
     <g id="text_14">
      <!-- $\mathdefault{200}$ -->
      <g transform="translate(25.651346 157.336751) scale(0.14 -0.14)">
       <use xlink:href="#CMR17-32" transform="scale(0.996264)"/>
       <use xlink:href="#CMR17-30" transform="translate(45.690477 0) scale(0.996264)"/>
       <use xlink:href="#CMR17-30" transform="translate(91.380954 0) scale(0.996264)"/>
      </g>
     </g>
    </g>
    <g id="ytick_5">
     <g id="line2d_27">
      <path d="M 53.136812 112.065346 
L 425.620465 112.065346 
" clip-path="url(#p8614629844)" style="fill: none; stroke-dasharray: 2.96,1.28; stroke-dashoffset: 0; stroke: #b0b0b0; stroke-width: 0.8"/>
     </g>
     <g id="line2d_28">
      <g>
       <use xlink:href="#m85901af0fa" x="53.136812" y="112.065346" style="stroke: #000000; stroke-width: 0.8"/>
      </g>
     </g>
     <g id="text_15">
      <!-- $\mathdefault{250}$ -->
      <g transform="translate(25.651346 116.908284) scale(0.14 -0.14)">
       <use xlink:href="#CMR17-32" transform="scale(0.996264)"/>
       <use xlink:href="#CMR17-35" transform="translate(45.690477 0) scale(0.996264)"/>
       <use xlink:href="#CMR17-30" transform="translate(91.380954 0) scale(0.996264)"/>
      </g>
     </g>
    </g>
    <g id="ytick_6">
     <g id="line2d_29">
      <path d="M 53.136812 71.636879 
L 425.620465 71.636879 
" clip-path="url(#p8614629844)" style="fill: none; stroke-dasharray: 2.96,1.28; stroke-dashoffset: 0; stroke: #b0b0b0; stroke-width: 0.8"/>
     </g>
     <g id="line2d_30">
      <g>
       <use xlink:href="#m85901af0fa" x="53.136812" y="71.636879" style="stroke: #000000; stroke-width: 0.8"/>
      </g>
     </g>
     <g id="text_16">
      <!-- $\mathdefault{300}$ -->
      <g transform="translate(25.651346 76.479818) scale(0.14 -0.14)">
       <defs>
        <path id="CMR17-33" d="M 1414 2157 
C 1984 2157 2234 1662 2234 1090 
C 2234 320 1824 25 1453 25 
C 1114 25 563 194 390 693 
C 422 680 454 680 486 680 
C 640 680 755 782 755 948 
C 755 1133 614 1216 486 1216 
C 378 1216 211 1165 211 926 
C 211 335 787 -128 1466 -128 
C 2176 -128 2720 430 2720 1085 
C 2720 1707 2208 2157 1600 2227 
C 2086 2328 2554 2756 2554 3329 
C 2554 3820 2048 4179 1472 4179 
C 890 4179 378 3829 378 3329 
C 378 3110 544 3072 627 3072 
C 762 3072 877 3155 877 3321 
C 877 3486 762 3569 627 3569 
C 602 3569 570 3569 544 3557 
C 730 3959 1235 4032 1459 4032 
C 1683 4032 2106 3925 2106 3320 
C 2106 3143 2080 2828 1862 2550 
C 1670 2304 1453 2304 1242 2284 
C 1210 2284 1062 2269 1037 2269 
C 992 2263 966 2257 966 2208 
C 966 2163 973 2157 1101 2157 
L 1414 2157 
z
" transform="scale(0.015625)"/>
       </defs>
       <use xlink:href="#CMR17-33" transform="scale(0.996264)"/>
       <use xlink:href="#CMR17-30" transform="translate(45.690477 0) scale(0.996264)"/>
       <use xlink:href="#CMR17-30" transform="translate(91.380954 0) scale(0.996264)"/>
      </g>
     </g>
    </g>
    <g id="ytick_7">
     <g id="line2d_31">
      <path d="M 53.136812 31.208413 
L 425.620465 31.208413 
" clip-path="url(#p8614629844)" style="fill: none; stroke-dasharray: 2.96,1.28; stroke-dashoffset: 0; stroke: #b0b0b0; stroke-width: 0.8"/>
     </g>
     <g id="line2d_32">
      <g>
       <use xlink:href="#m85901af0fa" x="53.136812" y="31.208413" style="stroke: #000000; stroke-width: 0.8"/>
      </g>
     </g>
     <g id="text_17">
      <!-- $\mathdefault{350}$ -->
      <g transform="translate(25.651346 36.051351) scale(0.14 -0.14)">
       <use xlink:href="#CMR17-33" transform="scale(0.996264)"/>
       <use xlink:href="#CMR17-35" transform="translate(45.690477 0) scale(0.996264)"/>
       <use xlink:href="#CMR17-30" transform="translate(91.380954 0) scale(0.996264)"/>
      </g>
     </g>
    </g>
    <g id="text_18">
     <!-- $V_\mathrm{n,in}$ (uVrms) -->
     <g transform="translate(17.660772 185.769306) rotate(-90) scale(0.14 -0.14)">
      <defs>
       <path id="CMMI12-56" d="M 3962 3640 
C 4179 3984 4378 4136 4704 4162 
C 4768 4168 4819 4168 4819 4282 
C 4819 4308 4806 4346 4749 4346 
C 4634 4346 4358 4346 4243 4346 
C 4058 4346 3866 4346 3686 4346 
C 3635 4346 3571 4346 3571 4226 
C 3571 4168 3629 4162 3654 4162 
C 3891 4143 3917 4029 3917 3952 
C 3917 3857 3827 3710 3821 3704 
L 1811 540 
L 1363 3969 
C 1363 4160 1696 4160 1766 4160 
C 1862 4160 1920 4160 1920 4282 
C 1920 4346 1850 4346 1830 4346 
C 1722 4346 1594 4346 1485 4346 
L 1126 4346 
C 659 4346 467 4346 461 4346 
C 422 4346 346 4346 346 4230 
C 346 4160 390 4160 493 4160 
C 819 4160 838 4102 858 3944 
L 1370 24 
C 1389 -109 1389 -128 1478 -128 
C 1555 -128 1587 -109 1651 -8 
L 3962 3640 
z
" transform="scale(0.015625)"/>
       <path id="CMR17-6e" d="M 2656 1933 
C 2656 2259 2592 2790 1837 2790 
C 1331 2790 1069 2400 973 2144 
L 966 2144 
L 966 2790 
L 211 2720 
L 211 2554 
C 589 2554 646 2515 646 2208 
L 646 428 
C 646 184 621 153 211 153 
L 211 -13 
C 365 0 646 0 813 0 
C 979 0 1267 0 1421 -13 
L 1421 153 
C 1011 153 986 178 986 428 
L 986 1658 
C 986 2247 1344 2688 1792 2688 
C 2266 2688 2317 2266 2317 1958 
L 2317 428 
C 2317 184 2291 153 1882 153 
L 1882 -13 
C 2035 0 2317 0 2483 0 
C 2650 0 2938 0 3091 -13 
L 3091 153 
C 2682 153 2656 178 2656 428 
L 2656 1933 
z
" transform="scale(0.015625)"/>
       <path id="CMMI12-3b" d="M 1248 -31 
C 1248 343 1126 619 864 619 
C 659 619 557 453 557 313 
C 557 172 653 0 870 0 
C 954 0 1024 26 1082 83 
C 1094 96 1101 96 1107 96 
C 1120 96 1120 5 1120 -27 
C 1120 -240 1082 -659 710 -1080 
C 640 -1157 640 -1170 640 -1183 
C 640 -1216 672 -1248 704 -1248 
C 755 -1248 1248 -771 1248 -31 
z
" transform="scale(0.015625)"/>
       <path id="CMR17-69" d="M 992 3909 
C 992 4049 877 4170 730 4170 
C 589 4170 467 4056 467 3909 
C 467 3769 582 3648 730 3648 
C 870 3648 992 3763 992 3909 
z
M 243 2706 
L 243 2541 
C 602 2541 653 2502 653 2197 
L 653 427 
C 653 184 627 153 218 153 
L 218 -13 
C 371 0 646 0 806 0 
C 960 0 1222 0 1370 -13 
L 1370 153 
C 992 153 979 191 979 420 
L 979 2776 
L 243 2706 
z
" transform="scale(0.015625)"/>
       <path id="CMR17-75" d="M 1882 2693 
L 1882 2528 
C 2259 2528 2317 2489 2317 2186 
L 2317 1032 
C 2317 500 2029 38 1555 38 
C 1030 38 986 348 986 678 
L 986 2763 
L 211 2693 
L 211 2528 
C 467 2528 640 2528 646 2274 
L 646 1058 
C 646 633 646 361 813 183 
C 896 101 1056 -64 1517 -64 
C 2061 -64 2272 377 2323 506 
L 2330 506 
L 2330 -63 
L 3091 -63 
L 3091 128 
C 2714 128 2656 166 2656 473 
L 2656 2763 
L 1882 2693 
z
" transform="scale(0.015625)"/>
       <path id="CMR17-56" d="M 3776 3745 
C 3834 3886 3936 4160 4365 4160 
L 4365 4332 
C 4218 4319 4051 4319 3891 4319 
C 3738 4319 3475 4319 3328 4332 
L 3328 4160 
C 3648 4160 3661 3936 3661 3898 
C 3661 3827 3642 3783 3622 3732 
L 2362 446 
L 1043 3886 
C 1024 3931 1011 3963 1011 3994 
C 1011 4160 1267 4160 1402 4160 
L 1402 4319 
C 1197 4319 896 4319 685 4319 
C 518 4319 218 4319 64 4332 
L 64 4160 
C 435 4160 506 4135 582 3931 
L 2106 -26 
C 2138 -115 2144 -128 2214 -128 
C 2285 -128 2291 -115 2323 -26 
L 3776 3745 
z
" transform="scale(0.015625)"/>
       <path id="CMR17-72" d="M 960 1497 
C 960 2112 1222 2688 1702 2688 
C 1747 2688 1792 2682 1837 2662 
C 1837 2662 1696 2617 1696 2452 
C 1696 2298 1818 2234 1914 2234 
C 1990 2234 2131 2279 2131 2458 
C 2131 2663 1926 2790 1709 2790 
C 1222 2790 1011 2317 947 2093 
L 941 2093 
L 941 2790 
L 198 2720 
L 198 2554 
C 576 2554 634 2515 634 2208 
L 634 428 
C 634 184 608 153 198 153 
L 198 -13 
C 352 0 646 0 813 0 
C 998 0 1325 0 1498 -13 
L 1498 153 
C 1037 153 960 153 960 440 
L 960 1497 
z
" transform="scale(0.015625)"/>
       <path id="CMR17-73" d="M 1978 2697 
C 1978 2813 1971 2819 1933 2819 
C 1907 2819 1901 2813 1824 2717 
C 1805 2691 1747 2626 1728 2601 
C 1523 2819 1235 2819 1126 2819 
C 416 2819 160 2447 160 2076 
C 160 1498 813 1365 998 1325 
C 1402 1243 1542 1217 1677 1101 
C 1760 1025 1901 884 1901 654 
C 1901 384 1747 38 1158 38 
C 602 38 403 460 288 1021 
C 269 1110 269 1117 218 1117 
C 166 1117 160 1110 160 983 
L 160 63 
C 160 -51 166 -58 205 -58 
C 237 -58 243 -51 275 0 
C 314 57 410 211 448 276 
C 576 103 800 -64 1158 -64 
C 1792 -64 2131 283 2131 784 
C 2131 1112 1958 1285 1875 1362 
C 1683 1561 1459 1606 1190 1657 
C 838 1735 390 1825 390 2217 
C 390 2383 480 2737 1126 2737 
C 1811 2737 1850 2094 1862 1888 
C 1869 1856 1901 1849 1920 1849 
C 1978 1849 1978 1869 1978 1978 
L 1978 2697 
z
" transform="scale(0.015625)"/>
      </defs>
      <use xlink:href="#CMMI12-56" transform="scale(0.996264)"/>
      <use xlink:href="#CMR17-6e" transform="translate(56.869579 -14.943915) scale(0.697382)"/>
      <use xlink:href="#CMMI12-3b" transform="translate(92.496187 -14.943915) scale(0.697382)"/>
      <use xlink:href="#CMR17-69" transform="translate(111.46412 -14.943915) scale(0.697382)"/>
      <use xlink:href="#CMR17-6e" transform="translate(128.873779 -14.943915) scale(0.697382)"/>
      <use xlink:href="#CMR17-28" transform="translate(195.074486 0) scale(0.996264)"/>
      <use xlink:href="#CMR17-75" transform="translate(230.355253 0) scale(0.996264)"/>
      <use xlink:href="#CMR17-56" transform="translate(281.250623 0) scale(0.996264)"/>
      <use xlink:href="#CMR17-72" transform="translate(342.515798 0) scale(0.996264)"/>
      <use xlink:href="#CMR17-6d" transform="translate(377.796565 0) scale(0.996264)"/>
      <use xlink:href="#CMR17-73" transform="translate(454.716155 0) scale(0.996264)"/>
      <use xlink:href="#CMR17-29" transform="translate(490.517493 0) scale(0.996264)"/>
     </g>
    </g>
   </g>
   <g id="line2d_33">
    <path d="M 53.136812 19.837018 
L 62.448904 33.536266 
L 71.760995 45.48526 
L 81.073086 56.02753 
L 90.385178 65.419063 
L 99.697269 73.855041 
L 109.00936 81.487238 
L 118.321451 88.435688 
L 127.633543 94.796743 
L 136.945634 100.648756 
L 146.257725 106.056189 
L 155.569817 111.072624 
L 164.881908 115.74302 
L 174.193999 120.105413 
L 183.506091 124.192234 
L 192.818182 128.031326 
L 202.130273 131.646745 
L 211.442365 135.0594 
L 220.754456 138.287561 
L 230.066547 141.347275 
L 239.378638 144.252699 
L 248.69073 147.016379 
L 258.002821 149.649477 
L 267.314912 152.161963 
L 276.627004 154.562773 
L 285.939095 156.859942 
L 295.251186 159.060718 
L 304.563278 161.17166 
L 313.875369 163.198716 
L 323.18746 165.147301 
L 332.499552 167.022349 
L 341.811643 168.828372 
L 351.123734 170.569504 
L 360.435825 172.249541 
L 369.747917 173.871973 
L 379.060008 175.440019 
L 388.372099 176.956651 
L 397.684191 178.424618 
L 406.996282 179.84647 
L 416.308373 181.22457 
L 425.620465 182.561117 
" clip-path="url(#p8614629844)" style="fill: none; stroke: #1f77b4; stroke-width: 2; stroke-linecap: square"/>
   </g>
   <g id="line2d_34">
    <path d="M 53.136812 106.056189 
L 62.448904 115.74302 
L 71.760995 124.192234 
L 81.073086 131.646745 
L 90.385178 138.287561 
L 99.697269 144.252699 
L 109.00936 149.649477 
L 118.321451 154.562773 
L 127.633543 159.060718 
L 136.945634 163.198716 
L 146.257725 167.022349 
L 155.569817 170.569504 
L 164.881908 173.871973 
L 174.193999 176.956651 
L 183.506091 179.84647 
L 192.818182 182.561117 
L 202.130273 185.117605 
L 211.442365 187.530716 
L 220.754456 189.813371 
L 230.066547 191.976915 
L 239.378638 194.03136 
L 248.69073 195.985577 
L 258.002821 197.847458 
L 267.314912 199.624055 
L 276.627004 201.321684 
L 285.939095 202.946027 
L 295.251186 204.502211 
L 304.563278 205.994872 
L 313.875369 207.428217 
L 323.18746 208.806075 
L 332.499552 210.131934 
L 341.811643 211.408985 
L 351.123734 212.640152 
L 360.435825 213.828117 
L 369.747917 214.975349 
L 379.060008 216.084125 
L 388.372099 217.156546 
L 397.684191 218.194556 
L 406.996282 219.199957 
L 416.308373 220.174421 
L 425.620465 221.119503 
" clip-path="url(#p8614629844)" style="fill: none; stroke: #ff7f0e; stroke-width: 2; stroke-linecap: square"/>
   </g>
   <g id="line2d_35">
    <path d="M 53.136812 167.022349 
L 62.448904 173.871973 
L 71.760995 179.84647 
L 81.073086 185.117605 
L 90.385178 189.813371 
L 99.697269 194.03136 
L 109.00936 197.847458 
L 118.321451 201.321684 
L 127.633543 204.502211 
L 136.945634 207.428217 
L 146.257725 210.131934 
L 155.569817 212.640152 
L 164.881908 214.975349 
L 174.193999 217.156546 
L 183.506091 219.199957 
L 192.818182 221.119503 
L 202.130273 222.927212 
L 211.442365 224.633539 
L 220.754456 226.24762 
L 230.066547 227.777477 
L 239.378638 229.230189 
L 248.69073 230.612029 
L 258.002821 231.928578 
L 267.314912 233.184821 
L 276.627004 234.385226 
L 285.939095 235.533811 
L 295.251186 236.634199 
L 304.563278 237.689669 
L 313.875369 238.703198 
L 323.18746 239.67749 
L 332.499552 240.615014 
L 341.811643 241.518025 
L 351.123734 242.388592 
L 360.435825 243.22861 
L 369.747917 244.039826 
L 379.060008 244.823849 
L 388.372099 245.582165 
L 397.684191 246.316149 
L 406.996282 247.027074 
L 416.308373 247.716124 
L 425.620465 248.384398 
" clip-path="url(#p8614629844)" style="fill: none; stroke: #2ca02c; stroke-width: 2; stroke-linecap: square"/>
   </g>
   <g id="line2d_36">
    <path d="M 53.136812 194.03136 
L 62.448904 199.624055 
L 71.760995 204.502211 
L 81.073086 208.806075 
L 90.385178 212.640152 
L 99.697269 216.084125 
L 109.00936 219.199957 
L 118.321451 222.03665 
L 127.633543 224.633539 
L 136.945634 227.022614 
L 146.257725 229.230189 
L 155.569817 231.27814 
L 164.881908 233.184821 
L 174.193999 234.965761 
L 183.506091 236.634199 
L 192.818182 238.201501 
L 202.130273 239.67749 
L 211.442365 241.0707 
L 220.754456 242.388592 
L 230.066547 243.637715 
L 239.378638 244.823849 
L 248.69073 245.952116 
L 258.002821 247.027074 
L 267.314912 248.052793 
L 276.627004 249.032919 
L 285.939095 249.970734 
L 295.251186 250.869197 
L 304.563278 251.730986 
L 313.875369 252.558528 
L 323.18746 253.354034 
L 332.499552 254.119519 
L 341.811643 254.856825 
L 351.123734 255.56764 
L 360.435825 256.253512 
L 369.747917 256.915867 
L 379.060008 257.556019 
L 388.372099 258.175181 
L 397.684191 258.774477 
L 406.996282 259.354945 
L 416.308373 259.917552 
L 425.620465 260.463195 
" clip-path="url(#p8614629844)" style="fill: none; stroke: #d62728; stroke-width: 2; stroke-linecap: square"/>
   </g>
   <g id="line2d_37">
    <path d="M 53.136812 210.131934 
L 62.448904 214.975349 
L 71.760995 219.199957 
L 81.073086 222.927212 
L 90.385178 226.24762 
L 99.697269 229.230189 
L 109.00936 231.928578 
L 118.321451 234.385226 
L 127.633543 236.634199 
L 136.945634 238.703198 
L 146.257725 240.615014 
L 155.569817 242.388592 
L 164.881908 244.039826 
L 174.193999 245.582165 
L 183.506091 247.027074 
L 192.818182 248.384398 
L 202.130273 249.662642 
L 211.442365 250.869197 
L 220.754456 252.010525 
L 230.066547 253.092297 
L 239.378638 254.119519 
L 248.69073 255.096628 
L 258.002821 256.027569 
L 267.314912 256.915867 
L 276.627004 257.764681 
L 285.939095 258.576853 
L 295.251186 259.354945 
L 304.563278 260.101275 
L 313.875369 260.817948 
L 323.18746 261.506877 
L 332.499552 262.169806 
L 341.811643 262.808332 
L 351.123734 263.423915 
L 360.435825 264.017898 
L 369.747917 264.591514 
L 379.060008 265.145902 
L 388.372099 265.682113 
L 397.684191 266.201117 
L 406.996282 266.703818 
L 416.308373 267.19105 
L 425.620465 267.663591 
" clip-path="url(#p8614629844)" style="fill: none; stroke: #9467bd; stroke-width: 2; stroke-linecap: square"/>
   </g>
   <g id="line2d_38">
    <path d="M 53.136812 221.119503 
L 62.448904 225.451585 
L 71.760995 229.230189 
L 81.073086 232.563947 
L 90.385178 235.533811 
L 99.697269 238.201501 
L 109.00936 240.615014 
L 118.321451 242.812307 
L 127.633543 244.823849 
L 136.945634 246.674418 
L 146.257725 248.384398 
L 155.569817 249.970734 
L 164.881908 251.447643 
L 174.193999 252.827153 
L 183.506091 254.119519 
L 192.818182 255.333547 
L 202.130273 256.476843 
L 211.442365 257.556019 
L 220.754456 258.576853 
L 230.066547 259.54442 
L 239.378638 260.463195 
L 248.69073 261.337148 
L 258.002821 262.169806 
L 267.314912 262.964324 
L 276.627004 263.723527 
L 285.939095 264.449956 
L 295.251186 265.145902 
L 304.563278 265.81344 
L 313.875369 266.454452 
L 323.18746 267.070649 
L 332.499552 267.663591 
L 341.811643 268.234705 
L 351.123734 268.7853 
L 360.435825 269.316574 
L 369.747917 269.829632 
L 379.060008 270.325492 
L 388.372099 270.805093 
L 397.684191 271.269305 
L 406.996282 271.718934 
L 416.308373 272.154727 
L 425.620465 272.577381 
" clip-path="url(#p8614629844)" style="fill: none; stroke: #8c564b; stroke-width: 2; stroke-linecap: square"/>
   </g>
   <g id="line2d_39">
    <path d="M 312.122898 285.214399 
L 312.122898 7.2 
" clip-path="url(#p8614629844)" style="fill: none; stroke-dasharray: 5.55,2.4; stroke-dashoffset: 0; stroke: #ff0000; stroke-width: 1.5"/>
   </g>
   <g id="line2d_40">
    <path d="M 87.456688 285.214399 
L 87.456688 7.2 
" clip-path="url(#p8614629844)" style="fill: none; stroke-dasharray: 5.55,2.4; stroke-dashoffset: 0; stroke: #008000; stroke-width: 1.5"/>
   </g>
   <g id="patch_3">
    <path d="M 53.136812 285.214399 
L 53.136812 7.2 
" style="fill: none; stroke: #000000; stroke-width: 0.8; stroke-linejoin: miter; stroke-linecap: square"/>
   </g>
   <g id="patch_4">
    <path d="M 425.620465 285.214399 
L 425.620465 7.2 
" style="fill: none; stroke: #000000; stroke-width: 0.8; stroke-linejoin: miter; stroke-linecap: square"/>
   </g>
   <g id="patch_5">
    <path d="M 53.136812 285.214399 
L 425.620465 285.214399 
" style="fill: none; stroke: #000000; stroke-width: 0.8; stroke-linejoin: miter; stroke-linecap: square"/>
   </g>
   <g id="patch_6">
    <path d="M 53.136812 7.2 
L 425.620465 7.2 
" style="fill: none; stroke: #000000; stroke-width: 0.8; stroke-linejoin: miter; stroke-linecap: square"/>
   </g>
   <g id="legend_1">
    <g id="patch_7">
     <path d="M 221.636106 177.367563 
L 415.820465 177.367563 
Q 418.620465 177.367563 418.620465 174.567563 
L 418.620465 17 
Q 418.620465 14.2 415.820465 14.2 
L 221.636106 14.2 
Q 218.836106 14.2 218.836106 17 
L 218.836106 174.567563 
Q 218.836106 177.367563 221.636106 177.367563 
z
" style="fill: #ffffff; opacity: 0.8; stroke: #cccccc; stroke-linejoin: miter"/>
    </g>
    <g id="line2d_41">
     <path d="M 224.436106 24.7 
L 238.436106 24.7 
L 252.436106 24.7 
" style="fill: none; stroke: #1f77b4; stroke-width: 2; stroke-linecap: square"/>
    </g>
    <g id="text_19">
     <!-- $Cp = 50.0$fF -->
     <g transform="translate(263.636106 29.6) scale(0.14 -0.14)">
      <defs>
       <path id="CMMI12-43" d="M 4781 4423 
C 4781 4480 4736 4480 4723 4480 
C 4710 4480 4685 4480 4634 4416 
L 4192 3882 
C 3968 4264 3616 4480 3136 4480 
C 1754 4480 320 3088 320 1595 
C 320 533 1069 -128 2003 -128 
C 2515 -128 2963 88 3334 400 
C 3891 863 4058 1481 4058 1531 
C 4058 1588 4006 1588 3987 1588 
C 3930 1588 3923 1550 3910 1524 
C 3616 534 2752 57 2112 57 
C 1434 57 845 489 845 1391 
C 845 1595 909 2700 1632 3532 
C 1984 3939 2586 4295 3194 4295 
C 3898 4295 4211 3717 4211 3068 
C 4211 2903 4192 2764 4192 2738 
C 4192 2681 4256 2681 4275 2681 
C 4346 2681 4352 2687 4378 2801 
L 4781 4423 
z
" transform="scale(0.015625)"/>
       <path id="CMMI12-70" d="M 275 -789 
C 230 -980 205 -1031 -58 -1031 
C -134 -1031 -198 -1031 -198 -1152 
C -198 -1165 -192 -1216 -122 -1216 
C -38 -1216 51 -1216 134 -1216 
L 410 -1216 
C 544 -1216 870 -1216 1005 -1216 
C 1043 -1216 1120 -1216 1120 -1101 
C 1120 -1031 1075 -1031 966 -1031 
C 672 -1031 653 -987 653 -937 
C 653 -861 941 219 979 364 
C 1050 185 1222 -64 1555 -64 
C 2278 -64 3059 875 3059 1814 
C 3059 2401 2726 2816 2246 2816 
C 1837 2816 1491 2420 1421 2331 
C 1370 2650 1120 2816 864 2816 
C 678 2816 531 2727 410 2484 
C 294 2254 205 1865 205 1839 
C 205 1814 230 1782 275 1782 
C 326 1782 333 1788 371 1935 
C 467 2312 589 2689 845 2689 
C 992 2689 1043 2587 1043 2397 
C 1043 2245 1024 2181 998 2067 
L 275 -789 
z
M 1382 1993 
C 1427 2171 1606 2357 1709 2446 
C 1779 2510 1990 2689 2234 2689 
C 2515 2689 2643 2408 2643 2076 
C 2643 1769 2464 1047 2304 715 
C 2144 370 1850 64 1555 64 
C 1120 64 1050 613 1050 639 
C 1050 658 1062 709 1069 741 
L 1382 1993 
z
" transform="scale(0.015625)"/>
       <path id="CMR17-3d" d="M 4115 2017 
C 4211 2017 4307 2017 4307 2125 
C 4307 2240 4198 2240 4090 2240 
L 512 2240 
C 403 2240 294 2240 294 2125 
C 294 2017 390 2017 486 2017 
L 4115 2017 
z
M 4090 896 
C 4198 896 4307 896 4307 1011 
C 4307 1119 4211 1119 4115 1119 
L 486 1119 
C 390 1119 294 1119 294 1011 
C 294 896 403 896 512 896 
L 4090 896 
z
" transform="scale(0.015625)"/>
       <path id="CMR17-66" d="M 979 2560 
L 1709 2560 
L 1709 2725 
L 966 2725 
L 966 3494 
C 966 4022 1235 4352 1510 4352 
C 1594 4352 1690 4327 1754 4282 
C 1702 4269 1568 4225 1568 4067 
C 1568 3901 1696 3850 1786 3850 
C 1875 3850 2003 3901 2003 4067 
C 2003 4308 1773 4454 1517 4454 
C 1152 4454 653 4156 653 3481 
L 653 2725 
L 141 2725 
L 141 2560 
L 653 2560 
L 653 427 
C 653 184 627 153 218 153 
L 218 -13 
C 371 0 666 0 832 0 
C 1018 0 1344 0 1517 -13 
L 1517 153 
C 1056 153 979 153 979 439 
L 979 2560 
z
" transform="scale(0.015625)"/>
       <path id="CMR17-46" d="M 3482 4325 
L 326 4325 
L 326 4160 
C 768 4160 838 4160 838 3874 
L 838 446 
C 838 160 768 160 326 160 
L 326 0 
C 512 0 870 0 1069 0 
C 1331 0 1638 0 1901 0 
L 1901 160 
L 1760 160 
C 1274 160 1261 223 1261 452 
L 1261 2075 
L 1837 2075 
C 2432 2075 2490 1865 2490 1332 
L 2605 1332 
L 2605 2987 
L 2490 2987 
C 2490 2450 2432 2240 1837 2240 
L 1261 2240 
L 1261 3911 
C 1261 4128 1274 4160 1530 4160 
L 2355 4160 
C 3322 4160 3430 3765 3520 2916 
L 3635 2916 
L 3482 4325 
z
" transform="scale(0.015625)"/>
      </defs>
      <use xlink:href="#CMMI12-43" transform="scale(0.996264)"/>
      <use xlink:href="#CMMI12-70" transform="translate(76.946847 0) scale(0.996264)"/>
      <use xlink:href="#CMR17-3d" transform="translate(153.580369 0) scale(0.996264)"/>
      <use xlink:href="#CMR17-35" transform="translate(252.969167 0) scale(0.996264)"/>
      <use xlink:href="#CMR17-30" transform="translate(298.659644 0) scale(0.996264)"/>
      <use xlink:href="#CMMI12-3a" transform="translate(344.350121 0) scale(0.996264)"/>
      <use xlink:href="#CMR17-30" transform="translate(371.447298 0) scale(0.996264)"/>
      <use xlink:href="#CMR17-66" transform="translate(417.137775 0) scale(0.996264)"/>
      <use xlink:href="#CMR17-46" transform="translate(444.611287 0) scale(0.996264)"/>
     </g>
    </g>
    <g id="line2d_42">
     <path d="M 224.436106 44.212028 
L 238.436106 44.212028 
L 252.436106 44.212028 
" style="fill: none; stroke: #ff7f0e; stroke-width: 2; stroke-linecap: square"/>
    </g>
    <g id="text_20">
     <!-- $Cp = 100.0$fF -->
     <g transform="translate(263.636106 49.112028) scale(0.14 -0.14)">
      <use xlink:href="#CMMI12-43" transform="scale(0.996264)"/>
      <use xlink:href="#CMMI12-70" transform="translate(76.946847 0) scale(0.996264)"/>
      <use xlink:href="#CMR17-3d" transform="translate(153.580369 0) scale(0.996264)"/>
      <use xlink:href="#CMR17-31" transform="translate(252.969167 0) scale(0.996264)"/>
      <use xlink:href="#CMR17-30" transform="translate(298.659644 0) scale(0.996264)"/>
      <use xlink:href="#CMR17-30" transform="translate(344.350121 0) scale(0.996264)"/>
      <use xlink:href="#CMMI12-3a" transform="translate(390.040598 0) scale(0.996264)"/>
      <use xlink:href="#CMR17-30" transform="translate(417.137775 0) scale(0.996264)"/>
      <use xlink:href="#CMR17-66" transform="translate(462.828252 0) scale(0.996264)"/>
      <use xlink:href="#CMR17-46" transform="translate(490.301765 0) scale(0.996264)"/>
     </g>
    </g>
    <g id="line2d_43">
     <path d="M 224.436106 63.724057 
L 238.436106 63.724057 
L 252.436106 63.724057 
" style="fill: none; stroke: #2ca02c; stroke-width: 2; stroke-linecap: square"/>
    </g>
    <g id="text_21">
     <!-- $Cp = 200.0$fF -->
     <g transform="translate(263.636106 68.624057) scale(0.14 -0.14)">
      <use xlink:href="#CMMI12-43" transform="scale(0.996264)"/>
      <use xlink:href="#CMMI12-70" transform="translate(76.946847 0) scale(0.996264)"/>
      <use xlink:href="#CMR17-3d" transform="translate(153.580369 0) scale(0.996264)"/>
      <use xlink:href="#CMR17-32" transform="translate(252.969167 0) scale(0.996264)"/>
      <use xlink:href="#CMR17-30" transform="translate(298.659644 0) scale(0.996264)"/>
      <use xlink:href="#CMR17-30" transform="translate(344.350121 0) scale(0.996264)"/>
      <use xlink:href="#CMMI12-3a" transform="translate(390.040598 0) scale(0.996264)"/>
      <use xlink:href="#CMR17-30" transform="translate(417.137775 0) scale(0.996264)"/>
      <use xlink:href="#CMR17-66" transform="translate(462.828252 0) scale(0.996264)"/>
      <use xlink:href="#CMR17-46" transform="translate(490.301765 0) scale(0.996264)"/>
     </g>
    </g>
    <g id="line2d_44">
     <path d="M 224.436106 83.236085 
L 238.436106 83.236085 
L 252.436106 83.236085 
" style="fill: none; stroke: #d62728; stroke-width: 2; stroke-linecap: square"/>
    </g>
    <g id="text_22">
     <!-- $Cp = 300.0$fF -->
     <g transform="translate(263.636106 88.136085) scale(0.14 -0.14)">
      <use xlink:href="#CMMI12-43" transform="scale(0.996264)"/>
      <use xlink:href="#CMMI12-70" transform="translate(76.946847 0) scale(0.996264)"/>
      <use xlink:href="#CMR17-3d" transform="translate(153.580369 0) scale(0.996264)"/>
      <use xlink:href="#CMR17-33" transform="translate(252.969167 0) scale(0.996264)"/>
      <use xlink:href="#CMR17-30" transform="translate(298.659644 0) scale(0.996264)"/>
      <use xlink:href="#CMR17-30" transform="translate(344.350121 0) scale(0.996264)"/>
      <use xlink:href="#CMMI12-3a" transform="translate(390.040598 0) scale(0.996264)"/>
      <use xlink:href="#CMR17-30" transform="translate(417.137775 0) scale(0.996264)"/>
      <use xlink:href="#CMR17-66" transform="translate(462.828252 0) scale(0.996264)"/>
      <use xlink:href="#CMR17-46" transform="translate(490.301765 0) scale(0.996264)"/>
     </g>
    </g>
    <g id="line2d_45">
     <path d="M 224.436106 102.748114 
L 238.436106 102.748114 
L 252.436106 102.748114 
" style="fill: none; stroke: #9467bd; stroke-width: 2; stroke-linecap: square"/>
    </g>
    <g id="text_23">
     <!-- $Cp = 400.0$fF -->
     <g transform="translate(263.636106 107.648114) scale(0.14 -0.14)">
      <defs>
       <path id="CMR17-34" d="M 2150 4122 
C 2150 4256 2144 4256 2029 4256 
L 128 1254 
L 128 1088 
L 1779 1088 
L 1779 457 
C 1779 224 1766 160 1318 160 
L 1197 160 
L 1197 0 
C 1402 0 1747 0 1965 0 
C 2182 0 2528 0 2733 0 
L 2733 160 
L 2611 160 
C 2163 160 2150 224 2150 457 
L 2150 1088 
L 2803 1088 
L 2803 1254 
L 2150 1254 
L 2150 4122 
z
M 1798 3703 
L 1798 1254 
L 256 1254 
L 1798 3703 
z
" transform="scale(0.015625)"/>
      </defs>
      <use xlink:href="#CMMI12-43" transform="scale(0.996264)"/>
      <use xlink:href="#CMMI12-70" transform="translate(76.946847 0) scale(0.996264)"/>
      <use xlink:href="#CMR17-3d" transform="translate(153.580369 0) scale(0.996264)"/>
      <use xlink:href="#CMR17-34" transform="translate(252.969167 0) scale(0.996264)"/>
      <use xlink:href="#CMR17-30" transform="translate(298.659644 0) scale(0.996264)"/>
      <use xlink:href="#CMR17-30" transform="translate(344.350121 0) scale(0.996264)"/>
      <use xlink:href="#CMMI12-3a" transform="translate(390.040598 0) scale(0.996264)"/>
      <use xlink:href="#CMR17-30" transform="translate(417.137775 0) scale(0.996264)"/>
      <use xlink:href="#CMR17-66" transform="translate(462.828252 0) scale(0.996264)"/>
      <use xlink:href="#CMR17-46" transform="translate(490.301765 0) scale(0.996264)"/>
     </g>
    </g>
    <g id="line2d_46">
     <path d="M 224.436106 122.260142 
L 238.436106 122.260142 
L 252.436106 122.260142 
" style="fill: none; stroke: #8c564b; stroke-width: 2; stroke-linecap: square"/>
    </g>
    <g id="text_24">
     <!-- $Cp = 500.0$fF -->
     <g transform="translate(263.636106 127.160142) scale(0.14 -0.14)">
      <use xlink:href="#CMMI12-43" transform="scale(0.996264)"/>
      <use xlink:href="#CMMI12-70" transform="translate(76.946847 0) scale(0.996264)"/>
      <use xlink:href="#CMR17-3d" transform="translate(153.580369 0) scale(0.996264)"/>
      <use xlink:href="#CMR17-35" transform="translate(252.969167 0) scale(0.996264)"/>
      <use xlink:href="#CMR17-30" transform="translate(298.659644 0) scale(0.996264)"/>
      <use xlink:href="#CMR17-30" transform="translate(344.350121 0) scale(0.996264)"/>
      <use xlink:href="#CMMI12-3a" transform="translate(390.040598 0) scale(0.996264)"/>
      <use xlink:href="#CMR17-30" transform="translate(417.137775 0) scale(0.996264)"/>
      <use xlink:href="#CMR17-66" transform="translate(462.828252 0) scale(0.996264)"/>
      <use xlink:href="#CMR17-46" transform="translate(490.301765 0) scale(0.996264)"/>
     </g>
    </g>
    <g id="line2d_47">
     <path d="M 224.436106 142.432942 
L 238.436106 142.432942 
L 252.436106 142.432942 
" style="fill: none; stroke-dasharray: 5.55,2.4; stroke-dashoffset: 0; stroke: #ff0000; stroke-width: 1.5"/>
    </g>
    <g id="text_25">
     <!-- $g_{m} / I_{D}$ - Weak Inversion -->
     <g transform="translate(263.636106 147.332942) scale(0.14 -0.14)">
      <defs>
       <path id="CMMI12-6d" d="M 1318 1871 
C 1331 1910 1491 2229 1728 2433 
C 1894 2586 2112 2689 2362 2689 
C 2618 2689 2707 2497 2707 2242 
C 2707 2203 2707 2076 2630 1775 
L 2470 1118 
C 2419 926 2298 453 2285 383 
C 2259 287 2221 121 2221 96 
C 2221 6 2291 -64 2387 -64 
C 2579 -64 2611 83 2669 313 
L 3053 1839 
C 3066 1890 3398 2689 4102 2689 
C 4358 2689 4448 2497 4448 2242 
C 4448 1884 4198 1188 4058 805 
C 4000 651 3968 568 3968 453 
C 3968 166 4166 -64 4474 -64 
C 5069 -64 5293 875 5293 913 
C 5293 945 5267 971 5229 971 
C 5171 971 5165 952 5133 843 
C 4986 332 4749 64 4493 64 
C 4429 64 4326 64 4326 269 
C 4326 436 4403 640 4429 710 
C 4544 1018 4832 1773 4832 2145 
C 4832 2528 4608 2816 4122 2816 
C 3693 2816 3347 2574 3091 2197 
C 3072 2542 2861 2816 2381 2816 
C 1811 2816 1510 2415 1395 2255 
C 1376 2618 1114 2816 832 2816 
C 646 2816 499 2727 378 2484 
C 262 2254 173 1865 173 1839 
C 173 1814 198 1782 243 1782 
C 294 1782 301 1788 339 1935 
C 435 2312 557 2689 813 2689 
C 960 2689 1011 2586 1011 2395 
C 1011 2254 947 2005 902 1807 
L 723 1118 
C 698 996 627 709 595 594 
C 550 428 480 128 480 96 
C 480 6 550 -64 646 -64 
C 723 -64 813 -26 864 70 
C 877 102 934 326 966 453 
L 1107 1028 
L 1318 1871 
z
" transform="scale(0.015625)"/>
       <path id="CMMI12-44" d="M 1005 472 
C 947 249 934 185 486 185 
C 365 185 301 185 301 70 
C 301 0 339 0 467 0 
L 2496 0 
C 3789 0 5050 1332 5050 2753 
C 5050 3671 4499 4352 3584 4352 
L 1530 4352 
C 1408 4352 1350 4352 1350 4231 
C 1350 4167 1408 4167 1504 4167 
C 1894 4167 1894 4116 1894 4046 
C 1894 4034 1894 3995 1869 3899 
L 1005 472 
z
M 2355 3931 
C 2413 4167 2438 4167 2688 4167 
L 3392 4167 
C 3994 4167 4544 3842 4544 2963 
C 4544 2644 4416 1536 3795 835 
C 3616 625 3130 185 2394 185 
L 1664 185 
C 1574 185 1562 185 1523 192 
C 1453 198 1446 211 1446 262 
C 1446 307 1459 345 1472 402 
L 2355 3931 
z
" transform="scale(0.015625)"/>
       <path id="CMR17-2d" d="M 1632 1216 
L 1632 1496 
L 26 1496 
L 26 1216 
L 1632 1216 
z
" transform="scale(0.015625)"/>
       <path id="CMR17-57" d="M 5523 3764 
C 5581 3936 5677 4160 6048 4160 
L 6048 4326 
C 5939 4326 5715 4326 5600 4326 
C 5440 4326 5158 4326 5005 4332 
L 5005 4160 
C 5293 4160 5414 4000 5414 3847 
C 5414 3802 5408 3777 5382 3707 
L 4390 555 
L 3347 3873 
C 3328 3937 3322 3963 3322 3988 
C 3322 4160 3603 4160 3725 4160 
L 3725 4326 
C 3539 4326 3219 4326 3021 4326 
C 2861 4326 2573 4326 2426 4332 
L 2426 4160 
C 2720 4160 2797 4141 2861 4027 
C 2886 3969 2989 3638 2989 3619 
C 2989 3593 2976 3555 2970 3536 
L 2029 561 
L 986 3867 
C 954 3957 954 3969 954 3982 
C 954 4160 1235 4160 1363 4160 
L 1363 4326 
C 1178 4326 858 4326 659 4326 
C 493 4326 211 4326 58 4332 
L 58 4160 
C 442 4160 467 4122 531 3918 
L 1779 -20 
C 1811 -115 1811 -128 1869 -128 
C 1920 -128 1939 -115 1965 -26 
L 3053 3433 
L 4141 -26 
C 4166 -115 4186 -128 4237 -128 
C 4294 -128 4294 -115 4326 -20 
L 5523 3764 
z
" transform="scale(0.015625)"/>
       <path id="CMR17-65" d="M 2438 1472 
C 2464 1498 2464 1511 2464 1576 
C 2464 2238 2118 2816 1389 2816 
C 710 2816 173 2169 173 1383 
C 173 551 781 -64 1459 -64 
C 2176 -64 2458 607 2458 740 
C 2458 784 2419 784 2406 784 
C 2362 784 2355 771 2330 696 
C 2189 265 1837 51 1504 51 
C 1229 51 954 203 781 480 
C 582 803 582 1176 582 1472 
L 2438 1472 
z
M 589 1568 
C 634 2505 1126 2714 1382 2714 
C 1818 2714 2112 2297 2118 1568 
L 589 1568 
z
" transform="scale(0.015625)"/>
       <path id="CMR17-61" d="M 2304 1653 
C 2304 2072 2304 2294 2035 2543 
C 1798 2752 1523 2816 1306 2816 
C 800 2816 435 2407 435 1971 
C 435 1728 627 1728 666 1728 
C 749 1728 896 1778 896 1954 
C 896 2112 774 2181 666 2181 
C 640 2181 608 2174 589 2168 
C 723 2592 1069 2714 1293 2714 
C 1613 2714 1965 2429 1965 1885 
L 1965 1600 
C 1587 1600 1133 1549 774 1357 
C 371 1133 256 813 256 570 
C 256 77 832 -64 1171 -64 
C 1523 -64 1850 139 1990 511 
C 2003 233 2182 -18 2464 -18 
C 2598 -18 2938 70 2938 567 
L 2938 920 
L 2822 920 
L 2822 562 
C 2822 178 2650 128 2566 128 
C 2304 128 2304 458 2304 738 
L 2304 1653 
z
M 1965 870 
C 1965 317 1568 38 1216 38 
C 896 38 646 275 646 570 
C 646 761 730 1100 1101 1305 
C 1408 1478 1760 1504 1965 1504 
L 1965 870 
z
" transform="scale(0.015625)"/>
       <path id="CMR17-6b" d="M 1670 1673 
C 1664 1686 1632 1724 1632 1743 
C 1632 1756 2086 2171 2144 2222 
C 2509 2528 2739 2560 2906 2560 
L 2906 2733 
C 2867 2733 2854 2733 2848 2720 
L 2534 2720 
C 2355 2720 2080 2720 1907 2733 
L 1907 2566 
C 1997 2559 2061 2508 2061 2419 
C 2061 2291 1933 2170 1926 2170 
L 960 1289 
L 960 4396 
L 198 4326 
L 198 4160 
C 576 4160 634 4122 634 3817 
L 634 426 
C 634 184 608 153 198 153 
L 198 -13 
C 352 0 634 0 794 0 
C 954 0 1235 0 1389 -13 
L 1389 153 
C 979 153 954 178 954 428 
L 954 1130 
L 1395 1532 
L 2042 574 
C 2118 459 2182 369 2182 286 
C 2182 172 2067 153 1990 153 
L 1990 -13 
C 2144 0 2419 0 2579 0 
C 2694 0 2931 0 3040 0 
L 3040 153 
C 2739 153 2669 210 2477 491 
L 1670 1673 
z
" transform="scale(0.015625)"/>
       <path id="CMR17-49" d="M 1261 3905 
C 1261 4192 1338 4192 1798 4192 
L 1798 4352 
C 1594 4352 1267 4352 1050 4352 
C 832 4352 506 4352 301 4352 
L 301 4192 
C 762 4192 838 4192 838 3905 
L 838 447 
C 838 160 762 160 301 160 
L 301 0 
C 506 0 832 0 1050 0 
C 1267 0 1594 0 1798 0 
L 1798 160 
C 1338 160 1261 160 1261 447 
L 1261 3905 
z
" transform="scale(0.015625)"/>
       <path id="CMR17-76" d="M 2502 2163 
C 2560 2304 2662 2560 3034 2560 
L 3034 2726 
C 2912 2726 2752 2726 2630 2726 
C 2496 2726 2285 2726 2157 2732 
L 2157 2566 
C 2317 2553 2406 2477 2406 2311 
C 2406 2253 2406 2240 2368 2151 
L 1664 377 
L 902 2286 
C 864 2369 864 2381 864 2407 
C 864 2560 1075 2560 1171 2560 
L 1171 2732 
C 1018 2726 736 2726 576 2726 
C 403 2726 205 2726 64 2732 
L 64 2560 
C 307 2560 442 2560 518 2362 
L 1446 44 
C 1485 -51 1491 -64 1549 -64 
C 1606 -64 1613 -51 1651 44 
L 2502 2163 
z
" transform="scale(0.015625)"/>
       <path id="CMR17-6f" d="M 2758 1356 
C 2758 2176 2163 2816 1466 2816 
C 768 2816 173 2176 173 1356 
C 173 551 768 -64 1466 -64 
C 2163 -64 2758 551 2758 1356 
z
M 1466 51 
C 1165 51 909 230 762 480 
C 602 767 582 1126 582 1408 
C 582 1677 595 2010 762 2298 
C 890 2509 1139 2714 1466 2714 
C 1754 2714 1997 2554 2150 2330 
C 2349 2029 2349 1607 2349 1408 
C 2349 1158 2336 775 2163 467 
C 1984 173 1709 51 1466 51 
z
" transform="scale(0.015625)"/>
      </defs>
      <use xlink:href="#CMMI12-67" transform="scale(0.996264)"/>
      <use xlink:href="#CMMI12-6d" transform="translate(46.710897 -14.943915) scale(0.697382)"/>
      <use xlink:href="#CMMI12-3d" transform="translate(106.93782 0) scale(0.996264)"/>
      <use xlink:href="#CMMI12-49" transform="translate(155.712739 0) scale(0.996264)"/>
      <use xlink:href="#CMMI12-44" transform="translate(198.736914 -14.943915) scale(0.697382)"/>
      <use xlink:href="#CMR17-2d" transform="translate(287.903516 0) scale(0.996264)"/>
      <use xlink:href="#CMR17-57" transform="translate(348.055449 0) scale(0.996264)"/>
      <use xlink:href="#CMR17-65" transform="translate(435.344843 0) scale(0.996264)"/>
      <use xlink:href="#CMR17-61" transform="translate(475.830504 0) scale(0.996264)"/>
      <use xlink:href="#CMR17-6b" transform="translate(521.520981 0) scale(0.996264)"/>
      <use xlink:href="#CMR17-49" transform="translate(599.889863 0) scale(0.996264)"/>
      <use xlink:href="#CMR17-6e" transform="translate(632.528272 0) scale(0.996264)"/>
      <use xlink:href="#CMR17-76" transform="translate(680.821188 0) scale(0.996264)"/>
      <use xlink:href="#CMR17-65" transform="translate(726.51165 0) scale(0.996264)"/>
      <use xlink:href="#CMR17-72" transform="translate(766.997311 0) scale(0.996264)"/>
      <use xlink:href="#CMR17-73" transform="translate(802.278078 0) scale(0.996264)"/>
      <use xlink:href="#CMR17-69" transform="translate(838.079416 0) scale(0.996264)"/>
      <use xlink:href="#CMR17-6f" transform="translate(862.950474 0) scale(0.996264)"/>
      <use xlink:href="#CMR17-6e" transform="translate(908.640952 0) scale(0.996264)"/>
     </g>
    </g>
    <g id="line2d_48">
     <path d="M 224.436106 163.380639 
L 238.436106 163.380639 
L 252.436106 163.380639 
" style="fill: none; stroke-dasharray: 5.55,2.4; stroke-dashoffset: 0; stroke: #008000; stroke-width: 1.5"/>
    </g>
    <g id="text_26">
     <!-- $g_{m} / I_{D}$ - Strong Inversion -->
     <g transform="translate(263.636106 168.280639) scale(0.14 -0.14)">
      <defs>
       <path id="CMR17-74" d="M 966 2560 
L 1862 2560 
L 1862 2725 
L 966 2725 
L 966 3904 
L 851 3904 
C 838 3245 614 2668 70 2668 
L 70 2560 
L 627 2560 
L 627 771 
C 627 650 627 -64 1370 -64 
C 1747 -64 1965 306 1965 777 
L 1965 1140 
L 1850 1140 
L 1850 783 
C 1850 344 1677 51 1408 51 
C 1222 51 966 178 966 758 
L 966 2560 
z
" transform="scale(0.015625)"/>
       <path id="CMR17-67" d="M 710 1164 
C 832 1068 1043 960 1299 960 
C 1805 960 2240 1357 2240 1888 
C 2240 2054 2189 2310 1997 2509 
C 2176 2692 2438 2752 2586 2752 
C 2611 2752 2650 2752 2682 2734 
C 2656 2728 2598 2703 2598 2605 
C 2598 2527 2656 2471 2739 2471 
C 2835 2471 2886 2533 2886 2614 
C 2886 2731 2790 2854 2586 2854 
C 2330 2854 2106 2738 1926 2580 
C 1734 2753 1504 2816 1299 2816 
C 794 2816 358 2419 358 1888 
C 358 1522 570 1292 634 1228 
C 442 1004 442 743 442 711 
C 442 545 506 302 723 168 
C 390 85 128 -169 128 -486 
C 128 -943 736 -1280 1466 -1280 
C 2170 -1280 2803 -956 2803 -479 
C 2803 384 1856 384 1363 384 
C 1216 384 954 384 922 391 
C 723 423 589 602 589 826 
C 589 883 589 1024 710 1164 
z
M 1299 1068 
C 736 1068 736 1760 736 1889 
C 736 2016 736 2708 1299 2708 
C 1862 2708 1862 2016 1862 1889 
C 1862 1760 1862 1068 1299 1068 
z
M 1466 -1171 
C 826 -1171 384 -835 384 -486 
C 384 -289 493 -105 634 -4 
C 794 104 858 104 1293 104 
C 1818 104 2547 104 2547 -486 
C 2547 -835 2106 -1171 1466 -1171 
z
" transform="scale(0.015625)"/>
      </defs>
      <use xlink:href="#CMMI12-67" transform="scale(0.996264)"/>
      <use xlink:href="#CMMI12-6d" transform="translate(46.710897 -14.943915) scale(0.697382)"/>
      <use xlink:href="#CMMI12-3d" transform="translate(106.93782 0) scale(0.996264)"/>
      <use xlink:href="#CMMI12-49" transform="translate(155.712739 0) scale(0.996264)"/>
      <use xlink:href="#CMMI12-44" transform="translate(198.736914 -14.943915) scale(0.697382)"/>
      <use xlink:href="#CMR17-2d" transform="translate(287.903516 0) scale(0.996264)"/>
      <use xlink:href="#CMR17-53" transform="translate(348.055449 0) scale(0.996264)"/>
      <use xlink:href="#CMR17-74" transform="translate(398.950819 0) scale(0.996264)"/>
      <use xlink:href="#CMR17-72" transform="translate(434.231586 0) scale(0.996264)"/>
      <use xlink:href="#CMR17-6f" transform="translate(469.512354 0) scale(0.996264)"/>
      <use xlink:href="#CMR17-6e" transform="translate(515.202831 0) scale(0.996264)"/>
      <use xlink:href="#CMR17-67" transform="translate(566.098201 0) scale(0.996264)"/>
      <use xlink:href="#CMR17-49" transform="translate(641.864645 0) scale(0.996264)"/>
      <use xlink:href="#CMR17-6e" transform="translate(674.503054 0) scale(0.996264)"/>
      <use xlink:href="#CMR17-76" transform="translate(722.79597 0) scale(0.996264)"/>
      <use xlink:href="#CMR17-65" transform="translate(768.486431 0) scale(0.996264)"/>
      <use xlink:href="#CMR17-72" transform="translate(808.972092 0) scale(0.996264)"/>
      <use xlink:href="#CMR17-73" transform="translate(844.25286 0) scale(0.996264)"/>
      <use xlink:href="#CMR17-69" transform="translate(880.054197 0) scale(0.996264)"/>
      <use xlink:href="#CMR17-6f" transform="translate(904.925256 0) scale(0.996264)"/>
      <use xlink:href="#CMR17-6e" transform="translate(950.615733 0) scale(0.996264)"/>
     </g>
    </g>
   </g>
  </g>
 </g>
 <defs>
  <clipPath id="p8614629844">
   <rect x="53.136812" y="7.2" width="372.483652" height="278.014399"/>
  </clipPath>
 </defs>
</svg>
