<?xml version="1.0" encoding="utf-8" standalone="no"?>
<!DOCTYPE svg PUBLIC "-//W3C//DTD SVG 1.1//EN"
  "http://www.w3.org/Graphics/SVG/1.1/DTD/svg11.dtd">
<svg xmlns:xlink="http://www.w3.org/1999/xlink" width="421.470312pt" height="277.15625pt" viewBox="0 0 421.470312 277.15625" xmlns="http://www.w3.org/2000/svg" version="1.1">
 <metadata>
  <rdf:RDF xmlns:dc="http://purl.org/dc/elements/1.1/" xmlns:cc="http://creativecommons.org/ns#" xmlns:rdf="http://www.w3.org/1999/02/22-rdf-syntax-ns#">
   <cc:Work>
    <dc:type rdf:resource="http://purl.org/dc/dcmitype/StillImage"/>
    <dc:date>2025-05-29T23:13:26.654939</dc:date>
    <dc:format>image/svg+xml</dc:format>
    <dc:creator>
     <cc:Agent>
      <dc:title>Matplotlib v3.9.2, https://matplotlib.org/</dc:title>
     </cc:Agent>
    </dc:creator>
   </cc:Work>
  </rdf:RDF>
 </metadata>
 <defs>
  <style type="text/css">*{stroke-linejoin: round; stroke-linecap: butt}</style>
 </defs>
 <g id="figure_1">
  <g id="patch_1">
   <path d="M 0 277.15625 
L 421.470312 277.15625 
L 421.470312 -0 
L 0 -0 
z
" style="fill: #ffffff"/>
  </g>
  <g id="axes_1">
   <g id="patch_2">
    <path d="M 42.620313 101 
L 414.270312 101 
L 414.270312 7.2 
L 42.620313 7.2 
z
" style="fill: #ffffff"/>
   </g>
   <g id="matplotlib.axis_1">
    <g id="xtick_1">
     <g id="line2d_1">
      <path d="M 59.513494 101 
L 59.513494 7.2 
" clip-path="url(#pb9182edcdb)" style="fill: none; stroke-dasharray: 2.96,1.28; stroke-dashoffset: 0; stroke: #b0b0b0; stroke-width: 0.8"/>
     </g>
     <g id="line2d_2">
      <defs>
       <path id="m2d754f2ddf" d="M 0 0 
L 0 3.5 
" style="stroke: #000000; stroke-width: 0.8"/>
      </defs>
      <g>
       <use xlink:href="#m2d754f2ddf" x="59.513494" y="101" style="stroke: #000000; stroke-width: 0.8"/>
      </g>
     </g>
     <g id="text_1">
      <!-- 0 -->
      <g transform="translate(56.332244 115.598437) scale(0.1 -0.1)">
       <defs>
        <path id="DejaVuSans-30" d="M 2034 4250 
Q 1547 4250 1301 3770 
Q 1056 3291 1056 2328 
Q 1056 1369 1301 889 
Q 1547 409 2034 409 
Q 2525 409 2770 889 
Q 3016 1369 3016 2328 
Q 3016 3291 2770 3770 
Q 2525 4250 2034 4250 
z
M 2034 4750 
Q 2819 4750 3233 4129 
Q 3647 3509 3647 2328 
Q 3647 1150 3233 529 
Q 2819 -91 2034 -91 
Q 1250 -91 836 529 
Q 422 1150 422 2328 
Q 422 3509 836 4129 
Q 1250 4750 2034 4750 
z
" transform="scale(0.015625)"/>
       </defs>
       <use xlink:href="#DejaVuSans-30"/>
      </g>
     </g>
    </g>
    <g id="xtick_2">
     <g id="line2d_3">
      <path d="M 127.171375 101 
L 127.171375 7.2 
" clip-path="url(#pb9182edcdb)" style="fill: none; stroke-dasharray: 2.96,1.28; stroke-dashoffset: 0; stroke: #b0b0b0; stroke-width: 0.8"/>
     </g>
     <g id="line2d_4">
      <g>
       <use xlink:href="#m2d754f2ddf" x="127.171375" y="101" style="stroke: #000000; stroke-width: 0.8"/>
      </g>
     </g>
     <g id="text_2">
      <!-- 100 -->
      <g transform="translate(117.627625 115.598437) scale(0.1 -0.1)">
       <defs>
        <path id="DejaVuSans-31" d="M 794 531 
L 1825 531 
L 1825 4091 
L 703 3866 
L 703 4441 
L 1819 4666 
L 2450 4666 
L 2450 531 
L 3481 531 
L 3481 0 
L 794 0 
L 794 531 
z
" transform="scale(0.015625)"/>
       </defs>
       <use xlink:href="#DejaVuSans-31"/>
       <use xlink:href="#DejaVuSans-30" x="63.623047"/>
       <use xlink:href="#DejaVuSans-30" x="127.246094"/>
      </g>
     </g>
    </g>
    <g id="xtick_3">
     <g id="line2d_5">
      <path d="M 194.829256 101 
L 194.829256 7.2 
" clip-path="url(#pb9182edcdb)" style="fill: none; stroke-dasharray: 2.96,1.28; stroke-dashoffset: 0; stroke: #b0b0b0; stroke-width: 0.8"/>
     </g>
     <g id="line2d_6">
      <g>
       <use xlink:href="#m2d754f2ddf" x="194.829256" y="101" style="stroke: #000000; stroke-width: 0.8"/>
      </g>
     </g>
     <g id="text_3">
      <!-- 200 -->
      <g transform="translate(185.285506 115.598437) scale(0.1 -0.1)">
       <defs>
        <path id="DejaVuSans-32" d="M 1228 531 
L 3431 531 
L 3431 0 
L 469 0 
L 469 531 
Q 828 903 1448 1529 
Q 2069 2156 2228 2338 
Q 2531 2678 2651 2914 
Q 2772 3150 2772 3378 
Q 2772 3750 2511 3984 
Q 2250 4219 1831 4219 
Q 1534 4219 1204 4116 
Q 875 4013 500 3803 
L 500 4441 
Q 881 4594 1212 4672 
Q 1544 4750 1819 4750 
Q 2544 4750 2975 4387 
Q 3406 4025 3406 3419 
Q 3406 3131 3298 2873 
Q 3191 2616 2906 2266 
Q 2828 2175 2409 1742 
Q 1991 1309 1228 531 
z
" transform="scale(0.015625)"/>
       </defs>
       <use xlink:href="#DejaVuSans-32"/>
       <use xlink:href="#DejaVuSans-30" x="63.623047"/>
       <use xlink:href="#DejaVuSans-30" x="127.246094"/>
      </g>
     </g>
    </g>
    <g id="xtick_4">
     <g id="line2d_7">
      <path d="M 262.487138 101 
L 262.487138 7.2 
" clip-path="url(#pb9182edcdb)" style="fill: none; stroke-dasharray: 2.96,1.28; stroke-dashoffset: 0; stroke: #b0b0b0; stroke-width: 0.8"/>
     </g>
     <g id="line2d_8">
      <g>
       <use xlink:href="#m2d754f2ddf" x="262.487138" y="101" style="stroke: #000000; stroke-width: 0.8"/>
      </g>
     </g>
     <g id="text_4">
      <!-- 300 -->
      <g transform="translate(252.943388 115.598437) scale(0.1 -0.1)">
       <defs>
        <path id="DejaVuSans-33" d="M 2597 2516 
Q 3050 2419 3304 2112 
Q 3559 1806 3559 1356 
Q 3559 666 3084 287 
Q 2609 -91 1734 -91 
Q 1441 -91 1130 -33 
Q 819 25 488 141 
L 488 750 
Q 750 597 1062 519 
Q 1375 441 1716 441 
Q 2309 441 2620 675 
Q 2931 909 2931 1356 
Q 2931 1769 2642 2001 
Q 2353 2234 1838 2234 
L 1294 2234 
L 1294 2753 
L 1863 2753 
Q 2328 2753 2575 2939 
Q 2822 3125 2822 3475 
Q 2822 3834 2567 4026 
Q 2313 4219 1838 4219 
Q 1578 4219 1281 4162 
Q 984 4106 628 3988 
L 628 4550 
Q 988 4650 1302 4700 
Q 1616 4750 1894 4750 
Q 2613 4750 3031 4423 
Q 3450 4097 3450 3541 
Q 3450 3153 3228 2886 
Q 3006 2619 2597 2516 
z
" transform="scale(0.015625)"/>
       </defs>
       <use xlink:href="#DejaVuSans-33"/>
       <use xlink:href="#DejaVuSans-30" x="63.623047"/>
       <use xlink:href="#DejaVuSans-30" x="127.246094"/>
      </g>
     </g>
    </g>
    <g id="xtick_5">
     <g id="line2d_9">
      <path d="M 330.145019 101 
L 330.145019 7.2 
" clip-path="url(#pb9182edcdb)" style="fill: none; stroke-dasharray: 2.96,1.28; stroke-dashoffset: 0; stroke: #b0b0b0; stroke-width: 0.8"/>
     </g>
     <g id="line2d_10">
      <g>
       <use xlink:href="#m2d754f2ddf" x="330.145019" y="101" style="stroke: #000000; stroke-width: 0.8"/>
      </g>
     </g>
     <g id="text_5">
      <!-- 400 -->
      <g transform="translate(320.601269 115.598437) scale(0.1 -0.1)">
       <defs>
        <path id="DejaVuSans-34" d="M 2419 4116 
L 825 1625 
L 2419 1625 
L 2419 4116 
z
M 2253 4666 
L 3047 4666 
L 3047 1625 
L 3713 1625 
L 3713 1100 
L 3047 1100 
L 3047 0 
L 2419 0 
L 2419 1100 
L 313 1100 
L 313 1709 
L 2253 4666 
z
" transform="scale(0.015625)"/>
       </defs>
       <use xlink:href="#DejaVuSans-34"/>
       <use xlink:href="#DejaVuSans-30" x="63.623047"/>
       <use xlink:href="#DejaVuSans-30" x="127.246094"/>
      </g>
     </g>
    </g>
    <g id="xtick_6">
     <g id="line2d_11">
      <path d="M 397.8029 101 
L 397.8029 7.2 
" clip-path="url(#pb9182edcdb)" style="fill: none; stroke-dasharray: 2.96,1.28; stroke-dashoffset: 0; stroke: #b0b0b0; stroke-width: 0.8"/>
     </g>
     <g id="line2d_12">
      <g>
       <use xlink:href="#m2d754f2ddf" x="397.8029" y="101" style="stroke: #000000; stroke-width: 0.8"/>
      </g>
     </g>
     <g id="text_6">
      <!-- 500 -->
      <g transform="translate(388.25915 115.598437) scale(0.1 -0.1)">
       <defs>
        <path id="DejaVuSans-35" d="M 691 4666 
L 3169 4666 
L 3169 4134 
L 1269 4134 
L 1269 2991 
Q 1406 3038 1543 3061 
Q 1681 3084 1819 3084 
Q 2600 3084 3056 2656 
Q 3513 2228 3513 1497 
Q 3513 744 3044 326 
Q 2575 -91 1722 -91 
Q 1428 -91 1123 -41 
Q 819 9 494 109 
L 494 744 
Q 775 591 1075 516 
Q 1375 441 1709 441 
Q 2250 441 2565 725 
Q 2881 1009 2881 1497 
Q 2881 1984 2565 2268 
Q 2250 2553 1709 2553 
Q 1456 2553 1204 2497 
Q 953 2441 691 2322 
L 691 4666 
z
" transform="scale(0.015625)"/>
       </defs>
       <use xlink:href="#DejaVuSans-35"/>
       <use xlink:href="#DejaVuSans-30" x="63.623047"/>
       <use xlink:href="#DejaVuSans-30" x="127.246094"/>
      </g>
     </g>
    </g>
    <g id="text_7">
     <!-- $t$ (us) -->
     <g transform="translate(215.195312 129.276562) scale(0.1 -0.1)">
      <defs>
       <path id="DejaVuSans-Oblique-74" d="M 2706 3500 
L 2619 3053 
L 1472 3053 
L 1100 1153 
Q 1081 1047 1072 975 
Q 1063 903 1063 863 
Q 1063 663 1183 572 
Q 1303 481 1569 481 
L 2150 481 
L 2053 0 
L 1503 0 
Q 991 0 739 200 
Q 488 400 488 806 
Q 488 878 497 964 
Q 506 1050 525 1153 
L 897 3053 
L 409 3053 
L 500 3500 
L 978 3500 
L 1172 4494 
L 1747 4494 
L 1556 3500 
L 2706 3500 
z
" transform="scale(0.015625)"/>
       <path id="DejaVuSans-20" transform="scale(0.015625)"/>
       <path id="DejaVuSans-28" d="M 1984 4856 
Q 1566 4138 1362 3434 
Q 1159 2731 1159 2009 
Q 1159 1288 1364 580 
Q 1569 -128 1984 -844 
L 1484 -844 
Q 1016 -109 783 600 
Q 550 1309 550 2009 
Q 550 2706 781 3412 
Q 1013 4119 1484 4856 
L 1984 4856 
z
" transform="scale(0.015625)"/>
       <path id="DejaVuSans-75" d="M 544 1381 
L 544 3500 
L 1119 3500 
L 1119 1403 
Q 1119 906 1312 657 
Q 1506 409 1894 409 
Q 2359 409 2629 706 
Q 2900 1003 2900 1516 
L 2900 3500 
L 3475 3500 
L 3475 0 
L 2900 0 
L 2900 538 
Q 2691 219 2414 64 
Q 2138 -91 1772 -91 
Q 1169 -91 856 284 
Q 544 659 544 1381 
z
M 1991 3584 
L 1991 3584 
z
" transform="scale(0.015625)"/>
       <path id="DejaVuSans-73" d="M 2834 3397 
L 2834 2853 
Q 2591 2978 2328 3040 
Q 2066 3103 1784 3103 
Q 1356 3103 1142 2972 
Q 928 2841 928 2578 
Q 928 2378 1081 2264 
Q 1234 2150 1697 2047 
L 1894 2003 
Q 2506 1872 2764 1633 
Q 3022 1394 3022 966 
Q 3022 478 2636 193 
Q 2250 -91 1575 -91 
Q 1294 -91 989 -36 
Q 684 19 347 128 
L 347 722 
Q 666 556 975 473 
Q 1284 391 1588 391 
Q 1994 391 2212 530 
Q 2431 669 2431 922 
Q 2431 1156 2273 1281 
Q 2116 1406 1581 1522 
L 1381 1569 
Q 847 1681 609 1914 
Q 372 2147 372 2553 
Q 372 3047 722 3315 
Q 1072 3584 1716 3584 
Q 2034 3584 2315 3537 
Q 2597 3491 2834 3397 
z
" transform="scale(0.015625)"/>
       <path id="DejaVuSans-29" d="M 513 4856 
L 1013 4856 
Q 1481 4119 1714 3412 
Q 1947 2706 1947 2009 
Q 1947 1309 1714 600 
Q 1481 -109 1013 -844 
L 513 -844 
Q 928 -128 1133 580 
Q 1338 1288 1338 2009 
Q 1338 2731 1133 3434 
Q 928 4138 513 4856 
z
" transform="scale(0.015625)"/>
      </defs>
      <use xlink:href="#DejaVuSans-Oblique-74" transform="translate(0 0.125)"/>
      <use xlink:href="#DejaVuSans-20" transform="translate(39.208984 0.125)"/>
      <use xlink:href="#DejaVuSans-28" transform="translate(70.996094 0.125)"/>
      <use xlink:href="#DejaVuSans-75" transform="translate(110.009766 0.125)"/>
      <use xlink:href="#DejaVuSans-73" transform="translate(173.388672 0.125)"/>
      <use xlink:href="#DejaVuSans-29" transform="translate(225.488281 0.125)"/>
     </g>
    </g>
   </g>
   <g id="matplotlib.axis_2">
    <g id="ytick_1">
     <g id="line2d_13">
      <path d="M 42.620313 82.52946 
L 414.270312 82.52946 
" clip-path="url(#pb9182edcdb)" style="fill: none; stroke-dasharray: 2.96,1.28; stroke-dashoffset: 0; stroke: #b0b0b0; stroke-width: 0.8"/>
     </g>
     <g id="line2d_14">
      <defs>
       <path id="md9775fadb2" d="M 0 0 
L -3.5 0 
" style="stroke: #000000; stroke-width: 0.8"/>
      </defs>
      <g>
       <use xlink:href="#md9775fadb2" x="42.620313" y="82.52946" style="stroke: #000000; stroke-width: 0.8"/>
      </g>
     </g>
     <g id="text_8">
      <!-- −1 -->
      <g transform="translate(20.878125 86.328679) scale(0.1 -0.1)">
       <defs>
        <path id="DejaVuSans-2212" d="M 678 2272 
L 4684 2272 
L 4684 1741 
L 678 1741 
L 678 2272 
z
" transform="scale(0.015625)"/>
       </defs>
       <use xlink:href="#DejaVuSans-2212"/>
       <use xlink:href="#DejaVuSans-31" x="83.789062"/>
      </g>
     </g>
    </g>
    <g id="ytick_2">
     <g id="line2d_15">
      <path d="M 42.620313 54.115087 
L 414.270312 54.115087 
" clip-path="url(#pb9182edcdb)" style="fill: none; stroke-dasharray: 2.96,1.28; stroke-dashoffset: 0; stroke: #b0b0b0; stroke-width: 0.8"/>
     </g>
     <g id="line2d_16">
      <g>
       <use xlink:href="#md9775fadb2" x="42.620313" y="54.115087" style="stroke: #000000; stroke-width: 0.8"/>
      </g>
     </g>
     <g id="text_9">
      <!-- 0 -->
      <g transform="translate(29.257813 57.914306) scale(0.1 -0.1)">
       <use xlink:href="#DejaVuSans-30"/>
      </g>
     </g>
    </g>
    <g id="ytick_3">
     <g id="line2d_17">
      <path d="M 42.620313 25.700713 
L 414.270312 25.700713 
" clip-path="url(#pb9182edcdb)" style="fill: none; stroke-dasharray: 2.96,1.28; stroke-dashoffset: 0; stroke: #b0b0b0; stroke-width: 0.8"/>
     </g>
     <g id="line2d_18">
      <g>
       <use xlink:href="#md9775fadb2" x="42.620313" y="25.700713" style="stroke: #000000; stroke-width: 0.8"/>
      </g>
     </g>
     <g id="text_10">
      <!-- 1 -->
      <g transform="translate(29.257813 29.499932) scale(0.1 -0.1)">
       <use xlink:href="#DejaVuSans-31"/>
      </g>
     </g>
    </g>
    <g id="text_11">
     <!-- $V$ (V) -->
     <g transform="translate(14.798438 66.45) rotate(-90) scale(0.1 -0.1)">
      <defs>
       <path id="DejaVuSans-Oblique-56" d="M 1319 0 
L 500 4666 
L 1119 4666 
L 1797 653 
L 4063 4666 
L 4750 4666 
L 2053 0 
L 1319 0 
z
" transform="scale(0.015625)"/>
       <path id="DejaVuSans-56" d="M 1831 0 
L 50 4666 
L 709 4666 
L 2188 738 
L 3669 4666 
L 4325 4666 
L 2547 0 
L 1831 0 
z
" transform="scale(0.015625)"/>
      </defs>
      <use xlink:href="#DejaVuSans-Oblique-56" transform="translate(0 0.125)"/>
      <use xlink:href="#DejaVuSans-20" transform="translate(68.408203 0.125)"/>
      <use xlink:href="#DejaVuSans-28" transform="translate(100.195312 0.125)"/>
      <use xlink:href="#DejaVuSans-56" transform="translate(139.208984 0.125)"/>
      <use xlink:href="#DejaVuSans-29" transform="translate(207.617188 0.125)"/>
     </g>
    </g>
   </g>
   <g id="line2d_19">
    <path d="M 59.513494 54.115087 
L 74.057982 42.740801 
L 81.669486 37.066646 
L 88.435274 32.305138 
L 93.93248 28.686386 
L 99.345111 25.381907 
L 104.25031 22.636998 
L 108.986361 20.234259 
L 113.811685 18.055787 
L 118.120177 16.35477 
L 122.17965 14.973025 
L 126.298409 13.798443 
L 130.357882 12.871499 
L 134.417354 12.178908 
L 138.586688 11.715651 
L 142.64616 11.508763 
L 146.387049 11.532451 
L 150.316957 11.778647 
L 154.376429 12.269666 
L 158.097613 12.928737 
L 162.157086 13.871884 
L 166.216559 15.043702 
L 170.445176 16.500312 
L 174.504649 18.116962 
L 178.856135 20.076785 
L 183.410028 22.365504 
L 188.146079 24.986328 
L 193.051277 27.937939 
L 198.463908 31.445834 
L 204.637686 35.724355 
L 211.488043 40.75195 
L 220.283567 47.512201 
L 248.107877 69.179284 
L 254.958233 74.116755 
L 261.047443 78.236527 
L 266.544648 81.692437 
L 271.957279 84.814704 
L 276.862477 87.377278 
L 281.598529 89.589911 
L 286.334581 91.528224 
L 290.453343 92.979171 
L 294.512816 94.186823 
L 298.682145 95.19008 
L 302.741617 95.930395 
L 306.80109 96.433108 
L 311.004424 96.700221 
L 315.063897 96.711939 
L 319.12337 96.481615 
L 322.759981 96.070788 
L 326.819454 95.386303 
L 330.540637 94.552727 
L 334.60011 93.423317 
L 338.659583 92.07055 
L 342.888201 90.432208 
L 347.624252 88.331973 
L 352.470174 85.909288 
L 357.206226 83.292675 
L 362.707619 79.971422 
L 368.116061 76.443158 
L 374.28984 72.142615 
L 381.055628 67.159929 
L 389.851157 60.387045 
L 397.377131 54.452134 
L 397.377131 54.452134 
" clip-path="url(#pb9182edcdb)" style="fill: none; stroke: #1f77b4; stroke-width: 2; stroke-linecap: square"/>
   </g>
   <g id="line2d_20">
    <path d="M 59.513494 54.115086 
L 59.68265 53.989646 
L 59.683107 49.445847 
L 59.767861 59.145797 
L 59.81412 59.07577 
L 63.15882 56.527425 
L 70.507907 51.122756 
L 70.508038 50.890628 
L 70.593387 59.131212 
L 71.351667 58.553719 
L 78.117455 53.719499 
L 81.333168 51.501162 
L 81.333388 48.898315 
L 81.419679 59.109496 
L 87.758695 54.894459 
L 92.15843 52.140154 
L 92.158773 47.897053 
L 92.246241 59.11068 
L 97.315374 56.118015 
L 102.814922 53.143691 
L 102.983698 53.056462 
L 102.9843 49.039844 
L 103.079309 59.108111 
L 107.633204 56.873593 
L 112.369255 54.794706 
L 113.808951 54.213582 
L 113.811685 52.955173 
L 113.894812 59.115972 
L 117.443598 57.781194 
L 121.503071 56.449898 
L 125.62183 55.313394 
L 129.681303 54.409611 
L 133.740776 53.725269 
L 135.459474 53.502638 
L 135.459817 49.192498 
L 135.547285 59.113892 
L 139.263266 58.766141 
L 143.322739 58.604698 
L 147.610641 58.681585 
L 151.670114 58.987245 
L 155.729587 59.516748 
L 160.127349 60.3382 
L 164.186822 61.318861 
L 168.41544 62.558383 
L 173.151491 64.196158 
L 177.887543 66.077844 
L 178.760525 66.449546 
L 178.792859 54.091518 
L 178.856135 59.123922 
L 183.410028 61.268722 
L 188.822658 64.0846 
L 189.585811 64.503767 
L 189.67035 54.117424 
L 189.671024 59.158281 
L 189.712622 59.142023 
L 195.081013 62.253072 
L 200.411107 65.562854 
L 200.495634 54.118114 
L 200.496519 59.137341 
L 200.579517 59.17336 
L 207.344002 63.667385 
L 211.236299 66.351558 
L 211.320874 54.119702 
L 211.32216 59.123792 
L 216.900673 63.107948 
L 222.061562 66.859093 
L 222.069873 53.811368 
L 222.147376 59.119514 
L 232.886823 67.052825 
L 232.971396 54.116505 
L 232.972658 59.120464 
L 243.712084 66.930476 
L 243.720856 53.756132 
L 243.798594 59.11895 
L 250.814192 64.012484 
L 254.537345 66.494453 
L 254.546165 53.773357 
L 254.625156 59.121937 
L 260.370864 62.78776 
L 265.362608 65.761135 
L 265.379793 53.909318 
L 265.453019 59.122446 
L 270.604121 61.967844 
L 275.340173 64.354433 
L 276.187859 64.756484 
L 276.187882 64.756341 
L 276.272448 54.117416 
L 276.293893 59.128552 
L 280.92195 61.188805 
L 285.658002 63.043144 
L 289.776764 64.434389 
L 293.836237 65.594031 
L 297.838456 66.53155 
L 297.922983 54.117201 
L 297.923867 59.136093 
L 298.006867 59.135985 
L 302.065039 59.868355 
L 306.124511 60.37862 
L 310.327845 60.669611 
L 314.387318 60.719889 
L 318.446791 60.543242 
L 322.759981 60.108196 
L 326.819454 59.468481 
L 331.217216 58.527843 
L 335.276689 57.436325 
L 339.336162 56.136837 
L 343.564779 54.570049 
L 348.300831 52.568884 
L 351.964696 50.851672 
L 351.965152 46.684954 
L 352.055107 59.110037 
L 357.206226 56.456359 
L 362.789961 53.298916 
L 362.790563 49.23961 
L 362.885573 59.107218 
L 368.79264 55.479704 
L 373.615231 52.333939 
L 373.616024 49.081134 
L 373.700293 59.12685 
L 373.721243 59.098281 
L 381.055628 54.051474 
L 384.44047 51.640701 
L 384.440509 51.642076 
L 384.441608 49.518981 
L 384.525554 59.128504 
L 384.546505 59.098872 
L 395.188603 51.308455 
L 395.350323 54.113747 
L 395.350981 59.15396 
L 395.392345 59.083807 
L 397.377131 57.612783 
L 397.377131 57.612783 
" clip-path="url(#pb9182edcdb)" style="fill: none; stroke: #ff7f0e; stroke-width: 2; stroke-linecap: square"/>
   </g>
   <g id="line2d_21">
    <path d="M 59.513494 28.812931 
L 59.68265 28.750273 
L 59.683107 26.895771 
L 59.767861 35.313341 
L 60.452504 35.01599 
L 66.541714 32.720374 
L 70.508038 31.213194 
L 70.593387 35.308208 
L 76.087718 33.307258 
L 81.333168 31.483402 
L 81.333388 30.367181 
L 81.419679 35.306443 
L 87.758695 33.185987 
L 92.15843 31.808439 
L 92.158773 29.795474 
L 92.246241 35.306818 
L 97.991953 33.609572 
L 102.983683 32.2691 
L 102.983698 32.269494 
L 102.9843 30.194538 
L 103.068641 35.305975 
L 103.079309 35.305309 
L 108.986361 33.869226 
L 113.809082 32.792064 
L 113.811685 32.159489 
L 113.894812 35.307778 
L 119.473335 34.287943 
L 125.62183 33.39748 
L 131.711039 32.757938 
L 135.459474 32.489633 
L 135.459817 30.444555 
L 135.547285 35.308495 
L 140.616424 35.086756 
L 146.387049 35.056027 
L 151.670114 35.226936 
L 157.421034 35.629822 
L 163.510243 36.290637 
L 169.768597 37.209697 
L 175.857807 38.31756 
L 178.760525 38.916416 
L 178.792859 32.796341 
L 178.856135 35.313346 
L 185.439764 36.895352 
L 189.585773 37.998815 
L 189.585811 37.995106 
L 189.670365 32.804725 
L 189.671024 35.320353 
L 189.712622 35.322448 
L 197.11075 37.492554 
L 200.411036 38.524868 
L 200.411107 38.513102 
L 200.495611 32.805851 
L 200.496519 35.311278 
L 209.373738 38.278368 
L 211.236299 38.923572 
L 211.236431 38.866681 
L 211.320874 32.806517 
L 211.32216 35.311604 
L 222.061562 39.178098 
L 222.069873 32.638611 
L 222.147376 35.310663 
L 232.886823 39.27567 
L 232.892726 32.776416 
L 232.972658 35.310142 
L 243.712084 39.214874 
L 243.720856 32.614145 
L 243.798594 35.311355 
L 253.520508 38.662014 
L 254.537345 38.996994 
L 254.546165 32.624314 
L 254.625156 35.31249 
L 262.4006 37.76062 
L 265.362608 38.630427 
L 265.379793 32.709056 
L 265.453019 35.312637 
L 272.633858 37.258927 
L 276.187882 38.128377 
L 276.272448 32.805007 
L 276.293893 35.315722 
L 282.951687 36.757455 
L 289.100185 37.858483 
L 295.189394 38.713972 
L 297.838385 39.011204 
L 297.838456 38.999388 
L 297.92296 32.805417 
L 297.923867 35.31068 
L 303.418196 35.782037 
L 308.974688 36.051252 
L 315.063897 36.101027 
L 320.730245 35.919607 
L 326.819454 35.480088 
L 332.570374 34.839063 
L 338.659583 33.927876 
L 344.917937 32.755549 
L 351.007146 31.399003 
L 351.964696 31.168938 
L 351.965152 29.069042 
L 352.055107 35.306321 
L 359.235962 33.419004 
L 362.789946 32.399261 
L 362.789961 32.399655 
L 362.790563 30.305076 
L 362.874904 35.305949 
L 362.885573 35.304903 
L 371.498955 32.614757 
L 373.615208 31.916469 
L 373.615231 31.916788 
L 373.616024 30.180484 
L 373.700293 35.34158 
L 373.721243 35.300295 
L 384.44047 31.569614 
L 384.441608 30.357922 
L 384.525058 32.802849 
L 384.525554 35.342495 
L 384.546505 35.300709 
L 395.188603 31.405053 
L 395.350308 32.803607 
L 395.350323 32.802899 
L 395.350981 35.318254 
L 395.392345 35.293116 
L 397.377131 34.556065 
L 397.377131 34.556065 
" clip-path="url(#pb9182edcdb)" style="fill: none; stroke: #2ca02c; stroke-width: 2; stroke-linecap: square"/>
   </g>
   <g id="line2d_22">
    <path d="M 59.513494 28.812932 
L 59.68265 28.875713 
L 59.692099 32.834288 
L 59.767861 30.282631 
L 59.81412 30.326486 
L 70.507907 34.261574 
L 70.508038 34.437653 
L 70.593387 30.292083 
L 70.676389 30.339257 
L 81.333168 34.097327 
L 81.333388 35.583952 
L 81.419679 30.312033 
L 92.15843 33.783372 
L 92.158773 36.013508 
L 92.246241 30.311225 
L 100.698268 32.728266 
L 102.983698 33.328119 
L 102.9843 35.269781 
L 103.079309 30.312285 
L 110.339519 32.02933 
L 113.808951 32.75005 
L 113.811685 33.319403 
L 113.894812 30.306892 
L 118.120177 31.086761 
L 124.549663 32.076352 
L 124.550577 32.066127 
L 124.945251 32.11404 
L 131.03446 32.774928 
L 135.459474 33.102082 
L 135.459817 35.367144 
L 135.547285 30.30969 
L 141.969582 30.540421 
L 147.610641 30.511548 
L 153.023272 30.277619 
L 158.774192 29.812406 
L 164.863401 29.081969 
L 171.121755 28.090197 
L 177.887543 26.767886 
L 178.76051 26.581556 
L 178.760525 26.581957 
L 178.792859 32.819909 
L 178.856135 30.304511 
L 185.439764 28.717732 
L 189.585811 27.606426 
L 189.67035 32.803102 
L 189.671024 30.277159 
L 189.712622 30.295512 
L 197.11075 28.11893 
L 200.411107 27.065334 
L 200.495634 32.803146 
L 200.496519 30.289024 
L 200.579517 30.279785 
L 209.373738 27.332408 
L 211.236299 26.687101 
L 211.320912 32.809617 
L 211.32216 30.302898 
L 216.900673 28.310702 
L 222.061562 26.434091 
L 222.069873 32.94233 
L 222.147376 30.306236 
L 232.886823 26.337931 
L 232.971434 32.811307 
L 232.972658 30.304765 
L 243.712084 26.399485 
L 243.720856 32.973099 
L 243.798594 30.307492 
L 252.16735 27.401497 
L 254.537345 26.617627 
L 254.546165 32.966044 
L 254.625156 30.30564 
L 262.4006 27.852934 
L 265.362608 26.984379 
L 265.379793 32.914825 
L 265.453019 30.305278 
L 272.633858 28.354981 
L 276.187859 27.486646 
L 276.187882 27.487124 
L 276.272448 32.802678 
L 276.293893 30.302257 
L 282.951687 28.856605 
L 289.100185 27.753116 
L 295.189394 26.896558 
L 297.838456 26.582925 
L 297.922983 32.803626 
L 297.923867 30.289674 
L 298.006867 30.298506 
L 304.094775 29.78957 
L 309.651266 29.545015 
L 315.063897 29.509922 
L 320.730245 29.690174 
L 326.142875 30.065827 
L 331.893795 30.680293 
L 337.983004 31.562952 
L 344.241358 32.708782 
L 350.330567 34.039608 
L 351.964696 34.432353 
L 351.965152 36.499176 
L 352.055107 30.311371 
L 358.559384 32.005365 
L 362.789961 33.215826 
L 362.790563 35.180553 
L 362.885573 30.312772 
L 370.145798 32.557247 
L 373.615231 33.697935 
L 373.616024 35.214437 
L 373.721243 30.317101 
L 382.408785 33.316901 
L 384.44047 34.043999 
L 384.440509 34.038921 
L 384.441608 34.954028 
L 384.546505 30.316924 
L 395.188603 34.211685 
L 395.350323 32.804239 
L 395.350981 30.279381 
L 395.392345 30.324395 
L 397.377131 31.058369 
L 397.377131 31.058369 
" clip-path="url(#pb9182edcdb)" style="fill: none; stroke: #d62728; stroke-width: 2; stroke-linecap: square"/>
   </g>
   <g id="line2d_23">
    <path d="M 59.513494 32.835309 
L 70.338821 32.828926 
L 70.42428 11.493486 
L 70.435581 11.493543 
L 70.676389 11.493543 
L 92.073861 11.493619 
L 92.073932 11.651774 
L 92.158773 11.493417 
L 92.167295 11.493544 
L 93.255901 11.493544 
L 124.465171 11.493671 
L 124.549663 54.117178 
L 124.562741 54.115053 
L 124.945251 54.115081 
L 135.290523 54.115046 
L 135.415958 11.493532 
L 135.547285 11.493534 
L 146.115968 11.493535 
L 146.134811 54.115084 
L 146.202559 54.11498 
L 152.346693 54.115082 
L 167.850688 54.11505 
L 167.850759 54.649391 
L 167.936364 54.115083 
L 175.857807 54.115082 
L 221.976993 54.115047 
L 221.977064 54.621461 
L 222.069873 54.115082 
L 229.749167 54.115082 
L 232.802254 54.115047 
L 232.802325 54.621035 
L 232.892726 54.115082 
L 235.834293 54.115082 
L 243.627515 54.115047 
L 243.627586 54.621335 
L 243.720856 54.115082 
L 250.814192 54.115082 
L 254.452776 54.115047 
L 254.452847 54.622837 
L 254.546165 54.115082 
L 256.98797 54.115082 
L 265.278039 54.114598 
L 265.278141 54.290194 
L 265.379793 54.115082 
L 266.544648 54.115082 
L 319.404344 54.114595 
L 319.404446 54.259577 
L 319.491126 54.115082 
L 322.759981 54.115082 
L 351.795924 54.115088 
L 351.880229 11.463636 
L 351.881894 11.493676 
L 397.377131 11.493544 
L 397.377131 11.493544 
" clip-path="url(#pb9182edcdb)" style="fill: none; stroke: #9467bd; stroke-width: 2; stroke-linecap: square"/>
   </g>
   <g id="patch_3">
    <path d="M 42.620313 101 
L 42.620313 7.2 
" style="fill: none; stroke: #000000; stroke-width: 0.8; stroke-linejoin: miter; stroke-linecap: square"/>
   </g>
   <g id="patch_4">
    <path d="M 414.270312 101 
L 414.270312 7.2 
" style="fill: none; stroke: #000000; stroke-width: 0.8; stroke-linejoin: miter; stroke-linecap: square"/>
   </g>
   <g id="patch_5">
    <path d="M 42.620313 101 
L 414.270312 101 
" style="fill: none; stroke: #000000; stroke-width: 0.8; stroke-linejoin: miter; stroke-linecap: square"/>
   </g>
   <g id="patch_6">
    <path d="M 42.620313 7.2 
L 414.270312 7.2 
" style="fill: none; stroke: #000000; stroke-width: 0.8; stroke-linejoin: miter; stroke-linecap: square"/>
   </g>
   <g id="legend_1">
    <g id="patch_7">
     <path d="M 49.620313 96 
L 179.853125 96 
Q 181.853125 96 181.853125 94 
L 181.853125 21.609375 
Q 181.853125 19.609375 179.853125 19.609375 
L 49.620313 19.609375 
Q 47.620313 19.609375 47.620313 21.609375 
L 47.620313 94 
Q 47.620313 96 49.620313 96 
z
" style="fill: #ffffff; opacity: 0.8; stroke: #cccccc; stroke-linejoin: miter"/>
    </g>
    <g id="line2d_24">
     <path d="M 51.620313 27.707812 
L 61.620313 27.707812 
L 71.620313 27.707812 
" style="fill: none; stroke: #1f77b4; stroke-width: 2; stroke-linecap: square"/>
    </g>
    <g id="text_12">
     <!-- Vind -->
     <g transform="translate(79.620313 31.207812) scale(0.1 -0.1)">
      <defs>
       <path id="DejaVuSans-69" d="M 603 3500 
L 1178 3500 
L 1178 0 
L 603 0 
L 603 3500 
z
M 603 4863 
L 1178 4863 
L 1178 4134 
L 603 4134 
L 603 4863 
z
" transform="scale(0.015625)"/>
       <path id="DejaVuSans-6e" d="M 3513 2113 
L 3513 0 
L 2938 0 
L 2938 2094 
Q 2938 2591 2744 2837 
Q 2550 3084 2163 3084 
Q 1697 3084 1428 2787 
Q 1159 2491 1159 1978 
L 1159 0 
L 581 0 
L 581 3500 
L 1159 3500 
L 1159 2956 
Q 1366 3272 1645 3428 
Q 1925 3584 2291 3584 
Q 2894 3584 3203 3211 
Q 3513 2838 3513 2113 
z
" transform="scale(0.015625)"/>
       <path id="DejaVuSans-64" d="M 2906 2969 
L 2906 4863 
L 3481 4863 
L 3481 0 
L 2906 0 
L 2906 525 
Q 2725 213 2448 61 
Q 2172 -91 1784 -91 
Q 1150 -91 751 415 
Q 353 922 353 1747 
Q 353 2572 751 3078 
Q 1150 3584 1784 3584 
Q 2172 3584 2448 3432 
Q 2725 3281 2906 2969 
z
M 947 1747 
Q 947 1113 1208 752 
Q 1469 391 1925 391 
Q 2381 391 2643 752 
Q 2906 1113 2906 1747 
Q 2906 2381 2643 2742 
Q 2381 3103 1925 3103 
Q 1469 3103 1208 2742 
Q 947 2381 947 1747 
z
" transform="scale(0.015625)"/>
      </defs>
      <use xlink:href="#DejaVuSans-56"/>
      <use xlink:href="#DejaVuSans-69" x="66.158203"/>
      <use xlink:href="#DejaVuSans-6e" x="93.941406"/>
      <use xlink:href="#DejaVuSans-64" x="157.320312"/>
     </g>
    </g>
    <g id="line2d_25">
     <path d="M 51.620313 42.385937 
L 61.620313 42.385937 
L 71.620313 42.385937 
" style="fill: none; stroke: #ff7f0e; stroke-width: 2; stroke-linecap: square"/>
    </g>
    <g id="text_13">
     <!-- Vout - Upper DAC -->
     <g transform="translate(79.620313 45.885937) scale(0.1 -0.1)">
      <defs>
       <path id="DejaVuSans-6f" d="M 1959 3097 
Q 1497 3097 1228 2736 
Q 959 2375 959 1747 
Q 959 1119 1226 758 
Q 1494 397 1959 397 
Q 2419 397 2687 759 
Q 2956 1122 2956 1747 
Q 2956 2369 2687 2733 
Q 2419 3097 1959 3097 
z
M 1959 3584 
Q 2709 3584 3137 3096 
Q 3566 2609 3566 1747 
Q 3566 888 3137 398 
Q 2709 -91 1959 -91 
Q 1206 -91 779 398 
Q 353 888 353 1747 
Q 353 2609 779 3096 
Q 1206 3584 1959 3584 
z
" transform="scale(0.015625)"/>
       <path id="DejaVuSans-74" d="M 1172 4494 
L 1172 3500 
L 2356 3500 
L 2356 3053 
L 1172 3053 
L 1172 1153 
Q 1172 725 1289 603 
Q 1406 481 1766 481 
L 2356 481 
L 2356 0 
L 1766 0 
Q 1100 0 847 248 
Q 594 497 594 1153 
L 594 3053 
L 172 3053 
L 172 3500 
L 594 3500 
L 594 4494 
L 1172 4494 
z
" transform="scale(0.015625)"/>
       <path id="DejaVuSans-2d" d="M 313 2009 
L 1997 2009 
L 1997 1497 
L 313 1497 
L 313 2009 
z
" transform="scale(0.015625)"/>
       <path id="DejaVuSans-55" d="M 556 4666 
L 1191 4666 
L 1191 1831 
Q 1191 1081 1462 751 
Q 1734 422 2344 422 
Q 2950 422 3222 751 
Q 3494 1081 3494 1831 
L 3494 4666 
L 4128 4666 
L 4128 1753 
Q 4128 841 3676 375 
Q 3225 -91 2344 -91 
Q 1459 -91 1007 375 
Q 556 841 556 1753 
L 556 4666 
z
" transform="scale(0.015625)"/>
       <path id="DejaVuSans-70" d="M 1159 525 
L 1159 -1331 
L 581 -1331 
L 581 3500 
L 1159 3500 
L 1159 2969 
Q 1341 3281 1617 3432 
Q 1894 3584 2278 3584 
Q 2916 3584 3314 3078 
Q 3713 2572 3713 1747 
Q 3713 922 3314 415 
Q 2916 -91 2278 -91 
Q 1894 -91 1617 61 
Q 1341 213 1159 525 
z
M 3116 1747 
Q 3116 2381 2855 2742 
Q 2594 3103 2138 3103 
Q 1681 3103 1420 2742 
Q 1159 2381 1159 1747 
Q 1159 1113 1420 752 
Q 1681 391 2138 391 
Q 2594 391 2855 752 
Q 3116 1113 3116 1747 
z
" transform="scale(0.015625)"/>
       <path id="DejaVuSans-65" d="M 3597 1894 
L 3597 1613 
L 953 1613 
Q 991 1019 1311 708 
Q 1631 397 2203 397 
Q 2534 397 2845 478 
Q 3156 559 3463 722 
L 3463 178 
Q 3153 47 2828 -22 
Q 2503 -91 2169 -91 
Q 1331 -91 842 396 
Q 353 884 353 1716 
Q 353 2575 817 3079 
Q 1281 3584 2069 3584 
Q 2775 3584 3186 3129 
Q 3597 2675 3597 1894 
z
M 3022 2063 
Q 3016 2534 2758 2815 
Q 2500 3097 2075 3097 
Q 1594 3097 1305 2825 
Q 1016 2553 972 2059 
L 3022 2063 
z
" transform="scale(0.015625)"/>
       <path id="DejaVuSans-72" d="M 2631 2963 
Q 2534 3019 2420 3045 
Q 2306 3072 2169 3072 
Q 1681 3072 1420 2755 
Q 1159 2438 1159 1844 
L 1159 0 
L 581 0 
L 581 3500 
L 1159 3500 
L 1159 2956 
Q 1341 3275 1631 3429 
Q 1922 3584 2338 3584 
Q 2397 3584 2469 3576 
Q 2541 3569 2628 3553 
L 2631 2963 
z
" transform="scale(0.015625)"/>
       <path id="DejaVuSans-44" d="M 1259 4147 
L 1259 519 
L 2022 519 
Q 2988 519 3436 956 
Q 3884 1394 3884 2338 
Q 3884 3275 3436 3711 
Q 2988 4147 2022 4147 
L 1259 4147 
z
M 628 4666 
L 1925 4666 
Q 3281 4666 3915 4102 
Q 4550 3538 4550 2338 
Q 4550 1131 3912 565 
Q 3275 0 1925 0 
L 628 0 
L 628 4666 
z
" transform="scale(0.015625)"/>
       <path id="DejaVuSans-41" d="M 2188 4044 
L 1331 1722 
L 3047 1722 
L 2188 4044 
z
M 1831 4666 
L 2547 4666 
L 4325 0 
L 3669 0 
L 3244 1197 
L 1141 1197 
L 716 0 
L 50 0 
L 1831 4666 
z
" transform="scale(0.015625)"/>
       <path id="DejaVuSans-43" d="M 4122 4306 
L 4122 3641 
Q 3803 3938 3442 4084 
Q 3081 4231 2675 4231 
Q 1875 4231 1450 3742 
Q 1025 3253 1025 2328 
Q 1025 1406 1450 917 
Q 1875 428 2675 428 
Q 3081 428 3442 575 
Q 3803 722 4122 1019 
L 4122 359 
Q 3791 134 3420 21 
Q 3050 -91 2638 -91 
Q 1578 -91 968 557 
Q 359 1206 359 2328 
Q 359 3453 968 4101 
Q 1578 4750 2638 4750 
Q 3056 4750 3426 4639 
Q 3797 4528 4122 4306 
z
" transform="scale(0.015625)"/>
      </defs>
      <use xlink:href="#DejaVuSans-56"/>
      <use xlink:href="#DejaVuSans-6f" x="60.658203"/>
      <use xlink:href="#DejaVuSans-75" x="121.839844"/>
      <use xlink:href="#DejaVuSans-74" x="185.21875"/>
      <use xlink:href="#DejaVuSans-20" x="224.427734"/>
      <use xlink:href="#DejaVuSans-2d" x="256.214844"/>
      <use xlink:href="#DejaVuSans-20" x="292.298828"/>
      <use xlink:href="#DejaVuSans-55" x="324.085938"/>
      <use xlink:href="#DejaVuSans-70" x="397.279297"/>
      <use xlink:href="#DejaVuSans-70" x="460.755859"/>
      <use xlink:href="#DejaVuSans-65" x="524.232422"/>
      <use xlink:href="#DejaVuSans-72" x="585.755859"/>
      <use xlink:href="#DejaVuSans-20" x="626.869141"/>
      <use xlink:href="#DejaVuSans-44" x="658.65625"/>
      <use xlink:href="#DejaVuSans-41" x="733.908203"/>
      <use xlink:href="#DejaVuSans-43" x="800.566406"/>
     </g>
    </g>
    <g id="line2d_26">
     <path d="M 51.620313 57.064062 
L 61.620313 57.064062 
L 71.620313 57.064062 
" style="fill: none; stroke: #2ca02c; stroke-width: 2; stroke-linecap: square"/>
    </g>
    <g id="text_14">
     <!-- Voutp1 -->
     <g transform="translate(79.620313 60.564062) scale(0.1 -0.1)">
      <use xlink:href="#DejaVuSans-56"/>
      <use xlink:href="#DejaVuSans-6f" x="60.658203"/>
      <use xlink:href="#DejaVuSans-75" x="121.839844"/>
      <use xlink:href="#DejaVuSans-74" x="185.21875"/>
      <use xlink:href="#DejaVuSans-70" x="224.427734"/>
      <use xlink:href="#DejaVuSans-31" x="287.904297"/>
     </g>
    </g>
    <g id="line2d_27">
     <path d="M 51.620313 71.742188 
L 61.620313 71.742188 
L 71.620313 71.742188 
" style="fill: none; stroke: #d62728; stroke-width: 2; stroke-linecap: square"/>
    </g>
    <g id="text_15">
     <!-- Voutn1 -->
     <g transform="translate(79.620313 75.242188) scale(0.1 -0.1)">
      <use xlink:href="#DejaVuSans-56"/>
      <use xlink:href="#DejaVuSans-6f" x="60.658203"/>
      <use xlink:href="#DejaVuSans-75" x="121.839844"/>
      <use xlink:href="#DejaVuSans-74" x="185.21875"/>
      <use xlink:href="#DejaVuSans-6e" x="224.427734"/>
      <use xlink:href="#DejaVuSans-31" x="287.806641"/>
     </g>
    </g>
    <g id="line2d_28">
     <path d="M 51.620313 86.420312 
L 61.620313 86.420312 
L 71.620313 86.420312 
" style="fill: none; stroke: #9467bd; stroke-width: 2; stroke-linecap: square"/>
    </g>
    <g id="text_16">
     <!-- Vout - Upper Comp. -->
     <g transform="translate(79.620313 89.920312) scale(0.1 -0.1)">
      <defs>
       <path id="DejaVuSans-6d" d="M 3328 2828 
Q 3544 3216 3844 3400 
Q 4144 3584 4550 3584 
Q 5097 3584 5394 3201 
Q 5691 2819 5691 2113 
L 5691 0 
L 5113 0 
L 5113 2094 
Q 5113 2597 4934 2840 
Q 4756 3084 4391 3084 
Q 3944 3084 3684 2787 
Q 3425 2491 3425 1978 
L 3425 0 
L 2847 0 
L 2847 2094 
Q 2847 2600 2669 2842 
Q 2491 3084 2119 3084 
Q 1678 3084 1418 2786 
Q 1159 2488 1159 1978 
L 1159 0 
L 581 0 
L 581 3500 
L 1159 3500 
L 1159 2956 
Q 1356 3278 1631 3431 
Q 1906 3584 2284 3584 
Q 2666 3584 2933 3390 
Q 3200 3197 3328 2828 
z
" transform="scale(0.015625)"/>
       <path id="DejaVuSans-2e" d="M 684 794 
L 1344 794 
L 1344 0 
L 684 0 
L 684 794 
z
" transform="scale(0.015625)"/>
      </defs>
      <use xlink:href="#DejaVuSans-56"/>
      <use xlink:href="#DejaVuSans-6f" x="60.658203"/>
      <use xlink:href="#DejaVuSans-75" x="121.839844"/>
      <use xlink:href="#DejaVuSans-74" x="185.21875"/>
      <use xlink:href="#DejaVuSans-20" x="224.427734"/>
      <use xlink:href="#DejaVuSans-2d" x="256.214844"/>
      <use xlink:href="#DejaVuSans-20" x="292.298828"/>
      <use xlink:href="#DejaVuSans-55" x="324.085938"/>
      <use xlink:href="#DejaVuSans-70" x="397.279297"/>
      <use xlink:href="#DejaVuSans-70" x="460.755859"/>
      <use xlink:href="#DejaVuSans-65" x="524.232422"/>
      <use xlink:href="#DejaVuSans-72" x="585.755859"/>
      <use xlink:href="#DejaVuSans-20" x="626.869141"/>
      <use xlink:href="#DejaVuSans-43" x="658.65625"/>
      <use xlink:href="#DejaVuSans-6f" x="728.480469"/>
      <use xlink:href="#DejaVuSans-6d" x="789.662109"/>
      <use xlink:href="#DejaVuSans-70" x="887.074219"/>
      <use xlink:href="#DejaVuSans-2e" x="950.550781"/>
     </g>
    </g>
   </g>
  </g>
  <g id="axes_2">
   <g id="patch_8">
    <path d="M 42.620313 239.6 
L 414.270312 239.6 
L 414.270312 145.8 
L 42.620313 145.8 
z
" style="fill: #ffffff"/>
   </g>
   <g id="matplotlib.axis_3">
    <g id="xtick_7">
     <g id="line2d_29">
      <path d="M 59.513494 239.6 
L 59.513494 145.8 
" clip-path="url(#pfc96cc084f)" style="fill: none; stroke-dasharray: 2.96,1.28; stroke-dashoffset: 0; stroke: #b0b0b0; stroke-width: 0.8"/>
     </g>
     <g id="line2d_30">
      <g>
       <use xlink:href="#m2d754f2ddf" x="59.513494" y="239.6" style="stroke: #000000; stroke-width: 0.8"/>
      </g>
     </g>
     <g id="text_17">
      <!-- 0 -->
      <g transform="translate(56.332244 254.198438) scale(0.1 -0.1)">
       <use xlink:href="#DejaVuSans-30"/>
      </g>
     </g>
    </g>
    <g id="xtick_8">
     <g id="line2d_31">
      <path d="M 127.171375 239.6 
L 127.171375 145.8 
" clip-path="url(#pfc96cc084f)" style="fill: none; stroke-dasharray: 2.96,1.28; stroke-dashoffset: 0; stroke: #b0b0b0; stroke-width: 0.8"/>
     </g>
     <g id="line2d_32">
      <g>
       <use xlink:href="#m2d754f2ddf" x="127.171375" y="239.6" style="stroke: #000000; stroke-width: 0.8"/>
      </g>
     </g>
     <g id="text_18">
      <!-- 100 -->
      <g transform="translate(117.627625 254.198438) scale(0.1 -0.1)">
       <use xlink:href="#DejaVuSans-31"/>
       <use xlink:href="#DejaVuSans-30" x="63.623047"/>
       <use xlink:href="#DejaVuSans-30" x="127.246094"/>
      </g>
     </g>
    </g>
    <g id="xtick_9">
     <g id="line2d_33">
      <path d="M 194.829256 239.6 
L 194.829256 145.8 
" clip-path="url(#pfc96cc084f)" style="fill: none; stroke-dasharray: 2.96,1.28; stroke-dashoffset: 0; stroke: #b0b0b0; stroke-width: 0.8"/>
     </g>
     <g id="line2d_34">
      <g>
       <use xlink:href="#m2d754f2ddf" x="194.829256" y="239.6" style="stroke: #000000; stroke-width: 0.8"/>
      </g>
     </g>
     <g id="text_19">
      <!-- 200 -->
      <g transform="translate(185.285506 254.198438) scale(0.1 -0.1)">
       <use xlink:href="#DejaVuSans-32"/>
       <use xlink:href="#DejaVuSans-30" x="63.623047"/>
       <use xlink:href="#DejaVuSans-30" x="127.246094"/>
      </g>
     </g>
    </g>
    <g id="xtick_10">
     <g id="line2d_35">
      <path d="M 262.487138 239.6 
L 262.487138 145.8 
" clip-path="url(#pfc96cc084f)" style="fill: none; stroke-dasharray: 2.96,1.28; stroke-dashoffset: 0; stroke: #b0b0b0; stroke-width: 0.8"/>
     </g>
     <g id="line2d_36">
      <g>
       <use xlink:href="#m2d754f2ddf" x="262.487138" y="239.6" style="stroke: #000000; stroke-width: 0.8"/>
      </g>
     </g>
     <g id="text_20">
      <!-- 300 -->
      <g transform="translate(252.943388 254.198438) scale(0.1 -0.1)">
       <use xlink:href="#DejaVuSans-33"/>
       <use xlink:href="#DejaVuSans-30" x="63.623047"/>
       <use xlink:href="#DejaVuSans-30" x="127.246094"/>
      </g>
     </g>
    </g>
    <g id="xtick_11">
     <g id="line2d_37">
      <path d="M 330.145019 239.6 
L 330.145019 145.8 
" clip-path="url(#pfc96cc084f)" style="fill: none; stroke-dasharray: 2.96,1.28; stroke-dashoffset: 0; stroke: #b0b0b0; stroke-width: 0.8"/>
     </g>
     <g id="line2d_38">
      <g>
       <use xlink:href="#m2d754f2ddf" x="330.145019" y="239.6" style="stroke: #000000; stroke-width: 0.8"/>
      </g>
     </g>
     <g id="text_21">
      <!-- 400 -->
      <g transform="translate(320.601269 254.198438) scale(0.1 -0.1)">
       <use xlink:href="#DejaVuSans-34"/>
       <use xlink:href="#DejaVuSans-30" x="63.623047"/>
       <use xlink:href="#DejaVuSans-30" x="127.246094"/>
      </g>
     </g>
    </g>
    <g id="xtick_12">
     <g id="line2d_39">
      <path d="M 397.8029 239.6 
L 397.8029 145.8 
" clip-path="url(#pfc96cc084f)" style="fill: none; stroke-dasharray: 2.96,1.28; stroke-dashoffset: 0; stroke: #b0b0b0; stroke-width: 0.8"/>
     </g>
     <g id="line2d_40">
      <g>
       <use xlink:href="#m2d754f2ddf" x="397.8029" y="239.6" style="stroke: #000000; stroke-width: 0.8"/>
      </g>
     </g>
     <g id="text_22">
      <!-- 500 -->
      <g transform="translate(388.25915 254.198438) scale(0.1 -0.1)">
       <use xlink:href="#DejaVuSans-35"/>
       <use xlink:href="#DejaVuSans-30" x="63.623047"/>
       <use xlink:href="#DejaVuSans-30" x="127.246094"/>
      </g>
     </g>
    </g>
    <g id="text_23">
     <!-- $t$ (us) -->
     <g transform="translate(215.195312 267.876562) scale(0.1 -0.1)">
      <use xlink:href="#DejaVuSans-Oblique-74" transform="translate(0 0.125)"/>
      <use xlink:href="#DejaVuSans-20" transform="translate(39.208984 0.125)"/>
      <use xlink:href="#DejaVuSans-28" transform="translate(70.996094 0.125)"/>
      <use xlink:href="#DejaVuSans-75" transform="translate(110.009766 0.125)"/>
      <use xlink:href="#DejaVuSans-73" transform="translate(173.388672 0.125)"/>
      <use xlink:href="#DejaVuSans-29" transform="translate(225.488281 0.125)"/>
     </g>
    </g>
   </g>
   <g id="matplotlib.axis_4">
    <g id="ytick_4">
     <g id="line2d_41">
      <path d="M 42.620313 221.128401 
L 414.270312 221.128401 
" clip-path="url(#pfc96cc084f)" style="fill: none; stroke-dasharray: 2.96,1.28; stroke-dashoffset: 0; stroke: #b0b0b0; stroke-width: 0.8"/>
     </g>
     <g id="line2d_42">
      <g>
       <use xlink:href="#md9775fadb2" x="42.620313" y="221.128401" style="stroke: #000000; stroke-width: 0.8"/>
      </g>
     </g>
     <g id="text_24">
      <!-- −1 -->
      <g transform="translate(20.878125 224.92762) scale(0.1 -0.1)">
       <use xlink:href="#DejaVuSans-2212"/>
       <use xlink:href="#DejaVuSans-31" x="83.789062"/>
      </g>
     </g>
    </g>
    <g id="ytick_5">
     <g id="line2d_43">
      <path d="M 42.620313 192.71191 
L 414.270312 192.71191 
" clip-path="url(#pfc96cc084f)" style="fill: none; stroke-dasharray: 2.96,1.28; stroke-dashoffset: 0; stroke: #b0b0b0; stroke-width: 0.8"/>
     </g>
     <g id="line2d_44">
      <g>
       <use xlink:href="#md9775fadb2" x="42.620313" y="192.71191" style="stroke: #000000; stroke-width: 0.8"/>
      </g>
     </g>
     <g id="text_25">
      <!-- 0 -->
      <g transform="translate(29.257813 196.511128) scale(0.1 -0.1)">
       <use xlink:href="#DejaVuSans-30"/>
      </g>
     </g>
    </g>
    <g id="ytick_6">
     <g id="line2d_45">
      <path d="M 42.620313 164.295418 
L 414.270312 164.295418 
" clip-path="url(#pfc96cc084f)" style="fill: none; stroke-dasharray: 2.96,1.28; stroke-dashoffset: 0; stroke: #b0b0b0; stroke-width: 0.8"/>
     </g>
     <g id="line2d_46">
      <g>
       <use xlink:href="#md9775fadb2" x="42.620313" y="164.295418" style="stroke: #000000; stroke-width: 0.8"/>
      </g>
     </g>
     <g id="text_26">
      <!-- 1 -->
      <g transform="translate(29.257813 168.094637) scale(0.1 -0.1)">
       <use xlink:href="#DejaVuSans-31"/>
      </g>
     </g>
    </g>
    <g id="text_27">
     <!-- $V$ (V) -->
     <g transform="translate(14.798438 205.05) rotate(-90) scale(0.1 -0.1)">
      <use xlink:href="#DejaVuSans-Oblique-56" transform="translate(0 0.125)"/>
      <use xlink:href="#DejaVuSans-20" transform="translate(68.408203 0.125)"/>
      <use xlink:href="#DejaVuSans-28" transform="translate(100.195312 0.125)"/>
      <use xlink:href="#DejaVuSans-56" transform="translate(139.208984 0.125)"/>
      <use xlink:href="#DejaVuSans-29" transform="translate(207.617188 0.125)"/>
     </g>
    </g>
   </g>
   <g id="line2d_47">
    <path d="M 59.513494 192.71191 
L 74.057982 181.336776 
L 81.669486 175.662198 
L 88.435274 170.900335 
L 93.93248 167.281313 
L 99.345111 163.976588 
L 104.25031 161.231474 
L 108.986361 158.828556 
L 113.811685 156.649922 
L 118.120177 154.948778 
L 122.17965 153.56693 
L 126.298409 152.392261 
L 130.357882 151.465247 
L 134.417354 150.772605 
L 138.586688 150.309313 
L 142.64616 150.10241 
L 146.387049 150.1261 
L 150.316957 150.372314 
L 154.376429 150.863369 
L 158.097613 151.52249 
L 162.157086 152.465707 
L 166.216559 153.637612 
L 170.445176 155.09433 
L 174.504649 156.711101 
L 178.856135 158.67107 
L 183.410028 160.95996 
L 188.146079 163.580979 
L 193.051277 166.53281 
L 198.463908 170.040967 
L 204.637686 174.319807 
L 211.488043 179.347776 
L 220.283567 186.108532 
L 248.107877 207.77723 
L 254.958233 212.715069 
L 261.047443 216.835148 
L 266.544648 220.291316 
L 271.957279 223.413815 
L 276.862477 225.976581 
L 281.598529 228.189378 
L 286.334581 230.127836 
L 290.453343 231.57889 
L 294.512816 232.786633 
L 298.682145 233.789965 
L 302.741617 234.530335 
L 306.80109 235.033085 
L 311.004424 235.300218 
L 315.063897 235.311938 
L 319.12337 235.081596 
L 322.759981 234.670739 
L 326.819454 233.986202 
L 330.540637 233.152564 
L 334.60011 232.02307 
L 338.659583 230.670202 
L 342.888201 229.031738 
L 347.624252 226.931346 
L 352.470174 224.508481 
L 357.206226 221.891673 
L 362.707619 218.570172 
L 368.116061 215.041645 
L 374.28984 210.740782 
L 381.055628 205.757724 
L 389.851157 198.984335 
L 397.377131 193.048982 
L 397.377131 193.048982 
" clip-path="url(#pfc96cc084f)" style="fill: none; stroke: #1f77b4; stroke-width: 2; stroke-linecap: square"/>
   </g>
   <g id="line2d_48">
    <path d="M 59.513494 192.711916 
L 59.68265 192.83749 
L 59.683107 188.267774 
L 59.767861 197.746438 
L 59.81412 197.744963 
L 63.835399 200.580221 
L 70.507907 205.326961 
L 70.592503 192.713433 
L 70.593387 197.733148 
L 70.676389 197.776054 
L 78.794033 203.536407 
L 81.333168 205.258227 
L 81.417745 192.716333 
L 81.419679 197.718054 
L 87.082116 201.481535 
L 92.15843 204.653887 
L 92.167295 192.388171 
L 92.246241 197.718274 
L 97.315374 200.700557 
L 102.728005 203.622031 
L 102.983698 203.75255 
L 103.017547 192.697071 
L 103.079309 197.721493 
L 107.633204 199.94815 
L 112.369255 202.023925 
L 113.808951 202.60339 
L 113.893525 192.713813 
L 113.894812 197.717983 
L 119.473335 199.733171 
L 123.532807 200.958812 
L 127.651566 201.98472 
L 131.711039 202.774999 
L 135.459474 203.306184 
L 135.468496 192.444858 
L 135.547285 197.715098 
L 139.263266 198.058148 
L 143.322739 198.215842 
L 147.610641 198.135854 
L 151.670114 197.827327 
L 155.729587 197.294211 
L 160.127349 196.46685 
L 164.186822 195.477217 
L 168.41544 194.22195 
L 172.474913 192.808586 
L 177.210964 190.912663 
L 178.760525 190.236882 
L 178.761127 186.476214 
L 178.856135 197.705743 
L 183.410028 195.562721 
L 188.146079 193.109175 
L 189.585773 192.320682 
L 189.585811 192.322053 
L 189.58692 189.407983 
L 189.671024 197.750188 
L 189.712622 197.687683 
L 195.081013 194.578156 
L 200.411036 191.262466 
L 200.411107 191.270141 
L 200.412695 189.773746 
L 200.496519 197.727085 
L 201.254792 197.220645 
L 208.020581 192.698675 
L 211.236299 190.462873 
L 211.236431 190.22847 
L 211.32216 197.710184 
L 222.061562 189.954982 
L 222.061905 185.751137 
L 222.147376 197.711589 
L 232.886823 189.763915 
L 232.887132 185.678856 
L 232.972658 197.712986 
L 239.893766 192.636317 
L 243.712084 189.890624 
L 243.712427 185.690091 
L 243.798594 197.708751 
L 252.16735 191.906301 
L 254.537345 190.331478 
L 254.537688 186.108474 
L 254.625156 197.707096 
L 261.047443 193.630456 
L 265.362608 191.069168 
L 265.363064 186.728122 
L 265.453019 197.707257 
L 270.604121 194.865576 
L 275.340173 192.479742 
L 276.187882 192.076952 
L 276.188678 188.524695 
L 276.272944 197.725505 
L 276.293893 197.701154 
L 280.92195 195.644354 
L 285.658002 193.792553 
L 289.776764 192.400974 
L 293.836237 191.236942 
L 297.838385 190.297474 
L 297.838456 190.305202 
L 297.840035 189.314842 
L 297.923867 197.728356 
L 298.006867 197.693771 
L 302.065039 196.964397 
L 306.124511 196.457274 
L 310.327845 196.169522 
L 314.387318 196.122389 
L 318.446791 196.302157 
L 322.759981 196.740482 
L 326.819454 197.383141 
L 331.217216 198.326437 
L 335.276689 199.419231 
L 339.336162 200.717348 
L 343.564779 202.276729 
L 348.300831 204.254541 
L 351.964696 205.935 
L 351.981531 192.44786 
L 352.055107 197.719662 
L 357.206226 200.377259 
L 362.789961 203.531201 
L 362.822712 192.696323 
L 362.885573 197.7225 
L 368.79264 201.353903 
L 373.615208 204.491824 
L 373.615231 204.491685 
L 373.699797 192.715708 
L 373.721243 197.731424 
L 381.055628 202.781336 
L 384.440509 205.183662 
L 384.525058 192.714004 
L 384.546505 197.730874 
L 395.188603 205.514474 
L 395.350308 192.713276 
L 395.350981 197.75482 
L 395.392345 197.745982 
L 397.377131 199.218919 
L 397.377131 199.218919 
" clip-path="url(#pfc96cc084f)" style="fill: none; stroke: #ff7f0e; stroke-width: 2; stroke-linecap: square"/>
   </g>
   <g id="line2d_49">
    <path d="M 59.513494 167.407883 
L 59.68265 167.470734 
L 59.683107 165.602835 
L 59.767861 173.910483 
L 60.452504 174.11298 
L 67.894871 176.669634 
L 70.507907 177.571149 
L 70.508038 177.514571 
L 70.59248 171.400368 
L 70.593387 173.906041 
L 79.470612 177.037211 
L 81.333168 177.661292 
L 81.417745 171.401684 
L 81.419679 173.907618 
L 89.788432 176.643142 
L 92.15843 177.367761 
L 92.167295 171.230208 
L 92.246241 173.907519 
L 99.345111 175.960314 
L 102.983698 176.920515 
L 103.017547 171.394448 
L 103.079309 173.909005 
L 109.66294 175.480234 
L 113.808951 176.346599 
L 113.809082 176.289771 
L 113.893525 171.400532 
L 113.894812 173.905651 
L 119.473335 174.912812 
L 125.62183 175.797875 
L 131.711039 176.42918 
L 135.459474 176.694702 
L 135.468496 171.262071 
L 135.547285 173.905993 
L 141.293003 174.129388 
L 146.934062 174.128708 
L 152.346693 173.921251 
L 158.097613 173.484078 
L 164.186822 172.780699 
L 170.445176 171.811562 
L 176.534385 170.639597 
L 178.76051 170.159288 
L 178.760525 170.159687 
L 178.761127 168.190799 
L 178.845468 173.901222 
L 178.856135 173.900988 
L 185.439764 172.314409 
L 189.585811 171.202968 
L 189.58692 169.661318 
L 189.671024 173.913114 
L 189.712622 173.891701 
L 197.11075 171.715403 
L 200.411107 170.66558 
L 200.412695 169.806559 
L 200.496519 173.902951 
L 211.236299 170.277318 
L 211.236431 170.220912 
L 211.32216 173.90159 
L 222.061562 170.02337 
L 222.061905 168.028777 
L 222.147376 173.903509 
L 232.886823 169.928013 
L 232.887132 167.995443 
L 232.972658 173.903215 
L 243.712084 169.991474 
L 243.712427 167.998466 
L 243.798594 173.903057 
L 252.16735 170.998511 
L 254.537345 170.211979 
L 254.537688 168.208125 
L 254.625156 173.901847 
L 261.724022 171.654789 
L 265.362608 170.580996 
L 265.363064 168.405419 
L 265.453019 173.901792 
L 271.957279 172.125857 
L 276.187859 171.085047 
L 276.187882 171.085367 
L 276.188678 169.223857 
L 276.272944 173.937849 
L 276.293893 173.898607 
L 282.275108 172.58969 
L 288.423606 171.462675 
L 294.512816 170.575175 
L 297.838456 170.181103 
L 297.840035 169.541209 
L 297.923867 173.903617 
L 302.741617 173.477918 
L 308.579076 173.182164 
L 308.579099 173.184076 
L 308.663649 173.173594 
L 308.663925 173.173649 
L 313.710739 173.101383 
L 319.582355 173.240831 
L 324.789717 173.559351 
L 330.540637 174.124758 
L 336.629847 174.955904 
L 342.888201 176.049895 
L 349.653989 177.480617 
L 351.964696 178.022774 
L 351.981531 171.278738 
L 352.055107 173.908019 
L 358.559384 175.60572 
L 362.789961 176.814319 
L 362.822712 171.39388 
L 362.885573 173.909509 
L 370.822376 176.375742 
L 373.615231 177.29449 
L 373.699797 171.400893 
L 373.721243 173.913906 
L 383.761943 177.396651 
L 384.44047 177.639731 
L 384.440509 177.63602 
L 384.525058 171.40012 
L 384.546505 173.913707 
L 395.188603 177.807301 
L 395.350323 171.399505 
L 395.350981 173.915511 
L 395.392345 173.92129 
L 397.377131 174.657442 
L 397.377131 174.657442 
" clip-path="url(#pfc96cc084f)" style="fill: none; stroke: #2ca02c; stroke-width: 2; stroke-linecap: square"/>
   </g>
   <g id="line2d_50">
    <path d="M 59.513494 167.407876 
L 59.68265 167.345153 
L 59.692099 171.430709 
L 59.767861 168.875954 
L 59.81412 168.885489 
L 70.507907 164.956097 
L 70.592503 171.399176 
L 70.593387 168.884802 
L 70.676389 168.872114 
L 81.164021 165.170352 
L 81.170456 165.1888 
L 81.270273 165.137161 
L 81.333168 165.114974 
L 81.417816 171.414826 
L 81.419679 168.901473 
L 89.111853 166.367671 
L 92.15843 165.425784 
L 92.167295 171.553947 
L 92.246241 168.901155 
L 99.345111 166.842053 
L 102.983683 165.87948 
L 102.983698 165.879874 
L 103.017547 171.409287 
L 103.079309 168.899422 
L 109.66294 167.323265 
L 113.808951 166.455118 
L 113.893564 171.406322 
L 113.894812 168.899578 
L 122.856229 167.372348 
L 129.004724 166.618265 
L 134.417354 166.163697 
L 135.459474 166.100427 
L 135.468496 171.529123 
L 135.547285 168.902805 
L 140.616424 168.690832 
L 146.134811 168.677807 
L 146.934062 168.675329 
L 152.346693 168.879159 
L 158.097613 169.315302 
L 164.186822 170.015392 
L 170.445176 170.983182 
L 176.534385 172.152208 
L 178.760525 172.634714 
L 178.761127 174.426494 
L 178.856135 168.907155 
L 184.763185 170.315142 
L 189.585773 171.597901 
L 189.585811 171.592825 
L 189.58692 172.965244 
L 189.671024 168.874836 
L 189.712622 168.915928 
L 196.434171 170.878759 
L 200.411036 172.12669 
L 200.411107 172.107349 
L 200.412695 172.744722 
L 200.496519 168.887775 
L 200.579517 168.931347 
L 208.697159 171.640771 
L 211.236299 172.526355 
L 211.236431 172.704352 
L 211.32216 168.903315 
L 222.061562 172.780297 
L 222.061905 174.989549 
L 222.147376 168.90383 
L 232.886823 172.876008 
L 232.887132 175.028497 
L 232.972658 168.902139 
L 240.570345 171.684263 
L 243.712084 172.81276 
L 243.712427 175.020285 
L 243.798594 168.906216 
L 254.537345 172.59241 
L 254.537688 174.811561 
L 254.625156 168.90666 
L 263.753758 171.754016 
L 265.362608 172.223737 
L 265.363064 174.389207 
L 265.453019 168.906445 
L 272.633858 170.849592 
L 276.187882 171.720325 
L 276.188678 173.411072 
L 276.293893 168.909362 
L 282.951687 170.347963 
L 289.100185 171.449158 
L 295.189394 172.307259 
L 297.838385 172.607203 
L 297.838456 172.587811 
L 297.840035 172.938276 
L 297.923867 168.887171 
L 298.006867 168.912771 
L 304.094775 169.41603 
L 309.651266 169.657475 
L 315.063897 169.687491 
L 320.730245 169.503961 
L 326.819454 169.062258 
L 332.570374 168.41961 
L 338.659583 167.50968 
L 344.917937 166.34735 
L 351.964696 164.799683 
L 351.981531 171.542788 
L 352.055107 168.900266 
L 358.559384 167.200474 
L 362.789946 165.994634 
L 362.789961 165.995028 
L 362.822712 171.409466 
L 362.885573 168.898918 
L 370.822376 166.429237 
L 373.615208 165.514239 
L 373.615231 165.514715 
L 373.699797 171.397095 
L 373.721243 168.894392 
L 383.761943 165.409547 
L 384.440509 165.164267 
L 384.525058 171.398025 
L 384.546505 168.894743 
L 395.188603 165.004737 
L 395.350308 171.398848 
L 395.350981 168.8726 
L 395.392345 168.887218 
L 397.377131 168.150432 
L 397.377131 168.150432 
" clip-path="url(#pfc96cc084f)" style="fill: none; stroke: #d62728; stroke-width: 2; stroke-linecap: square"/>
   </g>
   <g id="line2d_51">
    <path d="M 59.513494 171.430546 
L 70.338821 171.423249 
L 70.344504 192.720142 
L 70.435581 192.711905 
L 70.676389 192.711905 
L 92.073861 192.711866 
L 92.073932 193.230166 
L 92.158773 192.711851 
L 92.167295 192.711906 
L 93.255901 192.711906 
L 135.374905 192.711863 
L 135.374976 193.235087 
L 135.459817 192.711844 
L 135.468496 192.711899 
L 135.880372 192.711903 
L 167.850688 192.711892 
L 167.850759 193.300287 
L 167.936364 192.711906 
L 170.445176 192.711905 
L 178.592111 192.711905 
L 178.676117 150.08472 
L 178.678193 150.087291 
L 221.976993 150.08726 
L 221.977064 150.248712 
L 222.061905 150.086996 
L 222.069873 150.08719 
L 223.659958 150.08719 
L 232.802254 150.087259 
L 232.802325 150.24889 
L 232.887132 150.086976 
L 232.892726 150.08719 
L 233.804557 150.08719 
L 243.627515 150.08726 
L 243.627586 150.250463 
L 243.712427 150.086996 
L 243.720856 150.08719 
L 245.401562 150.08719 
L 254.452776 150.08726 
L 254.452847 150.247125 
L 254.537688 150.086996 
L 254.546165 150.08719 
L 254.958233 150.08719 
L 286.846908 150.087189 
L 286.928964 192.712173 
L 286.933725 192.711838 
L 287.747027 192.711905 
L 297.673531 192.711905 
L 297.754509 150.086808 
L 297.840035 150.087192 
L 300.711881 150.08719 
L 308.494562 150.087627 
L 308.501332 192.766905 
L 308.593247 192.711884 
L 308.749335 192.711903 
L 319.404344 192.711409 
L 319.404446 192.839975 
L 319.488917 192.710628 
L 319.491126 192.711905 
L 320.730245 192.711905 
L 351.880126 192.711389 
L 351.880229 192.87746 
L 351.981531 192.711897 
L 352.470174 192.711903 
L 397.377131 192.711906 
L 397.377131 192.711906 
" clip-path="url(#pfc96cc084f)" style="fill: none; stroke: #9467bd; stroke-width: 2; stroke-linecap: square"/>
   </g>
   <g id="patch_9">
    <path d="M 42.620313 239.6 
L 42.620313 145.8 
" style="fill: none; stroke: #000000; stroke-width: 0.8; stroke-linejoin: miter; stroke-linecap: square"/>
   </g>
   <g id="patch_10">
    <path d="M 414.270312 239.6 
L 414.270312 145.8 
" style="fill: none; stroke: #000000; stroke-width: 0.8; stroke-linejoin: miter; stroke-linecap: square"/>
   </g>
   <g id="patch_11">
    <path d="M 42.620313 239.6 
L 414.270312 239.6 
" style="fill: none; stroke: #000000; stroke-width: 0.8; stroke-linejoin: miter; stroke-linecap: square"/>
   </g>
   <g id="patch_12">
    <path d="M 42.620313 145.8 
L 414.270312 145.8 
" style="fill: none; stroke: #000000; stroke-width: 0.8; stroke-linejoin: miter; stroke-linecap: square"/>
   </g>
   <g id="legend_2">
    <g id="patch_13">
     <path d="M 277.359375 227.190625 
L 407.270312 227.190625 
Q 409.270312 227.190625 409.270312 225.190625 
L 409.270312 152.8 
Q 409.270312 150.8 407.270312 150.8 
L 277.359375 150.8 
Q 275.359375 150.8 275.359375 152.8 
L 275.359375 225.190625 
Q 275.359375 227.190625 277.359375 227.190625 
z
" style="fill: #ffffff; opacity: 0.8; stroke: #cccccc; stroke-linejoin: miter"/>
    </g>
    <g id="line2d_52">
     <path d="M 279.359375 158.898438 
L 289.359375 158.898438 
L 299.359375 158.898438 
" style="fill: none; stroke: #1f77b4; stroke-width: 2; stroke-linecap: square"/>
    </g>
    <g id="text_28">
     <!-- Vind -->
     <g transform="translate(307.359375 162.398438) scale(0.1 -0.1)">
      <use xlink:href="#DejaVuSans-56"/>
      <use xlink:href="#DejaVuSans-69" x="66.158203"/>
      <use xlink:href="#DejaVuSans-6e" x="93.941406"/>
      <use xlink:href="#DejaVuSans-64" x="157.320312"/>
     </g>
    </g>
    <g id="line2d_53">
     <path d="M 279.359375 173.576563 
L 289.359375 173.576563 
L 299.359375 173.576563 
" style="fill: none; stroke: #ff7f0e; stroke-width: 2; stroke-linecap: square"/>
    </g>
    <g id="text_29">
     <!-- Vout - Lower DAC -->
     <g transform="translate(307.359375 177.076563) scale(0.1 -0.1)">
      <defs>
       <path id="DejaVuSans-4c" d="M 628 4666 
L 1259 4666 
L 1259 531 
L 3531 531 
L 3531 0 
L 628 0 
L 628 4666 
z
" transform="scale(0.015625)"/>
       <path id="DejaVuSans-77" d="M 269 3500 
L 844 3500 
L 1563 769 
L 2278 3500 
L 2956 3500 
L 3675 769 
L 4391 3500 
L 4966 3500 
L 4050 0 
L 3372 0 
L 2619 2869 
L 1863 0 
L 1184 0 
L 269 3500 
z
" transform="scale(0.015625)"/>
      </defs>
      <use xlink:href="#DejaVuSans-56"/>
      <use xlink:href="#DejaVuSans-6f" x="60.658203"/>
      <use xlink:href="#DejaVuSans-75" x="121.839844"/>
      <use xlink:href="#DejaVuSans-74" x="185.21875"/>
      <use xlink:href="#DejaVuSans-20" x="224.427734"/>
      <use xlink:href="#DejaVuSans-2d" x="256.214844"/>
      <use xlink:href="#DejaVuSans-20" x="292.298828"/>
      <use xlink:href="#DejaVuSans-4c" x="324.085938"/>
      <use xlink:href="#DejaVuSans-6f" x="378.048828"/>
      <use xlink:href="#DejaVuSans-77" x="439.230469"/>
      <use xlink:href="#DejaVuSans-65" x="521.017578"/>
      <use xlink:href="#DejaVuSans-72" x="582.541016"/>
      <use xlink:href="#DejaVuSans-20" x="623.654297"/>
      <use xlink:href="#DejaVuSans-44" x="655.441406"/>
      <use xlink:href="#DejaVuSans-41" x="730.693359"/>
      <use xlink:href="#DejaVuSans-43" x="797.351562"/>
     </g>
    </g>
    <g id="line2d_54">
     <path d="M 279.359375 188.254688 
L 289.359375 188.254688 
L 299.359375 188.254688 
" style="fill: none; stroke: #2ca02c; stroke-width: 2; stroke-linecap: square"/>
    </g>
    <g id="text_30">
     <!-- Voutp2 -->
     <g transform="translate(307.359375 191.754688) scale(0.1 -0.1)">
      <use xlink:href="#DejaVuSans-56"/>
      <use xlink:href="#DejaVuSans-6f" x="60.658203"/>
      <use xlink:href="#DejaVuSans-75" x="121.839844"/>
      <use xlink:href="#DejaVuSans-74" x="185.21875"/>
      <use xlink:href="#DejaVuSans-70" x="224.427734"/>
      <use xlink:href="#DejaVuSans-32" x="287.904297"/>
     </g>
    </g>
    <g id="line2d_55">
     <path d="M 279.359375 202.932813 
L 289.359375 202.932813 
L 299.359375 202.932813 
" style="fill: none; stroke: #d62728; stroke-width: 2; stroke-linecap: square"/>
    </g>
    <g id="text_31">
     <!-- Voutn2 -->
     <g transform="translate(307.359375 206.432813) scale(0.1 -0.1)">
      <use xlink:href="#DejaVuSans-56"/>
      <use xlink:href="#DejaVuSans-6f" x="60.658203"/>
      <use xlink:href="#DejaVuSans-75" x="121.839844"/>
      <use xlink:href="#DejaVuSans-74" x="185.21875"/>
      <use xlink:href="#DejaVuSans-6e" x="224.427734"/>
      <use xlink:href="#DejaVuSans-32" x="287.806641"/>
     </g>
    </g>
    <g id="line2d_56">
     <path d="M 279.359375 217.610938 
L 289.359375 217.610938 
L 299.359375 217.610938 
" style="fill: none; stroke: #9467bd; stroke-width: 2; stroke-linecap: square"/>
    </g>
    <g id="text_32">
     <!-- Vout - Lower Comp. -->
     <g transform="translate(307.359375 221.110938) scale(0.1 -0.1)">
      <use xlink:href="#DejaVuSans-56"/>
      <use xlink:href="#DejaVuSans-6f" x="60.658203"/>
      <use xlink:href="#DejaVuSans-75" x="121.839844"/>
      <use xlink:href="#DejaVuSans-74" x="185.21875"/>
      <use xlink:href="#DejaVuSans-20" x="224.427734"/>
      <use xlink:href="#DejaVuSans-2d" x="256.214844"/>
      <use xlink:href="#DejaVuSans-20" x="292.298828"/>
      <use xlink:href="#DejaVuSans-4c" x="324.085938"/>
      <use xlink:href="#DejaVuSans-6f" x="378.048828"/>
      <use xlink:href="#DejaVuSans-77" x="439.230469"/>
      <use xlink:href="#DejaVuSans-65" x="521.017578"/>
      <use xlink:href="#DejaVuSans-72" x="582.541016"/>
      <use xlink:href="#DejaVuSans-20" x="623.654297"/>
      <use xlink:href="#DejaVuSans-43" x="655.441406"/>
      <use xlink:href="#DejaVuSans-6f" x="725.265625"/>
      <use xlink:href="#DejaVuSans-6d" x="786.447266"/>
      <use xlink:href="#DejaVuSans-70" x="883.859375"/>
      <use xlink:href="#DejaVuSans-2e" x="947.335938"/>
     </g>
    </g>
   </g>
  </g>
 </g>
 <defs>
  <clipPath id="pb9182edcdb">
   <rect x="42.620313" y="7.2" width="371.65" height="93.8"/>
  </clipPath>
  <clipPath id="pfc96cc084f">
   <rect x="42.620313" y="145.8" width="371.65" height="93.8"/>
  </clipPath>
 </defs>
</svg>
