G04 EAGLE Gerber RS-274X export*
G75*
%MOMM*%
%FSLAX34Y34*%
%LPD*%
%INBottom Copper*%
%IPPOS*%
%AMOC8*
5,1,8,0,0,1.08239X$1,22.5*%
G01*
G04 Define Apertures*
%ADD10C,1.422400*%
%ADD11P,1.53959X8X112.5*%
%ADD12C,1.422400*%
%ADD13C,1.524000*%
%ADD14C,1.308000*%
%ADD15C,3.216000*%
%ADD16P,2.33688X8X22.5*%
%ADD17C,1.981200*%
%ADD18R,1.465300X1.164600*%
%ADD19R,1.031200X1.420200*%
%ADD20R,1.420200X1.031200*%
%ADD21P,0.81872X8X22.5*%
%ADD22C,0.700000*%
%ADD23C,0.400000*%
%ADD24C,0.350000*%
G36*
X694145Y5181D02*
X693650Y5080D01*
X6350Y5080D01*
X5892Y5165D01*
X5466Y5438D01*
X5181Y5855D01*
X5080Y6350D01*
X5080Y693650D01*
X5165Y694108D01*
X5438Y694534D01*
X5855Y694819D01*
X6350Y694920D01*
X693650Y694920D01*
X694108Y694835D01*
X694534Y694562D01*
X694819Y694145D01*
X694920Y693650D01*
X694920Y566323D01*
X694838Y565875D01*
X694569Y565447D01*
X694155Y565158D01*
X693660Y565053D01*
X693164Y565150D01*
X691631Y565785D01*
X672349Y565785D01*
X668615Y564238D01*
X666414Y562037D01*
X666011Y561766D01*
X665516Y561665D01*
X665361Y561665D01*
X664884Y561758D01*
X664463Y562037D01*
X662137Y564363D01*
X661866Y564766D01*
X661765Y565261D01*
X661765Y582906D01*
X640056Y604615D01*
X544219Y604615D01*
X522510Y582906D01*
X522510Y544677D01*
X522417Y544200D01*
X522138Y543779D01*
X520728Y542369D01*
X520728Y537131D01*
X524431Y533428D01*
X529669Y533428D01*
X533372Y537131D01*
X533372Y542369D01*
X531962Y543779D01*
X531691Y544181D01*
X531590Y544677D01*
X531590Y578618D01*
X531683Y579095D01*
X531962Y579516D01*
X547609Y595163D01*
X548011Y595434D01*
X548507Y595535D01*
X635768Y595535D01*
X636245Y595442D01*
X636666Y595163D01*
X637746Y594083D01*
X638001Y593717D01*
X638118Y593225D01*
X638033Y592727D01*
X637761Y592301D01*
X637344Y592016D01*
X636848Y591915D01*
X550569Y591915D01*
X538385Y579731D01*
X538385Y535152D01*
X538292Y534675D01*
X538013Y534254D01*
X536603Y532844D01*
X536603Y527606D01*
X540306Y523903D01*
X545544Y523903D01*
X549247Y527606D01*
X549247Y532844D01*
X547837Y534254D01*
X547566Y534656D01*
X547465Y535152D01*
X547465Y575443D01*
X547558Y575920D01*
X547837Y576341D01*
X553959Y582463D01*
X554361Y582734D01*
X554857Y582835D01*
X632593Y582835D01*
X633070Y582742D01*
X633491Y582463D01*
X639613Y576341D01*
X639884Y575939D01*
X639985Y575443D01*
X639985Y564181D01*
X639907Y563742D01*
X639641Y563312D01*
X639229Y563020D01*
X638735Y562911D01*
X638238Y563004D01*
X637817Y563283D01*
X635823Y565277D01*
X627827Y565277D01*
X624587Y562037D01*
X624184Y561766D01*
X623689Y561665D01*
X619724Y561665D01*
X619248Y561758D01*
X618826Y562037D01*
X616625Y564238D01*
X612891Y565785D01*
X593609Y565785D01*
X589875Y564238D01*
X587017Y561380D01*
X585470Y557646D01*
X585470Y553604D01*
X587017Y549870D01*
X589875Y547012D01*
X593609Y545465D01*
X612891Y545465D01*
X616625Y547012D01*
X618826Y549213D01*
X619229Y549484D01*
X619724Y549585D01*
X623689Y549585D01*
X624166Y549492D01*
X624587Y549213D01*
X627827Y545973D01*
X635823Y545973D01*
X637817Y547967D01*
X638183Y548222D01*
X638675Y548338D01*
X639173Y548254D01*
X639599Y547981D01*
X639884Y547564D01*
X639985Y547069D01*
X639985Y541044D01*
X647201Y533828D01*
X647472Y533426D01*
X647573Y532930D01*
X647573Y526227D01*
X653227Y520573D01*
X661223Y520573D01*
X664463Y523813D01*
X664866Y524084D01*
X665361Y524185D01*
X665516Y524185D01*
X665992Y524092D01*
X666414Y523813D01*
X668615Y521612D01*
X672349Y520065D01*
X691631Y520065D01*
X693164Y520700D01*
X693610Y520796D01*
X694108Y520711D01*
X694534Y520439D01*
X694819Y520022D01*
X694920Y519527D01*
X694920Y515523D01*
X694838Y515075D01*
X694569Y514647D01*
X694155Y514358D01*
X693660Y514253D01*
X693164Y514350D01*
X691631Y514985D01*
X672349Y514985D01*
X668615Y513438D01*
X666414Y511237D01*
X666011Y510966D01*
X665516Y510865D01*
X665361Y510865D01*
X664884Y510958D01*
X664463Y511237D01*
X661223Y514477D01*
X653227Y514477D01*
X651233Y512483D01*
X650867Y512228D01*
X650375Y512112D01*
X649877Y512196D01*
X649451Y512469D01*
X649166Y512886D01*
X649148Y512973D01*
X640827Y521294D01*
X639610Y521294D01*
X639171Y521372D01*
X638741Y521638D01*
X638449Y522050D01*
X638340Y522544D01*
X638433Y523041D01*
X638712Y523462D01*
X641477Y526227D01*
X641477Y534223D01*
X635823Y539877D01*
X627827Y539877D01*
X624587Y536637D01*
X624184Y536366D01*
X623689Y536265D01*
X619724Y536265D01*
X619248Y536358D01*
X618826Y536637D01*
X616625Y538838D01*
X612891Y540385D01*
X593609Y540385D01*
X589875Y538838D01*
X587017Y535980D01*
X585470Y532246D01*
X585470Y528204D01*
X587017Y524470D01*
X588025Y523462D01*
X588280Y523096D01*
X588396Y522604D01*
X588311Y522106D01*
X588039Y521680D01*
X587622Y521395D01*
X587127Y521294D01*
X579462Y521294D01*
X579004Y521379D01*
X578578Y521652D01*
X578292Y522069D01*
X578192Y522564D01*
X578192Y523629D01*
X576704Y525117D01*
X575635Y525117D01*
X575177Y525202D01*
X574751Y525475D01*
X574466Y525892D01*
X574365Y526387D01*
X574365Y532003D01*
X574450Y532461D01*
X574723Y532887D01*
X575140Y533172D01*
X575635Y533273D01*
X577357Y533273D01*
X580904Y534742D01*
X583620Y537458D01*
X585089Y541005D01*
X585089Y544845D01*
X583620Y548392D01*
X580904Y551108D01*
X577357Y552577D01*
X559293Y552577D01*
X555746Y551108D01*
X553030Y548392D01*
X551561Y544845D01*
X551561Y541005D01*
X553030Y537458D01*
X555746Y534742D01*
X559293Y533273D01*
X561015Y533273D01*
X561473Y533188D01*
X561899Y532915D01*
X562184Y532498D01*
X562285Y532003D01*
X562285Y526387D01*
X562200Y525929D01*
X561927Y525503D01*
X561510Y525218D01*
X561015Y525117D01*
X559946Y525117D01*
X558459Y523629D01*
X558459Y509879D01*
X559439Y508898D01*
X559703Y508514D01*
X559811Y508020D01*
X559719Y507523D01*
X559439Y507102D01*
X558459Y506121D01*
X558459Y500516D01*
X578192Y500516D01*
X578192Y506121D01*
X577211Y507102D01*
X576947Y507486D01*
X576839Y507980D01*
X576932Y508477D01*
X577211Y508898D01*
X578192Y509879D01*
X578192Y510944D01*
X578277Y511402D01*
X578549Y511828D01*
X578966Y512113D01*
X579462Y512214D01*
X585793Y512214D01*
X586241Y512132D01*
X586669Y511863D01*
X586958Y511449D01*
X587063Y510954D01*
X586966Y510458D01*
X585470Y506846D01*
X585470Y502804D01*
X587017Y499070D01*
X589875Y496212D01*
X593609Y494665D01*
X612891Y494665D01*
X616625Y496212D01*
X618826Y498413D01*
X619229Y498684D01*
X619724Y498785D01*
X623689Y498785D01*
X624166Y498692D01*
X624587Y498413D01*
X627827Y495173D01*
X635823Y495173D01*
X637817Y497167D01*
X638183Y497422D01*
X638675Y497538D01*
X639173Y497454D01*
X639599Y497181D01*
X639884Y496764D01*
X639985Y496269D01*
X639985Y487981D01*
X639907Y487542D01*
X639641Y487112D01*
X639229Y486820D01*
X638735Y486711D01*
X638238Y486804D01*
X637817Y487083D01*
X635823Y489077D01*
X627827Y489077D01*
X624587Y485837D01*
X624184Y485566D01*
X623689Y485465D01*
X619724Y485465D01*
X619248Y485558D01*
X618826Y485837D01*
X616625Y488038D01*
X612891Y489585D01*
X593609Y489585D01*
X589875Y488038D01*
X587017Y485180D01*
X585470Y481446D01*
X585470Y477404D01*
X587017Y473670D01*
X589875Y470812D01*
X593609Y469265D01*
X612891Y469265D01*
X616625Y470812D01*
X618826Y473013D01*
X619229Y473284D01*
X619724Y473385D01*
X623689Y473385D01*
X624166Y473292D01*
X624587Y473013D01*
X627827Y469773D01*
X635823Y469773D01*
X637817Y471767D01*
X638183Y472022D01*
X638675Y472138D01*
X639173Y472054D01*
X639599Y471781D01*
X639884Y471364D01*
X639985Y470869D01*
X639985Y462581D01*
X639907Y462142D01*
X639641Y461712D01*
X639229Y461420D01*
X638735Y461311D01*
X638238Y461404D01*
X637817Y461683D01*
X635823Y463677D01*
X627827Y463677D01*
X624587Y460437D01*
X624184Y460166D01*
X623689Y460065D01*
X619724Y460065D01*
X619248Y460158D01*
X618826Y460437D01*
X616625Y462638D01*
X612891Y464185D01*
X593609Y464185D01*
X589875Y462638D01*
X587017Y459780D01*
X585470Y456046D01*
X585470Y452004D01*
X587017Y448270D01*
X589875Y445412D01*
X593609Y443865D01*
X612891Y443865D01*
X616625Y445412D01*
X618826Y447613D01*
X619229Y447884D01*
X619724Y447985D01*
X623689Y447985D01*
X624166Y447892D01*
X624587Y447613D01*
X627827Y444373D01*
X635823Y444373D01*
X637817Y446367D01*
X638183Y446622D01*
X638675Y446738D01*
X639173Y446654D01*
X639599Y446381D01*
X639884Y445964D01*
X639985Y445469D01*
X639985Y439444D01*
X647201Y432228D01*
X647472Y431826D01*
X647573Y431330D01*
X647573Y424627D01*
X653227Y418973D01*
X661223Y418973D01*
X664463Y422213D01*
X664866Y422484D01*
X665361Y422585D01*
X665516Y422585D01*
X665992Y422492D01*
X666414Y422213D01*
X668615Y420012D01*
X672349Y418465D01*
X691631Y418465D01*
X693164Y419100D01*
X693610Y419196D01*
X694108Y419111D01*
X694534Y418839D01*
X694819Y418422D01*
X694920Y417927D01*
X694920Y413923D01*
X694838Y413475D01*
X694569Y413047D01*
X694155Y412758D01*
X693660Y412653D01*
X693164Y412750D01*
X691631Y413385D01*
X672349Y413385D01*
X668615Y411838D01*
X666414Y409637D01*
X666011Y409366D01*
X665516Y409265D01*
X665361Y409265D01*
X664884Y409358D01*
X664463Y409637D01*
X661223Y412877D01*
X653227Y412877D01*
X647573Y407223D01*
X647573Y399227D01*
X653227Y393573D01*
X661223Y393573D01*
X664463Y396813D01*
X664866Y397084D01*
X665361Y397185D01*
X665516Y397185D01*
X665992Y397092D01*
X666414Y396813D01*
X668615Y394612D01*
X672349Y393065D01*
X691631Y393065D01*
X693164Y393700D01*
X693610Y393796D01*
X694108Y393711D01*
X694534Y393439D01*
X694819Y393022D01*
X694920Y392527D01*
X694920Y388523D01*
X694838Y388075D01*
X694569Y387647D01*
X694155Y387358D01*
X693660Y387253D01*
X693164Y387350D01*
X691631Y387985D01*
X672349Y387985D01*
X668615Y386438D01*
X666414Y384237D01*
X666011Y383966D01*
X665516Y383865D01*
X665361Y383865D01*
X664884Y383958D01*
X664463Y384237D01*
X661223Y387477D01*
X654520Y387477D01*
X654043Y387570D01*
X653622Y387849D01*
X646406Y395065D01*
X640381Y395065D01*
X639942Y395143D01*
X639512Y395409D01*
X639220Y395821D01*
X639111Y396315D01*
X639204Y396812D01*
X639483Y397233D01*
X641477Y399227D01*
X641477Y407223D01*
X635823Y412877D01*
X627827Y412877D01*
X624587Y409637D01*
X624184Y409366D01*
X623689Y409265D01*
X619724Y409265D01*
X619248Y409358D01*
X618826Y409637D01*
X616625Y411838D01*
X612891Y413385D01*
X593609Y413385D01*
X589875Y411838D01*
X587017Y408980D01*
X585470Y405246D01*
X585470Y401204D01*
X587017Y397470D01*
X587254Y397233D01*
X587509Y396867D01*
X587625Y396375D01*
X587540Y395877D01*
X587268Y395451D01*
X586851Y395166D01*
X586356Y395065D01*
X585910Y395065D01*
X585443Y395154D01*
X585019Y395430D01*
X584737Y395849D01*
X584558Y396280D01*
X581700Y399138D01*
X577966Y400685D01*
X558684Y400685D01*
X554950Y399138D01*
X552092Y396280D01*
X550545Y392546D01*
X550545Y388504D01*
X552092Y384770D01*
X554950Y381912D01*
X558684Y380365D01*
X577966Y380365D01*
X581700Y381912D01*
X584558Y384770D01*
X584737Y385201D01*
X584998Y385599D01*
X585415Y385884D01*
X585910Y385985D01*
X586356Y385985D01*
X586794Y385907D01*
X587225Y385641D01*
X587517Y385229D01*
X587625Y384735D01*
X587533Y384238D01*
X587254Y383817D01*
X587017Y383580D01*
X585470Y379846D01*
X585470Y375804D01*
X587017Y372070D01*
X587254Y371833D01*
X587509Y371467D01*
X587625Y370975D01*
X587540Y370477D01*
X587268Y370051D01*
X586851Y369766D01*
X586356Y369665D01*
X585910Y369665D01*
X585443Y369754D01*
X585019Y370030D01*
X584737Y370449D01*
X584558Y370880D01*
X581700Y373738D01*
X577966Y375285D01*
X558684Y375285D01*
X554950Y373738D01*
X552092Y370880D01*
X550545Y367146D01*
X550545Y363104D01*
X552092Y359370D01*
X554950Y356512D01*
X558684Y354965D01*
X577966Y354965D01*
X581700Y356512D01*
X584558Y359370D01*
X584737Y359801D01*
X584998Y360199D01*
X585415Y360484D01*
X585910Y360585D01*
X586356Y360585D01*
X586794Y360507D01*
X587225Y360241D01*
X587517Y359829D01*
X587625Y359335D01*
X587533Y358838D01*
X587254Y358417D01*
X587017Y358180D01*
X585470Y354446D01*
X585470Y350404D01*
X587017Y346670D01*
X589875Y343812D01*
X593609Y342265D01*
X612891Y342265D01*
X616625Y343812D01*
X618826Y346013D01*
X619229Y346284D01*
X619724Y346385D01*
X623689Y346385D01*
X624166Y346292D01*
X624587Y346013D01*
X627827Y342773D01*
X635823Y342773D01*
X641477Y348427D01*
X641477Y356423D01*
X639483Y358417D01*
X639228Y358783D01*
X639112Y359275D01*
X639196Y359773D01*
X639469Y360199D01*
X639886Y360484D01*
X640381Y360585D01*
X642118Y360585D01*
X642595Y360492D01*
X643016Y360213D01*
X647201Y356028D01*
X647472Y355626D01*
X647573Y355130D01*
X647573Y348427D01*
X653227Y342773D01*
X661223Y342773D01*
X664463Y346013D01*
X664866Y346284D01*
X665361Y346385D01*
X665516Y346385D01*
X665992Y346292D01*
X666414Y346013D01*
X668615Y343812D01*
X672349Y342265D01*
X691631Y342265D01*
X693164Y342900D01*
X693610Y342996D01*
X694108Y342911D01*
X694534Y342639D01*
X694819Y342222D01*
X694920Y341727D01*
X694920Y337723D01*
X694838Y337275D01*
X694569Y336847D01*
X694155Y336558D01*
X693660Y336453D01*
X693164Y336550D01*
X691631Y337185D01*
X672349Y337185D01*
X668615Y335638D01*
X666414Y333437D01*
X666011Y333166D01*
X665516Y333065D01*
X665361Y333065D01*
X664884Y333158D01*
X664463Y333437D01*
X661223Y336677D01*
X653227Y336677D01*
X647573Y331023D01*
X647573Y323027D01*
X653227Y317373D01*
X661223Y317373D01*
X664463Y320613D01*
X664866Y320884D01*
X665361Y320985D01*
X665516Y320985D01*
X665992Y320892D01*
X666414Y320613D01*
X668615Y318412D01*
X672349Y316865D01*
X691631Y316865D01*
X693164Y317500D01*
X693610Y317596D01*
X694108Y317511D01*
X694534Y317239D01*
X694819Y316822D01*
X694920Y316327D01*
X694920Y312323D01*
X694838Y311875D01*
X694569Y311447D01*
X694155Y311158D01*
X693660Y311053D01*
X693164Y311150D01*
X691631Y311785D01*
X672349Y311785D01*
X668615Y310238D01*
X666414Y308037D01*
X666011Y307766D01*
X665516Y307665D01*
X665361Y307665D01*
X664884Y307758D01*
X664463Y308037D01*
X661223Y311277D01*
X653227Y311277D01*
X650983Y309033D01*
X650617Y308778D01*
X650125Y308662D01*
X649627Y308746D01*
X649201Y309019D01*
X648916Y309436D01*
X648815Y309931D01*
X648815Y312927D01*
X643127Y318615D01*
X640131Y318615D01*
X639692Y318693D01*
X639262Y318959D01*
X638970Y319371D01*
X638861Y319865D01*
X638954Y320362D01*
X639233Y320783D01*
X641477Y323027D01*
X641477Y331023D01*
X635823Y336677D01*
X627827Y336677D01*
X624587Y333437D01*
X624184Y333166D01*
X623689Y333065D01*
X619724Y333065D01*
X619248Y333158D01*
X618826Y333437D01*
X616625Y335638D01*
X612891Y337185D01*
X593609Y337185D01*
X589875Y335638D01*
X587017Y332780D01*
X585470Y329046D01*
X585470Y325004D01*
X587017Y321270D01*
X587504Y320783D01*
X587759Y320417D01*
X587875Y319925D01*
X587790Y319427D01*
X587518Y319001D01*
X587101Y318716D01*
X586606Y318615D01*
X585598Y318615D01*
X578085Y311102D01*
X577719Y310847D01*
X577227Y310731D01*
X576729Y310815D01*
X576303Y311088D01*
X576018Y311505D01*
X575917Y312000D01*
X575917Y315039D01*
X572183Y318773D01*
X571864Y318835D01*
X571443Y319114D01*
X567936Y322621D01*
X565717Y323540D01*
X530078Y323540D01*
X529601Y323633D01*
X529180Y323912D01*
X501712Y351380D01*
X501441Y351783D01*
X501340Y352278D01*
X501340Y434015D01*
X501425Y434473D01*
X501698Y434899D01*
X502115Y435184D01*
X502610Y435285D01*
X514977Y435285D01*
X515454Y435192D01*
X515875Y434913D01*
X517646Y433142D01*
X521193Y431673D01*
X539257Y431673D01*
X542804Y433142D01*
X545520Y435858D01*
X546989Y439405D01*
X546989Y443245D01*
X545520Y446792D01*
X542804Y449508D01*
X539257Y450977D01*
X521193Y450977D01*
X517646Y449508D01*
X515875Y447737D01*
X515472Y447466D01*
X514977Y447365D01*
X502610Y447365D01*
X502152Y447450D01*
X501726Y447723D01*
X501441Y448140D01*
X501340Y448635D01*
X501340Y587123D01*
X501433Y587600D01*
X501622Y587886D01*
X501622Y593169D01*
X497919Y596872D01*
X492681Y596872D01*
X488978Y593169D01*
X488978Y587888D01*
X489159Y587619D01*
X489260Y587123D01*
X489260Y348049D01*
X490180Y345829D01*
X523629Y312380D01*
X525849Y311460D01*
X561487Y311460D01*
X561964Y311367D01*
X562385Y311088D01*
X562901Y310572D01*
X563172Y310169D01*
X563260Y309739D01*
X563341Y309622D01*
X563458Y309130D01*
X563373Y308632D01*
X563101Y308206D01*
X562684Y307921D01*
X562188Y307820D01*
X521098Y307820D01*
X520621Y307913D01*
X520200Y308192D01*
X509777Y318615D01*
X468123Y318615D01*
X443385Y293877D01*
X443385Y282997D01*
X443307Y282558D01*
X443041Y282128D01*
X442629Y281835D01*
X442135Y281727D01*
X441638Y281820D01*
X441217Y282099D01*
X440769Y282547D01*
X435531Y282547D01*
X434121Y281137D01*
X433719Y280866D01*
X433223Y280765D01*
X424682Y280765D01*
X424205Y280858D01*
X423784Y281137D01*
X417806Y287115D01*
X405511Y287115D01*
X405053Y287200D01*
X404627Y287473D01*
X404342Y287890D01*
X404241Y288385D01*
X404241Y290728D01*
X402753Y292216D01*
X390337Y292216D01*
X388849Y290728D01*
X388849Y274422D01*
X390337Y272934D01*
X402753Y272934D01*
X404241Y274422D01*
X404241Y276765D01*
X404326Y277223D01*
X404599Y277649D01*
X405016Y277934D01*
X405511Y278035D01*
X413518Y278035D01*
X413995Y277942D01*
X414416Y277663D01*
X420394Y271685D01*
X433223Y271685D01*
X433700Y271592D01*
X434121Y271313D01*
X435531Y269903D01*
X440769Y269903D01*
X441217Y270351D01*
X441583Y270606D01*
X442075Y270723D01*
X442573Y270638D01*
X442999Y270366D01*
X443284Y269949D01*
X443385Y269453D01*
X443385Y230602D01*
X443292Y230125D01*
X443013Y229704D01*
X441353Y228044D01*
X441353Y222806D01*
X445056Y219103D01*
X450294Y219103D01*
X453997Y222806D01*
X453997Y228044D01*
X452337Y229704D01*
X452066Y230106D01*
X451965Y230602D01*
X451965Y289797D01*
X452058Y290274D01*
X452337Y290695D01*
X471305Y309663D01*
X471708Y309934D01*
X472203Y310035D01*
X505697Y310035D01*
X506174Y309942D01*
X506595Y309663D01*
X513890Y302368D01*
X514145Y302002D01*
X514261Y301510D01*
X514177Y301012D01*
X513904Y300586D01*
X513487Y300301D01*
X512992Y300200D01*
X503683Y300200D01*
X478310Y274827D01*
X478310Y202027D01*
X478217Y201550D01*
X477938Y201129D01*
X476278Y199469D01*
X476278Y194231D01*
X476726Y193783D01*
X476981Y193417D01*
X477098Y192925D01*
X477013Y192427D01*
X476741Y192001D01*
X476324Y191716D01*
X475828Y191615D01*
X456410Y191615D01*
X455952Y191700D01*
X455526Y191973D01*
X455241Y192390D01*
X455140Y192885D01*
X455140Y208152D01*
X449452Y213840D01*
X443327Y213840D01*
X442850Y213933D01*
X442429Y214212D01*
X440769Y215872D01*
X435531Y215872D01*
X431828Y212169D01*
X431828Y206931D01*
X435531Y203228D01*
X440769Y203228D01*
X442429Y204888D01*
X442831Y205159D01*
X443327Y205260D01*
X445290Y205260D01*
X445748Y205175D01*
X446174Y204902D01*
X446459Y204485D01*
X446560Y203990D01*
X446560Y188723D01*
X452248Y183035D01*
X485353Y183035D01*
X485792Y182957D01*
X486222Y182691D01*
X486515Y182279D01*
X486623Y181785D01*
X486530Y181288D01*
X486251Y180867D01*
X485803Y180419D01*
X485803Y175181D01*
X489506Y171478D01*
X494744Y171478D01*
X498447Y175181D01*
X498447Y180419D01*
X496787Y182079D01*
X496516Y182481D01*
X496415Y182977D01*
X496415Y267572D01*
X496508Y268049D01*
X496787Y268470D01*
X512580Y284263D01*
X512983Y284534D01*
X513478Y284635D01*
X554812Y284635D01*
X555251Y284557D01*
X555681Y284291D01*
X555973Y283879D01*
X556082Y283385D01*
X555989Y282888D01*
X555710Y282467D01*
X554300Y281057D01*
X552831Y277510D01*
X552831Y273670D01*
X554349Y270005D01*
X554445Y269867D01*
X554561Y269375D01*
X554477Y268877D01*
X554204Y268451D01*
X553787Y268166D01*
X553292Y268065D01*
X512469Y268065D01*
X503460Y259056D01*
X503460Y170682D01*
X503367Y170205D01*
X503088Y169784D01*
X500141Y166837D01*
X499739Y166566D01*
X499243Y166465D01*
X452602Y166465D01*
X452125Y166558D01*
X451704Y166837D01*
X450294Y168247D01*
X445056Y168247D01*
X441353Y164544D01*
X441353Y159306D01*
X445056Y155603D01*
X450294Y155603D01*
X451704Y157013D01*
X452106Y157284D01*
X452602Y157385D01*
X503531Y157385D01*
X512540Y166394D01*
X512540Y254768D01*
X512633Y255245D01*
X512912Y255666D01*
X515859Y258613D01*
X516261Y258884D01*
X516757Y258985D01*
X554562Y258985D01*
X555001Y258907D01*
X555431Y258641D01*
X555723Y258229D01*
X555832Y257735D01*
X555739Y257238D01*
X555460Y256817D01*
X554300Y255657D01*
X552831Y252110D01*
X552831Y248270D01*
X554349Y244605D01*
X554445Y244467D01*
X554561Y243975D01*
X554477Y243477D01*
X554204Y243051D01*
X553787Y242766D01*
X553292Y242665D01*
X525169Y242665D01*
X516160Y233656D01*
X516160Y157982D01*
X516067Y157505D01*
X515788Y157084D01*
X509666Y150962D01*
X509264Y150691D01*
X508768Y150590D01*
X436269Y150590D01*
X430435Y144756D01*
X430435Y141452D01*
X430342Y140975D01*
X430063Y140554D01*
X428653Y139144D01*
X428653Y133906D01*
X432356Y130203D01*
X437594Y130203D01*
X441297Y133906D01*
X441297Y139144D01*
X441099Y139342D01*
X440844Y139708D01*
X440727Y140200D01*
X440812Y140698D01*
X441084Y141124D01*
X441501Y141409D01*
X441997Y141510D01*
X513056Y141510D01*
X525240Y153694D01*
X525240Y229368D01*
X525333Y229845D01*
X525612Y230266D01*
X528559Y233213D01*
X528961Y233484D01*
X529457Y233585D01*
X586356Y233585D01*
X586794Y233507D01*
X587225Y233241D01*
X587517Y232829D01*
X587625Y232335D01*
X587533Y231838D01*
X587254Y231417D01*
X587017Y231180D01*
X586735Y230499D01*
X586474Y230101D01*
X586057Y229816D01*
X585561Y229715D01*
X537973Y229715D01*
X529110Y220852D01*
X529110Y113428D01*
X529017Y112951D01*
X528738Y112530D01*
X525684Y109476D01*
X525281Y109205D01*
X524786Y109104D01*
X443327Y109104D01*
X442850Y109197D01*
X442429Y109476D01*
X440769Y111136D01*
X435531Y111136D01*
X434121Y109726D01*
X433719Y109455D01*
X433223Y109354D01*
X420335Y109354D01*
X420114Y109205D01*
X419618Y109104D01*
X418189Y109104D01*
X417712Y109197D01*
X417291Y109476D01*
X411352Y115415D01*
X405511Y115415D01*
X405053Y115500D01*
X404627Y115773D01*
X404342Y116190D01*
X404241Y116685D01*
X404241Y119278D01*
X402753Y120766D01*
X390337Y120766D01*
X388849Y119278D01*
X388849Y102972D01*
X390337Y101484D01*
X401983Y101484D01*
X402441Y101399D01*
X402867Y101126D01*
X403152Y100709D01*
X403253Y100214D01*
X403253Y95806D01*
X404663Y94396D01*
X404934Y93994D01*
X405035Y93498D01*
X405035Y42569D01*
X410869Y36735D01*
X458623Y36735D01*
X459100Y36642D01*
X459521Y36363D01*
X460931Y34953D01*
X466169Y34953D01*
X469872Y38656D01*
X469872Y43894D01*
X466169Y47597D01*
X460931Y47597D01*
X459521Y46187D01*
X459119Y45916D01*
X458623Y45815D01*
X415385Y45815D01*
X414927Y45900D01*
X414501Y46173D01*
X414216Y46590D01*
X414115Y47085D01*
X414115Y93498D01*
X414208Y93975D01*
X414487Y94396D01*
X415897Y95806D01*
X415897Y99254D01*
X415982Y99712D01*
X416255Y100138D01*
X416672Y100423D01*
X417167Y100524D01*
X419618Y100524D01*
X420095Y100431D01*
X420332Y100274D01*
X433223Y100274D01*
X433700Y100181D01*
X434121Y99902D01*
X435531Y98492D01*
X440769Y98492D01*
X442429Y100152D01*
X442831Y100423D01*
X443327Y100524D01*
X528866Y100524D01*
X537690Y109348D01*
X537690Y183728D01*
X537768Y184167D01*
X538034Y184597D01*
X538446Y184890D01*
X538940Y184998D01*
X539437Y184905D01*
X539858Y184626D01*
X541438Y183046D01*
X541709Y182644D01*
X541810Y182148D01*
X541810Y94378D01*
X541717Y93901D01*
X541438Y93480D01*
X538345Y90387D01*
X537942Y90116D01*
X537447Y90015D01*
X510286Y90015D01*
X509828Y90100D01*
X509402Y90373D01*
X509117Y90790D01*
X509016Y91285D01*
X509016Y93878D01*
X507528Y95366D01*
X495112Y95366D01*
X493624Y93878D01*
X493624Y77572D01*
X495112Y76084D01*
X507528Y76084D01*
X509016Y77572D01*
X509016Y80165D01*
X509101Y80623D01*
X509374Y81049D01*
X509791Y81334D01*
X510286Y81435D01*
X541527Y81435D01*
X550390Y90298D01*
X550390Y182148D01*
X550483Y182625D01*
X550762Y183046D01*
X552342Y184626D01*
X552708Y184881D01*
X553200Y184998D01*
X553698Y184913D01*
X554124Y184641D01*
X554409Y184224D01*
X554510Y183728D01*
X554510Y40102D01*
X554417Y39625D01*
X554138Y39204D01*
X552478Y37544D01*
X552478Y32306D01*
X556181Y28603D01*
X561419Y28603D01*
X565122Y32306D01*
X565122Y37544D01*
X563462Y39204D01*
X563191Y39606D01*
X563090Y40102D01*
X563090Y204977D01*
X557402Y210665D01*
X554452Y210665D01*
X553975Y210758D01*
X553554Y211037D01*
X551894Y212697D01*
X546656Y212697D01*
X542953Y208994D01*
X542953Y203756D01*
X546656Y200053D01*
X551894Y200053D01*
X552342Y200501D01*
X552708Y200756D01*
X553200Y200873D01*
X553698Y200788D01*
X554124Y200516D01*
X554409Y200099D01*
X554510Y199603D01*
X554510Y190922D01*
X554432Y190483D01*
X554166Y190053D01*
X553754Y189760D01*
X553260Y189652D01*
X552763Y189745D01*
X552342Y190024D01*
X548719Y193647D01*
X543481Y193647D01*
X539858Y190024D01*
X539492Y189769D01*
X539000Y189652D01*
X538502Y189737D01*
X538076Y190009D01*
X537791Y190426D01*
X537690Y190922D01*
X537690Y216772D01*
X537783Y217249D01*
X538062Y217670D01*
X541155Y220763D01*
X541558Y221034D01*
X542053Y221135D01*
X585561Y221135D01*
X586029Y221046D01*
X586452Y220770D01*
X586735Y220351D01*
X587017Y219670D01*
X589875Y216812D01*
X593609Y215265D01*
X612891Y215265D01*
X616625Y216812D01*
X618826Y219013D01*
X619229Y219284D01*
X619724Y219385D01*
X623689Y219385D01*
X624166Y219292D01*
X624587Y219013D01*
X627827Y215773D01*
X635823Y215773D01*
X641477Y221427D01*
X641477Y229423D01*
X639483Y231417D01*
X639228Y231783D01*
X639112Y232275D01*
X639196Y232773D01*
X639469Y233199D01*
X639886Y233484D01*
X640381Y233585D01*
X646406Y233585D01*
X653622Y240801D01*
X654024Y241072D01*
X654520Y241173D01*
X661223Y241173D01*
X664463Y244413D01*
X664866Y244684D01*
X665361Y244785D01*
X665516Y244785D01*
X665992Y244692D01*
X666414Y244413D01*
X668615Y242212D01*
X672349Y240665D01*
X691631Y240665D01*
X693164Y241300D01*
X693610Y241396D01*
X694108Y241311D01*
X694534Y241039D01*
X694819Y240622D01*
X694920Y240127D01*
X694920Y236123D01*
X694838Y235675D01*
X694569Y235247D01*
X694155Y234958D01*
X693660Y234853D01*
X693164Y234950D01*
X691631Y235585D01*
X672349Y235585D01*
X668615Y234038D01*
X666414Y231837D01*
X666011Y231566D01*
X665516Y231465D01*
X665361Y231465D01*
X664884Y231558D01*
X664463Y231837D01*
X661223Y235077D01*
X653227Y235077D01*
X647573Y229423D01*
X647573Y222366D01*
X647480Y221889D01*
X647201Y221468D01*
X640235Y214502D01*
X640235Y208331D01*
X640157Y207892D01*
X639891Y207462D01*
X639479Y207170D01*
X638985Y207061D01*
X638488Y207154D01*
X638067Y207433D01*
X635823Y209677D01*
X633095Y209677D01*
X633095Y198755D01*
X630555Y198755D01*
X630555Y209677D01*
X627827Y209677D01*
X622130Y203980D01*
X621755Y203721D01*
X621262Y203608D01*
X620764Y203697D01*
X620341Y203973D01*
X620058Y204392D01*
X619483Y205780D01*
X616625Y208638D01*
X612891Y210185D01*
X604520Y210185D01*
X604520Y189865D01*
X612891Y189865D01*
X614222Y190416D01*
X614668Y190512D01*
X615166Y190428D01*
X615592Y190155D01*
X615877Y189738D01*
X615978Y189243D01*
X615978Y185407D01*
X615896Y184959D01*
X615627Y184531D01*
X615213Y184242D01*
X614718Y184137D01*
X614222Y184234D01*
X612891Y184785D01*
X593609Y184785D01*
X589875Y183238D01*
X587017Y180380D01*
X585470Y176646D01*
X585470Y172604D01*
X587017Y168870D01*
X589875Y166012D01*
X593609Y164465D01*
X612891Y164465D01*
X616625Y166012D01*
X618826Y168213D01*
X619229Y168484D01*
X619724Y168585D01*
X623689Y168585D01*
X624166Y168492D01*
X624587Y168213D01*
X627827Y164973D01*
X635823Y164973D01*
X641477Y170627D01*
X641477Y178623D01*
X639233Y180867D01*
X638978Y181233D01*
X638862Y181725D01*
X638946Y182223D01*
X639219Y182649D01*
X639636Y182934D01*
X640131Y183035D01*
X643127Y183035D01*
X648815Y188723D01*
X648815Y191719D01*
X648893Y192158D01*
X649159Y192588D01*
X649571Y192880D01*
X650065Y192989D01*
X650562Y192896D01*
X650983Y192617D01*
X653227Y190373D01*
X661223Y190373D01*
X664463Y193613D01*
X664866Y193884D01*
X665361Y193985D01*
X665516Y193985D01*
X665992Y193892D01*
X666414Y193613D01*
X668615Y191412D01*
X672349Y189865D01*
X691631Y189865D01*
X693164Y190500D01*
X693610Y190596D01*
X694108Y190511D01*
X694534Y190239D01*
X694819Y189822D01*
X694920Y189327D01*
X694920Y185323D01*
X694838Y184875D01*
X694569Y184447D01*
X694155Y184158D01*
X693660Y184053D01*
X693164Y184150D01*
X691631Y184785D01*
X672349Y184785D01*
X668615Y183238D01*
X666414Y181037D01*
X666011Y180766D01*
X665516Y180665D01*
X665361Y180665D01*
X664884Y180758D01*
X664463Y181037D01*
X661223Y184277D01*
X653227Y184277D01*
X647573Y178623D01*
X647573Y170627D01*
X653227Y164973D01*
X661223Y164973D01*
X664463Y168213D01*
X664866Y168484D01*
X665361Y168585D01*
X665516Y168585D01*
X665992Y168492D01*
X666414Y168213D01*
X668615Y166012D01*
X672349Y164465D01*
X691631Y164465D01*
X693164Y165100D01*
X693610Y165196D01*
X694108Y165111D01*
X694534Y164839D01*
X694819Y164422D01*
X694920Y163927D01*
X694920Y159923D01*
X694838Y159475D01*
X694569Y159047D01*
X694155Y158758D01*
X693660Y158653D01*
X693164Y158750D01*
X691631Y159385D01*
X672349Y159385D01*
X668615Y157838D01*
X666414Y155637D01*
X666011Y155366D01*
X665516Y155265D01*
X665361Y155265D01*
X664884Y155358D01*
X664463Y155637D01*
X661223Y158877D01*
X653227Y158877D01*
X647573Y153223D01*
X647573Y145227D01*
X653227Y139573D01*
X661223Y139573D01*
X664463Y142813D01*
X664866Y143084D01*
X665361Y143185D01*
X665516Y143185D01*
X665992Y143092D01*
X666414Y142813D01*
X668615Y140612D01*
X672349Y139065D01*
X691631Y139065D01*
X693164Y139700D01*
X693610Y139796D01*
X694108Y139711D01*
X694534Y139439D01*
X694819Y139022D01*
X694920Y138527D01*
X694920Y134523D01*
X694838Y134075D01*
X694569Y133647D01*
X694155Y133358D01*
X693660Y133253D01*
X693164Y133350D01*
X691631Y133985D01*
X672349Y133985D01*
X668615Y132438D01*
X666414Y130237D01*
X666011Y129966D01*
X665516Y129865D01*
X665361Y129865D01*
X664884Y129958D01*
X664463Y130237D01*
X661223Y133477D01*
X653227Y133477D01*
X647573Y127823D01*
X647573Y119827D01*
X653227Y114173D01*
X661223Y114173D01*
X664463Y117413D01*
X664866Y117684D01*
X665361Y117785D01*
X665516Y117785D01*
X665992Y117692D01*
X666414Y117413D01*
X668615Y115212D01*
X672349Y113665D01*
X691631Y113665D01*
X693164Y114300D01*
X693610Y114396D01*
X694108Y114311D01*
X694534Y114039D01*
X694819Y113622D01*
X694920Y113127D01*
X694920Y109123D01*
X694838Y108675D01*
X694569Y108247D01*
X694155Y107958D01*
X693660Y107853D01*
X693164Y107950D01*
X691631Y108585D01*
X672349Y108585D01*
X668615Y107038D01*
X666414Y104837D01*
X666011Y104566D01*
X665516Y104465D01*
X665361Y104465D01*
X664884Y104558D01*
X664463Y104837D01*
X661223Y108077D01*
X653227Y108077D01*
X647573Y102423D01*
X647573Y94427D01*
X653227Y88773D01*
X661223Y88773D01*
X664463Y92013D01*
X664866Y92284D01*
X665361Y92385D01*
X665516Y92385D01*
X665992Y92292D01*
X666414Y92013D01*
X668615Y89812D01*
X672349Y88265D01*
X691631Y88265D01*
X693164Y88900D01*
X693610Y88996D01*
X694108Y88911D01*
X694534Y88639D01*
X694819Y88222D01*
X694920Y87727D01*
X694920Y83723D01*
X694838Y83275D01*
X694569Y82847D01*
X694155Y82558D01*
X693660Y82453D01*
X693164Y82550D01*
X691631Y83185D01*
X672349Y83185D01*
X668615Y81638D01*
X666414Y79437D01*
X666011Y79166D01*
X665516Y79065D01*
X665361Y79065D01*
X664884Y79158D01*
X664463Y79437D01*
X662692Y81208D01*
X659145Y82677D01*
X655305Y82677D01*
X651758Y81208D01*
X649042Y78492D01*
X647573Y74945D01*
X647573Y71105D01*
X649042Y67558D01*
X651758Y64842D01*
X651901Y64783D01*
X652299Y64522D01*
X652584Y64105D01*
X652685Y63610D01*
X652685Y24632D01*
X652592Y24155D01*
X652313Y23734D01*
X646191Y17612D01*
X645789Y17341D01*
X645293Y17240D01*
X291332Y17240D01*
X290855Y17333D01*
X290434Y17612D01*
X287487Y20559D01*
X287216Y20961D01*
X287115Y21457D01*
X287115Y134773D01*
X287208Y135250D01*
X287487Y135671D01*
X288897Y137081D01*
X288897Y142319D01*
X285194Y146022D01*
X279956Y146022D01*
X276253Y142319D01*
X276253Y137081D01*
X277663Y135671D01*
X277934Y135269D01*
X278035Y134773D01*
X278035Y17169D01*
X287044Y8160D01*
X649581Y8160D01*
X661765Y20344D01*
X661765Y63610D01*
X661854Y64077D01*
X662130Y64501D01*
X662549Y64783D01*
X662692Y64842D01*
X664463Y66613D01*
X664866Y66884D01*
X665361Y66985D01*
X665516Y66985D01*
X665992Y66892D01*
X666414Y66613D01*
X668615Y64412D01*
X672349Y62865D01*
X691631Y62865D01*
X693164Y63500D01*
X693610Y63596D01*
X694108Y63511D01*
X694534Y63239D01*
X694819Y62822D01*
X694920Y62327D01*
X694920Y6350D01*
X694835Y5892D01*
X694562Y5466D01*
X694145Y5181D01*
G37*
%LPC*%
G36*
X36006Y639920D02*
X43994Y639920D01*
X51374Y642977D01*
X57023Y648626D01*
X60080Y656006D01*
X60080Y663994D01*
X57023Y671374D01*
X51374Y677023D01*
X43994Y680080D01*
X36006Y680080D01*
X28626Y677023D01*
X22977Y671374D01*
X19920Y663994D01*
X19920Y656006D01*
X22977Y648626D01*
X28626Y642977D01*
X36006Y639920D01*
G37*
G36*
X47943Y584200D02*
X72707Y584200D01*
X77281Y586095D01*
X80782Y589596D01*
X82677Y594170D01*
X82677Y599122D01*
X80782Y603696D01*
X77281Y607197D01*
X72707Y609092D01*
X47943Y609092D01*
X43369Y607197D01*
X39868Y603696D01*
X37973Y599122D01*
X37973Y594170D01*
X39868Y589596D01*
X43369Y586095D01*
X47943Y584200D01*
G37*
G36*
X418465Y588645D02*
X430530Y588645D01*
X430530Y600710D01*
X426277Y600710D01*
X418465Y592899D01*
X418465Y588645D01*
G37*
G36*
X433070Y588645D02*
X445135Y588645D01*
X445135Y592899D01*
X437324Y600710D01*
X433070Y600710D01*
X433070Y588645D01*
G37*
G36*
X426277Y574040D02*
X430530Y574040D01*
X430530Y586105D01*
X418465Y586105D01*
X418465Y581852D01*
X426277Y574040D01*
G37*
G36*
X433070Y574040D02*
X437324Y574040D01*
X445135Y581852D01*
X445135Y586105D01*
X433070Y586105D01*
X433070Y574040D01*
G37*
G36*
X559293Y558673D02*
X577357Y558673D01*
X580904Y560142D01*
X583620Y562858D01*
X585089Y566405D01*
X585089Y570245D01*
X583620Y573792D01*
X580904Y576508D01*
X577357Y577977D01*
X559293Y577977D01*
X555746Y576508D01*
X553030Y573792D01*
X551561Y570245D01*
X551561Y566405D01*
X553030Y562858D01*
X555746Y560142D01*
X559293Y558673D01*
G37*
G36*
X61595Y547624D02*
X82677Y547624D01*
X82677Y548830D01*
X80782Y553404D01*
X77281Y556905D01*
X72707Y558800D01*
X61595Y558800D01*
X61595Y547624D01*
G37*
G36*
X37973Y547624D02*
X59055Y547624D01*
X59055Y558800D01*
X47943Y558800D01*
X43369Y556905D01*
X39868Y553404D01*
X37973Y548830D01*
X37973Y547624D01*
G37*
G36*
X47943Y533908D02*
X59055Y533908D01*
X59055Y545084D01*
X37973Y545084D01*
X37973Y543878D01*
X39868Y539304D01*
X43369Y535803D01*
X47943Y533908D01*
G37*
G36*
X61595Y533908D02*
X72707Y533908D01*
X77281Y535803D01*
X80782Y539304D01*
X82677Y543878D01*
X82677Y545084D01*
X61595Y545084D01*
X61595Y533908D01*
G37*
G36*
X422159Y523240D02*
X441441Y523240D01*
X445175Y524787D01*
X448033Y527645D01*
X449580Y531379D01*
X449580Y535421D01*
X448033Y539155D01*
X445175Y542013D01*
X441441Y543560D01*
X422159Y543560D01*
X418425Y542013D01*
X415567Y539155D01*
X414020Y535421D01*
X414020Y531379D01*
X415567Y527645D01*
X418425Y524787D01*
X422159Y523240D01*
G37*
G36*
X400606Y123853D02*
X405844Y123853D01*
X409547Y127556D01*
X409547Y132837D01*
X409366Y133106D01*
X409265Y133602D01*
X409265Y193423D01*
X409358Y193900D01*
X409547Y194186D01*
X409547Y199469D01*
X405844Y203172D01*
X400563Y203172D01*
X400294Y202991D01*
X399798Y202890D01*
X380390Y202890D01*
X379951Y202968D01*
X379521Y203234D01*
X379228Y203646D01*
X379120Y204140D01*
X379212Y204637D01*
X379492Y205058D01*
X384810Y210377D01*
X384810Y221424D01*
X376999Y229235D01*
X365952Y229235D01*
X358140Y221424D01*
X358140Y210377D01*
X363458Y205058D01*
X363713Y204692D01*
X363830Y204200D01*
X363745Y203702D01*
X363473Y203276D01*
X363056Y202991D01*
X362560Y202890D01*
X315285Y202890D01*
X314827Y202975D01*
X314401Y203248D01*
X314116Y203665D01*
X314015Y204160D01*
X314015Y233990D01*
X314100Y234448D01*
X314373Y234874D01*
X314790Y235159D01*
X315285Y235260D01*
X344102Y235260D01*
X346321Y236180D01*
X354371Y244229D01*
X355290Y246449D01*
X355290Y292247D01*
X355383Y292724D01*
X355662Y293145D01*
X357730Y295213D01*
X358133Y295484D01*
X358628Y295585D01*
X399798Y295585D01*
X400275Y295492D01*
X400561Y295303D01*
X405887Y295303D01*
X406156Y295484D01*
X406652Y295585D01*
X410777Y295585D01*
X412996Y296505D01*
X421046Y304554D01*
X421965Y306774D01*
X421965Y469318D01*
X422058Y469795D01*
X422247Y470081D01*
X422247Y475407D01*
X422066Y475676D01*
X421965Y476172D01*
X421965Y476397D01*
X422058Y476874D01*
X422337Y477295D01*
X436921Y491879D01*
X437840Y494099D01*
X437840Y496570D01*
X437925Y497028D01*
X438198Y497454D01*
X438615Y497739D01*
X439110Y497840D01*
X441441Y497840D01*
X445175Y499387D01*
X448033Y502245D01*
X449580Y505979D01*
X449580Y510021D01*
X448033Y513755D01*
X445175Y516613D01*
X441441Y518160D01*
X422159Y518160D01*
X418425Y516613D01*
X415567Y513755D01*
X414020Y510021D01*
X414020Y505979D01*
X415567Y502245D01*
X418425Y499387D01*
X422159Y497840D01*
X422732Y497840D01*
X423171Y497762D01*
X423601Y497496D01*
X423893Y497084D01*
X424002Y496590D01*
X423909Y496093D01*
X423630Y495672D01*
X410805Y482846D01*
X409885Y480627D01*
X409885Y476172D01*
X409792Y475695D01*
X409603Y475410D01*
X409603Y470083D01*
X409784Y469814D01*
X409885Y469318D01*
X409885Y311003D01*
X409792Y310526D01*
X409513Y310105D01*
X407497Y308089D01*
X407113Y307826D01*
X406620Y307717D01*
X406123Y307810D01*
X405916Y307947D01*
X400563Y307947D01*
X400294Y307766D01*
X399798Y307665D01*
X354399Y307665D01*
X352179Y306746D01*
X344130Y298696D01*
X343210Y296477D01*
X343210Y250678D01*
X343117Y250201D01*
X342838Y249780D01*
X340770Y247712D01*
X340367Y247441D01*
X339872Y247340D01*
X246449Y247340D01*
X244229Y246421D01*
X233005Y235196D01*
X232085Y232977D01*
X232085Y181227D01*
X231992Y180750D01*
X231803Y180465D01*
X231803Y175181D01*
X235506Y171478D01*
X240744Y171478D01*
X244447Y175181D01*
X244447Y180462D01*
X244266Y180731D01*
X244165Y181227D01*
X244165Y228747D01*
X244258Y229224D01*
X244537Y229645D01*
X249780Y234888D01*
X250183Y235159D01*
X250678Y235260D01*
X300665Y235260D01*
X301123Y235175D01*
X301549Y234902D01*
X301834Y234485D01*
X301935Y233990D01*
X301935Y200277D01*
X301842Y199800D01*
X301653Y199515D01*
X301653Y194231D01*
X305356Y190528D01*
X310637Y190528D01*
X310906Y190709D01*
X311402Y190810D01*
X395915Y190810D01*
X396373Y190725D01*
X396799Y190452D01*
X397084Y190035D01*
X397185Y189540D01*
X397185Y133602D01*
X397092Y133125D01*
X396903Y132840D01*
X396903Y127556D01*
X400606Y123853D01*
G37*
G36*
X569595Y490883D02*
X576704Y490883D01*
X578192Y492371D01*
X578192Y497976D01*
X569595Y497976D01*
X569595Y490883D01*
G37*
G36*
X559946Y490883D02*
X567055Y490883D01*
X567055Y497976D01*
X558459Y497976D01*
X558459Y492371D01*
X559946Y490883D01*
G37*
G36*
X550545Y467995D02*
X567055Y467995D01*
X567055Y476885D01*
X558684Y476885D01*
X554950Y475338D01*
X552092Y472480D01*
X550545Y468746D01*
X550545Y467995D01*
G37*
G36*
X97790Y464820D02*
X109855Y464820D01*
X109855Y476885D01*
X105602Y476885D01*
X97790Y469074D01*
X97790Y464820D01*
G37*
G36*
X112395Y464820D02*
X124460Y464820D01*
X124460Y469074D01*
X116649Y476885D01*
X112395Y476885D01*
X112395Y464820D01*
G37*
G36*
X569595Y467995D02*
X586105Y467995D01*
X586105Y468746D01*
X584558Y472480D01*
X581700Y475338D01*
X577966Y476885D01*
X569595Y476885D01*
X569595Y467995D01*
G37*
G36*
X86281Y327053D02*
X91519Y327053D01*
X95222Y330756D01*
X95222Y335994D01*
X93812Y337404D01*
X93541Y337806D01*
X93440Y338302D01*
X93440Y455906D01*
X81256Y468090D01*
X65210Y468090D01*
X64743Y468179D01*
X64319Y468455D01*
X64037Y468874D01*
X63858Y469305D01*
X61000Y472163D01*
X57266Y473710D01*
X37984Y473710D01*
X34250Y472163D01*
X31392Y469305D01*
X29845Y465571D01*
X29845Y461529D01*
X31392Y457795D01*
X34250Y454937D01*
X37984Y453390D01*
X57266Y453390D01*
X61000Y454937D01*
X63858Y457795D01*
X64037Y458226D01*
X64298Y458624D01*
X64715Y458909D01*
X65210Y459010D01*
X76968Y459010D01*
X77445Y458917D01*
X77866Y458638D01*
X83988Y452516D01*
X84259Y452114D01*
X84360Y451618D01*
X84360Y338302D01*
X84267Y337825D01*
X83988Y337404D01*
X82578Y335994D01*
X82578Y330756D01*
X86281Y327053D01*
G37*
G36*
X569595Y456565D02*
X577966Y456565D01*
X581700Y458112D01*
X584558Y460970D01*
X586105Y464704D01*
X586105Y465455D01*
X569595Y465455D01*
X569595Y456565D01*
G37*
G36*
X558684Y456565D02*
X567055Y456565D01*
X567055Y465455D01*
X550545Y465455D01*
X550545Y464704D01*
X552092Y460970D01*
X554950Y458112D01*
X558684Y456565D01*
G37*
G36*
X112395Y450215D02*
X116649Y450215D01*
X124460Y458027D01*
X124460Y462280D01*
X112395Y462280D01*
X112395Y450215D01*
G37*
G36*
X105602Y450215D02*
X109855Y450215D01*
X109855Y462280D01*
X97790Y462280D01*
X97790Y458027D01*
X105602Y450215D01*
G37*
G36*
X235506Y266728D02*
X240744Y266728D01*
X242154Y268138D01*
X242556Y268409D01*
X243052Y268510D01*
X297156Y268510D01*
X306165Y277519D01*
X306165Y386678D01*
X306243Y387117D01*
X306509Y387547D01*
X306921Y387840D01*
X307415Y387948D01*
X307912Y387855D01*
X308333Y387576D01*
X311706Y384203D01*
X316944Y384203D01*
X318354Y385613D01*
X318756Y385884D01*
X319252Y385985D01*
X395123Y385985D01*
X395600Y385892D01*
X396021Y385613D01*
X397431Y384203D01*
X402669Y384203D01*
X406372Y387906D01*
X406372Y393144D01*
X402669Y396847D01*
X397431Y396847D01*
X396021Y395437D01*
X395619Y395166D01*
X395123Y395065D01*
X319252Y395065D01*
X318775Y395158D01*
X318354Y395437D01*
X316944Y396847D01*
X311706Y396847D01*
X308333Y393474D01*
X307967Y393219D01*
X307475Y393102D01*
X306977Y393187D01*
X306551Y393459D01*
X306266Y393876D01*
X306165Y394372D01*
X306165Y430506D01*
X293837Y442834D01*
X293566Y443236D01*
X293465Y443732D01*
X293465Y449098D01*
X293558Y449575D01*
X293837Y449996D01*
X295247Y451406D01*
X295247Y456644D01*
X291544Y460347D01*
X286306Y460347D01*
X282603Y456644D01*
X282603Y451406D01*
X284013Y449996D01*
X284284Y449594D01*
X284385Y449098D01*
X284385Y439444D01*
X296713Y427116D01*
X296984Y426714D01*
X297085Y426218D01*
X297085Y281807D01*
X296992Y281330D01*
X296713Y280909D01*
X293766Y277962D01*
X293364Y277691D01*
X292868Y277590D01*
X243052Y277590D01*
X242575Y277683D01*
X242154Y277962D01*
X240744Y279372D01*
X235506Y279372D01*
X231803Y275669D01*
X231803Y270431D01*
X235506Y266728D01*
G37*
G36*
X558684Y431165D02*
X577966Y431165D01*
X581700Y432712D01*
X584558Y435570D01*
X586105Y439304D01*
X586105Y443346D01*
X584558Y447080D01*
X581700Y449938D01*
X577966Y451485D01*
X558684Y451485D01*
X554950Y449938D01*
X552092Y447080D01*
X550545Y443346D01*
X550545Y439304D01*
X552092Y435570D01*
X554950Y432712D01*
X558684Y431165D01*
G37*
G36*
X37984Y427990D02*
X57266Y427990D01*
X61000Y429537D01*
X63858Y432395D01*
X65405Y436129D01*
X65405Y440171D01*
X63858Y443905D01*
X61000Y446763D01*
X57266Y448310D01*
X37984Y448310D01*
X34250Y446763D01*
X31392Y443905D01*
X29845Y440171D01*
X29845Y436129D01*
X31392Y432395D01*
X34250Y429537D01*
X37984Y427990D01*
G37*
G36*
X146606Y358803D02*
X151844Y358803D01*
X155547Y362506D01*
X155547Y367744D01*
X154137Y369154D01*
X153866Y369556D01*
X153765Y370052D01*
X153765Y391948D01*
X153858Y392425D01*
X154137Y392846D01*
X155547Y394256D01*
X155547Y399494D01*
X154137Y400904D01*
X153866Y401306D01*
X153765Y401802D01*
X153765Y436398D01*
X153858Y436875D01*
X154137Y437296D01*
X155547Y438706D01*
X155547Y443944D01*
X151844Y447647D01*
X146606Y447647D01*
X142903Y443944D01*
X142903Y438706D01*
X144313Y437296D01*
X144584Y436894D01*
X144685Y436398D01*
X144685Y401802D01*
X144592Y401325D01*
X144313Y400904D01*
X142903Y399494D01*
X142903Y394256D01*
X144313Y392846D01*
X144584Y392444D01*
X144685Y391948D01*
X144685Y370052D01*
X144592Y369575D01*
X144313Y369154D01*
X142903Y367744D01*
X142903Y362506D01*
X146606Y358803D01*
G37*
G36*
X262176Y345468D02*
X267414Y345468D01*
X271117Y349171D01*
X271117Y354409D01*
X267414Y358112D01*
X262176Y358112D01*
X260766Y356702D01*
X260364Y356431D01*
X259868Y356330D01*
X190367Y356330D01*
X189890Y356423D01*
X189469Y356702D01*
X185887Y360284D01*
X185616Y360686D01*
X185515Y361182D01*
X185515Y436398D01*
X185608Y436875D01*
X185887Y437296D01*
X187297Y438706D01*
X187297Y443944D01*
X183594Y447647D01*
X178356Y447647D01*
X174653Y443944D01*
X174653Y438706D01*
X176063Y437296D01*
X176334Y436894D01*
X176435Y436398D01*
X176435Y356894D01*
X186079Y347250D01*
X259868Y347250D01*
X260345Y347157D01*
X260766Y346878D01*
X262176Y345468D01*
G37*
G36*
X585470Y429895D02*
X601980Y429895D01*
X601980Y438785D01*
X593609Y438785D01*
X589875Y437238D01*
X587017Y434380D01*
X585470Y430646D01*
X585470Y429895D01*
G37*
G36*
X604520Y418465D02*
X612891Y418465D01*
X616625Y420012D01*
X619483Y422870D01*
X620058Y424258D01*
X620306Y424641D01*
X620718Y424934D01*
X621211Y425042D01*
X621708Y424949D01*
X622130Y424670D01*
X627827Y418973D01*
X630555Y418973D01*
X630555Y438277D01*
X627827Y438277D01*
X622130Y432580D01*
X621755Y432321D01*
X621262Y432208D01*
X620764Y432297D01*
X620341Y432573D01*
X620058Y432992D01*
X619483Y434380D01*
X616625Y437238D01*
X612891Y438785D01*
X604520Y438785D01*
X604520Y418465D01*
G37*
G36*
X633095Y429895D02*
X641477Y429895D01*
X641477Y432623D01*
X635823Y438277D01*
X633095Y438277D01*
X633095Y429895D01*
G37*
G36*
X633095Y418973D02*
X635823Y418973D01*
X641477Y424627D01*
X641477Y427355D01*
X633095Y427355D01*
X633095Y418973D01*
G37*
G36*
X593609Y418465D02*
X601980Y418465D01*
X601980Y427355D01*
X585470Y427355D01*
X585470Y426604D01*
X587017Y422870D01*
X589875Y420012D01*
X593609Y418465D01*
G37*
G36*
X520359Y373516D02*
X540092Y373516D01*
X540092Y379121D01*
X539111Y380102D01*
X538847Y380486D01*
X538739Y380980D01*
X538832Y381477D01*
X539111Y381898D01*
X540092Y382879D01*
X540092Y396629D01*
X538604Y398117D01*
X537535Y398117D01*
X537077Y398202D01*
X536651Y398475D01*
X536366Y398892D01*
X536265Y399387D01*
X536265Y405003D01*
X536350Y405461D01*
X536623Y405887D01*
X537040Y406172D01*
X537535Y406273D01*
X539257Y406273D01*
X542804Y407742D01*
X544575Y409513D01*
X544978Y409784D01*
X545473Y409885D01*
X551851Y409885D01*
X552327Y409792D01*
X552749Y409513D01*
X554950Y407312D01*
X558684Y405765D01*
X577966Y405765D01*
X581700Y407312D01*
X584558Y410170D01*
X586105Y413904D01*
X586105Y417946D01*
X584558Y421680D01*
X581700Y424538D01*
X577966Y426085D01*
X558684Y426085D01*
X554950Y424538D01*
X552749Y422337D01*
X552346Y422066D01*
X551851Y421965D01*
X545473Y421965D01*
X544996Y422058D01*
X544575Y422337D01*
X542804Y424108D01*
X539257Y425577D01*
X521193Y425577D01*
X517646Y424108D01*
X514930Y421392D01*
X513461Y417845D01*
X513461Y414005D01*
X514930Y410458D01*
X517646Y407742D01*
X521193Y406273D01*
X522915Y406273D01*
X523373Y406188D01*
X523799Y405915D01*
X524084Y405498D01*
X524185Y405003D01*
X524185Y399387D01*
X524100Y398929D01*
X523827Y398503D01*
X523410Y398218D01*
X522915Y398117D01*
X521846Y398117D01*
X520359Y396629D01*
X520359Y382879D01*
X521339Y381898D01*
X521603Y381514D01*
X521711Y381020D01*
X521619Y380523D01*
X521339Y380102D01*
X520359Y379121D01*
X520359Y373516D01*
G37*
G36*
X276781Y308003D02*
X282019Y308003D01*
X285722Y311706D01*
X285722Y316944D01*
X284312Y318354D01*
X284041Y318756D01*
X283940Y319252D01*
X283940Y363831D01*
X274931Y372840D01*
X205607Y372840D01*
X205130Y372933D01*
X204709Y373212D01*
X201762Y376159D01*
X201491Y376561D01*
X201390Y377057D01*
X201390Y414173D01*
X201483Y414650D01*
X201762Y415071D01*
X203172Y416481D01*
X203172Y421719D01*
X199469Y425422D01*
X194231Y425422D01*
X190528Y421719D01*
X190528Y416481D01*
X191938Y415071D01*
X192209Y414669D01*
X192310Y414173D01*
X192310Y372769D01*
X201319Y363760D01*
X270643Y363760D01*
X271120Y363667D01*
X271541Y363388D01*
X274488Y360441D01*
X274759Y360039D01*
X274860Y359543D01*
X274860Y319252D01*
X274767Y318775D01*
X274488Y318354D01*
X273078Y316944D01*
X273078Y311706D01*
X276781Y308003D01*
G37*
G36*
X89456Y273078D02*
X94694Y273078D01*
X98397Y276781D01*
X98397Y282019D01*
X94694Y285722D01*
X89456Y285722D01*
X88046Y284312D01*
X87644Y284041D01*
X87148Y283940D01*
X81782Y283940D01*
X81305Y284033D01*
X80884Y284312D01*
X77937Y287259D01*
X77666Y287661D01*
X77565Y288157D01*
X77565Y408281D01*
X68556Y417290D01*
X65210Y417290D01*
X64743Y417379D01*
X64319Y417655D01*
X64037Y418074D01*
X63858Y418505D01*
X61000Y421363D01*
X57266Y422910D01*
X37984Y422910D01*
X34250Y421363D01*
X31392Y418505D01*
X29845Y414771D01*
X29845Y410729D01*
X31392Y406995D01*
X34250Y404137D01*
X37984Y402590D01*
X57266Y402590D01*
X61000Y404137D01*
X64036Y407173D01*
X64420Y407436D01*
X64914Y407544D01*
X65411Y407452D01*
X65832Y407173D01*
X68113Y404891D01*
X68384Y404489D01*
X68485Y403993D01*
X68485Y283869D01*
X77494Y274860D01*
X87148Y274860D01*
X87625Y274767D01*
X88046Y274488D01*
X89456Y273078D01*
G37*
G36*
X449047Y369799D02*
X465353Y369799D01*
X466841Y371287D01*
X466841Y383703D01*
X465353Y385191D01*
X462760Y385191D01*
X462302Y385276D01*
X461876Y385549D01*
X461591Y385966D01*
X461490Y386461D01*
X461490Y410748D01*
X461583Y411225D01*
X461862Y411646D01*
X463522Y413306D01*
X463522Y418544D01*
X459819Y422247D01*
X454581Y422247D01*
X450878Y418544D01*
X450878Y413306D01*
X452538Y411646D01*
X452809Y411244D01*
X452910Y410748D01*
X452910Y386461D01*
X452825Y386003D01*
X452552Y385577D01*
X452135Y385292D01*
X451640Y385191D01*
X449047Y385191D01*
X447559Y383703D01*
X447559Y371287D01*
X449047Y369799D01*
G37*
G36*
X521846Y363883D02*
X528955Y363883D01*
X528955Y370976D01*
X520359Y370976D01*
X520359Y365371D01*
X521846Y363883D01*
G37*
G36*
X531495Y363883D02*
X538604Y363883D01*
X540092Y365371D01*
X540092Y370976D01*
X531495Y370976D01*
X531495Y363883D01*
G37*
G36*
X454581Y314353D02*
X459819Y314353D01*
X463522Y318056D01*
X463522Y323294D01*
X461862Y324954D01*
X461591Y325356D01*
X461490Y325852D01*
X461490Y350139D01*
X461575Y350597D01*
X461848Y351023D01*
X462265Y351308D01*
X462760Y351409D01*
X465353Y351409D01*
X466841Y352897D01*
X466841Y365313D01*
X465353Y366801D01*
X449047Y366801D01*
X447559Y365313D01*
X447559Y352897D01*
X449047Y351409D01*
X451640Y351409D01*
X452098Y351324D01*
X452524Y351051D01*
X452809Y350634D01*
X452910Y350139D01*
X452910Y325852D01*
X452817Y325375D01*
X452538Y324954D01*
X450878Y323294D01*
X450878Y318056D01*
X454581Y314353D01*
G37*
G36*
X558684Y329565D02*
X577966Y329565D01*
X581700Y331112D01*
X584558Y333970D01*
X586105Y337704D01*
X586105Y341746D01*
X584558Y345480D01*
X581700Y348338D01*
X577966Y349885D01*
X558684Y349885D01*
X554950Y348338D01*
X552092Y345480D01*
X550545Y341746D01*
X550545Y337704D01*
X552092Y333970D01*
X554950Y331112D01*
X558684Y329565D01*
G37*
G36*
X102000Y299245D02*
X108000Y299245D01*
X113542Y301541D01*
X117784Y305783D01*
X120080Y311325D01*
X120080Y317325D01*
X117784Y322867D01*
X113542Y327109D01*
X108000Y329405D01*
X102000Y329405D01*
X96458Y327109D01*
X92216Y322867D01*
X89920Y317325D01*
X89920Y311325D01*
X92216Y305783D01*
X96458Y301541D01*
X102000Y299245D01*
G37*
G36*
X32000Y299245D02*
X38000Y299245D01*
X43542Y301541D01*
X47784Y305783D01*
X50080Y311325D01*
X50080Y317325D01*
X47784Y322867D01*
X43542Y327109D01*
X38000Y329405D01*
X32000Y329405D01*
X26458Y327109D01*
X22216Y322867D01*
X19920Y317325D01*
X19920Y311325D01*
X22216Y305783D01*
X26458Y301541D01*
X32000Y299245D01*
G37*
G36*
X460931Y254028D02*
X466169Y254028D01*
X469872Y257731D01*
X469872Y262969D01*
X468212Y264629D01*
X467941Y265031D01*
X467840Y265527D01*
X467840Y283447D01*
X467933Y283924D01*
X468212Y284345D01*
X474480Y290613D01*
X474883Y290884D01*
X475378Y290985D01*
X477423Y290985D01*
X477900Y290892D01*
X478321Y290613D01*
X479981Y288953D01*
X485219Y288953D01*
X488922Y292656D01*
X488922Y297894D01*
X485219Y301597D01*
X479981Y301597D01*
X478321Y299937D01*
X477919Y299666D01*
X477423Y299565D01*
X471298Y299565D01*
X459260Y287527D01*
X459260Y265527D01*
X459167Y265050D01*
X458888Y264629D01*
X457228Y262969D01*
X457228Y257731D01*
X460931Y254028D01*
G37*
G36*
X379425Y283845D02*
X385851Y283845D01*
X385851Y290728D01*
X384363Y292216D01*
X379425Y292216D01*
X379425Y283845D01*
G37*
G36*
X370459Y283845D02*
X376885Y283845D01*
X376885Y292216D01*
X371947Y292216D01*
X370459Y290728D01*
X370459Y283845D01*
G37*
G36*
X318327Y262890D02*
X329374Y262890D01*
X337185Y270702D01*
X337185Y281749D01*
X329374Y289560D01*
X318327Y289560D01*
X310515Y281749D01*
X310515Y270702D01*
X318327Y262890D01*
G37*
G36*
X379425Y272934D02*
X384363Y272934D01*
X385851Y274422D01*
X385851Y281305D01*
X379425Y281305D01*
X379425Y272934D01*
G37*
G36*
X371947Y272934D02*
X376885Y272934D01*
X376885Y281305D01*
X370459Y281305D01*
X370459Y274422D01*
X371947Y272934D01*
G37*
G36*
X53446Y190930D02*
X60854Y190930D01*
X67697Y193765D01*
X72935Y199003D01*
X75770Y205846D01*
X75770Y213254D01*
X72935Y220097D01*
X67697Y225335D01*
X60854Y228170D01*
X53446Y228170D01*
X46603Y225335D01*
X41365Y220097D01*
X38530Y213254D01*
X38530Y205846D01*
X41365Y199003D01*
X46603Y193765D01*
X53446Y190930D01*
G37*
G36*
X585470Y201295D02*
X601980Y201295D01*
X601980Y210185D01*
X593609Y210185D01*
X589875Y208638D01*
X587017Y205780D01*
X585470Y202046D01*
X585470Y201295D01*
G37*
G36*
X593609Y189865D02*
X601980Y189865D01*
X601980Y198755D01*
X585470Y198755D01*
X585470Y198004D01*
X587017Y194270D01*
X589875Y191412D01*
X593609Y189865D01*
G37*
G36*
X207202Y145415D02*
X218249Y145415D01*
X226060Y153227D01*
X226060Y164274D01*
X218249Y172085D01*
X207202Y172085D01*
X199390Y164274D01*
X199390Y153227D01*
X207202Y145415D01*
G37*
G36*
X99604Y149670D02*
X116296Y149670D01*
X119633Y151052D01*
X122188Y153607D01*
X123570Y156944D01*
X123570Y160556D01*
X122188Y163893D01*
X119633Y166448D01*
X116296Y167830D01*
X99604Y167830D01*
X96267Y166448D01*
X93712Y163893D01*
X92330Y160556D01*
X92330Y156944D01*
X93712Y153607D01*
X96267Y151052D01*
X99604Y149670D01*
G37*
G36*
X365952Y135890D02*
X376999Y135890D01*
X384810Y143702D01*
X384810Y154749D01*
X376999Y162560D01*
X365952Y162560D01*
X358074Y154683D01*
X358055Y154577D01*
X357782Y154151D01*
X357365Y153866D01*
X356870Y153765D01*
X323082Y153765D01*
X322605Y153858D01*
X322184Y154137D01*
X316206Y160115D01*
X297027Y160115D01*
X296550Y160208D01*
X296129Y160487D01*
X294719Y161897D01*
X289481Y161897D01*
X285778Y158194D01*
X285778Y152956D01*
X289481Y149253D01*
X294719Y149253D01*
X296129Y150663D01*
X296531Y150934D01*
X297027Y151035D01*
X311918Y151035D01*
X312395Y150942D01*
X312816Y150663D01*
X318794Y144685D01*
X356870Y144685D01*
X357328Y144600D01*
X357754Y144327D01*
X358039Y143910D01*
X358067Y143775D01*
X365952Y135890D01*
G37*
G36*
X593609Y139065D02*
X612891Y139065D01*
X616625Y140612D01*
X618826Y142813D01*
X619229Y143084D01*
X619724Y143185D01*
X623689Y143185D01*
X624166Y143092D01*
X624587Y142813D01*
X627827Y139573D01*
X635823Y139573D01*
X641477Y145227D01*
X641477Y153223D01*
X635823Y158877D01*
X627827Y158877D01*
X624587Y155637D01*
X624184Y155366D01*
X623689Y155265D01*
X619724Y155265D01*
X619248Y155358D01*
X618826Y155637D01*
X616625Y157838D01*
X612891Y159385D01*
X593609Y159385D01*
X589875Y157838D01*
X587017Y154980D01*
X585470Y151246D01*
X585470Y147204D01*
X587017Y143470D01*
X589875Y140612D01*
X593609Y139065D01*
G37*
G36*
X109220Y134620D02*
X123570Y134620D01*
X123570Y135156D01*
X122188Y138493D01*
X119633Y141048D01*
X116296Y142430D01*
X109220Y142430D01*
X109220Y134620D01*
G37*
G36*
X92330Y134620D02*
X106680Y134620D01*
X106680Y142430D01*
X99604Y142430D01*
X96267Y141048D01*
X93712Y138493D01*
X92330Y135156D01*
X92330Y134620D01*
G37*
G36*
X593609Y113665D02*
X612891Y113665D01*
X616625Y115212D01*
X618826Y117413D01*
X619229Y117684D01*
X619724Y117785D01*
X623689Y117785D01*
X624166Y117692D01*
X624587Y117413D01*
X627827Y114173D01*
X635823Y114173D01*
X641477Y119827D01*
X641477Y127823D01*
X635823Y133477D01*
X627827Y133477D01*
X624587Y130237D01*
X624184Y129966D01*
X623689Y129865D01*
X619724Y129865D01*
X619248Y129958D01*
X618826Y130237D01*
X616625Y132438D01*
X612891Y133985D01*
X593609Y133985D01*
X589875Y132438D01*
X587017Y129580D01*
X585470Y125846D01*
X585470Y121804D01*
X587017Y118070D01*
X589875Y115212D01*
X593609Y113665D01*
G37*
G36*
X99604Y124270D02*
X106680Y124270D01*
X106680Y132080D01*
X92330Y132080D01*
X92330Y131544D01*
X93712Y128207D01*
X96267Y125652D01*
X99604Y124270D01*
G37*
G36*
X109220Y124270D02*
X116296Y124270D01*
X119633Y125652D01*
X122188Y128207D01*
X123570Y131544D01*
X123570Y132080D01*
X109220Y132080D01*
X109220Y124270D01*
G37*
G36*
X53446Y89330D02*
X60854Y89330D01*
X67697Y92165D01*
X72935Y97403D01*
X75770Y104246D01*
X75770Y111654D01*
X72935Y118497D01*
X67697Y123735D01*
X60854Y126570D01*
X53446Y126570D01*
X46603Y123735D01*
X41365Y118497D01*
X38530Y111654D01*
X38530Y104246D01*
X41365Y97403D01*
X46603Y92165D01*
X53446Y89330D01*
G37*
G36*
X379425Y112395D02*
X385851Y112395D01*
X385851Y119278D01*
X384363Y120766D01*
X379425Y120766D01*
X379425Y112395D01*
G37*
G36*
X370459Y112395D02*
X376885Y112395D01*
X376885Y120766D01*
X371947Y120766D01*
X370459Y119278D01*
X370459Y112395D01*
G37*
G36*
X379425Y101484D02*
X384363Y101484D01*
X385851Y102972D01*
X385851Y109855D01*
X379425Y109855D01*
X379425Y101484D01*
G37*
G36*
X371947Y101484D02*
X376885Y101484D01*
X376885Y109855D01*
X370459Y109855D01*
X370459Y102972D01*
X371947Y101484D01*
G37*
G36*
X593609Y88265D02*
X612891Y88265D01*
X616625Y89812D01*
X618826Y92013D01*
X619229Y92284D01*
X619724Y92385D01*
X623689Y92385D01*
X624166Y92292D01*
X624587Y92013D01*
X627827Y88773D01*
X635823Y88773D01*
X641477Y94427D01*
X641477Y102423D01*
X635823Y108077D01*
X627827Y108077D01*
X624587Y104837D01*
X624184Y104566D01*
X623689Y104465D01*
X619724Y104465D01*
X619248Y104558D01*
X618826Y104837D01*
X616625Y107038D01*
X612891Y108585D01*
X593609Y108585D01*
X589875Y107038D01*
X587017Y104180D01*
X585470Y100446D01*
X585470Y96404D01*
X587017Y92670D01*
X589875Y89812D01*
X593609Y88265D01*
G37*
G36*
X476722Y76084D02*
X489138Y76084D01*
X490626Y77572D01*
X490626Y93878D01*
X489138Y95366D01*
X476722Y95366D01*
X475234Y93878D01*
X475234Y91285D01*
X475149Y90827D01*
X474876Y90401D01*
X474459Y90116D01*
X473964Y90015D01*
X443327Y90015D01*
X442850Y90108D01*
X442429Y90387D01*
X440769Y92047D01*
X435531Y92047D01*
X431828Y88344D01*
X431828Y83106D01*
X435531Y79403D01*
X440769Y79403D01*
X442429Y81063D01*
X442831Y81334D01*
X443327Y81435D01*
X473964Y81435D01*
X474422Y81350D01*
X474848Y81077D01*
X475133Y80660D01*
X475234Y80165D01*
X475234Y77572D01*
X476722Y76084D01*
G37*
G36*
X593609Y62865D02*
X612891Y62865D01*
X616625Y64412D01*
X618826Y66613D01*
X619229Y66884D01*
X619724Y66985D01*
X623689Y66985D01*
X624166Y66892D01*
X624587Y66613D01*
X627827Y63373D01*
X635823Y63373D01*
X641477Y69027D01*
X641477Y77023D01*
X635823Y82677D01*
X627827Y82677D01*
X624587Y79437D01*
X624184Y79166D01*
X623689Y79065D01*
X619724Y79065D01*
X619248Y79158D01*
X618826Y79437D01*
X616625Y81638D01*
X612891Y83185D01*
X593609Y83185D01*
X589875Y81638D01*
X587017Y78780D01*
X585470Y75046D01*
X585470Y71004D01*
X587017Y67270D01*
X589875Y64412D01*
X593609Y62865D01*
G37*
G36*
X36006Y19920D02*
X43994Y19920D01*
X51374Y22977D01*
X57023Y28626D01*
X60080Y36006D01*
X60080Y43994D01*
X57023Y51374D01*
X51374Y57023D01*
X43994Y60080D01*
X36006Y60080D01*
X28626Y57023D01*
X22977Y51374D01*
X19920Y43994D01*
X19920Y36006D01*
X22977Y28626D01*
X28626Y22977D01*
X36006Y19920D01*
G37*
G36*
X365952Y31115D02*
X376999Y31115D01*
X384810Y38927D01*
X384810Y49974D01*
X376999Y57785D01*
X365952Y57785D01*
X358140Y49974D01*
X358140Y38927D01*
X365952Y31115D01*
G37*
G36*
X229427Y27940D02*
X240474Y27940D01*
X248285Y35752D01*
X248285Y46799D01*
X240474Y54610D01*
X229427Y54610D01*
X221615Y46799D01*
X221615Y35752D01*
X229427Y27940D01*
G37*
G36*
X91440Y42545D02*
X103505Y42545D01*
X103505Y54610D01*
X99252Y54610D01*
X91440Y46799D01*
X91440Y42545D01*
G37*
G36*
X106045Y42545D02*
X118110Y42545D01*
X118110Y46799D01*
X110299Y54610D01*
X106045Y54610D01*
X106045Y42545D01*
G37*
G36*
X106045Y27940D02*
X110299Y27940D01*
X118110Y35752D01*
X118110Y40005D01*
X106045Y40005D01*
X106045Y27940D01*
G37*
G36*
X99252Y27940D02*
X103505Y27940D01*
X103505Y40005D01*
X91440Y40005D01*
X91440Y35752D01*
X99252Y27940D01*
G37*
%LPD*%
G36*
X642614Y242766D02*
X642118Y242665D01*
X640381Y242665D01*
X639942Y242743D01*
X639512Y243009D01*
X639220Y243421D01*
X639111Y243915D01*
X639204Y244412D01*
X639483Y244833D01*
X641477Y246827D01*
X641477Y254823D01*
X635823Y260477D01*
X627827Y260477D01*
X624587Y257237D01*
X624184Y256966D01*
X623689Y256865D01*
X619724Y256865D01*
X619248Y256958D01*
X618826Y257237D01*
X616625Y259438D01*
X612891Y260985D01*
X606387Y260985D01*
X605910Y261078D01*
X605489Y261357D01*
X602949Y263897D01*
X602694Y264263D01*
X602577Y264755D01*
X602662Y265253D01*
X602934Y265679D01*
X603351Y265964D01*
X603847Y266065D01*
X612891Y266065D01*
X616625Y267612D01*
X618826Y269813D01*
X619229Y270084D01*
X619724Y270185D01*
X623689Y270185D01*
X624166Y270092D01*
X624587Y269813D01*
X627827Y266573D01*
X635823Y266573D01*
X641477Y272227D01*
X641477Y280223D01*
X635823Y285877D01*
X629892Y285877D01*
X629434Y285962D01*
X629008Y286235D01*
X628723Y286652D01*
X628622Y287147D01*
X628622Y290703D01*
X628707Y291161D01*
X628980Y291587D01*
X629397Y291872D01*
X629892Y291973D01*
X635823Y291973D01*
X638067Y294217D01*
X638433Y294472D01*
X638925Y294588D01*
X639423Y294504D01*
X639849Y294231D01*
X640134Y293814D01*
X640235Y293319D01*
X640235Y287148D01*
X647201Y280182D01*
X647472Y279779D01*
X647573Y279284D01*
X647573Y272227D01*
X653227Y266573D01*
X661223Y266573D01*
X664463Y269813D01*
X664866Y270084D01*
X665361Y270185D01*
X665516Y270185D01*
X665992Y270092D01*
X666414Y269813D01*
X668615Y267612D01*
X672349Y266065D01*
X691631Y266065D01*
X693164Y266700D01*
X693610Y266796D01*
X694108Y266711D01*
X694534Y266439D01*
X694819Y266022D01*
X694920Y265527D01*
X694920Y261523D01*
X694838Y261075D01*
X694569Y260647D01*
X694155Y260358D01*
X693660Y260253D01*
X693164Y260350D01*
X691631Y260985D01*
X672349Y260985D01*
X668615Y259438D01*
X666414Y257237D01*
X666011Y256966D01*
X665516Y256865D01*
X665361Y256865D01*
X664884Y256958D01*
X664463Y257237D01*
X661223Y260477D01*
X653227Y260477D01*
X647573Y254823D01*
X647573Y248120D01*
X647480Y247643D01*
X647201Y247222D01*
X643016Y243037D01*
X642614Y242766D01*
G37*
D10*
X657225Y73025D03*
D11*
X631825Y73025D03*
X657225Y98425D03*
X631825Y98425D03*
X657225Y123825D03*
X631825Y123825D03*
X657225Y149225D03*
X631825Y149225D03*
X657225Y174625D03*
X631825Y174625D03*
X657225Y200025D03*
X631825Y200025D03*
X657225Y225425D03*
X631825Y225425D03*
X657225Y250825D03*
X631825Y250825D03*
X657225Y276225D03*
X631825Y276225D03*
X657225Y301625D03*
X631825Y301625D03*
X657225Y327025D03*
X631825Y327025D03*
X657225Y352425D03*
X631825Y352425D03*
X657225Y377825D03*
X631825Y377825D03*
X631825Y403225D03*
X657225Y403225D03*
X631825Y428625D03*
X657225Y428625D03*
X631825Y454025D03*
X657225Y454025D03*
X657225Y479425D03*
X631825Y479425D03*
X631825Y504825D03*
X657225Y504825D03*
X657225Y530225D03*
X631825Y530225D03*
X657225Y555625D03*
X631825Y555625D03*
D12*
X537337Y415925D02*
X523113Y415925D01*
X523113Y441325D02*
X537337Y441325D01*
D13*
X560705Y339725D02*
X575945Y339725D01*
X575945Y365125D02*
X560705Y365125D01*
X560705Y390525D02*
X575945Y390525D01*
X575945Y415925D02*
X560705Y415925D01*
X560705Y441325D02*
X575945Y441325D01*
X575945Y466725D02*
X560705Y466725D01*
D14*
X114490Y133350D02*
X101410Y133350D01*
X101410Y158750D02*
X114490Y158750D01*
D15*
X57150Y107950D03*
X57150Y209550D03*
D16*
X212725Y158750D03*
D13*
X595630Y73025D02*
X610870Y73025D01*
X610870Y98425D02*
X595630Y98425D01*
X595630Y123825D02*
X610870Y123825D01*
X610870Y149225D02*
X595630Y149225D01*
X595630Y174625D02*
X610870Y174625D01*
X610870Y200025D02*
X595630Y200025D01*
X595630Y225425D02*
X610870Y225425D01*
X610870Y250825D02*
X595630Y250825D01*
X595630Y276225D02*
X610870Y276225D01*
X610870Y301625D02*
X595630Y301625D01*
X595630Y327025D02*
X610870Y327025D01*
X610870Y352425D02*
X595630Y352425D01*
X595630Y377825D02*
X610870Y377825D01*
X610870Y403225D02*
X595630Y403225D01*
X595630Y428625D02*
X610870Y428625D01*
X610870Y454025D02*
X595630Y454025D01*
X595630Y479425D02*
X610870Y479425D01*
X610870Y504825D02*
X595630Y504825D01*
X595630Y530225D02*
X610870Y530225D01*
X610870Y555625D02*
X595630Y555625D01*
X674370Y73025D02*
X689610Y73025D01*
X689610Y98425D02*
X674370Y98425D01*
X674370Y123825D02*
X689610Y123825D01*
X689610Y149225D02*
X674370Y149225D01*
X674370Y174625D02*
X689610Y174625D01*
X689610Y200025D02*
X674370Y200025D01*
X674370Y225425D02*
X689610Y225425D01*
X689610Y250825D02*
X674370Y250825D01*
X674370Y276225D02*
X689610Y276225D01*
X689610Y301625D02*
X674370Y301625D01*
X674370Y327025D02*
X689610Y327025D01*
X689610Y352425D02*
X674370Y352425D01*
X674370Y377825D02*
X689610Y377825D01*
X689610Y403225D02*
X674370Y403225D01*
X674370Y428625D02*
X689610Y428625D01*
X689610Y454025D02*
X674370Y454025D01*
X674370Y479425D02*
X689610Y479425D01*
X689610Y504825D02*
X674370Y504825D01*
X674370Y530225D02*
X689610Y530225D01*
X689610Y555625D02*
X674370Y555625D01*
D12*
X576707Y250190D02*
X562483Y250190D01*
X562483Y275590D02*
X576707Y275590D01*
D17*
X70231Y596646D02*
X50419Y596646D01*
X50419Y546354D02*
X70231Y546354D01*
D13*
X424180Y533400D02*
X439420Y533400D01*
X439420Y508000D02*
X424180Y508000D01*
D12*
X561213Y542925D02*
X575437Y542925D01*
X575437Y568325D02*
X561213Y568325D01*
D13*
X55245Y463550D02*
X40005Y463550D01*
X40005Y438150D02*
X55245Y438150D01*
X55245Y412750D02*
X40005Y412750D01*
D16*
X371475Y215900D03*
X371475Y44450D03*
X323850Y276225D03*
X234950Y41275D03*
X371475Y149225D03*
D18*
X568325Y499246D03*
X568325Y516754D03*
X530225Y372246D03*
X530225Y389754D03*
D16*
X431800Y587375D03*
X104775Y41275D03*
X111125Y463550D03*
D19*
X378155Y282575D03*
X396545Y282575D03*
X378155Y111125D03*
X396545Y111125D03*
X482930Y85725D03*
X501320Y85725D03*
D20*
X457200Y359105D03*
X457200Y377495D03*
D21*
X603250Y28575D03*
X228600Y520700D03*
X168275Y555625D03*
X130175Y504819D03*
D22*
X603250Y200025D02*
X631825Y200025D01*
D21*
X263525Y47625D03*
X279400Y555625D03*
X304800Y555625D03*
X396875Y495300D03*
D22*
X603250Y428625D02*
X631825Y428625D01*
D21*
X365125Y282575D03*
X365125Y257175D03*
X438150Y234950D03*
X438150Y63500D03*
X365125Y111125D03*
X365125Y85725D03*
X384175Y174625D03*
X276225Y177800D03*
X250825Y139700D03*
X196850Y520700D03*
X273050Y386543D03*
X284943Y374650D03*
X473075Y136525D03*
X438150Y22225D03*
X438150Y193675D03*
X384175Y415925D03*
X346075Y374650D03*
X288925Y419100D03*
X165100Y441325D03*
X196850Y431800D03*
X263525Y314325D03*
X238125Y285750D03*
X260350Y409575D03*
X540623Y339471D03*
D23*
X540623Y348996D01*
X530225Y359394D01*
X530225Y372246D01*
D21*
X377825Y606425D03*
X317500Y314325D03*
X177800Y298450D03*
X396875Y50800D03*
X682625Y28575D03*
X644525Y415925D03*
X381000Y330200D03*
X384175Y454025D03*
X133350Y396875D03*
X428625Y288925D03*
X419100Y136525D03*
X396875Y222250D03*
X92075Y292100D03*
X644525Y263525D03*
X666115Y238760D03*
X434975Y136525D03*
D22*
X657225Y250825D02*
X681990Y250825D01*
D23*
X657225Y250825D02*
X644525Y238125D01*
X587375Y238125D01*
X539750Y238125D01*
X438150Y146050D02*
X434975Y142875D01*
X434975Y136525D01*
X438150Y146050D02*
X482600Y146050D01*
X511175Y146050D01*
X520700Y155575D01*
X520700Y231775D01*
X527050Y238125D01*
X539750Y238125D01*
D22*
X495300Y368300D02*
X495300Y441325D01*
X495300Y476250D01*
D21*
X495300Y590550D03*
D22*
X495300Y441325D02*
X530225Y441325D01*
X495300Y476250D02*
X495300Y590550D01*
D21*
X569595Y312420D03*
D22*
X564515Y317500D01*
X527050Y317500D01*
X495300Y349250D02*
X495300Y368300D01*
X495300Y349250D02*
X527050Y317500D01*
X603250Y250825D02*
X631825Y250825D01*
D21*
X447675Y161925D03*
D23*
X466725Y161925D01*
X603250Y250825D02*
X603250Y257175D01*
X596900Y263525D01*
X514350Y263525D01*
X508000Y257175D01*
X508000Y171450D01*
X508000Y168275D01*
X501650Y161925D01*
X466725Y161925D01*
D22*
X657225Y377825D02*
X681990Y377825D01*
D23*
X644525Y390525D02*
X568325Y390525D01*
X644525Y390525D02*
X647700Y387350D01*
X657225Y377825D01*
D22*
X657225Y352425D02*
X681990Y352425D01*
D23*
X644525Y365125D02*
X568325Y365125D01*
X644525Y365125D02*
X657225Y352425D01*
D22*
X530225Y389754D02*
X530225Y415925D01*
X568325Y415925D01*
X657225Y200025D02*
X681990Y200025D01*
X681990Y428625D02*
X657225Y428625D01*
X568325Y516754D02*
X568325Y542925D01*
D23*
X568325Y516754D02*
X638946Y516754D01*
X644525Y511175D01*
X644525Y441325D01*
X657225Y428625D01*
D21*
X415925Y472745D03*
D22*
X415925Y314325D01*
D21*
X307975Y196850D03*
D22*
X307975Y241300D01*
D21*
X238125Y177800D03*
D22*
X238125Y231775D01*
X244475Y238125D01*
X247650Y241300D01*
X307975Y241300D01*
X342900Y241300D01*
X349250Y247650D01*
X349250Y295275D01*
X355600Y301625D01*
X368300Y196850D02*
X307975Y196850D01*
D21*
X403225Y196850D03*
D22*
X368300Y196850D01*
X403225Y196850D02*
X403225Y136525D01*
X403225Y130175D01*
D21*
X403225Y130175D03*
D22*
X431800Y495300D02*
X431800Y508000D01*
X431800Y495300D02*
X415925Y479425D01*
X415925Y472745D01*
D21*
X463550Y41275D03*
X409575Y98425D03*
D23*
X412750Y41275D02*
X463550Y41275D01*
D22*
X403225Y301625D02*
X355600Y301625D01*
X403225Y301625D02*
X409575Y301625D01*
X415925Y307975D01*
X415925Y314325D01*
D21*
X403225Y301625D03*
D23*
X409575Y44450D02*
X412750Y41275D01*
X409575Y44450D02*
X409575Y98425D01*
X79375Y463550D02*
X47625Y463550D01*
X79375Y463550D02*
X82550Y460375D01*
X88900Y454025D01*
X88900Y333375D01*
D21*
X88900Y333375D03*
D23*
X66675Y412750D02*
X47625Y412750D01*
X66675Y412750D02*
X73025Y406400D01*
X73025Y285750D01*
X79375Y279400D01*
X92075Y279400D01*
D21*
X92075Y279400D03*
X149225Y365125D03*
X149225Y396875D03*
D23*
X149225Y365125D01*
X149225Y396875D02*
X149225Y441325D01*
D21*
X149225Y441325D03*
X264795Y351790D03*
D23*
X187960Y351790D01*
X180975Y358775D01*
X180975Y441325D01*
D21*
X180975Y441325D03*
X279400Y314325D03*
D23*
X279400Y361950D01*
X276225Y365125D01*
X273050Y368300D01*
X203200Y368300D01*
X196850Y374650D01*
X196850Y419100D01*
D21*
X196850Y419100D03*
D22*
X603250Y555625D02*
X631825Y555625D01*
X657225Y555625D02*
X681990Y555625D01*
D23*
X657225Y555625D02*
X657225Y581025D01*
X638175Y600075D01*
X631825Y600075D01*
X546100Y600075D01*
X536575Y590550D01*
X527050Y581025D01*
X527050Y539750D01*
D21*
X527050Y539750D03*
D22*
X657225Y530225D02*
X681990Y530225D01*
D23*
X657225Y530225D02*
X644525Y542925D01*
X644525Y577850D01*
X635000Y587375D01*
X552450Y587375D01*
X542925Y577850D01*
X542925Y530225D01*
D21*
X542925Y530225D03*
X238125Y273050D03*
D23*
X295275Y273050D01*
X301625Y428625D02*
X288925Y441325D01*
X288925Y454025D01*
D21*
X288925Y454025D03*
D23*
X301625Y279400D02*
X295275Y273050D01*
X301625Y279400D02*
X301625Y428625D01*
D21*
X314325Y390525D03*
D23*
X400050Y390525D01*
D21*
X400050Y390525D03*
X292100Y155575D03*
D23*
X307975Y155575D01*
X314325Y155575D01*
X320675Y149225D01*
X371475Y149225D01*
D21*
X282575Y139700D03*
D23*
X282575Y19050D01*
X288925Y12700D01*
X647700Y12700D01*
X657225Y22225D01*
X657225Y73025D01*
D22*
X681990Y73025D01*
X631825Y73025D02*
X603250Y73025D01*
X603250Y301625D02*
X631825Y301625D01*
D24*
X543560Y295910D02*
X505460Y295910D01*
X482600Y273050D01*
X482600Y234950D01*
X482600Y225425D01*
X482600Y196850D01*
D21*
X482600Y196850D03*
D24*
X597535Y295910D02*
X603250Y301625D01*
X597535Y295910D02*
X543560Y295910D01*
D22*
X657225Y301625D02*
X681990Y301625D01*
D24*
X492125Y269875D02*
X492125Y225425D01*
X492125Y200025D01*
X454025Y187325D02*
X450850Y190500D01*
D21*
X438150Y209550D03*
D24*
X447675Y209550D01*
X450850Y206375D01*
X450850Y190500D01*
D21*
X492125Y177800D03*
D24*
X492125Y269875D02*
X511175Y288925D01*
X565150Y288925D01*
X615950Y288925D01*
X622300Y288925D01*
D21*
X622300Y288925D03*
D24*
X492125Y200025D02*
X492125Y187325D01*
X492125Y177800D01*
X492125Y187325D02*
X454025Y187325D01*
D22*
X603250Y504825D02*
X631825Y504825D01*
D21*
X457200Y415925D03*
D24*
X457200Y377495D01*
D23*
X438150Y276225D02*
X422275Y276225D01*
X415925Y282575D01*
X396545Y282575D01*
D21*
X438150Y276225D03*
D22*
X603250Y530225D02*
X631825Y530225D01*
X657225Y504825D02*
X681990Y504825D01*
X631825Y479425D02*
X603250Y479425D01*
D21*
X463550Y260350D03*
X482600Y295275D03*
D24*
X473075Y295275D01*
X463550Y285750D01*
X463550Y260350D01*
D22*
X603250Y454025D02*
X631825Y454025D01*
X657225Y327025D02*
X681990Y327025D01*
X631825Y327025D02*
X603250Y327025D01*
X603250Y352425D02*
X631825Y352425D01*
X631825Y377825D02*
X603250Y377825D01*
X603250Y403225D02*
X631825Y403225D01*
X657225Y225425D02*
X681990Y225425D01*
D24*
X641350Y187325D02*
X638175Y187325D01*
X641350Y187325D02*
X644525Y190500D01*
X644525Y212725D01*
X657225Y225425D01*
X546100Y155575D02*
X546100Y92075D01*
X546100Y155575D02*
X546100Y180975D01*
X622300Y187325D02*
X638175Y187325D01*
D21*
X622300Y187325D03*
X546100Y187325D03*
D24*
X546100Y180975D01*
X539750Y85725D02*
X501320Y85725D01*
X539750Y85725D02*
X546100Y92075D01*
D21*
X438150Y104814D03*
D23*
X422275Y104814D01*
D22*
X603250Y225425D02*
X631825Y225425D01*
D24*
X495339Y104814D02*
X438150Y104814D01*
X533400Y139700D02*
X533400Y187325D01*
X527089Y104814D02*
X495339Y104814D01*
X527089Y104814D02*
X533400Y111125D01*
X533400Y139700D01*
X533400Y187325D02*
X533400Y206375D01*
X546100Y225425D02*
X603250Y225425D01*
X546100Y225425D02*
X539750Y225425D01*
X533400Y219075D01*
X533400Y206375D01*
X422275Y104814D02*
X415886Y104814D01*
X409575Y111125D01*
X396545Y111125D01*
D22*
X603250Y174625D02*
X631825Y174625D01*
X657225Y174625D02*
X681990Y174625D01*
X631825Y149225D02*
X603250Y149225D01*
X657225Y149225D02*
X681990Y149225D01*
X631825Y123825D02*
X603250Y123825D01*
X657225Y123825D02*
X681990Y123825D01*
X631825Y98425D02*
X603250Y98425D01*
X657225Y98425D02*
X681990Y98425D01*
X631825Y276225D02*
X603250Y276225D01*
D21*
X558800Y34925D03*
D24*
X558800Y168275D01*
X558800Y203200D01*
X555625Y206375D01*
X549275Y206375D01*
D21*
X549275Y206375D03*
D22*
X657225Y479425D02*
X681990Y479425D01*
X681990Y403225D02*
X657225Y403225D01*
X657225Y276225D02*
X681990Y276225D01*
D21*
X447675Y225425D03*
D24*
X447675Y292100D01*
X457200Y301625D01*
X469900Y314325D01*
X641350Y314325D02*
X644525Y311150D01*
X644525Y301625D01*
X644525Y288925D02*
X657225Y276225D01*
X644525Y288925D02*
X644525Y301625D01*
X508000Y314325D02*
X469900Y314325D01*
X508000Y314325D02*
X518795Y303530D01*
X576580Y303530D02*
X581025Y307975D01*
X576580Y303530D02*
X518795Y303530D01*
X581025Y307975D02*
X587375Y314325D01*
X641350Y314325D01*
D21*
X438150Y85725D03*
D24*
X473075Y85725D01*
X482930Y85725D01*
D21*
X457200Y320675D03*
D24*
X457200Y359105D01*
D22*
X657225Y454025D02*
X681990Y454025D01*
M02*
