G04 EAGLE Gerber RS-274X export*
G75*
%MOMM*%
%FSLAX34Y34*%
%LPD*%
%INTop Copper*%
%IPPOS*%
%AMOC8*
5,1,8,0,0,1.08239X$1,22.5*%
G01*
G04 Define Apertures*
%ADD10R,2.800000X2.400000*%
%ADD11C,1.422400*%
%ADD12P,1.53959X8X112.5*%
%ADD13R,1.420200X1.031200*%
%ADD14R,1.465300X1.164600*%
%ADD15C,1.422400*%
%ADD16C,1.524000*%
%ADD17C,1.308000*%
%ADD18C,3.216000*%
%ADD19P,2.33688X8X22.5*%
%ADD20C,1.981200*%
%ADD21R,1.043100X1.910300*%
%ADD22R,0.897900X1.860300*%
%ADD23R,3.189100X1.860300*%
%ADD24R,0.900000X0.250000*%
%ADD25R,0.250000X0.900000*%
%ADD26R,2.600000X2.600000*%
%ADD27R,1.031200X1.420200*%
%ADD28R,2.000000X2.500000*%
%ADD29R,2.500000X2.000000*%
%ADD30R,1.200000X2.500000*%
%ADD31R,1.164600X1.465300*%
%ADD32R,0.650000X1.525000*%
%ADD33R,1.200000X0.450000*%
%ADD34R,1.462000X0.354800*%
%ADD35R,2.000000X2.000000*%
%ADD36P,0.81872X8X22.5*%
%ADD37C,0.400000*%
%ADD38C,0.700000*%
%ADD39C,0.250000*%
%ADD40C,0.350000*%
%ADD41C,1.000000*%
%ADD42C,0.800000*%
%ADD43C,0.300000*%
%ADD44C,0.600000*%
G36*
X694310Y5159D02*
X693920Y5080D01*
X6080Y5080D01*
X5720Y5147D01*
X5384Y5362D01*
X5159Y5690D01*
X5080Y6080D01*
X5080Y333588D01*
X5142Y333934D01*
X5351Y334272D01*
X5675Y334503D01*
X6064Y334588D01*
X6455Y334515D01*
X6787Y334295D01*
X7757Y333325D01*
X22243Y333325D01*
X24000Y335082D01*
X24000Y362568D01*
X22243Y364325D01*
X7757Y364325D01*
X6787Y363355D01*
X6499Y363154D01*
X6112Y363062D01*
X5720Y363129D01*
X5384Y363344D01*
X5159Y363672D01*
X5080Y364062D01*
X5080Y693920D01*
X5147Y694281D01*
X5362Y694616D01*
X5690Y694841D01*
X6080Y694920D01*
X693920Y694920D01*
X694281Y694853D01*
X694616Y694638D01*
X694841Y694310D01*
X694920Y693920D01*
X694920Y566417D01*
X694856Y566064D01*
X694644Y565727D01*
X694317Y565500D01*
X693928Y565417D01*
X693537Y565493D01*
X691722Y566245D01*
X672258Y566245D01*
X668354Y564628D01*
X666145Y562419D01*
X665843Y562212D01*
X665454Y562127D01*
X665063Y562200D01*
X664731Y562419D01*
X661414Y565737D01*
X653036Y565737D01*
X647113Y559814D01*
X647113Y551436D01*
X653036Y545513D01*
X661414Y545513D01*
X664731Y548831D01*
X665034Y549038D01*
X665422Y549123D01*
X665814Y549050D01*
X666145Y548831D01*
X668354Y546622D01*
X672258Y545005D01*
X691722Y545005D01*
X693537Y545757D01*
X693888Y545832D01*
X694281Y545766D01*
X694616Y545551D01*
X694841Y545223D01*
X694920Y544833D01*
X694920Y541017D01*
X694856Y540664D01*
X694644Y540327D01*
X694317Y540100D01*
X693928Y540017D01*
X693537Y540093D01*
X691722Y540845D01*
X672258Y540845D01*
X668354Y539228D01*
X666145Y537019D01*
X665843Y536812D01*
X665454Y536727D01*
X665063Y536800D01*
X664731Y537019D01*
X661414Y540337D01*
X653036Y540337D01*
X647113Y534414D01*
X647113Y526036D01*
X653036Y520113D01*
X661414Y520113D01*
X664731Y523431D01*
X665034Y523638D01*
X665422Y523723D01*
X665814Y523650D01*
X666145Y523431D01*
X668354Y521222D01*
X672258Y519605D01*
X691722Y519605D01*
X693537Y520357D01*
X693888Y520432D01*
X694281Y520366D01*
X694616Y520151D01*
X694841Y519823D01*
X694920Y519433D01*
X694920Y515617D01*
X694856Y515264D01*
X694644Y514927D01*
X694317Y514700D01*
X693928Y514617D01*
X693537Y514693D01*
X691722Y515445D01*
X672258Y515445D01*
X668354Y513828D01*
X666145Y511619D01*
X665843Y511412D01*
X665454Y511327D01*
X665063Y511400D01*
X664731Y511619D01*
X661414Y514937D01*
X653036Y514937D01*
X647113Y509014D01*
X647113Y501845D01*
X647040Y501469D01*
X646820Y501138D01*
X642850Y497168D01*
X642533Y496954D01*
X642143Y496875D01*
X640590Y496875D01*
X640244Y496937D01*
X639906Y497146D01*
X639675Y497470D01*
X639590Y497859D01*
X639663Y498250D01*
X639883Y498582D01*
X641937Y500636D01*
X641937Y509014D01*
X636014Y514937D01*
X627636Y514937D01*
X622006Y509306D01*
X621710Y509102D01*
X621322Y509013D01*
X620931Y509083D01*
X620597Y509300D01*
X620375Y509630D01*
X619873Y510841D01*
X616886Y513828D01*
X612982Y515445D01*
X593518Y515445D01*
X589614Y513828D01*
X586627Y510841D01*
X586358Y510192D01*
X586153Y509879D01*
X585824Y509654D01*
X585434Y509575D01*
X531407Y509575D01*
X531061Y509637D01*
X530723Y509846D01*
X530492Y510170D01*
X530407Y510559D01*
X530480Y510950D01*
X530700Y511282D01*
X531900Y512482D01*
X532217Y512696D01*
X532607Y512775D01*
X554418Y512775D01*
X566825Y525182D01*
X567142Y525396D01*
X567532Y525475D01*
X585434Y525475D01*
X585802Y525405D01*
X586136Y525188D01*
X586358Y524858D01*
X586627Y524209D01*
X589614Y521222D01*
X593518Y519605D01*
X612982Y519605D01*
X616886Y521222D01*
X619873Y524209D01*
X620375Y525420D01*
X620569Y525721D01*
X620894Y525951D01*
X621282Y526037D01*
X621674Y525964D01*
X622006Y525744D01*
X627636Y520113D01*
X636014Y520113D01*
X641937Y526036D01*
X641937Y534414D01*
X636014Y540337D01*
X627636Y540337D01*
X622006Y534706D01*
X621710Y534502D01*
X621322Y534413D01*
X620931Y534483D01*
X620597Y534700D01*
X620375Y535030D01*
X619873Y536241D01*
X616886Y539228D01*
X612982Y540845D01*
X593518Y540845D01*
X589614Y539228D01*
X586627Y536241D01*
X586358Y535592D01*
X586153Y535279D01*
X585824Y535054D01*
X585434Y534975D01*
X584202Y534975D01*
X583856Y535037D01*
X583518Y535246D01*
X583287Y535570D01*
X583202Y535959D01*
X583275Y536350D01*
X583495Y536682D01*
X584010Y537197D01*
X585549Y540914D01*
X585549Y544936D01*
X584010Y548653D01*
X583745Y548918D01*
X583544Y549206D01*
X583452Y549593D01*
X583519Y549986D01*
X583733Y550321D01*
X584062Y550546D01*
X584452Y550625D01*
X585538Y550625D01*
X585906Y550555D01*
X586239Y550338D01*
X586462Y550008D01*
X586627Y549609D01*
X589614Y546622D01*
X593518Y545005D01*
X612982Y545005D01*
X616886Y546622D01*
X619873Y549609D01*
X620375Y550820D01*
X620569Y551121D01*
X620894Y551351D01*
X621282Y551437D01*
X621674Y551364D01*
X622006Y551144D01*
X627636Y545513D01*
X636014Y545513D01*
X641937Y551436D01*
X641937Y559814D01*
X636014Y565737D01*
X627636Y565737D01*
X622006Y560106D01*
X621710Y559902D01*
X621322Y559813D01*
X620931Y559883D01*
X620597Y560100D01*
X620375Y560430D01*
X619873Y561641D01*
X616886Y564628D01*
X612982Y566245D01*
X593518Y566245D01*
X589614Y564628D01*
X586627Y561641D01*
X586462Y561242D01*
X586256Y560929D01*
X585928Y560704D01*
X585538Y560625D01*
X584452Y560625D01*
X584106Y560687D01*
X583768Y560896D01*
X583537Y561220D01*
X583452Y561609D01*
X583525Y562000D01*
X583745Y562332D01*
X584010Y562597D01*
X585549Y566314D01*
X585549Y570336D01*
X584010Y574053D01*
X581165Y576898D01*
X577448Y578437D01*
X559202Y578437D01*
X555485Y576898D01*
X553705Y575118D01*
X553388Y574904D01*
X552998Y574825D01*
X513057Y574825D01*
X510668Y573835D01*
X455211Y518378D01*
X454952Y518191D01*
X454568Y518087D01*
X454173Y518141D01*
X453831Y518345D01*
X453596Y518666D01*
X453504Y519053D01*
X453571Y519445D01*
X453716Y519821D01*
X453810Y520230D01*
X453850Y520739D01*
X453850Y549240D01*
X453818Y549698D01*
X453728Y550112D01*
X453582Y550509D01*
X453380Y550882D01*
X453129Y551223D01*
X452831Y551524D01*
X452494Y551781D01*
X452124Y551988D01*
X451729Y552141D01*
X451320Y552235D01*
X450811Y552275D01*
X378650Y552275D01*
X378290Y552342D01*
X377954Y552557D01*
X377729Y552885D01*
X377650Y553275D01*
X377650Y565115D01*
X377618Y565573D01*
X377528Y565987D01*
X377382Y566384D01*
X377180Y566757D01*
X376929Y567098D01*
X376631Y567399D01*
X376294Y567656D01*
X375924Y567863D01*
X375529Y568016D01*
X375120Y568110D01*
X374611Y568150D01*
X369125Y568150D01*
X368765Y568217D01*
X368429Y568432D01*
X368204Y568760D01*
X368125Y569150D01*
X368125Y600040D01*
X368093Y600498D01*
X368003Y600912D01*
X367857Y601309D01*
X367655Y601682D01*
X367404Y602023D01*
X367106Y602324D01*
X366769Y602581D01*
X366399Y602788D01*
X366004Y602941D01*
X365595Y603035D01*
X365086Y603075D01*
X346110Y603075D01*
X345652Y603043D01*
X345238Y602953D01*
X344841Y602807D01*
X344468Y602605D01*
X344127Y602354D01*
X343826Y602056D01*
X343569Y601719D01*
X343362Y601349D01*
X343209Y600954D01*
X343115Y600545D01*
X343075Y600036D01*
X343075Y569150D01*
X343008Y568790D01*
X342793Y568454D01*
X342465Y568229D01*
X342075Y568150D01*
X336585Y568150D01*
X336127Y568118D01*
X335713Y568028D01*
X335316Y567882D01*
X334943Y567680D01*
X334602Y567429D01*
X334301Y567131D01*
X334044Y566794D01*
X333837Y566424D01*
X333684Y566029D01*
X333590Y565620D01*
X333550Y565111D01*
X333550Y511210D01*
X333582Y510752D01*
X333672Y510338D01*
X333818Y509941D01*
X334020Y509568D01*
X334272Y509227D01*
X334569Y508926D01*
X334906Y508669D01*
X335276Y508462D01*
X335671Y508309D01*
X336080Y508215D01*
X336589Y508175D01*
X374615Y508175D01*
X375073Y508207D01*
X375487Y508297D01*
X375884Y508443D01*
X376257Y508645D01*
X376598Y508897D01*
X376899Y509194D01*
X377156Y509531D01*
X377363Y509901D01*
X377516Y510296D01*
X377610Y510705D01*
X377650Y511214D01*
X377650Y516700D01*
X377717Y517061D01*
X377932Y517396D01*
X378260Y517621D01*
X378650Y517700D01*
X386648Y517700D01*
X386994Y517638D01*
X387332Y517429D01*
X387563Y517105D01*
X387648Y516716D01*
X387575Y516325D01*
X387355Y515993D01*
X387009Y515646D01*
X387009Y509771D01*
X406742Y509771D01*
X406742Y515646D01*
X406395Y515993D01*
X406194Y516281D01*
X406102Y516668D01*
X406169Y517061D01*
X406384Y517396D01*
X406712Y517621D01*
X407102Y517700D01*
X416447Y517700D01*
X416792Y517638D01*
X417131Y517429D01*
X417361Y517105D01*
X417447Y516716D01*
X417374Y516325D01*
X417154Y515993D01*
X415177Y514016D01*
X413560Y510112D01*
X413560Y505888D01*
X415177Y501984D01*
X418164Y498997D01*
X422068Y497380D01*
X441532Y497380D01*
X445436Y498997D01*
X447646Y501207D01*
X447963Y501421D01*
X448353Y501500D01*
X455318Y501500D01*
X457707Y502490D01*
X516750Y561532D01*
X517067Y561746D01*
X517457Y561825D01*
X524804Y561825D01*
X525150Y561763D01*
X525489Y561554D01*
X525719Y561230D01*
X525804Y560841D01*
X525731Y560450D01*
X525512Y560118D01*
X410925Y445531D01*
X410925Y383485D01*
X410852Y383110D01*
X410632Y382778D01*
X401447Y373593D01*
X401130Y373379D01*
X400740Y373300D01*
X356704Y373300D01*
X353072Y369668D01*
X352755Y369454D01*
X352365Y369375D01*
X332375Y369375D01*
X331999Y369448D01*
X331668Y369668D01*
X326460Y374876D01*
X326259Y375164D01*
X326167Y375551D01*
X326234Y375944D01*
X326448Y376279D01*
X326777Y376504D01*
X327167Y376583D01*
X332375Y376583D01*
X332375Y383946D01*
X323509Y383946D01*
X323509Y380241D01*
X323447Y379896D01*
X323238Y379557D01*
X322913Y379327D01*
X322524Y379241D01*
X322133Y379314D01*
X321801Y379534D01*
X318868Y382468D01*
X318070Y383265D01*
X317863Y383567D01*
X317778Y383956D01*
X317851Y384347D01*
X318070Y384679D01*
X321107Y387716D01*
X321107Y393334D01*
X317944Y396497D01*
X317744Y396785D01*
X317652Y397172D01*
X317719Y397565D01*
X317933Y397900D01*
X318261Y398125D01*
X318651Y398204D01*
X322049Y398204D01*
X322409Y398137D01*
X322744Y397922D01*
X322969Y397594D01*
X323049Y397204D01*
X323049Y395388D01*
X324355Y394082D01*
X324562Y393779D01*
X324648Y393391D01*
X324575Y392999D01*
X324355Y392668D01*
X323509Y391821D01*
X323509Y385946D01*
X343242Y385946D01*
X343242Y391821D01*
X342395Y392668D01*
X342188Y392970D01*
X342102Y393359D01*
X342175Y393750D01*
X342395Y394082D01*
X343702Y395388D01*
X343702Y395395D01*
X343769Y395756D01*
X343983Y396091D01*
X344311Y396316D01*
X344702Y396395D01*
X348361Y396395D01*
X348736Y396322D01*
X349068Y396102D01*
X350431Y394739D01*
X367119Y394739D01*
X368876Y396496D01*
X368876Y409294D01*
X367119Y411051D01*
X366275Y411051D01*
X365915Y411118D01*
X365579Y411333D01*
X365354Y411661D01*
X365275Y412051D01*
X365275Y465245D01*
X365342Y465606D01*
X365557Y465941D01*
X365885Y466166D01*
X366275Y466245D01*
X412420Y466245D01*
X412795Y466172D01*
X413110Y465963D01*
X418734Y465963D01*
X422707Y469936D01*
X422707Y475554D01*
X418734Y479527D01*
X413111Y479527D01*
X412810Y479324D01*
X412420Y479245D01*
X315214Y479245D01*
X314839Y479318D01*
X314507Y479538D01*
X313144Y480901D01*
X312300Y480901D01*
X311940Y480968D01*
X311604Y481183D01*
X311379Y481511D01*
X311300Y481901D01*
X311300Y490243D01*
X310310Y492632D01*
X298957Y503985D01*
X296568Y504975D01*
X157457Y504975D01*
X155068Y503985D01*
X143715Y492632D01*
X142725Y490243D01*
X142725Y481901D01*
X142658Y481541D01*
X142443Y481205D01*
X142115Y480980D01*
X141725Y480901D01*
X140881Y480901D01*
X139124Y479144D01*
X139124Y466346D01*
X140881Y464589D01*
X157569Y464589D01*
X158393Y465413D01*
X158681Y465614D01*
X159068Y465706D01*
X159461Y465639D01*
X159796Y465424D01*
X160021Y465096D01*
X160100Y464706D01*
X160100Y462394D01*
X160038Y462048D01*
X159829Y461710D01*
X159505Y461479D01*
X159116Y461394D01*
X158725Y461467D01*
X158393Y461687D01*
X157569Y462511D01*
X140881Y462511D01*
X139124Y460754D01*
X139124Y447956D01*
X140881Y446199D01*
X142094Y446199D01*
X142439Y446137D01*
X142778Y445928D01*
X143008Y445604D01*
X143093Y445215D01*
X143021Y444824D01*
X142801Y444492D01*
X142443Y444134D01*
X142443Y438516D01*
X146416Y434543D01*
X152034Y434543D01*
X156007Y438516D01*
X156007Y444134D01*
X155649Y444492D01*
X155449Y444780D01*
X155357Y445167D01*
X155424Y445560D01*
X155638Y445895D01*
X155966Y446120D01*
X156356Y446199D01*
X157569Y446199D01*
X159326Y447956D01*
X159326Y448355D01*
X159393Y448716D01*
X159608Y449051D01*
X159936Y449276D01*
X160326Y449355D01*
X164326Y449355D01*
X169167Y454196D01*
X169455Y454397D01*
X169842Y454488D01*
X170235Y454421D01*
X170570Y454207D01*
X170795Y453879D01*
X170874Y453489D01*
X170874Y447956D01*
X172631Y446199D01*
X173844Y446199D01*
X174189Y446137D01*
X174528Y445928D01*
X174758Y445604D01*
X174843Y445215D01*
X174771Y444824D01*
X174551Y444492D01*
X174193Y444134D01*
X174193Y438516D01*
X178166Y434543D01*
X183784Y434543D01*
X187757Y438516D01*
X187757Y444134D01*
X187399Y444492D01*
X187199Y444780D01*
X187107Y445167D01*
X187174Y445560D01*
X187388Y445895D01*
X187716Y446120D01*
X188106Y446199D01*
X189319Y446199D01*
X191076Y447956D01*
X191076Y448355D01*
X191143Y448716D01*
X191358Y449051D01*
X191686Y449276D01*
X192076Y449355D01*
X205126Y449355D01*
X205487Y449288D01*
X205822Y449073D01*
X206047Y448745D01*
X206126Y448355D01*
X206126Y447956D01*
X206899Y447184D01*
X207106Y446881D01*
X207191Y446493D01*
X207118Y446101D01*
X206899Y445770D01*
X205574Y444445D01*
X205574Y430313D01*
X206555Y429332D01*
X206762Y429030D01*
X206848Y428641D01*
X206775Y428250D01*
X206555Y427918D01*
X205574Y426937D01*
X205574Y425100D01*
X205506Y424740D01*
X205292Y424404D01*
X204964Y424179D01*
X204574Y424100D01*
X201855Y424100D01*
X201480Y424173D01*
X201148Y424393D01*
X199659Y425882D01*
X194041Y425882D01*
X190068Y421909D01*
X190068Y416317D01*
X190006Y415972D01*
X189797Y415633D01*
X189473Y415403D01*
X189084Y415317D01*
X188693Y415390D01*
X188361Y415610D01*
X186221Y417750D01*
X128104Y417750D01*
X115650Y405296D01*
X115650Y361260D01*
X115577Y360885D01*
X115357Y360553D01*
X109347Y354543D01*
X109030Y354329D01*
X108640Y354250D01*
X57000Y354250D01*
X56640Y354317D01*
X56304Y354532D01*
X56079Y354860D01*
X56000Y355250D01*
X56000Y362568D01*
X54243Y364325D01*
X47275Y364325D01*
X46915Y364392D01*
X46579Y364607D01*
X46354Y364935D01*
X46275Y365325D01*
X46275Y373546D01*
X24343Y395478D01*
X24129Y395795D01*
X24050Y396185D01*
X24050Y429315D01*
X24123Y429690D01*
X24343Y430022D01*
X27178Y432857D01*
X27495Y433071D01*
X27885Y433150D01*
X29913Y433150D01*
X30281Y433080D01*
X30614Y432863D01*
X30837Y432533D01*
X31002Y432134D01*
X33989Y429147D01*
X37893Y427530D01*
X57357Y427530D01*
X61261Y429147D01*
X64248Y432134D01*
X65865Y436038D01*
X65865Y440262D01*
X64248Y444166D01*
X61261Y447153D01*
X57357Y448770D01*
X37893Y448770D01*
X33989Y447153D01*
X31002Y444166D01*
X30837Y443767D01*
X30631Y443454D01*
X30303Y443229D01*
X29913Y443150D01*
X23329Y443150D01*
X14050Y433871D01*
X14050Y391629D01*
X35982Y369697D01*
X36196Y369380D01*
X36275Y368990D01*
X36275Y365325D01*
X36208Y364965D01*
X35993Y364629D01*
X35665Y364404D01*
X35275Y364325D01*
X31757Y364325D01*
X30000Y362568D01*
X30000Y335082D01*
X31757Y333325D01*
X54243Y333325D01*
X56000Y335082D01*
X56000Y343250D01*
X56067Y343611D01*
X56282Y343946D01*
X56610Y344171D01*
X57000Y344250D01*
X113196Y344250D01*
X125650Y356704D01*
X125650Y400740D01*
X125723Y401115D01*
X125943Y401447D01*
X131953Y407457D01*
X132270Y407671D01*
X132660Y407750D01*
X160566Y407750D01*
X160912Y407688D01*
X161250Y407479D01*
X161481Y407155D01*
X161566Y406766D01*
X161493Y406375D01*
X161273Y406043D01*
X160449Y405219D01*
X160449Y402875D01*
X160382Y402515D01*
X160167Y402179D01*
X159839Y401954D01*
X159449Y401875D01*
X154230Y401875D01*
X153855Y401948D01*
X153523Y402168D01*
X152034Y403657D01*
X146416Y403657D01*
X142443Y399684D01*
X142443Y394066D01*
X146416Y390093D01*
X152034Y390093D01*
X153523Y391582D01*
X153840Y391796D01*
X154230Y391875D01*
X159449Y391875D01*
X159810Y391808D01*
X160145Y391593D01*
X160370Y391265D01*
X160449Y390875D01*
X160449Y388531D01*
X162206Y386774D01*
X175004Y386774D01*
X176761Y388531D01*
X176761Y405219D01*
X175937Y406043D01*
X175736Y406331D01*
X175644Y406718D01*
X175711Y407111D01*
X175926Y407446D01*
X176254Y407671D01*
X176644Y407750D01*
X178956Y407750D01*
X179302Y407688D01*
X179640Y407479D01*
X179871Y407155D01*
X179956Y406766D01*
X179883Y406375D01*
X179663Y406043D01*
X178839Y405219D01*
X178839Y388531D01*
X180596Y386774D01*
X193394Y386774D01*
X194555Y387936D01*
X194858Y388143D01*
X195247Y388229D01*
X195638Y388156D01*
X195970Y387936D01*
X197131Y386774D01*
X209929Y386774D01*
X211686Y388531D01*
X211686Y405219D01*
X209929Y406976D01*
X197131Y406976D01*
X195970Y405814D01*
X195667Y405607D01*
X195278Y405521D01*
X194887Y405594D01*
X194555Y405814D01*
X193394Y406976D01*
X193325Y406976D01*
X192965Y407043D01*
X192629Y407258D01*
X192404Y407586D01*
X192325Y407976D01*
X192325Y411620D01*
X192387Y411965D01*
X192596Y412304D01*
X192920Y412534D01*
X193309Y412619D01*
X193700Y412547D01*
X194032Y412327D01*
X194041Y412318D01*
X199659Y412318D01*
X201148Y413807D01*
X201465Y414021D01*
X201855Y414100D01*
X204574Y414100D01*
X204934Y414033D01*
X205269Y413818D01*
X205494Y413490D01*
X205574Y413100D01*
X205574Y412805D01*
X207331Y411048D01*
X224469Y411048D01*
X226227Y412805D01*
X226227Y426937D01*
X225245Y427918D01*
X225038Y428220D01*
X224952Y428609D01*
X225025Y429000D01*
X225245Y429332D01*
X226227Y430313D01*
X226227Y444445D01*
X225229Y445443D01*
X225021Y445745D01*
X224936Y446134D01*
X225009Y446525D01*
X225229Y446857D01*
X226328Y447956D01*
X226328Y460754D01*
X224571Y462511D01*
X207883Y462511D01*
X206126Y460754D01*
X206126Y460355D01*
X206059Y459995D01*
X205844Y459659D01*
X205516Y459434D01*
X205126Y459355D01*
X192076Y459355D01*
X191716Y459422D01*
X191380Y459637D01*
X191155Y459965D01*
X191076Y460355D01*
X191076Y460754D01*
X189319Y462511D01*
X172631Y462511D01*
X171807Y461687D01*
X171519Y461486D01*
X171132Y461394D01*
X170740Y461461D01*
X170404Y461676D01*
X170179Y462004D01*
X170100Y462394D01*
X170100Y464706D01*
X170162Y465052D01*
X170371Y465390D01*
X170695Y465621D01*
X171084Y465706D01*
X171475Y465633D01*
X171807Y465413D01*
X172631Y464589D01*
X189319Y464589D01*
X191076Y466346D01*
X191076Y479144D01*
X189319Y480901D01*
X172631Y480901D01*
X170874Y479144D01*
X170874Y478745D01*
X170807Y478385D01*
X170592Y478049D01*
X170264Y477824D01*
X169874Y477745D01*
X165874Y477745D01*
X161033Y472904D01*
X160745Y472703D01*
X160358Y472612D01*
X159966Y472679D01*
X159630Y472893D01*
X159405Y473221D01*
X159326Y473611D01*
X159326Y479144D01*
X157569Y480901D01*
X156725Y480901D01*
X156365Y480968D01*
X156029Y481183D01*
X155804Y481511D01*
X155725Y481901D01*
X155725Y485843D01*
X155798Y486219D01*
X156018Y486551D01*
X161150Y491682D01*
X161467Y491896D01*
X161857Y491975D01*
X292168Y491975D01*
X292544Y491902D01*
X292876Y491682D01*
X298007Y486551D01*
X298221Y486233D01*
X298300Y485843D01*
X298300Y481901D01*
X298233Y481541D01*
X298018Y481205D01*
X297690Y480980D01*
X297300Y480901D01*
X296456Y480901D01*
X294699Y479144D01*
X294699Y466346D01*
X296456Y464589D01*
X313144Y464589D01*
X314507Y465952D01*
X314824Y466166D01*
X315214Y466245D01*
X351275Y466245D01*
X351636Y466178D01*
X351971Y465963D01*
X352196Y465635D01*
X352275Y465245D01*
X352275Y412051D01*
X352208Y411691D01*
X351993Y411355D01*
X351665Y411130D01*
X351275Y411051D01*
X350431Y411051D01*
X349068Y409688D01*
X348751Y409474D01*
X348361Y409395D01*
X344240Y409395D01*
X343865Y409468D01*
X343533Y409688D01*
X342440Y410781D01*
X342233Y411083D01*
X342148Y411472D01*
X342221Y411863D01*
X342441Y412195D01*
X343242Y412996D01*
X343242Y418871D01*
X323509Y418871D01*
X323509Y412996D01*
X324310Y412195D01*
X324517Y411892D01*
X324602Y411504D01*
X324529Y411112D01*
X324310Y410781D01*
X323049Y409520D01*
X323049Y407704D01*
X322981Y407344D01*
X322767Y407008D01*
X322439Y406783D01*
X322049Y406704D01*
X303700Y406704D01*
X303340Y406771D01*
X303004Y406986D01*
X302779Y407314D01*
X302700Y407704D01*
X302700Y408160D01*
X300834Y410027D01*
X300633Y410315D01*
X300541Y410702D01*
X300608Y411095D01*
X300822Y411430D01*
X301151Y411655D01*
X301541Y411734D01*
X303800Y411734D01*
X303800Y418430D01*
X295159Y418430D01*
X295159Y414825D01*
X295092Y414465D01*
X294877Y414129D01*
X294549Y413904D01*
X294159Y413825D01*
X285815Y413825D01*
X285357Y413368D01*
X285069Y413167D01*
X284682Y413075D01*
X284290Y413142D01*
X283954Y413356D01*
X283729Y413685D01*
X283650Y414075D01*
X283650Y429625D01*
X283723Y430001D01*
X283943Y430332D01*
X286888Y433277D01*
X287205Y433491D01*
X287595Y433570D01*
X293699Y433570D01*
X294060Y433503D01*
X294395Y433288D01*
X294620Y432960D01*
X294699Y432570D01*
X294699Y431421D01*
X296456Y429664D01*
X313144Y429664D01*
X314901Y431421D01*
X314901Y431820D01*
X314968Y432181D01*
X315183Y432516D01*
X315511Y432741D01*
X315901Y432820D01*
X322049Y432820D01*
X322409Y432753D01*
X322744Y432538D01*
X322969Y432210D01*
X323049Y431820D01*
X323049Y430313D01*
X324355Y429007D01*
X324562Y428704D01*
X324648Y428316D01*
X324575Y427924D01*
X324355Y427593D01*
X323509Y426746D01*
X323509Y420871D01*
X343242Y420871D01*
X343242Y426746D01*
X342395Y427593D01*
X342188Y427895D01*
X342102Y428284D01*
X342175Y428675D01*
X342395Y429007D01*
X343702Y430313D01*
X343702Y444445D01*
X341944Y446202D01*
X324806Y446202D01*
X323049Y444445D01*
X323049Y443820D01*
X322981Y443460D01*
X322767Y443124D01*
X322439Y442899D01*
X322049Y442820D01*
X315901Y442820D01*
X315541Y442887D01*
X315205Y443102D01*
X314980Y443430D01*
X314901Y443820D01*
X314901Y444219D01*
X313739Y445380D01*
X313532Y445683D01*
X313446Y446072D01*
X313519Y446463D01*
X313739Y446795D01*
X314901Y447956D01*
X314901Y460754D01*
X313144Y462511D01*
X296456Y462511D01*
X294699Y460754D01*
X294699Y460256D01*
X294637Y459911D01*
X294428Y459572D01*
X294104Y459342D01*
X293715Y459257D01*
X293324Y459330D01*
X292992Y459549D01*
X291734Y460807D01*
X286116Y460807D01*
X284858Y459549D01*
X284570Y459349D01*
X284183Y459257D01*
X283791Y459324D01*
X283455Y459538D01*
X283230Y459866D01*
X283151Y460256D01*
X283151Y460754D01*
X281394Y462511D01*
X264706Y462511D01*
X262949Y460754D01*
X262949Y447956D01*
X264706Y446199D01*
X269150Y446199D01*
X269511Y446132D01*
X269846Y445917D01*
X270071Y445589D01*
X270150Y445199D01*
X270150Y439950D01*
X270088Y439604D01*
X269879Y439265D01*
X269555Y439035D01*
X269166Y438950D01*
X268775Y439023D01*
X268443Y439243D01*
X266056Y441629D01*
X255802Y441629D01*
X255441Y441696D01*
X255106Y441911D01*
X254881Y442239D01*
X254802Y442629D01*
X254802Y444445D01*
X253640Y445606D01*
X253433Y445909D01*
X253347Y446297D01*
X253420Y446689D01*
X253640Y447020D01*
X254576Y447956D01*
X254576Y460754D01*
X252819Y462511D01*
X236131Y462511D01*
X234374Y460754D01*
X234374Y447956D01*
X235310Y447020D01*
X235517Y446718D01*
X235603Y446329D01*
X235530Y445938D01*
X235310Y445606D01*
X234149Y444445D01*
X234149Y430313D01*
X235130Y429332D01*
X235337Y429030D01*
X235423Y428641D01*
X235350Y428250D01*
X235130Y427918D01*
X234149Y426937D01*
X234149Y412805D01*
X235906Y411048D01*
X239225Y411048D01*
X239586Y410981D01*
X239921Y410766D01*
X240146Y410438D01*
X240225Y410048D01*
X240225Y396850D01*
X240163Y396504D01*
X239954Y396165D01*
X239630Y395935D01*
X239241Y395850D01*
X238850Y395923D01*
X238518Y396143D01*
X233535Y401125D01*
X231076Y401125D01*
X230716Y401192D01*
X230380Y401407D01*
X230155Y401735D01*
X230076Y402125D01*
X230076Y405219D01*
X228319Y406976D01*
X215521Y406976D01*
X213764Y405219D01*
X213764Y388531D01*
X215521Y386774D01*
X222774Y386774D01*
X223120Y386712D01*
X223459Y386503D01*
X223689Y386179D01*
X223774Y385790D01*
X223701Y385399D01*
X223481Y385067D01*
X217670Y379255D01*
X217670Y376226D01*
X217603Y375866D01*
X217388Y375530D01*
X217060Y375305D01*
X216670Y375226D01*
X215521Y375226D01*
X213764Y373469D01*
X213764Y356781D01*
X215521Y355024D01*
X222774Y355024D01*
X223120Y354962D01*
X223459Y354753D01*
X223689Y354429D01*
X223774Y354040D01*
X223701Y353649D01*
X223481Y353317D01*
X217670Y347505D01*
X217670Y341301D01*
X217603Y340941D01*
X217388Y340605D01*
X217060Y340380D01*
X216670Y340301D01*
X215521Y340301D01*
X213764Y338544D01*
X213764Y321856D01*
X215521Y320099D01*
X228319Y320099D01*
X230076Y321856D01*
X230076Y338544D01*
X228319Y340301D01*
X227170Y340301D01*
X226810Y340368D01*
X226474Y340583D01*
X226249Y340911D01*
X226170Y341301D01*
X226170Y343570D01*
X226243Y343946D01*
X226463Y344277D01*
X227664Y345478D01*
X227981Y345692D01*
X228371Y345771D01*
X229974Y345771D01*
X230334Y345704D01*
X230669Y345489D01*
X230894Y345161D01*
X230974Y344771D01*
X230974Y342955D01*
X232731Y341198D01*
X242788Y341198D01*
X243133Y341136D01*
X243472Y340927D01*
X243702Y340603D01*
X243788Y340214D01*
X243715Y339823D01*
X243495Y339491D01*
X242773Y338769D01*
X242773Y321631D01*
X244530Y319874D01*
X245596Y319874D01*
X245957Y319806D01*
X246292Y319592D01*
X246517Y319264D01*
X246596Y318874D01*
X246596Y309551D01*
X246529Y309191D01*
X246314Y308855D01*
X245986Y308630D01*
X245596Y308551D01*
X244756Y308551D01*
X242999Y306794D01*
X242999Y290106D01*
X244756Y288349D01*
X257554Y288349D01*
X259311Y290106D01*
X259311Y306794D01*
X257544Y308561D01*
X257236Y308618D01*
X256900Y308833D01*
X256675Y309161D01*
X256596Y309551D01*
X256596Y318874D01*
X256663Y319234D01*
X256878Y319569D01*
X257206Y319794D01*
X257596Y319874D01*
X258662Y319874D01*
X259643Y320855D01*
X259945Y321062D01*
X260334Y321148D01*
X260725Y321075D01*
X261057Y320855D01*
X262038Y319874D01*
X272943Y319874D01*
X273289Y319812D01*
X273627Y319603D01*
X273858Y319278D01*
X273943Y318889D01*
X273870Y318498D01*
X273650Y318166D01*
X272618Y317134D01*
X272618Y311516D01*
X273876Y310258D01*
X274077Y309970D01*
X274168Y309583D01*
X274101Y309191D01*
X273887Y308855D01*
X273559Y308630D01*
X273169Y308551D01*
X263146Y308551D01*
X261389Y306794D01*
X261389Y290106D01*
X263146Y288349D01*
X263875Y288349D01*
X264236Y288282D01*
X264571Y288067D01*
X264796Y287739D01*
X264875Y287349D01*
X264875Y284151D01*
X264808Y283791D01*
X264593Y283455D01*
X264265Y283230D01*
X263875Y283151D01*
X263146Y283151D01*
X261389Y281394D01*
X261389Y264706D01*
X263146Y262949D01*
X275944Y262949D01*
X277701Y264706D01*
X277701Y281394D01*
X275944Y283151D01*
X275875Y283151D01*
X275515Y283218D01*
X275179Y283433D01*
X274954Y283761D01*
X274875Y284151D01*
X274875Y287349D01*
X274942Y287710D01*
X275157Y288045D01*
X275485Y288270D01*
X275875Y288349D01*
X275944Y288349D01*
X276880Y289285D01*
X277182Y289492D01*
X277571Y289578D01*
X277962Y289505D01*
X278294Y289285D01*
X279455Y288124D01*
X293587Y288124D01*
X294568Y289105D01*
X294870Y289312D01*
X295259Y289398D01*
X295650Y289325D01*
X295982Y289105D01*
X296963Y288124D01*
X311095Y288124D01*
X312852Y289881D01*
X312852Y292450D01*
X312919Y292811D01*
X313134Y293146D01*
X313462Y293371D01*
X313852Y293450D01*
X317850Y293450D01*
X318211Y293383D01*
X318546Y293168D01*
X318771Y292840D01*
X318850Y292450D01*
X318850Y291020D01*
X318783Y290660D01*
X318568Y290324D01*
X318240Y290099D01*
X318209Y290093D01*
X310055Y281939D01*
X310055Y270511D01*
X318201Y262364D01*
X318211Y262363D01*
X318546Y262148D01*
X318771Y261820D01*
X318850Y261430D01*
X318850Y155225D01*
X318783Y154865D01*
X318568Y154529D01*
X318240Y154304D01*
X317850Y154225D01*
X317500Y154225D01*
X317140Y154292D01*
X316804Y154507D01*
X316579Y154835D01*
X316500Y155225D01*
X316500Y159293D01*
X314743Y161050D01*
X313500Y161050D01*
X313140Y161117D01*
X312804Y161332D01*
X312579Y161660D01*
X312500Y162050D01*
X312500Y166474D01*
X312567Y166834D01*
X312782Y167169D01*
X313110Y167394D01*
X313500Y167474D01*
X314270Y167474D01*
X316027Y169231D01*
X316027Y186369D01*
X314768Y187628D01*
X314554Y187945D01*
X314475Y188335D01*
X314475Y193345D01*
X314548Y193720D01*
X314757Y194035D01*
X314757Y199659D01*
X310784Y203632D01*
X305166Y203632D01*
X301193Y199659D01*
X301193Y194036D01*
X301396Y193735D01*
X301475Y193345D01*
X301475Y189127D01*
X301408Y188766D01*
X301193Y188431D01*
X300865Y188206D01*
X300475Y188127D01*
X300138Y188127D01*
X298832Y186820D01*
X298529Y186613D01*
X298141Y186527D01*
X297749Y186600D01*
X297418Y186820D01*
X296571Y187667D01*
X290696Y187667D01*
X290696Y167934D01*
X296571Y167934D01*
X297418Y168780D01*
X297720Y168987D01*
X298109Y169073D01*
X298500Y169000D01*
X298832Y168780D01*
X300138Y167474D01*
X301500Y167474D01*
X301861Y167406D01*
X302196Y167192D01*
X302421Y166864D01*
X302500Y166474D01*
X302500Y162050D01*
X302433Y161690D01*
X302218Y161354D01*
X301890Y161129D01*
X301500Y161050D01*
X300257Y161050D01*
X298944Y159737D01*
X298641Y159529D01*
X298253Y159444D01*
X297861Y159517D01*
X297530Y159737D01*
X294909Y162357D01*
X289291Y162357D01*
X287802Y160868D01*
X287485Y160654D01*
X287095Y160575D01*
X272132Y160575D01*
X271757Y160648D01*
X271425Y160868D01*
X271243Y161050D01*
X256757Y161050D01*
X255000Y159293D01*
X255000Y145807D01*
X255167Y145640D01*
X255381Y145323D01*
X255460Y144933D01*
X255460Y143800D01*
X272697Y143800D01*
X272822Y143996D01*
X273150Y144221D01*
X273540Y144300D01*
X275170Y144300D01*
X275515Y144238D01*
X275854Y144029D01*
X276084Y143705D01*
X276169Y143316D01*
X276097Y142925D01*
X275877Y142593D01*
X275793Y142509D01*
X275793Y136891D01*
X279766Y132918D01*
X285384Y132918D01*
X285393Y132927D01*
X285681Y133128D01*
X286068Y133219D01*
X286461Y133152D01*
X286796Y132938D01*
X287021Y132610D01*
X287100Y132220D01*
X287100Y101250D01*
X287033Y100890D01*
X286818Y100554D01*
X286490Y100329D01*
X286100Y100250D01*
X274626Y100250D01*
X274266Y100317D01*
X273930Y100532D01*
X273705Y100860D01*
X273626Y101250D01*
X273626Y101979D01*
X271869Y103736D01*
X255181Y103736D01*
X253818Y102373D01*
X253501Y102159D01*
X253111Y102080D01*
X224052Y102080D01*
X223691Y102147D01*
X223356Y102362D01*
X223131Y102690D01*
X223052Y103080D01*
X223052Y103087D01*
X222070Y104068D01*
X221863Y104370D01*
X221777Y104759D01*
X221850Y105150D01*
X222070Y105482D01*
X223052Y106463D01*
X223052Y120595D01*
X221294Y122352D01*
X220725Y122352D01*
X220365Y122419D01*
X220029Y122634D01*
X219804Y122962D01*
X219725Y123352D01*
X219725Y145827D01*
X219798Y146202D01*
X220018Y146534D01*
X226520Y153036D01*
X226520Y164464D01*
X218439Y172545D01*
X207011Y172545D01*
X200509Y166043D01*
X200192Y165829D01*
X199802Y165750D01*
X121396Y165750D01*
X121021Y165823D01*
X120689Y166043D01*
X119894Y166838D01*
X116388Y168290D01*
X99512Y168290D01*
X96006Y166838D01*
X93322Y164154D01*
X91870Y160648D01*
X91870Y156852D01*
X93322Y153346D01*
X96006Y150662D01*
X99512Y149210D01*
X116388Y149210D01*
X119894Y150662D01*
X120689Y151457D01*
X121006Y151671D01*
X121396Y151750D01*
X199802Y151750D01*
X200177Y151677D01*
X200509Y151457D01*
X205432Y146534D01*
X205646Y146217D01*
X205725Y145827D01*
X205725Y123352D01*
X205658Y122992D01*
X205443Y122656D01*
X205115Y122431D01*
X204725Y122352D01*
X204156Y122352D01*
X202399Y120595D01*
X202399Y106463D01*
X203380Y105482D01*
X203587Y105180D01*
X203673Y104791D01*
X203600Y104400D01*
X203380Y104068D01*
X202399Y103087D01*
X202399Y88955D01*
X204156Y87198D01*
X204725Y87198D01*
X205086Y87131D01*
X205421Y86916D01*
X205646Y86588D01*
X205725Y86198D01*
X205725Y46233D01*
X206791Y43660D01*
X215110Y35341D01*
X217683Y34275D01*
X222027Y34275D01*
X222402Y34202D01*
X222734Y33982D01*
X229236Y27480D01*
X240664Y27480D01*
X248745Y35561D01*
X248745Y46989D01*
X240664Y55070D01*
X229236Y55070D01*
X222915Y48749D01*
X222612Y48542D01*
X222224Y48456D01*
X221832Y48529D01*
X221501Y48749D01*
X220018Y50232D01*
X219804Y50549D01*
X219725Y50939D01*
X219725Y86198D01*
X219792Y86559D01*
X220007Y86894D01*
X220335Y87119D01*
X220725Y87198D01*
X221294Y87198D01*
X222883Y88787D01*
X223200Y89001D01*
X223590Y89080D01*
X253111Y89080D01*
X253486Y89007D01*
X253818Y88787D01*
X254586Y88020D01*
X254793Y87717D01*
X254879Y87328D01*
X254806Y86937D01*
X254586Y86605D01*
X253424Y85444D01*
X253424Y72646D01*
X255181Y70889D01*
X271869Y70889D01*
X273626Y72646D01*
X273626Y85444D01*
X272464Y86605D01*
X272257Y86908D01*
X272171Y87297D01*
X272244Y87688D01*
X272464Y88020D01*
X273626Y89181D01*
X273626Y89250D01*
X273693Y89611D01*
X273908Y89946D01*
X274236Y90171D01*
X274626Y90250D01*
X290996Y90250D01*
X297100Y96354D01*
X297100Y131793D01*
X297162Y132139D01*
X297371Y132477D01*
X297695Y132708D01*
X298084Y132793D01*
X298475Y132720D01*
X298807Y132500D01*
X300257Y131050D01*
X301975Y131050D01*
X302336Y130983D01*
X302671Y130768D01*
X302896Y130440D01*
X302975Y130050D01*
X302975Y16979D01*
X312254Y7700D01*
X624371Y7700D01*
X636825Y20154D01*
X636825Y63310D01*
X636898Y63686D01*
X637118Y64017D01*
X641937Y68836D01*
X641937Y77214D01*
X639883Y79268D01*
X639682Y79556D01*
X639590Y79943D01*
X639657Y80336D01*
X639871Y80671D01*
X640200Y80896D01*
X640590Y80975D01*
X646493Y80975D01*
X653538Y88020D01*
X653855Y88234D01*
X654245Y88313D01*
X661414Y88313D01*
X664731Y91631D01*
X665034Y91838D01*
X665422Y91923D01*
X665814Y91850D01*
X666145Y91631D01*
X668354Y89422D01*
X672258Y87805D01*
X691722Y87805D01*
X693537Y88557D01*
X693888Y88632D01*
X694281Y88566D01*
X694616Y88351D01*
X694841Y88023D01*
X694920Y87633D01*
X694920Y83817D01*
X694856Y83464D01*
X694644Y83127D01*
X694317Y82900D01*
X693928Y82817D01*
X693537Y82893D01*
X691722Y83645D01*
X672258Y83645D01*
X668354Y82028D01*
X666145Y79819D01*
X665843Y79612D01*
X665454Y79527D01*
X665063Y79600D01*
X664731Y79819D01*
X662953Y81598D01*
X659236Y83137D01*
X655214Y83137D01*
X651497Y81598D01*
X648652Y78753D01*
X647113Y75036D01*
X647113Y71014D01*
X648652Y67297D01*
X651497Y64452D01*
X655214Y62913D01*
X659236Y62913D01*
X662953Y64452D01*
X664731Y66231D01*
X665034Y66438D01*
X665422Y66523D01*
X665814Y66450D01*
X666145Y66231D01*
X668354Y64022D01*
X672258Y62405D01*
X691722Y62405D01*
X693537Y63157D01*
X693888Y63232D01*
X694281Y63166D01*
X694616Y62951D01*
X694841Y62623D01*
X694920Y62233D01*
X694920Y6080D01*
X694853Y5720D01*
X694638Y5384D01*
X694310Y5159D01*
G37*
%LPC*%
G36*
X36006Y639920D02*
X43994Y639920D01*
X51374Y642977D01*
X57023Y648626D01*
X60080Y656006D01*
X60080Y663994D01*
X57023Y671374D01*
X51374Y677023D01*
X43994Y680080D01*
X36006Y680080D01*
X28626Y677023D01*
X22977Y671374D01*
X19920Y663994D01*
X19920Y656006D01*
X22977Y648626D01*
X28626Y642977D01*
X36006Y639920D01*
G37*
G36*
X186984Y535171D02*
X206717Y535171D01*
X206717Y541046D01*
X205870Y541893D01*
X205663Y542195D01*
X205577Y542584D01*
X205650Y542975D01*
X205870Y543307D01*
X207177Y544613D01*
X207177Y558745D01*
X206015Y559906D01*
X205808Y560209D01*
X205722Y560597D01*
X205795Y560989D01*
X206015Y561320D01*
X206951Y562256D01*
X206951Y575054D01*
X205194Y576811D01*
X198699Y576811D01*
X198361Y576870D01*
X198021Y577076D01*
X197788Y577399D01*
X197699Y577787D01*
X197769Y578179D01*
X197986Y578512D01*
X198316Y578735D01*
X198505Y578813D01*
X198887Y578889D01*
X205194Y578889D01*
X206951Y580646D01*
X206951Y593444D01*
X205194Y595201D01*
X204389Y595201D01*
X204029Y595268D01*
X203693Y595483D01*
X203468Y595811D01*
X203389Y596201D01*
X203389Y615726D01*
X203462Y616101D01*
X203682Y616433D01*
X205105Y617856D01*
X205105Y639444D01*
X203740Y640809D01*
X203533Y641111D01*
X203447Y641500D01*
X203520Y641891D01*
X203740Y642223D01*
X205600Y644082D01*
X205917Y644296D01*
X206307Y644375D01*
X482668Y644375D01*
X483044Y644302D01*
X483376Y644082D01*
X488507Y638951D01*
X488721Y638633D01*
X488800Y638243D01*
X488800Y594055D01*
X488727Y593680D01*
X488518Y593365D01*
X488518Y587741D01*
X492491Y583768D01*
X498109Y583768D01*
X502082Y587741D01*
X502082Y593365D01*
X501879Y593665D01*
X501800Y594055D01*
X501800Y642643D01*
X500810Y645032D01*
X489457Y656385D01*
X487068Y657375D01*
X201907Y657375D01*
X199518Y656385D01*
X191340Y648207D01*
X190350Y645818D01*
X190350Y643135D01*
X190389Y642939D01*
X190389Y641574D01*
X190316Y641199D01*
X190096Y640867D01*
X188674Y639444D01*
X188674Y617856D01*
X190096Y616433D01*
X190310Y616116D01*
X190389Y615726D01*
X190389Y596201D01*
X190322Y595841D01*
X190107Y595505D01*
X189779Y595280D01*
X189389Y595201D01*
X188506Y595201D01*
X188202Y594897D01*
X187885Y594683D01*
X187495Y594604D01*
X178081Y594604D01*
X177706Y594677D01*
X177374Y594897D01*
X176844Y595427D01*
X159706Y595427D01*
X159697Y595418D01*
X159380Y595204D01*
X158990Y595125D01*
X148175Y595125D01*
X147815Y595192D01*
X147479Y595407D01*
X147254Y595735D01*
X147175Y596125D01*
X147175Y600368D01*
X145418Y602125D01*
X114932Y602125D01*
X113175Y600368D01*
X113175Y596125D01*
X113108Y595765D01*
X112893Y595429D01*
X112565Y595204D01*
X112175Y595125D01*
X84137Y595125D01*
X83777Y595192D01*
X83441Y595407D01*
X83216Y595735D01*
X83137Y596125D01*
X83137Y599213D01*
X81172Y603957D01*
X77542Y607587D01*
X72798Y609552D01*
X47852Y609552D01*
X43108Y607587D01*
X39478Y603957D01*
X37513Y599213D01*
X37513Y594079D01*
X39478Y589335D01*
X43108Y585705D01*
X47852Y583740D01*
X61503Y583740D01*
X61878Y583667D01*
X62210Y583447D01*
X65314Y580343D01*
X68255Y579125D01*
X112175Y579125D01*
X112536Y579058D01*
X112871Y578843D01*
X113096Y578515D01*
X113175Y578125D01*
X113175Y573882D01*
X114932Y572125D01*
X145418Y572125D01*
X147175Y573882D01*
X147175Y578125D01*
X147242Y578486D01*
X147457Y578821D01*
X147785Y579046D01*
X148175Y579125D01*
X157948Y579125D01*
X158323Y579052D01*
X158655Y578832D01*
X159255Y578232D01*
X159462Y577929D01*
X159548Y577541D01*
X159475Y577149D01*
X159255Y576818D01*
X158409Y575971D01*
X158409Y570096D01*
X178142Y570096D01*
X178142Y575971D01*
X177295Y576818D01*
X177088Y577120D01*
X177002Y577509D01*
X177075Y577900D01*
X177295Y578232D01*
X177374Y578311D01*
X177691Y578525D01*
X178081Y578604D01*
X187885Y578604D01*
X188231Y578542D01*
X188569Y578333D01*
X188800Y578009D01*
X188885Y577620D01*
X188812Y577229D01*
X188592Y576897D01*
X186749Y575054D01*
X186749Y562256D01*
X187685Y561320D01*
X187892Y561018D01*
X187978Y560629D01*
X187905Y560238D01*
X187685Y559906D01*
X186524Y558745D01*
X186524Y544613D01*
X187830Y543307D01*
X188037Y543004D01*
X188123Y542616D01*
X188050Y542224D01*
X187830Y541893D01*
X186984Y541046D01*
X186984Y535171D01*
G37*
G36*
X269534Y570096D02*
X289267Y570096D01*
X289267Y575971D01*
X288420Y576818D01*
X288213Y577120D01*
X288127Y577509D01*
X288200Y577900D01*
X288420Y578232D01*
X289499Y579311D01*
X289816Y579525D01*
X290206Y579604D01*
X293994Y579604D01*
X294369Y579531D01*
X294701Y579311D01*
X295780Y578232D01*
X295987Y577929D01*
X296073Y577541D01*
X296000Y577149D01*
X295780Y576818D01*
X294934Y575971D01*
X294934Y570096D01*
X314667Y570096D01*
X314667Y575971D01*
X313820Y576818D01*
X313613Y577120D01*
X313527Y577509D01*
X313600Y577900D01*
X313820Y578232D01*
X314899Y579311D01*
X315216Y579525D01*
X315606Y579604D01*
X324111Y579604D01*
X324471Y579537D01*
X324806Y579322D01*
X325031Y578994D01*
X325111Y578604D01*
X325111Y575933D01*
X326868Y574176D01*
X338332Y574176D01*
X340090Y575933D01*
X340090Y597021D01*
X338332Y598779D01*
X326868Y598779D01*
X325111Y597021D01*
X325111Y594604D01*
X325043Y594244D01*
X324829Y593908D01*
X324501Y593683D01*
X324111Y593604D01*
X315606Y593604D01*
X315231Y593677D01*
X314899Y593897D01*
X313369Y595427D01*
X296231Y595427D01*
X294701Y593897D01*
X294384Y593683D01*
X293994Y593604D01*
X290206Y593604D01*
X289831Y593677D01*
X289499Y593897D01*
X287969Y595427D01*
X270831Y595427D01*
X269742Y594338D01*
X269425Y594124D01*
X269035Y594045D01*
X238514Y594045D01*
X238139Y594118D01*
X237807Y594338D01*
X236944Y595201D01*
X236561Y595201D01*
X236201Y595268D01*
X235865Y595483D01*
X235640Y595811D01*
X235561Y596201D01*
X235561Y616226D01*
X235634Y616601D01*
X235854Y616933D01*
X236777Y617856D01*
X236777Y639444D01*
X235019Y641202D01*
X222103Y641202D01*
X220346Y639444D01*
X220346Y617856D01*
X221268Y616933D01*
X221482Y616616D01*
X221561Y616226D01*
X221561Y596201D01*
X221494Y595841D01*
X221279Y595505D01*
X220951Y595280D01*
X220561Y595201D01*
X220256Y595201D01*
X218499Y593444D01*
X218499Y580646D01*
X220256Y578889D01*
X236944Y578889D01*
X237807Y579752D01*
X238124Y579966D01*
X238514Y580045D01*
X268153Y580045D01*
X268528Y579972D01*
X268860Y579752D01*
X270380Y578232D01*
X270587Y577929D01*
X270673Y577541D01*
X270600Y577149D01*
X270380Y576818D01*
X269534Y575971D01*
X269534Y570096D01*
G37*
G36*
X329090Y619490D02*
X340630Y619490D01*
X340630Y631030D01*
X330578Y631030D01*
X329090Y629542D01*
X329090Y619490D01*
G37*
G36*
X342630Y619490D02*
X354170Y619490D01*
X354170Y629542D01*
X352682Y631030D01*
X342630Y631030D01*
X342630Y619490D01*
G37*
G36*
X342630Y605950D02*
X352682Y605950D01*
X354170Y607438D01*
X354170Y617490D01*
X342630Y617490D01*
X342630Y605950D01*
G37*
G36*
X330578Y605950D02*
X340630Y605950D01*
X340630Y617490D01*
X329090Y617490D01*
X329090Y607438D01*
X330578Y605950D01*
G37*
G36*
X418465Y588375D02*
X430800Y588375D01*
X430800Y600710D01*
X426276Y600710D01*
X418465Y592899D01*
X418465Y588375D01*
G37*
G36*
X432800Y588375D02*
X445135Y588375D01*
X445135Y592899D01*
X437324Y600710D01*
X432800Y600710D01*
X432800Y588375D01*
G37*
G36*
X371571Y587477D02*
X377600Y587477D01*
X377600Y598319D01*
X373058Y598319D01*
X371571Y596831D01*
X371571Y587477D01*
G37*
G36*
X379600Y587477D02*
X385630Y587477D01*
X385630Y596831D01*
X384142Y598319D01*
X379600Y598319D01*
X379600Y587477D01*
G37*
G36*
X432800Y574040D02*
X437324Y574040D01*
X445135Y581851D01*
X445135Y586375D01*
X432800Y586375D01*
X432800Y574040D01*
G37*
G36*
X426276Y574040D02*
X430800Y574040D01*
X430800Y586375D01*
X418465Y586375D01*
X418465Y581851D01*
X426276Y574040D01*
G37*
G36*
X373058Y574636D02*
X377600Y574636D01*
X377600Y585477D01*
X371571Y585477D01*
X371571Y576123D01*
X373058Y574636D01*
G37*
G36*
X379600Y574636D02*
X384142Y574636D01*
X385630Y576123D01*
X385630Y585477D01*
X379600Y585477D01*
X379600Y574636D01*
G37*
G36*
X218734Y535171D02*
X238467Y535171D01*
X238467Y541046D01*
X237620Y541893D01*
X237413Y542195D01*
X237327Y542584D01*
X237400Y542975D01*
X237620Y543307D01*
X238927Y544613D01*
X238927Y558745D01*
X237765Y559906D01*
X237558Y560209D01*
X237472Y560597D01*
X237545Y560989D01*
X237765Y561320D01*
X238701Y562256D01*
X238701Y575054D01*
X236944Y576811D01*
X220256Y576811D01*
X218499Y575054D01*
X218499Y562256D01*
X219435Y561320D01*
X219642Y561018D01*
X219728Y560629D01*
X219655Y560238D01*
X219435Y559906D01*
X218274Y558745D01*
X218274Y544613D01*
X219580Y543307D01*
X219787Y543004D01*
X219873Y542616D01*
X219800Y542224D01*
X219580Y541893D01*
X218734Y541046D01*
X218734Y535171D01*
G37*
G36*
X305800Y560733D02*
X313179Y560733D01*
X314667Y562221D01*
X314667Y568096D01*
X305800Y568096D01*
X305800Y560733D01*
G37*
G36*
X296421Y560733D02*
X303800Y560733D01*
X303800Y568096D01*
X294934Y568096D01*
X294934Y562221D01*
X296421Y560733D01*
G37*
G36*
X280400Y560733D02*
X287779Y560733D01*
X289267Y562221D01*
X289267Y568096D01*
X280400Y568096D01*
X280400Y560733D01*
G37*
G36*
X271021Y560733D02*
X278400Y560733D01*
X278400Y568096D01*
X269534Y568096D01*
X269534Y562221D01*
X271021Y560733D01*
G37*
G36*
X169275Y560733D02*
X176654Y560733D01*
X178142Y562221D01*
X178142Y568096D01*
X169275Y568096D01*
X169275Y560733D01*
G37*
G36*
X159896Y560733D02*
X167275Y560733D01*
X167275Y568096D01*
X158409Y568096D01*
X158409Y562221D01*
X159896Y560733D01*
G37*
G36*
X37973Y547354D02*
X59325Y547354D01*
X59325Y558800D01*
X47943Y558800D01*
X43369Y556905D01*
X39868Y553404D01*
X37973Y548830D01*
X37973Y547354D01*
G37*
G36*
X61325Y547354D02*
X82677Y547354D01*
X82677Y548830D01*
X80782Y553404D01*
X77281Y556905D01*
X72707Y558800D01*
X61325Y558800D01*
X61325Y547354D01*
G37*
G36*
X47943Y533908D02*
X59325Y533908D01*
X59325Y545354D01*
X37973Y545354D01*
X37973Y543878D01*
X39868Y539304D01*
X43369Y535803D01*
X47943Y533908D01*
G37*
G36*
X61325Y533908D02*
X72707Y533908D01*
X77281Y535803D01*
X80782Y539304D01*
X82677Y543878D01*
X82677Y545354D01*
X61325Y545354D01*
X61325Y533908D01*
G37*
G36*
X113635Y525125D02*
X129175Y525125D01*
X129175Y538665D01*
X115123Y538665D01*
X113635Y537177D01*
X113635Y525125D01*
G37*
G36*
X131175Y525125D02*
X146715Y525125D01*
X146715Y537177D01*
X145227Y538665D01*
X131175Y538665D01*
X131175Y525125D01*
G37*
G36*
X229600Y525808D02*
X236979Y525808D01*
X238467Y527296D01*
X238467Y533171D01*
X229600Y533171D01*
X229600Y525808D01*
G37*
G36*
X220221Y525808D02*
X227600Y525808D01*
X227600Y533171D01*
X218734Y533171D01*
X218734Y527296D01*
X220221Y525808D01*
G37*
G36*
X197850Y525808D02*
X205229Y525808D01*
X206717Y527296D01*
X206717Y533171D01*
X197850Y533171D01*
X197850Y525808D01*
G37*
G36*
X188471Y525808D02*
X195850Y525808D01*
X195850Y533171D01*
X186984Y533171D01*
X186984Y527296D01*
X188471Y525808D01*
G37*
G36*
X131175Y509585D02*
X145227Y509585D01*
X146715Y511073D01*
X146715Y523125D01*
X131175Y523125D01*
X131175Y509585D01*
G37*
G36*
X115123Y509585D02*
X129175Y509585D01*
X129175Y523125D01*
X113635Y523125D01*
X113635Y511073D01*
X115123Y509585D01*
G37*
G36*
X388496Y500408D02*
X395875Y500408D01*
X395875Y507771D01*
X387009Y507771D01*
X387009Y501896D01*
X388496Y500408D01*
G37*
G36*
X397875Y500408D02*
X405254Y500408D01*
X406742Y501896D01*
X406742Y507771D01*
X397875Y507771D01*
X397875Y500408D01*
G37*
G36*
X207883Y464589D02*
X224571Y464589D01*
X226328Y466346D01*
X226328Y466745D01*
X226395Y467106D01*
X226610Y467441D01*
X226938Y467666D01*
X227328Y467745D01*
X233374Y467745D01*
X233735Y467678D01*
X234070Y467463D01*
X234295Y467135D01*
X234374Y466745D01*
X234374Y466346D01*
X236131Y464589D01*
X252819Y464589D01*
X254576Y466346D01*
X254576Y466745D01*
X254643Y467106D01*
X254858Y467441D01*
X255186Y467666D01*
X255576Y467745D01*
X261949Y467745D01*
X262310Y467678D01*
X262645Y467463D01*
X262870Y467135D01*
X262949Y466745D01*
X262949Y466346D01*
X264706Y464589D01*
X281394Y464589D01*
X283151Y466346D01*
X283151Y479144D01*
X281394Y480901D01*
X264706Y480901D01*
X262949Y479144D01*
X262949Y478745D01*
X262882Y478385D01*
X262667Y478049D01*
X262339Y477824D01*
X261949Y477745D01*
X255576Y477745D01*
X255216Y477812D01*
X254880Y478027D01*
X254655Y478355D01*
X254576Y478745D01*
X254576Y479144D01*
X252819Y480901D01*
X236131Y480901D01*
X234374Y479144D01*
X234374Y478745D01*
X234307Y478385D01*
X234092Y478049D01*
X233764Y477824D01*
X233374Y477745D01*
X227328Y477745D01*
X226968Y477812D01*
X226632Y478027D01*
X226407Y478355D01*
X226328Y478745D01*
X226328Y479144D01*
X224571Y480901D01*
X207883Y480901D01*
X206126Y479144D01*
X206126Y466346D01*
X207883Y464589D01*
G37*
G36*
X97790Y464550D02*
X110125Y464550D01*
X110125Y476885D01*
X105601Y476885D01*
X97790Y469074D01*
X97790Y464550D01*
G37*
G36*
X112125Y464550D02*
X124460Y464550D01*
X124460Y469074D01*
X116649Y476885D01*
X112125Y476885D01*
X112125Y464550D01*
G37*
G36*
X37893Y452930D02*
X57357Y452930D01*
X61261Y454547D01*
X64248Y457534D01*
X65865Y461438D01*
X65865Y465662D01*
X64248Y469566D01*
X61261Y472553D01*
X57357Y474170D01*
X37893Y474170D01*
X33989Y472553D01*
X31002Y469566D01*
X29385Y465662D01*
X29385Y461438D01*
X31002Y457534D01*
X33989Y454547D01*
X37893Y452930D01*
G37*
G36*
X105601Y450215D02*
X110125Y450215D01*
X110125Y462550D01*
X97790Y462550D01*
X97790Y458026D01*
X105601Y450215D01*
G37*
G36*
X112125Y450215D02*
X116649Y450215D01*
X124460Y458026D01*
X124460Y462550D01*
X112125Y462550D01*
X112125Y450215D01*
G37*
G36*
X295159Y420430D02*
X303800Y420430D01*
X303800Y427126D01*
X296647Y427126D01*
X295159Y425638D01*
X295159Y420430D01*
G37*
G36*
X305800Y420430D02*
X314441Y420430D01*
X314441Y425638D01*
X312953Y427126D01*
X305800Y427126D01*
X305800Y420430D01*
G37*
G36*
X37893Y402130D02*
X57357Y402130D01*
X61261Y403747D01*
X64248Y406734D01*
X65865Y410638D01*
X65865Y414862D01*
X64248Y418766D01*
X61261Y421753D01*
X57357Y423370D01*
X37893Y423370D01*
X33989Y421753D01*
X31002Y418766D01*
X29385Y414862D01*
X29385Y410638D01*
X31002Y406734D01*
X33989Y403747D01*
X37893Y402130D01*
G37*
G36*
X305800Y411734D02*
X312953Y411734D01*
X314441Y413222D01*
X314441Y418430D01*
X305800Y418430D01*
X305800Y411734D01*
G37*
G36*
X385175Y403895D02*
X393816Y403895D01*
X393816Y409103D01*
X392328Y410591D01*
X385175Y410591D01*
X385175Y403895D01*
G37*
G36*
X374534Y403895D02*
X383175Y403895D01*
X383175Y410591D01*
X376022Y410591D01*
X374534Y409103D01*
X374534Y403895D01*
G37*
G36*
X376022Y395199D02*
X383175Y395199D01*
X383175Y401895D01*
X374534Y401895D01*
X374534Y396687D01*
X376022Y395199D01*
G37*
G36*
X350431Y376349D02*
X367119Y376349D01*
X368876Y378106D01*
X368876Y378505D01*
X368943Y378866D01*
X369158Y379201D01*
X369486Y379426D01*
X369876Y379505D01*
X373074Y379505D01*
X373435Y379438D01*
X373770Y379223D01*
X373995Y378895D01*
X374074Y378505D01*
X374074Y378106D01*
X375831Y376349D01*
X392519Y376349D01*
X394276Y378106D01*
X394276Y378505D01*
X394343Y378866D01*
X394558Y379201D01*
X394886Y379426D01*
X395276Y379505D01*
X399276Y379505D01*
X405050Y385279D01*
X405050Y385520D01*
X405123Y385895D01*
X405343Y386227D01*
X406832Y387716D01*
X406832Y393334D01*
X402859Y397307D01*
X397241Y397307D01*
X395523Y395589D01*
X395235Y395389D01*
X394848Y395297D01*
X394456Y395364D01*
X394120Y395578D01*
X393895Y395906D01*
X393816Y396296D01*
X393816Y401895D01*
X385175Y401895D01*
X385175Y395199D01*
X392719Y395199D01*
X393064Y395137D01*
X393403Y394928D01*
X393633Y394604D01*
X393718Y394215D01*
X393646Y393824D01*
X393426Y393492D01*
X393141Y393207D01*
X392986Y392965D01*
X392658Y392740D01*
X392268Y392661D01*
X375831Y392661D01*
X374074Y390904D01*
X374074Y390505D01*
X374007Y390145D01*
X373792Y389809D01*
X373464Y389584D01*
X373074Y389505D01*
X369876Y389505D01*
X369516Y389572D01*
X369180Y389787D01*
X368955Y390115D01*
X368876Y390505D01*
X368876Y390904D01*
X367119Y392661D01*
X350431Y392661D01*
X348674Y390904D01*
X348674Y378106D01*
X350431Y376349D01*
G37*
G36*
X334375Y376583D02*
X341754Y376583D01*
X343242Y378071D01*
X343242Y383946D01*
X334375Y383946D01*
X334375Y376583D01*
G37*
G36*
X162206Y355024D02*
X175004Y355024D01*
X176761Y356781D01*
X176761Y373469D01*
X175004Y375226D01*
X162206Y375226D01*
X160449Y373469D01*
X160449Y371125D01*
X160382Y370765D01*
X160167Y370429D01*
X159839Y370204D01*
X159449Y370125D01*
X154230Y370125D01*
X153855Y370198D01*
X153523Y370418D01*
X152034Y371907D01*
X146416Y371907D01*
X142443Y367934D01*
X142443Y362316D01*
X146416Y358343D01*
X152034Y358343D01*
X153523Y359832D01*
X153840Y360046D01*
X154230Y360125D01*
X159449Y360125D01*
X159810Y360058D01*
X160145Y359843D01*
X160370Y359515D01*
X160449Y359125D01*
X160449Y356781D01*
X162206Y355024D01*
G37*
G36*
X12757Y264325D02*
X35243Y264325D01*
X37000Y266082D01*
X37000Y273825D01*
X37067Y274186D01*
X37282Y274521D01*
X37610Y274746D01*
X38000Y274825D01*
X69171Y274825D01*
X78025Y283679D01*
X78025Y327375D01*
X78092Y327736D01*
X78307Y328071D01*
X78635Y328296D01*
X79025Y328375D01*
X83895Y328375D01*
X84270Y328302D01*
X84602Y328082D01*
X86091Y326593D01*
X91709Y326593D01*
X93198Y328082D01*
X93515Y328296D01*
X93905Y328375D01*
X95309Y328375D01*
X95655Y328313D01*
X95994Y328104D01*
X96224Y327780D01*
X96309Y327391D01*
X96236Y327000D01*
X96017Y326668D01*
X92216Y322867D01*
X89920Y317325D01*
X89920Y311325D01*
X92216Y305783D01*
X96458Y301541D01*
X102000Y299245D01*
X108000Y299245D01*
X113542Y301541D01*
X117784Y305783D01*
X120080Y311325D01*
X120080Y317325D01*
X117784Y322867D01*
X113983Y326668D01*
X113783Y326956D01*
X113691Y327343D01*
X113758Y327736D01*
X113972Y328071D01*
X114301Y328296D01*
X114691Y328375D01*
X122721Y328375D01*
X131953Y337607D01*
X132270Y337821D01*
X132660Y337900D01*
X186221Y337900D01*
X192325Y344004D01*
X192325Y354024D01*
X192392Y354385D01*
X192607Y354720D01*
X192935Y354945D01*
X193325Y355024D01*
X193394Y355024D01*
X194555Y356186D01*
X194858Y356393D01*
X195247Y356479D01*
X195638Y356406D01*
X195970Y356186D01*
X197131Y355024D01*
X209929Y355024D01*
X211686Y356781D01*
X211686Y373469D01*
X209929Y375226D01*
X197131Y375226D01*
X195970Y374064D01*
X195667Y373857D01*
X195278Y373771D01*
X194887Y373844D01*
X194555Y374064D01*
X193394Y375226D01*
X180596Y375226D01*
X178839Y373469D01*
X178839Y356781D01*
X180596Y355024D01*
X181325Y355024D01*
X181686Y354957D01*
X182021Y354742D01*
X182246Y354414D01*
X182325Y354024D01*
X182325Y348900D01*
X182258Y348540D01*
X182043Y348204D01*
X181715Y347979D01*
X181325Y347900D01*
X128104Y347900D01*
X118872Y338668D01*
X118555Y338454D01*
X118165Y338375D01*
X93905Y338375D01*
X93530Y338448D01*
X93198Y338668D01*
X91709Y340157D01*
X86091Y340157D01*
X84602Y338668D01*
X84285Y338454D01*
X83895Y338375D01*
X74129Y338375D01*
X68025Y332271D01*
X68025Y288235D01*
X67952Y287860D01*
X67732Y287528D01*
X65322Y285118D01*
X65005Y284904D01*
X64615Y284825D01*
X38000Y284825D01*
X37640Y284892D01*
X37304Y285107D01*
X37079Y285435D01*
X37000Y285825D01*
X37000Y293568D01*
X35243Y295325D01*
X12757Y295325D01*
X11000Y293568D01*
X11000Y266082D01*
X12757Y264325D01*
G37*
G36*
X105757Y264325D02*
X128243Y264325D01*
X130000Y266082D01*
X130000Y273825D01*
X130067Y274186D01*
X130282Y274521D01*
X130610Y274746D01*
X131000Y274825D01*
X196171Y274825D01*
X208530Y287184D01*
X208530Y319099D01*
X208597Y319460D01*
X208812Y319795D01*
X209140Y320020D01*
X209530Y320099D01*
X209929Y320099D01*
X211686Y321856D01*
X211686Y338544D01*
X209929Y340301D01*
X197131Y340301D01*
X195374Y338544D01*
X195374Y321856D01*
X197131Y320099D01*
X197530Y320099D01*
X197891Y320032D01*
X198226Y319817D01*
X198451Y319489D01*
X198530Y319099D01*
X198530Y291740D01*
X198457Y291365D01*
X198237Y291033D01*
X192322Y285118D01*
X192005Y284904D01*
X191615Y284825D01*
X131000Y284825D01*
X130640Y284892D01*
X130304Y285107D01*
X130079Y285435D01*
X130000Y285825D01*
X130000Y293568D01*
X128243Y295325D01*
X105757Y295325D01*
X104000Y293568D01*
X104000Y285400D01*
X103933Y285040D01*
X103718Y284704D01*
X103390Y284479D01*
X103000Y284400D01*
X97080Y284400D01*
X96705Y284473D01*
X96373Y284693D01*
X94884Y286182D01*
X89266Y286182D01*
X85293Y282209D01*
X85293Y276591D01*
X89266Y272618D01*
X94884Y272618D01*
X96373Y274107D01*
X96690Y274321D01*
X97080Y274400D01*
X103000Y274400D01*
X103361Y274333D01*
X103696Y274118D01*
X103921Y273790D01*
X104000Y273400D01*
X104000Y266082D01*
X105757Y264325D01*
G37*
G36*
X143757Y308825D02*
X171243Y308825D01*
X173000Y310582D01*
X173000Y333068D01*
X171243Y334825D01*
X143757Y334825D01*
X142000Y333068D01*
X142000Y310582D01*
X143757Y308825D01*
G37*
G36*
X32000Y299245D02*
X38000Y299245D01*
X43542Y301541D01*
X47784Y305783D01*
X50080Y311325D01*
X50080Y317325D01*
X47784Y322867D01*
X43542Y327109D01*
X38000Y329405D01*
X32000Y329405D01*
X26458Y327109D01*
X22216Y322867D01*
X19920Y317325D01*
X19920Y311325D01*
X22216Y305783D01*
X26458Y301541D01*
X32000Y299245D01*
G37*
G36*
X244756Y262949D02*
X257554Y262949D01*
X259311Y264706D01*
X259311Y281394D01*
X257554Y283151D01*
X244756Y283151D01*
X242999Y281394D01*
X242999Y280181D01*
X242937Y279836D01*
X242728Y279497D01*
X242404Y279267D01*
X242015Y279182D01*
X241624Y279255D01*
X241292Y279474D01*
X240934Y279832D01*
X235316Y279832D01*
X231343Y275859D01*
X231343Y270241D01*
X235316Y266268D01*
X240934Y266268D01*
X241292Y266626D01*
X241580Y266827D01*
X241967Y266918D01*
X242360Y266851D01*
X242695Y266637D01*
X242920Y266309D01*
X242999Y265919D01*
X242999Y264706D01*
X244756Y262949D01*
G37*
G36*
X53355Y190470D02*
X60945Y190470D01*
X67958Y193375D01*
X73325Y198742D01*
X76230Y205755D01*
X76230Y213345D01*
X73325Y220358D01*
X67958Y225725D01*
X60945Y228630D01*
X53355Y228630D01*
X46342Y225725D01*
X40975Y220358D01*
X38070Y213345D01*
X38070Y205755D01*
X40975Y198742D01*
X46342Y193375D01*
X53355Y190470D01*
G37*
G36*
X281333Y178800D02*
X288696Y178800D01*
X288696Y187667D01*
X282821Y187667D01*
X281333Y186179D01*
X281333Y178800D01*
G37*
G36*
X255181Y105814D02*
X271869Y105814D01*
X273626Y107571D01*
X273626Y120369D01*
X271869Y122126D01*
X255181Y122126D01*
X253818Y120763D01*
X253501Y120549D01*
X253111Y120470D01*
X247912Y120470D01*
X247536Y120543D01*
X247205Y120763D01*
X244918Y123050D01*
X244704Y123367D01*
X244625Y123757D01*
X244625Y174295D01*
X244698Y174670D01*
X244907Y174985D01*
X244907Y180609D01*
X240934Y184582D01*
X235316Y184582D01*
X231343Y180609D01*
X231343Y174986D01*
X231546Y174685D01*
X231625Y174295D01*
X231625Y119357D01*
X232615Y116968D01*
X238591Y110992D01*
X238807Y110668D01*
X238965Y110288D01*
X240793Y108460D01*
X243182Y107470D01*
X253111Y107470D01*
X253486Y107397D01*
X253818Y107177D01*
X255181Y105814D01*
G37*
G36*
X282821Y167934D02*
X288696Y167934D01*
X288696Y176800D01*
X281333Y176800D01*
X281333Y169421D01*
X282821Y167934D01*
G37*
G36*
X92330Y134350D02*
X106950Y134350D01*
X106950Y142430D01*
X99604Y142430D01*
X96267Y141048D01*
X93712Y138493D01*
X92330Y135156D01*
X92330Y134350D01*
G37*
G36*
X108950Y134350D02*
X123570Y134350D01*
X123570Y135156D01*
X122188Y138493D01*
X119633Y141048D01*
X116296Y142430D01*
X108950Y142430D01*
X108950Y134350D01*
G37*
G36*
X255460Y137300D02*
X272540Y137300D01*
X272540Y141800D01*
X255460Y141800D01*
X255460Y137300D01*
G37*
G36*
X265000Y131510D02*
X271052Y131510D01*
X272540Y132998D01*
X272540Y135300D01*
X265000Y135300D01*
X265000Y131510D01*
G37*
G36*
X256948Y131510D02*
X263000Y131510D01*
X263000Y135300D01*
X255460Y135300D01*
X255460Y132998D01*
X256948Y131510D01*
G37*
G36*
X99604Y124270D02*
X106950Y124270D01*
X106950Y132350D01*
X92330Y132350D01*
X92330Y131544D01*
X93712Y128207D01*
X96267Y125652D01*
X99604Y124270D01*
G37*
G36*
X108950Y124270D02*
X116296Y124270D01*
X119633Y125652D01*
X122188Y128207D01*
X123570Y131544D01*
X123570Y132350D01*
X108950Y132350D01*
X108950Y124270D01*
G37*
G36*
X53355Y88870D02*
X60945Y88870D01*
X67958Y91775D01*
X73325Y97142D01*
X76230Y104155D01*
X76230Y111745D01*
X73325Y118758D01*
X67958Y124125D01*
X60945Y127030D01*
X53355Y127030D01*
X46342Y124125D01*
X40975Y118758D01*
X38070Y111745D01*
X38070Y104155D01*
X40975Y97142D01*
X46342Y91775D01*
X53355Y88870D01*
G37*
G36*
X253884Y61655D02*
X262525Y61655D01*
X262525Y68351D01*
X255372Y68351D01*
X253884Y66863D01*
X253884Y61655D01*
G37*
G36*
X264525Y61655D02*
X273166Y61655D01*
X273166Y66863D01*
X271678Y68351D01*
X264525Y68351D01*
X264525Y61655D01*
G37*
G36*
X36006Y19920D02*
X43994Y19920D01*
X51374Y22977D01*
X57023Y28626D01*
X60080Y36006D01*
X60080Y43994D01*
X57023Y51374D01*
X51374Y57023D01*
X43994Y60080D01*
X36006Y60080D01*
X28626Y57023D01*
X22977Y51374D01*
X19920Y43994D01*
X19920Y36006D01*
X22977Y28626D01*
X28626Y22977D01*
X36006Y19920D01*
G37*
G36*
X264525Y52959D02*
X271678Y52959D01*
X273166Y54447D01*
X273166Y59655D01*
X264525Y59655D01*
X264525Y52959D01*
G37*
G36*
X255372Y52959D02*
X262525Y52959D01*
X262525Y59655D01*
X253884Y59655D01*
X253884Y54447D01*
X255372Y52959D01*
G37*
G36*
X91440Y42275D02*
X103775Y42275D01*
X103775Y54610D01*
X99251Y54610D01*
X91440Y46799D01*
X91440Y42275D01*
G37*
G36*
X105775Y42275D02*
X118110Y42275D01*
X118110Y46799D01*
X110299Y54610D01*
X105775Y54610D01*
X105775Y42275D01*
G37*
G36*
X105775Y27940D02*
X110299Y27940D01*
X118110Y35751D01*
X118110Y40275D01*
X105775Y40275D01*
X105775Y27940D01*
G37*
G36*
X99251Y27940D02*
X103775Y27940D01*
X103775Y40275D01*
X91440Y40275D01*
X91440Y35751D01*
X99251Y27940D01*
G37*
%LPD*%
G36*
X642533Y319154D02*
X642143Y319075D01*
X640590Y319075D01*
X640244Y319137D01*
X639906Y319346D01*
X639675Y319670D01*
X639590Y320059D01*
X639663Y320450D01*
X639883Y320782D01*
X641937Y322836D01*
X641937Y331214D01*
X636014Y337137D01*
X627636Y337137D01*
X622006Y331506D01*
X621710Y331302D01*
X621322Y331213D01*
X620931Y331283D01*
X620597Y331500D01*
X620375Y331830D01*
X619873Y333041D01*
X616886Y336028D01*
X612982Y337645D01*
X593518Y337645D01*
X589614Y336028D01*
X586843Y333257D01*
X586563Y333060D01*
X586391Y333018D01*
X586439Y332792D01*
X586362Y332402D01*
X586358Y332391D01*
X586153Y332079D01*
X585824Y331854D01*
X585434Y331775D01*
X585428Y331775D01*
X585083Y331837D01*
X584744Y332046D01*
X584514Y332370D01*
X584428Y332759D01*
X584501Y333150D01*
X584721Y333482D01*
X584732Y333493D01*
X585013Y333691D01*
X585184Y333732D01*
X585136Y333957D01*
X585212Y334347D01*
X586565Y337613D01*
X586565Y341837D01*
X585212Y345103D01*
X585137Y345438D01*
X585180Y345716D01*
X585063Y345738D01*
X584732Y345957D01*
X584721Y345968D01*
X584520Y346256D01*
X584429Y346643D01*
X584495Y347036D01*
X584710Y347371D01*
X585038Y347596D01*
X585428Y347675D01*
X585434Y347675D01*
X585801Y347605D01*
X586135Y347388D01*
X586358Y347059D01*
X586362Y347048D01*
X586438Y346712D01*
X586395Y346434D01*
X586512Y346412D01*
X586843Y346193D01*
X589614Y343422D01*
X593518Y341805D01*
X612982Y341805D01*
X616886Y343422D01*
X619873Y346409D01*
X620375Y347620D01*
X620569Y347921D01*
X620894Y348151D01*
X621282Y348237D01*
X621674Y348164D01*
X622006Y347944D01*
X627636Y342313D01*
X636014Y342313D01*
X641937Y348236D01*
X641937Y356614D01*
X636014Y362537D01*
X627636Y362537D01*
X622006Y356906D01*
X621710Y356702D01*
X621322Y356613D01*
X620931Y356683D01*
X620597Y356900D01*
X620375Y357230D01*
X619873Y358441D01*
X616886Y361428D01*
X612982Y363045D01*
X593518Y363045D01*
X589614Y361428D01*
X586843Y358657D01*
X586563Y358460D01*
X586391Y358418D01*
X586439Y358192D01*
X586362Y357802D01*
X586358Y357791D01*
X586153Y357479D01*
X585824Y357254D01*
X585434Y357175D01*
X585428Y357175D01*
X585083Y357237D01*
X584744Y357446D01*
X584514Y357770D01*
X584428Y358159D01*
X584501Y358550D01*
X584721Y358882D01*
X584732Y358893D01*
X585013Y359091D01*
X585184Y359132D01*
X585136Y359357D01*
X585212Y359747D01*
X586565Y363013D01*
X586565Y367237D01*
X585212Y370503D01*
X585137Y370838D01*
X585180Y371116D01*
X585063Y371138D01*
X584732Y371357D01*
X584721Y371368D01*
X584520Y371656D01*
X584429Y372043D01*
X584495Y372436D01*
X584710Y372771D01*
X585038Y372996D01*
X585428Y373075D01*
X585434Y373075D01*
X585801Y373005D01*
X586135Y372788D01*
X586358Y372459D01*
X586362Y372448D01*
X586438Y372112D01*
X586395Y371834D01*
X586512Y371812D01*
X586843Y371593D01*
X589614Y368822D01*
X593518Y367205D01*
X612982Y367205D01*
X616886Y368822D01*
X619873Y371809D01*
X620375Y373020D01*
X620569Y373321D01*
X620894Y373551D01*
X621282Y373637D01*
X621674Y373564D01*
X622006Y373344D01*
X627636Y367713D01*
X636014Y367713D01*
X641937Y373636D01*
X641937Y382014D01*
X636014Y387937D01*
X627636Y387937D01*
X622006Y382306D01*
X621710Y382102D01*
X621322Y382013D01*
X620931Y382083D01*
X620597Y382300D01*
X620375Y382630D01*
X619873Y383841D01*
X616886Y386828D01*
X612982Y388445D01*
X593518Y388445D01*
X589614Y386828D01*
X586843Y384057D01*
X586563Y383860D01*
X586391Y383818D01*
X586439Y383592D01*
X586362Y383202D01*
X586358Y383191D01*
X586153Y382879D01*
X585824Y382654D01*
X585434Y382575D01*
X585428Y382575D01*
X585083Y382637D01*
X584744Y382846D01*
X584514Y383170D01*
X584428Y383559D01*
X584501Y383950D01*
X584721Y384282D01*
X584732Y384293D01*
X585013Y384491D01*
X585184Y384532D01*
X585136Y384757D01*
X585212Y385147D01*
X586565Y388413D01*
X586565Y392637D01*
X585212Y395903D01*
X585137Y396238D01*
X585180Y396516D01*
X585063Y396538D01*
X584732Y396757D01*
X584721Y396768D01*
X584520Y397056D01*
X584429Y397443D01*
X584495Y397836D01*
X584710Y398171D01*
X585038Y398396D01*
X585428Y398475D01*
X585434Y398475D01*
X585801Y398405D01*
X586135Y398188D01*
X586358Y397859D01*
X586362Y397848D01*
X586438Y397512D01*
X586395Y397234D01*
X586512Y397212D01*
X586843Y396993D01*
X589614Y394222D01*
X593518Y392605D01*
X612982Y392605D01*
X616886Y394222D01*
X619873Y397209D01*
X620375Y398420D01*
X620569Y398721D01*
X620894Y398951D01*
X621282Y399037D01*
X621674Y398964D01*
X622006Y398744D01*
X627636Y393113D01*
X636014Y393113D01*
X641937Y399036D01*
X641937Y407414D01*
X636014Y413337D01*
X627636Y413337D01*
X622006Y407706D01*
X621710Y407502D01*
X621322Y407413D01*
X620931Y407483D01*
X620597Y407700D01*
X620375Y408030D01*
X619873Y409241D01*
X616886Y412228D01*
X612982Y413845D01*
X593518Y413845D01*
X589614Y412228D01*
X586843Y409457D01*
X586563Y409260D01*
X586391Y409218D01*
X586439Y408992D01*
X586362Y408602D01*
X586358Y408591D01*
X586153Y408279D01*
X585824Y408054D01*
X585434Y407975D01*
X585428Y407975D01*
X585083Y408037D01*
X584744Y408246D01*
X584514Y408570D01*
X584428Y408959D01*
X584501Y409350D01*
X584721Y409682D01*
X584732Y409693D01*
X585013Y409891D01*
X585184Y409932D01*
X585136Y410157D01*
X585212Y410547D01*
X586565Y413813D01*
X586565Y418037D01*
X584948Y421941D01*
X581961Y424928D01*
X578057Y426545D01*
X558593Y426545D01*
X554689Y424928D01*
X551702Y421941D01*
X550085Y418037D01*
X550085Y413813D01*
X551702Y409909D01*
X551929Y409682D01*
X552130Y409394D01*
X552221Y409007D01*
X552155Y408615D01*
X551940Y408279D01*
X551612Y408054D01*
X551222Y407975D01*
X546102Y407975D01*
X545756Y408037D01*
X545418Y408246D01*
X545187Y408570D01*
X545102Y408959D01*
X545175Y409350D01*
X545395Y409682D01*
X545910Y410197D01*
X547449Y413914D01*
X547449Y417936D01*
X545910Y421653D01*
X543065Y424498D01*
X539348Y426037D01*
X521102Y426037D01*
X517385Y424498D01*
X514540Y421653D01*
X513001Y417936D01*
X513001Y413914D01*
X514540Y410197D01*
X515055Y409682D01*
X515256Y409394D01*
X515348Y409007D01*
X515281Y408615D01*
X515067Y408279D01*
X514738Y408054D01*
X514348Y407975D01*
X509207Y407975D01*
X500487Y399255D01*
X500199Y399054D01*
X499812Y398962D01*
X499420Y399029D01*
X499084Y399243D01*
X498859Y399572D01*
X498780Y399962D01*
X498780Y428397D01*
X498853Y428772D01*
X499073Y429104D01*
X511294Y441325D01*
X511582Y441525D01*
X511969Y441617D01*
X512362Y441550D01*
X512697Y441336D01*
X512922Y441008D01*
X513001Y440618D01*
X513001Y439314D01*
X514540Y435597D01*
X517385Y432752D01*
X521102Y431213D01*
X539348Y431213D01*
X543065Y432752D01*
X545910Y435597D01*
X547449Y439314D01*
X547449Y443336D01*
X545910Y447053D01*
X545395Y447568D01*
X545194Y447856D01*
X545102Y448243D01*
X545169Y448636D01*
X545383Y448971D01*
X545712Y449196D01*
X546102Y449275D01*
X551222Y449275D01*
X551567Y449213D01*
X551906Y449004D01*
X552136Y448680D01*
X552222Y448291D01*
X552149Y447900D01*
X551929Y447568D01*
X551702Y447341D01*
X550085Y443437D01*
X550085Y439213D01*
X551702Y435309D01*
X554689Y432322D01*
X558593Y430705D01*
X578057Y430705D01*
X581961Y432322D01*
X584948Y435309D01*
X586565Y439213D01*
X586565Y443437D01*
X585212Y446703D01*
X585137Y447038D01*
X585180Y447316D01*
X585063Y447338D01*
X584732Y447557D01*
X584721Y447568D01*
X584520Y447856D01*
X584429Y448243D01*
X584495Y448636D01*
X584710Y448971D01*
X585038Y449196D01*
X585428Y449275D01*
X585434Y449275D01*
X585801Y449205D01*
X586135Y448988D01*
X586358Y448659D01*
X586362Y448648D01*
X586438Y448312D01*
X586395Y448034D01*
X586512Y448012D01*
X586843Y447793D01*
X589614Y445022D01*
X593518Y443405D01*
X612982Y443405D01*
X616886Y445022D01*
X619873Y448009D01*
X620375Y449220D01*
X620569Y449521D01*
X620894Y449751D01*
X621282Y449837D01*
X621674Y449764D01*
X622006Y449544D01*
X627636Y443913D01*
X636014Y443913D01*
X641937Y449836D01*
X641937Y458214D01*
X636014Y464137D01*
X627636Y464137D01*
X622006Y458506D01*
X621710Y458302D01*
X621322Y458213D01*
X620931Y458283D01*
X620597Y458500D01*
X620375Y458830D01*
X619873Y460041D01*
X616886Y463028D01*
X612982Y464645D01*
X593518Y464645D01*
X589614Y463028D01*
X586627Y460041D01*
X586358Y459392D01*
X586153Y459079D01*
X585824Y458854D01*
X585434Y458775D01*
X584778Y458775D01*
X584432Y458837D01*
X584093Y459046D01*
X583863Y459370D01*
X583778Y459759D01*
X583851Y460150D01*
X584071Y460482D01*
X584558Y460970D01*
X586105Y464704D01*
X586105Y465725D01*
X550545Y465725D01*
X550545Y464704D01*
X552092Y460970D01*
X552579Y460482D01*
X552780Y460194D01*
X552872Y459807D01*
X552805Y459415D01*
X552591Y459079D01*
X552262Y458854D01*
X551872Y458775D01*
X518707Y458775D01*
X518361Y458837D01*
X518023Y459046D01*
X517792Y459370D01*
X517707Y459759D01*
X517780Y460150D01*
X518000Y460482D01*
X531900Y474382D01*
X532217Y474596D01*
X532607Y474675D01*
X551872Y474675D01*
X552218Y474613D01*
X552557Y474404D01*
X552787Y474080D01*
X552872Y473691D01*
X552799Y473300D01*
X552579Y472968D01*
X552092Y472480D01*
X550545Y468746D01*
X550545Y467725D01*
X586105Y467725D01*
X586105Y468746D01*
X584558Y472480D01*
X584071Y472968D01*
X583870Y473256D01*
X583778Y473643D01*
X583845Y474036D01*
X584059Y474371D01*
X584388Y474596D01*
X584778Y474675D01*
X585434Y474675D01*
X585802Y474605D01*
X586136Y474388D01*
X586358Y474058D01*
X586627Y473409D01*
X589614Y470422D01*
X593518Y468805D01*
X612982Y468805D01*
X616886Y470422D01*
X619873Y473409D01*
X620375Y474620D01*
X620569Y474921D01*
X620894Y475151D01*
X621282Y475237D01*
X621674Y475164D01*
X622006Y474944D01*
X627636Y469313D01*
X636014Y469313D01*
X641937Y475236D01*
X641937Y483614D01*
X639883Y485668D01*
X639682Y485956D01*
X639590Y486343D01*
X639657Y486736D01*
X639871Y487071D01*
X640200Y487296D01*
X640590Y487375D01*
X646493Y487375D01*
X653538Y494420D01*
X653855Y494634D01*
X654245Y494713D01*
X661414Y494713D01*
X664731Y498031D01*
X665034Y498238D01*
X665422Y498323D01*
X665814Y498250D01*
X666145Y498031D01*
X668354Y495822D01*
X672258Y494205D01*
X691722Y494205D01*
X693537Y494957D01*
X693888Y495032D01*
X694281Y494966D01*
X694616Y494751D01*
X694841Y494423D01*
X694920Y494033D01*
X694920Y490217D01*
X694856Y489864D01*
X694644Y489527D01*
X694317Y489300D01*
X693928Y489217D01*
X693537Y489293D01*
X691722Y490045D01*
X672258Y490045D01*
X668354Y488428D01*
X666145Y486219D01*
X665843Y486012D01*
X665454Y485927D01*
X665063Y486000D01*
X664731Y486219D01*
X661414Y489537D01*
X653036Y489537D01*
X647113Y483614D01*
X647113Y475236D01*
X653036Y469313D01*
X661414Y469313D01*
X664731Y472631D01*
X665034Y472838D01*
X665422Y472923D01*
X665814Y472850D01*
X666145Y472631D01*
X668354Y470422D01*
X672258Y468805D01*
X691722Y468805D01*
X693537Y469557D01*
X693888Y469632D01*
X694281Y469566D01*
X694616Y469351D01*
X694841Y469023D01*
X694920Y468633D01*
X694920Y464817D01*
X694856Y464464D01*
X694644Y464127D01*
X694317Y463900D01*
X693928Y463817D01*
X693537Y463893D01*
X691722Y464645D01*
X672258Y464645D01*
X668354Y463028D01*
X666145Y460819D01*
X665843Y460612D01*
X665454Y460527D01*
X665063Y460600D01*
X664731Y460819D01*
X661414Y464137D01*
X653036Y464137D01*
X647113Y458214D01*
X647113Y449836D01*
X653036Y443913D01*
X661414Y443913D01*
X664731Y447231D01*
X665034Y447438D01*
X665422Y447523D01*
X665814Y447450D01*
X666145Y447231D01*
X668354Y445022D01*
X672258Y443405D01*
X691722Y443405D01*
X693537Y444157D01*
X693888Y444232D01*
X694281Y444166D01*
X694616Y443951D01*
X694841Y443623D01*
X694920Y443233D01*
X694920Y439417D01*
X694856Y439064D01*
X694644Y438727D01*
X694317Y438500D01*
X693928Y438417D01*
X693537Y438493D01*
X691722Y439245D01*
X672258Y439245D01*
X668354Y437628D01*
X666145Y435419D01*
X665843Y435212D01*
X665454Y435127D01*
X665063Y435200D01*
X664731Y435419D01*
X661414Y438737D01*
X653036Y438737D01*
X647113Y432814D01*
X647113Y424436D01*
X653036Y418513D01*
X661414Y418513D01*
X664731Y421831D01*
X665034Y422038D01*
X665422Y422123D01*
X665814Y422050D01*
X666145Y421831D01*
X668354Y419622D01*
X672258Y418005D01*
X691722Y418005D01*
X693537Y418757D01*
X693888Y418832D01*
X694281Y418766D01*
X694616Y418551D01*
X694841Y418223D01*
X694920Y417833D01*
X694920Y414017D01*
X694856Y413664D01*
X694644Y413327D01*
X694317Y413100D01*
X693928Y413017D01*
X693537Y413093D01*
X691722Y413845D01*
X672258Y413845D01*
X668354Y412228D01*
X666145Y410019D01*
X665843Y409812D01*
X665454Y409727D01*
X665063Y409800D01*
X664731Y410019D01*
X661414Y413337D01*
X653036Y413337D01*
X647113Y407414D01*
X647113Y399036D01*
X653036Y393113D01*
X661414Y393113D01*
X664731Y396431D01*
X665034Y396638D01*
X665422Y396723D01*
X665814Y396650D01*
X666145Y396431D01*
X668354Y394222D01*
X672258Y392605D01*
X691722Y392605D01*
X693537Y393357D01*
X693888Y393432D01*
X694281Y393366D01*
X694616Y393151D01*
X694841Y392823D01*
X694920Y392433D01*
X694920Y388617D01*
X694856Y388264D01*
X694644Y387927D01*
X694317Y387700D01*
X693928Y387617D01*
X693537Y387693D01*
X691722Y388445D01*
X672258Y388445D01*
X668354Y386828D01*
X666145Y384619D01*
X665843Y384412D01*
X665454Y384327D01*
X665063Y384400D01*
X664731Y384619D01*
X661414Y387937D01*
X653036Y387937D01*
X647113Y382014D01*
X647113Y373636D01*
X653036Y367713D01*
X661414Y367713D01*
X664731Y371031D01*
X665034Y371238D01*
X665422Y371323D01*
X665814Y371250D01*
X666145Y371031D01*
X668354Y368822D01*
X672258Y367205D01*
X691722Y367205D01*
X693537Y367957D01*
X693888Y368032D01*
X694281Y367966D01*
X694616Y367751D01*
X694841Y367423D01*
X694920Y367033D01*
X694920Y363217D01*
X694856Y362864D01*
X694644Y362527D01*
X694317Y362300D01*
X693928Y362217D01*
X693537Y362293D01*
X691722Y363045D01*
X672258Y363045D01*
X668354Y361428D01*
X666145Y359219D01*
X665843Y359012D01*
X665454Y358927D01*
X665063Y359000D01*
X664731Y359219D01*
X661414Y362537D01*
X653036Y362537D01*
X647113Y356614D01*
X647113Y348236D01*
X653036Y342313D01*
X661414Y342313D01*
X664731Y345631D01*
X665034Y345838D01*
X665422Y345923D01*
X665814Y345850D01*
X666145Y345631D01*
X668354Y343422D01*
X672258Y341805D01*
X691722Y341805D01*
X693537Y342557D01*
X693888Y342632D01*
X694281Y342566D01*
X694616Y342351D01*
X694841Y342023D01*
X694920Y341633D01*
X694920Y337817D01*
X694856Y337464D01*
X694644Y337127D01*
X694317Y336900D01*
X693928Y336817D01*
X693537Y336893D01*
X691722Y337645D01*
X672258Y337645D01*
X668354Y336028D01*
X666145Y333819D01*
X665843Y333612D01*
X665454Y333527D01*
X665063Y333600D01*
X664731Y333819D01*
X661414Y337137D01*
X653036Y337137D01*
X647113Y331214D01*
X647113Y324045D01*
X647040Y323669D01*
X646820Y323338D01*
X642850Y319368D01*
X642533Y319154D01*
G37*
%LPC*%
G36*
X604250Y418465D02*
X612891Y418465D01*
X616625Y420012D01*
X619483Y422870D01*
X620249Y424719D01*
X620433Y425009D01*
X620754Y425244D01*
X621141Y425336D01*
X621534Y425269D01*
X621869Y425054D01*
X622094Y424726D01*
X622099Y424701D01*
X627827Y418973D01*
X630825Y418973D01*
X630825Y438277D01*
X627827Y438277D01*
X622096Y432546D01*
X621908Y432235D01*
X621585Y432003D01*
X621197Y431914D01*
X620805Y431984D01*
X620472Y432201D01*
X620249Y432531D01*
X619483Y434380D01*
X616625Y437238D01*
X612891Y438785D01*
X604250Y438785D01*
X604250Y418465D01*
G37*
G36*
X585470Y429625D02*
X602250Y429625D01*
X602250Y438785D01*
X593609Y438785D01*
X589875Y437238D01*
X587017Y434380D01*
X585470Y430646D01*
X585470Y429625D01*
G37*
G36*
X632825Y429625D02*
X641477Y429625D01*
X641477Y432623D01*
X635823Y438277D01*
X632825Y438277D01*
X632825Y429625D01*
G37*
G36*
X632825Y418973D02*
X635823Y418973D01*
X641477Y424627D01*
X641477Y427625D01*
X632825Y427625D01*
X632825Y418973D01*
G37*
G36*
X593609Y418465D02*
X602250Y418465D01*
X602250Y427625D01*
X585470Y427625D01*
X585470Y426604D01*
X587017Y422870D01*
X589875Y420012D01*
X593609Y418465D01*
G37*
%LPD*%
G36*
X264034Y395329D02*
X263644Y395250D01*
X252525Y395250D01*
X252149Y395323D01*
X251818Y395543D01*
X249018Y398343D01*
X248804Y398660D01*
X248725Y399050D01*
X248725Y410048D01*
X248792Y410409D01*
X249007Y410744D01*
X249335Y410969D01*
X249725Y411048D01*
X253044Y411048D01*
X254802Y412805D01*
X254802Y426937D01*
X253820Y427918D01*
X253613Y428220D01*
X253527Y428609D01*
X253600Y429000D01*
X253820Y429332D01*
X254802Y430313D01*
X254802Y432129D01*
X254869Y432490D01*
X255083Y432825D01*
X255411Y433050D01*
X255802Y433129D01*
X262121Y433129D01*
X262497Y433056D01*
X262828Y432836D01*
X264857Y430807D01*
X265071Y430490D01*
X265150Y430100D01*
X265150Y396756D01*
X265077Y396381D01*
X264857Y396049D01*
X264351Y395543D01*
X264034Y395329D01*
G37*
G36*
X620205Y17779D02*
X619815Y17700D01*
X316810Y17700D01*
X316435Y17773D01*
X316103Y17993D01*
X313268Y20828D01*
X313054Y21145D01*
X312975Y21535D01*
X312975Y130050D01*
X313042Y130411D01*
X313257Y130746D01*
X313585Y130971D01*
X313975Y131050D01*
X314743Y131050D01*
X316500Y132807D01*
X316500Y143225D01*
X316567Y143586D01*
X316782Y143921D01*
X317110Y144146D01*
X317500Y144225D01*
X322746Y144225D01*
X328850Y150329D01*
X328850Y261430D01*
X328917Y261791D01*
X329132Y262126D01*
X329460Y262351D01*
X329491Y262357D01*
X337645Y270511D01*
X337645Y281939D01*
X329499Y290086D01*
X329490Y290087D01*
X329154Y290302D01*
X328929Y290630D01*
X328850Y291020D01*
X328850Y299140D01*
X328923Y299515D01*
X329143Y299847D01*
X330546Y301250D01*
X330863Y301464D01*
X331253Y301543D01*
X332320Y301543D01*
X344395Y313618D01*
X344395Y319099D01*
X344462Y319460D01*
X344677Y319795D01*
X345005Y320020D01*
X345395Y320099D01*
X345794Y320099D01*
X347551Y321856D01*
X347551Y338544D01*
X345794Y340301D01*
X344975Y340301D01*
X344615Y340368D01*
X344279Y340583D01*
X344054Y340911D01*
X343975Y341301D01*
X343975Y344660D01*
X342168Y346468D01*
X341967Y346756D01*
X341875Y347143D01*
X341942Y347536D01*
X342156Y347871D01*
X342485Y348096D01*
X342875Y348175D01*
X352365Y348175D01*
X352740Y348102D01*
X353072Y347882D01*
X356704Y344250D01*
X417996Y344250D01*
X438043Y364297D01*
X438331Y364498D01*
X438718Y364589D01*
X439111Y364522D01*
X439446Y364308D01*
X439671Y363980D01*
X439750Y363590D01*
X439750Y284957D01*
X439677Y284581D01*
X439457Y284250D01*
X438507Y283300D01*
X438190Y283086D01*
X437800Y283007D01*
X435341Y283007D01*
X433602Y281268D01*
X433285Y281054D01*
X432895Y280975D01*
X426657Y280975D01*
X417906Y272224D01*
X417906Y269974D01*
X417839Y269614D01*
X417624Y269278D01*
X417296Y269053D01*
X416906Y268974D01*
X414103Y268974D01*
X412346Y267217D01*
X412346Y256700D01*
X412279Y256340D01*
X412064Y256004D01*
X411736Y255779D01*
X411346Y255700D01*
X405927Y255700D01*
X405567Y255767D01*
X405231Y255982D01*
X405006Y256310D01*
X404927Y256700D01*
X404927Y265744D01*
X402897Y267774D01*
X402683Y268091D01*
X402604Y268481D01*
X402604Y271080D01*
X402680Y271463D01*
X402813Y271785D01*
X403030Y272109D01*
X404927Y274006D01*
X404927Y284966D01*
X405000Y285342D01*
X405220Y285674D01*
X408735Y289189D01*
X409725Y291578D01*
X409725Y298120D01*
X409798Y298495D01*
X410007Y298810D01*
X410007Y304434D01*
X406034Y308407D01*
X400416Y308407D01*
X396443Y304434D01*
X396443Y298811D01*
X396646Y298510D01*
X396725Y298120D01*
X396725Y295978D01*
X396652Y295602D01*
X396432Y295271D01*
X394356Y293194D01*
X394039Y292981D01*
X393649Y292902D01*
X389038Y292902D01*
X387732Y291595D01*
X387429Y291388D01*
X387041Y291302D01*
X386649Y291375D01*
X386318Y291595D01*
X385471Y292442D01*
X379596Y292442D01*
X379596Y272709D01*
X385471Y272709D01*
X386318Y273555D01*
X386620Y273762D01*
X387009Y273848D01*
X387400Y273775D01*
X387732Y273555D01*
X389311Y271976D01*
X389525Y271659D01*
X389604Y271269D01*
X389604Y268481D01*
X389531Y268106D01*
X389311Y267774D01*
X387732Y266195D01*
X387429Y265988D01*
X387041Y265902D01*
X386649Y265975D01*
X386318Y266195D01*
X385471Y267042D01*
X379596Y267042D01*
X379596Y256175D01*
X370233Y256175D01*
X370233Y248796D01*
X371721Y247309D01*
X371880Y247309D01*
X372226Y247247D01*
X372565Y247038D01*
X372795Y246713D01*
X372880Y246324D01*
X372807Y245933D01*
X372587Y245601D01*
X366975Y239989D01*
X366975Y230695D01*
X366908Y230335D01*
X366693Y229999D01*
X366365Y229774D01*
X365975Y229695D01*
X365761Y229695D01*
X357680Y221614D01*
X357680Y210186D01*
X365761Y202105D01*
X377189Y202105D01*
X385270Y210186D01*
X385270Y221614D01*
X377189Y229695D01*
X376975Y229695D01*
X376615Y229762D01*
X376279Y229977D01*
X376054Y230305D01*
X375975Y230695D01*
X375975Y235847D01*
X376048Y236222D01*
X376268Y236554D01*
X379396Y239682D01*
X379713Y239896D01*
X380103Y239975D01*
X411806Y239975D01*
X412167Y239908D01*
X412502Y239693D01*
X412727Y239365D01*
X412760Y239200D01*
X432553Y239200D01*
X432573Y239311D01*
X432788Y239646D01*
X433116Y239871D01*
X433506Y239950D01*
X448243Y239950D01*
X448619Y239877D01*
X448950Y239657D01*
X452157Y236450D01*
X452371Y236133D01*
X452450Y235743D01*
X452450Y232655D01*
X452388Y232310D01*
X452179Y231971D01*
X451855Y231741D01*
X451466Y231656D01*
X451075Y231729D01*
X450743Y231948D01*
X450484Y232207D01*
X444866Y232207D01*
X442902Y230243D01*
X442585Y230029D01*
X442195Y229950D01*
X433506Y229950D01*
X433146Y230017D01*
X432810Y230232D01*
X432585Y230560D01*
X432557Y230700D01*
X412806Y230700D01*
X412806Y229091D01*
X412733Y228716D01*
X412513Y228384D01*
X412346Y228217D01*
X412346Y222183D01*
X412513Y222016D01*
X412727Y221699D01*
X412806Y221309D01*
X412806Y219700D01*
X432553Y219700D01*
X432573Y219811D01*
X432788Y220146D01*
X433116Y220371D01*
X433506Y220450D01*
X442645Y220450D01*
X443020Y220377D01*
X443352Y220157D01*
X444866Y218643D01*
X450484Y218643D01*
X450743Y218902D01*
X451031Y219103D01*
X451418Y219194D01*
X451811Y219127D01*
X452146Y218913D01*
X452371Y218585D01*
X452450Y218195D01*
X452450Y209302D01*
X455332Y206420D01*
X455546Y206103D01*
X455625Y205713D01*
X455625Y187127D01*
X455552Y186752D01*
X455332Y186420D01*
X454732Y185820D01*
X454430Y185612D01*
X454041Y185527D01*
X453650Y185600D01*
X453318Y185820D01*
X452168Y186970D01*
X443182Y186970D01*
X442032Y185820D01*
X441730Y185612D01*
X441341Y185527D01*
X440950Y185600D01*
X440618Y185820D01*
X439468Y186970D01*
X430482Y186970D01*
X428725Y185213D01*
X428725Y183345D01*
X428658Y182985D01*
X428443Y182649D01*
X428115Y182424D01*
X427725Y182345D01*
X424977Y182345D01*
X424617Y182412D01*
X424281Y182627D01*
X424056Y182955D01*
X424015Y183156D01*
X422218Y184953D01*
X422004Y185270D01*
X421925Y185660D01*
X421925Y191693D01*
X421012Y193899D01*
X415231Y199679D01*
X415031Y199967D01*
X414939Y200354D01*
X415006Y200747D01*
X415220Y201082D01*
X415548Y201307D01*
X415939Y201386D01*
X421656Y201386D01*
X421656Y204700D01*
X412806Y204700D01*
X412806Y203503D01*
X412742Y203150D01*
X412530Y202813D01*
X412203Y202585D01*
X411814Y202503D01*
X411423Y202579D01*
X410768Y202850D01*
X407230Y202850D01*
X406855Y202923D01*
X406523Y203143D01*
X406034Y203632D01*
X400416Y203632D01*
X396443Y199659D01*
X396443Y194041D01*
X400416Y190068D01*
X406034Y190068D01*
X406246Y190280D01*
X406548Y190487D01*
X406937Y190572D01*
X407328Y190499D01*
X407660Y190280D01*
X409632Y188308D01*
X409846Y187991D01*
X409925Y187601D01*
X409925Y185952D01*
X409858Y185591D01*
X409643Y185256D01*
X409315Y185031D01*
X408925Y184952D01*
X408088Y184952D01*
X406782Y183645D01*
X406479Y183438D01*
X406091Y183352D01*
X405699Y183425D01*
X405368Y183645D01*
X404521Y184492D01*
X398646Y184492D01*
X398646Y164759D01*
X404521Y164759D01*
X405368Y165605D01*
X405670Y165812D01*
X406059Y165898D01*
X406450Y165825D01*
X406782Y165605D01*
X408088Y164299D01*
X422220Y164299D01*
X423977Y166056D01*
X423977Y169345D01*
X424044Y169706D01*
X424259Y170041D01*
X424587Y170266D01*
X424977Y170345D01*
X427725Y170345D01*
X428086Y170278D01*
X428421Y170063D01*
X428646Y169735D01*
X428725Y169345D01*
X428725Y167477D01*
X430482Y165720D01*
X439816Y165720D01*
X439861Y165731D01*
X440254Y165664D01*
X440589Y165449D01*
X440814Y165121D01*
X440893Y164731D01*
X440893Y159116D01*
X444077Y155932D01*
X444278Y155644D01*
X444369Y155257D01*
X444302Y154865D01*
X444088Y154529D01*
X443760Y154304D01*
X443370Y154225D01*
X386270Y154225D01*
X385910Y154292D01*
X385574Y154507D01*
X385349Y154835D01*
X385343Y154866D01*
X377189Y163020D01*
X365761Y163020D01*
X357680Y154939D01*
X357680Y143511D01*
X365761Y135430D01*
X377189Y135430D01*
X385336Y143576D01*
X385337Y143586D01*
X385552Y143921D01*
X385880Y144146D01*
X386270Y144225D01*
X430670Y144225D01*
X431015Y144163D01*
X431354Y143954D01*
X431584Y143630D01*
X431669Y143241D01*
X431597Y142850D01*
X431377Y142518D01*
X428193Y139334D01*
X428193Y133716D01*
X429123Y132785D01*
X429331Y132483D01*
X429416Y132094D01*
X429343Y131703D01*
X429123Y131371D01*
X428725Y130973D01*
X428725Y113237D01*
X430482Y111480D01*
X432811Y111480D01*
X433156Y111418D01*
X433495Y111209D01*
X433725Y110885D01*
X433810Y110496D01*
X433738Y110105D01*
X433518Y109773D01*
X433352Y109607D01*
X433035Y109393D01*
X432645Y109314D01*
X426027Y109314D01*
X417897Y101185D01*
X417885Y101165D01*
X417561Y100935D01*
X417172Y100850D01*
X416781Y100923D01*
X416449Y101142D01*
X412384Y105207D01*
X406766Y105207D01*
X406634Y105075D01*
X406346Y104875D01*
X405959Y104783D01*
X405567Y104850D01*
X405231Y105064D01*
X405006Y105392D01*
X404927Y105782D01*
X404927Y112745D01*
X405000Y113121D01*
X405220Y113453D01*
X408735Y116968D01*
X409725Y119357D01*
X409725Y126670D01*
X409798Y127045D01*
X410007Y127360D01*
X410007Y132984D01*
X406034Y136957D01*
X400416Y136957D01*
X396443Y132984D01*
X396443Y127361D01*
X396646Y127060D01*
X396725Y126670D01*
X396725Y123757D01*
X396652Y123381D01*
X396432Y123050D01*
X395127Y121744D01*
X394810Y121531D01*
X394420Y121452D01*
X389038Y121452D01*
X387732Y120145D01*
X387429Y119938D01*
X387041Y119852D01*
X386649Y119925D01*
X386318Y120145D01*
X385471Y120992D01*
X379596Y120992D01*
X379596Y101259D01*
X385471Y101259D01*
X386318Y102105D01*
X386620Y102312D01*
X387009Y102398D01*
X387400Y102325D01*
X387732Y102105D01*
X389311Y100526D01*
X389525Y100209D01*
X389604Y99819D01*
X389604Y97031D01*
X389531Y96656D01*
X389311Y96324D01*
X387732Y94745D01*
X387429Y94538D01*
X387041Y94452D01*
X386649Y94525D01*
X386318Y94745D01*
X385471Y95592D01*
X379596Y95592D01*
X379596Y84725D01*
X370233Y84725D01*
X370233Y77346D01*
X371721Y75859D01*
X371880Y75859D01*
X372226Y75797D01*
X372565Y75588D01*
X372795Y75263D01*
X372880Y74874D01*
X372807Y74483D01*
X372587Y74151D01*
X366975Y68539D01*
X366975Y59245D01*
X366908Y58885D01*
X366693Y58549D01*
X366365Y58324D01*
X365975Y58245D01*
X365761Y58245D01*
X357680Y50164D01*
X357680Y38736D01*
X365761Y30655D01*
X377189Y30655D01*
X385270Y38736D01*
X385270Y50164D01*
X377189Y58245D01*
X376975Y58245D01*
X376615Y58312D01*
X376279Y58527D01*
X376054Y58855D01*
X375975Y59245D01*
X375975Y64397D01*
X376048Y64772D01*
X376268Y65104D01*
X379396Y68232D01*
X379713Y68446D01*
X380103Y68525D01*
X411806Y68525D01*
X412167Y68458D01*
X412502Y68243D01*
X412727Y67915D01*
X412760Y67750D01*
X432553Y67750D01*
X432573Y67861D01*
X432788Y68196D01*
X433116Y68421D01*
X433506Y68500D01*
X443518Y68500D01*
X450108Y75090D01*
X450396Y75291D01*
X450783Y75383D01*
X451176Y75316D01*
X451511Y75102D01*
X451736Y74773D01*
X451815Y74383D01*
X451815Y68422D01*
X451742Y68046D01*
X451522Y67715D01*
X442600Y58793D01*
X442283Y58579D01*
X441893Y58500D01*
X433506Y58500D01*
X433146Y58567D01*
X432810Y58782D01*
X432585Y59110D01*
X432557Y59250D01*
X412806Y59250D01*
X412806Y57641D01*
X412733Y57266D01*
X412513Y56934D01*
X412346Y56767D01*
X412346Y50733D01*
X412513Y50566D01*
X412727Y50249D01*
X412806Y49859D01*
X412806Y48250D01*
X432553Y48250D01*
X432573Y48361D01*
X432788Y48696D01*
X433116Y48921D01*
X433506Y49000D01*
X446268Y49000D01*
X446614Y48938D01*
X446953Y48729D01*
X447183Y48405D01*
X447268Y48016D01*
X447195Y47625D01*
X446975Y47293D01*
X445475Y45793D01*
X445158Y45579D01*
X444768Y45500D01*
X433506Y45500D01*
X433146Y45567D01*
X432810Y45782D01*
X432585Y46110D01*
X432557Y46250D01*
X412806Y46250D01*
X412806Y44641D01*
X412733Y44266D01*
X412513Y43934D01*
X412346Y43767D01*
X412346Y37733D01*
X412513Y37566D01*
X412727Y37249D01*
X412806Y36859D01*
X412806Y35250D01*
X432553Y35250D01*
X432573Y35361D01*
X432788Y35696D01*
X433116Y35921D01*
X433506Y36000D01*
X449118Y36000D01*
X455061Y41943D01*
X455349Y42144D01*
X455736Y42236D01*
X456129Y42169D01*
X456464Y41955D01*
X456689Y41626D01*
X456768Y41236D01*
X456768Y38466D01*
X460741Y34493D01*
X466359Y34493D01*
X467027Y35161D01*
X467315Y35362D01*
X467702Y35453D01*
X468095Y35386D01*
X468430Y35172D01*
X468655Y34844D01*
X468734Y34454D01*
X468734Y31233D01*
X470491Y29476D01*
X487917Y29476D01*
X488035Y29500D01*
X554220Y29500D01*
X554595Y29427D01*
X554927Y29207D01*
X555991Y28143D01*
X561609Y28143D01*
X565582Y32116D01*
X565582Y37734D01*
X562523Y40793D01*
X562323Y41081D01*
X562231Y41468D01*
X562298Y41861D01*
X562512Y42196D01*
X562840Y42421D01*
X563230Y42500D01*
X573093Y42500D01*
X582600Y52007D01*
X582600Y76993D01*
X582673Y77369D01*
X582893Y77700D01*
X584764Y79572D01*
X585045Y79769D01*
X585432Y79864D01*
X585825Y79800D01*
X586162Y79589D01*
X586389Y79262D01*
X586472Y78873D01*
X586395Y78482D01*
X585010Y75137D01*
X585010Y70913D01*
X586627Y67009D01*
X589614Y64022D01*
X593518Y62405D01*
X612982Y62405D01*
X616886Y64022D01*
X619873Y67009D01*
X620375Y68220D01*
X620569Y68521D01*
X620894Y68751D01*
X621282Y68837D01*
X621674Y68764D01*
X622006Y68544D01*
X626532Y64017D01*
X626746Y63700D01*
X626825Y63310D01*
X626825Y24710D01*
X626752Y24335D01*
X626532Y24003D01*
X620522Y17993D01*
X620205Y17779D01*
G37*
%LPC*%
G36*
X370233Y283575D02*
X377596Y283575D01*
X377596Y292442D01*
X371721Y292442D01*
X370233Y290954D01*
X370233Y283575D01*
G37*
G36*
X371721Y272709D02*
X377596Y272709D01*
X377596Y281575D01*
X370233Y281575D01*
X370233Y274196D01*
X371721Y272709D01*
G37*
G36*
X370233Y258175D02*
X377596Y258175D01*
X377596Y267042D01*
X371721Y267042D01*
X370233Y265554D01*
X370233Y258175D01*
G37*
G36*
X412806Y232700D02*
X432506Y232700D01*
X432506Y234891D01*
X432496Y234934D01*
X432506Y234985D01*
X432506Y237200D01*
X412806Y237200D01*
X412806Y235009D01*
X412816Y234966D01*
X412806Y234915D01*
X412806Y232700D01*
G37*
G36*
X423656Y201386D02*
X431018Y201386D01*
X432506Y202874D01*
X432506Y203189D01*
X432568Y203534D01*
X432777Y203873D01*
X433101Y204103D01*
X433490Y204188D01*
X433881Y204116D01*
X434213Y203896D01*
X435341Y202768D01*
X440959Y202768D01*
X444932Y206741D01*
X444932Y212359D01*
X440959Y216332D01*
X438500Y216332D01*
X438124Y216405D01*
X437793Y216625D01*
X437468Y216950D01*
X433506Y216950D01*
X433146Y217017D01*
X432810Y217232D01*
X432585Y217560D01*
X432557Y217700D01*
X412806Y217700D01*
X412806Y216091D01*
X412733Y215716D01*
X412513Y215384D01*
X412346Y215217D01*
X412346Y209183D01*
X412513Y209016D01*
X412727Y208699D01*
X412806Y208309D01*
X412806Y206700D01*
X423656Y206700D01*
X423656Y201386D01*
G37*
G36*
X389283Y175625D02*
X396646Y175625D01*
X396646Y184492D01*
X390771Y184492D01*
X389283Y183004D01*
X389283Y175625D01*
G37*
G36*
X390771Y164759D02*
X396646Y164759D01*
X396646Y173625D01*
X389283Y173625D01*
X389283Y166246D01*
X390771Y164759D01*
G37*
G36*
X370233Y112125D02*
X377596Y112125D01*
X377596Y120992D01*
X371721Y120992D01*
X370233Y119504D01*
X370233Y112125D01*
G37*
G36*
X371721Y101259D02*
X377596Y101259D01*
X377596Y110125D01*
X370233Y110125D01*
X370233Y102746D01*
X371721Y101259D01*
G37*
G36*
X370233Y86725D02*
X377596Y86725D01*
X377596Y95592D01*
X371721Y95592D01*
X370233Y94104D01*
X370233Y86725D01*
G37*
G36*
X412806Y61250D02*
X432506Y61250D01*
X432506Y63441D01*
X432496Y63484D01*
X432506Y63535D01*
X432506Y65750D01*
X412806Y65750D01*
X412806Y63559D01*
X412816Y63516D01*
X412806Y63465D01*
X412806Y61250D01*
G37*
G36*
X414294Y29936D02*
X421656Y29936D01*
X421656Y33250D01*
X412806Y33250D01*
X412806Y31424D01*
X414294Y29936D01*
G37*
G36*
X423656Y29936D02*
X431018Y29936D01*
X432506Y31424D01*
X432506Y33250D01*
X423656Y33250D01*
X423656Y29936D01*
G37*
%LPD*%
G36*
X529409Y323489D02*
X529022Y323397D01*
X528630Y323464D01*
X528294Y323678D01*
X528069Y324007D01*
X527990Y324397D01*
X527990Y343058D01*
X528063Y343434D01*
X528283Y343765D01*
X531900Y347382D01*
X532217Y347596D01*
X532607Y347675D01*
X551222Y347675D01*
X551567Y347613D01*
X551906Y347404D01*
X552136Y347080D01*
X552222Y346691D01*
X552149Y346300D01*
X551929Y345968D01*
X551702Y345741D01*
X550085Y341837D01*
X550085Y337613D01*
X551702Y333709D01*
X551929Y333482D01*
X552130Y333194D01*
X552221Y332807D01*
X552155Y332415D01*
X551940Y332079D01*
X551612Y331854D01*
X551222Y331775D01*
X537782Y331775D01*
X529697Y323690D01*
X529409Y323489D01*
G37*
G36*
X318580Y303529D02*
X318190Y303450D01*
X313852Y303450D01*
X313492Y303517D01*
X313156Y303732D01*
X312931Y304060D01*
X312852Y304450D01*
X312852Y307019D01*
X311095Y308777D01*
X296963Y308777D01*
X295982Y307795D01*
X295680Y307588D01*
X295291Y307502D01*
X294900Y307575D01*
X294568Y307795D01*
X293587Y308777D01*
X285857Y308777D01*
X285511Y308838D01*
X285173Y309047D01*
X284942Y309372D01*
X284857Y309761D01*
X284930Y310152D01*
X285150Y310484D01*
X286182Y311516D01*
X286182Y313622D01*
X286255Y313997D01*
X286475Y314329D01*
X290750Y318604D01*
X290750Y319099D01*
X290817Y319460D01*
X291032Y319795D01*
X291360Y320020D01*
X291750Y320099D01*
X292479Y320099D01*
X294236Y321856D01*
X294236Y338544D01*
X292662Y340118D01*
X292461Y340406D01*
X292369Y340793D01*
X292436Y341186D01*
X292651Y341521D01*
X292979Y341746D01*
X293369Y341825D01*
X297181Y341825D01*
X297527Y341763D01*
X297865Y341554D01*
X298096Y341230D01*
X298181Y340841D01*
X298108Y340450D01*
X297888Y340118D01*
X296314Y338544D01*
X296314Y321856D01*
X298071Y320099D01*
X310869Y320099D01*
X312030Y321261D01*
X312333Y321468D01*
X312722Y321554D01*
X313113Y321481D01*
X313445Y321261D01*
X314606Y320099D01*
X327404Y320099D01*
X329161Y321856D01*
X329161Y338544D01*
X327587Y340118D01*
X327386Y340406D01*
X327294Y340793D01*
X327361Y341186D01*
X327576Y341521D01*
X327904Y341746D01*
X328294Y341825D01*
X332106Y341825D01*
X332452Y341763D01*
X332790Y341554D01*
X333021Y341230D01*
X333106Y340841D01*
X333033Y340450D01*
X332813Y340118D01*
X331239Y338544D01*
X331239Y321856D01*
X332996Y320099D01*
X333395Y320099D01*
X333756Y320032D01*
X334091Y319817D01*
X334316Y319489D01*
X334395Y319099D01*
X334395Y318175D01*
X334322Y317800D01*
X334102Y317468D01*
X328470Y311836D01*
X328153Y311622D01*
X327763Y311543D01*
X326697Y311543D01*
X318897Y303743D01*
X318580Y303529D01*
G37*
G36*
X665843Y206612D02*
X665454Y206527D01*
X665063Y206600D01*
X664731Y206819D01*
X661414Y210137D01*
X654598Y210137D01*
X654223Y210210D01*
X653891Y210430D01*
X646596Y217725D01*
X640840Y217725D01*
X640494Y217787D01*
X640156Y217996D01*
X639925Y218320D01*
X639840Y218709D01*
X639913Y219100D01*
X640133Y219432D01*
X641937Y221236D01*
X641937Y229614D01*
X636014Y235537D01*
X627636Y235537D01*
X622006Y229906D01*
X621710Y229702D01*
X621322Y229613D01*
X620931Y229683D01*
X620597Y229900D01*
X620375Y230230D01*
X619873Y231441D01*
X616886Y234428D01*
X612982Y236045D01*
X593518Y236045D01*
X589614Y234428D01*
X586627Y231441D01*
X585010Y227537D01*
X585010Y223313D01*
X586637Y219385D01*
X586805Y219144D01*
X586896Y218757D01*
X586830Y218365D01*
X586615Y218029D01*
X586287Y217804D01*
X585897Y217725D01*
X579652Y217725D01*
X579291Y217792D01*
X578956Y218007D01*
X578731Y218335D01*
X578652Y218725D01*
X578652Y222195D01*
X576848Y223998D01*
X576735Y224019D01*
X576399Y224234D01*
X576174Y224562D01*
X576095Y224952D01*
X576095Y239078D01*
X576162Y239439D01*
X576377Y239774D01*
X576705Y239999D01*
X577095Y240078D01*
X578718Y240078D01*
X582435Y241617D01*
X585420Y244602D01*
X585722Y244810D01*
X586111Y244895D01*
X586502Y244822D01*
X586834Y244602D01*
X589614Y241822D01*
X593518Y240205D01*
X612982Y240205D01*
X616886Y241822D01*
X619873Y244809D01*
X620375Y246020D01*
X620569Y246321D01*
X620894Y246551D01*
X621282Y246637D01*
X621674Y246564D01*
X622006Y246344D01*
X627636Y240713D01*
X636014Y240713D01*
X641937Y246636D01*
X641937Y255014D01*
X636014Y260937D01*
X627636Y260937D01*
X622006Y255306D01*
X621710Y255102D01*
X621322Y255013D01*
X620931Y255083D01*
X620597Y255300D01*
X620375Y255630D01*
X619873Y256841D01*
X616886Y259828D01*
X612982Y261445D01*
X607127Y261445D01*
X606781Y261507D01*
X606443Y261716D01*
X606212Y262040D01*
X606127Y262429D01*
X606200Y262820D01*
X606420Y263152D01*
X608029Y264762D01*
X608067Y264966D01*
X608282Y265301D01*
X608610Y265526D01*
X609000Y265605D01*
X612982Y265605D01*
X616886Y267222D01*
X619873Y270209D01*
X620375Y271420D01*
X620569Y271721D01*
X620894Y271951D01*
X621282Y272037D01*
X621674Y271964D01*
X622006Y271744D01*
X627636Y266113D01*
X636014Y266113D01*
X641937Y272036D01*
X641937Y280414D01*
X639883Y282468D01*
X639682Y282756D01*
X639590Y283143D01*
X639657Y283536D01*
X639871Y283871D01*
X640200Y284096D01*
X640590Y284175D01*
X646493Y284175D01*
X653538Y291220D01*
X653855Y291434D01*
X654245Y291513D01*
X661414Y291513D01*
X664731Y294831D01*
X665034Y295038D01*
X665422Y295123D01*
X665814Y295050D01*
X666145Y294831D01*
X668354Y292622D01*
X672258Y291005D01*
X691722Y291005D01*
X693537Y291757D01*
X693888Y291832D01*
X694281Y291766D01*
X694616Y291551D01*
X694841Y291223D01*
X694920Y290833D01*
X694920Y287017D01*
X694856Y286664D01*
X694644Y286327D01*
X694317Y286100D01*
X693928Y286017D01*
X693537Y286093D01*
X691722Y286845D01*
X672258Y286845D01*
X668354Y285228D01*
X666145Y283019D01*
X665843Y282812D01*
X665454Y282727D01*
X665063Y282800D01*
X664731Y283019D01*
X661414Y286337D01*
X653036Y286337D01*
X647113Y280414D01*
X647113Y272036D01*
X653036Y266113D01*
X661414Y266113D01*
X664731Y269431D01*
X665034Y269638D01*
X665422Y269723D01*
X665814Y269650D01*
X666145Y269431D01*
X668354Y267222D01*
X672258Y265605D01*
X691722Y265605D01*
X693537Y266357D01*
X693888Y266432D01*
X694281Y266366D01*
X694616Y266151D01*
X694841Y265823D01*
X694920Y265433D01*
X694920Y261617D01*
X694856Y261264D01*
X694644Y260927D01*
X694317Y260700D01*
X693928Y260617D01*
X693537Y260693D01*
X691722Y261445D01*
X672258Y261445D01*
X668354Y259828D01*
X666145Y257619D01*
X665843Y257412D01*
X665454Y257327D01*
X665063Y257400D01*
X664731Y257619D01*
X661414Y260937D01*
X653036Y260937D01*
X647113Y255014D01*
X647113Y246636D01*
X653036Y240713D01*
X661414Y240713D01*
X664731Y244031D01*
X665034Y244238D01*
X665422Y244323D01*
X665814Y244250D01*
X666145Y244031D01*
X668354Y241822D01*
X672258Y240205D01*
X691722Y240205D01*
X693537Y240957D01*
X693888Y241032D01*
X694281Y240966D01*
X694616Y240751D01*
X694841Y240423D01*
X694920Y240033D01*
X694920Y236217D01*
X694856Y235864D01*
X694644Y235527D01*
X694317Y235300D01*
X693928Y235217D01*
X693537Y235293D01*
X691722Y236045D01*
X672258Y236045D01*
X668354Y234428D01*
X666145Y232219D01*
X665843Y232012D01*
X665454Y231927D01*
X665063Y232000D01*
X664731Y232219D01*
X661414Y235537D01*
X653036Y235537D01*
X647113Y229614D01*
X647113Y221236D01*
X653036Y215313D01*
X661414Y215313D01*
X664731Y218631D01*
X665034Y218838D01*
X665422Y218923D01*
X665814Y218850D01*
X666145Y218631D01*
X668354Y216422D01*
X672258Y214805D01*
X691722Y214805D01*
X693537Y215557D01*
X693888Y215632D01*
X694281Y215566D01*
X694616Y215351D01*
X694841Y215023D01*
X694920Y214633D01*
X694920Y210817D01*
X694856Y210464D01*
X694644Y210127D01*
X694317Y209900D01*
X693928Y209817D01*
X693537Y209893D01*
X691722Y210645D01*
X672258Y210645D01*
X668354Y209028D01*
X666145Y206819D01*
X665843Y206612D01*
G37*
G36*
X503508Y97579D02*
X503118Y97500D01*
X493982Y97500D01*
X493636Y97562D01*
X493298Y97771D01*
X493067Y98095D01*
X492982Y98484D01*
X493055Y98875D01*
X493275Y99207D01*
X496875Y102807D01*
X496875Y172545D01*
X496948Y172920D01*
X497168Y173252D01*
X498907Y174991D01*
X498907Y180609D01*
X494934Y184582D01*
X489316Y184582D01*
X489057Y184323D01*
X488769Y184123D01*
X488382Y184031D01*
X487990Y184098D01*
X487654Y184312D01*
X487429Y184640D01*
X487350Y185030D01*
X487350Y191595D01*
X487423Y191970D01*
X487643Y192302D01*
X489382Y194041D01*
X489382Y199950D01*
X489449Y200311D01*
X489664Y200646D01*
X489992Y200871D01*
X490382Y200950D01*
X544695Y200950D01*
X545070Y200877D01*
X545402Y200657D01*
X546466Y199593D01*
X552084Y199593D01*
X556057Y203566D01*
X556057Y207591D01*
X556119Y207936D01*
X556328Y208275D01*
X556652Y208505D01*
X557041Y208591D01*
X557432Y208518D01*
X557764Y208298D01*
X559305Y206757D01*
X559512Y206454D01*
X559598Y206066D01*
X559525Y205674D01*
X559305Y205343D01*
X558459Y204496D01*
X558459Y198621D01*
X578192Y198621D01*
X578192Y204496D01*
X577345Y205343D01*
X577138Y205645D01*
X577052Y206034D01*
X577125Y206425D01*
X577345Y206757D01*
X578020Y207432D01*
X578337Y207646D01*
X578727Y207725D01*
X586547Y207725D01*
X586893Y207663D01*
X587232Y207454D01*
X587462Y207130D01*
X587547Y206741D01*
X587474Y206350D01*
X587254Y206018D01*
X587017Y205780D01*
X585470Y202046D01*
X585470Y201025D01*
X604250Y201025D01*
X604250Y199025D01*
X585470Y199025D01*
X585470Y198004D01*
X587017Y194270D01*
X587504Y193782D01*
X587705Y193494D01*
X587797Y193107D01*
X587730Y192715D01*
X587516Y192379D01*
X587187Y192154D01*
X586797Y192075D01*
X579192Y192075D01*
X578831Y192142D01*
X578496Y192357D01*
X578271Y192685D01*
X578192Y193075D01*
X578192Y196621D01*
X558459Y196621D01*
X558459Y193075D01*
X558391Y192715D01*
X558177Y192379D01*
X557849Y192154D01*
X557459Y192075D01*
X551355Y192075D01*
X550980Y192148D01*
X550648Y192368D01*
X548909Y194107D01*
X543291Y194107D01*
X539318Y190134D01*
X539318Y184516D01*
X542752Y181082D01*
X542953Y180794D01*
X543044Y180407D01*
X542977Y180015D01*
X542763Y179679D01*
X542435Y179454D01*
X542045Y179375D01*
X515557Y179375D01*
X506425Y170243D01*
X506425Y100807D01*
X506352Y100431D01*
X506132Y100100D01*
X503825Y97793D01*
X503508Y97579D01*
G37*
G36*
X642533Y166754D02*
X642143Y166675D01*
X640590Y166675D01*
X640244Y166737D01*
X639906Y166946D01*
X639675Y167270D01*
X639590Y167659D01*
X639663Y168050D01*
X639883Y168382D01*
X641937Y170436D01*
X641937Y178814D01*
X636014Y184737D01*
X630082Y184737D01*
X629722Y184804D01*
X629386Y185019D01*
X629161Y185347D01*
X629082Y185737D01*
X629082Y189373D01*
X629149Y189734D01*
X629364Y190069D01*
X629692Y190294D01*
X630082Y190373D01*
X630825Y190373D01*
X630825Y201025D01*
X641477Y201025D01*
X641477Y204023D01*
X639482Y206018D01*
X639281Y206306D01*
X639190Y206693D01*
X639256Y207086D01*
X639471Y207421D01*
X639799Y207646D01*
X640189Y207725D01*
X642040Y207725D01*
X642415Y207652D01*
X642747Y207432D01*
X646820Y203359D01*
X647034Y203042D01*
X647113Y202652D01*
X647113Y195836D01*
X653036Y189913D01*
X661414Y189913D01*
X664731Y193231D01*
X665034Y193438D01*
X665422Y193523D01*
X665814Y193450D01*
X666145Y193231D01*
X668354Y191022D01*
X672258Y189405D01*
X691722Y189405D01*
X693537Y190157D01*
X693888Y190232D01*
X694281Y190166D01*
X694616Y189951D01*
X694841Y189623D01*
X694920Y189233D01*
X694920Y185417D01*
X694856Y185064D01*
X694644Y184727D01*
X694317Y184500D01*
X693928Y184417D01*
X693537Y184493D01*
X691722Y185245D01*
X672258Y185245D01*
X668354Y183628D01*
X666145Y181419D01*
X665843Y181212D01*
X665454Y181127D01*
X665063Y181200D01*
X664731Y181419D01*
X661414Y184737D01*
X653036Y184737D01*
X647113Y178814D01*
X647113Y171645D01*
X647040Y171269D01*
X646820Y170938D01*
X642850Y166968D01*
X642533Y166754D01*
G37*
%LPC*%
G36*
X632825Y190373D02*
X635823Y190373D01*
X641477Y196027D01*
X641477Y199025D01*
X632825Y199025D01*
X632825Y190373D01*
G37*
%LPD*%
G36*
X474075Y132270D02*
X474075Y121105D01*
X472075Y121105D01*
X472075Y132270D01*
X468773Y132270D01*
X467757Y131255D01*
X467455Y131047D01*
X467066Y130962D01*
X466675Y131035D01*
X466343Y131254D01*
X465668Y131930D01*
X465454Y132247D01*
X465375Y132637D01*
X465375Y143225D01*
X465442Y143586D01*
X465657Y143921D01*
X465985Y144146D01*
X466375Y144225D01*
X468796Y144225D01*
X476143Y151572D01*
X476431Y151773D01*
X476818Y151864D01*
X477211Y151797D01*
X477546Y151583D01*
X477771Y151255D01*
X477850Y150865D01*
X477850Y133270D01*
X477783Y132910D01*
X477568Y132574D01*
X477240Y132349D01*
X476850Y132270D01*
X474075Y132270D01*
G37*
G36*
X372515Y511452D02*
X371150Y511175D01*
X340050Y511175D01*
X338788Y511410D01*
X337615Y512161D01*
X336827Y513310D01*
X336550Y514675D01*
X336550Y561650D01*
X336785Y562912D01*
X337536Y564085D01*
X338685Y564873D01*
X340050Y565150D01*
X345891Y565150D01*
X346066Y565168D01*
X346075Y565282D01*
X346075Y596575D01*
X346310Y597837D01*
X347061Y599010D01*
X348210Y599798D01*
X349575Y600075D01*
X361625Y600075D01*
X362887Y599840D01*
X364060Y599089D01*
X364848Y597940D01*
X365125Y596575D01*
X365125Y565334D01*
X365143Y565159D01*
X365257Y565150D01*
X371150Y565150D01*
X372412Y564915D01*
X373585Y564164D01*
X374373Y563015D01*
X374650Y561650D01*
X374650Y549459D01*
X374668Y549284D01*
X374782Y549275D01*
X447350Y549275D01*
X448612Y549040D01*
X449785Y548289D01*
X450573Y547140D01*
X450850Y545775D01*
X450850Y524200D01*
X450615Y522938D01*
X449864Y521765D01*
X448715Y520977D01*
X447350Y520700D01*
X374834Y520700D01*
X374659Y520682D01*
X374650Y520568D01*
X374650Y514675D01*
X374415Y513413D01*
X373664Y512240D01*
X372515Y511452D01*
G37*
D10*
X130175Y587125D03*
X130175Y524125D03*
D11*
X657225Y73025D03*
D12*
X631825Y73025D03*
X657225Y98425D03*
X631825Y98425D03*
X657225Y123825D03*
X631825Y123825D03*
X657225Y149225D03*
X631825Y149225D03*
X657225Y174625D03*
X631825Y174625D03*
X657225Y200025D03*
X631825Y200025D03*
X657225Y225425D03*
X631825Y225425D03*
X657225Y250825D03*
X631825Y250825D03*
X657225Y276225D03*
X631825Y276225D03*
X657225Y301625D03*
X631825Y301625D03*
X657225Y327025D03*
X631825Y327025D03*
X657225Y352425D03*
X631825Y352425D03*
X657225Y377825D03*
X631825Y377825D03*
X631825Y403225D03*
X657225Y403225D03*
X631825Y428625D03*
X657225Y428625D03*
X631825Y454025D03*
X657225Y454025D03*
X657225Y479425D03*
X631825Y479425D03*
X631825Y504825D03*
X657225Y504825D03*
X657225Y530225D03*
X631825Y530225D03*
X657225Y555625D03*
X631825Y555625D03*
D13*
X196850Y568655D03*
X196850Y587045D03*
X228600Y568655D03*
X228600Y587045D03*
D14*
X168275Y586604D03*
X168275Y569096D03*
X196850Y551679D03*
X196850Y534171D03*
X228600Y551679D03*
X228600Y534171D03*
D15*
X523113Y415925D02*
X537337Y415925D01*
X537337Y441325D02*
X523113Y441325D01*
D16*
X560705Y339725D02*
X575945Y339725D01*
X575945Y365125D02*
X560705Y365125D01*
X560705Y390525D02*
X575945Y390525D01*
X575945Y415925D02*
X560705Y415925D01*
X560705Y441325D02*
X575945Y441325D01*
X575945Y466725D02*
X560705Y466725D01*
D17*
X114490Y133350D02*
X101410Y133350D01*
X101410Y158750D02*
X114490Y158750D01*
D18*
X57150Y107950D03*
X57150Y209550D03*
D19*
X212725Y158750D03*
D16*
X595630Y73025D02*
X610870Y73025D01*
X610870Y98425D02*
X595630Y98425D01*
X595630Y123825D02*
X610870Y123825D01*
X610870Y149225D02*
X595630Y149225D01*
X595630Y174625D02*
X610870Y174625D01*
X610870Y200025D02*
X595630Y200025D01*
X595630Y225425D02*
X610870Y225425D01*
X610870Y250825D02*
X595630Y250825D01*
X595630Y276225D02*
X610870Y276225D01*
X610870Y301625D02*
X595630Y301625D01*
X595630Y327025D02*
X610870Y327025D01*
X610870Y352425D02*
X595630Y352425D01*
X595630Y377825D02*
X610870Y377825D01*
X610870Y403225D02*
X595630Y403225D01*
X595630Y428625D02*
X610870Y428625D01*
X610870Y454025D02*
X595630Y454025D01*
X595630Y479425D02*
X610870Y479425D01*
X610870Y504825D02*
X595630Y504825D01*
X595630Y530225D02*
X610870Y530225D01*
X610870Y555625D02*
X595630Y555625D01*
X674370Y73025D02*
X689610Y73025D01*
X689610Y98425D02*
X674370Y98425D01*
X674370Y123825D02*
X689610Y123825D01*
X689610Y149225D02*
X674370Y149225D01*
X674370Y174625D02*
X689610Y174625D01*
X689610Y200025D02*
X674370Y200025D01*
X674370Y225425D02*
X689610Y225425D01*
X689610Y250825D02*
X674370Y250825D01*
X674370Y276225D02*
X689610Y276225D01*
X689610Y301625D02*
X674370Y301625D01*
X674370Y327025D02*
X689610Y327025D01*
X689610Y352425D02*
X674370Y352425D01*
X674370Y377825D02*
X689610Y377825D01*
X689610Y403225D02*
X674370Y403225D01*
X674370Y428625D02*
X689610Y428625D01*
X689610Y454025D02*
X674370Y454025D01*
X674370Y479425D02*
X689610Y479425D01*
X689610Y504825D02*
X674370Y504825D01*
X674370Y530225D02*
X689610Y530225D01*
X689610Y555625D02*
X674370Y555625D01*
D15*
X576707Y250190D02*
X562483Y250190D01*
X562483Y275590D02*
X576707Y275590D01*
D13*
X263525Y95580D03*
X263525Y113970D03*
X263525Y60655D03*
X263525Y79045D03*
D14*
X212725Y113529D03*
X212725Y96021D03*
D20*
X70231Y596646D02*
X50419Y596646D01*
X50419Y546354D02*
X70231Y546354D01*
D21*
X196889Y628650D03*
X228561Y628650D03*
D16*
X424180Y533400D02*
X439420Y533400D01*
X439420Y508000D02*
X424180Y508000D01*
D22*
X378600Y586477D03*
X355600Y586477D03*
X332600Y586477D03*
D23*
X355600Y524977D03*
D15*
X561213Y542925D02*
X575437Y542925D01*
X575437Y568325D02*
X561213Y568325D01*
D24*
X260400Y391000D03*
X260400Y386000D03*
X260400Y381000D03*
X260400Y376000D03*
X260400Y371000D03*
D25*
X269400Y362000D03*
X274400Y362000D03*
X279400Y362000D03*
X284400Y362000D03*
X289400Y362000D03*
D24*
X298400Y371000D03*
X298400Y376000D03*
X298400Y381000D03*
X298400Y386000D03*
X298400Y391000D03*
D25*
X289400Y400000D03*
X284400Y400000D03*
X279400Y400000D03*
X274400Y400000D03*
X269400Y400000D03*
D26*
X279400Y381000D03*
D27*
X221920Y396875D03*
X203530Y396875D03*
D14*
X241300Y350021D03*
X241300Y367529D03*
D28*
X24000Y279825D03*
X117000Y279825D03*
X43000Y348825D03*
D29*
X157500Y321825D03*
D30*
X15000Y348825D03*
D27*
X221920Y365125D03*
X203530Y365125D03*
X168605Y396875D03*
X186995Y396875D03*
X168605Y365125D03*
X186995Y365125D03*
D13*
X149225Y472745D03*
X149225Y454355D03*
X180975Y472745D03*
X180975Y454355D03*
D27*
X221920Y330200D03*
X203530Y330200D03*
D16*
X55245Y463550D02*
X40005Y463550D01*
X40005Y438150D02*
X55245Y438150D01*
X55245Y412750D02*
X40005Y412750D01*
D14*
X244475Y437379D03*
X244475Y419871D03*
D27*
X251155Y298450D03*
X269545Y298450D03*
D31*
X269104Y330200D03*
X251596Y330200D03*
D27*
X251155Y273050D03*
X269545Y273050D03*
X286080Y330200D03*
X304470Y330200D03*
X321005Y330200D03*
X339395Y330200D03*
D31*
X304029Y298450D03*
X286521Y298450D03*
D13*
X244475Y454355D03*
X244475Y472745D03*
X273050Y454355D03*
X273050Y472745D03*
X216227Y472745D03*
X216227Y454355D03*
D14*
X215900Y419871D03*
X215900Y437379D03*
D13*
X304800Y472745D03*
X304800Y454355D03*
X304800Y437820D03*
X304800Y419430D03*
X358775Y402895D03*
X358775Y384505D03*
X384175Y384505D03*
X384175Y402895D03*
D14*
X333375Y419871D03*
X333375Y437379D03*
X333375Y384946D03*
X333375Y402454D03*
D31*
X378596Y111125D03*
X396104Y111125D03*
X378596Y85725D03*
X396104Y85725D03*
D32*
X434975Y122105D03*
X447675Y122105D03*
X460375Y122105D03*
X473075Y122105D03*
X473075Y176345D03*
X460375Y176345D03*
X447675Y176345D03*
X434975Y176345D03*
D31*
X378596Y282575D03*
X396104Y282575D03*
X378596Y257175D03*
X396104Y257175D03*
D33*
X264000Y155800D03*
X264000Y149300D03*
X264000Y142800D03*
X264000Y136300D03*
X307500Y136300D03*
X307500Y142800D03*
X307500Y149300D03*
X307500Y155800D03*
D31*
X289696Y177800D03*
X307204Y177800D03*
D34*
X422656Y264200D03*
X422656Y257700D03*
X422656Y251200D03*
X422656Y244700D03*
X422656Y238200D03*
X422656Y231700D03*
X422656Y225200D03*
X422656Y218700D03*
X422656Y212200D03*
X422656Y205700D03*
X479044Y205700D03*
X479044Y212200D03*
X479044Y218700D03*
X479044Y225200D03*
X479044Y231700D03*
X479044Y238200D03*
X479044Y244700D03*
X479044Y251200D03*
X479044Y257700D03*
X479044Y264200D03*
X422656Y92750D03*
X422656Y86250D03*
X422656Y79750D03*
X422656Y73250D03*
X422656Y66750D03*
X422656Y60250D03*
X422656Y53750D03*
X422656Y47250D03*
X422656Y40750D03*
X422656Y34250D03*
X479044Y34250D03*
X479044Y40750D03*
X479044Y47250D03*
X479044Y53750D03*
X479044Y60250D03*
X479044Y66750D03*
X479044Y73250D03*
X479044Y79750D03*
X479044Y86250D03*
X479044Y92750D03*
D19*
X371475Y215900D03*
X371475Y44450D03*
X323850Y276225D03*
X234950Y41275D03*
X371475Y149225D03*
D31*
X397646Y174625D03*
X415154Y174625D03*
D14*
X304800Y569096D03*
X304800Y586604D03*
X396875Y508771D03*
X396875Y526279D03*
X279400Y569096D03*
X279400Y586604D03*
X568325Y197621D03*
X568325Y215129D03*
D19*
X431800Y587375D03*
X104775Y41275D03*
X111125Y463550D03*
D35*
X341630Y618490D03*
D36*
X603250Y28575D03*
D37*
X228600Y520700D02*
X228600Y534171D01*
X168275Y555625D02*
X168275Y569096D01*
X130175Y524125D02*
X130175Y504819D01*
D36*
X228600Y520700D03*
X168275Y555625D03*
X130175Y504819D03*
X263525Y47625D03*
X279400Y555625D03*
X304800Y555625D03*
X396875Y495300D03*
X365125Y282575D03*
X365125Y257175D03*
X438150Y234950D03*
X438150Y63500D03*
X365125Y111125D03*
X365125Y85725D03*
X384175Y174625D03*
X276225Y177800D03*
X250825Y139700D03*
X196850Y520700D03*
X273050Y386543D03*
X284943Y374650D03*
X473075Y136525D03*
X438150Y22225D03*
X438150Y193675D03*
X384175Y415925D03*
X346075Y374650D03*
X288925Y419100D03*
D37*
X279400Y555625D02*
X279400Y569096D01*
X304800Y569096D02*
X304800Y555625D01*
X396875Y508771D02*
X396875Y495300D01*
X384175Y415925D02*
X384175Y402895D01*
X346075Y381771D02*
X342900Y384946D01*
X333375Y384946D01*
X346075Y381771D02*
X346075Y374650D01*
X320675Y419430D02*
X304800Y419430D01*
X320675Y419430D02*
X288925Y419430D01*
X320675Y419430D02*
X332934Y419430D01*
X333375Y419871D01*
X288925Y419430D02*
X288925Y419100D01*
X365125Y282575D02*
X378596Y282575D01*
X378596Y257175D02*
X365125Y257175D01*
X384175Y174625D02*
X397646Y174625D01*
X378596Y111125D02*
X365125Y111125D01*
X365125Y85725D02*
X378596Y85725D01*
X473075Y122105D02*
X473075Y136525D01*
X264000Y136300D02*
X264000Y142800D01*
X263525Y60655D02*
X263525Y47625D01*
D38*
X107950Y44450D02*
X107950Y133350D01*
X107950Y44450D02*
X104775Y41275D01*
X379498Y587375D02*
X431800Y587375D01*
X379498Y587375D02*
X378600Y586477D01*
D39*
X289400Y391000D02*
X279400Y381000D01*
X289400Y391000D02*
X289400Y400000D01*
D37*
X196850Y520700D02*
X196850Y534171D01*
D36*
X165100Y441325D03*
X196850Y431800D03*
X263525Y314325D03*
X238125Y285750D03*
X260350Y409575D03*
D40*
X279400Y381000D02*
X284943Y375457D01*
X284943Y374650D01*
D36*
X540623Y339471D03*
D37*
X568325Y197621D02*
X567515Y196811D01*
D40*
X568325Y197621D02*
X581796Y197621D01*
X584200Y200025D01*
X603250Y200025D01*
D36*
X377825Y606425D03*
X317500Y314325D03*
X177800Y298450D03*
X396875Y50800D03*
X682625Y28575D03*
X644525Y415925D03*
X381000Y330200D03*
X384175Y454025D03*
X133350Y396875D03*
X428625Y288925D03*
X419100Y136525D03*
X396875Y222250D03*
X92075Y292100D03*
X644525Y263525D03*
X666115Y238760D03*
D37*
X434975Y136525D02*
X434975Y122105D01*
D36*
X434975Y136525D03*
D41*
X130175Y587125D02*
X69846Y587125D01*
X60325Y596646D01*
X130175Y587125D02*
X167754Y587125D01*
X168275Y586604D01*
X196409Y586604D01*
X196850Y587045D01*
D36*
X495300Y590550D03*
D38*
X495300Y641350D02*
X485775Y650875D01*
X460375Y650875D01*
X203200Y650875D01*
X200025Y647700D01*
X196850Y644525D01*
X495300Y641350D02*
X495300Y590550D01*
X196889Y628650D02*
X196889Y644486D01*
X196850Y644525D01*
X196889Y628650D02*
X196889Y587084D01*
X196850Y587045D01*
D36*
X569595Y312420D03*
D38*
X569595Y275590D01*
D42*
X228600Y551679D02*
X228600Y568655D01*
X196850Y568655D02*
X196850Y551679D01*
D37*
X447675Y176345D02*
X447675Y161925D01*
D36*
X447675Y161925D03*
D42*
X212725Y158750D02*
X107950Y158750D01*
X212725Y158750D02*
X212725Y113529D01*
D37*
X644525Y212725D02*
X657225Y200025D01*
X644525Y212725D02*
X622300Y212725D01*
D38*
X569595Y216399D02*
X569595Y250190D01*
X569595Y216399D02*
X568325Y215129D01*
D37*
X570729Y212725D01*
X622300Y212725D01*
D42*
X213166Y95580D02*
X212725Y96021D01*
X212725Y47625D01*
X219075Y41275D01*
X234950Y41275D01*
D37*
X279400Y95250D02*
X288925Y95250D01*
X292100Y98425D01*
X292100Y136525D01*
X292100Y139700D01*
X295275Y142875D01*
X307425Y142875D01*
X307500Y142800D01*
D38*
X213166Y95580D02*
X212725Y96021D01*
D37*
X263855Y95250D02*
X279400Y95250D01*
X263855Y95250D02*
X263525Y95580D01*
D38*
X213166Y95580D01*
X212725Y96021D01*
X263525Y94920D02*
X263525Y79045D01*
X263525Y94920D02*
X263855Y95250D01*
X356902Y526279D02*
X396875Y526279D01*
X356902Y526279D02*
X355600Y524977D01*
X357473Y523104D01*
X355600Y524977D02*
X355600Y586477D01*
X355600Y524977D02*
X357473Y523104D01*
X396875Y533400D02*
X431800Y533400D01*
X396875Y533400D02*
X396875Y526279D01*
X307975Y196850D02*
X307975Y178571D01*
X307204Y177800D01*
D37*
X307500Y177504D01*
X307500Y155800D01*
D38*
X333816Y402895D02*
X358775Y402895D01*
X333816Y402895D02*
X333375Y402454D01*
X358775Y402895D02*
X358775Y431800D01*
X149225Y472745D02*
X149225Y488950D01*
D39*
X304029Y402454D02*
X333375Y402454D01*
X298450Y396875D02*
X298400Y396825D01*
X298400Y391000D01*
X298450Y396875D02*
X298450Y403225D01*
X299221Y402454D02*
X304029Y402454D01*
X299221Y402454D02*
X298450Y403225D01*
X284400Y406400D02*
X284400Y400000D01*
X284400Y406400D02*
X287575Y409575D01*
X295275Y409575D01*
X298450Y406400D01*
X298450Y403225D01*
D38*
X263525Y113970D02*
X244475Y113970D01*
X244475Y114300D01*
X238125Y120650D01*
X238125Y165100D01*
X238125Y177800D01*
X358775Y431800D02*
X358775Y454025D01*
D43*
X402079Y251200D02*
X422656Y251200D01*
X402079Y251200D02*
X396104Y257175D01*
X411604Y79750D02*
X422656Y79750D01*
X411604Y79750D02*
X405629Y85725D01*
X396104Y85725D01*
D38*
X358775Y472745D02*
X304800Y472745D01*
X358775Y472745D02*
X415925Y472745D01*
X304800Y472745D02*
X304800Y488950D01*
X295275Y498475D01*
X161925Y498475D01*
X158750Y498475D01*
X149225Y488950D01*
D36*
X415925Y472745D03*
X307975Y196850D03*
X238125Y177800D03*
D38*
X431800Y508000D02*
X454025Y508000D01*
X514350Y568325D01*
X568325Y568325D01*
D36*
X403225Y196850D03*
D44*
X416874Y176345D02*
X434975Y176345D01*
X416874Y176345D02*
X415154Y174625D01*
X409575Y196850D02*
X403225Y196850D01*
X409575Y196850D02*
X415925Y190500D01*
X415925Y175396D01*
X415154Y174625D01*
D36*
X403225Y130175D03*
D40*
X464075Y40750D02*
X479044Y40750D01*
X464075Y40750D02*
X463550Y41275D01*
D36*
X463550Y41275D03*
D38*
X396104Y85725D02*
X396104Y98425D01*
X396104Y111125D01*
X396104Y113529D01*
X403225Y120650D01*
X403225Y130175D01*
D37*
X409575Y98425D02*
X396104Y98425D01*
D36*
X409575Y98425D03*
D40*
X470425Y212200D02*
X479044Y212200D01*
X470425Y212200D02*
X466090Y216535D01*
X466090Y231140D01*
X466090Y245110D01*
X460000Y251200D02*
X422656Y251200D01*
X460000Y251200D02*
X460375Y250825D01*
X466090Y245110D01*
D38*
X358775Y454025D02*
X358775Y472745D01*
X396104Y282575D02*
X396269Y282410D01*
X396269Y272970D01*
X396104Y272805D01*
X396104Y257175D01*
D36*
X403225Y301625D03*
D38*
X403225Y292871D01*
X396104Y285750D01*
X396104Y282575D01*
D42*
X278959Y587045D02*
X228600Y587045D01*
X278959Y587045D02*
X279400Y586604D01*
X304800Y586604D01*
X332473Y586604D01*
X332600Y586477D01*
X228561Y587084D02*
X228561Y628650D01*
X228561Y587084D02*
X228600Y587045D01*
D37*
X203530Y396875D02*
X186995Y396875D01*
X187325Y397205D01*
X187325Y409575D01*
X184150Y412750D01*
X130175Y412750D01*
X43425Y349250D02*
X43000Y348825D01*
X43425Y349250D02*
X111125Y349250D01*
X120650Y358775D01*
X120650Y403225D01*
X130175Y412750D01*
X41275Y371475D02*
X41275Y350550D01*
X43000Y348825D01*
X41275Y371475D02*
X19050Y393700D01*
X19050Y431800D01*
X25400Y438150D01*
X47625Y438150D01*
X187325Y365125D02*
X203530Y365125D01*
X187325Y365125D02*
X186995Y365125D01*
X67100Y279825D02*
X24000Y279825D01*
X67100Y279825D02*
X73025Y285750D01*
X73025Y330200D01*
X76200Y333375D01*
X85725Y333375D01*
X88900Y333375D01*
X117475Y333375D01*
X120650Y333375D01*
X130175Y342900D01*
X184150Y342900D01*
X187325Y346075D01*
X187325Y365125D01*
D36*
X88900Y333375D03*
D37*
X85725Y333375D01*
X117000Y279825D02*
X194100Y279825D01*
X196850Y282575D01*
X203530Y289255D01*
X203530Y330200D01*
D36*
X92075Y279400D03*
D37*
X116575Y279400D01*
X117000Y279825D01*
D39*
X242650Y386000D02*
X260400Y386000D01*
X242650Y386000D02*
X234950Y393700D01*
X231775Y396875D01*
X221920Y396875D01*
X228600Y381000D02*
X260400Y381000D01*
X228600Y381000D02*
X225425Y381000D01*
X222250Y377825D01*
X221920Y377495D01*
X221920Y365125D01*
D37*
X162255Y454355D02*
X149225Y454355D01*
X162255Y454355D02*
X165100Y457200D01*
X165100Y469900D01*
X167945Y472745D01*
X180975Y472745D01*
X168605Y365125D02*
X149225Y365125D01*
D36*
X149225Y365125D03*
D37*
X149225Y396875D02*
X168605Y396875D01*
D36*
X149225Y396875D03*
X149225Y441325D03*
D37*
X149225Y454355D01*
X216227Y454355D02*
X216227Y437706D01*
X215900Y437379D01*
X216227Y454355D02*
X180975Y454355D01*
D39*
X269400Y362000D02*
X269400Y356395D01*
X264795Y351790D01*
D36*
X264795Y351790D03*
X180975Y441325D03*
D37*
X180975Y454355D01*
D39*
X260400Y371000D02*
X260350Y370950D01*
X260350Y358775D01*
X251596Y350021D01*
X225425Y349250D02*
X221920Y345745D01*
X221920Y330200D01*
X225425Y349250D02*
X226196Y350021D01*
X241300Y350021D02*
X251596Y350021D01*
X241300Y350021D02*
X226196Y350021D01*
X242650Y376000D02*
X260400Y376000D01*
X242650Y376000D02*
X241300Y374650D01*
X241300Y367529D01*
X250350Y391000D02*
X260400Y391000D01*
X250350Y391000D02*
X244475Y396875D01*
X244475Y419871D01*
D37*
X244475Y437379D02*
X244475Y454355D01*
D39*
X244475Y437379D02*
X264296Y437379D01*
X269400Y432275D02*
X269400Y400000D01*
X269400Y432275D02*
X264296Y437379D01*
X251596Y340496D02*
X251596Y330200D01*
X251596Y340496D02*
X254000Y342900D01*
X274400Y349250D02*
X274400Y362000D01*
X274400Y349250D02*
X268050Y342900D01*
X254000Y342900D01*
D37*
X251596Y330200D02*
X251596Y298891D01*
X251155Y298450D01*
D39*
X279400Y349250D02*
X279400Y362000D01*
X285750Y342900D02*
X286080Y342570D01*
X286080Y330200D01*
X285750Y342900D02*
X279400Y349250D01*
D37*
X279400Y330200D02*
X269104Y330200D01*
X279400Y330200D02*
X286080Y330200D01*
X285750Y329870D01*
X285750Y320675D01*
X279400Y314325D01*
D36*
X279400Y314325D03*
X196850Y419100D03*
D37*
X215129Y419100D02*
X215900Y419871D01*
X215129Y419100D02*
X196850Y419100D01*
D39*
X284400Y362000D02*
X284400Y353775D01*
X288925Y349250D01*
X292100Y346075D01*
X301625Y346075D01*
X304470Y343230D01*
X304470Y330200D01*
D37*
X321005Y330200D01*
D39*
X314325Y381000D02*
X298400Y381000D01*
X314325Y381000D02*
X330200Y365125D01*
X355600Y365125D01*
D37*
X358775Y368300D02*
X403225Y368300D01*
X358775Y368300D02*
X355600Y365125D01*
X403225Y368300D02*
X415925Y381000D01*
X542925Y555625D02*
X603250Y555625D01*
X542925Y555625D02*
X528090Y555625D01*
X415925Y443460D02*
X415925Y381000D01*
X415925Y443460D02*
X528090Y555625D01*
D39*
X309800Y376000D02*
X298400Y376000D01*
X309800Y376000D02*
X317500Y368300D01*
X327025Y358775D01*
X361950Y358775D01*
D37*
X409575Y358775D01*
X425450Y374650D01*
X425450Y438150D01*
D36*
X527050Y539750D03*
D37*
X504825Y517525D02*
X425450Y438150D01*
X504825Y517525D02*
X527050Y539750D01*
D39*
X305275Y371000D02*
X298400Y371000D01*
X305275Y371000D02*
X314325Y361950D01*
X323850Y352425D01*
X355600Y352425D01*
D37*
X358775Y349250D01*
X415925Y349250D01*
X434975Y368300D01*
X434975Y434975D01*
D36*
X542925Y530225D03*
D37*
X517525Y517525D02*
X434975Y434975D01*
X530225Y530225D02*
X542925Y530225D01*
X530225Y530225D02*
X517525Y517525D01*
D39*
X317500Y349250D02*
X304750Y362000D01*
X317500Y349250D02*
X320675Y346075D01*
X333375Y346075D01*
X336550Y346075D01*
X339725Y342900D01*
X339725Y330530D01*
X339395Y330200D01*
D37*
X323850Y298450D02*
X304029Y298450D01*
X307500Y149300D02*
X307575Y149225D01*
X317500Y149225D01*
X320675Y149225D01*
X323850Y152400D01*
X323850Y257175D01*
X323850Y276225D02*
X323850Y298450D01*
X323850Y301625D01*
X323850Y276225D02*
X323850Y257175D01*
D39*
X304750Y362000D02*
X289400Y362000D01*
D37*
X328768Y306543D02*
X330248Y306543D01*
X328768Y306543D02*
X323850Y301625D01*
X339395Y315690D02*
X339395Y330200D01*
X339395Y315690D02*
X330248Y306543D01*
X269875Y298450D02*
X269545Y298450D01*
X269875Y298450D02*
X286521Y298450D01*
X269875Y273380D02*
X269545Y273050D01*
X269875Y273380D02*
X269875Y298450D01*
X244475Y472745D02*
X216227Y472745D01*
X244475Y472745D02*
X273050Y472745D01*
D39*
X274400Y455850D02*
X273050Y454500D01*
X273050Y454355D01*
X274400Y454025D02*
X274400Y455850D01*
X274400Y454025D02*
X274400Y434975D01*
X274400Y400000D01*
D37*
X251155Y273050D02*
X238125Y273050D01*
D36*
X238125Y273050D03*
X288925Y454025D03*
D37*
X274400Y454025D01*
X304800Y454355D02*
X304800Y437820D01*
X332934Y437820D01*
X333375Y437379D01*
D39*
X279400Y431800D02*
X279400Y400000D01*
X279400Y431800D02*
X285420Y437820D01*
X304800Y437820D01*
D37*
X358775Y384505D02*
X384175Y384505D01*
D39*
X309800Y386000D02*
X298400Y386000D01*
X309800Y386000D02*
X314325Y390525D01*
D36*
X314325Y390525D03*
X400050Y390525D03*
D37*
X400050Y387350D01*
X397205Y384505D01*
X384175Y384505D01*
D40*
X422656Y73250D02*
X441550Y73250D01*
X447675Y79375D01*
X447675Y122105D01*
D43*
X422656Y73250D02*
X422431Y73025D01*
X377825Y73025D01*
X371475Y66675D01*
X371475Y44450D01*
D37*
X264225Y155575D02*
X264000Y155800D01*
X264225Y155575D02*
X292100Y155575D01*
D36*
X292100Y155575D03*
D37*
X371475Y149225D02*
X460375Y149225D01*
X466725Y149225D01*
X473075Y155575D01*
X473075Y176345D01*
X460375Y149225D02*
X460375Y122105D01*
D40*
X450625Y244700D02*
X422656Y244700D01*
X450625Y244700D02*
X457200Y238125D01*
X457200Y211270D01*
X460375Y208095D02*
X460375Y176345D01*
X460375Y208095D02*
X457200Y211270D01*
D43*
X422656Y244700D02*
X422431Y244475D01*
X377825Y244475D01*
X371475Y238125D01*
X371475Y215900D01*
D37*
X279325Y149300D02*
X264000Y149300D01*
X279325Y149300D02*
X282575Y146050D01*
X282575Y139700D01*
D36*
X282575Y139700D03*
D37*
X307500Y136300D02*
X307975Y135825D01*
X307975Y19050D01*
X314325Y12700D01*
X336550Y12700D01*
X622300Y12700D01*
X631825Y22225D01*
X631825Y73025D01*
D36*
X482600Y196850D03*
D40*
X482600Y133350D01*
X456565Y66040D02*
X444500Y53975D01*
X456565Y66040D02*
X456565Y104140D01*
X460375Y107950D01*
X479425Y107950D01*
X482600Y111125D01*
X482600Y133350D01*
X444500Y53975D02*
X444275Y53750D01*
X422656Y53750D01*
X422656Y212200D02*
X435500Y212200D01*
X438150Y209550D01*
D36*
X438150Y209550D03*
X492125Y177800D03*
D40*
X492125Y104775D01*
X487680Y100330D02*
X468630Y100330D01*
X447150Y40750D02*
X422656Y40750D01*
X464820Y58420D02*
X464820Y96520D01*
X464820Y58420D02*
X447150Y40750D01*
X464820Y96520D02*
X468630Y100330D01*
X487680Y100330D02*
X492125Y104775D01*
D36*
X622300Y288925D03*
D40*
X644525Y288925D01*
X657225Y301625D01*
X603250Y504825D02*
X530225Y504825D01*
X457200Y431800D01*
X457200Y415925D01*
D36*
X457200Y415925D03*
X438150Y276225D03*
D40*
X444500Y282575D02*
X444500Y431800D01*
X530225Y517525D02*
X552450Y517525D01*
X530225Y517525D02*
X444500Y431800D01*
X552450Y517525D02*
X565150Y530225D01*
X603250Y530225D01*
X438150Y276225D02*
X428625Y276225D01*
X422656Y270256D01*
X438150Y276225D02*
X444500Y282575D01*
X422656Y270256D02*
X422656Y264200D01*
X479044Y264200D02*
X479044Y276606D01*
X469900Y285750D01*
X469900Y431800D01*
X519986Y481886D01*
X644525Y492125D02*
X657225Y504825D01*
X644525Y492125D02*
X536575Y492125D01*
X530225Y492125D01*
X520700Y482600D01*
X519986Y481886D01*
X479044Y257700D02*
X466200Y257700D01*
X463550Y260350D01*
D36*
X463550Y260350D03*
D40*
X530225Y479425D02*
X603250Y479425D01*
X530225Y479425D02*
X517525Y466725D01*
X482600Y431800D01*
X482600Y336550D01*
X482600Y295275D01*
D36*
X482600Y295275D03*
D40*
X520700Y454025D02*
X603250Y454025D01*
X520700Y454025D02*
X517277Y454025D01*
X494030Y430778D01*
X489325Y251200D02*
X479044Y251200D01*
X489325Y251200D02*
X492125Y254000D01*
X494030Y255905D01*
X494030Y430778D01*
X644525Y314325D02*
X657225Y327025D01*
X534453Y218700D02*
X479044Y218700D01*
X534453Y218700D02*
X541676Y225923D01*
X541676Y306726D01*
X587375Y314325D02*
X644525Y314325D01*
X587375Y314325D02*
X581025Y320675D01*
X549275Y320675D01*
X541676Y313076D01*
X541676Y306726D01*
X526825Y225200D02*
X479044Y225200D01*
X526825Y225200D02*
X532550Y230925D01*
X539750Y327025D02*
X603250Y327025D01*
X539750Y327025D02*
X532550Y319825D01*
X532550Y230925D01*
X530225Y352425D02*
X603250Y352425D01*
X530225Y352425D02*
X523240Y345440D01*
X523240Y237490D01*
X517450Y231700D01*
X479044Y231700D01*
X479044Y238200D02*
X508075Y238200D01*
X513715Y243840D01*
X520700Y377825D02*
X603250Y377825D01*
X520700Y377825D02*
X513715Y370840D01*
X513715Y243840D01*
X497430Y244700D02*
X479044Y244700D01*
X497430Y244700D02*
X503238Y250508D01*
X552450Y403225D02*
X584200Y403225D01*
X503238Y395288D02*
X503238Y250508D01*
X503238Y395288D02*
X511175Y403225D01*
X552450Y403225D01*
X584200Y403225D02*
X603250Y403225D01*
D36*
X622300Y187325D03*
D40*
X546100Y187325D01*
D36*
X546100Y187325D03*
X438150Y104814D03*
D43*
X427891Y104814D01*
X422656Y99579D01*
X422656Y92750D01*
D40*
X479044Y92750D02*
X489625Y92750D01*
X505500Y92750D01*
X587375Y174625D02*
X603250Y174625D01*
X511175Y98425D02*
X505500Y92750D01*
X511175Y98425D02*
X511175Y168275D01*
X517525Y174625D01*
X587375Y174625D01*
X499000Y86250D02*
X479044Y86250D01*
X499000Y86250D02*
X511175Y86250D01*
X511700Y86250D01*
X587375Y161925D02*
X644525Y161925D01*
X647700Y165100D01*
X657225Y174625D01*
X514875Y86250D02*
X511700Y86250D01*
X514875Y86250D02*
X520700Y92075D01*
X520700Y155575D01*
X527050Y161925D01*
X587375Y161925D01*
X508375Y79750D02*
X479044Y79750D01*
X508375Y79750D02*
X517900Y79750D01*
X587375Y149225D02*
X603250Y149225D01*
X524250Y79750D02*
X517900Y79750D01*
X524250Y79750D02*
X530225Y85725D01*
X530225Y142875D01*
X536575Y149225D01*
X587375Y149225D01*
X524100Y73250D02*
X479044Y73250D01*
X587375Y136525D02*
X644525Y136525D01*
X649544Y141544D01*
X657225Y149225D01*
X533625Y73250D02*
X524100Y73250D01*
X533625Y73250D02*
X539750Y79375D01*
X539750Y130175D01*
X546100Y136525D01*
X587375Y136525D01*
X587375Y123825D02*
X603250Y123825D01*
X549275Y73025D02*
X543000Y66750D01*
X549275Y73025D02*
X549275Y117475D01*
X555625Y123825D01*
X587375Y123825D01*
X543000Y66750D02*
X479044Y66750D01*
X587375Y111125D02*
X644525Y111125D01*
X647700Y114300D01*
X657225Y123825D01*
X558800Y66675D02*
X552375Y60250D01*
X558800Y66675D02*
X558800Y104775D01*
X565150Y111125D01*
X587375Y111125D01*
X552375Y60250D02*
X479044Y60250D01*
X479044Y53750D02*
X530000Y53750D01*
X561750Y53750D01*
X568325Y60325D02*
X568325Y92075D01*
X568325Y60325D02*
X561750Y53750D01*
X568325Y92075D02*
X574675Y98425D01*
X603250Y98425D01*
X571125Y47250D02*
X479044Y47250D01*
X577850Y53975D02*
X577850Y79375D01*
X577850Y53975D02*
X571125Y47250D01*
X577850Y79375D02*
X584200Y85725D01*
X644525Y85725D01*
X657225Y98425D01*
X542250Y205700D02*
X479044Y205700D01*
X600075Y263525D02*
X603250Y266700D01*
X603250Y276225D01*
X549716Y258499D02*
X549716Y219516D01*
X549716Y258499D02*
X554742Y263525D01*
X600075Y263525D01*
X558125Y34250D02*
X479044Y34250D01*
X558125Y34250D02*
X558800Y34925D01*
D36*
X558800Y34925D03*
X549275Y206375D03*
D40*
X545425Y205700D02*
X542250Y205700D01*
X545425Y205700D02*
X548600Y205700D01*
X549716Y205700D02*
X545425Y205700D01*
X548600Y205700D02*
X549275Y206375D01*
X549716Y205700D02*
X549716Y219516D01*
D36*
X447675Y225425D03*
D40*
X447450Y225200D01*
X422656Y225200D01*
X422656Y86250D02*
X437625Y86250D01*
X438150Y85725D01*
D36*
X438150Y85725D03*
D40*
X444500Y260350D02*
X457200Y273050D01*
X444500Y260350D02*
X441850Y257700D01*
X422656Y257700D01*
X457200Y273050D02*
X457200Y320675D01*
D36*
X457200Y320675D03*
M02*
