G04 EAGLE Gerber RS-274X export*
G75*
%MOMM*%
%FSLAX34Y34*%
%LPD*%
%INSolderpaste Top*%
%IPPOS*%
%AMOC8*
5,1,8,0,0,1.08239X$1,22.5*%
G01*
G04 Define Apertures*
%ADD10R,2.800000X2.400000*%
%ADD11R,1.420200X1.031200*%
%ADD12R,1.465300X1.164600*%
%ADD13R,1.043100X1.910300*%
%ADD14R,0.897900X1.860300*%
%ADD15R,3.189100X1.860300*%
%ADD16R,0.900000X0.250000*%
%ADD17R,0.250000X0.900000*%
%ADD18R,1.031200X1.420200*%
%ADD19R,2.000000X2.500000*%
%ADD20R,2.500000X2.000000*%
%ADD21R,1.200000X2.500000*%
%ADD22R,1.164600X1.465300*%
%ADD23R,0.650000X1.525000*%
%ADD24R,1.200000X0.450000*%
%ADD25R,1.462000X0.354800*%
G36*
X278527Y380127D02*
X278527Y368873D01*
X267273Y368873D01*
X267273Y380127D01*
X278527Y380127D01*
G37*
G36*
X278527Y393127D02*
X278527Y381873D01*
X267273Y381873D01*
X267273Y393127D01*
X278527Y393127D01*
G37*
G36*
X291527Y380127D02*
X291527Y368873D01*
X280273Y368873D01*
X280273Y380127D01*
X291527Y380127D01*
G37*
G36*
X291527Y393127D02*
X291527Y381873D01*
X280273Y381873D01*
X280273Y393127D01*
X291527Y393127D01*
G37*
D10*
X130175Y587125D03*
X130175Y524125D03*
D11*
X196850Y568655D03*
X196850Y587045D03*
X228600Y568655D03*
X228600Y587045D03*
D12*
X168275Y586604D03*
X168275Y569096D03*
X196850Y551679D03*
X196850Y534171D03*
X228600Y551679D03*
X228600Y534171D03*
D11*
X263525Y95580D03*
X263525Y113970D03*
X263525Y60655D03*
X263525Y79045D03*
D12*
X212725Y113529D03*
X212725Y96021D03*
D13*
X196889Y628650D03*
X228561Y628650D03*
D14*
X378600Y586477D03*
X355600Y586477D03*
X332600Y586477D03*
D15*
X355600Y524977D03*
D16*
X260400Y391000D03*
X260400Y386000D03*
X260400Y381000D03*
X260400Y376000D03*
X260400Y371000D03*
D17*
X269400Y362000D03*
X274400Y362000D03*
X279400Y362000D03*
X284400Y362000D03*
X289400Y362000D03*
D16*
X298400Y371000D03*
X298400Y376000D03*
X298400Y381000D03*
X298400Y386000D03*
X298400Y391000D03*
D17*
X289400Y400000D03*
X284400Y400000D03*
X279400Y400000D03*
X274400Y400000D03*
X269400Y400000D03*
D18*
X221920Y396875D03*
X203530Y396875D03*
D12*
X241300Y350021D03*
X241300Y367529D03*
D19*
X24000Y279825D03*
X117000Y279825D03*
X43000Y348825D03*
D20*
X157500Y321825D03*
D21*
X15000Y348825D03*
D18*
X221920Y365125D03*
X203530Y365125D03*
X168605Y396875D03*
X186995Y396875D03*
X168605Y365125D03*
X186995Y365125D03*
D11*
X149225Y472745D03*
X149225Y454355D03*
X180975Y472745D03*
X180975Y454355D03*
D18*
X221920Y330200D03*
X203530Y330200D03*
D12*
X244475Y437379D03*
X244475Y419871D03*
D18*
X251155Y298450D03*
X269545Y298450D03*
D22*
X269104Y330200D03*
X251596Y330200D03*
D18*
X251155Y273050D03*
X269545Y273050D03*
X286080Y330200D03*
X304470Y330200D03*
X321005Y330200D03*
X339395Y330200D03*
D22*
X304029Y298450D03*
X286521Y298450D03*
D11*
X244475Y454355D03*
X244475Y472745D03*
X273050Y454355D03*
X273050Y472745D03*
X216227Y472745D03*
X216227Y454355D03*
D12*
X215900Y419871D03*
X215900Y437379D03*
D11*
X304800Y472745D03*
X304800Y454355D03*
X304800Y437820D03*
X304800Y419430D03*
X358775Y402895D03*
X358775Y384505D03*
X384175Y384505D03*
X384175Y402895D03*
D12*
X333375Y419871D03*
X333375Y437379D03*
X333375Y384946D03*
X333375Y402454D03*
D22*
X378596Y111125D03*
X396104Y111125D03*
X378596Y85725D03*
X396104Y85725D03*
D23*
X434975Y122105D03*
X447675Y122105D03*
X460375Y122105D03*
X473075Y122105D03*
X473075Y176345D03*
X460375Y176345D03*
X447675Y176345D03*
X434975Y176345D03*
D22*
X378596Y282575D03*
X396104Y282575D03*
X378596Y257175D03*
X396104Y257175D03*
D24*
X264000Y155800D03*
X264000Y149300D03*
X264000Y142800D03*
X264000Y136300D03*
X307500Y136300D03*
X307500Y142800D03*
X307500Y149300D03*
X307500Y155800D03*
D22*
X289696Y177800D03*
X307204Y177800D03*
D25*
X422656Y264200D03*
X422656Y257700D03*
X422656Y251200D03*
X422656Y244700D03*
X422656Y238200D03*
X422656Y231700D03*
X422656Y225200D03*
X422656Y218700D03*
X422656Y212200D03*
X422656Y205700D03*
X479044Y205700D03*
X479044Y212200D03*
X479044Y218700D03*
X479044Y225200D03*
X479044Y231700D03*
X479044Y238200D03*
X479044Y244700D03*
X479044Y251200D03*
X479044Y257700D03*
X479044Y264200D03*
X422656Y92750D03*
X422656Y86250D03*
X422656Y79750D03*
X422656Y73250D03*
X422656Y66750D03*
X422656Y60250D03*
X422656Y53750D03*
X422656Y47250D03*
X422656Y40750D03*
X422656Y34250D03*
X479044Y34250D03*
X479044Y40750D03*
X479044Y47250D03*
X479044Y53750D03*
X479044Y60250D03*
X479044Y66750D03*
X479044Y73250D03*
X479044Y79750D03*
X479044Y86250D03*
X479044Y92750D03*
D22*
X397646Y174625D03*
X415154Y174625D03*
D12*
X304800Y569096D03*
X304800Y586604D03*
X396875Y508771D03*
X396875Y526279D03*
X279400Y569096D03*
X279400Y586604D03*
X568325Y197621D03*
X568325Y215129D03*
M02*
