G04 EAGLE Gerber RS-274X export*
G75*
%MOMM*%
%FSLAX34Y34*%
%LPD*%
%INSoldermask Top*%
%IPPOS*%
%AMOC8*
5,1,8,0,0,1.08239X$1,22.5*%
G01*
G04 Define Apertures*
%ADD10C,3.203200*%
%ADD11R,3.003200X2.603200*%
%ADD12C,1.625600*%
%ADD13P,1.75953X8X112.5*%
%ADD14R,1.623400X1.234400*%
%ADD15R,1.668500X1.367800*%
%ADD16C,1.625600*%
%ADD17C,1.727200*%
%ADD18C,1.511200*%
%ADD19C,3.419200*%
%ADD20P,2.55682X8X22.5*%
%ADD21C,2.184400*%
%ADD22R,1.246300X2.113500*%
%ADD23R,1.101100X2.063500*%
%ADD24R,3.392300X2.063500*%
%ADD25R,1.103200X0.453200*%
%ADD26R,0.453200X1.103200*%
%ADD27R,2.803200X2.803200*%
%ADD28R,1.234400X1.623400*%
%ADD29R,2.203200X2.703200*%
%ADD30R,2.703200X2.203200*%
%ADD31R,1.403200X2.703200*%
%ADD32C,2.203200*%
%ADD33R,1.367800X1.668500*%
%ADD34R,0.853200X1.728200*%
%ADD35R,1.403200X0.653200*%
%ADD36R,1.665200X0.558000*%
%ADD37R,2.203200X2.203200*%
%ADD38P,1.03866X8X22.5*%
D10*
X40000Y660000D03*
X40000Y40000D03*
D11*
X130175Y587125D03*
X130175Y524125D03*
D12*
X657225Y73025D03*
D13*
X631825Y73025D03*
X657225Y98425D03*
X631825Y98425D03*
X657225Y123825D03*
X631825Y123825D03*
X657225Y149225D03*
X631825Y149225D03*
X657225Y174625D03*
X631825Y174625D03*
X657225Y200025D03*
X631825Y200025D03*
X657225Y225425D03*
X631825Y225425D03*
X657225Y250825D03*
X631825Y250825D03*
X657225Y276225D03*
X631825Y276225D03*
X657225Y301625D03*
X631825Y301625D03*
X657225Y327025D03*
X631825Y327025D03*
X657225Y352425D03*
X631825Y352425D03*
X657225Y377825D03*
X631825Y377825D03*
X631825Y403225D03*
X657225Y403225D03*
X631825Y428625D03*
X657225Y428625D03*
X631825Y454025D03*
X657225Y454025D03*
X657225Y479425D03*
X631825Y479425D03*
X631825Y504825D03*
X657225Y504825D03*
X657225Y530225D03*
X631825Y530225D03*
X657225Y555625D03*
X631825Y555625D03*
D14*
X196850Y568655D03*
X196850Y587045D03*
X228600Y568655D03*
X228600Y587045D03*
D15*
X168275Y586604D03*
X168275Y569096D03*
X196850Y551679D03*
X196850Y534171D03*
X228600Y551679D03*
X228600Y534171D03*
D16*
X523113Y415925D02*
X537337Y415925D01*
X537337Y441325D02*
X523113Y441325D01*
D17*
X560705Y339725D02*
X575945Y339725D01*
X575945Y365125D02*
X560705Y365125D01*
X560705Y390525D02*
X575945Y390525D01*
X575945Y415925D02*
X560705Y415925D01*
X560705Y441325D02*
X575945Y441325D01*
X575945Y466725D02*
X560705Y466725D01*
D18*
X114490Y133350D02*
X101410Y133350D01*
X101410Y158750D02*
X114490Y158750D01*
D19*
X57150Y107950D03*
X57150Y209550D03*
D20*
X212725Y158750D03*
D17*
X595630Y73025D02*
X610870Y73025D01*
X610870Y98425D02*
X595630Y98425D01*
X595630Y123825D02*
X610870Y123825D01*
X610870Y149225D02*
X595630Y149225D01*
X595630Y174625D02*
X610870Y174625D01*
X610870Y200025D02*
X595630Y200025D01*
X595630Y225425D02*
X610870Y225425D01*
X610870Y250825D02*
X595630Y250825D01*
X595630Y276225D02*
X610870Y276225D01*
X610870Y301625D02*
X595630Y301625D01*
X595630Y327025D02*
X610870Y327025D01*
X610870Y352425D02*
X595630Y352425D01*
X595630Y377825D02*
X610870Y377825D01*
X610870Y403225D02*
X595630Y403225D01*
X595630Y428625D02*
X610870Y428625D01*
X610870Y454025D02*
X595630Y454025D01*
X595630Y479425D02*
X610870Y479425D01*
X610870Y504825D02*
X595630Y504825D01*
X595630Y530225D02*
X610870Y530225D01*
X610870Y555625D02*
X595630Y555625D01*
X674370Y73025D02*
X689610Y73025D01*
X689610Y98425D02*
X674370Y98425D01*
X674370Y123825D02*
X689610Y123825D01*
X689610Y149225D02*
X674370Y149225D01*
X674370Y174625D02*
X689610Y174625D01*
X689610Y200025D02*
X674370Y200025D01*
X674370Y225425D02*
X689610Y225425D01*
X689610Y250825D02*
X674370Y250825D01*
X674370Y276225D02*
X689610Y276225D01*
X689610Y301625D02*
X674370Y301625D01*
X674370Y327025D02*
X689610Y327025D01*
X689610Y352425D02*
X674370Y352425D01*
X674370Y377825D02*
X689610Y377825D01*
X689610Y403225D02*
X674370Y403225D01*
X674370Y428625D02*
X689610Y428625D01*
X689610Y454025D02*
X674370Y454025D01*
X674370Y479425D02*
X689610Y479425D01*
X689610Y504825D02*
X674370Y504825D01*
X674370Y530225D02*
X689610Y530225D01*
X689610Y555625D02*
X674370Y555625D01*
D16*
X576707Y250190D02*
X562483Y250190D01*
X562483Y275590D02*
X576707Y275590D01*
D14*
X263525Y95580D03*
X263525Y113970D03*
X263525Y60655D03*
X263525Y79045D03*
D15*
X212725Y113529D03*
X212725Y96021D03*
D21*
X70231Y596646D02*
X50419Y596646D01*
X50419Y546354D02*
X70231Y546354D01*
D22*
X196889Y628650D03*
X228561Y628650D03*
D17*
X424180Y533400D02*
X439420Y533400D01*
X439420Y508000D02*
X424180Y508000D01*
D23*
X378600Y586477D03*
X355600Y586477D03*
X332600Y586477D03*
D24*
X355600Y524977D03*
D16*
X561213Y542925D02*
X575437Y542925D01*
X575437Y568325D02*
X561213Y568325D01*
D25*
X260400Y391000D03*
X260400Y386000D03*
X260400Y381000D03*
X260400Y376000D03*
X260400Y371000D03*
D26*
X269400Y362000D03*
X274400Y362000D03*
X279400Y362000D03*
X284400Y362000D03*
X289400Y362000D03*
D25*
X298400Y371000D03*
X298400Y376000D03*
X298400Y381000D03*
X298400Y386000D03*
X298400Y391000D03*
D26*
X289400Y400000D03*
X284400Y400000D03*
X279400Y400000D03*
X274400Y400000D03*
X269400Y400000D03*
D27*
X279400Y381000D03*
D28*
X221920Y396875D03*
X203530Y396875D03*
D15*
X241300Y350021D03*
X241300Y367529D03*
D29*
X24000Y279825D03*
X117000Y279825D03*
X43000Y348825D03*
D30*
X157500Y321825D03*
D31*
X15000Y348825D03*
D32*
X35000Y314325D03*
X105000Y314325D03*
D28*
X221920Y365125D03*
X203530Y365125D03*
X168605Y396875D03*
X186995Y396875D03*
X168605Y365125D03*
X186995Y365125D03*
D14*
X149225Y472745D03*
X149225Y454355D03*
X180975Y472745D03*
X180975Y454355D03*
D28*
X221920Y330200D03*
X203530Y330200D03*
D17*
X55245Y463550D02*
X40005Y463550D01*
X40005Y438150D02*
X55245Y438150D01*
X55245Y412750D02*
X40005Y412750D01*
D15*
X244475Y437379D03*
X244475Y419871D03*
D28*
X251155Y298450D03*
X269545Y298450D03*
D33*
X269104Y330200D03*
X251596Y330200D03*
D28*
X251155Y273050D03*
X269545Y273050D03*
X286080Y330200D03*
X304470Y330200D03*
X321005Y330200D03*
X339395Y330200D03*
D33*
X304029Y298450D03*
X286521Y298450D03*
D14*
X244475Y454355D03*
X244475Y472745D03*
X273050Y454355D03*
X273050Y472745D03*
X216227Y472745D03*
X216227Y454355D03*
D15*
X215900Y419871D03*
X215900Y437379D03*
D14*
X304800Y472745D03*
X304800Y454355D03*
X304800Y437820D03*
X304800Y419430D03*
X358775Y402895D03*
X358775Y384505D03*
X384175Y384505D03*
X384175Y402895D03*
D15*
X333375Y419871D03*
X333375Y437379D03*
X333375Y384946D03*
X333375Y402454D03*
D33*
X378596Y111125D03*
X396104Y111125D03*
X378596Y85725D03*
X396104Y85725D03*
D34*
X434975Y122105D03*
X447675Y122105D03*
X460375Y122105D03*
X473075Y122105D03*
X473075Y176345D03*
X460375Y176345D03*
X447675Y176345D03*
X434975Y176345D03*
D33*
X378596Y282575D03*
X396104Y282575D03*
X378596Y257175D03*
X396104Y257175D03*
D35*
X264000Y155800D03*
X264000Y149300D03*
X264000Y142800D03*
X264000Y136300D03*
X307500Y136300D03*
X307500Y142800D03*
X307500Y149300D03*
X307500Y155800D03*
D33*
X289696Y177800D03*
X307204Y177800D03*
D36*
X422656Y264200D03*
X422656Y257700D03*
X422656Y251200D03*
X422656Y244700D03*
X422656Y238200D03*
X422656Y231700D03*
X422656Y225200D03*
X422656Y218700D03*
X422656Y212200D03*
X422656Y205700D03*
X479044Y205700D03*
X479044Y212200D03*
X479044Y218700D03*
X479044Y225200D03*
X479044Y231700D03*
X479044Y238200D03*
X479044Y244700D03*
X479044Y251200D03*
X479044Y257700D03*
X479044Y264200D03*
X422656Y92750D03*
X422656Y86250D03*
X422656Y79750D03*
X422656Y73250D03*
X422656Y66750D03*
X422656Y60250D03*
X422656Y53750D03*
X422656Y47250D03*
X422656Y40750D03*
X422656Y34250D03*
X479044Y34250D03*
X479044Y40750D03*
X479044Y47250D03*
X479044Y53750D03*
X479044Y60250D03*
X479044Y66750D03*
X479044Y73250D03*
X479044Y79750D03*
X479044Y86250D03*
X479044Y92750D03*
D20*
X371475Y215900D03*
X371475Y44450D03*
X323850Y276225D03*
X234950Y41275D03*
X371475Y149225D03*
D33*
X397646Y174625D03*
X415154Y174625D03*
D15*
X304800Y569096D03*
X304800Y586604D03*
X396875Y508771D03*
X396875Y526279D03*
X279400Y569096D03*
X279400Y586604D03*
X568325Y197621D03*
X568325Y215129D03*
D20*
X431800Y587375D03*
X104775Y41275D03*
X111125Y463550D03*
D37*
X341630Y618490D03*
D38*
X603250Y28575D03*
X228600Y520700D03*
X168275Y555625D03*
X130175Y504819D03*
X263525Y47625D03*
X279400Y555625D03*
X304800Y555625D03*
X396875Y495300D03*
X365125Y282575D03*
X365125Y257175D03*
X438150Y234950D03*
X438150Y63500D03*
X365125Y111125D03*
X365125Y85725D03*
X384175Y174625D03*
X276225Y177800D03*
X250825Y139700D03*
X196850Y520700D03*
X273050Y386543D03*
X284943Y374650D03*
X473075Y136525D03*
X438150Y22225D03*
X438150Y193675D03*
X384175Y415925D03*
X346075Y374650D03*
X288925Y419100D03*
X165100Y441325D03*
X196850Y431800D03*
X263525Y314325D03*
X238125Y285750D03*
X260350Y409575D03*
X540623Y339471D03*
X377825Y606425D03*
X317500Y314325D03*
X177800Y298450D03*
X396875Y50800D03*
X682625Y28575D03*
X644525Y415925D03*
X381000Y330200D03*
X384175Y454025D03*
X133350Y396875D03*
X428625Y288925D03*
X419100Y136525D03*
X396875Y222250D03*
X92075Y292100D03*
X644525Y263525D03*
X666115Y238760D03*
X434975Y136525D03*
X495300Y590550D03*
X569595Y312420D03*
X447675Y161925D03*
X415925Y472745D03*
X307975Y196850D03*
X238125Y177800D03*
X403225Y196850D03*
X403225Y130175D03*
X463550Y41275D03*
X409575Y98425D03*
X403225Y301625D03*
X88900Y333375D03*
X92075Y279400D03*
X149225Y365125D03*
X149225Y396875D03*
X149225Y441325D03*
X264795Y351790D03*
X180975Y441325D03*
X279400Y314325D03*
X196850Y419100D03*
X527050Y539750D03*
X542925Y530225D03*
X238125Y273050D03*
X288925Y454025D03*
X314325Y390525D03*
X400050Y390525D03*
X292100Y155575D03*
X282575Y139700D03*
X482600Y196850D03*
X438150Y209550D03*
X492125Y177800D03*
X622300Y288925D03*
X457200Y415925D03*
X438150Y276225D03*
X463550Y260350D03*
X482600Y295275D03*
X622300Y187325D03*
X546100Y187325D03*
X438150Y104814D03*
X558800Y34925D03*
X549275Y206375D03*
X447675Y225425D03*
X438150Y85725D03*
X457200Y320675D03*
M02*
