<?xml version="1.0" encoding="utf-8" standalone="no"?>
<!DOCTYPE svg PUBLIC "-//W3C//DTD SVG 1.1//EN"
  "http://www.w3.org/Graphics/SVG/1.1/DTD/svg11.dtd">
<svg xmlns:xlink="http://www.w3.org/1999/xlink" width="424.8pt" height="280.8pt" viewBox="0 0 424.8 280.8" xmlns="http://www.w3.org/2000/svg" version="1.1">
 <metadata>
  <rdf:RDF xmlns:dc="http://purl.org/dc/elements/1.1/" xmlns:cc="http://creativecommons.org/ns#" xmlns:rdf="http://www.w3.org/1999/02/22-rdf-syntax-ns#">
   <cc:Work>
    <dc:type rdf:resource="http://purl.org/dc/dcmitype/StillImage"/>
    <dc:date>2025-05-26T10:18:54.671890</dc:date>
    <dc:format>image/svg+xml</dc:format>
    <dc:creator>
     <cc:Agent>
      <dc:title>Matplotlib v3.9.2, https://matplotlib.org/</dc:title>
     </cc:Agent>
    </dc:creator>
   </cc:Work>
  </rdf:RDF>
 </metadata>
 <defs>
  <style type="text/css">*{stroke-linejoin: round; stroke-linecap: butt}</style>
 </defs>
 <g id="figure_1">
  <g id="patch_1">
   <path d="M 0 280.8 
L 424.8 280.8 
L 424.8 0 
L 0 0 
z
" style="fill: #ffffff"/>
  </g>
  <g id="axes_1">
   <g id="patch_2">
    <path d="M 43.78125 243.24375 
L 417.6 243.24375 
L 417.6 7.2 
L 43.78125 7.2 
z
" style="fill: #ffffff"/>
   </g>
   <g id="matplotlib.axis_1">
    <g id="xtick_1">
     <g id="line2d_1">
      <path d="M 43.78125 243.24375 
L 43.78125 7.2 
" clip-path="url(#p5f99aa1ffe)" style="fill: none; stroke-dasharray: 2.96,1.28; stroke-dashoffset: 0; stroke: #b0b0b0; stroke-width: 0.8"/>
     </g>
     <g id="line2d_2">
      <defs>
       <path id="m547f16ffe3" d="M 0 0 
L 0 3.5 
" style="stroke: #000000; stroke-width: 0.8"/>
      </defs>
      <g>
       <use xlink:href="#m547f16ffe3" x="43.78125" y="243.24375" style="stroke: #000000; stroke-width: 0.8"/>
      </g>
     </g>
     <g id="text_1">
      <!-- 0.0 -->
      <g transform="translate(35.829688 257.842187) scale(0.1 -0.1)">
       <defs>
        <path id="DejaVuSans-30" d="M 2034 4250 
Q 1547 4250 1301 3770 
Q 1056 3291 1056 2328 
Q 1056 1369 1301 889 
Q 1547 409 2034 409 
Q 2525 409 2770 889 
Q 3016 1369 3016 2328 
Q 3016 3291 2770 3770 
Q 2525 4250 2034 4250 
z
M 2034 4750 
Q 2819 4750 3233 4129 
Q 3647 3509 3647 2328 
Q 3647 1150 3233 529 
Q 2819 -91 2034 -91 
Q 1250 -91 836 529 
Q 422 1150 422 2328 
Q 422 3509 836 4129 
Q 1250 4750 2034 4750 
z
" transform="scale(0.015625)"/>
        <path id="DejaVuSans-2e" d="M 684 794 
L 1344 794 
L 1344 0 
L 684 0 
L 684 794 
z
" transform="scale(0.015625)"/>
       </defs>
       <use xlink:href="#DejaVuSans-30"/>
       <use xlink:href="#DejaVuSans-2e" x="63.623047"/>
       <use xlink:href="#DejaVuSans-30" x="95.410156"/>
      </g>
     </g>
    </g>
    <g id="xtick_2">
     <g id="line2d_3">
      <path d="M 93.62375 243.24375 
L 93.62375 7.2 
" clip-path="url(#p5f99aa1ffe)" style="fill: none; stroke-dasharray: 2.96,1.28; stroke-dashoffset: 0; stroke: #b0b0b0; stroke-width: 0.8"/>
     </g>
     <g id="line2d_4">
      <g>
       <use xlink:href="#m547f16ffe3" x="93.62375" y="243.24375" style="stroke: #000000; stroke-width: 0.8"/>
      </g>
     </g>
     <g id="text_2">
      <!-- 0.2 -->
      <g transform="translate(85.672188 257.842187) scale(0.1 -0.1)">
       <defs>
        <path id="DejaVuSans-32" d="M 1228 531 
L 3431 531 
L 3431 0 
L 469 0 
L 469 531 
Q 828 903 1448 1529 
Q 2069 2156 2228 2338 
Q 2531 2678 2651 2914 
Q 2772 3150 2772 3378 
Q 2772 3750 2511 3984 
Q 2250 4219 1831 4219 
Q 1534 4219 1204 4116 
Q 875 4013 500 3803 
L 500 4441 
Q 881 4594 1212 4672 
Q 1544 4750 1819 4750 
Q 2544 4750 2975 4387 
Q 3406 4025 3406 3419 
Q 3406 3131 3298 2873 
Q 3191 2616 2906 2266 
Q 2828 2175 2409 1742 
Q 1991 1309 1228 531 
z
" transform="scale(0.015625)"/>
       </defs>
       <use xlink:href="#DejaVuSans-30"/>
       <use xlink:href="#DejaVuSans-2e" x="63.623047"/>
       <use xlink:href="#DejaVuSans-32" x="95.410156"/>
      </g>
     </g>
    </g>
    <g id="xtick_3">
     <g id="line2d_5">
      <path d="M 143.46625 243.24375 
L 143.46625 7.2 
" clip-path="url(#p5f99aa1ffe)" style="fill: none; stroke-dasharray: 2.96,1.28; stroke-dashoffset: 0; stroke: #b0b0b0; stroke-width: 0.8"/>
     </g>
     <g id="line2d_6">
      <g>
       <use xlink:href="#m547f16ffe3" x="143.46625" y="243.24375" style="stroke: #000000; stroke-width: 0.8"/>
      </g>
     </g>
     <g id="text_3">
      <!-- 0.4 -->
      <g transform="translate(135.514688 257.842187) scale(0.1 -0.1)">
       <defs>
        <path id="DejaVuSans-34" d="M 2419 4116 
L 825 1625 
L 2419 1625 
L 2419 4116 
z
M 2253 4666 
L 3047 4666 
L 3047 1625 
L 3713 1625 
L 3713 1100 
L 3047 1100 
L 3047 0 
L 2419 0 
L 2419 1100 
L 313 1100 
L 313 1709 
L 2253 4666 
z
" transform="scale(0.015625)"/>
       </defs>
       <use xlink:href="#DejaVuSans-30"/>
       <use xlink:href="#DejaVuSans-2e" x="63.623047"/>
       <use xlink:href="#DejaVuSans-34" x="95.410156"/>
      </g>
     </g>
    </g>
    <g id="xtick_4">
     <g id="line2d_7">
      <path d="M 193.30875 243.24375 
L 193.30875 7.2 
" clip-path="url(#p5f99aa1ffe)" style="fill: none; stroke-dasharray: 2.96,1.28; stroke-dashoffset: 0; stroke: #b0b0b0; stroke-width: 0.8"/>
     </g>
     <g id="line2d_8">
      <g>
       <use xlink:href="#m547f16ffe3" x="193.30875" y="243.24375" style="stroke: #000000; stroke-width: 0.8"/>
      </g>
     </g>
     <g id="text_4">
      <!-- 0.6 -->
      <g transform="translate(185.357188 257.842187) scale(0.1 -0.1)">
       <defs>
        <path id="DejaVuSans-36" d="M 2113 2584 
Q 1688 2584 1439 2293 
Q 1191 2003 1191 1497 
Q 1191 994 1439 701 
Q 1688 409 2113 409 
Q 2538 409 2786 701 
Q 3034 994 3034 1497 
Q 3034 2003 2786 2293 
Q 2538 2584 2113 2584 
z
M 3366 4563 
L 3366 3988 
Q 3128 4100 2886 4159 
Q 2644 4219 2406 4219 
Q 1781 4219 1451 3797 
Q 1122 3375 1075 2522 
Q 1259 2794 1537 2939 
Q 1816 3084 2150 3084 
Q 2853 3084 3261 2657 
Q 3669 2231 3669 1497 
Q 3669 778 3244 343 
Q 2819 -91 2113 -91 
Q 1303 -91 875 529 
Q 447 1150 447 2328 
Q 447 3434 972 4092 
Q 1497 4750 2381 4750 
Q 2619 4750 2861 4703 
Q 3103 4656 3366 4563 
z
" transform="scale(0.015625)"/>
       </defs>
       <use xlink:href="#DejaVuSans-30"/>
       <use xlink:href="#DejaVuSans-2e" x="63.623047"/>
       <use xlink:href="#DejaVuSans-36" x="95.410156"/>
      </g>
     </g>
    </g>
    <g id="xtick_5">
     <g id="line2d_9">
      <path d="M 243.15125 243.24375 
L 243.15125 7.2 
" clip-path="url(#p5f99aa1ffe)" style="fill: none; stroke-dasharray: 2.96,1.28; stroke-dashoffset: 0; stroke: #b0b0b0; stroke-width: 0.8"/>
     </g>
     <g id="line2d_10">
      <g>
       <use xlink:href="#m547f16ffe3" x="243.15125" y="243.24375" style="stroke: #000000; stroke-width: 0.8"/>
      </g>
     </g>
     <g id="text_5">
      <!-- 0.8 -->
      <g transform="translate(235.199688 257.842187) scale(0.1 -0.1)">
       <defs>
        <path id="DejaVuSans-38" d="M 2034 2216 
Q 1584 2216 1326 1975 
Q 1069 1734 1069 1313 
Q 1069 891 1326 650 
Q 1584 409 2034 409 
Q 2484 409 2743 651 
Q 3003 894 3003 1313 
Q 3003 1734 2745 1975 
Q 2488 2216 2034 2216 
z
M 1403 2484 
Q 997 2584 770 2862 
Q 544 3141 544 3541 
Q 544 4100 942 4425 
Q 1341 4750 2034 4750 
Q 2731 4750 3128 4425 
Q 3525 4100 3525 3541 
Q 3525 3141 3298 2862 
Q 3072 2584 2669 2484 
Q 3125 2378 3379 2068 
Q 3634 1759 3634 1313 
Q 3634 634 3220 271 
Q 2806 -91 2034 -91 
Q 1263 -91 848 271 
Q 434 634 434 1313 
Q 434 1759 690 2068 
Q 947 2378 1403 2484 
z
M 1172 3481 
Q 1172 3119 1398 2916 
Q 1625 2713 2034 2713 
Q 2441 2713 2670 2916 
Q 2900 3119 2900 3481 
Q 2900 3844 2670 4047 
Q 2441 4250 2034 4250 
Q 1625 4250 1398 4047 
Q 1172 3844 1172 3481 
z
" transform="scale(0.015625)"/>
       </defs>
       <use xlink:href="#DejaVuSans-30"/>
       <use xlink:href="#DejaVuSans-2e" x="63.623047"/>
       <use xlink:href="#DejaVuSans-38" x="95.410156"/>
      </g>
     </g>
    </g>
    <g id="xtick_6">
     <g id="line2d_11">
      <path d="M 292.99375 243.24375 
L 292.99375 7.2 
" clip-path="url(#p5f99aa1ffe)" style="fill: none; stroke-dasharray: 2.96,1.28; stroke-dashoffset: 0; stroke: #b0b0b0; stroke-width: 0.8"/>
     </g>
     <g id="line2d_12">
      <g>
       <use xlink:href="#m547f16ffe3" x="292.99375" y="243.24375" style="stroke: #000000; stroke-width: 0.8"/>
      </g>
     </g>
     <g id="text_6">
      <!-- 1.0 -->
      <g transform="translate(285.042187 257.842187) scale(0.1 -0.1)">
       <defs>
        <path id="DejaVuSans-31" d="M 794 531 
L 1825 531 
L 1825 4091 
L 703 3866 
L 703 4441 
L 1819 4666 
L 2450 4666 
L 2450 531 
L 3481 531 
L 3481 0 
L 794 0 
L 794 531 
z
" transform="scale(0.015625)"/>
       </defs>
       <use xlink:href="#DejaVuSans-31"/>
       <use xlink:href="#DejaVuSans-2e" x="63.623047"/>
       <use xlink:href="#DejaVuSans-30" x="95.410156"/>
      </g>
     </g>
    </g>
    <g id="xtick_7">
     <g id="line2d_13">
      <path d="M 342.83625 243.24375 
L 342.83625 7.2 
" clip-path="url(#p5f99aa1ffe)" style="fill: none; stroke-dasharray: 2.96,1.28; stroke-dashoffset: 0; stroke: #b0b0b0; stroke-width: 0.8"/>
     </g>
     <g id="line2d_14">
      <g>
       <use xlink:href="#m547f16ffe3" x="342.83625" y="243.24375" style="stroke: #000000; stroke-width: 0.8"/>
      </g>
     </g>
     <g id="text_7">
      <!-- 1.2 -->
      <g transform="translate(334.884687 257.842187) scale(0.1 -0.1)">
       <use xlink:href="#DejaVuSans-31"/>
       <use xlink:href="#DejaVuSans-2e" x="63.623047"/>
       <use xlink:href="#DejaVuSans-32" x="95.410156"/>
      </g>
     </g>
    </g>
    <g id="xtick_8">
     <g id="line2d_15">
      <path d="M 392.67875 243.24375 
L 392.67875 7.2 
" clip-path="url(#p5f99aa1ffe)" style="fill: none; stroke-dasharray: 2.96,1.28; stroke-dashoffset: 0; stroke: #b0b0b0; stroke-width: 0.8"/>
     </g>
     <g id="line2d_16">
      <g>
       <use xlink:href="#m547f16ffe3" x="392.67875" y="243.24375" style="stroke: #000000; stroke-width: 0.8"/>
      </g>
     </g>
     <g id="text_8">
      <!-- 1.4 -->
      <g transform="translate(384.727187 257.842187) scale(0.1 -0.1)">
       <use xlink:href="#DejaVuSans-31"/>
       <use xlink:href="#DejaVuSans-2e" x="63.623047"/>
       <use xlink:href="#DejaVuSans-34" x="95.410156"/>
      </g>
     </g>
    </g>
    <g id="text_9">
     <!-- $V_\mathrm{in}$ (V) -->
     <g transform="translate(214.990625 271.520312) scale(0.1 -0.1)">
      <defs>
       <path id="DejaVuSans-Oblique-56" d="M 1319 0 
L 500 4666 
L 1119 4666 
L 1797 653 
L 4063 4666 
L 4750 4666 
L 2053 0 
L 1319 0 
z
" transform="scale(0.015625)"/>
       <path id="DejaVuSans-69" d="M 603 3500 
L 1178 3500 
L 1178 0 
L 603 0 
L 603 3500 
z
M 603 4863 
L 1178 4863 
L 1178 4134 
L 603 4134 
L 603 4863 
z
" transform="scale(0.015625)"/>
       <path id="DejaVuSans-6e" d="M 3513 2113 
L 3513 0 
L 2938 0 
L 2938 2094 
Q 2938 2591 2744 2837 
Q 2550 3084 2163 3084 
Q 1697 3084 1428 2787 
Q 1159 2491 1159 1978 
L 1159 0 
L 581 0 
L 581 3500 
L 1159 3500 
L 1159 2956 
Q 1366 3272 1645 3428 
Q 1925 3584 2291 3584 
Q 2894 3584 3203 3211 
Q 3513 2838 3513 2113 
z
" transform="scale(0.015625)"/>
       <path id="DejaVuSans-20" transform="scale(0.015625)"/>
       <path id="DejaVuSans-28" d="M 1984 4856 
Q 1566 4138 1362 3434 
Q 1159 2731 1159 2009 
Q 1159 1288 1364 580 
Q 1569 -128 1984 -844 
L 1484 -844 
Q 1016 -109 783 600 
Q 550 1309 550 2009 
Q 550 2706 781 3412 
Q 1013 4119 1484 4856 
L 1984 4856 
z
" transform="scale(0.015625)"/>
       <path id="DejaVuSans-56" d="M 1831 0 
L 50 4666 
L 709 4666 
L 2188 738 
L 3669 4666 
L 4325 4666 
L 2547 0 
L 1831 0 
z
" transform="scale(0.015625)"/>
       <path id="DejaVuSans-29" d="M 513 4856 
L 1013 4856 
Q 1481 4119 1714 3412 
Q 1947 2706 1947 2009 
Q 1947 1309 1714 600 
Q 1481 -109 1013 -844 
L 513 -844 
Q 928 -128 1133 580 
Q 1338 1288 1338 2009 
Q 1338 2731 1133 3434 
Q 928 4138 513 4856 
z
" transform="scale(0.015625)"/>
      </defs>
      <use xlink:href="#DejaVuSans-Oblique-56" transform="translate(0 0.125)"/>
      <use xlink:href="#DejaVuSans-69" transform="translate(68.408203 -16.28125) scale(0.7)"/>
      <use xlink:href="#DejaVuSans-6e" transform="translate(87.856445 -16.28125) scale(0.7)"/>
      <use xlink:href="#DejaVuSans-20" transform="translate(134.956055 0.125)"/>
      <use xlink:href="#DejaVuSans-28" transform="translate(166.743164 0.125)"/>
      <use xlink:href="#DejaVuSans-56" transform="translate(205.756836 0.125)"/>
      <use xlink:href="#DejaVuSans-29" transform="translate(274.165039 0.125)"/>
     </g>
    </g>
   </g>
   <g id="matplotlib.axis_2">
    <g id="ytick_1">
     <g id="line2d_17">
      <path d="M 43.78125 243.24375 
L 417.6 243.24375 
" clip-path="url(#p5f99aa1ffe)" style="fill: none; stroke-dasharray: 2.96,1.28; stroke-dashoffset: 0; stroke: #b0b0b0; stroke-width: 0.8"/>
     </g>
     <g id="line2d_18">
      <defs>
       <path id="m97fe822f1b" d="M 0 0 
L -3.5 0 
" style="stroke: #000000; stroke-width: 0.8"/>
      </defs>
      <g>
       <use xlink:href="#m97fe822f1b" x="43.78125" y="243.24375" style="stroke: #000000; stroke-width: 0.8"/>
      </g>
     </g>
     <g id="text_10">
      <!-- 0.0 -->
      <g transform="translate(20.878125 247.042969) scale(0.1 -0.1)">
       <use xlink:href="#DejaVuSans-30"/>
       <use xlink:href="#DejaVuSans-2e" x="63.623047"/>
       <use xlink:href="#DejaVuSans-30" x="95.410156"/>
      </g>
     </g>
    </g>
    <g id="ytick_2">
     <g id="line2d_19">
      <path d="M 43.78125 215.143304 
L 417.6 215.143304 
" clip-path="url(#p5f99aa1ffe)" style="fill: none; stroke-dasharray: 2.96,1.28; stroke-dashoffset: 0; stroke: #b0b0b0; stroke-width: 0.8"/>
     </g>
     <g id="line2d_20">
      <g>
       <use xlink:href="#m97fe822f1b" x="43.78125" y="215.143304" style="stroke: #000000; stroke-width: 0.8"/>
      </g>
     </g>
     <g id="text_11">
      <!-- 0.5 -->
      <g transform="translate(20.878125 218.942522) scale(0.1 -0.1)">
       <defs>
        <path id="DejaVuSans-35" d="M 691 4666 
L 3169 4666 
L 3169 4134 
L 1269 4134 
L 1269 2991 
Q 1406 3038 1543 3061 
Q 1681 3084 1819 3084 
Q 2600 3084 3056 2656 
Q 3513 2228 3513 1497 
Q 3513 744 3044 326 
Q 2575 -91 1722 -91 
Q 1428 -91 1123 -41 
Q 819 9 494 109 
L 494 744 
Q 775 591 1075 516 
Q 1375 441 1709 441 
Q 2250 441 2565 725 
Q 2881 1009 2881 1497 
Q 2881 1984 2565 2268 
Q 2250 2553 1709 2553 
Q 1456 2553 1204 2497 
Q 953 2441 691 2322 
L 691 4666 
z
" transform="scale(0.015625)"/>
       </defs>
       <use xlink:href="#DejaVuSans-30"/>
       <use xlink:href="#DejaVuSans-2e" x="63.623047"/>
       <use xlink:href="#DejaVuSans-35" x="95.410156"/>
      </g>
     </g>
    </g>
    <g id="ytick_3">
     <g id="line2d_21">
      <path d="M 43.78125 187.042857 
L 417.6 187.042857 
" clip-path="url(#p5f99aa1ffe)" style="fill: none; stroke-dasharray: 2.96,1.28; stroke-dashoffset: 0; stroke: #b0b0b0; stroke-width: 0.8"/>
     </g>
     <g id="line2d_22">
      <g>
       <use xlink:href="#m97fe822f1b" x="43.78125" y="187.042857" style="stroke: #000000; stroke-width: 0.8"/>
      </g>
     </g>
     <g id="text_12">
      <!-- 1.0 -->
      <g transform="translate(20.878125 190.842076) scale(0.1 -0.1)">
       <use xlink:href="#DejaVuSans-31"/>
       <use xlink:href="#DejaVuSans-2e" x="63.623047"/>
       <use xlink:href="#DejaVuSans-30" x="95.410156"/>
      </g>
     </g>
    </g>
    <g id="ytick_4">
     <g id="line2d_23">
      <path d="M 43.78125 158.942411 
L 417.6 158.942411 
" clip-path="url(#p5f99aa1ffe)" style="fill: none; stroke-dasharray: 2.96,1.28; stroke-dashoffset: 0; stroke: #b0b0b0; stroke-width: 0.8"/>
     </g>
     <g id="line2d_24">
      <g>
       <use xlink:href="#m97fe822f1b" x="43.78125" y="158.942411" style="stroke: #000000; stroke-width: 0.8"/>
      </g>
     </g>
     <g id="text_13">
      <!-- 1.5 -->
      <g transform="translate(20.878125 162.741629) scale(0.1 -0.1)">
       <use xlink:href="#DejaVuSans-31"/>
       <use xlink:href="#DejaVuSans-2e" x="63.623047"/>
       <use xlink:href="#DejaVuSans-35" x="95.410156"/>
      </g>
     </g>
    </g>
    <g id="ytick_5">
     <g id="line2d_25">
      <path d="M 43.78125 130.841964 
L 417.6 130.841964 
" clip-path="url(#p5f99aa1ffe)" style="fill: none; stroke-dasharray: 2.96,1.28; stroke-dashoffset: 0; stroke: #b0b0b0; stroke-width: 0.8"/>
     </g>
     <g id="line2d_26">
      <g>
       <use xlink:href="#m97fe822f1b" x="43.78125" y="130.841964" style="stroke: #000000; stroke-width: 0.8"/>
      </g>
     </g>
     <g id="text_14">
      <!-- 2.0 -->
      <g transform="translate(20.878125 134.641183) scale(0.1 -0.1)">
       <use xlink:href="#DejaVuSans-32"/>
       <use xlink:href="#DejaVuSans-2e" x="63.623047"/>
       <use xlink:href="#DejaVuSans-30" x="95.410156"/>
      </g>
     </g>
    </g>
    <g id="ytick_6">
     <g id="line2d_27">
      <path d="M 43.78125 102.741518 
L 417.6 102.741518 
" clip-path="url(#p5f99aa1ffe)" style="fill: none; stroke-dasharray: 2.96,1.28; stroke-dashoffset: 0; stroke: #b0b0b0; stroke-width: 0.8"/>
     </g>
     <g id="line2d_28">
      <g>
       <use xlink:href="#m97fe822f1b" x="43.78125" y="102.741518" style="stroke: #000000; stroke-width: 0.8"/>
      </g>
     </g>
     <g id="text_15">
      <!-- 2.5 -->
      <g transform="translate(20.878125 106.540737) scale(0.1 -0.1)">
       <use xlink:href="#DejaVuSans-32"/>
       <use xlink:href="#DejaVuSans-2e" x="63.623047"/>
       <use xlink:href="#DejaVuSans-35" x="95.410156"/>
      </g>
     </g>
    </g>
    <g id="ytick_7">
     <g id="line2d_29">
      <path d="M 43.78125 74.641071 
L 417.6 74.641071 
" clip-path="url(#p5f99aa1ffe)" style="fill: none; stroke-dasharray: 2.96,1.28; stroke-dashoffset: 0; stroke: #b0b0b0; stroke-width: 0.8"/>
     </g>
     <g id="line2d_30">
      <g>
       <use xlink:href="#m97fe822f1b" x="43.78125" y="74.641071" style="stroke: #000000; stroke-width: 0.8"/>
      </g>
     </g>
     <g id="text_16">
      <!-- 3.0 -->
      <g transform="translate(20.878125 78.44029) scale(0.1 -0.1)">
       <defs>
        <path id="DejaVuSans-33" d="M 2597 2516 
Q 3050 2419 3304 2112 
Q 3559 1806 3559 1356 
Q 3559 666 3084 287 
Q 2609 -91 1734 -91 
Q 1441 -91 1130 -33 
Q 819 25 488 141 
L 488 750 
Q 750 597 1062 519 
Q 1375 441 1716 441 
Q 2309 441 2620 675 
Q 2931 909 2931 1356 
Q 2931 1769 2642 2001 
Q 2353 2234 1838 2234 
L 1294 2234 
L 1294 2753 
L 1863 2753 
Q 2328 2753 2575 2939 
Q 2822 3125 2822 3475 
Q 2822 3834 2567 4026 
Q 2313 4219 1838 4219 
Q 1578 4219 1281 4162 
Q 984 4106 628 3988 
L 628 4550 
Q 988 4650 1302 4700 
Q 1616 4750 1894 4750 
Q 2613 4750 3031 4423 
Q 3450 4097 3450 3541 
Q 3450 3153 3228 2886 
Q 3006 2619 2597 2516 
z
" transform="scale(0.015625)"/>
       </defs>
       <use xlink:href="#DejaVuSans-33"/>
       <use xlink:href="#DejaVuSans-2e" x="63.623047"/>
       <use xlink:href="#DejaVuSans-30" x="95.410156"/>
      </g>
     </g>
    </g>
    <g id="ytick_8">
     <g id="line2d_31">
      <path d="M 43.78125 46.540625 
L 417.6 46.540625 
" clip-path="url(#p5f99aa1ffe)" style="fill: none; stroke-dasharray: 2.96,1.28; stroke-dashoffset: 0; stroke: #b0b0b0; stroke-width: 0.8"/>
     </g>
     <g id="line2d_32">
      <g>
       <use xlink:href="#m97fe822f1b" x="43.78125" y="46.540625" style="stroke: #000000; stroke-width: 0.8"/>
      </g>
     </g>
     <g id="text_17">
      <!-- 3.5 -->
      <g transform="translate(20.878125 50.339844) scale(0.1 -0.1)">
       <use xlink:href="#DejaVuSans-33"/>
       <use xlink:href="#DejaVuSans-2e" x="63.623047"/>
       <use xlink:href="#DejaVuSans-35" x="95.410156"/>
      </g>
     </g>
    </g>
    <g id="ytick_9">
     <g id="line2d_33">
      <path d="M 43.78125 18.440179 
L 417.6 18.440179 
" clip-path="url(#p5f99aa1ffe)" style="fill: none; stroke-dasharray: 2.96,1.28; stroke-dashoffset: 0; stroke: #b0b0b0; stroke-width: 0.8"/>
     </g>
     <g id="line2d_34">
      <g>
       <use xlink:href="#m97fe822f1b" x="43.78125" y="18.440179" style="stroke: #000000; stroke-width: 0.8"/>
      </g>
     </g>
     <g id="text_18">
      <!-- 4.0 -->
      <g transform="translate(20.878125 22.239397) scale(0.1 -0.1)">
       <use xlink:href="#DejaVuSans-34"/>
       <use xlink:href="#DejaVuSans-2e" x="63.623047"/>
       <use xlink:href="#DejaVuSans-30" x="95.410156"/>
      </g>
     </g>
    </g>
    <g id="text_19">
     <!-- $R_\mathrm{on}$ ($k\Omega$) -->
     <g transform="translate(14.798438 145.421875) rotate(-90) scale(0.1 -0.1)">
      <defs>
       <path id="DejaVuSans-Oblique-52" d="M 1613 4147 
L 1294 2491 
L 2106 2491 
Q 2584 2491 2879 2755 
Q 3175 3019 3175 3444 
Q 3175 3784 2976 3965 
Q 2778 4147 2406 4147 
L 1613 4147 
z
M 2772 2241 
Q 2972 2194 3105 2009 
Q 3238 1825 3413 1275 
L 3809 0 
L 3144 0 
L 2778 1197 
Q 2638 1659 2453 1815 
Q 2269 1972 1888 1972 
L 1191 1972 
L 806 0 
L 172 0 
L 1081 4666 
L 2503 4666 
Q 3150 4666 3495 4373 
Q 3841 4081 3841 3531 
Q 3841 3044 3547 2687 
Q 3253 2331 2772 2241 
z
" transform="scale(0.015625)"/>
       <path id="DejaVuSans-6f" d="M 1959 3097 
Q 1497 3097 1228 2736 
Q 959 2375 959 1747 
Q 959 1119 1226 758 
Q 1494 397 1959 397 
Q 2419 397 2687 759 
Q 2956 1122 2956 1747 
Q 2956 2369 2687 2733 
Q 2419 3097 1959 3097 
z
M 1959 3584 
Q 2709 3584 3137 3096 
Q 3566 2609 3566 1747 
Q 3566 888 3137 398 
Q 2709 -91 1959 -91 
Q 1206 -91 779 398 
Q 353 888 353 1747 
Q 353 2609 779 3096 
Q 1206 3584 1959 3584 
z
" transform="scale(0.015625)"/>
       <path id="DejaVuSans-Oblique-6b" d="M 1172 4863 
L 1747 4863 
L 1197 2028 
L 3169 3500 
L 3916 3500 
L 1716 1825 
L 3322 0 
L 2625 0 
L 1131 1709 
L 800 0 
L 225 0 
L 1172 4863 
z
" transform="scale(0.015625)"/>
       <path id="DejaVuSans-3a9" d="M 4647 556 
L 4647 0 
L 2772 0 
L 2772 556 
Q 3325 859 3634 1378 
Q 3944 1897 3944 2528 
Q 3944 3278 3531 3731 
Q 3119 4184 2444 4184 
Q 1769 4184 1355 3729 
Q 941 3275 941 2528 
Q 941 1897 1250 1378 
Q 1563 859 2119 556 
L 2119 0 
L 244 0 
L 244 556 
L 1241 556 
Q 747 991 519 1456 
Q 294 1922 294 2497 
Q 294 3491 894 4106 
Q 1491 4722 2444 4722 
Q 3391 4722 3994 4106 
Q 4594 3494 4594 2528 
Q 4594 1922 4372 1459 
Q 4150 997 3647 556 
L 4647 556 
z
" transform="scale(0.015625)"/>
      </defs>
      <use xlink:href="#DejaVuSans-Oblique-52" transform="translate(0 0.015625)"/>
      <use xlink:href="#DejaVuSans-6f" transform="translate(69.482422 -16.390625) scale(0.7)"/>
      <use xlink:href="#DejaVuSans-6e" transform="translate(112.30957 -16.390625) scale(0.7)"/>
      <use xlink:href="#DejaVuSans-20" transform="translate(159.40918 0.015625)"/>
      <use xlink:href="#DejaVuSans-28" transform="translate(191.196289 0.015625)"/>
      <use xlink:href="#DejaVuSans-Oblique-6b" transform="translate(230.209961 0.015625)"/>
      <use xlink:href="#DejaVuSans-3a9" transform="translate(288.120117 0.015625)"/>
      <use xlink:href="#DejaVuSans-29" transform="translate(364.536133 0.015625)"/>
     </g>
    </g>
   </g>
   <g id="line2d_35">
    <path d="M 43.78125 213.275698 
L 48.7655 212.775231 
L 53.74975 212.24214 
L 58.734 211.675422 
L 63.71825 211.072206 
L 68.7025 210.429303 
L 73.68675 209.74317 
L 78.671 209.009858 
L 83.65525 208.224955 
L 88.6395 207.383516 
L 93.62375 206.479991 
L 98.608 205.508124 
L 103.59225 204.460854 
L 108.5765 203.330179 
L 113.56075 202.107008 
L 118.545 200.780987 
L 123.52925 199.34029 
L 128.5135 197.771393 
L 133.49775 196.058819 
L 138.482 194.184903 
L 143.46625 192.129626 
L 148.4505 189.870656 
L 153.43475 187.383857 
L 158.419 184.644659 
L 163.40325 181.630693 
L 168.3875 178.325483 
L 173.37175 174.721298 
L 178.356 170.817809 
L 183.34025 166.615741 
L 188.3245 162.110377 
L 193.30875 157.290062 
L 198.293 152.173687 
L 203.27725 146.681267 
L 208.2615 140.833623 
L 213.24575 134.629637 
L 218.23 128.081933 
L 223.21425 121.222519 
L 228.1985 114.109367 
L 233.18275 106.833699 
L 238.167 99.527332 
L 243.15125 92.368776 
L 248.1355 85.586174 
L 253.11975 79.454435 
L 258.104 74.283522 
L 263.08825 70.394855 
L 268.0725 68.083282 
L 273.05675 67.563629 
L 278.041 68.905408 
L 283.02525 71.973298 
L 288.0095 76.253505 
L 292.99375 81.624697 
L 297.978 87.374155 
L 302.96225 93.117249 
L 307.9465 98.62632 
L 312.93075 103.79597 
L 317.915 108.594537 
L 322.89925 113.028098 
L 327.8835 117.119431 
L 332.86775 120.897132 
L 337.852 124.390428 
L 342.83625 127.626928 
L 347.8205 130.631792 
L 352.80475 133.427562 
L 357.789 136.034281 
L 362.77325 138.469719 
L 367.7575 140.74963 
L 372.74175 142.887995 
L 377.726 144.897246 
L 382.71025 146.788464 
L 387.6945 148.571548 
L 392.67875 150.255364 
L 397.663 151.847871 
L 402.64725 153.356234 
L 407.6315 154.786912 
L 412.61575 156.145748 
L 417.6 157.438035 
" clip-path="url(#p5f99aa1ffe)" style="fill: none; stroke: #1f77b4; stroke-width: 2; stroke-linecap: square"/>
   </g>
   <g id="line2d_36">
    <path d="M 43.78125 228.905798 
L 48.7655 228.680556 
L 53.74975 228.440739 
L 58.734 228.185958 
L 63.71825 227.914948 
L 68.7025 227.626308 
L 73.68675 227.318483 
L 78.671 226.989739 
L 83.65525 226.638142 
L 88.6395 226.261528 
L 93.62375 225.857469 
L 98.608 225.423233 
L 103.59225 224.955738 
L 108.5765 224.451497 
L 113.56075 223.906553 
L 118.545 223.316407 
L 123.52925 222.675924 
L 128.5135 221.979242 
L 133.49775 221.219665 
L 138.482 220.389562 
L 143.46625 219.48031 
L 148.4505 218.482319 
L 153.43475 217.385283 
L 158.419 216.178801 
L 163.40325 214.853536 
L 168.3875 213.402716 
L 173.37175 211.822997 
L 178.356 210.113255 
L 183.34025 208.271403 
L 188.3245 206.291762 
L 193.30875 204.176018 
L 198.293 201.891078 
L 203.27725 199.434468 
L 208.2615 196.794452 
L 213.24575 193.961619 
L 218.23 190.930762 
L 223.21425 187.703266 
L 228.1985 184.290205 
L 233.18275 180.716192 
L 238.167 177.023926 
L 243.15125 173.279119 
L 248.1355 169.575067 
L 253.11975 166.035654 
L 258.104 162.81489 
L 263.08825 160.090539 
L 268.0725 158.048985 
L 273.05675 156.85877 
L 278.041 156.632283 
L 283.02525 157.381836 
L 288.0095 158.99062 
L 292.99375 161.158481 
L 297.978 163.781417 
L 302.96225 166.520034 
L 307.9465 169.214111 
L 312.93075 171.778714 
L 317.915 174.178941 
L 322.89925 176.407452 
L 327.8835 178.470201 
L 332.86775 180.378682 
L 337.852 182.146065 
L 342.83625 183.785407 
L 347.8205 185.308895 
L 352.80475 186.727591 
L 357.789 188.051405 
L 362.77325 189.289161 
L 367.7575 190.448708 
L 372.74175 191.537021 
L 377.726 192.560313 
L 382.71025 193.524126 
L 387.6945 194.433418 
L 392.67875 195.29263 
L 397.663 196.105752 
L 402.64725 196.87638 
L 407.6315 197.607757 
L 412.61575 198.302816 
L 417.6 198.96422 
" clip-path="url(#p5f99aa1ffe)" style="fill: none; stroke: #ff7f0e; stroke-width: 2; stroke-linecap: square"/>
   </g>
   <g id="line2d_37">
    <path d="M 43.78125 228.905883 
L 48.7655 228.680631 
L 53.74975 228.440807 
L 58.734 228.186019 
L 63.71825 227.915003 
L 68.7025 227.626358 
L 73.68675 227.318529 
L 78.671 226.989781 
L 83.65525 226.638181 
L 88.6395 226.261564 
L 93.62375 225.857503 
L 98.608 225.423265 
L 103.59225 224.955769 
L 108.5765 224.451527 
L 113.56075 223.906583 
L 118.545 223.316436 
L 123.52925 222.675953 
L 128.5135 221.979271 
L 133.49775 221.219694 
L 138.482 220.389592 
L 143.46625 219.48034 
L 148.4505 218.48235 
L 153.43475 217.385315 
L 158.419 216.178834 
L 163.40325 214.853571 
L 168.3875 213.402752 
L 173.37175 211.823035 
L 178.356 210.113294 
L 183.34025 208.271445 
L 188.3245 206.291805 
L 193.30875 204.176062 
L 198.293 201.891124 
L 203.27725 199.434516 
L 208.2615 196.794501 
L 213.24575 193.961669 
L 218.23 190.930811 
L 223.21425 187.703315 
L 228.1985 184.290252 
L 233.18275 180.716235 
L 238.167 177.023964 
L 243.15125 173.279149 
L 248.1355 169.575087 
L 253.11975 166.03566 
L 258.104 162.814879 
L 263.08825 160.090508 
L 268.0725 158.048931 
L 273.05675 156.858692 
L 278.041 156.632181 
L 283.02525 157.381712 
L 288.0095 158.990477 
L 292.99375 161.158321 
L 297.978 163.781244 
L 302.96225 166.51985 
L 307.9465 169.213917 
L 312.93075 171.778511 
L 317.915 174.178731 
L 322.89925 176.407234 
L 327.8835 178.469976 
L 332.86775 180.378449 
L 337.852 182.145825 
L 342.83625 183.78516 
L 347.8205 185.30864 
L 352.80475 186.727327 
L 357.789 188.051133 
L 362.77325 189.288881 
L 367.7575 190.448418 
L 372.74175 191.53672 
L 377.726 192.560002 
L 382.71025 193.523804 
L 387.6945 194.433083 
L 392.67875 195.292281 
L 397.663 196.105389 
L 402.64725 196.876 
L 407.6315 197.607357 
L 412.61575 198.302396 
L 417.6 198.963777 
" clip-path="url(#p5f99aa1ffe)" style="fill: none; stroke: #2ca02c; stroke-width: 2; stroke-linecap: square"/>
   </g>
   <g id="line2d_38">
    <path d="M 43.78125 204.058724 
L 48.7655 203.617094 
L 53.74975 203.152602 
L 58.734 202.665138 
L 63.71825 202.15315 
L 68.7025 201.614949 
L 73.68675 201.048701 
L 78.671 200.452402 
L 83.65525 199.823866 
L 88.6395 199.1607 
L 93.62375 198.46028 
L 98.608 197.719725 
L 103.59225 196.935862 
L 108.5765 196.105196 
L 113.56075 195.223871 
L 118.545 194.287632 
L 123.52925 193.291801 
L 128.5135 192.231268 
L 133.49775 191.10056 
L 138.482 189.894049 
L 143.46625 188.606475 
L 148.4505 187.234042 
L 153.43475 185.776275 
L 158.419 184.238037 
L 163.40325 182.629188 
L 168.3875 180.959173 
L 173.37175 179.229779 
L 178.356 177.433288 
L 183.34025 175.555839 
L 188.3245 173.580869 
L 193.30875 171.490678 
L 198.293 169.266737 
L 203.27725 166.887724 
L 208.2615 164.335635 
L 213.24575 161.586634 
L 218.23 158.615746 
L 223.21425 155.395385 
L 228.1985 151.894947 
L 233.18275 148.080424 
L 238.167 143.914046 
L 243.15125 139.354024 
L 248.1355 134.354451 
L 253.11975 128.865524 
L 258.104 122.834294 
L 263.08825 116.206302 
L 268.0725 108.928675 
L 273.05675 100.955527 
L 278.041 92.256948 
L 283.02525 82.833443 
L 288.0095 72.654101 
L 292.99375 61.991832 
L 297.978 51.052898 
L 302.96225 40.508049 
L 307.9465 30.65151 
L 312.93075 22.503763 
L 317.915 16.933713 
L 322.89925 14.471128 
L 327.8835 14.983566 
L 332.86775 17.524689 
L 337.852 21.691762 
L 342.83625 26.424354 
L 347.8205 31.286345 
L 352.80475 36.060292 
L 357.789 40.651199 
L 362.77325 45.025087 
L 367.7575 49.176414 
L 372.74175 53.112089 
L 377.726 56.843954 
L 382.71025 60.385332 
L 387.6945 63.749504 
L 392.67875 66.949085 
L 397.663 69.995796 
L 402.64725 72.900424 
L 407.6315 75.672862 
L 412.61575 78.32217 
L 417.6 80.85665 
" clip-path="url(#p5f99aa1ffe)" style="fill: none; stroke: #d62728; stroke-width: 2; stroke-linecap: square"/>
   </g>
   <g id="patch_3">
    <path d="M 43.78125 243.24375 
L 43.78125 7.2 
" style="fill: none; stroke: #000000; stroke-width: 0.8; stroke-linejoin: miter; stroke-linecap: square"/>
   </g>
   <g id="patch_4">
    <path d="M 417.6 243.24375 
L 417.6 7.2 
" style="fill: none; stroke: #000000; stroke-width: 0.8; stroke-linejoin: miter; stroke-linecap: square"/>
   </g>
   <g id="patch_5">
    <path d="M 43.78125 243.24375 
L 417.6 243.24375 
" style="fill: none; stroke: #000000; stroke-width: 0.8; stroke-linejoin: miter; stroke-linecap: square"/>
   </g>
   <g id="patch_6">
    <path d="M 43.78125 7.2 
L 417.6 7.2 
" style="fill: none; stroke: #000000; stroke-width: 0.8; stroke-linejoin: miter; stroke-linecap: square"/>
   </g>
   <g id="legend_1">
    <g id="patch_7">
     <path d="M 50.78125 74 
L 207.08125 74 
Q 209.08125 74 209.08125 72 
L 209.08125 14.2 
Q 209.08125 12.2 207.08125 12.2 
L 50.78125 12.2 
Q 48.78125 12.2 48.78125 14.2 
L 48.78125 72 
Q 48.78125 74 50.78125 74 
z
" style="fill: #ffffff; opacity: 0.8; stroke: #cccccc; stroke-linejoin: miter"/>
    </g>
    <g id="line2d_39">
     <path d="M 52.78125 20.3 
L 62.78125 20.3 
L 72.78125 20.3 
" style="fill: none; stroke: #1f77b4; stroke-width: 2; stroke-linecap: square"/>
    </g>
    <g id="text_20">
     <!-- $W = 1\mu$, $L = 0.13\mu$, wo. d. -->
     <g transform="translate(80.78125 23.8) scale(0.1 -0.1)">
      <defs>
       <path id="DejaVuSans-Oblique-57" d="M 616 4666 
L 1228 4666 
L 1453 697 
L 3213 4666 
L 3916 4666 
L 4147 697 
L 5888 4666 
L 6528 4666 
L 4453 0 
L 3659 0 
L 3444 3891 
L 1697 0 
L 903 0 
L 616 4666 
z
" transform="scale(0.015625)"/>
       <path id="DejaVuSans-3d" d="M 678 2906 
L 4684 2906 
L 4684 2381 
L 678 2381 
L 678 2906 
z
M 678 1631 
L 4684 1631 
L 4684 1100 
L 678 1100 
L 678 1631 
z
" transform="scale(0.015625)"/>
       <path id="DejaVuSans-Oblique-3bc" d="M -84 -1331 
L 856 3500 
L 1434 3500 
L 1009 1322 
Q 997 1256 987 1175 
Q 978 1094 978 1013 
Q 978 722 1161 565 
Q 1344 409 1684 409 
Q 2147 409 2431 671 
Q 2716 934 2816 1459 
L 3213 3500 
L 3788 3500 
L 3266 809 
Q 3253 750 3248 706 
Q 3244 663 3244 628 
Q 3244 531 3283 486 
Q 3322 441 3406 441 
Q 3438 441 3492 456 
Q 3547 472 3647 513 
L 3559 50 
Q 3422 -19 3297 -55 
Q 3172 -91 3053 -91 
Q 2847 -91 2730 40 
Q 2613 172 2613 403 
Q 2438 153 2195 31 
Q 1953 -91 1625 -91 
Q 1334 -91 1117 43 
Q 900 178 831 397 
L 494 -1331 
L -84 -1331 
z
" transform="scale(0.015625)"/>
       <path id="DejaVuSans-2c" d="M 750 794 
L 1409 794 
L 1409 256 
L 897 -744 
L 494 -744 
L 750 256 
L 750 794 
z
" transform="scale(0.015625)"/>
       <path id="DejaVuSans-Oblique-4c" d="M 1075 4666 
L 1709 4666 
L 909 525 
L 3181 525 
L 3078 0 
L 172 0 
L 1075 4666 
z
" transform="scale(0.015625)"/>
       <path id="DejaVuSans-77" d="M 269 3500 
L 844 3500 
L 1563 769 
L 2278 3500 
L 2956 3500 
L 3675 769 
L 4391 3500 
L 4966 3500 
L 4050 0 
L 3372 0 
L 2619 2869 
L 1863 0 
L 1184 0 
L 269 3500 
z
" transform="scale(0.015625)"/>
       <path id="DejaVuSans-64" d="M 2906 2969 
L 2906 4863 
L 3481 4863 
L 3481 0 
L 2906 0 
L 2906 525 
Q 2725 213 2448 61 
Q 2172 -91 1784 -91 
Q 1150 -91 751 415 
Q 353 922 353 1747 
Q 353 2572 751 3078 
Q 1150 3584 1784 3584 
Q 2172 3584 2448 3432 
Q 2725 3281 2906 2969 
z
M 947 1747 
Q 947 1113 1208 752 
Q 1469 391 1925 391 
Q 2381 391 2643 752 
Q 2906 1113 2906 1747 
Q 2906 2381 2643 2742 
Q 2381 3103 1925 3103 
Q 1469 3103 1208 2742 
Q 947 2381 947 1747 
z
" transform="scale(0.015625)"/>
      </defs>
      <use xlink:href="#DejaVuSans-Oblique-57" transform="translate(0 0.015625)"/>
      <use xlink:href="#DejaVuSans-3d" transform="translate(118.359375 0.015625)"/>
      <use xlink:href="#DejaVuSans-31" transform="translate(221.630859 0.015625)"/>
      <use xlink:href="#DejaVuSans-Oblique-3bc" transform="translate(285.253906 0.015625)"/>
      <use xlink:href="#DejaVuSans-2c" transform="translate(348.876953 0.015625)"/>
      <use xlink:href="#DejaVuSans-20" transform="translate(380.664062 0.015625)"/>
      <use xlink:href="#DejaVuSans-Oblique-4c" transform="translate(412.451172 0.015625)"/>
      <use xlink:href="#DejaVuSans-3d" transform="translate(487.646484 0.015625)"/>
      <use xlink:href="#DejaVuSans-30" transform="translate(590.917969 0.015625)"/>
      <use xlink:href="#DejaVuSans-2e" transform="translate(654.541016 0.015625)"/>
      <use xlink:href="#DejaVuSans-31" transform="translate(686.328125 0.015625)"/>
      <use xlink:href="#DejaVuSans-33" transform="translate(749.951172 0.015625)"/>
      <use xlink:href="#DejaVuSans-Oblique-3bc" transform="translate(813.574219 0.015625)"/>
      <use xlink:href="#DejaVuSans-2c" transform="translate(877.197266 0.015625)"/>
      <use xlink:href="#DejaVuSans-20" transform="translate(908.984375 0.015625)"/>
      <use xlink:href="#DejaVuSans-77" transform="translate(940.771484 0.015625)"/>
      <use xlink:href="#DejaVuSans-6f" transform="translate(1022.558594 0.015625)"/>
      <use xlink:href="#DejaVuSans-2e" transform="translate(1083.740234 0.015625)"/>
      <use xlink:href="#DejaVuSans-20" transform="translate(1115.527344 0.015625)"/>
      <use xlink:href="#DejaVuSans-64" transform="translate(1147.314453 0.015625)"/>
      <use xlink:href="#DejaVuSans-2e" transform="translate(1210.791016 0.015625)"/>
     </g>
    </g>
    <g id="line2d_40">
     <path d="M 52.78125 35 
L 62.78125 35 
L 72.78125 35 
" style="fill: none; stroke: #ff7f0e; stroke-width: 2; stroke-linecap: square"/>
    </g>
    <g id="text_21">
     <!-- $W = 2\mu$, $L = 0.13\mu$, wo. d. -->
     <g transform="translate(80.78125 38.5) scale(0.1 -0.1)">
      <use xlink:href="#DejaVuSans-Oblique-57" transform="translate(0 0.015625)"/>
      <use xlink:href="#DejaVuSans-3d" transform="translate(118.359375 0.015625)"/>
      <use xlink:href="#DejaVuSans-32" transform="translate(221.630859 0.015625)"/>
      <use xlink:href="#DejaVuSans-Oblique-3bc" transform="translate(285.253906 0.015625)"/>
      <use xlink:href="#DejaVuSans-2c" transform="translate(348.876953 0.015625)"/>
      <use xlink:href="#DejaVuSans-20" transform="translate(380.664062 0.015625)"/>
      <use xlink:href="#DejaVuSans-Oblique-4c" transform="translate(412.451172 0.015625)"/>
      <use xlink:href="#DejaVuSans-3d" transform="translate(487.646484 0.015625)"/>
      <use xlink:href="#DejaVuSans-30" transform="translate(590.917969 0.015625)"/>
      <use xlink:href="#DejaVuSans-2e" transform="translate(654.541016 0.015625)"/>
      <use xlink:href="#DejaVuSans-31" transform="translate(686.328125 0.015625)"/>
      <use xlink:href="#DejaVuSans-33" transform="translate(749.951172 0.015625)"/>
      <use xlink:href="#DejaVuSans-Oblique-3bc" transform="translate(813.574219 0.015625)"/>
      <use xlink:href="#DejaVuSans-2c" transform="translate(877.197266 0.015625)"/>
      <use xlink:href="#DejaVuSans-20" transform="translate(908.984375 0.015625)"/>
      <use xlink:href="#DejaVuSans-77" transform="translate(940.771484 0.015625)"/>
      <use xlink:href="#DejaVuSans-6f" transform="translate(1022.558594 0.015625)"/>
      <use xlink:href="#DejaVuSans-2e" transform="translate(1083.740234 0.015625)"/>
      <use xlink:href="#DejaVuSans-20" transform="translate(1115.527344 0.015625)"/>
      <use xlink:href="#DejaVuSans-64" transform="translate(1147.314453 0.015625)"/>
      <use xlink:href="#DejaVuSans-2e" transform="translate(1210.791016 0.015625)"/>
     </g>
    </g>
    <g id="line2d_41">
     <path d="M 52.78125 49.7 
L 62.78125 49.7 
L 72.78125 49.7 
" style="fill: none; stroke: #2ca02c; stroke-width: 2; stroke-linecap: square"/>
    </g>
    <g id="text_22">
     <!-- $W = 2\mu$, $L = 0.13\mu$, w. d. -->
     <g transform="translate(80.78125 53.2) scale(0.1 -0.1)">
      <use xlink:href="#DejaVuSans-Oblique-57" transform="translate(0 0.015625)"/>
      <use xlink:href="#DejaVuSans-3d" transform="translate(118.359375 0.015625)"/>
      <use xlink:href="#DejaVuSans-32" transform="translate(221.630859 0.015625)"/>
      <use xlink:href="#DejaVuSans-Oblique-3bc" transform="translate(285.253906 0.015625)"/>
      <use xlink:href="#DejaVuSans-2c" transform="translate(348.876953 0.015625)"/>
      <use xlink:href="#DejaVuSans-20" transform="translate(380.664062 0.015625)"/>
      <use xlink:href="#DejaVuSans-Oblique-4c" transform="translate(412.451172 0.015625)"/>
      <use xlink:href="#DejaVuSans-3d" transform="translate(487.646484 0.015625)"/>
      <use xlink:href="#DejaVuSans-30" transform="translate(590.917969 0.015625)"/>
      <use xlink:href="#DejaVuSans-2e" transform="translate(654.541016 0.015625)"/>
      <use xlink:href="#DejaVuSans-31" transform="translate(686.328125 0.015625)"/>
      <use xlink:href="#DejaVuSans-33" transform="translate(749.951172 0.015625)"/>
      <use xlink:href="#DejaVuSans-Oblique-3bc" transform="translate(813.574219 0.015625)"/>
      <use xlink:href="#DejaVuSans-2c" transform="translate(877.197266 0.015625)"/>
      <use xlink:href="#DejaVuSans-20" transform="translate(908.984375 0.015625)"/>
      <use xlink:href="#DejaVuSans-77" transform="translate(940.771484 0.015625)"/>
      <use xlink:href="#DejaVuSans-2e" transform="translate(1022.558594 0.015625)"/>
      <use xlink:href="#DejaVuSans-20" transform="translate(1054.345703 0.015625)"/>
      <use xlink:href="#DejaVuSans-64" transform="translate(1086.132812 0.015625)"/>
      <use xlink:href="#DejaVuSans-2e" transform="translate(1149.609375 0.015625)"/>
     </g>
    </g>
    <g id="line2d_42">
     <path d="M 52.78125 64.4 
L 62.78125 64.4 
L 72.78125 64.4 
" style="fill: none; stroke: #d62728; stroke-width: 2; stroke-linecap: square"/>
    </g>
    <g id="text_23">
     <!-- $W = 2\mu$, $L = 0.50\mu$, wo. d. -->
     <g transform="translate(80.78125 67.9) scale(0.1 -0.1)">
      <use xlink:href="#DejaVuSans-Oblique-57" transform="translate(0 0.015625)"/>
      <use xlink:href="#DejaVuSans-3d" transform="translate(118.359375 0.015625)"/>
      <use xlink:href="#DejaVuSans-32" transform="translate(221.630859 0.015625)"/>
      <use xlink:href="#DejaVuSans-Oblique-3bc" transform="translate(285.253906 0.015625)"/>
      <use xlink:href="#DejaVuSans-2c" transform="translate(348.876953 0.015625)"/>
      <use xlink:href="#DejaVuSans-20" transform="translate(380.664062 0.015625)"/>
      <use xlink:href="#DejaVuSans-Oblique-4c" transform="translate(412.451172 0.015625)"/>
      <use xlink:href="#DejaVuSans-3d" transform="translate(487.646484 0.015625)"/>
      <use xlink:href="#DejaVuSans-30" transform="translate(590.917969 0.015625)"/>
      <use xlink:href="#DejaVuSans-2e" transform="translate(654.541016 0.015625)"/>
      <use xlink:href="#DejaVuSans-35" transform="translate(686.328125 0.015625)"/>
      <use xlink:href="#DejaVuSans-30" transform="translate(749.951172 0.015625)"/>
      <use xlink:href="#DejaVuSans-Oblique-3bc" transform="translate(813.574219 0.015625)"/>
      <use xlink:href="#DejaVuSans-2c" transform="translate(877.197266 0.015625)"/>
      <use xlink:href="#DejaVuSans-20" transform="translate(908.984375 0.015625)"/>
      <use xlink:href="#DejaVuSans-77" transform="translate(940.771484 0.015625)"/>
      <use xlink:href="#DejaVuSans-6f" transform="translate(1022.558594 0.015625)"/>
      <use xlink:href="#DejaVuSans-2e" transform="translate(1083.740234 0.015625)"/>
      <use xlink:href="#DejaVuSans-20" transform="translate(1115.527344 0.015625)"/>
      <use xlink:href="#DejaVuSans-64" transform="translate(1147.314453 0.015625)"/>
      <use xlink:href="#DejaVuSans-2e" transform="translate(1210.791016 0.015625)"/>
     </g>
    </g>
   </g>
  </g>
 </g>
 <defs>
  <clipPath id="p5f99aa1ffe">
   <rect x="43.78125" y="7.2" width="373.81875" height="236.04375"/>
  </clipPath>
 </defs>
</svg>
