<?xml version="1.0" encoding="utf-8" standalone="no"?>
<!DOCTYPE svg PUBLIC "-//W3C//DTD SVG 1.1//EN"
  "http://www.w3.org/Graphics/SVG/1.1/DTD/svg11.dtd">
<svg xmlns:xlink="http://www.w3.org/1999/xlink" width="424.8pt" height="280.8pt" viewBox="0 0 424.8 280.8" xmlns="http://www.w3.org/2000/svg" version="1.1">
 <metadata>
  <rdf:RDF xmlns:dc="http://purl.org/dc/elements/1.1/" xmlns:cc="http://creativecommons.org/ns#" xmlns:rdf="http://www.w3.org/1999/02/22-rdf-syntax-ns#">
   <cc:Work>
    <dc:type rdf:resource="http://purl.org/dc/dcmitype/StillImage"/>
    <dc:date>2025-05-26T10:18:55.315269</dc:date>
    <dc:format>image/svg+xml</dc:format>
    <dc:creator>
     <cc:Agent>
      <dc:title>Matplotlib v3.9.2, https://matplotlib.org/</dc:title>
     </cc:Agent>
    </dc:creator>
   </cc:Work>
  </rdf:RDF>
 </metadata>
 <defs>
  <style type="text/css">*{stroke-linejoin: round; stroke-linecap: butt}</style>
 </defs>
 <g id="figure_1">
  <g id="patch_1">
   <path d="M -0 280.8 
L 424.8 280.8 
L 424.8 0 
L -0 0 
z
" style="fill: #ffffff"/>
  </g>
  <g id="axes_1">
   <g id="patch_2">
    <path d="M 40.625 243.24375 
L 417.6 243.24375 
L 417.6 10.999219 
L 40.625 10.999219 
z
" style="fill: #ffffff"/>
   </g>
   <g id="matplotlib.axis_1">
    <g id="xtick_1">
     <g id="line2d_1">
      <path d="M 40.625 243.24375 
L 40.625 10.999219 
" clip-path="url(#p2e4282dc7e)" style="fill: none; stroke-dasharray: 2.96,1.28; stroke-dashoffset: 0; stroke: #b0b0b0; stroke-width: 0.8"/>
     </g>
     <g id="line2d_2">
      <defs>
       <path id="mcc176ce7e4" d="M 0 0 
L 0 3.5 
" style="stroke: #000000; stroke-width: 0.8"/>
      </defs>
      <g>
       <use xlink:href="#mcc176ce7e4" x="40.625" y="243.24375" style="stroke: #000000; stroke-width: 0.8"/>
      </g>
     </g>
     <g id="text_1">
      <!-- 0.0 -->
      <g transform="translate(32.673438 257.842187) scale(0.1 -0.1)">
       <defs>
        <path id="DejaVuSans-30" d="M 2034 4250 
Q 1547 4250 1301 3770 
Q 1056 3291 1056 2328 
Q 1056 1369 1301 889 
Q 1547 409 2034 409 
Q 2525 409 2770 889 
Q 3016 1369 3016 2328 
Q 3016 3291 2770 3770 
Q 2525 4250 2034 4250 
z
M 2034 4750 
Q 2819 4750 3233 4129 
Q 3647 3509 3647 2328 
Q 3647 1150 3233 529 
Q 2819 -91 2034 -91 
Q 1250 -91 836 529 
Q 422 1150 422 2328 
Q 422 3509 836 4129 
Q 1250 4750 2034 4750 
z
" transform="scale(0.015625)"/>
        <path id="DejaVuSans-2e" d="M 684 794 
L 1344 794 
L 1344 0 
L 684 0 
L 684 794 
z
" transform="scale(0.015625)"/>
       </defs>
       <use xlink:href="#DejaVuSans-30"/>
       <use xlink:href="#DejaVuSans-2e" x="63.623047"/>
       <use xlink:href="#DejaVuSans-30" x="95.410156"/>
      </g>
     </g>
    </g>
    <g id="xtick_2">
     <g id="line2d_3">
      <path d="M 90.888333 243.24375 
L 90.888333 10.999219 
" clip-path="url(#p2e4282dc7e)" style="fill: none; stroke-dasharray: 2.96,1.28; stroke-dashoffset: 0; stroke: #b0b0b0; stroke-width: 0.8"/>
     </g>
     <g id="line2d_4">
      <g>
       <use xlink:href="#mcc176ce7e4" x="90.888333" y="243.24375" style="stroke: #000000; stroke-width: 0.8"/>
      </g>
     </g>
     <g id="text_2">
      <!-- 0.2 -->
      <g transform="translate(82.936771 257.842187) scale(0.1 -0.1)">
       <defs>
        <path id="DejaVuSans-32" d="M 1228 531 
L 3431 531 
L 3431 0 
L 469 0 
L 469 531 
Q 828 903 1448 1529 
Q 2069 2156 2228 2338 
Q 2531 2678 2651 2914 
Q 2772 3150 2772 3378 
Q 2772 3750 2511 3984 
Q 2250 4219 1831 4219 
Q 1534 4219 1204 4116 
Q 875 4013 500 3803 
L 500 4441 
Q 881 4594 1212 4672 
Q 1544 4750 1819 4750 
Q 2544 4750 2975 4387 
Q 3406 4025 3406 3419 
Q 3406 3131 3298 2873 
Q 3191 2616 2906 2266 
Q 2828 2175 2409 1742 
Q 1991 1309 1228 531 
z
" transform="scale(0.015625)"/>
       </defs>
       <use xlink:href="#DejaVuSans-30"/>
       <use xlink:href="#DejaVuSans-2e" x="63.623047"/>
       <use xlink:href="#DejaVuSans-32" x="95.410156"/>
      </g>
     </g>
    </g>
    <g id="xtick_3">
     <g id="line2d_5">
      <path d="M 141.151667 243.24375 
L 141.151667 10.999219 
" clip-path="url(#p2e4282dc7e)" style="fill: none; stroke-dasharray: 2.96,1.28; stroke-dashoffset: 0; stroke: #b0b0b0; stroke-width: 0.8"/>
     </g>
     <g id="line2d_6">
      <g>
       <use xlink:href="#mcc176ce7e4" x="141.151667" y="243.24375" style="stroke: #000000; stroke-width: 0.8"/>
      </g>
     </g>
     <g id="text_3">
      <!-- 0.4 -->
      <g transform="translate(133.200104 257.842187) scale(0.1 -0.1)">
       <defs>
        <path id="DejaVuSans-34" d="M 2419 4116 
L 825 1625 
L 2419 1625 
L 2419 4116 
z
M 2253 4666 
L 3047 4666 
L 3047 1625 
L 3713 1625 
L 3713 1100 
L 3047 1100 
L 3047 0 
L 2419 0 
L 2419 1100 
L 313 1100 
L 313 1709 
L 2253 4666 
z
" transform="scale(0.015625)"/>
       </defs>
       <use xlink:href="#DejaVuSans-30"/>
       <use xlink:href="#DejaVuSans-2e" x="63.623047"/>
       <use xlink:href="#DejaVuSans-34" x="95.410156"/>
      </g>
     </g>
    </g>
    <g id="xtick_4">
     <g id="line2d_7">
      <path d="M 191.415 243.24375 
L 191.415 10.999219 
" clip-path="url(#p2e4282dc7e)" style="fill: none; stroke-dasharray: 2.96,1.28; stroke-dashoffset: 0; stroke: #b0b0b0; stroke-width: 0.8"/>
     </g>
     <g id="line2d_8">
      <g>
       <use xlink:href="#mcc176ce7e4" x="191.415" y="243.24375" style="stroke: #000000; stroke-width: 0.8"/>
      </g>
     </g>
     <g id="text_4">
      <!-- 0.6 -->
      <g transform="translate(183.463437 257.842187) scale(0.1 -0.1)">
       <defs>
        <path id="DejaVuSans-36" d="M 2113 2584 
Q 1688 2584 1439 2293 
Q 1191 2003 1191 1497 
Q 1191 994 1439 701 
Q 1688 409 2113 409 
Q 2538 409 2786 701 
Q 3034 994 3034 1497 
Q 3034 2003 2786 2293 
Q 2538 2584 2113 2584 
z
M 3366 4563 
L 3366 3988 
Q 3128 4100 2886 4159 
Q 2644 4219 2406 4219 
Q 1781 4219 1451 3797 
Q 1122 3375 1075 2522 
Q 1259 2794 1537 2939 
Q 1816 3084 2150 3084 
Q 2853 3084 3261 2657 
Q 3669 2231 3669 1497 
Q 3669 778 3244 343 
Q 2819 -91 2113 -91 
Q 1303 -91 875 529 
Q 447 1150 447 2328 
Q 447 3434 972 4092 
Q 1497 4750 2381 4750 
Q 2619 4750 2861 4703 
Q 3103 4656 3366 4563 
z
" transform="scale(0.015625)"/>
       </defs>
       <use xlink:href="#DejaVuSans-30"/>
       <use xlink:href="#DejaVuSans-2e" x="63.623047"/>
       <use xlink:href="#DejaVuSans-36" x="95.410156"/>
      </g>
     </g>
    </g>
    <g id="xtick_5">
     <g id="line2d_9">
      <path d="M 241.678333 243.24375 
L 241.678333 10.999219 
" clip-path="url(#p2e4282dc7e)" style="fill: none; stroke-dasharray: 2.96,1.28; stroke-dashoffset: 0; stroke: #b0b0b0; stroke-width: 0.8"/>
     </g>
     <g id="line2d_10">
      <g>
       <use xlink:href="#mcc176ce7e4" x="241.678333" y="243.24375" style="stroke: #000000; stroke-width: 0.8"/>
      </g>
     </g>
     <g id="text_5">
      <!-- 0.8 -->
      <g transform="translate(233.726771 257.842187) scale(0.1 -0.1)">
       <defs>
        <path id="DejaVuSans-38" d="M 2034 2216 
Q 1584 2216 1326 1975 
Q 1069 1734 1069 1313 
Q 1069 891 1326 650 
Q 1584 409 2034 409 
Q 2484 409 2743 651 
Q 3003 894 3003 1313 
Q 3003 1734 2745 1975 
Q 2488 2216 2034 2216 
z
M 1403 2484 
Q 997 2584 770 2862 
Q 544 3141 544 3541 
Q 544 4100 942 4425 
Q 1341 4750 2034 4750 
Q 2731 4750 3128 4425 
Q 3525 4100 3525 3541 
Q 3525 3141 3298 2862 
Q 3072 2584 2669 2484 
Q 3125 2378 3379 2068 
Q 3634 1759 3634 1313 
Q 3634 634 3220 271 
Q 2806 -91 2034 -91 
Q 1263 -91 848 271 
Q 434 634 434 1313 
Q 434 1759 690 2068 
Q 947 2378 1403 2484 
z
M 1172 3481 
Q 1172 3119 1398 2916 
Q 1625 2713 2034 2713 
Q 2441 2713 2670 2916 
Q 2900 3119 2900 3481 
Q 2900 3844 2670 4047 
Q 2441 4250 2034 4250 
Q 1625 4250 1398 4047 
Q 1172 3844 1172 3481 
z
" transform="scale(0.015625)"/>
       </defs>
       <use xlink:href="#DejaVuSans-30"/>
       <use xlink:href="#DejaVuSans-2e" x="63.623047"/>
       <use xlink:href="#DejaVuSans-38" x="95.410156"/>
      </g>
     </g>
    </g>
    <g id="xtick_6">
     <g id="line2d_11">
      <path d="M 291.941667 243.24375 
L 291.941667 10.999219 
" clip-path="url(#p2e4282dc7e)" style="fill: none; stroke-dasharray: 2.96,1.28; stroke-dashoffset: 0; stroke: #b0b0b0; stroke-width: 0.8"/>
     </g>
     <g id="line2d_12">
      <g>
       <use xlink:href="#mcc176ce7e4" x="291.941667" y="243.24375" style="stroke: #000000; stroke-width: 0.8"/>
      </g>
     </g>
     <g id="text_6">
      <!-- 1.0 -->
      <g transform="translate(283.990104 257.842187) scale(0.1 -0.1)">
       <defs>
        <path id="DejaVuSans-31" d="M 794 531 
L 1825 531 
L 1825 4091 
L 703 3866 
L 703 4441 
L 1819 4666 
L 2450 4666 
L 2450 531 
L 3481 531 
L 3481 0 
L 794 0 
L 794 531 
z
" transform="scale(0.015625)"/>
       </defs>
       <use xlink:href="#DejaVuSans-31"/>
       <use xlink:href="#DejaVuSans-2e" x="63.623047"/>
       <use xlink:href="#DejaVuSans-30" x="95.410156"/>
      </g>
     </g>
    </g>
    <g id="xtick_7">
     <g id="line2d_13">
      <path d="M 342.205 243.24375 
L 342.205 10.999219 
" clip-path="url(#p2e4282dc7e)" style="fill: none; stroke-dasharray: 2.96,1.28; stroke-dashoffset: 0; stroke: #b0b0b0; stroke-width: 0.8"/>
     </g>
     <g id="line2d_14">
      <g>
       <use xlink:href="#mcc176ce7e4" x="342.205" y="243.24375" style="stroke: #000000; stroke-width: 0.8"/>
      </g>
     </g>
     <g id="text_7">
      <!-- 1.2 -->
      <g transform="translate(334.253437 257.842187) scale(0.1 -0.1)">
       <use xlink:href="#DejaVuSans-31"/>
       <use xlink:href="#DejaVuSans-2e" x="63.623047"/>
       <use xlink:href="#DejaVuSans-32" x="95.410156"/>
      </g>
     </g>
    </g>
    <g id="xtick_8">
     <g id="line2d_15">
      <path d="M 392.468333 243.24375 
L 392.468333 10.999219 
" clip-path="url(#p2e4282dc7e)" style="fill: none; stroke-dasharray: 2.96,1.28; stroke-dashoffset: 0; stroke: #b0b0b0; stroke-width: 0.8"/>
     </g>
     <g id="line2d_16">
      <g>
       <use xlink:href="#mcc176ce7e4" x="392.468333" y="243.24375" style="stroke: #000000; stroke-width: 0.8"/>
      </g>
     </g>
     <g id="text_8">
      <!-- 1.4 -->
      <g transform="translate(384.516771 257.842187) scale(0.1 -0.1)">
       <use xlink:href="#DejaVuSans-31"/>
       <use xlink:href="#DejaVuSans-2e" x="63.623047"/>
       <use xlink:href="#DejaVuSans-34" x="95.410156"/>
      </g>
     </g>
    </g>
    <g id="text_9">
     <!-- $V_\mathrm{in}$ (V) -->
     <g transform="translate(213.4125 271.520312) scale(0.1 -0.1)">
      <defs>
       <path id="DejaVuSans-Oblique-56" d="M 1319 0 
L 500 4666 
L 1119 4666 
L 1797 653 
L 4063 4666 
L 4750 4666 
L 2053 0 
L 1319 0 
z
" transform="scale(0.015625)"/>
       <path id="DejaVuSans-69" d="M 603 3500 
L 1178 3500 
L 1178 0 
L 603 0 
L 603 3500 
z
M 603 4863 
L 1178 4863 
L 1178 4134 
L 603 4134 
L 603 4863 
z
" transform="scale(0.015625)"/>
       <path id="DejaVuSans-6e" d="M 3513 2113 
L 3513 0 
L 2938 0 
L 2938 2094 
Q 2938 2591 2744 2837 
Q 2550 3084 2163 3084 
Q 1697 3084 1428 2787 
Q 1159 2491 1159 1978 
L 1159 0 
L 581 0 
L 581 3500 
L 1159 3500 
L 1159 2956 
Q 1366 3272 1645 3428 
Q 1925 3584 2291 3584 
Q 2894 3584 3203 3211 
Q 3513 2838 3513 2113 
z
" transform="scale(0.015625)"/>
       <path id="DejaVuSans-20" transform="scale(0.015625)"/>
       <path id="DejaVuSans-28" d="M 1984 4856 
Q 1566 4138 1362 3434 
Q 1159 2731 1159 2009 
Q 1159 1288 1364 580 
Q 1569 -128 1984 -844 
L 1484 -844 
Q 1016 -109 783 600 
Q 550 1309 550 2009 
Q 550 2706 781 3412 
Q 1013 4119 1484 4856 
L 1984 4856 
z
" transform="scale(0.015625)"/>
       <path id="DejaVuSans-56" d="M 1831 0 
L 50 4666 
L 709 4666 
L 2188 738 
L 3669 4666 
L 4325 4666 
L 2547 0 
L 1831 0 
z
" transform="scale(0.015625)"/>
       <path id="DejaVuSans-29" d="M 513 4856 
L 1013 4856 
Q 1481 4119 1714 3412 
Q 1947 2706 1947 2009 
Q 1947 1309 1714 600 
Q 1481 -109 1013 -844 
L 513 -844 
Q 928 -128 1133 580 
Q 1338 1288 1338 2009 
Q 1338 2731 1133 3434 
Q 928 4138 513 4856 
z
" transform="scale(0.015625)"/>
      </defs>
      <use xlink:href="#DejaVuSans-Oblique-56" transform="translate(0 0.125)"/>
      <use xlink:href="#DejaVuSans-69" transform="translate(68.408203 -16.28125) scale(0.7)"/>
      <use xlink:href="#DejaVuSans-6e" transform="translate(87.856445 -16.28125) scale(0.7)"/>
      <use xlink:href="#DejaVuSans-20" transform="translate(134.956055 0.125)"/>
      <use xlink:href="#DejaVuSans-28" transform="translate(166.743164 0.125)"/>
      <use xlink:href="#DejaVuSans-56" transform="translate(205.756836 0.125)"/>
      <use xlink:href="#DejaVuSans-29" transform="translate(274.165039 0.125)"/>
     </g>
    </g>
   </g>
   <g id="matplotlib.axis_2">
    <g id="ytick_1">
     <g id="line2d_17">
      <path d="M 40.625 226.040451 
L 417.6 226.040451 
" clip-path="url(#p2e4282dc7e)" style="fill: none; stroke-dasharray: 2.96,1.28; stroke-dashoffset: 0; stroke: #b0b0b0; stroke-width: 0.8"/>
     </g>
     <g id="line2d_18">
      <defs>
       <path id="m7fb5b8318e" d="M 0 0 
L -3.5 0 
" style="stroke: #000000; stroke-width: 0.8"/>
      </defs>
      <g>
       <use xlink:href="#m7fb5b8318e" x="40.625" y="226.040451" style="stroke: #000000; stroke-width: 0.8"/>
      </g>
     </g>
     <g id="text_10">
      <!-- 0 -->
      <g transform="translate(27.2625 229.83967) scale(0.1 -0.1)">
       <use xlink:href="#DejaVuSans-30"/>
      </g>
     </g>
    </g>
    <g id="ytick_2">
     <g id="line2d_19">
      <path d="M 40.625 183.032205 
L 417.6 183.032205 
" clip-path="url(#p2e4282dc7e)" style="fill: none; stroke-dasharray: 2.96,1.28; stroke-dashoffset: 0; stroke: #b0b0b0; stroke-width: 0.8"/>
     </g>
     <g id="line2d_20">
      <g>
       <use xlink:href="#m7fb5b8318e" x="40.625" y="183.032205" style="stroke: #000000; stroke-width: 0.8"/>
      </g>
     </g>
     <g id="text_11">
      <!-- 5 -->
      <g transform="translate(27.2625 186.831424) scale(0.1 -0.1)">
       <defs>
        <path id="DejaVuSans-35" d="M 691 4666 
L 3169 4666 
L 3169 4134 
L 1269 4134 
L 1269 2991 
Q 1406 3038 1543 3061 
Q 1681 3084 1819 3084 
Q 2600 3084 3056 2656 
Q 3513 2228 3513 1497 
Q 3513 744 3044 326 
Q 2575 -91 1722 -91 
Q 1428 -91 1123 -41 
Q 819 9 494 109 
L 494 744 
Q 775 591 1075 516 
Q 1375 441 1709 441 
Q 2250 441 2565 725 
Q 2881 1009 2881 1497 
Q 2881 1984 2565 2268 
Q 2250 2553 1709 2553 
Q 1456 2553 1204 2497 
Q 953 2441 691 2322 
L 691 4666 
z
" transform="scale(0.015625)"/>
       </defs>
       <use xlink:href="#DejaVuSans-35"/>
      </g>
     </g>
    </g>
    <g id="ytick_3">
     <g id="line2d_21">
      <path d="M 40.625 140.023958 
L 417.6 140.023958 
" clip-path="url(#p2e4282dc7e)" style="fill: none; stroke-dasharray: 2.96,1.28; stroke-dashoffset: 0; stroke: #b0b0b0; stroke-width: 0.8"/>
     </g>
     <g id="line2d_22">
      <g>
       <use xlink:href="#m7fb5b8318e" x="40.625" y="140.023958" style="stroke: #000000; stroke-width: 0.8"/>
      </g>
     </g>
     <g id="text_12">
      <!-- 10 -->
      <g transform="translate(20.9 143.823177) scale(0.1 -0.1)">
       <use xlink:href="#DejaVuSans-31"/>
       <use xlink:href="#DejaVuSans-30" x="63.623047"/>
      </g>
     </g>
    </g>
    <g id="ytick_4">
     <g id="line2d_23">
      <path d="M 40.625 97.015712 
L 417.6 97.015712 
" clip-path="url(#p2e4282dc7e)" style="fill: none; stroke-dasharray: 2.96,1.28; stroke-dashoffset: 0; stroke: #b0b0b0; stroke-width: 0.8"/>
     </g>
     <g id="line2d_24">
      <g>
       <use xlink:href="#m7fb5b8318e" x="40.625" y="97.015712" style="stroke: #000000; stroke-width: 0.8"/>
      </g>
     </g>
     <g id="text_13">
      <!-- 15 -->
      <g transform="translate(20.9 100.814931) scale(0.1 -0.1)">
       <use xlink:href="#DejaVuSans-31"/>
       <use xlink:href="#DejaVuSans-35" x="63.623047"/>
      </g>
     </g>
    </g>
    <g id="ytick_5">
     <g id="line2d_25">
      <path d="M 40.625 54.007465 
L 417.6 54.007465 
" clip-path="url(#p2e4282dc7e)" style="fill: none; stroke-dasharray: 2.96,1.28; stroke-dashoffset: 0; stroke: #b0b0b0; stroke-width: 0.8"/>
     </g>
     <g id="line2d_26">
      <g>
       <use xlink:href="#m7fb5b8318e" x="40.625" y="54.007465" style="stroke: #000000; stroke-width: 0.8"/>
      </g>
     </g>
     <g id="text_14">
      <!-- 20 -->
      <g transform="translate(20.9 57.806684) scale(0.1 -0.1)">
       <use xlink:href="#DejaVuSans-32"/>
       <use xlink:href="#DejaVuSans-30" x="63.623047"/>
      </g>
     </g>
    </g>
    <g id="ytick_6">
     <g id="line2d_27">
      <path d="M 40.625 10.999219 
L 417.6 10.999219 
" clip-path="url(#p2e4282dc7e)" style="fill: none; stroke-dasharray: 2.96,1.28; stroke-dashoffset: 0; stroke: #b0b0b0; stroke-width: 0.8"/>
     </g>
     <g id="line2d_28">
      <g>
       <use xlink:href="#m7fb5b8318e" x="40.625" y="10.999219" style="stroke: #000000; stroke-width: 0.8"/>
      </g>
     </g>
     <g id="text_15">
      <!-- 25 -->
      <g transform="translate(20.9 14.798438) scale(0.1 -0.1)">
       <use xlink:href="#DejaVuSans-32"/>
       <use xlink:href="#DejaVuSans-35" x="63.623047"/>
      </g>
     </g>
    </g>
    <g id="text_16">
     <!-- $I_\mathrm{leak}$ (pA) -->
     <g transform="translate(14.8 148.121484) rotate(-90) scale(0.1 -0.1)">
      <defs>
       <path id="DejaVuSans-Oblique-49" d="M 1081 4666 
L 1716 4666 
L 806 0 
L 172 0 
L 1081 4666 
z
" transform="scale(0.015625)"/>
       <path id="DejaVuSans-6c" d="M 603 4863 
L 1178 4863 
L 1178 0 
L 603 0 
L 603 4863 
z
" transform="scale(0.015625)"/>
       <path id="DejaVuSans-65" d="M 3597 1894 
L 3597 1613 
L 953 1613 
Q 991 1019 1311 708 
Q 1631 397 2203 397 
Q 2534 397 2845 478 
Q 3156 559 3463 722 
L 3463 178 
Q 3153 47 2828 -22 
Q 2503 -91 2169 -91 
Q 1331 -91 842 396 
Q 353 884 353 1716 
Q 353 2575 817 3079 
Q 1281 3584 2069 3584 
Q 2775 3584 3186 3129 
Q 3597 2675 3597 1894 
z
M 3022 2063 
Q 3016 2534 2758 2815 
Q 2500 3097 2075 3097 
Q 1594 3097 1305 2825 
Q 1016 2553 972 2059 
L 3022 2063 
z
" transform="scale(0.015625)"/>
       <path id="DejaVuSans-61" d="M 2194 1759 
Q 1497 1759 1228 1600 
Q 959 1441 959 1056 
Q 959 750 1161 570 
Q 1363 391 1709 391 
Q 2188 391 2477 730 
Q 2766 1069 2766 1631 
L 2766 1759 
L 2194 1759 
z
M 3341 1997 
L 3341 0 
L 2766 0 
L 2766 531 
Q 2569 213 2275 61 
Q 1981 -91 1556 -91 
Q 1019 -91 701 211 
Q 384 513 384 1019 
Q 384 1609 779 1909 
Q 1175 2209 1959 2209 
L 2766 2209 
L 2766 2266 
Q 2766 2663 2505 2880 
Q 2244 3097 1772 3097 
Q 1472 3097 1187 3025 
Q 903 2953 641 2809 
L 641 3341 
Q 956 3463 1253 3523 
Q 1550 3584 1831 3584 
Q 2591 3584 2966 3190 
Q 3341 2797 3341 1997 
z
" transform="scale(0.015625)"/>
       <path id="DejaVuSans-6b" d="M 581 4863 
L 1159 4863 
L 1159 1991 
L 2875 3500 
L 3609 3500 
L 1753 1863 
L 3688 0 
L 2938 0 
L 1159 1709 
L 1159 0 
L 581 0 
L 581 4863 
z
" transform="scale(0.015625)"/>
       <path id="DejaVuSans-70" d="M 1159 525 
L 1159 -1331 
L 581 -1331 
L 581 3500 
L 1159 3500 
L 1159 2969 
Q 1341 3281 1617 3432 
Q 1894 3584 2278 3584 
Q 2916 3584 3314 3078 
Q 3713 2572 3713 1747 
Q 3713 922 3314 415 
Q 2916 -91 2278 -91 
Q 1894 -91 1617 61 
Q 1341 213 1159 525 
z
M 3116 1747 
Q 3116 2381 2855 2742 
Q 2594 3103 2138 3103 
Q 1681 3103 1420 2742 
Q 1159 2381 1159 1747 
Q 1159 1113 1420 752 
Q 1681 391 2138 391 
Q 2594 391 2855 752 
Q 3116 1113 3116 1747 
z
" transform="scale(0.015625)"/>
       <path id="DejaVuSans-41" d="M 2188 4044 
L 1331 1722 
L 3047 1722 
L 2188 4044 
z
M 1831 4666 
L 2547 4666 
L 4325 0 
L 3669 0 
L 3244 1197 
L 1141 1197 
L 716 0 
L 50 0 
L 1831 4666 
z
" transform="scale(0.015625)"/>
      </defs>
      <use xlink:href="#DejaVuSans-Oblique-49" transform="translate(0 0.125)"/>
      <use xlink:href="#DejaVuSans-6c" transform="translate(29.492188 -16.28125) scale(0.7)"/>
      <use xlink:href="#DejaVuSans-65" transform="translate(48.94043 -16.28125) scale(0.7)"/>
      <use xlink:href="#DejaVuSans-61" transform="translate(92.006836 -16.28125) scale(0.7)"/>
      <use xlink:href="#DejaVuSans-6b" transform="translate(134.902344 -16.28125) scale(0.7)"/>
      <use xlink:href="#DejaVuSans-20" transform="translate(178.173828 0.125)"/>
      <use xlink:href="#DejaVuSans-28" transform="translate(209.960938 0.125)"/>
      <use xlink:href="#DejaVuSans-70" transform="translate(248.974609 0.125)"/>
      <use xlink:href="#DejaVuSans-41" transform="translate(312.451172 0.125)"/>
      <use xlink:href="#DejaVuSans-29" transform="translate(380.859375 0.125)"/>
     </g>
    </g>
   </g>
   <g id="line2d_29">
    <path d="M 48.57512 281.8 
L 50.677667 264.474956 
L 55.704 245.509411 
L 60.730333 235.567514 
L 65.756667 230.358493 
L 70.783 227.630626 
L 75.809333 226.202811 
L 80.835667 225.455822 
L 85.862 225.065178 
L 90.888333 224.860938 
L 95.914667 224.754147 
L 100.941 224.698269 
L 105.967333 224.668974 
L 110.993667 224.653548 
L 116.02 224.645353 
L 121.046333 224.640926 
L 126.072667 224.63846 
L 131.099 224.637015 
L 136.125333 224.636099 
L 141.151667 224.635459 
L 146.178 224.634962 
L 151.204333 224.634539 
L 156.230667 224.634154 
L 161.257 224.633789 
L 166.283333 224.633434 
L 171.309667 224.633085 
L 176.336 224.632738 
L 181.362333 224.632392 
L 186.388667 224.632048 
L 191.415 224.631703 
L 196.441333 224.631359 
L 201.467667 224.631015 
L 206.494 224.630671 
L 211.520333 224.630327 
L 216.546667 224.629983 
L 221.573 224.629639 
L 226.599333 224.629295 
L 231.625667 224.628951 
L 236.652 224.628607 
L 241.678333 224.628263 
L 246.704667 224.627919 
L 251.731 224.627574 
L 256.757333 224.62723 
L 261.783667 224.626886 
L 266.81 224.626541 
L 271.836333 224.626195 
L 276.862667 224.625849 
L 281.889 224.6255 
L 286.915333 224.625148 
L 291.941667 224.624788 
L 296.968 224.624414 
L 301.994333 224.624013 
L 307.020667 224.623562 
L 312.047 224.623016 
L 317.073333 224.62229 
L 322.099667 224.621227 
L 327.126 224.619526 
L 332.152333 224.616625 
L 337.178667 224.611461 
L 342.205 224.602037 
L 347.231333 224.584598 
L 352.257667 224.55208 
L 357.284 224.491208 
L 362.310333 224.377046 
L 367.336667 224.162767 
L 372.363 223.760476 
L 377.389333 223.005272 
L 382.415667 221.587899 
L 387.442 218.928639 
L 392.468333 213.941237 
L 397.494667 204.591186 
L 402.521 187.069576 
L 407.547333 154.248614 
L 412.573667 87.301978 
L 416.278652 -1 
" clip-path="url(#p2e4282dc7e)" style="fill: none; stroke: #1f77b4; stroke-width: 2; stroke-linecap: square"/>
   </g>
   <g id="line2d_30">
    <path d="M 54.983924 281.8 
L 55.704 274.166782 
L 60.730333 249.814539 
L 65.756667 237.067873 
L 70.783 230.399529 
L 75.809333 226.912964 
L 80.835667 225.091022 
L 85.862 224.139467 
L 90.888333 223.642742 
L 95.914667 223.383542 
L 100.941 223.248306 
L 105.967333 223.17772 
L 110.993667 223.140829 
L 116.02 223.121484 
L 121.046333 223.111271 
L 126.072667 223.105805 
L 131.099 223.102805 
L 136.125333 223.101086 
L 141.151667 223.10003 
L 146.178 223.099318 
L 151.204333 223.098785 
L 156.230667 223.098343 
L 161.257 223.097949 
L 166.283333 223.097579 
L 171.309667 223.097222 
L 176.336 223.096871 
L 181.362333 223.096524 
L 186.388667 223.096178 
L 191.415 223.095834 
L 196.441333 223.095489 
L 201.467667 223.095145 
L 206.494 223.094801 
L 211.520333 223.094457 
L 216.546667 223.094113 
L 221.573 223.093769 
L 226.599333 223.093425 
L 231.625667 223.093081 
L 236.652 223.092737 
L 241.678333 223.092393 
L 246.704667 223.092048 
L 251.731 223.091704 
L 256.757333 223.09136 
L 261.783667 223.091015 
L 266.81 223.09067 
L 271.836333 223.090324 
L 276.862667 223.089977 
L 281.889 223.089627 
L 286.915333 223.089272 
L 291.941667 223.088907 
L 296.968 223.088523 
L 301.994333 223.088102 
L 307.020667 223.087613 
L 312.047 223.086991 
L 317.073333 223.086116 
L 322.099667 223.084759 
L 327.126 223.082481 
L 332.152333 223.078447 
L 337.178667 223.071069 
L 342.205 223.057317 
L 347.231333 223.031429 
L 352.257667 222.982442 
L 357.284 222.889507 
L 362.310333 222.712996 
L 367.336667 222.377621 
L 372.363 221.740398 
L 377.389333 220.529916 
L 382.415667 218.231191 
L 387.442 213.867521 
L 392.468333 205.587335 
L 397.494667 189.882092 
L 402.521 160.106384 
L 407.547333 98.52267 
L 412.034094 -1 
" clip-path="url(#p2e4282dc7e)" style="fill: none; stroke: #ff7f0e; stroke-width: 2; stroke-linecap: square"/>
   </g>
   <g id="line2d_31">
    <path d="M 56.499213 281.8 
L 60.730333 201.917764 
L 65.756667 152.427594 
L 70.783 132.143447 
L 75.809333 122.348122 
L 80.835667 117.619659 
L 85.862 115.337936 
L 90.888333 114.237262 
L 95.914667 113.706452 
L 100.941 113.450488 
L 105.967333 113.327026 
L 110.993667 113.267412 
L 116.02 113.23855 
L 121.046333 113.224491 
L 126.072667 113.217556 
L 131.099 113.214045 
L 136.125333 113.212181 
L 141.151667 113.211108 
L 146.178 113.210414 
L 151.204333 113.209903 
L 156.230667 113.209478 
L 161.257 113.209096 
L 166.283333 113.208733 
L 171.309667 113.20838 
L 176.336 113.208032 
L 181.362333 113.207686 
L 186.388667 113.207341 
L 191.415 113.206996 
L 196.441333 113.206652 
L 201.467667 113.206308 
L 206.494 113.205964 
L 211.520333 113.20562 
L 216.546667 113.205276 
L 221.573 113.204932 
L 226.599333 113.204588 
L 231.625667 113.204244 
L 236.652 113.2039 
L 241.678333 113.203556 
L 246.704667 113.203212 
L 251.731 113.202867 
L 256.757333 113.202523 
L 261.783667 113.202179 
L 266.81 113.201835 
L 271.836333 113.201491 
L 276.862667 113.201147 
L 281.889 113.200803 
L 286.915333 113.200459 
L 291.941667 113.200115 
L 296.968 113.19977 
L 301.994333 113.199425 
L 307.020667 113.19908 
L 312.047 113.198733 
L 317.073333 113.198382 
L 322.099667 113.198025 
L 327.126 113.197652 
L 332.152333 113.197248 
L 337.178667 113.196779 
L 342.205 113.196173 
L 347.231333 113.195279 
L 352.257667 113.193784 
L 357.284 113.191026 
L 362.310333 113.185626 
L 367.336667 113.174687 
L 372.363 113.15214 
L 377.389333 113.105275 
L 382.415667 113.007455 
L 387.442 112.802877 
L 392.468333 112.374623 
L 397.494667 111.477752 
L 402.521 109.599111 
L 407.547333 105.663689 
L 412.573667 97.419472 
L 417.6 80.148921 
" clip-path="url(#p2e4282dc7e)" style="fill: none; stroke: #2ca02c; stroke-width: 2; stroke-linecap: square"/>
   </g>
   <g id="line2d_32">
    <path d="M 59.658132 281.8 
L 60.730333 233.452742 
L 65.756667 123.702968 
L 70.783 66.384481 
L 75.809333 42.842545 
L 80.835667 31.457116 
L 85.862 25.953094 
L 90.888333 23.293381 
L 95.914667 22.008625 
L 100.941 21.388235 
L 105.967333 21.088716 
L 110.993667 20.944094 
L 116.02 20.874208 
L 121.046333 20.840364 
L 126.072667 20.823892 
L 131.099 20.815788 
L 136.125333 20.811713 
L 141.151667 20.809575 
L 146.178 20.80837 
L 151.204333 20.807613 
L 156.230667 20.807071 
L 161.257 20.806632 
L 166.283333 20.806243 
L 171.309667 20.805877 
L 176.336 20.805522 
L 181.362333 20.805174 
L 186.388667 20.804827 
L 191.415 20.804481 
L 196.441333 20.804137 
L 201.467667 20.803793 
L 206.494 20.803448 
L 211.520333 20.803104 
L 216.546667 20.80276 
L 221.573 20.802416 
L 226.599333 20.802072 
L 231.625667 20.801728 
L 236.652 20.801384 
L 241.678333 20.80104 
L 246.704667 20.800696 
L 251.731 20.800352 
L 256.757333 20.800008 
L 261.783667 20.799664 
L 266.81 20.79932 
L 271.836333 20.798975 
L 276.862667 20.798631 
L 281.889 20.798287 
L 286.915333 20.797943 
L 291.941667 20.797599 
L 296.968 20.797254 
L 301.994333 20.796909 
L 307.020667 20.796563 
L 312.047 20.796213 
L 317.073333 20.795858 
L 322.099667 20.795492 
L 327.126 20.7951 
L 332.152333 20.794655 
L 337.178667 20.794098 
L 342.205 20.793307 
L 347.231333 20.792023 
L 352.257667 20.7897 
L 357.284 20.785195 
L 362.310333 20.776096 
L 367.336667 20.757336 
L 372.363 20.718251 
L 377.389333 20.636414 
L 382.415667 20.464653 
L 387.442 20.103751 
L 392.468333 19.345029 
L 397.494667 17.749595 
L 402.521 14.394401 
L 407.547333 7.338205 
L 410.371562 -1 
" clip-path="url(#p2e4282dc7e)" style="fill: none; stroke: #d62728; stroke-width: 2; stroke-linecap: square"/>
   </g>
   <g id="patch_3">
    <path d="M 40.625 243.24375 
L 40.625 10.999219 
" style="fill: none; stroke: #000000; stroke-width: 0.8; stroke-linejoin: miter; stroke-linecap: square"/>
   </g>
   <g id="patch_4">
    <path d="M 417.6 243.24375 
L 417.6 10.999219 
" style="fill: none; stroke: #000000; stroke-width: 0.8; stroke-linejoin: miter; stroke-linecap: square"/>
   </g>
   <g id="patch_5">
    <path d="M 40.625 243.24375 
L 417.6 243.24375 
" style="fill: none; stroke: #000000; stroke-width: 0.8; stroke-linejoin: miter; stroke-linecap: square"/>
   </g>
   <g id="patch_6">
    <path d="M 40.625 10.999219 
L 417.6 10.999219 
" style="fill: none; stroke: #000000; stroke-width: 0.8; stroke-linejoin: miter; stroke-linecap: square"/>
   </g>
   <g id="legend_1">
    <g id="patch_7">
     <path d="M 47.625 77.799219 
L 203.925 77.799219 
Q 205.925 77.799219 205.925 75.799219 
L 205.925 17.999219 
Q 205.925 15.999219 203.925 15.999219 
L 47.625 15.999219 
Q 45.625 15.999219 45.625 17.999219 
L 45.625 75.799219 
Q 45.625 77.799219 47.625 77.799219 
z
" style="fill: #ffffff; opacity: 0.8; stroke: #cccccc; stroke-linejoin: miter"/>
    </g>
    <g id="line2d_33">
     <path d="M 49.625 24.099219 
L 59.625 24.099219 
L 69.625 24.099219 
" style="fill: none; stroke: #1f77b4; stroke-width: 2; stroke-linecap: square"/>
    </g>
    <g id="text_17">
     <!-- $W = 1\mu$, $L = 0.13\mu$, wo. d. -->
     <g transform="translate(77.625 27.599219) scale(0.1 -0.1)">
      <defs>
       <path id="DejaVuSans-Oblique-57" d="M 616 4666 
L 1228 4666 
L 1453 697 
L 3213 4666 
L 3916 4666 
L 4147 697 
L 5888 4666 
L 6528 4666 
L 4453 0 
L 3659 0 
L 3444 3891 
L 1697 0 
L 903 0 
L 616 4666 
z
" transform="scale(0.015625)"/>
       <path id="DejaVuSans-3d" d="M 678 2906 
L 4684 2906 
L 4684 2381 
L 678 2381 
L 678 2906 
z
M 678 1631 
L 4684 1631 
L 4684 1100 
L 678 1100 
L 678 1631 
z
" transform="scale(0.015625)"/>
       <path id="DejaVuSans-Oblique-3bc" d="M -84 -1331 
L 856 3500 
L 1434 3500 
L 1009 1322 
Q 997 1256 987 1175 
Q 978 1094 978 1013 
Q 978 722 1161 565 
Q 1344 409 1684 409 
Q 2147 409 2431 671 
Q 2716 934 2816 1459 
L 3213 3500 
L 3788 3500 
L 3266 809 
Q 3253 750 3248 706 
Q 3244 663 3244 628 
Q 3244 531 3283 486 
Q 3322 441 3406 441 
Q 3438 441 3492 456 
Q 3547 472 3647 513 
L 3559 50 
Q 3422 -19 3297 -55 
Q 3172 -91 3053 -91 
Q 2847 -91 2730 40 
Q 2613 172 2613 403 
Q 2438 153 2195 31 
Q 1953 -91 1625 -91 
Q 1334 -91 1117 43 
Q 900 178 831 397 
L 494 -1331 
L -84 -1331 
z
" transform="scale(0.015625)"/>
       <path id="DejaVuSans-2c" d="M 750 794 
L 1409 794 
L 1409 256 
L 897 -744 
L 494 -744 
L 750 256 
L 750 794 
z
" transform="scale(0.015625)"/>
       <path id="DejaVuSans-Oblique-4c" d="M 1075 4666 
L 1709 4666 
L 909 525 
L 3181 525 
L 3078 0 
L 172 0 
L 1075 4666 
z
" transform="scale(0.015625)"/>
       <path id="DejaVuSans-33" d="M 2597 2516 
Q 3050 2419 3304 2112 
Q 3559 1806 3559 1356 
Q 3559 666 3084 287 
Q 2609 -91 1734 -91 
Q 1441 -91 1130 -33 
Q 819 25 488 141 
L 488 750 
Q 750 597 1062 519 
Q 1375 441 1716 441 
Q 2309 441 2620 675 
Q 2931 909 2931 1356 
Q 2931 1769 2642 2001 
Q 2353 2234 1838 2234 
L 1294 2234 
L 1294 2753 
L 1863 2753 
Q 2328 2753 2575 2939 
Q 2822 3125 2822 3475 
Q 2822 3834 2567 4026 
Q 2313 4219 1838 4219 
Q 1578 4219 1281 4162 
Q 984 4106 628 3988 
L 628 4550 
Q 988 4650 1302 4700 
Q 1616 4750 1894 4750 
Q 2613 4750 3031 4423 
Q 3450 4097 3450 3541 
Q 3450 3153 3228 2886 
Q 3006 2619 2597 2516 
z
" transform="scale(0.015625)"/>
       <path id="DejaVuSans-77" d="M 269 3500 
L 844 3500 
L 1563 769 
L 2278 3500 
L 2956 3500 
L 3675 769 
L 4391 3500 
L 4966 3500 
L 4050 0 
L 3372 0 
L 2619 2869 
L 1863 0 
L 1184 0 
L 269 3500 
z
" transform="scale(0.015625)"/>
       <path id="DejaVuSans-6f" d="M 1959 3097 
Q 1497 3097 1228 2736 
Q 959 2375 959 1747 
Q 959 1119 1226 758 
Q 1494 397 1959 397 
Q 2419 397 2687 759 
Q 2956 1122 2956 1747 
Q 2956 2369 2687 2733 
Q 2419 3097 1959 3097 
z
M 1959 3584 
Q 2709 3584 3137 3096 
Q 3566 2609 3566 1747 
Q 3566 888 3137 398 
Q 2709 -91 1959 -91 
Q 1206 -91 779 398 
Q 353 888 353 1747 
Q 353 2609 779 3096 
Q 1206 3584 1959 3584 
z
" transform="scale(0.015625)"/>
       <path id="DejaVuSans-64" d="M 2906 2969 
L 2906 4863 
L 3481 4863 
L 3481 0 
L 2906 0 
L 2906 525 
Q 2725 213 2448 61 
Q 2172 -91 1784 -91 
Q 1150 -91 751 415 
Q 353 922 353 1747 
Q 353 2572 751 3078 
Q 1150 3584 1784 3584 
Q 2172 3584 2448 3432 
Q 2725 3281 2906 2969 
z
M 947 1747 
Q 947 1113 1208 752 
Q 1469 391 1925 391 
Q 2381 391 2643 752 
Q 2906 1113 2906 1747 
Q 2906 2381 2643 2742 
Q 2381 3103 1925 3103 
Q 1469 3103 1208 2742 
Q 947 2381 947 1747 
z
" transform="scale(0.015625)"/>
      </defs>
      <use xlink:href="#DejaVuSans-Oblique-57" transform="translate(0 0.015625)"/>
      <use xlink:href="#DejaVuSans-3d" transform="translate(118.359375 0.015625)"/>
      <use xlink:href="#DejaVuSans-31" transform="translate(221.630859 0.015625)"/>
      <use xlink:href="#DejaVuSans-Oblique-3bc" transform="translate(285.253906 0.015625)"/>
      <use xlink:href="#DejaVuSans-2c" transform="translate(348.876953 0.015625)"/>
      <use xlink:href="#DejaVuSans-20" transform="translate(380.664062 0.015625)"/>
      <use xlink:href="#DejaVuSans-Oblique-4c" transform="translate(412.451172 0.015625)"/>
      <use xlink:href="#DejaVuSans-3d" transform="translate(487.646484 0.015625)"/>
      <use xlink:href="#DejaVuSans-30" transform="translate(590.917969 0.015625)"/>
      <use xlink:href="#DejaVuSans-2e" transform="translate(654.541016 0.015625)"/>
      <use xlink:href="#DejaVuSans-31" transform="translate(686.328125 0.015625)"/>
      <use xlink:href="#DejaVuSans-33" transform="translate(749.951172 0.015625)"/>
      <use xlink:href="#DejaVuSans-Oblique-3bc" transform="translate(813.574219 0.015625)"/>
      <use xlink:href="#DejaVuSans-2c" transform="translate(877.197266 0.015625)"/>
      <use xlink:href="#DejaVuSans-20" transform="translate(908.984375 0.015625)"/>
      <use xlink:href="#DejaVuSans-77" transform="translate(940.771484 0.015625)"/>
      <use xlink:href="#DejaVuSans-6f" transform="translate(1022.558594 0.015625)"/>
      <use xlink:href="#DejaVuSans-2e" transform="translate(1083.740234 0.015625)"/>
      <use xlink:href="#DejaVuSans-20" transform="translate(1115.527344 0.015625)"/>
      <use xlink:href="#DejaVuSans-64" transform="translate(1147.314453 0.015625)"/>
      <use xlink:href="#DejaVuSans-2e" transform="translate(1210.791016 0.015625)"/>
     </g>
    </g>
    <g id="line2d_34">
     <path d="M 49.625 38.799219 
L 59.625 38.799219 
L 69.625 38.799219 
" style="fill: none; stroke: #ff7f0e; stroke-width: 2; stroke-linecap: square"/>
    </g>
    <g id="text_18">
     <!-- $W = 2\mu$, $L = 0.13\mu$, wo. d. -->
     <g transform="translate(77.625 42.299219) scale(0.1 -0.1)">
      <use xlink:href="#DejaVuSans-Oblique-57" transform="translate(0 0.015625)"/>
      <use xlink:href="#DejaVuSans-3d" transform="translate(118.359375 0.015625)"/>
      <use xlink:href="#DejaVuSans-32" transform="translate(221.630859 0.015625)"/>
      <use xlink:href="#DejaVuSans-Oblique-3bc" transform="translate(285.253906 0.015625)"/>
      <use xlink:href="#DejaVuSans-2c" transform="translate(348.876953 0.015625)"/>
      <use xlink:href="#DejaVuSans-20" transform="translate(380.664062 0.015625)"/>
      <use xlink:href="#DejaVuSans-Oblique-4c" transform="translate(412.451172 0.015625)"/>
      <use xlink:href="#DejaVuSans-3d" transform="translate(487.646484 0.015625)"/>
      <use xlink:href="#DejaVuSans-30" transform="translate(590.917969 0.015625)"/>
      <use xlink:href="#DejaVuSans-2e" transform="translate(654.541016 0.015625)"/>
      <use xlink:href="#DejaVuSans-31" transform="translate(686.328125 0.015625)"/>
      <use xlink:href="#DejaVuSans-33" transform="translate(749.951172 0.015625)"/>
      <use xlink:href="#DejaVuSans-Oblique-3bc" transform="translate(813.574219 0.015625)"/>
      <use xlink:href="#DejaVuSans-2c" transform="translate(877.197266 0.015625)"/>
      <use xlink:href="#DejaVuSans-20" transform="translate(908.984375 0.015625)"/>
      <use xlink:href="#DejaVuSans-77" transform="translate(940.771484 0.015625)"/>
      <use xlink:href="#DejaVuSans-6f" transform="translate(1022.558594 0.015625)"/>
      <use xlink:href="#DejaVuSans-2e" transform="translate(1083.740234 0.015625)"/>
      <use xlink:href="#DejaVuSans-20" transform="translate(1115.527344 0.015625)"/>
      <use xlink:href="#DejaVuSans-64" transform="translate(1147.314453 0.015625)"/>
      <use xlink:href="#DejaVuSans-2e" transform="translate(1210.791016 0.015625)"/>
     </g>
    </g>
    <g id="line2d_35">
     <path d="M 49.625 53.499219 
L 59.625 53.499219 
L 69.625 53.499219 
" style="fill: none; stroke: #2ca02c; stroke-width: 2; stroke-linecap: square"/>
    </g>
    <g id="text_19">
     <!-- $W = 1\mu$, $L = 0.50\mu$, w. d. -->
     <g transform="translate(77.625 56.999219) scale(0.1 -0.1)">
      <use xlink:href="#DejaVuSans-Oblique-57" transform="translate(0 0.015625)"/>
      <use xlink:href="#DejaVuSans-3d" transform="translate(118.359375 0.015625)"/>
      <use xlink:href="#DejaVuSans-31" transform="translate(221.630859 0.015625)"/>
      <use xlink:href="#DejaVuSans-Oblique-3bc" transform="translate(285.253906 0.015625)"/>
      <use xlink:href="#DejaVuSans-2c" transform="translate(348.876953 0.015625)"/>
      <use xlink:href="#DejaVuSans-20" transform="translate(380.664062 0.015625)"/>
      <use xlink:href="#DejaVuSans-Oblique-4c" transform="translate(412.451172 0.015625)"/>
      <use xlink:href="#DejaVuSans-3d" transform="translate(487.646484 0.015625)"/>
      <use xlink:href="#DejaVuSans-30" transform="translate(590.917969 0.015625)"/>
      <use xlink:href="#DejaVuSans-2e" transform="translate(654.541016 0.015625)"/>
      <use xlink:href="#DejaVuSans-35" transform="translate(686.328125 0.015625)"/>
      <use xlink:href="#DejaVuSans-30" transform="translate(749.951172 0.015625)"/>
      <use xlink:href="#DejaVuSans-Oblique-3bc" transform="translate(813.574219 0.015625)"/>
      <use xlink:href="#DejaVuSans-2c" transform="translate(877.197266 0.015625)"/>
      <use xlink:href="#DejaVuSans-20" transform="translate(908.984375 0.015625)"/>
      <use xlink:href="#DejaVuSans-77" transform="translate(940.771484 0.015625)"/>
      <use xlink:href="#DejaVuSans-2e" transform="translate(1022.558594 0.015625)"/>
      <use xlink:href="#DejaVuSans-20" transform="translate(1054.345703 0.015625)"/>
      <use xlink:href="#DejaVuSans-64" transform="translate(1086.132812 0.015625)"/>
      <use xlink:href="#DejaVuSans-2e" transform="translate(1149.609375 0.015625)"/>
     </g>
    </g>
    <g id="line2d_36">
     <path d="M 49.625 68.199219 
L 59.625 68.199219 
L 69.625 68.199219 
" style="fill: none; stroke: #d62728; stroke-width: 2; stroke-linecap: square"/>
    </g>
    <g id="text_20">
     <!-- $W = 2\mu$, $L = 0.50\mu$, w. d. -->
     <g transform="translate(77.625 71.699219) scale(0.1 -0.1)">
      <use xlink:href="#DejaVuSans-Oblique-57" transform="translate(0 0.015625)"/>
      <use xlink:href="#DejaVuSans-3d" transform="translate(118.359375 0.015625)"/>
      <use xlink:href="#DejaVuSans-32" transform="translate(221.630859 0.015625)"/>
      <use xlink:href="#DejaVuSans-Oblique-3bc" transform="translate(285.253906 0.015625)"/>
      <use xlink:href="#DejaVuSans-2c" transform="translate(348.876953 0.015625)"/>
      <use xlink:href="#DejaVuSans-20" transform="translate(380.664062 0.015625)"/>
      <use xlink:href="#DejaVuSans-Oblique-4c" transform="translate(412.451172 0.015625)"/>
      <use xlink:href="#DejaVuSans-3d" transform="translate(487.646484 0.015625)"/>
      <use xlink:href="#DejaVuSans-30" transform="translate(590.917969 0.015625)"/>
      <use xlink:href="#DejaVuSans-2e" transform="translate(654.541016 0.015625)"/>
      <use xlink:href="#DejaVuSans-35" transform="translate(686.328125 0.015625)"/>
      <use xlink:href="#DejaVuSans-30" transform="translate(749.951172 0.015625)"/>
      <use xlink:href="#DejaVuSans-Oblique-3bc" transform="translate(813.574219 0.015625)"/>
      <use xlink:href="#DejaVuSans-2c" transform="translate(877.197266 0.015625)"/>
      <use xlink:href="#DejaVuSans-20" transform="translate(908.984375 0.015625)"/>
      <use xlink:href="#DejaVuSans-77" transform="translate(940.771484 0.015625)"/>
      <use xlink:href="#DejaVuSans-2e" transform="translate(1022.558594 0.015625)"/>
      <use xlink:href="#DejaVuSans-20" transform="translate(1054.345703 0.015625)"/>
      <use xlink:href="#DejaVuSans-64" transform="translate(1086.132812 0.015625)"/>
      <use xlink:href="#DejaVuSans-2e" transform="translate(1149.609375 0.015625)"/>
     </g>
    </g>
   </g>
  </g>
 </g>
 <defs>
  <clipPath id="p2e4282dc7e">
   <rect x="40.625" y="10.999219" width="376.975" height="232.244531"/>
  </clipPath>
 </defs>
</svg>
