<?xml version="1.0" encoding="utf-8" standalone="no"?>
<!DOCTYPE svg PUBLIC "-//W3C//DTD SVG 1.1//EN"
  "http://www.w3.org/Graphics/SVG/1.1/DTD/svg11.dtd">
<svg xmlns:xlink="http://www.w3.org/1999/xlink" width="349.7632pt" height="230.8752pt" viewBox="0 0 349.7632 230.8752" xmlns="http://www.w3.org/2000/svg" version="1.1">
 <metadata>
  <rdf:RDF xmlns:dc="http://purl.org/dc/elements/1.1/" xmlns:cc="http://creativecommons.org/ns#" xmlns:rdf="http://www.w3.org/1999/02/22-rdf-syntax-ns#">
   <cc:Work>
    <dc:type rdf:resource="http://purl.org/dc/dcmitype/StillImage"/>
    <dc:date>2025-05-23T18:31:58.076952</dc:date>
    <dc:format>image/svg+xml</dc:format>
    <dc:creator>
     <cc:Agent>
      <dc:title>Matplotlib v3.9.2, https://matplotlib.org/</dc:title>
     </cc:Agent>
    </dc:creator>
   </cc:Work>
  </rdf:RDF>
 </metadata>
 <defs>
  <style type="text/css">*{stroke-linejoin: round; stroke-linecap: butt}</style>
 </defs>
 <g id="figure_1">
  <g id="patch_1">
   <path d="M 0 230.8752 
L 349.7632 230.8752 
L 349.7632 0 
L 0 0 
L 0 230.8752 
z
" style="fill: none"/>
  </g>
  <g id="axes_1">
   <g id="line2d_1">
    <path d="M 24.6464 115.4376 
L 42.6464 115.4376 
L 60.6464 115.4376 
" clip-path="url(#pb797e9eec4)" style="fill: none; stroke: #000000; stroke-width: 2; stroke-linecap: round"/>
   </g>
   <g id="line2d_2">
    <path d="M 60.6464 115.4376 
L 60.6464 97.4376 
L 60.6464 79.4376 
" clip-path="url(#pb797e9eec4)" style="fill: none; stroke: #000000; stroke-width: 2; stroke-linecap: round"/>
   </g>
   <g id="line2d_3">
    <path d="M 60.6464 79.4376 
L 78.6464 79.4376 
L 96.6464 79.4376 
" clip-path="url(#pb797e9eec4)" style="fill: none; stroke: #000000; stroke-width: 2; stroke-linecap: round"/>
   </g>
   <g id="line2d_4">
    <path d="M 96.6464 79.4376 
L 111.6464 79.4376 
L 111.6464 64.4376 
L 141.6464 64.4376 
L 141.6464 79.4376 
L 156.6464 79.4376 
" clip-path="url(#pb797e9eec4)" style="fill: none; stroke: #000000; stroke-width: 2; stroke-linecap: round"/>
   </g>
   <g id="line2d_5">
    <path d="M 141.6464 73.4376 
L 141.6464 79.4376 
" clip-path="url(#pb797e9eec4)" style="fill: none; stroke: #000000; stroke-width: 2; stroke-linecap: round"/>
   </g>
   <g id="patch_2">
    <path d="M 137.1464 73.4376 
L 141.6464 64.4376 
L 146.1464 73.4376 
z
" clip-path="url(#pb797e9eec4)"/>
   </g>
   <g id="line2d_6">
    <path d="M 114.6464 61.4376 
L 138.6464 61.4376 
" clip-path="url(#pb797e9eec4)" style="fill: none; stroke: #000000; stroke-width: 2; stroke-linecap: round"/>
   </g>
   <g id="line2d_7">
    <path d="M 126.6464 46.4376 
L 126.6464 61.4376 
" clip-path="url(#pb797e9eec4)" style="fill: none; stroke: #000000; stroke-width: 2; stroke-linecap: round"/>
   </g>
   <g id="line2d_8">
    <path d="M 126.6464 46.4376 
L 126.6464 37.4376 
L 126.6464 28.4376 
" clip-path="url(#pb797e9eec4)" style="fill: none; stroke: #000000; stroke-width: 2; stroke-linecap: round"/>
   </g>
   <g id="line2d_9">
    <path d="M 156.6464 79.4376 
L 174.6464 79.4376 
L 192.6464 79.4376 
" clip-path="url(#pb797e9eec4)" style="fill: none; stroke: #000000; stroke-width: 2; stroke-linecap: round"/>
   </g>
   <g id="line2d_10">
    <path d="M 192.6464 79.4376 
L 207.6464 79.4376 
L 207.6464 64.4376 
L 237.6464 64.4376 
L 237.6464 79.4376 
L 252.6464 79.4376 
" clip-path="url(#pb797e9eec4)" style="fill: none; stroke: #000000; stroke-width: 2; stroke-linecap: round"/>
   </g>
   <g id="line2d_11">
    <path d="M 237.6464 73.4376 
L 237.6464 79.4376 
" clip-path="url(#pb797e9eec4)" style="fill: none; stroke: #000000; stroke-width: 2; stroke-linecap: round"/>
   </g>
   <g id="patch_3">
    <path d="M 233.1464 73.4376 
L 237.6464 64.4376 
L 242.1464 73.4376 
z
" clip-path="url(#pb797e9eec4)"/>
   </g>
   <g id="line2d_12">
    <path d="M 210.6464 61.4376 
L 234.6464 61.4376 
" clip-path="url(#pb797e9eec4)" style="fill: none; stroke: #000000; stroke-width: 2; stroke-linecap: round"/>
   </g>
   <g id="line2d_13">
    <path d="M 222.6464 46.4376 
L 222.6464 61.4376 
" clip-path="url(#pb797e9eec4)" style="fill: none; stroke: #000000; stroke-width: 2; stroke-linecap: round"/>
   </g>
   <g id="line2d_14">
    <path d="M 222.6464 46.4376 
L 222.6464 37.4376 
L 222.6464 28.4376 
" clip-path="url(#pb797e9eec4)" style="fill: none; stroke: #000000; stroke-width: 2; stroke-linecap: round"/>
   </g>
   <g id="line2d_15">
    <path d="M 192.6464 79.4376 
L 192.6464 83.9376 
L 192.6464 88.4376 
" clip-path="url(#pb797e9eec4)" style="fill: none; stroke: #000000; stroke-width: 2; stroke-linecap: round"/>
   </g>
   <g id="line2d_16">
    <path d="M 192.6464 88.4376 
L 222.7064 88.4376 
L 252.7664 88.4376 
" clip-path="url(#pb797e9eec4)" style="fill: none; stroke: #000000; stroke-width: 2; stroke-linecap: round"/>
   </g>
   <g id="line2d_17">
    <path d="M 252.7664 88.4376 
L 252.7664 83.9376 
L 252.7664 79.4376 
" clip-path="url(#pb797e9eec4)" style="fill: none; stroke: #000000; stroke-width: 2; stroke-linecap: round"/>
   </g>
   <g id="line2d_18">
    <path d="M 252.6464 79.4376 
L 270.6464 79.4376 
L 288.6464 79.4376 
" clip-path="url(#pb797e9eec4)" style="fill: none; stroke: #000000; stroke-width: 2; stroke-linecap: round"/>
   </g>
   <g id="line2d_19">
    <path d="M 288.6464 79.4376 
L 288.6464 97.4376 
L 288.6464 115.4376 
" clip-path="url(#pb797e9eec4)" style="fill: none; stroke: #000000; stroke-width: 2; stroke-linecap: round"/>
   </g>
   <g id="line2d_20">
    <path d="M 288.6464 115.4376 
L 306.6464 115.4376 
L 324.6464 115.4376 
" clip-path="url(#pb797e9eec4)" style="fill: none; stroke: #000000; stroke-width: 2; stroke-linecap: round"/>
   </g>
   <g id="line2d_21">
    <path d="M 60.6464 115.4376 
L 60.6464 133.4376 
L 60.6464 151.4376 
" clip-path="url(#pb797e9eec4)" style="fill: none; stroke: #000000; stroke-width: 2; stroke-linecap: round"/>
   </g>
   <g id="line2d_22">
    <path d="M 60.6464 151.4376 
L 78.6464 151.4376 
L 96.6464 151.4376 
" clip-path="url(#pb797e9eec4)" style="fill: none; stroke: #000000; stroke-width: 2; stroke-linecap: round"/>
   </g>
   <g id="line2d_23">
    <path d="M 156.6464 151.4376 
L 141.6464 151.4376 
L 141.6464 166.4376 
L 111.6464 166.4376 
L 111.6464 151.4376 
L 96.6464 151.4376 
" clip-path="url(#pb797e9eec4)" style="fill: none; stroke: #000000; stroke-width: 2; stroke-linecap: round"/>
   </g>
   <g id="line2d_24">
    <path d="M 141.6464 160.4376 
L 141.6464 166.4376 
" clip-path="url(#pb797e9eec4)" style="fill: none; stroke: #000000; stroke-width: 2; stroke-linecap: round"/>
   </g>
   <g id="patch_4">
    <path d="M 137.1464 160.4376 
L 141.6464 151.4376 
L 146.1464 160.4376 
z
" clip-path="url(#pb797e9eec4)"/>
   </g>
   <g id="line2d_25">
    <path d="M 138.6464 169.4376 
L 114.6464 169.4376 
" clip-path="url(#pb797e9eec4)" style="fill: none; stroke: #000000; stroke-width: 2; stroke-linecap: round"/>
   </g>
   <g id="line2d_26">
    <path d="M 126.6464 184.4376 
L 126.6464 169.4376 
" clip-path="url(#pb797e9eec4)" style="fill: none; stroke: #000000; stroke-width: 2; stroke-linecap: round"/>
   </g>
   <g id="line2d_27">
    <path d="M 126.6464 184.4376 
L 126.6464 193.4376 
L 126.6464 202.4376 
" clip-path="url(#pb797e9eec4)" style="fill: none; stroke: #000000; stroke-width: 2; stroke-linecap: round"/>
   </g>
   <g id="line2d_28">
    <path d="M 156.6464 151.4376 
L 174.6464 151.4376 
L 192.6464 151.4376 
" clip-path="url(#pb797e9eec4)" style="fill: none; stroke: #000000; stroke-width: 2; stroke-linecap: round"/>
   </g>
   <g id="line2d_29">
    <path d="M 252.6464 151.4376 
L 237.6464 151.4376 
L 237.6464 166.4376 
L 207.6464 166.4376 
L 207.6464 151.4376 
L 192.6464 151.4376 
" clip-path="url(#pb797e9eec4)" style="fill: none; stroke: #000000; stroke-width: 2; stroke-linecap: round"/>
   </g>
   <g id="line2d_30">
    <path d="M 237.6464 160.4376 
L 237.6464 166.4376 
" clip-path="url(#pb797e9eec4)" style="fill: none; stroke: #000000; stroke-width: 2; stroke-linecap: round"/>
   </g>
   <g id="patch_5">
    <path d="M 233.1464 160.4376 
L 237.6464 151.4376 
L 242.1464 160.4376 
z
" clip-path="url(#pb797e9eec4)"/>
   </g>
   <g id="line2d_31">
    <path d="M 234.6464 169.4376 
L 210.6464 169.4376 
" clip-path="url(#pb797e9eec4)" style="fill: none; stroke: #000000; stroke-width: 2; stroke-linecap: round"/>
   </g>
   <g id="line2d_32">
    <path d="M 222.6464 184.4376 
L 222.6464 169.4376 
" clip-path="url(#pb797e9eec4)" style="fill: none; stroke: #000000; stroke-width: 2; stroke-linecap: round"/>
   </g>
   <g id="line2d_33">
    <path d="M 222.6464 184.4376 
L 222.6464 193.4376 
L 222.6464 202.4376 
" clip-path="url(#pb797e9eec4)" style="fill: none; stroke: #000000; stroke-width: 2; stroke-linecap: round"/>
   </g>
   <g id="line2d_34">
    <path d="M 192.6464 151.4376 
L 192.6464 146.9376 
L 192.6464 142.4376 
" clip-path="url(#pb797e9eec4)" style="fill: none; stroke: #000000; stroke-width: 2; stroke-linecap: round"/>
   </g>
   <g id="line2d_35">
    <path d="M 192.6464 142.4376 
L 222.7064 142.4376 
L 252.7664 142.4376 
" clip-path="url(#pb797e9eec4)" style="fill: none; stroke: #000000; stroke-width: 2; stroke-linecap: round"/>
   </g>
   <g id="line2d_36">
    <path d="M 252.7664 142.4376 
L 252.7664 146.9376 
L 252.7664 151.4376 
" clip-path="url(#pb797e9eec4)" style="fill: none; stroke: #000000; stroke-width: 2; stroke-linecap: round"/>
   </g>
   <g id="line2d_37">
    <path d="M 252.6464 151.4376 
L 270.6464 151.4376 
L 288.6464 151.4376 
" clip-path="url(#pb797e9eec4)" style="fill: none; stroke: #000000; stroke-width: 2; stroke-linecap: round"/>
   </g>
   <g id="line2d_38">
    <path d="M 288.6464 151.4376 
L 288.6464 133.4376 
L 288.6464 115.4376 
" clip-path="url(#pb797e9eec4)" style="fill: none; stroke: #000000; stroke-width: 2; stroke-linecap: round"/>
   </g>
   <g id="patch_6">
    <path d="M 60.6464 118.1376 
C 61.362448 118.1376 62.049266 117.853111 62.555588 117.346788 
C 63.061911 116.840466 63.3464 116.153648 63.3464 115.4376 
C 63.3464 114.721552 63.061911 114.034734 62.555588 113.528412 
C 62.049266 113.022089 61.362448 112.7376 60.6464 112.7376 
C 59.930352 112.7376 59.243534 113.022089 58.737212 113.528412 
C 58.230889 114.034734 57.9464 114.721552 57.9464 115.4376 
C 57.9464 116.153648 58.230889 116.840466 58.737212 117.346788 
C 59.243534 117.853111 59.930352 118.1376 60.6464 118.1376 
z
" clip-path="url(#pb797e9eec4)" style="stroke: #000000; stroke-width: 2; stroke-linejoin: miter"/>
   </g>
   <g id="text_1">
    <!-- $M_2$ -->
    <g transform="translate(117.531647 98.123476) scale(0.14 -0.14)">
     <defs>
      <path id="CMMI12-4d" d="M 5811 3886 
C 5869 4103 5882 4167 6336 4167 
C 6458 4167 6515 4167 6515 4288 
C 6515 4352 6470 4352 6349 4352 
L 5581 4352 
C 5421 4352 5414 4346 5344 4243 
L 3008 562 
L 2528 4211 
C 2509 4352 2502 4352 2336 4352 
L 1542 4352 
C 1421 4352 1363 4352 1363 4231 
C 1363 4167 1421 4167 1517 4167 
C 1907 4167 1907 4116 1907 4046 
C 1907 4034 1907 3995 1882 3899 
L 1062 634 
C 986 327 838 186 410 186 
C 390 186 314 186 314 73 
C 314 0 371 0 397 0 
C 525 0 851 0 979 0 
L 1286 0 
C 1376 0 1485 0 1574 0 
C 1619 0 1690 0 1690 122 
C 1690 180 1626 186 1600 186 
C 1389 186 1184 224 1184 454 
C 1184 518 1184 524 1210 613 
L 2093 4129 
L 2099 4129 
L 2630 172 
C 2650 19 2656 0 2714 0 
C 2784 0 2816 51 2848 109 
L 5421 4161 
L 5427 4161 
L 4499 473 
C 4442 250 4429 186 3981 186 
C 3859 186 3795 186 3795 70 
C 3795 0 3853 0 3891 0 
C 4000 0 4128 0 4237 0 
L 4992 0 
C 5101 0 5235 0 5344 0 
C 5395 0 5466 0 5466 122 
C 5466 186 5408 186 5312 186 
C 4922 186 4922 234 4922 294 
C 4922 301 4922 345 4934 396 
L 5811 3886 
z
" transform="scale(0.015625)"/>
      <path id="CMR17-32" d="M 2669 989 
L 2554 989 
C 2490 536 2438 459 2413 420 
C 2381 369 1920 369 1830 369 
L 602 369 
C 832 619 1280 1072 1824 1597 
C 2214 1967 2669 2402 2669 3035 
C 2669 3790 2067 4224 1395 4224 
C 691 4224 262 3604 262 3030 
C 262 2780 448 2748 525 2748 
C 589 2748 781 2787 781 3010 
C 781 3207 614 3264 525 3264 
C 486 3264 448 3258 422 3245 
C 544 3790 915 4058 1306 4058 
C 1862 4058 2227 3617 2227 3035 
C 2227 2479 1901 2000 1536 1584 
L 262 146 
L 262 0 
L 2515 0 
L 2669 989 
z
" transform="scale(0.015625)"/>
     </defs>
     <use xlink:href="#CMMI12-4d" transform="scale(0.996264)"/>
     <use xlink:href="#CMR17-32" transform="translate(94.373425 -14.943915) scale(0.697382)"/>
    </g>
   </g>
   <g id="text_2">
    <!-- $M_{2D}$ -->
    <g transform="translate(209.394383 103.523476) scale(0.14 -0.14)">
     <defs>
      <path id="CMMI12-44" d="M 1005 472 
C 947 249 934 185 486 185 
C 365 185 301 185 301 70 
C 301 0 339 0 467 0 
L 2496 0 
C 3789 0 5050 1332 5050 2753 
C 5050 3671 4499 4352 3584 4352 
L 1530 4352 
C 1408 4352 1350 4352 1350 4231 
C 1350 4167 1408 4167 1504 4167 
C 1894 4167 1894 4116 1894 4046 
C 1894 4034 1894 3995 1869 3899 
L 1005 472 
z
M 2355 3931 
C 2413 4167 2438 4167 2688 4167 
L 3392 4167 
C 3994 4167 4544 3842 4544 2963 
C 4544 2644 4416 1536 3795 835 
C 3616 625 3130 185 2394 185 
L 1664 185 
C 1574 185 1562 185 1523 192 
C 1453 198 1446 211 1446 262 
C 1446 307 1459 345 1472 402 
L 2355 3931 
z
" transform="scale(0.015625)"/>
     </defs>
     <use xlink:href="#CMMI12-4d" transform="scale(0.996264)"/>
     <use xlink:href="#CMR17-32" transform="translate(94.373425 -14.943915) scale(0.697382)"/>
     <use xlink:href="#CMMI12-44" transform="translate(126.356607 -14.943915) scale(0.697382)"/>
    </g>
   </g>
   <g id="patch_7">
    <path d="M 288.6464 118.1376 
C 289.362448 118.1376 290.049266 117.853111 290.555588 117.346788 
C 291.061911 116.840466 291.3464 116.153648 291.3464 115.4376 
C 291.3464 114.721552 291.061911 114.034734 290.555588 113.528412 
C 290.049266 113.022089 289.362448 112.7376 288.6464 112.7376 
C 287.930352 112.7376 287.243534 113.022089 286.737212 113.528412 
C 286.230889 114.034734 285.9464 114.721552 285.9464 115.4376 
C 285.9464 116.153648 286.230889 116.840466 286.737212 117.346788 
C 287.243534 117.853111 287.930352 118.1376 288.6464 118.1376 
z
" clip-path="url(#pb797e9eec4)" style="stroke: #000000; stroke-width: 2; stroke-linejoin: miter"/>
   </g>
   <g id="text_3">
    <!-- $M_1$ -->
    <g transform="translate(117.531647 143.723476) scale(0.14 -0.14)">
     <defs>
      <path id="CMR17-31" d="M 1702 4058 
C 1702 4192 1696 4192 1606 4192 
C 1357 3916 979 3827 621 3827 
C 602 3827 570 3827 563 3808 
C 557 3795 557 3782 557 3648 
C 755 3648 1088 3686 1344 3839 
L 1344 461 
C 1344 236 1331 160 781 160 
L 589 160 
L 589 0 
C 896 0 1216 0 1523 0 
C 1830 0 2150 0 2458 0 
L 2458 160 
L 2266 160 
C 1715 160 1702 230 1702 458 
L 1702 4058 
z
" transform="scale(0.015625)"/>
     </defs>
     <use xlink:href="#CMMI12-4d" transform="scale(0.996264)"/>
     <use xlink:href="#CMR17-31" transform="translate(94.373425 -14.943915) scale(0.697382)"/>
    </g>
   </g>
   <g id="text_4">
    <!-- $M_{1D}$ -->
    <g transform="translate(209.394383 132.923476) scale(0.14 -0.14)">
     <use xlink:href="#CMMI12-4d" transform="scale(0.996264)"/>
     <use xlink:href="#CMR17-31" transform="translate(94.373425 -14.943915) scale(0.697382)"/>
     <use xlink:href="#CMMI12-44" transform="translate(126.356607 -14.943915) scale(0.697382)"/>
    </g>
   </g>
   <g id="patch_8">
    <path d="M 24.6464 118.1376 
C 25.362448 118.1376 26.049266 117.853111 26.555588 117.346788 
C 27.061911 116.840466 27.3464 116.153648 27.3464 115.4376 
C 27.3464 114.721552 27.061911 114.034734 26.555588 113.528412 
C 26.049266 113.022089 25.362448 112.7376 24.6464 112.7376 
C 23.930352 112.7376 23.243534 113.022089 22.737212 113.528412 
C 22.230889 114.034734 21.9464 114.721552 21.9464 115.4376 
C 21.9464 116.153648 22.230889 116.840466 22.737212 117.346788 
C 23.243534 117.853111 23.930352 118.1376 24.6464 118.1376 
z
" clip-path="url(#pb797e9eec4)" style="fill: #ffffff; stroke: #000000; stroke-width: 2; stroke-linejoin: miter"/>
   </g>
   <g id="text_5">
    <!-- $V_\mathrm{a}$ -->
    <g transform="translate(3.567437 118.924524) scale(0.14 -0.14)">
     <defs>
      <path id="CMMI12-56" d="M 3962 3640 
C 4179 3984 4378 4136 4704 4162 
C 4768 4168 4819 4168 4819 4282 
C 4819 4308 4806 4346 4749 4346 
C 4634 4346 4358 4346 4243 4346 
C 4058 4346 3866 4346 3686 4346 
C 3635 4346 3571 4346 3571 4226 
C 3571 4168 3629 4162 3654 4162 
C 3891 4143 3917 4029 3917 3952 
C 3917 3857 3827 3710 3821 3704 
L 1811 540 
L 1363 3969 
C 1363 4160 1696 4160 1766 4160 
C 1862 4160 1920 4160 1920 4282 
C 1920 4346 1850 4346 1830 4346 
C 1722 4346 1594 4346 1485 4346 
L 1126 4346 
C 659 4346 467 4346 461 4346 
C 422 4346 346 4346 346 4230 
C 346 4160 390 4160 493 4160 
C 819 4160 838 4102 858 3944 
L 1370 24 
C 1389 -109 1389 -128 1478 -128 
C 1555 -128 1587 -109 1651 -8 
L 3962 3640 
z
" transform="scale(0.015625)"/>
      <path id="CMR17-61" d="M 2304 1653 
C 2304 2072 2304 2294 2035 2543 
C 1798 2752 1523 2816 1306 2816 
C 800 2816 435 2407 435 1971 
C 435 1728 627 1728 666 1728 
C 749 1728 896 1778 896 1954 
C 896 2112 774 2181 666 2181 
C 640 2181 608 2174 589 2168 
C 723 2592 1069 2714 1293 2714 
C 1613 2714 1965 2429 1965 1885 
L 1965 1600 
C 1587 1600 1133 1549 774 1357 
C 371 1133 256 813 256 570 
C 256 77 832 -64 1171 -64 
C 1523 -64 1850 139 1990 511 
C 2003 233 2182 -18 2464 -18 
C 2598 -18 2938 70 2938 567 
L 2938 920 
L 2822 920 
L 2822 562 
C 2822 178 2650 128 2566 128 
C 2304 128 2304 458 2304 738 
L 2304 1653 
z
M 1965 870 
C 1965 317 1568 38 1216 38 
C 896 38 646 275 646 570 
C 646 761 730 1100 1101 1305 
C 1408 1478 1760 1504 1965 1504 
L 1965 870 
z
" transform="scale(0.015625)"/>
     </defs>
     <use xlink:href="#CMMI12-56" transform="scale(0.996264)"/>
     <use xlink:href="#CMR17-61" transform="translate(56.869579 -14.943915) scale(0.697382)"/>
    </g>
   </g>
   <g id="patch_9">
    <path d="M 126.6464 31.1376 
C 127.362448 31.1376 128.049266 30.853111 128.555588 30.346788 
C 129.061911 29.840466 129.3464 29.153648 129.3464 28.4376 
C 129.3464 27.721552 129.061911 27.034734 128.555588 26.528412 
C 128.049266 26.022089 127.362448 25.7376 126.6464 25.7376 
C 125.930352 25.7376 125.243534 26.022089 124.737212 26.528412 
C 124.230889 27.034734 123.9464 27.721552 123.9464 28.4376 
C 123.9464 29.153648 124.230889 29.840466 124.737212 30.346788 
C 125.243534 30.853111 125.930352 31.1376 126.6464 31.1376 
z
" clip-path="url(#pb797e9eec4)" style="fill: #ffffff; stroke: #000000; stroke-width: 2; stroke-linejoin: miter"/>
   </g>
   <g id="text_6">
    <!-- $\overline{V_\mathrm{CTRL}}$ -->
    <g transform="translate(108.34109 17.625572) scale(0.14 -0.14)">
     <defs>
      <path id="CMR17-43" d="M 3974 4289 
C 3974 4403 3968 4410 3930 4410 
C 3904 4410 3898 4403 3853 4327 
L 3571 3792 
C 3258 4187 2874 4416 2381 4416 
C 1286 4416 294 3456 294 2148 
C 294 826 1286 -128 2387 -128 
C 3366 -128 3974 730 3974 1461 
C 3974 1524 3974 1550 3917 1550 
C 3866 1550 3866 1531 3859 1474 
C 3808 585 3168 38 2477 38 
C 1824 38 781 495 781 2147 
C 781 3805 1843 4250 2464 4250 
C 3187 4250 3712 3628 3834 2745 
C 3846 2668 3846 2655 3904 2655 
C 3974 2655 3974 2668 3974 2783 
L 3974 4289 
z
" transform="scale(0.015625)"/>
      <path id="CMR17-54" d="M 3981 4326 
L 288 4326 
L 179 2918 
L 294 2918 
C 378 3976 467 4160 1453 4160 
C 1568 4160 1754 4160 1805 4154 
C 1926 4135 1926 4058 1926 3912 
L 1926 459 
C 1926 230 1907 160 1376 160 
L 1197 160 
L 1197 0 
C 1504 0 1824 0 2138 0 
C 2451 0 2771 0 3078 0 
L 3078 160 
L 2899 160 
C 2368 160 2349 230 2349 459 
L 2349 3912 
C 2349 4052 2349 4129 2464 4154 
C 2515 4160 2701 4160 2816 4160 
C 3795 4160 3891 3976 3974 2918 
L 4090 2918 
L 3981 4326 
z
" transform="scale(0.015625)"/>
      <path id="CMR17-52" d="M 2509 2146 
C 3117 2268 3629 2676 3629 3186 
C 3629 3785 2950 4326 2054 4326 
L 333 4326 
L 333 4160 
C 774 4160 845 4160 845 3873 
L 845 415 
C 845 128 774 128 333 128 
L 333 -26 
C 518 -26 851 -26 1050 -26 
C 1248 -26 1581 -26 1766 -26 
L 1766 128 
C 1325 128 1254 128 1254 417 
L 1254 2112 
L 2003 2112 
C 2368 2112 2573 1964 2662 1881 
C 2918 1632 2918 1459 2918 1024 
C 2918 595 2918 377 3110 160 
C 3354 -102 3680 -128 3821 -128 
C 4294 -128 4365 396 4365 503 
C 4365 540 4365 585 4307 585 
C 4256 585 4250 547 4250 522 
C 4218 112 4032 -26 3834 -26 
C 3482 -26 3443 375 3405 764 
C 3386 898 3373 993 3360 1133 
C 3322 1452 3270 1917 2509 2146 
z
M 1984 2214 
L 1254 2214 
L 1254 3913 
C 1254 4129 1267 4160 1523 4160 
L 1990 4160 
C 2522 4160 3142 3977 3142 3190 
C 3142 2372 2464 2214 1984 2214 
z
" transform="scale(0.015625)"/>
      <path id="CMR17-4c" d="M 3469 1615 
L 3354 1615 
C 3302 983 3219 166 2125 166 
L 1530 166 
C 1274 166 1261 197 1261 414 
L 1261 3898 
C 1261 4129 1274 4192 1760 4192 
L 1901 4192 
L 1901 4352 
C 1638 4352 1331 4352 1069 4352 
C 870 4352 512 4352 326 4352 
L 326 4192 
C 768 4192 838 4192 838 3905 
L 838 452 
C 838 166 768 166 326 166 
L 326 0 
L 3315 0 
L 3469 1615 
z
" transform="scale(0.015625)"/>
     </defs>
     <use xlink:href="#CMMI12-56" transform="scale(0.996264)"/>
     <use xlink:href="#CMR17-43" transform="translate(56.869579 -14.943915) scale(0.697382)"/>
     <use xlink:href="#CMR17-54" transform="translate(103.426284 -14.943915) scale(0.697382)"/>
     <use xlink:href="#CMR17-52" transform="translate(149.982989 -14.943915) scale(0.697382)"/>
     <use xlink:href="#CMR17-4c" transform="translate(197.436554 -14.943915) scale(0.697382)"/>
     <path d="M 0 80.032884 
L 238.101489 80.032884 
L 238.101489 84.017834 
L 0 84.017834 
L 0 80.032884 
z
"/>
    </g>
   </g>
   <g id="patch_10">
    <path d="M 222.6464 31.1376 
C 223.362448 31.1376 224.049266 30.853111 224.555588 30.346788 
C 225.061911 29.840466 225.3464 29.153648 225.3464 28.4376 
C 225.3464 27.721552 225.061911 27.034734 224.555588 26.528412 
C 224.049266 26.022089 223.362448 25.7376 222.6464 25.7376 
C 221.930352 25.7376 221.243534 26.022089 220.737212 26.528412 
C 220.230889 27.034734 219.9464 27.721552 219.9464 28.4376 
C 219.9464 29.153648 220.230889 29.840466 220.737212 30.346788 
C 221.243534 30.853111 221.930352 31.1376 222.6464 31.1376 
z
" clip-path="url(#pb797e9eec4)" style="fill: #ffffff; stroke: #000000; stroke-width: 2; stroke-linejoin: miter"/>
   </g>
   <g id="text_7">
    <!-- $V_\mathrm{CTRL}$ -->
    <g transform="translate(204.590156 17.625572) scale(0.14 -0.14)">
     <use xlink:href="#CMMI12-56" transform="scale(0.996264)"/>
     <use xlink:href="#CMR17-43" transform="translate(56.869579 -14.943915) scale(0.697382)"/>
     <use xlink:href="#CMR17-54" transform="translate(103.426284 -14.943915) scale(0.697382)"/>
     <use xlink:href="#CMR17-52" transform="translate(149.982989 -14.943915) scale(0.697382)"/>
     <use xlink:href="#CMR17-4c" transform="translate(197.436554 -14.943915) scale(0.697382)"/>
    </g>
   </g>
   <g id="patch_11">
    <path d="M 192.6464 82.1376 
C 193.362448 82.1376 194.049266 81.853111 194.555588 81.346788 
C 195.061911 80.840466 195.3464 80.153648 195.3464 79.4376 
C 195.3464 78.721552 195.061911 78.034734 194.555588 77.528412 
C 194.049266 77.022089 193.362448 76.7376 192.6464 76.7376 
C 191.930352 76.7376 191.243534 77.022089 190.737212 77.528412 
C 190.230889 78.034734 189.9464 78.721552 189.9464 79.4376 
C 189.9464 80.153648 190.230889 80.840466 190.737212 81.346788 
C 191.243534 81.853111 191.930352 82.1376 192.6464 82.1376 
z
" clip-path="url(#pb797e9eec4)" style="stroke: #000000; stroke-width: 2; stroke-linejoin: miter"/>
   </g>
   <g id="patch_12">
    <path d="M 252.6464 82.1376 
C 253.362448 82.1376 254.049266 81.853111 254.555588 81.346788 
C 255.061911 80.840466 255.3464 80.153648 255.3464 79.4376 
C 255.3464 78.721552 255.061911 78.034734 254.555588 77.528412 
C 254.049266 77.022089 253.362448 76.7376 252.6464 76.7376 
C 251.930352 76.7376 251.243534 77.022089 250.737212 77.528412 
C 250.230889 78.034734 249.9464 78.721552 249.9464 79.4376 
C 249.9464 80.153648 250.230889 80.840466 250.737212 81.346788 
C 251.243534 81.853111 251.930352 82.1376 252.6464 82.1376 
z
" clip-path="url(#pb797e9eec4)" style="stroke: #000000; stroke-width: 2; stroke-linejoin: miter"/>
   </g>
   <g id="patch_13">
    <path d="M 324.6464 118.1376 
C 325.362448 118.1376 326.049266 117.853111 326.555588 117.346788 
C 327.061911 116.840466 327.3464 116.153648 327.3464 115.4376 
C 327.3464 114.721552 327.061911 114.034734 326.555588 113.528412 
C 326.049266 113.022089 325.362448 112.7376 324.6464 112.7376 
C 323.930352 112.7376 323.243534 113.022089 322.737212 113.528412 
C 322.230889 114.034734 321.9464 114.721552 321.9464 115.4376 
C 321.9464 116.153648 322.230889 116.840466 322.737212 117.346788 
C 323.243534 117.853111 323.930352 118.1376 324.6464 118.1376 
z
" clip-path="url(#pb797e9eec4)" style="fill: #ffffff; stroke: #000000; stroke-width: 2; stroke-linejoin: miter"/>
   </g>
   <g id="text_8">
    <!-- $V_\mathrm{b}$ -->
    <g transform="translate(332.7464 118.924524) scale(0.14 -0.14)">
     <defs>
      <path id="CMR17-62" d="M 960 4396 
L 198 4326 
L 198 4160 
C 576 4160 634 4122 634 3817 
L 634 -13 
L 749 -13 
L 934 441 
C 1120 141 1395 -64 1766 -64 
C 2406 -64 3053 500 3053 1370 
C 3053 2188 2477 2790 1830 2790 
C 1434 2790 1152 2579 960 2330 
L 960 4396 
z
M 973 2004 
C 973 2118 973 2138 1062 2272 
C 1312 2657 1670 2688 1792 2688 
C 1984 2688 2643 2585 2643 1376 
C 2643 108 1888 38 1734 38 
C 1536 38 1248 114 1043 486 
C 973 608 973 621 973 735 
L 973 2004 
z
" transform="scale(0.015625)"/>
     </defs>
     <use xlink:href="#CMMI12-56" transform="scale(0.996264)"/>
     <use xlink:href="#CMR17-62" transform="translate(56.869579 -14.943915) scale(0.697382)"/>
    </g>
   </g>
   <g id="patch_14">
    <path d="M 126.6464 205.1376 
C 127.362448 205.1376 128.049266 204.853111 128.555588 204.346788 
C 129.061911 203.840466 129.3464 203.153648 129.3464 202.4376 
C 129.3464 201.721552 129.061911 201.034734 128.555588 200.528412 
C 128.049266 200.022089 127.362448 199.7376 126.6464 199.7376 
C 125.930352 199.7376 125.243534 200.022089 124.737212 200.528412 
C 124.230889 201.034734 123.9464 201.721552 123.9464 202.4376 
C 123.9464 203.153648 124.230889 203.840466 124.737212 204.346788 
C 125.243534 204.853111 125.930352 205.1376 126.6464 205.1376 
z
" clip-path="url(#pb797e9eec4)" style="fill: #ffffff; stroke: #000000; stroke-width: 2; stroke-linejoin: miter"/>
   </g>
   <g id="text_9">
    <!-- $V_\mathrm{CTRL}$ -->
    <g transform="translate(108.590156 220.223476) scale(0.14 -0.14)">
     <use xlink:href="#CMMI12-56" transform="scale(0.996264)"/>
     <use xlink:href="#CMR17-43" transform="translate(56.869579 -14.943915) scale(0.697382)"/>
     <use xlink:href="#CMR17-54" transform="translate(103.426284 -14.943915) scale(0.697382)"/>
     <use xlink:href="#CMR17-52" transform="translate(149.982989 -14.943915) scale(0.697382)"/>
     <use xlink:href="#CMR17-4c" transform="translate(197.436554 -14.943915) scale(0.697382)"/>
    </g>
   </g>
   <g id="patch_15">
    <path d="M 222.6464 205.1376 
C 223.362448 205.1376 224.049266 204.853111 224.555588 204.346788 
C 225.061911 203.840466 225.3464 203.153648 225.3464 202.4376 
C 225.3464 201.721552 225.061911 201.034734 224.555588 200.528412 
C 224.049266 200.022089 223.362448 199.7376 222.6464 199.7376 
C 221.930352 199.7376 221.243534 200.022089 220.737212 200.528412 
C 220.230889 201.034734 219.9464 201.721552 219.9464 202.4376 
C 219.9464 203.153648 220.230889 203.840466 220.737212 204.346788 
C 221.243534 204.853111 221.930352 205.1376 222.6464 205.1376 
z
" clip-path="url(#pb797e9eec4)" style="fill: #ffffff; stroke: #000000; stroke-width: 2; stroke-linejoin: miter"/>
   </g>
   <g id="text_10">
    <!-- $\overline{V_\mathrm{CTRL}}$ -->
    <g transform="translate(204.34109 221.680202) scale(0.14 -0.14)">
     <use xlink:href="#CMMI12-56" transform="scale(0.996264)"/>
     <use xlink:href="#CMR17-43" transform="translate(56.869579 -14.943915) scale(0.697382)"/>
     <use xlink:href="#CMR17-54" transform="translate(103.426284 -14.943915) scale(0.697382)"/>
     <use xlink:href="#CMR17-52" transform="translate(149.982989 -14.943915) scale(0.697382)"/>
     <use xlink:href="#CMR17-4c" transform="translate(197.436554 -14.943915) scale(0.697382)"/>
     <path d="M 0 80.032884 
L 238.101489 80.032884 
L 238.101489 84.017834 
L 0 84.017834 
L 0 80.032884 
z
"/>
    </g>
   </g>
   <g id="patch_16">
    <path d="M 192.6464 154.1376 
C 193.362448 154.1376 194.049266 153.853111 194.555588 153.346788 
C 195.061911 152.840466 195.3464 152.153648 195.3464 151.4376 
C 195.3464 150.721552 195.061911 150.034734 194.555588 149.528412 
C 194.049266 149.022089 193.362448 148.7376 192.6464 148.7376 
C 191.930352 148.7376 191.243534 149.022089 190.737212 149.528412 
C 190.230889 150.034734 189.9464 150.721552 189.9464 151.4376 
C 189.9464 152.153648 190.230889 152.840466 190.737212 153.346788 
C 191.243534 153.853111 191.930352 154.1376 192.6464 154.1376 
z
" clip-path="url(#pb797e9eec4)" style="stroke: #000000; stroke-width: 2; stroke-linejoin: miter"/>
   </g>
   <g id="patch_17">
    <path d="M 252.6464 154.1376 
C 253.362448 154.1376 254.049266 153.853111 254.555588 153.346788 
C 255.061911 152.840466 255.3464 152.153648 255.3464 151.4376 
C 255.3464 150.721552 255.061911 150.034734 254.555588 149.528412 
C 254.049266 149.022089 253.362448 148.7376 252.6464 148.7376 
C 251.930352 148.7376 251.243534 149.022089 250.737212 149.528412 
C 250.230889 150.034734 249.9464 150.721552 249.9464 151.4376 
C 249.9464 152.153648 250.230889 152.840466 250.737212 153.346788 
C 251.243534 153.853111 251.930352 154.1376 252.6464 154.1376 
z
" clip-path="url(#pb797e9eec4)" style="stroke: #000000; stroke-width: 2; stroke-linejoin: miter"/>
   </g>
  </g>
 </g>
 <defs>
  <clipPath id="pb797e9eec4">
   <rect x="0" y="0" width="349.7632" height="230.8752"/>
  </clipPath>
 </defs>
</svg>
