<?xml version="1.0" encoding="utf-8" standalone="no"?>
<!DOCTYPE svg PUBLIC "-//W3C//DTD SVG 1.1//EN"
  "http://www.w3.org/Graphics/SVG/1.1/DTD/svg11.dtd">
<svg xmlns:xlink="http://www.w3.org/1999/xlink" width="424.695312pt" height="273.35625pt" viewBox="0 0 424.695312 273.35625" xmlns="http://www.w3.org/2000/svg" version="1.1">
 <metadata>
  <rdf:RDF xmlns:dc="http://purl.org/dc/elements/1.1/" xmlns:cc="http://creativecommons.org/ns#" xmlns:rdf="http://www.w3.org/1999/02/22-rdf-syntax-ns#">
   <cc:Work>
    <dc:type rdf:resource="http://purl.org/dc/dcmitype/StillImage"/>
    <dc:date>2025-06-17T15:11:08.122271</dc:date>
    <dc:format>image/svg+xml</dc:format>
    <dc:creator>
     <cc:Agent>
      <dc:title>Matplotlib v3.9.2, https://matplotlib.org/</dc:title>
     </cc:Agent>
    </dc:creator>
   </cc:Work>
  </rdf:RDF>
 </metadata>
 <defs>
  <style type="text/css">*{stroke-linejoin: round; stroke-linecap: butt}</style>
 </defs>
 <g id="figure_1">
  <g id="patch_1">
   <path d="M 0 273.35625 
L 424.695312 273.35625 
L 424.695312 0 
L 0 0 
z
" style="fill: #ffffff"/>
  </g>
  <g id="axes_1">
   <g id="patch_2">
    <path d="M 55.345313 97.2 
L 417.495312 97.2 
L 417.495312 7.2 
L 55.345313 7.2 
z
" style="fill: #ffffff"/>
   </g>
   <g id="matplotlib.axis_1">
    <g id="xtick_1">
     <g id="line2d_1">
      <path d="M 101.763392 97.2 
L 101.763392 7.2 
" clip-path="url(#p83ab7ff7d4)" style="fill: none; stroke-dasharray: 2.96,1.28; stroke-dashoffset: 0; stroke: #b0b0b0; stroke-width: 0.8"/>
     </g>
     <g id="line2d_2">
      <defs>
       <path id="m83830e2415" d="M 0 0 
L 0 3.5 
" style="stroke: #000000; stroke-width: 0.8"/>
      </defs>
      <g>
       <use xlink:href="#m83830e2415" x="101.763392" y="97.2" style="stroke: #000000; stroke-width: 0.8"/>
      </g>
     </g>
     <g id="text_1">
      <!-- $\mathdefault{10^{-1}}$ -->
      <g transform="translate(90.013392 111.798437) scale(0.1 -0.1)">
       <defs>
        <path id="DejaVuSans-31" d="M 794 531 
L 1825 531 
L 1825 4091 
L 703 3866 
L 703 4441 
L 1819 4666 
L 2450 4666 
L 2450 531 
L 3481 531 
L 3481 0 
L 794 0 
L 794 531 
z
" transform="scale(0.015625)"/>
        <path id="DejaVuSans-30" d="M 2034 4250 
Q 1547 4250 1301 3770 
Q 1056 3291 1056 2328 
Q 1056 1369 1301 889 
Q 1547 409 2034 409 
Q 2525 409 2770 889 
Q 3016 1369 3016 2328 
Q 3016 3291 2770 3770 
Q 2525 4250 2034 4250 
z
M 2034 4750 
Q 2819 4750 3233 4129 
Q 3647 3509 3647 2328 
Q 3647 1150 3233 529 
Q 2819 -91 2034 -91 
Q 1250 -91 836 529 
Q 422 1150 422 2328 
Q 422 3509 836 4129 
Q 1250 4750 2034 4750 
z
" transform="scale(0.015625)"/>
        <path id="DejaVuSans-2212" d="M 678 2272 
L 4684 2272 
L 4684 1741 
L 678 1741 
L 678 2272 
z
" transform="scale(0.015625)"/>
       </defs>
       <use xlink:href="#DejaVuSans-31" transform="translate(0 0.684375)"/>
       <use xlink:href="#DejaVuSans-30" transform="translate(63.623047 0.684375)"/>
       <use xlink:href="#DejaVuSans-2212" transform="translate(128.203125 38.965625) scale(0.7)"/>
       <use xlink:href="#DejaVuSans-31" transform="translate(186.855469 38.965625) scale(0.7)"/>
      </g>
     </g>
    </g>
    <g id="xtick_2">
     <g id="line2d_3">
      <path d="M 161.676824 97.2 
L 161.676824 7.2 
" clip-path="url(#p83ab7ff7d4)" style="fill: none; stroke-dasharray: 2.96,1.28; stroke-dashoffset: 0; stroke: #b0b0b0; stroke-width: 0.8"/>
     </g>
     <g id="line2d_4">
      <g>
       <use xlink:href="#m83830e2415" x="161.676824" y="97.2" style="stroke: #000000; stroke-width: 0.8"/>
      </g>
     </g>
     <g id="text_2">
      <!-- $\mathdefault{10^{1}}$ -->
      <g transform="translate(152.876824 111.798437) scale(0.1 -0.1)">
       <use xlink:href="#DejaVuSans-31" transform="translate(0 0.684375)"/>
       <use xlink:href="#DejaVuSans-30" transform="translate(63.623047 0.684375)"/>
       <use xlink:href="#DejaVuSans-31" transform="translate(128.203125 38.965625) scale(0.7)"/>
      </g>
     </g>
    </g>
    <g id="xtick_3">
     <g id="line2d_5">
      <path d="M 221.590255 97.2 
L 221.590255 7.2 
" clip-path="url(#p83ab7ff7d4)" style="fill: none; stroke-dasharray: 2.96,1.28; stroke-dashoffset: 0; stroke: #b0b0b0; stroke-width: 0.8"/>
     </g>
     <g id="line2d_6">
      <g>
       <use xlink:href="#m83830e2415" x="221.590255" y="97.2" style="stroke: #000000; stroke-width: 0.8"/>
      </g>
     </g>
     <g id="text_3">
      <!-- $\mathdefault{10^{3}}$ -->
      <g transform="translate(212.790255 111.798437) scale(0.1 -0.1)">
       <defs>
        <path id="DejaVuSans-33" d="M 2597 2516 
Q 3050 2419 3304 2112 
Q 3559 1806 3559 1356 
Q 3559 666 3084 287 
Q 2609 -91 1734 -91 
Q 1441 -91 1130 -33 
Q 819 25 488 141 
L 488 750 
Q 750 597 1062 519 
Q 1375 441 1716 441 
Q 2309 441 2620 675 
Q 2931 909 2931 1356 
Q 2931 1769 2642 2001 
Q 2353 2234 1838 2234 
L 1294 2234 
L 1294 2753 
L 1863 2753 
Q 2328 2753 2575 2939 
Q 2822 3125 2822 3475 
Q 2822 3834 2567 4026 
Q 2313 4219 1838 4219 
Q 1578 4219 1281 4162 
Q 984 4106 628 3988 
L 628 4550 
Q 988 4650 1302 4700 
Q 1616 4750 1894 4750 
Q 2613 4750 3031 4423 
Q 3450 4097 3450 3541 
Q 3450 3153 3228 2886 
Q 3006 2619 2597 2516 
z
" transform="scale(0.015625)"/>
       </defs>
       <use xlink:href="#DejaVuSans-31" transform="translate(0 0.765625)"/>
       <use xlink:href="#DejaVuSans-30" transform="translate(63.623047 0.765625)"/>
       <use xlink:href="#DejaVuSans-33" transform="translate(128.203125 39.046875) scale(0.7)"/>
      </g>
     </g>
    </g>
    <g id="xtick_4">
     <g id="line2d_7">
      <path d="M 281.503687 97.2 
L 281.503687 7.2 
" clip-path="url(#p83ab7ff7d4)" style="fill: none; stroke-dasharray: 2.96,1.28; stroke-dashoffset: 0; stroke: #b0b0b0; stroke-width: 0.8"/>
     </g>
     <g id="line2d_8">
      <g>
       <use xlink:href="#m83830e2415" x="281.503687" y="97.2" style="stroke: #000000; stroke-width: 0.8"/>
      </g>
     </g>
     <g id="text_4">
      <!-- $\mathdefault{10^{5}}$ -->
      <g transform="translate(272.703687 111.798437) scale(0.1 -0.1)">
       <defs>
        <path id="DejaVuSans-35" d="M 691 4666 
L 3169 4666 
L 3169 4134 
L 1269 4134 
L 1269 2991 
Q 1406 3038 1543 3061 
Q 1681 3084 1819 3084 
Q 2600 3084 3056 2656 
Q 3513 2228 3513 1497 
Q 3513 744 3044 326 
Q 2575 -91 1722 -91 
Q 1428 -91 1123 -41 
Q 819 9 494 109 
L 494 744 
Q 775 591 1075 516 
Q 1375 441 1709 441 
Q 2250 441 2565 725 
Q 2881 1009 2881 1497 
Q 2881 1984 2565 2268 
Q 2250 2553 1709 2553 
Q 1456 2553 1204 2497 
Q 953 2441 691 2322 
L 691 4666 
z
" transform="scale(0.015625)"/>
       </defs>
       <use xlink:href="#DejaVuSans-31" transform="translate(0 0.684375)"/>
       <use xlink:href="#DejaVuSans-30" transform="translate(63.623047 0.684375)"/>
       <use xlink:href="#DejaVuSans-35" transform="translate(128.203125 38.965625) scale(0.7)"/>
      </g>
     </g>
    </g>
    <g id="xtick_5">
     <g id="line2d_9">
      <path d="M 341.417118 97.2 
L 341.417118 7.2 
" clip-path="url(#p83ab7ff7d4)" style="fill: none; stroke-dasharray: 2.96,1.28; stroke-dashoffset: 0; stroke: #b0b0b0; stroke-width: 0.8"/>
     </g>
     <g id="line2d_10">
      <g>
       <use xlink:href="#m83830e2415" x="341.417118" y="97.2" style="stroke: #000000; stroke-width: 0.8"/>
      </g>
     </g>
     <g id="text_5">
      <!-- $\mathdefault{10^{7}}$ -->
      <g transform="translate(332.617118 111.798437) scale(0.1 -0.1)">
       <defs>
        <path id="DejaVuSans-37" d="M 525 4666 
L 3525 4666 
L 3525 4397 
L 1831 0 
L 1172 0 
L 2766 4134 
L 525 4134 
L 525 4666 
z
" transform="scale(0.015625)"/>
       </defs>
       <use xlink:href="#DejaVuSans-31" transform="translate(0 0.684375)"/>
       <use xlink:href="#DejaVuSans-30" transform="translate(63.623047 0.684375)"/>
       <use xlink:href="#DejaVuSans-37" transform="translate(128.203125 38.965625) scale(0.7)"/>
      </g>
     </g>
    </g>
    <g id="xtick_6">
     <g id="line2d_11">
      <path d="M 401.33055 97.2 
L 401.33055 7.2 
" clip-path="url(#p83ab7ff7d4)" style="fill: none; stroke-dasharray: 2.96,1.28; stroke-dashoffset: 0; stroke: #b0b0b0; stroke-width: 0.8"/>
     </g>
     <g id="line2d_12">
      <g>
       <use xlink:href="#m83830e2415" x="401.33055" y="97.2" style="stroke: #000000; stroke-width: 0.8"/>
      </g>
     </g>
     <g id="text_6">
      <!-- $\mathdefault{10^{9}}$ -->
      <g transform="translate(392.53055 111.798437) scale(0.1 -0.1)">
       <defs>
        <path id="DejaVuSans-39" d="M 703 97 
L 703 672 
Q 941 559 1184 500 
Q 1428 441 1663 441 
Q 2288 441 2617 861 
Q 2947 1281 2994 2138 
Q 2813 1869 2534 1725 
Q 2256 1581 1919 1581 
Q 1219 1581 811 2004 
Q 403 2428 403 3163 
Q 403 3881 828 4315 
Q 1253 4750 1959 4750 
Q 2769 4750 3195 4129 
Q 3622 3509 3622 2328 
Q 3622 1225 3098 567 
Q 2575 -91 1691 -91 
Q 1453 -91 1209 -44 
Q 966 3 703 97 
z
M 1959 2075 
Q 2384 2075 2632 2365 
Q 2881 2656 2881 3163 
Q 2881 3666 2632 3958 
Q 2384 4250 1959 4250 
Q 1534 4250 1286 3958 
Q 1038 3666 1038 3163 
Q 1038 2656 1286 2365 
Q 1534 2075 1959 2075 
z
" transform="scale(0.015625)"/>
       </defs>
       <use xlink:href="#DejaVuSans-31" transform="translate(0 0.765625)"/>
       <use xlink:href="#DejaVuSans-30" transform="translate(63.623047 0.765625)"/>
       <use xlink:href="#DejaVuSans-39" transform="translate(128.203125 39.046875) scale(0.7)"/>
      </g>
     </g>
    </g>
    <g id="text_7">
     <!-- $f$ (Hz) -->
     <g transform="translate(222.770312 125.476562) scale(0.1 -0.1)">
      <defs>
       <path id="DejaVuSans-Oblique-66" d="M 3059 4863 
L 2969 4384 
L 2419 4384 
Q 2106 4384 1964 4261 
Q 1822 4138 1753 3809 
L 1691 3500 
L 2638 3500 
L 2553 3053 
L 1606 3053 
L 1013 0 
L 434 0 
L 1031 3053 
L 481 3053 
L 563 3500 
L 1113 3500 
L 1159 3744 
Q 1278 4363 1576 4613 
Q 1875 4863 2516 4863 
L 3059 4863 
z
" transform="scale(0.015625)"/>
       <path id="DejaVuSans-20" transform="scale(0.015625)"/>
       <path id="DejaVuSans-28" d="M 1984 4856 
Q 1566 4138 1362 3434 
Q 1159 2731 1159 2009 
Q 1159 1288 1364 580 
Q 1569 -128 1984 -844 
L 1484 -844 
Q 1016 -109 783 600 
Q 550 1309 550 2009 
Q 550 2706 781 3412 
Q 1013 4119 1484 4856 
L 1984 4856 
z
" transform="scale(0.015625)"/>
       <path id="DejaVuSans-48" d="M 628 4666 
L 1259 4666 
L 1259 2753 
L 3553 2753 
L 3553 4666 
L 4184 4666 
L 4184 0 
L 3553 0 
L 3553 2222 
L 1259 2222 
L 1259 0 
L 628 0 
L 628 4666 
z
" transform="scale(0.015625)"/>
       <path id="DejaVuSans-7a" d="M 353 3500 
L 3084 3500 
L 3084 2975 
L 922 459 
L 3084 459 
L 3084 0 
L 275 0 
L 275 525 
L 2438 3041 
L 353 3041 
L 353 3500 
z
" transform="scale(0.015625)"/>
       <path id="DejaVuSans-29" d="M 513 4856 
L 1013 4856 
Q 1481 4119 1714 3412 
Q 1947 2706 1947 2009 
Q 1947 1309 1714 600 
Q 1481 -109 1013 -844 
L 513 -844 
Q 928 -128 1133 580 
Q 1338 1288 1338 2009 
Q 1338 2731 1133 3434 
Q 928 4138 513 4856 
z
" transform="scale(0.015625)"/>
      </defs>
      <use xlink:href="#DejaVuSans-Oblique-66" transform="translate(0 0.015625)"/>
      <use xlink:href="#DejaVuSans-20" transform="translate(35.205078 0.015625)"/>
      <use xlink:href="#DejaVuSans-28" transform="translate(66.992188 0.015625)"/>
      <use xlink:href="#DejaVuSans-48" transform="translate(106.005859 0.015625)"/>
      <use xlink:href="#DejaVuSans-7a" transform="translate(181.201172 0.015625)"/>
      <use xlink:href="#DejaVuSans-29" transform="translate(233.691406 0.015625)"/>
     </g>
    </g>
   </g>
   <g id="matplotlib.axis_2">
    <g id="ytick_1">
     <g id="line2d_13">
      <path d="M 55.345313 71.307318 
L 417.495312 71.307318 
" clip-path="url(#p83ab7ff7d4)" style="fill: none; stroke-dasharray: 2.96,1.28; stroke-dashoffset: 0; stroke: #b0b0b0; stroke-width: 0.8"/>
     </g>
     <g id="line2d_14">
      <defs>
       <path id="m788a707103" d="M 0 0 
L -3.5 0 
" style="stroke: #000000; stroke-width: 0.8"/>
      </defs>
      <g>
       <use xlink:href="#m788a707103" x="55.345313" y="71.307318" style="stroke: #000000; stroke-width: 0.8"/>
      </g>
     </g>
     <g id="text_8">
      <!-- −100 -->
      <g transform="translate(20.878125 75.106537) scale(0.1 -0.1)">
       <use xlink:href="#DejaVuSans-2212"/>
       <use xlink:href="#DejaVuSans-31" x="83.789062"/>
       <use xlink:href="#DejaVuSans-30" x="147.412109"/>
       <use xlink:href="#DejaVuSans-30" x="211.035156"/>
      </g>
     </g>
    </g>
    <g id="ytick_2">
     <g id="line2d_15">
      <path d="M 55.345313 28.318701 
L 417.495312 28.318701 
" clip-path="url(#p83ab7ff7d4)" style="fill: none; stroke-dasharray: 2.96,1.28; stroke-dashoffset: 0; stroke: #b0b0b0; stroke-width: 0.8"/>
     </g>
     <g id="line2d_16">
      <g>
       <use xlink:href="#m788a707103" x="55.345313" y="28.318701" style="stroke: #000000; stroke-width: 0.8"/>
      </g>
     </g>
     <g id="text_9">
      <!-- 0 -->
      <g transform="translate(41.982813 32.11792) scale(0.1 -0.1)">
       <use xlink:href="#DejaVuSans-30"/>
      </g>
     </g>
    </g>
    <g id="text_10">
     <!-- Magnitude (dB) -->
     <g transform="translate(14.798438 90.785156) rotate(-90) scale(0.1 -0.1)">
      <defs>
       <path id="DejaVuSans-4d" d="M 628 4666 
L 1569 4666 
L 2759 1491 
L 3956 4666 
L 4897 4666 
L 4897 0 
L 4281 0 
L 4281 4097 
L 3078 897 
L 2444 897 
L 1241 4097 
L 1241 0 
L 628 0 
L 628 4666 
z
" transform="scale(0.015625)"/>
       <path id="DejaVuSans-61" d="M 2194 1759 
Q 1497 1759 1228 1600 
Q 959 1441 959 1056 
Q 959 750 1161 570 
Q 1363 391 1709 391 
Q 2188 391 2477 730 
Q 2766 1069 2766 1631 
L 2766 1759 
L 2194 1759 
z
M 3341 1997 
L 3341 0 
L 2766 0 
L 2766 531 
Q 2569 213 2275 61 
Q 1981 -91 1556 -91 
Q 1019 -91 701 211 
Q 384 513 384 1019 
Q 384 1609 779 1909 
Q 1175 2209 1959 2209 
L 2766 2209 
L 2766 2266 
Q 2766 2663 2505 2880 
Q 2244 3097 1772 3097 
Q 1472 3097 1187 3025 
Q 903 2953 641 2809 
L 641 3341 
Q 956 3463 1253 3523 
Q 1550 3584 1831 3584 
Q 2591 3584 2966 3190 
Q 3341 2797 3341 1997 
z
" transform="scale(0.015625)"/>
       <path id="DejaVuSans-67" d="M 2906 1791 
Q 2906 2416 2648 2759 
Q 2391 3103 1925 3103 
Q 1463 3103 1205 2759 
Q 947 2416 947 1791 
Q 947 1169 1205 825 
Q 1463 481 1925 481 
Q 2391 481 2648 825 
Q 2906 1169 2906 1791 
z
M 3481 434 
Q 3481 -459 3084 -895 
Q 2688 -1331 1869 -1331 
Q 1566 -1331 1297 -1286 
Q 1028 -1241 775 -1147 
L 775 -588 
Q 1028 -725 1275 -790 
Q 1522 -856 1778 -856 
Q 2344 -856 2625 -561 
Q 2906 -266 2906 331 
L 2906 616 
Q 2728 306 2450 153 
Q 2172 0 1784 0 
Q 1141 0 747 490 
Q 353 981 353 1791 
Q 353 2603 747 3093 
Q 1141 3584 1784 3584 
Q 2172 3584 2450 3431 
Q 2728 3278 2906 2969 
L 2906 3500 
L 3481 3500 
L 3481 434 
z
" transform="scale(0.015625)"/>
       <path id="DejaVuSans-6e" d="M 3513 2113 
L 3513 0 
L 2938 0 
L 2938 2094 
Q 2938 2591 2744 2837 
Q 2550 3084 2163 3084 
Q 1697 3084 1428 2787 
Q 1159 2491 1159 1978 
L 1159 0 
L 581 0 
L 581 3500 
L 1159 3500 
L 1159 2956 
Q 1366 3272 1645 3428 
Q 1925 3584 2291 3584 
Q 2894 3584 3203 3211 
Q 3513 2838 3513 2113 
z
" transform="scale(0.015625)"/>
       <path id="DejaVuSans-69" d="M 603 3500 
L 1178 3500 
L 1178 0 
L 603 0 
L 603 3500 
z
M 603 4863 
L 1178 4863 
L 1178 4134 
L 603 4134 
L 603 4863 
z
" transform="scale(0.015625)"/>
       <path id="DejaVuSans-74" d="M 1172 4494 
L 1172 3500 
L 2356 3500 
L 2356 3053 
L 1172 3053 
L 1172 1153 
Q 1172 725 1289 603 
Q 1406 481 1766 481 
L 2356 481 
L 2356 0 
L 1766 0 
Q 1100 0 847 248 
Q 594 497 594 1153 
L 594 3053 
L 172 3053 
L 172 3500 
L 594 3500 
L 594 4494 
L 1172 4494 
z
" transform="scale(0.015625)"/>
       <path id="DejaVuSans-75" d="M 544 1381 
L 544 3500 
L 1119 3500 
L 1119 1403 
Q 1119 906 1312 657 
Q 1506 409 1894 409 
Q 2359 409 2629 706 
Q 2900 1003 2900 1516 
L 2900 3500 
L 3475 3500 
L 3475 0 
L 2900 0 
L 2900 538 
Q 2691 219 2414 64 
Q 2138 -91 1772 -91 
Q 1169 -91 856 284 
Q 544 659 544 1381 
z
M 1991 3584 
L 1991 3584 
z
" transform="scale(0.015625)"/>
       <path id="DejaVuSans-64" d="M 2906 2969 
L 2906 4863 
L 3481 4863 
L 3481 0 
L 2906 0 
L 2906 525 
Q 2725 213 2448 61 
Q 2172 -91 1784 -91 
Q 1150 -91 751 415 
Q 353 922 353 1747 
Q 353 2572 751 3078 
Q 1150 3584 1784 3584 
Q 2172 3584 2448 3432 
Q 2725 3281 2906 2969 
z
M 947 1747 
Q 947 1113 1208 752 
Q 1469 391 1925 391 
Q 2381 391 2643 752 
Q 2906 1113 2906 1747 
Q 2906 2381 2643 2742 
Q 2381 3103 1925 3103 
Q 1469 3103 1208 2742 
Q 947 2381 947 1747 
z
" transform="scale(0.015625)"/>
       <path id="DejaVuSans-65" d="M 3597 1894 
L 3597 1613 
L 953 1613 
Q 991 1019 1311 708 
Q 1631 397 2203 397 
Q 2534 397 2845 478 
Q 3156 559 3463 722 
L 3463 178 
Q 3153 47 2828 -22 
Q 2503 -91 2169 -91 
Q 1331 -91 842 396 
Q 353 884 353 1716 
Q 353 2575 817 3079 
Q 1281 3584 2069 3584 
Q 2775 3584 3186 3129 
Q 3597 2675 3597 1894 
z
M 3022 2063 
Q 3016 2534 2758 2815 
Q 2500 3097 2075 3097 
Q 1594 3097 1305 2825 
Q 1016 2553 972 2059 
L 3022 2063 
z
" transform="scale(0.015625)"/>
       <path id="DejaVuSans-42" d="M 1259 2228 
L 1259 519 
L 2272 519 
Q 2781 519 3026 730 
Q 3272 941 3272 1375 
Q 3272 1813 3026 2020 
Q 2781 2228 2272 2228 
L 1259 2228 
z
M 1259 4147 
L 1259 2741 
L 2194 2741 
Q 2656 2741 2882 2914 
Q 3109 3088 3109 3444 
Q 3109 3797 2882 3972 
Q 2656 4147 2194 4147 
L 1259 4147 
z
M 628 4666 
L 2241 4666 
Q 2963 4666 3353 4366 
Q 3744 4066 3744 3513 
Q 3744 3084 3544 2831 
Q 3344 2578 2956 2516 
Q 3422 2416 3680 2098 
Q 3938 1781 3938 1306 
Q 3938 681 3513 340 
Q 3088 0 2303 0 
L 628 0 
L 628 4666 
z
" transform="scale(0.015625)"/>
      </defs>
      <use xlink:href="#DejaVuSans-4d"/>
      <use xlink:href="#DejaVuSans-61" x="86.279297"/>
      <use xlink:href="#DejaVuSans-67" x="147.558594"/>
      <use xlink:href="#DejaVuSans-6e" x="211.035156"/>
      <use xlink:href="#DejaVuSans-69" x="274.414062"/>
      <use xlink:href="#DejaVuSans-74" x="302.197266"/>
      <use xlink:href="#DejaVuSans-75" x="341.40625"/>
      <use xlink:href="#DejaVuSans-64" x="404.785156"/>
      <use xlink:href="#DejaVuSans-65" x="468.261719"/>
      <use xlink:href="#DejaVuSans-20" x="529.785156"/>
      <use xlink:href="#DejaVuSans-28" x="561.572266"/>
      <use xlink:href="#DejaVuSans-64" x="600.585938"/>
      <use xlink:href="#DejaVuSans-42" x="664.0625"/>
      <use xlink:href="#DejaVuSans-29" x="732.666016"/>
     </g>
    </g>
   </g>
   <g id="line2d_17">
    <path d="M 71.806676 32.515426 
L 98.500779 24.968641 
L 106.212409 22.995972 
L 111.55123 21.837382 
L 116.296848 21.033226 
L 121.042466 20.473121 
L 126.381287 20.10014 
L 132.906512 19.893206 
L 141.804547 19.852072 
L 150.109379 20.028565 
L 156.041402 20.38258 
L 160.78702 20.891724 
L 165.532638 21.643799 
L 170.278257 22.621288 
L 176.21028 24.069532 
L 185.701516 26.647625 
L 209.429608 33.412362 
L 263.411017 48.790048 
L 269.936242 50.443342 
L 274.088658 51.279875 
L 276.461467 51.582159 
L 278.241074 51.652821 
L 280.020681 51.497015 
L 281.207086 51.187351 
L 282.39349 50.601862 
L 282.986692 50.149923 
L 283.579895 49.543931 
L 284.766299 47.818071 
L 285.359502 47.376765 
L 285.952704 48.274497 
L 287.139109 51.105428 
L 288.325513 53.273445 
L 289.511918 54.94413 
L 291.291525 56.920758 
L 293.071131 58.510066 
L 295.443941 60.245279 
L 297.81675 61.678108 
L 300.782761 63.174982 
L 304.341975 64.681537 
L 309.087593 66.395802 
L 315.612819 68.478505 
L 327.476864 71.983496 
L 379.085464 86.809788 
L 401.033949 93.109091 
L 401.033949 93.109091 
" clip-path="url(#p83ab7ff7d4)" style="fill: none; stroke: #1f77b4; stroke-width: 2; stroke-linecap: square"/>
   </g>
   <g id="line2d_18">
    <path d="M 71.806676 26.504499 
L 98.500779 18.959055 
L 106.212409 16.988933 
L 111.55123 15.833733 
L 116.296848 15.033505 
L 121.042466 14.477313 
L 126.381287 14.107671 
L 132.906512 13.902926 
L 141.804547 13.862402 
L 150.109379 14.037457 
L 156.041402 14.388869 
L 160.78702 14.895021 
L 165.532638 15.643923 
L 170.278257 16.6188 
L 176.21028 18.064991 
L 185.701516 20.641773 
L 208.836406 27.23595 
L 263.411017 42.783719 
L 269.936242 44.436997 
L 274.088658 45.273595 
L 276.461467 45.576022 
L 278.241074 45.646909 
L 280.020681 45.491523 
L 281.207086 45.182323 
L 282.39349 44.597493 
L 282.986692 44.145905 
L 283.579895 43.540049 
L 284.766299 41.80788 
L 285.359502 41.352967 
L 285.952704 42.245822 
L 287.139109 45.085608 
L 288.325513 47.257996 
L 289.511918 48.930704 
L 291.291525 50.908859 
L 293.071131 52.499002 
L 295.443941 54.234893 
L 297.81675 55.668156 
L 300.782761 57.16538 
L 304.341975 58.672181 
L 309.087593 60.38661 
L 315.612819 62.469402 
L 327.476864 65.974436 
L 379.085464 80.800744 
L 401.033949 87.100047 
L 401.033949 87.100047 
" clip-path="url(#p83ab7ff7d4)" style="fill: none; stroke: #ff7f0e; stroke-width: 2; stroke-linecap: square"/>
   </g>
   <g id="line2d_19">
    <path d="M 71.806676 23.916161 
L 98.500779 16.372432 
L 106.212409 14.405524 
L 111.55123 13.254525 
L 116.296848 12.459188 
L 121.042466 11.907856 
L 126.381287 11.542339 
L 132.906512 11.34027 
L 141.804547 11.300441 
L 150.109379 11.473577 
L 156.041402 11.821545 
L 160.78702 12.323729 
L 165.532638 13.068409 
L 170.278257 14.039798 
L 176.21028 15.483242 
L 185.701516 18.058263 
L 208.836406 24.651866 
L 264.004219 40.358373 
L 270.529444 41.987484 
L 274.088658 42.6892 
L 276.461467 42.991571 
L 278.241074 43.062422 
L 280.020681 42.906979 
L 281.207086 42.597649 
L 282.39349 42.012323 
L 282.986692 41.560016 
L 283.579895 40.952486 
L 284.766299 39.204827 
L 285.359502 38.732812 
L 285.952704 39.628818 
L 287.139109 42.486566 
L 288.325513 44.664728 
L 289.511918 46.33966 
L 291.291525 48.319238 
L 293.071131 49.910014 
L 295.443941 51.64631 
L 297.81675 53.079769 
L 300.782761 54.577112 
L 304.341975 56.083975 
L 309.087593 57.798434 
L 315.612819 59.881237 
L 327.476864 63.386275 
L 379.085464 78.212586 
L 401.033949 84.511889 
L 401.033949 84.511889 
" clip-path="url(#p83ab7ff7d4)" style="fill: none; stroke: #2ca02c; stroke-width: 2; stroke-linecap: square"/>
   </g>
   <g id="patch_3">
    <path d="M 55.345313 97.2 
L 55.345313 7.2 
" style="fill: none; stroke: #000000; stroke-width: 0.8; stroke-linejoin: miter; stroke-linecap: square"/>
   </g>
   <g id="patch_4">
    <path d="M 417.495312 97.2 
L 417.495312 7.2 
" style="fill: none; stroke: #000000; stroke-width: 0.8; stroke-linejoin: miter; stroke-linecap: square"/>
   </g>
   <g id="patch_5">
    <path d="M 55.345313 97.2 
L 417.495312 97.2 
" style="fill: none; stroke: #000000; stroke-width: 0.8; stroke-linejoin: miter; stroke-linecap: square"/>
   </g>
   <g id="patch_6">
    <path d="M 55.345313 7.2 
L 417.495312 7.2 
" style="fill: none; stroke: #000000; stroke-width: 0.8; stroke-linejoin: miter; stroke-linecap: square"/>
   </g>
   <g id="legend_1">
    <g id="patch_7">
     <path d="M 62.345313 92.2 
L 209.370313 92.2 
Q 211.370313 92.2 211.370313 90.2 
L 211.370313 47.165625 
Q 211.370313 45.165625 209.370313 45.165625 
L 62.345313 45.165625 
Q 60.345313 45.165625 60.345313 47.165625 
L 60.345313 90.2 
Q 60.345313 92.2 62.345313 92.2 
z
" style="fill: #ffffff; opacity: 0.8; stroke: #cccccc; stroke-linejoin: miter"/>
    </g>
    <g id="line2d_20">
     <path d="M 64.345313 53.264062 
L 74.345313 53.264062 
L 84.345313 53.264062 
" style="fill: none; stroke: #1f77b4; stroke-width: 2; stroke-linecap: square"/>
    </g>
    <g id="text_11">
     <!-- C1 = 33pF, R1 = 480M -->
     <g transform="translate(92.345313 56.764062) scale(0.1 -0.1)">
      <defs>
       <path id="DejaVuSans-43" d="M 4122 4306 
L 4122 3641 
Q 3803 3938 3442 4084 
Q 3081 4231 2675 4231 
Q 1875 4231 1450 3742 
Q 1025 3253 1025 2328 
Q 1025 1406 1450 917 
Q 1875 428 2675 428 
Q 3081 428 3442 575 
Q 3803 722 4122 1019 
L 4122 359 
Q 3791 134 3420 21 
Q 3050 -91 2638 -91 
Q 1578 -91 968 557 
Q 359 1206 359 2328 
Q 359 3453 968 4101 
Q 1578 4750 2638 4750 
Q 3056 4750 3426 4639 
Q 3797 4528 4122 4306 
z
" transform="scale(0.015625)"/>
       <path id="DejaVuSans-3d" d="M 678 2906 
L 4684 2906 
L 4684 2381 
L 678 2381 
L 678 2906 
z
M 678 1631 
L 4684 1631 
L 4684 1100 
L 678 1100 
L 678 1631 
z
" transform="scale(0.015625)"/>
       <path id="DejaVuSans-70" d="M 1159 525 
L 1159 -1331 
L 581 -1331 
L 581 3500 
L 1159 3500 
L 1159 2969 
Q 1341 3281 1617 3432 
Q 1894 3584 2278 3584 
Q 2916 3584 3314 3078 
Q 3713 2572 3713 1747 
Q 3713 922 3314 415 
Q 2916 -91 2278 -91 
Q 1894 -91 1617 61 
Q 1341 213 1159 525 
z
M 3116 1747 
Q 3116 2381 2855 2742 
Q 2594 3103 2138 3103 
Q 1681 3103 1420 2742 
Q 1159 2381 1159 1747 
Q 1159 1113 1420 752 
Q 1681 391 2138 391 
Q 2594 391 2855 752 
Q 3116 1113 3116 1747 
z
" transform="scale(0.015625)"/>
       <path id="DejaVuSans-46" d="M 628 4666 
L 3309 4666 
L 3309 4134 
L 1259 4134 
L 1259 2759 
L 3109 2759 
L 3109 2228 
L 1259 2228 
L 1259 0 
L 628 0 
L 628 4666 
z
" transform="scale(0.015625)"/>
       <path id="DejaVuSans-2c" d="M 750 794 
L 1409 794 
L 1409 256 
L 897 -744 
L 494 -744 
L 750 256 
L 750 794 
z
" transform="scale(0.015625)"/>
       <path id="DejaVuSans-52" d="M 2841 2188 
Q 3044 2119 3236 1894 
Q 3428 1669 3622 1275 
L 4263 0 
L 3584 0 
L 2988 1197 
Q 2756 1666 2539 1819 
Q 2322 1972 1947 1972 
L 1259 1972 
L 1259 0 
L 628 0 
L 628 4666 
L 2053 4666 
Q 2853 4666 3247 4331 
Q 3641 3997 3641 3322 
Q 3641 2881 3436 2590 
Q 3231 2300 2841 2188 
z
M 1259 4147 
L 1259 2491 
L 2053 2491 
Q 2509 2491 2742 2702 
Q 2975 2913 2975 3322 
Q 2975 3731 2742 3939 
Q 2509 4147 2053 4147 
L 1259 4147 
z
" transform="scale(0.015625)"/>
       <path id="DejaVuSans-34" d="M 2419 4116 
L 825 1625 
L 2419 1625 
L 2419 4116 
z
M 2253 4666 
L 3047 4666 
L 3047 1625 
L 3713 1625 
L 3713 1100 
L 3047 1100 
L 3047 0 
L 2419 0 
L 2419 1100 
L 313 1100 
L 313 1709 
L 2253 4666 
z
" transform="scale(0.015625)"/>
       <path id="DejaVuSans-38" d="M 2034 2216 
Q 1584 2216 1326 1975 
Q 1069 1734 1069 1313 
Q 1069 891 1326 650 
Q 1584 409 2034 409 
Q 2484 409 2743 651 
Q 3003 894 3003 1313 
Q 3003 1734 2745 1975 
Q 2488 2216 2034 2216 
z
M 1403 2484 
Q 997 2584 770 2862 
Q 544 3141 544 3541 
Q 544 4100 942 4425 
Q 1341 4750 2034 4750 
Q 2731 4750 3128 4425 
Q 3525 4100 3525 3541 
Q 3525 3141 3298 2862 
Q 3072 2584 2669 2484 
Q 3125 2378 3379 2068 
Q 3634 1759 3634 1313 
Q 3634 634 3220 271 
Q 2806 -91 2034 -91 
Q 1263 -91 848 271 
Q 434 634 434 1313 
Q 434 1759 690 2068 
Q 947 2378 1403 2484 
z
M 1172 3481 
Q 1172 3119 1398 2916 
Q 1625 2713 2034 2713 
Q 2441 2713 2670 2916 
Q 2900 3119 2900 3481 
Q 2900 3844 2670 4047 
Q 2441 4250 2034 4250 
Q 1625 4250 1398 4047 
Q 1172 3844 1172 3481 
z
" transform="scale(0.015625)"/>
      </defs>
      <use xlink:href="#DejaVuSans-43"/>
      <use xlink:href="#DejaVuSans-31" x="69.824219"/>
      <use xlink:href="#DejaVuSans-20" x="133.447266"/>
      <use xlink:href="#DejaVuSans-3d" x="165.234375"/>
      <use xlink:href="#DejaVuSans-20" x="249.023438"/>
      <use xlink:href="#DejaVuSans-33" x="280.810547"/>
      <use xlink:href="#DejaVuSans-33" x="344.433594"/>
      <use xlink:href="#DejaVuSans-70" x="408.056641"/>
      <use xlink:href="#DejaVuSans-46" x="471.533203"/>
      <use xlink:href="#DejaVuSans-2c" x="529.052734"/>
      <use xlink:href="#DejaVuSans-20" x="560.839844"/>
      <use xlink:href="#DejaVuSans-52" x="592.626953"/>
      <use xlink:href="#DejaVuSans-31" x="662.109375"/>
      <use xlink:href="#DejaVuSans-20" x="725.732422"/>
      <use xlink:href="#DejaVuSans-3d" x="757.519531"/>
      <use xlink:href="#DejaVuSans-20" x="841.308594"/>
      <use xlink:href="#DejaVuSans-34" x="873.095703"/>
      <use xlink:href="#DejaVuSans-38" x="936.71875"/>
      <use xlink:href="#DejaVuSans-30" x="1000.341797"/>
      <use xlink:href="#DejaVuSans-4d" x="1063.964844"/>
     </g>
    </g>
    <g id="line2d_21">
     <path d="M 64.345313 67.942187 
L 74.345313 67.942187 
L 84.345313 67.942187 
" style="fill: none; stroke: #ff7f0e; stroke-width: 2; stroke-linecap: square"/>
    </g>
    <g id="text_12">
     <!-- C1 = 165pF, R1 = 96M -->
     <g transform="translate(92.345313 71.442187) scale(0.1 -0.1)">
      <defs>
       <path id="DejaVuSans-36" d="M 2113 2584 
Q 1688 2584 1439 2293 
Q 1191 2003 1191 1497 
Q 1191 994 1439 701 
Q 1688 409 2113 409 
Q 2538 409 2786 701 
Q 3034 994 3034 1497 
Q 3034 2003 2786 2293 
Q 2538 2584 2113 2584 
z
M 3366 4563 
L 3366 3988 
Q 3128 4100 2886 4159 
Q 2644 4219 2406 4219 
Q 1781 4219 1451 3797 
Q 1122 3375 1075 2522 
Q 1259 2794 1537 2939 
Q 1816 3084 2150 3084 
Q 2853 3084 3261 2657 
Q 3669 2231 3669 1497 
Q 3669 778 3244 343 
Q 2819 -91 2113 -91 
Q 1303 -91 875 529 
Q 447 1150 447 2328 
Q 447 3434 972 4092 
Q 1497 4750 2381 4750 
Q 2619 4750 2861 4703 
Q 3103 4656 3366 4563 
z
" transform="scale(0.015625)"/>
      </defs>
      <use xlink:href="#DejaVuSans-43"/>
      <use xlink:href="#DejaVuSans-31" x="69.824219"/>
      <use xlink:href="#DejaVuSans-20" x="133.447266"/>
      <use xlink:href="#DejaVuSans-3d" x="165.234375"/>
      <use xlink:href="#DejaVuSans-20" x="249.023438"/>
      <use xlink:href="#DejaVuSans-31" x="280.810547"/>
      <use xlink:href="#DejaVuSans-36" x="344.433594"/>
      <use xlink:href="#DejaVuSans-35" x="408.056641"/>
      <use xlink:href="#DejaVuSans-70" x="471.679688"/>
      <use xlink:href="#DejaVuSans-46" x="535.15625"/>
      <use xlink:href="#DejaVuSans-2c" x="592.675781"/>
      <use xlink:href="#DejaVuSans-20" x="624.462891"/>
      <use xlink:href="#DejaVuSans-52" x="656.25"/>
      <use xlink:href="#DejaVuSans-31" x="725.732422"/>
      <use xlink:href="#DejaVuSans-20" x="789.355469"/>
      <use xlink:href="#DejaVuSans-3d" x="821.142578"/>
      <use xlink:href="#DejaVuSans-20" x="904.931641"/>
      <use xlink:href="#DejaVuSans-39" x="936.71875"/>
      <use xlink:href="#DejaVuSans-36" x="1000.341797"/>
      <use xlink:href="#DejaVuSans-4d" x="1063.964844"/>
     </g>
    </g>
    <g id="line2d_22">
     <path d="M 64.345313 82.620312 
L 74.345313 82.620312 
L 84.345313 82.620312 
" style="fill: none; stroke: #2ca02c; stroke-width: 2; stroke-linecap: square"/>
    </g>
    <g id="text_13">
     <!-- C1 = 330pF, R1 = 48M -->
     <g transform="translate(92.345313 86.120312) scale(0.1 -0.1)">
      <use xlink:href="#DejaVuSans-43"/>
      <use xlink:href="#DejaVuSans-31" x="69.824219"/>
      <use xlink:href="#DejaVuSans-20" x="133.447266"/>
      <use xlink:href="#DejaVuSans-3d" x="165.234375"/>
      <use xlink:href="#DejaVuSans-20" x="249.023438"/>
      <use xlink:href="#DejaVuSans-33" x="280.810547"/>
      <use xlink:href="#DejaVuSans-33" x="344.433594"/>
      <use xlink:href="#DejaVuSans-30" x="408.056641"/>
      <use xlink:href="#DejaVuSans-70" x="471.679688"/>
      <use xlink:href="#DejaVuSans-46" x="535.15625"/>
      <use xlink:href="#DejaVuSans-2c" x="592.675781"/>
      <use xlink:href="#DejaVuSans-20" x="624.462891"/>
      <use xlink:href="#DejaVuSans-52" x="656.25"/>
      <use xlink:href="#DejaVuSans-31" x="725.732422"/>
      <use xlink:href="#DejaVuSans-20" x="789.355469"/>
      <use xlink:href="#DejaVuSans-3d" x="821.142578"/>
      <use xlink:href="#DejaVuSans-20" x="904.931641"/>
      <use xlink:href="#DejaVuSans-34" x="936.71875"/>
      <use xlink:href="#DejaVuSans-38" x="1000.341797"/>
      <use xlink:href="#DejaVuSans-4d" x="1063.964844"/>
     </g>
    </g>
   </g>
  </g>
  <g id="axes_2">
   <g id="patch_8">
    <path d="M 55.345313 235.8 
L 417.495312 235.8 
L 417.495312 145.8 
L 55.345313 145.8 
z
" style="fill: #ffffff"/>
   </g>
   <g id="matplotlib.axis_3">
    <g id="xtick_7">
     <g id="line2d_23">
      <path d="M 101.763392 235.8 
L 101.763392 145.8 
" clip-path="url(#pe2b80b5774)" style="fill: none; stroke-dasharray: 2.96,1.28; stroke-dashoffset: 0; stroke: #b0b0b0; stroke-width: 0.8"/>
     </g>
     <g id="line2d_24">
      <g>
       <use xlink:href="#m83830e2415" x="101.763392" y="235.8" style="stroke: #000000; stroke-width: 0.8"/>
      </g>
     </g>
     <g id="text_14">
      <!-- $\mathdefault{10^{-1}}$ -->
      <g transform="translate(90.013392 250.398438) scale(0.1 -0.1)">
       <use xlink:href="#DejaVuSans-31" transform="translate(0 0.684375)"/>
       <use xlink:href="#DejaVuSans-30" transform="translate(63.623047 0.684375)"/>
       <use xlink:href="#DejaVuSans-2212" transform="translate(128.203125 38.965625) scale(0.7)"/>
       <use xlink:href="#DejaVuSans-31" transform="translate(186.855469 38.965625) scale(0.7)"/>
      </g>
     </g>
    </g>
    <g id="xtick_8">
     <g id="line2d_25">
      <path d="M 161.676824 235.8 
L 161.676824 145.8 
" clip-path="url(#pe2b80b5774)" style="fill: none; stroke-dasharray: 2.96,1.28; stroke-dashoffset: 0; stroke: #b0b0b0; stroke-width: 0.8"/>
     </g>
     <g id="line2d_26">
      <g>
       <use xlink:href="#m83830e2415" x="161.676824" y="235.8" style="stroke: #000000; stroke-width: 0.8"/>
      </g>
     </g>
     <g id="text_15">
      <!-- $\mathdefault{10^{1}}$ -->
      <g transform="translate(152.876824 250.398438) scale(0.1 -0.1)">
       <use xlink:href="#DejaVuSans-31" transform="translate(0 0.684375)"/>
       <use xlink:href="#DejaVuSans-30" transform="translate(63.623047 0.684375)"/>
       <use xlink:href="#DejaVuSans-31" transform="translate(128.203125 38.965625) scale(0.7)"/>
      </g>
     </g>
    </g>
    <g id="xtick_9">
     <g id="line2d_27">
      <path d="M 221.590255 235.8 
L 221.590255 145.8 
" clip-path="url(#pe2b80b5774)" style="fill: none; stroke-dasharray: 2.96,1.28; stroke-dashoffset: 0; stroke: #b0b0b0; stroke-width: 0.8"/>
     </g>
     <g id="line2d_28">
      <g>
       <use xlink:href="#m83830e2415" x="221.590255" y="235.8" style="stroke: #000000; stroke-width: 0.8"/>
      </g>
     </g>
     <g id="text_16">
      <!-- $\mathdefault{10^{3}}$ -->
      <g transform="translate(212.790255 250.398438) scale(0.1 -0.1)">
       <use xlink:href="#DejaVuSans-31" transform="translate(0 0.765625)"/>
       <use xlink:href="#DejaVuSans-30" transform="translate(63.623047 0.765625)"/>
       <use xlink:href="#DejaVuSans-33" transform="translate(128.203125 39.046875) scale(0.7)"/>
      </g>
     </g>
    </g>
    <g id="xtick_10">
     <g id="line2d_29">
      <path d="M 281.503687 235.8 
L 281.503687 145.8 
" clip-path="url(#pe2b80b5774)" style="fill: none; stroke-dasharray: 2.96,1.28; stroke-dashoffset: 0; stroke: #b0b0b0; stroke-width: 0.8"/>
     </g>
     <g id="line2d_30">
      <g>
       <use xlink:href="#m83830e2415" x="281.503687" y="235.8" style="stroke: #000000; stroke-width: 0.8"/>
      </g>
     </g>
     <g id="text_17">
      <!-- $\mathdefault{10^{5}}$ -->
      <g transform="translate(272.703687 250.398438) scale(0.1 -0.1)">
       <use xlink:href="#DejaVuSans-31" transform="translate(0 0.684375)"/>
       <use xlink:href="#DejaVuSans-30" transform="translate(63.623047 0.684375)"/>
       <use xlink:href="#DejaVuSans-35" transform="translate(128.203125 38.965625) scale(0.7)"/>
      </g>
     </g>
    </g>
    <g id="xtick_11">
     <g id="line2d_31">
      <path d="M 341.417118 235.8 
L 341.417118 145.8 
" clip-path="url(#pe2b80b5774)" style="fill: none; stroke-dasharray: 2.96,1.28; stroke-dashoffset: 0; stroke: #b0b0b0; stroke-width: 0.8"/>
     </g>
     <g id="line2d_32">
      <g>
       <use xlink:href="#m83830e2415" x="341.417118" y="235.8" style="stroke: #000000; stroke-width: 0.8"/>
      </g>
     </g>
     <g id="text_18">
      <!-- $\mathdefault{10^{7}}$ -->
      <g transform="translate(332.617118 250.398438) scale(0.1 -0.1)">
       <use xlink:href="#DejaVuSans-31" transform="translate(0 0.684375)"/>
       <use xlink:href="#DejaVuSans-30" transform="translate(63.623047 0.684375)"/>
       <use xlink:href="#DejaVuSans-37" transform="translate(128.203125 38.965625) scale(0.7)"/>
      </g>
     </g>
    </g>
    <g id="xtick_12">
     <g id="line2d_33">
      <path d="M 401.33055 235.8 
L 401.33055 145.8 
" clip-path="url(#pe2b80b5774)" style="fill: none; stroke-dasharray: 2.96,1.28; stroke-dashoffset: 0; stroke: #b0b0b0; stroke-width: 0.8"/>
     </g>
     <g id="line2d_34">
      <g>
       <use xlink:href="#m83830e2415" x="401.33055" y="235.8" style="stroke: #000000; stroke-width: 0.8"/>
      </g>
     </g>
     <g id="text_19">
      <!-- $\mathdefault{10^{9}}$ -->
      <g transform="translate(392.53055 250.398438) scale(0.1 -0.1)">
       <use xlink:href="#DejaVuSans-31" transform="translate(0 0.765625)"/>
       <use xlink:href="#DejaVuSans-30" transform="translate(63.623047 0.765625)"/>
       <use xlink:href="#DejaVuSans-39" transform="translate(128.203125 39.046875) scale(0.7)"/>
      </g>
     </g>
    </g>
    <g id="text_20">
     <!-- $f$ (Hz) -->
     <g transform="translate(222.770312 264.076562) scale(0.1 -0.1)">
      <use xlink:href="#DejaVuSans-Oblique-66" transform="translate(0 0.015625)"/>
      <use xlink:href="#DejaVuSans-20" transform="translate(35.205078 0.015625)"/>
      <use xlink:href="#DejaVuSans-28" transform="translate(66.992188 0.015625)"/>
      <use xlink:href="#DejaVuSans-48" transform="translate(106.005859 0.015625)"/>
      <use xlink:href="#DejaVuSans-7a" transform="translate(181.201172 0.015625)"/>
      <use xlink:href="#DejaVuSans-29" transform="translate(233.691406 0.015625)"/>
     </g>
    </g>
   </g>
   <g id="matplotlib.axis_4">
    <g id="ytick_3">
     <g id="line2d_35">
      <path d="M 55.345313 228.626518 
L 417.495312 228.626518 
" clip-path="url(#pe2b80b5774)" style="fill: none; stroke-dasharray: 2.96,1.28; stroke-dashoffset: 0; stroke: #b0b0b0; stroke-width: 0.8"/>
     </g>
     <g id="line2d_36">
      <g>
       <use xlink:href="#m788a707103" x="55.345313" y="228.626518" style="stroke: #000000; stroke-width: 0.8"/>
      </g>
     </g>
     <g id="text_21">
      <!-- −100 -->
      <g transform="translate(20.878125 232.425736) scale(0.1 -0.1)">
       <use xlink:href="#DejaVuSans-2212"/>
       <use xlink:href="#DejaVuSans-31" x="83.789062"/>
       <use xlink:href="#DejaVuSans-30" x="147.412109"/>
       <use xlink:href="#DejaVuSans-30" x="211.035156"/>
      </g>
     </g>
    </g>
    <g id="ytick_4">
     <g id="line2d_37">
      <path d="M 55.345313 187.184851 
L 417.495312 187.184851 
" clip-path="url(#pe2b80b5774)" style="fill: none; stroke-dasharray: 2.96,1.28; stroke-dashoffset: 0; stroke: #b0b0b0; stroke-width: 0.8"/>
     </g>
     <g id="line2d_38">
      <g>
       <use xlink:href="#m788a707103" x="55.345313" y="187.184851" style="stroke: #000000; stroke-width: 0.8"/>
      </g>
     </g>
     <g id="text_22">
      <!-- 0 -->
      <g transform="translate(41.982813 190.98407) scale(0.1 -0.1)">
       <use xlink:href="#DejaVuSans-30"/>
      </g>
     </g>
    </g>
    <g id="text_23">
     <!-- Phase (°) -->
     <g transform="translate(14.798438 213.719531) rotate(-90) scale(0.1 -0.1)">
      <defs>
       <path id="DejaVuSans-50" d="M 1259 4147 
L 1259 2394 
L 2053 2394 
Q 2494 2394 2734 2622 
Q 2975 2850 2975 3272 
Q 2975 3691 2734 3919 
Q 2494 4147 2053 4147 
L 1259 4147 
z
M 628 4666 
L 2053 4666 
Q 2838 4666 3239 4311 
Q 3641 3956 3641 3272 
Q 3641 2581 3239 2228 
Q 2838 1875 2053 1875 
L 1259 1875 
L 1259 0 
L 628 0 
L 628 4666 
z
" transform="scale(0.015625)"/>
       <path id="DejaVuSans-68" d="M 3513 2113 
L 3513 0 
L 2938 0 
L 2938 2094 
Q 2938 2591 2744 2837 
Q 2550 3084 2163 3084 
Q 1697 3084 1428 2787 
Q 1159 2491 1159 1978 
L 1159 0 
L 581 0 
L 581 4863 
L 1159 4863 
L 1159 2956 
Q 1366 3272 1645 3428 
Q 1925 3584 2291 3584 
Q 2894 3584 3203 3211 
Q 3513 2838 3513 2113 
z
" transform="scale(0.015625)"/>
       <path id="DejaVuSans-73" d="M 2834 3397 
L 2834 2853 
Q 2591 2978 2328 3040 
Q 2066 3103 1784 3103 
Q 1356 3103 1142 2972 
Q 928 2841 928 2578 
Q 928 2378 1081 2264 
Q 1234 2150 1697 2047 
L 1894 2003 
Q 2506 1872 2764 1633 
Q 3022 1394 3022 966 
Q 3022 478 2636 193 
Q 2250 -91 1575 -91 
Q 1294 -91 989 -36 
Q 684 19 347 128 
L 347 722 
Q 666 556 975 473 
Q 1284 391 1588 391 
Q 1994 391 2212 530 
Q 2431 669 2431 922 
Q 2431 1156 2273 1281 
Q 2116 1406 1581 1522 
L 1381 1569 
Q 847 1681 609 1914 
Q 372 2147 372 2553 
Q 372 3047 722 3315 
Q 1072 3584 1716 3584 
Q 2034 3584 2315 3537 
Q 2597 3491 2834 3397 
z
" transform="scale(0.015625)"/>
       <path id="DejaVuSans-b0" d="M 1600 4347 
Q 1350 4347 1178 4173 
Q 1006 4000 1006 3750 
Q 1006 3503 1178 3333 
Q 1350 3163 1600 3163 
Q 1850 3163 2022 3333 
Q 2194 3503 2194 3750 
Q 2194 3997 2020 4172 
Q 1847 4347 1600 4347 
z
M 1600 4750 
Q 1800 4750 1984 4673 
Q 2169 4597 2303 4453 
Q 2447 4313 2519 4134 
Q 2591 3956 2591 3750 
Q 2591 3338 2302 3052 
Q 2013 2766 1594 2766 
Q 1172 2766 890 3047 
Q 609 3328 609 3750 
Q 609 4169 896 4459 
Q 1184 4750 1600 4750 
z
" transform="scale(0.015625)"/>
      </defs>
      <use xlink:href="#DejaVuSans-50"/>
      <use xlink:href="#DejaVuSans-68" x="60.302734"/>
      <use xlink:href="#DejaVuSans-61" x="123.681641"/>
      <use xlink:href="#DejaVuSans-73" x="184.960938"/>
      <use xlink:href="#DejaVuSans-65" x="237.060547"/>
      <use xlink:href="#DejaVuSans-20" x="298.583984"/>
      <use xlink:href="#DejaVuSans-28" x="330.371094"/>
      <use xlink:href="#DejaVuSans-b0" x="369.384766"/>
      <use xlink:href="#DejaVuSans-29" x="419.384766"/>
     </g>
    </g>
   </g>
   <g id="line2d_39">
    <path d="M 71.806676 150.684687 
L 78.331901 151.2032 
L 83.07752 151.780507 
L 87.229936 152.48782 
L 90.78915 153.297043 
L 94.348363 154.349677 
L 97.314375 155.458116 
L 100.280386 156.818751 
L 103.246398 158.468732 
L 106.212409 160.434711 
L 109.178421 162.719879 
L 112.144432 165.29036 
L 116.296848 169.211475 
L 122.822073 175.404791 
L 126.381287 178.463378 
L 129.940501 181.206487 
L 133.499715 183.670788 
L 138.838535 187.051718 
L 145.36376 191.202968 
L 148.922974 193.720269 
L 152.482188 196.529809 
L 156.041402 199.652493 
L 160.78702 204.166564 
L 166.125841 209.227977 
L 169.091852 211.785035 
L 172.057864 214.053863 
L 175.023875 216.003036 
L 177.989887 217.637482 
L 180.955898 218.984629 
L 183.92191 220.082072 
L 187.481123 221.124842 
L 191.040337 221.927655 
L 195.192753 222.631565 
L 199.938371 223.210173 
L 205.870394 223.70143 
L 213.582024 224.104889 
L 227.225677 224.546005 
L 240.276127 225.032136 
L 247.394555 225.497205 
L 253.326578 226.106015 
L 258.072196 226.812592 
L 262.224612 227.642173 
L 266.377028 228.695436 
L 272.309051 230.48234 
L 275.275063 231.293774 
L 277.05467 231.610974 
L 278.241074 231.677574 
L 279.427479 231.549009 
L 280.613883 231.095302 
L 281.207086 230.671084 
L 281.800288 230.039899 
L 282.39349 229.09626 
L 282.986692 227.647132 
L 283.579895 225.304965 
L 284.173097 221.212555 
L 284.766299 213.449759 
L 285.952704 185.896029 
L 286.545906 177.643307 
L 287.139109 173.233179 
L 287.732311 170.636439 
L 288.325513 168.936902 
L 288.918715 167.724075 
L 290.10512 166.044882 
L 291.291525 164.846102 
L 293.071131 163.413183 
L 296.037143 161.365822 
L 299.596357 159.144426 
L 303.15557 157.19064 
L 306.121582 155.808328 
L 309.087593 154.65263 
L 312.646807 153.536594 
L 316.206021 152.66906 
L 320.358437 151.904857 
L 325.104055 151.277431 
L 330.442876 150.796871 
L 336.968101 150.430316 
L 345.866136 150.162355 
L 360.102991 149.980085 
L 386.797094 149.898918 
L 401.033949 149.890915 
L 401.033949 149.890915 
" clip-path="url(#pe2b80b5774)" style="fill: none; stroke: #1f77b4; stroke-width: 2; stroke-linecap: square"/>
   </g>
   <g id="line2d_40">
    <path d="M 71.806676 150.68925 
L 78.331901 151.21072 
L 83.07752 151.791304 
L 87.229936 152.502598 
L 90.78915 153.316312 
L 94.348363 154.374613 
L 97.314375 155.488854 
L 100.280386 156.856191 
L 103.246398 158.513733 
L 106.212409 160.487546 
L 109.178421 162.779873 
L 112.144432 165.355907 
L 116.296848 169.279596 
L 122.822073 175.462582 
L 126.381287 178.510417 
L 129.940501 181.241446 
L 133.499715 183.693731 
L 138.838535 187.057415 
L 145.36376 191.188406 
L 148.922974 193.694769 
L 152.482188 196.493859 
L 156.041402 199.607607 
L 160.78702 204.114659 
L 166.125841 209.177343 
L 169.091852 211.738651 
L 172.057864 214.013089 
L 175.023875 215.9683 
L 177.989887 217.608549 
L 180.955898 218.960899 
L 183.92191 220.062814 
L 187.481123 221.109984 
L 191.040337 221.916259 
L 195.192753 222.623238 
L 199.938371 223.204374 
L 205.870394 223.697748 
L 213.582024 224.102854 
L 227.225677 224.545299 
L 240.276127 225.031897 
L 247.394555 225.497099 
L 253.326578 226.10601 
L 258.072196 226.812709 
L 262.224612 227.642498 
L 266.377028 228.69622 
L 272.309051 230.485048 
L 275.275063 231.298882 
L 277.05467 231.618571 
L 278.241074 231.687611 
L 279.427479 231.562531 
L 280.613883 231.11413 
L 281.207086 230.693734 
L 281.800288 230.067663 
L 282.39349 229.131176 
L 282.986692 227.692621 
L 283.579895 225.367122 
L 284.173097 221.302259 
L 284.766299 213.578589 
L 285.952704 185.937918 
L 286.545906 177.640182 
L 287.139109 173.217615 
L 287.732311 170.618533 
L 288.325513 168.919549 
L 288.918715 167.70808 
L 290.10512 166.031857 
L 291.291525 164.835622 
L 293.071131 163.405608 
L 296.037143 161.361321 
L 299.596357 159.14185 
L 303.15557 157.189 
L 306.121582 155.807118 
L 309.087593 154.651702 
L 312.646807 153.535904 
L 316.206021 152.668544 
L 320.358437 151.904493 
L 325.104055 151.277194 
L 330.442876 150.796731 
L 336.968101 150.430244 
L 345.866136 150.162324 
L 360.102991 149.980075 
L 386.797094 149.898917 
L 401.033949 149.890914 
L 401.033949 149.890914 
" clip-path="url(#pe2b80b5774)" style="fill: none; stroke: #ff7f0e; stroke-width: 2; stroke-linecap: square"/>
   </g>
   <g id="line2d_41">
    <path d="M 71.806676 150.694953 
L 78.331901 151.22012 
L 83.07752 151.804798 
L 87.229936 152.521066 
L 90.78915 153.340357 
L 94.348363 154.405824 
L 97.314375 155.527261 
L 100.280386 156.902967 
L 103.246398 158.56984 
L 106.212409 160.553289 
L 109.178421 162.854621 
L 112.144432 165.43741 
L 116.89005 169.938272 
L 122.822073 175.533798 
L 126.381287 178.567903 
L 129.940501 181.283798 
L 133.499715 183.720923 
L 138.838535 187.062716 
L 145.36376 191.167825 
L 148.922974 193.660003 
L 152.482188 196.445476 
L 156.041402 199.547482 
L 160.78702 204.04529 
L 166.719043 209.64272 
L 169.685054 212.157495 
L 172.651066 214.377011 
L 175.617077 216.276012 
L 178.583089 217.863659 
L 181.5491 219.169543 
L 184.515112 220.231928 
L 188.074326 221.240473 
L 191.633539 222.016531 
L 195.785955 222.696889 
L 200.531574 223.256331 
L 206.463597 223.73196 
L 214.768429 224.147791 
L 230.784891 224.653439 
L 242.055734 225.128554 
L 249.174162 225.654511 
L 254.512982 226.26289 
L 259.258601 227.029952 
L 263.411017 227.923702 
L 267.563433 229.040937 
L 275.868265 231.440818 
L 277.647872 231.691281 
L 278.834276 231.6796 
L 280.020681 231.421901 
L 280.613883 231.150093 
L 281.207086 230.735782 
L 281.800288 230.117656 
L 282.39349 229.1919 
L 282.986692 227.768403 
L 283.579895 225.464745 
L 284.173097 221.430706 
L 284.766299 213.733042 
L 285.952704 185.895707 
L 286.545906 177.561916 
L 287.139109 173.142542 
L 287.732311 170.552616 
L 288.325513 168.86214 
L 288.918715 167.657674 
L 290.10512 165.991743 
L 291.291525 164.802547 
L 293.071131 163.37969 
L 296.037143 161.342754 
L 300.189559 158.783207 
L 303.748773 156.884834 
L 306.714784 155.550969 
L 309.680796 154.440471 
L 313.240009 153.371073 
L 316.799223 152.541207 
L 320.951639 151.810887 
L 325.697258 151.211791 
L 331.629281 150.713727 
L 338.747708 150.359508 
L 348.832147 150.107014 
L 365.441811 149.94836 
L 401.033949 149.890909 
L 401.033949 149.890909 
" clip-path="url(#pe2b80b5774)" style="fill: none; stroke: #2ca02c; stroke-width: 2; stroke-linecap: square"/>
   </g>
   <g id="patch_9">
    <path d="M 55.345313 235.8 
L 55.345313 145.8 
" style="fill: none; stroke: #000000; stroke-width: 0.8; stroke-linejoin: miter; stroke-linecap: square"/>
   </g>
   <g id="patch_10">
    <path d="M 417.495312 235.8 
L 417.495312 145.8 
" style="fill: none; stroke: #000000; stroke-width: 0.8; stroke-linejoin: miter; stroke-linecap: square"/>
   </g>
   <g id="patch_11">
    <path d="M 55.345313 235.8 
L 417.495312 235.8 
" style="fill: none; stroke: #000000; stroke-width: 0.8; stroke-linejoin: miter; stroke-linecap: square"/>
   </g>
   <g id="patch_12">
    <path d="M 55.345313 145.8 
L 417.495312 145.8 
" style="fill: none; stroke: #000000; stroke-width: 0.8; stroke-linejoin: miter; stroke-linecap: square"/>
   </g>
   <g id="legend_2">
    <g id="patch_13">
     <path d="M 263.470312 214.317187 
L 410.495312 214.317187 
Q 412.495312 214.317187 412.495312 212.317187 
L 412.495312 169.282812 
Q 412.495312 167.282812 410.495312 167.282812 
L 263.470312 167.282812 
Q 261.470312 167.282812 261.470312 169.282812 
L 261.470312 212.317187 
Q 261.470312 214.317187 263.470312 214.317187 
z
" style="fill: #ffffff; opacity: 0.8; stroke: #cccccc; stroke-linejoin: miter"/>
    </g>
    <g id="line2d_42">
     <path d="M 265.470312 175.38125 
L 275.470312 175.38125 
L 285.470312 175.38125 
" style="fill: none; stroke: #1f77b4; stroke-width: 2; stroke-linecap: square"/>
    </g>
    <g id="text_24">
     <!-- C1 = 33pF, R1 = 480M -->
     <g transform="translate(293.470312 178.88125) scale(0.1 -0.1)">
      <use xlink:href="#DejaVuSans-43"/>
      <use xlink:href="#DejaVuSans-31" x="69.824219"/>
      <use xlink:href="#DejaVuSans-20" x="133.447266"/>
      <use xlink:href="#DejaVuSans-3d" x="165.234375"/>
      <use xlink:href="#DejaVuSans-20" x="249.023438"/>
      <use xlink:href="#DejaVuSans-33" x="280.810547"/>
      <use xlink:href="#DejaVuSans-33" x="344.433594"/>
      <use xlink:href="#DejaVuSans-70" x="408.056641"/>
      <use xlink:href="#DejaVuSans-46" x="471.533203"/>
      <use xlink:href="#DejaVuSans-2c" x="529.052734"/>
      <use xlink:href="#DejaVuSans-20" x="560.839844"/>
      <use xlink:href="#DejaVuSans-52" x="592.626953"/>
      <use xlink:href="#DejaVuSans-31" x="662.109375"/>
      <use xlink:href="#DejaVuSans-20" x="725.732422"/>
      <use xlink:href="#DejaVuSans-3d" x="757.519531"/>
      <use xlink:href="#DejaVuSans-20" x="841.308594"/>
      <use xlink:href="#DejaVuSans-34" x="873.095703"/>
      <use xlink:href="#DejaVuSans-38" x="936.71875"/>
      <use xlink:href="#DejaVuSans-30" x="1000.341797"/>
      <use xlink:href="#DejaVuSans-4d" x="1063.964844"/>
     </g>
    </g>
    <g id="line2d_43">
     <path d="M 265.470312 190.059375 
L 275.470312 190.059375 
L 285.470312 190.059375 
" style="fill: none; stroke: #ff7f0e; stroke-width: 2; stroke-linecap: square"/>
    </g>
    <g id="text_25">
     <!-- C1 = 165pF, R1 = 96M -->
     <g transform="translate(293.470312 193.559375) scale(0.1 -0.1)">
      <use xlink:href="#DejaVuSans-43"/>
      <use xlink:href="#DejaVuSans-31" x="69.824219"/>
      <use xlink:href="#DejaVuSans-20" x="133.447266"/>
      <use xlink:href="#DejaVuSans-3d" x="165.234375"/>
      <use xlink:href="#DejaVuSans-20" x="249.023438"/>
      <use xlink:href="#DejaVuSans-31" x="280.810547"/>
      <use xlink:href="#DejaVuSans-36" x="344.433594"/>
      <use xlink:href="#DejaVuSans-35" x="408.056641"/>
      <use xlink:href="#DejaVuSans-70" x="471.679688"/>
      <use xlink:href="#DejaVuSans-46" x="535.15625"/>
      <use xlink:href="#DejaVuSans-2c" x="592.675781"/>
      <use xlink:href="#DejaVuSans-20" x="624.462891"/>
      <use xlink:href="#DejaVuSans-52" x="656.25"/>
      <use xlink:href="#DejaVuSans-31" x="725.732422"/>
      <use xlink:href="#DejaVuSans-20" x="789.355469"/>
      <use xlink:href="#DejaVuSans-3d" x="821.142578"/>
      <use xlink:href="#DejaVuSans-20" x="904.931641"/>
      <use xlink:href="#DejaVuSans-39" x="936.71875"/>
      <use xlink:href="#DejaVuSans-36" x="1000.341797"/>
      <use xlink:href="#DejaVuSans-4d" x="1063.964844"/>
     </g>
    </g>
    <g id="line2d_44">
     <path d="M 265.470312 204.7375 
L 275.470312 204.7375 
L 285.470312 204.7375 
" style="fill: none; stroke: #2ca02c; stroke-width: 2; stroke-linecap: square"/>
    </g>
    <g id="text_26">
     <!-- C1 = 330pF, R1 = 48M -->
     <g transform="translate(293.470312 208.2375) scale(0.1 -0.1)">
      <use xlink:href="#DejaVuSans-43"/>
      <use xlink:href="#DejaVuSans-31" x="69.824219"/>
      <use xlink:href="#DejaVuSans-20" x="133.447266"/>
      <use xlink:href="#DejaVuSans-3d" x="165.234375"/>
      <use xlink:href="#DejaVuSans-20" x="249.023438"/>
      <use xlink:href="#DejaVuSans-33" x="280.810547"/>
      <use xlink:href="#DejaVuSans-33" x="344.433594"/>
      <use xlink:href="#DejaVuSans-30" x="408.056641"/>
      <use xlink:href="#DejaVuSans-70" x="471.679688"/>
      <use xlink:href="#DejaVuSans-46" x="535.15625"/>
      <use xlink:href="#DejaVuSans-2c" x="592.675781"/>
      <use xlink:href="#DejaVuSans-20" x="624.462891"/>
      <use xlink:href="#DejaVuSans-52" x="656.25"/>
      <use xlink:href="#DejaVuSans-31" x="725.732422"/>
      <use xlink:href="#DejaVuSans-20" x="789.355469"/>
      <use xlink:href="#DejaVuSans-3d" x="821.142578"/>
      <use xlink:href="#DejaVuSans-20" x="904.931641"/>
      <use xlink:href="#DejaVuSans-34" x="936.71875"/>
      <use xlink:href="#DejaVuSans-38" x="1000.341797"/>
      <use xlink:href="#DejaVuSans-4d" x="1063.964844"/>
     </g>
    </g>
   </g>
  </g>
 </g>
 <defs>
  <clipPath id="p83ab7ff7d4">
   <rect x="55.345313" y="7.2" width="362.15" height="90"/>
  </clipPath>
  <clipPath id="pe2b80b5774">
   <rect x="55.345313" y="145.8" width="362.15" height="90"/>
  </clipPath>
 </defs>
</svg>
