<?xml version="1.0" encoding="utf-8" standalone="no"?>
<!DOCTYPE svg PUBLIC "-//W3C//DTD SVG 1.1//EN"
  "http://www.w3.org/Graphics/SVG/1.1/DTD/svg11.dtd">
<svg xmlns:xlink="http://www.w3.org/1999/xlink" width="424.8pt" height="280.8pt" viewBox="0 0 424.8 280.8" xmlns="http://www.w3.org/2000/svg" version="1.1">
 <metadata>
  <rdf:RDF xmlns:dc="http://purl.org/dc/elements/1.1/" xmlns:cc="http://creativecommons.org/ns#" xmlns:rdf="http://www.w3.org/1999/02/22-rdf-syntax-ns#">
   <cc:Work>
    <dc:type rdf:resource="http://purl.org/dc/dcmitype/StillImage"/>
    <dc:date>2025-06-17T15:11:05.767724</dc:date>
    <dc:format>image/svg+xml</dc:format>
    <dc:creator>
     <cc:Agent>
      <dc:title>Matplotlib v3.9.2, https://matplotlib.org/</dc:title>
     </cc:Agent>
    </dc:creator>
   </cc:Work>
  </rdf:RDF>
 </metadata>
 <defs>
  <style type="text/css">*{stroke-linejoin: round; stroke-linecap: butt}</style>
 </defs>
 <g id="figure_1">
  <g id="patch_1">
   <path d="M 0 280.8 
L 424.8 280.8 
L 424.8 0 
L 0 0 
z
" style="fill: #ffffff"/>
  </g>
  <g id="axes_1">
   <g id="patch_2">
    <path d="M 52.160938 243.24375 
L 417.6 243.24375 
L 417.6 7.2 
L 52.160938 7.2 
z
" style="fill: #ffffff"/>
   </g>
   <g id="matplotlib.axis_1">
    <g id="xtick_1">
     <g id="line2d_1">
      <path d="M 68.771804 243.24375 
L 68.771804 7.2 
" clip-path="url(#p2597a15ff6)" style="fill: none; stroke-dasharray: 2.96,1.28; stroke-dashoffset: 0; stroke: #b0b0b0; stroke-width: 0.8"/>
     </g>
     <g id="line2d_2">
      <defs>
       <path id="mdd9377588e" d="M 0 0 
L 0 3.5 
" style="stroke: #000000; stroke-width: 0.8"/>
      </defs>
      <g>
       <use xlink:href="#mdd9377588e" x="68.771804" y="243.24375" style="stroke: #000000; stroke-width: 0.8"/>
      </g>
     </g>
     <g id="text_1">
      <!-- 0.0 -->
      <g transform="translate(60.820241 257.842188) scale(0.1 -0.1)">
       <defs>
        <path id="DejaVuSans-30" d="M 2034 4250 
Q 1547 4250 1301 3770 
Q 1056 3291 1056 2328 
Q 1056 1369 1301 889 
Q 1547 409 2034 409 
Q 2525 409 2770 889 
Q 3016 1369 3016 2328 
Q 3016 3291 2770 3770 
Q 2525 4250 2034 4250 
z
M 2034 4750 
Q 2819 4750 3233 4129 
Q 3647 3509 3647 2328 
Q 3647 1150 3233 529 
Q 2819 -91 2034 -91 
Q 1250 -91 836 529 
Q 422 1150 422 2328 
Q 422 3509 836 4129 
Q 1250 4750 2034 4750 
z
" transform="scale(0.015625)"/>
        <path id="DejaVuSans-2e" d="M 684 794 
L 1344 794 
L 1344 0 
L 684 0 
L 684 794 
z
" transform="scale(0.015625)"/>
       </defs>
       <use xlink:href="#DejaVuSans-30"/>
       <use xlink:href="#DejaVuSans-2e" x="63.623047"/>
       <use xlink:href="#DejaVuSans-30" x="95.410156"/>
      </g>
     </g>
    </g>
    <g id="xtick_2">
     <g id="line2d_3">
      <path d="M 135.238963 243.24375 
L 135.238963 7.2 
" clip-path="url(#p2597a15ff6)" style="fill: none; stroke-dasharray: 2.96,1.28; stroke-dashoffset: 0; stroke: #b0b0b0; stroke-width: 0.8"/>
     </g>
     <g id="line2d_4">
      <g>
       <use xlink:href="#mdd9377588e" x="135.238963" y="243.24375" style="stroke: #000000; stroke-width: 0.8"/>
      </g>
     </g>
     <g id="text_2">
      <!-- 0.2 -->
      <g transform="translate(127.2874 257.842188) scale(0.1 -0.1)">
       <defs>
        <path id="DejaVuSans-32" d="M 1228 531 
L 3431 531 
L 3431 0 
L 469 0 
L 469 531 
Q 828 903 1448 1529 
Q 2069 2156 2228 2338 
Q 2531 2678 2651 2914 
Q 2772 3150 2772 3378 
Q 2772 3750 2511 3984 
Q 2250 4219 1831 4219 
Q 1534 4219 1204 4116 
Q 875 4013 500 3803 
L 500 4441 
Q 881 4594 1212 4672 
Q 1544 4750 1819 4750 
Q 2544 4750 2975 4387 
Q 3406 4025 3406 3419 
Q 3406 3131 3298 2873 
Q 3191 2616 2906 2266 
Q 2828 2175 2409 1742 
Q 1991 1309 1228 531 
z
" transform="scale(0.015625)"/>
       </defs>
       <use xlink:href="#DejaVuSans-30"/>
       <use xlink:href="#DejaVuSans-2e" x="63.623047"/>
       <use xlink:href="#DejaVuSans-32" x="95.410156"/>
      </g>
     </g>
    </g>
    <g id="xtick_3">
     <g id="line2d_5">
      <path d="M 201.706121 243.24375 
L 201.706121 7.2 
" clip-path="url(#p2597a15ff6)" style="fill: none; stroke-dasharray: 2.96,1.28; stroke-dashoffset: 0; stroke: #b0b0b0; stroke-width: 0.8"/>
     </g>
     <g id="line2d_6">
      <g>
       <use xlink:href="#mdd9377588e" x="201.706121" y="243.24375" style="stroke: #000000; stroke-width: 0.8"/>
      </g>
     </g>
     <g id="text_3">
      <!-- 0.4 -->
      <g transform="translate(193.754559 257.842188) scale(0.1 -0.1)">
       <defs>
        <path id="DejaVuSans-34" d="M 2419 4116 
L 825 1625 
L 2419 1625 
L 2419 4116 
z
M 2253 4666 
L 3047 4666 
L 3047 1625 
L 3713 1625 
L 3713 1100 
L 3047 1100 
L 3047 0 
L 2419 0 
L 2419 1100 
L 313 1100 
L 313 1709 
L 2253 4666 
z
" transform="scale(0.015625)"/>
       </defs>
       <use xlink:href="#DejaVuSans-30"/>
       <use xlink:href="#DejaVuSans-2e" x="63.623047"/>
       <use xlink:href="#DejaVuSans-34" x="95.410156"/>
      </g>
     </g>
    </g>
    <g id="xtick_4">
     <g id="line2d_7">
      <path d="M 268.17328 243.24375 
L 268.17328 7.2 
" clip-path="url(#p2597a15ff6)" style="fill: none; stroke-dasharray: 2.96,1.28; stroke-dashoffset: 0; stroke: #b0b0b0; stroke-width: 0.8"/>
     </g>
     <g id="line2d_8">
      <g>
       <use xlink:href="#mdd9377588e" x="268.17328" y="243.24375" style="stroke: #000000; stroke-width: 0.8"/>
      </g>
     </g>
     <g id="text_4">
      <!-- 0.6 -->
      <g transform="translate(260.221717 257.842188) scale(0.1 -0.1)">
       <defs>
        <path id="DejaVuSans-36" d="M 2113 2584 
Q 1688 2584 1439 2293 
Q 1191 2003 1191 1497 
Q 1191 994 1439 701 
Q 1688 409 2113 409 
Q 2538 409 2786 701 
Q 3034 994 3034 1497 
Q 3034 2003 2786 2293 
Q 2538 2584 2113 2584 
z
M 3366 4563 
L 3366 3988 
Q 3128 4100 2886 4159 
Q 2644 4219 2406 4219 
Q 1781 4219 1451 3797 
Q 1122 3375 1075 2522 
Q 1259 2794 1537 2939 
Q 1816 3084 2150 3084 
Q 2853 3084 3261 2657 
Q 3669 2231 3669 1497 
Q 3669 778 3244 343 
Q 2819 -91 2113 -91 
Q 1303 -91 875 529 
Q 447 1150 447 2328 
Q 447 3434 972 4092 
Q 1497 4750 2381 4750 
Q 2619 4750 2861 4703 
Q 3103 4656 3366 4563 
z
" transform="scale(0.015625)"/>
       </defs>
       <use xlink:href="#DejaVuSans-30"/>
       <use xlink:href="#DejaVuSans-2e" x="63.623047"/>
       <use xlink:href="#DejaVuSans-36" x="95.410156"/>
      </g>
     </g>
    </g>
    <g id="xtick_5">
     <g id="line2d_9">
      <path d="M 334.640438 243.24375 
L 334.640438 7.2 
" clip-path="url(#p2597a15ff6)" style="fill: none; stroke-dasharray: 2.96,1.28; stroke-dashoffset: 0; stroke: #b0b0b0; stroke-width: 0.8"/>
     </g>
     <g id="line2d_10">
      <g>
       <use xlink:href="#mdd9377588e" x="334.640438" y="243.24375" style="stroke: #000000; stroke-width: 0.8"/>
      </g>
     </g>
     <g id="text_5">
      <!-- 0.8 -->
      <g transform="translate(326.688876 257.842188) scale(0.1 -0.1)">
       <defs>
        <path id="DejaVuSans-38" d="M 2034 2216 
Q 1584 2216 1326 1975 
Q 1069 1734 1069 1313 
Q 1069 891 1326 650 
Q 1584 409 2034 409 
Q 2484 409 2743 651 
Q 3003 894 3003 1313 
Q 3003 1734 2745 1975 
Q 2488 2216 2034 2216 
z
M 1403 2484 
Q 997 2584 770 2862 
Q 544 3141 544 3541 
Q 544 4100 942 4425 
Q 1341 4750 2034 4750 
Q 2731 4750 3128 4425 
Q 3525 4100 3525 3541 
Q 3525 3141 3298 2862 
Q 3072 2584 2669 2484 
Q 3125 2378 3379 2068 
Q 3634 1759 3634 1313 
Q 3634 634 3220 271 
Q 2806 -91 2034 -91 
Q 1263 -91 848 271 
Q 434 634 434 1313 
Q 434 1759 690 2068 
Q 947 2378 1403 2484 
z
M 1172 3481 
Q 1172 3119 1398 2916 
Q 1625 2713 2034 2713 
Q 2441 2713 2670 2916 
Q 2900 3119 2900 3481 
Q 2900 3844 2670 4047 
Q 2441 4250 2034 4250 
Q 1625 4250 1398 4047 
Q 1172 3844 1172 3481 
z
" transform="scale(0.015625)"/>
       </defs>
       <use xlink:href="#DejaVuSans-30"/>
       <use xlink:href="#DejaVuSans-2e" x="63.623047"/>
       <use xlink:href="#DejaVuSans-38" x="95.410156"/>
      </g>
     </g>
    </g>
    <g id="xtick_6">
     <g id="line2d_11">
      <path d="M 401.107597 243.24375 
L 401.107597 7.2 
" clip-path="url(#p2597a15ff6)" style="fill: none; stroke-dasharray: 2.96,1.28; stroke-dashoffset: 0; stroke: #b0b0b0; stroke-width: 0.8"/>
     </g>
     <g id="line2d_12">
      <g>
       <use xlink:href="#mdd9377588e" x="401.107597" y="243.24375" style="stroke: #000000; stroke-width: 0.8"/>
      </g>
     </g>
     <g id="text_6">
      <!-- 1.0 -->
      <g transform="translate(393.156034 257.842188) scale(0.1 -0.1)">
       <defs>
        <path id="DejaVuSans-31" d="M 794 531 
L 1825 531 
L 1825 4091 
L 703 3866 
L 703 4441 
L 1819 4666 
L 2450 4666 
L 2450 531 
L 3481 531 
L 3481 0 
L 794 0 
L 794 531 
z
" transform="scale(0.015625)"/>
       </defs>
       <use xlink:href="#DejaVuSans-31"/>
       <use xlink:href="#DejaVuSans-2e" x="63.623047"/>
       <use xlink:href="#DejaVuSans-30" x="95.410156"/>
      </g>
     </g>
    </g>
    <g id="text_7">
     <!-- $t$ (s) -->
     <g transform="translate(224.780469 271.520312) scale(0.1 -0.1)">
      <defs>
       <path id="DejaVuSans-Oblique-74" d="M 2706 3500 
L 2619 3053 
L 1472 3053 
L 1100 1153 
Q 1081 1047 1072 975 
Q 1063 903 1063 863 
Q 1063 663 1183 572 
Q 1303 481 1569 481 
L 2150 481 
L 2053 0 
L 1503 0 
Q 991 0 739 200 
Q 488 400 488 806 
Q 488 878 497 964 
Q 506 1050 525 1153 
L 897 3053 
L 409 3053 
L 500 3500 
L 978 3500 
L 1172 4494 
L 1747 4494 
L 1556 3500 
L 2706 3500 
z
" transform="scale(0.015625)"/>
       <path id="DejaVuSans-20" transform="scale(0.015625)"/>
       <path id="DejaVuSans-28" d="M 1984 4856 
Q 1566 4138 1362 3434 
Q 1159 2731 1159 2009 
Q 1159 1288 1364 580 
Q 1569 -128 1984 -844 
L 1484 -844 
Q 1016 -109 783 600 
Q 550 1309 550 2009 
Q 550 2706 781 3412 
Q 1013 4119 1484 4856 
L 1984 4856 
z
" transform="scale(0.015625)"/>
       <path id="DejaVuSans-73" d="M 2834 3397 
L 2834 2853 
Q 2591 2978 2328 3040 
Q 2066 3103 1784 3103 
Q 1356 3103 1142 2972 
Q 928 2841 928 2578 
Q 928 2378 1081 2264 
Q 1234 2150 1697 2047 
L 1894 2003 
Q 2506 1872 2764 1633 
Q 3022 1394 3022 966 
Q 3022 478 2636 193 
Q 2250 -91 1575 -91 
Q 1294 -91 989 -36 
Q 684 19 347 128 
L 347 722 
Q 666 556 975 473 
Q 1284 391 1588 391 
Q 1994 391 2212 530 
Q 2431 669 2431 922 
Q 2431 1156 2273 1281 
Q 2116 1406 1581 1522 
L 1381 1569 
Q 847 1681 609 1914 
Q 372 2147 372 2553 
Q 372 3047 722 3315 
Q 1072 3584 1716 3584 
Q 2034 3584 2315 3537 
Q 2597 3491 2834 3397 
z
" transform="scale(0.015625)"/>
       <path id="DejaVuSans-29" d="M 513 4856 
L 1013 4856 
Q 1481 4119 1714 3412 
Q 1947 2706 1947 2009 
Q 1947 1309 1714 600 
Q 1481 -109 1013 -844 
L 513 -844 
Q 928 -128 1133 580 
Q 1338 1288 1338 2009 
Q 1338 2731 1133 3434 
Q 928 4138 513 4856 
z
" transform="scale(0.015625)"/>
      </defs>
      <use xlink:href="#DejaVuSans-Oblique-74" transform="translate(0 0.125)"/>
      <use xlink:href="#DejaVuSans-20" transform="translate(39.208984 0.125)"/>
      <use xlink:href="#DejaVuSans-28" transform="translate(70.996094 0.125)"/>
      <use xlink:href="#DejaVuSans-73" transform="translate(110.009766 0.125)"/>
      <use xlink:href="#DejaVuSans-29" transform="translate(162.109375 0.125)"/>
     </g>
    </g>
   </g>
   <g id="matplotlib.axis_2">
    <g id="ytick_1">
     <g id="line2d_13">
      <path d="M 52.160938 226.761662 
L 417.6 226.761662 
" clip-path="url(#p2597a15ff6)" style="fill: none; stroke-dasharray: 2.96,1.28; stroke-dashoffset: 0; stroke: #b0b0b0; stroke-width: 0.8"/>
     </g>
     <g id="line2d_14">
      <defs>
       <path id="mea1cc7cb92" d="M 0 0 
L -3.5 0 
" style="stroke: #000000; stroke-width: 0.8"/>
      </defs>
      <g>
       <use xlink:href="#mea1cc7cb92" x="52.160938" y="226.761662" style="stroke: #000000; stroke-width: 0.8"/>
      </g>
     </g>
     <g id="text_8">
      <!-- −0.4 -->
      <g transform="translate(20.878125 230.560881) scale(0.1 -0.1)">
       <defs>
        <path id="DejaVuSans-2212" d="M 678 2272 
L 4684 2272 
L 4684 1741 
L 678 1741 
L 678 2272 
z
" transform="scale(0.015625)"/>
       </defs>
       <use xlink:href="#DejaVuSans-2212"/>
       <use xlink:href="#DejaVuSans-30" x="83.789062"/>
       <use xlink:href="#DejaVuSans-2e" x="147.412109"/>
       <use xlink:href="#DejaVuSans-34" x="179.199219"/>
      </g>
     </g>
    </g>
    <g id="ytick_2">
     <g id="line2d_15">
      <path d="M 52.160938 197.312897 
L 417.6 197.312897 
" clip-path="url(#p2597a15ff6)" style="fill: none; stroke-dasharray: 2.96,1.28; stroke-dashoffset: 0; stroke: #b0b0b0; stroke-width: 0.8"/>
     </g>
     <g id="line2d_16">
      <g>
       <use xlink:href="#mea1cc7cb92" x="52.160938" y="197.312897" style="stroke: #000000; stroke-width: 0.8"/>
      </g>
     </g>
     <g id="text_9">
      <!-- −0.2 -->
      <g transform="translate(20.878125 201.112116) scale(0.1 -0.1)">
       <use xlink:href="#DejaVuSans-2212"/>
       <use xlink:href="#DejaVuSans-30" x="83.789062"/>
       <use xlink:href="#DejaVuSans-2e" x="147.412109"/>
       <use xlink:href="#DejaVuSans-32" x="179.199219"/>
      </g>
     </g>
    </g>
    <g id="ytick_3">
     <g id="line2d_17">
      <path d="M 52.160938 167.864132 
L 417.6 167.864132 
" clip-path="url(#p2597a15ff6)" style="fill: none; stroke-dasharray: 2.96,1.28; stroke-dashoffset: 0; stroke: #b0b0b0; stroke-width: 0.8"/>
     </g>
     <g id="line2d_18">
      <g>
       <use xlink:href="#mea1cc7cb92" x="52.160938" y="167.864132" style="stroke: #000000; stroke-width: 0.8"/>
      </g>
     </g>
     <g id="text_10">
      <!-- 0.0 -->
      <g transform="translate(29.257812 171.66335) scale(0.1 -0.1)">
       <use xlink:href="#DejaVuSans-30"/>
       <use xlink:href="#DejaVuSans-2e" x="63.623047"/>
       <use xlink:href="#DejaVuSans-30" x="95.410156"/>
      </g>
     </g>
    </g>
    <g id="ytick_4">
     <g id="line2d_19">
      <path d="M 52.160938 138.415366 
L 417.6 138.415366 
" clip-path="url(#p2597a15ff6)" style="fill: none; stroke-dasharray: 2.96,1.28; stroke-dashoffset: 0; stroke: #b0b0b0; stroke-width: 0.8"/>
     </g>
     <g id="line2d_20">
      <g>
       <use xlink:href="#mea1cc7cb92" x="52.160938" y="138.415366" style="stroke: #000000; stroke-width: 0.8"/>
      </g>
     </g>
     <g id="text_11">
      <!-- 0.2 -->
      <g transform="translate(29.257812 142.214585) scale(0.1 -0.1)">
       <use xlink:href="#DejaVuSans-30"/>
       <use xlink:href="#DejaVuSans-2e" x="63.623047"/>
       <use xlink:href="#DejaVuSans-32" x="95.410156"/>
      </g>
     </g>
    </g>
    <g id="ytick_5">
     <g id="line2d_21">
      <path d="M 52.160938 108.966601 
L 417.6 108.966601 
" clip-path="url(#p2597a15ff6)" style="fill: none; stroke-dasharray: 2.96,1.28; stroke-dashoffset: 0; stroke: #b0b0b0; stroke-width: 0.8"/>
     </g>
     <g id="line2d_22">
      <g>
       <use xlink:href="#mea1cc7cb92" x="52.160938" y="108.966601" style="stroke: #000000; stroke-width: 0.8"/>
      </g>
     </g>
     <g id="text_12">
      <!-- 0.4 -->
      <g transform="translate(29.257812 112.765819) scale(0.1 -0.1)">
       <use xlink:href="#DejaVuSans-30"/>
       <use xlink:href="#DejaVuSans-2e" x="63.623047"/>
       <use xlink:href="#DejaVuSans-34" x="95.410156"/>
      </g>
     </g>
    </g>
    <g id="ytick_6">
     <g id="line2d_23">
      <path d="M 52.160938 79.517835 
L 417.6 79.517835 
" clip-path="url(#p2597a15ff6)" style="fill: none; stroke-dasharray: 2.96,1.28; stroke-dashoffset: 0; stroke: #b0b0b0; stroke-width: 0.8"/>
     </g>
     <g id="line2d_24">
      <g>
       <use xlink:href="#mea1cc7cb92" x="52.160938" y="79.517835" style="stroke: #000000; stroke-width: 0.8"/>
      </g>
     </g>
     <g id="text_13">
      <!-- 0.6 -->
      <g transform="translate(29.257812 83.317054) scale(0.1 -0.1)">
       <use xlink:href="#DejaVuSans-30"/>
       <use xlink:href="#DejaVuSans-2e" x="63.623047"/>
       <use xlink:href="#DejaVuSans-36" x="95.410156"/>
      </g>
     </g>
    </g>
    <g id="ytick_7">
     <g id="line2d_25">
      <path d="M 52.160938 50.06907 
L 417.6 50.06907 
" clip-path="url(#p2597a15ff6)" style="fill: none; stroke-dasharray: 2.96,1.28; stroke-dashoffset: 0; stroke: #b0b0b0; stroke-width: 0.8"/>
     </g>
     <g id="line2d_26">
      <g>
       <use xlink:href="#mea1cc7cb92" x="52.160938" y="50.06907" style="stroke: #000000; stroke-width: 0.8"/>
      </g>
     </g>
     <g id="text_14">
      <!-- 0.8 -->
      <g transform="translate(29.257812 53.868288) scale(0.1 -0.1)">
       <use xlink:href="#DejaVuSans-30"/>
       <use xlink:href="#DejaVuSans-2e" x="63.623047"/>
       <use xlink:href="#DejaVuSans-38" x="95.410156"/>
      </g>
     </g>
    </g>
    <g id="ytick_8">
     <g id="line2d_27">
      <path d="M 52.160938 20.620304 
L 417.6 20.620304 
" clip-path="url(#p2597a15ff6)" style="fill: none; stroke-dasharray: 2.96,1.28; stroke-dashoffset: 0; stroke: #b0b0b0; stroke-width: 0.8"/>
     </g>
     <g id="line2d_28">
      <g>
       <use xlink:href="#mea1cc7cb92" x="52.160938" y="20.620304" style="stroke: #000000; stroke-width: 0.8"/>
      </g>
     </g>
     <g id="text_15">
      <!-- 1.0 -->
      <g transform="translate(29.257812 24.419523) scale(0.1 -0.1)">
       <use xlink:href="#DejaVuSans-31"/>
       <use xlink:href="#DejaVuSans-2e" x="63.623047"/>
       <use xlink:href="#DejaVuSans-30" x="95.410156"/>
      </g>
     </g>
    </g>
    <g id="text_16">
     <!-- $V$ (V) -->
     <g transform="translate(14.798438 137.571875) rotate(-90) scale(0.1 -0.1)">
      <defs>
       <path id="DejaVuSans-Oblique-56" d="M 1319 0 
L 500 4666 
L 1119 4666 
L 1797 653 
L 4063 4666 
L 4750 4666 
L 2053 0 
L 1319 0 
z
" transform="scale(0.015625)"/>
       <path id="DejaVuSans-56" d="M 1831 0 
L 50 4666 
L 709 4666 
L 2188 738 
L 3669 4666 
L 4325 4666 
L 2547 0 
L 1831 0 
z
" transform="scale(0.015625)"/>
      </defs>
      <use xlink:href="#DejaVuSans-Oblique-56" transform="translate(0 0.125)"/>
      <use xlink:href="#DejaVuSans-20" transform="translate(68.408203 0.125)"/>
      <use xlink:href="#DejaVuSans-28" transform="translate(100.195312 0.125)"/>
      <use xlink:href="#DejaVuSans-56" transform="translate(139.208984 0.125)"/>
      <use xlink:href="#DejaVuSans-29" transform="translate(207.617188 0.125)"/>
     </g>
    </g>
   </g>
   <g id="line2d_29">
    <path d="M 68.771804 60.011075 
L 69.100822 60.147557 
L 69.431522 60.160072 
L 70.755571 58.902881 
L 71.086895 58.837529 
L 71.748919 59.337262 
L 72.079619 59.389872 
L 72.410943 59.225834 
L 73.072968 58.390286 
L 73.403668 58.297933 
L 74.397016 59.244628 
L 74.727716 59.1178 
L 75.721065 58.308285 
L 76.383089 58.389902 
L 76.713789 58.277681 
L 77.045113 58.027648 
L 77.375813 57.936303 
L 78.369162 58.700659 
L 78.699862 58.468698 
L 79.361886 57.541124 
L 79.69321 57.21283 
L 80.02391 57.215758 
L 81.017259 58.085773 
L 81.347959 58.151149 
L 82.009983 57.618888 
L 82.672007 57.491032 
L 83.003332 57.31508 
L 83.665356 56.798213 
L 83.996056 56.812307 
L 84.989405 57.724238 
L 85.320105 57.481217 
L 86.313453 56.177072 
L 86.643142 56.634577 
L 86.973842 56.835598 
L 87.635866 56.970981 
L 88.629214 56.217836 
L 89.291239 56.390994 
L 90.283963 56.071437 
L 90.615287 55.923374 
L 91.277311 56.476531 
L 91.608011 56.80608 
L 91.939336 56.423065 
L 92.270036 55.667405 
L 92.60136 55.325631 
L 92.93206 55.483686 
L 93.925409 56.587577 
L 94.587433 56.177501 
L 94.918133 56.292666 
L 95.911481 57.401578 
L 96.904206 57.556393 
L 97.23553 57.79046 
L 97.897554 58.64535 
L 98.228254 58.343404 
L 98.559578 57.655553 
L 98.890278 57.256655 
L 99.221603 57.418132 
L 99.883627 58.119268 
L 100.214327 58.250941 
L 100.876351 57.868432 
L 101.538375 56.651342 
L 102.531724 56.127962 
L 102.862424 55.833219 
L 103.193748 55.68956 
L 103.524448 55.922811 
L 104.185461 57.037955 
L 104.516161 57.075826 
L 105.50951 54.924932 
L 105.84021 55.089239 
L 106.502234 56.540946 
L 106.833558 56.912847 
L 107.164258 56.884928 
L 108.157607 56.340646 
L 108.819631 57.086142 
L 109.150331 57.229912 
L 110.14368 57.079635 
L 110.474379 57.400994 
L 110.805704 58.163772 
L 111.136404 58.63887 
L 111.467728 58.058811 
L 111.798428 57.002695 
L 112.129752 56.431998 
L 112.460452 56.571393 
L 113.453801 58.4734 
L 113.784501 58.734311 
L 114.446525 58.846253 
L 115.108549 59.590282 
L 115.439874 59.672066 
L 116.432598 58.611259 
L 116.763922 58.784456 
L 117.425947 59.628413 
L 117.756647 59.457167 
L 118.418671 58.364706 
L 118.749995 58.297693 
L 119.412019 58.914266 
L 119.742719 58.854236 
L 120.074044 58.595025 
L 120.736068 57.732388 
L 121.398092 57.629811 
L 122.05848 57.323097 
L 122.389805 56.93406 
L 122.720505 56.760863 
L 123.051829 56.931133 
L 124.044553 58.603312 
L 124.375878 58.542155 
L 125.368602 57.425362 
L 126.030626 57.912781 
L 126.692651 58.915274 
L 127.023975 59.087931 
L 127.354675 59.005268 
L 128.348023 58.306851 
L 129.010048 57.183367 
L 129.340747 57.011405 
L 129.672072 57.258048 
L 130.664796 58.509685 
L 131.658145 56.864323 
L 132.320169 57.083097 
L 132.982193 57.888651 
L 133.312893 57.99755 
L 133.974917 57.254302 
L 134.306242 57.250331 
L 134.968266 57.657177 
L 136.623015 59.275121 
L 136.954339 59.188061 
L 137.616363 58.031072 
L 137.947063 57.896704 
L 138.609087 58.778853 
L 138.940412 58.908221 
L 139.2701 58.862529 
L 139.932124 58.459653 
L 140.594149 58.12833 
L 141.256173 58.6622 
L 141.586873 58.563266 
L 141.918197 58.005596 
L 142.248897 57.675861 
L 142.580221 57.970807 
L 143.572946 60.017939 
L 143.90427 59.549141 
L 144.566294 58.014973 
L 144.896994 57.673173 
L 145.228318 57.737029 
L 145.559019 57.984019 
L 146.221043 58.718541 
L 146.552367 58.805292 
L 147.214391 58.694601 
L 147.545091 58.7905 
L 147.876416 58.658062 
L 148.86914 57.672562 
L 149.200464 57.71974 
L 149.862489 58.24648 
L 150.193188 58.112628 
L 150.524513 57.4742 
L 150.855212 57.181589 
L 151.186537 57.529031 
L 151.848561 58.606601 
L 152.179261 58.923829 
L 152.510585 58.860417 
L 153.17261 58.021904 
L 153.50331 57.619229 
L 153.834634 57.6597 
L 154.496658 58.414449 
L 154.827358 58.899955 
L 155.158682 59.061438 
L 155.489383 58.804843 
L 156.151407 59.073999 
L 156.482731 59.370559 
L 156.81242 59.051542 
L 157.14312 58.564248 
L 157.474444 58.633143 
L 158.136468 59.191429 
L 158.467168 59.211102 
L 159.129192 58.676809 
L 159.791216 58.633723 
L 160.122541 58.601555 
L 160.784565 58.886429 
L 161.777289 58.88078 
L 162.108614 58.728399 
L 162.439314 58.79376 
L 162.770638 59.225684 
L 163.101338 59.471951 
L 163.432662 59.202599 
L 164.094686 58.230095 
L 164.425386 58.084923 
L 164.756711 58.426594 
L 165.418735 59.51745 
L 165.749435 59.550627 
L 166.080759 59.309384 
L 166.411459 58.930279 
L 166.742784 58.748518 
L 167.404808 58.809876 
L 168.066832 58.492618 
L 168.397532 58.44455 
L 169.390881 59.162979 
L 169.721581 58.927332 
L 170.052905 58.552221 
L 170.714929 58.247381 
L 171.045629 58.325971 
L 171.707653 58.798264 
L 172.701002 58.046838 
L 173.031702 58.06687 
L 173.363026 58.384996 
L 173.693726 58.377684 
L 174.02505 58.001394 
L 174.685439 56.69192 
L 175.016763 56.599053 
L 175.678788 57.454178 
L 176.009488 57.490603 
L 176.340812 56.92139 
L 176.671512 56.112104 
L 177.002836 55.625886 
L 177.333536 55.632139 
L 177.664861 56.023698 
L 177.99556 56.18204 
L 179.319609 56.006145 
L 179.650933 56.236977 
L 180.312958 56.816697 
L 180.643657 56.778392 
L 180.974982 56.562992 
L 181.305682 56.526008 
L 181.637006 56.794745 
L 182.29903 57.875489 
L 182.62973 57.84931 
L 183.291754 56.822037 
L 183.623079 56.811689 
L 184.947127 58.073978 
L 185.277827 58.096556 
L 185.939852 57.665475 
L 186.271176 57.778576 
L 186.9332 58.359881 
L 187.595224 58.362818 
L 187.925925 58.652859 
L 188.257249 59.307422 
L 188.919273 61.365345 
L 189.249973 61.420869 
L 189.911997 60.589076 
L 190.243322 60.410682 
L 190.574021 60.493147 
L 191.236046 61.220159 
L 191.56737 61.231984 
L 191.897058 61.044833 
L 192.559083 60.130088 
L 192.889783 60.090768 
L 194.213831 58.975052 
L 194.545156 59.050721 
L 195.53788 59.641022 
L 195.869204 59.21229 
L 196.531228 58.008686 
L 196.861929 57.956779 
L 197.855277 59.052774 
L 198.185977 59.035611 
L 198.848001 58.733123 
L 199.179326 59.000565 
L 199.510025 59.422668 
L 199.84135 59.626086 
L 200.17205 59.607774 
L 200.834074 59.333952 
L 201.165398 59.476777 
L 201.827423 60.453589 
L 202.158122 60.357977 
L 202.820147 59.0004 
L 203.151471 58.914863 
L 204.144195 60.386547 
L 204.47552 60.61773 
L 204.80622 60.60727 
L 205.468244 60.024937 
L 206.461592 60.163458 
L 207.454317 59.40132 
L 207.785641 59.688573 
L 208.447665 60.870693 
L 208.778365 60.678558 
L 209.10969 59.871186 
L 209.439378 59.606077 
L 209.770078 59.533605 
L 210.763427 60.668329 
L 211.425451 60.877696 
L 212.087475 60.569383 
L 213.080199 61.054022 
L 213.742224 60.665484 
L 214.073548 60.506845 
L 214.404248 60.520004 
L 215.066272 61.134079 
L 215.397596 60.769632 
L 215.728296 60.210567 
L 216.059621 59.980709 
L 216.390321 60.07119 
L 217.052345 60.838407 
L 217.383669 60.906563 
L 218.707718 59.605696 
L 219.369742 59.602373 
L 220.031767 58.939301 
L 220.362466 58.633878 
L 220.693791 58.584783 
L 221.355815 59.472997 
L 221.686515 59.391722 
L 222.348539 58.45372 
L 222.679863 58.276106 
L 223.672588 58.700432 
L 224.003912 58.695755 
L 224.334612 58.501202 
L 224.665936 58.513639 
L 225.65866 59.630134 
L 225.989985 59.642944 
L 226.981698 59.093207 
L 227.312398 59.469818 
L 227.974422 60.637419 
L 228.305746 60.381844 
L 228.636446 59.583637 
L 228.96777 59.290148 
L 229.629795 60.386779 
L 229.960494 60.853985 
L 230.291819 61.129486 
L 230.622519 60.928124 
L 231.284543 60.263434 
L 231.615867 60.338408 
L 231.946567 60.810091 
L 232.277892 61.507279 
L 232.608592 61.923685 
L 232.939916 61.809383 
L 233.60194 61.455363 
L 234.263964 61.279273 
L 234.594664 60.780614 
L 236.580737 53.72824 
L 237.239875 49.568505 
L 238.563819 38.053823 
L 240.549892 18.366384 
L 240.881216 17.929261 
L 245.51375 24.087344 
L 245.845075 25.311236 
L 246.507099 35.344023 
L 248.493172 77.017518 
L 249.155196 85.244328 
L 249.485896 87.859477 
L 250.14792 90.676845 
L 250.479245 91.256416 
L 250.809944 90.947408 
L 251.141269 90.057611 
L 251.799762 86.847511 
L 253.037611 79.141029 
L 253.699635 77.346555 
L 254.030335 76.487753 
L 255.023684 72.805848 
L 255.354384 72.461957 
L 256.347732 72.947278 
L 257.009757 72.280943 
L 257.671781 71.607509 
L 258.002481 71.460763 
L 258.333805 71.127278 
L 259.326529 69.214179 
L 259.657854 69.01761 
L 260.319878 68.952993 
L 260.650578 68.466752 
L 260.981902 67.733628 
L 261.312602 67.309371 
L 261.643926 67.317893 
L 261.974626 67.593226 
L 262.967975 69.175756 
L 263.298675 69.209795 
L 263.960699 68.482884 
L 264.292023 68.594685 
L 264.622723 68.560494 
L 264.954048 68.353707 
L 265.616072 67.388104 
L 265.946772 67.249123 
L 266.278096 67.527269 
L 266.608796 67.975473 
L 266.938876 68.014368 
L 267.931833 66.346882 
L 268.262533 66.083867 
L 268.924557 66.23667 
L 269.255882 66.213252 
L 269.586582 65.938684 
L 270.248606 64.94249 
L 270.57993 64.655147 
L 271.241954 64.810354 
L 271.572655 64.59895 
L 272.234679 63.372897 
L 272.566003 63.307601 
L 273.228027 64.074493 
L 273.558727 64.073839 
L 274.552076 62.274253 
L 274.882776 62.040849 
L 275.2141 62.125904 
L 275.876125 62.591855 
L 276.538149 62.654078 
L 277.200173 62.740776 
L 277.530873 62.949644 
L 277.862197 62.992444 
L 278.854921 61.494705 
L 279.186246 61.587936 
L 279.84827 62.394954 
L 280.17897 62.205901 
L 280.840994 60.810991 
L 281.172319 60.487422 
L 281.503018 60.466667 
L 282.165043 60.887107 
L 282.496367 60.818183 
L 283.158391 60.245765 
L 283.489091 60.17866 
L 283.820416 60.441287 
L 284.151116 60.430737 
L 284.812129 59.678056 
L 285.142829 59.628142 
L 285.804853 60.283326 
L 286.466877 60.206251 
L 286.798201 59.954913 
L 287.128901 59.479917 
L 287.460226 59.248277 
L 288.12225 59.691083 
L 288.45295 59.644531 
L 289.114974 59.822103 
L 289.446298 59.702718 
L 289.776998 59.424164 
L 290.439022 59.194735 
L 291.432371 58.442492 
L 291.763071 58.128096 
L 292.094395 58.19236 
L 292.75642 59.282835 
L 293.08712 59.192292 
L 293.749144 57.748151 
L 294.080468 57.691408 
L 294.411168 58.150276 
L 295.073193 59.648907 
L 295.404517 59.902879 
L 296.066541 59.613529 
L 296.397241 59.783983 
L 297.059265 60.656785 
L 297.39059 60.665976 
L 298.383314 59.334326 
L 298.714638 59.433574 
L 299.376663 60.389592 
L 299.707362 60.002291 
L 300.369386 58.60073 
L 300.700711 58.084707 
L 301.362735 58.097369 
L 301.693435 58.262434 
L 302.024112 58.097397 
L 302.685148 57.377586 
L 303.016472 57.274188 
L 303.347172 57.519806 
L 303.678496 57.468358 
L 304.671221 56.52684 
L 305.002545 56.458023 
L 305.664569 57.223669 
L 305.995269 57.414866 
L 306.657294 56.642988 
L 306.988618 56.657985 
L 307.981342 57.660981 
L 308.312667 57.780981 
L 308.643366 57.606451 
L 308.974691 57.045709 
L 309.30539 56.210307 
L 309.636715 55.80454 
L 309.967415 55.850495 
L 310.960763 55.720986 
L 311.291463 55.825799 
L 311.622788 56.212214 
L 311.953488 56.769296 
L 312.284812 57.034673 
L 312.615512 56.72845 
L 313.277536 55.408999 
L 313.60886 55.20218 
L 314.601585 55.625312 
L 315.594933 55.725136 
L 315.925633 55.797141 
L 316.256958 56.15748 
L 316.587658 56.336588 
L 316.918982 56.290943 
L 317.581006 55.585774 
L 317.911706 55.601839 
L 318.57373 56.357368 
L 318.905055 56.388563 
L 319.896767 54.227187 
L 320.227467 54.000687 
L 320.558792 54.10242 
L 320.889492 53.979087 
L 321.88284 52.40135 
L 322.21354 51.725877 
L 322.544864 51.49527 
L 323.206889 51.752685 
L 323.537589 51.759638 
L 324.530937 51.116272 
L 325.523662 51.12806 
L 326.185686 50.432748 
L 326.51701 50.362891 
L 327.841059 50.696126 
L 328.171759 50.348538 
L 328.833783 49.401074 
L 329.827132 48.730477 
L 330.157831 48.373298 
L 330.819856 47.396195 
L 331.48188 47.041809 
L 331.813204 46.961533 
L 332.143904 46.551252 
L 332.805928 45.209664 
L 333.137253 44.882895 
L 333.799277 44.605764 
L 334.461301 44.909165 
L 335.123326 45.34019 
L 335.78535 45.991903 
L 337.109399 45.016768 
L 337.439087 45.083797 
L 338.431811 46.535885 
L 338.763136 46.440402 
L 339.093835 45.962503 
L 339.42516 45.711164 
L 339.75586 46.053056 
L 340.087184 46.825886 
L 340.749208 47.565078 
L 341.079908 47.714401 
L 342.073257 46.520554 
L 342.403957 46.787467 
L 343.065981 48.027809 
L 343.728005 48.15027 
L 344.05933 48.529244 
L 345.052054 50.510083 
L 345.714078 50.148662 
L 346.045402 50.334962 
L 347.038127 52.379643 
L 348.362175 53.987671 
L 349.355524 56.754006 
L 350.348248 58.018331 
L 351.341597 61.503067 
L 351.672296 61.984317 
L 352.003621 62.184829 
L 352.665645 63.007407 
L 353.327669 64.687714 
L 353.989694 66.940188 
L 354.320394 67.639475 
L 354.651718 68.061298 
L 355.643431 70.341607 
L 355.974131 70.622688 
L 356.305455 70.45674 
L 356.636155 70.594583 
L 357.298179 72.074906 
L 357.960203 73.276627 
L 358.622228 73.208423 
L 358.953552 73.533823 
L 359.946276 75.16679 
L 360.277601 75.916757 
L 360.6083 76.365913 
L 361.270325 76.364915 
L 361.932349 77.02557 
L 362.263673 77.328446 
L 362.594373 77.323044 
L 363.256398 77.039822 
L 363.587722 77.227284 
L 364.580446 78.564838 
L 365.242471 78.108989 
L 366.566519 78.337056 
L 366.897843 78.113766 
L 367.228543 77.716705 
L 367.890568 76.52794 
L 368.552592 76.210624 
L 369.214616 76.093041 
L 369.545941 75.886924 
L 370.538664 76.266857 
L 370.869989 76.719663 
L 371.200689 76.297043 
L 371.532013 75.250648 
L 371.862713 74.695801 
L 372.194037 74.452675 
L 373.18575 75.593592 
L 373.51645 75.573111 
L 373.847774 75.207155 
L 374.509799 73.797636 
L 375.502523 73.863972 
L 375.833847 73.580799 
L 376.495872 72.764251 
L 376.826572 72.572468 
L 377.157896 72.587982 
L 377.488596 72.422127 
L 378.15062 70.723524 
L 378.481945 70.424803 
L 379.474668 70.768737 
L 379.805993 70.458871 
L 380.798717 68.967001 
L 381.460741 68.646379 
L 382.122766 68.584543 
L 383.446814 68.369956 
L 383.778138 68.435343 
L 384.108838 68.205455 
L 384.770863 67.2726 
L 385.764211 66.743434 
L 387.08826 65.522101 
L 387.41896 65.262597 
L 388.080984 65.080281 
L 388.743008 64.290406 
L 389.074333 63.730599 
L 389.405033 63.421578 
L 389.736357 63.368048 
L 390.396745 63.936114 
L 391.390094 62.368833 
L 391.720794 62.336467 
L 392.052118 62.43094 
L 392.714142 62.278754 
L 394.700215 61.982397 
L 395.69294 60.752182 
L 396.024264 60.921663 
L 396.686288 61.951295 
L 397.016988 62.087237 
L 398.010337 60.721019 
L 398.672361 60.862577 
L 399.334385 60.529412 
L 399.99641 59.858468 
L 400.327109 59.511256 
L 400.658434 59.513004 
L 400.989134 59.777283 
L 400.989134 59.777283 
" clip-path="url(#p2597a15ff6)" style="fill: none; stroke: #1f77b4; stroke-width: 2; stroke-linecap: square"/>
   </g>
   <g id="line2d_30">
    <path d="M 68.771804 58.117088 
L 69.100822 58.584769 
L 69.431522 58.572889 
L 70.755571 59.83002 
L 71.086895 59.894899 
L 71.748919 59.396361 
L 72.079619 59.343226 
L 72.410943 59.506778 
L 73.072968 60.341821 
L 73.403668 60.433934 
L 74.397016 59.488332 
L 74.727716 59.614695 
L 75.721065 60.423827 
L 76.383089 60.342656 
L 76.713789 60.454354 
L 77.045113 60.703765 
L 77.375813 60.794972 
L 78.369162 60.032132 
L 78.699862 60.263812 
L 79.361886 61.189018 
L 79.69321 61.519425 
L 80.02391 61.512874 
L 81.017259 60.645843 
L 81.347959 60.581136 
L 82.009983 61.11143 
L 82.672007 61.241261 
L 83.003332 61.417441 
L 83.665356 61.92944 
L 83.996056 61.914873 
L 84.989405 61.006476 
L 85.320105 61.248854 
L 86.313453 62.547606 
L 86.643142 62.092163 
L 86.973842 61.891457 
L 87.635866 61.756598 
L 88.629214 62.506565 
L 89.291239 62.334819 
L 90.283963 62.65266 
L 90.615287 62.802805 
L 91.277311 62.251328 
L 91.608011 61.921106 
L 91.939336 62.302753 
L 92.270036 63.054322 
L 92.60136 63.394125 
L 92.93206 63.236572 
L 93.925409 62.139022 
L 94.587433 62.546881 
L 94.918133 62.432724 
L 95.911481 61.330879 
L 96.904206 61.173011 
L 97.23553 60.939736 
L 97.897554 60.086602 
L 98.228254 60.387857 
L 98.559578 61.074886 
L 98.890278 61.472192 
L 99.221603 61.311075 
L 99.883627 60.612169 
L 100.214327 60.480575 
L 100.876351 60.861952 
L 101.538375 62.074741 
L 102.531724 62.596316 
L 102.862424 62.888993 
L 103.193748 63.03209 
L 103.524448 62.79945 
L 104.185461 61.690109 
L 104.516161 61.652205 
L 105.50951 63.79484 
L 105.84021 63.630385 
L 106.502234 62.187725 
L 106.833558 61.814263 
L 107.164258 61.84513 
L 108.157607 62.385009 
L 108.819631 61.645036 
L 109.150331 61.501866 
L 110.14368 61.648114 
L 110.474379 61.327896 
L 110.805704 60.566994 
L 111.136404 60.092901 
L 111.467728 60.67207 
L 111.798428 61.725169 
L 112.129752 62.294373 
L 112.460452 62.154293 
L 113.453801 60.257967 
L 113.784501 59.997132 
L 114.446525 59.88513 
L 115.108549 59.14441 
L 115.439874 59.063053 
L 116.432598 60.123821 
L 116.763922 59.950186 
L 117.425947 59.106567 
L 117.756647 59.277817 
L 118.418671 60.366247 
L 118.749995 60.43374 
L 119.412019 59.817227 
L 119.742719 59.880877 
L 120.074044 60.139509 
L 120.736068 61.000717 
L 121.066768 60.996174 
L 122.05848 61.408429 
L 122.389805 61.79619 
L 122.720505 61.968476 
L 123.051829 61.795738 
L 124.044553 60.127844 
L 124.375878 60.189853 
L 125.368602 61.305603 
L 126.030626 60.820301 
L 126.692651 59.819787 
L 127.023975 59.647214 
L 127.354675 59.729407 
L 128.348023 60.424174 
L 129.010048 61.547819 
L 129.340747 61.718939 
L 129.672072 61.473122 
L 130.664796 60.224914 
L 131.658145 61.864766 
L 132.320169 61.647052 
L 132.982193 60.841755 
L 133.312893 60.732417 
L 133.974917 61.473814 
L 134.306242 61.478448 
L 134.968266 61.075331 
L 136.623015 59.459967 
L 136.954339 59.544151 
L 137.616363 60.701847 
L 137.947063 60.836247 
L 138.609087 59.955274 
L 138.940412 59.826389 
L 139.2701 59.872237 
L 139.932124 60.274061 
L 140.594149 60.605132 
L 141.256173 60.071435 
L 141.586873 60.170852 
L 141.918197 60.727203 
L 142.248897 61.056706 
L 142.580221 60.76188 
L 143.572946 58.713123 
L 143.90427 59.182692 
L 144.566294 60.715207 
L 144.896994 61.058597 
L 145.228318 60.995482 
L 145.559019 60.745563 
L 146.221043 60.012007 
L 146.552367 59.926321 
L 147.214391 60.039103 
L 147.545091 59.94324 
L 147.876416 60.07622 
L 148.86914 61.059732 
L 149.200464 61.012291 
L 149.862489 60.486661 
L 150.193188 60.617525 
L 150.524513 61.253962 
L 150.855212 61.54864 
L 151.186537 61.20246 
L 151.848561 60.127267 
L 152.179261 59.810002 
L 152.510585 59.87393 
L 153.17261 60.71035 
L 153.50331 61.11225 
L 153.834634 61.071455 
L 154.496658 60.318989 
L 154.827358 59.833819 
L 155.158682 59.672218 
L 155.489383 59.926862 
L 156.151407 59.657667 
L 156.482731 59.363476 
L 156.81242 59.682513 
L 157.14312 60.168601 
L 157.474444 60.100646 
L 158.136468 59.542462 
L 158.467168 59.523096 
L 159.129192 60.056395 
L 159.791216 60.096903 
L 160.122541 60.128934 
L 160.784565 59.847517 
L 161.777289 59.853116 
L 162.108614 60.004963 
L 162.439314 59.939679 
L 162.770638 59.508393 
L 163.101338 59.26207 
L 163.432662 59.531205 
L 164.094686 60.502944 
L 164.425386 60.647153 
L 164.756711 60.306344 
L 165.418735 59.216568 
L 165.749435 59.183211 
L 166.080759 59.424422 
L 166.411459 59.803382 
L 166.742784 59.981708 
L 167.404808 59.923417 
L 168.066832 60.239975 
L 168.397532 60.288665 
L 169.390881 59.570636 
L 169.721581 59.806021 
L 170.052905 60.181053 
L 170.714929 60.485199 
L 171.045629 60.406535 
L 171.707653 59.934984 
L 172.701002 60.685325 
L 173.031702 60.664813 
L 173.363026 60.347848 
L 173.693726 60.354525 
L 174.02505 60.730271 
L 174.685439 62.035984 
L 175.016763 62.128243 
L 175.678788 61.27587 
L 176.009488 61.239788 
L 176.340812 61.807175 
L 176.671512 62.612837 
L 177.002836 63.096145 
L 177.333536 63.089355 
L 177.664861 62.700222 
L 177.99556 62.542783 
L 179.319609 62.717632 
L 179.650933 62.487693 
L 180.312958 61.911056 
L 180.643657 61.949434 
L 180.974982 62.163586 
L 181.305682 62.199872 
L 181.637006 61.932623 
L 182.29903 60.855425 
L 182.62973 60.881894 
L 183.291754 61.906038 
L 183.623079 61.915894 
L 184.947127 60.657495 
L 185.277827 60.63517 
L 185.939852 61.064535 
L 186.271176 60.95178 
L 186.9332 60.371956 
L 187.595224 60.369269 
L 187.925925 60.079347 
L 188.257249 59.425165 
L 188.919273 57.364473 
L 189.249973 57.308194 
L 189.911997 58.142058 
L 190.243322 58.321196 
L 190.574021 58.238224 
L 191.236046 57.509913 
L 191.56737 57.497457 
L 191.897058 57.685472 
L 192.559083 58.602345 
L 192.889783 58.641021 
L 194.213831 59.757505 
L 194.545156 59.681524 
L 195.53788 59.091343 
L 195.869204 59.520036 
L 196.531228 60.722103 
L 196.861929 60.773613 
L 197.855277 59.679217 
L 198.185977 59.696136 
L 198.848001 59.998761 
L 199.179326 59.73171 
L 199.510025 59.30921 
L 199.84135 59.105861 
L 200.17205 59.124342 
L 200.834074 59.398019 
L 201.165398 59.255132 
L 201.827423 58.277374 
L 202.158122 58.373696 
L 202.820147 59.731487 
L 203.151471 59.817009 
L 204.144195 58.344389 
L 204.47552 58.112768 
L 204.80622 58.12317 
L 205.468244 58.706541 
L 206.461592 58.567847 
L 207.454317 59.330086 
L 207.785641 59.043227 
L 208.447665 57.859228 
L 208.778365 58.051652 
L 209.10969 58.860096 
L 209.439378 59.125406 
L 209.770078 59.197961 
L 210.763427 58.061642 
L 211.425451 57.851728 
L 212.087475 58.160903 
L 213.080199 57.674927 
L 213.742224 58.064467 
L 214.073548 58.223376 
L 214.404248 58.210261 
L 215.066272 57.594366 
L 215.397596 57.959931 
L 215.728296 58.519796 
L 216.059621 58.749984 
L 216.390321 58.659374 
L 217.052345 57.890632 
L 217.383669 57.82256 
L 218.707718 59.125092 
L 219.369742 59.128433 
L 220.031767 59.791423 
L 220.362466 60.096278 
L 220.693791 60.145211 
L 221.355815 59.257739 
L 221.686515 59.338761 
L 222.348539 60.276153 
L 222.679863 60.45359 
L 223.672588 60.029727 
L 224.003912 60.034087 
L 224.334612 60.228454 
L 224.665936 60.216215 
L 225.65866 59.099947 
L 225.989985 59.087172 
L 226.981698 59.637151 
L 227.312398 59.260549 
L 227.974422 58.091429 
L 228.305746 58.347275 
L 228.636446 59.146081 
L 228.96777 59.439953 
L 229.629795 58.342821 
L 229.960494 57.874279 
L 230.291819 57.597798 
L 230.622519 57.799534 
L 231.284543 58.465081 
L 231.615867 58.390588 
L 231.946567 57.917938 
L 232.277892 57.218938 
L 232.608592 56.800583 
L 232.939916 56.915644 
L 233.60194 57.270609 
L 234.263964 57.447179 
L 234.594664 57.946958 
L 236.580737 64.976061 
L 237.239875 69.085036 
L 238.563819 80.314381 
L 240.549892 99.021914 
L 240.881216 99.415122 
L 245.51375 93.635185 
L 245.845075 92.472675 
L 246.507099 82.899377 
L 248.493172 41.460807 
L 249.155196 32.928004 
L 249.485896 30.187992 
L 250.14792 27.221317 
L 250.479245 26.606059 
L 250.809944 26.929585 
L 251.141269 27.865805 
L 251.799762 31.23434 
L 253.037611 39.256128 
L 253.699635 41.109049 
L 254.030335 41.992455 
L 255.023684 45.770277 
L 255.354384 46.122914 
L 255.685708 45.984588 
L 256.016408 45.72578 
L 256.347732 45.626033 
L 257.009757 46.306816 
L 257.671781 46.994624 
L 258.002481 47.144317 
L 258.333805 47.484126 
L 259.326529 49.431609 
L 259.657854 49.631918 
L 260.319878 49.697222 
L 260.650578 50.190423 
L 260.981902 50.934202 
L 261.312602 51.364742 
L 261.643926 51.356312 
L 261.974626 51.077605 
L 262.967975 49.471429 
L 263.298675 49.435953 
L 263.960699 50.174104 
L 264.292023 50.060672 
L 264.622723 50.095437 
L 264.954048 50.305009 
L 265.616072 51.284007 
L 265.946772 51.425007 
L 266.278096 51.143508 
L 266.608796 50.689474 
L 266.938876 50.649169 
L 267.931833 52.337691 
L 268.262533 52.604116 
L 268.924557 52.449749 
L 269.255882 52.472531 
L 269.586582 52.74989 
L 270.248606 53.756176 
L 270.57993 54.046494 
L 271.241954 53.889892 
L 271.572655 54.102915 
L 272.234679 55.338021 
L 272.566003 55.404112 
L 273.228027 54.632018 
L 273.558727 54.631717 
L 274.552076 56.442472 
L 274.882776 56.677066 
L 275.2141 56.591794 
L 275.876125 56.123314 
L 276.538149 56.060463 
L 277.200173 55.973294 
L 277.530873 55.763245 
L 277.862197 55.720157 
L 278.854921 57.224536 
L 279.186246 57.131283 
L 279.84827 56.320376 
L 280.17897 56.510023 
L 280.840994 57.910029 
L 281.172319 58.234679 
L 281.503018 58.254872 
L 282.165043 57.833645 
L 282.496367 57.90256 
L 283.158391 58.475907 
L 283.489091 58.542919 
L 283.820416 58.279656 
L 284.151116 58.290504 
L 284.812129 59.043528 
L 285.142829 59.093678 
L 285.804853 58.43761 
L 286.466877 58.514848 
L 286.798201 58.766186 
L 287.128901 59.241947 
L 287.460226 59.473058 
L 288.12225 59.029894 
L 288.45295 59.076147 
L 289.114974 58.898679 
L 289.446298 59.018202 
L 289.776998 59.296572 
L 290.439022 59.525666 
L 291.432371 60.277412 
L 291.763071 60.59058 
L 292.094395 60.52698 
L 292.75642 59.437336 
L 293.08712 59.527754 
L 293.749144 60.970236 
L 294.080468 61.026463 
L 294.411168 60.567962 
L 295.073193 59.070357 
L 295.404517 58.816338 
L 296.066541 59.105649 
L 296.397241 58.934904 
L 297.059265 58.061239 
L 297.39059 58.051697 
L 298.383314 59.383936 
L 298.714638 59.285247 
L 299.376663 58.328063 
L 299.707362 58.715217 
L 300.369386 60.116788 
L 300.700711 60.632688 
L 301.362735 60.619214 
L 301.693435 60.454104 
L 302.024112 60.618997 
L 302.685148 61.336423 
L 303.016472 61.439521 
L 303.347172 61.194662 
L 303.678496 61.246183 
L 304.671221 62.18342 
L 305.002545 62.251494 
L 305.664569 61.488867 
L 305.995269 61.298208 
L 306.657294 62.067153 
L 306.988618 62.052348 
L 307.981342 61.052412 
L 308.312667 60.932826 
L 308.643366 61.106853 
L 308.974691 61.665743 
L 309.30539 62.497416 
L 309.636715 62.901057 
L 309.967415 62.854859 
L 310.960763 62.983092 
L 311.291463 62.878757 
L 312.284812 61.675907 
L 312.615512 61.980967 
L 313.277536 63.292636 
L 313.60886 63.49833 
L 314.601585 63.077071 
L 315.594933 62.977547 
L 315.925633 62.906084 
L 316.256958 62.547294 
L 316.587658 62.368804 
L 316.918982 62.414456 
L 317.581006 63.115466 
L 317.911706 63.099122 
L 318.57373 62.347456 
L 318.905055 62.317028 
L 319.896767 64.463548 
L 320.227467 64.688019 
L 320.558792 64.586728 
L 320.889492 64.708677 
L 321.88284 66.270994 
L 322.21354 66.937947 
L 322.544864 67.165519 
L 323.206889 66.910973 
L 323.537589 66.903695 
L 324.530937 67.538696 
L 325.523662 67.527237 
L 326.185686 68.212347 
L 326.51701 68.281091 
L 327.841059 67.952317 
L 328.503083 68.796887 
L 328.833783 69.226986 
L 329.827132 69.886373 
L 330.157831 70.237321 
L 330.819856 71.195594 
L 331.48188 71.542184 
L 331.813204 71.620806 
L 332.143904 72.023603 
L 332.805928 73.335627 
L 333.137253 73.654337 
L 333.799277 73.924224 
L 334.461301 73.626795 
L 335.123326 73.205635 
L 335.78535 72.568249 
L 337.109399 73.521407 
L 337.439087 73.455802 
L 338.431811 72.034769 
L 338.763136 72.128631 
L 339.093835 72.596141 
L 339.42516 72.84164 
L 339.75586 72.505858 
L 340.087184 71.749456 
L 340.749208 71.024922 
L 341.079908 70.879155 
L 342.073257 72.048095 
L 342.403957 71.786086 
L 343.065981 70.570405 
L 343.728005 70.449351 
L 344.05933 70.076735 
L 345.052054 68.128357 
L 345.714078 68.484019 
L 346.045402 68.299186 
L 347.038127 66.280798 
L 348.362175 64.688545 
L 349.355524 61.939453 
L 350.348248 60.679073 
L 351.341597 57.191738 
L 351.672296 56.708601 
L 352.003621 56.506975 
L 352.665645 55.679766 
L 353.327669 53.986792 
L 353.989694 51.710589 
L 354.320394 51.001055 
L 354.651718 50.573433 
L 355.643431 48.255776 
L 355.974131 47.968547 
L 356.305455 48.136971 
L 356.636155 47.997354 
L 357.298179 46.487209 
L 357.960203 45.257414 
L 358.622228 45.327387 
L 358.953552 44.994872 
L 359.946276 43.320752 
L 360.277601 42.549762 
L 360.6083 42.086712 
L 361.270325 42.087943 
L 361.932349 41.407872 
L 362.263673 41.094747 
L 362.594373 41.099536 
L 363.256398 41.391543 
L 363.587722 41.199146 
L 364.580446 39.81833 
L 365.242471 40.287647 
L 366.566519 40.052142 
L 366.897843 40.281709 
L 367.228543 40.691073 
L 367.890568 41.914377 
L 368.552592 42.241787 
L 369.214616 42.361516 
L 369.545941 42.573215 
L 370.538664 42.183475 
L 370.869989 41.717108 
L 371.200689 42.150151 
L 371.532013 43.223404 
L 371.862713 43.794199 
L 372.194037 44.044133 
L 373.18575 42.873214 
L 373.51645 42.892951 
L 373.847774 43.26809 
L 374.509799 44.713875 
L 375.502523 44.645474 
L 375.833847 44.934608 
L 376.495872 45.769905 
L 376.826572 45.966095 
L 377.157896 45.950693 
L 377.488596 46.118066 
L 378.15062 47.851878 
L 378.481945 48.15662 
L 379.474668 47.805328 
L 379.805993 48.119846 
L 380.798717 49.637092 
L 381.460741 49.963272 
L 382.122766 50.025379 
L 383.446814 50.242243 
L 383.778138 50.175674 
L 384.108838 50.408222 
L 384.770863 51.35341 
L 385.764211 51.888803 
L 387.08826 53.122949 
L 387.41896 53.385031 
L 388.080984 53.568956 
L 388.743008 54.364751 
L 389.074333 54.928471 
L 389.405033 55.239631 
L 389.736357 55.293682 
L 390.396745 54.720749 
L 391.390094 56.297015 
L 391.720794 56.329496 
L 392.052118 56.234443 
L 392.714142 56.386544 
L 394.700215 56.682512 
L 395.69294 57.916642 
L 396.024264 57.746209 
L 396.686288 56.713139 
L 397.016988 56.575798 
L 398.010337 57.946038 
L 398.672361 57.803316 
L 399.334385 58.136436 
L 399.99641 58.808063 
L 400.327109 59.155411 
L 400.658434 59.153244 
L 400.989134 58.88837 
L 400.989134 58.88837 
" clip-path="url(#p2597a15ff6)" style="fill: none; stroke: #ff7f0e; stroke-width: 2; stroke-linecap: square"/>
   </g>
   <g id="line2d_31">
    <path d="M 68.771804 169.758119 
L 69.100822 169.426919 
L 69.431522 169.451314 
L 70.755571 166.936993 
L 71.086895 166.806762 
L 71.748919 167.805032 
L 72.079619 167.910778 
L 72.410943 167.583188 
L 73.072968 165.912597 
L 73.403668 165.728131 
L 74.397016 167.620428 
L 74.727716 167.367236 
L 75.059041 166.83643 
L 75.38974 166.078578 
L 75.721065 165.748589 
L 76.051765 165.917535 
L 76.383089 165.911378 
L 76.713789 165.687458 
L 77.045113 165.188015 
L 77.375813 165.005462 
L 78.369162 166.532658 
L 78.699862 166.069018 
L 79.361886 164.216237 
L 79.69321 163.557537 
L 80.02391 163.567016 
L 81.017259 165.304062 
L 81.347959 165.434145 
L 82.009983 164.371589 
L 82.672007 164.113902 
L 83.003332 163.76177 
L 83.334032 163.092896 
L 83.665356 162.732904 
L 83.996056 162.761565 
L 84.989405 164.581894 
L 85.320105 164.096495 
L 85.982129 161.903933 
L 86.313453 161.493598 
L 86.643142 162.406546 
L 86.973842 162.808272 
L 87.305166 162.852769 
L 87.635866 163.078514 
L 88.629214 161.575403 
L 89.291239 161.920306 
L 89.953263 161.578774 
L 90.615287 160.984701 
L 90.945987 161.432611 
L 91.608011 162.749106 
L 91.939336 161.984444 
L 92.270036 160.477215 
L 92.60136 159.795638 
L 92.93206 160.111245 
L 93.594084 161.75092 
L 93.925409 162.312686 
L 94.587433 161.494752 
L 94.918133 161.724073 
L 95.911481 163.93483 
L 96.904206 164.247514 
L 97.23553 164.714856 
L 97.897554 166.42288 
L 98.228254 165.819679 
L 98.559578 164.444798 
L 98.890278 163.648595 
L 99.221603 163.971189 
L 99.883627 165.371231 
L 100.214327 165.634498 
L 100.876351 164.870611 
L 101.538375 162.440732 
L 102.531724 161.395777 
L 102.862424 160.808358 
L 103.193748 160.521601 
L 103.524448 160.987493 
L 104.185461 163.211977 
L 104.516161 163.287753 
L 105.50951 158.994224 
L 105.84021 159.322986 
L 106.502234 162.217352 
L 106.833558 162.962715 
L 107.164258 162.90393 
L 107.495583 162.488735 
L 107.826282 161.876556 
L 108.157607 161.819769 
L 108.819631 163.305237 
L 109.150331 163.592177 
L 110.14368 163.295653 
L 110.474379 163.937229 
L 110.805704 165.460909 
L 111.136404 166.4101 
L 111.467728 165.250873 
L 111.798428 163.141658 
L 112.129752 162.001756 
L 112.460452 162.281231 
L 113.453801 166.079565 
L 113.784501 166.60131 
L 114.446525 166.825255 
L 115.108549 168.310004 
L 115.439874 168.473144 
L 115.770574 167.793379 
L 116.101898 166.838698 
L 116.432598 166.351569 
L 116.763922 166.698401 
L 117.425947 168.385978 
L 117.756647 168.043481 
L 118.418671 165.86259 
L 118.749995 165.728085 
L 119.412019 166.96117 
L 119.742719 166.837491 
L 120.074044 166.319648 
L 120.736068 164.595803 
L 121.066768 164.604391 
L 121.72778 164.073346 
L 122.05848 163.778799 
L 122.389805 163.002002 
L 122.720505 162.656519 
L 123.051829 162.999527 
L 124.044553 166.339599 
L 124.375878 166.216433 
L 125.037902 164.272749 
L 125.368602 163.983891 
L 126.030626 164.956612 
L 126.692651 166.959619 
L 127.023975 167.304848 
L 127.354675 167.139992 
L 128.016699 166.307801 
L 128.348023 165.746809 
L 129.010048 163.499679 
L 129.340747 163.156597 
L 129.672072 163.649058 
L 130.664796 166.148903 
L 131.658145 162.863688 
L 131.988844 162.988788 
L 132.320169 163.300176 
L 132.982193 164.911027 
L 133.312893 165.129264 
L 133.974917 163.64462 
L 134.306242 163.636015 
L 134.968266 164.445978 
L 136.623015 167.679286 
L 136.954339 167.508041 
L 137.616363 165.193356 
L 137.947063 164.924588 
L 138.609087 166.68771 
L 138.940412 166.945964 
L 139.2701 166.854424 
L 139.6008 166.322138 
L 140.594149 165.38733 
L 141.256173 166.454897 
L 141.586873 166.256545 
L 141.918197 165.142524 
L 142.248897 164.483286 
L 142.580221 165.073059 
L 143.572946 169.168947 
L 143.90427 168.23058 
L 144.566294 165.163897 
L 144.896994 164.478707 
L 145.228318 164.605679 
L 145.559019 165.102587 
L 146.221043 166.570665 
L 146.552367 166.743102 
L 146.883067 166.532777 
L 147.214391 166.51963 
L 147.545091 166.711391 
L 147.876416 166.445974 
L 148.53844 164.904326 
L 148.86914 164.476961 
L 149.200464 164.571581 
L 149.862489 165.623951 
L 150.193188 165.359234 
L 150.524513 164.084369 
L 150.855212 163.497081 
L 151.186537 164.190702 
L 151.848561 166.343466 
L 152.179261 166.977958 
L 152.510585 166.850619 
L 152.841285 166.151558 
L 153.50331 164.371111 
L 153.834634 164.452377 
L 154.496658 165.959592 
L 154.827358 166.930268 
L 155.158682 167.253351 
L 155.489383 166.742113 
L 155.820707 166.92132 
L 156.151407 167.280463 
L 156.482731 167.871215 
L 156.81242 167.23316 
L 157.14312 166.259778 
L 157.474444 166.396629 
L 158.136468 167.513098 
L 158.467168 167.552137 
L 159.129192 166.484546 
L 159.460517 166.520641 
L 160.122541 166.336752 
L 160.784565 166.903044 
L 161.115265 166.948844 
L 161.446589 166.860245 
L 161.777289 166.891795 
L 162.108614 166.587567 
L 162.439314 166.718213 
L 162.770638 167.581423 
L 163.101338 168.074013 
L 163.432662 167.535525 
L 164.094686 165.591283 
L 164.425386 165.301902 
L 164.756711 165.984382 
L 165.418735 168.165014 
L 165.749435 168.231548 
L 166.080759 167.749093 
L 166.411459 166.991029 
L 166.742784 166.630941 
L 167.073484 166.778793 
L 167.404808 166.750591 
L 168.066832 166.116775 
L 168.397532 166.020016 
L 168.728857 166.47256 
L 169.059556 167.149961 
L 169.390881 167.456474 
L 169.721581 166.985442 
L 170.052905 166.235299 
L 170.714929 165.626314 
L 171.045629 165.783567 
L 171.376954 166.373301 
L 171.707653 166.727411 
L 172.701002 165.225645 
L 173.031702 165.266188 
L 173.363026 165.90128 
L 173.693726 165.88729 
L 174.02505 165.135254 
L 174.685439 162.520068 
L 175.016763 162.334941 
L 175.678788 164.04244 
L 176.009488 164.114947 
L 176.340812 162.978347 
L 176.671512 161.363398 
L 177.002836 160.393872 
L 177.333536 160.406915 
L 177.664861 161.187607 
L 177.99556 161.503388 
L 179.319609 161.152645 
L 179.650933 161.613416 
L 179.981633 162.344923 
L 180.312958 162.769772 
L 180.643657 162.693089 
L 180.974982 162.263537 
L 181.305682 162.190267 
L 181.637006 162.726253 
L 182.29903 164.884195 
L 182.62973 164.831548 
L 183.291754 162.78013 
L 183.623079 162.759926 
L 184.615803 164.964155 
L 184.947127 165.280615 
L 185.277827 165.325518 
L 185.939852 164.465071 
L 186.271176 164.690928 
L 186.9332 165.852056 
L 187.595224 165.85768 
L 187.925925 166.437643 
L 188.257249 167.746388 
L 188.919273 171.865003 
L 189.249973 171.976806 
L 189.911997 170.31115 
L 190.243322 169.953618 
L 190.574021 170.119055 
L 191.236046 171.574378 
L 191.56737 171.598658 
L 191.897058 171.223493 
L 192.559083 169.391874 
L 192.889783 169.313878 
L 193.551807 167.8384 
L 193.883131 167.112678 
L 194.213831 167.081678 
L 194.545156 167.233329 
L 195.53788 168.413811 
L 195.869204 167.556386 
L 196.531228 165.150715 
L 196.861929 165.047297 
L 197.193253 165.732945 
L 197.523953 166.673568 
L 197.855277 167.237689 
L 198.185977 167.203606 
L 198.517301 166.798885 
L 198.848001 166.598494 
L 199.179326 167.132987 
L 199.510025 167.977589 
L 199.84135 168.384356 
L 200.17205 168.347564 
L 200.834074 167.800064 
L 201.165398 168.085777 
L 201.827423 170.040347 
L 202.158122 169.848413 
L 202.820147 167.133044 
L 203.151471 166.961985 
L 204.144195 169.90629 
L 204.47552 170.369093 
L 204.80622 170.348232 
L 205.468244 169.182528 
L 206.130268 169.47798 
L 206.461592 169.459743 
L 207.454317 167.935365 
L 207.785641 168.509478 
L 208.447665 170.875596 
L 208.778365 170.491037 
L 209.10969 168.875221 
L 209.439378 168.344802 
L 209.770078 168.199775 
L 210.763427 170.470819 
L 211.094126 170.7783 
L 211.425451 170.890099 
L 212.087475 170.272611 
L 213.080199 171.243227 
L 213.742224 170.465149 
L 214.073548 170.147601 
L 214.404248 170.173874 
L 215.066272 171.403845 
L 215.397596 170.673832 
L 215.728296 169.554903 
L 216.059621 169.094857 
L 216.390321 169.275948 
L 217.052345 170.811906 
L 217.383669 170.948135 
L 217.714369 170.261905 
L 218.045694 169.284447 
L 218.376394 168.655594 
L 218.707718 168.344735 
L 219.369742 168.338071 
L 219.700442 167.812583 
L 220.362466 166.401732 
L 220.693791 166.303704 
L 221.02449 167.029488 
L 221.355815 168.079389 
L 221.686515 167.917093 
L 222.348539 166.041698 
L 222.679863 165.686647 
L 223.341888 166.375678 
L 223.672588 166.534836 
L 224.003912 166.525799 
L 224.334612 166.13688 
L 224.665936 166.161556 
L 224.996636 166.827621 
L 225.32796 167.796014 
L 225.65866 168.394319 
L 225.989985 168.419904 
L 226.320685 168.073597 
L 226.652009 167.479285 
L 226.981698 167.320188 
L 227.312398 168.073401 
L 227.974422 170.410121 
L 228.305746 169.898701 
L 228.636446 168.301688 
L 228.96777 167.714327 
L 229.29847 168.623319 
L 229.960494 170.843838 
L 230.291819 171.39582 
L 230.622519 170.992721 
L 231.284543 169.662484 
L 231.615867 169.811951 
L 231.946567 170.756284 
L 232.277892 172.152472 
L 232.608592 172.987234 
L 232.939916 172.75787 
L 233.270616 172.27504 
L 233.60194 172.048885 
L 233.93264 171.958504 
L 234.263964 171.696225 
L 234.594664 170.697787 
L 236.580737 156.616311 
L 237.239875 148.3476 
L 238.563819 125.603575 
L 240.549892 87.208602 
L 240.881216 86.378271 
L 245.51375 98.316291 
L 245.845075 100.702693 
L 246.507099 120.308777 
L 248.493172 203.420842 
L 249.155196 220.180456 
L 249.485896 225.535617 
L 250.14792 231.31966 
L 250.479245 232.514489 
L 250.809944 231.881955 
L 251.141269 230.055937 
L 251.471968 227.234775 
L 252.376251 215.885007 
L 253.037611 207.749032 
L 253.699635 204.101637 
L 254.030335 202.359429 
L 255.023684 194.899702 
L 255.354384 194.203174 
L 255.685708 194.477035 
L 256.016408 194.989221 
L 256.347732 195.185376 
L 257.009757 193.838259 
L 257.671781 192.477017 
L 258.002481 192.180577 
L 258.333805 191.507283 
L 259.326529 187.646702 
L 259.657854 187.249824 
L 259.988553 187.263579 
L 260.319878 187.119902 
L 260.650578 186.14046 
L 260.981902 184.663558 
L 261.312602 183.808761 
L 261.643926 183.825713 
L 261.974626 184.379753 
L 262.967975 187.568458 
L 263.298675 187.637974 
L 263.960699 186.172912 
L 264.292023 186.398144 
L 264.622723 186.329189 
L 264.954048 185.912829 
L 265.616072 183.968229 
L 265.946772 183.688248 
L 266.278096 184.247893 
L 266.608796 185.15013 
L 266.938876 185.229331 
L 267.931833 181.873322 
L 268.262533 181.343883 
L 268.924557 181.651053 
L 269.255882 181.604853 
L 269.586582 181.052925 
L 270.248606 179.050445 
L 270.57993 178.472784 
L 271.241954 178.784594 
L 271.572655 178.360167 
L 272.234679 175.899007 
L 272.566003 175.76762 
L 273.228027 177.306607 
L 273.558727 177.306254 
L 274.552076 173.695913 
L 274.882776 173.227914 
L 275.2141 173.398241 
L 275.876125 174.332673 
L 276.206825 174.487036 
L 276.868849 174.454958 
L 277.200173 174.631614 
L 277.530873 175.050531 
L 277.862197 175.136419 
L 278.854921 172.134301 
L 279.186246 172.320784 
L 279.84827 173.938709 
L 280.17897 173.560009 
L 280.840994 170.765093 
L 281.172319 170.116874 
L 281.503018 170.075926 
L 282.165043 170.917593 
L 282.496367 170.779755 
L 283.158391 169.633989 
L 283.489091 169.499873 
L 283.820416 170.025762 
L 284.151116 170.004365 
L 284.812129 168.49866 
L 285.142829 168.398596 
L 285.804853 169.709847 
L 286.136177 169.706254 
L 286.466877 169.555534 
L 286.798201 169.052859 
L 287.128901 168.102101 
L 287.460226 167.639351 
L 288.12225 168.525321 
L 288.45295 168.432516 
L 289.114974 168.787555 
L 289.446298 168.548647 
L 289.776998 167.991723 
L 290.439022 167.5332 
L 291.101047 166.63688 
L 291.763071 165.401648 
L 292.094395 165.529512 
L 292.75642 167.709631 
L 293.08712 167.528669 
L 293.749144 164.642047 
L 294.080468 164.529076 
L 294.411168 165.446446 
L 295.073193 168.442681 
L 295.404517 168.950673 
L 296.066541 168.372011 
L 296.397241 168.713211 
L 297.059265 170.459678 
L 297.39059 170.478411 
L 298.383314 167.814522 
L 298.714638 168.012459 
L 299.376663 169.925661 
L 299.707362 169.151206 
L 300.369386 166.348073 
L 300.700711 165.31615 
L 301.362735 165.342287 
L 301.693435 165.672462 
L 302.024112 165.342531 
L 302.685148 163.905294 
L 303.016472 163.698798 
L 303.347172 164.189276 
L 303.678496 164.086306 
L 304.671221 162.207552 
L 305.002545 162.070661 
L 305.664569 163.598933 
L 305.995269 163.980789 
L 306.326594 163.352899 
L 306.657294 162.439966 
L 306.988618 162.469769 
L 307.981342 164.4727 
L 308.312667 164.712287 
L 308.643366 164.363729 
L 308.974691 163.244098 
L 309.30539 161.577023 
L 309.636715 160.767615 
L 309.967415 160.859767 
L 310.629439 160.579066 
L 310.960763 160.602025 
L 311.291463 160.811173 
L 311.622788 161.58254 
L 311.953488 162.693753 
L 312.284812 163.222898 
L 312.615512 162.611614 
L 313.277536 159.980494 
L 313.60886 159.567981 
L 314.601585 160.412372 
L 314.932909 160.431497 
L 315.263609 160.644391 
L 315.594933 160.61172 
L 315.925633 160.755189 
L 316.256958 161.474318 
L 316.587658 161.831915 
L 316.918982 161.740618 
L 317.581006 160.334439 
L 317.911706 160.366848 
L 318.57373 161.874044 
L 318.905055 161.935666 
L 319.896767 157.62777 
L 320.227467 157.176799 
L 320.558792 157.379824 
L 320.889492 157.134541 
L 321.88284 153.994487 
L 322.21354 152.652061 
L 322.544864 152.193882 
L 323.206889 152.705844 
L 323.537589 152.720075 
L 324.530937 151.441707 
L 324.861637 151.484209 
L 325.192962 151.683709 
L 325.523662 151.464955 
L 326.185686 150.084533 
L 326.51701 149.945931 
L 326.84771 150.169686 
L 327.509734 150.833668 
L 327.841059 150.607941 
L 328.171759 149.918246 
L 328.833783 148.03822 
L 329.827132 146.708236 
L 330.157831 146.000108 
L 330.819856 144.064732 
L 331.15118 143.609745 
L 331.813204 143.204859 
L 332.143904 142.391781 
L 332.805928 139.738169 
L 333.137253 139.092689 
L 333.799277 138.545671 
L 334.129977 138.734991 
L 335.123326 139.998686 
L 335.78535 141.287785 
L 337.109399 139.359492 
L 337.439087 139.492127 
L 338.431811 142.365248 
L 338.763136 142.175902 
L 339.093835 141.230494 
L 339.42516 140.733656 
L 339.75586 141.41133 
L 340.087184 142.940562 
L 340.749208 144.404288 
L 341.079908 144.699378 
L 342.073257 142.336591 
L 342.403957 142.865513 
L 343.065981 145.321535 
L 343.728005 145.565051 
L 344.05933 146.316641 
L 345.052054 150.245857 
L 345.383378 149.978374 
L 345.714078 149.528774 
L 346.045402 149.899907 
L 347.038127 153.962976 
L 348.362175 157.163257 
L 349.355524 162.678685 
L 350.017548 164.050912 
L 350.348248 165.203389 
L 351.341597 172.175461 
L 351.672296 173.139847 
L 352.003621 173.541986 
L 352.334321 174.217602 
L 352.665645 175.191773 
L 353.327669 178.565053 
L 353.989694 183.09373 
L 354.320394 184.502551 
L 354.651718 185.351997 
L 355.643431 189.949962 
L 355.974131 190.518272 
L 356.305455 190.183901 
L 356.636155 190.46136 
L 356.967479 191.733841 
L 357.629504 194.858891 
L 357.960203 195.883345 
L 358.291528 195.906535 
L 358.622228 195.745168 
L 358.953552 196.403082 
L 359.946276 199.710169 
L 360.277601 201.231127 
L 360.6083 202.143333 
L 361.270325 202.141104 
L 361.601649 202.684832 
L 362.263673 204.09783 
L 362.594373 204.087639 
L 362.925698 203.682974 
L 363.256398 203.51241 
L 363.587722 203.892269 
L 364.580446 206.61064 
L 365.242471 205.685473 
L 365.904495 205.892115 
L 366.566519 206.149046 
L 366.897843 205.696188 
L 367.228543 204.889763 
L 367.890568 202.477694 
L 368.221892 202.034765 
L 368.883916 201.73937 
L 369.214616 201.595657 
L 369.545941 201.177841 
L 370.207965 201.55844 
L 370.538664 201.947513 
L 370.869989 202.866687 
L 371.200689 202.011023 
L 371.532013 199.891376 
L 371.862713 198.765734 
L 372.194037 198.272674 
L 373.18575 200.584509 
L 373.51645 200.544292 
L 373.847774 199.803197 
L 374.509799 196.947892 
L 375.502523 197.08263 
L 375.833847 196.510322 
L 376.495872 194.858477 
L 376.826572 194.470505 
L 377.157896 194.501421 
L 377.488596 194.168192 
L 378.15062 190.735777 
L 378.481945 190.132315 
L 379.474668 190.827541 
L 379.805993 190.203157 
L 380.798717 187.194041 
L 381.460741 186.547238 
L 381.792066 186.374932 
L 382.122766 186.423296 
L 382.45409 186.278658 
L 382.78479 186.011316 
L 383.446814 185.991845 
L 383.778138 186.123801 
L 384.108838 185.661365 
L 384.770863 183.783322 
L 385.764211 182.718763 
L 386.756936 180.737535 
L 387.41896 179.741697 
L 387.750284 179.669035 
L 388.080984 179.375456 
L 388.743008 177.789787 
L 389.074333 176.666259 
L 389.405033 176.046078 
L 389.736357 175.938497 
L 390.396745 177.079497 
L 390.72807 176.023118 
L 391.05877 174.562334 
L 391.390094 173.93595 
L 391.720794 173.871103 
L 392.052118 174.060629 
L 392.382818 173.79483 
L 393.376167 173.579514 
L 394.038191 173.383906 
L 394.368891 173.426322 
L 394.700215 173.164017 
L 395.69294 170.699671 
L 396.024264 171.039585 
L 396.686288 173.102288 
L 397.016988 173.375571 
L 398.010337 170.639113 
L 398.341037 170.865919 
L 398.672361 170.923392 
L 399.003061 170.685332 
L 399.665085 169.708627 
L 400.327109 168.219977 
L 400.658434 168.223891 
L 400.989134 168.753044 
L 400.989134 168.753044 
" clip-path="url(#p2597a15ff6)" style="fill: none; stroke: #2ca02c; stroke-width: 2; stroke-linecap: square"/>
   </g>
   <g id="patch_3">
    <path d="M 52.160938 243.24375 
L 52.160938 7.2 
" style="fill: none; stroke: #000000; stroke-width: 0.8; stroke-linejoin: miter; stroke-linecap: square"/>
   </g>
   <g id="patch_4">
    <path d="M 417.6 243.24375 
L 417.6 7.2 
" style="fill: none; stroke: #000000; stroke-width: 0.8; stroke-linejoin: miter; stroke-linecap: square"/>
   </g>
   <g id="patch_5">
    <path d="M 52.160938 243.24375 
L 417.6 243.24375 
" style="fill: none; stroke: #000000; stroke-width: 0.8; stroke-linejoin: miter; stroke-linecap: square"/>
   </g>
   <g id="patch_6">
    <path d="M 52.160938 7.2 
L 417.6 7.2 
" style="fill: none; stroke: #000000; stroke-width: 0.8; stroke-linejoin: miter; stroke-linecap: square"/>
   </g>
   <g id="legend_1">
    <g id="patch_7">
     <path d="M 59.160938 238.24375 
L 119.951563 238.24375 
Q 121.951563 238.24375 121.951563 236.24375 
L 121.951563 193.209375 
Q 121.951563 191.209375 119.951563 191.209375 
L 59.160938 191.209375 
Q 57.160938 191.209375 57.160938 193.209375 
L 57.160938 236.24375 
Q 57.160938 238.24375 59.160938 238.24375 
z
" style="fill: #ffffff; opacity: 0.8; stroke: #cccccc; stroke-linejoin: miter"/>
    </g>
    <g id="line2d_32">
     <path d="M 61.160938 199.307813 
L 71.160938 199.307813 
L 81.160938 199.307813 
" style="fill: none; stroke: #1f77b4; stroke-width: 2; stroke-linecap: square"/>
    </g>
    <g id="text_17">
     <!-- Voutp -->
     <g transform="translate(89.160938 202.807813) scale(0.1 -0.1)">
      <defs>
       <path id="DejaVuSans-6f" d="M 1959 3097 
Q 1497 3097 1228 2736 
Q 959 2375 959 1747 
Q 959 1119 1226 758 
Q 1494 397 1959 397 
Q 2419 397 2687 759 
Q 2956 1122 2956 1747 
Q 2956 2369 2687 2733 
Q 2419 3097 1959 3097 
z
M 1959 3584 
Q 2709 3584 3137 3096 
Q 3566 2609 3566 1747 
Q 3566 888 3137 398 
Q 2709 -91 1959 -91 
Q 1206 -91 779 398 
Q 353 888 353 1747 
Q 353 2609 779 3096 
Q 1206 3584 1959 3584 
z
" transform="scale(0.015625)"/>
       <path id="DejaVuSans-75" d="M 544 1381 
L 544 3500 
L 1119 3500 
L 1119 1403 
Q 1119 906 1312 657 
Q 1506 409 1894 409 
Q 2359 409 2629 706 
Q 2900 1003 2900 1516 
L 2900 3500 
L 3475 3500 
L 3475 0 
L 2900 0 
L 2900 538 
Q 2691 219 2414 64 
Q 2138 -91 1772 -91 
Q 1169 -91 856 284 
Q 544 659 544 1381 
z
M 1991 3584 
L 1991 3584 
z
" transform="scale(0.015625)"/>
       <path id="DejaVuSans-74" d="M 1172 4494 
L 1172 3500 
L 2356 3500 
L 2356 3053 
L 1172 3053 
L 1172 1153 
Q 1172 725 1289 603 
Q 1406 481 1766 481 
L 2356 481 
L 2356 0 
L 1766 0 
Q 1100 0 847 248 
Q 594 497 594 1153 
L 594 3053 
L 172 3053 
L 172 3500 
L 594 3500 
L 594 4494 
L 1172 4494 
z
" transform="scale(0.015625)"/>
       <path id="DejaVuSans-70" d="M 1159 525 
L 1159 -1331 
L 581 -1331 
L 581 3500 
L 1159 3500 
L 1159 2969 
Q 1341 3281 1617 3432 
Q 1894 3584 2278 3584 
Q 2916 3584 3314 3078 
Q 3713 2572 3713 1747 
Q 3713 922 3314 415 
Q 2916 -91 2278 -91 
Q 1894 -91 1617 61 
Q 1341 213 1159 525 
z
M 3116 1747 
Q 3116 2381 2855 2742 
Q 2594 3103 2138 3103 
Q 1681 3103 1420 2742 
Q 1159 2381 1159 1747 
Q 1159 1113 1420 752 
Q 1681 391 2138 391 
Q 2594 391 2855 752 
Q 3116 1113 3116 1747 
z
" transform="scale(0.015625)"/>
      </defs>
      <use xlink:href="#DejaVuSans-56"/>
      <use xlink:href="#DejaVuSans-6f" x="60.658203"/>
      <use xlink:href="#DejaVuSans-75" x="121.839844"/>
      <use xlink:href="#DejaVuSans-74" x="185.21875"/>
      <use xlink:href="#DejaVuSans-70" x="224.427734"/>
     </g>
    </g>
    <g id="line2d_33">
     <path d="M 61.160938 213.985938 
L 71.160938 213.985938 
L 81.160938 213.985938 
" style="fill: none; stroke: #ff7f0e; stroke-width: 2; stroke-linecap: square"/>
    </g>
    <g id="text_18">
     <!-- Voutn -->
     <g transform="translate(89.160938 217.485938) scale(0.1 -0.1)">
      <defs>
       <path id="DejaVuSans-6e" d="M 3513 2113 
L 3513 0 
L 2938 0 
L 2938 2094 
Q 2938 2591 2744 2837 
Q 2550 3084 2163 3084 
Q 1697 3084 1428 2787 
Q 1159 2491 1159 1978 
L 1159 0 
L 581 0 
L 581 3500 
L 1159 3500 
L 1159 2956 
Q 1366 3272 1645 3428 
Q 1925 3584 2291 3584 
Q 2894 3584 3203 3211 
Q 3513 2838 3513 2113 
z
" transform="scale(0.015625)"/>
      </defs>
      <use xlink:href="#DejaVuSans-56"/>
      <use xlink:href="#DejaVuSans-6f" x="60.658203"/>
      <use xlink:href="#DejaVuSans-75" x="121.839844"/>
      <use xlink:href="#DejaVuSans-74" x="185.21875"/>
      <use xlink:href="#DejaVuSans-6e" x="224.427734"/>
     </g>
    </g>
    <g id="line2d_34">
     <path d="M 61.160938 228.664062 
L 71.160938 228.664062 
L 81.160938 228.664062 
" style="fill: none; stroke: #2ca02c; stroke-width: 2; stroke-linecap: square"/>
    </g>
    <g id="text_19">
     <!-- Vout -->
     <g transform="translate(89.160938 232.164062) scale(0.1 -0.1)">
      <use xlink:href="#DejaVuSans-56"/>
      <use xlink:href="#DejaVuSans-6f" x="60.658203"/>
      <use xlink:href="#DejaVuSans-75" x="121.839844"/>
      <use xlink:href="#DejaVuSans-74" x="185.21875"/>
     </g>
    </g>
   </g>
  </g>
 </g>
 <defs>
  <clipPath id="p2597a15ff6">
   <rect x="52.160938" y="7.2" width="365.439063" height="236.04375"/>
  </clipPath>
 </defs>
</svg>
