<?xml version="1.0" encoding="utf-8" standalone="no"?>
<!DOCTYPE svg PUBLIC "-//W3C//DTD SVG 1.1//EN"
  "http://www.w3.org/Graphics/SVG/1.1/DTD/svg11.dtd">
<svg xmlns:xlink="http://www.w3.org/1999/xlink" width="432.3456pt" height="65.24pt" viewBox="0 0 432.3456 65.24" xmlns="http://www.w3.org/2000/svg" version="1.1">
 <metadata>
  <rdf:RDF xmlns:dc="http://purl.org/dc/elements/1.1/" xmlns:cc="http://creativecommons.org/ns#" xmlns:rdf="http://www.w3.org/1999/02/22-rdf-syntax-ns#">
   <cc:Work>
    <dc:type rdf:resource="http://purl.org/dc/dcmitype/StillImage"/>
    <dc:date>2025-05-20T18:07:15.065992</dc:date>
    <dc:format>image/svg+xml</dc:format>
    <dc:creator>
     <cc:Agent>
      <dc:title>Matplotlib v3.9.2, https://matplotlib.org/</dc:title>
     </cc:Agent>
    </dc:creator>
   </cc:Work>
  </rdf:RDF>
 </metadata>
 <defs>
  <style type="text/css">*{stroke-linejoin: round; stroke-linecap: butt}</style>
 </defs>
 <g id="figure_1">
  <g id="patch_1">
   <path d="M 0 65.24 
L 432.3456 65.24 
L 432.3456 0 
L 0 0 
L 0 65.24 
z
" style="fill: none"/>
  </g>
  <g id="axes_1">
   <g id="line2d_1">
    <path d="M 27.6776 22.68 
L 45.6776 22.68 
L 63.6776 22.68 
" clip-path="url(#p49dd3367af)" style="fill: none; stroke: #000000; stroke-width: 2; stroke-linecap: round"/>
   </g>
   <g id="line2d_2">
    <path d="M 63.6776 22.68 
L 63.6776 40.68 
L 90.6776 22.68 
L 63.6776 4.68 
L 63.6776 22.68 
" clip-path="url(#p49dd3367af)" style="fill: none; stroke: #000000; stroke-width: 2; stroke-linecap: round"/>
   </g>
   <g id="line2d_3">
    <path d="M 90.6776 22.68 
L 108.6776 22.68 
L 126.6776 22.68 
" clip-path="url(#p49dd3367af)" style="fill: none; stroke: #000000; stroke-width: 2; stroke-linecap: round"/>
   </g>
   <g id="line2d_4">
    <path d="M 126.6776 22.68 
L 126.6776 4.68 
L 162.6776 4.68 
L 162.6776 40.68 
L 126.6776 40.68 
L 126.6776 22.68 
" clip-path="url(#p49dd3367af)" style="fill: none; stroke: #000000; stroke-width: 2; stroke-linecap: round"/>
   </g>
   <g id="line2d_5">
    <path d="M 133.8776 22.68 
L 135.014442 21.511082 
L 136.151284 20.468834 
L 137.288126 19.666201 
L 138.424968 19.190159 
L 139.561811 19.092296 
L 140.698653 19.383216 
L 141.835495 20.031394 
L 142.972337 20.966589 
L 144.109179 22.087459 
L 145.246021 23.272541 
L 146.382863 24.393411 
L 147.519705 25.328606 
L 148.656547 25.976784 
L 149.793389 26.267704 
L 150.930232 26.169841 
L 152.067074 25.693799 
L 153.203916 24.891166 
L 154.340758 23.848918 
L 155.4776 22.68 
" clip-path="url(#p49dd3367af)" style="fill: none; stroke: #000000; stroke-width: 2; stroke-linecap: round"/>
   </g>
   <g id="line2d_6">
    <path d="M 133.8776 13.68 
L 135.014442 12.511082 
L 136.151284 11.468834 
L 137.288126 10.666201 
L 138.424968 10.190159 
L 139.561811 10.092296 
L 140.698653 10.383216 
L 141.835495 11.031394 
L 142.972337 11.966589 
L 144.109179 13.087459 
L 145.246021 14.272541 
L 146.382863 15.393411 
L 147.519705 16.328606 
L 148.656547 16.976784 
L 149.793389 17.267704 
L 150.930232 17.169841 
L 152.067074 16.693799 
L 153.203916 15.891166 
L 154.340758 14.848918 
L 155.4776 13.68 
" clip-path="url(#p49dd3367af)" style="fill: none; stroke: #000000; stroke-width: 2; stroke-linecap: round"/>
   </g>
   <g id="line2d_7">
    <path d="M 133.8776 31.68 
L 135.014442 30.511082 
L 136.151284 29.468834 
L 137.288126 28.666201 
L 138.424968 28.190159 
L 139.561811 28.092296 
L 140.698653 28.383216 
L 141.835495 29.031394 
L 142.972337 29.966589 
L 144.109179 31.087459 
L 145.246021 32.272541 
L 146.382863 33.393411 
L 147.519705 34.328606 
L 148.656547 34.976784 
L 149.793389 35.267704 
L 150.930232 35.169841 
L 152.067074 34.693799 
L 153.203916 33.891166 
L 154.340758 32.848918 
L 155.4776 31.68 
" clip-path="url(#p49dd3367af)" style="fill: none; stroke: #000000; stroke-width: 2; stroke-linecap: round"/>
   </g>
   <g id="line2d_8">
    <path d="M 142.8776 16.56 
L 146.4776 10.8 
" clip-path="url(#p49dd3367af)" style="fill: none; stroke: #000000; stroke-width: 2; stroke-linecap: round"/>
   </g>
   <g id="line2d_9">
    <path d="M 142.8776 25.56 
L 146.4776 19.8 
" clip-path="url(#p49dd3367af)" style="fill: none; stroke: #000000; stroke-width: 2; stroke-linecap: round"/>
   </g>
   <g id="line2d_10">
    <path d="M 162.6776 22.68 
L 180.6776 22.68 
L 198.6776 22.68 
" clip-path="url(#p49dd3367af)" style="fill: none; stroke: #000000; stroke-width: 2; stroke-linecap: round"/>
   </g>
   <g id="line2d_11">
    <path d="M 198.6776 22.68 
L 206.5976 4.68 
L 249.0776 4.68 
L 249.0776 40.68 
L 206.5976 40.68 
L 198.6776 22.68 
" clip-path="url(#p49dd3367af)" style="fill: none; stroke: #000000; stroke-width: 2; stroke-linecap: round"/>
   </g>
   <g id="line2d_12">
    <path d="M 249.0776 22.68 
L 267.0776 22.68 
L 285.0776 22.68 
" clip-path="url(#p49dd3367af)" style="fill: none; stroke: #000000; stroke-width: 2; stroke-linecap: round"/>
   </g>
   <g id="line2d_13">
    <path d="M 285.0776 22.68 
L 285.0776 4.68 
L 321.0776 4.68 
L 321.0776 40.68 
L 285.0776 40.68 
L 285.0776 22.68 
" clip-path="url(#p49dd3367af)" style="fill: none; stroke: #000000; stroke-width: 2; stroke-linecap: round"/>
   </g>
   <g id="line2d_14">
    <path d="M 321.0776 22.68 
L 339.0776 22.68 
L 357.0776 22.68 
" clip-path="url(#p49dd3367af)" style="fill: none; stroke: #000000; stroke-width: 2; stroke-linecap: round"/>
   </g>
   <g id="text_1">
    <!-- LNA -->
    <g transform="translate(60.601022 60.749588) scale(0.16 -0.16)">
     <defs>
      <path id="CMR17-4c" d="M 3469 1615 
L 3354 1615 
C 3302 983 3219 166 2125 166 
L 1530 166 
C 1274 166 1261 197 1261 414 
L 1261 3898 
C 1261 4129 1274 4192 1760 4192 
L 1901 4192 
L 1901 4352 
C 1638 4352 1331 4352 1069 4352 
C 870 4352 512 4352 326 4352 
L 326 4192 
C 768 4192 838 4192 838 3905 
L 838 452 
C 838 166 768 166 326 166 
L 326 0 
L 3315 0 
L 3469 1615 
z
" transform="scale(0.015625)"/>
      <path id="CMR17-4e" d="M 1312 4250 
C 1267 4320 1261 4320 1139 4320 
L 326 4320 
L 326 4160 
L 448 4160 
C 704 4160 819 4129 838 4122 
L 838 610 
C 838 451 838 153 326 153 
L 326 -13 
C 474 0 742 0 902 0 
C 1062 0 1331 0 1478 -13 
L 1478 153 
C 966 153 966 451 966 610 
L 966 4033 
C 1011 3995 1011 3982 1056 3919 
L 3430 76 
C 3475 0 3494 0 3526 0 
C 3590 0 3590 19 3590 139 
L 3590 3705 
C 3590 3863 3590 4160 4102 4160 
L 4102 4326 
C 3955 4320 3686 4320 3526 4320 
C 3366 4320 3098 4320 2950 4326 
L 2950 4160 
C 3462 4160 3462 3862 3462 3703 
L 3462 763 
L 1312 4250 
z
" transform="scale(0.015625)"/>
      <path id="CMR17-41" d="M 2323 4378 
C 2291 4461 2278 4480 2214 4480 
C 2150 4480 2138 4461 2106 4378 
L 749 566 
C 627 223 371 153 147 153 
L 147 -13 
C 262 0 518 0 640 0 
C 800 0 1056 0 1210 -13 
L 1210 153 
C 909 153 864 361 864 439 
C 864 497 877 530 890 569 
L 1229 1536 
L 2906 1536 
L 3290 442 
C 3322 365 3322 352 3322 327 
C 3322 153 3046 153 2925 153 
L 2925 0 
C 3110 0 3443 0 3642 0 
C 3808 0 4128 0 4282 -13 
L 4282 153 
C 3942 153 3827 153 3744 387 
L 2323 4378 
z
M 2067 3893 
L 2848 1702 
L 1286 1702 
L 2067 3893 
z
" transform="scale(0.015625)"/>
     </defs>
     <use xlink:href="#CMR17-4c" transform="scale(0.996264)"/>
     <use xlink:href="#CMR17-4e" transform="translate(57.381408 0) scale(0.996264)"/>
     <use xlink:href="#CMR17-41" transform="translate(126.453838 0) scale(0.996264)"/>
    </g>
   </g>
   <g id="text_2">
    <!-- AAF -->
    <g transform="translate(127.884244 60.749588) scale(0.16 -0.16)">
     <defs>
      <path id="CMR17-46" d="M 3482 4325 
L 326 4325 
L 326 4160 
C 768 4160 838 4160 838 3874 
L 838 446 
C 838 160 768 160 326 160 
L 326 0 
C 512 0 870 0 1069 0 
C 1331 0 1638 0 1901 0 
L 1901 160 
L 1760 160 
C 1274 160 1261 223 1261 452 
L 1261 2075 
L 1837 2075 
C 2432 2075 2490 1865 2490 1332 
L 2605 1332 
L 2605 2987 
L 2490 2987 
C 2490 2450 2432 2240 1837 2240 
L 1261 2240 
L 1261 3911 
C 1261 4128 1274 4160 1530 4160 
L 2355 4160 
C 3322 4160 3430 3765 3520 2916 
L 3635 2916 
L 3482 4325 
z
" transform="scale(0.015625)"/>
     </defs>
     <use xlink:href="#CMR17-41" transform="scale(0.996264)"/>
     <use xlink:href="#CMR17-41" transform="translate(69.07243 0) scale(0.996264)"/>
     <use xlink:href="#CMR17-46" transform="translate(138.14486 0) scale(0.996264)"/>
    </g>
   </g>
   <g id="text_3">
    <!-- ADC -->
    <g transform="translate(206.431153 60.749588) scale(0.16 -0.16)">
     <defs>
      <path id="CMR17-44" d="M 333 4352 
L 333 4186 
C 774 4186 845 4186 845 3900 
L 845 452 
C 845 166 774 166 333 166 
L 333 0 
L 2368 0 
C 3398 0 4224 943 4224 2141 
C 4224 3346 3411 4352 2368 4352 
L 333 4352 
z
M 1523 166 
C 1267 166 1254 197 1254 414 
L 1254 3938 
C 1254 4155 1267 4186 1523 4186 
L 2240 4186 
C 2771 4186 3750 3874 3750 2141 
C 3750 1242 3488 879 3366 707 
C 3213 510 2848 166 2240 166 
L 1523 166 
z
" transform="scale(0.015625)"/>
      <path id="CMR17-43" d="M 3974 4289 
C 3974 4403 3968 4410 3930 4410 
C 3904 4410 3898 4403 3853 4327 
L 3571 3792 
C 3258 4187 2874 4416 2381 4416 
C 1286 4416 294 3456 294 2148 
C 294 826 1286 -128 2387 -128 
C 3366 -128 3974 730 3974 1461 
C 3974 1524 3974 1550 3917 1550 
C 3866 1550 3866 1531 3859 1474 
C 3808 585 3168 38 2477 38 
C 1824 38 781 495 781 2147 
C 781 3805 1843 4250 2464 4250 
C 3187 4250 3712 3628 3834 2745 
C 3846 2668 3846 2655 3904 2655 
C 3974 2655 3974 2668 3974 2783 
L 3974 4289 
z
" transform="scale(0.015625)"/>
     </defs>
     <use xlink:href="#CMR17-41" transform="scale(0.996264)"/>
     <use xlink:href="#CMR17-44" transform="translate(69.07243 0) scale(0.996264)"/>
     <use xlink:href="#CMR17-43" transform="translate(139.465986 0) scale(0.996264)"/>
    </g>
   </g>
   <g id="text_4">
    <!-- FPGA -->
    <g transform="translate(280.701526 60.749588) scale(0.16 -0.16)">
     <defs>
      <path id="CMR17-50" d="M 1267 2042 
L 2291 2042 
C 3117 2042 3718 2578 3718 3184 
C 3718 3791 3130 4352 2291 4352 
L 333 4352 
L 333 4186 
C 774 4186 845 4186 845 3899 
L 845 446 
C 845 160 774 160 333 160 
L 333 0 
C 518 0 858 0 1056 0 
C 1254 0 1594 0 1779 0 
L 1779 160 
C 1338 160 1267 160 1267 446 
L 1267 2042 
z
M 1254 2176 
L 1254 3938 
C 1254 4155 1267 4186 1523 4186 
L 2170 4186 
C 2995 4186 3232 3714 3232 3184 
C 3232 2604 2950 2176 2170 2176 
L 1254 2176 
z
" transform="scale(0.015625)"/>
      <path id="CMR17-47" d="M 3974 1233 
C 3974 1473 3994 1505 4390 1505 
L 4390 1670 
C 4237 1664 3891 1664 3718 1664 
C 3539 1664 3040 1664 2797 1664 
L 2797 1505 
L 2989 1505 
C 3539 1505 3552 1434 3552 1201 
L 3552 774 
C 3552 63 2720 63 2522 63 
C 1862 63 781 511 781 2160 
C 781 3808 1843 4250 2464 4250 
C 3187 4250 3712 3626 3834 2741 
C 3846 2664 3846 2651 3904 2651 
C 3974 2651 3974 2664 3974 2779 
L 3974 4288 
C 3974 4402 3968 4409 3930 4409 
C 3904 4409 3898 4402 3853 4326 
L 3571 3791 
C 3258 4187 2874 4416 2381 4416 
C 1286 4416 294 3456 294 2148 
C 294 845 1267 -128 2394 -128 
C 2912 -128 3418 56 3616 417 
C 3725 158 3904 -20 3936 -20 
C 3968 -20 3974 -13 3974 100 
L 3974 1233 
z
" transform="scale(0.015625)"/>
     </defs>
     <use xlink:href="#CMR17-46" transform="scale(0.996264)"/>
     <use xlink:href="#CMR17-50" transform="translate(59.983847 0) scale(0.996264)"/>
     <use xlink:href="#CMR17-47" transform="translate(122.570147 0) scale(0.996264)"/>
     <use xlink:href="#CMR17-41" transform="translate(194.925493 0) scale(0.996264)"/>
    </g>
   </g>
   <g id="patch_2">
    <path d="M 27.6776 25.38 
C 28.393648 25.38 29.080466 25.095511 29.586788 24.589188 
C 30.093111 24.082866 30.3776 23.396048 30.3776 22.68 
C 30.3776 21.963952 30.093111 21.277134 29.586788 20.770812 
C 29.080466 20.264489 28.393648 19.98 27.6776 19.98 
C 26.961552 19.98 26.274734 20.264489 25.768412 20.770812 
C 25.262089 21.277134 24.9776 21.963952 24.9776 22.68 
C 24.9776 23.396048 25.262089 24.082866 25.768412 24.589188 
C 26.274734 25.095511 26.961552 25.38 27.6776 25.38 
z
" clip-path="url(#p49dd3367af)" style="fill: #ffffff; stroke: #000000; stroke-width: 2; stroke-linejoin: miter"/>
   </g>
   <g id="text_5">
    <!-- $V_\mathrm{in}$ -->
    <g transform="translate(2.980023 26.665056) scale(0.16 -0.16)">
     <defs>
      <path id="CMMI12-56" d="M 3962 3640 
C 4179 3984 4378 4136 4704 4162 
C 4768 4168 4819 4168 4819 4282 
C 4819 4308 4806 4346 4749 4346 
C 4634 4346 4358 4346 4243 4346 
C 4058 4346 3866 4346 3686 4346 
C 3635 4346 3571 4346 3571 4226 
C 3571 4168 3629 4162 3654 4162 
C 3891 4143 3917 4029 3917 3952 
C 3917 3857 3827 3710 3821 3704 
L 1811 540 
L 1363 3969 
C 1363 4160 1696 4160 1766 4160 
C 1862 4160 1920 4160 1920 4282 
C 1920 4346 1850 4346 1830 4346 
C 1722 4346 1594 4346 1485 4346 
L 1126 4346 
C 659 4346 467 4346 461 4346 
C 422 4346 346 4346 346 4230 
C 346 4160 390 4160 493 4160 
C 819 4160 838 4102 858 3944 
L 1370 24 
C 1389 -109 1389 -128 1478 -128 
C 1555 -128 1587 -109 1651 -8 
L 3962 3640 
z
" transform="scale(0.015625)"/>
      <path id="CMR17-69" d="M 992 3909 
C 992 4049 877 4170 730 4170 
C 589 4170 467 4056 467 3909 
C 467 3769 582 3648 730 3648 
C 870 3648 992 3763 992 3909 
z
M 243 2706 
L 243 2541 
C 602 2541 653 2502 653 2197 
L 653 427 
C 653 184 627 153 218 153 
L 218 -13 
C 371 0 646 0 806 0 
C 960 0 1222 0 1370 -13 
L 1370 153 
C 992 153 979 191 979 420 
L 979 2776 
L 243 2706 
z
" transform="scale(0.015625)"/>
      <path id="CMR17-6e" d="M 2656 1933 
C 2656 2259 2592 2790 1837 2790 
C 1331 2790 1069 2400 973 2144 
L 966 2144 
L 966 2790 
L 211 2720 
L 211 2554 
C 589 2554 646 2515 646 2208 
L 646 428 
C 646 184 621 153 211 153 
L 211 -13 
C 365 0 646 0 813 0 
C 979 0 1267 0 1421 -13 
L 1421 153 
C 1011 153 986 178 986 428 
L 986 1658 
C 986 2247 1344 2688 1792 2688 
C 2266 2688 2317 2266 2317 1958 
L 2317 428 
C 2317 184 2291 153 1882 153 
L 1882 -13 
C 2035 0 2317 0 2483 0 
C 2650 0 2938 0 3091 -13 
L 3091 153 
C 2682 153 2656 178 2656 428 
L 2656 1933 
z
" transform="scale(0.015625)"/>
     </defs>
     <use xlink:href="#CMMI12-56" transform="scale(0.996264)"/>
     <use xlink:href="#CMR17-69" transform="translate(56.869579 -14.943915) scale(0.697382)"/>
     <use xlink:href="#CMR17-6e" transform="translate(74.279238 -14.943915) scale(0.697382)"/>
    </g>
   </g>
   <g id="patch_3">
    <path d="M 357.0776 25.38 
C 357.793648 25.38 358.480466 25.095511 358.986788 24.589188 
C 359.493111 24.082866 359.7776 23.396048 359.7776 22.68 
C 359.7776 21.963952 359.493111 21.277134 358.986788 20.770812 
C 358.480466 20.264489 357.793648 19.98 357.0776 19.98 
C 356.361552 19.98 355.674734 20.264489 355.168412 20.770812 
C 354.662089 21.277134 354.3776 21.963952 354.3776 22.68 
C 354.3776 23.396048 354.662089 24.082866 355.168412 24.589188 
C 355.674734 25.095511 356.361552 25.38 357.0776 25.38 
z
" clip-path="url(#p49dd3367af)" style="fill: #ffffff; stroke: #000000; stroke-width: 2; stroke-linejoin: miter"/>
   </g>
   <g id="text_6">
    <!-- $01011010$ -->
    <g transform="translate(363.3776 26.665056) scale(0.16 -0.16)">
     <defs>
      <path id="CMR17-30" d="M 2688 2025 
C 2688 2416 2682 3080 2413 3591 
C 2176 4039 1798 4198 1466 4198 
C 1158 4198 768 4058 525 3597 
C 269 3118 243 2524 243 2025 
C 243 1661 250 1106 448 619 
C 723 -39 1216 -128 1466 -128 
C 1760 -128 2208 -7 2470 600 
C 2662 1042 2688 1559 2688 2025 
z
M 1466 -26 
C 1056 -26 813 325 723 812 
C 653 1188 653 1738 653 2096 
C 653 2588 653 2997 736 3387 
C 858 3929 1216 4096 1466 4096 
C 1728 4096 2067 3923 2189 3400 
C 2272 3036 2278 2607 2278 2096 
C 2278 1680 2278 1169 2202 792 
C 2067 95 1690 -26 1466 -26 
z
" transform="scale(0.015625)"/>
      <path id="CMR17-31" d="M 1702 4058 
C 1702 4192 1696 4192 1606 4192 
C 1357 3916 979 3827 621 3827 
C 602 3827 570 3827 563 3808 
C 557 3795 557 3782 557 3648 
C 755 3648 1088 3686 1344 3839 
L 1344 461 
C 1344 236 1331 160 781 160 
L 589 160 
L 589 0 
C 896 0 1216 0 1523 0 
C 1830 0 2150 0 2458 0 
L 2458 160 
L 2266 160 
C 1715 160 1702 230 1702 458 
L 1702 4058 
z
" transform="scale(0.015625)"/>
     </defs>
     <use xlink:href="#CMR17-30" transform="scale(0.996264)"/>
     <use xlink:href="#CMR17-31" transform="translate(45.690477 0) scale(0.996264)"/>
     <use xlink:href="#CMR17-30" transform="translate(91.380954 0) scale(0.996264)"/>
     <use xlink:href="#CMR17-31" transform="translate(137.071431 0) scale(0.996264)"/>
     <use xlink:href="#CMR17-31" transform="translate(182.761908 0) scale(0.996264)"/>
     <use xlink:href="#CMR17-30" transform="translate(228.452386 0) scale(0.996264)"/>
     <use xlink:href="#CMR17-31" transform="translate(274.142863 0) scale(0.996264)"/>
     <use xlink:href="#CMR17-30" transform="translate(319.83334 0) scale(0.996264)"/>
    </g>
   </g>
  </g>
 </g>
 <defs>
  <clipPath id="p49dd3367af">
   <rect x="0" y="0" width="432.3456" height="65.24"/>
  </clipPath>
 </defs>
</svg>
